G04 #@! TF.GenerationSoftware,KiCad,Pcbnew,(5.0.1)-3*
G04 #@! TF.CreationDate,2018-10-30T18:02:17+11:00*
G04 #@! TF.ProjectId,Inline_SSR,496E6C696E655F5353522E6B69636164,rev?*
G04 #@! TF.SameCoordinates,PX8a12ae0PY678e028*
G04 #@! TF.FileFunction,Legend,Top*
G04 #@! TF.FilePolarity,Positive*
%FSLAX46Y46*%
G04 Gerber Fmt 4.6, Leading zero omitted, Abs format (unit mm)*
G04 Created by KiCad (PCBNEW (5.0.1)-3) date 30/10/2018 6:02:17 PM*
%MOMM*%
%LPD*%
G01*
G04 APERTURE LIST*
%ADD10C,0.120000*%
%ADD11C,0.304800*%
%ADD12C,0.150000*%
%ADD13C,0.198120*%
G04 APERTURE END LIST*
D10*
G04 #@! TO.C,F1*
X8388500Y26159000D02*
X10788500Y26159000D01*
X8388500Y28959000D02*
X10788500Y28959000D01*
D11*
G04 #@! TO.C,J1*
X9628500Y-21500D02*
X9628500Y-2521500D01*
X9628500Y-2521500D02*
X14628500Y-2521500D01*
X14628500Y-21500D02*
X14628500Y-2521500D01*
X9128500Y11578500D02*
X9128500Y-21500D01*
X9128500Y11578500D02*
X15128500Y11578500D01*
X15128500Y11578500D02*
X15128500Y-21500D01*
X9128500Y-21500D02*
X15128500Y-21500D01*
D12*
G04 #@! TO.C,P1*
X8238500Y14160500D02*
X738500Y14160500D01*
X738500Y14160500D02*
X738500Y24320500D01*
X738500Y24320500D02*
X8238500Y24320500D01*
X15938500Y14160500D02*
X15938500Y24320500D01*
X15938500Y24320500D02*
X8238500Y24320500D01*
X8238500Y24320500D02*
X8238500Y14160500D01*
X8238500Y14160500D02*
X15938500Y14160500D01*
G04 #@! TO.C,U1*
X1835500Y146000D02*
X1835500Y24746000D01*
X1835500Y24746000D02*
X7435500Y24746000D01*
X7435500Y24746000D02*
X7435500Y146000D01*
X7435500Y146000D02*
X1835500Y146000D01*
G04 #@! TO.C,F1*
X9255166Y30230429D02*
X8921833Y30230429D01*
X8921833Y29706620D02*
X8921833Y30706620D01*
X9398023Y30706620D01*
X10302785Y29706620D02*
X9731357Y29706620D01*
X10017071Y29706620D02*
X10017071Y30706620D01*
X9921833Y30563762D01*
X9826595Y30468524D01*
X9731357Y30420905D01*
G04 #@! TO.C,J1*
D13*
X11895760Y13025145D02*
X11895760Y12312130D01*
X11848225Y12169528D01*
X11753157Y12074459D01*
X11610554Y12026925D01*
X11515485Y12026925D01*
X12893980Y12026925D02*
X12323568Y12026925D01*
X12608774Y12026925D02*
X12608774Y13025145D01*
X12513705Y12882542D01*
X12418637Y12787473D01*
X12323568Y12739939D01*
X7684044Y-3174855D02*
X7684044Y-3887870D01*
X7636510Y-4030472D01*
X7541441Y-4125541D01*
X7398838Y-4173075D01*
X7303770Y-4173075D01*
X8111852Y-3887870D02*
X8587195Y-3887870D01*
X8016784Y-4173075D02*
X8349524Y-3174855D01*
X8682264Y-4173075D01*
X9585415Y-4078007D02*
X9537881Y-4125541D01*
X9395278Y-4173075D01*
X9300210Y-4173075D01*
X9157607Y-4125541D01*
X9062538Y-4030472D01*
X9015004Y-3935404D01*
X8967470Y-3745267D01*
X8967470Y-3602664D01*
X9015004Y-3412527D01*
X9062538Y-3317458D01*
X9157607Y-3222390D01*
X9300210Y-3174855D01*
X9395278Y-3174855D01*
X9537881Y-3222390D01*
X9585415Y-3269924D01*
X10013224Y-4173075D02*
X10013224Y-3174855D01*
X10583635Y-4173075D02*
X10155827Y-3602664D01*
X10583635Y-3174855D02*
X10013224Y-3745267D01*
X10773772Y-4268144D02*
X11534321Y-4268144D01*
X11724458Y-4125541D02*
X11867061Y-4173075D01*
X12104732Y-4173075D01*
X12199801Y-4125541D01*
X12247335Y-4078007D01*
X12294870Y-3982938D01*
X12294870Y-3887870D01*
X12247335Y-3792801D01*
X12199801Y-3745267D01*
X12104732Y-3697732D01*
X11914595Y-3650198D01*
X11819527Y-3602664D01*
X11771992Y-3555130D01*
X11724458Y-3460061D01*
X11724458Y-3364992D01*
X11771992Y-3269924D01*
X11819527Y-3222390D01*
X11914595Y-3174855D01*
X12152267Y-3174855D01*
X12294870Y-3222390D01*
X12580075Y-3174855D02*
X13150487Y-3174855D01*
X12865281Y-4173075D02*
X12865281Y-3174855D01*
X13483227Y-3650198D02*
X13815967Y-3650198D01*
X13958570Y-4173075D02*
X13483227Y-4173075D01*
X13483227Y-3174855D01*
X13958570Y-3174855D01*
X14956790Y-4173075D02*
X14624050Y-3697732D01*
X14386378Y-4173075D02*
X14386378Y-3174855D01*
X14766652Y-3174855D01*
X14861721Y-3222390D01*
X14909255Y-3269924D01*
X14956790Y-3364992D01*
X14956790Y-3507595D01*
X14909255Y-3602664D01*
X14861721Y-3650198D01*
X14766652Y-3697732D01*
X14386378Y-3697732D01*
X15384598Y-3650198D02*
X15717338Y-3650198D01*
X15859941Y-4173075D02*
X15384598Y-4173075D01*
X15384598Y-3174855D01*
X15859941Y-3174855D01*
X16477887Y-3174855D02*
X16668024Y-3174855D01*
X16763092Y-3222390D01*
X16858161Y-3317458D01*
X16905695Y-3507595D01*
X16905695Y-3840335D01*
X16858161Y-4030472D01*
X16763092Y-4125541D01*
X16668024Y-4173075D01*
X16477887Y-4173075D01*
X16382818Y-4125541D01*
X16287750Y-4030472D01*
X16240215Y-3840335D01*
X16240215Y-3507595D01*
X16287750Y-3317458D01*
X16382818Y-3222390D01*
X16477887Y-3174855D01*
G04 #@! TO.C,P1*
D12*
X10040880Y22312405D02*
X9040880Y22312405D01*
X9040880Y22693358D01*
X9088500Y22788596D01*
X9136119Y22836215D01*
X9231357Y22883834D01*
X9374214Y22883834D01*
X9469452Y22836215D01*
X9517071Y22788596D01*
X9564690Y22693358D01*
X9564690Y22312405D01*
X10040880Y23836215D02*
X10040880Y23264786D01*
X10040880Y23550500D02*
X9040880Y23550500D01*
X9183738Y23455262D01*
X9278976Y23360024D01*
X9326595Y23264786D01*
X15025642Y15216691D02*
X15073261Y15169072D01*
X15120880Y15026215D01*
X15120880Y14930977D01*
X15073261Y14788120D01*
X14978023Y14692881D01*
X14882785Y14645262D01*
X14692309Y14597643D01*
X14549452Y14597643D01*
X14358976Y14645262D01*
X14263738Y14692881D01*
X14168500Y14788120D01*
X14120880Y14930977D01*
X14120880Y15026215D01*
X14168500Y15169072D01*
X14216119Y15216691D01*
X14120880Y15835739D02*
X14120880Y16026215D01*
X14168500Y16121453D01*
X14263738Y16216691D01*
X14454214Y16264310D01*
X14787547Y16264310D01*
X14978023Y16216691D01*
X15073261Y16121453D01*
X15120880Y16026215D01*
X15120880Y15835739D01*
X15073261Y15740500D01*
X14978023Y15645262D01*
X14787547Y15597643D01*
X14454214Y15597643D01*
X14263738Y15645262D01*
X14168500Y15740500D01*
X14120880Y15835739D01*
X15120880Y16692881D02*
X14120880Y16692881D01*
X15120880Y17264310D01*
X14120880Y17264310D01*
X15120880Y17740500D02*
X14120880Y17740500D01*
X15120880Y18311929D01*
X14120880Y18311929D01*
X15216119Y18550024D02*
X15216119Y19311929D01*
X14120880Y19740500D02*
X14120880Y19835739D01*
X14168500Y19930977D01*
X14216119Y19978596D01*
X14311357Y20026215D01*
X14501833Y20073834D01*
X14739928Y20073834D01*
X14930404Y20026215D01*
X15025642Y19978596D01*
X15073261Y19930977D01*
X15120880Y19835739D01*
X15120880Y19740500D01*
X15073261Y19645262D01*
X15025642Y19597643D01*
X14930404Y19550024D01*
X14739928Y19502405D01*
X14501833Y19502405D01*
X14311357Y19550024D01*
X14216119Y19597643D01*
X14168500Y19645262D01*
X14120880Y19740500D01*
X15120880Y21026215D02*
X15120880Y20454786D01*
X15120880Y20740500D02*
X14120880Y20740500D01*
X14263738Y20645262D01*
X14358976Y20550024D01*
X14406595Y20454786D01*
X14120880Y21359548D02*
X15120880Y22026215D01*
X14120880Y22026215D02*
X15120880Y21359548D01*
X14120880Y22597643D02*
X14120880Y22692881D01*
X14168500Y22788120D01*
X14216119Y22835739D01*
X14311357Y22883358D01*
X14501833Y22930977D01*
X14739928Y22930977D01*
X14930404Y22883358D01*
X15025642Y22835739D01*
X15073261Y22788120D01*
X15120880Y22692881D01*
X15120880Y22597643D01*
X15073261Y22502405D01*
X15025642Y22454786D01*
X14930404Y22407167D01*
X14739928Y22359548D01*
X14501833Y22359548D01*
X14311357Y22407167D01*
X14216119Y22454786D01*
X14168500Y22502405D01*
X14120880Y22597643D01*
X14216119Y23311929D02*
X14168500Y23359548D01*
X14120880Y23454786D01*
X14120880Y23692881D01*
X14168500Y23788120D01*
X14216119Y23835739D01*
X14311357Y23883358D01*
X14406595Y23883358D01*
X14549452Y23835739D01*
X15120880Y23264310D01*
X15120880Y23883358D01*
G04 #@! TO.C,U1*
X2487880Y11684096D02*
X3297404Y11684096D01*
X3392642Y11731715D01*
X3440261Y11779334D01*
X3487880Y11874572D01*
X3487880Y12065048D01*
X3440261Y12160286D01*
X3392642Y12207905D01*
X3297404Y12255524D01*
X2487880Y12255524D01*
X3487880Y13255524D02*
X3487880Y12684096D01*
X3487880Y12969810D02*
X2487880Y12969810D01*
X2630738Y12874572D01*
X2725976Y12779334D01*
X2773595Y12684096D01*
X5635500Y5926953D02*
X5587880Y5831715D01*
X5587880Y5688858D01*
X5635500Y5546000D01*
X5730738Y5450762D01*
X5825976Y5403143D01*
X6016452Y5355524D01*
X6159309Y5355524D01*
X6349785Y5403143D01*
X6445023Y5450762D01*
X6540261Y5546000D01*
X6587880Y5688858D01*
X6587880Y5784096D01*
X6540261Y5926953D01*
X6492642Y5974572D01*
X6159309Y5974572D01*
X6159309Y5784096D01*
X5587880Y6307905D02*
X5587880Y6926953D01*
X5968833Y6593620D01*
X5968833Y6736477D01*
X6016452Y6831715D01*
X6064071Y6879334D01*
X6159309Y6926953D01*
X6397404Y6926953D01*
X6492642Y6879334D01*
X6540261Y6831715D01*
X6587880Y6736477D01*
X6587880Y6450762D01*
X6540261Y6355524D01*
X6492642Y6307905D01*
X6587880Y7355524D02*
X5587880Y7355524D01*
X6302166Y7688858D01*
X5587880Y8022191D01*
X6587880Y8022191D01*
X6064071Y8831715D02*
X6111690Y8974572D01*
X6159309Y9022191D01*
X6254547Y9069810D01*
X6397404Y9069810D01*
X6492642Y9022191D01*
X6540261Y8974572D01*
X6587880Y8879334D01*
X6587880Y8498381D01*
X5587880Y8498381D01*
X5587880Y8831715D01*
X5635500Y8926953D01*
X5683119Y8974572D01*
X5778357Y9022191D01*
X5873595Y9022191D01*
X5968833Y8974572D01*
X6016452Y8926953D01*
X6064071Y8831715D01*
X6064071Y8498381D01*
X6683119Y9260286D02*
X6683119Y10022191D01*
X6540261Y10212667D02*
X6587880Y10355524D01*
X6587880Y10593620D01*
X6540261Y10688858D01*
X6492642Y10736477D01*
X6397404Y10784096D01*
X6302166Y10784096D01*
X6206928Y10736477D01*
X6159309Y10688858D01*
X6111690Y10593620D01*
X6064071Y10403143D01*
X6016452Y10307905D01*
X5968833Y10260286D01*
X5873595Y10212667D01*
X5778357Y10212667D01*
X5683119Y10260286D01*
X5635500Y10307905D01*
X5587880Y10403143D01*
X5587880Y10641239D01*
X5635500Y10784096D01*
X6540261Y11165048D02*
X6587880Y11307905D01*
X6587880Y11546000D01*
X6540261Y11641239D01*
X6492642Y11688858D01*
X6397404Y11736477D01*
X6302166Y11736477D01*
X6206928Y11688858D01*
X6159309Y11641239D01*
X6111690Y11546000D01*
X6064071Y11355524D01*
X6016452Y11260286D01*
X5968833Y11212667D01*
X5873595Y11165048D01*
X5778357Y11165048D01*
X5683119Y11212667D01*
X5635500Y11260286D01*
X5587880Y11355524D01*
X5587880Y11593620D01*
X5635500Y11736477D01*
X6587880Y12736477D02*
X6111690Y12403143D01*
X6587880Y12165048D02*
X5587880Y12165048D01*
X5587880Y12546000D01*
X5635500Y12641239D01*
X5683119Y12688858D01*
X5778357Y12736477D01*
X5921214Y12736477D01*
X6016452Y12688858D01*
X6064071Y12641239D01*
X6111690Y12546000D01*
X6111690Y12165048D01*
G04 #@! TD*
M02*
