G04 (created by PCBNEW (2013-07-07 BZR 4022)-stable) date 13/04/2014 11:11:03 PM*
%MOIN*%
G04 Gerber Fmt 3.4, Leading zero omitted, Abs format*
%FSLAX34Y34*%
G01*
G70*
G90*
G04 APERTURE LIST*
%ADD10C,0.00590551*%
%ADD11C,0.011811*%
%ADD12C,0.012*%
%ADD13C,0.005*%
%ADD14C,0.0001*%
%ADD15C,0.008*%
G04 APERTURE END LIST*
G54D10*
G54D11*
X45517Y-51039D02*
X45517Y-50645D01*
X45517Y-50448D02*
X45489Y-50476D01*
X45517Y-50504D01*
X45545Y-50476D01*
X45517Y-50448D01*
X45517Y-50504D01*
X45798Y-50645D02*
X45798Y-51039D01*
X45798Y-50701D02*
X45827Y-50673D01*
X45883Y-50645D01*
X45967Y-50645D01*
X46023Y-50673D01*
X46052Y-50729D01*
X46052Y-51039D01*
X46248Y-50645D02*
X46473Y-50645D01*
X46333Y-51039D02*
X46333Y-50532D01*
X46361Y-50476D01*
X46417Y-50448D01*
X46473Y-50448D01*
X46895Y-51010D02*
X46839Y-51039D01*
X46726Y-51039D01*
X46670Y-51010D01*
X46642Y-50954D01*
X46642Y-50729D01*
X46670Y-50673D01*
X46726Y-50645D01*
X46839Y-50645D01*
X46895Y-50673D01*
X46923Y-50729D01*
X46923Y-50785D01*
X46642Y-50842D01*
X47176Y-51039D02*
X47176Y-50645D01*
X47176Y-50757D02*
X47205Y-50701D01*
X47233Y-50673D01*
X47289Y-50645D01*
X47345Y-50645D01*
X47542Y-50645D02*
X47542Y-51039D01*
X47542Y-50701D02*
X47570Y-50673D01*
X47626Y-50645D01*
X47711Y-50645D01*
X47767Y-50673D01*
X47795Y-50729D01*
X47795Y-51039D01*
X48161Y-51039D02*
X48104Y-51010D01*
X48076Y-50982D01*
X48048Y-50926D01*
X48048Y-50757D01*
X48076Y-50701D01*
X48104Y-50673D01*
X48161Y-50645D01*
X48245Y-50645D01*
X48301Y-50673D01*
X48329Y-50701D01*
X48358Y-50757D01*
X48358Y-50926D01*
X48329Y-50982D01*
X48301Y-51010D01*
X48245Y-51039D01*
X48161Y-51039D01*
X48836Y-51010D02*
X48779Y-51039D01*
X48667Y-51039D01*
X48611Y-51010D01*
X48583Y-50954D01*
X48583Y-50729D01*
X48611Y-50673D01*
X48667Y-50645D01*
X48779Y-50645D01*
X48836Y-50673D01*
X48864Y-50729D01*
X48864Y-50785D01*
X48583Y-50842D01*
X49117Y-51039D02*
X49117Y-50645D01*
X49117Y-50701D02*
X49145Y-50673D01*
X49201Y-50645D01*
X49286Y-50645D01*
X49342Y-50673D01*
X49370Y-50729D01*
X49370Y-51039D01*
X49370Y-50729D02*
X49398Y-50673D01*
X49454Y-50645D01*
X49539Y-50645D01*
X49595Y-50673D01*
X49623Y-50729D01*
X49623Y-51039D01*
X49904Y-51039D02*
X49904Y-50448D01*
X49904Y-50673D02*
X49960Y-50645D01*
X50073Y-50645D01*
X50129Y-50673D01*
X50157Y-50701D01*
X50185Y-50757D01*
X50185Y-50926D01*
X50157Y-50982D01*
X50129Y-51010D01*
X50073Y-51039D01*
X49960Y-51039D01*
X49904Y-51010D01*
X50664Y-51010D02*
X50607Y-51039D01*
X50495Y-51039D01*
X50439Y-51010D01*
X50410Y-50954D01*
X50410Y-50729D01*
X50439Y-50673D01*
X50495Y-50645D01*
X50607Y-50645D01*
X50664Y-50673D01*
X50692Y-50729D01*
X50692Y-50785D01*
X50410Y-50842D01*
X51198Y-51039D02*
X51198Y-50448D01*
X51198Y-51010D02*
X51142Y-51039D01*
X51029Y-51039D01*
X50973Y-51010D01*
X50945Y-50982D01*
X50917Y-50926D01*
X50917Y-50757D01*
X50945Y-50701D01*
X50973Y-50673D01*
X51029Y-50645D01*
X51142Y-50645D01*
X51198Y-50673D01*
X51732Y-51039D02*
X51732Y-50448D01*
X51732Y-51010D02*
X51676Y-51039D01*
X51563Y-51039D01*
X51507Y-51010D01*
X51479Y-50982D01*
X51451Y-50926D01*
X51451Y-50757D01*
X51479Y-50701D01*
X51507Y-50673D01*
X51563Y-50645D01*
X51676Y-50645D01*
X51732Y-50673D01*
X52238Y-51010D02*
X52182Y-51039D01*
X52070Y-51039D01*
X52013Y-51010D01*
X51985Y-50954D01*
X51985Y-50729D01*
X52013Y-50673D01*
X52070Y-50645D01*
X52182Y-50645D01*
X52238Y-50673D01*
X52266Y-50729D01*
X52266Y-50785D01*
X51985Y-50842D01*
X52773Y-51039D02*
X52773Y-50448D01*
X52773Y-51010D02*
X52716Y-51039D01*
X52604Y-51039D01*
X52548Y-51010D01*
X52520Y-50982D01*
X52491Y-50926D01*
X52491Y-50757D01*
X52520Y-50701D01*
X52548Y-50673D01*
X52604Y-50645D01*
X52716Y-50645D01*
X52773Y-50673D01*
X53054Y-50982D02*
X53082Y-51010D01*
X53054Y-51039D01*
X53026Y-51010D01*
X53054Y-50982D01*
X53054Y-51039D01*
X53588Y-51010D02*
X53532Y-51039D01*
X53419Y-51039D01*
X53363Y-51010D01*
X53335Y-50982D01*
X53307Y-50926D01*
X53307Y-50757D01*
X53335Y-50701D01*
X53363Y-50673D01*
X53419Y-50645D01*
X53532Y-50645D01*
X53588Y-50673D01*
X53926Y-51039D02*
X53869Y-51010D01*
X53841Y-50982D01*
X53813Y-50926D01*
X53813Y-50757D01*
X53841Y-50701D01*
X53869Y-50673D01*
X53926Y-50645D01*
X54010Y-50645D01*
X54066Y-50673D01*
X54094Y-50701D01*
X54122Y-50757D01*
X54122Y-50926D01*
X54094Y-50982D01*
X54066Y-51010D01*
X54010Y-51039D01*
X53926Y-51039D01*
X54376Y-51039D02*
X54376Y-50645D01*
X54376Y-50701D02*
X54404Y-50673D01*
X54460Y-50645D01*
X54544Y-50645D01*
X54601Y-50673D01*
X54629Y-50729D01*
X54629Y-51039D01*
X54629Y-50729D02*
X54657Y-50673D01*
X54713Y-50645D01*
X54797Y-50645D01*
X54854Y-50673D01*
X54882Y-50729D01*
X54882Y-51039D01*
X35433Y-49439D02*
X35095Y-49439D01*
X35264Y-49439D02*
X35264Y-48848D01*
X35208Y-48932D01*
X35152Y-48989D01*
X35095Y-49017D01*
X36080Y-48848D02*
X36220Y-49439D01*
X36333Y-49017D01*
X36445Y-49439D01*
X36586Y-48848D01*
X36811Y-49439D02*
X36811Y-49045D01*
X36811Y-48848D02*
X36783Y-48876D01*
X36811Y-48904D01*
X36839Y-48876D01*
X36811Y-48848D01*
X36811Y-48904D01*
X37092Y-49439D02*
X37092Y-49045D01*
X37092Y-49157D02*
X37120Y-49101D01*
X37148Y-49073D01*
X37205Y-49045D01*
X37261Y-49045D01*
X37683Y-49410D02*
X37626Y-49439D01*
X37514Y-49439D01*
X37458Y-49410D01*
X37430Y-49354D01*
X37430Y-49129D01*
X37458Y-49073D01*
X37514Y-49045D01*
X37626Y-49045D01*
X37683Y-49073D01*
X37711Y-49129D01*
X37711Y-49185D01*
X37430Y-49242D01*
X38751Y-49439D02*
X38554Y-49157D01*
X38414Y-49439D02*
X38414Y-48848D01*
X38639Y-48848D01*
X38695Y-48876D01*
X38723Y-48904D01*
X38751Y-48960D01*
X38751Y-49045D01*
X38723Y-49101D01*
X38695Y-49129D01*
X38639Y-49157D01*
X38414Y-49157D01*
X39089Y-49439D02*
X39032Y-49410D01*
X39004Y-49382D01*
X38976Y-49326D01*
X38976Y-49157D01*
X39004Y-49101D01*
X39032Y-49073D01*
X39089Y-49045D01*
X39173Y-49045D01*
X39229Y-49073D01*
X39257Y-49101D01*
X39286Y-49157D01*
X39286Y-49326D01*
X39257Y-49382D01*
X39229Y-49410D01*
X39173Y-49439D01*
X39089Y-49439D01*
X39623Y-49439D02*
X39567Y-49410D01*
X39539Y-49382D01*
X39511Y-49326D01*
X39511Y-49157D01*
X39539Y-49101D01*
X39567Y-49073D01*
X39623Y-49045D01*
X39707Y-49045D01*
X39764Y-49073D01*
X39792Y-49101D01*
X39820Y-49157D01*
X39820Y-49326D01*
X39792Y-49382D01*
X39764Y-49410D01*
X39707Y-49439D01*
X39623Y-49439D01*
X39989Y-49045D02*
X40214Y-49045D01*
X40073Y-49439D02*
X40073Y-48932D01*
X40101Y-48876D01*
X40157Y-48848D01*
X40214Y-48848D01*
X40860Y-49439D02*
X40860Y-48848D01*
X41057Y-49270D01*
X41254Y-48848D01*
X41254Y-49439D01*
X41620Y-49439D02*
X41563Y-49410D01*
X41535Y-49382D01*
X41507Y-49326D01*
X41507Y-49157D01*
X41535Y-49101D01*
X41563Y-49073D01*
X41620Y-49045D01*
X41704Y-49045D01*
X41760Y-49073D01*
X41788Y-49101D01*
X41816Y-49157D01*
X41816Y-49326D01*
X41788Y-49382D01*
X41760Y-49410D01*
X41704Y-49439D01*
X41620Y-49439D01*
X42323Y-49439D02*
X42323Y-48848D01*
X42323Y-49410D02*
X42266Y-49439D01*
X42154Y-49439D01*
X42098Y-49410D01*
X42070Y-49382D01*
X42041Y-49326D01*
X42041Y-49157D01*
X42070Y-49101D01*
X42098Y-49073D01*
X42154Y-49045D01*
X42266Y-49045D01*
X42323Y-49073D01*
X42857Y-49045D02*
X42857Y-49439D01*
X42604Y-49045D02*
X42604Y-49354D01*
X42632Y-49410D01*
X42688Y-49439D01*
X42773Y-49439D01*
X42829Y-49410D01*
X42857Y-49382D01*
X43223Y-49439D02*
X43166Y-49410D01*
X43138Y-49354D01*
X43138Y-48848D01*
X43673Y-49410D02*
X43616Y-49439D01*
X43504Y-49439D01*
X43448Y-49410D01*
X43419Y-49354D01*
X43419Y-49129D01*
X43448Y-49073D01*
X43504Y-49045D01*
X43616Y-49045D01*
X43673Y-49073D01*
X43701Y-49129D01*
X43701Y-49185D01*
X43419Y-49242D01*
X44741Y-49439D02*
X44544Y-49157D01*
X44404Y-49439D02*
X44404Y-48848D01*
X44629Y-48848D01*
X44685Y-48876D01*
X44713Y-48904D01*
X44741Y-48960D01*
X44741Y-49045D01*
X44713Y-49101D01*
X44685Y-49129D01*
X44629Y-49157D01*
X44404Y-49157D01*
X45304Y-49439D02*
X44966Y-49439D01*
X45135Y-49439D02*
X45135Y-48848D01*
X45079Y-48932D01*
X45022Y-48989D01*
X44966Y-49017D01*
X34955Y-49933D02*
X34899Y-49905D01*
X34786Y-49905D01*
X34730Y-49933D01*
X34674Y-49990D01*
X34646Y-50046D01*
X34646Y-50158D01*
X34674Y-50215D01*
X34730Y-50271D01*
X34786Y-50299D01*
X34899Y-50299D01*
X34955Y-50271D01*
X34842Y-49708D02*
X34702Y-49737D01*
X34561Y-49821D01*
X34477Y-49962D01*
X34449Y-50102D01*
X34477Y-50243D01*
X34561Y-50383D01*
X34702Y-50468D01*
X34842Y-50496D01*
X34983Y-50468D01*
X35124Y-50383D01*
X35208Y-50243D01*
X35236Y-50102D01*
X35208Y-49962D01*
X35124Y-49821D01*
X34983Y-49737D01*
X34842Y-49708D01*
X35461Y-49849D02*
X35489Y-49821D01*
X35545Y-49793D01*
X35686Y-49793D01*
X35742Y-49821D01*
X35770Y-49849D01*
X35798Y-49905D01*
X35798Y-49962D01*
X35770Y-50046D01*
X35433Y-50383D01*
X35798Y-50383D01*
X36164Y-49793D02*
X36220Y-49793D01*
X36277Y-49821D01*
X36305Y-49849D01*
X36333Y-49905D01*
X36361Y-50018D01*
X36361Y-50158D01*
X36333Y-50271D01*
X36305Y-50327D01*
X36277Y-50355D01*
X36220Y-50383D01*
X36164Y-50383D01*
X36108Y-50355D01*
X36080Y-50327D01*
X36052Y-50271D01*
X36023Y-50158D01*
X36023Y-50018D01*
X36052Y-49905D01*
X36080Y-49849D01*
X36108Y-49821D01*
X36164Y-49793D01*
X36923Y-50383D02*
X36586Y-50383D01*
X36755Y-50383D02*
X36755Y-49793D01*
X36698Y-49877D01*
X36642Y-49933D01*
X36586Y-49962D01*
X37430Y-49990D02*
X37430Y-50383D01*
X37289Y-49765D02*
X37148Y-50187D01*
X37514Y-50187D01*
X38189Y-50383D02*
X38189Y-49793D01*
X38470Y-49990D02*
X38470Y-50383D01*
X38470Y-50046D02*
X38498Y-50018D01*
X38554Y-49990D01*
X38639Y-49990D01*
X38695Y-50018D01*
X38723Y-50074D01*
X38723Y-50383D01*
X38920Y-49990D02*
X39145Y-49990D01*
X39004Y-50383D02*
X39004Y-49877D01*
X39032Y-49821D01*
X39089Y-49793D01*
X39145Y-49793D01*
X39567Y-50355D02*
X39511Y-50383D01*
X39398Y-50383D01*
X39342Y-50355D01*
X39314Y-50299D01*
X39314Y-50074D01*
X39342Y-50018D01*
X39398Y-49990D01*
X39511Y-49990D01*
X39567Y-50018D01*
X39595Y-50074D01*
X39595Y-50130D01*
X39314Y-50187D01*
X39848Y-50383D02*
X39848Y-49990D01*
X39848Y-50102D02*
X39876Y-50046D01*
X39904Y-50018D01*
X39960Y-49990D01*
X40017Y-49990D01*
X40214Y-49990D02*
X40214Y-50383D01*
X40214Y-50046D02*
X40242Y-50018D01*
X40298Y-49990D01*
X40382Y-49990D01*
X40439Y-50018D01*
X40467Y-50074D01*
X40467Y-50383D01*
X40832Y-50383D02*
X40776Y-50355D01*
X40748Y-50327D01*
X40720Y-50271D01*
X40720Y-50102D01*
X40748Y-50046D01*
X40776Y-50018D01*
X40832Y-49990D01*
X40917Y-49990D01*
X40973Y-50018D01*
X41001Y-50046D01*
X41029Y-50102D01*
X41029Y-50271D01*
X41001Y-50327D01*
X40973Y-50355D01*
X40917Y-50383D01*
X40832Y-50383D01*
X41732Y-50074D02*
X41929Y-50074D01*
X42013Y-50383D02*
X41732Y-50383D01*
X41732Y-49793D01*
X42013Y-49793D01*
X42266Y-50383D02*
X42266Y-49990D01*
X42266Y-50046D02*
X42295Y-50018D01*
X42351Y-49990D01*
X42435Y-49990D01*
X42491Y-50018D01*
X42520Y-50074D01*
X42520Y-50383D01*
X42520Y-50074D02*
X42548Y-50018D01*
X42604Y-49990D01*
X42688Y-49990D01*
X42744Y-50018D01*
X42773Y-50074D01*
X42773Y-50383D01*
X43054Y-50383D02*
X43054Y-49793D01*
X43054Y-50018D02*
X43110Y-49990D01*
X43223Y-49990D01*
X43279Y-50018D01*
X43307Y-50046D01*
X43335Y-50102D01*
X43335Y-50271D01*
X43307Y-50327D01*
X43279Y-50355D01*
X43223Y-50383D01*
X43110Y-50383D01*
X43054Y-50355D01*
X43813Y-50355D02*
X43757Y-50383D01*
X43644Y-50383D01*
X43588Y-50355D01*
X43560Y-50299D01*
X43560Y-50074D01*
X43588Y-50018D01*
X43644Y-49990D01*
X43757Y-49990D01*
X43813Y-50018D01*
X43841Y-50074D01*
X43841Y-50130D01*
X43560Y-50187D01*
X44347Y-50383D02*
X44347Y-49793D01*
X44347Y-50355D02*
X44291Y-50383D01*
X44179Y-50383D01*
X44122Y-50355D01*
X44094Y-50327D01*
X44066Y-50271D01*
X44066Y-50102D01*
X44094Y-50046D01*
X44122Y-50018D01*
X44179Y-49990D01*
X44291Y-49990D01*
X44347Y-50018D01*
X44882Y-50383D02*
X44882Y-49793D01*
X44882Y-50355D02*
X44825Y-50383D01*
X44713Y-50383D01*
X44657Y-50355D01*
X44629Y-50327D01*
X44601Y-50271D01*
X44601Y-50102D01*
X44629Y-50046D01*
X44657Y-50018D01*
X44713Y-49990D01*
X44825Y-49990D01*
X44882Y-50018D01*
X45388Y-50355D02*
X45332Y-50383D01*
X45219Y-50383D01*
X45163Y-50355D01*
X45135Y-50299D01*
X45135Y-50074D01*
X45163Y-50018D01*
X45219Y-49990D01*
X45332Y-49990D01*
X45388Y-50018D01*
X45416Y-50074D01*
X45416Y-50130D01*
X45135Y-50187D01*
X45922Y-50383D02*
X45922Y-49793D01*
X45922Y-50355D02*
X45866Y-50383D01*
X45753Y-50383D01*
X45697Y-50355D01*
X45669Y-50327D01*
X45641Y-50271D01*
X45641Y-50102D01*
X45669Y-50046D01*
X45697Y-50018D01*
X45753Y-49990D01*
X45866Y-49990D01*
X45922Y-50018D01*
X49505Y-59845D02*
X49617Y-60239D01*
X49730Y-59957D01*
X49842Y-60239D01*
X49955Y-59845D01*
X50123Y-59845D02*
X50236Y-60239D01*
X50348Y-59957D01*
X50461Y-60239D01*
X50573Y-59845D01*
X50742Y-59845D02*
X50855Y-60239D01*
X50967Y-59957D01*
X51079Y-60239D01*
X51192Y-59845D01*
X51417Y-60182D02*
X51445Y-60210D01*
X51417Y-60239D01*
X51389Y-60210D01*
X51417Y-60182D01*
X51417Y-60239D01*
X51614Y-59845D02*
X51839Y-59845D01*
X51698Y-59648D02*
X51698Y-60154D01*
X51726Y-60210D01*
X51783Y-60239D01*
X51839Y-60239D01*
X52289Y-60239D02*
X52289Y-59929D01*
X52261Y-59873D01*
X52204Y-59845D01*
X52092Y-59845D01*
X52036Y-59873D01*
X52289Y-60210D02*
X52232Y-60239D01*
X52092Y-60239D01*
X52036Y-60210D01*
X52007Y-60154D01*
X52007Y-60098D01*
X52036Y-60042D01*
X52092Y-60014D01*
X52232Y-60014D01*
X52289Y-59985D01*
X52570Y-59845D02*
X52570Y-60435D01*
X52570Y-59873D02*
X52626Y-59845D01*
X52739Y-59845D01*
X52795Y-59873D01*
X52823Y-59901D01*
X52851Y-59957D01*
X52851Y-60126D01*
X52823Y-60182D01*
X52795Y-60210D01*
X52739Y-60239D01*
X52626Y-60239D01*
X52570Y-60210D01*
X53104Y-60239D02*
X53104Y-59845D01*
X53104Y-59957D02*
X53132Y-59901D01*
X53160Y-59873D01*
X53217Y-59845D01*
X53273Y-59845D01*
X53470Y-60182D02*
X53498Y-60210D01*
X53470Y-60239D01*
X53442Y-60210D01*
X53470Y-60182D01*
X53470Y-60239D01*
X53835Y-60239D02*
X53779Y-60210D01*
X53751Y-60182D01*
X53723Y-60126D01*
X53723Y-59957D01*
X53751Y-59901D01*
X53779Y-59873D01*
X53835Y-59845D01*
X53920Y-59845D01*
X53976Y-59873D01*
X54004Y-59901D01*
X54032Y-59957D01*
X54032Y-60126D01*
X54004Y-60182D01*
X53976Y-60210D01*
X53920Y-60239D01*
X53835Y-60239D01*
X54285Y-60239D02*
X54285Y-59845D01*
X54285Y-59957D02*
X54313Y-59901D01*
X54342Y-59873D01*
X54398Y-59845D01*
X54454Y-59845D01*
X54904Y-59845D02*
X54904Y-60323D01*
X54876Y-60379D01*
X54848Y-60407D01*
X54792Y-60435D01*
X54707Y-60435D01*
X54651Y-60407D01*
X54904Y-60210D02*
X54848Y-60239D01*
X54735Y-60239D01*
X54679Y-60210D01*
X54651Y-60182D01*
X54623Y-60126D01*
X54623Y-59957D01*
X54651Y-59901D01*
X54679Y-59873D01*
X54735Y-59845D01*
X54848Y-59845D01*
X54904Y-59873D01*
X55607Y-59620D02*
X55101Y-60379D01*
X55916Y-59648D02*
X56029Y-59648D01*
X56085Y-59676D01*
X56141Y-59732D01*
X56169Y-59845D01*
X56169Y-60042D01*
X56141Y-60154D01*
X56085Y-60210D01*
X56029Y-60239D01*
X55916Y-60239D01*
X55860Y-60210D01*
X55804Y-60154D01*
X55776Y-60042D01*
X55776Y-59845D01*
X55804Y-59732D01*
X55860Y-59676D01*
X55916Y-59648D01*
X56423Y-60239D02*
X56423Y-59648D01*
X56423Y-59929D02*
X56760Y-59929D01*
X56760Y-60239D02*
X56760Y-59648D01*
X57322Y-60239D02*
X57041Y-60239D01*
X57041Y-59648D01*
X37065Y-57848D02*
X37403Y-57848D01*
X37234Y-58439D02*
X37234Y-57848D01*
X37572Y-58270D02*
X37853Y-58270D01*
X37515Y-58439D02*
X37712Y-57848D01*
X37909Y-58439D01*
X38106Y-58439D02*
X38106Y-57848D01*
X38331Y-57848D01*
X38387Y-57876D01*
X38415Y-57904D01*
X38443Y-57960D01*
X38443Y-58045D01*
X38415Y-58101D01*
X38387Y-58129D01*
X38331Y-58157D01*
X38106Y-58157D01*
X39034Y-58439D02*
X38837Y-58157D01*
X38696Y-58439D02*
X38696Y-57848D01*
X38921Y-57848D01*
X38978Y-57876D01*
X39006Y-57904D01*
X39034Y-57960D01*
X39034Y-58045D01*
X39006Y-58101D01*
X38978Y-58129D01*
X38921Y-58157D01*
X38696Y-58157D01*
X39849Y-57848D02*
X39962Y-57848D01*
X40018Y-57876D01*
X40074Y-57932D01*
X40103Y-58045D01*
X40103Y-58242D01*
X40074Y-58354D01*
X40018Y-58410D01*
X39962Y-58439D01*
X39849Y-58439D01*
X39793Y-58410D01*
X39737Y-58354D01*
X39709Y-58242D01*
X39709Y-58045D01*
X39737Y-57932D01*
X39793Y-57876D01*
X39849Y-57848D01*
X40356Y-58045D02*
X40356Y-58635D01*
X40356Y-58073D02*
X40412Y-58045D01*
X40524Y-58045D01*
X40581Y-58073D01*
X40609Y-58101D01*
X40637Y-58157D01*
X40637Y-58326D01*
X40609Y-58382D01*
X40581Y-58410D01*
X40524Y-58439D01*
X40412Y-58439D01*
X40356Y-58410D01*
X41115Y-58410D02*
X41059Y-58439D01*
X40946Y-58439D01*
X40890Y-58410D01*
X40862Y-58354D01*
X40862Y-58129D01*
X40890Y-58073D01*
X40946Y-58045D01*
X41059Y-58045D01*
X41115Y-58073D01*
X41143Y-58129D01*
X41143Y-58185D01*
X40862Y-58242D01*
X41396Y-58045D02*
X41396Y-58439D01*
X41396Y-58101D02*
X41424Y-58073D01*
X41480Y-58045D01*
X41565Y-58045D01*
X41621Y-58073D01*
X41649Y-58129D01*
X41649Y-58439D01*
X37501Y-59383D02*
X37501Y-58793D01*
X37501Y-59074D02*
X37839Y-59074D01*
X37839Y-59383D02*
X37839Y-58793D01*
X38373Y-59383D02*
X38373Y-59074D01*
X38345Y-59018D01*
X38289Y-58990D01*
X38176Y-58990D01*
X38120Y-59018D01*
X38373Y-59355D02*
X38317Y-59383D01*
X38176Y-59383D01*
X38120Y-59355D01*
X38092Y-59299D01*
X38092Y-59243D01*
X38120Y-59187D01*
X38176Y-59158D01*
X38317Y-59158D01*
X38373Y-59130D01*
X38654Y-59383D02*
X38654Y-58990D01*
X38654Y-59102D02*
X38682Y-59046D01*
X38711Y-59018D01*
X38767Y-58990D01*
X38823Y-58990D01*
X39273Y-59383D02*
X39273Y-58793D01*
X39273Y-59355D02*
X39217Y-59383D01*
X39104Y-59383D01*
X39048Y-59355D01*
X39020Y-59327D01*
X38992Y-59271D01*
X38992Y-59102D01*
X39020Y-59046D01*
X39048Y-59018D01*
X39104Y-58990D01*
X39217Y-58990D01*
X39273Y-59018D01*
X39498Y-58990D02*
X39610Y-59383D01*
X39723Y-59102D01*
X39835Y-59383D01*
X39948Y-58990D01*
X40426Y-59383D02*
X40426Y-59074D01*
X40398Y-59018D01*
X40342Y-58990D01*
X40229Y-58990D01*
X40173Y-59018D01*
X40426Y-59355D02*
X40370Y-59383D01*
X40229Y-59383D01*
X40173Y-59355D01*
X40145Y-59299D01*
X40145Y-59243D01*
X40173Y-59187D01*
X40229Y-59158D01*
X40370Y-59158D01*
X40426Y-59130D01*
X40707Y-59383D02*
X40707Y-58990D01*
X40707Y-59102D02*
X40735Y-59046D01*
X40763Y-59018D01*
X40820Y-58990D01*
X40876Y-58990D01*
X41298Y-59355D02*
X41241Y-59383D01*
X41129Y-59383D01*
X41073Y-59355D01*
X41045Y-59299D01*
X41045Y-59074D01*
X41073Y-59018D01*
X41129Y-58990D01*
X41241Y-58990D01*
X41298Y-59018D01*
X41326Y-59074D01*
X41326Y-59130D01*
X41045Y-59187D01*
X38176Y-60328D02*
X37895Y-60328D01*
X37895Y-59738D01*
X38373Y-60328D02*
X38373Y-59935D01*
X38373Y-59738D02*
X38345Y-59766D01*
X38373Y-59794D01*
X38401Y-59766D01*
X38373Y-59738D01*
X38373Y-59794D01*
X38907Y-60300D02*
X38851Y-60328D01*
X38739Y-60328D01*
X38682Y-60300D01*
X38654Y-60272D01*
X38626Y-60216D01*
X38626Y-60047D01*
X38654Y-59991D01*
X38682Y-59963D01*
X38739Y-59935D01*
X38851Y-59935D01*
X38907Y-59963D01*
X39385Y-60300D02*
X39329Y-60328D01*
X39217Y-60328D01*
X39160Y-60300D01*
X39132Y-60244D01*
X39132Y-60019D01*
X39160Y-59963D01*
X39217Y-59935D01*
X39329Y-59935D01*
X39385Y-59963D01*
X39414Y-60019D01*
X39414Y-60075D01*
X39132Y-60131D01*
X39667Y-59935D02*
X39667Y-60328D01*
X39667Y-59991D02*
X39695Y-59963D01*
X39751Y-59935D01*
X39835Y-59935D01*
X39892Y-59963D01*
X39920Y-60019D01*
X39920Y-60328D01*
X40173Y-60300D02*
X40229Y-60328D01*
X40342Y-60328D01*
X40398Y-60300D01*
X40426Y-60244D01*
X40426Y-60216D01*
X40398Y-60160D01*
X40342Y-60131D01*
X40257Y-60131D01*
X40201Y-60103D01*
X40173Y-60047D01*
X40173Y-60019D01*
X40201Y-59963D01*
X40257Y-59935D01*
X40342Y-59935D01*
X40398Y-59963D01*
X40904Y-60300D02*
X40848Y-60328D01*
X40735Y-60328D01*
X40679Y-60300D01*
X40651Y-60244D01*
X40651Y-60019D01*
X40679Y-59963D01*
X40735Y-59935D01*
X40848Y-59935D01*
X40904Y-59963D01*
X40932Y-60019D01*
X40932Y-60075D01*
X40651Y-60131D01*
G54D12*
X44539Y-52953D02*
X46660Y-52953D01*
X46660Y-52953D02*
X47014Y-52600D01*
X47014Y-52600D02*
X47014Y-51892D01*
X47014Y-51892D02*
X46307Y-51185D01*
X46307Y-51185D02*
X44892Y-51185D01*
X44892Y-51185D02*
X44185Y-51892D01*
X44185Y-51892D02*
X44185Y-52600D01*
X44185Y-52600D02*
X44539Y-52953D01*
G54D13*
X34300Y-51400D02*
X34300Y-57400D01*
X34300Y-57400D02*
X41400Y-57400D01*
X41400Y-57400D02*
X41400Y-51400D01*
X41400Y-51400D02*
X34300Y-51400D01*
X43200Y-60700D02*
X49200Y-60700D01*
X49200Y-60700D02*
X49200Y-53600D01*
X49200Y-53600D02*
X43200Y-53600D01*
X43200Y-53600D02*
X43200Y-60700D01*
X57500Y-57400D02*
X57500Y-51400D01*
X57500Y-51400D02*
X50400Y-51400D01*
X50400Y-51400D02*
X50400Y-57400D01*
X50400Y-57400D02*
X57500Y-57400D01*
G54D14*
G36*
X50004Y-59484D02*
X50014Y-59478D01*
X50037Y-59464D01*
X50070Y-59442D01*
X50109Y-59416D01*
X50148Y-59390D01*
X50180Y-59369D01*
X50202Y-59354D01*
X50212Y-59349D01*
X50217Y-59351D01*
X50235Y-59360D01*
X50262Y-59374D01*
X50278Y-59382D01*
X50302Y-59392D01*
X50315Y-59395D01*
X50317Y-59391D01*
X50326Y-59372D01*
X50340Y-59340D01*
X50358Y-59297D01*
X50380Y-59247D01*
X50402Y-59194D01*
X50425Y-59139D01*
X50447Y-59086D01*
X50466Y-59039D01*
X50482Y-59001D01*
X50492Y-58974D01*
X50496Y-58963D01*
X50495Y-58960D01*
X50482Y-58948D01*
X50461Y-58932D01*
X50414Y-58894D01*
X50368Y-58837D01*
X50340Y-58772D01*
X50331Y-58699D01*
X50339Y-58632D01*
X50365Y-58568D01*
X50410Y-58510D01*
X50465Y-58467D01*
X50529Y-58440D01*
X50600Y-58431D01*
X50668Y-58439D01*
X50734Y-58465D01*
X50792Y-58509D01*
X50817Y-58537D01*
X50851Y-58596D01*
X50870Y-58658D01*
X50872Y-58674D01*
X50869Y-58743D01*
X50849Y-58810D01*
X50812Y-58869D01*
X50761Y-58918D01*
X50755Y-58922D01*
X50732Y-58940D01*
X50716Y-58952D01*
X50704Y-58962D01*
X50792Y-59174D01*
X50806Y-59207D01*
X50830Y-59265D01*
X50851Y-59315D01*
X50868Y-59355D01*
X50880Y-59381D01*
X50885Y-59392D01*
X50885Y-59393D01*
X50893Y-59394D01*
X50909Y-59388D01*
X50939Y-59374D01*
X50958Y-59364D01*
X50981Y-59353D01*
X50991Y-59349D01*
X51000Y-59354D01*
X51021Y-59368D01*
X51053Y-59389D01*
X51091Y-59414D01*
X51127Y-59439D01*
X51160Y-59461D01*
X51184Y-59476D01*
X51196Y-59483D01*
X51198Y-59483D01*
X51208Y-59477D01*
X51227Y-59461D01*
X51256Y-59434D01*
X51297Y-59393D01*
X51303Y-59387D01*
X51337Y-59353D01*
X51364Y-59324D01*
X51382Y-59304D01*
X51389Y-59295D01*
X51389Y-59295D01*
X51383Y-59283D01*
X51368Y-59259D01*
X51346Y-59225D01*
X51319Y-59186D01*
X51249Y-59084D01*
X51287Y-58988D01*
X51299Y-58958D01*
X51314Y-58923D01*
X51325Y-58897D01*
X51331Y-58886D01*
X51341Y-58882D01*
X51368Y-58876D01*
X51406Y-58868D01*
X51451Y-58860D01*
X51495Y-58852D01*
X51534Y-58844D01*
X51562Y-58839D01*
X51575Y-58836D01*
X51578Y-58834D01*
X51581Y-58828D01*
X51582Y-58815D01*
X51583Y-58791D01*
X51584Y-58754D01*
X51584Y-58699D01*
X51584Y-58693D01*
X51583Y-58642D01*
X51582Y-58600D01*
X51581Y-58574D01*
X51579Y-58563D01*
X51579Y-58563D01*
X51567Y-58560D01*
X51539Y-58554D01*
X51500Y-58547D01*
X51453Y-58538D01*
X51450Y-58537D01*
X51404Y-58528D01*
X51365Y-58520D01*
X51337Y-58514D01*
X51326Y-58510D01*
X51323Y-58507D01*
X51314Y-58489D01*
X51301Y-58460D01*
X51285Y-58425D01*
X51270Y-58388D01*
X51257Y-58355D01*
X51248Y-58331D01*
X51245Y-58320D01*
X51246Y-58319D01*
X51253Y-58308D01*
X51269Y-58284D01*
X51291Y-58251D01*
X51318Y-58211D01*
X51320Y-58208D01*
X51347Y-58169D01*
X51369Y-58135D01*
X51383Y-58112D01*
X51389Y-58101D01*
X51389Y-58100D01*
X51380Y-58088D01*
X51360Y-58066D01*
X51331Y-58036D01*
X51297Y-58001D01*
X51286Y-57991D01*
X51247Y-57953D01*
X51221Y-57929D01*
X51204Y-57916D01*
X51196Y-57913D01*
X51196Y-57913D01*
X51184Y-57920D01*
X51159Y-57936D01*
X51126Y-57959D01*
X51086Y-57986D01*
X51083Y-57988D01*
X51044Y-58015D01*
X51011Y-58037D01*
X50988Y-58053D01*
X50977Y-58059D01*
X50976Y-58059D01*
X50960Y-58054D01*
X50932Y-58044D01*
X50897Y-58031D01*
X50861Y-58016D01*
X50828Y-58002D01*
X50803Y-57991D01*
X50791Y-57984D01*
X50791Y-57984D01*
X50787Y-57970D01*
X50780Y-57940D01*
X50772Y-57900D01*
X50762Y-57852D01*
X50761Y-57844D01*
X50752Y-57797D01*
X50745Y-57758D01*
X50739Y-57731D01*
X50736Y-57720D01*
X50730Y-57719D01*
X50707Y-57717D01*
X50672Y-57716D01*
X50629Y-57716D01*
X50585Y-57716D01*
X50542Y-57717D01*
X50505Y-57718D01*
X50478Y-57720D01*
X50467Y-57722D01*
X50467Y-57723D01*
X50463Y-57738D01*
X50456Y-57767D01*
X50448Y-57808D01*
X50439Y-57856D01*
X50437Y-57865D01*
X50428Y-57911D01*
X50420Y-57950D01*
X50415Y-57976D01*
X50412Y-57987D01*
X50407Y-57989D01*
X50388Y-57997D01*
X50357Y-58010D01*
X50318Y-58026D01*
X50228Y-58062D01*
X50117Y-57987D01*
X50107Y-57980D01*
X50067Y-57953D01*
X50035Y-57931D01*
X50012Y-57916D01*
X50003Y-57911D01*
X50002Y-57911D01*
X49991Y-57921D01*
X49969Y-57942D01*
X49939Y-57971D01*
X49904Y-58005D01*
X49879Y-58031D01*
X49848Y-58062D01*
X49829Y-58083D01*
X49818Y-58096D01*
X49815Y-58104D01*
X49816Y-58110D01*
X49823Y-58121D01*
X49839Y-58145D01*
X49862Y-58179D01*
X49889Y-58218D01*
X49911Y-58251D01*
X49935Y-58288D01*
X49950Y-58314D01*
X49956Y-58327D01*
X49954Y-58332D01*
X49947Y-58354D01*
X49933Y-58387D01*
X49917Y-58426D01*
X49878Y-58513D01*
X49821Y-58524D01*
X49786Y-58531D01*
X49738Y-58540D01*
X49691Y-58549D01*
X49619Y-58563D01*
X49616Y-58829D01*
X49627Y-58834D01*
X49638Y-58837D01*
X49665Y-58843D01*
X49703Y-58851D01*
X49749Y-58859D01*
X49787Y-58866D01*
X49826Y-58874D01*
X49854Y-58879D01*
X49866Y-58882D01*
X49870Y-58886D01*
X49879Y-58905D01*
X49893Y-58935D01*
X49909Y-58971D01*
X49924Y-59008D01*
X49938Y-59043D01*
X49947Y-59069D01*
X49951Y-59082D01*
X49946Y-59093D01*
X49931Y-59116D01*
X49910Y-59148D01*
X49883Y-59187D01*
X49857Y-59225D01*
X49834Y-59258D01*
X49819Y-59282D01*
X49812Y-59293D01*
X49816Y-59300D01*
X49831Y-59319D01*
X49860Y-59349D01*
X49904Y-59392D01*
X49911Y-59399D01*
X49945Y-59432D01*
X49974Y-59459D01*
X49995Y-59477D01*
X50004Y-59484D01*
X50004Y-59484D01*
G37*
G54D15*
X43795Y-53145D02*
X44078Y-52862D01*
X44118Y-53414D02*
X44091Y-53414D01*
X44037Y-53387D01*
X44010Y-53360D01*
X43983Y-53307D01*
X43983Y-53253D01*
X43997Y-53212D01*
X44037Y-53145D01*
X44078Y-53105D01*
X44145Y-53064D01*
X44185Y-53051D01*
X44239Y-53051D01*
X44293Y-53078D01*
X44320Y-53105D01*
X44347Y-53158D01*
X44347Y-53185D01*
X44360Y-53711D02*
X44199Y-53549D01*
X44280Y-53630D02*
X44562Y-53347D01*
X44495Y-53360D01*
X44441Y-53360D01*
X44401Y-53347D01*
X47196Y-51625D02*
X47479Y-51342D01*
X47546Y-51410D01*
X47573Y-51463D01*
X47573Y-51517D01*
X47560Y-51558D01*
X47519Y-51625D01*
X47479Y-51665D01*
X47412Y-51706D01*
X47371Y-51719D01*
X47317Y-51719D01*
X47263Y-51692D01*
X47196Y-51625D01*
X47479Y-51881D02*
X47506Y-51935D01*
X47573Y-52002D01*
X47614Y-52016D01*
X47641Y-52016D01*
X47681Y-52002D01*
X47708Y-51975D01*
X47721Y-51935D01*
X47721Y-51908D01*
X47708Y-51867D01*
X47667Y-51800D01*
X47654Y-51760D01*
X47654Y-51733D01*
X47667Y-51692D01*
X47694Y-51665D01*
X47735Y-51652D01*
X47762Y-51652D01*
X47802Y-51665D01*
X47870Y-51733D01*
X47896Y-51787D01*
X47896Y-52325D02*
X47735Y-52164D01*
X47816Y-52245D02*
X48098Y-51962D01*
X48031Y-51975D01*
X47977Y-51975D01*
X47937Y-51962D01*
X48220Y-52325D02*
X48206Y-52285D01*
X48206Y-52258D01*
X48220Y-52218D01*
X48233Y-52204D01*
X48274Y-52191D01*
X48301Y-52191D01*
X48341Y-52204D01*
X48395Y-52258D01*
X48408Y-52298D01*
X48408Y-52325D01*
X48395Y-52366D01*
X48381Y-52379D01*
X48341Y-52393D01*
X48314Y-52393D01*
X48274Y-52379D01*
X48220Y-52325D01*
X48179Y-52312D01*
X48152Y-52312D01*
X48112Y-52325D01*
X48058Y-52379D01*
X48045Y-52420D01*
X48045Y-52447D01*
X48058Y-52487D01*
X48112Y-52541D01*
X48152Y-52554D01*
X48179Y-52554D01*
X48220Y-52541D01*
X48274Y-52487D01*
X48287Y-52447D01*
X48287Y-52420D01*
X48274Y-52379D01*
X48529Y-52662D02*
X48556Y-52716D01*
X48556Y-52743D01*
X48543Y-52783D01*
X48503Y-52824D01*
X48462Y-52837D01*
X48435Y-52837D01*
X48395Y-52824D01*
X48287Y-52716D01*
X48570Y-52433D01*
X48664Y-52527D01*
X48678Y-52568D01*
X48678Y-52595D01*
X48664Y-52635D01*
X48637Y-52662D01*
X48597Y-52676D01*
X48570Y-52676D01*
X48529Y-52662D01*
X48435Y-52568D01*
X48812Y-52729D02*
X48839Y-52729D01*
X48880Y-52743D01*
X48947Y-52810D01*
X48960Y-52851D01*
X48960Y-52878D01*
X48947Y-52918D01*
X48920Y-52945D01*
X48866Y-52972D01*
X48543Y-52972D01*
X48718Y-53147D01*
X49176Y-53039D02*
X49203Y-53066D01*
X49216Y-53107D01*
X49216Y-53134D01*
X49203Y-53174D01*
X49163Y-53241D01*
X49095Y-53309D01*
X49028Y-53349D01*
X48987Y-53363D01*
X48960Y-53363D01*
X48920Y-53349D01*
X48893Y-53322D01*
X48880Y-53282D01*
X48880Y-53255D01*
X48893Y-53214D01*
X48934Y-53147D01*
X49001Y-53080D01*
X49068Y-53039D01*
X49109Y-53026D01*
X49136Y-53026D01*
X49176Y-53039D01*
G54D12*
X35742Y-54942D02*
X35142Y-54942D01*
X35142Y-54714D01*
X35171Y-54657D01*
X35200Y-54628D01*
X35257Y-54600D01*
X35342Y-54600D01*
X35400Y-54628D01*
X35428Y-54657D01*
X35457Y-54714D01*
X35457Y-54942D01*
X35742Y-54028D02*
X35742Y-54371D01*
X35742Y-54200D02*
X35142Y-54200D01*
X35228Y-54257D01*
X35285Y-54314D01*
X35314Y-54371D01*
G54D15*
X38721Y-56032D02*
X38740Y-56051D01*
X38759Y-56107D01*
X38759Y-56144D01*
X38740Y-56201D01*
X38703Y-56238D01*
X38665Y-56257D01*
X38590Y-56276D01*
X38534Y-56276D01*
X38459Y-56257D01*
X38421Y-56238D01*
X38384Y-56201D01*
X38365Y-56144D01*
X38365Y-56107D01*
X38384Y-56051D01*
X38403Y-56032D01*
X38759Y-55863D02*
X38365Y-55863D01*
X38759Y-55638D01*
X38365Y-55638D01*
X38365Y-55506D02*
X38365Y-55281D01*
X38759Y-55394D02*
X38365Y-55394D01*
X38609Y-55150D02*
X38609Y-54850D01*
X38759Y-54437D02*
X38571Y-54568D01*
X38759Y-54662D02*
X38365Y-54662D01*
X38365Y-54512D01*
X38384Y-54475D01*
X38403Y-54456D01*
X38440Y-54437D01*
X38496Y-54437D01*
X38534Y-54456D01*
X38553Y-54475D01*
X38571Y-54512D01*
X38571Y-54662D01*
X38365Y-54156D02*
X38646Y-54156D01*
X38703Y-54174D01*
X38740Y-54212D01*
X38759Y-54268D01*
X38759Y-54306D01*
X38496Y-53799D02*
X38759Y-53799D01*
X38346Y-53893D02*
X38628Y-53987D01*
X38628Y-53743D01*
X38365Y-53405D02*
X38365Y-53593D01*
X38553Y-53612D01*
X38534Y-53593D01*
X38515Y-53555D01*
X38515Y-53461D01*
X38534Y-53424D01*
X38553Y-53405D01*
X38590Y-53386D01*
X38684Y-53386D01*
X38721Y-53405D01*
X38740Y-53424D01*
X38759Y-53461D01*
X38759Y-53555D01*
X38740Y-53593D01*
X38721Y-53612D01*
X38609Y-53218D02*
X38609Y-52917D01*
X38534Y-52673D02*
X38515Y-52711D01*
X38496Y-52730D01*
X38459Y-52748D01*
X38440Y-52748D01*
X38403Y-52730D01*
X38384Y-52711D01*
X38365Y-52673D01*
X38365Y-52598D01*
X38384Y-52561D01*
X38403Y-52542D01*
X38440Y-52523D01*
X38459Y-52523D01*
X38496Y-52542D01*
X38515Y-52561D01*
X38534Y-52598D01*
X38534Y-52673D01*
X38553Y-52711D01*
X38571Y-52730D01*
X38609Y-52748D01*
X38684Y-52748D01*
X38721Y-52730D01*
X38740Y-52711D01*
X38759Y-52673D01*
X38759Y-52598D01*
X38740Y-52561D01*
X38721Y-52542D01*
X38684Y-52523D01*
X38609Y-52523D01*
X38571Y-52542D01*
X38553Y-52561D01*
X38534Y-52598D01*
G54D12*
X45857Y-59742D02*
X45857Y-59142D01*
X46085Y-59142D01*
X46142Y-59171D01*
X46171Y-59200D01*
X46200Y-59257D01*
X46200Y-59342D01*
X46171Y-59400D01*
X46142Y-59428D01*
X46085Y-59457D01*
X45857Y-59457D01*
X46428Y-59200D02*
X46457Y-59171D01*
X46514Y-59142D01*
X46657Y-59142D01*
X46714Y-59171D01*
X46742Y-59200D01*
X46771Y-59257D01*
X46771Y-59314D01*
X46742Y-59400D01*
X46400Y-59742D01*
X46771Y-59742D01*
G54D15*
X44567Y-56521D02*
X44548Y-56540D01*
X44492Y-56559D01*
X44455Y-56559D01*
X44398Y-56540D01*
X44361Y-56503D01*
X44342Y-56465D01*
X44323Y-56390D01*
X44323Y-56334D01*
X44342Y-56259D01*
X44361Y-56221D01*
X44398Y-56184D01*
X44455Y-56165D01*
X44492Y-56165D01*
X44548Y-56184D01*
X44567Y-56203D01*
X44736Y-56559D02*
X44736Y-56165D01*
X44961Y-56559D01*
X44961Y-56165D01*
X45093Y-56165D02*
X45318Y-56165D01*
X45205Y-56559D02*
X45205Y-56165D01*
X45449Y-56409D02*
X45749Y-56409D01*
X46162Y-56559D02*
X46031Y-56371D01*
X45937Y-56559D02*
X45937Y-56165D01*
X46087Y-56165D01*
X46124Y-56184D01*
X46143Y-56203D01*
X46162Y-56240D01*
X46162Y-56296D01*
X46143Y-56334D01*
X46124Y-56353D01*
X46087Y-56371D01*
X45937Y-56371D01*
X46443Y-56165D02*
X46443Y-56446D01*
X46425Y-56503D01*
X46387Y-56540D01*
X46331Y-56559D01*
X46293Y-56559D01*
X46800Y-56296D02*
X46800Y-56559D01*
X46706Y-56146D02*
X46612Y-56428D01*
X46856Y-56428D01*
X47194Y-56165D02*
X47006Y-56165D01*
X46988Y-56353D01*
X47006Y-56334D01*
X47044Y-56315D01*
X47138Y-56315D01*
X47175Y-56334D01*
X47194Y-56353D01*
X47213Y-56390D01*
X47213Y-56484D01*
X47194Y-56521D01*
X47175Y-56540D01*
X47138Y-56559D01*
X47044Y-56559D01*
X47006Y-56540D01*
X46988Y-56521D01*
X47382Y-56409D02*
X47682Y-56409D01*
X47926Y-56334D02*
X47888Y-56315D01*
X47869Y-56296D01*
X47851Y-56259D01*
X47851Y-56240D01*
X47869Y-56203D01*
X47888Y-56184D01*
X47926Y-56165D01*
X48001Y-56165D01*
X48038Y-56184D01*
X48057Y-56203D01*
X48076Y-56240D01*
X48076Y-56259D01*
X48057Y-56296D01*
X48038Y-56315D01*
X48001Y-56334D01*
X47926Y-56334D01*
X47888Y-56353D01*
X47869Y-56371D01*
X47851Y-56409D01*
X47851Y-56484D01*
X47869Y-56521D01*
X47888Y-56540D01*
X47926Y-56559D01*
X48001Y-56559D01*
X48038Y-56540D01*
X48057Y-56521D01*
X48076Y-56484D01*
X48076Y-56409D01*
X48057Y-56371D01*
X48038Y-56353D01*
X48001Y-56334D01*
G54D12*
X56542Y-54742D02*
X55942Y-54742D01*
X55942Y-54514D01*
X55971Y-54457D01*
X56000Y-54428D01*
X56057Y-54400D01*
X56142Y-54400D01*
X56200Y-54428D01*
X56228Y-54457D01*
X56257Y-54514D01*
X56257Y-54742D01*
X55942Y-54200D02*
X55942Y-53828D01*
X56171Y-54028D01*
X56171Y-53942D01*
X56200Y-53885D01*
X56228Y-53857D01*
X56285Y-53828D01*
X56428Y-53828D01*
X56485Y-53857D01*
X56514Y-53885D01*
X56542Y-53942D01*
X56542Y-54114D01*
X56514Y-54171D01*
X56485Y-54200D01*
G54D15*
X53321Y-56032D02*
X53340Y-56051D01*
X53359Y-56107D01*
X53359Y-56144D01*
X53340Y-56201D01*
X53303Y-56238D01*
X53265Y-56257D01*
X53190Y-56276D01*
X53134Y-56276D01*
X53059Y-56257D01*
X53021Y-56238D01*
X52984Y-56201D01*
X52965Y-56144D01*
X52965Y-56107D01*
X52984Y-56051D01*
X53003Y-56032D01*
X53359Y-55863D02*
X52965Y-55863D01*
X53359Y-55638D01*
X52965Y-55638D01*
X52965Y-55506D02*
X52965Y-55281D01*
X53359Y-55394D02*
X52965Y-55394D01*
X53209Y-55150D02*
X53209Y-54850D01*
X53359Y-54437D02*
X53171Y-54568D01*
X53359Y-54662D02*
X52965Y-54662D01*
X52965Y-54512D01*
X52984Y-54475D01*
X53003Y-54456D01*
X53040Y-54437D01*
X53096Y-54437D01*
X53134Y-54456D01*
X53153Y-54475D01*
X53171Y-54512D01*
X53171Y-54662D01*
X52965Y-54156D02*
X53246Y-54156D01*
X53303Y-54174D01*
X53340Y-54212D01*
X53359Y-54268D01*
X53359Y-54306D01*
X53096Y-53799D02*
X53359Y-53799D01*
X52946Y-53893D02*
X53228Y-53987D01*
X53228Y-53743D01*
X52965Y-53405D02*
X52965Y-53593D01*
X53153Y-53612D01*
X53134Y-53593D01*
X53115Y-53555D01*
X53115Y-53461D01*
X53134Y-53424D01*
X53153Y-53405D01*
X53190Y-53386D01*
X53284Y-53386D01*
X53321Y-53405D01*
X53340Y-53424D01*
X53359Y-53461D01*
X53359Y-53555D01*
X53340Y-53593D01*
X53321Y-53612D01*
X53209Y-53218D02*
X53209Y-52917D01*
X53134Y-52673D02*
X53115Y-52711D01*
X53096Y-52730D01*
X53059Y-52748D01*
X53040Y-52748D01*
X53003Y-52730D01*
X52984Y-52711D01*
X52965Y-52673D01*
X52965Y-52598D01*
X52984Y-52561D01*
X53003Y-52542D01*
X53040Y-52523D01*
X53059Y-52523D01*
X53096Y-52542D01*
X53115Y-52561D01*
X53134Y-52598D01*
X53134Y-52673D01*
X53153Y-52711D01*
X53171Y-52730D01*
X53209Y-52748D01*
X53284Y-52748D01*
X53321Y-52730D01*
X53340Y-52711D01*
X53359Y-52673D01*
X53359Y-52598D01*
X53340Y-52561D01*
X53321Y-52542D01*
X53284Y-52523D01*
X53209Y-52523D01*
X53171Y-52542D01*
X53153Y-52561D01*
X53134Y-52598D01*
M02*
