G04 (created by PCBNEW (2013-07-07 BZR 4022)-stable) date 13/04/2014 11:11:03 PM*
%MOIN*%
G04 Gerber Fmt 3.4, Leading zero omitted, Abs format*
%FSLAX34Y34*%
G01*
G70*
G90*
G04 APERTURE LIST*
%ADD10C,0.00590551*%
%ADD11C,0.055*%
%ADD12C,0.1437*%
%ADD13R,0.0591X0.0591*%
%ADD14C,0.0591*%
%ADD15C,0.019685*%
G04 APERTURE END LIST*
G54D10*
G36*
X45918Y-52600D02*
X46307Y-52211D01*
X46696Y-52600D01*
X46307Y-52988D01*
X45918Y-52600D01*
X45918Y-52600D01*
G37*
G54D11*
X45600Y-51892D03*
X44892Y-52600D03*
G54D12*
X37400Y-56738D03*
X37400Y-52065D03*
G54D13*
X39900Y-52650D03*
G54D14*
X40900Y-53150D03*
X39900Y-53650D03*
X40900Y-54150D03*
X39900Y-54650D03*
X40900Y-55150D03*
X39900Y-55650D03*
X40900Y-56150D03*
G54D12*
X48538Y-57600D03*
X43865Y-57600D03*
G54D13*
X44450Y-55100D03*
G54D14*
X44950Y-54100D03*
X45450Y-55100D03*
X45950Y-54100D03*
X46450Y-55100D03*
X46950Y-54100D03*
X47450Y-55100D03*
X47950Y-54100D03*
G54D12*
X54400Y-52062D03*
X54400Y-56735D03*
G54D13*
X51900Y-56150D03*
G54D14*
X50900Y-55650D03*
X51900Y-55150D03*
X50900Y-54650D03*
X51900Y-54150D03*
X50900Y-53650D03*
X51900Y-53150D03*
X50900Y-52650D03*
G54D15*
X40116Y-53144D02*
X39900Y-53144D01*
X40394Y-53421D02*
X40116Y-53144D01*
X40394Y-53860D02*
X40394Y-53421D01*
X40104Y-54150D02*
X40394Y-53860D01*
X39699Y-54150D02*
X40104Y-54150D01*
X39399Y-54449D02*
X39699Y-54150D01*
X39399Y-54855D02*
X39399Y-54449D01*
X39694Y-55150D02*
X39399Y-54855D01*
X40186Y-55150D02*
X39694Y-55150D01*
X40692Y-55655D02*
X40186Y-55150D01*
X43400Y-55655D02*
X40692Y-55655D01*
X43955Y-55100D02*
X43400Y-55655D01*
X44450Y-55100D02*
X43955Y-55100D01*
X39900Y-52650D02*
X39900Y-53144D01*
X50850Y-53600D02*
X50900Y-53650D01*
X47449Y-53600D02*
X50850Y-53600D01*
X46950Y-54100D02*
X47449Y-53600D01*
X46863Y-53155D02*
X46307Y-52600D01*
X51104Y-53155D02*
X46863Y-53155D01*
X51900Y-53951D02*
X51104Y-53155D01*
X51900Y-54150D02*
X51900Y-53951D01*
X42600Y-54650D02*
X39900Y-54650D01*
X42644Y-54605D02*
X42600Y-54650D01*
X45955Y-54605D02*
X42644Y-54605D01*
X46450Y-55100D02*
X45955Y-54605D01*
X39773Y-53650D02*
X39900Y-53650D01*
X39087Y-54335D02*
X39773Y-53650D01*
X39087Y-55536D02*
X39087Y-54335D01*
X40198Y-56647D02*
X39087Y-55536D01*
X43902Y-56647D02*
X40198Y-56647D01*
X45450Y-55100D02*
X43902Y-56647D01*
X45949Y-55599D02*
X45450Y-55100D01*
X47802Y-55599D02*
X45949Y-55599D01*
X48251Y-55150D02*
X47802Y-55599D01*
X51900Y-55150D02*
X48251Y-55150D01*
X46444Y-54594D02*
X45950Y-54100D01*
X50844Y-54594D02*
X46444Y-54594D01*
X50900Y-54650D02*
X50844Y-54594D01*
X45600Y-53750D02*
X45600Y-51892D01*
X45950Y-54100D02*
X45600Y-53750D01*
X44892Y-53150D02*
X40900Y-53150D01*
X44892Y-54042D02*
X44892Y-53150D01*
X44950Y-54100D02*
X44892Y-54042D01*
X44892Y-53150D02*
X44892Y-52600D01*
M02*
