%
M48
METRIC,000.000
T01C0.50
%
T01
X020188Y011607
X020188Y012607
X020188Y013607
X020188Y014607
X020188Y015607
X020188Y016607
X022689Y016467
X022689Y015467
X022689Y014467
X022689Y013467
X022689Y012467
X022689Y011467
X020188Y026607
X020083Y027572
X019092Y027618
X020188Y030975
X019139Y030118
X023645Y027618
X022708Y027464
X022689Y026467
X022689Y031835
X022689Y030835
X023078Y030118
X024078Y030118
X020188Y041975
X020188Y042975
X020188Y043975
X020188Y044975
X020188Y045975
X020188Y046975
X022689Y046835
X022689Y045835
X022689Y044835
X022689Y043835
X022689Y042835
X022689Y041835
X020188Y056975
X020083Y057941
X019092Y057986
X020188Y061344
X019139Y060486
X023645Y057986
X022708Y057833
X022689Y056835
X022689Y062204
X022689Y061204
X023078Y060486
X024078Y060486
X020188Y072344
X020188Y073344
X020188Y074344
X020188Y075344
X020188Y076344
X020188Y077344
X022689Y077204
X022689Y076204
X022689Y075204
X022689Y074204
X022689Y073204
X022689Y072204
X043127Y041975
X043127Y042975
X043127Y043975
X043127Y044975
X043127Y045975
X043127Y046975
X045628Y046835
X045628Y045835
X045628Y044835
X045628Y043835
X045628Y042835
X045628Y041835
X043127Y056975
X043022Y057941
X042031Y057986
X043127Y061344
X042078Y060486
X046584Y057986
X045647Y057833
X045628Y056835
X045628Y062204
X045628Y061204
X046017Y060486
X047017Y060486
X043127Y011607
X043127Y012607
X043127Y013607
X043127Y014607
X043127Y015607
X043127Y016607
X045628Y016467
X045628Y015467
X045628Y014467
X045628Y013467
X045628Y012467
X045628Y011467
X043127Y026607
X043022Y027572
X042031Y027618
X046584Y027618
X045647Y027464
X045628Y026467
X043127Y030975
X042078Y030118
X045628Y031835
X045628Y030835
X046017Y030118
X047017Y030118
X066066Y011607
X066066Y012607
X066066Y013607
X066066Y014607
X066066Y015607
X066066Y016607
X068567Y016467
X068567Y015467
X068567Y014467
X068567Y013467
X068567Y012467
X068567Y011467
X066066Y026607
X065961Y027572
X064970Y027618
X069523Y027618
X068586Y027464
X068567Y026467
X066066Y030975
X065017Y030118
X068567Y031835
X068567Y030835
X068956Y030118
X069956Y030118
X066066Y041975
X066066Y042975
X066066Y043975
X066066Y044975
X066066Y045975
X066066Y046975
X068567Y046835
X068567Y045835
X068567Y044835
X068567Y043835
X068567Y042835
X068567Y041835
X066066Y056975
X065961Y057941
X064970Y057986
X069523Y057986
X068586Y057833
X068567Y056835
X066066Y061344
X065017Y060486
X068567Y062204
X068567Y061204
X068956Y060486
X069956Y060486
X066066Y072344
X066066Y073344
X066066Y074344
X066066Y075344
X066066Y076344
X066066Y077344
X068567Y077204
X068567Y076204
X068567Y075204
X068567Y074204
X068567Y073204
X068567Y072204
X043127Y072344
X043127Y073344
X043127Y074344
X043127Y075344
X043127Y076344
X043127Y077344
X045628Y077204
X045628Y076204
X045628Y075204
X045628Y074204
X045628Y073204
X045628Y072204
M30