%MOIN*%
%OFA0B0*%
%FSLAX46Y46*%
%IPPOS*%
%LPD*%
%ADD10C,0.0039370078740157488*%
%ADD11C,0.0047244094488188976*%
%ADD12C,0.005905511811023622*%
%ADD23C,0.0039370078740157488*%
%ADD24C,0.0047244094488188976*%
%ADD25C,0.005905511811023622*%
%ADD26C,0.0039370078740157488*%
%ADD27C,0.0047244094488188976*%
%ADD28C,0.005905511811023622*%
%ADD29C,0.0039370078740157488*%
%ADD30C,0.0047244094488188976*%
%ADD31C,0.005905511811023622*%
%ADD32C,0.0039370078740157488*%
%ADD33C,0.0047244094488188976*%
%ADD34C,0.005905511811023622*%
%ADD35C,0.0039370078740157488*%
%ADD36C,0.0047244094488188976*%
%ADD37C,0.005905511811023622*%
%ADD38C,0.0039370078740157488*%
%ADD39C,0.0047244094488188976*%
%ADD40C,0.005905511811023622*%
%ADD41C,0.0039370078740157488*%
%ADD42C,0.0047244094488188976*%
%ADD43C,0.005905511811023622*%
%ADD44C,0.0039370078740157488*%
%ADD45C,0.0047244094488188976*%
%ADD46C,0.005905511811023622*%
%ADD47C,0.0039370078740157488*%
%ADD48C,0.0047244094488188976*%
%ADD49C,0.005905511811023622*%
%ADD50C,0.0039370078740157488*%
%ADD51C,0.0047244094488188976*%
%ADD52C,0.005905511811023622*%
%ADD53C,0.0039370078740157488*%
%ADD54C,0.0047244094488188976*%
%ADD55C,0.005905511811023622*%
G01G01*
D10*
X0000097949Y0001077125D02*
X0000671353Y0001077125D01*
X0000671353Y0001077125D02*
X0000671353Y0000553820D01*
X0000671353Y0000553820D02*
X0000097949Y0000553820D01*
X0000097949Y0000553820D02*
X0000097949Y0001077125D01*
X0000051814Y0000986851D02*
X0000095465Y0000986851D01*
X0000095465Y0000986851D02*
X0000095465Y0000677327D01*
X0000095465Y0000677327D02*
X0000051814Y0000677327D01*
X0000051814Y0000677327D02*
X0000051814Y0000986851D01*
X0000674830Y0000986842D02*
X0000718481Y0000986842D01*
X0000718481Y0000986842D02*
X0000718481Y0000677318D01*
X0000718481Y0000677318D02*
X0000674830Y0000677318D01*
X0000674830Y0000677318D02*
X0000674830Y0000986842D01*
D11*
X0000043228Y0000412814D02*
X0000043228Y0000452185D01*
X0000096771Y0000452185D02*
X0000096771Y0000412814D01*
X0000043228Y0000262814D02*
X0000043228Y0000302185D01*
X0000096771Y0000302185D02*
X0000096771Y0000262814D01*
D12*
X0000494409Y0000504350D02*
X0000494409Y0000425610D01*
X0000494409Y0000425610D02*
X0000360551Y0000425610D01*
X0000360551Y0000425610D02*
X0000360551Y0000504350D01*
X0000360551Y0000504350D02*
X0000494409Y0000504350D01*
X0000494409Y0000361870D02*
X0000494409Y0000283129D01*
X0000494409Y0000283129D02*
X0000360551Y0000283129D01*
X0000360551Y0000283129D02*
X0000360551Y0000361870D01*
X0000360551Y0000361870D02*
X0000494409Y0000361870D01*
X0000336929Y0000504350D02*
X0000336929Y0000425610D01*
X0000336929Y0000425610D02*
X0000203070Y0000425610D01*
X0000203070Y0000425610D02*
X0000203070Y0000504350D01*
X0000203070Y0000504350D02*
X0000336929Y0000504350D01*
X0000336929Y0000361870D02*
X0000336929Y0000283129D01*
X0000336929Y0000283129D02*
X0000203070Y0000283129D01*
X0000203070Y0000283129D02*
X0000203070Y0000361870D01*
X0000203070Y0000361870D02*
X0000336929Y0000361870D01*
D11*
X0000570000Y0000212381D02*
X0000067637Y0000212381D01*
X0000067637Y0000212381D02*
X0000067637Y0000007657D01*
X0000067637Y0000007657D02*
X0000672362Y0000007657D01*
X0000672362Y0000007657D02*
X0000672362Y0000110019D01*
X0000672362Y0000110019D02*
X0000570000Y0000110019D01*
X0000570000Y0000110019D02*
X0000570000Y0000212381D01*
X0000620000Y0000212381D02*
X0000672362Y0000212381D01*
X0000672362Y0000212381D02*
X0000672362Y0000160019D01*
D12*
X0000381482Y0000779059D02*
X0000381482Y0000750938D01*
X0000379608Y0000745314D01*
X0000375858Y0000741564D01*
X0000370234Y0000739689D01*
X0000366484Y0000739689D01*
X0000420853Y0000739689D02*
X0000398355Y0000739689D01*
X0000409604Y0000739689D02*
X0000409604Y0000779059D01*
X0000405854Y0000773435D01*
X0000402105Y0000769685D01*
X0000398355Y0000767811D01*
X0000087810Y0000525938D02*
X0000069062Y0000512814D01*
X0000087810Y0000503441D02*
X0000048440Y0000503441D01*
X0000048440Y0000518439D01*
X0000050314Y0000522188D01*
X0000052189Y0000524063D01*
X0000055939Y0000525938D01*
X0000061563Y0000525938D01*
X0000065313Y0000524063D01*
X0000067187Y0000522188D01*
X0000069062Y0000518439D01*
X0000069062Y0000503441D01*
X0000087810Y0000563433D02*
X0000087810Y0000540936D01*
X0000087810Y0000552185D02*
X0000048440Y0000552185D01*
X0000054064Y0000548435D01*
X0000057814Y0000544685D01*
X0000059688Y0000540936D01*
X0000027189Y0000573756D02*
X0000025314Y0000575630D01*
X0000023440Y0000579380D01*
X0000023440Y0000588754D01*
X0000025314Y0000592503D01*
X0000027189Y0000594378D01*
X0000030939Y0000596253D01*
X0000034688Y0000596253D01*
X0000040313Y0000594378D01*
X0000062810Y0000571881D01*
X0000062810Y0000596253D01*
X0000027189Y0000611251D02*
X0000025314Y0000613126D01*
X0000023440Y0000616875D01*
X0000023440Y0000626249D01*
X0000025314Y0000629999D01*
X0000027189Y0000631873D01*
X0000030939Y0000633748D01*
X0000034688Y0000633748D01*
X0000040313Y0000631873D01*
X0000062810Y0000609376D01*
X0000062810Y0000633748D01*
X0000023440Y0000667494D02*
X0000023440Y0000659995D01*
X0000025314Y0000656245D01*
X0000027189Y0000654370D01*
X0000032814Y0000650621D01*
X0000040313Y0000648746D01*
X0000055311Y0000648746D01*
X0000059060Y0000650621D01*
X0000060935Y0000652496D01*
X0000062810Y0000656245D01*
X0000062810Y0000663744D01*
X0000060935Y0000667494D01*
X0000059060Y0000669369D01*
X0000055311Y0000671243D01*
X0000045937Y0000671243D01*
X0000042187Y0000669369D01*
X0000040313Y0000667494D01*
X0000038438Y0000663744D01*
X0000038438Y0000656245D01*
X0000040313Y0000652496D01*
X0000042187Y0000650621D01*
X0000045937Y0000648746D01*
X0000053438Y0000337189D02*
X0000040314Y0000355937D01*
X0000030941Y0000337189D02*
X0000030941Y0000376559D01*
X0000045939Y0000376559D01*
X0000049688Y0000374685D01*
X0000051563Y0000372810D01*
X0000053438Y0000369060D01*
X0000053438Y0000363436D01*
X0000051563Y0000359686D01*
X0000049688Y0000357812D01*
X0000045939Y0000355937D01*
X0000030941Y0000355937D01*
X0000068436Y0000372810D02*
X0000070311Y0000374685D01*
X0000074060Y0000376559D01*
X0000083434Y0000376559D01*
X0000087184Y0000374685D01*
X0000089058Y0000372810D01*
X0000090933Y0000369060D01*
X0000090933Y0000365311D01*
X0000089058Y0000359686D01*
X0000066561Y0000337189D01*
X0000090933Y0000337189D01*
X0000124063Y0000267503D02*
X0000150310Y0000267503D01*
X0000109065Y0000258129D02*
X0000137186Y0000248756D01*
X0000137186Y0000273128D01*
X0000110940Y0000284376D02*
X0000110940Y0000308748D01*
X0000125938Y0000295625D01*
X0000125938Y0000301249D01*
X0000127813Y0000304999D01*
X0000129687Y0000306873D01*
X0000133437Y0000308748D01*
X0000142811Y0000308748D01*
X0000146560Y0000306873D01*
X0000148435Y0000304999D01*
X0000150310Y0000301249D01*
X0000150310Y0000290000D01*
X0000148435Y0000286251D01*
X0000146560Y0000284376D01*
X0000114689Y0000323746D02*
X0000112814Y0000325621D01*
X0000110940Y0000329370D01*
X0000110940Y0000338744D01*
X0000112814Y0000342494D01*
X0000114689Y0000344369D01*
X0000118439Y0000346243D01*
X0000122188Y0000346243D01*
X0000127813Y0000344369D01*
X0000150310Y0000321871D01*
X0000150310Y0000346243D01*
X0000533733Y0000447170D02*
X0000520610Y0000465917D01*
X0000511236Y0000447170D02*
X0000511236Y0000486540D01*
X0000526234Y0000486540D01*
X0000529984Y0000484665D01*
X0000531858Y0000482790D01*
X0000533733Y0000479041D01*
X0000533733Y0000473416D01*
X0000531858Y0000469667D01*
X0000529984Y0000467792D01*
X0000526234Y0000465917D01*
X0000511236Y0000465917D01*
X0000550606Y0000447170D02*
X0000550606Y0000486540D01*
X0000565604Y0000486540D01*
X0000569354Y0000484665D01*
X0000571228Y0000482790D01*
X0000573103Y0000479041D01*
X0000573103Y0000473416D01*
X0000571228Y0000469667D01*
X0000569354Y0000467792D01*
X0000565604Y0000465917D01*
X0000550606Y0000465917D01*
X0000610599Y0000447170D02*
X0000588101Y0000447170D01*
X0000599350Y0000447170D02*
X0000599350Y0000486540D01*
X0000595600Y0000480915D01*
X0000591851Y0000477166D01*
X0000588101Y0000475291D01*
X0000650296Y0000447170D02*
X0000627799Y0000447170D01*
X0000639047Y0000447170D02*
X0000639047Y0000486540D01*
X0000635298Y0000480915D01*
X0000631548Y0000477166D01*
X0000627799Y0000475291D01*
X0000674668Y0000486540D02*
X0000678417Y0000486540D01*
X0000682167Y0000484665D01*
X0000684042Y0000482790D01*
X0000685916Y0000479041D01*
X0000687791Y0000471542D01*
X0000687791Y0000462168D01*
X0000685916Y0000454669D01*
X0000684042Y0000450919D01*
X0000682167Y0000449044D01*
X0000678417Y0000447170D01*
X0000674668Y0000447170D01*
X0000670918Y0000449044D01*
X0000669043Y0000450919D01*
X0000667169Y0000454669D01*
X0000665294Y0000462168D01*
X0000665294Y0000471542D01*
X0000667169Y0000479041D01*
X0000669043Y0000482790D01*
X0000670918Y0000484665D01*
X0000674668Y0000486540D01*
X0000704664Y0000447170D02*
X0000704664Y0000486540D01*
X0000727161Y0000447170D02*
X0000710288Y0000469667D01*
X0000727161Y0000486540D02*
X0000704664Y0000464042D01*
X0000533733Y0000314689D02*
X0000520610Y0000333437D01*
X0000511236Y0000314689D02*
X0000511236Y0000354059D01*
X0000526234Y0000354059D01*
X0000529984Y0000352185D01*
X0000531858Y0000350310D01*
X0000533733Y0000346560D01*
X0000533733Y0000340936D01*
X0000531858Y0000337186D01*
X0000529984Y0000335312D01*
X0000526234Y0000333437D01*
X0000511236Y0000333437D01*
X0000550606Y0000314689D02*
X0000550606Y0000354059D01*
X0000565604Y0000354059D01*
X0000569354Y0000352185D01*
X0000571228Y0000350310D01*
X0000573103Y0000346560D01*
X0000573103Y0000340936D01*
X0000571228Y0000337186D01*
X0000569354Y0000335312D01*
X0000565604Y0000333437D01*
X0000550606Y0000333437D01*
X0000588101Y0000350310D02*
X0000589976Y0000352185D01*
X0000593726Y0000354059D01*
X0000603099Y0000354059D01*
X0000606849Y0000352185D01*
X0000608724Y0000350310D01*
X0000610599Y0000346560D01*
X0000610599Y0000342811D01*
X0000608724Y0000337186D01*
X0000586227Y0000314689D01*
X0000610599Y0000314689D01*
X0000652796Y0000314689D02*
X0000630299Y0000314689D01*
X0000641547Y0000314689D02*
X0000641547Y0000354059D01*
X0000637798Y0000348435D01*
X0000634048Y0000344685D01*
X0000630299Y0000342811D01*
X0000677168Y0000354059D02*
X0000680917Y0000354059D01*
X0000684667Y0000352185D01*
X0000686542Y0000350310D01*
X0000688416Y0000346560D01*
X0000690291Y0000339061D01*
X0000690291Y0000329687D01*
X0000688416Y0000322188D01*
X0000686542Y0000318439D01*
X0000684667Y0000316564D01*
X0000680917Y0000314689D01*
X0000677168Y0000314689D01*
X0000673418Y0000316564D01*
X0000671543Y0000318439D01*
X0000669669Y0000322188D01*
X0000667794Y0000329687D01*
X0000667794Y0000339061D01*
X0000669669Y0000346560D01*
X0000671543Y0000350310D01*
X0000673418Y0000352185D01*
X0000677168Y0000354059D01*
X0000707164Y0000314689D02*
X0000707164Y0000354059D01*
X0000729661Y0000314689D02*
X0000712788Y0000337186D01*
X0000729661Y0000354059D02*
X0000707164Y0000331562D01*
X0000121253Y0000489670D02*
X0000108129Y0000508417D01*
X0000098756Y0000489670D02*
X0000098756Y0000529040D01*
X0000113754Y0000529040D01*
X0000117503Y0000527165D01*
X0000119378Y0000525290D01*
X0000121253Y0000521541D01*
X0000121253Y0000515916D01*
X0000119378Y0000512167D01*
X0000117503Y0000510292D01*
X0000113754Y0000508417D01*
X0000098756Y0000508417D01*
X0000138126Y0000489670D02*
X0000138126Y0000529040D01*
X0000153124Y0000529040D01*
X0000156873Y0000527165D01*
X0000158748Y0000525290D01*
X0000160623Y0000521541D01*
X0000160623Y0000515916D01*
X0000158748Y0000512167D01*
X0000156873Y0000510292D01*
X0000153124Y0000508417D01*
X0000138126Y0000508417D01*
X0000173746Y0000529040D02*
X0000198118Y0000529040D01*
X0000184995Y0000514042D01*
X0000190619Y0000514042D01*
X0000194369Y0000512167D01*
X0000196243Y0000510292D01*
X0000198118Y0000506542D01*
X0000198118Y0000497169D01*
X0000196243Y0000493419D01*
X0000194369Y0000491544D01*
X0000190619Y0000489670D01*
X0000179371Y0000489670D01*
X0000175621Y0000491544D01*
X0000173746Y0000493419D01*
X0000122815Y0000434670D02*
X0000100318Y0000434670D01*
X0000111567Y0000434670D02*
X0000111567Y0000474040D01*
X0000107817Y0000468415D01*
X0000104068Y0000464666D01*
X0000100318Y0000462791D01*
X0000147187Y0000474040D02*
X0000150937Y0000474040D01*
X0000154686Y0000472165D01*
X0000156561Y0000470290D01*
X0000158436Y0000466541D01*
X0000160311Y0000459042D01*
X0000160311Y0000449668D01*
X0000158436Y0000442169D01*
X0000156561Y0000438419D01*
X0000154686Y0000436544D01*
X0000150937Y0000434670D01*
X0000147187Y0000434670D01*
X0000143438Y0000436544D01*
X0000141563Y0000438419D01*
X0000139688Y0000442169D01*
X0000137814Y0000449668D01*
X0000137814Y0000459042D01*
X0000139688Y0000466541D01*
X0000141563Y0000470290D01*
X0000143438Y0000472165D01*
X0000147187Y0000474040D01*
X0000177184Y0000434670D02*
X0000177184Y0000474040D01*
X0000199681Y0000434670D02*
X0000182808Y0000457167D01*
X0000199681Y0000474040D02*
X0000177184Y0000451542D01*
X0000238753Y0000227189D02*
X0000225629Y0000245937D01*
X0000216256Y0000227189D02*
X0000216256Y0000266559D01*
X0000231254Y0000266559D01*
X0000235003Y0000264685D01*
X0000236878Y0000262810D01*
X0000238753Y0000259060D01*
X0000238753Y0000253436D01*
X0000236878Y0000249686D01*
X0000235003Y0000247812D01*
X0000231254Y0000245937D01*
X0000216256Y0000245937D01*
X0000255626Y0000227189D02*
X0000255626Y0000266559D01*
X0000270624Y0000266559D01*
X0000274373Y0000264685D01*
X0000276248Y0000262810D01*
X0000278123Y0000259060D01*
X0000278123Y0000253436D01*
X0000276248Y0000249686D01*
X0000274373Y0000247812D01*
X0000270624Y0000245937D01*
X0000255626Y0000245937D01*
X0000311869Y0000253436D02*
X0000311869Y0000227189D01*
X0000302495Y0000268434D02*
X0000293121Y0000240313D01*
X0000317493Y0000240313D01*
X0000362815Y0000229689D02*
X0000340318Y0000229689D01*
X0000351567Y0000229689D02*
X0000351567Y0000269059D01*
X0000347817Y0000263435D01*
X0000344068Y0000259685D01*
X0000340318Y0000257811D01*
X0000387187Y0000269059D02*
X0000390937Y0000269059D01*
X0000394686Y0000267185D01*
X0000396561Y0000265310D01*
X0000398436Y0000261560D01*
X0000400311Y0000254061D01*
X0000400311Y0000244687D01*
X0000398436Y0000237188D01*
X0000396561Y0000233439D01*
X0000394686Y0000231564D01*
X0000390937Y0000229689D01*
X0000387187Y0000229689D01*
X0000383438Y0000231564D01*
X0000381563Y0000233439D01*
X0000379688Y0000237188D01*
X0000377814Y0000244687D01*
X0000377814Y0000254061D01*
X0000379688Y0000261560D01*
X0000381563Y0000265310D01*
X0000383438Y0000267185D01*
X0000387187Y0000269059D01*
X0000417184Y0000229689D02*
X0000417184Y0000269059D01*
X0000439681Y0000229689D02*
X0000422808Y0000252186D01*
X0000439681Y0000269059D02*
X0000417184Y0000246562D01*
X0000729542Y0000080960D02*
X0000690172Y0000080960D01*
X0000690172Y0000095958D01*
X0000692047Y0000099708D01*
X0000693922Y0000101583D01*
X0000697671Y0000103458D01*
X0000703295Y0000103458D01*
X0000707045Y0000101583D01*
X0000708920Y0000099708D01*
X0000710794Y0000095958D01*
X0000710794Y0000080960D01*
X0000729542Y0000140953D02*
X0000729542Y0000118456D01*
X0000729542Y0000129704D02*
X0000690172Y0000129704D01*
X0000695796Y0000125955D01*
X0000699546Y0000122205D01*
X0000701421Y0000118456D01*
G04 next file*
G04 #@! TF.FileFunction,Legend,Top*
G04 Gerber Fmt 4.6, Leading zero omitted, Abs format (unit mm)*
G04 Created by KiCad (PCBNEW 4.0.4-stable) date 05/23/17 22:39:58*
G01G01*
G04 APERTURE LIST*
G04 APERTURE END LIST*
D23*
X0000097949Y0002272735D02*
X0000671353Y0002272735D01*
X0000671353Y0002272735D02*
X0000671353Y0001749431D01*
X0000671353Y0001749431D02*
X0000097949Y0001749431D01*
X0000097949Y0001749431D02*
X0000097949Y0002272735D01*
X0000051814Y0002182461D02*
X0000095465Y0002182461D01*
X0000095465Y0002182461D02*
X0000095465Y0001872937D01*
X0000095465Y0001872937D02*
X0000051814Y0001872937D01*
X0000051814Y0001872937D02*
X0000051814Y0002182461D01*
X0000674830Y0002182452D02*
X0000718481Y0002182452D01*
X0000718481Y0002182452D02*
X0000718481Y0001872928D01*
X0000718481Y0001872928D02*
X0000674830Y0001872928D01*
X0000674830Y0001872928D02*
X0000674830Y0002182452D01*
D24*
X0000043228Y0001608425D02*
X0000043228Y0001647795D01*
X0000096771Y0001647795D02*
X0000096771Y0001608425D01*
X0000043228Y0001458425D02*
X0000043228Y0001497795D01*
X0000096771Y0001497795D02*
X0000096771Y0001458425D01*
D25*
X0000494409Y0001699960D02*
X0000494409Y0001621220D01*
X0000494409Y0001621220D02*
X0000360551Y0001621220D01*
X0000360551Y0001621220D02*
X0000360551Y0001699960D01*
X0000360551Y0001699960D02*
X0000494409Y0001699960D01*
X0000494409Y0001557480D02*
X0000494409Y0001478740D01*
X0000494409Y0001478740D02*
X0000360551Y0001478740D01*
X0000360551Y0001478740D02*
X0000360551Y0001557480D01*
X0000360551Y0001557480D02*
X0000494409Y0001557480D01*
X0000336929Y0001699960D02*
X0000336929Y0001621220D01*
X0000336929Y0001621220D02*
X0000203070Y0001621220D01*
X0000203070Y0001621220D02*
X0000203070Y0001699960D01*
X0000203070Y0001699960D02*
X0000336929Y0001699960D01*
X0000336929Y0001557480D02*
X0000336929Y0001478740D01*
X0000336929Y0001478740D02*
X0000203070Y0001478740D01*
X0000203070Y0001478740D02*
X0000203070Y0001557480D01*
X0000203070Y0001557480D02*
X0000336929Y0001557480D01*
D24*
X0000570000Y0001407992D02*
X0000067637Y0001407992D01*
X0000067637Y0001407992D02*
X0000067637Y0001203267D01*
X0000067637Y0001203267D02*
X0000672362Y0001203267D01*
X0000672362Y0001203267D02*
X0000672362Y0001305629D01*
X0000672362Y0001305629D02*
X0000570000Y0001305629D01*
X0000570000Y0001305629D02*
X0000570000Y0001407992D01*
X0000620000Y0001407992D02*
X0000672362Y0001407992D01*
X0000672362Y0001407992D02*
X0000672362Y0001355629D01*
D25*
X0000381482Y0001974670D02*
X0000381482Y0001946548D01*
X0000379608Y0001940924D01*
X0000375858Y0001937174D01*
X0000370234Y0001935299D01*
X0000366484Y0001935299D01*
X0000420853Y0001935299D02*
X0000398355Y0001935299D01*
X0000409604Y0001935299D02*
X0000409604Y0001974670D01*
X0000405854Y0001969045D01*
X0000402105Y0001965296D01*
X0000398355Y0001963421D01*
X0000087810Y0001721548D02*
X0000069062Y0001708425D01*
X0000087810Y0001699051D02*
X0000048440Y0001699051D01*
X0000048440Y0001714049D01*
X0000050314Y0001717799D01*
X0000052189Y0001719673D01*
X0000055939Y0001721548D01*
X0000061563Y0001721548D01*
X0000065313Y0001719673D01*
X0000067187Y0001717799D01*
X0000069062Y0001714049D01*
X0000069062Y0001699051D01*
X0000087810Y0001759043D02*
X0000087810Y0001736546D01*
X0000087810Y0001747795D02*
X0000048440Y0001747795D01*
X0000054064Y0001744045D01*
X0000057814Y0001740296D01*
X0000059688Y0001736546D01*
X0000027189Y0001769366D02*
X0000025314Y0001771241D01*
X0000023440Y0001774990D01*
X0000023440Y0001784364D01*
X0000025314Y0001788113D01*
X0000027189Y0001789988D01*
X0000030939Y0001791863D01*
X0000034688Y0001791863D01*
X0000040313Y0001789988D01*
X0000062810Y0001767491D01*
X0000062810Y0001791863D01*
X0000027189Y0001806861D02*
X0000025314Y0001808736D01*
X0000023440Y0001812485D01*
X0000023440Y0001821859D01*
X0000025314Y0001825609D01*
X0000027189Y0001827484D01*
X0000030939Y0001829358D01*
X0000034688Y0001829358D01*
X0000040313Y0001827484D01*
X0000062810Y0001804986D01*
X0000062810Y0001829358D01*
X0000023440Y0001863104D02*
X0000023440Y0001855605D01*
X0000025314Y0001851855D01*
X0000027189Y0001849981D01*
X0000032814Y0001846231D01*
X0000040313Y0001844356D01*
X0000055311Y0001844356D01*
X0000059060Y0001846231D01*
X0000060935Y0001848106D01*
X0000062810Y0001851855D01*
X0000062810Y0001859355D01*
X0000060935Y0001863104D01*
X0000059060Y0001864979D01*
X0000055311Y0001866854D01*
X0000045937Y0001866854D01*
X0000042187Y0001864979D01*
X0000040313Y0001863104D01*
X0000038438Y0001859355D01*
X0000038438Y0001851855D01*
X0000040313Y0001848106D01*
X0000042187Y0001846231D01*
X0000045937Y0001844356D01*
X0000053438Y0001532799D02*
X0000040314Y0001551547D01*
X0000030941Y0001532799D02*
X0000030941Y0001572170D01*
X0000045939Y0001572170D01*
X0000049688Y0001570295D01*
X0000051563Y0001568420D01*
X0000053438Y0001564670D01*
X0000053438Y0001559046D01*
X0000051563Y0001555297D01*
X0000049688Y0001553422D01*
X0000045939Y0001551547D01*
X0000030941Y0001551547D01*
X0000068436Y0001568420D02*
X0000070311Y0001570295D01*
X0000074060Y0001572170D01*
X0000083434Y0001572170D01*
X0000087184Y0001570295D01*
X0000089058Y0001568420D01*
X0000090933Y0001564670D01*
X0000090933Y0001560921D01*
X0000089058Y0001555297D01*
X0000066561Y0001532799D01*
X0000090933Y0001532799D01*
X0000124063Y0001463113D02*
X0000150310Y0001463113D01*
X0000109065Y0001453740D02*
X0000137186Y0001444366D01*
X0000137186Y0001468738D01*
X0000110940Y0001479986D02*
X0000110940Y0001504358D01*
X0000125938Y0001491235D01*
X0000125938Y0001496859D01*
X0000127813Y0001500609D01*
X0000129687Y0001502484D01*
X0000133437Y0001504358D01*
X0000142811Y0001504358D01*
X0000146560Y0001502484D01*
X0000148435Y0001500609D01*
X0000150310Y0001496859D01*
X0000150310Y0001485611D01*
X0000148435Y0001481861D01*
X0000146560Y0001479986D01*
X0000114689Y0001519356D02*
X0000112814Y0001521231D01*
X0000110940Y0001524981D01*
X0000110940Y0001534355D01*
X0000112814Y0001538104D01*
X0000114689Y0001539979D01*
X0000118439Y0001541854D01*
X0000122188Y0001541854D01*
X0000127813Y0001539979D01*
X0000150310Y0001517482D01*
X0000150310Y0001541854D01*
X0000533733Y0001642780D02*
X0000520610Y0001661527D01*
X0000511236Y0001642780D02*
X0000511236Y0001682150D01*
X0000526234Y0001682150D01*
X0000529984Y0001680275D01*
X0000531858Y0001678400D01*
X0000533733Y0001674651D01*
X0000533733Y0001669026D01*
X0000531858Y0001665277D01*
X0000529984Y0001663402D01*
X0000526234Y0001661527D01*
X0000511236Y0001661527D01*
X0000550606Y0001642780D02*
X0000550606Y0001682150D01*
X0000565604Y0001682150D01*
X0000569354Y0001680275D01*
X0000571228Y0001678400D01*
X0000573103Y0001674651D01*
X0000573103Y0001669026D01*
X0000571228Y0001665277D01*
X0000569354Y0001663402D01*
X0000565604Y0001661527D01*
X0000550606Y0001661527D01*
X0000610599Y0001642780D02*
X0000588101Y0001642780D01*
X0000599350Y0001642780D02*
X0000599350Y0001682150D01*
X0000595600Y0001676526D01*
X0000591851Y0001672776D01*
X0000588101Y0001670901D01*
X0000650296Y0001642780D02*
X0000627799Y0001642780D01*
X0000639047Y0001642780D02*
X0000639047Y0001682150D01*
X0000635298Y0001676526D01*
X0000631548Y0001672776D01*
X0000627799Y0001670901D01*
X0000674668Y0001682150D02*
X0000678417Y0001682150D01*
X0000682167Y0001680275D01*
X0000684042Y0001678400D01*
X0000685916Y0001674651D01*
X0000687791Y0001667152D01*
X0000687791Y0001657778D01*
X0000685916Y0001650279D01*
X0000684042Y0001646529D01*
X0000682167Y0001644655D01*
X0000678417Y0001642780D01*
X0000674668Y0001642780D01*
X0000670918Y0001644655D01*
X0000669043Y0001646529D01*
X0000667169Y0001650279D01*
X0000665294Y0001657778D01*
X0000665294Y0001667152D01*
X0000667169Y0001674651D01*
X0000669043Y0001678400D01*
X0000670918Y0001680275D01*
X0000674668Y0001682150D01*
X0000704664Y0001642780D02*
X0000704664Y0001682150D01*
X0000727161Y0001642780D02*
X0000710288Y0001665277D01*
X0000727161Y0001682150D02*
X0000704664Y0001659653D01*
X0000533733Y0001510299D02*
X0000520610Y0001529047D01*
X0000511236Y0001510299D02*
X0000511236Y0001549670D01*
X0000526234Y0001549670D01*
X0000529984Y0001547795D01*
X0000531858Y0001545920D01*
X0000533733Y0001542170D01*
X0000533733Y0001536546D01*
X0000531858Y0001532797D01*
X0000529984Y0001530922D01*
X0000526234Y0001529047D01*
X0000511236Y0001529047D01*
X0000550606Y0001510299D02*
X0000550606Y0001549670D01*
X0000565604Y0001549670D01*
X0000569354Y0001547795D01*
X0000571228Y0001545920D01*
X0000573103Y0001542170D01*
X0000573103Y0001536546D01*
X0000571228Y0001532797D01*
X0000569354Y0001530922D01*
X0000565604Y0001529047D01*
X0000550606Y0001529047D01*
X0000588101Y0001545920D02*
X0000589976Y0001547795D01*
X0000593726Y0001549670D01*
X0000603099Y0001549670D01*
X0000606849Y0001547795D01*
X0000608724Y0001545920D01*
X0000610599Y0001542170D01*
X0000610599Y0001538421D01*
X0000608724Y0001532797D01*
X0000586227Y0001510299D01*
X0000610599Y0001510299D01*
X0000652796Y0001510299D02*
X0000630299Y0001510299D01*
X0000641547Y0001510299D02*
X0000641547Y0001549670D01*
X0000637798Y0001544045D01*
X0000634048Y0001540296D01*
X0000630299Y0001538421D01*
X0000677168Y0001549670D02*
X0000680917Y0001549670D01*
X0000684667Y0001547795D01*
X0000686542Y0001545920D01*
X0000688416Y0001542170D01*
X0000690291Y0001534671D01*
X0000690291Y0001525298D01*
X0000688416Y0001517798D01*
X0000686542Y0001514049D01*
X0000684667Y0001512174D01*
X0000680917Y0001510299D01*
X0000677168Y0001510299D01*
X0000673418Y0001512174D01*
X0000671543Y0001514049D01*
X0000669669Y0001517798D01*
X0000667794Y0001525298D01*
X0000667794Y0001534671D01*
X0000669669Y0001542170D01*
X0000671543Y0001545920D01*
X0000673418Y0001547795D01*
X0000677168Y0001549670D01*
X0000707164Y0001510299D02*
X0000707164Y0001549670D01*
X0000729661Y0001510299D02*
X0000712788Y0001532797D01*
X0000729661Y0001549670D02*
X0000707164Y0001527172D01*
X0000121253Y0001685280D02*
X0000108129Y0001704027D01*
X0000098756Y0001685280D02*
X0000098756Y0001724650D01*
X0000113754Y0001724650D01*
X0000117503Y0001722775D01*
X0000119378Y0001720900D01*
X0000121253Y0001717151D01*
X0000121253Y0001711526D01*
X0000119378Y0001707777D01*
X0000117503Y0001705902D01*
X0000113754Y0001704027D01*
X0000098756Y0001704027D01*
X0000138126Y0001685280D02*
X0000138126Y0001724650D01*
X0000153124Y0001724650D01*
X0000156873Y0001722775D01*
X0000158748Y0001720900D01*
X0000160623Y0001717151D01*
X0000160623Y0001711526D01*
X0000158748Y0001707777D01*
X0000156873Y0001705902D01*
X0000153124Y0001704027D01*
X0000138126Y0001704027D01*
X0000173746Y0001724650D02*
X0000198118Y0001724650D01*
X0000184995Y0001709652D01*
X0000190619Y0001709652D01*
X0000194369Y0001707777D01*
X0000196243Y0001705902D01*
X0000198118Y0001702153D01*
X0000198118Y0001692779D01*
X0000196243Y0001689029D01*
X0000194369Y0001687155D01*
X0000190619Y0001685280D01*
X0000179371Y0001685280D01*
X0000175621Y0001687155D01*
X0000173746Y0001689029D01*
X0000122815Y0001630280D02*
X0000100318Y0001630280D01*
X0000111567Y0001630280D02*
X0000111567Y0001669650D01*
X0000107817Y0001664026D01*
X0000104068Y0001660276D01*
X0000100318Y0001658401D01*
X0000147187Y0001669650D02*
X0000150937Y0001669650D01*
X0000154686Y0001667775D01*
X0000156561Y0001665900D01*
X0000158436Y0001662151D01*
X0000160311Y0001654652D01*
X0000160311Y0001645278D01*
X0000158436Y0001637779D01*
X0000156561Y0001634029D01*
X0000154686Y0001632155D01*
X0000150937Y0001630280D01*
X0000147187Y0001630280D01*
X0000143438Y0001632155D01*
X0000141563Y0001634029D01*
X0000139688Y0001637779D01*
X0000137814Y0001645278D01*
X0000137814Y0001654652D01*
X0000139688Y0001662151D01*
X0000141563Y0001665900D01*
X0000143438Y0001667775D01*
X0000147187Y0001669650D01*
X0000177184Y0001630280D02*
X0000177184Y0001669650D01*
X0000199681Y0001630280D02*
X0000182808Y0001652777D01*
X0000199681Y0001669650D02*
X0000177184Y0001647153D01*
X0000238753Y0001422799D02*
X0000225629Y0001441547D01*
X0000216256Y0001422799D02*
X0000216256Y0001462170D01*
X0000231254Y0001462170D01*
X0000235003Y0001460295D01*
X0000236878Y0001458420D01*
X0000238753Y0001454670D01*
X0000238753Y0001449046D01*
X0000236878Y0001445297D01*
X0000235003Y0001443422D01*
X0000231254Y0001441547D01*
X0000216256Y0001441547D01*
X0000255626Y0001422799D02*
X0000255626Y0001462170D01*
X0000270624Y0001462170D01*
X0000274373Y0001460295D01*
X0000276248Y0001458420D01*
X0000278123Y0001454670D01*
X0000278123Y0001449046D01*
X0000276248Y0001445297D01*
X0000274373Y0001443422D01*
X0000270624Y0001441547D01*
X0000255626Y0001441547D01*
X0000311869Y0001449046D02*
X0000311869Y0001422799D01*
X0000302495Y0001464044D02*
X0000293121Y0001435923D01*
X0000317493Y0001435923D01*
X0000362815Y0001425299D02*
X0000340318Y0001425299D01*
X0000351567Y0001425299D02*
X0000351567Y0001464670D01*
X0000347817Y0001459045D01*
X0000344068Y0001455296D01*
X0000340318Y0001453421D01*
X0000387187Y0001464670D02*
X0000390937Y0001464670D01*
X0000394686Y0001462795D01*
X0000396561Y0001460920D01*
X0000398436Y0001457170D01*
X0000400311Y0001449671D01*
X0000400311Y0001440298D01*
X0000398436Y0001432798D01*
X0000396561Y0001429049D01*
X0000394686Y0001427174D01*
X0000390937Y0001425299D01*
X0000387187Y0001425299D01*
X0000383438Y0001427174D01*
X0000381563Y0001429049D01*
X0000379688Y0001432798D01*
X0000377814Y0001440298D01*
X0000377814Y0001449671D01*
X0000379688Y0001457170D01*
X0000381563Y0001460920D01*
X0000383438Y0001462795D01*
X0000387187Y0001464670D01*
X0000417184Y0001425299D02*
X0000417184Y0001464670D01*
X0000439681Y0001425299D02*
X0000422808Y0001447797D01*
X0000439681Y0001464670D02*
X0000417184Y0001442172D01*
X0000729542Y0001276571D02*
X0000690172Y0001276571D01*
X0000690172Y0001291569D01*
X0000692047Y0001295318D01*
X0000693922Y0001297193D01*
X0000697671Y0001299068D01*
X0000703295Y0001299068D01*
X0000707045Y0001297193D01*
X0000708920Y0001295318D01*
X0000710794Y0001291569D01*
X0000710794Y0001276571D01*
X0000729542Y0001336563D02*
X0000729542Y0001314066D01*
X0000729542Y0001325314D02*
X0000690172Y0001325314D01*
X0000695796Y0001321565D01*
X0000699546Y0001317815D01*
X0000701421Y0001314066D01*
G04 next file*
G04 #@! TF.FileFunction,Legend,Top*
G04 Gerber Fmt 4.6, Leading zero omitted, Abs format (unit mm)*
G04 Created by KiCad (PCBNEW 4.0.4-stable) date 05/23/17 22:39:58*
G01G01*
G04 APERTURE LIST*
G04 APERTURE END LIST*
D26*
X0000097949Y0003468345D02*
X0000671353Y0003468345D01*
X0000671353Y0003468345D02*
X0000671353Y0002945041D01*
X0000671353Y0002945041D02*
X0000097949Y0002945041D01*
X0000097949Y0002945041D02*
X0000097949Y0003468345D01*
X0000051814Y0003378071D02*
X0000095465Y0003378071D01*
X0000095465Y0003378071D02*
X0000095465Y0003068547D01*
X0000095465Y0003068547D02*
X0000051814Y0003068547D01*
X0000051814Y0003068547D02*
X0000051814Y0003378071D01*
X0000674830Y0003378063D02*
X0000718481Y0003378063D01*
X0000718481Y0003378063D02*
X0000718481Y0003068539D01*
X0000718481Y0003068539D02*
X0000674830Y0003068539D01*
X0000674830Y0003068539D02*
X0000674830Y0003378063D01*
D27*
X0000043228Y0002804035D02*
X0000043228Y0002843405D01*
X0000096771Y0002843405D02*
X0000096771Y0002804035D01*
X0000043228Y0002654035D02*
X0000043228Y0002693405D01*
X0000096771Y0002693405D02*
X0000096771Y0002654035D01*
D28*
X0000494409Y0002895570D02*
X0000494409Y0002816830D01*
X0000494409Y0002816830D02*
X0000360551Y0002816830D01*
X0000360551Y0002816830D02*
X0000360551Y0002895570D01*
X0000360551Y0002895570D02*
X0000494409Y0002895570D01*
X0000494409Y0002753090D02*
X0000494409Y0002674350D01*
X0000494409Y0002674350D02*
X0000360551Y0002674350D01*
X0000360551Y0002674350D02*
X0000360551Y0002753090D01*
X0000360551Y0002753090D02*
X0000494409Y0002753090D01*
X0000336929Y0002895570D02*
X0000336929Y0002816830D01*
X0000336929Y0002816830D02*
X0000203070Y0002816830D01*
X0000203070Y0002816830D02*
X0000203070Y0002895570D01*
X0000203070Y0002895570D02*
X0000336929Y0002895570D01*
X0000336929Y0002753090D02*
X0000336929Y0002674350D01*
X0000336929Y0002674350D02*
X0000203070Y0002674350D01*
X0000203070Y0002674350D02*
X0000203070Y0002753090D01*
X0000203070Y0002753090D02*
X0000336929Y0002753090D01*
D27*
X0000570000Y0002603602D02*
X0000067637Y0002603602D01*
X0000067637Y0002603602D02*
X0000067637Y0002398877D01*
X0000067637Y0002398877D02*
X0000672362Y0002398877D01*
X0000672362Y0002398877D02*
X0000672362Y0002501240D01*
X0000672362Y0002501240D02*
X0000570000Y0002501240D01*
X0000570000Y0002501240D02*
X0000570000Y0002603602D01*
X0000620000Y0002603602D02*
X0000672362Y0002603602D01*
X0000672362Y0002603602D02*
X0000672362Y0002551240D01*
D28*
X0000381482Y0003170280D02*
X0000381482Y0003142158D01*
X0000379608Y0003136534D01*
X0000375858Y0003132784D01*
X0000370234Y0003130910D01*
X0000366484Y0003130910D01*
X0000420853Y0003130910D02*
X0000398355Y0003130910D01*
X0000409604Y0003130910D02*
X0000409604Y0003170280D01*
X0000405854Y0003164655D01*
X0000402105Y0003160906D01*
X0000398355Y0003159031D01*
X0000087810Y0002917158D02*
X0000069062Y0002904035D01*
X0000087810Y0002894661D02*
X0000048440Y0002894661D01*
X0000048440Y0002909659D01*
X0000050314Y0002913409D01*
X0000052189Y0002915284D01*
X0000055939Y0002917158D01*
X0000061563Y0002917158D01*
X0000065313Y0002915284D01*
X0000067187Y0002913409D01*
X0000069062Y0002909659D01*
X0000069062Y0002894661D01*
X0000087810Y0002954654D02*
X0000087810Y0002932156D01*
X0000087810Y0002943405D02*
X0000048440Y0002943405D01*
X0000054064Y0002939655D01*
X0000057814Y0002935906D01*
X0000059688Y0002932156D01*
X0000027189Y0002964976D02*
X0000025314Y0002966851D01*
X0000023440Y0002970600D01*
X0000023440Y0002979974D01*
X0000025314Y0002983724D01*
X0000027189Y0002985598D01*
X0000030939Y0002987473D01*
X0000034688Y0002987473D01*
X0000040313Y0002985598D01*
X0000062810Y0002963101D01*
X0000062810Y0002987473D01*
X0000027189Y0003002471D02*
X0000025314Y0003004346D01*
X0000023440Y0003008096D01*
X0000023440Y0003017470D01*
X0000025314Y0003021219D01*
X0000027189Y0003023094D01*
X0000030939Y0003024969D01*
X0000034688Y0003024969D01*
X0000040313Y0003023094D01*
X0000062810Y0003000597D01*
X0000062810Y0003024969D01*
X0000023440Y0003058714D02*
X0000023440Y0003051215D01*
X0000025314Y0003047466D01*
X0000027189Y0003045591D01*
X0000032814Y0003041841D01*
X0000040313Y0003039967D01*
X0000055311Y0003039967D01*
X0000059060Y0003041841D01*
X0000060935Y0003043716D01*
X0000062810Y0003047466D01*
X0000062810Y0003054965D01*
X0000060935Y0003058714D01*
X0000059060Y0003060589D01*
X0000055311Y0003062464D01*
X0000045937Y0003062464D01*
X0000042187Y0003060589D01*
X0000040313Y0003058714D01*
X0000038438Y0003054965D01*
X0000038438Y0003047466D01*
X0000040313Y0003043716D01*
X0000042187Y0003041841D01*
X0000045937Y0003039967D01*
X0000053438Y0002728410D02*
X0000040314Y0002747157D01*
X0000030941Y0002728410D02*
X0000030941Y0002767780D01*
X0000045939Y0002767780D01*
X0000049688Y0002765905D01*
X0000051563Y0002764030D01*
X0000053438Y0002760281D01*
X0000053438Y0002754656D01*
X0000051563Y0002750907D01*
X0000049688Y0002749032D01*
X0000045939Y0002747157D01*
X0000030941Y0002747157D01*
X0000068436Y0002764030D02*
X0000070311Y0002765905D01*
X0000074060Y0002767780D01*
X0000083434Y0002767780D01*
X0000087184Y0002765905D01*
X0000089058Y0002764030D01*
X0000090933Y0002760281D01*
X0000090933Y0002756531D01*
X0000089058Y0002750907D01*
X0000066561Y0002728410D01*
X0000090933Y0002728410D01*
X0000124063Y0002658724D02*
X0000150310Y0002658724D01*
X0000109065Y0002649350D02*
X0000137186Y0002639976D01*
X0000137186Y0002664348D01*
X0000110940Y0002675597D02*
X0000110940Y0002699969D01*
X0000125938Y0002686845D01*
X0000125938Y0002692470D01*
X0000127813Y0002696219D01*
X0000129687Y0002698094D01*
X0000133437Y0002699969D01*
X0000142811Y0002699969D01*
X0000146560Y0002698094D01*
X0000148435Y0002696219D01*
X0000150310Y0002692470D01*
X0000150310Y0002681221D01*
X0000148435Y0002677471D01*
X0000146560Y0002675597D01*
X0000114689Y0002714967D02*
X0000112814Y0002716841D01*
X0000110940Y0002720591D01*
X0000110940Y0002729965D01*
X0000112814Y0002733714D01*
X0000114689Y0002735589D01*
X0000118439Y0002737464D01*
X0000122188Y0002737464D01*
X0000127813Y0002735589D01*
X0000150310Y0002713092D01*
X0000150310Y0002737464D01*
X0000533733Y0002838390D02*
X0000520610Y0002857138D01*
X0000511236Y0002838390D02*
X0000511236Y0002877760D01*
X0000526234Y0002877760D01*
X0000529984Y0002875885D01*
X0000531858Y0002874011D01*
X0000533733Y0002870261D01*
X0000533733Y0002864637D01*
X0000531858Y0002860887D01*
X0000529984Y0002859012D01*
X0000526234Y0002857138D01*
X0000511236Y0002857138D01*
X0000550606Y0002838390D02*
X0000550606Y0002877760D01*
X0000565604Y0002877760D01*
X0000569354Y0002875885D01*
X0000571228Y0002874011D01*
X0000573103Y0002870261D01*
X0000573103Y0002864637D01*
X0000571228Y0002860887D01*
X0000569354Y0002859012D01*
X0000565604Y0002857138D01*
X0000550606Y0002857138D01*
X0000610599Y0002838390D02*
X0000588101Y0002838390D01*
X0000599350Y0002838390D02*
X0000599350Y0002877760D01*
X0000595600Y0002872136D01*
X0000591851Y0002868386D01*
X0000588101Y0002866511D01*
X0000650296Y0002838390D02*
X0000627799Y0002838390D01*
X0000639047Y0002838390D02*
X0000639047Y0002877760D01*
X0000635298Y0002872136D01*
X0000631548Y0002868386D01*
X0000627799Y0002866511D01*
X0000674668Y0002877760D02*
X0000678417Y0002877760D01*
X0000682167Y0002875885D01*
X0000684042Y0002874011D01*
X0000685916Y0002870261D01*
X0000687791Y0002862762D01*
X0000687791Y0002853388D01*
X0000685916Y0002845889D01*
X0000684042Y0002842140D01*
X0000682167Y0002840265D01*
X0000678417Y0002838390D01*
X0000674668Y0002838390D01*
X0000670918Y0002840265D01*
X0000669043Y0002842140D01*
X0000667169Y0002845889D01*
X0000665294Y0002853388D01*
X0000665294Y0002862762D01*
X0000667169Y0002870261D01*
X0000669043Y0002874011D01*
X0000670918Y0002875885D01*
X0000674668Y0002877760D01*
X0000704664Y0002838390D02*
X0000704664Y0002877760D01*
X0000727161Y0002838390D02*
X0000710288Y0002860887D01*
X0000727161Y0002877760D02*
X0000704664Y0002855263D01*
X0000533733Y0002705910D02*
X0000520610Y0002724657D01*
X0000511236Y0002705910D02*
X0000511236Y0002745280D01*
X0000526234Y0002745280D01*
X0000529984Y0002743405D01*
X0000531858Y0002741530D01*
X0000533733Y0002737781D01*
X0000533733Y0002732156D01*
X0000531858Y0002728407D01*
X0000529984Y0002726532D01*
X0000526234Y0002724657D01*
X0000511236Y0002724657D01*
X0000550606Y0002705910D02*
X0000550606Y0002745280D01*
X0000565604Y0002745280D01*
X0000569354Y0002743405D01*
X0000571228Y0002741530D01*
X0000573103Y0002737781D01*
X0000573103Y0002732156D01*
X0000571228Y0002728407D01*
X0000569354Y0002726532D01*
X0000565604Y0002724657D01*
X0000550606Y0002724657D01*
X0000588101Y0002741530D02*
X0000589976Y0002743405D01*
X0000593726Y0002745280D01*
X0000603099Y0002745280D01*
X0000606849Y0002743405D01*
X0000608724Y0002741530D01*
X0000610599Y0002737781D01*
X0000610599Y0002734031D01*
X0000608724Y0002728407D01*
X0000586227Y0002705910D01*
X0000610599Y0002705910D01*
X0000652796Y0002705910D02*
X0000630299Y0002705910D01*
X0000641547Y0002705910D02*
X0000641547Y0002745280D01*
X0000637798Y0002739655D01*
X0000634048Y0002735906D01*
X0000630299Y0002734031D01*
X0000677168Y0002745280D02*
X0000680917Y0002745280D01*
X0000684667Y0002743405D01*
X0000686542Y0002741530D01*
X0000688416Y0002737781D01*
X0000690291Y0002730282D01*
X0000690291Y0002720908D01*
X0000688416Y0002713409D01*
X0000686542Y0002709659D01*
X0000684667Y0002707784D01*
X0000680917Y0002705910D01*
X0000677168Y0002705910D01*
X0000673418Y0002707784D01*
X0000671543Y0002709659D01*
X0000669669Y0002713409D01*
X0000667794Y0002720908D01*
X0000667794Y0002730282D01*
X0000669669Y0002737781D01*
X0000671543Y0002741530D01*
X0000673418Y0002743405D01*
X0000677168Y0002745280D01*
X0000707164Y0002705910D02*
X0000707164Y0002745280D01*
X0000729661Y0002705910D02*
X0000712788Y0002728407D01*
X0000729661Y0002745280D02*
X0000707164Y0002722783D01*
X0000121253Y0002880890D02*
X0000108129Y0002899638D01*
X0000098756Y0002880890D02*
X0000098756Y0002920260D01*
X0000113754Y0002920260D01*
X0000117503Y0002918385D01*
X0000119378Y0002916511D01*
X0000121253Y0002912761D01*
X0000121253Y0002907137D01*
X0000119378Y0002903387D01*
X0000117503Y0002901512D01*
X0000113754Y0002899638D01*
X0000098756Y0002899638D01*
X0000138126Y0002880890D02*
X0000138126Y0002920260D01*
X0000153124Y0002920260D01*
X0000156873Y0002918385D01*
X0000158748Y0002916511D01*
X0000160623Y0002912761D01*
X0000160623Y0002907137D01*
X0000158748Y0002903387D01*
X0000156873Y0002901512D01*
X0000153124Y0002899638D01*
X0000138126Y0002899638D01*
X0000173746Y0002920260D02*
X0000198118Y0002920260D01*
X0000184995Y0002905262D01*
X0000190619Y0002905262D01*
X0000194369Y0002903387D01*
X0000196243Y0002901512D01*
X0000198118Y0002897763D01*
X0000198118Y0002888389D01*
X0000196243Y0002884640D01*
X0000194369Y0002882765D01*
X0000190619Y0002880890D01*
X0000179371Y0002880890D01*
X0000175621Y0002882765D01*
X0000173746Y0002884640D01*
X0000122815Y0002825890D02*
X0000100318Y0002825890D01*
X0000111567Y0002825890D02*
X0000111567Y0002865260D01*
X0000107817Y0002859636D01*
X0000104068Y0002855886D01*
X0000100318Y0002854011D01*
X0000147187Y0002865260D02*
X0000150937Y0002865260D01*
X0000154686Y0002863385D01*
X0000156561Y0002861511D01*
X0000158436Y0002857761D01*
X0000160311Y0002850262D01*
X0000160311Y0002840888D01*
X0000158436Y0002833389D01*
X0000156561Y0002829640D01*
X0000154686Y0002827765D01*
X0000150937Y0002825890D01*
X0000147187Y0002825890D01*
X0000143438Y0002827765D01*
X0000141563Y0002829640D01*
X0000139688Y0002833389D01*
X0000137814Y0002840888D01*
X0000137814Y0002850262D01*
X0000139688Y0002857761D01*
X0000141563Y0002861511D01*
X0000143438Y0002863385D01*
X0000147187Y0002865260D01*
X0000177184Y0002825890D02*
X0000177184Y0002865260D01*
X0000199681Y0002825890D02*
X0000182808Y0002848387D01*
X0000199681Y0002865260D02*
X0000177184Y0002842763D01*
X0000238753Y0002618410D02*
X0000225629Y0002637157D01*
X0000216256Y0002618410D02*
X0000216256Y0002657780D01*
X0000231254Y0002657780D01*
X0000235003Y0002655905D01*
X0000236878Y0002654030D01*
X0000238753Y0002650281D01*
X0000238753Y0002644656D01*
X0000236878Y0002640907D01*
X0000235003Y0002639032D01*
X0000231254Y0002637157D01*
X0000216256Y0002637157D01*
X0000255626Y0002618410D02*
X0000255626Y0002657780D01*
X0000270624Y0002657780D01*
X0000274373Y0002655905D01*
X0000276248Y0002654030D01*
X0000278123Y0002650281D01*
X0000278123Y0002644656D01*
X0000276248Y0002640907D01*
X0000274373Y0002639032D01*
X0000270624Y0002637157D01*
X0000255626Y0002637157D01*
X0000311869Y0002644656D02*
X0000311869Y0002618410D01*
X0000302495Y0002659655D02*
X0000293121Y0002631533D01*
X0000317493Y0002631533D01*
X0000362815Y0002620910D02*
X0000340318Y0002620910D01*
X0000351567Y0002620910D02*
X0000351567Y0002660280D01*
X0000347817Y0002654655D01*
X0000344068Y0002650906D01*
X0000340318Y0002649031D01*
X0000387187Y0002660280D02*
X0000390937Y0002660280D01*
X0000394686Y0002658405D01*
X0000396561Y0002656530D01*
X0000398436Y0002652781D01*
X0000400311Y0002645282D01*
X0000400311Y0002635908D01*
X0000398436Y0002628409D01*
X0000396561Y0002624659D01*
X0000394686Y0002622784D01*
X0000390937Y0002620910D01*
X0000387187Y0002620910D01*
X0000383438Y0002622784D01*
X0000381563Y0002624659D01*
X0000379688Y0002628409D01*
X0000377814Y0002635908D01*
X0000377814Y0002645282D01*
X0000379688Y0002652781D01*
X0000381563Y0002656530D01*
X0000383438Y0002658405D01*
X0000387187Y0002660280D01*
X0000417184Y0002620910D02*
X0000417184Y0002660280D01*
X0000439681Y0002620910D02*
X0000422808Y0002643407D01*
X0000439681Y0002660280D02*
X0000417184Y0002637783D01*
X0000729542Y0002472181D02*
X0000690172Y0002472181D01*
X0000690172Y0002487179D01*
X0000692047Y0002490928D01*
X0000693922Y0002492803D01*
X0000697671Y0002494678D01*
X0000703295Y0002494678D01*
X0000707045Y0002492803D01*
X0000708920Y0002490928D01*
X0000710794Y0002487179D01*
X0000710794Y0002472181D01*
X0000729542Y0002532173D02*
X0000729542Y0002509676D01*
X0000729542Y0002520925D02*
X0000690172Y0002520925D01*
X0000695796Y0002517175D01*
X0000699546Y0002513426D01*
X0000701421Y0002509676D01*
G04 next file*
G04 #@! TF.FileFunction,Legend,Top*
G04 Gerber Fmt 4.6, Leading zero omitted, Abs format (unit mm)*
G04 Created by KiCad (PCBNEW 4.0.4-stable) date 05/23/17 22:39:58*
G01G01*
G04 APERTURE LIST*
G04 APERTURE END LIST*
D29*
X0001001060Y0001077125D02*
X0001574463Y0001077125D01*
X0001574463Y0001077125D02*
X0001574463Y0000553820D01*
X0001574463Y0000553820D02*
X0001001060Y0000553820D01*
X0001001060Y0000553820D02*
X0001001060Y0001077125D01*
X0000954924Y0000986851D02*
X0000998575Y0000986851D01*
X0000998575Y0000986851D02*
X0000998575Y0000677327D01*
X0000998575Y0000677327D02*
X0000954924Y0000677327D01*
X0000954924Y0000677327D02*
X0000954924Y0000986851D01*
X0001577940Y0000986842D02*
X0001621591Y0000986842D01*
X0001621591Y0000986842D02*
X0001621591Y0000677318D01*
X0001621591Y0000677318D02*
X0001577940Y0000677318D01*
X0001577940Y0000677318D02*
X0001577940Y0000986842D01*
D30*
X0000946338Y0000412814D02*
X0000946338Y0000452185D01*
X0000999881Y0000452185D02*
X0000999881Y0000412814D01*
X0000946338Y0000262814D02*
X0000946338Y0000302185D01*
X0000999881Y0000302185D02*
X0000999881Y0000262814D01*
D31*
X0001397519Y0000504350D02*
X0001397519Y0000425610D01*
X0001397519Y0000425610D02*
X0001263661Y0000425610D01*
X0001263661Y0000425610D02*
X0001263661Y0000504350D01*
X0001263661Y0000504350D02*
X0001397519Y0000504350D01*
X0001397519Y0000361870D02*
X0001397519Y0000283129D01*
X0001397519Y0000283129D02*
X0001263661Y0000283129D01*
X0001263661Y0000283129D02*
X0001263661Y0000361870D01*
X0001263661Y0000361870D02*
X0001397519Y0000361870D01*
X0001240039Y0000504350D02*
X0001240039Y0000425610D01*
X0001240039Y0000425610D02*
X0001106181Y0000425610D01*
X0001106181Y0000425610D02*
X0001106181Y0000504350D01*
X0001106181Y0000504350D02*
X0001240039Y0000504350D01*
X0001240039Y0000361870D02*
X0001240039Y0000283129D01*
X0001240039Y0000283129D02*
X0001106181Y0000283129D01*
X0001106181Y0000283129D02*
X0001106181Y0000361870D01*
X0001106181Y0000361870D02*
X0001240039Y0000361870D01*
D30*
X0001473110Y0000212381D02*
X0000970748Y0000212381D01*
X0000970748Y0000212381D02*
X0000970748Y0000007657D01*
X0000970748Y0000007657D02*
X0001575472Y0000007657D01*
X0001575472Y0000007657D02*
X0001575472Y0000110019D01*
X0001575472Y0000110019D02*
X0001473110Y0000110019D01*
X0001473110Y0000110019D02*
X0001473110Y0000212381D01*
X0001523110Y0000212381D02*
X0001575472Y0000212381D01*
X0001575472Y0000212381D02*
X0001575472Y0000160019D01*
D31*
X0001284593Y0000779059D02*
X0001284593Y0000750938D01*
X0001282718Y0000745314D01*
X0001278968Y0000741564D01*
X0001273344Y0000739689D01*
X0001269595Y0000739689D01*
X0001323963Y0000739689D02*
X0001301466Y0000739689D01*
X0001312714Y0000739689D02*
X0001312714Y0000779059D01*
X0001308965Y0000773435D01*
X0001305215Y0000769685D01*
X0001301466Y0000767811D01*
X0000990920Y0000525938D02*
X0000972172Y0000512814D01*
X0000990920Y0000503441D02*
X0000951550Y0000503441D01*
X0000951550Y0000518439D01*
X0000953425Y0000522188D01*
X0000955299Y0000524063D01*
X0000959049Y0000525938D01*
X0000964673Y0000525938D01*
X0000968423Y0000524063D01*
X0000970298Y0000522188D01*
X0000972172Y0000518439D01*
X0000972172Y0000503441D01*
X0000990920Y0000563433D02*
X0000990920Y0000540936D01*
X0000990920Y0000552185D02*
X0000951550Y0000552185D01*
X0000957174Y0000548435D01*
X0000960924Y0000544685D01*
X0000962799Y0000540936D01*
X0000930299Y0000573756D02*
X0000928425Y0000575630D01*
X0000926550Y0000579380D01*
X0000926550Y0000588754D01*
X0000928425Y0000592503D01*
X0000930299Y0000594378D01*
X0000934049Y0000596253D01*
X0000937799Y0000596253D01*
X0000943423Y0000594378D01*
X0000965920Y0000571881D01*
X0000965920Y0000596253D01*
X0000930299Y0000611251D02*
X0000928425Y0000613126D01*
X0000926550Y0000616875D01*
X0000926550Y0000626249D01*
X0000928425Y0000629999D01*
X0000930299Y0000631873D01*
X0000934049Y0000633748D01*
X0000937799Y0000633748D01*
X0000943423Y0000631873D01*
X0000965920Y0000609376D01*
X0000965920Y0000633748D01*
X0000926550Y0000667494D02*
X0000926550Y0000659995D01*
X0000928425Y0000656245D01*
X0000930299Y0000654370D01*
X0000935924Y0000650621D01*
X0000943423Y0000648746D01*
X0000958421Y0000648746D01*
X0000962170Y0000650621D01*
X0000964045Y0000652496D01*
X0000965920Y0000656245D01*
X0000965920Y0000663744D01*
X0000964045Y0000667494D01*
X0000962170Y0000669369D01*
X0000958421Y0000671243D01*
X0000949047Y0000671243D01*
X0000945298Y0000669369D01*
X0000943423Y0000667494D01*
X0000941548Y0000663744D01*
X0000941548Y0000656245D01*
X0000943423Y0000652496D01*
X0000945298Y0000650621D01*
X0000949047Y0000648746D01*
X0000956548Y0000337189D02*
X0000943425Y0000355937D01*
X0000934051Y0000337189D02*
X0000934051Y0000376559D01*
X0000949049Y0000376559D01*
X0000952799Y0000374685D01*
X0000954673Y0000372810D01*
X0000956548Y0000369060D01*
X0000956548Y0000363436D01*
X0000954673Y0000359686D01*
X0000952799Y0000357812D01*
X0000949049Y0000355937D01*
X0000934051Y0000355937D01*
X0000971546Y0000372810D02*
X0000973421Y0000374685D01*
X0000977170Y0000376559D01*
X0000986544Y0000376559D01*
X0000990294Y0000374685D01*
X0000992169Y0000372810D01*
X0000994043Y0000369060D01*
X0000994043Y0000365311D01*
X0000992169Y0000359686D01*
X0000969671Y0000337189D01*
X0000994043Y0000337189D01*
X0001027173Y0000267503D02*
X0001053420Y0000267503D01*
X0001012175Y0000258129D02*
X0001040297Y0000248756D01*
X0001040297Y0000273128D01*
X0001014050Y0000284376D02*
X0001014050Y0000308748D01*
X0001029048Y0000295625D01*
X0001029048Y0000301249D01*
X0001030923Y0000304999D01*
X0001032798Y0000306873D01*
X0001036547Y0000308748D01*
X0001045921Y0000308748D01*
X0001049670Y0000306873D01*
X0001051545Y0000304999D01*
X0001053420Y0000301249D01*
X0001053420Y0000290000D01*
X0001051545Y0000286251D01*
X0001049670Y0000284376D01*
X0001017799Y0000323746D02*
X0001015925Y0000325621D01*
X0001014050Y0000329370D01*
X0001014050Y0000338744D01*
X0001015925Y0000342494D01*
X0001017799Y0000344369D01*
X0001021549Y0000346243D01*
X0001025299Y0000346243D01*
X0001030923Y0000344369D01*
X0001053420Y0000321871D01*
X0001053420Y0000346243D01*
X0001436843Y0000447170D02*
X0001423720Y0000465917D01*
X0001414346Y0000447170D02*
X0001414346Y0000486540D01*
X0001429344Y0000486540D01*
X0001433094Y0000484665D01*
X0001434969Y0000482790D01*
X0001436843Y0000479041D01*
X0001436843Y0000473416D01*
X0001434969Y0000469667D01*
X0001433094Y0000467792D01*
X0001429344Y0000465917D01*
X0001414346Y0000465917D01*
X0001453716Y0000447170D02*
X0001453716Y0000486540D01*
X0001468714Y0000486540D01*
X0001472464Y0000484665D01*
X0001474339Y0000482790D01*
X0001476213Y0000479041D01*
X0001476213Y0000473416D01*
X0001474339Y0000469667D01*
X0001472464Y0000467792D01*
X0001468714Y0000465917D01*
X0001453716Y0000465917D01*
X0001513709Y0000447170D02*
X0001491212Y0000447170D01*
X0001502460Y0000447170D02*
X0001502460Y0000486540D01*
X0001498711Y0000480915D01*
X0001494961Y0000477166D01*
X0001491212Y0000475291D01*
X0001553406Y0000447170D02*
X0001530909Y0000447170D01*
X0001542157Y0000447170D02*
X0001542157Y0000486540D01*
X0001538408Y0000480915D01*
X0001534658Y0000477166D01*
X0001530909Y0000475291D01*
X0001577778Y0000486540D02*
X0001581527Y0000486540D01*
X0001585277Y0000484665D01*
X0001587152Y0000482790D01*
X0001589027Y0000479041D01*
X0001590901Y0000471542D01*
X0001590901Y0000462168D01*
X0001589027Y0000454669D01*
X0001587152Y0000450919D01*
X0001585277Y0000449044D01*
X0001581527Y0000447170D01*
X0001577778Y0000447170D01*
X0001574028Y0000449044D01*
X0001572154Y0000450919D01*
X0001570279Y0000454669D01*
X0001568404Y0000462168D01*
X0001568404Y0000471542D01*
X0001570279Y0000479041D01*
X0001572154Y0000482790D01*
X0001574028Y0000484665D01*
X0001577778Y0000486540D01*
X0001607774Y0000447170D02*
X0001607774Y0000486540D01*
X0001630271Y0000447170D02*
X0001613398Y0000469667D01*
X0001630271Y0000486540D02*
X0001607774Y0000464042D01*
X0001436843Y0000314689D02*
X0001423720Y0000333437D01*
X0001414346Y0000314689D02*
X0001414346Y0000354059D01*
X0001429344Y0000354059D01*
X0001433094Y0000352185D01*
X0001434969Y0000350310D01*
X0001436843Y0000346560D01*
X0001436843Y0000340936D01*
X0001434969Y0000337186D01*
X0001433094Y0000335312D01*
X0001429344Y0000333437D01*
X0001414346Y0000333437D01*
X0001453716Y0000314689D02*
X0001453716Y0000354059D01*
X0001468714Y0000354059D01*
X0001472464Y0000352185D01*
X0001474339Y0000350310D01*
X0001476213Y0000346560D01*
X0001476213Y0000340936D01*
X0001474339Y0000337186D01*
X0001472464Y0000335312D01*
X0001468714Y0000333437D01*
X0001453716Y0000333437D01*
X0001491212Y0000350310D02*
X0001493086Y0000352185D01*
X0001496836Y0000354059D01*
X0001506210Y0000354059D01*
X0001509959Y0000352185D01*
X0001511834Y0000350310D01*
X0001513709Y0000346560D01*
X0001513709Y0000342811D01*
X0001511834Y0000337186D01*
X0001489337Y0000314689D01*
X0001513709Y0000314689D01*
X0001555906Y0000314689D02*
X0001533409Y0000314689D01*
X0001544657Y0000314689D02*
X0001544657Y0000354059D01*
X0001540908Y0000348435D01*
X0001537158Y0000344685D01*
X0001533409Y0000342811D01*
X0001580278Y0000354059D02*
X0001584027Y0000354059D01*
X0001587777Y0000352185D01*
X0001589652Y0000350310D01*
X0001591527Y0000346560D01*
X0001593401Y0000339061D01*
X0001593401Y0000329687D01*
X0001591527Y0000322188D01*
X0001589652Y0000318439D01*
X0001587777Y0000316564D01*
X0001584027Y0000314689D01*
X0001580278Y0000314689D01*
X0001576528Y0000316564D01*
X0001574654Y0000318439D01*
X0001572779Y0000322188D01*
X0001570904Y0000329687D01*
X0001570904Y0000339061D01*
X0001572779Y0000346560D01*
X0001574654Y0000350310D01*
X0001576528Y0000352185D01*
X0001580278Y0000354059D01*
X0001610274Y0000314689D02*
X0001610274Y0000354059D01*
X0001632771Y0000314689D02*
X0001615898Y0000337186D01*
X0001632771Y0000354059D02*
X0001610274Y0000331562D01*
X0001024363Y0000489670D02*
X0001011240Y0000508417D01*
X0001001866Y0000489670D02*
X0001001866Y0000529040D01*
X0001016864Y0000529040D01*
X0001020614Y0000527165D01*
X0001022488Y0000525290D01*
X0001024363Y0000521541D01*
X0001024363Y0000515916D01*
X0001022488Y0000512167D01*
X0001020614Y0000510292D01*
X0001016864Y0000508417D01*
X0001001866Y0000508417D01*
X0001041236Y0000489670D02*
X0001041236Y0000529040D01*
X0001056234Y0000529040D01*
X0001059984Y0000527165D01*
X0001061858Y0000525290D01*
X0001063733Y0000521541D01*
X0001063733Y0000515916D01*
X0001061858Y0000512167D01*
X0001059984Y0000510292D01*
X0001056234Y0000508417D01*
X0001041236Y0000508417D01*
X0001076856Y0000529040D02*
X0001101228Y0000529040D01*
X0001088105Y0000514042D01*
X0001093729Y0000514042D01*
X0001097479Y0000512167D01*
X0001099354Y0000510292D01*
X0001101228Y0000506542D01*
X0001101228Y0000497169D01*
X0001099354Y0000493419D01*
X0001097479Y0000491544D01*
X0001093729Y0000489670D01*
X0001082481Y0000489670D01*
X0001078731Y0000491544D01*
X0001076856Y0000493419D01*
X0001025926Y0000434670D02*
X0001003428Y0000434670D01*
X0001014677Y0000434670D02*
X0001014677Y0000474040D01*
X0001010927Y0000468415D01*
X0001007178Y0000464666D01*
X0001003428Y0000462791D01*
X0001050298Y0000474040D02*
X0001054047Y0000474040D01*
X0001057797Y0000472165D01*
X0001059671Y0000470290D01*
X0001061546Y0000466541D01*
X0001063421Y0000459042D01*
X0001063421Y0000449668D01*
X0001061546Y0000442169D01*
X0001059671Y0000438419D01*
X0001057797Y0000436544D01*
X0001054047Y0000434670D01*
X0001050298Y0000434670D01*
X0001046548Y0000436544D01*
X0001044673Y0000438419D01*
X0001042799Y0000442169D01*
X0001040924Y0000449668D01*
X0001040924Y0000459042D01*
X0001042799Y0000466541D01*
X0001044673Y0000470290D01*
X0001046548Y0000472165D01*
X0001050298Y0000474040D01*
X0001080294Y0000434670D02*
X0001080294Y0000474040D01*
X0001102791Y0000434670D02*
X0001085918Y0000457167D01*
X0001102791Y0000474040D02*
X0001080294Y0000451542D01*
X0001141863Y0000227189D02*
X0001128740Y0000245937D01*
X0001119366Y0000227189D02*
X0001119366Y0000266559D01*
X0001134364Y0000266559D01*
X0001138114Y0000264685D01*
X0001139988Y0000262810D01*
X0001141863Y0000259060D01*
X0001141863Y0000253436D01*
X0001139988Y0000249686D01*
X0001138114Y0000247812D01*
X0001134364Y0000245937D01*
X0001119366Y0000245937D01*
X0001158736Y0000227189D02*
X0001158736Y0000266559D01*
X0001173734Y0000266559D01*
X0001177484Y0000264685D01*
X0001179358Y0000262810D01*
X0001181233Y0000259060D01*
X0001181233Y0000253436D01*
X0001179358Y0000249686D01*
X0001177484Y0000247812D01*
X0001173734Y0000245937D01*
X0001158736Y0000245937D01*
X0001214979Y0000253436D02*
X0001214979Y0000227189D01*
X0001205605Y0000268434D02*
X0001196231Y0000240313D01*
X0001220603Y0000240313D01*
X0001265926Y0000229689D02*
X0001243428Y0000229689D01*
X0001254677Y0000229689D02*
X0001254677Y0000269059D01*
X0001250927Y0000263435D01*
X0001247178Y0000259685D01*
X0001243428Y0000257811D01*
X0001290298Y0000269059D02*
X0001294047Y0000269059D01*
X0001297797Y0000267185D01*
X0001299671Y0000265310D01*
X0001301546Y0000261560D01*
X0001303421Y0000254061D01*
X0001303421Y0000244687D01*
X0001301546Y0000237188D01*
X0001299671Y0000233439D01*
X0001297797Y0000231564D01*
X0001294047Y0000229689D01*
X0001290298Y0000229689D01*
X0001286548Y0000231564D01*
X0001284673Y0000233439D01*
X0001282799Y0000237188D01*
X0001280924Y0000244687D01*
X0001280924Y0000254061D01*
X0001282799Y0000261560D01*
X0001284673Y0000265310D01*
X0001286548Y0000267185D01*
X0001290298Y0000269059D01*
X0001320294Y0000229689D02*
X0001320294Y0000269059D01*
X0001342791Y0000229689D02*
X0001325918Y0000252186D01*
X0001342791Y0000269059D02*
X0001320294Y0000246562D01*
X0001632652Y0000080960D02*
X0001593282Y0000080960D01*
X0001593282Y0000095958D01*
X0001595157Y0000099708D01*
X0001597032Y0000101583D01*
X0001600781Y0000103458D01*
X0001606406Y0000103458D01*
X0001610155Y0000101583D01*
X0001612030Y0000099708D01*
X0001613905Y0000095958D01*
X0001613905Y0000080960D01*
X0001632652Y0000140953D02*
X0001632652Y0000118456D01*
X0001632652Y0000129704D02*
X0001593282Y0000129704D01*
X0001598907Y0000125955D01*
X0001602656Y0000122205D01*
X0001604531Y0000118456D01*
G04 next file*
G04 #@! TF.FileFunction,Legend,Top*
G04 Gerber Fmt 4.6, Leading zero omitted, Abs format (unit mm)*
G04 Created by KiCad (PCBNEW 4.0.4-stable) date 05/23/17 22:39:58*
G01G01*
G04 APERTURE LIST*
G04 APERTURE END LIST*
D32*
X0001904170Y0001077125D02*
X0002477573Y0001077125D01*
X0002477573Y0001077125D02*
X0002477573Y0000553820D01*
X0002477573Y0000553820D02*
X0001904170Y0000553820D01*
X0001904170Y0000553820D02*
X0001904170Y0001077125D01*
X0001858034Y0000986851D02*
X0001901685Y0000986851D01*
X0001901685Y0000986851D02*
X0001901685Y0000677327D01*
X0001901685Y0000677327D02*
X0001858034Y0000677327D01*
X0001858034Y0000677327D02*
X0001858034Y0000986851D01*
X0002481050Y0000986842D02*
X0002524701Y0000986842D01*
X0002524701Y0000986842D02*
X0002524701Y0000677318D01*
X0002524701Y0000677318D02*
X0002481050Y0000677318D01*
X0002481050Y0000677318D02*
X0002481050Y0000986842D01*
D33*
X0001849448Y0000412814D02*
X0001849448Y0000452185D01*
X0001902992Y0000452185D02*
X0001902992Y0000412814D01*
X0001849448Y0000262814D02*
X0001849448Y0000302185D01*
X0001902992Y0000302185D02*
X0001902992Y0000262814D01*
D34*
X0002300629Y0000504350D02*
X0002300629Y0000425610D01*
X0002300629Y0000425610D02*
X0002166771Y0000425610D01*
X0002166771Y0000425610D02*
X0002166771Y0000504350D01*
X0002166771Y0000504350D02*
X0002300629Y0000504350D01*
X0002300629Y0000361870D02*
X0002300629Y0000283129D01*
X0002300629Y0000283129D02*
X0002166771Y0000283129D01*
X0002166771Y0000283129D02*
X0002166771Y0000361870D01*
X0002166771Y0000361870D02*
X0002300629Y0000361870D01*
X0002143149Y0000504350D02*
X0002143149Y0000425610D01*
X0002143149Y0000425610D02*
X0002009291Y0000425610D01*
X0002009291Y0000425610D02*
X0002009291Y0000504350D01*
X0002009291Y0000504350D02*
X0002143149Y0000504350D01*
X0002143149Y0000361870D02*
X0002143149Y0000283129D01*
X0002143149Y0000283129D02*
X0002009291Y0000283129D01*
X0002009291Y0000283129D02*
X0002009291Y0000361870D01*
X0002009291Y0000361870D02*
X0002143149Y0000361870D01*
D33*
X0002376220Y0000212381D02*
X0001873858Y0000212381D01*
X0001873858Y0000212381D02*
X0001873858Y0000007657D01*
X0001873858Y0000007657D02*
X0002478582Y0000007657D01*
X0002478582Y0000007657D02*
X0002478582Y0000110019D01*
X0002478582Y0000110019D02*
X0002376220Y0000110019D01*
X0002376220Y0000110019D02*
X0002376220Y0000212381D01*
X0002426220Y0000212381D02*
X0002478582Y0000212381D01*
X0002478582Y0000212381D02*
X0002478582Y0000160019D01*
D34*
X0002187703Y0000779059D02*
X0002187703Y0000750938D01*
X0002185828Y0000745314D01*
X0002182079Y0000741564D01*
X0002176454Y0000739689D01*
X0002172705Y0000739689D01*
X0002227073Y0000739689D02*
X0002204576Y0000739689D01*
X0002215824Y0000739689D02*
X0002215824Y0000779059D01*
X0002212075Y0000773435D01*
X0002208325Y0000769685D01*
X0002204576Y0000767811D01*
X0001894030Y0000525938D02*
X0001875283Y0000512814D01*
X0001894030Y0000503441D02*
X0001854660Y0000503441D01*
X0001854660Y0000518439D01*
X0001856535Y0000522188D01*
X0001858410Y0000524063D01*
X0001862159Y0000525938D01*
X0001867784Y0000525938D01*
X0001871533Y0000524063D01*
X0001873408Y0000522188D01*
X0001875283Y0000518439D01*
X0001875283Y0000503441D01*
X0001894030Y0000563433D02*
X0001894030Y0000540936D01*
X0001894030Y0000552185D02*
X0001854660Y0000552185D01*
X0001860285Y0000548435D01*
X0001864034Y0000544685D01*
X0001865909Y0000540936D01*
X0001833410Y0000573756D02*
X0001831535Y0000575630D01*
X0001829660Y0000579380D01*
X0001829660Y0000588754D01*
X0001831535Y0000592503D01*
X0001833410Y0000594378D01*
X0001837159Y0000596253D01*
X0001840909Y0000596253D01*
X0001846533Y0000594378D01*
X0001869030Y0000571881D01*
X0001869030Y0000596253D01*
X0001833410Y0000611251D02*
X0001831535Y0000613126D01*
X0001829660Y0000616875D01*
X0001829660Y0000626249D01*
X0001831535Y0000629999D01*
X0001833410Y0000631873D01*
X0001837159Y0000633748D01*
X0001840909Y0000633748D01*
X0001846533Y0000631873D01*
X0001869030Y0000609376D01*
X0001869030Y0000633748D01*
X0001829660Y0000667494D02*
X0001829660Y0000659995D01*
X0001831535Y0000656245D01*
X0001833410Y0000654370D01*
X0001839034Y0000650621D01*
X0001846533Y0000648746D01*
X0001861531Y0000648746D01*
X0001865281Y0000650621D01*
X0001867156Y0000652496D01*
X0001869030Y0000656245D01*
X0001869030Y0000663744D01*
X0001867156Y0000667494D01*
X0001865281Y0000669369D01*
X0001861531Y0000671243D01*
X0001852157Y0000671243D01*
X0001848408Y0000669369D01*
X0001846533Y0000667494D01*
X0001844658Y0000663744D01*
X0001844658Y0000656245D01*
X0001846533Y0000652496D01*
X0001848408Y0000650621D01*
X0001852157Y0000648746D01*
X0001859658Y0000337189D02*
X0001846535Y0000355937D01*
X0001837161Y0000337189D02*
X0001837161Y0000376559D01*
X0001852159Y0000376559D01*
X0001855909Y0000374685D01*
X0001857784Y0000372810D01*
X0001859658Y0000369060D01*
X0001859658Y0000363436D01*
X0001857784Y0000359686D01*
X0001855909Y0000357812D01*
X0001852159Y0000355937D01*
X0001837161Y0000355937D01*
X0001874656Y0000372810D02*
X0001876531Y0000374685D01*
X0001880281Y0000376559D01*
X0001889655Y0000376559D01*
X0001893404Y0000374685D01*
X0001895279Y0000372810D01*
X0001897154Y0000369060D01*
X0001897154Y0000365311D01*
X0001895279Y0000359686D01*
X0001872782Y0000337189D01*
X0001897154Y0000337189D01*
X0001930284Y0000267503D02*
X0001956530Y0000267503D01*
X0001915285Y0000258129D02*
X0001943407Y0000248756D01*
X0001943407Y0000273128D01*
X0001917160Y0000284376D02*
X0001917160Y0000308748D01*
X0001932158Y0000295625D01*
X0001932158Y0000301249D01*
X0001934033Y0000304999D01*
X0001935908Y0000306873D01*
X0001939657Y0000308748D01*
X0001949031Y0000308748D01*
X0001952781Y0000306873D01*
X0001954656Y0000304999D01*
X0001956530Y0000301249D01*
X0001956530Y0000290000D01*
X0001954656Y0000286251D01*
X0001952781Y0000284376D01*
X0001920910Y0000323746D02*
X0001919035Y0000325621D01*
X0001917160Y0000329370D01*
X0001917160Y0000338744D01*
X0001919035Y0000342494D01*
X0001920910Y0000344369D01*
X0001924659Y0000346243D01*
X0001928409Y0000346243D01*
X0001934033Y0000344369D01*
X0001956530Y0000321871D01*
X0001956530Y0000346243D01*
X0002339954Y0000447170D02*
X0002326830Y0000465917D01*
X0002317456Y0000447170D02*
X0002317456Y0000486540D01*
X0002332455Y0000486540D01*
X0002336204Y0000484665D01*
X0002338079Y0000482790D01*
X0002339954Y0000479041D01*
X0002339954Y0000473416D01*
X0002338079Y0000469667D01*
X0002336204Y0000467792D01*
X0002332455Y0000465917D01*
X0002317456Y0000465917D01*
X0002356827Y0000447170D02*
X0002356827Y0000486540D01*
X0002371825Y0000486540D01*
X0002375574Y0000484665D01*
X0002377449Y0000482790D01*
X0002379324Y0000479041D01*
X0002379324Y0000473416D01*
X0002377449Y0000469667D01*
X0002375574Y0000467792D01*
X0002371825Y0000465917D01*
X0002356827Y0000465917D01*
X0002416819Y0000447170D02*
X0002394322Y0000447170D01*
X0002405570Y0000447170D02*
X0002405570Y0000486540D01*
X0002401821Y0000480915D01*
X0002398071Y0000477166D01*
X0002394322Y0000475291D01*
X0002456516Y0000447170D02*
X0002434019Y0000447170D01*
X0002445268Y0000447170D02*
X0002445268Y0000486540D01*
X0002441518Y0000480915D01*
X0002437769Y0000477166D01*
X0002434019Y0000475291D01*
X0002480888Y0000486540D02*
X0002484638Y0000486540D01*
X0002488387Y0000484665D01*
X0002490262Y0000482790D01*
X0002492137Y0000479041D01*
X0002494012Y0000471542D01*
X0002494012Y0000462168D01*
X0002492137Y0000454669D01*
X0002490262Y0000450919D01*
X0002488387Y0000449044D01*
X0002484638Y0000447170D01*
X0002480888Y0000447170D01*
X0002477139Y0000449044D01*
X0002475264Y0000450919D01*
X0002473389Y0000454669D01*
X0002471514Y0000462168D01*
X0002471514Y0000471542D01*
X0002473389Y0000479041D01*
X0002475264Y0000482790D01*
X0002477139Y0000484665D01*
X0002480888Y0000486540D01*
X0002510884Y0000447170D02*
X0002510884Y0000486540D01*
X0002533382Y0000447170D02*
X0002516509Y0000469667D01*
X0002533382Y0000486540D02*
X0002510884Y0000464042D01*
X0002339954Y0000314689D02*
X0002326830Y0000333437D01*
X0002317456Y0000314689D02*
X0002317456Y0000354059D01*
X0002332455Y0000354059D01*
X0002336204Y0000352185D01*
X0002338079Y0000350310D01*
X0002339954Y0000346560D01*
X0002339954Y0000340936D01*
X0002338079Y0000337186D01*
X0002336204Y0000335312D01*
X0002332455Y0000333437D01*
X0002317456Y0000333437D01*
X0002356827Y0000314689D02*
X0002356827Y0000354059D01*
X0002371825Y0000354059D01*
X0002375574Y0000352185D01*
X0002377449Y0000350310D01*
X0002379324Y0000346560D01*
X0002379324Y0000340936D01*
X0002377449Y0000337186D01*
X0002375574Y0000335312D01*
X0002371825Y0000333437D01*
X0002356827Y0000333437D01*
X0002394322Y0000350310D02*
X0002396197Y0000352185D01*
X0002399946Y0000354059D01*
X0002409320Y0000354059D01*
X0002413070Y0000352185D01*
X0002414944Y0000350310D01*
X0002416819Y0000346560D01*
X0002416819Y0000342811D01*
X0002414944Y0000337186D01*
X0002392447Y0000314689D01*
X0002416819Y0000314689D01*
X0002459016Y0000314689D02*
X0002436519Y0000314689D01*
X0002447768Y0000314689D02*
X0002447768Y0000354059D01*
X0002444018Y0000348435D01*
X0002440269Y0000344685D01*
X0002436519Y0000342811D01*
X0002483388Y0000354059D02*
X0002487138Y0000354059D01*
X0002490887Y0000352185D01*
X0002492762Y0000350310D01*
X0002494637Y0000346560D01*
X0002496512Y0000339061D01*
X0002496512Y0000329687D01*
X0002494637Y0000322188D01*
X0002492762Y0000318439D01*
X0002490887Y0000316564D01*
X0002487138Y0000314689D01*
X0002483388Y0000314689D01*
X0002479639Y0000316564D01*
X0002477764Y0000318439D01*
X0002475889Y0000322188D01*
X0002474014Y0000329687D01*
X0002474014Y0000339061D01*
X0002475889Y0000346560D01*
X0002477764Y0000350310D01*
X0002479639Y0000352185D01*
X0002483388Y0000354059D01*
X0002513384Y0000314689D02*
X0002513384Y0000354059D01*
X0002535882Y0000314689D02*
X0002519009Y0000337186D01*
X0002535882Y0000354059D02*
X0002513384Y0000331562D01*
X0001927473Y0000489670D02*
X0001914350Y0000508417D01*
X0001904976Y0000489670D02*
X0001904976Y0000529040D01*
X0001919974Y0000529040D01*
X0001923724Y0000527165D01*
X0001925599Y0000525290D01*
X0001927473Y0000521541D01*
X0001927473Y0000515916D01*
X0001925599Y0000512167D01*
X0001923724Y0000510292D01*
X0001919974Y0000508417D01*
X0001904976Y0000508417D01*
X0001944346Y0000489670D02*
X0001944346Y0000529040D01*
X0001959344Y0000529040D01*
X0001963094Y0000527165D01*
X0001964969Y0000525290D01*
X0001966843Y0000521541D01*
X0001966843Y0000515916D01*
X0001964969Y0000512167D01*
X0001963094Y0000510292D01*
X0001959344Y0000508417D01*
X0001944346Y0000508417D01*
X0001979967Y0000529040D02*
X0002004339Y0000529040D01*
X0001991215Y0000514042D01*
X0001996840Y0000514042D01*
X0002000589Y0000512167D01*
X0002002464Y0000510292D01*
X0002004339Y0000506542D01*
X0002004339Y0000497169D01*
X0002002464Y0000493419D01*
X0002000589Y0000491544D01*
X0001996840Y0000489670D01*
X0001985591Y0000489670D01*
X0001981842Y0000491544D01*
X0001979967Y0000493419D01*
X0001929036Y0000434670D02*
X0001906539Y0000434670D01*
X0001917787Y0000434670D02*
X0001917787Y0000474040D01*
X0001914038Y0000468415D01*
X0001910288Y0000464666D01*
X0001906539Y0000462791D01*
X0001953408Y0000474040D02*
X0001957157Y0000474040D01*
X0001960907Y0000472165D01*
X0001962782Y0000470290D01*
X0001964656Y0000466541D01*
X0001966531Y0000459042D01*
X0001966531Y0000449668D01*
X0001964656Y0000442169D01*
X0001962782Y0000438419D01*
X0001960907Y0000436544D01*
X0001957157Y0000434670D01*
X0001953408Y0000434670D01*
X0001949658Y0000436544D01*
X0001947784Y0000438419D01*
X0001945909Y0000442169D01*
X0001944034Y0000449668D01*
X0001944034Y0000459042D01*
X0001945909Y0000466541D01*
X0001947784Y0000470290D01*
X0001949658Y0000472165D01*
X0001953408Y0000474040D01*
X0001983404Y0000434670D02*
X0001983404Y0000474040D01*
X0002005901Y0000434670D02*
X0001989028Y0000457167D01*
X0002005901Y0000474040D02*
X0001983404Y0000451542D01*
X0002044973Y0000227189D02*
X0002031850Y0000245937D01*
X0002022476Y0000227189D02*
X0002022476Y0000266559D01*
X0002037474Y0000266559D01*
X0002041224Y0000264685D01*
X0002043099Y0000262810D01*
X0002044973Y0000259060D01*
X0002044973Y0000253436D01*
X0002043099Y0000249686D01*
X0002041224Y0000247812D01*
X0002037474Y0000245937D01*
X0002022476Y0000245937D01*
X0002061846Y0000227189D02*
X0002061846Y0000266559D01*
X0002076844Y0000266559D01*
X0002080594Y0000264685D01*
X0002082469Y0000262810D01*
X0002084343Y0000259060D01*
X0002084343Y0000253436D01*
X0002082469Y0000249686D01*
X0002080594Y0000247812D01*
X0002076844Y0000245937D01*
X0002061846Y0000245937D01*
X0002118089Y0000253436D02*
X0002118089Y0000227189D01*
X0002108715Y0000268434D02*
X0002099342Y0000240313D01*
X0002123713Y0000240313D01*
X0002169036Y0000229689D02*
X0002146539Y0000229689D01*
X0002157787Y0000229689D02*
X0002157787Y0000269059D01*
X0002154038Y0000263435D01*
X0002150288Y0000259685D01*
X0002146539Y0000257811D01*
X0002193408Y0000269059D02*
X0002197157Y0000269059D01*
X0002200907Y0000267185D01*
X0002202782Y0000265310D01*
X0002204656Y0000261560D01*
X0002206531Y0000254061D01*
X0002206531Y0000244687D01*
X0002204656Y0000237188D01*
X0002202782Y0000233439D01*
X0002200907Y0000231564D01*
X0002197157Y0000229689D01*
X0002193408Y0000229689D01*
X0002189658Y0000231564D01*
X0002187784Y0000233439D01*
X0002185909Y0000237188D01*
X0002184034Y0000244687D01*
X0002184034Y0000254061D01*
X0002185909Y0000261560D01*
X0002187784Y0000265310D01*
X0002189658Y0000267185D01*
X0002193408Y0000269059D01*
X0002223404Y0000229689D02*
X0002223404Y0000269059D01*
X0002245901Y0000229689D02*
X0002229028Y0000252186D01*
X0002245901Y0000269059D02*
X0002223404Y0000246562D01*
X0002535763Y0000080960D02*
X0002496392Y0000080960D01*
X0002496392Y0000095958D01*
X0002498267Y0000099708D01*
X0002500142Y0000101583D01*
X0002503892Y0000103458D01*
X0002509516Y0000103458D01*
X0002513265Y0000101583D01*
X0002515140Y0000099708D01*
X0002517015Y0000095958D01*
X0002517015Y0000080960D01*
X0002535763Y0000140953D02*
X0002535763Y0000118456D01*
X0002535763Y0000129704D02*
X0002496392Y0000129704D01*
X0002502017Y0000125955D01*
X0002505766Y0000122205D01*
X0002507641Y0000118456D01*
G04 next file*
G04 #@! TF.FileFunction,Legend,Top*
G04 Gerber Fmt 4.6, Leading zero omitted, Abs format (unit mm)*
G04 Created by KiCad (PCBNEW 4.0.4-stable) date 05/23/17 22:39:58*
G01G01*
G04 APERTURE LIST*
G04 APERTURE END LIST*
D35*
X0002807280Y0001077125D02*
X0003380684Y0001077125D01*
X0003380684Y0001077125D02*
X0003380684Y0000553820D01*
X0003380684Y0000553820D02*
X0002807280Y0000553820D01*
X0002807280Y0000553820D02*
X0002807280Y0001077125D01*
X0002761145Y0000986851D02*
X0002804795Y0000986851D01*
X0002804795Y0000986851D02*
X0002804795Y0000677327D01*
X0002804795Y0000677327D02*
X0002761145Y0000677327D01*
X0002761145Y0000677327D02*
X0002761145Y0000986851D01*
X0003384160Y0000986842D02*
X0003427811Y0000986842D01*
X0003427811Y0000986842D02*
X0003427811Y0000677318D01*
X0003427811Y0000677318D02*
X0003384160Y0000677318D01*
X0003384160Y0000677318D02*
X0003384160Y0000986842D01*
D36*
X0002752559Y0000412814D02*
X0002752559Y0000452185D01*
X0002806102Y0000452185D02*
X0002806102Y0000412814D01*
X0002752559Y0000262814D02*
X0002752559Y0000302185D01*
X0002806102Y0000302185D02*
X0002806102Y0000262814D01*
D37*
X0003203740Y0000504350D02*
X0003203740Y0000425610D01*
X0003203740Y0000425610D02*
X0003069881Y0000425610D01*
X0003069881Y0000425610D02*
X0003069881Y0000504350D01*
X0003069881Y0000504350D02*
X0003203740Y0000504350D01*
X0003203740Y0000361870D02*
X0003203740Y0000283129D01*
X0003203740Y0000283129D02*
X0003069881Y0000283129D01*
X0003069881Y0000283129D02*
X0003069881Y0000361870D01*
X0003069881Y0000361870D02*
X0003203740Y0000361870D01*
X0003046259Y0000504350D02*
X0003046259Y0000425610D01*
X0003046259Y0000425610D02*
X0002912401Y0000425610D01*
X0002912401Y0000425610D02*
X0002912401Y0000504350D01*
X0002912401Y0000504350D02*
X0003046259Y0000504350D01*
X0003046259Y0000361870D02*
X0003046259Y0000283129D01*
X0003046259Y0000283129D02*
X0002912401Y0000283129D01*
X0002912401Y0000283129D02*
X0002912401Y0000361870D01*
X0002912401Y0000361870D02*
X0003046259Y0000361870D01*
D36*
X0003279330Y0000212381D02*
X0002776968Y0000212381D01*
X0002776968Y0000212381D02*
X0002776968Y0000007657D01*
X0002776968Y0000007657D02*
X0003381692Y0000007657D01*
X0003381692Y0000007657D02*
X0003381692Y0000110019D01*
X0003381692Y0000110019D02*
X0003279330Y0000110019D01*
X0003279330Y0000110019D02*
X0003279330Y0000212381D01*
X0003329330Y0000212381D02*
X0003381692Y0000212381D01*
X0003381692Y0000212381D02*
X0003381692Y0000160019D01*
D37*
X0003090813Y0000779059D02*
X0003090813Y0000750938D01*
X0003088938Y0000745314D01*
X0003085189Y0000741564D01*
X0003079565Y0000739689D01*
X0003075815Y0000739689D01*
X0003130183Y0000739689D02*
X0003107686Y0000739689D01*
X0003118935Y0000739689D02*
X0003118935Y0000779059D01*
X0003115185Y0000773435D01*
X0003111436Y0000769685D01*
X0003107686Y0000767811D01*
X0002797140Y0000525938D02*
X0002778393Y0000512814D01*
X0002797140Y0000503441D02*
X0002757770Y0000503441D01*
X0002757770Y0000518439D01*
X0002759645Y0000522188D01*
X0002761520Y0000524063D01*
X0002765269Y0000525938D01*
X0002770894Y0000525938D01*
X0002774643Y0000524063D01*
X0002776518Y0000522188D01*
X0002778393Y0000518439D01*
X0002778393Y0000503441D01*
X0002797140Y0000563433D02*
X0002797140Y0000540936D01*
X0002797140Y0000552185D02*
X0002757770Y0000552185D01*
X0002763395Y0000548435D01*
X0002767144Y0000544685D01*
X0002769019Y0000540936D01*
X0002736520Y0000573756D02*
X0002734645Y0000575630D01*
X0002732770Y0000579380D01*
X0002732770Y0000588754D01*
X0002734645Y0000592503D01*
X0002736520Y0000594378D01*
X0002740269Y0000596253D01*
X0002744019Y0000596253D01*
X0002749643Y0000594378D01*
X0002772140Y0000571881D01*
X0002772140Y0000596253D01*
X0002736520Y0000611251D02*
X0002734645Y0000613126D01*
X0002732770Y0000616875D01*
X0002732770Y0000626249D01*
X0002734645Y0000629999D01*
X0002736520Y0000631873D01*
X0002740269Y0000633748D01*
X0002744019Y0000633748D01*
X0002749643Y0000631873D01*
X0002772140Y0000609376D01*
X0002772140Y0000633748D01*
X0002732770Y0000667494D02*
X0002732770Y0000659995D01*
X0002734645Y0000656245D01*
X0002736520Y0000654370D01*
X0002742144Y0000650621D01*
X0002749643Y0000648746D01*
X0002764641Y0000648746D01*
X0002768391Y0000650621D01*
X0002770266Y0000652496D01*
X0002772140Y0000656245D01*
X0002772140Y0000663744D01*
X0002770266Y0000667494D01*
X0002768391Y0000669369D01*
X0002764641Y0000671243D01*
X0002755268Y0000671243D01*
X0002751518Y0000669369D01*
X0002749643Y0000667494D01*
X0002747769Y0000663744D01*
X0002747769Y0000656245D01*
X0002749643Y0000652496D01*
X0002751518Y0000650621D01*
X0002755268Y0000648746D01*
X0002762769Y0000337189D02*
X0002749645Y0000355937D01*
X0002740271Y0000337189D02*
X0002740271Y0000376559D01*
X0002755270Y0000376559D01*
X0002759019Y0000374685D01*
X0002760894Y0000372810D01*
X0002762769Y0000369060D01*
X0002762769Y0000363436D01*
X0002760894Y0000359686D01*
X0002759019Y0000357812D01*
X0002755270Y0000355937D01*
X0002740271Y0000355937D01*
X0002777767Y0000372810D02*
X0002779641Y0000374685D01*
X0002783391Y0000376559D01*
X0002792765Y0000376559D01*
X0002796514Y0000374685D01*
X0002798389Y0000372810D01*
X0002800264Y0000369060D01*
X0002800264Y0000365311D01*
X0002798389Y0000359686D01*
X0002775892Y0000337189D01*
X0002800264Y0000337189D01*
X0002833394Y0000267503D02*
X0002859640Y0000267503D01*
X0002818396Y0000258129D02*
X0002846517Y0000248756D01*
X0002846517Y0000273128D01*
X0002820270Y0000284376D02*
X0002820270Y0000308748D01*
X0002835269Y0000295625D01*
X0002835269Y0000301249D01*
X0002837143Y0000304999D01*
X0002839018Y0000306873D01*
X0002842768Y0000308748D01*
X0002852141Y0000308748D01*
X0002855891Y0000306873D01*
X0002857766Y0000304999D01*
X0002859640Y0000301249D01*
X0002859640Y0000290000D01*
X0002857766Y0000286251D01*
X0002855891Y0000284376D01*
X0002824020Y0000323746D02*
X0002822145Y0000325621D01*
X0002820270Y0000329370D01*
X0002820270Y0000338744D01*
X0002822145Y0000342494D01*
X0002824020Y0000344369D01*
X0002827769Y0000346243D01*
X0002831519Y0000346243D01*
X0002837143Y0000344369D01*
X0002859640Y0000321871D01*
X0002859640Y0000346243D01*
X0003243064Y0000447170D02*
X0003229940Y0000465917D01*
X0003220567Y0000447170D02*
X0003220567Y0000486540D01*
X0003235565Y0000486540D01*
X0003239314Y0000484665D01*
X0003241189Y0000482790D01*
X0003243064Y0000479041D01*
X0003243064Y0000473416D01*
X0003241189Y0000469667D01*
X0003239314Y0000467792D01*
X0003235565Y0000465917D01*
X0003220567Y0000465917D01*
X0003259937Y0000447170D02*
X0003259937Y0000486540D01*
X0003274935Y0000486540D01*
X0003278684Y0000484665D01*
X0003280559Y0000482790D01*
X0003282434Y0000479041D01*
X0003282434Y0000473416D01*
X0003280559Y0000469667D01*
X0003278684Y0000467792D01*
X0003274935Y0000465917D01*
X0003259937Y0000465917D01*
X0003319929Y0000447170D02*
X0003297432Y0000447170D01*
X0003308681Y0000447170D02*
X0003308681Y0000486540D01*
X0003304931Y0000480915D01*
X0003301182Y0000477166D01*
X0003297432Y0000475291D01*
X0003359626Y0000447170D02*
X0003337129Y0000447170D01*
X0003348378Y0000447170D02*
X0003348378Y0000486540D01*
X0003344628Y0000480915D01*
X0003340879Y0000477166D01*
X0003337129Y0000475291D01*
X0003383998Y0000486540D02*
X0003387748Y0000486540D01*
X0003391497Y0000484665D01*
X0003393372Y0000482790D01*
X0003395247Y0000479041D01*
X0003397122Y0000471542D01*
X0003397122Y0000462168D01*
X0003395247Y0000454669D01*
X0003393372Y0000450919D01*
X0003391497Y0000449044D01*
X0003387748Y0000447170D01*
X0003383998Y0000447170D01*
X0003380249Y0000449044D01*
X0003378374Y0000450919D01*
X0003376499Y0000454669D01*
X0003374625Y0000462168D01*
X0003374625Y0000471542D01*
X0003376499Y0000479041D01*
X0003378374Y0000482790D01*
X0003380249Y0000484665D01*
X0003383998Y0000486540D01*
X0003413995Y0000447170D02*
X0003413995Y0000486540D01*
X0003436492Y0000447170D02*
X0003419619Y0000469667D01*
X0003436492Y0000486540D02*
X0003413995Y0000464042D01*
X0003243064Y0000314689D02*
X0003229940Y0000333437D01*
X0003220567Y0000314689D02*
X0003220567Y0000354059D01*
X0003235565Y0000354059D01*
X0003239314Y0000352185D01*
X0003241189Y0000350310D01*
X0003243064Y0000346560D01*
X0003243064Y0000340936D01*
X0003241189Y0000337186D01*
X0003239314Y0000335312D01*
X0003235565Y0000333437D01*
X0003220567Y0000333437D01*
X0003259937Y0000314689D02*
X0003259937Y0000354059D01*
X0003274935Y0000354059D01*
X0003278684Y0000352185D01*
X0003280559Y0000350310D01*
X0003282434Y0000346560D01*
X0003282434Y0000340936D01*
X0003280559Y0000337186D01*
X0003278684Y0000335312D01*
X0003274935Y0000333437D01*
X0003259937Y0000333437D01*
X0003297432Y0000350310D02*
X0003299307Y0000352185D01*
X0003303056Y0000354059D01*
X0003312430Y0000354059D01*
X0003316180Y0000352185D01*
X0003318054Y0000350310D01*
X0003319929Y0000346560D01*
X0003319929Y0000342811D01*
X0003318054Y0000337186D01*
X0003295557Y0000314689D01*
X0003319929Y0000314689D01*
X0003362126Y0000314689D02*
X0003339629Y0000314689D01*
X0003350878Y0000314689D02*
X0003350878Y0000354059D01*
X0003347128Y0000348435D01*
X0003343379Y0000344685D01*
X0003339629Y0000342811D01*
X0003386498Y0000354059D02*
X0003390248Y0000354059D01*
X0003393997Y0000352185D01*
X0003395872Y0000350310D01*
X0003397747Y0000346560D01*
X0003399622Y0000339061D01*
X0003399622Y0000329687D01*
X0003397747Y0000322188D01*
X0003395872Y0000318439D01*
X0003393997Y0000316564D01*
X0003390248Y0000314689D01*
X0003386498Y0000314689D01*
X0003382749Y0000316564D01*
X0003380874Y0000318439D01*
X0003378999Y0000322188D01*
X0003377125Y0000329687D01*
X0003377125Y0000339061D01*
X0003378999Y0000346560D01*
X0003380874Y0000350310D01*
X0003382749Y0000352185D01*
X0003386498Y0000354059D01*
X0003416495Y0000314689D02*
X0003416495Y0000354059D01*
X0003438992Y0000314689D02*
X0003422119Y0000337186D01*
X0003438992Y0000354059D02*
X0003416495Y0000331562D01*
X0002830584Y0000489670D02*
X0002817460Y0000508417D01*
X0002808086Y0000489670D02*
X0002808086Y0000529040D01*
X0002823084Y0000529040D01*
X0002826834Y0000527165D01*
X0002828709Y0000525290D01*
X0002830584Y0000521541D01*
X0002830584Y0000515916D01*
X0002828709Y0000512167D01*
X0002826834Y0000510292D01*
X0002823084Y0000508417D01*
X0002808086Y0000508417D01*
X0002847456Y0000489670D02*
X0002847456Y0000529040D01*
X0002862455Y0000529040D01*
X0002866204Y0000527165D01*
X0002868079Y0000525290D01*
X0002869954Y0000521541D01*
X0002869954Y0000515916D01*
X0002868079Y0000512167D01*
X0002866204Y0000510292D01*
X0002862455Y0000508417D01*
X0002847456Y0000508417D01*
X0002883077Y0000529040D02*
X0002907449Y0000529040D01*
X0002894326Y0000514042D01*
X0002899950Y0000514042D01*
X0002903699Y0000512167D01*
X0002905574Y0000510292D01*
X0002907449Y0000506542D01*
X0002907449Y0000497169D01*
X0002905574Y0000493419D01*
X0002903699Y0000491544D01*
X0002899950Y0000489670D01*
X0002888701Y0000489670D01*
X0002884952Y0000491544D01*
X0002883077Y0000493419D01*
X0002832146Y0000434670D02*
X0002809649Y0000434670D01*
X0002820897Y0000434670D02*
X0002820897Y0000474040D01*
X0002817148Y0000468415D01*
X0002813398Y0000464666D01*
X0002809649Y0000462791D01*
X0002856518Y0000474040D02*
X0002860268Y0000474040D01*
X0002864017Y0000472165D01*
X0002865892Y0000470290D01*
X0002867767Y0000466541D01*
X0002869641Y0000459042D01*
X0002869641Y0000449668D01*
X0002867767Y0000442169D01*
X0002865892Y0000438419D01*
X0002864017Y0000436544D01*
X0002860268Y0000434670D01*
X0002856518Y0000434670D01*
X0002852769Y0000436544D01*
X0002850894Y0000438419D01*
X0002849019Y0000442169D01*
X0002847144Y0000449668D01*
X0002847144Y0000459042D01*
X0002849019Y0000466541D01*
X0002850894Y0000470290D01*
X0002852769Y0000472165D01*
X0002856518Y0000474040D01*
X0002886514Y0000434670D02*
X0002886514Y0000474040D01*
X0002909012Y0000434670D02*
X0002892139Y0000457167D01*
X0002909012Y0000474040D02*
X0002886514Y0000451542D01*
X0002948084Y0000227189D02*
X0002934960Y0000245937D01*
X0002925586Y0000227189D02*
X0002925586Y0000266559D01*
X0002940584Y0000266559D01*
X0002944334Y0000264685D01*
X0002946209Y0000262810D01*
X0002948084Y0000259060D01*
X0002948084Y0000253436D01*
X0002946209Y0000249686D01*
X0002944334Y0000247812D01*
X0002940584Y0000245937D01*
X0002925586Y0000245937D01*
X0002964956Y0000227189D02*
X0002964956Y0000266559D01*
X0002979955Y0000266559D01*
X0002983704Y0000264685D01*
X0002985579Y0000262810D01*
X0002987454Y0000259060D01*
X0002987454Y0000253436D01*
X0002985579Y0000249686D01*
X0002983704Y0000247812D01*
X0002979955Y0000245937D01*
X0002964956Y0000245937D01*
X0003021199Y0000253436D02*
X0003021199Y0000227189D01*
X0003011826Y0000268434D02*
X0003002452Y0000240313D01*
X0003026824Y0000240313D01*
X0003072146Y0000229689D02*
X0003049649Y0000229689D01*
X0003060897Y0000229689D02*
X0003060897Y0000269059D01*
X0003057148Y0000263435D01*
X0003053398Y0000259685D01*
X0003049649Y0000257811D01*
X0003096518Y0000269059D02*
X0003100268Y0000269059D01*
X0003104017Y0000267185D01*
X0003105892Y0000265310D01*
X0003107767Y0000261560D01*
X0003109641Y0000254061D01*
X0003109641Y0000244687D01*
X0003107767Y0000237188D01*
X0003105892Y0000233439D01*
X0003104017Y0000231564D01*
X0003100268Y0000229689D01*
X0003096518Y0000229689D01*
X0003092769Y0000231564D01*
X0003090894Y0000233439D01*
X0003089019Y0000237188D01*
X0003087144Y0000244687D01*
X0003087144Y0000254061D01*
X0003089019Y0000261560D01*
X0003090894Y0000265310D01*
X0003092769Y0000267185D01*
X0003096518Y0000269059D01*
X0003126514Y0000229689D02*
X0003126514Y0000269059D01*
X0003149012Y0000229689D02*
X0003132139Y0000252186D01*
X0003149012Y0000269059D02*
X0003126514Y0000246562D01*
X0003438873Y0000080960D02*
X0003399503Y0000080960D01*
X0003399503Y0000095958D01*
X0003401377Y0000099708D01*
X0003403252Y0000101583D01*
X0003407002Y0000103458D01*
X0003412626Y0000103458D01*
X0003416376Y0000101583D01*
X0003418250Y0000099708D01*
X0003420125Y0000095958D01*
X0003420125Y0000080960D01*
X0003438873Y0000140953D02*
X0003438873Y0000118456D01*
X0003438873Y0000129704D02*
X0003399503Y0000129704D01*
X0003405127Y0000125955D01*
X0003408877Y0000122205D01*
X0003410751Y0000118456D01*
G04 next file*
G04 #@! TF.FileFunction,Legend,Top*
G04 Gerber Fmt 4.6, Leading zero omitted, Abs format (unit mm)*
G04 Created by KiCad (PCBNEW 4.0.4-stable) date 05/23/17 22:39:58*
G01G01*
G04 APERTURE LIST*
G04 APERTURE END LIST*
D38*
X0001001060Y0002272735D02*
X0001574463Y0002272735D01*
X0001574463Y0002272735D02*
X0001574463Y0001749431D01*
X0001574463Y0001749431D02*
X0001001060Y0001749431D01*
X0001001060Y0001749431D02*
X0001001060Y0002272735D01*
X0000954924Y0002182461D02*
X0000998575Y0002182461D01*
X0000998575Y0002182461D02*
X0000998575Y0001872937D01*
X0000998575Y0001872937D02*
X0000954924Y0001872937D01*
X0000954924Y0001872937D02*
X0000954924Y0002182461D01*
X0001577940Y0002182452D02*
X0001621591Y0002182452D01*
X0001621591Y0002182452D02*
X0001621591Y0001872928D01*
X0001621591Y0001872928D02*
X0001577940Y0001872928D01*
X0001577940Y0001872928D02*
X0001577940Y0002182452D01*
D39*
X0000946338Y0001608425D02*
X0000946338Y0001647795D01*
X0000999881Y0001647795D02*
X0000999881Y0001608425D01*
X0000946338Y0001458425D02*
X0000946338Y0001497795D01*
X0000999881Y0001497795D02*
X0000999881Y0001458425D01*
D40*
X0001397519Y0001699960D02*
X0001397519Y0001621220D01*
X0001397519Y0001621220D02*
X0001263661Y0001621220D01*
X0001263661Y0001621220D02*
X0001263661Y0001699960D01*
X0001263661Y0001699960D02*
X0001397519Y0001699960D01*
X0001397519Y0001557480D02*
X0001397519Y0001478740D01*
X0001397519Y0001478740D02*
X0001263661Y0001478740D01*
X0001263661Y0001478740D02*
X0001263661Y0001557480D01*
X0001263661Y0001557480D02*
X0001397519Y0001557480D01*
X0001240039Y0001699960D02*
X0001240039Y0001621220D01*
X0001240039Y0001621220D02*
X0001106181Y0001621220D01*
X0001106181Y0001621220D02*
X0001106181Y0001699960D01*
X0001106181Y0001699960D02*
X0001240039Y0001699960D01*
X0001240039Y0001557480D02*
X0001240039Y0001478740D01*
X0001240039Y0001478740D02*
X0001106181Y0001478740D01*
X0001106181Y0001478740D02*
X0001106181Y0001557480D01*
X0001106181Y0001557480D02*
X0001240039Y0001557480D01*
D39*
X0001473110Y0001407992D02*
X0000970748Y0001407992D01*
X0000970748Y0001407992D02*
X0000970748Y0001203267D01*
X0000970748Y0001203267D02*
X0001575472Y0001203267D01*
X0001575472Y0001203267D02*
X0001575472Y0001305629D01*
X0001575472Y0001305629D02*
X0001473110Y0001305629D01*
X0001473110Y0001305629D02*
X0001473110Y0001407992D01*
X0001523110Y0001407992D02*
X0001575472Y0001407992D01*
X0001575472Y0001407992D02*
X0001575472Y0001355629D01*
D40*
X0001284593Y0001974670D02*
X0001284593Y0001946548D01*
X0001282718Y0001940924D01*
X0001278968Y0001937174D01*
X0001273344Y0001935299D01*
X0001269595Y0001935299D01*
X0001323963Y0001935299D02*
X0001301466Y0001935299D01*
X0001312714Y0001935299D02*
X0001312714Y0001974670D01*
X0001308965Y0001969045D01*
X0001305215Y0001965296D01*
X0001301466Y0001963421D01*
X0000990920Y0001721548D02*
X0000972172Y0001708425D01*
X0000990920Y0001699051D02*
X0000951550Y0001699051D01*
X0000951550Y0001714049D01*
X0000953425Y0001717799D01*
X0000955299Y0001719673D01*
X0000959049Y0001721548D01*
X0000964673Y0001721548D01*
X0000968423Y0001719673D01*
X0000970298Y0001717799D01*
X0000972172Y0001714049D01*
X0000972172Y0001699051D01*
X0000990920Y0001759043D02*
X0000990920Y0001736546D01*
X0000990920Y0001747795D02*
X0000951550Y0001747795D01*
X0000957174Y0001744045D01*
X0000960924Y0001740296D01*
X0000962799Y0001736546D01*
X0000930299Y0001769366D02*
X0000928425Y0001771241D01*
X0000926550Y0001774990D01*
X0000926550Y0001784364D01*
X0000928425Y0001788113D01*
X0000930299Y0001789988D01*
X0000934049Y0001791863D01*
X0000937799Y0001791863D01*
X0000943423Y0001789988D01*
X0000965920Y0001767491D01*
X0000965920Y0001791863D01*
X0000930299Y0001806861D02*
X0000928425Y0001808736D01*
X0000926550Y0001812485D01*
X0000926550Y0001821859D01*
X0000928425Y0001825609D01*
X0000930299Y0001827484D01*
X0000934049Y0001829358D01*
X0000937799Y0001829358D01*
X0000943423Y0001827484D01*
X0000965920Y0001804986D01*
X0000965920Y0001829358D01*
X0000926550Y0001863104D02*
X0000926550Y0001855605D01*
X0000928425Y0001851855D01*
X0000930299Y0001849981D01*
X0000935924Y0001846231D01*
X0000943423Y0001844356D01*
X0000958421Y0001844356D01*
X0000962170Y0001846231D01*
X0000964045Y0001848106D01*
X0000965920Y0001851855D01*
X0000965920Y0001859355D01*
X0000964045Y0001863104D01*
X0000962170Y0001864979D01*
X0000958421Y0001866854D01*
X0000949047Y0001866854D01*
X0000945298Y0001864979D01*
X0000943423Y0001863104D01*
X0000941548Y0001859355D01*
X0000941548Y0001851855D01*
X0000943423Y0001848106D01*
X0000945298Y0001846231D01*
X0000949047Y0001844356D01*
X0000956548Y0001532799D02*
X0000943425Y0001551547D01*
X0000934051Y0001532799D02*
X0000934051Y0001572170D01*
X0000949049Y0001572170D01*
X0000952799Y0001570295D01*
X0000954673Y0001568420D01*
X0000956548Y0001564670D01*
X0000956548Y0001559046D01*
X0000954673Y0001555297D01*
X0000952799Y0001553422D01*
X0000949049Y0001551547D01*
X0000934051Y0001551547D01*
X0000971546Y0001568420D02*
X0000973421Y0001570295D01*
X0000977170Y0001572170D01*
X0000986544Y0001572170D01*
X0000990294Y0001570295D01*
X0000992169Y0001568420D01*
X0000994043Y0001564670D01*
X0000994043Y0001560921D01*
X0000992169Y0001555297D01*
X0000969671Y0001532799D01*
X0000994043Y0001532799D01*
X0001027173Y0001463113D02*
X0001053420Y0001463113D01*
X0001012175Y0001453740D02*
X0001040297Y0001444366D01*
X0001040297Y0001468738D01*
X0001014050Y0001479986D02*
X0001014050Y0001504358D01*
X0001029048Y0001491235D01*
X0001029048Y0001496859D01*
X0001030923Y0001500609D01*
X0001032798Y0001502484D01*
X0001036547Y0001504358D01*
X0001045921Y0001504358D01*
X0001049670Y0001502484D01*
X0001051545Y0001500609D01*
X0001053420Y0001496859D01*
X0001053420Y0001485611D01*
X0001051545Y0001481861D01*
X0001049670Y0001479986D01*
X0001017799Y0001519356D02*
X0001015925Y0001521231D01*
X0001014050Y0001524981D01*
X0001014050Y0001534355D01*
X0001015925Y0001538104D01*
X0001017799Y0001539979D01*
X0001021549Y0001541854D01*
X0001025299Y0001541854D01*
X0001030923Y0001539979D01*
X0001053420Y0001517482D01*
X0001053420Y0001541854D01*
X0001436843Y0001642780D02*
X0001423720Y0001661527D01*
X0001414346Y0001642780D02*
X0001414346Y0001682150D01*
X0001429344Y0001682150D01*
X0001433094Y0001680275D01*
X0001434969Y0001678400D01*
X0001436843Y0001674651D01*
X0001436843Y0001669026D01*
X0001434969Y0001665277D01*
X0001433094Y0001663402D01*
X0001429344Y0001661527D01*
X0001414346Y0001661527D01*
X0001453716Y0001642780D02*
X0001453716Y0001682150D01*
X0001468714Y0001682150D01*
X0001472464Y0001680275D01*
X0001474339Y0001678400D01*
X0001476213Y0001674651D01*
X0001476213Y0001669026D01*
X0001474339Y0001665277D01*
X0001472464Y0001663402D01*
X0001468714Y0001661527D01*
X0001453716Y0001661527D01*
X0001513709Y0001642780D02*
X0001491212Y0001642780D01*
X0001502460Y0001642780D02*
X0001502460Y0001682150D01*
X0001498711Y0001676526D01*
X0001494961Y0001672776D01*
X0001491212Y0001670901D01*
X0001553406Y0001642780D02*
X0001530909Y0001642780D01*
X0001542157Y0001642780D02*
X0001542157Y0001682150D01*
X0001538408Y0001676526D01*
X0001534658Y0001672776D01*
X0001530909Y0001670901D01*
X0001577778Y0001682150D02*
X0001581527Y0001682150D01*
X0001585277Y0001680275D01*
X0001587152Y0001678400D01*
X0001589027Y0001674651D01*
X0001590901Y0001667152D01*
X0001590901Y0001657778D01*
X0001589027Y0001650279D01*
X0001587152Y0001646529D01*
X0001585277Y0001644655D01*
X0001581527Y0001642780D01*
X0001577778Y0001642780D01*
X0001574028Y0001644655D01*
X0001572154Y0001646529D01*
X0001570279Y0001650279D01*
X0001568404Y0001657778D01*
X0001568404Y0001667152D01*
X0001570279Y0001674651D01*
X0001572154Y0001678400D01*
X0001574028Y0001680275D01*
X0001577778Y0001682150D01*
X0001607774Y0001642780D02*
X0001607774Y0001682150D01*
X0001630271Y0001642780D02*
X0001613398Y0001665277D01*
X0001630271Y0001682150D02*
X0001607774Y0001659653D01*
X0001436843Y0001510299D02*
X0001423720Y0001529047D01*
X0001414346Y0001510299D02*
X0001414346Y0001549670D01*
X0001429344Y0001549670D01*
X0001433094Y0001547795D01*
X0001434969Y0001545920D01*
X0001436843Y0001542170D01*
X0001436843Y0001536546D01*
X0001434969Y0001532797D01*
X0001433094Y0001530922D01*
X0001429344Y0001529047D01*
X0001414346Y0001529047D01*
X0001453716Y0001510299D02*
X0001453716Y0001549670D01*
X0001468714Y0001549670D01*
X0001472464Y0001547795D01*
X0001474339Y0001545920D01*
X0001476213Y0001542170D01*
X0001476213Y0001536546D01*
X0001474339Y0001532797D01*
X0001472464Y0001530922D01*
X0001468714Y0001529047D01*
X0001453716Y0001529047D01*
X0001491212Y0001545920D02*
X0001493086Y0001547795D01*
X0001496836Y0001549670D01*
X0001506210Y0001549670D01*
X0001509959Y0001547795D01*
X0001511834Y0001545920D01*
X0001513709Y0001542170D01*
X0001513709Y0001538421D01*
X0001511834Y0001532797D01*
X0001489337Y0001510299D01*
X0001513709Y0001510299D01*
X0001555906Y0001510299D02*
X0001533409Y0001510299D01*
X0001544657Y0001510299D02*
X0001544657Y0001549670D01*
X0001540908Y0001544045D01*
X0001537158Y0001540296D01*
X0001533409Y0001538421D01*
X0001580278Y0001549670D02*
X0001584027Y0001549670D01*
X0001587777Y0001547795D01*
X0001589652Y0001545920D01*
X0001591527Y0001542170D01*
X0001593401Y0001534671D01*
X0001593401Y0001525298D01*
X0001591527Y0001517798D01*
X0001589652Y0001514049D01*
X0001587777Y0001512174D01*
X0001584027Y0001510299D01*
X0001580278Y0001510299D01*
X0001576528Y0001512174D01*
X0001574654Y0001514049D01*
X0001572779Y0001517798D01*
X0001570904Y0001525298D01*
X0001570904Y0001534671D01*
X0001572779Y0001542170D01*
X0001574654Y0001545920D01*
X0001576528Y0001547795D01*
X0001580278Y0001549670D01*
X0001610274Y0001510299D02*
X0001610274Y0001549670D01*
X0001632771Y0001510299D02*
X0001615898Y0001532797D01*
X0001632771Y0001549670D02*
X0001610274Y0001527172D01*
X0001024363Y0001685280D02*
X0001011240Y0001704027D01*
X0001001866Y0001685280D02*
X0001001866Y0001724650D01*
X0001016864Y0001724650D01*
X0001020614Y0001722775D01*
X0001022488Y0001720900D01*
X0001024363Y0001717151D01*
X0001024363Y0001711526D01*
X0001022488Y0001707777D01*
X0001020614Y0001705902D01*
X0001016864Y0001704027D01*
X0001001866Y0001704027D01*
X0001041236Y0001685280D02*
X0001041236Y0001724650D01*
X0001056234Y0001724650D01*
X0001059984Y0001722775D01*
X0001061858Y0001720900D01*
X0001063733Y0001717151D01*
X0001063733Y0001711526D01*
X0001061858Y0001707777D01*
X0001059984Y0001705902D01*
X0001056234Y0001704027D01*
X0001041236Y0001704027D01*
X0001076856Y0001724650D02*
X0001101228Y0001724650D01*
X0001088105Y0001709652D01*
X0001093729Y0001709652D01*
X0001097479Y0001707777D01*
X0001099354Y0001705902D01*
X0001101228Y0001702153D01*
X0001101228Y0001692779D01*
X0001099354Y0001689029D01*
X0001097479Y0001687155D01*
X0001093729Y0001685280D01*
X0001082481Y0001685280D01*
X0001078731Y0001687155D01*
X0001076856Y0001689029D01*
X0001025926Y0001630280D02*
X0001003428Y0001630280D01*
X0001014677Y0001630280D02*
X0001014677Y0001669650D01*
X0001010927Y0001664026D01*
X0001007178Y0001660276D01*
X0001003428Y0001658401D01*
X0001050298Y0001669650D02*
X0001054047Y0001669650D01*
X0001057797Y0001667775D01*
X0001059671Y0001665900D01*
X0001061546Y0001662151D01*
X0001063421Y0001654652D01*
X0001063421Y0001645278D01*
X0001061546Y0001637779D01*
X0001059671Y0001634029D01*
X0001057797Y0001632155D01*
X0001054047Y0001630280D01*
X0001050298Y0001630280D01*
X0001046548Y0001632155D01*
X0001044673Y0001634029D01*
X0001042799Y0001637779D01*
X0001040924Y0001645278D01*
X0001040924Y0001654652D01*
X0001042799Y0001662151D01*
X0001044673Y0001665900D01*
X0001046548Y0001667775D01*
X0001050298Y0001669650D01*
X0001080294Y0001630280D02*
X0001080294Y0001669650D01*
X0001102791Y0001630280D02*
X0001085918Y0001652777D01*
X0001102791Y0001669650D02*
X0001080294Y0001647153D01*
X0001141863Y0001422799D02*
X0001128740Y0001441547D01*
X0001119366Y0001422799D02*
X0001119366Y0001462170D01*
X0001134364Y0001462170D01*
X0001138114Y0001460295D01*
X0001139988Y0001458420D01*
X0001141863Y0001454670D01*
X0001141863Y0001449046D01*
X0001139988Y0001445297D01*
X0001138114Y0001443422D01*
X0001134364Y0001441547D01*
X0001119366Y0001441547D01*
X0001158736Y0001422799D02*
X0001158736Y0001462170D01*
X0001173734Y0001462170D01*
X0001177484Y0001460295D01*
X0001179358Y0001458420D01*
X0001181233Y0001454670D01*
X0001181233Y0001449046D01*
X0001179358Y0001445297D01*
X0001177484Y0001443422D01*
X0001173734Y0001441547D01*
X0001158736Y0001441547D01*
X0001214979Y0001449046D02*
X0001214979Y0001422799D01*
X0001205605Y0001464044D02*
X0001196231Y0001435923D01*
X0001220603Y0001435923D01*
X0001265926Y0001425299D02*
X0001243428Y0001425299D01*
X0001254677Y0001425299D02*
X0001254677Y0001464670D01*
X0001250927Y0001459045D01*
X0001247178Y0001455296D01*
X0001243428Y0001453421D01*
X0001290298Y0001464670D02*
X0001294047Y0001464670D01*
X0001297797Y0001462795D01*
X0001299671Y0001460920D01*
X0001301546Y0001457170D01*
X0001303421Y0001449671D01*
X0001303421Y0001440298D01*
X0001301546Y0001432798D01*
X0001299671Y0001429049D01*
X0001297797Y0001427174D01*
X0001294047Y0001425299D01*
X0001290298Y0001425299D01*
X0001286548Y0001427174D01*
X0001284673Y0001429049D01*
X0001282799Y0001432798D01*
X0001280924Y0001440298D01*
X0001280924Y0001449671D01*
X0001282799Y0001457170D01*
X0001284673Y0001460920D01*
X0001286548Y0001462795D01*
X0001290298Y0001464670D01*
X0001320294Y0001425299D02*
X0001320294Y0001464670D01*
X0001342791Y0001425299D02*
X0001325918Y0001447797D01*
X0001342791Y0001464670D02*
X0001320294Y0001442172D01*
X0001632652Y0001276571D02*
X0001593282Y0001276571D01*
X0001593282Y0001291569D01*
X0001595157Y0001295318D01*
X0001597032Y0001297193D01*
X0001600781Y0001299068D01*
X0001606406Y0001299068D01*
X0001610155Y0001297193D01*
X0001612030Y0001295318D01*
X0001613905Y0001291569D01*
X0001613905Y0001276571D01*
X0001632652Y0001336563D02*
X0001632652Y0001314066D01*
X0001632652Y0001325314D02*
X0001593282Y0001325314D01*
X0001598907Y0001321565D01*
X0001602656Y0001317815D01*
X0001604531Y0001314066D01*
G04 next file*
G04 #@! TF.FileFunction,Legend,Top*
G04 Gerber Fmt 4.6, Leading zero omitted, Abs format (unit mm)*
G04 Created by KiCad (PCBNEW 4.0.4-stable) date 05/23/17 22:39:58*
G01G01*
G04 APERTURE LIST*
G04 APERTURE END LIST*
D41*
X0001001060Y0003468345D02*
X0001574463Y0003468345D01*
X0001574463Y0003468345D02*
X0001574463Y0002945041D01*
X0001574463Y0002945041D02*
X0001001060Y0002945041D01*
X0001001060Y0002945041D02*
X0001001060Y0003468345D01*
X0000954924Y0003378071D02*
X0000998575Y0003378071D01*
X0000998575Y0003378071D02*
X0000998575Y0003068547D01*
X0000998575Y0003068547D02*
X0000954924Y0003068547D01*
X0000954924Y0003068547D02*
X0000954924Y0003378071D01*
X0001577940Y0003378063D02*
X0001621591Y0003378063D01*
X0001621591Y0003378063D02*
X0001621591Y0003068539D01*
X0001621591Y0003068539D02*
X0001577940Y0003068539D01*
X0001577940Y0003068539D02*
X0001577940Y0003378063D01*
D42*
X0000946338Y0002804035D02*
X0000946338Y0002843405D01*
X0000999881Y0002843405D02*
X0000999881Y0002804035D01*
X0000946338Y0002654035D02*
X0000946338Y0002693405D01*
X0000999881Y0002693405D02*
X0000999881Y0002654035D01*
D43*
X0001397519Y0002895570D02*
X0001397519Y0002816830D01*
X0001397519Y0002816830D02*
X0001263661Y0002816830D01*
X0001263661Y0002816830D02*
X0001263661Y0002895570D01*
X0001263661Y0002895570D02*
X0001397519Y0002895570D01*
X0001397519Y0002753090D02*
X0001397519Y0002674350D01*
X0001397519Y0002674350D02*
X0001263661Y0002674350D01*
X0001263661Y0002674350D02*
X0001263661Y0002753090D01*
X0001263661Y0002753090D02*
X0001397519Y0002753090D01*
X0001240039Y0002895570D02*
X0001240039Y0002816830D01*
X0001240039Y0002816830D02*
X0001106181Y0002816830D01*
X0001106181Y0002816830D02*
X0001106181Y0002895570D01*
X0001106181Y0002895570D02*
X0001240039Y0002895570D01*
X0001240039Y0002753090D02*
X0001240039Y0002674350D01*
X0001240039Y0002674350D02*
X0001106181Y0002674350D01*
X0001106181Y0002674350D02*
X0001106181Y0002753090D01*
X0001106181Y0002753090D02*
X0001240039Y0002753090D01*
D42*
X0001473110Y0002603602D02*
X0000970748Y0002603602D01*
X0000970748Y0002603602D02*
X0000970748Y0002398877D01*
X0000970748Y0002398877D02*
X0001575472Y0002398877D01*
X0001575472Y0002398877D02*
X0001575472Y0002501240D01*
X0001575472Y0002501240D02*
X0001473110Y0002501240D01*
X0001473110Y0002501240D02*
X0001473110Y0002603602D01*
X0001523110Y0002603602D02*
X0001575472Y0002603602D01*
X0001575472Y0002603602D02*
X0001575472Y0002551240D01*
D43*
X0001284593Y0003170280D02*
X0001284593Y0003142158D01*
X0001282718Y0003136534D01*
X0001278968Y0003132784D01*
X0001273344Y0003130910D01*
X0001269595Y0003130910D01*
X0001323963Y0003130910D02*
X0001301466Y0003130910D01*
X0001312714Y0003130910D02*
X0001312714Y0003170280D01*
X0001308965Y0003164655D01*
X0001305215Y0003160906D01*
X0001301466Y0003159031D01*
X0000990920Y0002917158D02*
X0000972172Y0002904035D01*
X0000990920Y0002894661D02*
X0000951550Y0002894661D01*
X0000951550Y0002909659D01*
X0000953425Y0002913409D01*
X0000955299Y0002915284D01*
X0000959049Y0002917158D01*
X0000964673Y0002917158D01*
X0000968423Y0002915284D01*
X0000970298Y0002913409D01*
X0000972172Y0002909659D01*
X0000972172Y0002894661D01*
X0000990920Y0002954654D02*
X0000990920Y0002932156D01*
X0000990920Y0002943405D02*
X0000951550Y0002943405D01*
X0000957174Y0002939655D01*
X0000960924Y0002935906D01*
X0000962799Y0002932156D01*
X0000930299Y0002964976D02*
X0000928425Y0002966851D01*
X0000926550Y0002970600D01*
X0000926550Y0002979974D01*
X0000928425Y0002983724D01*
X0000930299Y0002985598D01*
X0000934049Y0002987473D01*
X0000937799Y0002987473D01*
X0000943423Y0002985598D01*
X0000965920Y0002963101D01*
X0000965920Y0002987473D01*
X0000930299Y0003002471D02*
X0000928425Y0003004346D01*
X0000926550Y0003008096D01*
X0000926550Y0003017470D01*
X0000928425Y0003021219D01*
X0000930299Y0003023094D01*
X0000934049Y0003024969D01*
X0000937799Y0003024969D01*
X0000943423Y0003023094D01*
X0000965920Y0003000597D01*
X0000965920Y0003024969D01*
X0000926550Y0003058714D02*
X0000926550Y0003051215D01*
X0000928425Y0003047466D01*
X0000930299Y0003045591D01*
X0000935924Y0003041841D01*
X0000943423Y0003039967D01*
X0000958421Y0003039967D01*
X0000962170Y0003041841D01*
X0000964045Y0003043716D01*
X0000965920Y0003047466D01*
X0000965920Y0003054965D01*
X0000964045Y0003058714D01*
X0000962170Y0003060589D01*
X0000958421Y0003062464D01*
X0000949047Y0003062464D01*
X0000945298Y0003060589D01*
X0000943423Y0003058714D01*
X0000941548Y0003054965D01*
X0000941548Y0003047466D01*
X0000943423Y0003043716D01*
X0000945298Y0003041841D01*
X0000949047Y0003039967D01*
X0000956548Y0002728410D02*
X0000943425Y0002747157D01*
X0000934051Y0002728410D02*
X0000934051Y0002767780D01*
X0000949049Y0002767780D01*
X0000952799Y0002765905D01*
X0000954673Y0002764030D01*
X0000956548Y0002760281D01*
X0000956548Y0002754656D01*
X0000954673Y0002750907D01*
X0000952799Y0002749032D01*
X0000949049Y0002747157D01*
X0000934051Y0002747157D01*
X0000971546Y0002764030D02*
X0000973421Y0002765905D01*
X0000977170Y0002767780D01*
X0000986544Y0002767780D01*
X0000990294Y0002765905D01*
X0000992169Y0002764030D01*
X0000994043Y0002760281D01*
X0000994043Y0002756531D01*
X0000992169Y0002750907D01*
X0000969671Y0002728410D01*
X0000994043Y0002728410D01*
X0001027173Y0002658724D02*
X0001053420Y0002658724D01*
X0001012175Y0002649350D02*
X0001040297Y0002639976D01*
X0001040297Y0002664348D01*
X0001014050Y0002675597D02*
X0001014050Y0002699969D01*
X0001029048Y0002686845D01*
X0001029048Y0002692470D01*
X0001030923Y0002696219D01*
X0001032798Y0002698094D01*
X0001036547Y0002699969D01*
X0001045921Y0002699969D01*
X0001049670Y0002698094D01*
X0001051545Y0002696219D01*
X0001053420Y0002692470D01*
X0001053420Y0002681221D01*
X0001051545Y0002677471D01*
X0001049670Y0002675597D01*
X0001017799Y0002714967D02*
X0001015925Y0002716841D01*
X0001014050Y0002720591D01*
X0001014050Y0002729965D01*
X0001015925Y0002733714D01*
X0001017799Y0002735589D01*
X0001021549Y0002737464D01*
X0001025299Y0002737464D01*
X0001030923Y0002735589D01*
X0001053420Y0002713092D01*
X0001053420Y0002737464D01*
X0001436843Y0002838390D02*
X0001423720Y0002857138D01*
X0001414346Y0002838390D02*
X0001414346Y0002877760D01*
X0001429344Y0002877760D01*
X0001433094Y0002875885D01*
X0001434969Y0002874011D01*
X0001436843Y0002870261D01*
X0001436843Y0002864637D01*
X0001434969Y0002860887D01*
X0001433094Y0002859012D01*
X0001429344Y0002857138D01*
X0001414346Y0002857138D01*
X0001453716Y0002838390D02*
X0001453716Y0002877760D01*
X0001468714Y0002877760D01*
X0001472464Y0002875885D01*
X0001474339Y0002874011D01*
X0001476213Y0002870261D01*
X0001476213Y0002864637D01*
X0001474339Y0002860887D01*
X0001472464Y0002859012D01*
X0001468714Y0002857138D01*
X0001453716Y0002857138D01*
X0001513709Y0002838390D02*
X0001491212Y0002838390D01*
X0001502460Y0002838390D02*
X0001502460Y0002877760D01*
X0001498711Y0002872136D01*
X0001494961Y0002868386D01*
X0001491212Y0002866511D01*
X0001553406Y0002838390D02*
X0001530909Y0002838390D01*
X0001542157Y0002838390D02*
X0001542157Y0002877760D01*
X0001538408Y0002872136D01*
X0001534658Y0002868386D01*
X0001530909Y0002866511D01*
X0001577778Y0002877760D02*
X0001581527Y0002877760D01*
X0001585277Y0002875885D01*
X0001587152Y0002874011D01*
X0001589027Y0002870261D01*
X0001590901Y0002862762D01*
X0001590901Y0002853388D01*
X0001589027Y0002845889D01*
X0001587152Y0002842140D01*
X0001585277Y0002840265D01*
X0001581527Y0002838390D01*
X0001577778Y0002838390D01*
X0001574028Y0002840265D01*
X0001572154Y0002842140D01*
X0001570279Y0002845889D01*
X0001568404Y0002853388D01*
X0001568404Y0002862762D01*
X0001570279Y0002870261D01*
X0001572154Y0002874011D01*
X0001574028Y0002875885D01*
X0001577778Y0002877760D01*
X0001607774Y0002838390D02*
X0001607774Y0002877760D01*
X0001630271Y0002838390D02*
X0001613398Y0002860887D01*
X0001630271Y0002877760D02*
X0001607774Y0002855263D01*
X0001436843Y0002705910D02*
X0001423720Y0002724657D01*
X0001414346Y0002705910D02*
X0001414346Y0002745280D01*
X0001429344Y0002745280D01*
X0001433094Y0002743405D01*
X0001434969Y0002741530D01*
X0001436843Y0002737781D01*
X0001436843Y0002732156D01*
X0001434969Y0002728407D01*
X0001433094Y0002726532D01*
X0001429344Y0002724657D01*
X0001414346Y0002724657D01*
X0001453716Y0002705910D02*
X0001453716Y0002745280D01*
X0001468714Y0002745280D01*
X0001472464Y0002743405D01*
X0001474339Y0002741530D01*
X0001476213Y0002737781D01*
X0001476213Y0002732156D01*
X0001474339Y0002728407D01*
X0001472464Y0002726532D01*
X0001468714Y0002724657D01*
X0001453716Y0002724657D01*
X0001491212Y0002741530D02*
X0001493086Y0002743405D01*
X0001496836Y0002745280D01*
X0001506210Y0002745280D01*
X0001509959Y0002743405D01*
X0001511834Y0002741530D01*
X0001513709Y0002737781D01*
X0001513709Y0002734031D01*
X0001511834Y0002728407D01*
X0001489337Y0002705910D01*
X0001513709Y0002705910D01*
X0001555906Y0002705910D02*
X0001533409Y0002705910D01*
X0001544657Y0002705910D02*
X0001544657Y0002745280D01*
X0001540908Y0002739655D01*
X0001537158Y0002735906D01*
X0001533409Y0002734031D01*
X0001580278Y0002745280D02*
X0001584027Y0002745280D01*
X0001587777Y0002743405D01*
X0001589652Y0002741530D01*
X0001591527Y0002737781D01*
X0001593401Y0002730282D01*
X0001593401Y0002720908D01*
X0001591527Y0002713409D01*
X0001589652Y0002709659D01*
X0001587777Y0002707784D01*
X0001584027Y0002705910D01*
X0001580278Y0002705910D01*
X0001576528Y0002707784D01*
X0001574654Y0002709659D01*
X0001572779Y0002713409D01*
X0001570904Y0002720908D01*
X0001570904Y0002730282D01*
X0001572779Y0002737781D01*
X0001574654Y0002741530D01*
X0001576528Y0002743405D01*
X0001580278Y0002745280D01*
X0001610274Y0002705910D02*
X0001610274Y0002745280D01*
X0001632771Y0002705910D02*
X0001615898Y0002728407D01*
X0001632771Y0002745280D02*
X0001610274Y0002722783D01*
X0001024363Y0002880890D02*
X0001011240Y0002899638D01*
X0001001866Y0002880890D02*
X0001001866Y0002920260D01*
X0001016864Y0002920260D01*
X0001020614Y0002918385D01*
X0001022488Y0002916511D01*
X0001024363Y0002912761D01*
X0001024363Y0002907137D01*
X0001022488Y0002903387D01*
X0001020614Y0002901512D01*
X0001016864Y0002899638D01*
X0001001866Y0002899638D01*
X0001041236Y0002880890D02*
X0001041236Y0002920260D01*
X0001056234Y0002920260D01*
X0001059984Y0002918385D01*
X0001061858Y0002916511D01*
X0001063733Y0002912761D01*
X0001063733Y0002907137D01*
X0001061858Y0002903387D01*
X0001059984Y0002901512D01*
X0001056234Y0002899638D01*
X0001041236Y0002899638D01*
X0001076856Y0002920260D02*
X0001101228Y0002920260D01*
X0001088105Y0002905262D01*
X0001093729Y0002905262D01*
X0001097479Y0002903387D01*
X0001099354Y0002901512D01*
X0001101228Y0002897763D01*
X0001101228Y0002888389D01*
X0001099354Y0002884640D01*
X0001097479Y0002882765D01*
X0001093729Y0002880890D01*
X0001082481Y0002880890D01*
X0001078731Y0002882765D01*
X0001076856Y0002884640D01*
X0001025926Y0002825890D02*
X0001003428Y0002825890D01*
X0001014677Y0002825890D02*
X0001014677Y0002865260D01*
X0001010927Y0002859636D01*
X0001007178Y0002855886D01*
X0001003428Y0002854011D01*
X0001050298Y0002865260D02*
X0001054047Y0002865260D01*
X0001057797Y0002863385D01*
X0001059671Y0002861511D01*
X0001061546Y0002857761D01*
X0001063421Y0002850262D01*
X0001063421Y0002840888D01*
X0001061546Y0002833389D01*
X0001059671Y0002829640D01*
X0001057797Y0002827765D01*
X0001054047Y0002825890D01*
X0001050298Y0002825890D01*
X0001046548Y0002827765D01*
X0001044673Y0002829640D01*
X0001042799Y0002833389D01*
X0001040924Y0002840888D01*
X0001040924Y0002850262D01*
X0001042799Y0002857761D01*
X0001044673Y0002861511D01*
X0001046548Y0002863385D01*
X0001050298Y0002865260D01*
X0001080294Y0002825890D02*
X0001080294Y0002865260D01*
X0001102791Y0002825890D02*
X0001085918Y0002848387D01*
X0001102791Y0002865260D02*
X0001080294Y0002842763D01*
X0001141863Y0002618410D02*
X0001128740Y0002637157D01*
X0001119366Y0002618410D02*
X0001119366Y0002657780D01*
X0001134364Y0002657780D01*
X0001138114Y0002655905D01*
X0001139988Y0002654030D01*
X0001141863Y0002650281D01*
X0001141863Y0002644656D01*
X0001139988Y0002640907D01*
X0001138114Y0002639032D01*
X0001134364Y0002637157D01*
X0001119366Y0002637157D01*
X0001158736Y0002618410D02*
X0001158736Y0002657780D01*
X0001173734Y0002657780D01*
X0001177484Y0002655905D01*
X0001179358Y0002654030D01*
X0001181233Y0002650281D01*
X0001181233Y0002644656D01*
X0001179358Y0002640907D01*
X0001177484Y0002639032D01*
X0001173734Y0002637157D01*
X0001158736Y0002637157D01*
X0001214979Y0002644656D02*
X0001214979Y0002618410D01*
X0001205605Y0002659655D02*
X0001196231Y0002631533D01*
X0001220603Y0002631533D01*
X0001265926Y0002620910D02*
X0001243428Y0002620910D01*
X0001254677Y0002620910D02*
X0001254677Y0002660280D01*
X0001250927Y0002654655D01*
X0001247178Y0002650906D01*
X0001243428Y0002649031D01*
X0001290298Y0002660280D02*
X0001294047Y0002660280D01*
X0001297797Y0002658405D01*
X0001299671Y0002656530D01*
X0001301546Y0002652781D01*
X0001303421Y0002645282D01*
X0001303421Y0002635908D01*
X0001301546Y0002628409D01*
X0001299671Y0002624659D01*
X0001297797Y0002622784D01*
X0001294047Y0002620910D01*
X0001290298Y0002620910D01*
X0001286548Y0002622784D01*
X0001284673Y0002624659D01*
X0001282799Y0002628409D01*
X0001280924Y0002635908D01*
X0001280924Y0002645282D01*
X0001282799Y0002652781D01*
X0001284673Y0002656530D01*
X0001286548Y0002658405D01*
X0001290298Y0002660280D01*
X0001320294Y0002620910D02*
X0001320294Y0002660280D01*
X0001342791Y0002620910D02*
X0001325918Y0002643407D01*
X0001342791Y0002660280D02*
X0001320294Y0002637783D01*
X0001632652Y0002472181D02*
X0001593282Y0002472181D01*
X0001593282Y0002487179D01*
X0001595157Y0002490928D01*
X0001597032Y0002492803D01*
X0001600781Y0002494678D01*
X0001606406Y0002494678D01*
X0001610155Y0002492803D01*
X0001612030Y0002490928D01*
X0001613905Y0002487179D01*
X0001613905Y0002472181D01*
X0001632652Y0002532173D02*
X0001632652Y0002509676D01*
X0001632652Y0002520925D02*
X0001593282Y0002520925D01*
X0001598907Y0002517175D01*
X0001602656Y0002513426D01*
X0001604531Y0002509676D01*
G04 next file*
G04 #@! TF.FileFunction,Legend,Top*
G04 Gerber Fmt 4.6, Leading zero omitted, Abs format (unit mm)*
G04 Created by KiCad (PCBNEW 4.0.4-stable) date 05/23/17 22:39:58*
G01G01*
G04 APERTURE LIST*
G04 APERTURE END LIST*
D44*
X0001904170Y0002272735D02*
X0002477573Y0002272735D01*
X0002477573Y0002272735D02*
X0002477573Y0001749431D01*
X0002477573Y0001749431D02*
X0001904170Y0001749431D01*
X0001904170Y0001749431D02*
X0001904170Y0002272735D01*
X0001858034Y0002182461D02*
X0001901685Y0002182461D01*
X0001901685Y0002182461D02*
X0001901685Y0001872937D01*
X0001901685Y0001872937D02*
X0001858034Y0001872937D01*
X0001858034Y0001872937D02*
X0001858034Y0002182461D01*
X0002481050Y0002182452D02*
X0002524701Y0002182452D01*
X0002524701Y0002182452D02*
X0002524701Y0001872928D01*
X0002524701Y0001872928D02*
X0002481050Y0001872928D01*
X0002481050Y0001872928D02*
X0002481050Y0002182452D01*
D45*
X0001849448Y0001608425D02*
X0001849448Y0001647795D01*
X0001902992Y0001647795D02*
X0001902992Y0001608425D01*
X0001849448Y0001458425D02*
X0001849448Y0001497795D01*
X0001902992Y0001497795D02*
X0001902992Y0001458425D01*
D46*
X0002300629Y0001699960D02*
X0002300629Y0001621220D01*
X0002300629Y0001621220D02*
X0002166771Y0001621220D01*
X0002166771Y0001621220D02*
X0002166771Y0001699960D01*
X0002166771Y0001699960D02*
X0002300629Y0001699960D01*
X0002300629Y0001557480D02*
X0002300629Y0001478740D01*
X0002300629Y0001478740D02*
X0002166771Y0001478740D01*
X0002166771Y0001478740D02*
X0002166771Y0001557480D01*
X0002166771Y0001557480D02*
X0002300629Y0001557480D01*
X0002143149Y0001699960D02*
X0002143149Y0001621220D01*
X0002143149Y0001621220D02*
X0002009291Y0001621220D01*
X0002009291Y0001621220D02*
X0002009291Y0001699960D01*
X0002009291Y0001699960D02*
X0002143149Y0001699960D01*
X0002143149Y0001557480D02*
X0002143149Y0001478740D01*
X0002143149Y0001478740D02*
X0002009291Y0001478740D01*
X0002009291Y0001478740D02*
X0002009291Y0001557480D01*
X0002009291Y0001557480D02*
X0002143149Y0001557480D01*
D45*
X0002376220Y0001407992D02*
X0001873858Y0001407992D01*
X0001873858Y0001407992D02*
X0001873858Y0001203267D01*
X0001873858Y0001203267D02*
X0002478582Y0001203267D01*
X0002478582Y0001203267D02*
X0002478582Y0001305629D01*
X0002478582Y0001305629D02*
X0002376220Y0001305629D01*
X0002376220Y0001305629D02*
X0002376220Y0001407992D01*
X0002426220Y0001407992D02*
X0002478582Y0001407992D01*
X0002478582Y0001407992D02*
X0002478582Y0001355629D01*
D46*
X0002187703Y0001974670D02*
X0002187703Y0001946548D01*
X0002185828Y0001940924D01*
X0002182079Y0001937174D01*
X0002176454Y0001935299D01*
X0002172705Y0001935299D01*
X0002227073Y0001935299D02*
X0002204576Y0001935299D01*
X0002215824Y0001935299D02*
X0002215824Y0001974670D01*
X0002212075Y0001969045D01*
X0002208325Y0001965296D01*
X0002204576Y0001963421D01*
X0001894030Y0001721548D02*
X0001875283Y0001708425D01*
X0001894030Y0001699051D02*
X0001854660Y0001699051D01*
X0001854660Y0001714049D01*
X0001856535Y0001717799D01*
X0001858410Y0001719673D01*
X0001862159Y0001721548D01*
X0001867784Y0001721548D01*
X0001871533Y0001719673D01*
X0001873408Y0001717799D01*
X0001875283Y0001714049D01*
X0001875283Y0001699051D01*
X0001894030Y0001759043D02*
X0001894030Y0001736546D01*
X0001894030Y0001747795D02*
X0001854660Y0001747795D01*
X0001860285Y0001744045D01*
X0001864034Y0001740296D01*
X0001865909Y0001736546D01*
X0001833410Y0001769366D02*
X0001831535Y0001771241D01*
X0001829660Y0001774990D01*
X0001829660Y0001784364D01*
X0001831535Y0001788113D01*
X0001833410Y0001789988D01*
X0001837159Y0001791863D01*
X0001840909Y0001791863D01*
X0001846533Y0001789988D01*
X0001869030Y0001767491D01*
X0001869030Y0001791863D01*
X0001833410Y0001806861D02*
X0001831535Y0001808736D01*
X0001829660Y0001812485D01*
X0001829660Y0001821859D01*
X0001831535Y0001825609D01*
X0001833410Y0001827484D01*
X0001837159Y0001829358D01*
X0001840909Y0001829358D01*
X0001846533Y0001827484D01*
X0001869030Y0001804986D01*
X0001869030Y0001829358D01*
X0001829660Y0001863104D02*
X0001829660Y0001855605D01*
X0001831535Y0001851855D01*
X0001833410Y0001849981D01*
X0001839034Y0001846231D01*
X0001846533Y0001844356D01*
X0001861531Y0001844356D01*
X0001865281Y0001846231D01*
X0001867156Y0001848106D01*
X0001869030Y0001851855D01*
X0001869030Y0001859355D01*
X0001867156Y0001863104D01*
X0001865281Y0001864979D01*
X0001861531Y0001866854D01*
X0001852157Y0001866854D01*
X0001848408Y0001864979D01*
X0001846533Y0001863104D01*
X0001844658Y0001859355D01*
X0001844658Y0001851855D01*
X0001846533Y0001848106D01*
X0001848408Y0001846231D01*
X0001852157Y0001844356D01*
X0001859658Y0001532799D02*
X0001846535Y0001551547D01*
X0001837161Y0001532799D02*
X0001837161Y0001572170D01*
X0001852159Y0001572170D01*
X0001855909Y0001570295D01*
X0001857784Y0001568420D01*
X0001859658Y0001564670D01*
X0001859658Y0001559046D01*
X0001857784Y0001555297D01*
X0001855909Y0001553422D01*
X0001852159Y0001551547D01*
X0001837161Y0001551547D01*
X0001874656Y0001568420D02*
X0001876531Y0001570295D01*
X0001880281Y0001572170D01*
X0001889655Y0001572170D01*
X0001893404Y0001570295D01*
X0001895279Y0001568420D01*
X0001897154Y0001564670D01*
X0001897154Y0001560921D01*
X0001895279Y0001555297D01*
X0001872782Y0001532799D01*
X0001897154Y0001532799D01*
X0001930284Y0001463113D02*
X0001956530Y0001463113D01*
X0001915285Y0001453740D02*
X0001943407Y0001444366D01*
X0001943407Y0001468738D01*
X0001917160Y0001479986D02*
X0001917160Y0001504358D01*
X0001932158Y0001491235D01*
X0001932158Y0001496859D01*
X0001934033Y0001500609D01*
X0001935908Y0001502484D01*
X0001939657Y0001504358D01*
X0001949031Y0001504358D01*
X0001952781Y0001502484D01*
X0001954656Y0001500609D01*
X0001956530Y0001496859D01*
X0001956530Y0001485611D01*
X0001954656Y0001481861D01*
X0001952781Y0001479986D01*
X0001920910Y0001519356D02*
X0001919035Y0001521231D01*
X0001917160Y0001524981D01*
X0001917160Y0001534355D01*
X0001919035Y0001538104D01*
X0001920910Y0001539979D01*
X0001924659Y0001541854D01*
X0001928409Y0001541854D01*
X0001934033Y0001539979D01*
X0001956530Y0001517482D01*
X0001956530Y0001541854D01*
X0002339954Y0001642780D02*
X0002326830Y0001661527D01*
X0002317456Y0001642780D02*
X0002317456Y0001682150D01*
X0002332455Y0001682150D01*
X0002336204Y0001680275D01*
X0002338079Y0001678400D01*
X0002339954Y0001674651D01*
X0002339954Y0001669026D01*
X0002338079Y0001665277D01*
X0002336204Y0001663402D01*
X0002332455Y0001661527D01*
X0002317456Y0001661527D01*
X0002356827Y0001642780D02*
X0002356827Y0001682150D01*
X0002371825Y0001682150D01*
X0002375574Y0001680275D01*
X0002377449Y0001678400D01*
X0002379324Y0001674651D01*
X0002379324Y0001669026D01*
X0002377449Y0001665277D01*
X0002375574Y0001663402D01*
X0002371825Y0001661527D01*
X0002356827Y0001661527D01*
X0002416819Y0001642780D02*
X0002394322Y0001642780D01*
X0002405570Y0001642780D02*
X0002405570Y0001682150D01*
X0002401821Y0001676526D01*
X0002398071Y0001672776D01*
X0002394322Y0001670901D01*
X0002456516Y0001642780D02*
X0002434019Y0001642780D01*
X0002445268Y0001642780D02*
X0002445268Y0001682150D01*
X0002441518Y0001676526D01*
X0002437769Y0001672776D01*
X0002434019Y0001670901D01*
X0002480888Y0001682150D02*
X0002484638Y0001682150D01*
X0002488387Y0001680275D01*
X0002490262Y0001678400D01*
X0002492137Y0001674651D01*
X0002494012Y0001667152D01*
X0002494012Y0001657778D01*
X0002492137Y0001650279D01*
X0002490262Y0001646529D01*
X0002488387Y0001644655D01*
X0002484638Y0001642780D01*
X0002480888Y0001642780D01*
X0002477139Y0001644655D01*
X0002475264Y0001646529D01*
X0002473389Y0001650279D01*
X0002471514Y0001657778D01*
X0002471514Y0001667152D01*
X0002473389Y0001674651D01*
X0002475264Y0001678400D01*
X0002477139Y0001680275D01*
X0002480888Y0001682150D01*
X0002510884Y0001642780D02*
X0002510884Y0001682150D01*
X0002533382Y0001642780D02*
X0002516509Y0001665277D01*
X0002533382Y0001682150D02*
X0002510884Y0001659653D01*
X0002339954Y0001510299D02*
X0002326830Y0001529047D01*
X0002317456Y0001510299D02*
X0002317456Y0001549670D01*
X0002332455Y0001549670D01*
X0002336204Y0001547795D01*
X0002338079Y0001545920D01*
X0002339954Y0001542170D01*
X0002339954Y0001536546D01*
X0002338079Y0001532797D01*
X0002336204Y0001530922D01*
X0002332455Y0001529047D01*
X0002317456Y0001529047D01*
X0002356827Y0001510299D02*
X0002356827Y0001549670D01*
X0002371825Y0001549670D01*
X0002375574Y0001547795D01*
X0002377449Y0001545920D01*
X0002379324Y0001542170D01*
X0002379324Y0001536546D01*
X0002377449Y0001532797D01*
X0002375574Y0001530922D01*
X0002371825Y0001529047D01*
X0002356827Y0001529047D01*
X0002394322Y0001545920D02*
X0002396197Y0001547795D01*
X0002399946Y0001549670D01*
X0002409320Y0001549670D01*
X0002413070Y0001547795D01*
X0002414944Y0001545920D01*
X0002416819Y0001542170D01*
X0002416819Y0001538421D01*
X0002414944Y0001532797D01*
X0002392447Y0001510299D01*
X0002416819Y0001510299D01*
X0002459016Y0001510299D02*
X0002436519Y0001510299D01*
X0002447768Y0001510299D02*
X0002447768Y0001549670D01*
X0002444018Y0001544045D01*
X0002440269Y0001540296D01*
X0002436519Y0001538421D01*
X0002483388Y0001549670D02*
X0002487138Y0001549670D01*
X0002490887Y0001547795D01*
X0002492762Y0001545920D01*
X0002494637Y0001542170D01*
X0002496512Y0001534671D01*
X0002496512Y0001525298D01*
X0002494637Y0001517798D01*
X0002492762Y0001514049D01*
X0002490887Y0001512174D01*
X0002487138Y0001510299D01*
X0002483388Y0001510299D01*
X0002479639Y0001512174D01*
X0002477764Y0001514049D01*
X0002475889Y0001517798D01*
X0002474014Y0001525298D01*
X0002474014Y0001534671D01*
X0002475889Y0001542170D01*
X0002477764Y0001545920D01*
X0002479639Y0001547795D01*
X0002483388Y0001549670D01*
X0002513384Y0001510299D02*
X0002513384Y0001549670D01*
X0002535882Y0001510299D02*
X0002519009Y0001532797D01*
X0002535882Y0001549670D02*
X0002513384Y0001527172D01*
X0001927473Y0001685280D02*
X0001914350Y0001704027D01*
X0001904976Y0001685280D02*
X0001904976Y0001724650D01*
X0001919974Y0001724650D01*
X0001923724Y0001722775D01*
X0001925599Y0001720900D01*
X0001927473Y0001717151D01*
X0001927473Y0001711526D01*
X0001925599Y0001707777D01*
X0001923724Y0001705902D01*
X0001919974Y0001704027D01*
X0001904976Y0001704027D01*
X0001944346Y0001685280D02*
X0001944346Y0001724650D01*
X0001959344Y0001724650D01*
X0001963094Y0001722775D01*
X0001964969Y0001720900D01*
X0001966843Y0001717151D01*
X0001966843Y0001711526D01*
X0001964969Y0001707777D01*
X0001963094Y0001705902D01*
X0001959344Y0001704027D01*
X0001944346Y0001704027D01*
X0001979967Y0001724650D02*
X0002004339Y0001724650D01*
X0001991215Y0001709652D01*
X0001996840Y0001709652D01*
X0002000589Y0001707777D01*
X0002002464Y0001705902D01*
X0002004339Y0001702153D01*
X0002004339Y0001692779D01*
X0002002464Y0001689029D01*
X0002000589Y0001687155D01*
X0001996840Y0001685280D01*
X0001985591Y0001685280D01*
X0001981842Y0001687155D01*
X0001979967Y0001689029D01*
X0001929036Y0001630280D02*
X0001906539Y0001630280D01*
X0001917787Y0001630280D02*
X0001917787Y0001669650D01*
X0001914038Y0001664026D01*
X0001910288Y0001660276D01*
X0001906539Y0001658401D01*
X0001953408Y0001669650D02*
X0001957157Y0001669650D01*
X0001960907Y0001667775D01*
X0001962782Y0001665900D01*
X0001964656Y0001662151D01*
X0001966531Y0001654652D01*
X0001966531Y0001645278D01*
X0001964656Y0001637779D01*
X0001962782Y0001634029D01*
X0001960907Y0001632155D01*
X0001957157Y0001630280D01*
X0001953408Y0001630280D01*
X0001949658Y0001632155D01*
X0001947784Y0001634029D01*
X0001945909Y0001637779D01*
X0001944034Y0001645278D01*
X0001944034Y0001654652D01*
X0001945909Y0001662151D01*
X0001947784Y0001665900D01*
X0001949658Y0001667775D01*
X0001953408Y0001669650D01*
X0001983404Y0001630280D02*
X0001983404Y0001669650D01*
X0002005901Y0001630280D02*
X0001989028Y0001652777D01*
X0002005901Y0001669650D02*
X0001983404Y0001647153D01*
X0002044973Y0001422799D02*
X0002031850Y0001441547D01*
X0002022476Y0001422799D02*
X0002022476Y0001462170D01*
X0002037474Y0001462170D01*
X0002041224Y0001460295D01*
X0002043099Y0001458420D01*
X0002044973Y0001454670D01*
X0002044973Y0001449046D01*
X0002043099Y0001445297D01*
X0002041224Y0001443422D01*
X0002037474Y0001441547D01*
X0002022476Y0001441547D01*
X0002061846Y0001422799D02*
X0002061846Y0001462170D01*
X0002076844Y0001462170D01*
X0002080594Y0001460295D01*
X0002082469Y0001458420D01*
X0002084343Y0001454670D01*
X0002084343Y0001449046D01*
X0002082469Y0001445297D01*
X0002080594Y0001443422D01*
X0002076844Y0001441547D01*
X0002061846Y0001441547D01*
X0002118089Y0001449046D02*
X0002118089Y0001422799D01*
X0002108715Y0001464044D02*
X0002099342Y0001435923D01*
X0002123713Y0001435923D01*
X0002169036Y0001425299D02*
X0002146539Y0001425299D01*
X0002157787Y0001425299D02*
X0002157787Y0001464670D01*
X0002154038Y0001459045D01*
X0002150288Y0001455296D01*
X0002146539Y0001453421D01*
X0002193408Y0001464670D02*
X0002197157Y0001464670D01*
X0002200907Y0001462795D01*
X0002202782Y0001460920D01*
X0002204656Y0001457170D01*
X0002206531Y0001449671D01*
X0002206531Y0001440298D01*
X0002204656Y0001432798D01*
X0002202782Y0001429049D01*
X0002200907Y0001427174D01*
X0002197157Y0001425299D01*
X0002193408Y0001425299D01*
X0002189658Y0001427174D01*
X0002187784Y0001429049D01*
X0002185909Y0001432798D01*
X0002184034Y0001440298D01*
X0002184034Y0001449671D01*
X0002185909Y0001457170D01*
X0002187784Y0001460920D01*
X0002189658Y0001462795D01*
X0002193408Y0001464670D01*
X0002223404Y0001425299D02*
X0002223404Y0001464670D01*
X0002245901Y0001425299D02*
X0002229028Y0001447797D01*
X0002245901Y0001464670D02*
X0002223404Y0001442172D01*
X0002535763Y0001276571D02*
X0002496392Y0001276571D01*
X0002496392Y0001291569D01*
X0002498267Y0001295318D01*
X0002500142Y0001297193D01*
X0002503892Y0001299068D01*
X0002509516Y0001299068D01*
X0002513265Y0001297193D01*
X0002515140Y0001295318D01*
X0002517015Y0001291569D01*
X0002517015Y0001276571D01*
X0002535763Y0001336563D02*
X0002535763Y0001314066D01*
X0002535763Y0001325314D02*
X0002496392Y0001325314D01*
X0002502017Y0001321565D01*
X0002505766Y0001317815D01*
X0002507641Y0001314066D01*
G04 next file*
G04 #@! TF.FileFunction,Legend,Top*
G04 Gerber Fmt 4.6, Leading zero omitted, Abs format (unit mm)*
G04 Created by KiCad (PCBNEW 4.0.4-stable) date 05/23/17 22:39:58*
G01G01*
G04 APERTURE LIST*
G04 APERTURE END LIST*
D47*
X0002807280Y0002272735D02*
X0003380684Y0002272735D01*
X0003380684Y0002272735D02*
X0003380684Y0001749431D01*
X0003380684Y0001749431D02*
X0002807280Y0001749431D01*
X0002807280Y0001749431D02*
X0002807280Y0002272735D01*
X0002761145Y0002182461D02*
X0002804795Y0002182461D01*
X0002804795Y0002182461D02*
X0002804795Y0001872937D01*
X0002804795Y0001872937D02*
X0002761145Y0001872937D01*
X0002761145Y0001872937D02*
X0002761145Y0002182461D01*
X0003384160Y0002182452D02*
X0003427811Y0002182452D01*
X0003427811Y0002182452D02*
X0003427811Y0001872928D01*
X0003427811Y0001872928D02*
X0003384160Y0001872928D01*
X0003384160Y0001872928D02*
X0003384160Y0002182452D01*
D48*
X0002752559Y0001608425D02*
X0002752559Y0001647795D01*
X0002806102Y0001647795D02*
X0002806102Y0001608425D01*
X0002752559Y0001458425D02*
X0002752559Y0001497795D01*
X0002806102Y0001497795D02*
X0002806102Y0001458425D01*
D49*
X0003203740Y0001699960D02*
X0003203740Y0001621220D01*
X0003203740Y0001621220D02*
X0003069881Y0001621220D01*
X0003069881Y0001621220D02*
X0003069881Y0001699960D01*
X0003069881Y0001699960D02*
X0003203740Y0001699960D01*
X0003203740Y0001557480D02*
X0003203740Y0001478740D01*
X0003203740Y0001478740D02*
X0003069881Y0001478740D01*
X0003069881Y0001478740D02*
X0003069881Y0001557480D01*
X0003069881Y0001557480D02*
X0003203740Y0001557480D01*
X0003046259Y0001699960D02*
X0003046259Y0001621220D01*
X0003046259Y0001621220D02*
X0002912401Y0001621220D01*
X0002912401Y0001621220D02*
X0002912401Y0001699960D01*
X0002912401Y0001699960D02*
X0003046259Y0001699960D01*
X0003046259Y0001557480D02*
X0003046259Y0001478740D01*
X0003046259Y0001478740D02*
X0002912401Y0001478740D01*
X0002912401Y0001478740D02*
X0002912401Y0001557480D01*
X0002912401Y0001557480D02*
X0003046259Y0001557480D01*
D48*
X0003279330Y0001407992D02*
X0002776968Y0001407992D01*
X0002776968Y0001407992D02*
X0002776968Y0001203267D01*
X0002776968Y0001203267D02*
X0003381692Y0001203267D01*
X0003381692Y0001203267D02*
X0003381692Y0001305629D01*
X0003381692Y0001305629D02*
X0003279330Y0001305629D01*
X0003279330Y0001305629D02*
X0003279330Y0001407992D01*
X0003329330Y0001407992D02*
X0003381692Y0001407992D01*
X0003381692Y0001407992D02*
X0003381692Y0001355629D01*
D49*
X0003090813Y0001974670D02*
X0003090813Y0001946548D01*
X0003088938Y0001940924D01*
X0003085189Y0001937174D01*
X0003079565Y0001935299D01*
X0003075815Y0001935299D01*
X0003130183Y0001935299D02*
X0003107686Y0001935299D01*
X0003118935Y0001935299D02*
X0003118935Y0001974670D01*
X0003115185Y0001969045D01*
X0003111436Y0001965296D01*
X0003107686Y0001963421D01*
X0002797140Y0001721548D02*
X0002778393Y0001708425D01*
X0002797140Y0001699051D02*
X0002757770Y0001699051D01*
X0002757770Y0001714049D01*
X0002759645Y0001717799D01*
X0002761520Y0001719673D01*
X0002765269Y0001721548D01*
X0002770894Y0001721548D01*
X0002774643Y0001719673D01*
X0002776518Y0001717799D01*
X0002778393Y0001714049D01*
X0002778393Y0001699051D01*
X0002797140Y0001759043D02*
X0002797140Y0001736546D01*
X0002797140Y0001747795D02*
X0002757770Y0001747795D01*
X0002763395Y0001744045D01*
X0002767144Y0001740296D01*
X0002769019Y0001736546D01*
X0002736520Y0001769366D02*
X0002734645Y0001771241D01*
X0002732770Y0001774990D01*
X0002732770Y0001784364D01*
X0002734645Y0001788113D01*
X0002736520Y0001789988D01*
X0002740269Y0001791863D01*
X0002744019Y0001791863D01*
X0002749643Y0001789988D01*
X0002772140Y0001767491D01*
X0002772140Y0001791863D01*
X0002736520Y0001806861D02*
X0002734645Y0001808736D01*
X0002732770Y0001812485D01*
X0002732770Y0001821859D01*
X0002734645Y0001825609D01*
X0002736520Y0001827484D01*
X0002740269Y0001829358D01*
X0002744019Y0001829358D01*
X0002749643Y0001827484D01*
X0002772140Y0001804986D01*
X0002772140Y0001829358D01*
X0002732770Y0001863104D02*
X0002732770Y0001855605D01*
X0002734645Y0001851855D01*
X0002736520Y0001849981D01*
X0002742144Y0001846231D01*
X0002749643Y0001844356D01*
X0002764641Y0001844356D01*
X0002768391Y0001846231D01*
X0002770266Y0001848106D01*
X0002772140Y0001851855D01*
X0002772140Y0001859355D01*
X0002770266Y0001863104D01*
X0002768391Y0001864979D01*
X0002764641Y0001866854D01*
X0002755268Y0001866854D01*
X0002751518Y0001864979D01*
X0002749643Y0001863104D01*
X0002747769Y0001859355D01*
X0002747769Y0001851855D01*
X0002749643Y0001848106D01*
X0002751518Y0001846231D01*
X0002755268Y0001844356D01*
X0002762769Y0001532799D02*
X0002749645Y0001551547D01*
X0002740271Y0001532799D02*
X0002740271Y0001572170D01*
X0002755270Y0001572170D01*
X0002759019Y0001570295D01*
X0002760894Y0001568420D01*
X0002762769Y0001564670D01*
X0002762769Y0001559046D01*
X0002760894Y0001555297D01*
X0002759019Y0001553422D01*
X0002755270Y0001551547D01*
X0002740271Y0001551547D01*
X0002777767Y0001568420D02*
X0002779641Y0001570295D01*
X0002783391Y0001572170D01*
X0002792765Y0001572170D01*
X0002796514Y0001570295D01*
X0002798389Y0001568420D01*
X0002800264Y0001564670D01*
X0002800264Y0001560921D01*
X0002798389Y0001555297D01*
X0002775892Y0001532799D01*
X0002800264Y0001532799D01*
X0002833394Y0001463113D02*
X0002859640Y0001463113D01*
X0002818396Y0001453740D02*
X0002846517Y0001444366D01*
X0002846517Y0001468738D01*
X0002820270Y0001479986D02*
X0002820270Y0001504358D01*
X0002835269Y0001491235D01*
X0002835269Y0001496859D01*
X0002837143Y0001500609D01*
X0002839018Y0001502484D01*
X0002842768Y0001504358D01*
X0002852141Y0001504358D01*
X0002855891Y0001502484D01*
X0002857766Y0001500609D01*
X0002859640Y0001496859D01*
X0002859640Y0001485611D01*
X0002857766Y0001481861D01*
X0002855891Y0001479986D01*
X0002824020Y0001519356D02*
X0002822145Y0001521231D01*
X0002820270Y0001524981D01*
X0002820270Y0001534355D01*
X0002822145Y0001538104D01*
X0002824020Y0001539979D01*
X0002827769Y0001541854D01*
X0002831519Y0001541854D01*
X0002837143Y0001539979D01*
X0002859640Y0001517482D01*
X0002859640Y0001541854D01*
X0003243064Y0001642780D02*
X0003229940Y0001661527D01*
X0003220567Y0001642780D02*
X0003220567Y0001682150D01*
X0003235565Y0001682150D01*
X0003239314Y0001680275D01*
X0003241189Y0001678400D01*
X0003243064Y0001674651D01*
X0003243064Y0001669026D01*
X0003241189Y0001665277D01*
X0003239314Y0001663402D01*
X0003235565Y0001661527D01*
X0003220567Y0001661527D01*
X0003259937Y0001642780D02*
X0003259937Y0001682150D01*
X0003274935Y0001682150D01*
X0003278684Y0001680275D01*
X0003280559Y0001678400D01*
X0003282434Y0001674651D01*
X0003282434Y0001669026D01*
X0003280559Y0001665277D01*
X0003278684Y0001663402D01*
X0003274935Y0001661527D01*
X0003259937Y0001661527D01*
X0003319929Y0001642780D02*
X0003297432Y0001642780D01*
X0003308681Y0001642780D02*
X0003308681Y0001682150D01*
X0003304931Y0001676526D01*
X0003301182Y0001672776D01*
X0003297432Y0001670901D01*
X0003359626Y0001642780D02*
X0003337129Y0001642780D01*
X0003348378Y0001642780D02*
X0003348378Y0001682150D01*
X0003344628Y0001676526D01*
X0003340879Y0001672776D01*
X0003337129Y0001670901D01*
X0003383998Y0001682150D02*
X0003387748Y0001682150D01*
X0003391497Y0001680275D01*
X0003393372Y0001678400D01*
X0003395247Y0001674651D01*
X0003397122Y0001667152D01*
X0003397122Y0001657778D01*
X0003395247Y0001650279D01*
X0003393372Y0001646529D01*
X0003391497Y0001644655D01*
X0003387748Y0001642780D01*
X0003383998Y0001642780D01*
X0003380249Y0001644655D01*
X0003378374Y0001646529D01*
X0003376499Y0001650279D01*
X0003374625Y0001657778D01*
X0003374625Y0001667152D01*
X0003376499Y0001674651D01*
X0003378374Y0001678400D01*
X0003380249Y0001680275D01*
X0003383998Y0001682150D01*
X0003413995Y0001642780D02*
X0003413995Y0001682150D01*
X0003436492Y0001642780D02*
X0003419619Y0001665277D01*
X0003436492Y0001682150D02*
X0003413995Y0001659653D01*
X0003243064Y0001510299D02*
X0003229940Y0001529047D01*
X0003220567Y0001510299D02*
X0003220567Y0001549670D01*
X0003235565Y0001549670D01*
X0003239314Y0001547795D01*
X0003241189Y0001545920D01*
X0003243064Y0001542170D01*
X0003243064Y0001536546D01*
X0003241189Y0001532797D01*
X0003239314Y0001530922D01*
X0003235565Y0001529047D01*
X0003220567Y0001529047D01*
X0003259937Y0001510299D02*
X0003259937Y0001549670D01*
X0003274935Y0001549670D01*
X0003278684Y0001547795D01*
X0003280559Y0001545920D01*
X0003282434Y0001542170D01*
X0003282434Y0001536546D01*
X0003280559Y0001532797D01*
X0003278684Y0001530922D01*
X0003274935Y0001529047D01*
X0003259937Y0001529047D01*
X0003297432Y0001545920D02*
X0003299307Y0001547795D01*
X0003303056Y0001549670D01*
X0003312430Y0001549670D01*
X0003316180Y0001547795D01*
X0003318054Y0001545920D01*
X0003319929Y0001542170D01*
X0003319929Y0001538421D01*
X0003318054Y0001532797D01*
X0003295557Y0001510299D01*
X0003319929Y0001510299D01*
X0003362126Y0001510299D02*
X0003339629Y0001510299D01*
X0003350878Y0001510299D02*
X0003350878Y0001549670D01*
X0003347128Y0001544045D01*
X0003343379Y0001540296D01*
X0003339629Y0001538421D01*
X0003386498Y0001549670D02*
X0003390248Y0001549670D01*
X0003393997Y0001547795D01*
X0003395872Y0001545920D01*
X0003397747Y0001542170D01*
X0003399622Y0001534671D01*
X0003399622Y0001525298D01*
X0003397747Y0001517798D01*
X0003395872Y0001514049D01*
X0003393997Y0001512174D01*
X0003390248Y0001510299D01*
X0003386498Y0001510299D01*
X0003382749Y0001512174D01*
X0003380874Y0001514049D01*
X0003378999Y0001517798D01*
X0003377125Y0001525298D01*
X0003377125Y0001534671D01*
X0003378999Y0001542170D01*
X0003380874Y0001545920D01*
X0003382749Y0001547795D01*
X0003386498Y0001549670D01*
X0003416495Y0001510299D02*
X0003416495Y0001549670D01*
X0003438992Y0001510299D02*
X0003422119Y0001532797D01*
X0003438992Y0001549670D02*
X0003416495Y0001527172D01*
X0002830584Y0001685280D02*
X0002817460Y0001704027D01*
X0002808086Y0001685280D02*
X0002808086Y0001724650D01*
X0002823084Y0001724650D01*
X0002826834Y0001722775D01*
X0002828709Y0001720900D01*
X0002830584Y0001717151D01*
X0002830584Y0001711526D01*
X0002828709Y0001707777D01*
X0002826834Y0001705902D01*
X0002823084Y0001704027D01*
X0002808086Y0001704027D01*
X0002847456Y0001685280D02*
X0002847456Y0001724650D01*
X0002862455Y0001724650D01*
X0002866204Y0001722775D01*
X0002868079Y0001720900D01*
X0002869954Y0001717151D01*
X0002869954Y0001711526D01*
X0002868079Y0001707777D01*
X0002866204Y0001705902D01*
X0002862455Y0001704027D01*
X0002847456Y0001704027D01*
X0002883077Y0001724650D02*
X0002907449Y0001724650D01*
X0002894326Y0001709652D01*
X0002899950Y0001709652D01*
X0002903699Y0001707777D01*
X0002905574Y0001705902D01*
X0002907449Y0001702153D01*
X0002907449Y0001692779D01*
X0002905574Y0001689029D01*
X0002903699Y0001687155D01*
X0002899950Y0001685280D01*
X0002888701Y0001685280D01*
X0002884952Y0001687155D01*
X0002883077Y0001689029D01*
X0002832146Y0001630280D02*
X0002809649Y0001630280D01*
X0002820897Y0001630280D02*
X0002820897Y0001669650D01*
X0002817148Y0001664026D01*
X0002813398Y0001660276D01*
X0002809649Y0001658401D01*
X0002856518Y0001669650D02*
X0002860268Y0001669650D01*
X0002864017Y0001667775D01*
X0002865892Y0001665900D01*
X0002867767Y0001662151D01*
X0002869641Y0001654652D01*
X0002869641Y0001645278D01*
X0002867767Y0001637779D01*
X0002865892Y0001634029D01*
X0002864017Y0001632155D01*
X0002860268Y0001630280D01*
X0002856518Y0001630280D01*
X0002852769Y0001632155D01*
X0002850894Y0001634029D01*
X0002849019Y0001637779D01*
X0002847144Y0001645278D01*
X0002847144Y0001654652D01*
X0002849019Y0001662151D01*
X0002850894Y0001665900D01*
X0002852769Y0001667775D01*
X0002856518Y0001669650D01*
X0002886514Y0001630280D02*
X0002886514Y0001669650D01*
X0002909012Y0001630280D02*
X0002892139Y0001652777D01*
X0002909012Y0001669650D02*
X0002886514Y0001647153D01*
X0002948084Y0001422799D02*
X0002934960Y0001441547D01*
X0002925586Y0001422799D02*
X0002925586Y0001462170D01*
X0002940584Y0001462170D01*
X0002944334Y0001460295D01*
X0002946209Y0001458420D01*
X0002948084Y0001454670D01*
X0002948084Y0001449046D01*
X0002946209Y0001445297D01*
X0002944334Y0001443422D01*
X0002940584Y0001441547D01*
X0002925586Y0001441547D01*
X0002964956Y0001422799D02*
X0002964956Y0001462170D01*
X0002979955Y0001462170D01*
X0002983704Y0001460295D01*
X0002985579Y0001458420D01*
X0002987454Y0001454670D01*
X0002987454Y0001449046D01*
X0002985579Y0001445297D01*
X0002983704Y0001443422D01*
X0002979955Y0001441547D01*
X0002964956Y0001441547D01*
X0003021199Y0001449046D02*
X0003021199Y0001422799D01*
X0003011826Y0001464044D02*
X0003002452Y0001435923D01*
X0003026824Y0001435923D01*
X0003072146Y0001425299D02*
X0003049649Y0001425299D01*
X0003060897Y0001425299D02*
X0003060897Y0001464670D01*
X0003057148Y0001459045D01*
X0003053398Y0001455296D01*
X0003049649Y0001453421D01*
X0003096518Y0001464670D02*
X0003100268Y0001464670D01*
X0003104017Y0001462795D01*
X0003105892Y0001460920D01*
X0003107767Y0001457170D01*
X0003109641Y0001449671D01*
X0003109641Y0001440298D01*
X0003107767Y0001432798D01*
X0003105892Y0001429049D01*
X0003104017Y0001427174D01*
X0003100268Y0001425299D01*
X0003096518Y0001425299D01*
X0003092769Y0001427174D01*
X0003090894Y0001429049D01*
X0003089019Y0001432798D01*
X0003087144Y0001440298D01*
X0003087144Y0001449671D01*
X0003089019Y0001457170D01*
X0003090894Y0001460920D01*
X0003092769Y0001462795D01*
X0003096518Y0001464670D01*
X0003126514Y0001425299D02*
X0003126514Y0001464670D01*
X0003149012Y0001425299D02*
X0003132139Y0001447797D01*
X0003149012Y0001464670D02*
X0003126514Y0001442172D01*
X0003438873Y0001276571D02*
X0003399503Y0001276571D01*
X0003399503Y0001291569D01*
X0003401377Y0001295318D01*
X0003403252Y0001297193D01*
X0003407002Y0001299068D01*
X0003412626Y0001299068D01*
X0003416376Y0001297193D01*
X0003418250Y0001295318D01*
X0003420125Y0001291569D01*
X0003420125Y0001276571D01*
X0003438873Y0001336563D02*
X0003438873Y0001314066D01*
X0003438873Y0001325314D02*
X0003399503Y0001325314D01*
X0003405127Y0001321565D01*
X0003408877Y0001317815D01*
X0003410751Y0001314066D01*
G04 next file*
G04 #@! TF.FileFunction,Legend,Top*
G04 Gerber Fmt 4.6, Leading zero omitted, Abs format (unit mm)*
G04 Created by KiCad (PCBNEW 4.0.4-stable) date 05/23/17 22:39:58*
G01G01*
G04 APERTURE LIST*
G04 APERTURE END LIST*
D50*
X0001904170Y0003468345D02*
X0002477573Y0003468345D01*
X0002477573Y0003468345D02*
X0002477573Y0002945041D01*
X0002477573Y0002945041D02*
X0001904170Y0002945041D01*
X0001904170Y0002945041D02*
X0001904170Y0003468345D01*
X0001858034Y0003378071D02*
X0001901685Y0003378071D01*
X0001901685Y0003378071D02*
X0001901685Y0003068547D01*
X0001901685Y0003068547D02*
X0001858034Y0003068547D01*
X0001858034Y0003068547D02*
X0001858034Y0003378071D01*
X0002481050Y0003378063D02*
X0002524701Y0003378063D01*
X0002524701Y0003378063D02*
X0002524701Y0003068539D01*
X0002524701Y0003068539D02*
X0002481050Y0003068539D01*
X0002481050Y0003068539D02*
X0002481050Y0003378063D01*
D51*
X0001849448Y0002804035D02*
X0001849448Y0002843405D01*
X0001902992Y0002843405D02*
X0001902992Y0002804035D01*
X0001849448Y0002654035D02*
X0001849448Y0002693405D01*
X0001902992Y0002693405D02*
X0001902992Y0002654035D01*
D52*
X0002300629Y0002895570D02*
X0002300629Y0002816830D01*
X0002300629Y0002816830D02*
X0002166771Y0002816830D01*
X0002166771Y0002816830D02*
X0002166771Y0002895570D01*
X0002166771Y0002895570D02*
X0002300629Y0002895570D01*
X0002300629Y0002753090D02*
X0002300629Y0002674350D01*
X0002300629Y0002674350D02*
X0002166771Y0002674350D01*
X0002166771Y0002674350D02*
X0002166771Y0002753090D01*
X0002166771Y0002753090D02*
X0002300629Y0002753090D01*
X0002143149Y0002895570D02*
X0002143149Y0002816830D01*
X0002143149Y0002816830D02*
X0002009291Y0002816830D01*
X0002009291Y0002816830D02*
X0002009291Y0002895570D01*
X0002009291Y0002895570D02*
X0002143149Y0002895570D01*
X0002143149Y0002753090D02*
X0002143149Y0002674350D01*
X0002143149Y0002674350D02*
X0002009291Y0002674350D01*
X0002009291Y0002674350D02*
X0002009291Y0002753090D01*
X0002009291Y0002753090D02*
X0002143149Y0002753090D01*
D51*
X0002376220Y0002603602D02*
X0001873858Y0002603602D01*
X0001873858Y0002603602D02*
X0001873858Y0002398877D01*
X0001873858Y0002398877D02*
X0002478582Y0002398877D01*
X0002478582Y0002398877D02*
X0002478582Y0002501240D01*
X0002478582Y0002501240D02*
X0002376220Y0002501240D01*
X0002376220Y0002501240D02*
X0002376220Y0002603602D01*
X0002426220Y0002603602D02*
X0002478582Y0002603602D01*
X0002478582Y0002603602D02*
X0002478582Y0002551240D01*
D52*
X0002187703Y0003170280D02*
X0002187703Y0003142158D01*
X0002185828Y0003136534D01*
X0002182079Y0003132784D01*
X0002176454Y0003130910D01*
X0002172705Y0003130910D01*
X0002227073Y0003130910D02*
X0002204576Y0003130910D01*
X0002215824Y0003130910D02*
X0002215824Y0003170280D01*
X0002212075Y0003164655D01*
X0002208325Y0003160906D01*
X0002204576Y0003159031D01*
X0001894030Y0002917158D02*
X0001875283Y0002904035D01*
X0001894030Y0002894661D02*
X0001854660Y0002894661D01*
X0001854660Y0002909659D01*
X0001856535Y0002913409D01*
X0001858410Y0002915284D01*
X0001862159Y0002917158D01*
X0001867784Y0002917158D01*
X0001871533Y0002915284D01*
X0001873408Y0002913409D01*
X0001875283Y0002909659D01*
X0001875283Y0002894661D01*
X0001894030Y0002954654D02*
X0001894030Y0002932156D01*
X0001894030Y0002943405D02*
X0001854660Y0002943405D01*
X0001860285Y0002939655D01*
X0001864034Y0002935906D01*
X0001865909Y0002932156D01*
X0001833410Y0002964976D02*
X0001831535Y0002966851D01*
X0001829660Y0002970600D01*
X0001829660Y0002979974D01*
X0001831535Y0002983724D01*
X0001833410Y0002985598D01*
X0001837159Y0002987473D01*
X0001840909Y0002987473D01*
X0001846533Y0002985598D01*
X0001869030Y0002963101D01*
X0001869030Y0002987473D01*
X0001833410Y0003002471D02*
X0001831535Y0003004346D01*
X0001829660Y0003008096D01*
X0001829660Y0003017470D01*
X0001831535Y0003021219D01*
X0001833410Y0003023094D01*
X0001837159Y0003024969D01*
X0001840909Y0003024969D01*
X0001846533Y0003023094D01*
X0001869030Y0003000597D01*
X0001869030Y0003024969D01*
X0001829660Y0003058714D02*
X0001829660Y0003051215D01*
X0001831535Y0003047466D01*
X0001833410Y0003045591D01*
X0001839034Y0003041841D01*
X0001846533Y0003039967D01*
X0001861531Y0003039967D01*
X0001865281Y0003041841D01*
X0001867156Y0003043716D01*
X0001869030Y0003047466D01*
X0001869030Y0003054965D01*
X0001867156Y0003058714D01*
X0001865281Y0003060589D01*
X0001861531Y0003062464D01*
X0001852157Y0003062464D01*
X0001848408Y0003060589D01*
X0001846533Y0003058714D01*
X0001844658Y0003054965D01*
X0001844658Y0003047466D01*
X0001846533Y0003043716D01*
X0001848408Y0003041841D01*
X0001852157Y0003039967D01*
X0001859658Y0002728410D02*
X0001846535Y0002747157D01*
X0001837161Y0002728410D02*
X0001837161Y0002767780D01*
X0001852159Y0002767780D01*
X0001855909Y0002765905D01*
X0001857784Y0002764030D01*
X0001859658Y0002760281D01*
X0001859658Y0002754656D01*
X0001857784Y0002750907D01*
X0001855909Y0002749032D01*
X0001852159Y0002747157D01*
X0001837161Y0002747157D01*
X0001874656Y0002764030D02*
X0001876531Y0002765905D01*
X0001880281Y0002767780D01*
X0001889655Y0002767780D01*
X0001893404Y0002765905D01*
X0001895279Y0002764030D01*
X0001897154Y0002760281D01*
X0001897154Y0002756531D01*
X0001895279Y0002750907D01*
X0001872782Y0002728410D01*
X0001897154Y0002728410D01*
X0001930284Y0002658724D02*
X0001956530Y0002658724D01*
X0001915285Y0002649350D02*
X0001943407Y0002639976D01*
X0001943407Y0002664348D01*
X0001917160Y0002675597D02*
X0001917160Y0002699969D01*
X0001932158Y0002686845D01*
X0001932158Y0002692470D01*
X0001934033Y0002696219D01*
X0001935908Y0002698094D01*
X0001939657Y0002699969D01*
X0001949031Y0002699969D01*
X0001952781Y0002698094D01*
X0001954656Y0002696219D01*
X0001956530Y0002692470D01*
X0001956530Y0002681221D01*
X0001954656Y0002677471D01*
X0001952781Y0002675597D01*
X0001920910Y0002714967D02*
X0001919035Y0002716841D01*
X0001917160Y0002720591D01*
X0001917160Y0002729965D01*
X0001919035Y0002733714D01*
X0001920910Y0002735589D01*
X0001924659Y0002737464D01*
X0001928409Y0002737464D01*
X0001934033Y0002735589D01*
X0001956530Y0002713092D01*
X0001956530Y0002737464D01*
X0002339954Y0002838390D02*
X0002326830Y0002857138D01*
X0002317456Y0002838390D02*
X0002317456Y0002877760D01*
X0002332455Y0002877760D01*
X0002336204Y0002875885D01*
X0002338079Y0002874011D01*
X0002339954Y0002870261D01*
X0002339954Y0002864637D01*
X0002338079Y0002860887D01*
X0002336204Y0002859012D01*
X0002332455Y0002857138D01*
X0002317456Y0002857138D01*
X0002356827Y0002838390D02*
X0002356827Y0002877760D01*
X0002371825Y0002877760D01*
X0002375574Y0002875885D01*
X0002377449Y0002874011D01*
X0002379324Y0002870261D01*
X0002379324Y0002864637D01*
X0002377449Y0002860887D01*
X0002375574Y0002859012D01*
X0002371825Y0002857138D01*
X0002356827Y0002857138D01*
X0002416819Y0002838390D02*
X0002394322Y0002838390D01*
X0002405570Y0002838390D02*
X0002405570Y0002877760D01*
X0002401821Y0002872136D01*
X0002398071Y0002868386D01*
X0002394322Y0002866511D01*
X0002456516Y0002838390D02*
X0002434019Y0002838390D01*
X0002445268Y0002838390D02*
X0002445268Y0002877760D01*
X0002441518Y0002872136D01*
X0002437769Y0002868386D01*
X0002434019Y0002866511D01*
X0002480888Y0002877760D02*
X0002484638Y0002877760D01*
X0002488387Y0002875885D01*
X0002490262Y0002874011D01*
X0002492137Y0002870261D01*
X0002494012Y0002862762D01*
X0002494012Y0002853388D01*
X0002492137Y0002845889D01*
X0002490262Y0002842140D01*
X0002488387Y0002840265D01*
X0002484638Y0002838390D01*
X0002480888Y0002838390D01*
X0002477139Y0002840265D01*
X0002475264Y0002842140D01*
X0002473389Y0002845889D01*
X0002471514Y0002853388D01*
X0002471514Y0002862762D01*
X0002473389Y0002870261D01*
X0002475264Y0002874011D01*
X0002477139Y0002875885D01*
X0002480888Y0002877760D01*
X0002510884Y0002838390D02*
X0002510884Y0002877760D01*
X0002533382Y0002838390D02*
X0002516509Y0002860887D01*
X0002533382Y0002877760D02*
X0002510884Y0002855263D01*
X0002339954Y0002705910D02*
X0002326830Y0002724657D01*
X0002317456Y0002705910D02*
X0002317456Y0002745280D01*
X0002332455Y0002745280D01*
X0002336204Y0002743405D01*
X0002338079Y0002741530D01*
X0002339954Y0002737781D01*
X0002339954Y0002732156D01*
X0002338079Y0002728407D01*
X0002336204Y0002726532D01*
X0002332455Y0002724657D01*
X0002317456Y0002724657D01*
X0002356827Y0002705910D02*
X0002356827Y0002745280D01*
X0002371825Y0002745280D01*
X0002375574Y0002743405D01*
X0002377449Y0002741530D01*
X0002379324Y0002737781D01*
X0002379324Y0002732156D01*
X0002377449Y0002728407D01*
X0002375574Y0002726532D01*
X0002371825Y0002724657D01*
X0002356827Y0002724657D01*
X0002394322Y0002741530D02*
X0002396197Y0002743405D01*
X0002399946Y0002745280D01*
X0002409320Y0002745280D01*
X0002413070Y0002743405D01*
X0002414944Y0002741530D01*
X0002416819Y0002737781D01*
X0002416819Y0002734031D01*
X0002414944Y0002728407D01*
X0002392447Y0002705910D01*
X0002416819Y0002705910D01*
X0002459016Y0002705910D02*
X0002436519Y0002705910D01*
X0002447768Y0002705910D02*
X0002447768Y0002745280D01*
X0002444018Y0002739655D01*
X0002440269Y0002735906D01*
X0002436519Y0002734031D01*
X0002483388Y0002745280D02*
X0002487138Y0002745280D01*
X0002490887Y0002743405D01*
X0002492762Y0002741530D01*
X0002494637Y0002737781D01*
X0002496512Y0002730282D01*
X0002496512Y0002720908D01*
X0002494637Y0002713409D01*
X0002492762Y0002709659D01*
X0002490887Y0002707784D01*
X0002487138Y0002705910D01*
X0002483388Y0002705910D01*
X0002479639Y0002707784D01*
X0002477764Y0002709659D01*
X0002475889Y0002713409D01*
X0002474014Y0002720908D01*
X0002474014Y0002730282D01*
X0002475889Y0002737781D01*
X0002477764Y0002741530D01*
X0002479639Y0002743405D01*
X0002483388Y0002745280D01*
X0002513384Y0002705910D02*
X0002513384Y0002745280D01*
X0002535882Y0002705910D02*
X0002519009Y0002728407D01*
X0002535882Y0002745280D02*
X0002513384Y0002722783D01*
X0001927473Y0002880890D02*
X0001914350Y0002899638D01*
X0001904976Y0002880890D02*
X0001904976Y0002920260D01*
X0001919974Y0002920260D01*
X0001923724Y0002918385D01*
X0001925599Y0002916511D01*
X0001927473Y0002912761D01*
X0001927473Y0002907137D01*
X0001925599Y0002903387D01*
X0001923724Y0002901512D01*
X0001919974Y0002899638D01*
X0001904976Y0002899638D01*
X0001944346Y0002880890D02*
X0001944346Y0002920260D01*
X0001959344Y0002920260D01*
X0001963094Y0002918385D01*
X0001964969Y0002916511D01*
X0001966843Y0002912761D01*
X0001966843Y0002907137D01*
X0001964969Y0002903387D01*
X0001963094Y0002901512D01*
X0001959344Y0002899638D01*
X0001944346Y0002899638D01*
X0001979967Y0002920260D02*
X0002004339Y0002920260D01*
X0001991215Y0002905262D01*
X0001996840Y0002905262D01*
X0002000589Y0002903387D01*
X0002002464Y0002901512D01*
X0002004339Y0002897763D01*
X0002004339Y0002888389D01*
X0002002464Y0002884640D01*
X0002000589Y0002882765D01*
X0001996840Y0002880890D01*
X0001985591Y0002880890D01*
X0001981842Y0002882765D01*
X0001979967Y0002884640D01*
X0001929036Y0002825890D02*
X0001906539Y0002825890D01*
X0001917787Y0002825890D02*
X0001917787Y0002865260D01*
X0001914038Y0002859636D01*
X0001910288Y0002855886D01*
X0001906539Y0002854011D01*
X0001953408Y0002865260D02*
X0001957157Y0002865260D01*
X0001960907Y0002863385D01*
X0001962782Y0002861511D01*
X0001964656Y0002857761D01*
X0001966531Y0002850262D01*
X0001966531Y0002840888D01*
X0001964656Y0002833389D01*
X0001962782Y0002829640D01*
X0001960907Y0002827765D01*
X0001957157Y0002825890D01*
X0001953408Y0002825890D01*
X0001949658Y0002827765D01*
X0001947784Y0002829640D01*
X0001945909Y0002833389D01*
X0001944034Y0002840888D01*
X0001944034Y0002850262D01*
X0001945909Y0002857761D01*
X0001947784Y0002861511D01*
X0001949658Y0002863385D01*
X0001953408Y0002865260D01*
X0001983404Y0002825890D02*
X0001983404Y0002865260D01*
X0002005901Y0002825890D02*
X0001989028Y0002848387D01*
X0002005901Y0002865260D02*
X0001983404Y0002842763D01*
X0002044973Y0002618410D02*
X0002031850Y0002637157D01*
X0002022476Y0002618410D02*
X0002022476Y0002657780D01*
X0002037474Y0002657780D01*
X0002041224Y0002655905D01*
X0002043099Y0002654030D01*
X0002044973Y0002650281D01*
X0002044973Y0002644656D01*
X0002043099Y0002640907D01*
X0002041224Y0002639032D01*
X0002037474Y0002637157D01*
X0002022476Y0002637157D01*
X0002061846Y0002618410D02*
X0002061846Y0002657780D01*
X0002076844Y0002657780D01*
X0002080594Y0002655905D01*
X0002082469Y0002654030D01*
X0002084343Y0002650281D01*
X0002084343Y0002644656D01*
X0002082469Y0002640907D01*
X0002080594Y0002639032D01*
X0002076844Y0002637157D01*
X0002061846Y0002637157D01*
X0002118089Y0002644656D02*
X0002118089Y0002618410D01*
X0002108715Y0002659655D02*
X0002099342Y0002631533D01*
X0002123713Y0002631533D01*
X0002169036Y0002620910D02*
X0002146539Y0002620910D01*
X0002157787Y0002620910D02*
X0002157787Y0002660280D01*
X0002154038Y0002654655D01*
X0002150288Y0002650906D01*
X0002146539Y0002649031D01*
X0002193408Y0002660280D02*
X0002197157Y0002660280D01*
X0002200907Y0002658405D01*
X0002202782Y0002656530D01*
X0002204656Y0002652781D01*
X0002206531Y0002645282D01*
X0002206531Y0002635908D01*
X0002204656Y0002628409D01*
X0002202782Y0002624659D01*
X0002200907Y0002622784D01*
X0002197157Y0002620910D01*
X0002193408Y0002620910D01*
X0002189658Y0002622784D01*
X0002187784Y0002624659D01*
X0002185909Y0002628409D01*
X0002184034Y0002635908D01*
X0002184034Y0002645282D01*
X0002185909Y0002652781D01*
X0002187784Y0002656530D01*
X0002189658Y0002658405D01*
X0002193408Y0002660280D01*
X0002223404Y0002620910D02*
X0002223404Y0002660280D01*
X0002245901Y0002620910D02*
X0002229028Y0002643407D01*
X0002245901Y0002660280D02*
X0002223404Y0002637783D01*
X0002535763Y0002472181D02*
X0002496392Y0002472181D01*
X0002496392Y0002487179D01*
X0002498267Y0002490928D01*
X0002500142Y0002492803D01*
X0002503892Y0002494678D01*
X0002509516Y0002494678D01*
X0002513265Y0002492803D01*
X0002515140Y0002490928D01*
X0002517015Y0002487179D01*
X0002517015Y0002472181D01*
X0002535763Y0002532173D02*
X0002535763Y0002509676D01*
X0002535763Y0002520925D02*
X0002496392Y0002520925D01*
X0002502017Y0002517175D01*
X0002505766Y0002513426D01*
X0002507641Y0002509676D01*
G04 next file*
G04 #@! TF.FileFunction,Legend,Top*
G04 Gerber Fmt 4.6, Leading zero omitted, Abs format (unit mm)*
G04 Created by KiCad (PCBNEW 4.0.4-stable) date 05/23/17 22:39:58*
G01G01*
G04 APERTURE LIST*
G04 APERTURE END LIST*
D53*
X0002807280Y0003468345D02*
X0003380684Y0003468345D01*
X0003380684Y0003468345D02*
X0003380684Y0002945041D01*
X0003380684Y0002945041D02*
X0002807280Y0002945041D01*
X0002807280Y0002945041D02*
X0002807280Y0003468345D01*
X0002761145Y0003378071D02*
X0002804795Y0003378071D01*
X0002804795Y0003378071D02*
X0002804795Y0003068547D01*
X0002804795Y0003068547D02*
X0002761145Y0003068547D01*
X0002761145Y0003068547D02*
X0002761145Y0003378071D01*
X0003384160Y0003378063D02*
X0003427811Y0003378063D01*
X0003427811Y0003378063D02*
X0003427811Y0003068539D01*
X0003427811Y0003068539D02*
X0003384160Y0003068539D01*
X0003384160Y0003068539D02*
X0003384160Y0003378063D01*
D54*
X0002752559Y0002804035D02*
X0002752559Y0002843405D01*
X0002806102Y0002843405D02*
X0002806102Y0002804035D01*
X0002752559Y0002654035D02*
X0002752559Y0002693405D01*
X0002806102Y0002693405D02*
X0002806102Y0002654035D01*
D55*
X0003203740Y0002895570D02*
X0003203740Y0002816830D01*
X0003203740Y0002816830D02*
X0003069881Y0002816830D01*
X0003069881Y0002816830D02*
X0003069881Y0002895570D01*
X0003069881Y0002895570D02*
X0003203740Y0002895570D01*
X0003203740Y0002753090D02*
X0003203740Y0002674350D01*
X0003203740Y0002674350D02*
X0003069881Y0002674350D01*
X0003069881Y0002674350D02*
X0003069881Y0002753090D01*
X0003069881Y0002753090D02*
X0003203740Y0002753090D01*
X0003046259Y0002895570D02*
X0003046259Y0002816830D01*
X0003046259Y0002816830D02*
X0002912401Y0002816830D01*
X0002912401Y0002816830D02*
X0002912401Y0002895570D01*
X0002912401Y0002895570D02*
X0003046259Y0002895570D01*
X0003046259Y0002753090D02*
X0003046259Y0002674350D01*
X0003046259Y0002674350D02*
X0002912401Y0002674350D01*
X0002912401Y0002674350D02*
X0002912401Y0002753090D01*
X0002912401Y0002753090D02*
X0003046259Y0002753090D01*
D54*
X0003279330Y0002603602D02*
X0002776968Y0002603602D01*
X0002776968Y0002603602D02*
X0002776968Y0002398877D01*
X0002776968Y0002398877D02*
X0003381692Y0002398877D01*
X0003381692Y0002398877D02*
X0003381692Y0002501240D01*
X0003381692Y0002501240D02*
X0003279330Y0002501240D01*
X0003279330Y0002501240D02*
X0003279330Y0002603602D01*
X0003329330Y0002603602D02*
X0003381692Y0002603602D01*
X0003381692Y0002603602D02*
X0003381692Y0002551240D01*
D55*
X0003090813Y0003170280D02*
X0003090813Y0003142158D01*
X0003088938Y0003136534D01*
X0003085189Y0003132784D01*
X0003079565Y0003130910D01*
X0003075815Y0003130910D01*
X0003130183Y0003130910D02*
X0003107686Y0003130910D01*
X0003118935Y0003130910D02*
X0003118935Y0003170280D01*
X0003115185Y0003164655D01*
X0003111436Y0003160906D01*
X0003107686Y0003159031D01*
X0002797140Y0002917158D02*
X0002778393Y0002904035D01*
X0002797140Y0002894661D02*
X0002757770Y0002894661D01*
X0002757770Y0002909659D01*
X0002759645Y0002913409D01*
X0002761520Y0002915284D01*
X0002765269Y0002917158D01*
X0002770894Y0002917158D01*
X0002774643Y0002915284D01*
X0002776518Y0002913409D01*
X0002778393Y0002909659D01*
X0002778393Y0002894661D01*
X0002797140Y0002954654D02*
X0002797140Y0002932156D01*
X0002797140Y0002943405D02*
X0002757770Y0002943405D01*
X0002763395Y0002939655D01*
X0002767144Y0002935906D01*
X0002769019Y0002932156D01*
X0002736520Y0002964976D02*
X0002734645Y0002966851D01*
X0002732770Y0002970600D01*
X0002732770Y0002979974D01*
X0002734645Y0002983724D01*
X0002736520Y0002985598D01*
X0002740269Y0002987473D01*
X0002744019Y0002987473D01*
X0002749643Y0002985598D01*
X0002772140Y0002963101D01*
X0002772140Y0002987473D01*
X0002736520Y0003002471D02*
X0002734645Y0003004346D01*
X0002732770Y0003008096D01*
X0002732770Y0003017470D01*
X0002734645Y0003021219D01*
X0002736520Y0003023094D01*
X0002740269Y0003024969D01*
X0002744019Y0003024969D01*
X0002749643Y0003023094D01*
X0002772140Y0003000597D01*
X0002772140Y0003024969D01*
X0002732770Y0003058714D02*
X0002732770Y0003051215D01*
X0002734645Y0003047466D01*
X0002736520Y0003045591D01*
X0002742144Y0003041841D01*
X0002749643Y0003039967D01*
X0002764641Y0003039967D01*
X0002768391Y0003041841D01*
X0002770266Y0003043716D01*
X0002772140Y0003047466D01*
X0002772140Y0003054965D01*
X0002770266Y0003058714D01*
X0002768391Y0003060589D01*
X0002764641Y0003062464D01*
X0002755268Y0003062464D01*
X0002751518Y0003060589D01*
X0002749643Y0003058714D01*
X0002747769Y0003054965D01*
X0002747769Y0003047466D01*
X0002749643Y0003043716D01*
X0002751518Y0003041841D01*
X0002755268Y0003039967D01*
X0002762769Y0002728410D02*
X0002749645Y0002747157D01*
X0002740271Y0002728410D02*
X0002740271Y0002767780D01*
X0002755270Y0002767780D01*
X0002759019Y0002765905D01*
X0002760894Y0002764030D01*
X0002762769Y0002760281D01*
X0002762769Y0002754656D01*
X0002760894Y0002750907D01*
X0002759019Y0002749032D01*
X0002755270Y0002747157D01*
X0002740271Y0002747157D01*
X0002777767Y0002764030D02*
X0002779641Y0002765905D01*
X0002783391Y0002767780D01*
X0002792765Y0002767780D01*
X0002796514Y0002765905D01*
X0002798389Y0002764030D01*
X0002800264Y0002760281D01*
X0002800264Y0002756531D01*
X0002798389Y0002750907D01*
X0002775892Y0002728410D01*
X0002800264Y0002728410D01*
X0002833394Y0002658724D02*
X0002859640Y0002658724D01*
X0002818396Y0002649350D02*
X0002846517Y0002639976D01*
X0002846517Y0002664348D01*
X0002820270Y0002675597D02*
X0002820270Y0002699969D01*
X0002835269Y0002686845D01*
X0002835269Y0002692470D01*
X0002837143Y0002696219D01*
X0002839018Y0002698094D01*
X0002842768Y0002699969D01*
X0002852141Y0002699969D01*
X0002855891Y0002698094D01*
X0002857766Y0002696219D01*
X0002859640Y0002692470D01*
X0002859640Y0002681221D01*
X0002857766Y0002677471D01*
X0002855891Y0002675597D01*
X0002824020Y0002714967D02*
X0002822145Y0002716841D01*
X0002820270Y0002720591D01*
X0002820270Y0002729965D01*
X0002822145Y0002733714D01*
X0002824020Y0002735589D01*
X0002827769Y0002737464D01*
X0002831519Y0002737464D01*
X0002837143Y0002735589D01*
X0002859640Y0002713092D01*
X0002859640Y0002737464D01*
X0003243064Y0002838390D02*
X0003229940Y0002857138D01*
X0003220567Y0002838390D02*
X0003220567Y0002877760D01*
X0003235565Y0002877760D01*
X0003239314Y0002875885D01*
X0003241189Y0002874011D01*
X0003243064Y0002870261D01*
X0003243064Y0002864637D01*
X0003241189Y0002860887D01*
X0003239314Y0002859012D01*
X0003235565Y0002857138D01*
X0003220567Y0002857138D01*
X0003259937Y0002838390D02*
X0003259937Y0002877760D01*
X0003274935Y0002877760D01*
X0003278684Y0002875885D01*
X0003280559Y0002874011D01*
X0003282434Y0002870261D01*
X0003282434Y0002864637D01*
X0003280559Y0002860887D01*
X0003278684Y0002859012D01*
X0003274935Y0002857138D01*
X0003259937Y0002857138D01*
X0003319929Y0002838390D02*
X0003297432Y0002838390D01*
X0003308681Y0002838390D02*
X0003308681Y0002877760D01*
X0003304931Y0002872136D01*
X0003301182Y0002868386D01*
X0003297432Y0002866511D01*
X0003359626Y0002838390D02*
X0003337129Y0002838390D01*
X0003348378Y0002838390D02*
X0003348378Y0002877760D01*
X0003344628Y0002872136D01*
X0003340879Y0002868386D01*
X0003337129Y0002866511D01*
X0003383998Y0002877760D02*
X0003387748Y0002877760D01*
X0003391497Y0002875885D01*
X0003393372Y0002874011D01*
X0003395247Y0002870261D01*
X0003397122Y0002862762D01*
X0003397122Y0002853388D01*
X0003395247Y0002845889D01*
X0003393372Y0002842140D01*
X0003391497Y0002840265D01*
X0003387748Y0002838390D01*
X0003383998Y0002838390D01*
X0003380249Y0002840265D01*
X0003378374Y0002842140D01*
X0003376499Y0002845889D01*
X0003374625Y0002853388D01*
X0003374625Y0002862762D01*
X0003376499Y0002870261D01*
X0003378374Y0002874011D01*
X0003380249Y0002875885D01*
X0003383998Y0002877760D01*
X0003413995Y0002838390D02*
X0003413995Y0002877760D01*
X0003436492Y0002838390D02*
X0003419619Y0002860887D01*
X0003436492Y0002877760D02*
X0003413995Y0002855263D01*
X0003243064Y0002705910D02*
X0003229940Y0002724657D01*
X0003220567Y0002705910D02*
X0003220567Y0002745280D01*
X0003235565Y0002745280D01*
X0003239314Y0002743405D01*
X0003241189Y0002741530D01*
X0003243064Y0002737781D01*
X0003243064Y0002732156D01*
X0003241189Y0002728407D01*
X0003239314Y0002726532D01*
X0003235565Y0002724657D01*
X0003220567Y0002724657D01*
X0003259937Y0002705910D02*
X0003259937Y0002745280D01*
X0003274935Y0002745280D01*
X0003278684Y0002743405D01*
X0003280559Y0002741530D01*
X0003282434Y0002737781D01*
X0003282434Y0002732156D01*
X0003280559Y0002728407D01*
X0003278684Y0002726532D01*
X0003274935Y0002724657D01*
X0003259937Y0002724657D01*
X0003297432Y0002741530D02*
X0003299307Y0002743405D01*
X0003303056Y0002745280D01*
X0003312430Y0002745280D01*
X0003316180Y0002743405D01*
X0003318054Y0002741530D01*
X0003319929Y0002737781D01*
X0003319929Y0002734031D01*
X0003318054Y0002728407D01*
X0003295557Y0002705910D01*
X0003319929Y0002705910D01*
X0003362126Y0002705910D02*
X0003339629Y0002705910D01*
X0003350878Y0002705910D02*
X0003350878Y0002745280D01*
X0003347128Y0002739655D01*
X0003343379Y0002735906D01*
X0003339629Y0002734031D01*
X0003386498Y0002745280D02*
X0003390248Y0002745280D01*
X0003393997Y0002743405D01*
X0003395872Y0002741530D01*
X0003397747Y0002737781D01*
X0003399622Y0002730282D01*
X0003399622Y0002720908D01*
X0003397747Y0002713409D01*
X0003395872Y0002709659D01*
X0003393997Y0002707784D01*
X0003390248Y0002705910D01*
X0003386498Y0002705910D01*
X0003382749Y0002707784D01*
X0003380874Y0002709659D01*
X0003378999Y0002713409D01*
X0003377125Y0002720908D01*
X0003377125Y0002730282D01*
X0003378999Y0002737781D01*
X0003380874Y0002741530D01*
X0003382749Y0002743405D01*
X0003386498Y0002745280D01*
X0003416495Y0002705910D02*
X0003416495Y0002745280D01*
X0003438992Y0002705910D02*
X0003422119Y0002728407D01*
X0003438992Y0002745280D02*
X0003416495Y0002722783D01*
X0002830584Y0002880890D02*
X0002817460Y0002899638D01*
X0002808086Y0002880890D02*
X0002808086Y0002920260D01*
X0002823084Y0002920260D01*
X0002826834Y0002918385D01*
X0002828709Y0002916511D01*
X0002830584Y0002912761D01*
X0002830584Y0002907137D01*
X0002828709Y0002903387D01*
X0002826834Y0002901512D01*
X0002823084Y0002899638D01*
X0002808086Y0002899638D01*
X0002847456Y0002880890D02*
X0002847456Y0002920260D01*
X0002862455Y0002920260D01*
X0002866204Y0002918385D01*
X0002868079Y0002916511D01*
X0002869954Y0002912761D01*
X0002869954Y0002907137D01*
X0002868079Y0002903387D01*
X0002866204Y0002901512D01*
X0002862455Y0002899638D01*
X0002847456Y0002899638D01*
X0002883077Y0002920260D02*
X0002907449Y0002920260D01*
X0002894326Y0002905262D01*
X0002899950Y0002905262D01*
X0002903699Y0002903387D01*
X0002905574Y0002901512D01*
X0002907449Y0002897763D01*
X0002907449Y0002888389D01*
X0002905574Y0002884640D01*
X0002903699Y0002882765D01*
X0002899950Y0002880890D01*
X0002888701Y0002880890D01*
X0002884952Y0002882765D01*
X0002883077Y0002884640D01*
X0002832146Y0002825890D02*
X0002809649Y0002825890D01*
X0002820897Y0002825890D02*
X0002820897Y0002865260D01*
X0002817148Y0002859636D01*
X0002813398Y0002855886D01*
X0002809649Y0002854011D01*
X0002856518Y0002865260D02*
X0002860268Y0002865260D01*
X0002864017Y0002863385D01*
X0002865892Y0002861511D01*
X0002867767Y0002857761D01*
X0002869641Y0002850262D01*
X0002869641Y0002840888D01*
X0002867767Y0002833389D01*
X0002865892Y0002829640D01*
X0002864017Y0002827765D01*
X0002860268Y0002825890D01*
X0002856518Y0002825890D01*
X0002852769Y0002827765D01*
X0002850894Y0002829640D01*
X0002849019Y0002833389D01*
X0002847144Y0002840888D01*
X0002847144Y0002850262D01*
X0002849019Y0002857761D01*
X0002850894Y0002861511D01*
X0002852769Y0002863385D01*
X0002856518Y0002865260D01*
X0002886514Y0002825890D02*
X0002886514Y0002865260D01*
X0002909012Y0002825890D02*
X0002892139Y0002848387D01*
X0002909012Y0002865260D02*
X0002886514Y0002842763D01*
X0002948084Y0002618410D02*
X0002934960Y0002637157D01*
X0002925586Y0002618410D02*
X0002925586Y0002657780D01*
X0002940584Y0002657780D01*
X0002944334Y0002655905D01*
X0002946209Y0002654030D01*
X0002948084Y0002650281D01*
X0002948084Y0002644656D01*
X0002946209Y0002640907D01*
X0002944334Y0002639032D01*
X0002940584Y0002637157D01*
X0002925586Y0002637157D01*
X0002964956Y0002618410D02*
X0002964956Y0002657780D01*
X0002979955Y0002657780D01*
X0002983704Y0002655905D01*
X0002985579Y0002654030D01*
X0002987454Y0002650281D01*
X0002987454Y0002644656D01*
X0002985579Y0002640907D01*
X0002983704Y0002639032D01*
X0002979955Y0002637157D01*
X0002964956Y0002637157D01*
X0003021199Y0002644656D02*
X0003021199Y0002618410D01*
X0003011826Y0002659655D02*
X0003002452Y0002631533D01*
X0003026824Y0002631533D01*
X0003072146Y0002620910D02*
X0003049649Y0002620910D01*
X0003060897Y0002620910D02*
X0003060897Y0002660280D01*
X0003057148Y0002654655D01*
X0003053398Y0002650906D01*
X0003049649Y0002649031D01*
X0003096518Y0002660280D02*
X0003100268Y0002660280D01*
X0003104017Y0002658405D01*
X0003105892Y0002656530D01*
X0003107767Y0002652781D01*
X0003109641Y0002645282D01*
X0003109641Y0002635908D01*
X0003107767Y0002628409D01*
X0003105892Y0002624659D01*
X0003104017Y0002622784D01*
X0003100268Y0002620910D01*
X0003096518Y0002620910D01*
X0003092769Y0002622784D01*
X0003090894Y0002624659D01*
X0003089019Y0002628409D01*
X0003087144Y0002635908D01*
X0003087144Y0002645282D01*
X0003089019Y0002652781D01*
X0003090894Y0002656530D01*
X0003092769Y0002658405D01*
X0003096518Y0002660280D01*
X0003126514Y0002620910D02*
X0003126514Y0002660280D01*
X0003149012Y0002620910D02*
X0003132139Y0002643407D01*
X0003149012Y0002660280D02*
X0003126514Y0002637783D01*
X0003438873Y0002472181D02*
X0003399503Y0002472181D01*
X0003399503Y0002487179D01*
X0003401377Y0002490928D01*
X0003403252Y0002492803D01*
X0003407002Y0002494678D01*
X0003412626Y0002494678D01*
X0003416376Y0002492803D01*
X0003418250Y0002490928D01*
X0003420125Y0002487179D01*
X0003420125Y0002472181D01*
X0003438873Y0002532173D02*
X0003438873Y0002509676D01*
X0003438873Y0002520925D02*
X0003399503Y0002520925D01*
X0003405127Y0002517175D01*
X0003408877Y0002513426D01*
X0003410751Y0002509676D01*
M02*