%TF.GenerationSoftware,KiCad,Pcbnew,(5.0.1)-3*%
%TF.CreationDate,2018-12-23T10:43:27+11:00*%
%TF.ProjectId,16_Channel_SSR_Driver,31365F4368616E6E656C5F5353525F44,1.2*%
%TF.SameCoordinates,PX7c25018PY69db1f0*%
%TF.FileFunction,Legend,Bot*%
%TF.FilePolarity,Positive*%
%FSLAX46Y46*%
G04 Gerber Fmt 4.6, Leading zero omitted, Abs format (unit mm)*
G04 Created by KiCad (PCBNEW (5.0.1)-3) date 23/12/2018 10:43:27 AM*
%MOMM*%
%LPD*%
G01*
G04 APERTURE LIST*
%ADD10C,0.150000*%
%ADD11C,0.300000*%
%ADD12C,0.100000*%
G04 APERTURE END LIST*
D10*
X44552904Y-21994761D02*
X44410047Y-22042380D01*
X44171952Y-22042380D01*
X44076714Y-21994761D01*
X44029095Y-21947142D01*
X43981476Y-21851904D01*
X43981476Y-21756666D01*
X44029095Y-21661428D01*
X44076714Y-21613809D01*
X44171952Y-21566190D01*
X44362428Y-21518571D01*
X44457666Y-21470952D01*
X44505285Y-21423333D01*
X44552904Y-21328095D01*
X44552904Y-21232857D01*
X44505285Y-21137619D01*
X44457666Y-21090000D01*
X44362428Y-21042380D01*
X44124333Y-21042380D01*
X43981476Y-21090000D01*
X43648142Y-21042380D02*
X43410047Y-22042380D01*
X43219571Y-21328095D01*
X43029095Y-22042380D01*
X42791000Y-21042380D01*
X41838619Y-21947142D02*
X41886238Y-21994761D01*
X42029095Y-22042380D01*
X42124333Y-22042380D01*
X42267190Y-21994761D01*
X42362428Y-21899523D01*
X42410047Y-21804285D01*
X42457666Y-21613809D01*
X42457666Y-21470952D01*
X42410047Y-21280476D01*
X42362428Y-21185238D01*
X42267190Y-21090000D01*
X42124333Y-21042380D01*
X42029095Y-21042380D01*
X41886238Y-21090000D01*
X41838619Y-21137619D01*
X40933857Y-22042380D02*
X41410047Y-22042380D01*
X41410047Y-21042380D01*
X40600523Y-22042380D02*
X40600523Y-21042380D01*
X40029095Y-22042380D02*
X40457666Y-21470952D01*
X40029095Y-21042380D02*
X40600523Y-21613809D01*
X44457666Y-19454761D02*
X44314809Y-19502380D01*
X44076714Y-19502380D01*
X43981476Y-19454761D01*
X43933857Y-19407142D01*
X43886238Y-19311904D01*
X43886238Y-19216666D01*
X43933857Y-19121428D01*
X43981476Y-19073809D01*
X44076714Y-19026190D01*
X44267190Y-18978571D01*
X44362428Y-18930952D01*
X44410047Y-18883333D01*
X44457666Y-18788095D01*
X44457666Y-18692857D01*
X44410047Y-18597619D01*
X44362428Y-18550000D01*
X44267190Y-18502380D01*
X44029095Y-18502380D01*
X43886238Y-18550000D01*
X43552904Y-18502380D02*
X43314809Y-19502380D01*
X43124333Y-18788095D01*
X42933857Y-19502380D01*
X42695761Y-18502380D01*
X42314809Y-19502380D02*
X42314809Y-18502380D01*
X42076714Y-18502380D01*
X41933857Y-18550000D01*
X41838619Y-18645238D01*
X41791000Y-18740476D01*
X41743380Y-18930952D01*
X41743380Y-19073809D01*
X41791000Y-19264285D01*
X41838619Y-19359523D01*
X41933857Y-19454761D01*
X42076714Y-19502380D01*
X42314809Y-19502380D01*
X41362428Y-19216666D02*
X40886238Y-19216666D01*
X41457666Y-19502380D02*
X41124333Y-18502380D01*
X40791000Y-19502380D01*
X40600523Y-18502380D02*
X40029095Y-18502380D01*
X40314809Y-19502380D02*
X40314809Y-18502380D01*
X38703000Y-19121428D02*
X37941095Y-19121428D01*
X38322047Y-19502380D02*
X38322047Y-18740476D01*
X37560142Y-18502380D02*
X36941095Y-18502380D01*
X37274428Y-18883333D01*
X37131571Y-18883333D01*
X37036333Y-18930952D01*
X36988714Y-18978571D01*
X36941095Y-19073809D01*
X36941095Y-19311904D01*
X36988714Y-19407142D01*
X37036333Y-19454761D01*
X37131571Y-19502380D01*
X37417285Y-19502380D01*
X37512523Y-19454761D01*
X37560142Y-19407142D01*
X36512523Y-19407142D02*
X36464904Y-19454761D01*
X36512523Y-19502380D01*
X36560142Y-19454761D01*
X36512523Y-19407142D01*
X36512523Y-19502380D01*
X36131571Y-18502380D02*
X35512523Y-18502380D01*
X35845857Y-18883333D01*
X35703000Y-18883333D01*
X35607761Y-18930952D01*
X35560142Y-18978571D01*
X35512523Y-19073809D01*
X35512523Y-19311904D01*
X35560142Y-19407142D01*
X35607761Y-19454761D01*
X35703000Y-19502380D01*
X35988714Y-19502380D01*
X36083952Y-19454761D01*
X36131571Y-19407142D01*
X35226809Y-18502380D02*
X34893476Y-19502380D01*
X34560142Y-18502380D01*
X37853857Y-21090000D02*
X37949095Y-21042380D01*
X38091952Y-21042380D01*
X38234809Y-21090000D01*
X38330047Y-21185238D01*
X38377666Y-21280476D01*
X38425285Y-21470952D01*
X38425285Y-21613809D01*
X38377666Y-21804285D01*
X38330047Y-21899523D01*
X38234809Y-21994761D01*
X38091952Y-22042380D01*
X37996714Y-22042380D01*
X37853857Y-21994761D01*
X37806238Y-21947142D01*
X37806238Y-21613809D01*
X37996714Y-21613809D01*
X37377666Y-21375714D02*
X37377666Y-22042380D01*
X37377666Y-21470952D02*
X37330047Y-21423333D01*
X37234809Y-21375714D01*
X37091952Y-21375714D01*
X36996714Y-21423333D01*
X36949095Y-21518571D01*
X36949095Y-22042380D01*
X36044333Y-22042380D02*
X36044333Y-21042380D01*
X36044333Y-21994761D02*
X36139571Y-22042380D01*
X36330047Y-22042380D01*
X36425285Y-21994761D01*
X36472904Y-21947142D01*
X36520523Y-21851904D01*
X36520523Y-21566190D01*
X36472904Y-21470952D01*
X36425285Y-21423333D01*
X36330047Y-21375714D01*
X36139571Y-21375714D01*
X36044333Y-21423333D01*
X2865380Y-24138095D02*
X2865380Y-23566666D01*
X2865380Y-23852380D02*
X1865380Y-23852380D01*
X2008238Y-23757142D01*
X2103476Y-23661904D01*
X2151095Y-23566666D01*
X1865380Y-24471428D02*
X2865380Y-24709523D01*
X2151095Y-24900000D01*
X2865380Y-25090476D01*
X1865380Y-25328571D01*
X2865380Y-25709523D02*
X2198714Y-25709523D01*
X1865380Y-25709523D02*
X1913000Y-25661904D01*
X1960619Y-25709523D01*
X1913000Y-25757142D01*
X1865380Y-25709523D01*
X1960619Y-25709523D01*
X2865380Y-26185714D02*
X2198714Y-26185714D01*
X2389190Y-26185714D02*
X2293952Y-26233333D01*
X2246333Y-26280952D01*
X2198714Y-26376190D01*
X2198714Y-26471428D01*
X2817761Y-27185714D02*
X2865380Y-27090476D01*
X2865380Y-26900000D01*
X2817761Y-26804761D01*
X2722523Y-26757142D01*
X2341571Y-26757142D01*
X2246333Y-26804761D01*
X2198714Y-26900000D01*
X2198714Y-27090476D01*
X2246333Y-27185714D01*
X2341571Y-27233333D01*
X2436809Y-27233333D01*
X2532047Y-26757142D01*
X5278428Y-23400000D02*
X5278428Y-24161904D01*
X5659380Y-23780952D02*
X4897476Y-23780952D01*
X4659380Y-24542857D02*
X4659380Y-25161904D01*
X5040333Y-24828571D01*
X5040333Y-24971428D01*
X5087952Y-25066666D01*
X5135571Y-25114285D01*
X5230809Y-25161904D01*
X5468904Y-25161904D01*
X5564142Y-25114285D01*
X5611761Y-25066666D01*
X5659380Y-24971428D01*
X5659380Y-24685714D01*
X5611761Y-24590476D01*
X5564142Y-24542857D01*
X5564142Y-25590476D02*
X5611761Y-25638095D01*
X5659380Y-25590476D01*
X5611761Y-25542857D01*
X5564142Y-25590476D01*
X5659380Y-25590476D01*
X4659380Y-25971428D02*
X4659380Y-26590476D01*
X5040333Y-26257142D01*
X5040333Y-26400000D01*
X5087952Y-26495238D01*
X5135571Y-26542857D01*
X5230809Y-26590476D01*
X5468904Y-26590476D01*
X5564142Y-26542857D01*
X5611761Y-26495238D01*
X5659380Y-26400000D01*
X5659380Y-26114285D01*
X5611761Y-26019047D01*
X5564142Y-25971428D01*
X4659380Y-26876190D02*
X5659380Y-27209523D01*
X4659380Y-27542857D01*
X6945380Y-23876095D02*
X6945380Y-24447523D01*
X7945380Y-24161809D02*
X6945380Y-24161809D01*
X6945380Y-24685619D02*
X7945380Y-25352285D01*
X6945380Y-25352285D02*
X7945380Y-24685619D01*
X10485380Y-24471333D02*
X10009190Y-24138000D01*
X10485380Y-23899904D02*
X9485380Y-23899904D01*
X9485380Y-24280857D01*
X9533000Y-24376095D01*
X9580619Y-24423714D01*
X9675857Y-24471333D01*
X9818714Y-24471333D01*
X9913952Y-24423714D01*
X9961571Y-24376095D01*
X10009190Y-24280857D01*
X10009190Y-23899904D01*
X9485380Y-24804666D02*
X10485380Y-25471333D01*
X9485380Y-25471333D02*
X10485380Y-24804666D01*
X14105000Y-21455142D02*
X14057380Y-21359904D01*
X14057380Y-21217047D01*
X14105000Y-21074190D01*
X14200238Y-20978952D01*
X14295476Y-20931333D01*
X14485952Y-20883714D01*
X14628809Y-20883714D01*
X14819285Y-20931333D01*
X14914523Y-20978952D01*
X15009761Y-21074190D01*
X15057380Y-21217047D01*
X15057380Y-21312285D01*
X15009761Y-21455142D01*
X14962142Y-21502761D01*
X14628809Y-21502761D01*
X14628809Y-21312285D01*
X14390714Y-21931333D02*
X15057380Y-21931333D01*
X14485952Y-21931333D02*
X14438333Y-21978952D01*
X14390714Y-22074190D01*
X14390714Y-22217047D01*
X14438333Y-22312285D01*
X14533571Y-22359904D01*
X15057380Y-22359904D01*
X15057380Y-23264666D02*
X14057380Y-23264666D01*
X15009761Y-23264666D02*
X15057380Y-23169428D01*
X15057380Y-22978952D01*
X15009761Y-22883714D01*
X14962142Y-22836095D01*
X14866904Y-22788476D01*
X14581190Y-22788476D01*
X14485952Y-22836095D01*
X14438333Y-22883714D01*
X14390714Y-22978952D01*
X14390714Y-23169428D01*
X14438333Y-23264666D01*
D11*
X32323428Y-12611571D02*
X33180571Y-12611571D01*
X32752000Y-12611571D02*
X32752000Y-11111571D01*
X32894857Y-11325857D01*
X33037714Y-11468714D01*
X33180571Y-11540142D01*
X30680571Y-11111571D02*
X30323428Y-12611571D01*
X30037714Y-11540142D01*
X29752000Y-12611571D01*
X29394857Y-11111571D01*
X28823428Y-12611571D02*
X28823428Y-11611571D01*
X28823428Y-11111571D02*
X28894857Y-11183000D01*
X28823428Y-11254428D01*
X28752000Y-11183000D01*
X28823428Y-11111571D01*
X28823428Y-11254428D01*
X28109142Y-12611571D02*
X28109142Y-11611571D01*
X28109142Y-11897285D02*
X28037714Y-11754428D01*
X27966285Y-11683000D01*
X27823428Y-11611571D01*
X27680571Y-11611571D01*
X26609142Y-12540142D02*
X26752000Y-12611571D01*
X27037714Y-12611571D01*
X27180571Y-12540142D01*
X27252000Y-12397285D01*
X27252000Y-11825857D01*
X27180571Y-11683000D01*
X27037714Y-11611571D01*
X26752000Y-11611571D01*
X26609142Y-11683000D01*
X26537714Y-11825857D01*
X26537714Y-11968714D01*
X27252000Y-12111571D01*
X23966285Y-12611571D02*
X24823428Y-12611571D01*
X24394857Y-12611571D02*
X24394857Y-11111571D01*
X24537714Y-11325857D01*
X24680571Y-11468714D01*
X24823428Y-11540142D01*
X22680571Y-11111571D02*
X22966285Y-11111571D01*
X23109142Y-11183000D01*
X23180571Y-11254428D01*
X23323428Y-11468714D01*
X23394857Y-11754428D01*
X23394857Y-12325857D01*
X23323428Y-12468714D01*
X23252000Y-12540142D01*
X23109142Y-12611571D01*
X22823428Y-12611571D01*
X22680571Y-12540142D01*
X22609142Y-12468714D01*
X22537714Y-12325857D01*
X22537714Y-11968714D01*
X22609142Y-11825857D01*
X22680571Y-11754428D01*
X22823428Y-11683000D01*
X23109142Y-11683000D01*
X23252000Y-11754428D01*
X23323428Y-11825857D01*
X23394857Y-11968714D01*
X21037714Y-12468714D02*
X21109142Y-12540142D01*
X21323428Y-12611571D01*
X21466285Y-12611571D01*
X21680571Y-12540142D01*
X21823428Y-12397285D01*
X21894857Y-12254428D01*
X21966285Y-11968714D01*
X21966285Y-11754428D01*
X21894857Y-11468714D01*
X21823428Y-11325857D01*
X21680571Y-11183000D01*
X21466285Y-11111571D01*
X21323428Y-11111571D01*
X21109142Y-11183000D01*
X21037714Y-11254428D01*
X20394857Y-12611571D02*
X20394857Y-11111571D01*
X19752000Y-12611571D02*
X19752000Y-11825857D01*
X19823428Y-11683000D01*
X19966285Y-11611571D01*
X20180571Y-11611571D01*
X20323428Y-11683000D01*
X20394857Y-11754428D01*
X17894857Y-12611571D02*
X17894857Y-11111571D01*
X17537714Y-11111571D01*
X17323428Y-11183000D01*
X17180571Y-11325857D01*
X17109142Y-11468714D01*
X17037714Y-11754428D01*
X17037714Y-11968714D01*
X17109142Y-12254428D01*
X17180571Y-12397285D01*
X17323428Y-12540142D01*
X17537714Y-12611571D01*
X17894857Y-12611571D01*
X16394857Y-12611571D02*
X16394857Y-11611571D01*
X16394857Y-11897285D02*
X16323428Y-11754428D01*
X16252000Y-11683000D01*
X16109142Y-11611571D01*
X15966285Y-11611571D01*
X15466285Y-12611571D02*
X15466285Y-11611571D01*
X15466285Y-11111571D02*
X15537714Y-11183000D01*
X15466285Y-11254428D01*
X15394857Y-11183000D01*
X15466285Y-11111571D01*
X15466285Y-11254428D01*
X14894857Y-11611571D02*
X14537714Y-12611571D01*
X14180571Y-11611571D01*
X13037714Y-12540142D02*
X13180571Y-12611571D01*
X13466285Y-12611571D01*
X13609142Y-12540142D01*
X13680571Y-12397285D01*
X13680571Y-11825857D01*
X13609142Y-11683000D01*
X13466285Y-11611571D01*
X13180571Y-11611571D01*
X13037714Y-11683000D01*
X12966285Y-11825857D01*
X12966285Y-11968714D01*
X13680571Y-12111571D01*
X12323428Y-12611571D02*
X12323428Y-11611571D01*
X12323428Y-11897285D02*
X12252000Y-11754428D01*
X12180571Y-11683000D01*
X12037714Y-11611571D01*
X11894857Y-11611571D01*
X20537714Y-13661571D02*
X20037714Y-15161571D01*
X19537714Y-13661571D01*
X18466285Y-15090142D02*
X18609142Y-15161571D01*
X18894857Y-15161571D01*
X19037714Y-15090142D01*
X19109142Y-14947285D01*
X19109142Y-14375857D01*
X19037714Y-14233000D01*
X18894857Y-14161571D01*
X18609142Y-14161571D01*
X18466285Y-14233000D01*
X18394857Y-14375857D01*
X18394857Y-14518714D01*
X19109142Y-14661571D01*
X17752000Y-15161571D02*
X17752000Y-14161571D01*
X17752000Y-14447285D02*
X17680571Y-14304428D01*
X17609142Y-14233000D01*
X17466285Y-14161571D01*
X17323428Y-14161571D01*
X16823428Y-15018714D02*
X16752000Y-15090142D01*
X16823428Y-15161571D01*
X16894857Y-15090142D01*
X16823428Y-15018714D01*
X16823428Y-15161571D01*
X14180571Y-15161571D02*
X15037714Y-15161571D01*
X14609142Y-15161571D02*
X14609142Y-13661571D01*
X14752000Y-13875857D01*
X14894857Y-14018714D01*
X15037714Y-14090142D01*
X13537714Y-15018714D02*
X13466285Y-15090142D01*
X13537714Y-15161571D01*
X13609142Y-15090142D01*
X13537714Y-15018714D01*
X13537714Y-15161571D01*
X12894857Y-13804428D02*
X12823428Y-13733000D01*
X12680571Y-13661571D01*
X12323428Y-13661571D01*
X12180571Y-13733000D01*
X12109142Y-13804428D01*
X12037714Y-13947285D01*
X12037714Y-14090142D01*
X12109142Y-14304428D01*
X12966285Y-15161571D01*
X12037714Y-15161571D01*
D12*
X30335714Y-25154380D02*
X30811904Y-25154380D01*
X30811904Y-24154380D01*
X30002380Y-25154380D02*
X30002380Y-24487714D01*
X30002380Y-24154380D02*
X30050000Y-24202000D01*
X30002380Y-24249619D01*
X29954761Y-24202000D01*
X30002380Y-24154380D01*
X30002380Y-24249619D01*
X29097619Y-25106761D02*
X29192857Y-25154380D01*
X29383333Y-25154380D01*
X29478571Y-25106761D01*
X29526190Y-25059142D01*
X29573809Y-24963904D01*
X29573809Y-24678190D01*
X29526190Y-24582952D01*
X29478571Y-24535333D01*
X29383333Y-24487714D01*
X29192857Y-24487714D01*
X29097619Y-24535333D01*
X28288095Y-25106761D02*
X28383333Y-25154380D01*
X28573809Y-25154380D01*
X28669047Y-25106761D01*
X28716666Y-25011523D01*
X28716666Y-24630571D01*
X28669047Y-24535333D01*
X28573809Y-24487714D01*
X28383333Y-24487714D01*
X28288095Y-24535333D01*
X28240476Y-24630571D01*
X28240476Y-24725809D01*
X28716666Y-24821047D01*
X27811904Y-24487714D02*
X27811904Y-25154380D01*
X27811904Y-24582952D02*
X27764285Y-24535333D01*
X27669047Y-24487714D01*
X27526190Y-24487714D01*
X27430952Y-24535333D01*
X27383333Y-24630571D01*
X27383333Y-25154380D01*
X26954761Y-25106761D02*
X26859523Y-25154380D01*
X26669047Y-25154380D01*
X26573809Y-25106761D01*
X26526190Y-25011523D01*
X26526190Y-24963904D01*
X26573809Y-24868666D01*
X26669047Y-24821047D01*
X26811904Y-24821047D01*
X26907142Y-24773428D01*
X26954761Y-24678190D01*
X26954761Y-24630571D01*
X26907142Y-24535333D01*
X26811904Y-24487714D01*
X26669047Y-24487714D01*
X26573809Y-24535333D01*
X25716666Y-25106761D02*
X25811904Y-25154380D01*
X26002380Y-25154380D01*
X26097619Y-25106761D01*
X26145238Y-25011523D01*
X26145238Y-24630571D01*
X26097619Y-24535333D01*
X26002380Y-24487714D01*
X25811904Y-24487714D01*
X25716666Y-24535333D01*
X25669047Y-24630571D01*
X25669047Y-24725809D01*
X26145238Y-24821047D01*
X24811904Y-25154380D02*
X24811904Y-24154380D01*
X24811904Y-25106761D02*
X24907142Y-25154380D01*
X25097619Y-25154380D01*
X25192857Y-25106761D01*
X25240476Y-25059142D01*
X25288095Y-24963904D01*
X25288095Y-24678190D01*
X25240476Y-24582952D01*
X25192857Y-24535333D01*
X25097619Y-24487714D01*
X24907142Y-24487714D01*
X24811904Y-24535333D01*
X23145238Y-24487714D02*
X23145238Y-25154380D01*
X23573809Y-24487714D02*
X23573809Y-25011523D01*
X23526190Y-25106761D01*
X23430952Y-25154380D01*
X23288095Y-25154380D01*
X23192857Y-25106761D01*
X23145238Y-25059142D01*
X22669047Y-24487714D02*
X22669047Y-25154380D01*
X22669047Y-24582952D02*
X22621428Y-24535333D01*
X22526190Y-24487714D01*
X22383333Y-24487714D01*
X22288095Y-24535333D01*
X22240476Y-24630571D01*
X22240476Y-25154380D01*
X21335714Y-25154380D02*
X21335714Y-24154380D01*
X21335714Y-25106761D02*
X21430952Y-25154380D01*
X21621428Y-25154380D01*
X21716666Y-25106761D01*
X21764285Y-25059142D01*
X21811904Y-24963904D01*
X21811904Y-24678190D01*
X21764285Y-24582952D01*
X21716666Y-24535333D01*
X21621428Y-24487714D01*
X21430952Y-24487714D01*
X21335714Y-24535333D01*
X20478571Y-25106761D02*
X20573809Y-25154380D01*
X20764285Y-25154380D01*
X20859523Y-25106761D01*
X20907142Y-25011523D01*
X20907142Y-24630571D01*
X20859523Y-24535333D01*
X20764285Y-24487714D01*
X20573809Y-24487714D01*
X20478571Y-24535333D01*
X20430952Y-24630571D01*
X20430952Y-24725809D01*
X20907142Y-24821047D01*
X20002380Y-25154380D02*
X20002380Y-24487714D01*
X20002380Y-24678190D02*
X19954761Y-24582952D01*
X19907142Y-24535333D01*
X19811904Y-24487714D01*
X19716666Y-24487714D01*
X18764285Y-24487714D02*
X18383333Y-24487714D01*
X18621428Y-24154380D02*
X18621428Y-25011523D01*
X18573809Y-25106761D01*
X18478571Y-25154380D01*
X18383333Y-25154380D01*
X18050000Y-25154380D02*
X18050000Y-24154380D01*
X17621428Y-25154380D02*
X17621428Y-24630571D01*
X17669047Y-24535333D01*
X17764285Y-24487714D01*
X17907142Y-24487714D01*
X18002380Y-24535333D01*
X18050000Y-24582952D01*
X16764285Y-25106761D02*
X16859523Y-25154380D01*
X17050000Y-25154380D01*
X17145238Y-25106761D01*
X17192857Y-25011523D01*
X17192857Y-24630571D01*
X17145238Y-24535333D01*
X17050000Y-24487714D01*
X16859523Y-24487714D01*
X16764285Y-24535333D01*
X16716666Y-24630571D01*
X16716666Y-24725809D01*
X17192857Y-24821047D01*
X15669047Y-24154380D02*
X15097619Y-24154380D01*
X15383333Y-25154380D02*
X15383333Y-24154380D01*
X14811904Y-24868666D02*
X14335714Y-24868666D01*
X14907142Y-25154380D02*
X14573809Y-24154380D01*
X14240476Y-25154380D01*
X13907142Y-25154380D02*
X13907142Y-24154380D01*
X13526190Y-24154380D01*
X13430952Y-24202000D01*
X13383333Y-24249619D01*
X13335714Y-24344857D01*
X13335714Y-24487714D01*
X13383333Y-24582952D01*
X13430952Y-24630571D01*
X13526190Y-24678190D01*
X13907142Y-24678190D01*
X12335714Y-25154380D02*
X12669047Y-24678190D01*
X12907142Y-25154380D02*
X12907142Y-24154380D01*
X12526190Y-24154380D01*
X12430952Y-24202000D01*
X12383333Y-24249619D01*
X12335714Y-24344857D01*
X12335714Y-24487714D01*
X12383333Y-24582952D01*
X12430952Y-24630571D01*
X12526190Y-24678190D01*
X12907142Y-24678190D01*
X30621428Y-25754380D02*
X30430952Y-25754380D01*
X30335714Y-25802000D01*
X30240476Y-25897238D01*
X30192857Y-26087714D01*
X30192857Y-26421047D01*
X30240476Y-26611523D01*
X30335714Y-26706761D01*
X30430952Y-26754380D01*
X30621428Y-26754380D01*
X30716666Y-26706761D01*
X30811904Y-26611523D01*
X30859523Y-26421047D01*
X30859523Y-26087714D01*
X30811904Y-25897238D01*
X30716666Y-25802000D01*
X30621428Y-25754380D01*
X29764285Y-26087714D02*
X29764285Y-27087714D01*
X29764285Y-26135333D02*
X29669047Y-26087714D01*
X29478571Y-26087714D01*
X29383333Y-26135333D01*
X29335714Y-26182952D01*
X29288095Y-26278190D01*
X29288095Y-26563904D01*
X29335714Y-26659142D01*
X29383333Y-26706761D01*
X29478571Y-26754380D01*
X29669047Y-26754380D01*
X29764285Y-26706761D01*
X28478571Y-26706761D02*
X28573809Y-26754380D01*
X28764285Y-26754380D01*
X28859523Y-26706761D01*
X28907142Y-26611523D01*
X28907142Y-26230571D01*
X28859523Y-26135333D01*
X28764285Y-26087714D01*
X28573809Y-26087714D01*
X28478571Y-26135333D01*
X28430952Y-26230571D01*
X28430952Y-26325809D01*
X28907142Y-26421047D01*
X28002380Y-26087714D02*
X28002380Y-26754380D01*
X28002380Y-26182952D02*
X27954761Y-26135333D01*
X27859523Y-26087714D01*
X27716666Y-26087714D01*
X27621428Y-26135333D01*
X27573809Y-26230571D01*
X27573809Y-26754380D01*
X26335714Y-26754380D02*
X26335714Y-25754380D01*
X26335714Y-26230571D02*
X25764285Y-26230571D01*
X25764285Y-26754380D02*
X25764285Y-25754380D01*
X24859523Y-26754380D02*
X24859523Y-26230571D01*
X24907142Y-26135333D01*
X25002380Y-26087714D01*
X25192857Y-26087714D01*
X25288095Y-26135333D01*
X24859523Y-26706761D02*
X24954761Y-26754380D01*
X25192857Y-26754380D01*
X25288095Y-26706761D01*
X25335714Y-26611523D01*
X25335714Y-26516285D01*
X25288095Y-26421047D01*
X25192857Y-26373428D01*
X24954761Y-26373428D01*
X24859523Y-26325809D01*
X24383333Y-26754380D02*
X24383333Y-26087714D01*
X24383333Y-26278190D02*
X24335714Y-26182952D01*
X24288095Y-26135333D01*
X24192857Y-26087714D01*
X24097619Y-26087714D01*
X23335714Y-26754380D02*
X23335714Y-25754380D01*
X23335714Y-26706761D02*
X23430952Y-26754380D01*
X23621428Y-26754380D01*
X23716666Y-26706761D01*
X23764285Y-26659142D01*
X23811904Y-26563904D01*
X23811904Y-26278190D01*
X23764285Y-26182952D01*
X23716666Y-26135333D01*
X23621428Y-26087714D01*
X23430952Y-26087714D01*
X23335714Y-26135333D01*
X22954761Y-26087714D02*
X22764285Y-26754380D01*
X22573809Y-26278190D01*
X22383333Y-26754380D01*
X22192857Y-26087714D01*
X21383333Y-26754380D02*
X21383333Y-26230571D01*
X21430952Y-26135333D01*
X21526190Y-26087714D01*
X21716666Y-26087714D01*
X21811904Y-26135333D01*
X21383333Y-26706761D02*
X21478571Y-26754380D01*
X21716666Y-26754380D01*
X21811904Y-26706761D01*
X21859523Y-26611523D01*
X21859523Y-26516285D01*
X21811904Y-26421047D01*
X21716666Y-26373428D01*
X21478571Y-26373428D01*
X21383333Y-26325809D01*
X20907142Y-26754380D02*
X20907142Y-26087714D01*
X20907142Y-26278190D02*
X20859523Y-26182952D01*
X20811904Y-26135333D01*
X20716666Y-26087714D01*
X20621428Y-26087714D01*
X19907142Y-26706761D02*
X20002380Y-26754380D01*
X20192857Y-26754380D01*
X20288095Y-26706761D01*
X20335714Y-26611523D01*
X20335714Y-26230571D01*
X20288095Y-26135333D01*
X20192857Y-26087714D01*
X20002380Y-26087714D01*
X19907142Y-26135333D01*
X19859523Y-26230571D01*
X19859523Y-26325809D01*
X20335714Y-26421047D01*
X18192857Y-26754380D02*
X18669047Y-26754380D01*
X18669047Y-25754380D01*
X17859523Y-26754380D02*
X17859523Y-26087714D01*
X17859523Y-25754380D02*
X17907142Y-25802000D01*
X17859523Y-25849619D01*
X17811904Y-25802000D01*
X17859523Y-25754380D01*
X17859523Y-25849619D01*
X16954761Y-26706761D02*
X17050000Y-26754380D01*
X17240476Y-26754380D01*
X17335714Y-26706761D01*
X17383333Y-26659142D01*
X17430952Y-26563904D01*
X17430952Y-26278190D01*
X17383333Y-26182952D01*
X17335714Y-26135333D01*
X17240476Y-26087714D01*
X17050000Y-26087714D01*
X16954761Y-26135333D01*
X16145238Y-26706761D02*
X16240476Y-26754380D01*
X16430952Y-26754380D01*
X16526190Y-26706761D01*
X16573809Y-26611523D01*
X16573809Y-26230571D01*
X16526190Y-26135333D01*
X16430952Y-26087714D01*
X16240476Y-26087714D01*
X16145238Y-26135333D01*
X16097619Y-26230571D01*
X16097619Y-26325809D01*
X16573809Y-26421047D01*
X15669047Y-26087714D02*
X15669047Y-26754380D01*
X15669047Y-26182952D02*
X15621428Y-26135333D01*
X15526190Y-26087714D01*
X15383333Y-26087714D01*
X15288095Y-26135333D01*
X15240476Y-26230571D01*
X15240476Y-26754380D01*
X14811904Y-26706761D02*
X14716666Y-26754380D01*
X14526190Y-26754380D01*
X14430952Y-26706761D01*
X14383333Y-26611523D01*
X14383333Y-26563904D01*
X14430952Y-26468666D01*
X14526190Y-26421047D01*
X14669047Y-26421047D01*
X14764285Y-26373428D01*
X14811904Y-26278190D01*
X14811904Y-26230571D01*
X14764285Y-26135333D01*
X14669047Y-26087714D01*
X14526190Y-26087714D01*
X14430952Y-26135333D01*
X13573809Y-26706761D02*
X13669047Y-26754380D01*
X13859523Y-26754380D01*
X13954761Y-26706761D01*
X14002380Y-26611523D01*
X14002380Y-26230571D01*
X13954761Y-26135333D01*
X13859523Y-26087714D01*
X13669047Y-26087714D01*
X13573809Y-26135333D01*
X13526190Y-26230571D01*
X13526190Y-26325809D01*
X14002380Y-26421047D01*
X30526190Y-28735333D02*
X30573809Y-28687714D01*
X30669047Y-28544857D01*
X30716666Y-28449619D01*
X30764285Y-28306761D01*
X30811904Y-28068666D01*
X30811904Y-27878190D01*
X30764285Y-27640095D01*
X30716666Y-27497238D01*
X30669047Y-27402000D01*
X30573809Y-27259142D01*
X30526190Y-27211523D01*
X30240476Y-27687714D02*
X30050000Y-28354380D01*
X29859523Y-27878190D01*
X29669047Y-28354380D01*
X29478571Y-27687714D01*
X29192857Y-27687714D02*
X29002380Y-28354380D01*
X28811904Y-27878190D01*
X28621428Y-28354380D01*
X28430952Y-27687714D01*
X28145238Y-27687714D02*
X27954761Y-28354380D01*
X27764285Y-27878190D01*
X27573809Y-28354380D01*
X27383333Y-27687714D01*
X27002380Y-28259142D02*
X26954761Y-28306761D01*
X27002380Y-28354380D01*
X27050000Y-28306761D01*
X27002380Y-28259142D01*
X27002380Y-28354380D01*
X26669047Y-27687714D02*
X26288095Y-27687714D01*
X26526190Y-27354380D02*
X26526190Y-28211523D01*
X26478571Y-28306761D01*
X26383333Y-28354380D01*
X26288095Y-28354380D01*
X25526190Y-28354380D02*
X25526190Y-27830571D01*
X25573809Y-27735333D01*
X25669047Y-27687714D01*
X25859523Y-27687714D01*
X25954761Y-27735333D01*
X25526190Y-28306761D02*
X25621428Y-28354380D01*
X25859523Y-28354380D01*
X25954761Y-28306761D01*
X26002380Y-28211523D01*
X26002380Y-28116285D01*
X25954761Y-28021047D01*
X25859523Y-27973428D01*
X25621428Y-27973428D01*
X25526190Y-27925809D01*
X25050000Y-27687714D02*
X25050000Y-28687714D01*
X25050000Y-27735333D02*
X24954761Y-27687714D01*
X24764285Y-27687714D01*
X24669047Y-27735333D01*
X24621428Y-27782952D01*
X24573809Y-27878190D01*
X24573809Y-28163904D01*
X24621428Y-28259142D01*
X24669047Y-28306761D01*
X24764285Y-28354380D01*
X24954761Y-28354380D01*
X25050000Y-28306761D01*
X24145238Y-28354380D02*
X24145238Y-27687714D01*
X24145238Y-27878190D02*
X24097619Y-27782952D01*
X24050000Y-27735333D01*
X23954761Y-27687714D01*
X23859523Y-27687714D01*
X23526190Y-28259142D02*
X23478571Y-28306761D01*
X23526190Y-28354380D01*
X23573809Y-28306761D01*
X23526190Y-28259142D01*
X23526190Y-28354380D01*
X22907142Y-28354380D02*
X23002380Y-28306761D01*
X23050000Y-28259142D01*
X23097619Y-28163904D01*
X23097619Y-27878190D01*
X23050000Y-27782952D01*
X23002380Y-27735333D01*
X22907142Y-27687714D01*
X22764285Y-27687714D01*
X22669047Y-27735333D01*
X22621428Y-27782952D01*
X22573809Y-27878190D01*
X22573809Y-28163904D01*
X22621428Y-28259142D01*
X22669047Y-28306761D01*
X22764285Y-28354380D01*
X22907142Y-28354380D01*
X22145238Y-28354380D02*
X22145238Y-27687714D01*
X22145238Y-27878190D02*
X22097619Y-27782952D01*
X22050000Y-27735333D01*
X21954761Y-27687714D01*
X21859523Y-27687714D01*
X21097619Y-27687714D02*
X21097619Y-28497238D01*
X21145238Y-28592476D01*
X21192857Y-28640095D01*
X21288095Y-28687714D01*
X21430952Y-28687714D01*
X21526190Y-28640095D01*
X21097619Y-28306761D02*
X21192857Y-28354380D01*
X21383333Y-28354380D01*
X21478571Y-28306761D01*
X21526190Y-28259142D01*
X21573809Y-28163904D01*
X21573809Y-27878190D01*
X21526190Y-27782952D01*
X21478571Y-27735333D01*
X21383333Y-27687714D01*
X21192857Y-27687714D01*
X21097619Y-27735333D01*
X19907142Y-27306761D02*
X20764285Y-28592476D01*
X19383333Y-27354380D02*
X19192857Y-27354380D01*
X19097619Y-27402000D01*
X19002380Y-27497238D01*
X18954761Y-27687714D01*
X18954761Y-28021047D01*
X19002380Y-28211523D01*
X19097619Y-28306761D01*
X19192857Y-28354380D01*
X19383333Y-28354380D01*
X19478571Y-28306761D01*
X19573809Y-28211523D01*
X19621428Y-28021047D01*
X19621428Y-27687714D01*
X19573809Y-27497238D01*
X19478571Y-27402000D01*
X19383333Y-27354380D01*
X18526190Y-28354380D02*
X18526190Y-27354380D01*
X18526190Y-27830571D02*
X17954761Y-27830571D01*
X17954761Y-28354380D02*
X17954761Y-27354380D01*
X17002380Y-28354380D02*
X17478571Y-28354380D01*
X17478571Y-27354380D01*
X16764285Y-28735333D02*
X16716666Y-28687714D01*
X16621428Y-28544857D01*
X16573809Y-28449619D01*
X16526190Y-28306761D01*
X16478571Y-28068666D01*
X16478571Y-27878190D01*
X16526190Y-27640095D01*
X16573809Y-27497238D01*
X16621428Y-27402000D01*
X16716666Y-27259142D01*
X16764285Y-27211523D01*
X30240476Y-29859142D02*
X30288095Y-29906761D01*
X30430952Y-29954380D01*
X30526190Y-29954380D01*
X30669047Y-29906761D01*
X30764285Y-29811523D01*
X30811904Y-29716285D01*
X30859523Y-29525809D01*
X30859523Y-29382952D01*
X30811904Y-29192476D01*
X30764285Y-29097238D01*
X30669047Y-29002000D01*
X30526190Y-28954380D01*
X30430952Y-28954380D01*
X30288095Y-29002000D01*
X30240476Y-29049619D01*
X29669047Y-29954380D02*
X29764285Y-29906761D01*
X29811904Y-29859142D01*
X29859523Y-29763904D01*
X29859523Y-29478190D01*
X29811904Y-29382952D01*
X29764285Y-29335333D01*
X29669047Y-29287714D01*
X29526190Y-29287714D01*
X29430952Y-29335333D01*
X29383333Y-29382952D01*
X29335714Y-29478190D01*
X29335714Y-29763904D01*
X29383333Y-29859142D01*
X29430952Y-29906761D01*
X29526190Y-29954380D01*
X29669047Y-29954380D01*
X28907142Y-29287714D02*
X28907142Y-30287714D01*
X28907142Y-29335333D02*
X28811904Y-29287714D01*
X28621428Y-29287714D01*
X28526190Y-29335333D01*
X28478571Y-29382952D01*
X28430952Y-29478190D01*
X28430952Y-29763904D01*
X28478571Y-29859142D01*
X28526190Y-29906761D01*
X28621428Y-29954380D01*
X28811904Y-29954380D01*
X28907142Y-29906761D01*
X28097619Y-29287714D02*
X27859523Y-29954380D01*
X27621428Y-29287714D02*
X27859523Y-29954380D01*
X27954761Y-30192476D01*
X28002380Y-30240095D01*
X28097619Y-30287714D01*
X27240476Y-29954380D02*
X27240476Y-29287714D01*
X27240476Y-29478190D02*
X27192857Y-29382952D01*
X27145238Y-29335333D01*
X27050000Y-29287714D01*
X26954761Y-29287714D01*
X26621428Y-29954380D02*
X26621428Y-29287714D01*
X26621428Y-28954380D02*
X26669047Y-29002000D01*
X26621428Y-29049619D01*
X26573809Y-29002000D01*
X26621428Y-28954380D01*
X26621428Y-29049619D01*
X25716666Y-29287714D02*
X25716666Y-30097238D01*
X25764285Y-30192476D01*
X25811904Y-30240095D01*
X25907142Y-30287714D01*
X26050000Y-30287714D01*
X26145238Y-30240095D01*
X25716666Y-29906761D02*
X25811904Y-29954380D01*
X26002380Y-29954380D01*
X26097619Y-29906761D01*
X26145238Y-29859142D01*
X26192857Y-29763904D01*
X26192857Y-29478190D01*
X26145238Y-29382952D01*
X26097619Y-29335333D01*
X26002380Y-29287714D01*
X25811904Y-29287714D01*
X25716666Y-29335333D01*
X25240476Y-29954380D02*
X25240476Y-28954380D01*
X24811904Y-29954380D02*
X24811904Y-29430571D01*
X24859523Y-29335333D01*
X24954761Y-29287714D01*
X25097619Y-29287714D01*
X25192857Y-29335333D01*
X25240476Y-29382952D01*
X24478571Y-29287714D02*
X24097619Y-29287714D01*
X24335714Y-28954380D02*
X24335714Y-29811523D01*
X24288095Y-29906761D01*
X24192857Y-29954380D01*
X24097619Y-29954380D01*
X22192857Y-29192476D02*
X22288095Y-29144857D01*
X22478571Y-29144857D01*
X22573809Y-29192476D01*
X22669047Y-29287714D01*
X22716666Y-29382952D01*
X22716666Y-29573428D01*
X22669047Y-29668666D01*
X22573809Y-29763904D01*
X22478571Y-29811523D01*
X22288095Y-29811523D01*
X22192857Y-29763904D01*
X22383333Y-28811523D02*
X22621428Y-28859142D01*
X22859523Y-29002000D01*
X23002380Y-29240095D01*
X23050000Y-29478190D01*
X23002380Y-29716285D01*
X22859523Y-29954380D01*
X22621428Y-30097238D01*
X22383333Y-30144857D01*
X22145238Y-30097238D01*
X21907142Y-29954380D01*
X21764285Y-29716285D01*
X21716666Y-29478190D01*
X21764285Y-29240095D01*
X21907142Y-29002000D01*
X22145238Y-28859142D01*
X22383333Y-28811523D01*
X20573809Y-29049619D02*
X20526190Y-29002000D01*
X20430952Y-28954380D01*
X20192857Y-28954380D01*
X20097619Y-29002000D01*
X20050000Y-29049619D01*
X20002380Y-29144857D01*
X20002380Y-29240095D01*
X20050000Y-29382952D01*
X20621428Y-29954380D01*
X20002380Y-29954380D01*
X19383333Y-28954380D02*
X19288095Y-28954380D01*
X19192857Y-29002000D01*
X19145238Y-29049619D01*
X19097619Y-29144857D01*
X19050000Y-29335333D01*
X19050000Y-29573428D01*
X19097619Y-29763904D01*
X19145238Y-29859142D01*
X19192857Y-29906761D01*
X19288095Y-29954380D01*
X19383333Y-29954380D01*
X19478571Y-29906761D01*
X19526190Y-29859142D01*
X19573809Y-29763904D01*
X19621428Y-29573428D01*
X19621428Y-29335333D01*
X19573809Y-29144857D01*
X19526190Y-29049619D01*
X19478571Y-29002000D01*
X19383333Y-28954380D01*
X18097619Y-29954380D02*
X18669047Y-29954380D01*
X18383333Y-29954380D02*
X18383333Y-28954380D01*
X18478571Y-29097238D01*
X18573809Y-29192476D01*
X18669047Y-29240095D01*
X17526190Y-29382952D02*
X17621428Y-29335333D01*
X17669047Y-29287714D01*
X17716666Y-29192476D01*
X17716666Y-29144857D01*
X17669047Y-29049619D01*
X17621428Y-29002000D01*
X17526190Y-28954380D01*
X17335714Y-28954380D01*
X17240476Y-29002000D01*
X17192857Y-29049619D01*
X17145238Y-29144857D01*
X17145238Y-29192476D01*
X17192857Y-29287714D01*
X17240476Y-29335333D01*
X17335714Y-29382952D01*
X17526190Y-29382952D01*
X17621428Y-29430571D01*
X17669047Y-29478190D01*
X17716666Y-29573428D01*
X17716666Y-29763904D01*
X17669047Y-29859142D01*
X17621428Y-29906761D01*
X17526190Y-29954380D01*
X17335714Y-29954380D01*
X17240476Y-29906761D01*
X17192857Y-29859142D01*
X17145238Y-29763904D01*
X17145238Y-29573428D01*
X17192857Y-29478190D01*
X17240476Y-29430571D01*
X17335714Y-29382952D01*
X30811904Y-31554380D02*
X30811904Y-30554380D01*
X30335714Y-30887714D02*
X30335714Y-31554380D01*
X30335714Y-30982952D02*
X30288095Y-30935333D01*
X30192857Y-30887714D01*
X30050000Y-30887714D01*
X29954761Y-30935333D01*
X29907142Y-31030571D01*
X29907142Y-31554380D01*
X29573809Y-30887714D02*
X29192857Y-30887714D01*
X29430952Y-31554380D02*
X29430952Y-30697238D01*
X29383333Y-30602000D01*
X29288095Y-30554380D01*
X29192857Y-30554380D01*
X28478571Y-31506761D02*
X28573809Y-31554380D01*
X28764285Y-31554380D01*
X28859523Y-31506761D01*
X28907142Y-31411523D01*
X28907142Y-31030571D01*
X28859523Y-30935333D01*
X28764285Y-30887714D01*
X28573809Y-30887714D01*
X28478571Y-30935333D01*
X28430952Y-31030571D01*
X28430952Y-31125809D01*
X28907142Y-31221047D01*
X28002380Y-31554380D02*
X28002380Y-30887714D01*
X28002380Y-31078190D02*
X27954761Y-30982952D01*
X27907142Y-30935333D01*
X27811904Y-30887714D01*
X27716666Y-30887714D01*
X27383333Y-30887714D02*
X27383333Y-31554380D01*
X27383333Y-30982952D02*
X27335714Y-30935333D01*
X27240476Y-30887714D01*
X27097619Y-30887714D01*
X27002380Y-30935333D01*
X26954761Y-31030571D01*
X26954761Y-31554380D01*
X26335714Y-31554380D02*
X26430952Y-31506761D01*
X26478571Y-31459142D01*
X26526190Y-31363904D01*
X26526190Y-31078190D01*
X26478571Y-30982952D01*
X26430952Y-30935333D01*
X26335714Y-30887714D01*
X26192857Y-30887714D01*
X26097619Y-30935333D01*
X26050000Y-30982952D01*
X26002380Y-31078190D01*
X26002380Y-31363904D01*
X26050000Y-31459142D01*
X26097619Y-31506761D01*
X26192857Y-31554380D01*
X26335714Y-31554380D01*
X24811904Y-31030571D02*
X24478571Y-31030571D01*
X24335714Y-31554380D02*
X24811904Y-31554380D01*
X24811904Y-30554380D01*
X24335714Y-30554380D01*
X23907142Y-31554380D02*
X23907142Y-30887714D01*
X23907142Y-30982952D02*
X23859523Y-30935333D01*
X23764285Y-30887714D01*
X23621428Y-30887714D01*
X23526190Y-30935333D01*
X23478571Y-31030571D01*
X23478571Y-31554380D01*
X23478571Y-31030571D02*
X23430952Y-30935333D01*
X23335714Y-30887714D01*
X23192857Y-30887714D01*
X23097619Y-30935333D01*
X23050000Y-31030571D01*
X23050000Y-31554380D01*
X22573809Y-31554380D02*
X22573809Y-30554380D01*
X22573809Y-30935333D02*
X22478571Y-30887714D01*
X22288095Y-30887714D01*
X22192857Y-30935333D01*
X22145238Y-30982952D01*
X22097619Y-31078190D01*
X22097619Y-31363904D01*
X22145238Y-31459142D01*
X22192857Y-31506761D01*
X22288095Y-31554380D01*
X22478571Y-31554380D01*
X22573809Y-31506761D01*
X21288095Y-31506761D02*
X21383333Y-31554380D01*
X21573809Y-31554380D01*
X21669047Y-31506761D01*
X21716666Y-31411523D01*
X21716666Y-31030571D01*
X21669047Y-30935333D01*
X21573809Y-30887714D01*
X21383333Y-30887714D01*
X21288095Y-30935333D01*
X21240476Y-31030571D01*
X21240476Y-31125809D01*
X21716666Y-31221047D01*
X20383333Y-31554380D02*
X20383333Y-30554380D01*
X20383333Y-31506761D02*
X20478571Y-31554380D01*
X20669047Y-31554380D01*
X20764285Y-31506761D01*
X20811904Y-31459142D01*
X20859523Y-31363904D01*
X20859523Y-31078190D01*
X20811904Y-30982952D01*
X20764285Y-30935333D01*
X20669047Y-30887714D01*
X20478571Y-30887714D01*
X20383333Y-30935333D01*
X19478571Y-31554380D02*
X19478571Y-30554380D01*
X19478571Y-31506761D02*
X19573809Y-31554380D01*
X19764285Y-31554380D01*
X19859523Y-31506761D01*
X19907142Y-31459142D01*
X19954761Y-31363904D01*
X19954761Y-31078190D01*
X19907142Y-30982952D01*
X19859523Y-30935333D01*
X19764285Y-30887714D01*
X19573809Y-30887714D01*
X19478571Y-30935333D01*
X18621428Y-31506761D02*
X18716666Y-31554380D01*
X18907142Y-31554380D01*
X19002380Y-31506761D01*
X19050000Y-31411523D01*
X19050000Y-31030571D01*
X19002380Y-30935333D01*
X18907142Y-30887714D01*
X18716666Y-30887714D01*
X18621428Y-30935333D01*
X18573809Y-31030571D01*
X18573809Y-31125809D01*
X19050000Y-31221047D01*
X17716666Y-31554380D02*
X17716666Y-30554380D01*
X17716666Y-31506761D02*
X17811904Y-31554380D01*
X18002380Y-31554380D01*
X18097619Y-31506761D01*
X18145238Y-31459142D01*
X18192857Y-31363904D01*
X18192857Y-31078190D01*
X18145238Y-30982952D01*
X18097619Y-30935333D01*
X18002380Y-30887714D01*
X17811904Y-30887714D01*
X17716666Y-30935333D01*
X30811904Y-33154380D02*
X30811904Y-32154380D01*
X30383333Y-33154380D02*
X30383333Y-32630571D01*
X30430952Y-32535333D01*
X30526190Y-32487714D01*
X30669047Y-32487714D01*
X30764285Y-32535333D01*
X30811904Y-32582952D01*
X30050000Y-32487714D02*
X29669047Y-32487714D01*
X29907142Y-32154380D02*
X29907142Y-33011523D01*
X29859523Y-33106761D01*
X29764285Y-33154380D01*
X29669047Y-33154380D01*
X29478571Y-32487714D02*
X29097619Y-32487714D01*
X29335714Y-32154380D02*
X29335714Y-33011523D01*
X29288095Y-33106761D01*
X29192857Y-33154380D01*
X29097619Y-33154380D01*
X28764285Y-32487714D02*
X28764285Y-33487714D01*
X28764285Y-32535333D02*
X28669047Y-32487714D01*
X28478571Y-32487714D01*
X28383333Y-32535333D01*
X28335714Y-32582952D01*
X28288095Y-32678190D01*
X28288095Y-32963904D01*
X28335714Y-33059142D01*
X28383333Y-33106761D01*
X28478571Y-33154380D01*
X28669047Y-33154380D01*
X28764285Y-33106761D01*
X27859523Y-33059142D02*
X27811904Y-33106761D01*
X27859523Y-33154380D01*
X27907142Y-33106761D01*
X27859523Y-33059142D01*
X27859523Y-33154380D01*
X27859523Y-32535333D02*
X27811904Y-32582952D01*
X27859523Y-32630571D01*
X27907142Y-32582952D01*
X27859523Y-32535333D01*
X27859523Y-32630571D01*
X26669047Y-32106761D02*
X27526190Y-33392476D01*
X25621428Y-32106761D02*
X26478571Y-33392476D01*
X25288095Y-33154380D02*
X25288095Y-32487714D01*
X25288095Y-32154380D02*
X25335714Y-32202000D01*
X25288095Y-32249619D01*
X25240476Y-32202000D01*
X25288095Y-32154380D01*
X25288095Y-32249619D01*
X24811904Y-32487714D02*
X24811904Y-33154380D01*
X24811904Y-32582952D02*
X24764285Y-32535333D01*
X24669047Y-32487714D01*
X24526190Y-32487714D01*
X24430952Y-32535333D01*
X24383333Y-32630571D01*
X24383333Y-33154380D01*
X24050000Y-32487714D02*
X23669047Y-32487714D01*
X23907142Y-33154380D02*
X23907142Y-32297238D01*
X23859523Y-32202000D01*
X23764285Y-32154380D01*
X23669047Y-32154380D01*
X22954761Y-33106761D02*
X23050000Y-33154380D01*
X23240476Y-33154380D01*
X23335714Y-33106761D01*
X23383333Y-33011523D01*
X23383333Y-32630571D01*
X23335714Y-32535333D01*
X23240476Y-32487714D01*
X23050000Y-32487714D01*
X22954761Y-32535333D01*
X22907142Y-32630571D01*
X22907142Y-32725809D01*
X23383333Y-32821047D01*
X22478571Y-33154380D02*
X22478571Y-32487714D01*
X22478571Y-32678190D02*
X22430952Y-32582952D01*
X22383333Y-32535333D01*
X22288095Y-32487714D01*
X22192857Y-32487714D01*
X21859523Y-32487714D02*
X21859523Y-33154380D01*
X21859523Y-32582952D02*
X21811904Y-32535333D01*
X21716666Y-32487714D01*
X21573809Y-32487714D01*
X21478571Y-32535333D01*
X21430952Y-32630571D01*
X21430952Y-33154380D01*
X20811904Y-33154380D02*
X20907142Y-33106761D01*
X20954761Y-33059142D01*
X21002380Y-32963904D01*
X21002380Y-32678190D01*
X20954761Y-32582952D01*
X20907142Y-32535333D01*
X20811904Y-32487714D01*
X20669047Y-32487714D01*
X20573809Y-32535333D01*
X20526190Y-32582952D01*
X20478571Y-32678190D01*
X20478571Y-32963904D01*
X20526190Y-33059142D01*
X20573809Y-33106761D01*
X20669047Y-33154380D01*
X20811904Y-33154380D01*
X19669047Y-33106761D02*
X19764285Y-33154380D01*
X19954761Y-33154380D01*
X20050000Y-33106761D01*
X20097619Y-33011523D01*
X20097619Y-32630571D01*
X20050000Y-32535333D01*
X19954761Y-32487714D01*
X19764285Y-32487714D01*
X19669047Y-32535333D01*
X19621428Y-32630571D01*
X19621428Y-32725809D01*
X20097619Y-32821047D01*
X19192857Y-33154380D02*
X19192857Y-32487714D01*
X19192857Y-32582952D02*
X19145238Y-32535333D01*
X19050000Y-32487714D01*
X18907142Y-32487714D01*
X18811904Y-32535333D01*
X18764285Y-32630571D01*
X18764285Y-33154380D01*
X18764285Y-32630571D02*
X18716666Y-32535333D01*
X18621428Y-32487714D01*
X18478571Y-32487714D01*
X18383333Y-32535333D01*
X18335714Y-32630571D01*
X18335714Y-33154380D01*
X17859523Y-33154380D02*
X17859523Y-32154380D01*
X17859523Y-32535333D02*
X17764285Y-32487714D01*
X17573809Y-32487714D01*
X17478571Y-32535333D01*
X17430952Y-32582952D01*
X17383333Y-32678190D01*
X17383333Y-32963904D01*
X17430952Y-33059142D01*
X17478571Y-33106761D01*
X17573809Y-33154380D01*
X17764285Y-33154380D01*
X17859523Y-33106761D01*
X16573809Y-33106761D02*
X16669047Y-33154380D01*
X16859523Y-33154380D01*
X16954761Y-33106761D01*
X17002380Y-33011523D01*
X17002380Y-32630571D01*
X16954761Y-32535333D01*
X16859523Y-32487714D01*
X16669047Y-32487714D01*
X16573809Y-32535333D01*
X16526190Y-32630571D01*
X16526190Y-32725809D01*
X17002380Y-32821047D01*
X15669047Y-33154380D02*
X15669047Y-32154380D01*
X15669047Y-33106761D02*
X15764285Y-33154380D01*
X15954761Y-33154380D01*
X16050000Y-33106761D01*
X16097619Y-33059142D01*
X16145238Y-32963904D01*
X16145238Y-32678190D01*
X16097619Y-32582952D01*
X16050000Y-32535333D01*
X15954761Y-32487714D01*
X15764285Y-32487714D01*
X15669047Y-32535333D01*
X14764285Y-33154380D02*
X14764285Y-32154380D01*
X14764285Y-33106761D02*
X14859523Y-33154380D01*
X15050000Y-33154380D01*
X15145238Y-33106761D01*
X15192857Y-33059142D01*
X15240476Y-32963904D01*
X15240476Y-32678190D01*
X15192857Y-32582952D01*
X15145238Y-32535333D01*
X15050000Y-32487714D01*
X14859523Y-32487714D01*
X14764285Y-32535333D01*
X13907142Y-33106761D02*
X14002380Y-33154380D01*
X14192857Y-33154380D01*
X14288095Y-33106761D01*
X14335714Y-33011523D01*
X14335714Y-32630571D01*
X14288095Y-32535333D01*
X14192857Y-32487714D01*
X14002380Y-32487714D01*
X13907142Y-32535333D01*
X13859523Y-32630571D01*
X13859523Y-32725809D01*
X14335714Y-32821047D01*
X13002380Y-33154380D02*
X13002380Y-32154380D01*
X13002380Y-33106761D02*
X13097619Y-33154380D01*
X13288095Y-33154380D01*
X13383333Y-33106761D01*
X13430952Y-33059142D01*
X13478571Y-32963904D01*
X13478571Y-32678190D01*
X13430952Y-32582952D01*
X13383333Y-32535333D01*
X13288095Y-32487714D01*
X13097619Y-32487714D01*
X13002380Y-32535333D01*
X12526190Y-33059142D02*
X12478571Y-33106761D01*
X12526190Y-33154380D01*
X12573809Y-33106761D01*
X12526190Y-33059142D01*
X12526190Y-33154380D01*
X11621428Y-33106761D02*
X11716666Y-33154380D01*
X11907142Y-33154380D01*
X12002380Y-33106761D01*
X12050000Y-33059142D01*
X12097619Y-32963904D01*
X12097619Y-32678190D01*
X12050000Y-32582952D01*
X12002380Y-32535333D01*
X11907142Y-32487714D01*
X11716666Y-32487714D01*
X11621428Y-32535333D01*
X11050000Y-33154380D02*
X11145238Y-33106761D01*
X11192857Y-33059142D01*
X11240476Y-32963904D01*
X11240476Y-32678190D01*
X11192857Y-32582952D01*
X11145238Y-32535333D01*
X11050000Y-32487714D01*
X10907142Y-32487714D01*
X10811904Y-32535333D01*
X10764285Y-32582952D01*
X10716666Y-32678190D01*
X10716666Y-32963904D01*
X10764285Y-33059142D01*
X10811904Y-33106761D01*
X10907142Y-33154380D01*
X11050000Y-33154380D01*
X10288095Y-33154380D02*
X10288095Y-32487714D01*
X10288095Y-32582952D02*
X10240476Y-32535333D01*
X10145238Y-32487714D01*
X10002380Y-32487714D01*
X9907142Y-32535333D01*
X9859523Y-32630571D01*
X9859523Y-33154380D01*
X9859523Y-32630571D02*
X9811904Y-32535333D01*
X9716666Y-32487714D01*
X9573809Y-32487714D01*
X9478571Y-32535333D01*
X9430952Y-32630571D01*
X9430952Y-33154380D01*
M02*
