%TF.GenerationSoftware,KiCad,Pcbnew,(5.0.1)-3*%
%TF.CreationDate,2018-12-23T10:43:27+11:00*%
%TF.ProjectId,16_Channel_SSR_Driver,31365F4368616E6E656C5F5353525F44,1.2*%
%TF.SameCoordinates,PX7c25018PY69db1f0*%
%TF.FileFunction,Paste,Top*%
%TF.FilePolarity,Positive*%
%FSLAX46Y46*%
G04 Gerber Fmt 4.6, Leading zero omitted, Abs format (unit mm)*
G04 Created by KiCad (PCBNEW (5.0.1)-3) date 23/12/2018 10:43:27 AM*
%MOMM*%
%LPD*%
G01*
G04 APERTURE LIST*
%ADD10C,0.100000*%
%ADD11R,3.000000X1.000000*%
%ADD12R,0.500000X0.900000*%
%ADD13R,1.000000X3.150000*%
%ADD14R,1.380000X1.250000*%
%ADD15R,0.350000X0.800000*%
%ADD16R,0.406400X1.219200*%
%ADD17R,0.800000X0.750000*%
%ADD18R,0.750000X0.800000*%
%ADD19R,1.500000X4.000000*%
%ADD20R,0.600000X2.100000*%
%ADD21R,1.000000X0.250000*%
%ADD22R,0.250000X1.000000*%
%ADD23R,2.200000X1.200000*%
%ADD24R,3.050000X2.750000*%
%ADD25R,1.600000X1.000000*%
G04 APERTURE END LIST*
D10*
G36*
X2959555Y-33715000D02*
X2659000Y-33715000D01*
X2659000Y-32964080D01*
X2959555Y-32964080D01*
X2959555Y-33715000D01*
G37*
G36*
X2309142Y-33715000D02*
X2009000Y-33715000D01*
X2009000Y-32963750D01*
X2309142Y-32963750D01*
X2309142Y-33715000D01*
G37*
G36*
X1658587Y-33715000D02*
X1359000Y-33715000D01*
X1359000Y-32963910D01*
X1658587Y-32963910D01*
X1658587Y-33715000D01*
G37*
G36*
X1359000Y-34865043D02*
X1658963Y-34865043D01*
X1658963Y-35615000D01*
X1359000Y-35615000D01*
X1359000Y-34865043D01*
G37*
G36*
X2009000Y-34865076D02*
X2309020Y-34865076D01*
X2309020Y-35615000D01*
X2009000Y-35615000D01*
X2009000Y-34865076D01*
G37*
G36*
X2659000Y-34866111D02*
X2960546Y-34866111D01*
X2960546Y-35615000D01*
X2659000Y-35615000D01*
X2659000Y-34866111D01*
G37*
D11*
X37235000Y-18923000D03*
X42775000Y-18923000D03*
X37235000Y-21463000D03*
X42775000Y-21463000D03*
X37235000Y-24003000D03*
X42775000Y-24003000D03*
X37235000Y-26543000D03*
X42775000Y-26543000D03*
X37235000Y-29083000D03*
X42775000Y-29083000D03*
D12*
X42533000Y-32766000D03*
X41033000Y-32766000D03*
D13*
X41783000Y-2301000D03*
X41783000Y-7351000D03*
X39243000Y-2301000D03*
X39243000Y-7351000D03*
X36703000Y-2301000D03*
X36703000Y-7351000D03*
X34163000Y-2301000D03*
X34163000Y-7351000D03*
X31623000Y-2301000D03*
X31623000Y-7351000D03*
X29083000Y-2301000D03*
X29083000Y-7351000D03*
X26543000Y-2301000D03*
X26543000Y-7351000D03*
X24003000Y-2301000D03*
X24003000Y-7351000D03*
X21463000Y-2301000D03*
X21463000Y-7351000D03*
X18923000Y-2301000D03*
X18923000Y-7351000D03*
X16383000Y-2301000D03*
X16383000Y-7351000D03*
X13843000Y-2301000D03*
X13843000Y-7351000D03*
X11303000Y-2301000D03*
X11303000Y-7351000D03*
X8763000Y-2301000D03*
X8763000Y-7351000D03*
X6223000Y-2301000D03*
X6223000Y-7351000D03*
X3683000Y-2301000D03*
X3683000Y-7351000D03*
D14*
X4541000Y-18796000D03*
X2921000Y-18796000D03*
X2921000Y-16510000D03*
X4541000Y-16510000D03*
X4541000Y-14224000D03*
X2921000Y-14224000D03*
D15*
X2809000Y-33340000D03*
X2159000Y-33340000D03*
X1509000Y-33340000D03*
X1509000Y-35240000D03*
X2159000Y-35240000D03*
X2809000Y-35240000D03*
D16*
X18288000Y-27228800D03*
X17018000Y-27228800D03*
X15748000Y-27228800D03*
X15748000Y-30429200D03*
X17018000Y-30429200D03*
X18288000Y-30429200D03*
D17*
X29325000Y-30734000D03*
X27825000Y-30734000D03*
D18*
X18161000Y-12192000D03*
X18161000Y-13692000D03*
D17*
X29579000Y-27432000D03*
X28079000Y-27432000D03*
D18*
X33020000Y-16141000D03*
X33020000Y-17641000D03*
D19*
X23370000Y-41282000D03*
D20*
X35570000Y-34302000D03*
X34550000Y-34302000D03*
X33530000Y-34302000D03*
X32510000Y-34302000D03*
X31490000Y-34302000D03*
X30470000Y-34302000D03*
X29450000Y-34302000D03*
X28430000Y-34302000D03*
D19*
X40470000Y-41282000D03*
X3685000Y-41282000D03*
D20*
X15885000Y-34302000D03*
X14865000Y-34302000D03*
X13845000Y-34302000D03*
X12825000Y-34302000D03*
X11805000Y-34302000D03*
X10785000Y-34302000D03*
X9765000Y-34302000D03*
X8745000Y-34302000D03*
D19*
X20785000Y-41282000D03*
D21*
X31227000Y-22546000D03*
X31227000Y-22046000D03*
X31227000Y-21546000D03*
X31227000Y-21046000D03*
X31227000Y-20546000D03*
X31227000Y-20046000D03*
X31227000Y-19546000D03*
X31227000Y-19046000D03*
X31227000Y-18546000D03*
X31227000Y-18046000D03*
X31227000Y-17546000D03*
X31227000Y-17046000D03*
X31227000Y-16546000D03*
X31227000Y-16046000D03*
X31227000Y-15546000D03*
X31227000Y-15046000D03*
D22*
X29277000Y-13096000D03*
X28777000Y-13096000D03*
X28277000Y-13096000D03*
X27777000Y-13096000D03*
X27277000Y-13096000D03*
X26777000Y-13096000D03*
X26277000Y-13096000D03*
X25777000Y-13096000D03*
X25277000Y-13096000D03*
X24777000Y-13096000D03*
X24277000Y-13096000D03*
X23777000Y-13096000D03*
X23277000Y-13096000D03*
X22777000Y-13096000D03*
X22277000Y-13096000D03*
X21777000Y-13096000D03*
D21*
X19827000Y-15046000D03*
X19827000Y-15546000D03*
X19827000Y-16046000D03*
X19827000Y-16546000D03*
X19827000Y-17046000D03*
X19827000Y-17546000D03*
X19827000Y-18046000D03*
X19827000Y-18546000D03*
X19827000Y-19046000D03*
X19827000Y-19546000D03*
X19827000Y-20046000D03*
X19827000Y-20546000D03*
X19827000Y-21046000D03*
X19827000Y-21546000D03*
X19827000Y-22046000D03*
X19827000Y-22546000D03*
D22*
X21777000Y-24496000D03*
X22277000Y-24496000D03*
X22777000Y-24496000D03*
X23277000Y-24496000D03*
X23777000Y-24496000D03*
X24277000Y-24496000D03*
X24777000Y-24496000D03*
X25277000Y-24496000D03*
X25777000Y-24496000D03*
X26277000Y-24496000D03*
X26777000Y-24496000D03*
X27277000Y-24496000D03*
X27777000Y-24496000D03*
X28277000Y-24496000D03*
X28777000Y-24496000D03*
X29277000Y-24496000D03*
D23*
X11820000Y-30220000D03*
X11820000Y-25660000D03*
D24*
X3845000Y-26415000D03*
X7195000Y-29465000D03*
X3845000Y-29465000D03*
X7195000Y-26415000D03*
D25*
X23876000Y-31599000D03*
X23876000Y-28599000D03*
M02*
