G04 #@! TF.FileFunction,Copper,L2,Bot,Signal*
%FSLAX46Y46*%
G04 Gerber Fmt 4.6, Leading zero omitted, Abs format (unit mm)*
G04 Created by KiCad (PCBNEW 4.0.4-stable) date 11/13/16 23:20:29*
%MOMM*%
%LPD*%
G01*
G04 APERTURE LIST*
%ADD10C,0.100000*%
%ADD11C,0.900000*%
%ADD12R,3.500120X3.500120*%
%ADD13C,2.500000*%
%ADD14R,2.032000X1.727200*%
%ADD15O,2.032000X1.727200*%
%ADD16C,1.500000*%
%ADD17C,2.000000*%
%ADD18C,0.600000*%
%ADD19C,0.250000*%
%ADD20C,1.000000*%
%ADD21C,3.000000*%
%ADD22C,0.254000*%
G04 APERTURE END LIST*
D10*
D11*
X145036000Y-157106000D03*
X162136000Y-157106000D03*
D12*
X143360140Y-83312000D03*
X137360660Y-83312000D03*
X140360400Y-88011000D03*
D13*
X218226000Y-131572000D03*
X218226000Y-136652000D03*
D11*
X165356000Y-157106000D03*
X182456000Y-157106000D03*
D13*
X190500000Y-72096000D03*
X195580000Y-72096000D03*
X200660000Y-72096000D03*
X205740000Y-72096000D03*
X210820000Y-72136000D03*
X149352000Y-72096000D03*
X154432000Y-72096000D03*
X163322000Y-72096000D03*
X168402000Y-72096000D03*
X173482000Y-72096000D03*
X178562000Y-72096000D03*
X183642000Y-72136000D03*
D14*
X163068000Y-119634000D03*
D15*
X163068000Y-122174000D03*
X163068000Y-124714000D03*
X163068000Y-127254000D03*
D16*
X202184000Y-125098000D03*
X204724000Y-125098000D03*
D17*
X214884000Y-125098000D03*
X222504000Y-125098000D03*
D18*
X164020500Y-134366000D03*
X165862000Y-137858500D03*
X167957500Y-141414500D03*
X173418500Y-141287500D03*
X176847500Y-141033500D03*
X186309000Y-136652000D03*
X187134500Y-127762000D03*
X199199500Y-127381000D03*
X199199500Y-137033000D03*
X177863500Y-148590000D03*
X153098000Y-148146000D03*
X160591500Y-105346500D03*
X165608000Y-105346500D03*
X166370000Y-108204000D03*
X193611500Y-86995000D03*
X199707500Y-87185500D03*
X202057000Y-89281000D03*
X205613000Y-89471500D03*
X211772500Y-89598500D03*
X215709500Y-87630000D03*
X218567000Y-87566500D03*
X222377000Y-87757000D03*
X174180000Y-148590000D03*
X169482000Y-149162000D03*
X179006000Y-102680000D03*
X181610000Y-102172000D03*
X181928000Y-98361500D03*
X182499000Y-94615000D03*
X182499000Y-91884500D03*
X184976000Y-87630000D03*
X180848000Y-87503000D03*
X176403000Y-87566500D03*
X172085000Y-87503000D03*
X166814000Y-87503000D03*
X134747000Y-92900500D03*
X143446000Y-93154500D03*
X150749000Y-91503500D03*
X150749000Y-96647000D03*
X143574000Y-99822000D03*
X136334000Y-100394000D03*
X133922000Y-108204000D03*
X139319000Y-108268000D03*
X146939000Y-108268000D03*
X153035000Y-107886000D03*
X157861000Y-112204000D03*
X164719000Y-114490000D03*
X170053000Y-114490000D03*
X189294000Y-115380000D03*
X195326000Y-121856000D03*
X202438000Y-119316000D03*
X196215000Y-117538000D03*
X197231000Y-111506000D03*
X206820000Y-109220000D03*
X201041000Y-105474000D03*
X205296000Y-100394000D03*
X208216000Y-103060000D03*
X215138000Y-106807000D03*
X220282000Y-103632000D03*
X222377000Y-96393000D03*
X178689000Y-123254000D03*
X177165000Y-124968000D03*
X181483000Y-119634000D03*
X175815000Y-129926000D03*
X172352000Y-132887000D03*
X177101500Y-135826500D03*
X177927000Y-129857500D03*
X173037500Y-146621500D03*
X170053000Y-147193000D03*
X173129400Y-147516000D03*
X166750900Y-147441000D03*
X182815000Y-151072000D03*
X184015000Y-132551000D03*
X159976000Y-126796000D03*
X173151000Y-127183000D03*
X192786000Y-92329000D03*
X181292500Y-108331000D03*
X174708000Y-111892000D03*
X156933000Y-94435200D03*
X205549500Y-98298000D03*
X190436500Y-111887000D03*
X215773000Y-95694500D03*
X178879500Y-114300000D03*
X175364000Y-115383000D03*
X169410000Y-94258500D03*
X176169000Y-117971000D03*
X179469000Y-93984200D03*
D19*
X164020500Y-134366000D02*
X163068000Y-134366000D01*
X165862000Y-139319000D02*
X165862000Y-137858500D01*
X167957500Y-141414500D02*
X165862000Y-139319000D01*
X176593500Y-141287500D02*
X173418500Y-141287500D01*
X176847500Y-141033500D02*
X176593500Y-141287500D01*
X163068000Y-134366000D02*
X163322000Y-134366000D01*
X163322000Y-134366000D02*
X163068000Y-134366000D01*
X186309000Y-128587500D02*
X186309000Y-136652000D01*
X187134500Y-127762000D02*
X186309000Y-128587500D01*
X199199500Y-137033000D02*
X199199500Y-127381000D01*
X177863500Y-148590000D02*
X177863500Y-148702000D01*
X177863500Y-148702000D02*
X177863500Y-148590000D01*
X177863500Y-148590000D02*
X177863500Y-148702000D01*
X172402500Y-150114000D02*
X172402500Y-149288500D01*
X173101000Y-148590000D02*
X174180000Y-148590000D01*
X172402500Y-149288500D02*
X173101000Y-148590000D01*
X165608000Y-107442000D02*
X165608000Y-105346500D01*
X166370000Y-108204000D02*
X165608000Y-107442000D01*
X199517000Y-86995000D02*
X193611500Y-86995000D01*
X199707500Y-87185500D02*
X199517000Y-86995000D01*
X205422500Y-89281000D02*
X202057000Y-89281000D01*
X205613000Y-89471500D02*
X205422500Y-89281000D01*
X213741000Y-89598500D02*
X211772500Y-89598500D01*
X215709500Y-87630000D02*
X213741000Y-89598500D01*
X222186500Y-87566500D02*
X218567000Y-87566500D01*
X222377000Y-87757000D02*
X222186500Y-87566500D01*
X174180000Y-148590000D02*
X174180000Y-148702000D01*
X169482000Y-149162000D02*
X169482000Y-148702000D01*
D20*
X181102000Y-102680000D02*
X179006000Y-102680000D01*
X181610000Y-102172000D02*
X181102000Y-102680000D01*
X181928000Y-95186500D02*
X181928000Y-98361500D01*
X182499000Y-94615000D02*
X181928000Y-95186500D01*
X182499000Y-91694000D02*
X182499000Y-91884500D01*
X182626000Y-91567000D02*
X182499000Y-91694000D01*
X184976000Y-91567000D02*
X182626000Y-91567000D01*
X184848000Y-87503000D02*
X180848000Y-87503000D01*
X184976000Y-87630000D02*
X184848000Y-87503000D01*
X176340000Y-87503000D02*
X172085000Y-87503000D01*
X176403000Y-87566500D02*
X176340000Y-87503000D01*
X135001000Y-93154500D02*
X143446000Y-93154500D01*
X134747000Y-92900500D02*
X135001000Y-93154500D01*
X150749000Y-91503500D02*
X150749000Y-96647000D01*
X143002000Y-100394000D02*
X136334000Y-100394000D01*
X143574000Y-99822000D02*
X143002000Y-100394000D01*
X133985000Y-108268000D02*
X139319000Y-108268000D01*
X133922000Y-108204000D02*
X133985000Y-108268000D01*
X147320000Y-107886000D02*
X153035000Y-107886000D01*
X146939000Y-108268000D02*
X147320000Y-107886000D01*
X160147000Y-114490000D02*
X164719000Y-114490000D01*
X157861000Y-112204000D02*
X160147000Y-114490000D01*
X170244000Y-114681000D02*
X171831000Y-114681000D01*
X170053000Y-114490000D02*
X170244000Y-114681000D01*
X199898000Y-121856000D02*
X195326000Y-121856000D01*
X202438000Y-119316000D02*
X199898000Y-121856000D01*
X196215000Y-112522000D02*
X196215000Y-117538000D01*
X197231000Y-111506000D02*
X196215000Y-112522000D01*
X204788000Y-109220000D02*
X206820000Y-109220000D01*
X201041000Y-105474000D02*
X204788000Y-109220000D01*
X205550000Y-100394000D02*
X205296000Y-100394000D01*
X208216000Y-103060000D02*
X205550000Y-100394000D01*
X217106000Y-106807000D02*
X215138000Y-106807000D01*
X220282000Y-103632000D02*
X217106000Y-106807000D01*
X221996000Y-96012000D02*
X222377000Y-96393000D01*
X221996000Y-91567000D02*
X221996000Y-96012000D01*
X178689000Y-123444000D02*
X178689000Y-123254000D01*
X177165000Y-124968000D02*
X178689000Y-123444000D01*
X165356000Y-148702000D02*
X165356000Y-157106000D01*
X163526000Y-146872000D02*
X165356000Y-148702000D01*
X163526000Y-141506000D02*
X163526000Y-146872000D01*
X163068000Y-141048000D02*
X163526000Y-141506000D01*
X163068000Y-127254000D02*
X163068000Y-134366000D01*
X163068000Y-134366000D02*
X163068000Y-141048000D01*
X162136000Y-157106000D02*
X165356000Y-157106000D01*
X165356000Y-148702000D02*
X169482000Y-148702000D01*
X169482000Y-148702000D02*
X174180000Y-148702000D01*
X181814000Y-156464000D02*
X182456000Y-157106000D01*
X181814000Y-149873000D02*
X181814000Y-156464000D01*
X180644000Y-148702000D02*
X181814000Y-149873000D01*
X174180000Y-148702000D02*
X177863500Y-148702000D01*
X177863500Y-148702000D02*
X180644000Y-148702000D01*
X163068000Y-119634000D02*
X181483000Y-119634000D01*
D19*
X172352000Y-132887000D02*
X172853000Y-132887000D01*
X172853000Y-132887000D02*
X175815000Y-129926000D01*
X177101500Y-130683000D02*
X177101500Y-135826500D01*
X177927000Y-129857500D02*
X177101500Y-130683000D01*
D21*
X183642000Y-70104000D02*
X181800000Y-68262500D01*
X183642000Y-72136000D02*
X183642000Y-70104000D01*
X157036000Y-68262500D02*
X181800000Y-68262500D01*
X154432000Y-70866000D02*
X157036000Y-68262500D01*
X154432000Y-72096000D02*
X154432000Y-70866000D01*
X206946000Y-68262500D02*
X210820000Y-72136000D01*
X181800000Y-68262500D02*
X206946000Y-68262500D01*
X143360000Y-83167900D02*
X143360000Y-83203900D01*
X154432000Y-72096000D02*
X143360000Y-83167900D01*
X143360000Y-83203900D02*
X143360000Y-83239900D01*
X143360100Y-83204000D02*
X143360100Y-83312000D01*
X143360000Y-83203900D02*
X143360100Y-83204000D01*
D19*
X170624500Y-146621500D02*
X173037500Y-146621500D01*
X170053000Y-147193000D02*
X170624500Y-146621500D01*
X167180300Y-147870400D02*
X166750900Y-147441000D01*
X172775000Y-147870400D02*
X167180300Y-147870400D01*
X173129400Y-147516000D02*
X172775000Y-147870400D01*
X184015000Y-132551000D02*
X182815000Y-133751000D01*
X182815000Y-133751000D02*
X182815000Y-151072000D01*
X172002000Y-126035000D02*
X173151000Y-127183000D01*
X160737000Y-126035000D02*
X172002000Y-126035000D01*
X159976000Y-126796000D02*
X160737000Y-126035000D01*
X192786000Y-96837500D02*
X192786000Y-92329000D01*
X181292500Y-108331000D02*
X192786000Y-96837500D01*
X174389000Y-111892000D02*
X156933000Y-94435200D01*
X174708000Y-111892000D02*
X174389000Y-111892000D01*
X204025500Y-98298000D02*
X205549500Y-98298000D01*
X190436500Y-111887000D02*
X204025500Y-98298000D01*
X197485000Y-95694500D02*
X215773000Y-95694500D01*
X178879500Y-114300000D02*
X197485000Y-95694500D01*
X175364000Y-100212000D02*
X169410000Y-94258500D01*
X175364000Y-115383000D02*
X175364000Y-100212000D01*
X176169000Y-97284400D02*
X179469000Y-93984200D01*
X176169000Y-117971000D02*
X176169000Y-97284400D01*
D22*
G36*
X228906000Y-112776000D02*
X226911491Y-112776000D01*
X226863754Y-112716456D01*
X226673890Y-112556970D01*
X226172538Y-112281575D01*
X226004098Y-112228368D01*
X225936095Y-112206887D01*
X225367518Y-112144314D01*
X225332488Y-112147360D01*
X225298000Y-112140500D01*
X209296000Y-112140500D01*
X209234612Y-112152711D01*
X209172020Y-112152711D01*
X208588810Y-112268719D01*
X208493920Y-112308024D01*
X208359726Y-112363609D01*
X207865305Y-112693970D01*
X207865304Y-112693971D01*
X207745609Y-112813665D01*
X207744465Y-112814447D01*
X207743811Y-112815463D01*
X207689970Y-112869304D01*
X207359609Y-113363726D01*
X207315482Y-113470259D01*
X207264719Y-113592810D01*
X207148711Y-114176020D01*
X207148711Y-114238612D01*
X207136500Y-114300000D01*
X207136500Y-144526000D01*
X207148711Y-144587388D01*
X207148711Y-144649980D01*
X207279220Y-145306090D01*
X207374110Y-145535175D01*
X207645449Y-145941265D01*
X207645000Y-146176758D01*
X207654912Y-146226187D01*
X207683273Y-146267865D01*
X207725615Y-146295226D01*
X207772000Y-146304000D01*
X207976874Y-146304000D01*
X208477324Y-146638390D01*
X208539291Y-146664057D01*
X208706409Y-146733280D01*
X209362520Y-146863789D01*
X209425112Y-146863789D01*
X209486500Y-146876000D01*
X225107500Y-146876000D01*
X225168889Y-146863789D01*
X225231480Y-146863789D01*
X225838990Y-146742948D01*
X226000977Y-146675850D01*
X226068075Y-146648058D01*
X226582994Y-146304000D01*
X228906000Y-146304000D01*
X228906000Y-159818000D01*
X181431000Y-159818000D01*
X181431000Y-157859745D01*
X181881860Y-157859745D01*
X181912803Y-158069712D01*
X182322948Y-158204226D01*
X182753349Y-158171546D01*
X182999197Y-158069712D01*
X183030140Y-157859745D01*
X182456000Y-157285605D01*
X181881860Y-157859745D01*
X181431000Y-157859745D01*
X181431000Y-157501235D01*
X181492288Y-157649197D01*
X181702255Y-157680140D01*
X182276395Y-157106000D01*
X182635605Y-157106000D01*
X183209745Y-157680140D01*
X183419712Y-157649197D01*
X183554226Y-157239052D01*
X183521546Y-156808651D01*
X183419712Y-156562803D01*
X183209745Y-156531860D01*
X182635605Y-157106000D01*
X182276395Y-157106000D01*
X181702255Y-156531860D01*
X181492288Y-156562803D01*
X181431000Y-156749675D01*
X181431000Y-156352255D01*
X181881860Y-156352255D01*
X182456000Y-156926395D01*
X183030140Y-156352255D01*
X182999197Y-156142288D01*
X182589052Y-156007774D01*
X182158651Y-156040454D01*
X181912803Y-156142288D01*
X181881860Y-156352255D01*
X181431000Y-156352255D01*
X181431000Y-155442619D01*
X219764613Y-155442619D01*
X220104155Y-156264372D01*
X220732321Y-156893636D01*
X221553481Y-157234611D01*
X222442619Y-157235387D01*
X223264372Y-156895845D01*
X223893636Y-156267679D01*
X224234611Y-155446519D01*
X224235387Y-154557381D01*
X223895845Y-153735628D01*
X223267679Y-153106364D01*
X222446519Y-152765389D01*
X221557381Y-152764613D01*
X220735628Y-153104155D01*
X220106364Y-153732321D01*
X219765389Y-154553481D01*
X219764613Y-155442619D01*
X181431000Y-155442619D01*
X181431000Y-152400000D01*
X181376954Y-152128295D01*
X181223046Y-151897954D01*
X180992705Y-151744046D01*
X180836582Y-151712991D01*
X180842657Y-151710481D01*
X181288914Y-151265003D01*
X181292167Y-151257167D01*
X181879838Y-151257167D01*
X182021883Y-151600943D01*
X182284673Y-151864192D01*
X182628201Y-152006838D01*
X183000167Y-152007162D01*
X183343943Y-151865117D01*
X183607192Y-151602327D01*
X183749838Y-151258799D01*
X183750162Y-150886833D01*
X183608117Y-150543057D01*
X183575000Y-150509882D01*
X183575000Y-134065802D01*
X184154680Y-133486122D01*
X184200167Y-133486162D01*
X184543943Y-133344117D01*
X184807192Y-133081327D01*
X184949838Y-132737799D01*
X184950162Y-132365833D01*
X184808117Y-132022057D01*
X184545327Y-131758808D01*
X184201799Y-131616162D01*
X183829833Y-131615838D01*
X183486057Y-131757883D01*
X183222808Y-132020673D01*
X183080162Y-132364201D01*
X183080121Y-132411077D01*
X182277599Y-133213599D01*
X182112852Y-133460161D01*
X182055000Y-133751000D01*
X182055000Y-150509537D01*
X182022808Y-150541673D01*
X181880162Y-150885201D01*
X181879838Y-151257167D01*
X181292167Y-151257167D01*
X181530724Y-150682659D01*
X181531275Y-150052107D01*
X181290481Y-149469343D01*
X180845003Y-149023086D01*
X180262659Y-148781276D01*
X179632107Y-148780725D01*
X179049343Y-149021519D01*
X178603086Y-149466997D01*
X178361276Y-150049341D01*
X178360725Y-150679893D01*
X178601519Y-151262657D01*
X179028116Y-151690000D01*
X168873174Y-151690000D01*
X169298914Y-151265003D01*
X169540724Y-150682659D01*
X169541275Y-150052107D01*
X169300481Y-149469343D01*
X168855003Y-149023086D01*
X168272659Y-148781276D01*
X167642107Y-148780725D01*
X167059343Y-149021519D01*
X166613086Y-149466997D01*
X166371276Y-150049341D01*
X166370725Y-150679893D01*
X166611519Y-151262657D01*
X167056997Y-151708914D01*
X167112193Y-151731833D01*
X167050795Y-151744046D01*
X166820454Y-151897954D01*
X166666546Y-152128295D01*
X166612500Y-152400000D01*
X166612500Y-159818000D01*
X161111000Y-159818000D01*
X161111000Y-157859745D01*
X161561860Y-157859745D01*
X161592803Y-158069712D01*
X162002948Y-158204226D01*
X162433349Y-158171546D01*
X162679197Y-158069712D01*
X162710140Y-157859745D01*
X164781860Y-157859745D01*
X164812803Y-158069712D01*
X165222948Y-158204226D01*
X165653349Y-158171546D01*
X165899197Y-158069712D01*
X165930140Y-157859745D01*
X165356000Y-157285605D01*
X164781860Y-157859745D01*
X162710140Y-157859745D01*
X162136000Y-157285605D01*
X161561860Y-157859745D01*
X161111000Y-157859745D01*
X161111000Y-157501235D01*
X161172288Y-157649197D01*
X161382255Y-157680140D01*
X161956395Y-157106000D01*
X162315605Y-157106000D01*
X162889745Y-157680140D01*
X163099712Y-157649197D01*
X163234226Y-157239052D01*
X163214021Y-156972948D01*
X164257774Y-156972948D01*
X164290454Y-157403349D01*
X164392288Y-157649197D01*
X164602255Y-157680140D01*
X165176395Y-157106000D01*
X165535605Y-157106000D01*
X166109745Y-157680140D01*
X166319712Y-157649197D01*
X166454226Y-157239052D01*
X166421546Y-156808651D01*
X166319712Y-156562803D01*
X166109745Y-156531860D01*
X165535605Y-157106000D01*
X165176395Y-157106000D01*
X164602255Y-156531860D01*
X164392288Y-156562803D01*
X164257774Y-156972948D01*
X163214021Y-156972948D01*
X163201546Y-156808651D01*
X163099712Y-156562803D01*
X162889745Y-156531860D01*
X162315605Y-157106000D01*
X161956395Y-157106000D01*
X161382255Y-156531860D01*
X161172288Y-156562803D01*
X161111000Y-156749675D01*
X161111000Y-156352255D01*
X161561860Y-156352255D01*
X162136000Y-156926395D01*
X162710140Y-156352255D01*
X164781860Y-156352255D01*
X165356000Y-156926395D01*
X165930140Y-156352255D01*
X165899197Y-156142288D01*
X165489052Y-156007774D01*
X165058651Y-156040454D01*
X164812803Y-156142288D01*
X164781860Y-156352255D01*
X162710140Y-156352255D01*
X162679197Y-156142288D01*
X162269052Y-156007774D01*
X161838651Y-156040454D01*
X161592803Y-156142288D01*
X161561860Y-156352255D01*
X161111000Y-156352255D01*
X161111000Y-152400000D01*
X161056954Y-152128295D01*
X160903046Y-151897954D01*
X160672705Y-151744046D01*
X160516582Y-151712991D01*
X160522657Y-151710481D01*
X160968914Y-151265003D01*
X161210724Y-150682659D01*
X161211275Y-150052107D01*
X160970481Y-149469343D01*
X160525003Y-149023086D01*
X159942659Y-148781276D01*
X159312107Y-148780725D01*
X158729343Y-149021519D01*
X158283086Y-149466997D01*
X158041276Y-150049341D01*
X158040725Y-150679893D01*
X158281519Y-151262657D01*
X158708116Y-151690000D01*
X148553174Y-151690000D01*
X148978914Y-151265003D01*
X149220724Y-150682659D01*
X149221275Y-150052107D01*
X148980481Y-149469343D01*
X148535003Y-149023086D01*
X147952659Y-148781276D01*
X147322107Y-148780725D01*
X146739343Y-149021519D01*
X146293086Y-149466997D01*
X146051276Y-150049341D01*
X146050725Y-150679893D01*
X146291519Y-151262657D01*
X146736997Y-151708914D01*
X146792193Y-151731833D01*
X146730795Y-151744046D01*
X146500454Y-151897954D01*
X146346546Y-152128295D01*
X146292500Y-152400000D01*
X146292500Y-159818000D01*
X130504000Y-159818000D01*
X130504000Y-157859745D01*
X144461860Y-157859745D01*
X144492803Y-158069712D01*
X144902948Y-158204226D01*
X145333349Y-158171546D01*
X145579197Y-158069712D01*
X145610140Y-157859745D01*
X145036000Y-157285605D01*
X144461860Y-157859745D01*
X130504000Y-157859745D01*
X130504000Y-155442619D01*
X135764613Y-155442619D01*
X136104155Y-156264372D01*
X136732321Y-156893636D01*
X137553481Y-157234611D01*
X138442619Y-157235387D01*
X139077768Y-156972948D01*
X143937774Y-156972948D01*
X143970454Y-157403349D01*
X144072288Y-157649197D01*
X144282255Y-157680140D01*
X144856395Y-157106000D01*
X145215605Y-157106000D01*
X145789745Y-157680140D01*
X145999712Y-157649197D01*
X146134226Y-157239052D01*
X146101546Y-156808651D01*
X145999712Y-156562803D01*
X145789745Y-156531860D01*
X145215605Y-157106000D01*
X144856395Y-157106000D01*
X144282255Y-156531860D01*
X144072288Y-156562803D01*
X143937774Y-156972948D01*
X139077768Y-156972948D01*
X139264372Y-156895845D01*
X139808912Y-156352255D01*
X144461860Y-156352255D01*
X145036000Y-156926395D01*
X145610140Y-156352255D01*
X145579197Y-156142288D01*
X145169052Y-156007774D01*
X144738651Y-156040454D01*
X144492803Y-156142288D01*
X144461860Y-156352255D01*
X139808912Y-156352255D01*
X139893636Y-156267679D01*
X140234611Y-155446519D01*
X140235387Y-154557381D01*
X139895845Y-153735628D01*
X139267679Y-153106364D01*
X138446519Y-152765389D01*
X137557381Y-152764613D01*
X136735628Y-153104155D01*
X136106364Y-153732321D01*
X135765389Y-154553481D01*
X135764613Y-155442619D01*
X130504000Y-155442619D01*
X130504000Y-147626167D01*
X165815738Y-147626167D01*
X165957783Y-147969943D01*
X166220573Y-148233192D01*
X166564101Y-148375838D01*
X166610977Y-148375879D01*
X166642899Y-148407801D01*
X166889460Y-148572548D01*
X167180300Y-148630400D01*
X172775000Y-148630400D01*
X173065839Y-148572548D01*
X173247594Y-148451104D01*
X173314567Y-148451162D01*
X173658343Y-148309117D01*
X173921592Y-148046327D01*
X174064238Y-147702799D01*
X174064562Y-147330833D01*
X173922517Y-146987057D01*
X173905281Y-146969790D01*
X173972338Y-146808299D01*
X173972662Y-146436333D01*
X173830617Y-146092557D01*
X173567827Y-145829308D01*
X173224299Y-145686662D01*
X172852333Y-145686338D01*
X172508557Y-145828383D01*
X172475382Y-145861500D01*
X170624500Y-145861500D01*
X170333661Y-145919352D01*
X170087099Y-146084099D01*
X169913320Y-146257878D01*
X169867833Y-146257838D01*
X169524057Y-146399883D01*
X169260808Y-146662673D01*
X169118162Y-147006201D01*
X169118071Y-147110400D01*
X167625970Y-147110400D01*
X167544017Y-146912057D01*
X167281227Y-146648808D01*
X166937699Y-146506162D01*
X166565733Y-146505838D01*
X166221957Y-146647883D01*
X165958708Y-146910673D01*
X165816062Y-147254201D01*
X165815738Y-147626167D01*
X130504000Y-147626167D01*
X130504000Y-133072167D01*
X171416838Y-133072167D01*
X171558883Y-133415943D01*
X171821673Y-133679192D01*
X172165201Y-133821838D01*
X172537167Y-133822162D01*
X172880943Y-133680117D01*
X172929327Y-133631818D01*
X172998105Y-133618137D01*
X173143721Y-133589197D01*
X173143775Y-133589161D01*
X173143839Y-133589148D01*
X173266295Y-133507326D01*
X173390310Y-133424492D01*
X175954546Y-130861122D01*
X176000167Y-130861162D01*
X176341500Y-130720126D01*
X176341500Y-135264037D01*
X176309308Y-135296173D01*
X176166662Y-135639701D01*
X176166338Y-136011667D01*
X176308383Y-136355443D01*
X176571173Y-136618692D01*
X176914701Y-136761338D01*
X177286667Y-136761662D01*
X177630443Y-136619617D01*
X177893692Y-136356827D01*
X178036338Y-136013299D01*
X178036662Y-135641333D01*
X177894617Y-135297557D01*
X177861500Y-135264382D01*
X177861500Y-130997802D01*
X178066680Y-130792622D01*
X178112167Y-130792662D01*
X178455943Y-130650617D01*
X178719192Y-130387827D01*
X178861838Y-130044299D01*
X178862162Y-129672333D01*
X178720117Y-129328557D01*
X178457327Y-129065308D01*
X178113799Y-128922662D01*
X177741833Y-128922338D01*
X177398057Y-129064383D01*
X177134808Y-129327173D01*
X176992162Y-129670701D01*
X176992121Y-129717577D01*
X176749971Y-129959727D01*
X176750162Y-129740833D01*
X176608117Y-129397057D01*
X176345327Y-129133808D01*
X176001799Y-128991162D01*
X175629833Y-128990838D01*
X175286057Y-129132883D01*
X175022808Y-129395673D01*
X174880162Y-129739201D01*
X174880121Y-129785942D01*
X172661997Y-132003318D01*
X172538799Y-131952162D01*
X172166833Y-131951838D01*
X171823057Y-132093883D01*
X171559808Y-132356673D01*
X171417162Y-132700201D01*
X171416838Y-133072167D01*
X130504000Y-133072167D01*
X130504000Y-94620367D01*
X155997838Y-94620367D01*
X156139883Y-94964143D01*
X156402673Y-95227392D01*
X156746201Y-95370038D01*
X156793059Y-95370079D01*
X173851587Y-112429389D01*
X173851594Y-112429394D01*
X173851599Y-112429401D01*
X173979542Y-112514890D01*
X174067012Y-112573338D01*
X174177673Y-112684192D01*
X174521201Y-112826838D01*
X174604000Y-112826910D01*
X174604000Y-114820537D01*
X174571808Y-114852673D01*
X174429162Y-115196201D01*
X174428838Y-115568167D01*
X174570883Y-115911943D01*
X174833673Y-116175192D01*
X175177201Y-116317838D01*
X175409000Y-116318040D01*
X175409000Y-117408537D01*
X175376808Y-117440673D01*
X175234162Y-117784201D01*
X175233838Y-118156167D01*
X175375493Y-118499000D01*
X164663943Y-118499000D01*
X164548090Y-118318959D01*
X164335890Y-118173969D01*
X164084000Y-118122960D01*
X162052000Y-118122960D01*
X161816683Y-118167238D01*
X161600559Y-118306310D01*
X161455569Y-118518510D01*
X161404560Y-118770400D01*
X161404560Y-120497600D01*
X161448838Y-120732917D01*
X161587910Y-120949041D01*
X161800110Y-121094031D01*
X161841439Y-121102400D01*
X161823585Y-121114330D01*
X161498729Y-121600511D01*
X161384655Y-122174000D01*
X161498729Y-122747489D01*
X161823585Y-123233670D01*
X162138366Y-123444000D01*
X161823585Y-123654330D01*
X161498729Y-124140511D01*
X161384655Y-124714000D01*
X161496245Y-125275000D01*
X160737000Y-125275000D01*
X160446161Y-125332852D01*
X160199599Y-125497599D01*
X159836320Y-125860878D01*
X159790833Y-125860838D01*
X159447057Y-126002883D01*
X159183808Y-126265673D01*
X159041162Y-126609201D01*
X159040838Y-126981167D01*
X159182883Y-127324943D01*
X159445673Y-127588192D01*
X159789201Y-127730838D01*
X160161167Y-127731162D01*
X160447078Y-127613026D01*
X161460642Y-127613026D01*
X161463291Y-127628791D01*
X161717268Y-128156036D01*
X162153680Y-128545954D01*
X162706087Y-128739184D01*
X162941000Y-128594924D01*
X162941000Y-127381000D01*
X163195000Y-127381000D01*
X163195000Y-128594924D01*
X163429913Y-128739184D01*
X163982320Y-128545954D01*
X164418732Y-128156036D01*
X164672709Y-127628791D01*
X164675358Y-127613026D01*
X164554217Y-127381000D01*
X163195000Y-127381000D01*
X162941000Y-127381000D01*
X161581783Y-127381000D01*
X161460642Y-127613026D01*
X160447078Y-127613026D01*
X160504943Y-127589117D01*
X160768192Y-127326327D01*
X160910838Y-126982799D01*
X160910879Y-126935923D01*
X161051802Y-126795000D01*
X161503855Y-126795000D01*
X161463291Y-126879209D01*
X161460642Y-126894974D01*
X161581783Y-127127000D01*
X162941000Y-127127000D01*
X162941000Y-127107000D01*
X163195000Y-127107000D01*
X163195000Y-127127000D01*
X164554217Y-127127000D01*
X164675358Y-126894974D01*
X164672709Y-126879209D01*
X164632145Y-126795000D01*
X171687392Y-126795000D01*
X172215877Y-127323026D01*
X172215838Y-127368167D01*
X172357883Y-127711943D01*
X172620673Y-127975192D01*
X172964201Y-128117838D01*
X173336167Y-128118162D01*
X173679943Y-127976117D01*
X173943192Y-127713327D01*
X174085838Y-127369799D01*
X174086162Y-126997833D01*
X173944117Y-126654057D01*
X173681327Y-126390808D01*
X173337799Y-126248162D01*
X173290577Y-126248121D01*
X172539167Y-125497365D01*
X172415967Y-125415123D01*
X172351856Y-125372285D01*
X200798760Y-125372285D01*
X201009169Y-125881515D01*
X201398436Y-126271461D01*
X201907298Y-126482759D01*
X202458285Y-126483240D01*
X202967515Y-126272831D01*
X203357461Y-125883564D01*
X203453976Y-125651130D01*
X203549169Y-125881515D01*
X203938436Y-126271461D01*
X204447298Y-126482759D01*
X204998285Y-126483240D01*
X205507515Y-126272831D01*
X205897461Y-125883564D01*
X206108759Y-125374702D01*
X206109240Y-124823715D01*
X205898831Y-124314485D01*
X205509564Y-123924539D01*
X205000702Y-123713241D01*
X204449715Y-123712760D01*
X203940485Y-123923169D01*
X203550539Y-124312436D01*
X203454024Y-124544870D01*
X203358831Y-124314485D01*
X202969564Y-123924539D01*
X202460702Y-123713241D01*
X201909715Y-123712760D01*
X201400485Y-123923169D01*
X201010539Y-124312436D01*
X200799241Y-124821298D01*
X200798760Y-125372285D01*
X172351856Y-125372285D01*
X172292839Y-125332852D01*
X172292673Y-125332819D01*
X172292534Y-125332726D01*
X172147666Y-125303975D01*
X172002000Y-125275000D01*
X164639755Y-125275000D01*
X164751345Y-124714000D01*
X164637271Y-124140511D01*
X164312415Y-123654330D01*
X163997634Y-123444000D01*
X164312415Y-123233670D01*
X164637271Y-122747489D01*
X164751345Y-122174000D01*
X164637271Y-121600511D01*
X164312415Y-121114330D01*
X164298087Y-121104757D01*
X164319317Y-121100762D01*
X164535441Y-120961690D01*
X164667100Y-120769000D01*
X181483000Y-120769000D01*
X181917346Y-120682603D01*
X182285566Y-120436566D01*
X182531603Y-120068346D01*
X182618000Y-119634000D01*
X182531603Y-119199654D01*
X182285566Y-118831434D01*
X181917346Y-118585397D01*
X181483000Y-118499000D01*
X176962158Y-118499000D01*
X177103838Y-118157799D01*
X177104162Y-117785833D01*
X176962117Y-117442057D01*
X176929000Y-117408882D01*
X176929000Y-114485167D01*
X177944338Y-114485167D01*
X178086383Y-114828943D01*
X178349173Y-115092192D01*
X178692701Y-115234838D01*
X179064667Y-115235162D01*
X179408443Y-115093117D01*
X179671692Y-114830327D01*
X179814338Y-114486799D01*
X179814379Y-114439923D01*
X182182135Y-112072167D01*
X189501338Y-112072167D01*
X189643383Y-112415943D01*
X189906173Y-112679192D01*
X190249701Y-112821838D01*
X190621667Y-112822162D01*
X190965443Y-112680117D01*
X191228692Y-112417327D01*
X191371338Y-112073799D01*
X191371379Y-112026923D01*
X204340302Y-99058000D01*
X204987037Y-99058000D01*
X205019173Y-99090192D01*
X205362701Y-99232838D01*
X205734667Y-99233162D01*
X206078443Y-99091117D01*
X206341692Y-98828327D01*
X206484338Y-98484799D01*
X206484662Y-98112833D01*
X206342617Y-97769057D01*
X206079827Y-97505808D01*
X205736299Y-97363162D01*
X205364333Y-97362838D01*
X205020557Y-97504883D01*
X204987382Y-97538000D01*
X204025500Y-97538000D01*
X203734661Y-97595852D01*
X203488099Y-97760599D01*
X190296820Y-110951878D01*
X190251333Y-110951838D01*
X189907557Y-111093883D01*
X189644308Y-111356673D01*
X189501662Y-111700201D01*
X189501338Y-112072167D01*
X182182135Y-112072167D01*
X197799802Y-96454500D01*
X215210537Y-96454500D01*
X215242673Y-96486692D01*
X215586201Y-96629338D01*
X215958167Y-96629662D01*
X216301943Y-96487617D01*
X216565192Y-96224827D01*
X216707838Y-95881299D01*
X216708162Y-95509333D01*
X216566117Y-95165557D01*
X216303327Y-94902308D01*
X215959799Y-94759662D01*
X215587833Y-94759338D01*
X215244057Y-94901383D01*
X215210882Y-94934500D01*
X197485000Y-94934500D01*
X197242414Y-94982754D01*
X197194160Y-94992352D01*
X196947599Y-95157099D01*
X178739820Y-113364878D01*
X178694333Y-113364838D01*
X178350557Y-113506883D01*
X178087308Y-113769673D01*
X177944662Y-114113201D01*
X177944338Y-114485167D01*
X176929000Y-114485167D01*
X176929000Y-108516167D01*
X180357338Y-108516167D01*
X180499383Y-108859943D01*
X180762173Y-109123192D01*
X181105701Y-109265838D01*
X181477667Y-109266162D01*
X181821443Y-109124117D01*
X182084692Y-108861327D01*
X182227338Y-108517799D01*
X182227379Y-108470923D01*
X193323401Y-97374901D01*
X193488148Y-97128339D01*
X193546000Y-96837500D01*
X193546000Y-92891463D01*
X193578192Y-92859327D01*
X193720838Y-92515799D01*
X193721162Y-92143833D01*
X193579117Y-91800057D01*
X193316327Y-91536808D01*
X192972799Y-91394162D01*
X192600833Y-91393838D01*
X192257057Y-91535883D01*
X191993808Y-91798673D01*
X191851162Y-92142201D01*
X191850838Y-92514167D01*
X191992883Y-92857943D01*
X192026000Y-92891118D01*
X192026000Y-96522698D01*
X181152820Y-107395878D01*
X181107333Y-107395838D01*
X180763557Y-107537883D01*
X180500308Y-107800673D01*
X180357662Y-108144201D01*
X180357338Y-108516167D01*
X176929000Y-108516167D01*
X176929000Y-97599189D01*
X179608704Y-94919322D01*
X179654167Y-94919362D01*
X179997943Y-94777317D01*
X180261192Y-94514527D01*
X180403838Y-94170999D01*
X180404162Y-93799033D01*
X180262117Y-93455257D01*
X179999327Y-93192008D01*
X179655799Y-93049362D01*
X179283833Y-93049038D01*
X178940057Y-93191083D01*
X178676808Y-93453873D01*
X178534162Y-93797401D01*
X178534121Y-93844300D01*
X175631583Y-96747015D01*
X175547003Y-96873606D01*
X175466852Y-96993561D01*
X175466850Y-96993572D01*
X175466843Y-96993582D01*
X175437159Y-97142837D01*
X175409000Y-97284400D01*
X175409000Y-99182238D01*
X170345122Y-94118786D01*
X170345162Y-94073333D01*
X170203117Y-93729557D01*
X169940327Y-93466308D01*
X169596799Y-93323662D01*
X169224833Y-93323338D01*
X168881057Y-93465383D01*
X168617808Y-93728173D01*
X168475162Y-94071701D01*
X168474838Y-94443667D01*
X168616883Y-94787443D01*
X168879673Y-95050692D01*
X169223201Y-95193338D01*
X169270109Y-95193379D01*
X174604000Y-100526822D01*
X174604000Y-110956909D01*
X174528664Y-110956843D01*
X157868122Y-94295539D01*
X157868162Y-94250033D01*
X157726117Y-93906257D01*
X157463327Y-93643008D01*
X157119799Y-93500362D01*
X156747833Y-93500038D01*
X156404057Y-93642083D01*
X156140808Y-93904873D01*
X155998162Y-94248401D01*
X155997838Y-94620367D01*
X130504000Y-94620367D01*
X130504000Y-88296750D01*
X137975340Y-88296750D01*
X137975340Y-89887370D01*
X138072013Y-90120759D01*
X138250642Y-90299387D01*
X138484031Y-90396060D01*
X140074650Y-90396060D01*
X140233400Y-90237310D01*
X140233400Y-88138000D01*
X140487400Y-88138000D01*
X140487400Y-90237310D01*
X140646150Y-90396060D01*
X142236769Y-90396060D01*
X142470158Y-90299387D01*
X142648787Y-90120759D01*
X142745460Y-89887370D01*
X142745460Y-88296750D01*
X142586710Y-88138000D01*
X140487400Y-88138000D01*
X140233400Y-88138000D01*
X138134090Y-88138000D01*
X137975340Y-88296750D01*
X130504000Y-88296750D01*
X130504000Y-83597750D01*
X134975600Y-83597750D01*
X134975600Y-85188370D01*
X135072273Y-85421759D01*
X135250902Y-85600387D01*
X135484291Y-85697060D01*
X137074910Y-85697060D01*
X137233660Y-85538310D01*
X137233660Y-83439000D01*
X137487660Y-83439000D01*
X137487660Y-85538310D01*
X137646410Y-85697060D01*
X138312332Y-85697060D01*
X138250642Y-85722613D01*
X138072013Y-85901241D01*
X137975340Y-86134630D01*
X137975340Y-87725250D01*
X138134090Y-87884000D01*
X140233400Y-87884000D01*
X140233400Y-85784690D01*
X140487400Y-85784690D01*
X140487400Y-87884000D01*
X142586710Y-87884000D01*
X142745460Y-87725250D01*
X142745460Y-86134630D01*
X142648787Y-85901241D01*
X142470158Y-85722613D01*
X142438500Y-85709500D01*
X145110200Y-85709500D01*
X145345517Y-85665222D01*
X145561641Y-85526150D01*
X145706631Y-85313950D01*
X145757640Y-85062060D01*
X145757640Y-83789614D01*
X155941666Y-73605680D01*
X155941669Y-73605676D01*
X155941673Y-73605673D01*
X156236014Y-73165161D01*
X156404479Y-72913038D01*
X156404480Y-72913034D01*
X156404483Y-72913029D01*
X156511341Y-72375818D01*
X156567000Y-72096010D01*
X156566999Y-72096005D01*
X156567000Y-72096000D01*
X156567000Y-71750466D01*
X157920226Y-70397500D01*
X162496541Y-70397500D01*
X162255628Y-70497043D01*
X161724907Y-71026839D01*
X161437328Y-71719405D01*
X161436674Y-72469305D01*
X161723043Y-73162372D01*
X162252839Y-73693093D01*
X162945405Y-73980672D01*
X163695305Y-73981326D01*
X164388372Y-73694957D01*
X164919093Y-73165161D01*
X165206672Y-72472595D01*
X165207326Y-71722695D01*
X164920957Y-71029628D01*
X164391161Y-70498907D01*
X164146946Y-70397500D01*
X167576541Y-70397500D01*
X167335628Y-70497043D01*
X166804907Y-71026839D01*
X166517328Y-71719405D01*
X166516674Y-72469305D01*
X166803043Y-73162372D01*
X167332839Y-73693093D01*
X168025405Y-73980672D01*
X168775305Y-73981326D01*
X169468372Y-73694957D01*
X169999093Y-73165161D01*
X170286672Y-72472595D01*
X170287326Y-71722695D01*
X170000957Y-71029628D01*
X169471161Y-70498907D01*
X169226946Y-70397500D01*
X172656541Y-70397500D01*
X172415628Y-70497043D01*
X171884907Y-71026839D01*
X171597328Y-71719405D01*
X171596674Y-72469305D01*
X171883043Y-73162372D01*
X172412839Y-73693093D01*
X173105405Y-73980672D01*
X173855305Y-73981326D01*
X174548372Y-73694957D01*
X175079093Y-73165161D01*
X175366672Y-72472595D01*
X175367326Y-71722695D01*
X175080957Y-71029628D01*
X174551161Y-70498907D01*
X174306946Y-70397500D01*
X177736541Y-70397500D01*
X177495628Y-70497043D01*
X176964907Y-71026839D01*
X176677328Y-71719405D01*
X176676674Y-72469305D01*
X176963043Y-73162372D01*
X177492839Y-73693093D01*
X178185405Y-73980672D01*
X178935305Y-73981326D01*
X179628372Y-73694957D01*
X180159093Y-73165161D01*
X180446672Y-72472595D01*
X180447326Y-71722695D01*
X180160957Y-71029628D01*
X179631161Y-70498907D01*
X179386946Y-70397500D01*
X180915824Y-70397500D01*
X181507000Y-70988516D01*
X181507000Y-72136000D01*
X181669517Y-72953029D01*
X182132327Y-73645673D01*
X182824971Y-74108483D01*
X183642000Y-74271000D01*
X184459029Y-74108483D01*
X185151673Y-73645673D01*
X185614483Y-72953029D01*
X185777000Y-72136000D01*
X185777000Y-70397500D01*
X189674541Y-70397500D01*
X189433628Y-70497043D01*
X188902907Y-71026839D01*
X188615328Y-71719405D01*
X188614674Y-72469305D01*
X188901043Y-73162372D01*
X189430839Y-73693093D01*
X190123405Y-73980672D01*
X190873305Y-73981326D01*
X191566372Y-73694957D01*
X192097093Y-73165161D01*
X192384672Y-72472595D01*
X192385326Y-71722695D01*
X192098957Y-71029628D01*
X191569161Y-70498907D01*
X191324946Y-70397500D01*
X194754541Y-70397500D01*
X194513628Y-70497043D01*
X193982907Y-71026839D01*
X193695328Y-71719405D01*
X193694674Y-72469305D01*
X193981043Y-73162372D01*
X194510839Y-73693093D01*
X195203405Y-73980672D01*
X195953305Y-73981326D01*
X196646372Y-73694957D01*
X197177093Y-73165161D01*
X197464672Y-72472595D01*
X197465326Y-71722695D01*
X197178957Y-71029628D01*
X196649161Y-70498907D01*
X196404946Y-70397500D01*
X199834541Y-70397500D01*
X199593628Y-70497043D01*
X199062907Y-71026839D01*
X198775328Y-71719405D01*
X198774674Y-72469305D01*
X199061043Y-73162372D01*
X199590839Y-73693093D01*
X200283405Y-73980672D01*
X201033305Y-73981326D01*
X201726372Y-73694957D01*
X202257093Y-73165161D01*
X202544672Y-72472595D01*
X202545326Y-71722695D01*
X202258957Y-71029628D01*
X201729161Y-70498907D01*
X201484946Y-70397500D01*
X204914541Y-70397500D01*
X204673628Y-70497043D01*
X204142907Y-71026839D01*
X203855328Y-71719405D01*
X203854674Y-72469305D01*
X204141043Y-73162372D01*
X204670839Y-73693093D01*
X205363405Y-73980672D01*
X206113305Y-73981326D01*
X206806372Y-73694957D01*
X207337093Y-73165161D01*
X207624672Y-72472595D01*
X207625118Y-71960682D01*
X209310425Y-73645771D01*
X210003098Y-74108536D01*
X210820138Y-74271000D01*
X211637157Y-74108430D01*
X212329771Y-73645576D01*
X212792536Y-72952902D01*
X212955000Y-72135862D01*
X212792430Y-71318843D01*
X212329576Y-70626230D01*
X211645877Y-69942619D01*
X219764613Y-69942619D01*
X220104155Y-70764372D01*
X220732321Y-71393636D01*
X221553481Y-71734611D01*
X222442619Y-71735387D01*
X223264372Y-71395845D01*
X223893636Y-70767679D01*
X224234611Y-69946519D01*
X224235387Y-69057381D01*
X223895845Y-68235628D01*
X223267679Y-67606364D01*
X222446519Y-67265389D01*
X221557381Y-67264613D01*
X220735628Y-67604155D01*
X220106364Y-68232321D01*
X219765389Y-69053481D01*
X219764613Y-69942619D01*
X211645877Y-69942619D01*
X208455576Y-66752730D01*
X208107465Y-66520162D01*
X207763029Y-66290017D01*
X207762961Y-66290003D01*
X207762902Y-66289964D01*
X207352248Y-66208308D01*
X206946000Y-66127500D01*
X157036000Y-66127500D01*
X156630807Y-66208098D01*
X156219160Y-66289938D01*
X156219072Y-66289997D01*
X156218971Y-66290017D01*
X155875823Y-66519301D01*
X155526472Y-66752682D01*
X152922472Y-69356182D01*
X152922414Y-69356269D01*
X152922327Y-69356327D01*
X152690648Y-69703059D01*
X152459596Y-70048781D01*
X152459576Y-70048883D01*
X152459517Y-70048971D01*
X152377872Y-70459429D01*
X152297000Y-70865795D01*
X152297020Y-70865898D01*
X152297000Y-70866000D01*
X152297000Y-71211648D01*
X151242256Y-72266383D01*
X151226250Y-71670565D01*
X150978123Y-71071533D01*
X150685320Y-70942285D01*
X149531605Y-72096000D01*
X149545748Y-72110143D01*
X149366143Y-72289748D01*
X149352000Y-72275605D01*
X148198285Y-73429320D01*
X148327533Y-73722123D01*
X149027806Y-73990388D01*
X149531774Y-73976849D01*
X142594061Y-80914500D01*
X141610080Y-80914500D01*
X141374763Y-80958778D01*
X141158639Y-81097850D01*
X141013649Y-81310050D01*
X140962640Y-81561940D01*
X140962640Y-85062060D01*
X141006918Y-85297377D01*
X141145990Y-85513501D01*
X141310550Y-85625940D01*
X140646150Y-85625940D01*
X140487400Y-85784690D01*
X140233400Y-85784690D01*
X140074650Y-85625940D01*
X139408728Y-85625940D01*
X139470418Y-85600387D01*
X139649047Y-85421759D01*
X139745720Y-85188370D01*
X139745720Y-83597750D01*
X139586970Y-83439000D01*
X137487660Y-83439000D01*
X137233660Y-83439000D01*
X135134350Y-83439000D01*
X134975600Y-83597750D01*
X130504000Y-83597750D01*
X130504000Y-81435630D01*
X134975600Y-81435630D01*
X134975600Y-83026250D01*
X135134350Y-83185000D01*
X137233660Y-83185000D01*
X137233660Y-81085690D01*
X137487660Y-81085690D01*
X137487660Y-83185000D01*
X139586970Y-83185000D01*
X139745720Y-83026250D01*
X139745720Y-81435630D01*
X139649047Y-81202241D01*
X139470418Y-81023613D01*
X139237029Y-80926940D01*
X137646410Y-80926940D01*
X137487660Y-81085690D01*
X137233660Y-81085690D01*
X137074910Y-80926940D01*
X135484291Y-80926940D01*
X135250902Y-81023613D01*
X135072273Y-81202241D01*
X134975600Y-81435630D01*
X130504000Y-81435630D01*
X130504000Y-71771806D01*
X147457612Y-71771806D01*
X147477750Y-72521435D01*
X147725877Y-73120467D01*
X148018680Y-73249715D01*
X149172395Y-72096000D01*
X148018680Y-70942285D01*
X147725877Y-71071533D01*
X147457612Y-71771806D01*
X130504000Y-71771806D01*
X130504000Y-69942619D01*
X135764613Y-69942619D01*
X136104155Y-70764372D01*
X136732321Y-71393636D01*
X137553481Y-71734611D01*
X138442619Y-71735387D01*
X139264372Y-71395845D01*
X139893636Y-70767679D01*
X139895711Y-70762680D01*
X148198285Y-70762680D01*
X149352000Y-71916395D01*
X150505715Y-70762680D01*
X150376467Y-70469877D01*
X149676194Y-70201612D01*
X148926565Y-70221750D01*
X148327533Y-70469877D01*
X148198285Y-70762680D01*
X139895711Y-70762680D01*
X140234611Y-69946519D01*
X140235387Y-69057381D01*
X139895845Y-68235628D01*
X139267679Y-67606364D01*
X138446519Y-67265389D01*
X137557381Y-67264613D01*
X136735628Y-67604155D01*
X136106364Y-68232321D01*
X135765389Y-69053481D01*
X135764613Y-69942619D01*
X130504000Y-69942619D01*
X130504000Y-61416000D01*
X228906000Y-61416000D01*
X228906000Y-112776000D01*
X228906000Y-112776000D01*
G37*
X228906000Y-112776000D02*
X226911491Y-112776000D01*
X226863754Y-112716456D01*
X226673890Y-112556970D01*
X226172538Y-112281575D01*
X226004098Y-112228368D01*
X225936095Y-112206887D01*
X225367518Y-112144314D01*
X225332488Y-112147360D01*
X225298000Y-112140500D01*
X209296000Y-112140500D01*
X209234612Y-112152711D01*
X209172020Y-112152711D01*
X208588810Y-112268719D01*
X208493920Y-112308024D01*
X208359726Y-112363609D01*
X207865305Y-112693970D01*
X207865304Y-112693971D01*
X207745609Y-112813665D01*
X207744465Y-112814447D01*
X207743811Y-112815463D01*
X207689970Y-112869304D01*
X207359609Y-113363726D01*
X207315482Y-113470259D01*
X207264719Y-113592810D01*
X207148711Y-114176020D01*
X207148711Y-114238612D01*
X207136500Y-114300000D01*
X207136500Y-144526000D01*
X207148711Y-144587388D01*
X207148711Y-144649980D01*
X207279220Y-145306090D01*
X207374110Y-145535175D01*
X207645449Y-145941265D01*
X207645000Y-146176758D01*
X207654912Y-146226187D01*
X207683273Y-146267865D01*
X207725615Y-146295226D01*
X207772000Y-146304000D01*
X207976874Y-146304000D01*
X208477324Y-146638390D01*
X208539291Y-146664057D01*
X208706409Y-146733280D01*
X209362520Y-146863789D01*
X209425112Y-146863789D01*
X209486500Y-146876000D01*
X225107500Y-146876000D01*
X225168889Y-146863789D01*
X225231480Y-146863789D01*
X225838990Y-146742948D01*
X226000977Y-146675850D01*
X226068075Y-146648058D01*
X226582994Y-146304000D01*
X228906000Y-146304000D01*
X228906000Y-159818000D01*
X181431000Y-159818000D01*
X181431000Y-157859745D01*
X181881860Y-157859745D01*
X181912803Y-158069712D01*
X182322948Y-158204226D01*
X182753349Y-158171546D01*
X182999197Y-158069712D01*
X183030140Y-157859745D01*
X182456000Y-157285605D01*
X181881860Y-157859745D01*
X181431000Y-157859745D01*
X181431000Y-157501235D01*
X181492288Y-157649197D01*
X181702255Y-157680140D01*
X182276395Y-157106000D01*
X182635605Y-157106000D01*
X183209745Y-157680140D01*
X183419712Y-157649197D01*
X183554226Y-157239052D01*
X183521546Y-156808651D01*
X183419712Y-156562803D01*
X183209745Y-156531860D01*
X182635605Y-157106000D01*
X182276395Y-157106000D01*
X181702255Y-156531860D01*
X181492288Y-156562803D01*
X181431000Y-156749675D01*
X181431000Y-156352255D01*
X181881860Y-156352255D01*
X182456000Y-156926395D01*
X183030140Y-156352255D01*
X182999197Y-156142288D01*
X182589052Y-156007774D01*
X182158651Y-156040454D01*
X181912803Y-156142288D01*
X181881860Y-156352255D01*
X181431000Y-156352255D01*
X181431000Y-155442619D01*
X219764613Y-155442619D01*
X220104155Y-156264372D01*
X220732321Y-156893636D01*
X221553481Y-157234611D01*
X222442619Y-157235387D01*
X223264372Y-156895845D01*
X223893636Y-156267679D01*
X224234611Y-155446519D01*
X224235387Y-154557381D01*
X223895845Y-153735628D01*
X223267679Y-153106364D01*
X222446519Y-152765389D01*
X221557381Y-152764613D01*
X220735628Y-153104155D01*
X220106364Y-153732321D01*
X219765389Y-154553481D01*
X219764613Y-155442619D01*
X181431000Y-155442619D01*
X181431000Y-152400000D01*
X181376954Y-152128295D01*
X181223046Y-151897954D01*
X180992705Y-151744046D01*
X180836582Y-151712991D01*
X180842657Y-151710481D01*
X181288914Y-151265003D01*
X181292167Y-151257167D01*
X181879838Y-151257167D01*
X182021883Y-151600943D01*
X182284673Y-151864192D01*
X182628201Y-152006838D01*
X183000167Y-152007162D01*
X183343943Y-151865117D01*
X183607192Y-151602327D01*
X183749838Y-151258799D01*
X183750162Y-150886833D01*
X183608117Y-150543057D01*
X183575000Y-150509882D01*
X183575000Y-134065802D01*
X184154680Y-133486122D01*
X184200167Y-133486162D01*
X184543943Y-133344117D01*
X184807192Y-133081327D01*
X184949838Y-132737799D01*
X184950162Y-132365833D01*
X184808117Y-132022057D01*
X184545327Y-131758808D01*
X184201799Y-131616162D01*
X183829833Y-131615838D01*
X183486057Y-131757883D01*
X183222808Y-132020673D01*
X183080162Y-132364201D01*
X183080121Y-132411077D01*
X182277599Y-133213599D01*
X182112852Y-133460161D01*
X182055000Y-133751000D01*
X182055000Y-150509537D01*
X182022808Y-150541673D01*
X181880162Y-150885201D01*
X181879838Y-151257167D01*
X181292167Y-151257167D01*
X181530724Y-150682659D01*
X181531275Y-150052107D01*
X181290481Y-149469343D01*
X180845003Y-149023086D01*
X180262659Y-148781276D01*
X179632107Y-148780725D01*
X179049343Y-149021519D01*
X178603086Y-149466997D01*
X178361276Y-150049341D01*
X178360725Y-150679893D01*
X178601519Y-151262657D01*
X179028116Y-151690000D01*
X168873174Y-151690000D01*
X169298914Y-151265003D01*
X169540724Y-150682659D01*
X169541275Y-150052107D01*
X169300481Y-149469343D01*
X168855003Y-149023086D01*
X168272659Y-148781276D01*
X167642107Y-148780725D01*
X167059343Y-149021519D01*
X166613086Y-149466997D01*
X166371276Y-150049341D01*
X166370725Y-150679893D01*
X166611519Y-151262657D01*
X167056997Y-151708914D01*
X167112193Y-151731833D01*
X167050795Y-151744046D01*
X166820454Y-151897954D01*
X166666546Y-152128295D01*
X166612500Y-152400000D01*
X166612500Y-159818000D01*
X161111000Y-159818000D01*
X161111000Y-157859745D01*
X161561860Y-157859745D01*
X161592803Y-158069712D01*
X162002948Y-158204226D01*
X162433349Y-158171546D01*
X162679197Y-158069712D01*
X162710140Y-157859745D01*
X164781860Y-157859745D01*
X164812803Y-158069712D01*
X165222948Y-158204226D01*
X165653349Y-158171546D01*
X165899197Y-158069712D01*
X165930140Y-157859745D01*
X165356000Y-157285605D01*
X164781860Y-157859745D01*
X162710140Y-157859745D01*
X162136000Y-157285605D01*
X161561860Y-157859745D01*
X161111000Y-157859745D01*
X161111000Y-157501235D01*
X161172288Y-157649197D01*
X161382255Y-157680140D01*
X161956395Y-157106000D01*
X162315605Y-157106000D01*
X162889745Y-157680140D01*
X163099712Y-157649197D01*
X163234226Y-157239052D01*
X163214021Y-156972948D01*
X164257774Y-156972948D01*
X164290454Y-157403349D01*
X164392288Y-157649197D01*
X164602255Y-157680140D01*
X165176395Y-157106000D01*
X165535605Y-157106000D01*
X166109745Y-157680140D01*
X166319712Y-157649197D01*
X166454226Y-157239052D01*
X166421546Y-156808651D01*
X166319712Y-156562803D01*
X166109745Y-156531860D01*
X165535605Y-157106000D01*
X165176395Y-157106000D01*
X164602255Y-156531860D01*
X164392288Y-156562803D01*
X164257774Y-156972948D01*
X163214021Y-156972948D01*
X163201546Y-156808651D01*
X163099712Y-156562803D01*
X162889745Y-156531860D01*
X162315605Y-157106000D01*
X161956395Y-157106000D01*
X161382255Y-156531860D01*
X161172288Y-156562803D01*
X161111000Y-156749675D01*
X161111000Y-156352255D01*
X161561860Y-156352255D01*
X162136000Y-156926395D01*
X162710140Y-156352255D01*
X164781860Y-156352255D01*
X165356000Y-156926395D01*
X165930140Y-156352255D01*
X165899197Y-156142288D01*
X165489052Y-156007774D01*
X165058651Y-156040454D01*
X164812803Y-156142288D01*
X164781860Y-156352255D01*
X162710140Y-156352255D01*
X162679197Y-156142288D01*
X162269052Y-156007774D01*
X161838651Y-156040454D01*
X161592803Y-156142288D01*
X161561860Y-156352255D01*
X161111000Y-156352255D01*
X161111000Y-152400000D01*
X161056954Y-152128295D01*
X160903046Y-151897954D01*
X160672705Y-151744046D01*
X160516582Y-151712991D01*
X160522657Y-151710481D01*
X160968914Y-151265003D01*
X161210724Y-150682659D01*
X161211275Y-150052107D01*
X160970481Y-149469343D01*
X160525003Y-149023086D01*
X159942659Y-148781276D01*
X159312107Y-148780725D01*
X158729343Y-149021519D01*
X158283086Y-149466997D01*
X158041276Y-150049341D01*
X158040725Y-150679893D01*
X158281519Y-151262657D01*
X158708116Y-151690000D01*
X148553174Y-151690000D01*
X148978914Y-151265003D01*
X149220724Y-150682659D01*
X149221275Y-150052107D01*
X148980481Y-149469343D01*
X148535003Y-149023086D01*
X147952659Y-148781276D01*
X147322107Y-148780725D01*
X146739343Y-149021519D01*
X146293086Y-149466997D01*
X146051276Y-150049341D01*
X146050725Y-150679893D01*
X146291519Y-151262657D01*
X146736997Y-151708914D01*
X146792193Y-151731833D01*
X146730795Y-151744046D01*
X146500454Y-151897954D01*
X146346546Y-152128295D01*
X146292500Y-152400000D01*
X146292500Y-159818000D01*
X130504000Y-159818000D01*
X130504000Y-157859745D01*
X144461860Y-157859745D01*
X144492803Y-158069712D01*
X144902948Y-158204226D01*
X145333349Y-158171546D01*
X145579197Y-158069712D01*
X145610140Y-157859745D01*
X145036000Y-157285605D01*
X144461860Y-157859745D01*
X130504000Y-157859745D01*
X130504000Y-155442619D01*
X135764613Y-155442619D01*
X136104155Y-156264372D01*
X136732321Y-156893636D01*
X137553481Y-157234611D01*
X138442619Y-157235387D01*
X139077768Y-156972948D01*
X143937774Y-156972948D01*
X143970454Y-157403349D01*
X144072288Y-157649197D01*
X144282255Y-157680140D01*
X144856395Y-157106000D01*
X145215605Y-157106000D01*
X145789745Y-157680140D01*
X145999712Y-157649197D01*
X146134226Y-157239052D01*
X146101546Y-156808651D01*
X145999712Y-156562803D01*
X145789745Y-156531860D01*
X145215605Y-157106000D01*
X144856395Y-157106000D01*
X144282255Y-156531860D01*
X144072288Y-156562803D01*
X143937774Y-156972948D01*
X139077768Y-156972948D01*
X139264372Y-156895845D01*
X139808912Y-156352255D01*
X144461860Y-156352255D01*
X145036000Y-156926395D01*
X145610140Y-156352255D01*
X145579197Y-156142288D01*
X145169052Y-156007774D01*
X144738651Y-156040454D01*
X144492803Y-156142288D01*
X144461860Y-156352255D01*
X139808912Y-156352255D01*
X139893636Y-156267679D01*
X140234611Y-155446519D01*
X140235387Y-154557381D01*
X139895845Y-153735628D01*
X139267679Y-153106364D01*
X138446519Y-152765389D01*
X137557381Y-152764613D01*
X136735628Y-153104155D01*
X136106364Y-153732321D01*
X135765389Y-154553481D01*
X135764613Y-155442619D01*
X130504000Y-155442619D01*
X130504000Y-147626167D01*
X165815738Y-147626167D01*
X165957783Y-147969943D01*
X166220573Y-148233192D01*
X166564101Y-148375838D01*
X166610977Y-148375879D01*
X166642899Y-148407801D01*
X166889460Y-148572548D01*
X167180300Y-148630400D01*
X172775000Y-148630400D01*
X173065839Y-148572548D01*
X173247594Y-148451104D01*
X173314567Y-148451162D01*
X173658343Y-148309117D01*
X173921592Y-148046327D01*
X174064238Y-147702799D01*
X174064562Y-147330833D01*
X173922517Y-146987057D01*
X173905281Y-146969790D01*
X173972338Y-146808299D01*
X173972662Y-146436333D01*
X173830617Y-146092557D01*
X173567827Y-145829308D01*
X173224299Y-145686662D01*
X172852333Y-145686338D01*
X172508557Y-145828383D01*
X172475382Y-145861500D01*
X170624500Y-145861500D01*
X170333661Y-145919352D01*
X170087099Y-146084099D01*
X169913320Y-146257878D01*
X169867833Y-146257838D01*
X169524057Y-146399883D01*
X169260808Y-146662673D01*
X169118162Y-147006201D01*
X169118071Y-147110400D01*
X167625970Y-147110400D01*
X167544017Y-146912057D01*
X167281227Y-146648808D01*
X166937699Y-146506162D01*
X166565733Y-146505838D01*
X166221957Y-146647883D01*
X165958708Y-146910673D01*
X165816062Y-147254201D01*
X165815738Y-147626167D01*
X130504000Y-147626167D01*
X130504000Y-133072167D01*
X171416838Y-133072167D01*
X171558883Y-133415943D01*
X171821673Y-133679192D01*
X172165201Y-133821838D01*
X172537167Y-133822162D01*
X172880943Y-133680117D01*
X172929327Y-133631818D01*
X172998105Y-133618137D01*
X173143721Y-133589197D01*
X173143775Y-133589161D01*
X173143839Y-133589148D01*
X173266295Y-133507326D01*
X173390310Y-133424492D01*
X175954546Y-130861122D01*
X176000167Y-130861162D01*
X176341500Y-130720126D01*
X176341500Y-135264037D01*
X176309308Y-135296173D01*
X176166662Y-135639701D01*
X176166338Y-136011667D01*
X176308383Y-136355443D01*
X176571173Y-136618692D01*
X176914701Y-136761338D01*
X177286667Y-136761662D01*
X177630443Y-136619617D01*
X177893692Y-136356827D01*
X178036338Y-136013299D01*
X178036662Y-135641333D01*
X177894617Y-135297557D01*
X177861500Y-135264382D01*
X177861500Y-130997802D01*
X178066680Y-130792622D01*
X178112167Y-130792662D01*
X178455943Y-130650617D01*
X178719192Y-130387827D01*
X178861838Y-130044299D01*
X178862162Y-129672333D01*
X178720117Y-129328557D01*
X178457327Y-129065308D01*
X178113799Y-128922662D01*
X177741833Y-128922338D01*
X177398057Y-129064383D01*
X177134808Y-129327173D01*
X176992162Y-129670701D01*
X176992121Y-129717577D01*
X176749971Y-129959727D01*
X176750162Y-129740833D01*
X176608117Y-129397057D01*
X176345327Y-129133808D01*
X176001799Y-128991162D01*
X175629833Y-128990838D01*
X175286057Y-129132883D01*
X175022808Y-129395673D01*
X174880162Y-129739201D01*
X174880121Y-129785942D01*
X172661997Y-132003318D01*
X172538799Y-131952162D01*
X172166833Y-131951838D01*
X171823057Y-132093883D01*
X171559808Y-132356673D01*
X171417162Y-132700201D01*
X171416838Y-133072167D01*
X130504000Y-133072167D01*
X130504000Y-94620367D01*
X155997838Y-94620367D01*
X156139883Y-94964143D01*
X156402673Y-95227392D01*
X156746201Y-95370038D01*
X156793059Y-95370079D01*
X173851587Y-112429389D01*
X173851594Y-112429394D01*
X173851599Y-112429401D01*
X173979542Y-112514890D01*
X174067012Y-112573338D01*
X174177673Y-112684192D01*
X174521201Y-112826838D01*
X174604000Y-112826910D01*
X174604000Y-114820537D01*
X174571808Y-114852673D01*
X174429162Y-115196201D01*
X174428838Y-115568167D01*
X174570883Y-115911943D01*
X174833673Y-116175192D01*
X175177201Y-116317838D01*
X175409000Y-116318040D01*
X175409000Y-117408537D01*
X175376808Y-117440673D01*
X175234162Y-117784201D01*
X175233838Y-118156167D01*
X175375493Y-118499000D01*
X164663943Y-118499000D01*
X164548090Y-118318959D01*
X164335890Y-118173969D01*
X164084000Y-118122960D01*
X162052000Y-118122960D01*
X161816683Y-118167238D01*
X161600559Y-118306310D01*
X161455569Y-118518510D01*
X161404560Y-118770400D01*
X161404560Y-120497600D01*
X161448838Y-120732917D01*
X161587910Y-120949041D01*
X161800110Y-121094031D01*
X161841439Y-121102400D01*
X161823585Y-121114330D01*
X161498729Y-121600511D01*
X161384655Y-122174000D01*
X161498729Y-122747489D01*
X161823585Y-123233670D01*
X162138366Y-123444000D01*
X161823585Y-123654330D01*
X161498729Y-124140511D01*
X161384655Y-124714000D01*
X161496245Y-125275000D01*
X160737000Y-125275000D01*
X160446161Y-125332852D01*
X160199599Y-125497599D01*
X159836320Y-125860878D01*
X159790833Y-125860838D01*
X159447057Y-126002883D01*
X159183808Y-126265673D01*
X159041162Y-126609201D01*
X159040838Y-126981167D01*
X159182883Y-127324943D01*
X159445673Y-127588192D01*
X159789201Y-127730838D01*
X160161167Y-127731162D01*
X160447078Y-127613026D01*
X161460642Y-127613026D01*
X161463291Y-127628791D01*
X161717268Y-128156036D01*
X162153680Y-128545954D01*
X162706087Y-128739184D01*
X162941000Y-128594924D01*
X162941000Y-127381000D01*
X163195000Y-127381000D01*
X163195000Y-128594924D01*
X163429913Y-128739184D01*
X163982320Y-128545954D01*
X164418732Y-128156036D01*
X164672709Y-127628791D01*
X164675358Y-127613026D01*
X164554217Y-127381000D01*
X163195000Y-127381000D01*
X162941000Y-127381000D01*
X161581783Y-127381000D01*
X161460642Y-127613026D01*
X160447078Y-127613026D01*
X160504943Y-127589117D01*
X160768192Y-127326327D01*
X160910838Y-126982799D01*
X160910879Y-126935923D01*
X161051802Y-126795000D01*
X161503855Y-126795000D01*
X161463291Y-126879209D01*
X161460642Y-126894974D01*
X161581783Y-127127000D01*
X162941000Y-127127000D01*
X162941000Y-127107000D01*
X163195000Y-127107000D01*
X163195000Y-127127000D01*
X164554217Y-127127000D01*
X164675358Y-126894974D01*
X164672709Y-126879209D01*
X164632145Y-126795000D01*
X171687392Y-126795000D01*
X172215877Y-127323026D01*
X172215838Y-127368167D01*
X172357883Y-127711943D01*
X172620673Y-127975192D01*
X172964201Y-128117838D01*
X173336167Y-128118162D01*
X173679943Y-127976117D01*
X173943192Y-127713327D01*
X174085838Y-127369799D01*
X174086162Y-126997833D01*
X173944117Y-126654057D01*
X173681327Y-126390808D01*
X173337799Y-126248162D01*
X173290577Y-126248121D01*
X172539167Y-125497365D01*
X172415967Y-125415123D01*
X172351856Y-125372285D01*
X200798760Y-125372285D01*
X201009169Y-125881515D01*
X201398436Y-126271461D01*
X201907298Y-126482759D01*
X202458285Y-126483240D01*
X202967515Y-126272831D01*
X203357461Y-125883564D01*
X203453976Y-125651130D01*
X203549169Y-125881515D01*
X203938436Y-126271461D01*
X204447298Y-126482759D01*
X204998285Y-126483240D01*
X205507515Y-126272831D01*
X205897461Y-125883564D01*
X206108759Y-125374702D01*
X206109240Y-124823715D01*
X205898831Y-124314485D01*
X205509564Y-123924539D01*
X205000702Y-123713241D01*
X204449715Y-123712760D01*
X203940485Y-123923169D01*
X203550539Y-124312436D01*
X203454024Y-124544870D01*
X203358831Y-124314485D01*
X202969564Y-123924539D01*
X202460702Y-123713241D01*
X201909715Y-123712760D01*
X201400485Y-123923169D01*
X201010539Y-124312436D01*
X200799241Y-124821298D01*
X200798760Y-125372285D01*
X172351856Y-125372285D01*
X172292839Y-125332852D01*
X172292673Y-125332819D01*
X172292534Y-125332726D01*
X172147666Y-125303975D01*
X172002000Y-125275000D01*
X164639755Y-125275000D01*
X164751345Y-124714000D01*
X164637271Y-124140511D01*
X164312415Y-123654330D01*
X163997634Y-123444000D01*
X164312415Y-123233670D01*
X164637271Y-122747489D01*
X164751345Y-122174000D01*
X164637271Y-121600511D01*
X164312415Y-121114330D01*
X164298087Y-121104757D01*
X164319317Y-121100762D01*
X164535441Y-120961690D01*
X164667100Y-120769000D01*
X181483000Y-120769000D01*
X181917346Y-120682603D01*
X182285566Y-120436566D01*
X182531603Y-120068346D01*
X182618000Y-119634000D01*
X182531603Y-119199654D01*
X182285566Y-118831434D01*
X181917346Y-118585397D01*
X181483000Y-118499000D01*
X176962158Y-118499000D01*
X177103838Y-118157799D01*
X177104162Y-117785833D01*
X176962117Y-117442057D01*
X176929000Y-117408882D01*
X176929000Y-114485167D01*
X177944338Y-114485167D01*
X178086383Y-114828943D01*
X178349173Y-115092192D01*
X178692701Y-115234838D01*
X179064667Y-115235162D01*
X179408443Y-115093117D01*
X179671692Y-114830327D01*
X179814338Y-114486799D01*
X179814379Y-114439923D01*
X182182135Y-112072167D01*
X189501338Y-112072167D01*
X189643383Y-112415943D01*
X189906173Y-112679192D01*
X190249701Y-112821838D01*
X190621667Y-112822162D01*
X190965443Y-112680117D01*
X191228692Y-112417327D01*
X191371338Y-112073799D01*
X191371379Y-112026923D01*
X204340302Y-99058000D01*
X204987037Y-99058000D01*
X205019173Y-99090192D01*
X205362701Y-99232838D01*
X205734667Y-99233162D01*
X206078443Y-99091117D01*
X206341692Y-98828327D01*
X206484338Y-98484799D01*
X206484662Y-98112833D01*
X206342617Y-97769057D01*
X206079827Y-97505808D01*
X205736299Y-97363162D01*
X205364333Y-97362838D01*
X205020557Y-97504883D01*
X204987382Y-97538000D01*
X204025500Y-97538000D01*
X203734661Y-97595852D01*
X203488099Y-97760599D01*
X190296820Y-110951878D01*
X190251333Y-110951838D01*
X189907557Y-111093883D01*
X189644308Y-111356673D01*
X189501662Y-111700201D01*
X189501338Y-112072167D01*
X182182135Y-112072167D01*
X197799802Y-96454500D01*
X215210537Y-96454500D01*
X215242673Y-96486692D01*
X215586201Y-96629338D01*
X215958167Y-96629662D01*
X216301943Y-96487617D01*
X216565192Y-96224827D01*
X216707838Y-95881299D01*
X216708162Y-95509333D01*
X216566117Y-95165557D01*
X216303327Y-94902308D01*
X215959799Y-94759662D01*
X215587833Y-94759338D01*
X215244057Y-94901383D01*
X215210882Y-94934500D01*
X197485000Y-94934500D01*
X197242414Y-94982754D01*
X197194160Y-94992352D01*
X196947599Y-95157099D01*
X178739820Y-113364878D01*
X178694333Y-113364838D01*
X178350557Y-113506883D01*
X178087308Y-113769673D01*
X177944662Y-114113201D01*
X177944338Y-114485167D01*
X176929000Y-114485167D01*
X176929000Y-108516167D01*
X180357338Y-108516167D01*
X180499383Y-108859943D01*
X180762173Y-109123192D01*
X181105701Y-109265838D01*
X181477667Y-109266162D01*
X181821443Y-109124117D01*
X182084692Y-108861327D01*
X182227338Y-108517799D01*
X182227379Y-108470923D01*
X193323401Y-97374901D01*
X193488148Y-97128339D01*
X193546000Y-96837500D01*
X193546000Y-92891463D01*
X193578192Y-92859327D01*
X193720838Y-92515799D01*
X193721162Y-92143833D01*
X193579117Y-91800057D01*
X193316327Y-91536808D01*
X192972799Y-91394162D01*
X192600833Y-91393838D01*
X192257057Y-91535883D01*
X191993808Y-91798673D01*
X191851162Y-92142201D01*
X191850838Y-92514167D01*
X191992883Y-92857943D01*
X192026000Y-92891118D01*
X192026000Y-96522698D01*
X181152820Y-107395878D01*
X181107333Y-107395838D01*
X180763557Y-107537883D01*
X180500308Y-107800673D01*
X180357662Y-108144201D01*
X180357338Y-108516167D01*
X176929000Y-108516167D01*
X176929000Y-97599189D01*
X179608704Y-94919322D01*
X179654167Y-94919362D01*
X179997943Y-94777317D01*
X180261192Y-94514527D01*
X180403838Y-94170999D01*
X180404162Y-93799033D01*
X180262117Y-93455257D01*
X179999327Y-93192008D01*
X179655799Y-93049362D01*
X179283833Y-93049038D01*
X178940057Y-93191083D01*
X178676808Y-93453873D01*
X178534162Y-93797401D01*
X178534121Y-93844300D01*
X175631583Y-96747015D01*
X175547003Y-96873606D01*
X175466852Y-96993561D01*
X175466850Y-96993572D01*
X175466843Y-96993582D01*
X175437159Y-97142837D01*
X175409000Y-97284400D01*
X175409000Y-99182238D01*
X170345122Y-94118786D01*
X170345162Y-94073333D01*
X170203117Y-93729557D01*
X169940327Y-93466308D01*
X169596799Y-93323662D01*
X169224833Y-93323338D01*
X168881057Y-93465383D01*
X168617808Y-93728173D01*
X168475162Y-94071701D01*
X168474838Y-94443667D01*
X168616883Y-94787443D01*
X168879673Y-95050692D01*
X169223201Y-95193338D01*
X169270109Y-95193379D01*
X174604000Y-100526822D01*
X174604000Y-110956909D01*
X174528664Y-110956843D01*
X157868122Y-94295539D01*
X157868162Y-94250033D01*
X157726117Y-93906257D01*
X157463327Y-93643008D01*
X157119799Y-93500362D01*
X156747833Y-93500038D01*
X156404057Y-93642083D01*
X156140808Y-93904873D01*
X155998162Y-94248401D01*
X155997838Y-94620367D01*
X130504000Y-94620367D01*
X130504000Y-88296750D01*
X137975340Y-88296750D01*
X137975340Y-89887370D01*
X138072013Y-90120759D01*
X138250642Y-90299387D01*
X138484031Y-90396060D01*
X140074650Y-90396060D01*
X140233400Y-90237310D01*
X140233400Y-88138000D01*
X140487400Y-88138000D01*
X140487400Y-90237310D01*
X140646150Y-90396060D01*
X142236769Y-90396060D01*
X142470158Y-90299387D01*
X142648787Y-90120759D01*
X142745460Y-89887370D01*
X142745460Y-88296750D01*
X142586710Y-88138000D01*
X140487400Y-88138000D01*
X140233400Y-88138000D01*
X138134090Y-88138000D01*
X137975340Y-88296750D01*
X130504000Y-88296750D01*
X130504000Y-83597750D01*
X134975600Y-83597750D01*
X134975600Y-85188370D01*
X135072273Y-85421759D01*
X135250902Y-85600387D01*
X135484291Y-85697060D01*
X137074910Y-85697060D01*
X137233660Y-85538310D01*
X137233660Y-83439000D01*
X137487660Y-83439000D01*
X137487660Y-85538310D01*
X137646410Y-85697060D01*
X138312332Y-85697060D01*
X138250642Y-85722613D01*
X138072013Y-85901241D01*
X137975340Y-86134630D01*
X137975340Y-87725250D01*
X138134090Y-87884000D01*
X140233400Y-87884000D01*
X140233400Y-85784690D01*
X140487400Y-85784690D01*
X140487400Y-87884000D01*
X142586710Y-87884000D01*
X142745460Y-87725250D01*
X142745460Y-86134630D01*
X142648787Y-85901241D01*
X142470158Y-85722613D01*
X142438500Y-85709500D01*
X145110200Y-85709500D01*
X145345517Y-85665222D01*
X145561641Y-85526150D01*
X145706631Y-85313950D01*
X145757640Y-85062060D01*
X145757640Y-83789614D01*
X155941666Y-73605680D01*
X155941669Y-73605676D01*
X155941673Y-73605673D01*
X156236014Y-73165161D01*
X156404479Y-72913038D01*
X156404480Y-72913034D01*
X156404483Y-72913029D01*
X156511341Y-72375818D01*
X156567000Y-72096010D01*
X156566999Y-72096005D01*
X156567000Y-72096000D01*
X156567000Y-71750466D01*
X157920226Y-70397500D01*
X162496541Y-70397500D01*
X162255628Y-70497043D01*
X161724907Y-71026839D01*
X161437328Y-71719405D01*
X161436674Y-72469305D01*
X161723043Y-73162372D01*
X162252839Y-73693093D01*
X162945405Y-73980672D01*
X163695305Y-73981326D01*
X164388372Y-73694957D01*
X164919093Y-73165161D01*
X165206672Y-72472595D01*
X165207326Y-71722695D01*
X164920957Y-71029628D01*
X164391161Y-70498907D01*
X164146946Y-70397500D01*
X167576541Y-70397500D01*
X167335628Y-70497043D01*
X166804907Y-71026839D01*
X166517328Y-71719405D01*
X166516674Y-72469305D01*
X166803043Y-73162372D01*
X167332839Y-73693093D01*
X168025405Y-73980672D01*
X168775305Y-73981326D01*
X169468372Y-73694957D01*
X169999093Y-73165161D01*
X170286672Y-72472595D01*
X170287326Y-71722695D01*
X170000957Y-71029628D01*
X169471161Y-70498907D01*
X169226946Y-70397500D01*
X172656541Y-70397500D01*
X172415628Y-70497043D01*
X171884907Y-71026839D01*
X171597328Y-71719405D01*
X171596674Y-72469305D01*
X171883043Y-73162372D01*
X172412839Y-73693093D01*
X173105405Y-73980672D01*
X173855305Y-73981326D01*
X174548372Y-73694957D01*
X175079093Y-73165161D01*
X175366672Y-72472595D01*
X175367326Y-71722695D01*
X175080957Y-71029628D01*
X174551161Y-70498907D01*
X174306946Y-70397500D01*
X177736541Y-70397500D01*
X177495628Y-70497043D01*
X176964907Y-71026839D01*
X176677328Y-71719405D01*
X176676674Y-72469305D01*
X176963043Y-73162372D01*
X177492839Y-73693093D01*
X178185405Y-73980672D01*
X178935305Y-73981326D01*
X179628372Y-73694957D01*
X180159093Y-73165161D01*
X180446672Y-72472595D01*
X180447326Y-71722695D01*
X180160957Y-71029628D01*
X179631161Y-70498907D01*
X179386946Y-70397500D01*
X180915824Y-70397500D01*
X181507000Y-70988516D01*
X181507000Y-72136000D01*
X181669517Y-72953029D01*
X182132327Y-73645673D01*
X182824971Y-74108483D01*
X183642000Y-74271000D01*
X184459029Y-74108483D01*
X185151673Y-73645673D01*
X185614483Y-72953029D01*
X185777000Y-72136000D01*
X185777000Y-70397500D01*
X189674541Y-70397500D01*
X189433628Y-70497043D01*
X188902907Y-71026839D01*
X188615328Y-71719405D01*
X188614674Y-72469305D01*
X188901043Y-73162372D01*
X189430839Y-73693093D01*
X190123405Y-73980672D01*
X190873305Y-73981326D01*
X191566372Y-73694957D01*
X192097093Y-73165161D01*
X192384672Y-72472595D01*
X192385326Y-71722695D01*
X192098957Y-71029628D01*
X191569161Y-70498907D01*
X191324946Y-70397500D01*
X194754541Y-70397500D01*
X194513628Y-70497043D01*
X193982907Y-71026839D01*
X193695328Y-71719405D01*
X193694674Y-72469305D01*
X193981043Y-73162372D01*
X194510839Y-73693093D01*
X195203405Y-73980672D01*
X195953305Y-73981326D01*
X196646372Y-73694957D01*
X197177093Y-73165161D01*
X197464672Y-72472595D01*
X197465326Y-71722695D01*
X197178957Y-71029628D01*
X196649161Y-70498907D01*
X196404946Y-70397500D01*
X199834541Y-70397500D01*
X199593628Y-70497043D01*
X199062907Y-71026839D01*
X198775328Y-71719405D01*
X198774674Y-72469305D01*
X199061043Y-73162372D01*
X199590839Y-73693093D01*
X200283405Y-73980672D01*
X201033305Y-73981326D01*
X201726372Y-73694957D01*
X202257093Y-73165161D01*
X202544672Y-72472595D01*
X202545326Y-71722695D01*
X202258957Y-71029628D01*
X201729161Y-70498907D01*
X201484946Y-70397500D01*
X204914541Y-70397500D01*
X204673628Y-70497043D01*
X204142907Y-71026839D01*
X203855328Y-71719405D01*
X203854674Y-72469305D01*
X204141043Y-73162372D01*
X204670839Y-73693093D01*
X205363405Y-73980672D01*
X206113305Y-73981326D01*
X206806372Y-73694957D01*
X207337093Y-73165161D01*
X207624672Y-72472595D01*
X207625118Y-71960682D01*
X209310425Y-73645771D01*
X210003098Y-74108536D01*
X210820138Y-74271000D01*
X211637157Y-74108430D01*
X212329771Y-73645576D01*
X212792536Y-72952902D01*
X212955000Y-72135862D01*
X212792430Y-71318843D01*
X212329576Y-70626230D01*
X211645877Y-69942619D01*
X219764613Y-69942619D01*
X220104155Y-70764372D01*
X220732321Y-71393636D01*
X221553481Y-71734611D01*
X222442619Y-71735387D01*
X223264372Y-71395845D01*
X223893636Y-70767679D01*
X224234611Y-69946519D01*
X224235387Y-69057381D01*
X223895845Y-68235628D01*
X223267679Y-67606364D01*
X222446519Y-67265389D01*
X221557381Y-67264613D01*
X220735628Y-67604155D01*
X220106364Y-68232321D01*
X219765389Y-69053481D01*
X219764613Y-69942619D01*
X211645877Y-69942619D01*
X208455576Y-66752730D01*
X208107465Y-66520162D01*
X207763029Y-66290017D01*
X207762961Y-66290003D01*
X207762902Y-66289964D01*
X207352248Y-66208308D01*
X206946000Y-66127500D01*
X157036000Y-66127500D01*
X156630807Y-66208098D01*
X156219160Y-66289938D01*
X156219072Y-66289997D01*
X156218971Y-66290017D01*
X155875823Y-66519301D01*
X155526472Y-66752682D01*
X152922472Y-69356182D01*
X152922414Y-69356269D01*
X152922327Y-69356327D01*
X152690648Y-69703059D01*
X152459596Y-70048781D01*
X152459576Y-70048883D01*
X152459517Y-70048971D01*
X152377872Y-70459429D01*
X152297000Y-70865795D01*
X152297020Y-70865898D01*
X152297000Y-70866000D01*
X152297000Y-71211648D01*
X151242256Y-72266383D01*
X151226250Y-71670565D01*
X150978123Y-71071533D01*
X150685320Y-70942285D01*
X149531605Y-72096000D01*
X149545748Y-72110143D01*
X149366143Y-72289748D01*
X149352000Y-72275605D01*
X148198285Y-73429320D01*
X148327533Y-73722123D01*
X149027806Y-73990388D01*
X149531774Y-73976849D01*
X142594061Y-80914500D01*
X141610080Y-80914500D01*
X141374763Y-80958778D01*
X141158639Y-81097850D01*
X141013649Y-81310050D01*
X140962640Y-81561940D01*
X140962640Y-85062060D01*
X141006918Y-85297377D01*
X141145990Y-85513501D01*
X141310550Y-85625940D01*
X140646150Y-85625940D01*
X140487400Y-85784690D01*
X140233400Y-85784690D01*
X140074650Y-85625940D01*
X139408728Y-85625940D01*
X139470418Y-85600387D01*
X139649047Y-85421759D01*
X139745720Y-85188370D01*
X139745720Y-83597750D01*
X139586970Y-83439000D01*
X137487660Y-83439000D01*
X137233660Y-83439000D01*
X135134350Y-83439000D01*
X134975600Y-83597750D01*
X130504000Y-83597750D01*
X130504000Y-81435630D01*
X134975600Y-81435630D01*
X134975600Y-83026250D01*
X135134350Y-83185000D01*
X137233660Y-83185000D01*
X137233660Y-81085690D01*
X137487660Y-81085690D01*
X137487660Y-83185000D01*
X139586970Y-83185000D01*
X139745720Y-83026250D01*
X139745720Y-81435630D01*
X139649047Y-81202241D01*
X139470418Y-81023613D01*
X139237029Y-80926940D01*
X137646410Y-80926940D01*
X137487660Y-81085690D01*
X137233660Y-81085690D01*
X137074910Y-80926940D01*
X135484291Y-80926940D01*
X135250902Y-81023613D01*
X135072273Y-81202241D01*
X134975600Y-81435630D01*
X130504000Y-81435630D01*
X130504000Y-71771806D01*
X147457612Y-71771806D01*
X147477750Y-72521435D01*
X147725877Y-73120467D01*
X148018680Y-73249715D01*
X149172395Y-72096000D01*
X148018680Y-70942285D01*
X147725877Y-71071533D01*
X147457612Y-71771806D01*
X130504000Y-71771806D01*
X130504000Y-69942619D01*
X135764613Y-69942619D01*
X136104155Y-70764372D01*
X136732321Y-71393636D01*
X137553481Y-71734611D01*
X138442619Y-71735387D01*
X139264372Y-71395845D01*
X139893636Y-70767679D01*
X139895711Y-70762680D01*
X148198285Y-70762680D01*
X149352000Y-71916395D01*
X150505715Y-70762680D01*
X150376467Y-70469877D01*
X149676194Y-70201612D01*
X148926565Y-70221750D01*
X148327533Y-70469877D01*
X148198285Y-70762680D01*
X139895711Y-70762680D01*
X140234611Y-69946519D01*
X140235387Y-69057381D01*
X139895845Y-68235628D01*
X139267679Y-67606364D01*
X138446519Y-67265389D01*
X137557381Y-67264613D01*
X136735628Y-67604155D01*
X136106364Y-68232321D01*
X135765389Y-69053481D01*
X135764613Y-69942619D01*
X130504000Y-69942619D01*
X130504000Y-61416000D01*
X228906000Y-61416000D01*
X228906000Y-112776000D01*
M02*
