M48
;DRILL file {KiCad 4.0.4-stable} date 11/13/16 23:18:16
;FORMAT={-:-/ absolute / inch / decimal}
FMAT,2
INCH,TZ
T1C0.016
T2C0.031
T3C0.039
T4C0.040
T5C0.047
%
G90
G05
M72
T1
X5.2725Y-4.26
X5.305Y-3.6575
X5.3675Y-3.9525
X5.485Y-4.2625
X5.6475Y-3.6675
X5.6525Y-3.93
X5.785Y-4.2625
X5.935Y-3.6025
X5.935Y-3.805
X6.025Y-4.2475
X6.0275Y-5.8325
X6.1785Y-3.7179
X6.215Y-4.4175
X6.2983Y-4.992
X6.3225Y-4.1475
X6.4575Y-5.29
X6.485Y-4.5075
X6.52Y-4.1475
X6.53Y-5.4275
X6.55Y-4.26
X6.565Y-5.8048
X6.5675Y-3.445
X6.6125Y-5.5675
X6.6697Y-3.711
X6.6725Y-5.8725
X6.695Y-4.5075
X6.695Y-5.795
X6.775Y-3.445
X6.7855Y-5.2318
X6.8125Y-5.7725
X6.8161Y-5.8077
X6.817Y-5.0072
X6.8275Y-5.5625
X6.8575Y-5.85
X6.8783Y-4.4052
X6.9041Y-4.5426
X6.9219Y-5.1152
X6.9358Y-4.6445
X6.945Y-3.4475
X6.9625Y-5.5525
X6.9725Y-5.3475
X6.975Y-4.92
X7.0025Y-5.85
X7.005Y-5.1125
X7.035Y-4.8525
X7.0425Y-4.5
X7.0475Y-4.0425
X7.0657Y-3.7002
X7.12Y-3.445
X7.1375Y-4.265
X7.145Y-4.71
X7.15Y-4.0225
X7.1625Y-3.8725
X7.185Y-3.6175
X7.185Y-3.725
X7.1974Y-5.9477
X7.2447Y-5.2185
X7.2825Y-3.45
X7.335Y-5.38
X7.3675Y-5.03
X7.4525Y-4.5425
X7.4975Y-4.405
X7.59Y-3.635
X7.6225Y-3.425
X7.69Y-4.7975
X7.725Y-4.6275
X7.765Y-4.39
X7.8425Y-5.015
X7.8425Y-5.395
X7.8625Y-3.4325
X7.915Y-4.1525
X7.955Y-3.515
X7.97Y-4.6975
X8.0825Y-3.9525
X8.0925Y-3.87
X8.095Y-3.5225
X8.1425Y-4.3
X8.1975Y-4.0575
X8.3375Y-3.5275
X8.47Y-4.205
X8.4925Y-3.45
X8.495Y-3.7675
X8.605Y-3.4475
X8.6725Y-4.08
X8.755Y-3.455
X8.755Y-3.795
T2
X5.7101Y-6.1853
X6.3833Y-6.1853
X6.5101Y-6.1853
X7.1833Y-6.1853
X7.96Y-4.9251
X8.06Y-4.9251
X8.46Y-4.9251
X8.76Y-4.9251
T4
X6.42Y-4.71
X6.42Y-4.81
X6.42Y-4.91
X6.42Y-5.01
T5
X5.88Y-2.8384
X6.08Y-2.8384
X6.43Y-2.8384
X6.63Y-2.8384
X6.83Y-2.8384
X7.03Y-2.8384
X7.23Y-2.84
X7.5Y-2.8384
X7.7Y-2.8384
X7.9Y-2.8384
X8.1Y-2.8384
X8.3Y-2.84
X8.5916Y-5.18
X8.5916Y-5.38
T3
X5.4079Y-3.2407G85X5.4079Y-3.3194
G05
X5.4867Y-3.465G85X5.5653Y-3.465
G05
X5.6441Y-3.2407G85X5.6441Y-3.3194
G05
T0
M30
