%TF.GenerationSoftware,KiCad,Pcbnew,(5.0.1)-3*%
%TF.CreationDate,2018-12-23T11:35:52+11:00*%
%TF.ProjectId,1Wire-AC_Zoning,31576972652D41435F5A6F6E696E672E,1.2*%
%TF.SameCoordinates,Original*%
%TF.FileFunction,Legend,Top*%
%TF.FilePolarity,Positive*%
%FSLAX46Y46*%
G04 Gerber Fmt 4.6, Leading zero omitted, Abs format (unit mm)*
G04 Created by KiCad (PCBNEW (5.0.1)-3) date 23/12/2018 11:35:52 AM*
%MOMM*%
%LPD*%
G01*
G04 APERTURE LIST*
%ADD10C,0.150000*%
%ADD11C,0.100000*%
%ADD12C,0.310000*%
%ADD13C,0.304800*%
%ADD14C,0.120000*%
%ADD15C,0.198120*%
G04 APERTURE END LIST*
D10*
X163983810Y-96266000D02*
G75*
G03X163983810Y-96266000I-915810J0D01*
G01*
X156569210Y-102870000D02*
G75*
G03X156569210Y-102870000I-359210J0D01*
G01*
D11*
X200658780Y-71039142D02*
X200658780Y-70372476D01*
X201658780Y-71039142D01*
X201658780Y-70372476D01*
X201658780Y-69848666D02*
X201611161Y-69943904D01*
X201563542Y-69991523D01*
X201468304Y-70039142D01*
X201182590Y-70039142D01*
X201087352Y-69991523D01*
X201039733Y-69943904D01*
X200992114Y-69848666D01*
X200992114Y-69705809D01*
X201039733Y-69610571D01*
X201087352Y-69562952D01*
X201182590Y-69515333D01*
X201468304Y-69515333D01*
X201563542Y-69562952D01*
X201611161Y-69610571D01*
X201658780Y-69705809D01*
X201658780Y-69848666D01*
X200992114Y-69086761D02*
X201658780Y-69086761D01*
X201087352Y-69086761D02*
X201039733Y-69039142D01*
X200992114Y-68943904D01*
X200992114Y-68801047D01*
X201039733Y-68705809D01*
X201134971Y-68658190D01*
X201658780Y-68658190D01*
X201611161Y-67801047D02*
X201658780Y-67896285D01*
X201658780Y-68086761D01*
X201611161Y-68182000D01*
X201515923Y-68229619D01*
X201134971Y-68229619D01*
X201039733Y-68182000D01*
X200992114Y-68086761D01*
X200992114Y-67896285D01*
X201039733Y-67801047D01*
X201134971Y-67753428D01*
X201230209Y-67753428D01*
X201325447Y-68229619D01*
X200992114Y-66562952D02*
X201992114Y-66562952D01*
X201039733Y-66562952D02*
X200992114Y-66467714D01*
X200992114Y-66277238D01*
X201039733Y-66182000D01*
X201087352Y-66134380D01*
X201182590Y-66086761D01*
X201468304Y-66086761D01*
X201563542Y-66134380D01*
X201611161Y-66182000D01*
X201658780Y-66277238D01*
X201658780Y-66467714D01*
X201611161Y-66562952D01*
X201658780Y-65658190D02*
X200992114Y-65658190D01*
X200658780Y-65658190D02*
X200706400Y-65705809D01*
X200754019Y-65658190D01*
X200706400Y-65610571D01*
X200658780Y-65658190D01*
X200754019Y-65658190D01*
X200992114Y-65182000D02*
X201658780Y-65182000D01*
X201087352Y-65182000D02*
X201039733Y-65134380D01*
X200992114Y-65039142D01*
X200992114Y-64896285D01*
X201039733Y-64801047D01*
X201134971Y-64753428D01*
X201658780Y-64753428D01*
X201658780Y-64134380D02*
X201611161Y-64229619D01*
X201563542Y-64277238D01*
X201468304Y-64324857D01*
X201182590Y-64324857D01*
X201087352Y-64277238D01*
X201039733Y-64229619D01*
X200992114Y-64134380D01*
X200992114Y-63991523D01*
X201039733Y-63896285D01*
X201087352Y-63848666D01*
X201182590Y-63801047D01*
X201468304Y-63801047D01*
X201563542Y-63848666D01*
X201611161Y-63896285D01*
X201658780Y-63991523D01*
X201658780Y-64134380D01*
X200992114Y-62943904D02*
X201658780Y-62943904D01*
X200992114Y-63372476D02*
X201515923Y-63372476D01*
X201611161Y-63324857D01*
X201658780Y-63229619D01*
X201658780Y-63086761D01*
X201611161Y-62991523D01*
X201563542Y-62943904D01*
X200992114Y-62610571D02*
X200992114Y-62229619D01*
X200658780Y-62467714D02*
X201515923Y-62467714D01*
X201611161Y-62420095D01*
X201658780Y-62324857D01*
X201658780Y-62229619D01*
X201563542Y-61896285D02*
X201611161Y-61848666D01*
X201658780Y-61896285D01*
X201611161Y-61943904D01*
X201563542Y-61896285D01*
X201658780Y-61896285D01*
X201039733Y-61896285D02*
X201087352Y-61848666D01*
X201134971Y-61896285D01*
X201087352Y-61943904D01*
X201039733Y-61896285D01*
X201134971Y-61896285D01*
X202354019Y-70991523D02*
X202306400Y-70943904D01*
X202258780Y-70848666D01*
X202258780Y-70610571D01*
X202306400Y-70515333D01*
X202354019Y-70467714D01*
X202449257Y-70420095D01*
X202544495Y-70420095D01*
X202687352Y-70467714D01*
X203258780Y-71039142D01*
X203258780Y-70420095D01*
X203211161Y-69943904D02*
X203258780Y-69943904D01*
X203354019Y-69991523D01*
X203401638Y-70039142D01*
X202258780Y-69610571D02*
X202258780Y-68991523D01*
X202639733Y-69324857D01*
X202639733Y-69182000D01*
X202687352Y-69086761D01*
X202734971Y-69039142D01*
X202830209Y-68991523D01*
X203068304Y-68991523D01*
X203163542Y-69039142D01*
X203211161Y-69086761D01*
X203258780Y-69182000D01*
X203258780Y-69467714D01*
X203211161Y-69562952D01*
X203163542Y-69610571D01*
X203163542Y-68562952D02*
X203211161Y-68515333D01*
X203258780Y-68562952D01*
X203211161Y-68610571D01*
X203163542Y-68562952D01*
X203258780Y-68562952D01*
X202639733Y-68562952D02*
X202687352Y-68515333D01*
X202734971Y-68562952D01*
X202687352Y-68610571D01*
X202639733Y-68562952D01*
X202734971Y-68562952D01*
X202258780Y-67134380D02*
X202258780Y-66943904D01*
X202306400Y-66848666D01*
X202401638Y-66753428D01*
X202592114Y-66705809D01*
X202925447Y-66705809D01*
X203115923Y-66753428D01*
X203211161Y-66848666D01*
X203258780Y-66943904D01*
X203258780Y-67134380D01*
X203211161Y-67229619D01*
X203115923Y-67324857D01*
X202925447Y-67372476D01*
X202592114Y-67372476D01*
X202401638Y-67324857D01*
X202306400Y-67229619D01*
X202258780Y-67134380D01*
X202592114Y-66277238D02*
X203592114Y-66277238D01*
X202639733Y-66277238D02*
X202592114Y-66182000D01*
X202592114Y-65991523D01*
X202639733Y-65896285D01*
X202687352Y-65848666D01*
X202782590Y-65801047D01*
X203068304Y-65801047D01*
X203163542Y-65848666D01*
X203211161Y-65896285D01*
X203258780Y-65991523D01*
X203258780Y-66182000D01*
X203211161Y-66277238D01*
X203211161Y-64991523D02*
X203258780Y-65086761D01*
X203258780Y-65277238D01*
X203211161Y-65372476D01*
X203115923Y-65420095D01*
X202734971Y-65420095D01*
X202639733Y-65372476D01*
X202592114Y-65277238D01*
X202592114Y-65086761D01*
X202639733Y-64991523D01*
X202734971Y-64943904D01*
X202830209Y-64943904D01*
X202925447Y-65420095D01*
X202592114Y-64515333D02*
X203258780Y-64515333D01*
X202687352Y-64515333D02*
X202639733Y-64467714D01*
X202592114Y-64372476D01*
X202592114Y-64229619D01*
X202639733Y-64134380D01*
X202734971Y-64086761D01*
X203258780Y-64086761D01*
X204192114Y-70515333D02*
X204858780Y-70515333D01*
X203811161Y-70753428D02*
X204525447Y-70991523D01*
X204525447Y-70372476D01*
X204811161Y-69943904D02*
X204858780Y-69943904D01*
X204954019Y-69991523D01*
X205001638Y-70039142D01*
X203858780Y-69039142D02*
X203858780Y-69515333D01*
X204334971Y-69562952D01*
X204287352Y-69515333D01*
X204239733Y-69420095D01*
X204239733Y-69182000D01*
X204287352Y-69086761D01*
X204334971Y-69039142D01*
X204430209Y-68991523D01*
X204668304Y-68991523D01*
X204763542Y-69039142D01*
X204811161Y-69086761D01*
X204858780Y-69182000D01*
X204858780Y-69420095D01*
X204811161Y-69515333D01*
X204763542Y-69562952D01*
X204763542Y-68562952D02*
X204811161Y-68515333D01*
X204858780Y-68562952D01*
X204811161Y-68610571D01*
X204763542Y-68562952D01*
X204858780Y-68562952D01*
X204239733Y-68562952D02*
X204287352Y-68515333D01*
X204334971Y-68562952D01*
X204287352Y-68610571D01*
X204239733Y-68562952D01*
X204334971Y-68562952D01*
X204763542Y-66753428D02*
X204811161Y-66801047D01*
X204858780Y-66943904D01*
X204858780Y-67039142D01*
X204811161Y-67182000D01*
X204715923Y-67277238D01*
X204620685Y-67324857D01*
X204430209Y-67372476D01*
X204287352Y-67372476D01*
X204096876Y-67324857D01*
X204001638Y-67277238D01*
X203906400Y-67182000D01*
X203858780Y-67039142D01*
X203858780Y-66943904D01*
X203906400Y-66801047D01*
X203954019Y-66753428D01*
X204858780Y-66182000D02*
X204811161Y-66277238D01*
X204763542Y-66324857D01*
X204668304Y-66372476D01*
X204382590Y-66372476D01*
X204287352Y-66324857D01*
X204239733Y-66277238D01*
X204192114Y-66182000D01*
X204192114Y-66039142D01*
X204239733Y-65943904D01*
X204287352Y-65896285D01*
X204382590Y-65848666D01*
X204668304Y-65848666D01*
X204763542Y-65896285D01*
X204811161Y-65943904D01*
X204858780Y-66039142D01*
X204858780Y-66182000D01*
X204858780Y-65420095D02*
X204192114Y-65420095D01*
X204287352Y-65420095D02*
X204239733Y-65372476D01*
X204192114Y-65277238D01*
X204192114Y-65134380D01*
X204239733Y-65039142D01*
X204334971Y-64991523D01*
X204858780Y-64991523D01*
X204334971Y-64991523D02*
X204239733Y-64943904D01*
X204192114Y-64848666D01*
X204192114Y-64705809D01*
X204239733Y-64610571D01*
X204334971Y-64562952D01*
X204858780Y-64562952D01*
X204858780Y-64086761D02*
X204192114Y-64086761D01*
X204287352Y-64086761D02*
X204239733Y-64039142D01*
X204192114Y-63943904D01*
X204192114Y-63801047D01*
X204239733Y-63705809D01*
X204334971Y-63658190D01*
X204858780Y-63658190D01*
X204334971Y-63658190D02*
X204239733Y-63610571D01*
X204192114Y-63515333D01*
X204192114Y-63372476D01*
X204239733Y-63277238D01*
X204334971Y-63229619D01*
X204858780Y-63229619D01*
X204858780Y-62610571D02*
X204811161Y-62705809D01*
X204763542Y-62753428D01*
X204668304Y-62801047D01*
X204382590Y-62801047D01*
X204287352Y-62753428D01*
X204239733Y-62705809D01*
X204192114Y-62610571D01*
X204192114Y-62467714D01*
X204239733Y-62372476D01*
X204287352Y-62324857D01*
X204382590Y-62277238D01*
X204668304Y-62277238D01*
X204763542Y-62324857D01*
X204811161Y-62372476D01*
X204858780Y-62467714D01*
X204858780Y-62610571D01*
X204192114Y-61848666D02*
X204858780Y-61848666D01*
X204287352Y-61848666D02*
X204239733Y-61801047D01*
X204192114Y-61705809D01*
X204192114Y-61562952D01*
X204239733Y-61467714D01*
X204334971Y-61420095D01*
X204858780Y-61420095D01*
X205458780Y-70515333D02*
X205458780Y-70705809D01*
X205506400Y-70801047D01*
X205554019Y-70848666D01*
X205696876Y-70943904D01*
X205887352Y-70991523D01*
X206268304Y-70991523D01*
X206363542Y-70943904D01*
X206411161Y-70896285D01*
X206458780Y-70801047D01*
X206458780Y-70610571D01*
X206411161Y-70515333D01*
X206363542Y-70467714D01*
X206268304Y-70420095D01*
X206030209Y-70420095D01*
X205934971Y-70467714D01*
X205887352Y-70515333D01*
X205839733Y-70610571D01*
X205839733Y-70801047D01*
X205887352Y-70896285D01*
X205934971Y-70943904D01*
X206030209Y-70991523D01*
X206411161Y-69943904D02*
X206458780Y-69943904D01*
X206554019Y-69991523D01*
X206601638Y-70039142D01*
X205458780Y-69610571D02*
X205458780Y-68943904D01*
X206458780Y-69372476D01*
X206363542Y-68562952D02*
X206411161Y-68515333D01*
X206458780Y-68562952D01*
X206411161Y-68610571D01*
X206363542Y-68562952D01*
X206458780Y-68562952D01*
X205839733Y-68562952D02*
X205887352Y-68515333D01*
X205934971Y-68562952D01*
X205887352Y-68610571D01*
X205839733Y-68562952D01*
X205934971Y-68562952D01*
X206363542Y-66753428D02*
X206411161Y-66801047D01*
X206458780Y-66943904D01*
X206458780Y-67039142D01*
X206411161Y-67182000D01*
X206315923Y-67277238D01*
X206220685Y-67324857D01*
X206030209Y-67372476D01*
X205887352Y-67372476D01*
X205696876Y-67324857D01*
X205601638Y-67277238D01*
X205506400Y-67182000D01*
X205458780Y-67039142D01*
X205458780Y-66943904D01*
X205506400Y-66801047D01*
X205554019Y-66753428D01*
X206458780Y-66182000D02*
X206411161Y-66277238D01*
X206315923Y-66324857D01*
X205458780Y-66324857D01*
X206458780Y-65658190D02*
X206411161Y-65753428D01*
X206363542Y-65801047D01*
X206268304Y-65848666D01*
X205982590Y-65848666D01*
X205887352Y-65801047D01*
X205839733Y-65753428D01*
X205792114Y-65658190D01*
X205792114Y-65515333D01*
X205839733Y-65420095D01*
X205887352Y-65372476D01*
X205982590Y-65324857D01*
X206268304Y-65324857D01*
X206363542Y-65372476D01*
X206411161Y-65420095D01*
X206458780Y-65515333D01*
X206458780Y-65658190D01*
X206411161Y-64943904D02*
X206458780Y-64848666D01*
X206458780Y-64658190D01*
X206411161Y-64562952D01*
X206315923Y-64515333D01*
X206268304Y-64515333D01*
X206173066Y-64562952D01*
X206125447Y-64658190D01*
X206125447Y-64801047D01*
X206077828Y-64896285D01*
X205982590Y-64943904D01*
X205934971Y-64943904D01*
X205839733Y-64896285D01*
X205792114Y-64801047D01*
X205792114Y-64658190D01*
X205839733Y-64562952D01*
X206411161Y-63705809D02*
X206458780Y-63801047D01*
X206458780Y-63991523D01*
X206411161Y-64086761D01*
X206315923Y-64134380D01*
X205934971Y-64134380D01*
X205839733Y-64086761D01*
X205792114Y-63991523D01*
X205792114Y-63801047D01*
X205839733Y-63705809D01*
X205934971Y-63658190D01*
X206030209Y-63658190D01*
X206125447Y-64134380D01*
X197747095Y-105608380D02*
X197175666Y-105608380D01*
X197461380Y-105608380D02*
X197461380Y-104608380D01*
X197366142Y-104751238D01*
X197270904Y-104846476D01*
X197175666Y-104894095D01*
X198080428Y-104608380D02*
X198318523Y-105608380D01*
X198509000Y-104894095D01*
X198699476Y-105608380D01*
X198937571Y-104608380D01*
X199318523Y-105608380D02*
X199318523Y-104941714D01*
X199318523Y-104608380D02*
X199270904Y-104656000D01*
X199318523Y-104703619D01*
X199366142Y-104656000D01*
X199318523Y-104608380D01*
X199318523Y-104703619D01*
X199794714Y-105608380D02*
X199794714Y-104941714D01*
X199794714Y-105132190D02*
X199842333Y-105036952D01*
X199889952Y-104989333D01*
X199985190Y-104941714D01*
X200080428Y-104941714D01*
X200794714Y-105560761D02*
X200699476Y-105608380D01*
X200509000Y-105608380D01*
X200413761Y-105560761D01*
X200366142Y-105465523D01*
X200366142Y-105084571D01*
X200413761Y-104989333D01*
X200509000Y-104941714D01*
X200699476Y-104941714D01*
X200794714Y-104989333D01*
X200842333Y-105084571D01*
X200842333Y-105179809D01*
X200366142Y-105275047D01*
X111443904Y-120036380D02*
X110872476Y-120036380D01*
X111158190Y-120036380D02*
X111158190Y-119036380D01*
X111062952Y-119179238D01*
X110967714Y-119274476D01*
X110872476Y-119322095D01*
X111777238Y-119369714D02*
X111967714Y-120036380D01*
X112158190Y-119560190D01*
X112348666Y-120036380D01*
X112539142Y-119369714D01*
X112920095Y-120036380D02*
X112920095Y-119369714D01*
X112920095Y-119036380D02*
X112872476Y-119084000D01*
X112920095Y-119131619D01*
X112967714Y-119084000D01*
X112920095Y-119036380D01*
X112920095Y-119131619D01*
X113396285Y-120036380D02*
X113396285Y-119369714D01*
X113396285Y-119560190D02*
X113443904Y-119464952D01*
X113491523Y-119417333D01*
X113586761Y-119369714D01*
X113682000Y-119369714D01*
X114396285Y-119988761D02*
X114301047Y-120036380D01*
X114110571Y-120036380D01*
X114015333Y-119988761D01*
X113967714Y-119893523D01*
X113967714Y-119512571D01*
X114015333Y-119417333D01*
X114110571Y-119369714D01*
X114301047Y-119369714D01*
X114396285Y-119417333D01*
X114443904Y-119512571D01*
X114443904Y-119607809D01*
X113967714Y-119703047D01*
X115634380Y-120036380D02*
X115634380Y-119036380D01*
X116015333Y-119036380D01*
X116110571Y-119084000D01*
X116158190Y-119131619D01*
X116205809Y-119226857D01*
X116205809Y-119369714D01*
X116158190Y-119464952D01*
X116110571Y-119512571D01*
X116015333Y-119560190D01*
X115634380Y-119560190D01*
X116634380Y-120036380D02*
X116634380Y-119369714D01*
X116634380Y-119036380D02*
X116586761Y-119084000D01*
X116634380Y-119131619D01*
X116682000Y-119084000D01*
X116634380Y-119036380D01*
X116634380Y-119131619D01*
X117110571Y-119369714D02*
X117110571Y-120036380D01*
X117110571Y-119464952D02*
X117158190Y-119417333D01*
X117253428Y-119369714D01*
X117396285Y-119369714D01*
X117491523Y-119417333D01*
X117539142Y-119512571D01*
X117539142Y-120036380D01*
X118158190Y-120036380D02*
X118062952Y-119988761D01*
X118015333Y-119941142D01*
X117967714Y-119845904D01*
X117967714Y-119560190D01*
X118015333Y-119464952D01*
X118062952Y-119417333D01*
X118158190Y-119369714D01*
X118301047Y-119369714D01*
X118396285Y-119417333D01*
X118443904Y-119464952D01*
X118491523Y-119560190D01*
X118491523Y-119845904D01*
X118443904Y-119941142D01*
X118396285Y-119988761D01*
X118301047Y-120036380D01*
X118158190Y-120036380D01*
X119348666Y-119369714D02*
X119348666Y-120036380D01*
X118920095Y-119369714D02*
X118920095Y-119893523D01*
X118967714Y-119988761D01*
X119062952Y-120036380D01*
X119205809Y-120036380D01*
X119301047Y-119988761D01*
X119348666Y-119941142D01*
X119682000Y-119369714D02*
X120062952Y-119369714D01*
X119824857Y-119036380D02*
X119824857Y-119893523D01*
X119872476Y-119988761D01*
X119967714Y-120036380D01*
X120062952Y-120036380D01*
X120396285Y-119941142D02*
X120443904Y-119988761D01*
X120396285Y-120036380D01*
X120348666Y-119988761D01*
X120396285Y-119941142D01*
X120396285Y-120036380D01*
X120396285Y-119417333D02*
X120443904Y-119464952D01*
X120396285Y-119512571D01*
X120348666Y-119464952D01*
X120396285Y-119417333D01*
X120396285Y-119512571D01*
X111443904Y-121636380D02*
X110872476Y-121636380D01*
X111158190Y-121636380D02*
X111158190Y-120636380D01*
X111062952Y-120779238D01*
X110967714Y-120874476D01*
X110872476Y-120922095D01*
X111872476Y-121541142D02*
X111920095Y-121588761D01*
X111872476Y-121636380D01*
X111824857Y-121588761D01*
X111872476Y-121541142D01*
X111872476Y-121636380D01*
X111872476Y-121017333D02*
X111920095Y-121064952D01*
X111872476Y-121112571D01*
X111824857Y-121064952D01*
X111872476Y-121017333D01*
X111872476Y-121112571D01*
X113634380Y-120684000D02*
X113539142Y-120636380D01*
X113396285Y-120636380D01*
X113253428Y-120684000D01*
X113158190Y-120779238D01*
X113110571Y-120874476D01*
X113062952Y-121064952D01*
X113062952Y-121207809D01*
X113110571Y-121398285D01*
X113158190Y-121493523D01*
X113253428Y-121588761D01*
X113396285Y-121636380D01*
X113491523Y-121636380D01*
X113634380Y-121588761D01*
X113682000Y-121541142D01*
X113682000Y-121207809D01*
X113491523Y-121207809D01*
X114110571Y-120969714D02*
X114110571Y-121636380D01*
X114110571Y-121064952D02*
X114158190Y-121017333D01*
X114253428Y-120969714D01*
X114396285Y-120969714D01*
X114491523Y-121017333D01*
X114539142Y-121112571D01*
X114539142Y-121636380D01*
X115443904Y-121636380D02*
X115443904Y-120636380D01*
X115443904Y-121588761D02*
X115348666Y-121636380D01*
X115158190Y-121636380D01*
X115062952Y-121588761D01*
X115015333Y-121541142D01*
X114967714Y-121445904D01*
X114967714Y-121160190D01*
X115015333Y-121064952D01*
X115062952Y-121017333D01*
X115158190Y-120969714D01*
X115348666Y-120969714D01*
X115443904Y-121017333D01*
X110872476Y-122331619D02*
X110920095Y-122284000D01*
X111015333Y-122236380D01*
X111253428Y-122236380D01*
X111348666Y-122284000D01*
X111396285Y-122331619D01*
X111443904Y-122426857D01*
X111443904Y-122522095D01*
X111396285Y-122664952D01*
X110824857Y-123236380D01*
X111443904Y-123236380D01*
X111872476Y-123141142D02*
X111920095Y-123188761D01*
X111872476Y-123236380D01*
X111824857Y-123188761D01*
X111872476Y-123141142D01*
X111872476Y-123236380D01*
X111872476Y-122617333D02*
X111920095Y-122664952D01*
X111872476Y-122712571D01*
X111824857Y-122664952D01*
X111872476Y-122617333D01*
X111872476Y-122712571D01*
X113110571Y-122855428D02*
X113872476Y-122855428D01*
X113491523Y-123236380D02*
X113491523Y-122474476D01*
X114824857Y-122236380D02*
X114348666Y-122236380D01*
X114301047Y-122712571D01*
X114348666Y-122664952D01*
X114443904Y-122617333D01*
X114682000Y-122617333D01*
X114777238Y-122664952D01*
X114824857Y-122712571D01*
X114872476Y-122807809D01*
X114872476Y-123045904D01*
X114824857Y-123141142D01*
X114777238Y-123188761D01*
X114682000Y-123236380D01*
X114443904Y-123236380D01*
X114348666Y-123188761D01*
X114301047Y-123141142D01*
X115158190Y-122236380D02*
X115491523Y-123236380D01*
X115824857Y-122236380D01*
X110824857Y-123836380D02*
X111443904Y-123836380D01*
X111110571Y-124217333D01*
X111253428Y-124217333D01*
X111348666Y-124264952D01*
X111396285Y-124312571D01*
X111443904Y-124407809D01*
X111443904Y-124645904D01*
X111396285Y-124741142D01*
X111348666Y-124788761D01*
X111253428Y-124836380D01*
X110967714Y-124836380D01*
X110872476Y-124788761D01*
X110824857Y-124741142D01*
X111872476Y-124741142D02*
X111920095Y-124788761D01*
X111872476Y-124836380D01*
X111824857Y-124788761D01*
X111872476Y-124741142D01*
X111872476Y-124836380D01*
X111872476Y-124217333D02*
X111920095Y-124264952D01*
X111872476Y-124312571D01*
X111824857Y-124264952D01*
X111872476Y-124217333D01*
X111872476Y-124312571D01*
X113634380Y-123884000D02*
X113539142Y-123836380D01*
X113396285Y-123836380D01*
X113253428Y-123884000D01*
X113158190Y-123979238D01*
X113110571Y-124074476D01*
X113062952Y-124264952D01*
X113062952Y-124407809D01*
X113110571Y-124598285D01*
X113158190Y-124693523D01*
X113253428Y-124788761D01*
X113396285Y-124836380D01*
X113491523Y-124836380D01*
X113634380Y-124788761D01*
X113682000Y-124741142D01*
X113682000Y-124407809D01*
X113491523Y-124407809D01*
X114110571Y-124169714D02*
X114110571Y-124836380D01*
X114110571Y-124264952D02*
X114158190Y-124217333D01*
X114253428Y-124169714D01*
X114396285Y-124169714D01*
X114491523Y-124217333D01*
X114539142Y-124312571D01*
X114539142Y-124836380D01*
X115443904Y-124836380D02*
X115443904Y-123836380D01*
X115443904Y-124788761D02*
X115348666Y-124836380D01*
X115158190Y-124836380D01*
X115062952Y-124788761D01*
X115015333Y-124741142D01*
X114967714Y-124645904D01*
X114967714Y-124360190D01*
X115015333Y-124264952D01*
X115062952Y-124217333D01*
X115158190Y-124169714D01*
X115348666Y-124169714D01*
X115443904Y-124217333D01*
X111348666Y-125769714D02*
X111348666Y-126436380D01*
X111110571Y-125388761D02*
X110872476Y-126103047D01*
X111491523Y-126103047D01*
X111872476Y-126341142D02*
X111920095Y-126388761D01*
X111872476Y-126436380D01*
X111824857Y-126388761D01*
X111872476Y-126341142D01*
X111872476Y-126436380D01*
X111872476Y-125817333D02*
X111920095Y-125864952D01*
X111872476Y-125912571D01*
X111824857Y-125864952D01*
X111872476Y-125817333D01*
X111872476Y-125912571D01*
X113634380Y-126436380D02*
X113062952Y-126436380D01*
X113348666Y-126436380D02*
X113348666Y-125436380D01*
X113253428Y-125579238D01*
X113158190Y-125674476D01*
X113062952Y-125722095D01*
X114729619Y-125436380D02*
X114967714Y-126436380D01*
X115158190Y-125722095D01*
X115348666Y-126436380D01*
X115586761Y-125436380D01*
X115967714Y-126436380D02*
X115967714Y-125769714D01*
X115967714Y-125436380D02*
X115920095Y-125484000D01*
X115967714Y-125531619D01*
X116015333Y-125484000D01*
X115967714Y-125436380D01*
X115967714Y-125531619D01*
X116443904Y-126436380D02*
X116443904Y-125769714D01*
X116443904Y-125960190D02*
X116491523Y-125864952D01*
X116539142Y-125817333D01*
X116634380Y-125769714D01*
X116729619Y-125769714D01*
X117443904Y-126388761D02*
X117348666Y-126436380D01*
X117158190Y-126436380D01*
X117062952Y-126388761D01*
X117015333Y-126293523D01*
X117015333Y-125912571D01*
X117062952Y-125817333D01*
X117158190Y-125769714D01*
X117348666Y-125769714D01*
X117443904Y-125817333D01*
X117491523Y-125912571D01*
X117491523Y-126007809D01*
X117015333Y-126103047D01*
X111396285Y-127036380D02*
X110920095Y-127036380D01*
X110872476Y-127512571D01*
X110920095Y-127464952D01*
X111015333Y-127417333D01*
X111253428Y-127417333D01*
X111348666Y-127464952D01*
X111396285Y-127512571D01*
X111443904Y-127607809D01*
X111443904Y-127845904D01*
X111396285Y-127941142D01*
X111348666Y-127988761D01*
X111253428Y-128036380D01*
X111015333Y-128036380D01*
X110920095Y-127988761D01*
X110872476Y-127941142D01*
X111872476Y-127941142D02*
X111920095Y-127988761D01*
X111872476Y-128036380D01*
X111824857Y-127988761D01*
X111872476Y-127941142D01*
X111872476Y-128036380D01*
X111872476Y-127417333D02*
X111920095Y-127464952D01*
X111872476Y-127512571D01*
X111824857Y-127464952D01*
X111872476Y-127417333D01*
X111872476Y-127512571D01*
X113634380Y-127084000D02*
X113539142Y-127036380D01*
X113396285Y-127036380D01*
X113253428Y-127084000D01*
X113158190Y-127179238D01*
X113110571Y-127274476D01*
X113062952Y-127464952D01*
X113062952Y-127607809D01*
X113110571Y-127798285D01*
X113158190Y-127893523D01*
X113253428Y-127988761D01*
X113396285Y-128036380D01*
X113491523Y-128036380D01*
X113634380Y-127988761D01*
X113682000Y-127941142D01*
X113682000Y-127607809D01*
X113491523Y-127607809D01*
X114110571Y-127369714D02*
X114110571Y-128036380D01*
X114110571Y-127464952D02*
X114158190Y-127417333D01*
X114253428Y-127369714D01*
X114396285Y-127369714D01*
X114491523Y-127417333D01*
X114539142Y-127512571D01*
X114539142Y-128036380D01*
X115443904Y-128036380D02*
X115443904Y-127036380D01*
X115443904Y-127988761D02*
X115348666Y-128036380D01*
X115158190Y-128036380D01*
X115062952Y-127988761D01*
X115015333Y-127941142D01*
X114967714Y-127845904D01*
X114967714Y-127560190D01*
X115015333Y-127464952D01*
X115062952Y-127417333D01*
X115158190Y-127369714D01*
X115348666Y-127369714D01*
X115443904Y-127417333D01*
X111348666Y-128636380D02*
X111158190Y-128636380D01*
X111062952Y-128684000D01*
X111015333Y-128731619D01*
X110920095Y-128874476D01*
X110872476Y-129064952D01*
X110872476Y-129445904D01*
X110920095Y-129541142D01*
X110967714Y-129588761D01*
X111062952Y-129636380D01*
X111253428Y-129636380D01*
X111348666Y-129588761D01*
X111396285Y-129541142D01*
X111443904Y-129445904D01*
X111443904Y-129207809D01*
X111396285Y-129112571D01*
X111348666Y-129064952D01*
X111253428Y-129017333D01*
X111062952Y-129017333D01*
X110967714Y-129064952D01*
X110920095Y-129112571D01*
X110872476Y-129207809D01*
X111872476Y-129541142D02*
X111920095Y-129588761D01*
X111872476Y-129636380D01*
X111824857Y-129588761D01*
X111872476Y-129541142D01*
X111872476Y-129636380D01*
X111872476Y-129017333D02*
X111920095Y-129064952D01*
X111872476Y-129112571D01*
X111824857Y-129064952D01*
X111872476Y-129017333D01*
X111872476Y-129112571D01*
X113110571Y-129636380D02*
X113110571Y-128636380D01*
X113682000Y-129636380D01*
X113682000Y-128636380D01*
X114872476Y-128588761D02*
X114015333Y-129874476D01*
X115777238Y-129541142D02*
X115729619Y-129588761D01*
X115586761Y-129636380D01*
X115491523Y-129636380D01*
X115348666Y-129588761D01*
X115253428Y-129493523D01*
X115205809Y-129398285D01*
X115158190Y-129207809D01*
X115158190Y-129064952D01*
X115205809Y-128874476D01*
X115253428Y-128779238D01*
X115348666Y-128684000D01*
X115491523Y-128636380D01*
X115586761Y-128636380D01*
X115729619Y-128684000D01*
X115777238Y-128731619D01*
X110824857Y-130236380D02*
X111491523Y-130236380D01*
X111062952Y-131236380D01*
X111872476Y-131141142D02*
X111920095Y-131188761D01*
X111872476Y-131236380D01*
X111824857Y-131188761D01*
X111872476Y-131141142D01*
X111872476Y-131236380D01*
X111872476Y-130617333D02*
X111920095Y-130664952D01*
X111872476Y-130712571D01*
X111824857Y-130664952D01*
X111872476Y-130617333D01*
X111872476Y-130712571D01*
X113110571Y-131236380D02*
X113110571Y-130236380D01*
X113682000Y-131236380D01*
X113682000Y-130236380D01*
X114872476Y-130188761D02*
X114015333Y-131474476D01*
X115777238Y-131141142D02*
X115729619Y-131188761D01*
X115586761Y-131236380D01*
X115491523Y-131236380D01*
X115348666Y-131188761D01*
X115253428Y-131093523D01*
X115205809Y-130998285D01*
X115158190Y-130807809D01*
X115158190Y-130664952D01*
X115205809Y-130474476D01*
X115253428Y-130379238D01*
X115348666Y-130284000D01*
X115491523Y-130236380D01*
X115586761Y-130236380D01*
X115729619Y-130284000D01*
X115777238Y-130331619D01*
X111062952Y-132264952D02*
X110967714Y-132217333D01*
X110920095Y-132169714D01*
X110872476Y-132074476D01*
X110872476Y-132026857D01*
X110920095Y-131931619D01*
X110967714Y-131884000D01*
X111062952Y-131836380D01*
X111253428Y-131836380D01*
X111348666Y-131884000D01*
X111396285Y-131931619D01*
X111443904Y-132026857D01*
X111443904Y-132074476D01*
X111396285Y-132169714D01*
X111348666Y-132217333D01*
X111253428Y-132264952D01*
X111062952Y-132264952D01*
X110967714Y-132312571D01*
X110920095Y-132360190D01*
X110872476Y-132455428D01*
X110872476Y-132645904D01*
X110920095Y-132741142D01*
X110967714Y-132788761D01*
X111062952Y-132836380D01*
X111253428Y-132836380D01*
X111348666Y-132788761D01*
X111396285Y-132741142D01*
X111443904Y-132645904D01*
X111443904Y-132455428D01*
X111396285Y-132360190D01*
X111348666Y-132312571D01*
X111253428Y-132264952D01*
X111872476Y-132741142D02*
X111920095Y-132788761D01*
X111872476Y-132836380D01*
X111824857Y-132788761D01*
X111872476Y-132741142D01*
X111872476Y-132836380D01*
X111872476Y-132217333D02*
X111920095Y-132264952D01*
X111872476Y-132312571D01*
X111824857Y-132264952D01*
X111872476Y-132217333D01*
X111872476Y-132312571D01*
X113634380Y-131884000D02*
X113539142Y-131836380D01*
X113396285Y-131836380D01*
X113253428Y-131884000D01*
X113158190Y-131979238D01*
X113110571Y-132074476D01*
X113062952Y-132264952D01*
X113062952Y-132407809D01*
X113110571Y-132598285D01*
X113158190Y-132693523D01*
X113253428Y-132788761D01*
X113396285Y-132836380D01*
X113491523Y-132836380D01*
X113634380Y-132788761D01*
X113682000Y-132741142D01*
X113682000Y-132407809D01*
X113491523Y-132407809D01*
X114110571Y-132169714D02*
X114110571Y-132836380D01*
X114110571Y-132264952D02*
X114158190Y-132217333D01*
X114253428Y-132169714D01*
X114396285Y-132169714D01*
X114491523Y-132217333D01*
X114539142Y-132312571D01*
X114539142Y-132836380D01*
X115443904Y-132836380D02*
X115443904Y-131836380D01*
X115443904Y-132788761D02*
X115348666Y-132836380D01*
X115158190Y-132836380D01*
X115062952Y-132788761D01*
X115015333Y-132741142D01*
X114967714Y-132645904D01*
X114967714Y-132360190D01*
X115015333Y-132264952D01*
X115062952Y-132217333D01*
X115158190Y-132169714D01*
X115348666Y-132169714D01*
X115443904Y-132217333D01*
D12*
X182786571Y-139031428D02*
X182786571Y-139888571D01*
X182786571Y-139460000D02*
X181286571Y-139460000D01*
X181500857Y-139602857D01*
X181643714Y-139745714D01*
X181715142Y-139888571D01*
X181286571Y-138531428D02*
X182786571Y-138174285D01*
X181715142Y-137888571D01*
X182786571Y-137602857D01*
X181286571Y-137245714D01*
X182786571Y-136674285D02*
X181786571Y-136674285D01*
X181286571Y-136674285D02*
X181358000Y-136745714D01*
X181429428Y-136674285D01*
X181358000Y-136602857D01*
X181286571Y-136674285D01*
X181429428Y-136674285D01*
X182786571Y-135960000D02*
X181786571Y-135960000D01*
X182072285Y-135960000D02*
X181929428Y-135888571D01*
X181858000Y-135817142D01*
X181786571Y-135674285D01*
X181786571Y-135531428D01*
X182715142Y-134460000D02*
X182786571Y-134602857D01*
X182786571Y-134888571D01*
X182715142Y-135031428D01*
X182572285Y-135102857D01*
X182000857Y-135102857D01*
X181858000Y-135031428D01*
X181786571Y-134888571D01*
X181786571Y-134602857D01*
X181858000Y-134460000D01*
X182000857Y-134388571D01*
X182143714Y-134388571D01*
X182286571Y-135102857D01*
X181929428Y-132388571D02*
X181858000Y-132531428D01*
X181786571Y-132602857D01*
X181643714Y-132674285D01*
X181572285Y-132674285D01*
X181429428Y-132602857D01*
X181358000Y-132531428D01*
X181286571Y-132388571D01*
X181286571Y-132102857D01*
X181358000Y-131960000D01*
X181429428Y-131888571D01*
X181572285Y-131817142D01*
X181643714Y-131817142D01*
X181786571Y-131888571D01*
X181858000Y-131960000D01*
X181929428Y-132102857D01*
X181929428Y-132388571D01*
X182000857Y-132531428D01*
X182072285Y-132602857D01*
X182215142Y-132674285D01*
X182500857Y-132674285D01*
X182643714Y-132602857D01*
X182715142Y-132531428D01*
X182786571Y-132388571D01*
X182786571Y-132102857D01*
X182715142Y-131960000D01*
X182643714Y-131888571D01*
X182500857Y-131817142D01*
X182215142Y-131817142D01*
X182072285Y-131888571D01*
X182000857Y-131960000D01*
X181929428Y-132102857D01*
X181286571Y-130174285D02*
X181286571Y-129174285D01*
X182786571Y-130174285D01*
X182786571Y-129174285D01*
X182786571Y-128388571D02*
X182715142Y-128531428D01*
X182643714Y-128602857D01*
X182500857Y-128674285D01*
X182072285Y-128674285D01*
X181929428Y-128602857D01*
X181858000Y-128531428D01*
X181786571Y-128388571D01*
X181786571Y-128174285D01*
X181858000Y-128031428D01*
X181929428Y-127960000D01*
X182072285Y-127888571D01*
X182500857Y-127888571D01*
X182643714Y-127960000D01*
X182715142Y-128031428D01*
X182786571Y-128174285D01*
X182786571Y-128388571D01*
X181786571Y-127245714D02*
X182786571Y-127245714D01*
X181929428Y-127245714D02*
X181858000Y-127174285D01*
X181786571Y-127031428D01*
X181786571Y-126817142D01*
X181858000Y-126674285D01*
X182000857Y-126602857D01*
X182786571Y-126602857D01*
X182715142Y-125317142D02*
X182786571Y-125460000D01*
X182786571Y-125745714D01*
X182715142Y-125888571D01*
X182572285Y-125960000D01*
X182000857Y-125960000D01*
X181858000Y-125888571D01*
X181786571Y-125745714D01*
X181786571Y-125460000D01*
X181858000Y-125317142D01*
X182000857Y-125245714D01*
X182143714Y-125245714D01*
X182286571Y-125960000D01*
X182358000Y-123531428D02*
X182358000Y-122817142D01*
X182786571Y-123674285D02*
X181286571Y-123174285D01*
X182786571Y-122674285D01*
X182643714Y-121317142D02*
X182715142Y-121388571D01*
X182786571Y-121602857D01*
X182786571Y-121745714D01*
X182715142Y-121960000D01*
X182572285Y-122102857D01*
X182429428Y-122174285D01*
X182143714Y-122245714D01*
X181929428Y-122245714D01*
X181643714Y-122174285D01*
X181500857Y-122102857D01*
X181358000Y-121960000D01*
X181286571Y-121745714D01*
X181286571Y-121602857D01*
X181358000Y-121388571D01*
X181429428Y-121317142D01*
X182643714Y-118674285D02*
X182715142Y-118745714D01*
X182786571Y-118960000D01*
X182786571Y-119102857D01*
X182715142Y-119317142D01*
X182572285Y-119460000D01*
X182429428Y-119531428D01*
X182143714Y-119602857D01*
X181929428Y-119602857D01*
X181643714Y-119531428D01*
X181500857Y-119460000D01*
X181358000Y-119317142D01*
X181286571Y-119102857D01*
X181286571Y-118960000D01*
X181358000Y-118745714D01*
X181429428Y-118674285D01*
X182786571Y-117817142D02*
X182715142Y-117960000D01*
X182643714Y-118031428D01*
X182500857Y-118102857D01*
X182072285Y-118102857D01*
X181929428Y-118031428D01*
X181858000Y-117960000D01*
X181786571Y-117817142D01*
X181786571Y-117602857D01*
X181858000Y-117460000D01*
X181929428Y-117388571D01*
X182072285Y-117317142D01*
X182500857Y-117317142D01*
X182643714Y-117388571D01*
X182715142Y-117460000D01*
X182786571Y-117602857D01*
X182786571Y-117817142D01*
X181786571Y-116674285D02*
X182786571Y-116674285D01*
X181929428Y-116674285D02*
X181858000Y-116602857D01*
X181786571Y-116460000D01*
X181786571Y-116245714D01*
X181858000Y-116102857D01*
X182000857Y-116031428D01*
X182786571Y-116031428D01*
X181786571Y-115531428D02*
X181786571Y-114960000D01*
X181286571Y-115317142D02*
X182572285Y-115317142D01*
X182715142Y-115245714D01*
X182786571Y-115102857D01*
X182786571Y-114960000D01*
X182786571Y-114460000D02*
X181786571Y-114460000D01*
X182072285Y-114460000D02*
X181929428Y-114388571D01*
X181858000Y-114317142D01*
X181786571Y-114174285D01*
X181786571Y-114031428D01*
X182786571Y-113317142D02*
X182715142Y-113460000D01*
X182643714Y-113531428D01*
X182500857Y-113602857D01*
X182072285Y-113602857D01*
X181929428Y-113531428D01*
X181858000Y-113460000D01*
X181786571Y-113317142D01*
X181786571Y-113102857D01*
X181858000Y-112960000D01*
X181929428Y-112888571D01*
X182072285Y-112817142D01*
X182500857Y-112817142D01*
X182643714Y-112888571D01*
X182715142Y-112960000D01*
X182786571Y-113102857D01*
X182786571Y-113317142D01*
X182786571Y-111960000D02*
X182715142Y-112102857D01*
X182572285Y-112174285D01*
X181286571Y-112174285D01*
X182786571Y-111174285D02*
X182715142Y-111317142D01*
X182572285Y-111388571D01*
X181286571Y-111388571D01*
X182715142Y-110031428D02*
X182786571Y-110174285D01*
X182786571Y-110460000D01*
X182715142Y-110602857D01*
X182572285Y-110674285D01*
X182000857Y-110674285D01*
X181858000Y-110602857D01*
X181786571Y-110460000D01*
X181786571Y-110174285D01*
X181858000Y-110031428D01*
X182000857Y-109960000D01*
X182143714Y-109960000D01*
X182286571Y-110674285D01*
X182786571Y-109317142D02*
X181786571Y-109317142D01*
X182072285Y-109317142D02*
X181929428Y-109245714D01*
X181858000Y-109174285D01*
X181786571Y-109031428D01*
X181786571Y-108888571D01*
X185346571Y-127567142D02*
X184632285Y-128067142D01*
X185346571Y-128424285D02*
X183846571Y-128424285D01*
X183846571Y-127852857D01*
X183918000Y-127710000D01*
X183989428Y-127638571D01*
X184132285Y-127567142D01*
X184346571Y-127567142D01*
X184489428Y-127638571D01*
X184560857Y-127710000D01*
X184632285Y-127852857D01*
X184632285Y-128424285D01*
X185275142Y-126352857D02*
X185346571Y-126495714D01*
X185346571Y-126781428D01*
X185275142Y-126924285D01*
X185132285Y-126995714D01*
X184560857Y-126995714D01*
X184418000Y-126924285D01*
X184346571Y-126781428D01*
X184346571Y-126495714D01*
X184418000Y-126352857D01*
X184560857Y-126281428D01*
X184703714Y-126281428D01*
X184846571Y-126995714D01*
X184346571Y-125781428D02*
X185346571Y-125424285D01*
X184346571Y-125067142D01*
X185346571Y-122567142D02*
X185346571Y-123424285D01*
X185346571Y-122995714D02*
X183846571Y-122995714D01*
X184060857Y-123138571D01*
X184203714Y-123281428D01*
X184275142Y-123424285D01*
X185203714Y-121924285D02*
X185275142Y-121852857D01*
X185346571Y-121924285D01*
X185275142Y-121995714D01*
X185203714Y-121924285D01*
X185346571Y-121924285D01*
X183846571Y-120924285D02*
X183846571Y-120781428D01*
X183918000Y-120638571D01*
X183989428Y-120567142D01*
X184132285Y-120495714D01*
X184418000Y-120424285D01*
X184775142Y-120424285D01*
X185060857Y-120495714D01*
X185203714Y-120567142D01*
X185275142Y-120638571D01*
X185346571Y-120781428D01*
X185346571Y-120924285D01*
X185275142Y-121067142D01*
X185203714Y-121138571D01*
X185060857Y-121210000D01*
X184775142Y-121281428D01*
X184418000Y-121281428D01*
X184132285Y-121210000D01*
X183989428Y-121138571D01*
X183918000Y-121067142D01*
X183846571Y-120924285D01*
D11*
X202204980Y-131834114D02*
X202204980Y-132310304D01*
X201204980Y-132310304D01*
X202204980Y-131500780D02*
X201538314Y-131500780D01*
X201204980Y-131500780D02*
X201252600Y-131548400D01*
X201300219Y-131500780D01*
X201252600Y-131453161D01*
X201204980Y-131500780D01*
X201300219Y-131500780D01*
X202157361Y-130596019D02*
X202204980Y-130691257D01*
X202204980Y-130881733D01*
X202157361Y-130976971D01*
X202109742Y-131024590D01*
X202014504Y-131072209D01*
X201728790Y-131072209D01*
X201633552Y-131024590D01*
X201585933Y-130976971D01*
X201538314Y-130881733D01*
X201538314Y-130691257D01*
X201585933Y-130596019D01*
X202157361Y-129786495D02*
X202204980Y-129881733D01*
X202204980Y-130072209D01*
X202157361Y-130167447D01*
X202062123Y-130215066D01*
X201681171Y-130215066D01*
X201585933Y-130167447D01*
X201538314Y-130072209D01*
X201538314Y-129881733D01*
X201585933Y-129786495D01*
X201681171Y-129738876D01*
X201776409Y-129738876D01*
X201871647Y-130215066D01*
X201538314Y-129310304D02*
X202204980Y-129310304D01*
X201633552Y-129310304D02*
X201585933Y-129262685D01*
X201538314Y-129167447D01*
X201538314Y-129024590D01*
X201585933Y-128929352D01*
X201681171Y-128881733D01*
X202204980Y-128881733D01*
X202157361Y-128453161D02*
X202204980Y-128357923D01*
X202204980Y-128167447D01*
X202157361Y-128072209D01*
X202062123Y-128024590D01*
X202014504Y-128024590D01*
X201919266Y-128072209D01*
X201871647Y-128167447D01*
X201871647Y-128310304D01*
X201824028Y-128405542D01*
X201728790Y-128453161D01*
X201681171Y-128453161D01*
X201585933Y-128405542D01*
X201538314Y-128310304D01*
X201538314Y-128167447D01*
X201585933Y-128072209D01*
X202157361Y-127215066D02*
X202204980Y-127310304D01*
X202204980Y-127500780D01*
X202157361Y-127596019D01*
X202062123Y-127643638D01*
X201681171Y-127643638D01*
X201585933Y-127596019D01*
X201538314Y-127500780D01*
X201538314Y-127310304D01*
X201585933Y-127215066D01*
X201681171Y-127167447D01*
X201776409Y-127167447D01*
X201871647Y-127643638D01*
X202204980Y-126310304D02*
X201204980Y-126310304D01*
X202157361Y-126310304D02*
X202204980Y-126405542D01*
X202204980Y-126596019D01*
X202157361Y-126691257D01*
X202109742Y-126738876D01*
X202014504Y-126786495D01*
X201728790Y-126786495D01*
X201633552Y-126738876D01*
X201585933Y-126691257D01*
X201538314Y-126596019D01*
X201538314Y-126405542D01*
X201585933Y-126310304D01*
X201538314Y-124643638D02*
X202204980Y-124643638D01*
X201538314Y-125072209D02*
X202062123Y-125072209D01*
X202157361Y-125024590D01*
X202204980Y-124929352D01*
X202204980Y-124786495D01*
X202157361Y-124691257D01*
X202109742Y-124643638D01*
X201538314Y-124167447D02*
X202204980Y-124167447D01*
X201633552Y-124167447D02*
X201585933Y-124119828D01*
X201538314Y-124024590D01*
X201538314Y-123881733D01*
X201585933Y-123786495D01*
X201681171Y-123738876D01*
X202204980Y-123738876D01*
X202204980Y-122834114D02*
X201204980Y-122834114D01*
X202157361Y-122834114D02*
X202204980Y-122929352D01*
X202204980Y-123119828D01*
X202157361Y-123215066D01*
X202109742Y-123262685D01*
X202014504Y-123310304D01*
X201728790Y-123310304D01*
X201633552Y-123262685D01*
X201585933Y-123215066D01*
X201538314Y-123119828D01*
X201538314Y-122929352D01*
X201585933Y-122834114D01*
X202157361Y-121976971D02*
X202204980Y-122072209D01*
X202204980Y-122262685D01*
X202157361Y-122357923D01*
X202062123Y-122405542D01*
X201681171Y-122405542D01*
X201585933Y-122357923D01*
X201538314Y-122262685D01*
X201538314Y-122072209D01*
X201585933Y-121976971D01*
X201681171Y-121929352D01*
X201776409Y-121929352D01*
X201871647Y-122405542D01*
X202204980Y-121500780D02*
X201538314Y-121500780D01*
X201728790Y-121500780D02*
X201633552Y-121453161D01*
X201585933Y-121405542D01*
X201538314Y-121310304D01*
X201538314Y-121215066D01*
X201538314Y-120262685D02*
X201538314Y-119881733D01*
X201204980Y-120119828D02*
X202062123Y-120119828D01*
X202157361Y-120072209D01*
X202204980Y-119976971D01*
X202204980Y-119881733D01*
X202204980Y-119548400D02*
X201204980Y-119548400D01*
X202204980Y-119119828D02*
X201681171Y-119119828D01*
X201585933Y-119167447D01*
X201538314Y-119262685D01*
X201538314Y-119405542D01*
X201585933Y-119500780D01*
X201633552Y-119548400D01*
X202157361Y-118262685D02*
X202204980Y-118357923D01*
X202204980Y-118548400D01*
X202157361Y-118643638D01*
X202062123Y-118691257D01*
X201681171Y-118691257D01*
X201585933Y-118643638D01*
X201538314Y-118548400D01*
X201538314Y-118357923D01*
X201585933Y-118262685D01*
X201681171Y-118215066D01*
X201776409Y-118215066D01*
X201871647Y-118691257D01*
X201204980Y-117167447D02*
X201204980Y-116596019D01*
X202204980Y-116881733D02*
X201204980Y-116881733D01*
X201919266Y-116310304D02*
X201919266Y-115834114D01*
X202204980Y-116405542D02*
X201204980Y-116072209D01*
X202204980Y-115738876D01*
X202204980Y-115405542D02*
X201204980Y-115405542D01*
X201204980Y-115024590D01*
X201252600Y-114929352D01*
X201300219Y-114881733D01*
X201395457Y-114834114D01*
X201538314Y-114834114D01*
X201633552Y-114881733D01*
X201681171Y-114929352D01*
X201728790Y-115024590D01*
X201728790Y-115405542D01*
X202204980Y-113834114D02*
X201728790Y-114167447D01*
X202204980Y-114405542D02*
X201204980Y-114405542D01*
X201204980Y-114024590D01*
X201252600Y-113929352D01*
X201300219Y-113881733D01*
X201395457Y-113834114D01*
X201538314Y-113834114D01*
X201633552Y-113881733D01*
X201681171Y-113929352D01*
X201728790Y-114024590D01*
X201728790Y-114405542D01*
X202804980Y-132119828D02*
X202804980Y-131929352D01*
X202852600Y-131834114D01*
X202947838Y-131738876D01*
X203138314Y-131691257D01*
X203471647Y-131691257D01*
X203662123Y-131738876D01*
X203757361Y-131834114D01*
X203804980Y-131929352D01*
X203804980Y-132119828D01*
X203757361Y-132215066D01*
X203662123Y-132310304D01*
X203471647Y-132357923D01*
X203138314Y-132357923D01*
X202947838Y-132310304D01*
X202852600Y-132215066D01*
X202804980Y-132119828D01*
X203138314Y-131262685D02*
X204138314Y-131262685D01*
X203185933Y-131262685D02*
X203138314Y-131167447D01*
X203138314Y-130976971D01*
X203185933Y-130881733D01*
X203233552Y-130834114D01*
X203328790Y-130786495D01*
X203614504Y-130786495D01*
X203709742Y-130834114D01*
X203757361Y-130881733D01*
X203804980Y-130976971D01*
X203804980Y-131167447D01*
X203757361Y-131262685D01*
X203757361Y-129976971D02*
X203804980Y-130072209D01*
X203804980Y-130262685D01*
X203757361Y-130357923D01*
X203662123Y-130405542D01*
X203281171Y-130405542D01*
X203185933Y-130357923D01*
X203138314Y-130262685D01*
X203138314Y-130072209D01*
X203185933Y-129976971D01*
X203281171Y-129929352D01*
X203376409Y-129929352D01*
X203471647Y-130405542D01*
X203138314Y-129500780D02*
X203804980Y-129500780D01*
X203233552Y-129500780D02*
X203185933Y-129453161D01*
X203138314Y-129357923D01*
X203138314Y-129215066D01*
X203185933Y-129119828D01*
X203281171Y-129072209D01*
X203804980Y-129072209D01*
X203804980Y-127834114D02*
X202804980Y-127834114D01*
X203281171Y-127834114D02*
X203281171Y-127262685D01*
X203804980Y-127262685D02*
X202804980Y-127262685D01*
X203804980Y-126357923D02*
X203281171Y-126357923D01*
X203185933Y-126405542D01*
X203138314Y-126500780D01*
X203138314Y-126691257D01*
X203185933Y-126786495D01*
X203757361Y-126357923D02*
X203804980Y-126453161D01*
X203804980Y-126691257D01*
X203757361Y-126786495D01*
X203662123Y-126834114D01*
X203566885Y-126834114D01*
X203471647Y-126786495D01*
X203424028Y-126691257D01*
X203424028Y-126453161D01*
X203376409Y-126357923D01*
X203804980Y-125881733D02*
X203138314Y-125881733D01*
X203328790Y-125881733D02*
X203233552Y-125834114D01*
X203185933Y-125786495D01*
X203138314Y-125691257D01*
X203138314Y-125596019D01*
X203804980Y-124834114D02*
X202804980Y-124834114D01*
X203757361Y-124834114D02*
X203804980Y-124929352D01*
X203804980Y-125119828D01*
X203757361Y-125215066D01*
X203709742Y-125262685D01*
X203614504Y-125310304D01*
X203328790Y-125310304D01*
X203233552Y-125262685D01*
X203185933Y-125215066D01*
X203138314Y-125119828D01*
X203138314Y-124929352D01*
X203185933Y-124834114D01*
X203138314Y-124453161D02*
X203804980Y-124262685D01*
X203328790Y-124072209D01*
X203804980Y-123881733D01*
X203138314Y-123691257D01*
X203804980Y-122881733D02*
X203281171Y-122881733D01*
X203185933Y-122929352D01*
X203138314Y-123024590D01*
X203138314Y-123215066D01*
X203185933Y-123310304D01*
X203757361Y-122881733D02*
X203804980Y-122976971D01*
X203804980Y-123215066D01*
X203757361Y-123310304D01*
X203662123Y-123357923D01*
X203566885Y-123357923D01*
X203471647Y-123310304D01*
X203424028Y-123215066D01*
X203424028Y-122976971D01*
X203376409Y-122881733D01*
X203804980Y-122405542D02*
X203138314Y-122405542D01*
X203328790Y-122405542D02*
X203233552Y-122357923D01*
X203185933Y-122310304D01*
X203138314Y-122215066D01*
X203138314Y-122119828D01*
X203757361Y-121405542D02*
X203804980Y-121500780D01*
X203804980Y-121691257D01*
X203757361Y-121786495D01*
X203662123Y-121834114D01*
X203281171Y-121834114D01*
X203185933Y-121786495D01*
X203138314Y-121691257D01*
X203138314Y-121500780D01*
X203185933Y-121405542D01*
X203281171Y-121357923D01*
X203376409Y-121357923D01*
X203471647Y-121834114D01*
X203804980Y-119691257D02*
X203804980Y-120167447D01*
X202804980Y-120167447D01*
X203804980Y-119357923D02*
X203138314Y-119357923D01*
X202804980Y-119357923D02*
X202852600Y-119405542D01*
X202900219Y-119357923D01*
X202852600Y-119310304D01*
X202804980Y-119357923D01*
X202900219Y-119357923D01*
X203757361Y-118453161D02*
X203804980Y-118548400D01*
X203804980Y-118738876D01*
X203757361Y-118834114D01*
X203709742Y-118881733D01*
X203614504Y-118929352D01*
X203328790Y-118929352D01*
X203233552Y-118881733D01*
X203185933Y-118834114D01*
X203138314Y-118738876D01*
X203138314Y-118548400D01*
X203185933Y-118453161D01*
X203757361Y-117643638D02*
X203804980Y-117738876D01*
X203804980Y-117929352D01*
X203757361Y-118024590D01*
X203662123Y-118072209D01*
X203281171Y-118072209D01*
X203185933Y-118024590D01*
X203138314Y-117929352D01*
X203138314Y-117738876D01*
X203185933Y-117643638D01*
X203281171Y-117596019D01*
X203376409Y-117596019D01*
X203471647Y-118072209D01*
X203138314Y-117167447D02*
X203804980Y-117167447D01*
X203233552Y-117167447D02*
X203185933Y-117119828D01*
X203138314Y-117024590D01*
X203138314Y-116881733D01*
X203185933Y-116786495D01*
X203281171Y-116738876D01*
X203804980Y-116738876D01*
X203757361Y-116310304D02*
X203804980Y-116215066D01*
X203804980Y-116024590D01*
X203757361Y-115929352D01*
X203662123Y-115881733D01*
X203614504Y-115881733D01*
X203519266Y-115929352D01*
X203471647Y-116024590D01*
X203471647Y-116167447D01*
X203424028Y-116262685D01*
X203328790Y-116310304D01*
X203281171Y-116310304D01*
X203185933Y-116262685D01*
X203138314Y-116167447D01*
X203138314Y-116024590D01*
X203185933Y-115929352D01*
X203757361Y-115072209D02*
X203804980Y-115167447D01*
X203804980Y-115357923D01*
X203757361Y-115453161D01*
X203662123Y-115500780D01*
X203281171Y-115500780D01*
X203185933Y-115453161D01*
X203138314Y-115357923D01*
X203138314Y-115167447D01*
X203185933Y-115072209D01*
X203281171Y-115024590D01*
X203376409Y-115024590D01*
X203471647Y-115500780D01*
X205785933Y-132024590D02*
X205738314Y-132072209D01*
X205595457Y-132167447D01*
X205500219Y-132215066D01*
X205357361Y-132262685D01*
X205119266Y-132310304D01*
X204928790Y-132310304D01*
X204690695Y-132262685D01*
X204547838Y-132215066D01*
X204452600Y-132167447D01*
X204309742Y-132072209D01*
X204262123Y-132024590D01*
X204738314Y-131738876D02*
X205404980Y-131548400D01*
X204928790Y-131357923D01*
X205404980Y-131167447D01*
X204738314Y-130976971D01*
X204738314Y-130691257D02*
X205404980Y-130500780D01*
X204928790Y-130310304D01*
X205404980Y-130119828D01*
X204738314Y-129929352D01*
X204738314Y-129643638D02*
X205404980Y-129453161D01*
X204928790Y-129262685D01*
X205404980Y-129072209D01*
X204738314Y-128881733D01*
X205309742Y-128500780D02*
X205357361Y-128453161D01*
X205404980Y-128500780D01*
X205357361Y-128548400D01*
X205309742Y-128500780D01*
X205404980Y-128500780D01*
X204738314Y-128167447D02*
X204738314Y-127786495D01*
X204404980Y-128024590D02*
X205262123Y-128024590D01*
X205357361Y-127976971D01*
X205404980Y-127881733D01*
X205404980Y-127786495D01*
X205404980Y-127024590D02*
X204881171Y-127024590D01*
X204785933Y-127072209D01*
X204738314Y-127167447D01*
X204738314Y-127357923D01*
X204785933Y-127453161D01*
X205357361Y-127024590D02*
X205404980Y-127119828D01*
X205404980Y-127357923D01*
X205357361Y-127453161D01*
X205262123Y-127500780D01*
X205166885Y-127500780D01*
X205071647Y-127453161D01*
X205024028Y-127357923D01*
X205024028Y-127119828D01*
X204976409Y-127024590D01*
X204738314Y-126548400D02*
X205738314Y-126548400D01*
X204785933Y-126548400D02*
X204738314Y-126453161D01*
X204738314Y-126262685D01*
X204785933Y-126167447D01*
X204833552Y-126119828D01*
X204928790Y-126072209D01*
X205214504Y-126072209D01*
X205309742Y-126119828D01*
X205357361Y-126167447D01*
X205404980Y-126262685D01*
X205404980Y-126453161D01*
X205357361Y-126548400D01*
X205404980Y-125643638D02*
X204738314Y-125643638D01*
X204928790Y-125643638D02*
X204833552Y-125596019D01*
X204785933Y-125548400D01*
X204738314Y-125453161D01*
X204738314Y-125357923D01*
X205309742Y-125024590D02*
X205357361Y-124976971D01*
X205404980Y-125024590D01*
X205357361Y-125072209D01*
X205309742Y-125024590D01*
X205404980Y-125024590D01*
X205404980Y-124405542D02*
X205357361Y-124500780D01*
X205309742Y-124548400D01*
X205214504Y-124596019D01*
X204928790Y-124596019D01*
X204833552Y-124548400D01*
X204785933Y-124500780D01*
X204738314Y-124405542D01*
X204738314Y-124262685D01*
X204785933Y-124167447D01*
X204833552Y-124119828D01*
X204928790Y-124072209D01*
X205214504Y-124072209D01*
X205309742Y-124119828D01*
X205357361Y-124167447D01*
X205404980Y-124262685D01*
X205404980Y-124405542D01*
X205404980Y-123643638D02*
X204738314Y-123643638D01*
X204928790Y-123643638D02*
X204833552Y-123596019D01*
X204785933Y-123548400D01*
X204738314Y-123453161D01*
X204738314Y-123357923D01*
X204738314Y-122596019D02*
X205547838Y-122596019D01*
X205643076Y-122643638D01*
X205690695Y-122691257D01*
X205738314Y-122786495D01*
X205738314Y-122929352D01*
X205690695Y-123024590D01*
X205357361Y-122596019D02*
X205404980Y-122691257D01*
X205404980Y-122881733D01*
X205357361Y-122976971D01*
X205309742Y-123024590D01*
X205214504Y-123072209D01*
X204928790Y-123072209D01*
X204833552Y-123024590D01*
X204785933Y-122976971D01*
X204738314Y-122881733D01*
X204738314Y-122691257D01*
X204785933Y-122596019D01*
X204357361Y-121405542D02*
X205643076Y-122262685D01*
X204404980Y-120881733D02*
X204404980Y-120691257D01*
X204452600Y-120596019D01*
X204547838Y-120500780D01*
X204738314Y-120453161D01*
X205071647Y-120453161D01*
X205262123Y-120500780D01*
X205357361Y-120596019D01*
X205404980Y-120691257D01*
X205404980Y-120881733D01*
X205357361Y-120976971D01*
X205262123Y-121072209D01*
X205071647Y-121119828D01*
X204738314Y-121119828D01*
X204547838Y-121072209D01*
X204452600Y-120976971D01*
X204404980Y-120881733D01*
X205404980Y-120024590D02*
X204404980Y-120024590D01*
X204881171Y-120024590D02*
X204881171Y-119453161D01*
X205404980Y-119453161D02*
X204404980Y-119453161D01*
X205404980Y-118500780D02*
X205404980Y-118976971D01*
X204404980Y-118976971D01*
X205785933Y-118262685D02*
X205738314Y-118215066D01*
X205595457Y-118119828D01*
X205500219Y-118072209D01*
X205357361Y-118024590D01*
X205119266Y-117976971D01*
X204928790Y-117976971D01*
X204690695Y-118024590D01*
X204547838Y-118072209D01*
X204452600Y-118119828D01*
X204309742Y-118215066D01*
X204262123Y-118262685D01*
X206909742Y-131738876D02*
X206957361Y-131786495D01*
X207004980Y-131929352D01*
X207004980Y-132024590D01*
X206957361Y-132167447D01*
X206862123Y-132262685D01*
X206766885Y-132310304D01*
X206576409Y-132357923D01*
X206433552Y-132357923D01*
X206243076Y-132310304D01*
X206147838Y-132262685D01*
X206052600Y-132167447D01*
X206004980Y-132024590D01*
X206004980Y-131929352D01*
X206052600Y-131786495D01*
X206100219Y-131738876D01*
X207004980Y-131167447D02*
X206957361Y-131262685D01*
X206909742Y-131310304D01*
X206814504Y-131357923D01*
X206528790Y-131357923D01*
X206433552Y-131310304D01*
X206385933Y-131262685D01*
X206338314Y-131167447D01*
X206338314Y-131024590D01*
X206385933Y-130929352D01*
X206433552Y-130881733D01*
X206528790Y-130834114D01*
X206814504Y-130834114D01*
X206909742Y-130881733D01*
X206957361Y-130929352D01*
X207004980Y-131024590D01*
X207004980Y-131167447D01*
X206338314Y-130405542D02*
X207338314Y-130405542D01*
X206385933Y-130405542D02*
X206338314Y-130310304D01*
X206338314Y-130119828D01*
X206385933Y-130024590D01*
X206433552Y-129976971D01*
X206528790Y-129929352D01*
X206814504Y-129929352D01*
X206909742Y-129976971D01*
X206957361Y-130024590D01*
X207004980Y-130119828D01*
X207004980Y-130310304D01*
X206957361Y-130405542D01*
X206338314Y-129596019D02*
X207004980Y-129357923D01*
X206338314Y-129119828D02*
X207004980Y-129357923D01*
X207243076Y-129453161D01*
X207290695Y-129500780D01*
X207338314Y-129596019D01*
X207004980Y-128738876D02*
X206338314Y-128738876D01*
X206528790Y-128738876D02*
X206433552Y-128691257D01*
X206385933Y-128643638D01*
X206338314Y-128548400D01*
X206338314Y-128453161D01*
X207004980Y-128119828D02*
X206338314Y-128119828D01*
X206004980Y-128119828D02*
X206052600Y-128167447D01*
X206100219Y-128119828D01*
X206052600Y-128072209D01*
X206004980Y-128119828D01*
X206100219Y-128119828D01*
X206338314Y-127215066D02*
X207147838Y-127215066D01*
X207243076Y-127262685D01*
X207290695Y-127310304D01*
X207338314Y-127405542D01*
X207338314Y-127548400D01*
X207290695Y-127643638D01*
X206957361Y-127215066D02*
X207004980Y-127310304D01*
X207004980Y-127500780D01*
X206957361Y-127596019D01*
X206909742Y-127643638D01*
X206814504Y-127691257D01*
X206528790Y-127691257D01*
X206433552Y-127643638D01*
X206385933Y-127596019D01*
X206338314Y-127500780D01*
X206338314Y-127310304D01*
X206385933Y-127215066D01*
X207004980Y-126738876D02*
X206004980Y-126738876D01*
X207004980Y-126310304D02*
X206481171Y-126310304D01*
X206385933Y-126357923D01*
X206338314Y-126453161D01*
X206338314Y-126596019D01*
X206385933Y-126691257D01*
X206433552Y-126738876D01*
X206338314Y-125976971D02*
X206338314Y-125596019D01*
X206004980Y-125834114D02*
X206862123Y-125834114D01*
X206957361Y-125786495D01*
X207004980Y-125691257D01*
X207004980Y-125596019D01*
X206243076Y-123691257D02*
X206195457Y-123786495D01*
X206195457Y-123976971D01*
X206243076Y-124072209D01*
X206338314Y-124167447D01*
X206433552Y-124215066D01*
X206624028Y-124215066D01*
X206719266Y-124167447D01*
X206814504Y-124072209D01*
X206862123Y-123976971D01*
X206862123Y-123786495D01*
X206814504Y-123691257D01*
X205862123Y-123881733D02*
X205909742Y-124119828D01*
X206052600Y-124357923D01*
X206290695Y-124500780D01*
X206528790Y-124548400D01*
X206766885Y-124500780D01*
X207004980Y-124357923D01*
X207147838Y-124119828D01*
X207195457Y-123881733D01*
X207147838Y-123643638D01*
X207004980Y-123405542D01*
X206766885Y-123262685D01*
X206528790Y-123215066D01*
X206290695Y-123262685D01*
X206052600Y-123405542D01*
X205909742Y-123643638D01*
X205862123Y-123881733D01*
X206100219Y-122072209D02*
X206052600Y-122024590D01*
X206004980Y-121929352D01*
X206004980Y-121691257D01*
X206052600Y-121596019D01*
X206100219Y-121548400D01*
X206195457Y-121500780D01*
X206290695Y-121500780D01*
X206433552Y-121548400D01*
X207004980Y-122119828D01*
X207004980Y-121500780D01*
X206004980Y-120881733D02*
X206004980Y-120786495D01*
X206052600Y-120691257D01*
X206100219Y-120643638D01*
X206195457Y-120596019D01*
X206385933Y-120548400D01*
X206624028Y-120548400D01*
X206814504Y-120596019D01*
X206909742Y-120643638D01*
X206957361Y-120691257D01*
X207004980Y-120786495D01*
X207004980Y-120881733D01*
X206957361Y-120976971D01*
X206909742Y-121024590D01*
X206814504Y-121072209D01*
X206624028Y-121119828D01*
X206385933Y-121119828D01*
X206195457Y-121072209D01*
X206100219Y-121024590D01*
X206052600Y-120976971D01*
X206004980Y-120881733D01*
X207004980Y-119596019D02*
X207004980Y-120167447D01*
X207004980Y-119881733D02*
X206004980Y-119881733D01*
X206147838Y-119976971D01*
X206243076Y-120072209D01*
X206290695Y-120167447D01*
X206004980Y-119262685D02*
X206004980Y-118596019D01*
X207004980Y-119024590D01*
X208604980Y-132310304D02*
X207604980Y-132310304D01*
X207938314Y-131834114D02*
X208604980Y-131834114D01*
X208033552Y-131834114D02*
X207985933Y-131786495D01*
X207938314Y-131691257D01*
X207938314Y-131548400D01*
X207985933Y-131453161D01*
X208081171Y-131405542D01*
X208604980Y-131405542D01*
X207938314Y-131072209D02*
X207938314Y-130691257D01*
X208604980Y-130929352D02*
X207747838Y-130929352D01*
X207652600Y-130881733D01*
X207604980Y-130786495D01*
X207604980Y-130691257D01*
X208557361Y-129976971D02*
X208604980Y-130072209D01*
X208604980Y-130262685D01*
X208557361Y-130357923D01*
X208462123Y-130405542D01*
X208081171Y-130405542D01*
X207985933Y-130357923D01*
X207938314Y-130262685D01*
X207938314Y-130072209D01*
X207985933Y-129976971D01*
X208081171Y-129929352D01*
X208176409Y-129929352D01*
X208271647Y-130405542D01*
X208604980Y-129500780D02*
X207938314Y-129500780D01*
X208128790Y-129500780D02*
X208033552Y-129453161D01*
X207985933Y-129405542D01*
X207938314Y-129310304D01*
X207938314Y-129215066D01*
X207938314Y-128881733D02*
X208604980Y-128881733D01*
X208033552Y-128881733D02*
X207985933Y-128834114D01*
X207938314Y-128738876D01*
X207938314Y-128596019D01*
X207985933Y-128500780D01*
X208081171Y-128453161D01*
X208604980Y-128453161D01*
X208604980Y-127834114D02*
X208557361Y-127929352D01*
X208509742Y-127976971D01*
X208414504Y-128024590D01*
X208128790Y-128024590D01*
X208033552Y-127976971D01*
X207985933Y-127929352D01*
X207938314Y-127834114D01*
X207938314Y-127691257D01*
X207985933Y-127596019D01*
X208033552Y-127548400D01*
X208128790Y-127500780D01*
X208414504Y-127500780D01*
X208509742Y-127548400D01*
X208557361Y-127596019D01*
X208604980Y-127691257D01*
X208604980Y-127834114D01*
X208081171Y-126310304D02*
X208081171Y-125976971D01*
X208604980Y-125834114D02*
X208604980Y-126310304D01*
X207604980Y-126310304D01*
X207604980Y-125834114D01*
X208604980Y-125405542D02*
X207938314Y-125405542D01*
X208033552Y-125405542D02*
X207985933Y-125357923D01*
X207938314Y-125262685D01*
X207938314Y-125119828D01*
X207985933Y-125024590D01*
X208081171Y-124976971D01*
X208604980Y-124976971D01*
X208081171Y-124976971D02*
X207985933Y-124929352D01*
X207938314Y-124834114D01*
X207938314Y-124691257D01*
X207985933Y-124596019D01*
X208081171Y-124548400D01*
X208604980Y-124548400D01*
X208604980Y-124072209D02*
X207604980Y-124072209D01*
X207985933Y-124072209D02*
X207938314Y-123976971D01*
X207938314Y-123786495D01*
X207985933Y-123691257D01*
X208033552Y-123643638D01*
X208128790Y-123596019D01*
X208414504Y-123596019D01*
X208509742Y-123643638D01*
X208557361Y-123691257D01*
X208604980Y-123786495D01*
X208604980Y-123976971D01*
X208557361Y-124072209D01*
X208557361Y-122786495D02*
X208604980Y-122881733D01*
X208604980Y-123072209D01*
X208557361Y-123167447D01*
X208462123Y-123215066D01*
X208081171Y-123215066D01*
X207985933Y-123167447D01*
X207938314Y-123072209D01*
X207938314Y-122881733D01*
X207985933Y-122786495D01*
X208081171Y-122738876D01*
X208176409Y-122738876D01*
X208271647Y-123215066D01*
X208604980Y-121881733D02*
X207604980Y-121881733D01*
X208557361Y-121881733D02*
X208604980Y-121976971D01*
X208604980Y-122167447D01*
X208557361Y-122262685D01*
X208509742Y-122310304D01*
X208414504Y-122357923D01*
X208128790Y-122357923D01*
X208033552Y-122310304D01*
X207985933Y-122262685D01*
X207938314Y-122167447D01*
X207938314Y-121976971D01*
X207985933Y-121881733D01*
X208604980Y-120976971D02*
X207604980Y-120976971D01*
X208557361Y-120976971D02*
X208604980Y-121072209D01*
X208604980Y-121262685D01*
X208557361Y-121357923D01*
X208509742Y-121405542D01*
X208414504Y-121453161D01*
X208128790Y-121453161D01*
X208033552Y-121405542D01*
X207985933Y-121357923D01*
X207938314Y-121262685D01*
X207938314Y-121072209D01*
X207985933Y-120976971D01*
X208557361Y-120119828D02*
X208604980Y-120215066D01*
X208604980Y-120405542D01*
X208557361Y-120500780D01*
X208462123Y-120548400D01*
X208081171Y-120548400D01*
X207985933Y-120500780D01*
X207938314Y-120405542D01*
X207938314Y-120215066D01*
X207985933Y-120119828D01*
X208081171Y-120072209D01*
X208176409Y-120072209D01*
X208271647Y-120548400D01*
X208604980Y-119215066D02*
X207604980Y-119215066D01*
X208557361Y-119215066D02*
X208604980Y-119310304D01*
X208604980Y-119500780D01*
X208557361Y-119596019D01*
X208509742Y-119643638D01*
X208414504Y-119691257D01*
X208128790Y-119691257D01*
X208033552Y-119643638D01*
X207985933Y-119596019D01*
X207938314Y-119500780D01*
X207938314Y-119310304D01*
X207985933Y-119215066D01*
X198151761Y-97734380D02*
X197818428Y-97258190D01*
X197580333Y-97734380D02*
X197580333Y-96734380D01*
X197961285Y-96734380D01*
X198056523Y-96782000D01*
X198104142Y-96829619D01*
X198151761Y-96924857D01*
X198151761Y-97067714D01*
X198104142Y-97162952D01*
X198056523Y-97210571D01*
X197961285Y-97258190D01*
X197580333Y-97258190D01*
X198485095Y-97734380D02*
X199008904Y-97067714D01*
X198485095Y-97067714D02*
X199008904Y-97734380D01*
X197493023Y-99401380D02*
X198064452Y-99401380D01*
X197778738Y-100401380D02*
X197778738Y-99401380D01*
X198302547Y-100401380D02*
X198826357Y-99734714D01*
X198302547Y-99734714D02*
X198826357Y-100401380D01*
X197985142Y-94051500D02*
X197889904Y-94003880D01*
X197747047Y-94003880D01*
X197604190Y-94051500D01*
X197508952Y-94146738D01*
X197461333Y-94241976D01*
X197413714Y-94432452D01*
X197413714Y-94575309D01*
X197461333Y-94765785D01*
X197508952Y-94861023D01*
X197604190Y-94956261D01*
X197747047Y-95003880D01*
X197842285Y-95003880D01*
X197985142Y-94956261D01*
X198032761Y-94908642D01*
X198032761Y-94575309D01*
X197842285Y-94575309D01*
X198461333Y-94337214D02*
X198461333Y-95003880D01*
X198461333Y-94432452D02*
X198508952Y-94384833D01*
X198604190Y-94337214D01*
X198747047Y-94337214D01*
X198842285Y-94384833D01*
X198889904Y-94480071D01*
X198889904Y-95003880D01*
X199794666Y-95003880D02*
X199794666Y-94003880D01*
X199794666Y-94956261D02*
X199699428Y-95003880D01*
X199508952Y-95003880D01*
X199413714Y-94956261D01*
X199366095Y-94908642D01*
X199318476Y-94813404D01*
X199318476Y-94527690D01*
X199366095Y-94432452D01*
X199413714Y-94384833D01*
X199508952Y-94337214D01*
X199699428Y-94337214D01*
X199794666Y-94384833D01*
X197659809Y-102004880D02*
X198278857Y-102004880D01*
X197945523Y-102385833D01*
X198088380Y-102385833D01*
X198183619Y-102433452D01*
X198231238Y-102481071D01*
X198278857Y-102576309D01*
X198278857Y-102814404D01*
X198231238Y-102909642D01*
X198183619Y-102957261D01*
X198088380Y-103004880D01*
X197802666Y-103004880D01*
X197707428Y-102957261D01*
X197659809Y-102909642D01*
X198707428Y-102909642D02*
X198755047Y-102957261D01*
X198707428Y-103004880D01*
X198659809Y-102957261D01*
X198707428Y-102909642D01*
X198707428Y-103004880D01*
X199088380Y-102004880D02*
X199707428Y-102004880D01*
X199374095Y-102385833D01*
X199516952Y-102385833D01*
X199612190Y-102433452D01*
X199659809Y-102481071D01*
X199707428Y-102576309D01*
X199707428Y-102814404D01*
X199659809Y-102909642D01*
X199612190Y-102957261D01*
X199516952Y-103004880D01*
X199231238Y-103004880D01*
X199136000Y-102957261D01*
X199088380Y-102909642D01*
X199993142Y-102004880D02*
X200326476Y-103004880D01*
X200659809Y-102004880D01*
X189111142Y-104973380D02*
X189111142Y-103973380D01*
X189682571Y-104973380D01*
X189682571Y-103973380D01*
X190730190Y-104973380D02*
X190396857Y-104497190D01*
X190158761Y-104973380D02*
X190158761Y-103973380D01*
X190539714Y-103973380D01*
X190634952Y-104021000D01*
X190682571Y-104068619D01*
X190730190Y-104163857D01*
X190730190Y-104306714D01*
X190682571Y-104401952D01*
X190634952Y-104449571D01*
X190539714Y-104497190D01*
X190158761Y-104497190D01*
X191111142Y-104925761D02*
X191254000Y-104973380D01*
X191492095Y-104973380D01*
X191587333Y-104925761D01*
X191634952Y-104878142D01*
X191682571Y-104782904D01*
X191682571Y-104687666D01*
X191634952Y-104592428D01*
X191587333Y-104544809D01*
X191492095Y-104497190D01*
X191301619Y-104449571D01*
X191206380Y-104401952D01*
X191158761Y-104354333D01*
X191111142Y-104259095D01*
X191111142Y-104163857D01*
X191158761Y-104068619D01*
X191206380Y-104021000D01*
X191301619Y-103973380D01*
X191539714Y-103973380D01*
X191682571Y-104021000D01*
X191968285Y-103973380D02*
X192539714Y-103973380D01*
X192254000Y-104973380D02*
X192254000Y-103973380D01*
X188301595Y-97305761D02*
X188444452Y-97353380D01*
X188682547Y-97353380D01*
X188777785Y-97305761D01*
X188825404Y-97258142D01*
X188873023Y-97162904D01*
X188873023Y-97067666D01*
X188825404Y-96972428D01*
X188777785Y-96924809D01*
X188682547Y-96877190D01*
X188492071Y-96829571D01*
X188396833Y-96781952D01*
X188349214Y-96734333D01*
X188301595Y-96639095D01*
X188301595Y-96543857D01*
X188349214Y-96448619D01*
X188396833Y-96401000D01*
X188492071Y-96353380D01*
X188730166Y-96353380D01*
X188873023Y-96401000D01*
X189206357Y-96353380D02*
X189444452Y-97353380D01*
X189634928Y-96639095D01*
X189825404Y-97353380D01*
X190063500Y-96353380D01*
X191015880Y-97258142D02*
X190968261Y-97305761D01*
X190825404Y-97353380D01*
X190730166Y-97353380D01*
X190587309Y-97305761D01*
X190492071Y-97210523D01*
X190444452Y-97115285D01*
X190396833Y-96924809D01*
X190396833Y-96781952D01*
X190444452Y-96591476D01*
X190492071Y-96496238D01*
X190587309Y-96401000D01*
X190730166Y-96353380D01*
X190825404Y-96353380D01*
X190968261Y-96401000D01*
X191015880Y-96448619D01*
X191920642Y-97353380D02*
X191444452Y-97353380D01*
X191444452Y-96353380D01*
X192253976Y-97353380D02*
X192253976Y-96353380D01*
X192825404Y-97353380D02*
X192396833Y-96781952D01*
X192825404Y-96353380D02*
X192253976Y-96924809D01*
X188460333Y-94765761D02*
X188603190Y-94813380D01*
X188841285Y-94813380D01*
X188936523Y-94765761D01*
X188984142Y-94718142D01*
X189031761Y-94622904D01*
X189031761Y-94527666D01*
X188984142Y-94432428D01*
X188936523Y-94384809D01*
X188841285Y-94337190D01*
X188650809Y-94289571D01*
X188555571Y-94241952D01*
X188507952Y-94194333D01*
X188460333Y-94099095D01*
X188460333Y-94003857D01*
X188507952Y-93908619D01*
X188555571Y-93861000D01*
X188650809Y-93813380D01*
X188888904Y-93813380D01*
X189031761Y-93861000D01*
X189365095Y-93813380D02*
X189603190Y-94813380D01*
X189793666Y-94099095D01*
X189984142Y-94813380D01*
X190222238Y-93813380D01*
X190603190Y-94813380D02*
X190603190Y-93813380D01*
X190841285Y-93813380D01*
X190984142Y-93861000D01*
X191079380Y-93956238D01*
X191127000Y-94051476D01*
X191174619Y-94241952D01*
X191174619Y-94384809D01*
X191127000Y-94575285D01*
X191079380Y-94670523D01*
X190984142Y-94765761D01*
X190841285Y-94813380D01*
X190603190Y-94813380D01*
X191555571Y-94527666D02*
X192031761Y-94527666D01*
X191460333Y-94813380D02*
X191793666Y-93813380D01*
X192127000Y-94813380D01*
X192317476Y-93813380D02*
X192888904Y-93813380D01*
X192603190Y-94813380D02*
X192603190Y-93813380D01*
X174363142Y-104084500D02*
X174267904Y-104036880D01*
X174125047Y-104036880D01*
X173982190Y-104084500D01*
X173886952Y-104179738D01*
X173839333Y-104274976D01*
X173791714Y-104465452D01*
X173791714Y-104608309D01*
X173839333Y-104798785D01*
X173886952Y-104894023D01*
X173982190Y-104989261D01*
X174125047Y-105036880D01*
X174220285Y-105036880D01*
X174363142Y-104989261D01*
X174410761Y-104941642D01*
X174410761Y-104608309D01*
X174220285Y-104608309D01*
X174839333Y-104370214D02*
X174839333Y-105036880D01*
X174839333Y-104465452D02*
X174886952Y-104417833D01*
X174982190Y-104370214D01*
X175125047Y-104370214D01*
X175220285Y-104417833D01*
X175267904Y-104513071D01*
X175267904Y-105036880D01*
X176172666Y-105036880D02*
X176172666Y-104036880D01*
X176172666Y-104989261D02*
X176077428Y-105036880D01*
X175886952Y-105036880D01*
X175791714Y-104989261D01*
X175744095Y-104941642D01*
X175696476Y-104846404D01*
X175696476Y-104560690D01*
X175744095Y-104465452D01*
X175791714Y-104417833D01*
X175886952Y-104370214D01*
X176077428Y-104370214D01*
X176172666Y-104417833D01*
X174363142Y-98941000D02*
X174267904Y-98893380D01*
X174125047Y-98893380D01*
X173982190Y-98941000D01*
X173886952Y-99036238D01*
X173839333Y-99131476D01*
X173791714Y-99321952D01*
X173791714Y-99464809D01*
X173839333Y-99655285D01*
X173886952Y-99750523D01*
X173982190Y-99845761D01*
X174125047Y-99893380D01*
X174220285Y-99893380D01*
X174363142Y-99845761D01*
X174410761Y-99798142D01*
X174410761Y-99464809D01*
X174220285Y-99464809D01*
X174839333Y-99226714D02*
X174839333Y-99893380D01*
X174839333Y-99321952D02*
X174886952Y-99274333D01*
X174982190Y-99226714D01*
X175125047Y-99226714D01*
X175220285Y-99274333D01*
X175267904Y-99369571D01*
X175267904Y-99893380D01*
X176172666Y-99893380D02*
X176172666Y-98893380D01*
X176172666Y-99845761D02*
X176077428Y-99893380D01*
X175886952Y-99893380D01*
X175791714Y-99845761D01*
X175744095Y-99798142D01*
X175696476Y-99702904D01*
X175696476Y-99417190D01*
X175744095Y-99321952D01*
X175791714Y-99274333D01*
X175886952Y-99226714D01*
X176077428Y-99226714D01*
X176172666Y-99274333D01*
X174363142Y-96464500D02*
X174267904Y-96416880D01*
X174125047Y-96416880D01*
X173982190Y-96464500D01*
X173886952Y-96559738D01*
X173839333Y-96654976D01*
X173791714Y-96845452D01*
X173791714Y-96988309D01*
X173839333Y-97178785D01*
X173886952Y-97274023D01*
X173982190Y-97369261D01*
X174125047Y-97416880D01*
X174220285Y-97416880D01*
X174363142Y-97369261D01*
X174410761Y-97321642D01*
X174410761Y-96988309D01*
X174220285Y-96988309D01*
X174839333Y-96750214D02*
X174839333Y-97416880D01*
X174839333Y-96845452D02*
X174886952Y-96797833D01*
X174982190Y-96750214D01*
X175125047Y-96750214D01*
X175220285Y-96797833D01*
X175267904Y-96893071D01*
X175267904Y-97416880D01*
X176172666Y-97416880D02*
X176172666Y-96416880D01*
X176172666Y-97369261D02*
X176077428Y-97416880D01*
X175886952Y-97416880D01*
X175791714Y-97369261D01*
X175744095Y-97321642D01*
X175696476Y-97226404D01*
X175696476Y-96940690D01*
X175744095Y-96845452D01*
X175791714Y-96797833D01*
X175886952Y-96750214D01*
X176077428Y-96750214D01*
X176172666Y-96797833D01*
X173275809Y-94003880D02*
X173894857Y-94003880D01*
X173561523Y-94384833D01*
X173704380Y-94384833D01*
X173799619Y-94432452D01*
X173847238Y-94480071D01*
X173894857Y-94575309D01*
X173894857Y-94813404D01*
X173847238Y-94908642D01*
X173799619Y-94956261D01*
X173704380Y-95003880D01*
X173418666Y-95003880D01*
X173323428Y-94956261D01*
X173275809Y-94908642D01*
X174323428Y-94908642D02*
X174371047Y-94956261D01*
X174323428Y-95003880D01*
X174275809Y-94956261D01*
X174323428Y-94908642D01*
X174323428Y-95003880D01*
X174704380Y-94003880D02*
X175323428Y-94003880D01*
X174990095Y-94384833D01*
X175132952Y-94384833D01*
X175228190Y-94432452D01*
X175275809Y-94480071D01*
X175323428Y-94575309D01*
X175323428Y-94813404D01*
X175275809Y-94908642D01*
X175228190Y-94956261D01*
X175132952Y-95003880D01*
X174847238Y-95003880D01*
X174752000Y-94956261D01*
X174704380Y-94908642D01*
X175609142Y-94003880D02*
X175942476Y-95003880D01*
X176275809Y-94003880D01*
D13*
%TO.C,J3*%
X109592000Y-109768000D02*
X107092000Y-109768000D01*
X107092000Y-109768000D02*
X107092000Y-114768000D01*
X109592000Y-114768000D02*
X107092000Y-114768000D01*
X121192000Y-109268000D02*
X109592000Y-109268000D01*
X121192000Y-109268000D02*
X121192000Y-115268000D01*
X121192000Y-115268000D02*
X109592000Y-115268000D01*
X109592000Y-109268000D02*
X109592000Y-115268000D01*
D11*
%TO.C,ZONE7*%
X199442071Y-148885479D02*
X184877625Y-148885479D01*
X184877625Y-148885479D02*
X184877625Y-135593552D01*
X184877625Y-135593552D02*
X199442071Y-135593552D01*
X199442071Y-135593552D02*
X199442071Y-148885479D01*
X200613916Y-146592525D02*
X199505186Y-146592525D01*
X199505186Y-146592525D02*
X199505186Y-138730620D01*
X199505186Y-138730620D02*
X200613916Y-138730620D01*
X200613916Y-138730620D02*
X200613916Y-146592525D01*
X184789312Y-146592302D02*
X183680582Y-146592302D01*
X183680582Y-146592302D02*
X183680582Y-138730397D01*
X183680582Y-138730397D02*
X184789312Y-138730397D01*
X184789312Y-138730397D02*
X184789312Y-146592302D01*
%TO.C,ZONE6*%
X179122071Y-148885479D02*
X164557625Y-148885479D01*
X164557625Y-148885479D02*
X164557625Y-135593552D01*
X164557625Y-135593552D02*
X179122071Y-135593552D01*
X179122071Y-135593552D02*
X179122071Y-148885479D01*
X180293916Y-146592525D02*
X179185186Y-146592525D01*
X179185186Y-146592525D02*
X179185186Y-138730620D01*
X179185186Y-138730620D02*
X180293916Y-138730620D01*
X180293916Y-138730620D02*
X180293916Y-146592525D01*
X164469312Y-146592302D02*
X163360582Y-146592302D01*
X163360582Y-146592302D02*
X163360582Y-138730397D01*
X163360582Y-138730397D02*
X164469312Y-138730397D01*
X164469312Y-138730397D02*
X164469312Y-146592302D01*
D10*
%TO.C,U2*%
X154845000Y-104235000D02*
X155845000Y-104235000D01*
X154845000Y-93885000D02*
X155920000Y-93885000D01*
X165195000Y-93885000D02*
X164120000Y-93885000D01*
X165195000Y-104235000D02*
X164120000Y-104235000D01*
X154845000Y-104235000D02*
X154845000Y-103160000D01*
X165195000Y-104235000D02*
X165195000Y-103160000D01*
X165195000Y-93885000D02*
X165195000Y-94960000D01*
X154845000Y-93885000D02*
X154845000Y-94960000D01*
X155845000Y-104235000D02*
X155845000Y-105260000D01*
%TO.C,P1*%
X179872000Y-93518000D02*
X177447000Y-93518000D01*
X180122000Y-103378000D02*
X184622000Y-103378000D01*
X179872000Y-103632000D02*
X180126000Y-103378000D01*
X180126000Y-103378000D02*
X179872000Y-103124000D01*
X179872000Y-103124000D02*
X179872000Y-102997000D01*
X179872000Y-103759000D02*
X179872000Y-103632000D01*
X184872000Y-103124000D02*
X184618000Y-103378000D01*
X184872000Y-103632000D02*
X184872000Y-103759000D01*
X184618000Y-103378000D02*
X184872000Y-103632000D01*
X184872000Y-102997000D02*
X184872000Y-103124000D01*
X180122000Y-95758000D02*
X184622000Y-95758000D01*
X184872000Y-105918000D02*
X184872000Y-105638000D01*
X184872000Y-105918000D02*
X179872000Y-105918000D01*
X179872000Y-105918000D02*
X179872000Y-105638000D01*
X179872000Y-93218000D02*
X179872000Y-93498000D01*
X184872000Y-93218000D02*
X179872000Y-93218000D01*
X184872000Y-95377000D02*
X184872000Y-95504000D01*
X184872000Y-95504000D02*
X184618000Y-95758000D01*
X184618000Y-95758000D02*
X184872000Y-96012000D01*
X184872000Y-96012000D02*
X184872000Y-96139000D01*
X184872000Y-93218000D02*
X184872000Y-93498000D01*
X184872000Y-97917000D02*
X184872000Y-98044000D01*
X184872000Y-100457000D02*
X184872000Y-100584000D01*
X179872000Y-96139000D02*
X179872000Y-96012000D01*
X184618000Y-98298000D02*
X184872000Y-98552000D01*
X184618000Y-100838000D02*
X184872000Y-101092000D01*
X180126000Y-95758000D02*
X179872000Y-95504000D01*
X184872000Y-98552000D02*
X184872000Y-98679000D01*
X184872000Y-101092000D02*
X184872000Y-101219000D01*
X179872000Y-95504000D02*
X179872000Y-95377000D01*
X184872000Y-98044000D02*
X184618000Y-98298000D01*
X184872000Y-100584000D02*
X184618000Y-100838000D01*
X179872000Y-96012000D02*
X180126000Y-95758000D01*
X179872000Y-98679000D02*
X179872000Y-98552000D01*
X179872000Y-101219000D02*
X179872000Y-101092000D01*
X179872000Y-98044000D02*
X179872000Y-97917000D01*
X179872000Y-100584000D02*
X179872000Y-100457000D01*
X180126000Y-98298000D02*
X179872000Y-98044000D01*
X180126000Y-100838000D02*
X179872000Y-100584000D01*
X179872000Y-98552000D02*
X180126000Y-98298000D01*
X179872000Y-101092000D02*
X180126000Y-100838000D01*
X180122000Y-98298000D02*
X184622000Y-98298000D01*
X180122000Y-100838000D02*
X184622000Y-100838000D01*
D11*
%TO.C,J2*%
X107273521Y-79300071D02*
X107273521Y-64735625D01*
X107273521Y-64735625D02*
X120565448Y-64735625D01*
X120565448Y-64735625D02*
X120565448Y-79300071D01*
X120565448Y-79300071D02*
X107273521Y-79300071D01*
X109566475Y-80471916D02*
X109566475Y-79363186D01*
X109566475Y-79363186D02*
X117428380Y-79363186D01*
X117428380Y-79363186D02*
X117428380Y-80471916D01*
X117428380Y-80471916D02*
X109566475Y-80471916D01*
X109566698Y-64647312D02*
X109566698Y-63538582D01*
X109566698Y-63538582D02*
X117428603Y-63538582D01*
X117428603Y-63538582D02*
X117428603Y-64647312D01*
X117428603Y-64647312D02*
X109566698Y-64647312D01*
D10*
%TO.C,CON1*%
X209969500Y-94670880D02*
X209969500Y-85669120D01*
X213469620Y-94670880D02*
X213469620Y-85669120D01*
X213469620Y-85669120D02*
X198968760Y-85669120D01*
X198968760Y-85669120D02*
X198968760Y-94670880D01*
X198968760Y-94670880D02*
X213469620Y-94670880D01*
%TO.C,C1*%
X125349000Y-92329000D02*
X125349000Y-94957900D01*
X125349000Y-100711000D02*
X125349000Y-98082100D01*
X133731000Y-99949000D02*
X133731000Y-98082100D01*
X133731000Y-93091000D02*
X133731000Y-94957900D01*
X133146800Y-94957900D02*
G75*
G03X125933200Y-94957900I-3606800J-1562100D01*
G01*
X125933200Y-98082100D02*
G75*
G03X133146800Y-98082100I3606800J1562100D01*
G01*
X125349000Y-92329000D02*
X132969000Y-92329000D01*
X132969000Y-92329000D02*
X133731000Y-93091000D01*
X133731000Y-99949000D02*
X132969000Y-100711000D01*
X132969000Y-100711000D02*
X125349000Y-100711000D01*
%TO.C,C2*%
X162783000Y-110772000D02*
X162083000Y-110772000D01*
X162083000Y-109572000D02*
X162783000Y-109572000D01*
%TO.C,C3*%
X162783000Y-109248000D02*
X162083000Y-109248000D01*
X162083000Y-108048000D02*
X162783000Y-108048000D01*
%TO.C,C4*%
X170399000Y-95090000D02*
X170399000Y-95790000D01*
X169199000Y-95790000D02*
X169199000Y-95090000D01*
%TO.C,C5*%
X150594000Y-103410000D02*
X150594000Y-102710000D01*
X151794000Y-102710000D02*
X151794000Y-103410000D01*
D11*
%TO.C,J1*%
X107273521Y-98858071D02*
X107273521Y-84293625D01*
X107273521Y-84293625D02*
X120565448Y-84293625D01*
X120565448Y-84293625D02*
X120565448Y-98858071D01*
X120565448Y-98858071D02*
X107273521Y-98858071D01*
X109566475Y-100029916D02*
X109566475Y-98921186D01*
X109566475Y-98921186D02*
X117428380Y-98921186D01*
X117428380Y-98921186D02*
X117428380Y-100029916D01*
X117428380Y-100029916D02*
X109566475Y-100029916D01*
X109566698Y-84205312D02*
X109566698Y-83096582D01*
X109566698Y-83096582D02*
X117428603Y-83096582D01*
X117428603Y-83096582D02*
X117428603Y-84205312D01*
X117428603Y-84205312D02*
X109566698Y-84205312D01*
D14*
%TO.C,P6*%
X196462000Y-103378000D02*
X196462000Y-93098000D01*
X196462000Y-93098000D02*
X193682000Y-93098000D01*
X193682000Y-93098000D02*
X193682000Y-103378000D01*
X193682000Y-103378000D02*
X196462000Y-103378000D01*
X196462000Y-104648000D02*
X196462000Y-106038000D01*
X196462000Y-106038000D02*
X195072000Y-106038000D01*
%TO.C,R1*%
X183154000Y-107016000D02*
X184154000Y-107016000D01*
X184154000Y-108376000D02*
X183154000Y-108376000D01*
%TO.C,U1*%
X139200000Y-103000000D02*
X138850000Y-103000000D01*
X138850000Y-103000000D02*
X138850000Y-101500000D01*
X143850000Y-103000000D02*
X140650000Y-103000000D01*
X145650000Y-101500000D02*
X145650000Y-103000000D01*
X145650000Y-103000000D02*
X145250000Y-103000000D01*
D10*
%TO.C,P2*%
X206277000Y-71882000D02*
X213777000Y-71882000D01*
X213777000Y-71882000D02*
X213777000Y-82042000D01*
X213777000Y-82042000D02*
X206277000Y-82042000D01*
X198577000Y-71882000D02*
X198577000Y-82042000D01*
X198577000Y-82042000D02*
X206277000Y-82042000D01*
X206277000Y-82042000D02*
X206277000Y-71882000D01*
X206277000Y-71882000D02*
X198577000Y-71882000D01*
%TO.C,U3*%
X191891000Y-90532000D02*
X191891000Y-65932000D01*
X191891000Y-65932000D02*
X197491000Y-65932000D01*
X197491000Y-65932000D02*
X197491000Y-90532000D01*
X197491000Y-90532000D02*
X191891000Y-90532000D01*
%TO.C,U4*%
X151251000Y-90532000D02*
X151251000Y-65932000D01*
X151251000Y-65932000D02*
X156851000Y-65932000D01*
X156851000Y-65932000D02*
X156851000Y-90532000D01*
X156851000Y-90532000D02*
X151251000Y-90532000D01*
%TO.C,U5*%
X131070000Y-108350000D02*
X131070000Y-132950000D01*
X131070000Y-132950000D02*
X125470000Y-132950000D01*
X125470000Y-132950000D02*
X125470000Y-108350000D01*
X125470000Y-108350000D02*
X131070000Y-108350000D01*
%TO.C,U6*%
X171710000Y-108350000D02*
X171710000Y-132950000D01*
X171710000Y-132950000D02*
X166110000Y-132950000D01*
X166110000Y-132950000D02*
X166110000Y-108350000D01*
X166110000Y-108350000D02*
X171710000Y-108350000D01*
%TO.C,U7*%
X184271000Y-90532000D02*
X184271000Y-65932000D01*
X184271000Y-65932000D02*
X189871000Y-65932000D01*
X189871000Y-65932000D02*
X189871000Y-90532000D01*
X189871000Y-90532000D02*
X184271000Y-90532000D01*
%TO.C,U8*%
X143631000Y-90532000D02*
X143631000Y-65932000D01*
X143631000Y-65932000D02*
X149231000Y-65932000D01*
X149231000Y-65932000D02*
X149231000Y-90532000D01*
X149231000Y-90532000D02*
X143631000Y-90532000D01*
%TO.C,U9*%
X138690000Y-108350000D02*
X138690000Y-132950000D01*
X138690000Y-132950000D02*
X133090000Y-132950000D01*
X133090000Y-132950000D02*
X133090000Y-108350000D01*
X133090000Y-108350000D02*
X138690000Y-108350000D01*
%TO.C,U10*%
X179330000Y-108350000D02*
X179330000Y-132950000D01*
X179330000Y-132950000D02*
X173730000Y-132950000D01*
X173730000Y-132950000D02*
X173730000Y-108350000D01*
X173730000Y-108350000D02*
X179330000Y-108350000D01*
%TO.C,U11*%
X171571000Y-90532000D02*
X171571000Y-65932000D01*
X171571000Y-65932000D02*
X177171000Y-65932000D01*
X177171000Y-65932000D02*
X177171000Y-90532000D01*
X177171000Y-90532000D02*
X171571000Y-90532000D01*
%TO.C,U12*%
X130931000Y-90532000D02*
X130931000Y-65932000D01*
X130931000Y-65932000D02*
X136531000Y-65932000D01*
X136531000Y-65932000D02*
X136531000Y-90532000D01*
X136531000Y-90532000D02*
X130931000Y-90532000D01*
%TO.C,U13*%
X151390000Y-108350000D02*
X151390000Y-132950000D01*
X151390000Y-132950000D02*
X145790000Y-132950000D01*
X145790000Y-132950000D02*
X145790000Y-108350000D01*
X145790000Y-108350000D02*
X151390000Y-108350000D01*
%TO.C,U14*%
X192030000Y-108350000D02*
X192030000Y-132950000D01*
X192030000Y-132950000D02*
X186430000Y-132950000D01*
X186430000Y-132950000D02*
X186430000Y-108350000D01*
X186430000Y-108350000D02*
X192030000Y-108350000D01*
%TO.C,U15*%
X163951000Y-90532000D02*
X163951000Y-65932000D01*
X163951000Y-65932000D02*
X169551000Y-65932000D01*
X169551000Y-65932000D02*
X169551000Y-90532000D01*
X169551000Y-90532000D02*
X163951000Y-90532000D01*
%TO.C,U16*%
X123311000Y-90532000D02*
X123311000Y-65932000D01*
X123311000Y-65932000D02*
X128911000Y-65932000D01*
X128911000Y-65932000D02*
X128911000Y-90532000D01*
X128911000Y-90532000D02*
X123311000Y-90532000D01*
%TO.C,U17*%
X159010000Y-108350000D02*
X159010000Y-132950000D01*
X159010000Y-132950000D02*
X153410000Y-132950000D01*
X153410000Y-132950000D02*
X153410000Y-108350000D01*
X153410000Y-108350000D02*
X159010000Y-108350000D01*
%TO.C,U18*%
X199650000Y-108350000D02*
X199650000Y-132950000D01*
X199650000Y-132950000D02*
X194050000Y-132950000D01*
X194050000Y-132950000D02*
X194050000Y-108350000D01*
X194050000Y-108350000D02*
X199650000Y-108350000D01*
D11*
%TO.C,ZONE0*%
X184605929Y-49793521D02*
X199170375Y-49793521D01*
X199170375Y-49793521D02*
X199170375Y-63085448D01*
X199170375Y-63085448D02*
X184605929Y-63085448D01*
X184605929Y-63085448D02*
X184605929Y-49793521D01*
X183434084Y-52086475D02*
X184542814Y-52086475D01*
X184542814Y-52086475D02*
X184542814Y-59948380D01*
X184542814Y-59948380D02*
X183434084Y-59948380D01*
X183434084Y-59948380D02*
X183434084Y-52086475D01*
X199258688Y-52086698D02*
X200367418Y-52086698D01*
X200367418Y-52086698D02*
X200367418Y-59948603D01*
X200367418Y-59948603D02*
X199258688Y-59948603D01*
X199258688Y-59948603D02*
X199258688Y-52086698D01*
%TO.C,ZONE1*%
X164285929Y-49793521D02*
X178850375Y-49793521D01*
X178850375Y-49793521D02*
X178850375Y-63085448D01*
X178850375Y-63085448D02*
X164285929Y-63085448D01*
X164285929Y-63085448D02*
X164285929Y-49793521D01*
X163114084Y-52086475D02*
X164222814Y-52086475D01*
X164222814Y-52086475D02*
X164222814Y-59948380D01*
X164222814Y-59948380D02*
X163114084Y-59948380D01*
X163114084Y-59948380D02*
X163114084Y-52086475D01*
X178938688Y-52086698D02*
X180047418Y-52086698D01*
X180047418Y-52086698D02*
X180047418Y-59948603D01*
X180047418Y-59948603D02*
X178938688Y-59948603D01*
X178938688Y-59948603D02*
X178938688Y-52086698D01*
%TO.C,ZONE2*%
X143965929Y-49793521D02*
X158530375Y-49793521D01*
X158530375Y-49793521D02*
X158530375Y-63085448D01*
X158530375Y-63085448D02*
X143965929Y-63085448D01*
X143965929Y-63085448D02*
X143965929Y-49793521D01*
X142794084Y-52086475D02*
X143902814Y-52086475D01*
X143902814Y-52086475D02*
X143902814Y-59948380D01*
X143902814Y-59948380D02*
X142794084Y-59948380D01*
X142794084Y-59948380D02*
X142794084Y-52086475D01*
X158618688Y-52086698D02*
X159727418Y-52086698D01*
X159727418Y-52086698D02*
X159727418Y-59948603D01*
X159727418Y-59948603D02*
X158618688Y-59948603D01*
X158618688Y-59948603D02*
X158618688Y-52086698D01*
%TO.C,ZONE3*%
X123645929Y-49793521D02*
X138210375Y-49793521D01*
X138210375Y-49793521D02*
X138210375Y-63085448D01*
X138210375Y-63085448D02*
X123645929Y-63085448D01*
X123645929Y-63085448D02*
X123645929Y-49793521D01*
X122474084Y-52086475D02*
X123582814Y-52086475D01*
X123582814Y-52086475D02*
X123582814Y-59948380D01*
X123582814Y-59948380D02*
X122474084Y-59948380D01*
X122474084Y-59948380D02*
X122474084Y-52086475D01*
X138298688Y-52086698D02*
X139407418Y-52086698D01*
X139407418Y-52086698D02*
X139407418Y-59948603D01*
X139407418Y-59948603D02*
X138298688Y-59948603D01*
X138298688Y-59948603D02*
X138298688Y-52086698D01*
%TO.C,ZONE4*%
X138482071Y-148885479D02*
X123917625Y-148885479D01*
X123917625Y-148885479D02*
X123917625Y-135593552D01*
X123917625Y-135593552D02*
X138482071Y-135593552D01*
X138482071Y-135593552D02*
X138482071Y-148885479D01*
X139653916Y-146592525D02*
X138545186Y-146592525D01*
X138545186Y-146592525D02*
X138545186Y-138730620D01*
X138545186Y-138730620D02*
X139653916Y-138730620D01*
X139653916Y-138730620D02*
X139653916Y-146592525D01*
X123829312Y-146592302D02*
X122720582Y-146592302D01*
X122720582Y-146592302D02*
X122720582Y-138730397D01*
X122720582Y-138730397D02*
X123829312Y-138730397D01*
X123829312Y-138730397D02*
X123829312Y-146592302D01*
%TO.C,ZONE5*%
X158802071Y-148885479D02*
X144237625Y-148885479D01*
X144237625Y-148885479D02*
X144237625Y-135593552D01*
X144237625Y-135593552D02*
X158802071Y-135593552D01*
X158802071Y-135593552D02*
X158802071Y-148885479D01*
X159973916Y-146592525D02*
X158865186Y-146592525D01*
X158865186Y-146592525D02*
X158865186Y-138730620D01*
X158865186Y-138730620D02*
X159973916Y-138730620D01*
X159973916Y-138730620D02*
X159973916Y-146592525D01*
X144149312Y-146592302D02*
X143040582Y-146592302D01*
X143040582Y-146592302D02*
X143040582Y-138730397D01*
X143040582Y-138730397D02*
X144149312Y-138730397D01*
X144149312Y-138730397D02*
X144149312Y-146592302D01*
%TO.C,J3*%
D15*
X121545355Y-112700740D02*
X122258370Y-112700740D01*
X122400972Y-112748274D01*
X122496041Y-112843342D01*
X122543575Y-112985945D01*
X122543575Y-113081014D01*
X121545355Y-112320465D02*
X121545355Y-111702520D01*
X121925630Y-112035260D01*
X121925630Y-111892657D01*
X121973164Y-111797588D01*
X122020698Y-111750054D01*
X122115767Y-111702520D01*
X122353438Y-111702520D01*
X122448507Y-111750054D01*
X122496041Y-111797588D01*
X122543575Y-111892657D01*
X122543575Y-112177862D01*
X122496041Y-112272931D01*
X122448507Y-112320465D01*
X110947544Y-105625355D02*
X110947544Y-106338370D01*
X110900010Y-106480972D01*
X110804941Y-106576041D01*
X110662338Y-106623575D01*
X110567270Y-106623575D01*
X111375352Y-106338370D02*
X111850695Y-106338370D01*
X111280284Y-106623575D02*
X111613024Y-105625355D01*
X111945764Y-106623575D01*
X112848915Y-106528507D02*
X112801381Y-106576041D01*
X112658778Y-106623575D01*
X112563710Y-106623575D01*
X112421107Y-106576041D01*
X112326038Y-106480972D01*
X112278504Y-106385904D01*
X112230970Y-106195767D01*
X112230970Y-106053164D01*
X112278504Y-105863027D01*
X112326038Y-105767958D01*
X112421107Y-105672890D01*
X112563710Y-105625355D01*
X112658778Y-105625355D01*
X112801381Y-105672890D01*
X112848915Y-105720424D01*
X113276724Y-106623575D02*
X113276724Y-105625355D01*
X113847135Y-106623575D02*
X113419327Y-106053164D01*
X113847135Y-105625355D02*
X113276724Y-106195767D01*
X114037272Y-106718644D02*
X114797821Y-106718644D01*
X114987958Y-106576041D02*
X115130561Y-106623575D01*
X115368232Y-106623575D01*
X115463301Y-106576041D01*
X115510835Y-106528507D01*
X115558370Y-106433438D01*
X115558370Y-106338370D01*
X115510835Y-106243301D01*
X115463301Y-106195767D01*
X115368232Y-106148232D01*
X115178095Y-106100698D01*
X115083027Y-106053164D01*
X115035492Y-106005630D01*
X114987958Y-105910561D01*
X114987958Y-105815492D01*
X115035492Y-105720424D01*
X115083027Y-105672890D01*
X115178095Y-105625355D01*
X115415767Y-105625355D01*
X115558370Y-105672890D01*
X115843575Y-105625355D02*
X116413987Y-105625355D01*
X116128781Y-106623575D02*
X116128781Y-105625355D01*
X116746727Y-106100698D02*
X117079467Y-106100698D01*
X117222070Y-106623575D02*
X116746727Y-106623575D01*
X116746727Y-105625355D01*
X117222070Y-105625355D01*
X118220290Y-106623575D02*
X117887550Y-106148232D01*
X117649878Y-106623575D02*
X117649878Y-105625355D01*
X118030152Y-105625355D01*
X118125221Y-105672890D01*
X118172755Y-105720424D01*
X118220290Y-105815492D01*
X118220290Y-105958095D01*
X118172755Y-106053164D01*
X118125221Y-106100698D01*
X118030152Y-106148232D01*
X117649878Y-106148232D01*
X118648098Y-106100698D02*
X118980838Y-106100698D01*
X119123441Y-106623575D02*
X118648098Y-106623575D01*
X118648098Y-105625355D01*
X119123441Y-105625355D01*
X119741387Y-105625355D02*
X119931524Y-105625355D01*
X120026592Y-105672890D01*
X120121661Y-105767958D01*
X120169195Y-105958095D01*
X120169195Y-106290835D01*
X120121661Y-106480972D01*
X120026592Y-106576041D01*
X119931524Y-106623575D01*
X119741387Y-106623575D01*
X119646318Y-106576041D01*
X119551250Y-106480972D01*
X119503715Y-106290835D01*
X119503715Y-105958095D01*
X119551250Y-105767958D01*
X119646318Y-105672890D01*
X119741387Y-105625355D01*
%TO.C,ZONE7*%
D10*
X189866876Y-133716780D02*
X190533542Y-133716780D01*
X189866876Y-134716780D01*
X190533542Y-134716780D01*
X191104971Y-133716780D02*
X191295447Y-133716780D01*
X191390685Y-133764400D01*
X191485923Y-133859638D01*
X191533542Y-134050114D01*
X191533542Y-134383447D01*
X191485923Y-134573923D01*
X191390685Y-134669161D01*
X191295447Y-134716780D01*
X191104971Y-134716780D01*
X191009733Y-134669161D01*
X190914495Y-134573923D01*
X190866876Y-134383447D01*
X190866876Y-134050114D01*
X190914495Y-133859638D01*
X191009733Y-133764400D01*
X191104971Y-133716780D01*
X191962114Y-134716780D02*
X191962114Y-133716780D01*
X192533542Y-134716780D01*
X192533542Y-133716780D01*
X193009733Y-134192971D02*
X193343066Y-134192971D01*
X193485923Y-134716780D02*
X193009733Y-134716780D01*
X193009733Y-133716780D01*
X193485923Y-133716780D01*
X193819257Y-133716780D02*
X194485923Y-133716780D01*
X194057352Y-134716780D01*
%TO.C,ZONE6*%
X169521476Y-133691380D02*
X170188142Y-133691380D01*
X169521476Y-134691380D01*
X170188142Y-134691380D01*
X170759571Y-133691380D02*
X170950047Y-133691380D01*
X171045285Y-133739000D01*
X171140523Y-133834238D01*
X171188142Y-134024714D01*
X171188142Y-134358047D01*
X171140523Y-134548523D01*
X171045285Y-134643761D01*
X170950047Y-134691380D01*
X170759571Y-134691380D01*
X170664333Y-134643761D01*
X170569095Y-134548523D01*
X170521476Y-134358047D01*
X170521476Y-134024714D01*
X170569095Y-133834238D01*
X170664333Y-133739000D01*
X170759571Y-133691380D01*
X171616714Y-134691380D02*
X171616714Y-133691380D01*
X172188142Y-134691380D01*
X172188142Y-133691380D01*
X172664333Y-134167571D02*
X172997666Y-134167571D01*
X173140523Y-134691380D02*
X172664333Y-134691380D01*
X172664333Y-133691380D01*
X173140523Y-133691380D01*
X173997666Y-133691380D02*
X173807190Y-133691380D01*
X173711952Y-133739000D01*
X173664333Y-133786619D01*
X173569095Y-133929476D01*
X173521476Y-134119952D01*
X173521476Y-134500904D01*
X173569095Y-134596142D01*
X173616714Y-134643761D01*
X173711952Y-134691380D01*
X173902428Y-134691380D01*
X173997666Y-134643761D01*
X174045285Y-134596142D01*
X174092904Y-134500904D01*
X174092904Y-134262809D01*
X174045285Y-134167571D01*
X173997666Y-134119952D01*
X173902428Y-134072333D01*
X173711952Y-134072333D01*
X173616714Y-134119952D01*
X173569095Y-134167571D01*
X173521476Y-134262809D01*
%TO.C,U2*%
X152272380Y-99821904D02*
X153081904Y-99821904D01*
X153177142Y-99774285D01*
X153224761Y-99726666D01*
X153272380Y-99631428D01*
X153272380Y-99440952D01*
X153224761Y-99345714D01*
X153177142Y-99298095D01*
X153081904Y-99250476D01*
X152272380Y-99250476D01*
X152367619Y-98821904D02*
X152320000Y-98774285D01*
X152272380Y-98679047D01*
X152272380Y-98440952D01*
X152320000Y-98345714D01*
X152367619Y-98298095D01*
X152462857Y-98250476D01*
X152558095Y-98250476D01*
X152700952Y-98298095D01*
X153272380Y-98869523D01*
X153272380Y-98250476D01*
D11*
X156254952Y-99129809D02*
X156369238Y-99167904D01*
X156559714Y-99167904D01*
X156635904Y-99129809D01*
X156674000Y-99091714D01*
X156712095Y-99015523D01*
X156712095Y-98939333D01*
X156674000Y-98863142D01*
X156635904Y-98825047D01*
X156559714Y-98786952D01*
X156407333Y-98748857D01*
X156331142Y-98710761D01*
X156293047Y-98672666D01*
X156254952Y-98596476D01*
X156254952Y-98520285D01*
X156293047Y-98444095D01*
X156331142Y-98406000D01*
X156407333Y-98367904D01*
X156597809Y-98367904D01*
X156712095Y-98406000D01*
X156940666Y-98367904D02*
X157397809Y-98367904D01*
X157169238Y-99167904D02*
X157169238Y-98367904D01*
X157664476Y-99167904D02*
X157664476Y-98367904D01*
X157931142Y-98939333D01*
X158197809Y-98367904D01*
X158197809Y-99167904D01*
X158502571Y-98367904D02*
X158997809Y-98367904D01*
X158731142Y-98672666D01*
X158845428Y-98672666D01*
X158921619Y-98710761D01*
X158959714Y-98748857D01*
X158997809Y-98825047D01*
X158997809Y-99015523D01*
X158959714Y-99091714D01*
X158921619Y-99129809D01*
X158845428Y-99167904D01*
X158616857Y-99167904D01*
X158540666Y-99129809D01*
X158502571Y-99091714D01*
X159302571Y-98444095D02*
X159340666Y-98406000D01*
X159416857Y-98367904D01*
X159607333Y-98367904D01*
X159683523Y-98406000D01*
X159721619Y-98444095D01*
X159759714Y-98520285D01*
X159759714Y-98596476D01*
X159721619Y-98710761D01*
X159264476Y-99167904D01*
X159759714Y-99167904D01*
X160369238Y-98748857D02*
X160102571Y-98748857D01*
X160102571Y-99167904D02*
X160102571Y-98367904D01*
X160483523Y-98367904D01*
X160940666Y-98367904D02*
X161016857Y-98367904D01*
X161093047Y-98406000D01*
X161131142Y-98444095D01*
X161169238Y-98520285D01*
X161207333Y-98672666D01*
X161207333Y-98863142D01*
X161169238Y-99015523D01*
X161131142Y-99091714D01*
X161093047Y-99129809D01*
X161016857Y-99167904D01*
X160940666Y-99167904D01*
X160864476Y-99129809D01*
X160826380Y-99091714D01*
X160788285Y-99015523D01*
X160750190Y-98863142D01*
X160750190Y-98672666D01*
X160788285Y-98520285D01*
X160826380Y-98444095D01*
X160864476Y-98406000D01*
X160940666Y-98367904D01*
X161474000Y-98367904D02*
X161969238Y-98367904D01*
X161702571Y-98672666D01*
X161816857Y-98672666D01*
X161893047Y-98710761D01*
X161931142Y-98748857D01*
X161969238Y-98825047D01*
X161969238Y-99015523D01*
X161931142Y-99091714D01*
X161893047Y-99129809D01*
X161816857Y-99167904D01*
X161588285Y-99167904D01*
X161512095Y-99129809D01*
X161474000Y-99091714D01*
X162464476Y-98367904D02*
X162540666Y-98367904D01*
X162616857Y-98406000D01*
X162654952Y-98444095D01*
X162693047Y-98520285D01*
X162731142Y-98672666D01*
X162731142Y-98863142D01*
X162693047Y-99015523D01*
X162654952Y-99091714D01*
X162616857Y-99129809D01*
X162540666Y-99167904D01*
X162464476Y-99167904D01*
X162388285Y-99129809D01*
X162350190Y-99091714D01*
X162312095Y-99015523D01*
X162274000Y-98863142D01*
X162274000Y-98672666D01*
X162312095Y-98520285D01*
X162350190Y-98444095D01*
X162388285Y-98406000D01*
X162464476Y-98367904D01*
X163531142Y-99167904D02*
X163264476Y-98786952D01*
X163074000Y-99167904D02*
X163074000Y-98367904D01*
X163378761Y-98367904D01*
X163454952Y-98406000D01*
X163493047Y-98444095D01*
X163531142Y-98520285D01*
X163531142Y-98634571D01*
X163493047Y-98710761D01*
X163454952Y-98748857D01*
X163378761Y-98786952D01*
X163074000Y-98786952D01*
X163988285Y-98710761D02*
X163912095Y-98672666D01*
X163874000Y-98634571D01*
X163835904Y-98558380D01*
X163835904Y-98520285D01*
X163874000Y-98444095D01*
X163912095Y-98406000D01*
X163988285Y-98367904D01*
X164140666Y-98367904D01*
X164216857Y-98406000D01*
X164254952Y-98444095D01*
X164293047Y-98520285D01*
X164293047Y-98558380D01*
X164254952Y-98634571D01*
X164216857Y-98672666D01*
X164140666Y-98710761D01*
X163988285Y-98710761D01*
X163912095Y-98748857D01*
X163874000Y-98786952D01*
X163835904Y-98863142D01*
X163835904Y-99015523D01*
X163874000Y-99091714D01*
X163912095Y-99129809D01*
X163988285Y-99167904D01*
X164140666Y-99167904D01*
X164216857Y-99129809D01*
X164254952Y-99091714D01*
X164293047Y-99015523D01*
X164293047Y-98863142D01*
X164254952Y-98786952D01*
X164216857Y-98748857D01*
X164140666Y-98710761D01*
%TO.C,P1*%
D10*
X175283904Y-92400380D02*
X175283904Y-91400380D01*
X175664857Y-91400380D01*
X175760095Y-91448000D01*
X175807714Y-91495619D01*
X175855333Y-91590857D01*
X175855333Y-91733714D01*
X175807714Y-91828952D01*
X175760095Y-91876571D01*
X175664857Y-91924190D01*
X175283904Y-91924190D01*
X176807714Y-92400380D02*
X176236285Y-92400380D01*
X176522000Y-92400380D02*
X176522000Y-91400380D01*
X176426761Y-91543238D01*
X176331523Y-91638476D01*
X176236285Y-91686095D01*
X178284690Y-92432142D02*
X178237071Y-92479761D01*
X178094214Y-92527380D01*
X177998976Y-92527380D01*
X177856119Y-92479761D01*
X177760880Y-92384523D01*
X177713261Y-92289285D01*
X177665642Y-92098809D01*
X177665642Y-91955952D01*
X177713261Y-91765476D01*
X177760880Y-91670238D01*
X177856119Y-91575000D01*
X177998976Y-91527380D01*
X178094214Y-91527380D01*
X178237071Y-91575000D01*
X178284690Y-91622619D01*
X178903738Y-91527380D02*
X179094214Y-91527380D01*
X179189452Y-91575000D01*
X179284690Y-91670238D01*
X179332309Y-91860714D01*
X179332309Y-92194047D01*
X179284690Y-92384523D01*
X179189452Y-92479761D01*
X179094214Y-92527380D01*
X178903738Y-92527380D01*
X178808500Y-92479761D01*
X178713261Y-92384523D01*
X178665642Y-92194047D01*
X178665642Y-91860714D01*
X178713261Y-91670238D01*
X178808500Y-91575000D01*
X178903738Y-91527380D01*
X179760880Y-92527380D02*
X179760880Y-91527380D01*
X180332309Y-92527380D01*
X180332309Y-91527380D01*
X180808500Y-92527380D02*
X180808500Y-91527380D01*
X181379928Y-92527380D01*
X181379928Y-91527380D01*
X181618023Y-92622619D02*
X182379928Y-92622619D01*
X182808500Y-91527380D02*
X182903738Y-91527380D01*
X182998976Y-91575000D01*
X183046595Y-91622619D01*
X183094214Y-91717857D01*
X183141833Y-91908333D01*
X183141833Y-92146428D01*
X183094214Y-92336904D01*
X183046595Y-92432142D01*
X182998976Y-92479761D01*
X182903738Y-92527380D01*
X182808500Y-92527380D01*
X182713261Y-92479761D01*
X182665642Y-92432142D01*
X182618023Y-92336904D01*
X182570404Y-92146428D01*
X182570404Y-91908333D01*
X182618023Y-91717857D01*
X182665642Y-91622619D01*
X182713261Y-91575000D01*
X182808500Y-91527380D01*
X183522785Y-91622619D02*
X183570404Y-91575000D01*
X183665642Y-91527380D01*
X183903738Y-91527380D01*
X183998976Y-91575000D01*
X184046595Y-91622619D01*
X184094214Y-91717857D01*
X184094214Y-91813095D01*
X184046595Y-91955952D01*
X183475166Y-92527380D01*
X184094214Y-92527380D01*
X184427547Y-91527380D02*
X185094214Y-92527380D01*
X185094214Y-91527380D02*
X184427547Y-92527380D01*
X185665642Y-91527380D02*
X185760880Y-91527380D01*
X185856119Y-91575000D01*
X185903738Y-91622619D01*
X185951357Y-91717857D01*
X185998976Y-91908333D01*
X185998976Y-92146428D01*
X185951357Y-92336904D01*
X185903738Y-92432142D01*
X185856119Y-92479761D01*
X185760880Y-92527380D01*
X185665642Y-92527380D01*
X185570404Y-92479761D01*
X185522785Y-92432142D01*
X185475166Y-92336904D01*
X185427547Y-92146428D01*
X185427547Y-91908333D01*
X185475166Y-91717857D01*
X185522785Y-91622619D01*
X185570404Y-91575000D01*
X185665642Y-91527380D01*
X186903738Y-91527380D02*
X186427547Y-91527380D01*
X186379928Y-92003571D01*
X186427547Y-91955952D01*
X186522785Y-91908333D01*
X186760880Y-91908333D01*
X186856119Y-91955952D01*
X186903738Y-92003571D01*
X186951357Y-92098809D01*
X186951357Y-92336904D01*
X186903738Y-92432142D01*
X186856119Y-92479761D01*
X186760880Y-92527380D01*
X186522785Y-92527380D01*
X186427547Y-92479761D01*
X186379928Y-92432142D01*
%TO.C,J2*%
X121753380Y-71935933D02*
X122467666Y-71935933D01*
X122610523Y-71983552D01*
X122705761Y-72078790D01*
X122753380Y-72221647D01*
X122753380Y-72316885D01*
X121848619Y-71507361D02*
X121801000Y-71459742D01*
X121753380Y-71364504D01*
X121753380Y-71126409D01*
X121801000Y-71031171D01*
X121848619Y-70983552D01*
X121943857Y-70935933D01*
X122039095Y-70935933D01*
X122181952Y-70983552D01*
X122753380Y-71554980D01*
X122753380Y-70935933D01*
%TO.C,CON1*%
X196227102Y-91384285D02*
X196274721Y-91431904D01*
X196322340Y-91574761D01*
X196322340Y-91670000D01*
X196274721Y-91812857D01*
X196179483Y-91908095D01*
X196084245Y-91955714D01*
X195893769Y-92003333D01*
X195750912Y-92003333D01*
X195560436Y-91955714D01*
X195465198Y-91908095D01*
X195369960Y-91812857D01*
X195322340Y-91670000D01*
X195322340Y-91574761D01*
X195369960Y-91431904D01*
X195417579Y-91384285D01*
X195322340Y-90765238D02*
X195322340Y-90574761D01*
X195369960Y-90479523D01*
X195465198Y-90384285D01*
X195655674Y-90336666D01*
X195989007Y-90336666D01*
X196179483Y-90384285D01*
X196274721Y-90479523D01*
X196322340Y-90574761D01*
X196322340Y-90765238D01*
X196274721Y-90860476D01*
X196179483Y-90955714D01*
X195989007Y-91003333D01*
X195655674Y-91003333D01*
X195465198Y-90955714D01*
X195369960Y-90860476D01*
X195322340Y-90765238D01*
X196322340Y-89908095D02*
X195322340Y-89908095D01*
X196322340Y-89336666D01*
X195322340Y-89336666D01*
X196322340Y-88336666D02*
X196322340Y-88908095D01*
X196322340Y-88622380D02*
X195322340Y-88622380D01*
X195465198Y-88717619D01*
X195560436Y-88812857D01*
X195608055Y-88908095D01*
X201564238Y-96098051D02*
X201707095Y-96145670D01*
X201754714Y-96193289D01*
X201802333Y-96288527D01*
X201802333Y-96431384D01*
X201754714Y-96526622D01*
X201707095Y-96574241D01*
X201611857Y-96621860D01*
X201230904Y-96621860D01*
X201230904Y-95621860D01*
X201564238Y-95621860D01*
X201659476Y-95669480D01*
X201707095Y-95717099D01*
X201754714Y-95812337D01*
X201754714Y-95907575D01*
X201707095Y-96002813D01*
X201659476Y-96050432D01*
X201564238Y-96098051D01*
X201230904Y-96098051D01*
X202183285Y-96336146D02*
X202659476Y-96336146D01*
X202088047Y-96621860D02*
X202421380Y-95621860D01*
X202754714Y-96621860D01*
X203659476Y-96621860D02*
X203326142Y-96145670D01*
X203088047Y-96621860D02*
X203088047Y-95621860D01*
X203469000Y-95621860D01*
X203564238Y-95669480D01*
X203611857Y-95717099D01*
X203659476Y-95812337D01*
X203659476Y-95955194D01*
X203611857Y-96050432D01*
X203564238Y-96098051D01*
X203469000Y-96145670D01*
X203088047Y-96145670D01*
X204659476Y-96621860D02*
X204326142Y-96145670D01*
X204088047Y-96621860D02*
X204088047Y-95621860D01*
X204469000Y-95621860D01*
X204564238Y-95669480D01*
X204611857Y-95717099D01*
X204659476Y-95812337D01*
X204659476Y-95955194D01*
X204611857Y-96050432D01*
X204564238Y-96098051D01*
X204469000Y-96145670D01*
X204088047Y-96145670D01*
X205088047Y-96098051D02*
X205421380Y-96098051D01*
X205564238Y-96621860D02*
X205088047Y-96621860D01*
X205088047Y-95621860D01*
X205564238Y-95621860D01*
X206469000Y-96621860D02*
X205992809Y-96621860D01*
X205992809Y-95621860D01*
X206564238Y-96717099D02*
X207326142Y-96717099D01*
X207849952Y-95621860D02*
X207849952Y-96336146D01*
X207802333Y-96479003D01*
X207707095Y-96574241D01*
X207564238Y-96621860D01*
X207469000Y-96621860D01*
X208278523Y-96336146D02*
X208754714Y-96336146D01*
X208183285Y-96621860D02*
X208516619Y-95621860D01*
X208849952Y-96621860D01*
X209754714Y-96526622D02*
X209707095Y-96574241D01*
X209564238Y-96621860D01*
X209469000Y-96621860D01*
X209326142Y-96574241D01*
X209230904Y-96479003D01*
X209183285Y-96383765D01*
X209135666Y-96193289D01*
X209135666Y-96050432D01*
X209183285Y-95859956D01*
X209230904Y-95764718D01*
X209326142Y-95669480D01*
X209469000Y-95621860D01*
X209564238Y-95621860D01*
X209707095Y-95669480D01*
X209754714Y-95717099D01*
X210183285Y-96621860D02*
X210183285Y-95621860D01*
X210754714Y-96621860D02*
X210326142Y-96050432D01*
X210754714Y-95621860D02*
X210183285Y-96193289D01*
%TO.C,C1*%
X123404333Y-93257642D02*
X123356714Y-93305261D01*
X123213857Y-93352880D01*
X123118619Y-93352880D01*
X122975761Y-93305261D01*
X122880523Y-93210023D01*
X122832904Y-93114785D01*
X122785285Y-92924309D01*
X122785285Y-92781452D01*
X122832904Y-92590976D01*
X122880523Y-92495738D01*
X122975761Y-92400500D01*
X123118619Y-92352880D01*
X123213857Y-92352880D01*
X123356714Y-92400500D01*
X123404333Y-92448119D01*
X124356714Y-93352880D02*
X123785285Y-93352880D01*
X124071000Y-93352880D02*
X124071000Y-92352880D01*
X123975761Y-92495738D01*
X123880523Y-92590976D01*
X123785285Y-92638595D01*
X127992380Y-102420680D02*
X127420952Y-102420680D01*
X127706666Y-102420680D02*
X127706666Y-101420680D01*
X127611428Y-101563538D01*
X127516190Y-101658776D01*
X127420952Y-101706395D01*
X128611428Y-101420680D02*
X128706666Y-101420680D01*
X128801904Y-101468300D01*
X128849523Y-101515919D01*
X128897142Y-101611157D01*
X128944761Y-101801633D01*
X128944761Y-102039728D01*
X128897142Y-102230204D01*
X128849523Y-102325442D01*
X128801904Y-102373061D01*
X128706666Y-102420680D01*
X128611428Y-102420680D01*
X128516190Y-102373061D01*
X128468571Y-102325442D01*
X128420952Y-102230204D01*
X128373333Y-102039728D01*
X128373333Y-101801633D01*
X128420952Y-101611157D01*
X128468571Y-101515919D01*
X128516190Y-101468300D01*
X128611428Y-101420680D01*
X129563809Y-101420680D02*
X129659047Y-101420680D01*
X129754285Y-101468300D01*
X129801904Y-101515919D01*
X129849523Y-101611157D01*
X129897142Y-101801633D01*
X129897142Y-102039728D01*
X129849523Y-102230204D01*
X129801904Y-102325442D01*
X129754285Y-102373061D01*
X129659047Y-102420680D01*
X129563809Y-102420680D01*
X129468571Y-102373061D01*
X129420952Y-102325442D01*
X129373333Y-102230204D01*
X129325714Y-102039728D01*
X129325714Y-101801633D01*
X129373333Y-101611157D01*
X129420952Y-101515919D01*
X129468571Y-101468300D01*
X129563809Y-101420680D01*
X130754285Y-101754014D02*
X130754285Y-102420680D01*
X130325714Y-101754014D02*
X130325714Y-102277823D01*
X130373333Y-102373061D01*
X130468571Y-102420680D01*
X130611428Y-102420680D01*
X130706666Y-102373061D01*
X130754285Y-102325442D01*
X131563809Y-101896871D02*
X131230476Y-101896871D01*
X131230476Y-102420680D02*
X131230476Y-101420680D01*
X131706666Y-101420680D01*
X133934247Y-92679828D02*
X134696152Y-92679828D01*
X134315200Y-93060780D02*
X134315200Y-92298876D01*
%TO.C,C2*%
X159535833Y-110719642D02*
X159488214Y-110767261D01*
X159345357Y-110814880D01*
X159250119Y-110814880D01*
X159107261Y-110767261D01*
X159012023Y-110672023D01*
X158964404Y-110576785D01*
X158916785Y-110386309D01*
X158916785Y-110243452D01*
X158964404Y-110052976D01*
X159012023Y-109957738D01*
X159107261Y-109862500D01*
X159250119Y-109814880D01*
X159345357Y-109814880D01*
X159488214Y-109862500D01*
X159535833Y-109910119D01*
X159916785Y-109910119D02*
X159964404Y-109862500D01*
X160059642Y-109814880D01*
X160297738Y-109814880D01*
X160392976Y-109862500D01*
X160440595Y-109910119D01*
X160488214Y-110005357D01*
X160488214Y-110100595D01*
X160440595Y-110243452D01*
X159869166Y-110814880D01*
X160488214Y-110814880D01*
X164584238Y-109957714D02*
X164584238Y-110624380D01*
X164346142Y-109576761D02*
X164108047Y-110291047D01*
X164727095Y-110291047D01*
X165108047Y-110529142D02*
X165155666Y-110576761D01*
X165108047Y-110624380D01*
X165060428Y-110576761D01*
X165108047Y-110529142D01*
X165108047Y-110624380D01*
X165489000Y-109624380D02*
X166155666Y-109624380D01*
X165727095Y-110624380D01*
X166965190Y-109957714D02*
X166965190Y-110624380D01*
X166536619Y-109957714D02*
X166536619Y-110481523D01*
X166584238Y-110576761D01*
X166679476Y-110624380D01*
X166822333Y-110624380D01*
X166917571Y-110576761D01*
X166965190Y-110529142D01*
X167774714Y-110100571D02*
X167441380Y-110100571D01*
X167441380Y-110624380D02*
X167441380Y-109624380D01*
X167917571Y-109624380D01*
%TO.C,C3*%
X159281833Y-109005142D02*
X159234214Y-109052761D01*
X159091357Y-109100380D01*
X158996119Y-109100380D01*
X158853261Y-109052761D01*
X158758023Y-108957523D01*
X158710404Y-108862285D01*
X158662785Y-108671809D01*
X158662785Y-108528952D01*
X158710404Y-108338476D01*
X158758023Y-108243238D01*
X158853261Y-108148000D01*
X158996119Y-108100380D01*
X159091357Y-108100380D01*
X159234214Y-108148000D01*
X159281833Y-108195619D01*
X159615166Y-108100380D02*
X160234214Y-108100380D01*
X159900880Y-108481333D01*
X160043738Y-108481333D01*
X160138976Y-108528952D01*
X160186595Y-108576571D01*
X160234214Y-108671809D01*
X160234214Y-108909904D01*
X160186595Y-109005142D01*
X160138976Y-109052761D01*
X160043738Y-109100380D01*
X159758023Y-109100380D01*
X159662785Y-109052761D01*
X159615166Y-109005142D01*
X164695380Y-108846380D02*
X164123952Y-108846380D01*
X164409666Y-108846380D02*
X164409666Y-107846380D01*
X164314428Y-107989238D01*
X164219190Y-108084476D01*
X164123952Y-108132095D01*
X165314428Y-107846380D02*
X165409666Y-107846380D01*
X165504904Y-107894000D01*
X165552523Y-107941619D01*
X165600142Y-108036857D01*
X165647761Y-108227333D01*
X165647761Y-108465428D01*
X165600142Y-108655904D01*
X165552523Y-108751142D01*
X165504904Y-108798761D01*
X165409666Y-108846380D01*
X165314428Y-108846380D01*
X165219190Y-108798761D01*
X165171571Y-108751142D01*
X165123952Y-108655904D01*
X165076333Y-108465428D01*
X165076333Y-108227333D01*
X165123952Y-108036857D01*
X165171571Y-107941619D01*
X165219190Y-107894000D01*
X165314428Y-107846380D01*
X166266809Y-107846380D02*
X166362047Y-107846380D01*
X166457285Y-107894000D01*
X166504904Y-107941619D01*
X166552523Y-108036857D01*
X166600142Y-108227333D01*
X166600142Y-108465428D01*
X166552523Y-108655904D01*
X166504904Y-108751142D01*
X166457285Y-108798761D01*
X166362047Y-108846380D01*
X166266809Y-108846380D01*
X166171571Y-108798761D01*
X166123952Y-108751142D01*
X166076333Y-108655904D01*
X166028714Y-108465428D01*
X166028714Y-108227333D01*
X166076333Y-108036857D01*
X166123952Y-107941619D01*
X166171571Y-107894000D01*
X166266809Y-107846380D01*
X167028714Y-108179714D02*
X167028714Y-108846380D01*
X167028714Y-108274952D02*
X167076333Y-108227333D01*
X167171571Y-108179714D01*
X167314428Y-108179714D01*
X167409666Y-108227333D01*
X167457285Y-108322571D01*
X167457285Y-108846380D01*
X168266809Y-108322571D02*
X167933476Y-108322571D01*
X167933476Y-108846380D02*
X167933476Y-107846380D01*
X168409666Y-107846380D01*
%TO.C,C4*%
X172056142Y-95606666D02*
X172103761Y-95654285D01*
X172151380Y-95797142D01*
X172151380Y-95892380D01*
X172103761Y-96035238D01*
X172008523Y-96130476D01*
X171913285Y-96178095D01*
X171722809Y-96225714D01*
X171579952Y-96225714D01*
X171389476Y-96178095D01*
X171294238Y-96130476D01*
X171199000Y-96035238D01*
X171151380Y-95892380D01*
X171151380Y-95797142D01*
X171199000Y-95654285D01*
X171246619Y-95606666D01*
X171484714Y-94749523D02*
X172151380Y-94749523D01*
X171103761Y-94987619D02*
X171818047Y-95225714D01*
X171818047Y-94606666D01*
X170378380Y-101369619D02*
X170378380Y-101941047D01*
X170378380Y-101655333D02*
X169378380Y-101655333D01*
X169521238Y-101750571D01*
X169616476Y-101845809D01*
X169664095Y-101941047D01*
X169378380Y-100750571D02*
X169378380Y-100655333D01*
X169426000Y-100560095D01*
X169473619Y-100512476D01*
X169568857Y-100464857D01*
X169759333Y-100417238D01*
X169997428Y-100417238D01*
X170187904Y-100464857D01*
X170283142Y-100512476D01*
X170330761Y-100560095D01*
X170378380Y-100655333D01*
X170378380Y-100750571D01*
X170330761Y-100845809D01*
X170283142Y-100893428D01*
X170187904Y-100941047D01*
X169997428Y-100988666D01*
X169759333Y-100988666D01*
X169568857Y-100941047D01*
X169473619Y-100893428D01*
X169426000Y-100845809D01*
X169378380Y-100750571D01*
X169378380Y-99798190D02*
X169378380Y-99702952D01*
X169426000Y-99607714D01*
X169473619Y-99560095D01*
X169568857Y-99512476D01*
X169759333Y-99464857D01*
X169997428Y-99464857D01*
X170187904Y-99512476D01*
X170283142Y-99560095D01*
X170330761Y-99607714D01*
X170378380Y-99702952D01*
X170378380Y-99798190D01*
X170330761Y-99893428D01*
X170283142Y-99941047D01*
X170187904Y-99988666D01*
X169997428Y-100036285D01*
X169759333Y-100036285D01*
X169568857Y-99988666D01*
X169473619Y-99941047D01*
X169426000Y-99893428D01*
X169378380Y-99798190D01*
X169711714Y-99036285D02*
X170378380Y-99036285D01*
X169806952Y-99036285D02*
X169759333Y-98988666D01*
X169711714Y-98893428D01*
X169711714Y-98750571D01*
X169759333Y-98655333D01*
X169854571Y-98607714D01*
X170378380Y-98607714D01*
X169854571Y-97798190D02*
X169854571Y-98131523D01*
X170378380Y-98131523D02*
X169378380Y-98131523D01*
X169378380Y-97655333D01*
%TO.C,C5*%
X149651142Y-103226666D02*
X149698761Y-103274285D01*
X149746380Y-103417142D01*
X149746380Y-103512380D01*
X149698761Y-103655238D01*
X149603523Y-103750476D01*
X149508285Y-103798095D01*
X149317809Y-103845714D01*
X149174952Y-103845714D01*
X148984476Y-103798095D01*
X148889238Y-103750476D01*
X148794000Y-103655238D01*
X148746380Y-103512380D01*
X148746380Y-103417142D01*
X148794000Y-103274285D01*
X148841619Y-103226666D01*
X148746380Y-102321904D02*
X148746380Y-102798095D01*
X149222571Y-102845714D01*
X149174952Y-102798095D01*
X149127333Y-102702857D01*
X149127333Y-102464761D01*
X149174952Y-102369523D01*
X149222571Y-102321904D01*
X149317809Y-102274285D01*
X149555904Y-102274285D01*
X149651142Y-102321904D01*
X149698761Y-102369523D01*
X149746380Y-102464761D01*
X149746380Y-102702857D01*
X149698761Y-102798095D01*
X149651142Y-102845714D01*
X151646380Y-100797619D02*
X151646380Y-101369047D01*
X151646380Y-101083333D02*
X150646380Y-101083333D01*
X150789238Y-101178571D01*
X150884476Y-101273809D01*
X150932095Y-101369047D01*
X150646380Y-100178571D02*
X150646380Y-100083333D01*
X150694000Y-99988095D01*
X150741619Y-99940476D01*
X150836857Y-99892857D01*
X151027333Y-99845238D01*
X151265428Y-99845238D01*
X151455904Y-99892857D01*
X151551142Y-99940476D01*
X151598761Y-99988095D01*
X151646380Y-100083333D01*
X151646380Y-100178571D01*
X151598761Y-100273809D01*
X151551142Y-100321428D01*
X151455904Y-100369047D01*
X151265428Y-100416666D01*
X151027333Y-100416666D01*
X150836857Y-100369047D01*
X150741619Y-100321428D01*
X150694000Y-100273809D01*
X150646380Y-100178571D01*
X150646380Y-99226190D02*
X150646380Y-99130952D01*
X150694000Y-99035714D01*
X150741619Y-98988095D01*
X150836857Y-98940476D01*
X151027333Y-98892857D01*
X151265428Y-98892857D01*
X151455904Y-98940476D01*
X151551142Y-98988095D01*
X151598761Y-99035714D01*
X151646380Y-99130952D01*
X151646380Y-99226190D01*
X151598761Y-99321428D01*
X151551142Y-99369047D01*
X151455904Y-99416666D01*
X151265428Y-99464285D01*
X151027333Y-99464285D01*
X150836857Y-99416666D01*
X150741619Y-99369047D01*
X150694000Y-99321428D01*
X150646380Y-99226190D01*
X150979714Y-98464285D02*
X151646380Y-98464285D01*
X151074952Y-98464285D02*
X151027333Y-98416666D01*
X150979714Y-98321428D01*
X150979714Y-98178571D01*
X151027333Y-98083333D01*
X151122571Y-98035714D01*
X151646380Y-98035714D01*
X151122571Y-97226190D02*
X151122571Y-97559523D01*
X151646380Y-97559523D02*
X150646380Y-97559523D01*
X150646380Y-97083333D01*
%TO.C,J1*%
X121600980Y-91392333D02*
X122315266Y-91392333D01*
X122458123Y-91439952D01*
X122553361Y-91535190D01*
X122600980Y-91678047D01*
X122600980Y-91773285D01*
X122600980Y-90392333D02*
X122600980Y-90963761D01*
X122600980Y-90678047D02*
X121600980Y-90678047D01*
X121743838Y-90773285D01*
X121839076Y-90868523D01*
X121886695Y-90963761D01*
%TO.C,P6*%
X194333904Y-107490380D02*
X194333904Y-106490380D01*
X194714857Y-106490380D01*
X194810095Y-106538000D01*
X194857714Y-106585619D01*
X194905333Y-106680857D01*
X194905333Y-106823714D01*
X194857714Y-106918952D01*
X194810095Y-106966571D01*
X194714857Y-107014190D01*
X194333904Y-107014190D01*
X195762476Y-106490380D02*
X195572000Y-106490380D01*
X195476761Y-106538000D01*
X195429142Y-106585619D01*
X195333904Y-106728476D01*
X195286285Y-106918952D01*
X195286285Y-107299904D01*
X195333904Y-107395142D01*
X195381523Y-107442761D01*
X195476761Y-107490380D01*
X195667238Y-107490380D01*
X195762476Y-107442761D01*
X195810095Y-107395142D01*
X195857714Y-107299904D01*
X195857714Y-107061809D01*
X195810095Y-106966571D01*
X195762476Y-106918952D01*
X195667238Y-106871333D01*
X195476761Y-106871333D01*
X195381523Y-106918952D01*
X195333904Y-106966571D01*
X195286285Y-107061809D01*
%TO.C,R1*%
X186269333Y-107894380D02*
X185936000Y-107418190D01*
X185697904Y-107894380D02*
X185697904Y-106894380D01*
X186078857Y-106894380D01*
X186174095Y-106942000D01*
X186221714Y-106989619D01*
X186269333Y-107084857D01*
X186269333Y-107227714D01*
X186221714Y-107322952D01*
X186174095Y-107370571D01*
X186078857Y-107418190D01*
X185697904Y-107418190D01*
X187221714Y-107894380D02*
X186650285Y-107894380D01*
X186936000Y-107894380D02*
X186936000Y-106894380D01*
X186840761Y-107037238D01*
X186745523Y-107132476D01*
X186650285Y-107180095D01*
%TO.C,U1*%
X137152380Y-102061904D02*
X137961904Y-102061904D01*
X138057142Y-102014285D01*
X138104761Y-101966666D01*
X138152380Y-101871428D01*
X138152380Y-101680952D01*
X138104761Y-101585714D01*
X138057142Y-101538095D01*
X137961904Y-101490476D01*
X137152380Y-101490476D01*
X138152380Y-100490476D02*
X138152380Y-101061904D01*
X138152380Y-100776190D02*
X137152380Y-100776190D01*
X137295238Y-100871428D01*
X137390476Y-100966666D01*
X137438095Y-101061904D01*
%TO.C,P2*%
X205379380Y-81510095D02*
X204379380Y-81510095D01*
X204379380Y-81129142D01*
X204427000Y-81033904D01*
X204474619Y-80986285D01*
X204569857Y-80938666D01*
X204712714Y-80938666D01*
X204807952Y-80986285D01*
X204855571Y-81033904D01*
X204903190Y-81129142D01*
X204903190Y-81510095D01*
X204474619Y-80557714D02*
X204427000Y-80510095D01*
X204379380Y-80414857D01*
X204379380Y-80176761D01*
X204427000Y-80081523D01*
X204474619Y-80033904D01*
X204569857Y-79986285D01*
X204665095Y-79986285D01*
X204807952Y-80033904D01*
X205379380Y-80605333D01*
X205379380Y-79986285D01*
X200204142Y-80985809D02*
X200251761Y-81033428D01*
X200299380Y-81176285D01*
X200299380Y-81271523D01*
X200251761Y-81414380D01*
X200156523Y-81509619D01*
X200061285Y-81557238D01*
X199870809Y-81604857D01*
X199727952Y-81604857D01*
X199537476Y-81557238D01*
X199442238Y-81509619D01*
X199347000Y-81414380D01*
X199299380Y-81271523D01*
X199299380Y-81176285D01*
X199347000Y-81033428D01*
X199394619Y-80985809D01*
X199299380Y-80366761D02*
X199299380Y-80176285D01*
X199347000Y-80081047D01*
X199442238Y-79985809D01*
X199632714Y-79938190D01*
X199966047Y-79938190D01*
X200156523Y-79985809D01*
X200251761Y-80081047D01*
X200299380Y-80176285D01*
X200299380Y-80366761D01*
X200251761Y-80462000D01*
X200156523Y-80557238D01*
X199966047Y-80604857D01*
X199632714Y-80604857D01*
X199442238Y-80557238D01*
X199347000Y-80462000D01*
X199299380Y-80366761D01*
X200299380Y-79509619D02*
X199299380Y-79509619D01*
X200299380Y-78938190D01*
X199299380Y-78938190D01*
X200299380Y-78462000D02*
X199299380Y-78462000D01*
X200299380Y-77890571D01*
X199299380Y-77890571D01*
X200394619Y-77652476D02*
X200394619Y-76890571D01*
X199299380Y-76462000D02*
X199299380Y-76366761D01*
X199347000Y-76271523D01*
X199394619Y-76223904D01*
X199489857Y-76176285D01*
X199680333Y-76128666D01*
X199918428Y-76128666D01*
X200108904Y-76176285D01*
X200204142Y-76223904D01*
X200251761Y-76271523D01*
X200299380Y-76366761D01*
X200299380Y-76462000D01*
X200251761Y-76557238D01*
X200204142Y-76604857D01*
X200108904Y-76652476D01*
X199918428Y-76700095D01*
X199680333Y-76700095D01*
X199489857Y-76652476D01*
X199394619Y-76604857D01*
X199347000Y-76557238D01*
X199299380Y-76462000D01*
X200299380Y-75176285D02*
X200299380Y-75747714D01*
X200299380Y-75462000D02*
X199299380Y-75462000D01*
X199442238Y-75557238D01*
X199537476Y-75652476D01*
X199585095Y-75747714D01*
X199299380Y-74842952D02*
X200299380Y-74176285D01*
X199299380Y-74176285D02*
X200299380Y-74842952D01*
X199299380Y-73604857D02*
X199299380Y-73509619D01*
X199347000Y-73414380D01*
X199394619Y-73366761D01*
X199489857Y-73319142D01*
X199680333Y-73271523D01*
X199918428Y-73271523D01*
X200108904Y-73319142D01*
X200204142Y-73366761D01*
X200251761Y-73414380D01*
X200299380Y-73509619D01*
X200299380Y-73604857D01*
X200251761Y-73700095D01*
X200204142Y-73747714D01*
X200108904Y-73795333D01*
X199918428Y-73842952D01*
X199680333Y-73842952D01*
X199489857Y-73795333D01*
X199394619Y-73747714D01*
X199347000Y-73700095D01*
X199299380Y-73604857D01*
X199394619Y-72890571D02*
X199347000Y-72842952D01*
X199299380Y-72747714D01*
X199299380Y-72509619D01*
X199347000Y-72414380D01*
X199394619Y-72366761D01*
X199489857Y-72319142D01*
X199585095Y-72319142D01*
X199727952Y-72366761D01*
X200299380Y-72938190D01*
X200299380Y-72319142D01*
%TO.C,U3*%
X192543380Y-78993904D02*
X193352904Y-78993904D01*
X193448142Y-78946285D01*
X193495761Y-78898666D01*
X193543380Y-78803428D01*
X193543380Y-78612952D01*
X193495761Y-78517714D01*
X193448142Y-78470095D01*
X193352904Y-78422476D01*
X192543380Y-78422476D01*
X192543380Y-78041523D02*
X192543380Y-77422476D01*
X192924333Y-77755809D01*
X192924333Y-77612952D01*
X192971952Y-77517714D01*
X193019571Y-77470095D01*
X193114809Y-77422476D01*
X193352904Y-77422476D01*
X193448142Y-77470095D01*
X193495761Y-77517714D01*
X193543380Y-77612952D01*
X193543380Y-77898666D01*
X193495761Y-77993904D01*
X193448142Y-78041523D01*
X195691000Y-84751047D02*
X195643380Y-84846285D01*
X195643380Y-84989142D01*
X195691000Y-85132000D01*
X195786238Y-85227238D01*
X195881476Y-85274857D01*
X196071952Y-85322476D01*
X196214809Y-85322476D01*
X196405285Y-85274857D01*
X196500523Y-85227238D01*
X196595761Y-85132000D01*
X196643380Y-84989142D01*
X196643380Y-84893904D01*
X196595761Y-84751047D01*
X196548142Y-84703428D01*
X196214809Y-84703428D01*
X196214809Y-84893904D01*
X195643380Y-84370095D02*
X195643380Y-83751047D01*
X196024333Y-84084380D01*
X196024333Y-83941523D01*
X196071952Y-83846285D01*
X196119571Y-83798666D01*
X196214809Y-83751047D01*
X196452904Y-83751047D01*
X196548142Y-83798666D01*
X196595761Y-83846285D01*
X196643380Y-83941523D01*
X196643380Y-84227238D01*
X196595761Y-84322476D01*
X196548142Y-84370095D01*
X196643380Y-83322476D02*
X195643380Y-83322476D01*
X196357666Y-82989142D01*
X195643380Y-82655809D01*
X196643380Y-82655809D01*
X196119571Y-81846285D02*
X196167190Y-81703428D01*
X196214809Y-81655809D01*
X196310047Y-81608190D01*
X196452904Y-81608190D01*
X196548142Y-81655809D01*
X196595761Y-81703428D01*
X196643380Y-81798666D01*
X196643380Y-82179619D01*
X195643380Y-82179619D01*
X195643380Y-81846285D01*
X195691000Y-81751047D01*
X195738619Y-81703428D01*
X195833857Y-81655809D01*
X195929095Y-81655809D01*
X196024333Y-81703428D01*
X196071952Y-81751047D01*
X196119571Y-81846285D01*
X196119571Y-82179619D01*
X196738619Y-81417714D02*
X196738619Y-80655809D01*
X196595761Y-80465333D02*
X196643380Y-80322476D01*
X196643380Y-80084380D01*
X196595761Y-79989142D01*
X196548142Y-79941523D01*
X196452904Y-79893904D01*
X196357666Y-79893904D01*
X196262428Y-79941523D01*
X196214809Y-79989142D01*
X196167190Y-80084380D01*
X196119571Y-80274857D01*
X196071952Y-80370095D01*
X196024333Y-80417714D01*
X195929095Y-80465333D01*
X195833857Y-80465333D01*
X195738619Y-80417714D01*
X195691000Y-80370095D01*
X195643380Y-80274857D01*
X195643380Y-80036761D01*
X195691000Y-79893904D01*
X196595761Y-79512952D02*
X196643380Y-79370095D01*
X196643380Y-79132000D01*
X196595761Y-79036761D01*
X196548142Y-78989142D01*
X196452904Y-78941523D01*
X196357666Y-78941523D01*
X196262428Y-78989142D01*
X196214809Y-79036761D01*
X196167190Y-79132000D01*
X196119571Y-79322476D01*
X196071952Y-79417714D01*
X196024333Y-79465333D01*
X195929095Y-79512952D01*
X195833857Y-79512952D01*
X195738619Y-79465333D01*
X195691000Y-79417714D01*
X195643380Y-79322476D01*
X195643380Y-79084380D01*
X195691000Y-78941523D01*
X196643380Y-77941523D02*
X196167190Y-78274857D01*
X196643380Y-78512952D02*
X195643380Y-78512952D01*
X195643380Y-78132000D01*
X195691000Y-78036761D01*
X195738619Y-77989142D01*
X195833857Y-77941523D01*
X195976714Y-77941523D01*
X196071952Y-77989142D01*
X196119571Y-78036761D01*
X196167190Y-78132000D01*
X196167190Y-78512952D01*
%TO.C,U4*%
X151903380Y-78993904D02*
X152712904Y-78993904D01*
X152808142Y-78946285D01*
X152855761Y-78898666D01*
X152903380Y-78803428D01*
X152903380Y-78612952D01*
X152855761Y-78517714D01*
X152808142Y-78470095D01*
X152712904Y-78422476D01*
X151903380Y-78422476D01*
X152236714Y-77517714D02*
X152903380Y-77517714D01*
X151855761Y-77755809D02*
X152570047Y-77993904D01*
X152570047Y-77374857D01*
X155051000Y-84751047D02*
X155003380Y-84846285D01*
X155003380Y-84989142D01*
X155051000Y-85132000D01*
X155146238Y-85227238D01*
X155241476Y-85274857D01*
X155431952Y-85322476D01*
X155574809Y-85322476D01*
X155765285Y-85274857D01*
X155860523Y-85227238D01*
X155955761Y-85132000D01*
X156003380Y-84989142D01*
X156003380Y-84893904D01*
X155955761Y-84751047D01*
X155908142Y-84703428D01*
X155574809Y-84703428D01*
X155574809Y-84893904D01*
X155003380Y-84370095D02*
X155003380Y-83751047D01*
X155384333Y-84084380D01*
X155384333Y-83941523D01*
X155431952Y-83846285D01*
X155479571Y-83798666D01*
X155574809Y-83751047D01*
X155812904Y-83751047D01*
X155908142Y-83798666D01*
X155955761Y-83846285D01*
X156003380Y-83941523D01*
X156003380Y-84227238D01*
X155955761Y-84322476D01*
X155908142Y-84370095D01*
X156003380Y-83322476D02*
X155003380Y-83322476D01*
X155717666Y-82989142D01*
X155003380Y-82655809D01*
X156003380Y-82655809D01*
X155479571Y-81846285D02*
X155527190Y-81703428D01*
X155574809Y-81655809D01*
X155670047Y-81608190D01*
X155812904Y-81608190D01*
X155908142Y-81655809D01*
X155955761Y-81703428D01*
X156003380Y-81798666D01*
X156003380Y-82179619D01*
X155003380Y-82179619D01*
X155003380Y-81846285D01*
X155051000Y-81751047D01*
X155098619Y-81703428D01*
X155193857Y-81655809D01*
X155289095Y-81655809D01*
X155384333Y-81703428D01*
X155431952Y-81751047D01*
X155479571Y-81846285D01*
X155479571Y-82179619D01*
X156098619Y-81417714D02*
X156098619Y-80655809D01*
X155955761Y-80465333D02*
X156003380Y-80322476D01*
X156003380Y-80084380D01*
X155955761Y-79989142D01*
X155908142Y-79941523D01*
X155812904Y-79893904D01*
X155717666Y-79893904D01*
X155622428Y-79941523D01*
X155574809Y-79989142D01*
X155527190Y-80084380D01*
X155479571Y-80274857D01*
X155431952Y-80370095D01*
X155384333Y-80417714D01*
X155289095Y-80465333D01*
X155193857Y-80465333D01*
X155098619Y-80417714D01*
X155051000Y-80370095D01*
X155003380Y-80274857D01*
X155003380Y-80036761D01*
X155051000Y-79893904D01*
X155955761Y-79512952D02*
X156003380Y-79370095D01*
X156003380Y-79132000D01*
X155955761Y-79036761D01*
X155908142Y-78989142D01*
X155812904Y-78941523D01*
X155717666Y-78941523D01*
X155622428Y-78989142D01*
X155574809Y-79036761D01*
X155527190Y-79132000D01*
X155479571Y-79322476D01*
X155431952Y-79417714D01*
X155384333Y-79465333D01*
X155289095Y-79512952D01*
X155193857Y-79512952D01*
X155098619Y-79465333D01*
X155051000Y-79417714D01*
X155003380Y-79322476D01*
X155003380Y-79084380D01*
X155051000Y-78941523D01*
X156003380Y-77941523D02*
X155527190Y-78274857D01*
X156003380Y-78512952D02*
X155003380Y-78512952D01*
X155003380Y-78132000D01*
X155051000Y-78036761D01*
X155098619Y-77989142D01*
X155193857Y-77941523D01*
X155336714Y-77941523D01*
X155431952Y-77989142D01*
X155479571Y-78036761D01*
X155527190Y-78132000D01*
X155527190Y-78512952D01*
%TO.C,U5*%
X129322380Y-121411904D02*
X130131904Y-121411904D01*
X130227142Y-121364285D01*
X130274761Y-121316666D01*
X130322380Y-121221428D01*
X130322380Y-121030952D01*
X130274761Y-120935714D01*
X130227142Y-120888095D01*
X130131904Y-120840476D01*
X129322380Y-120840476D01*
X129322380Y-119888095D02*
X129322380Y-120364285D01*
X129798571Y-120411904D01*
X129750952Y-120364285D01*
X129703333Y-120269047D01*
X129703333Y-120030952D01*
X129750952Y-119935714D01*
X129798571Y-119888095D01*
X129893809Y-119840476D01*
X130131904Y-119840476D01*
X130227142Y-119888095D01*
X130274761Y-119935714D01*
X130322380Y-120030952D01*
X130322380Y-120269047D01*
X130274761Y-120364285D01*
X130227142Y-120411904D01*
X126270000Y-120369047D02*
X126222380Y-120464285D01*
X126222380Y-120607142D01*
X126270000Y-120750000D01*
X126365238Y-120845238D01*
X126460476Y-120892857D01*
X126650952Y-120940476D01*
X126793809Y-120940476D01*
X126984285Y-120892857D01*
X127079523Y-120845238D01*
X127174761Y-120750000D01*
X127222380Y-120607142D01*
X127222380Y-120511904D01*
X127174761Y-120369047D01*
X127127142Y-120321428D01*
X126793809Y-120321428D01*
X126793809Y-120511904D01*
X126222380Y-119988095D02*
X126222380Y-119369047D01*
X126603333Y-119702380D01*
X126603333Y-119559523D01*
X126650952Y-119464285D01*
X126698571Y-119416666D01*
X126793809Y-119369047D01*
X127031904Y-119369047D01*
X127127142Y-119416666D01*
X127174761Y-119464285D01*
X127222380Y-119559523D01*
X127222380Y-119845238D01*
X127174761Y-119940476D01*
X127127142Y-119988095D01*
X127222380Y-118940476D02*
X126222380Y-118940476D01*
X126936666Y-118607142D01*
X126222380Y-118273809D01*
X127222380Y-118273809D01*
X126698571Y-117464285D02*
X126746190Y-117321428D01*
X126793809Y-117273809D01*
X126889047Y-117226190D01*
X127031904Y-117226190D01*
X127127142Y-117273809D01*
X127174761Y-117321428D01*
X127222380Y-117416666D01*
X127222380Y-117797619D01*
X126222380Y-117797619D01*
X126222380Y-117464285D01*
X126270000Y-117369047D01*
X126317619Y-117321428D01*
X126412857Y-117273809D01*
X126508095Y-117273809D01*
X126603333Y-117321428D01*
X126650952Y-117369047D01*
X126698571Y-117464285D01*
X126698571Y-117797619D01*
X127317619Y-117035714D02*
X127317619Y-116273809D01*
X127174761Y-116083333D02*
X127222380Y-115940476D01*
X127222380Y-115702380D01*
X127174761Y-115607142D01*
X127127142Y-115559523D01*
X127031904Y-115511904D01*
X126936666Y-115511904D01*
X126841428Y-115559523D01*
X126793809Y-115607142D01*
X126746190Y-115702380D01*
X126698571Y-115892857D01*
X126650952Y-115988095D01*
X126603333Y-116035714D01*
X126508095Y-116083333D01*
X126412857Y-116083333D01*
X126317619Y-116035714D01*
X126270000Y-115988095D01*
X126222380Y-115892857D01*
X126222380Y-115654761D01*
X126270000Y-115511904D01*
X127174761Y-115130952D02*
X127222380Y-114988095D01*
X127222380Y-114750000D01*
X127174761Y-114654761D01*
X127127142Y-114607142D01*
X127031904Y-114559523D01*
X126936666Y-114559523D01*
X126841428Y-114607142D01*
X126793809Y-114654761D01*
X126746190Y-114750000D01*
X126698571Y-114940476D01*
X126650952Y-115035714D01*
X126603333Y-115083333D01*
X126508095Y-115130952D01*
X126412857Y-115130952D01*
X126317619Y-115083333D01*
X126270000Y-115035714D01*
X126222380Y-114940476D01*
X126222380Y-114702380D01*
X126270000Y-114559523D01*
X127222380Y-113559523D02*
X126746190Y-113892857D01*
X127222380Y-114130952D02*
X126222380Y-114130952D01*
X126222380Y-113750000D01*
X126270000Y-113654761D01*
X126317619Y-113607142D01*
X126412857Y-113559523D01*
X126555714Y-113559523D01*
X126650952Y-113607142D01*
X126698571Y-113654761D01*
X126746190Y-113750000D01*
X126746190Y-114130952D01*
%TO.C,U6*%
X169962380Y-121411904D02*
X170771904Y-121411904D01*
X170867142Y-121364285D01*
X170914761Y-121316666D01*
X170962380Y-121221428D01*
X170962380Y-121030952D01*
X170914761Y-120935714D01*
X170867142Y-120888095D01*
X170771904Y-120840476D01*
X169962380Y-120840476D01*
X169962380Y-119935714D02*
X169962380Y-120126190D01*
X170010000Y-120221428D01*
X170057619Y-120269047D01*
X170200476Y-120364285D01*
X170390952Y-120411904D01*
X170771904Y-120411904D01*
X170867142Y-120364285D01*
X170914761Y-120316666D01*
X170962380Y-120221428D01*
X170962380Y-120030952D01*
X170914761Y-119935714D01*
X170867142Y-119888095D01*
X170771904Y-119840476D01*
X170533809Y-119840476D01*
X170438571Y-119888095D01*
X170390952Y-119935714D01*
X170343333Y-120030952D01*
X170343333Y-120221428D01*
X170390952Y-120316666D01*
X170438571Y-120364285D01*
X170533809Y-120411904D01*
X166910000Y-120369047D02*
X166862380Y-120464285D01*
X166862380Y-120607142D01*
X166910000Y-120750000D01*
X167005238Y-120845238D01*
X167100476Y-120892857D01*
X167290952Y-120940476D01*
X167433809Y-120940476D01*
X167624285Y-120892857D01*
X167719523Y-120845238D01*
X167814761Y-120750000D01*
X167862380Y-120607142D01*
X167862380Y-120511904D01*
X167814761Y-120369047D01*
X167767142Y-120321428D01*
X167433809Y-120321428D01*
X167433809Y-120511904D01*
X166862380Y-119988095D02*
X166862380Y-119369047D01*
X167243333Y-119702380D01*
X167243333Y-119559523D01*
X167290952Y-119464285D01*
X167338571Y-119416666D01*
X167433809Y-119369047D01*
X167671904Y-119369047D01*
X167767142Y-119416666D01*
X167814761Y-119464285D01*
X167862380Y-119559523D01*
X167862380Y-119845238D01*
X167814761Y-119940476D01*
X167767142Y-119988095D01*
X167862380Y-118940476D02*
X166862380Y-118940476D01*
X167576666Y-118607142D01*
X166862380Y-118273809D01*
X167862380Y-118273809D01*
X167338571Y-117464285D02*
X167386190Y-117321428D01*
X167433809Y-117273809D01*
X167529047Y-117226190D01*
X167671904Y-117226190D01*
X167767142Y-117273809D01*
X167814761Y-117321428D01*
X167862380Y-117416666D01*
X167862380Y-117797619D01*
X166862380Y-117797619D01*
X166862380Y-117464285D01*
X166910000Y-117369047D01*
X166957619Y-117321428D01*
X167052857Y-117273809D01*
X167148095Y-117273809D01*
X167243333Y-117321428D01*
X167290952Y-117369047D01*
X167338571Y-117464285D01*
X167338571Y-117797619D01*
X167957619Y-117035714D02*
X167957619Y-116273809D01*
X167814761Y-116083333D02*
X167862380Y-115940476D01*
X167862380Y-115702380D01*
X167814761Y-115607142D01*
X167767142Y-115559523D01*
X167671904Y-115511904D01*
X167576666Y-115511904D01*
X167481428Y-115559523D01*
X167433809Y-115607142D01*
X167386190Y-115702380D01*
X167338571Y-115892857D01*
X167290952Y-115988095D01*
X167243333Y-116035714D01*
X167148095Y-116083333D01*
X167052857Y-116083333D01*
X166957619Y-116035714D01*
X166910000Y-115988095D01*
X166862380Y-115892857D01*
X166862380Y-115654761D01*
X166910000Y-115511904D01*
X167814761Y-115130952D02*
X167862380Y-114988095D01*
X167862380Y-114750000D01*
X167814761Y-114654761D01*
X167767142Y-114607142D01*
X167671904Y-114559523D01*
X167576666Y-114559523D01*
X167481428Y-114607142D01*
X167433809Y-114654761D01*
X167386190Y-114750000D01*
X167338571Y-114940476D01*
X167290952Y-115035714D01*
X167243333Y-115083333D01*
X167148095Y-115130952D01*
X167052857Y-115130952D01*
X166957619Y-115083333D01*
X166910000Y-115035714D01*
X166862380Y-114940476D01*
X166862380Y-114702380D01*
X166910000Y-114559523D01*
X167862380Y-113559523D02*
X167386190Y-113892857D01*
X167862380Y-114130952D02*
X166862380Y-114130952D01*
X166862380Y-113750000D01*
X166910000Y-113654761D01*
X166957619Y-113607142D01*
X167052857Y-113559523D01*
X167195714Y-113559523D01*
X167290952Y-113607142D01*
X167338571Y-113654761D01*
X167386190Y-113750000D01*
X167386190Y-114130952D01*
%TO.C,U7*%
X184923380Y-78993904D02*
X185732904Y-78993904D01*
X185828142Y-78946285D01*
X185875761Y-78898666D01*
X185923380Y-78803428D01*
X185923380Y-78612952D01*
X185875761Y-78517714D01*
X185828142Y-78470095D01*
X185732904Y-78422476D01*
X184923380Y-78422476D01*
X184923380Y-78041523D02*
X184923380Y-77374857D01*
X185923380Y-77803428D01*
X188071000Y-84751047D02*
X188023380Y-84846285D01*
X188023380Y-84989142D01*
X188071000Y-85132000D01*
X188166238Y-85227238D01*
X188261476Y-85274857D01*
X188451952Y-85322476D01*
X188594809Y-85322476D01*
X188785285Y-85274857D01*
X188880523Y-85227238D01*
X188975761Y-85132000D01*
X189023380Y-84989142D01*
X189023380Y-84893904D01*
X188975761Y-84751047D01*
X188928142Y-84703428D01*
X188594809Y-84703428D01*
X188594809Y-84893904D01*
X188023380Y-84370095D02*
X188023380Y-83751047D01*
X188404333Y-84084380D01*
X188404333Y-83941523D01*
X188451952Y-83846285D01*
X188499571Y-83798666D01*
X188594809Y-83751047D01*
X188832904Y-83751047D01*
X188928142Y-83798666D01*
X188975761Y-83846285D01*
X189023380Y-83941523D01*
X189023380Y-84227238D01*
X188975761Y-84322476D01*
X188928142Y-84370095D01*
X189023380Y-83322476D02*
X188023380Y-83322476D01*
X188737666Y-82989142D01*
X188023380Y-82655809D01*
X189023380Y-82655809D01*
X188499571Y-81846285D02*
X188547190Y-81703428D01*
X188594809Y-81655809D01*
X188690047Y-81608190D01*
X188832904Y-81608190D01*
X188928142Y-81655809D01*
X188975761Y-81703428D01*
X189023380Y-81798666D01*
X189023380Y-82179619D01*
X188023380Y-82179619D01*
X188023380Y-81846285D01*
X188071000Y-81751047D01*
X188118619Y-81703428D01*
X188213857Y-81655809D01*
X188309095Y-81655809D01*
X188404333Y-81703428D01*
X188451952Y-81751047D01*
X188499571Y-81846285D01*
X188499571Y-82179619D01*
X189118619Y-81417714D02*
X189118619Y-80655809D01*
X188975761Y-80465333D02*
X189023380Y-80322476D01*
X189023380Y-80084380D01*
X188975761Y-79989142D01*
X188928142Y-79941523D01*
X188832904Y-79893904D01*
X188737666Y-79893904D01*
X188642428Y-79941523D01*
X188594809Y-79989142D01*
X188547190Y-80084380D01*
X188499571Y-80274857D01*
X188451952Y-80370095D01*
X188404333Y-80417714D01*
X188309095Y-80465333D01*
X188213857Y-80465333D01*
X188118619Y-80417714D01*
X188071000Y-80370095D01*
X188023380Y-80274857D01*
X188023380Y-80036761D01*
X188071000Y-79893904D01*
X188975761Y-79512952D02*
X189023380Y-79370095D01*
X189023380Y-79132000D01*
X188975761Y-79036761D01*
X188928142Y-78989142D01*
X188832904Y-78941523D01*
X188737666Y-78941523D01*
X188642428Y-78989142D01*
X188594809Y-79036761D01*
X188547190Y-79132000D01*
X188499571Y-79322476D01*
X188451952Y-79417714D01*
X188404333Y-79465333D01*
X188309095Y-79512952D01*
X188213857Y-79512952D01*
X188118619Y-79465333D01*
X188071000Y-79417714D01*
X188023380Y-79322476D01*
X188023380Y-79084380D01*
X188071000Y-78941523D01*
X189023380Y-77941523D02*
X188547190Y-78274857D01*
X189023380Y-78512952D02*
X188023380Y-78512952D01*
X188023380Y-78132000D01*
X188071000Y-78036761D01*
X188118619Y-77989142D01*
X188213857Y-77941523D01*
X188356714Y-77941523D01*
X188451952Y-77989142D01*
X188499571Y-78036761D01*
X188547190Y-78132000D01*
X188547190Y-78512952D01*
%TO.C,U8*%
X144283380Y-78993904D02*
X145092904Y-78993904D01*
X145188142Y-78946285D01*
X145235761Y-78898666D01*
X145283380Y-78803428D01*
X145283380Y-78612952D01*
X145235761Y-78517714D01*
X145188142Y-78470095D01*
X145092904Y-78422476D01*
X144283380Y-78422476D01*
X144711952Y-77803428D02*
X144664333Y-77898666D01*
X144616714Y-77946285D01*
X144521476Y-77993904D01*
X144473857Y-77993904D01*
X144378619Y-77946285D01*
X144331000Y-77898666D01*
X144283380Y-77803428D01*
X144283380Y-77612952D01*
X144331000Y-77517714D01*
X144378619Y-77470095D01*
X144473857Y-77422476D01*
X144521476Y-77422476D01*
X144616714Y-77470095D01*
X144664333Y-77517714D01*
X144711952Y-77612952D01*
X144711952Y-77803428D01*
X144759571Y-77898666D01*
X144807190Y-77946285D01*
X144902428Y-77993904D01*
X145092904Y-77993904D01*
X145188142Y-77946285D01*
X145235761Y-77898666D01*
X145283380Y-77803428D01*
X145283380Y-77612952D01*
X145235761Y-77517714D01*
X145188142Y-77470095D01*
X145092904Y-77422476D01*
X144902428Y-77422476D01*
X144807190Y-77470095D01*
X144759571Y-77517714D01*
X144711952Y-77612952D01*
X147431000Y-84751047D02*
X147383380Y-84846285D01*
X147383380Y-84989142D01*
X147431000Y-85132000D01*
X147526238Y-85227238D01*
X147621476Y-85274857D01*
X147811952Y-85322476D01*
X147954809Y-85322476D01*
X148145285Y-85274857D01*
X148240523Y-85227238D01*
X148335761Y-85132000D01*
X148383380Y-84989142D01*
X148383380Y-84893904D01*
X148335761Y-84751047D01*
X148288142Y-84703428D01*
X147954809Y-84703428D01*
X147954809Y-84893904D01*
X147383380Y-84370095D02*
X147383380Y-83751047D01*
X147764333Y-84084380D01*
X147764333Y-83941523D01*
X147811952Y-83846285D01*
X147859571Y-83798666D01*
X147954809Y-83751047D01*
X148192904Y-83751047D01*
X148288142Y-83798666D01*
X148335761Y-83846285D01*
X148383380Y-83941523D01*
X148383380Y-84227238D01*
X148335761Y-84322476D01*
X148288142Y-84370095D01*
X148383380Y-83322476D02*
X147383380Y-83322476D01*
X148097666Y-82989142D01*
X147383380Y-82655809D01*
X148383380Y-82655809D01*
X147859571Y-81846285D02*
X147907190Y-81703428D01*
X147954809Y-81655809D01*
X148050047Y-81608190D01*
X148192904Y-81608190D01*
X148288142Y-81655809D01*
X148335761Y-81703428D01*
X148383380Y-81798666D01*
X148383380Y-82179619D01*
X147383380Y-82179619D01*
X147383380Y-81846285D01*
X147431000Y-81751047D01*
X147478619Y-81703428D01*
X147573857Y-81655809D01*
X147669095Y-81655809D01*
X147764333Y-81703428D01*
X147811952Y-81751047D01*
X147859571Y-81846285D01*
X147859571Y-82179619D01*
X148478619Y-81417714D02*
X148478619Y-80655809D01*
X148335761Y-80465333D02*
X148383380Y-80322476D01*
X148383380Y-80084380D01*
X148335761Y-79989142D01*
X148288142Y-79941523D01*
X148192904Y-79893904D01*
X148097666Y-79893904D01*
X148002428Y-79941523D01*
X147954809Y-79989142D01*
X147907190Y-80084380D01*
X147859571Y-80274857D01*
X147811952Y-80370095D01*
X147764333Y-80417714D01*
X147669095Y-80465333D01*
X147573857Y-80465333D01*
X147478619Y-80417714D01*
X147431000Y-80370095D01*
X147383380Y-80274857D01*
X147383380Y-80036761D01*
X147431000Y-79893904D01*
X148335761Y-79512952D02*
X148383380Y-79370095D01*
X148383380Y-79132000D01*
X148335761Y-79036761D01*
X148288142Y-78989142D01*
X148192904Y-78941523D01*
X148097666Y-78941523D01*
X148002428Y-78989142D01*
X147954809Y-79036761D01*
X147907190Y-79132000D01*
X147859571Y-79322476D01*
X147811952Y-79417714D01*
X147764333Y-79465333D01*
X147669095Y-79512952D01*
X147573857Y-79512952D01*
X147478619Y-79465333D01*
X147431000Y-79417714D01*
X147383380Y-79322476D01*
X147383380Y-79084380D01*
X147431000Y-78941523D01*
X148383380Y-77941523D02*
X147907190Y-78274857D01*
X148383380Y-78512952D02*
X147383380Y-78512952D01*
X147383380Y-78132000D01*
X147431000Y-78036761D01*
X147478619Y-77989142D01*
X147573857Y-77941523D01*
X147716714Y-77941523D01*
X147811952Y-77989142D01*
X147859571Y-78036761D01*
X147907190Y-78132000D01*
X147907190Y-78512952D01*
%TO.C,U9*%
X136942380Y-121411904D02*
X137751904Y-121411904D01*
X137847142Y-121364285D01*
X137894761Y-121316666D01*
X137942380Y-121221428D01*
X137942380Y-121030952D01*
X137894761Y-120935714D01*
X137847142Y-120888095D01*
X137751904Y-120840476D01*
X136942380Y-120840476D01*
X137942380Y-120316666D02*
X137942380Y-120126190D01*
X137894761Y-120030952D01*
X137847142Y-119983333D01*
X137704285Y-119888095D01*
X137513809Y-119840476D01*
X137132857Y-119840476D01*
X137037619Y-119888095D01*
X136990000Y-119935714D01*
X136942380Y-120030952D01*
X136942380Y-120221428D01*
X136990000Y-120316666D01*
X137037619Y-120364285D01*
X137132857Y-120411904D01*
X137370952Y-120411904D01*
X137466190Y-120364285D01*
X137513809Y-120316666D01*
X137561428Y-120221428D01*
X137561428Y-120030952D01*
X137513809Y-119935714D01*
X137466190Y-119888095D01*
X137370952Y-119840476D01*
X133890000Y-120369047D02*
X133842380Y-120464285D01*
X133842380Y-120607142D01*
X133890000Y-120750000D01*
X133985238Y-120845238D01*
X134080476Y-120892857D01*
X134270952Y-120940476D01*
X134413809Y-120940476D01*
X134604285Y-120892857D01*
X134699523Y-120845238D01*
X134794761Y-120750000D01*
X134842380Y-120607142D01*
X134842380Y-120511904D01*
X134794761Y-120369047D01*
X134747142Y-120321428D01*
X134413809Y-120321428D01*
X134413809Y-120511904D01*
X133842380Y-119988095D02*
X133842380Y-119369047D01*
X134223333Y-119702380D01*
X134223333Y-119559523D01*
X134270952Y-119464285D01*
X134318571Y-119416666D01*
X134413809Y-119369047D01*
X134651904Y-119369047D01*
X134747142Y-119416666D01*
X134794761Y-119464285D01*
X134842380Y-119559523D01*
X134842380Y-119845238D01*
X134794761Y-119940476D01*
X134747142Y-119988095D01*
X134842380Y-118940476D02*
X133842380Y-118940476D01*
X134556666Y-118607142D01*
X133842380Y-118273809D01*
X134842380Y-118273809D01*
X134318571Y-117464285D02*
X134366190Y-117321428D01*
X134413809Y-117273809D01*
X134509047Y-117226190D01*
X134651904Y-117226190D01*
X134747142Y-117273809D01*
X134794761Y-117321428D01*
X134842380Y-117416666D01*
X134842380Y-117797619D01*
X133842380Y-117797619D01*
X133842380Y-117464285D01*
X133890000Y-117369047D01*
X133937619Y-117321428D01*
X134032857Y-117273809D01*
X134128095Y-117273809D01*
X134223333Y-117321428D01*
X134270952Y-117369047D01*
X134318571Y-117464285D01*
X134318571Y-117797619D01*
X134937619Y-117035714D02*
X134937619Y-116273809D01*
X134794761Y-116083333D02*
X134842380Y-115940476D01*
X134842380Y-115702380D01*
X134794761Y-115607142D01*
X134747142Y-115559523D01*
X134651904Y-115511904D01*
X134556666Y-115511904D01*
X134461428Y-115559523D01*
X134413809Y-115607142D01*
X134366190Y-115702380D01*
X134318571Y-115892857D01*
X134270952Y-115988095D01*
X134223333Y-116035714D01*
X134128095Y-116083333D01*
X134032857Y-116083333D01*
X133937619Y-116035714D01*
X133890000Y-115988095D01*
X133842380Y-115892857D01*
X133842380Y-115654761D01*
X133890000Y-115511904D01*
X134794761Y-115130952D02*
X134842380Y-114988095D01*
X134842380Y-114750000D01*
X134794761Y-114654761D01*
X134747142Y-114607142D01*
X134651904Y-114559523D01*
X134556666Y-114559523D01*
X134461428Y-114607142D01*
X134413809Y-114654761D01*
X134366190Y-114750000D01*
X134318571Y-114940476D01*
X134270952Y-115035714D01*
X134223333Y-115083333D01*
X134128095Y-115130952D01*
X134032857Y-115130952D01*
X133937619Y-115083333D01*
X133890000Y-115035714D01*
X133842380Y-114940476D01*
X133842380Y-114702380D01*
X133890000Y-114559523D01*
X134842380Y-113559523D02*
X134366190Y-113892857D01*
X134842380Y-114130952D02*
X133842380Y-114130952D01*
X133842380Y-113750000D01*
X133890000Y-113654761D01*
X133937619Y-113607142D01*
X134032857Y-113559523D01*
X134175714Y-113559523D01*
X134270952Y-113607142D01*
X134318571Y-113654761D01*
X134366190Y-113750000D01*
X134366190Y-114130952D01*
%TO.C,U10*%
X177582380Y-121888095D02*
X178391904Y-121888095D01*
X178487142Y-121840476D01*
X178534761Y-121792857D01*
X178582380Y-121697619D01*
X178582380Y-121507142D01*
X178534761Y-121411904D01*
X178487142Y-121364285D01*
X178391904Y-121316666D01*
X177582380Y-121316666D01*
X178582380Y-120316666D02*
X178582380Y-120888095D01*
X178582380Y-120602380D02*
X177582380Y-120602380D01*
X177725238Y-120697619D01*
X177820476Y-120792857D01*
X177868095Y-120888095D01*
X177582380Y-119697619D02*
X177582380Y-119602380D01*
X177630000Y-119507142D01*
X177677619Y-119459523D01*
X177772857Y-119411904D01*
X177963333Y-119364285D01*
X178201428Y-119364285D01*
X178391904Y-119411904D01*
X178487142Y-119459523D01*
X178534761Y-119507142D01*
X178582380Y-119602380D01*
X178582380Y-119697619D01*
X178534761Y-119792857D01*
X178487142Y-119840476D01*
X178391904Y-119888095D01*
X178201428Y-119935714D01*
X177963333Y-119935714D01*
X177772857Y-119888095D01*
X177677619Y-119840476D01*
X177630000Y-119792857D01*
X177582380Y-119697619D01*
X174530000Y-120369047D02*
X174482380Y-120464285D01*
X174482380Y-120607142D01*
X174530000Y-120750000D01*
X174625238Y-120845238D01*
X174720476Y-120892857D01*
X174910952Y-120940476D01*
X175053809Y-120940476D01*
X175244285Y-120892857D01*
X175339523Y-120845238D01*
X175434761Y-120750000D01*
X175482380Y-120607142D01*
X175482380Y-120511904D01*
X175434761Y-120369047D01*
X175387142Y-120321428D01*
X175053809Y-120321428D01*
X175053809Y-120511904D01*
X174482380Y-119988095D02*
X174482380Y-119369047D01*
X174863333Y-119702380D01*
X174863333Y-119559523D01*
X174910952Y-119464285D01*
X174958571Y-119416666D01*
X175053809Y-119369047D01*
X175291904Y-119369047D01*
X175387142Y-119416666D01*
X175434761Y-119464285D01*
X175482380Y-119559523D01*
X175482380Y-119845238D01*
X175434761Y-119940476D01*
X175387142Y-119988095D01*
X175482380Y-118940476D02*
X174482380Y-118940476D01*
X175196666Y-118607142D01*
X174482380Y-118273809D01*
X175482380Y-118273809D01*
X174958571Y-117464285D02*
X175006190Y-117321428D01*
X175053809Y-117273809D01*
X175149047Y-117226190D01*
X175291904Y-117226190D01*
X175387142Y-117273809D01*
X175434761Y-117321428D01*
X175482380Y-117416666D01*
X175482380Y-117797619D01*
X174482380Y-117797619D01*
X174482380Y-117464285D01*
X174530000Y-117369047D01*
X174577619Y-117321428D01*
X174672857Y-117273809D01*
X174768095Y-117273809D01*
X174863333Y-117321428D01*
X174910952Y-117369047D01*
X174958571Y-117464285D01*
X174958571Y-117797619D01*
X175577619Y-117035714D02*
X175577619Y-116273809D01*
X175434761Y-116083333D02*
X175482380Y-115940476D01*
X175482380Y-115702380D01*
X175434761Y-115607142D01*
X175387142Y-115559523D01*
X175291904Y-115511904D01*
X175196666Y-115511904D01*
X175101428Y-115559523D01*
X175053809Y-115607142D01*
X175006190Y-115702380D01*
X174958571Y-115892857D01*
X174910952Y-115988095D01*
X174863333Y-116035714D01*
X174768095Y-116083333D01*
X174672857Y-116083333D01*
X174577619Y-116035714D01*
X174530000Y-115988095D01*
X174482380Y-115892857D01*
X174482380Y-115654761D01*
X174530000Y-115511904D01*
X175434761Y-115130952D02*
X175482380Y-114988095D01*
X175482380Y-114750000D01*
X175434761Y-114654761D01*
X175387142Y-114607142D01*
X175291904Y-114559523D01*
X175196666Y-114559523D01*
X175101428Y-114607142D01*
X175053809Y-114654761D01*
X175006190Y-114750000D01*
X174958571Y-114940476D01*
X174910952Y-115035714D01*
X174863333Y-115083333D01*
X174768095Y-115130952D01*
X174672857Y-115130952D01*
X174577619Y-115083333D01*
X174530000Y-115035714D01*
X174482380Y-114940476D01*
X174482380Y-114702380D01*
X174530000Y-114559523D01*
X175482380Y-113559523D02*
X175006190Y-113892857D01*
X175482380Y-114130952D02*
X174482380Y-114130952D01*
X174482380Y-113750000D01*
X174530000Y-113654761D01*
X174577619Y-113607142D01*
X174672857Y-113559523D01*
X174815714Y-113559523D01*
X174910952Y-113607142D01*
X174958571Y-113654761D01*
X175006190Y-113750000D01*
X175006190Y-114130952D01*
%TO.C,U11*%
X172223380Y-79470095D02*
X173032904Y-79470095D01*
X173128142Y-79422476D01*
X173175761Y-79374857D01*
X173223380Y-79279619D01*
X173223380Y-79089142D01*
X173175761Y-78993904D01*
X173128142Y-78946285D01*
X173032904Y-78898666D01*
X172223380Y-78898666D01*
X173223380Y-77898666D02*
X173223380Y-78470095D01*
X173223380Y-78184380D02*
X172223380Y-78184380D01*
X172366238Y-78279619D01*
X172461476Y-78374857D01*
X172509095Y-78470095D01*
X173223380Y-76946285D02*
X173223380Y-77517714D01*
X173223380Y-77232000D02*
X172223380Y-77232000D01*
X172366238Y-77327238D01*
X172461476Y-77422476D01*
X172509095Y-77517714D01*
X175371000Y-84751047D02*
X175323380Y-84846285D01*
X175323380Y-84989142D01*
X175371000Y-85132000D01*
X175466238Y-85227238D01*
X175561476Y-85274857D01*
X175751952Y-85322476D01*
X175894809Y-85322476D01*
X176085285Y-85274857D01*
X176180523Y-85227238D01*
X176275761Y-85132000D01*
X176323380Y-84989142D01*
X176323380Y-84893904D01*
X176275761Y-84751047D01*
X176228142Y-84703428D01*
X175894809Y-84703428D01*
X175894809Y-84893904D01*
X175323380Y-84370095D02*
X175323380Y-83751047D01*
X175704333Y-84084380D01*
X175704333Y-83941523D01*
X175751952Y-83846285D01*
X175799571Y-83798666D01*
X175894809Y-83751047D01*
X176132904Y-83751047D01*
X176228142Y-83798666D01*
X176275761Y-83846285D01*
X176323380Y-83941523D01*
X176323380Y-84227238D01*
X176275761Y-84322476D01*
X176228142Y-84370095D01*
X176323380Y-83322476D02*
X175323380Y-83322476D01*
X176037666Y-82989142D01*
X175323380Y-82655809D01*
X176323380Y-82655809D01*
X175799571Y-81846285D02*
X175847190Y-81703428D01*
X175894809Y-81655809D01*
X175990047Y-81608190D01*
X176132904Y-81608190D01*
X176228142Y-81655809D01*
X176275761Y-81703428D01*
X176323380Y-81798666D01*
X176323380Y-82179619D01*
X175323380Y-82179619D01*
X175323380Y-81846285D01*
X175371000Y-81751047D01*
X175418619Y-81703428D01*
X175513857Y-81655809D01*
X175609095Y-81655809D01*
X175704333Y-81703428D01*
X175751952Y-81751047D01*
X175799571Y-81846285D01*
X175799571Y-82179619D01*
X176418619Y-81417714D02*
X176418619Y-80655809D01*
X176275761Y-80465333D02*
X176323380Y-80322476D01*
X176323380Y-80084380D01*
X176275761Y-79989142D01*
X176228142Y-79941523D01*
X176132904Y-79893904D01*
X176037666Y-79893904D01*
X175942428Y-79941523D01*
X175894809Y-79989142D01*
X175847190Y-80084380D01*
X175799571Y-80274857D01*
X175751952Y-80370095D01*
X175704333Y-80417714D01*
X175609095Y-80465333D01*
X175513857Y-80465333D01*
X175418619Y-80417714D01*
X175371000Y-80370095D01*
X175323380Y-80274857D01*
X175323380Y-80036761D01*
X175371000Y-79893904D01*
X176275761Y-79512952D02*
X176323380Y-79370095D01*
X176323380Y-79132000D01*
X176275761Y-79036761D01*
X176228142Y-78989142D01*
X176132904Y-78941523D01*
X176037666Y-78941523D01*
X175942428Y-78989142D01*
X175894809Y-79036761D01*
X175847190Y-79132000D01*
X175799571Y-79322476D01*
X175751952Y-79417714D01*
X175704333Y-79465333D01*
X175609095Y-79512952D01*
X175513857Y-79512952D01*
X175418619Y-79465333D01*
X175371000Y-79417714D01*
X175323380Y-79322476D01*
X175323380Y-79084380D01*
X175371000Y-78941523D01*
X176323380Y-77941523D02*
X175847190Y-78274857D01*
X176323380Y-78512952D02*
X175323380Y-78512952D01*
X175323380Y-78132000D01*
X175371000Y-78036761D01*
X175418619Y-77989142D01*
X175513857Y-77941523D01*
X175656714Y-77941523D01*
X175751952Y-77989142D01*
X175799571Y-78036761D01*
X175847190Y-78132000D01*
X175847190Y-78512952D01*
%TO.C,U12*%
X131583380Y-79470095D02*
X132392904Y-79470095D01*
X132488142Y-79422476D01*
X132535761Y-79374857D01*
X132583380Y-79279619D01*
X132583380Y-79089142D01*
X132535761Y-78993904D01*
X132488142Y-78946285D01*
X132392904Y-78898666D01*
X131583380Y-78898666D01*
X132583380Y-77898666D02*
X132583380Y-78470095D01*
X132583380Y-78184380D02*
X131583380Y-78184380D01*
X131726238Y-78279619D01*
X131821476Y-78374857D01*
X131869095Y-78470095D01*
X131678619Y-77517714D02*
X131631000Y-77470095D01*
X131583380Y-77374857D01*
X131583380Y-77136761D01*
X131631000Y-77041523D01*
X131678619Y-76993904D01*
X131773857Y-76946285D01*
X131869095Y-76946285D01*
X132011952Y-76993904D01*
X132583380Y-77565333D01*
X132583380Y-76946285D01*
X134731000Y-84751047D02*
X134683380Y-84846285D01*
X134683380Y-84989142D01*
X134731000Y-85132000D01*
X134826238Y-85227238D01*
X134921476Y-85274857D01*
X135111952Y-85322476D01*
X135254809Y-85322476D01*
X135445285Y-85274857D01*
X135540523Y-85227238D01*
X135635761Y-85132000D01*
X135683380Y-84989142D01*
X135683380Y-84893904D01*
X135635761Y-84751047D01*
X135588142Y-84703428D01*
X135254809Y-84703428D01*
X135254809Y-84893904D01*
X134683380Y-84370095D02*
X134683380Y-83751047D01*
X135064333Y-84084380D01*
X135064333Y-83941523D01*
X135111952Y-83846285D01*
X135159571Y-83798666D01*
X135254809Y-83751047D01*
X135492904Y-83751047D01*
X135588142Y-83798666D01*
X135635761Y-83846285D01*
X135683380Y-83941523D01*
X135683380Y-84227238D01*
X135635761Y-84322476D01*
X135588142Y-84370095D01*
X135683380Y-83322476D02*
X134683380Y-83322476D01*
X135397666Y-82989142D01*
X134683380Y-82655809D01*
X135683380Y-82655809D01*
X135159571Y-81846285D02*
X135207190Y-81703428D01*
X135254809Y-81655809D01*
X135350047Y-81608190D01*
X135492904Y-81608190D01*
X135588142Y-81655809D01*
X135635761Y-81703428D01*
X135683380Y-81798666D01*
X135683380Y-82179619D01*
X134683380Y-82179619D01*
X134683380Y-81846285D01*
X134731000Y-81751047D01*
X134778619Y-81703428D01*
X134873857Y-81655809D01*
X134969095Y-81655809D01*
X135064333Y-81703428D01*
X135111952Y-81751047D01*
X135159571Y-81846285D01*
X135159571Y-82179619D01*
X135778619Y-81417714D02*
X135778619Y-80655809D01*
X135635761Y-80465333D02*
X135683380Y-80322476D01*
X135683380Y-80084380D01*
X135635761Y-79989142D01*
X135588142Y-79941523D01*
X135492904Y-79893904D01*
X135397666Y-79893904D01*
X135302428Y-79941523D01*
X135254809Y-79989142D01*
X135207190Y-80084380D01*
X135159571Y-80274857D01*
X135111952Y-80370095D01*
X135064333Y-80417714D01*
X134969095Y-80465333D01*
X134873857Y-80465333D01*
X134778619Y-80417714D01*
X134731000Y-80370095D01*
X134683380Y-80274857D01*
X134683380Y-80036761D01*
X134731000Y-79893904D01*
X135635761Y-79512952D02*
X135683380Y-79370095D01*
X135683380Y-79132000D01*
X135635761Y-79036761D01*
X135588142Y-78989142D01*
X135492904Y-78941523D01*
X135397666Y-78941523D01*
X135302428Y-78989142D01*
X135254809Y-79036761D01*
X135207190Y-79132000D01*
X135159571Y-79322476D01*
X135111952Y-79417714D01*
X135064333Y-79465333D01*
X134969095Y-79512952D01*
X134873857Y-79512952D01*
X134778619Y-79465333D01*
X134731000Y-79417714D01*
X134683380Y-79322476D01*
X134683380Y-79084380D01*
X134731000Y-78941523D01*
X135683380Y-77941523D02*
X135207190Y-78274857D01*
X135683380Y-78512952D02*
X134683380Y-78512952D01*
X134683380Y-78132000D01*
X134731000Y-78036761D01*
X134778619Y-77989142D01*
X134873857Y-77941523D01*
X135016714Y-77941523D01*
X135111952Y-77989142D01*
X135159571Y-78036761D01*
X135207190Y-78132000D01*
X135207190Y-78512952D01*
%TO.C,U13*%
X149642380Y-121888095D02*
X150451904Y-121888095D01*
X150547142Y-121840476D01*
X150594761Y-121792857D01*
X150642380Y-121697619D01*
X150642380Y-121507142D01*
X150594761Y-121411904D01*
X150547142Y-121364285D01*
X150451904Y-121316666D01*
X149642380Y-121316666D01*
X150642380Y-120316666D02*
X150642380Y-120888095D01*
X150642380Y-120602380D02*
X149642380Y-120602380D01*
X149785238Y-120697619D01*
X149880476Y-120792857D01*
X149928095Y-120888095D01*
X149642380Y-119983333D02*
X149642380Y-119364285D01*
X150023333Y-119697619D01*
X150023333Y-119554761D01*
X150070952Y-119459523D01*
X150118571Y-119411904D01*
X150213809Y-119364285D01*
X150451904Y-119364285D01*
X150547142Y-119411904D01*
X150594761Y-119459523D01*
X150642380Y-119554761D01*
X150642380Y-119840476D01*
X150594761Y-119935714D01*
X150547142Y-119983333D01*
X146590000Y-120369047D02*
X146542380Y-120464285D01*
X146542380Y-120607142D01*
X146590000Y-120750000D01*
X146685238Y-120845238D01*
X146780476Y-120892857D01*
X146970952Y-120940476D01*
X147113809Y-120940476D01*
X147304285Y-120892857D01*
X147399523Y-120845238D01*
X147494761Y-120750000D01*
X147542380Y-120607142D01*
X147542380Y-120511904D01*
X147494761Y-120369047D01*
X147447142Y-120321428D01*
X147113809Y-120321428D01*
X147113809Y-120511904D01*
X146542380Y-119988095D02*
X146542380Y-119369047D01*
X146923333Y-119702380D01*
X146923333Y-119559523D01*
X146970952Y-119464285D01*
X147018571Y-119416666D01*
X147113809Y-119369047D01*
X147351904Y-119369047D01*
X147447142Y-119416666D01*
X147494761Y-119464285D01*
X147542380Y-119559523D01*
X147542380Y-119845238D01*
X147494761Y-119940476D01*
X147447142Y-119988095D01*
X147542380Y-118940476D02*
X146542380Y-118940476D01*
X147256666Y-118607142D01*
X146542380Y-118273809D01*
X147542380Y-118273809D01*
X147018571Y-117464285D02*
X147066190Y-117321428D01*
X147113809Y-117273809D01*
X147209047Y-117226190D01*
X147351904Y-117226190D01*
X147447142Y-117273809D01*
X147494761Y-117321428D01*
X147542380Y-117416666D01*
X147542380Y-117797619D01*
X146542380Y-117797619D01*
X146542380Y-117464285D01*
X146590000Y-117369047D01*
X146637619Y-117321428D01*
X146732857Y-117273809D01*
X146828095Y-117273809D01*
X146923333Y-117321428D01*
X146970952Y-117369047D01*
X147018571Y-117464285D01*
X147018571Y-117797619D01*
X147637619Y-117035714D02*
X147637619Y-116273809D01*
X147494761Y-116083333D02*
X147542380Y-115940476D01*
X147542380Y-115702380D01*
X147494761Y-115607142D01*
X147447142Y-115559523D01*
X147351904Y-115511904D01*
X147256666Y-115511904D01*
X147161428Y-115559523D01*
X147113809Y-115607142D01*
X147066190Y-115702380D01*
X147018571Y-115892857D01*
X146970952Y-115988095D01*
X146923333Y-116035714D01*
X146828095Y-116083333D01*
X146732857Y-116083333D01*
X146637619Y-116035714D01*
X146590000Y-115988095D01*
X146542380Y-115892857D01*
X146542380Y-115654761D01*
X146590000Y-115511904D01*
X147494761Y-115130952D02*
X147542380Y-114988095D01*
X147542380Y-114750000D01*
X147494761Y-114654761D01*
X147447142Y-114607142D01*
X147351904Y-114559523D01*
X147256666Y-114559523D01*
X147161428Y-114607142D01*
X147113809Y-114654761D01*
X147066190Y-114750000D01*
X147018571Y-114940476D01*
X146970952Y-115035714D01*
X146923333Y-115083333D01*
X146828095Y-115130952D01*
X146732857Y-115130952D01*
X146637619Y-115083333D01*
X146590000Y-115035714D01*
X146542380Y-114940476D01*
X146542380Y-114702380D01*
X146590000Y-114559523D01*
X147542380Y-113559523D02*
X147066190Y-113892857D01*
X147542380Y-114130952D02*
X146542380Y-114130952D01*
X146542380Y-113750000D01*
X146590000Y-113654761D01*
X146637619Y-113607142D01*
X146732857Y-113559523D01*
X146875714Y-113559523D01*
X146970952Y-113607142D01*
X147018571Y-113654761D01*
X147066190Y-113750000D01*
X147066190Y-114130952D01*
%TO.C,U14*%
X190282380Y-121888095D02*
X191091904Y-121888095D01*
X191187142Y-121840476D01*
X191234761Y-121792857D01*
X191282380Y-121697619D01*
X191282380Y-121507142D01*
X191234761Y-121411904D01*
X191187142Y-121364285D01*
X191091904Y-121316666D01*
X190282380Y-121316666D01*
X191282380Y-120316666D02*
X191282380Y-120888095D01*
X191282380Y-120602380D02*
X190282380Y-120602380D01*
X190425238Y-120697619D01*
X190520476Y-120792857D01*
X190568095Y-120888095D01*
X190615714Y-119459523D02*
X191282380Y-119459523D01*
X190234761Y-119697619D02*
X190949047Y-119935714D01*
X190949047Y-119316666D01*
X187230000Y-120369047D02*
X187182380Y-120464285D01*
X187182380Y-120607142D01*
X187230000Y-120750000D01*
X187325238Y-120845238D01*
X187420476Y-120892857D01*
X187610952Y-120940476D01*
X187753809Y-120940476D01*
X187944285Y-120892857D01*
X188039523Y-120845238D01*
X188134761Y-120750000D01*
X188182380Y-120607142D01*
X188182380Y-120511904D01*
X188134761Y-120369047D01*
X188087142Y-120321428D01*
X187753809Y-120321428D01*
X187753809Y-120511904D01*
X187182380Y-119988095D02*
X187182380Y-119369047D01*
X187563333Y-119702380D01*
X187563333Y-119559523D01*
X187610952Y-119464285D01*
X187658571Y-119416666D01*
X187753809Y-119369047D01*
X187991904Y-119369047D01*
X188087142Y-119416666D01*
X188134761Y-119464285D01*
X188182380Y-119559523D01*
X188182380Y-119845238D01*
X188134761Y-119940476D01*
X188087142Y-119988095D01*
X188182380Y-118940476D02*
X187182380Y-118940476D01*
X187896666Y-118607142D01*
X187182380Y-118273809D01*
X188182380Y-118273809D01*
X187658571Y-117464285D02*
X187706190Y-117321428D01*
X187753809Y-117273809D01*
X187849047Y-117226190D01*
X187991904Y-117226190D01*
X188087142Y-117273809D01*
X188134761Y-117321428D01*
X188182380Y-117416666D01*
X188182380Y-117797619D01*
X187182380Y-117797619D01*
X187182380Y-117464285D01*
X187230000Y-117369047D01*
X187277619Y-117321428D01*
X187372857Y-117273809D01*
X187468095Y-117273809D01*
X187563333Y-117321428D01*
X187610952Y-117369047D01*
X187658571Y-117464285D01*
X187658571Y-117797619D01*
X188277619Y-117035714D02*
X188277619Y-116273809D01*
X188134761Y-116083333D02*
X188182380Y-115940476D01*
X188182380Y-115702380D01*
X188134761Y-115607142D01*
X188087142Y-115559523D01*
X187991904Y-115511904D01*
X187896666Y-115511904D01*
X187801428Y-115559523D01*
X187753809Y-115607142D01*
X187706190Y-115702380D01*
X187658571Y-115892857D01*
X187610952Y-115988095D01*
X187563333Y-116035714D01*
X187468095Y-116083333D01*
X187372857Y-116083333D01*
X187277619Y-116035714D01*
X187230000Y-115988095D01*
X187182380Y-115892857D01*
X187182380Y-115654761D01*
X187230000Y-115511904D01*
X188134761Y-115130952D02*
X188182380Y-114988095D01*
X188182380Y-114750000D01*
X188134761Y-114654761D01*
X188087142Y-114607142D01*
X187991904Y-114559523D01*
X187896666Y-114559523D01*
X187801428Y-114607142D01*
X187753809Y-114654761D01*
X187706190Y-114750000D01*
X187658571Y-114940476D01*
X187610952Y-115035714D01*
X187563333Y-115083333D01*
X187468095Y-115130952D01*
X187372857Y-115130952D01*
X187277619Y-115083333D01*
X187230000Y-115035714D01*
X187182380Y-114940476D01*
X187182380Y-114702380D01*
X187230000Y-114559523D01*
X188182380Y-113559523D02*
X187706190Y-113892857D01*
X188182380Y-114130952D02*
X187182380Y-114130952D01*
X187182380Y-113750000D01*
X187230000Y-113654761D01*
X187277619Y-113607142D01*
X187372857Y-113559523D01*
X187515714Y-113559523D01*
X187610952Y-113607142D01*
X187658571Y-113654761D01*
X187706190Y-113750000D01*
X187706190Y-114130952D01*
%TO.C,U15*%
X164603380Y-79470095D02*
X165412904Y-79470095D01*
X165508142Y-79422476D01*
X165555761Y-79374857D01*
X165603380Y-79279619D01*
X165603380Y-79089142D01*
X165555761Y-78993904D01*
X165508142Y-78946285D01*
X165412904Y-78898666D01*
X164603380Y-78898666D01*
X165603380Y-77898666D02*
X165603380Y-78470095D01*
X165603380Y-78184380D02*
X164603380Y-78184380D01*
X164746238Y-78279619D01*
X164841476Y-78374857D01*
X164889095Y-78470095D01*
X164603380Y-76993904D02*
X164603380Y-77470095D01*
X165079571Y-77517714D01*
X165031952Y-77470095D01*
X164984333Y-77374857D01*
X164984333Y-77136761D01*
X165031952Y-77041523D01*
X165079571Y-76993904D01*
X165174809Y-76946285D01*
X165412904Y-76946285D01*
X165508142Y-76993904D01*
X165555761Y-77041523D01*
X165603380Y-77136761D01*
X165603380Y-77374857D01*
X165555761Y-77470095D01*
X165508142Y-77517714D01*
X167751000Y-84751047D02*
X167703380Y-84846285D01*
X167703380Y-84989142D01*
X167751000Y-85132000D01*
X167846238Y-85227238D01*
X167941476Y-85274857D01*
X168131952Y-85322476D01*
X168274809Y-85322476D01*
X168465285Y-85274857D01*
X168560523Y-85227238D01*
X168655761Y-85132000D01*
X168703380Y-84989142D01*
X168703380Y-84893904D01*
X168655761Y-84751047D01*
X168608142Y-84703428D01*
X168274809Y-84703428D01*
X168274809Y-84893904D01*
X167703380Y-84370095D02*
X167703380Y-83751047D01*
X168084333Y-84084380D01*
X168084333Y-83941523D01*
X168131952Y-83846285D01*
X168179571Y-83798666D01*
X168274809Y-83751047D01*
X168512904Y-83751047D01*
X168608142Y-83798666D01*
X168655761Y-83846285D01*
X168703380Y-83941523D01*
X168703380Y-84227238D01*
X168655761Y-84322476D01*
X168608142Y-84370095D01*
X168703380Y-83322476D02*
X167703380Y-83322476D01*
X168417666Y-82989142D01*
X167703380Y-82655809D01*
X168703380Y-82655809D01*
X168179571Y-81846285D02*
X168227190Y-81703428D01*
X168274809Y-81655809D01*
X168370047Y-81608190D01*
X168512904Y-81608190D01*
X168608142Y-81655809D01*
X168655761Y-81703428D01*
X168703380Y-81798666D01*
X168703380Y-82179619D01*
X167703380Y-82179619D01*
X167703380Y-81846285D01*
X167751000Y-81751047D01*
X167798619Y-81703428D01*
X167893857Y-81655809D01*
X167989095Y-81655809D01*
X168084333Y-81703428D01*
X168131952Y-81751047D01*
X168179571Y-81846285D01*
X168179571Y-82179619D01*
X168798619Y-81417714D02*
X168798619Y-80655809D01*
X168655761Y-80465333D02*
X168703380Y-80322476D01*
X168703380Y-80084380D01*
X168655761Y-79989142D01*
X168608142Y-79941523D01*
X168512904Y-79893904D01*
X168417666Y-79893904D01*
X168322428Y-79941523D01*
X168274809Y-79989142D01*
X168227190Y-80084380D01*
X168179571Y-80274857D01*
X168131952Y-80370095D01*
X168084333Y-80417714D01*
X167989095Y-80465333D01*
X167893857Y-80465333D01*
X167798619Y-80417714D01*
X167751000Y-80370095D01*
X167703380Y-80274857D01*
X167703380Y-80036761D01*
X167751000Y-79893904D01*
X168655761Y-79512952D02*
X168703380Y-79370095D01*
X168703380Y-79132000D01*
X168655761Y-79036761D01*
X168608142Y-78989142D01*
X168512904Y-78941523D01*
X168417666Y-78941523D01*
X168322428Y-78989142D01*
X168274809Y-79036761D01*
X168227190Y-79132000D01*
X168179571Y-79322476D01*
X168131952Y-79417714D01*
X168084333Y-79465333D01*
X167989095Y-79512952D01*
X167893857Y-79512952D01*
X167798619Y-79465333D01*
X167751000Y-79417714D01*
X167703380Y-79322476D01*
X167703380Y-79084380D01*
X167751000Y-78941523D01*
X168703380Y-77941523D02*
X168227190Y-78274857D01*
X168703380Y-78512952D02*
X167703380Y-78512952D01*
X167703380Y-78132000D01*
X167751000Y-78036761D01*
X167798619Y-77989142D01*
X167893857Y-77941523D01*
X168036714Y-77941523D01*
X168131952Y-77989142D01*
X168179571Y-78036761D01*
X168227190Y-78132000D01*
X168227190Y-78512952D01*
%TO.C,U16*%
X123963380Y-79470095D02*
X124772904Y-79470095D01*
X124868142Y-79422476D01*
X124915761Y-79374857D01*
X124963380Y-79279619D01*
X124963380Y-79089142D01*
X124915761Y-78993904D01*
X124868142Y-78946285D01*
X124772904Y-78898666D01*
X123963380Y-78898666D01*
X124963380Y-77898666D02*
X124963380Y-78470095D01*
X124963380Y-78184380D02*
X123963380Y-78184380D01*
X124106238Y-78279619D01*
X124201476Y-78374857D01*
X124249095Y-78470095D01*
X123963380Y-77041523D02*
X123963380Y-77232000D01*
X124011000Y-77327238D01*
X124058619Y-77374857D01*
X124201476Y-77470095D01*
X124391952Y-77517714D01*
X124772904Y-77517714D01*
X124868142Y-77470095D01*
X124915761Y-77422476D01*
X124963380Y-77327238D01*
X124963380Y-77136761D01*
X124915761Y-77041523D01*
X124868142Y-76993904D01*
X124772904Y-76946285D01*
X124534809Y-76946285D01*
X124439571Y-76993904D01*
X124391952Y-77041523D01*
X124344333Y-77136761D01*
X124344333Y-77327238D01*
X124391952Y-77422476D01*
X124439571Y-77470095D01*
X124534809Y-77517714D01*
X127111000Y-84751047D02*
X127063380Y-84846285D01*
X127063380Y-84989142D01*
X127111000Y-85132000D01*
X127206238Y-85227238D01*
X127301476Y-85274857D01*
X127491952Y-85322476D01*
X127634809Y-85322476D01*
X127825285Y-85274857D01*
X127920523Y-85227238D01*
X128015761Y-85132000D01*
X128063380Y-84989142D01*
X128063380Y-84893904D01*
X128015761Y-84751047D01*
X127968142Y-84703428D01*
X127634809Y-84703428D01*
X127634809Y-84893904D01*
X127063380Y-84370095D02*
X127063380Y-83751047D01*
X127444333Y-84084380D01*
X127444333Y-83941523D01*
X127491952Y-83846285D01*
X127539571Y-83798666D01*
X127634809Y-83751047D01*
X127872904Y-83751047D01*
X127968142Y-83798666D01*
X128015761Y-83846285D01*
X128063380Y-83941523D01*
X128063380Y-84227238D01*
X128015761Y-84322476D01*
X127968142Y-84370095D01*
X128063380Y-83322476D02*
X127063380Y-83322476D01*
X127777666Y-82989142D01*
X127063380Y-82655809D01*
X128063380Y-82655809D01*
X127539571Y-81846285D02*
X127587190Y-81703428D01*
X127634809Y-81655809D01*
X127730047Y-81608190D01*
X127872904Y-81608190D01*
X127968142Y-81655809D01*
X128015761Y-81703428D01*
X128063380Y-81798666D01*
X128063380Y-82179619D01*
X127063380Y-82179619D01*
X127063380Y-81846285D01*
X127111000Y-81751047D01*
X127158619Y-81703428D01*
X127253857Y-81655809D01*
X127349095Y-81655809D01*
X127444333Y-81703428D01*
X127491952Y-81751047D01*
X127539571Y-81846285D01*
X127539571Y-82179619D01*
X128158619Y-81417714D02*
X128158619Y-80655809D01*
X128015761Y-80465333D02*
X128063380Y-80322476D01*
X128063380Y-80084380D01*
X128015761Y-79989142D01*
X127968142Y-79941523D01*
X127872904Y-79893904D01*
X127777666Y-79893904D01*
X127682428Y-79941523D01*
X127634809Y-79989142D01*
X127587190Y-80084380D01*
X127539571Y-80274857D01*
X127491952Y-80370095D01*
X127444333Y-80417714D01*
X127349095Y-80465333D01*
X127253857Y-80465333D01*
X127158619Y-80417714D01*
X127111000Y-80370095D01*
X127063380Y-80274857D01*
X127063380Y-80036761D01*
X127111000Y-79893904D01*
X128015761Y-79512952D02*
X128063380Y-79370095D01*
X128063380Y-79132000D01*
X128015761Y-79036761D01*
X127968142Y-78989142D01*
X127872904Y-78941523D01*
X127777666Y-78941523D01*
X127682428Y-78989142D01*
X127634809Y-79036761D01*
X127587190Y-79132000D01*
X127539571Y-79322476D01*
X127491952Y-79417714D01*
X127444333Y-79465333D01*
X127349095Y-79512952D01*
X127253857Y-79512952D01*
X127158619Y-79465333D01*
X127111000Y-79417714D01*
X127063380Y-79322476D01*
X127063380Y-79084380D01*
X127111000Y-78941523D01*
X128063380Y-77941523D02*
X127587190Y-78274857D01*
X128063380Y-78512952D02*
X127063380Y-78512952D01*
X127063380Y-78132000D01*
X127111000Y-78036761D01*
X127158619Y-77989142D01*
X127253857Y-77941523D01*
X127396714Y-77941523D01*
X127491952Y-77989142D01*
X127539571Y-78036761D01*
X127587190Y-78132000D01*
X127587190Y-78512952D01*
%TO.C,U17*%
X157262380Y-121888095D02*
X158071904Y-121888095D01*
X158167142Y-121840476D01*
X158214761Y-121792857D01*
X158262380Y-121697619D01*
X158262380Y-121507142D01*
X158214761Y-121411904D01*
X158167142Y-121364285D01*
X158071904Y-121316666D01*
X157262380Y-121316666D01*
X158262380Y-120316666D02*
X158262380Y-120888095D01*
X158262380Y-120602380D02*
X157262380Y-120602380D01*
X157405238Y-120697619D01*
X157500476Y-120792857D01*
X157548095Y-120888095D01*
X157262380Y-119983333D02*
X157262380Y-119316666D01*
X158262380Y-119745238D01*
X154210000Y-120369047D02*
X154162380Y-120464285D01*
X154162380Y-120607142D01*
X154210000Y-120750000D01*
X154305238Y-120845238D01*
X154400476Y-120892857D01*
X154590952Y-120940476D01*
X154733809Y-120940476D01*
X154924285Y-120892857D01*
X155019523Y-120845238D01*
X155114761Y-120750000D01*
X155162380Y-120607142D01*
X155162380Y-120511904D01*
X155114761Y-120369047D01*
X155067142Y-120321428D01*
X154733809Y-120321428D01*
X154733809Y-120511904D01*
X154162380Y-119988095D02*
X154162380Y-119369047D01*
X154543333Y-119702380D01*
X154543333Y-119559523D01*
X154590952Y-119464285D01*
X154638571Y-119416666D01*
X154733809Y-119369047D01*
X154971904Y-119369047D01*
X155067142Y-119416666D01*
X155114761Y-119464285D01*
X155162380Y-119559523D01*
X155162380Y-119845238D01*
X155114761Y-119940476D01*
X155067142Y-119988095D01*
X155162380Y-118940476D02*
X154162380Y-118940476D01*
X154876666Y-118607142D01*
X154162380Y-118273809D01*
X155162380Y-118273809D01*
X154638571Y-117464285D02*
X154686190Y-117321428D01*
X154733809Y-117273809D01*
X154829047Y-117226190D01*
X154971904Y-117226190D01*
X155067142Y-117273809D01*
X155114761Y-117321428D01*
X155162380Y-117416666D01*
X155162380Y-117797619D01*
X154162380Y-117797619D01*
X154162380Y-117464285D01*
X154210000Y-117369047D01*
X154257619Y-117321428D01*
X154352857Y-117273809D01*
X154448095Y-117273809D01*
X154543333Y-117321428D01*
X154590952Y-117369047D01*
X154638571Y-117464285D01*
X154638571Y-117797619D01*
X155257619Y-117035714D02*
X155257619Y-116273809D01*
X155114761Y-116083333D02*
X155162380Y-115940476D01*
X155162380Y-115702380D01*
X155114761Y-115607142D01*
X155067142Y-115559523D01*
X154971904Y-115511904D01*
X154876666Y-115511904D01*
X154781428Y-115559523D01*
X154733809Y-115607142D01*
X154686190Y-115702380D01*
X154638571Y-115892857D01*
X154590952Y-115988095D01*
X154543333Y-116035714D01*
X154448095Y-116083333D01*
X154352857Y-116083333D01*
X154257619Y-116035714D01*
X154210000Y-115988095D01*
X154162380Y-115892857D01*
X154162380Y-115654761D01*
X154210000Y-115511904D01*
X155114761Y-115130952D02*
X155162380Y-114988095D01*
X155162380Y-114750000D01*
X155114761Y-114654761D01*
X155067142Y-114607142D01*
X154971904Y-114559523D01*
X154876666Y-114559523D01*
X154781428Y-114607142D01*
X154733809Y-114654761D01*
X154686190Y-114750000D01*
X154638571Y-114940476D01*
X154590952Y-115035714D01*
X154543333Y-115083333D01*
X154448095Y-115130952D01*
X154352857Y-115130952D01*
X154257619Y-115083333D01*
X154210000Y-115035714D01*
X154162380Y-114940476D01*
X154162380Y-114702380D01*
X154210000Y-114559523D01*
X155162380Y-113559523D02*
X154686190Y-113892857D01*
X155162380Y-114130952D02*
X154162380Y-114130952D01*
X154162380Y-113750000D01*
X154210000Y-113654761D01*
X154257619Y-113607142D01*
X154352857Y-113559523D01*
X154495714Y-113559523D01*
X154590952Y-113607142D01*
X154638571Y-113654761D01*
X154686190Y-113750000D01*
X154686190Y-114130952D01*
%TO.C,U18*%
X197902380Y-121888095D02*
X198711904Y-121888095D01*
X198807142Y-121840476D01*
X198854761Y-121792857D01*
X198902380Y-121697619D01*
X198902380Y-121507142D01*
X198854761Y-121411904D01*
X198807142Y-121364285D01*
X198711904Y-121316666D01*
X197902380Y-121316666D01*
X198902380Y-120316666D02*
X198902380Y-120888095D01*
X198902380Y-120602380D02*
X197902380Y-120602380D01*
X198045238Y-120697619D01*
X198140476Y-120792857D01*
X198188095Y-120888095D01*
X198330952Y-119745238D02*
X198283333Y-119840476D01*
X198235714Y-119888095D01*
X198140476Y-119935714D01*
X198092857Y-119935714D01*
X197997619Y-119888095D01*
X197950000Y-119840476D01*
X197902380Y-119745238D01*
X197902380Y-119554761D01*
X197950000Y-119459523D01*
X197997619Y-119411904D01*
X198092857Y-119364285D01*
X198140476Y-119364285D01*
X198235714Y-119411904D01*
X198283333Y-119459523D01*
X198330952Y-119554761D01*
X198330952Y-119745238D01*
X198378571Y-119840476D01*
X198426190Y-119888095D01*
X198521428Y-119935714D01*
X198711904Y-119935714D01*
X198807142Y-119888095D01*
X198854761Y-119840476D01*
X198902380Y-119745238D01*
X198902380Y-119554761D01*
X198854761Y-119459523D01*
X198807142Y-119411904D01*
X198711904Y-119364285D01*
X198521428Y-119364285D01*
X198426190Y-119411904D01*
X198378571Y-119459523D01*
X198330952Y-119554761D01*
X194850000Y-120369047D02*
X194802380Y-120464285D01*
X194802380Y-120607142D01*
X194850000Y-120750000D01*
X194945238Y-120845238D01*
X195040476Y-120892857D01*
X195230952Y-120940476D01*
X195373809Y-120940476D01*
X195564285Y-120892857D01*
X195659523Y-120845238D01*
X195754761Y-120750000D01*
X195802380Y-120607142D01*
X195802380Y-120511904D01*
X195754761Y-120369047D01*
X195707142Y-120321428D01*
X195373809Y-120321428D01*
X195373809Y-120511904D01*
X194802380Y-119988095D02*
X194802380Y-119369047D01*
X195183333Y-119702380D01*
X195183333Y-119559523D01*
X195230952Y-119464285D01*
X195278571Y-119416666D01*
X195373809Y-119369047D01*
X195611904Y-119369047D01*
X195707142Y-119416666D01*
X195754761Y-119464285D01*
X195802380Y-119559523D01*
X195802380Y-119845238D01*
X195754761Y-119940476D01*
X195707142Y-119988095D01*
X195802380Y-118940476D02*
X194802380Y-118940476D01*
X195516666Y-118607142D01*
X194802380Y-118273809D01*
X195802380Y-118273809D01*
X195278571Y-117464285D02*
X195326190Y-117321428D01*
X195373809Y-117273809D01*
X195469047Y-117226190D01*
X195611904Y-117226190D01*
X195707142Y-117273809D01*
X195754761Y-117321428D01*
X195802380Y-117416666D01*
X195802380Y-117797619D01*
X194802380Y-117797619D01*
X194802380Y-117464285D01*
X194850000Y-117369047D01*
X194897619Y-117321428D01*
X194992857Y-117273809D01*
X195088095Y-117273809D01*
X195183333Y-117321428D01*
X195230952Y-117369047D01*
X195278571Y-117464285D01*
X195278571Y-117797619D01*
X195897619Y-117035714D02*
X195897619Y-116273809D01*
X195754761Y-116083333D02*
X195802380Y-115940476D01*
X195802380Y-115702380D01*
X195754761Y-115607142D01*
X195707142Y-115559523D01*
X195611904Y-115511904D01*
X195516666Y-115511904D01*
X195421428Y-115559523D01*
X195373809Y-115607142D01*
X195326190Y-115702380D01*
X195278571Y-115892857D01*
X195230952Y-115988095D01*
X195183333Y-116035714D01*
X195088095Y-116083333D01*
X194992857Y-116083333D01*
X194897619Y-116035714D01*
X194850000Y-115988095D01*
X194802380Y-115892857D01*
X194802380Y-115654761D01*
X194850000Y-115511904D01*
X195754761Y-115130952D02*
X195802380Y-114988095D01*
X195802380Y-114750000D01*
X195754761Y-114654761D01*
X195707142Y-114607142D01*
X195611904Y-114559523D01*
X195516666Y-114559523D01*
X195421428Y-114607142D01*
X195373809Y-114654761D01*
X195326190Y-114750000D01*
X195278571Y-114940476D01*
X195230952Y-115035714D01*
X195183333Y-115083333D01*
X195088095Y-115130952D01*
X194992857Y-115130952D01*
X194897619Y-115083333D01*
X194850000Y-115035714D01*
X194802380Y-114940476D01*
X194802380Y-114702380D01*
X194850000Y-114559523D01*
X195802380Y-113559523D02*
X195326190Y-113892857D01*
X195802380Y-114130952D02*
X194802380Y-114130952D01*
X194802380Y-113750000D01*
X194850000Y-113654761D01*
X194897619Y-113607142D01*
X194992857Y-113559523D01*
X195135714Y-113559523D01*
X195230952Y-113607142D01*
X195278571Y-113654761D01*
X195326190Y-113750000D01*
X195326190Y-114130952D01*
%TO.C,ZONE0*%
X190146276Y-64425580D02*
X190812942Y-64425580D01*
X190146276Y-65425580D01*
X190812942Y-65425580D01*
X191384371Y-64425580D02*
X191574847Y-64425580D01*
X191670085Y-64473200D01*
X191765323Y-64568438D01*
X191812942Y-64758914D01*
X191812942Y-65092247D01*
X191765323Y-65282723D01*
X191670085Y-65377961D01*
X191574847Y-65425580D01*
X191384371Y-65425580D01*
X191289133Y-65377961D01*
X191193895Y-65282723D01*
X191146276Y-65092247D01*
X191146276Y-64758914D01*
X191193895Y-64568438D01*
X191289133Y-64473200D01*
X191384371Y-64425580D01*
X192241514Y-65425580D02*
X192241514Y-64425580D01*
X192812942Y-65425580D01*
X192812942Y-64425580D01*
X193289133Y-64901771D02*
X193622466Y-64901771D01*
X193765323Y-65425580D02*
X193289133Y-65425580D01*
X193289133Y-64425580D01*
X193765323Y-64425580D01*
X194384371Y-64425580D02*
X194479609Y-64425580D01*
X194574847Y-64473200D01*
X194622466Y-64520819D01*
X194670085Y-64616057D01*
X194717704Y-64806533D01*
X194717704Y-65044628D01*
X194670085Y-65235104D01*
X194622466Y-65330342D01*
X194574847Y-65377961D01*
X194479609Y-65425580D01*
X194384371Y-65425580D01*
X194289133Y-65377961D01*
X194241514Y-65330342D01*
X194193895Y-65235104D01*
X194146276Y-65044628D01*
X194146276Y-64806533D01*
X194193895Y-64616057D01*
X194241514Y-64520819D01*
X194289133Y-64473200D01*
X194384371Y-64425580D01*
%TO.C,ZONE1*%
X169419876Y-64273180D02*
X170086542Y-64273180D01*
X169419876Y-65273180D01*
X170086542Y-65273180D01*
X170657971Y-64273180D02*
X170848447Y-64273180D01*
X170943685Y-64320800D01*
X171038923Y-64416038D01*
X171086542Y-64606514D01*
X171086542Y-64939847D01*
X171038923Y-65130323D01*
X170943685Y-65225561D01*
X170848447Y-65273180D01*
X170657971Y-65273180D01*
X170562733Y-65225561D01*
X170467495Y-65130323D01*
X170419876Y-64939847D01*
X170419876Y-64606514D01*
X170467495Y-64416038D01*
X170562733Y-64320800D01*
X170657971Y-64273180D01*
X171515114Y-65273180D02*
X171515114Y-64273180D01*
X172086542Y-65273180D01*
X172086542Y-64273180D01*
X172562733Y-64749371D02*
X172896066Y-64749371D01*
X173038923Y-65273180D02*
X172562733Y-65273180D01*
X172562733Y-64273180D01*
X173038923Y-64273180D01*
X173991304Y-65273180D02*
X173419876Y-65273180D01*
X173705590Y-65273180D02*
X173705590Y-64273180D01*
X173610352Y-64416038D01*
X173515114Y-64511276D01*
X173419876Y-64558895D01*
%TO.C,ZONE2*%
X149074476Y-64349380D02*
X149741142Y-64349380D01*
X149074476Y-65349380D01*
X149741142Y-65349380D01*
X150312571Y-64349380D02*
X150503047Y-64349380D01*
X150598285Y-64397000D01*
X150693523Y-64492238D01*
X150741142Y-64682714D01*
X150741142Y-65016047D01*
X150693523Y-65206523D01*
X150598285Y-65301761D01*
X150503047Y-65349380D01*
X150312571Y-65349380D01*
X150217333Y-65301761D01*
X150122095Y-65206523D01*
X150074476Y-65016047D01*
X150074476Y-64682714D01*
X150122095Y-64492238D01*
X150217333Y-64397000D01*
X150312571Y-64349380D01*
X151169714Y-65349380D02*
X151169714Y-64349380D01*
X151741142Y-65349380D01*
X151741142Y-64349380D01*
X152217333Y-64825571D02*
X152550666Y-64825571D01*
X152693523Y-65349380D02*
X152217333Y-65349380D01*
X152217333Y-64349380D01*
X152693523Y-64349380D01*
X153074476Y-64444619D02*
X153122095Y-64397000D01*
X153217333Y-64349380D01*
X153455428Y-64349380D01*
X153550666Y-64397000D01*
X153598285Y-64444619D01*
X153645904Y-64539857D01*
X153645904Y-64635095D01*
X153598285Y-64777952D01*
X153026857Y-65349380D01*
X153645904Y-65349380D01*
%TO.C,ZONE3*%
X128424276Y-64349380D02*
X129090942Y-64349380D01*
X128424276Y-65349380D01*
X129090942Y-65349380D01*
X129662371Y-64349380D02*
X129852847Y-64349380D01*
X129948085Y-64397000D01*
X130043323Y-64492238D01*
X130090942Y-64682714D01*
X130090942Y-65016047D01*
X130043323Y-65206523D01*
X129948085Y-65301761D01*
X129852847Y-65349380D01*
X129662371Y-65349380D01*
X129567133Y-65301761D01*
X129471895Y-65206523D01*
X129424276Y-65016047D01*
X129424276Y-64682714D01*
X129471895Y-64492238D01*
X129567133Y-64397000D01*
X129662371Y-64349380D01*
X130519514Y-65349380D02*
X130519514Y-64349380D01*
X131090942Y-65349380D01*
X131090942Y-64349380D01*
X131567133Y-64825571D02*
X131900466Y-64825571D01*
X132043323Y-65349380D02*
X131567133Y-65349380D01*
X131567133Y-64349380D01*
X132043323Y-64349380D01*
X132376657Y-64349380D02*
X132995704Y-64349380D01*
X132662371Y-64730333D01*
X132805228Y-64730333D01*
X132900466Y-64777952D01*
X132948085Y-64825571D01*
X132995704Y-64920809D01*
X132995704Y-65158904D01*
X132948085Y-65254142D01*
X132900466Y-65301761D01*
X132805228Y-65349380D01*
X132519514Y-65349380D01*
X132424276Y-65301761D01*
X132376657Y-65254142D01*
%TO.C,ZONE4*%
X128602076Y-133564380D02*
X129268742Y-133564380D01*
X128602076Y-134564380D01*
X129268742Y-134564380D01*
X129840171Y-133564380D02*
X130030647Y-133564380D01*
X130125885Y-133612000D01*
X130221123Y-133707238D01*
X130268742Y-133897714D01*
X130268742Y-134231047D01*
X130221123Y-134421523D01*
X130125885Y-134516761D01*
X130030647Y-134564380D01*
X129840171Y-134564380D01*
X129744933Y-134516761D01*
X129649695Y-134421523D01*
X129602076Y-134231047D01*
X129602076Y-133897714D01*
X129649695Y-133707238D01*
X129744933Y-133612000D01*
X129840171Y-133564380D01*
X130697314Y-134564380D02*
X130697314Y-133564380D01*
X131268742Y-134564380D01*
X131268742Y-133564380D01*
X131744933Y-134040571D02*
X132078266Y-134040571D01*
X132221123Y-134564380D02*
X131744933Y-134564380D01*
X131744933Y-133564380D01*
X132221123Y-133564380D01*
X133078266Y-133897714D02*
X133078266Y-134564380D01*
X132840171Y-133516761D02*
X132602076Y-134231047D01*
X133221123Y-134231047D01*
%TO.C,ZONE5*%
X149328476Y-133488180D02*
X149995142Y-133488180D01*
X149328476Y-134488180D01*
X149995142Y-134488180D01*
X150566571Y-133488180D02*
X150757047Y-133488180D01*
X150852285Y-133535800D01*
X150947523Y-133631038D01*
X150995142Y-133821514D01*
X150995142Y-134154847D01*
X150947523Y-134345323D01*
X150852285Y-134440561D01*
X150757047Y-134488180D01*
X150566571Y-134488180D01*
X150471333Y-134440561D01*
X150376095Y-134345323D01*
X150328476Y-134154847D01*
X150328476Y-133821514D01*
X150376095Y-133631038D01*
X150471333Y-133535800D01*
X150566571Y-133488180D01*
X151423714Y-134488180D02*
X151423714Y-133488180D01*
X151995142Y-134488180D01*
X151995142Y-133488180D01*
X152471333Y-133964371D02*
X152804666Y-133964371D01*
X152947523Y-134488180D02*
X152471333Y-134488180D01*
X152471333Y-133488180D01*
X152947523Y-133488180D01*
X153852285Y-133488180D02*
X153376095Y-133488180D01*
X153328476Y-133964371D01*
X153376095Y-133916752D01*
X153471333Y-133869133D01*
X153709428Y-133869133D01*
X153804666Y-133916752D01*
X153852285Y-133964371D01*
X153899904Y-134059609D01*
X153899904Y-134297704D01*
X153852285Y-134392942D01*
X153804666Y-134440561D01*
X153709428Y-134488180D01*
X153471333Y-134488180D01*
X153376095Y-134440561D01*
X153328476Y-134392942D01*
%TD*%
M02*
