%TF.GenerationSoftware,KiCad,Pcbnew,(5.0.1)-3*%
%TF.CreationDate,2018-12-23T11:35:52+11:00*%
%TF.ProjectId,1Wire-AC_Zoning,31576972652D41435F5A6F6E696E672E,1.2*%
%TF.SameCoordinates,Original*%
%TF.FileFunction,Copper,L1,Top,Signal*%
%TF.FilePolarity,Positive*%
%FSLAX46Y46*%
G04 Gerber Fmt 4.6, Leading zero omitted, Abs format (unit mm)*
G04 Created by KiCad (PCBNEW (5.0.1)-3) date 23/12/2018 11:35:52 AM*
%MOMM*%
%LPD*%
G01*
G04 APERTURE LIST*
%TA.AperFunction,SMDPad,CuDef*%
%ADD10R,1.500000X1.500000*%
%TD*%
%TA.AperFunction,SMDPad,CuDef*%
%ADD11R,1.500000X4.000000*%
%TD*%
%TA.AperFunction,ComponentPad*%
%ADD12C,0.900000*%
%TD*%
%TA.AperFunction,SMDPad,CuDef*%
%ADD13R,0.600000X2.100000*%
%TD*%
%TA.AperFunction,SMDPad,CuDef*%
%ADD14R,0.250000X1.000000*%
%TD*%
%TA.AperFunction,SMDPad,CuDef*%
%ADD15R,1.000000X0.250000*%
%TD*%
%TA.AperFunction,SMDPad,CuDef*%
%ADD16R,3.600000X1.270000*%
%TD*%
%TA.AperFunction,SMDPad,CuDef*%
%ADD17R,4.000000X1.500000*%
%TD*%
%TA.AperFunction,SMDPad,CuDef*%
%ADD18R,2.100000X0.600000*%
%TD*%
%TA.AperFunction,ComponentPad*%
%ADD19R,3.500120X3.500120*%
%TD*%
%TA.AperFunction,SMDPad,CuDef*%
%ADD20R,4.000000X2.500000*%
%TD*%
%TA.AperFunction,SMDPad,CuDef*%
%ADD21R,0.800000X0.750000*%
%TD*%
%TA.AperFunction,SMDPad,CuDef*%
%ADD22R,0.750000X0.800000*%
%TD*%
%TA.AperFunction,ComponentPad*%
%ADD23R,1.700000X1.700000*%
%TD*%
%TA.AperFunction,ComponentPad*%
%ADD24O,1.700000X1.700000*%
%TD*%
%TA.AperFunction,SMDPad,CuDef*%
%ADD25R,0.500000X0.900000*%
%TD*%
%TA.AperFunction,SMDPad,CuDef*%
%ADD26R,2.000000X3.500000*%
%TD*%
%TA.AperFunction,SMDPad,CuDef*%
%ADD27R,7.000000X7.000000*%
%TD*%
%TA.AperFunction,ComponentPad*%
%ADD28C,2.500000*%
%TD*%
%TA.AperFunction,ComponentPad*%
%ADD29C,1.500000*%
%TD*%
%TA.AperFunction,ComponentPad*%
%ADD30C,2.000000*%
%TD*%
%TA.AperFunction,ViaPad*%
%ADD31C,0.600000*%
%TD*%
%TA.AperFunction,Conductor*%
%ADD32C,1.000000*%
%TD*%
%TA.AperFunction,Conductor*%
%ADD33C,0.250000*%
%TD*%
%TA.AperFunction,Conductor*%
%ADD34C,0.249800*%
%TD*%
%TA.AperFunction,Conductor*%
%ADD35C,0.599800*%
%TD*%
%TA.AperFunction,Conductor*%
%ADD36C,0.749800*%
%TD*%
%TA.AperFunction,Conductor*%
%ADD37C,0.800000*%
%TD*%
%TA.AperFunction,Conductor*%
%ADD38C,2.000000*%
%TD*%
%TA.AperFunction,Conductor*%
%ADD39C,0.254000*%
%TD*%
G04 APERTURE END LIST*
D10*
%TO.P,J3,3*%
%TO.N,GND*%
X111442000Y-108968000D03*
%TO.P,J3,1*%
%TO.N,+5V*%
X118142000Y-108968000D03*
%TO.P,J3,2*%
%TO.N,/MAINS_ENABLE*%
X114642000Y-108968000D03*
%TO.P,J3,3*%
%TO.N,GND*%
X111442000Y-115568000D03*
%TO.P,J3,2*%
%TO.N,/MAINS_ENABLE*%
X114642000Y-115568000D03*
%TO.P,J3,1*%
%TO.N,+5V*%
X118142000Y-115568000D03*
%TD*%
D11*
%TO.P,ZONE7,9*%
%TO.N,Net-(ZONE7-Pad9)*%
X183517000Y-143187000D03*
D12*
X183517000Y-143187000D03*
D13*
%TO.P,ZONE7,8*%
%TO.N,Net-(ZONE7-Pad8)*%
X195717000Y-136207000D03*
%TO.P,ZONE7,7*%
%TO.N,Net-(U18-Pad1)*%
X194697000Y-136207000D03*
%TO.P,ZONE7,6*%
X193677000Y-136207000D03*
%TO.P,ZONE7,5*%
%TO.N,/24VAC_N*%
X192657000Y-136207000D03*
%TO.P,ZONE7,4*%
X191637000Y-136207000D03*
%TO.P,ZONE7,3*%
%TO.N,Net-(U14-Pad1)*%
X190617000Y-136207000D03*
%TO.P,ZONE7,2*%
X189597000Y-136207000D03*
%TO.P,ZONE7,1*%
%TO.N,Net-(ZONE7-Pad1)*%
X188577000Y-136207000D03*
D12*
%TO.P,ZONE7,9*%
%TO.N,Net-(ZONE7-Pad9)*%
X200617000Y-143187000D03*
D11*
X200617000Y-143187000D03*
%TD*%
%TO.P,ZONE6,9*%
%TO.N,Net-(ZONE6-Pad9)*%
X163197000Y-143187000D03*
D12*
X163197000Y-143187000D03*
D13*
%TO.P,ZONE6,8*%
%TO.N,Net-(ZONE6-Pad8)*%
X175397000Y-136207000D03*
%TO.P,ZONE6,7*%
%TO.N,Net-(U10-Pad1)*%
X174377000Y-136207000D03*
%TO.P,ZONE6,6*%
X173357000Y-136207000D03*
%TO.P,ZONE6,5*%
%TO.N,/24VAC_N*%
X172337000Y-136207000D03*
%TO.P,ZONE6,4*%
X171317000Y-136207000D03*
%TO.P,ZONE6,3*%
%TO.N,Net-(U6-Pad1)*%
X170297000Y-136207000D03*
%TO.P,ZONE6,2*%
X169277000Y-136207000D03*
%TO.P,ZONE6,1*%
%TO.N,Net-(ZONE6-Pad1)*%
X168257000Y-136207000D03*
D12*
%TO.P,ZONE6,9*%
%TO.N,Net-(ZONE6-Pad9)*%
X180297000Y-143187000D03*
D11*
X180297000Y-143187000D03*
%TD*%
D14*
%TO.P,U2,1*%
%TO.N,+3V3*%
X156270000Y-104760000D03*
%TO.P,U2,2*%
%TO.N,Net-(U2-Pad2)*%
X156770000Y-104760000D03*
%TO.P,U2,3*%
%TO.N,Net-(U2-Pad3)*%
X157270000Y-104760000D03*
%TO.P,U2,4*%
%TO.N,Net-(U2-Pad4)*%
X157770000Y-104760000D03*
%TO.P,U2,5*%
%TO.N,/1W-DATA*%
X158270000Y-104760000D03*
%TO.P,U2,6*%
%TO.N,Net-(U2-Pad6)*%
X158770000Y-104760000D03*
%TO.P,U2,7*%
%TO.N,Net-(P1-Pad10)*%
X159270000Y-104760000D03*
%TO.P,U2,8*%
%TO.N,Net-(U2-Pad8)*%
X159770000Y-104760000D03*
%TO.P,U2,9*%
%TO.N,Net-(U2-Pad9)*%
X160270000Y-104760000D03*
%TO.P,U2,10*%
%TO.N,Net-(U2-Pad10)*%
X160770000Y-104760000D03*
%TO.P,U2,11*%
%TO.N,Net-(U2-Pad11)*%
X161270000Y-104760000D03*
%TO.P,U2,12*%
%TO.N,GND*%
X161770000Y-104760000D03*
%TO.P,U2,13*%
%TO.N,+3V3*%
X162270000Y-104760000D03*
%TO.P,U2,14*%
%TO.N,Net-(U2-Pad14)*%
X162770000Y-104760000D03*
%TO.P,U2,15*%
%TO.N,Net-(U2-Pad15)*%
X163270000Y-104760000D03*
%TO.P,U2,16*%
%TO.N,/UART_TX*%
X163770000Y-104760000D03*
D15*
%TO.P,U2,17*%
%TO.N,/UART_RX*%
X165720000Y-102810000D03*
%TO.P,U2,18*%
%TO.N,/ZONE6_OPEN*%
X165720000Y-102310000D03*
%TO.P,U2,19*%
%TO.N,/ZONE6_CLOSE*%
X165720000Y-101810000D03*
%TO.P,U2,20*%
%TO.N,Net-(U2-Pad20)*%
X165720000Y-101310000D03*
%TO.P,U2,21*%
%TO.N,Net-(U2-Pad21)*%
X165720000Y-100810000D03*
%TO.P,U2,22*%
%TO.N,Net-(U2-Pad22)*%
X165720000Y-100310000D03*
%TO.P,U2,23*%
%TO.N,Net-(U2-Pad23)*%
X165720000Y-99810000D03*
%TO.P,U2,24*%
%TO.N,Net-(U2-Pad24)*%
X165720000Y-99310000D03*
%TO.P,U2,25*%
%TO.N,Net-(U2-Pad25)*%
X165720000Y-98810000D03*
%TO.P,U2,26*%
%TO.N,Net-(U2-Pad26)*%
X165720000Y-98310000D03*
%TO.P,U2,27*%
%TO.N,Net-(U2-Pad27)*%
X165720000Y-97810000D03*
%TO.P,U2,28*%
%TO.N,Net-(U2-Pad28)*%
X165720000Y-97310000D03*
%TO.P,U2,29*%
%TO.N,Net-(U2-Pad29)*%
X165720000Y-96810000D03*
%TO.P,U2,30*%
%TO.N,Net-(U2-Pad30)*%
X165720000Y-96310000D03*
%TO.P,U2,31*%
%TO.N,GND*%
X165720000Y-95810000D03*
%TO.P,U2,32*%
%TO.N,+3V3*%
X165720000Y-95310000D03*
D14*
%TO.P,U2,33*%
%TO.N,/ZONE7_OPEN*%
X163770000Y-93360000D03*
%TO.P,U2,34*%
%TO.N,/ZONE7_CLOSE*%
X163270000Y-93360000D03*
%TO.P,U2,35*%
%TO.N,/ZONE0_OPEN*%
X162770000Y-93360000D03*
%TO.P,U2,36*%
%TO.N,/ZONE0_CLOSE*%
X162270000Y-93360000D03*
%TO.P,U2,37*%
%TO.N,/ZONE1_OPEN*%
X161770000Y-93360000D03*
%TO.P,U2,38*%
%TO.N,/ZONE1_CLOSE*%
X161270000Y-93360000D03*
%TO.P,U2,39*%
%TO.N,Net-(U2-Pad39)*%
X160770000Y-93360000D03*
%TO.P,U2,40*%
%TO.N,/ZONE2_OPEN*%
X160270000Y-93360000D03*
%TO.P,U2,41*%
%TO.N,Net-(U2-Pad41)*%
X159770000Y-93360000D03*
%TO.P,U2,42*%
%TO.N,/ZONE2_CLOSE*%
X159270000Y-93360000D03*
%TO.P,U2,43*%
%TO.N,Net-(U2-Pad43)*%
X158770000Y-93360000D03*
%TO.P,U2,44*%
%TO.N,/ZONE3_OPEN*%
X158270000Y-93360000D03*
%TO.P,U2,45*%
%TO.N,Net-(U2-Pad45)*%
X157770000Y-93360000D03*
%TO.P,U2,46*%
%TO.N,/SWDAT*%
X157270000Y-93360000D03*
%TO.P,U2,47*%
%TO.N,Net-(U2-Pad47)*%
X156770000Y-93360000D03*
%TO.P,U2,48*%
%TO.N,/ZONE3_CLOSE*%
X156270000Y-93360000D03*
D15*
%TO.P,U2,49*%
%TO.N,/SWCLK*%
X154320000Y-95310000D03*
%TO.P,U2,50*%
%TO.N,Net-(U2-Pad50)*%
X154320000Y-95810000D03*
%TO.P,U2,51*%
%TO.N,/ZONE4_OPEN*%
X154320000Y-96310000D03*
%TO.P,U2,52*%
%TO.N,Net-(U2-Pad52)*%
X154320000Y-96810000D03*
%TO.P,U2,53*%
%TO.N,/ZONE4_CLOSE*%
X154320000Y-97310000D03*
%TO.P,U2,54*%
%TO.N,N/C*%
X154320000Y-97810000D03*
%TO.P,U2,55*%
%TO.N,Net-(U2-Pad55)*%
X154320000Y-98310000D03*
%TO.P,U2,56*%
%TO.N,/ZONE5_OPEN*%
X154320000Y-98810000D03*
%TO.P,U2,57*%
%TO.N,Net-(U2-Pad57)*%
X154320000Y-99310000D03*
%TO.P,U2,58*%
%TO.N,/ZONE5_CLOSE*%
X154320000Y-99810000D03*
%TO.P,U2,59*%
%TO.N,Net-(U2-Pad59)*%
X154320000Y-100310000D03*
%TO.P,U2,60*%
%TO.N,GND*%
X154320000Y-100810000D03*
%TO.P,U2,61*%
%TO.N,Net-(U2-Pad61)*%
X154320000Y-101310000D03*
%TO.P,U2,62*%
%TO.N,Net-(U2-Pad62)*%
X154320000Y-101810000D03*
%TO.P,U2,63*%
%TO.N,GND*%
X154320000Y-102310000D03*
%TO.P,U2,64*%
%TO.N,+3V3*%
X154320000Y-102810000D03*
%TD*%
D16*
%TO.P,P1,1*%
%TO.N,+3V3*%
X179172000Y-94488000D03*
%TO.P,P1,3*%
%TO.N,GND*%
X179172000Y-97028000D03*
%TO.P,P1,5*%
X179172000Y-99568000D03*
%TO.P,P1,7*%
%TO.N,Net-(P1-Pad7)*%
X179172000Y-102108000D03*
%TO.P,P1,8*%
%TO.N,Net-(P1-Pad8)*%
X185572000Y-102108000D03*
%TO.P,P1,6*%
%TO.N,Net-(P1-Pad6)*%
X185572000Y-99568000D03*
%TO.P,P1,4*%
%TO.N,/SWCLK*%
X185572000Y-97028000D03*
%TO.P,P1,2*%
%TO.N,/SWDAT*%
X185572000Y-94488000D03*
%TO.P,P1,9*%
%TO.N,GND*%
X179172000Y-104648000D03*
%TO.P,P1,10*%
%TO.N,Net-(P1-Pad10)*%
X185572000Y-104648000D03*
%TD*%
D17*
%TO.P,J2,9*%
%TO.N,GND*%
X112972000Y-63375000D03*
D12*
X112972000Y-63375000D03*
D18*
%TO.P,J2,8*%
X119952000Y-75575000D03*
%TO.P,J2,7*%
%TO.N,Net-(J1-Pad7)*%
X119952000Y-74555000D03*
%TO.P,J2,6*%
%TO.N,Net-(J1-Pad6)*%
X119952000Y-73535000D03*
%TO.P,J2,5*%
%TO.N,GND*%
X119952000Y-72515000D03*
%TO.P,J2,4*%
%TO.N,/1W-DATA*%
X119952000Y-71495000D03*
%TO.P,J2,3*%
%TO.N,GND*%
X119952000Y-70475000D03*
%TO.P,J2,2*%
%TO.N,+5V*%
X119952000Y-69455000D03*
%TO.P,J2,1*%
%TO.N,GND*%
X119952000Y-68435000D03*
D12*
%TO.P,J2,9*%
X112972000Y-80475000D03*
D17*
X112972000Y-80475000D03*
%TD*%
D19*
%TO.P,CON1,1*%
%TO.N,/24VAC_LIVE*%
X199768860Y-90170000D03*
%TO.P,CON1,2*%
%TO.N,Net-(CON1-Pad2)*%
X205768340Y-90170000D03*
%TO.P,CON1,3*%
%TO.N,/24VAC_N*%
X202768600Y-85471000D03*
%TD*%
D20*
%TO.P,C1,1*%
%TO.N,+5V*%
X132590000Y-96520000D03*
%TO.P,C1,2*%
%TO.N,GND*%
X126490000Y-96520000D03*
%TD*%
D21*
%TO.P,C2,1*%
%TO.N,+3V3*%
X163183000Y-110172000D03*
%TO.P,C2,2*%
%TO.N,GND*%
X161683000Y-110172000D03*
%TD*%
%TO.P,C3,1*%
%TO.N,+3V3*%
X163183000Y-108648000D03*
%TO.P,C3,2*%
%TO.N,GND*%
X161683000Y-108648000D03*
%TD*%
D22*
%TO.P,C4,1*%
%TO.N,+3V3*%
X169799000Y-94690000D03*
%TO.P,C4,2*%
%TO.N,GND*%
X169799000Y-96190000D03*
%TD*%
%TO.P,C5,1*%
%TO.N,+3V3*%
X151194000Y-103810000D03*
%TO.P,C5,2*%
%TO.N,GND*%
X151194000Y-102310000D03*
%TD*%
D17*
%TO.P,J1,9*%
%TO.N,GND*%
X112972000Y-82933000D03*
D12*
X112972000Y-82933000D03*
D18*
%TO.P,J1,8*%
X119952000Y-95133000D03*
%TO.P,J1,7*%
%TO.N,Net-(J1-Pad7)*%
X119952000Y-94113000D03*
%TO.P,J1,6*%
%TO.N,Net-(J1-Pad6)*%
X119952000Y-93093000D03*
%TO.P,J1,5*%
%TO.N,GND*%
X119952000Y-92073000D03*
%TO.P,J1,4*%
%TO.N,/1W-DATA*%
X119952000Y-91053000D03*
%TO.P,J1,3*%
%TO.N,GND*%
X119952000Y-90033000D03*
%TO.P,J1,2*%
%TO.N,+5V*%
X119952000Y-89013000D03*
%TO.P,J1,1*%
%TO.N,GND*%
X119952000Y-87993000D03*
D12*
%TO.P,J1,9*%
X112972000Y-100033000D03*
D17*
X112972000Y-100033000D03*
%TD*%
D23*
%TO.P,P6,1*%
%TO.N,/1W-DATA*%
X195072000Y-104648000D03*
D24*
%TO.P,P6,2*%
%TO.N,+3V3*%
X195072000Y-102108000D03*
%TO.P,P6,3*%
%TO.N,/UART_TX*%
X195072000Y-99568000D03*
%TO.P,P6,4*%
%TO.N,/UART_RX*%
X195072000Y-97028000D03*
%TO.P,P6,5*%
%TO.N,GND*%
X195072000Y-94488000D03*
%TD*%
D25*
%TO.P,R1,1*%
%TO.N,+3V3*%
X184404000Y-107696000D03*
%TO.P,R1,2*%
%TO.N,Net-(P1-Pad10)*%
X182904000Y-107696000D03*
%TD*%
D26*
%TO.P,U1,1*%
%TO.N,+5V*%
X139950000Y-105300000D03*
%TO.P,U1,3*%
%TO.N,+3V3*%
X144530000Y-105300000D03*
D27*
%TO.P,U1,2*%
%TO.N,GND*%
X142250000Y-97900000D03*
%TD*%
D28*
%TO.P,P2,1*%
%TO.N,/24VAC_LIVE*%
X202427000Y-74422000D03*
%TO.P,P2,2*%
%TO.N,/24VAC_N*%
X202427000Y-79502000D03*
%TD*%
D29*
%TO.P,U3,4*%
%TO.N,/ZONE0_OPEN*%
X196091000Y-88392000D03*
%TO.P,U3,3*%
%TO.N,+5V*%
X196091000Y-85852000D03*
D30*
%TO.P,U3,2*%
%TO.N,/24VAC_LIVE*%
X196091000Y-75692000D03*
%TO.P,U3,1*%
%TO.N,Net-(U3-Pad1)*%
X196091000Y-68072000D03*
%TD*%
D29*
%TO.P,U4,4*%
%TO.N,/ZONE2_OPEN*%
X155451000Y-88392000D03*
%TO.P,U4,3*%
%TO.N,+5V*%
X155451000Y-85852000D03*
D30*
%TO.P,U4,2*%
%TO.N,/24VAC_LIVE*%
X155451000Y-75692000D03*
%TO.P,U4,1*%
%TO.N,Net-(U4-Pad1)*%
X155451000Y-68072000D03*
%TD*%
D29*
%TO.P,U5,4*%
%TO.N,/ZONE4_OPEN*%
X126870000Y-110490000D03*
%TO.P,U5,3*%
%TO.N,+5V*%
X126870000Y-113030000D03*
D30*
%TO.P,U5,2*%
%TO.N,/24VAC_LIVE*%
X126870000Y-123190000D03*
%TO.P,U5,1*%
%TO.N,Net-(U5-Pad1)*%
X126870000Y-130810000D03*
%TD*%
D29*
%TO.P,U6,4*%
%TO.N,/ZONE6_OPEN*%
X167510000Y-110490000D03*
%TO.P,U6,3*%
%TO.N,+5V*%
X167510000Y-113030000D03*
D30*
%TO.P,U6,2*%
%TO.N,/24VAC_LIVE*%
X167510000Y-123190000D03*
%TO.P,U6,1*%
%TO.N,Net-(U6-Pad1)*%
X167510000Y-130810000D03*
%TD*%
D29*
%TO.P,U7,4*%
%TO.N,/ZONE0_CLOSE*%
X188471000Y-88392000D03*
%TO.P,U7,3*%
%TO.N,+5V*%
X188471000Y-85852000D03*
D30*
%TO.P,U7,2*%
%TO.N,/24VAC_LIVE*%
X188471000Y-75692000D03*
%TO.P,U7,1*%
%TO.N,Net-(U7-Pad1)*%
X188471000Y-68072000D03*
%TD*%
D29*
%TO.P,U8,4*%
%TO.N,/ZONE2_CLOSE*%
X147831000Y-88392000D03*
%TO.P,U8,3*%
%TO.N,+5V*%
X147831000Y-85852000D03*
D30*
%TO.P,U8,2*%
%TO.N,/24VAC_LIVE*%
X147831000Y-75692000D03*
%TO.P,U8,1*%
%TO.N,Net-(U8-Pad1)*%
X147831000Y-68072000D03*
%TD*%
D29*
%TO.P,U9,4*%
%TO.N,/ZONE4_CLOSE*%
X134490000Y-110490000D03*
%TO.P,U9,3*%
%TO.N,+5V*%
X134490000Y-113030000D03*
D30*
%TO.P,U9,2*%
%TO.N,/24VAC_LIVE*%
X134490000Y-123190000D03*
%TO.P,U9,1*%
%TO.N,Net-(U9-Pad1)*%
X134490000Y-130810000D03*
%TD*%
D29*
%TO.P,U10,4*%
%TO.N,/ZONE6_CLOSE*%
X175130000Y-110490000D03*
%TO.P,U10,3*%
%TO.N,+5V*%
X175130000Y-113030000D03*
D30*
%TO.P,U10,2*%
%TO.N,/24VAC_LIVE*%
X175130000Y-123190000D03*
%TO.P,U10,1*%
%TO.N,Net-(U10-Pad1)*%
X175130000Y-130810000D03*
%TD*%
D29*
%TO.P,U11,4*%
%TO.N,/ZONE1_OPEN*%
X175771000Y-88392000D03*
%TO.P,U11,3*%
%TO.N,+5V*%
X175771000Y-85852000D03*
D30*
%TO.P,U11,2*%
%TO.N,/24VAC_LIVE*%
X175771000Y-75692000D03*
%TO.P,U11,1*%
%TO.N,Net-(U11-Pad1)*%
X175771000Y-68072000D03*
%TD*%
D29*
%TO.P,U12,4*%
%TO.N,/ZONE3_OPEN*%
X135131000Y-88392000D03*
%TO.P,U12,3*%
%TO.N,+5V*%
X135131000Y-85852000D03*
D30*
%TO.P,U12,2*%
%TO.N,/24VAC_LIVE*%
X135131000Y-75692000D03*
%TO.P,U12,1*%
%TO.N,Net-(U12-Pad1)*%
X135131000Y-68072000D03*
%TD*%
D29*
%TO.P,U13,4*%
%TO.N,/ZONE5_OPEN*%
X147190000Y-110490000D03*
%TO.P,U13,3*%
%TO.N,+5V*%
X147190000Y-113030000D03*
D30*
%TO.P,U13,2*%
%TO.N,/24VAC_LIVE*%
X147190000Y-123190000D03*
%TO.P,U13,1*%
%TO.N,Net-(U13-Pad1)*%
X147190000Y-130810000D03*
%TD*%
D29*
%TO.P,U14,4*%
%TO.N,/ZONE7_OPEN*%
X187830000Y-110490000D03*
%TO.P,U14,3*%
%TO.N,+5V*%
X187830000Y-113030000D03*
D30*
%TO.P,U14,2*%
%TO.N,/24VAC_LIVE*%
X187830000Y-123190000D03*
%TO.P,U14,1*%
%TO.N,Net-(U14-Pad1)*%
X187830000Y-130810000D03*
%TD*%
D29*
%TO.P,U15,4*%
%TO.N,/ZONE1_CLOSE*%
X168151000Y-88392000D03*
%TO.P,U15,3*%
%TO.N,+5V*%
X168151000Y-85852000D03*
D30*
%TO.P,U15,2*%
%TO.N,/24VAC_LIVE*%
X168151000Y-75692000D03*
%TO.P,U15,1*%
%TO.N,Net-(U15-Pad1)*%
X168151000Y-68072000D03*
%TD*%
D29*
%TO.P,U16,4*%
%TO.N,/ZONE3_CLOSE*%
X127511000Y-88392000D03*
%TO.P,U16,3*%
%TO.N,+5V*%
X127511000Y-85852000D03*
D30*
%TO.P,U16,2*%
%TO.N,/24VAC_LIVE*%
X127511000Y-75692000D03*
%TO.P,U16,1*%
%TO.N,Net-(U16-Pad1)*%
X127511000Y-68072000D03*
%TD*%
D29*
%TO.P,U17,4*%
%TO.N,/ZONE5_CLOSE*%
X154810000Y-110490000D03*
%TO.P,U17,3*%
%TO.N,+5V*%
X154810000Y-113030000D03*
D30*
%TO.P,U17,2*%
%TO.N,/24VAC_LIVE*%
X154810000Y-123190000D03*
%TO.P,U17,1*%
%TO.N,Net-(U17-Pad1)*%
X154810000Y-130810000D03*
%TD*%
D29*
%TO.P,U18,4*%
%TO.N,/ZONE7_CLOSE*%
X195450000Y-110490000D03*
%TO.P,U18,3*%
%TO.N,+5V*%
X195450000Y-113030000D03*
D30*
%TO.P,U18,2*%
%TO.N,/24VAC_LIVE*%
X195450000Y-123190000D03*
%TO.P,U18,1*%
%TO.N,Net-(U18-Pad1)*%
X195450000Y-130810000D03*
%TD*%
D11*
%TO.P,ZONE0,9*%
%TO.N,Net-(ZONE0-Pad9)*%
X200531000Y-55492000D03*
D12*
X200531000Y-55492000D03*
D13*
%TO.P,ZONE0,8*%
%TO.N,Net-(ZONE0-Pad8)*%
X188331000Y-62472000D03*
%TO.P,ZONE0,7*%
%TO.N,Net-(U7-Pad1)*%
X189351000Y-62472000D03*
%TO.P,ZONE0,6*%
X190371000Y-62472000D03*
%TO.P,ZONE0,5*%
%TO.N,/24VAC_N*%
X191391000Y-62472000D03*
%TO.P,ZONE0,4*%
X192411000Y-62472000D03*
%TO.P,ZONE0,3*%
%TO.N,Net-(U3-Pad1)*%
X193431000Y-62472000D03*
%TO.P,ZONE0,2*%
X194451000Y-62472000D03*
%TO.P,ZONE0,1*%
%TO.N,Net-(ZONE0-Pad1)*%
X195471000Y-62472000D03*
D12*
%TO.P,ZONE0,9*%
%TO.N,Net-(ZONE0-Pad9)*%
X183431000Y-55492000D03*
D11*
X183431000Y-55492000D03*
%TD*%
%TO.P,ZONE1,9*%
%TO.N,Net-(ZONE1-Pad9)*%
X180211000Y-55492000D03*
D12*
X180211000Y-55492000D03*
D13*
%TO.P,ZONE1,8*%
%TO.N,Net-(ZONE1-Pad8)*%
X168011000Y-62472000D03*
%TO.P,ZONE1,7*%
%TO.N,Net-(U15-Pad1)*%
X169031000Y-62472000D03*
%TO.P,ZONE1,6*%
X170051000Y-62472000D03*
%TO.P,ZONE1,5*%
%TO.N,/24VAC_N*%
X171071000Y-62472000D03*
%TO.P,ZONE1,4*%
X172091000Y-62472000D03*
%TO.P,ZONE1,3*%
%TO.N,Net-(U11-Pad1)*%
X173111000Y-62472000D03*
%TO.P,ZONE1,2*%
X174131000Y-62472000D03*
%TO.P,ZONE1,1*%
%TO.N,Net-(ZONE1-Pad1)*%
X175151000Y-62472000D03*
D12*
%TO.P,ZONE1,9*%
%TO.N,Net-(ZONE1-Pad9)*%
X163111000Y-55492000D03*
D11*
X163111000Y-55492000D03*
%TD*%
%TO.P,ZONE2,9*%
%TO.N,Net-(ZONE2-Pad9)*%
X159891000Y-55492000D03*
D12*
X159891000Y-55492000D03*
D13*
%TO.P,ZONE2,8*%
%TO.N,Net-(ZONE2-Pad8)*%
X147691000Y-62472000D03*
%TO.P,ZONE2,7*%
%TO.N,Net-(U8-Pad1)*%
X148711000Y-62472000D03*
%TO.P,ZONE2,6*%
X149731000Y-62472000D03*
%TO.P,ZONE2,5*%
%TO.N,/24VAC_N*%
X150751000Y-62472000D03*
%TO.P,ZONE2,4*%
X151771000Y-62472000D03*
%TO.P,ZONE2,3*%
%TO.N,Net-(U4-Pad1)*%
X152791000Y-62472000D03*
%TO.P,ZONE2,2*%
X153811000Y-62472000D03*
%TO.P,ZONE2,1*%
%TO.N,Net-(ZONE2-Pad1)*%
X154831000Y-62472000D03*
D12*
%TO.P,ZONE2,9*%
%TO.N,Net-(ZONE2-Pad9)*%
X142791000Y-55492000D03*
D11*
X142791000Y-55492000D03*
%TD*%
%TO.P,ZONE3,9*%
%TO.N,Net-(ZONE3-Pad9)*%
X139571000Y-55492000D03*
D12*
X139571000Y-55492000D03*
D13*
%TO.P,ZONE3,8*%
%TO.N,Net-(ZONE3-Pad8)*%
X127371000Y-62472000D03*
%TO.P,ZONE3,7*%
%TO.N,Net-(U16-Pad1)*%
X128391000Y-62472000D03*
%TO.P,ZONE3,6*%
X129411000Y-62472000D03*
%TO.P,ZONE3,5*%
%TO.N,/24VAC_N*%
X130431000Y-62472000D03*
%TO.P,ZONE3,4*%
X131451000Y-62472000D03*
%TO.P,ZONE3,3*%
%TO.N,Net-(U12-Pad1)*%
X132471000Y-62472000D03*
%TO.P,ZONE3,2*%
X133491000Y-62472000D03*
%TO.P,ZONE3,1*%
%TO.N,Net-(ZONE3-Pad1)*%
X134511000Y-62472000D03*
D12*
%TO.P,ZONE3,9*%
%TO.N,Net-(ZONE3-Pad9)*%
X122471000Y-55492000D03*
D11*
X122471000Y-55492000D03*
%TD*%
%TO.P,ZONE4,9*%
%TO.N,Net-(ZONE4-Pad9)*%
X122557000Y-143187000D03*
D12*
X122557000Y-143187000D03*
D13*
%TO.P,ZONE4,8*%
%TO.N,Net-(ZONE4-Pad8)*%
X134757000Y-136207000D03*
%TO.P,ZONE4,7*%
%TO.N,Net-(U9-Pad1)*%
X133737000Y-136207000D03*
%TO.P,ZONE4,6*%
X132717000Y-136207000D03*
%TO.P,ZONE4,5*%
%TO.N,/24VAC_N*%
X131697000Y-136207000D03*
%TO.P,ZONE4,4*%
X130677000Y-136207000D03*
%TO.P,ZONE4,3*%
%TO.N,Net-(U5-Pad1)*%
X129657000Y-136207000D03*
%TO.P,ZONE4,2*%
X128637000Y-136207000D03*
%TO.P,ZONE4,1*%
%TO.N,Net-(ZONE4-Pad1)*%
X127617000Y-136207000D03*
D12*
%TO.P,ZONE4,9*%
%TO.N,Net-(ZONE4-Pad9)*%
X139657000Y-143187000D03*
D11*
X139657000Y-143187000D03*
%TD*%
%TO.P,ZONE5,9*%
%TO.N,Net-(ZONE5-Pad9)*%
X142877000Y-143187000D03*
D12*
X142877000Y-143187000D03*
D13*
%TO.P,ZONE5,8*%
%TO.N,Net-(ZONE5-Pad8)*%
X155077000Y-136207000D03*
%TO.P,ZONE5,7*%
%TO.N,Net-(U17-Pad1)*%
X154057000Y-136207000D03*
%TO.P,ZONE5,6*%
X153037000Y-136207000D03*
%TO.P,ZONE5,5*%
%TO.N,/24VAC_N*%
X152017000Y-136207000D03*
%TO.P,ZONE5,4*%
X150997000Y-136207000D03*
%TO.P,ZONE5,3*%
%TO.N,Net-(U13-Pad1)*%
X149977000Y-136207000D03*
%TO.P,ZONE5,2*%
X148957000Y-136207000D03*
%TO.P,ZONE5,1*%
%TO.N,Net-(ZONE5-Pad1)*%
X147937000Y-136207000D03*
D12*
%TO.P,ZONE5,9*%
%TO.N,Net-(ZONE5-Pad9)*%
X159977000Y-143187000D03*
D11*
X159977000Y-143187000D03*
%TD*%
D31*
%TO.N,+5V*%
X122264000Y-89013000D03*
%TO.N,GND*%
X174879000Y-103987600D03*
X151986000Y-100468700D03*
X167269000Y-96685000D03*
X160816400Y-106725500D03*
%TO.N,Net-(J1-Pad6)*%
X121517000Y-92757100D03*
X121566000Y-73369000D03*
%TO.N,/1W-DATA*%
X121583000Y-91053000D03*
X122361000Y-71653000D03*
X136668700Y-106603700D03*
%TO.N,/SWCLK*%
X180531800Y-98298000D03*
X163049300Y-95357200D03*
%TO.N,/SWDAT*%
X182810800Y-94815700D03*
X161681600Y-94546000D03*
%TO.N,/UART_RX*%
X166794300Y-102747500D03*
%TO.N,/24VAC_N*%
X192405000Y-133604000D03*
X130810000Y-65024000D03*
X151333000Y-65024000D03*
X171729000Y-64973200D03*
X192176000Y-65024000D03*
X131318000Y-133604000D03*
X151943000Y-133604000D03*
X172085000Y-133604000D03*
%TO.N,/ZONE6_OPEN*%
X164520900Y-102354000D03*
%TO.N,/ZONE0_CLOSE*%
X169033500Y-93749100D03*
%TO.N,/ZONE4_CLOSE*%
X147317900Y-97273800D03*
%TO.N,/ZONE6_CLOSE*%
X169789700Y-104052200D03*
%TO.N,/ZONE5_OPEN*%
X155600800Y-98940400D03*
%TO.N,/ZONE5_CLOSE*%
X155452800Y-99979200D03*
%TD*%
D32*
%TO.N,+5V*%
X132461000Y-113030000D02*
X132232400Y-113030000D01*
X132461000Y-106603800D02*
X132461000Y-113030000D01*
X188471000Y-85852000D02*
X196091000Y-85852000D01*
X155451000Y-85852000D02*
X168151000Y-85852000D01*
X126870000Y-113030000D02*
X119877000Y-113030000D01*
X118142000Y-110418000D02*
X118142000Y-108968000D01*
X118414000Y-110418000D02*
X118142000Y-110418000D01*
X119877000Y-111882000D02*
X118414000Y-110418000D01*
X119877000Y-113030000D02*
X119877000Y-111882000D01*
X118789000Y-114118000D02*
X119877000Y-113030000D01*
X118142000Y-114118000D02*
X118789000Y-114118000D01*
X118142000Y-115568000D02*
X118142000Y-114118000D01*
X175130000Y-113030000D02*
X167510000Y-113030000D01*
X154810000Y-113030000D02*
X167510000Y-113030000D01*
X119952000Y-89013000D02*
X122264000Y-89013000D01*
X127511000Y-85852000D02*
X135131000Y-85852000D01*
X121702000Y-69455000D02*
X119952000Y-69455000D01*
X125450000Y-73202500D02*
X121702000Y-69455000D01*
X125450000Y-83790800D02*
X125450000Y-73202500D01*
X127511000Y-85852000D02*
X125450000Y-83790800D01*
X195450000Y-113030000D02*
X187830000Y-113030000D01*
X187830000Y-113030000D02*
X175130000Y-113030000D01*
X168151000Y-85852000D02*
X175771000Y-85852000D01*
X175771000Y-85852000D02*
X188471000Y-85852000D01*
X134490000Y-113030000D02*
X133040000Y-113030000D01*
X133040000Y-113030000D02*
X132232400Y-113030000D01*
X132232400Y-113030000D02*
X126870000Y-113030000D01*
X155451000Y-85852000D02*
X147831000Y-85852000D01*
X147831000Y-85852000D02*
X135131000Y-85852000D01*
X154810000Y-113030000D02*
X147190000Y-113030000D01*
X147190000Y-113030000D02*
X134490000Y-113030000D01*
X132590000Y-106474800D02*
X132590000Y-96520000D01*
X132461000Y-106603800D02*
X132590000Y-106474800D01*
X133764800Y-105300000D02*
X139950000Y-105300000D01*
X132590000Y-106474800D02*
X133764800Y-105300000D01*
%TO.N,GND*%
X176671700Y-103962200D02*
X174904400Y-103962200D01*
X174904400Y-103962200D02*
X174879000Y-103987600D01*
X111442000Y-115568000D02*
X111442000Y-114972600D01*
X111442000Y-114972600D02*
X110337600Y-113868200D01*
X110337600Y-113868200D02*
X110337600Y-110072400D01*
X110337600Y-110072400D02*
X111442000Y-108968000D01*
D33*
X154320000Y-102310000D02*
X151194000Y-102310000D01*
X169419000Y-95810000D02*
X169799000Y-96190000D01*
X165720000Y-95810000D02*
X169419000Y-95810000D01*
X116791000Y-63375000D02*
X112972000Y-63375000D01*
X118186000Y-64770000D02*
X116791000Y-63375000D01*
X118186000Y-68901000D02*
X118186000Y-64770000D01*
X118186000Y-74930000D02*
X118186000Y-72644000D01*
X118186000Y-75109000D02*
X118186000Y-74930000D01*
X118440000Y-94742000D02*
X118440000Y-92202000D01*
X117807000Y-82933000D02*
X112972000Y-82933000D01*
X118186000Y-83312000D02*
X117807000Y-82933000D01*
X118186000Y-87951000D02*
X118186000Y-83312000D01*
X118440000Y-88205000D02*
X118186000Y-87951000D01*
X118186000Y-72644000D02*
X118186000Y-70612000D01*
X118315000Y-72515000D02*
X118186000Y-72644000D01*
X119952000Y-72515000D02*
X118315000Y-72515000D01*
X118186000Y-70612000D02*
X118186000Y-68901000D01*
X118323000Y-70475000D02*
X118186000Y-70612000D01*
X119952000Y-70475000D02*
X118323000Y-70475000D01*
X118652000Y-68435000D02*
X119952000Y-68435000D01*
X118186000Y-68901000D02*
X118652000Y-68435000D01*
X118652000Y-75575000D02*
X118186000Y-75109000D01*
X119952000Y-75575000D02*
X118652000Y-75575000D01*
X118557000Y-90033000D02*
X118440000Y-89916000D01*
X119952000Y-90033000D02*
X118557000Y-90033000D01*
X118652000Y-87993000D02*
X119952000Y-87993000D01*
X118440000Y-88205000D02*
X118652000Y-87993000D01*
X118440000Y-94921000D02*
X118440000Y-94742000D01*
X118652000Y-95133000D02*
X118440000Y-94921000D01*
X118186000Y-74930000D02*
X118186000Y-75109000D01*
X117381000Y-80475000D02*
X112972000Y-80475000D01*
X117424000Y-80518000D02*
X117381000Y-80475000D01*
X118186000Y-79756000D02*
X117424000Y-80518000D01*
X118186000Y-75109000D02*
X118186000Y-79756000D01*
X118440000Y-94742000D02*
X118437000Y-94745000D01*
X113192000Y-100033000D02*
X112972000Y-100033000D01*
X119380000Y-95133000D02*
X118652000Y-95133000D01*
X119380000Y-95133000D02*
X118652000Y-95133000D01*
X119952000Y-95133000D02*
X119380000Y-95133000D01*
X119952000Y-95133000D02*
X119380000Y-95133000D01*
X113539000Y-99466400D02*
X113256000Y-99749700D01*
X118110000Y-99466400D02*
X113539000Y-99466400D01*
X118110000Y-95605600D02*
X118110000Y-99466400D01*
X118583000Y-95133000D02*
X118110000Y-95605600D01*
X118652000Y-95133000D02*
X118583000Y-95133000D01*
X113256000Y-99749700D02*
X112972000Y-100033000D01*
X118569000Y-92073000D02*
X118440000Y-92202000D01*
X119952000Y-92073000D02*
X118569000Y-92073000D01*
D34*
X153120000Y-100810000D02*
X154320000Y-100810000D01*
D32*
X111442000Y-101563000D02*
X111442000Y-108968000D01*
X113256000Y-99749700D02*
X111442000Y-101563000D01*
X161683000Y-108648000D02*
X161683000Y-110172000D01*
D33*
X118440000Y-92202000D02*
X118440000Y-89916000D01*
X118440000Y-89916000D02*
X118440000Y-88205000D01*
D32*
X169799000Y-96190000D02*
X170874300Y-96190000D01*
X177922000Y-99568000D02*
X179172000Y-99568000D01*
X177922000Y-98298000D02*
X177922000Y-99568000D01*
D33*
X161770000Y-108561000D02*
X161683000Y-108648000D01*
X161770000Y-104760000D02*
X161770000Y-108561000D01*
D32*
X153120000Y-100810000D02*
X152694000Y-100810000D01*
X152694000Y-100810000D02*
X151194000Y-102310000D01*
X152352700Y-100468700D02*
X151986000Y-100468700D01*
X152694000Y-100810000D02*
X152352700Y-100468700D01*
X149019000Y-100468700D02*
X146450300Y-97900000D01*
X151986000Y-100468700D02*
X149019000Y-100468700D01*
X142250000Y-97900000D02*
X146450300Y-97900000D01*
X177922000Y-97028000D02*
X177922000Y-98298000D01*
X179172000Y-97028000D02*
X177922000Y-97028000D01*
X195072000Y-94488000D02*
X193521700Y-94488000D01*
X126490000Y-96520000D02*
X126490000Y-95872600D01*
X126490000Y-95872600D02*
X126490000Y-95313400D01*
X126490000Y-95872600D02*
X120691600Y-95872600D01*
D35*
X120691600Y-95872600D02*
X119952000Y-95133000D01*
D32*
X181672300Y-94539600D02*
X181672300Y-97028000D01*
X183059200Y-93152700D02*
X181672300Y-94539600D01*
X192186400Y-93152700D02*
X183059200Y-93152700D01*
X193521700Y-94488000D02*
X192186400Y-93152700D01*
X179172000Y-97028000D02*
X181672300Y-97028000D01*
X179172000Y-104648000D02*
X176671700Y-104648000D01*
X176671700Y-98298000D02*
X176671700Y-103962200D01*
X176671700Y-103962200D02*
X176671700Y-104648000D01*
X177922000Y-98298000D02*
X176671700Y-98298000D01*
X172982300Y-98298000D02*
X170874300Y-96190000D01*
X176671700Y-98298000D02*
X172982300Y-98298000D01*
X168228700Y-96685000D02*
X168723700Y-96190000D01*
X167269000Y-96685000D02*
X168228700Y-96685000D01*
X169799000Y-96190000D02*
X168723700Y-96190000D01*
X160816400Y-106725500D02*
X160816400Y-107387500D01*
D36*
X161683000Y-108254100D02*
X161683000Y-108648000D01*
X160816400Y-107387500D02*
X161683000Y-108254100D01*
D33*
%TO.N,+3V3*%
X169179000Y-95310000D02*
X169799000Y-94690000D01*
X165720000Y-95310000D02*
X169179000Y-95310000D01*
X156270000Y-101679000D02*
X156235000Y-101645000D01*
X156270000Y-104760000D02*
X156270000Y-101679000D01*
X162270000Y-97064000D02*
X162270000Y-101117000D01*
X164024000Y-95310000D02*
X162270000Y-97064000D01*
X165720000Y-95310000D02*
X164024000Y-95310000D01*
X162270000Y-101117000D02*
X162270000Y-104760000D01*
X155070000Y-102810000D02*
X156235000Y-101645000D01*
X154320000Y-102810000D02*
X155070000Y-102810000D01*
X156763000Y-101117000D02*
X162270000Y-101117000D01*
X156235000Y-101645000D02*
X156763000Y-101117000D01*
X151194000Y-103785000D02*
X151194000Y-103810000D01*
X152169000Y-102810000D02*
X151194000Y-103785000D01*
X154320000Y-102810000D02*
X152169000Y-102810000D01*
D32*
X163183000Y-108651000D02*
X163183000Y-110172000D01*
X163180000Y-108648000D02*
X163183000Y-108651000D01*
D33*
X163158000Y-108648000D02*
X163180000Y-108648000D01*
X163180000Y-108648000D02*
X163183000Y-108648000D01*
X163180000Y-108648000D02*
X163183000Y-108648000D01*
X162270000Y-107760000D02*
X163158000Y-108648000D01*
X162270000Y-104760000D02*
X162270000Y-107760000D01*
X163158000Y-108648000D02*
X163180000Y-108648000D01*
D32*
X148628700Y-105300000D02*
X150118700Y-103810000D01*
X144530000Y-105300000D02*
X148628700Y-105300000D01*
X151194000Y-103810000D02*
X150118700Y-103810000D01*
X181712900Y-91947100D02*
X179172000Y-94488000D01*
X194756700Y-91947100D02*
X181712900Y-91947100D01*
X196631800Y-93822200D02*
X194756700Y-91947100D01*
X196631800Y-100548200D02*
X196631800Y-93822200D01*
X195072000Y-102108000D02*
X196631800Y-100548200D01*
X176469700Y-94690000D02*
X169799000Y-94690000D01*
X176671700Y-94488000D02*
X176469700Y-94690000D01*
X179172000Y-94488000D02*
X176671700Y-94488000D01*
X194222001Y-102957999D02*
X195072000Y-102108000D01*
X193801999Y-102957999D02*
X194222001Y-102957999D01*
X189063998Y-107696000D02*
X193801999Y-102957999D01*
X184404000Y-107696000D02*
X189063998Y-107696000D01*
%TO.N,Net-(J1-Pad7)*%
X121702000Y-94113000D02*
X119952000Y-94113000D01*
X123514000Y-92301100D02*
X121702000Y-94113000D01*
X123514000Y-76366900D02*
X123514000Y-92301100D01*
X121702000Y-74555000D02*
X123514000Y-76366900D01*
X119952000Y-74555000D02*
X121702000Y-74555000D01*
D33*
%TO.N,Net-(J1-Pad6)*%
X121493000Y-73369000D02*
X121566000Y-73369000D01*
X121327000Y-73535000D02*
X121493000Y-73369000D01*
X119952000Y-73535000D02*
X121327000Y-73535000D01*
X121327000Y-92947200D02*
X121517000Y-92757100D01*
X121327000Y-93093000D02*
X121327000Y-92947200D01*
X119952000Y-93093000D02*
X121327000Y-93093000D01*
%TO.N,/1W-DATA*%
X121485000Y-71653000D02*
X122361000Y-71653000D01*
X121327000Y-71495000D02*
X121485000Y-71653000D01*
X119952000Y-71495000D02*
X121327000Y-71495000D01*
X119952000Y-91053000D02*
X121583000Y-91053000D01*
X158270000Y-104760000D02*
X158270000Y-105585300D01*
X195072000Y-104648000D02*
X193896700Y-104648000D01*
X156450000Y-107405300D02*
X156728000Y-107127300D01*
X137470300Y-107405300D02*
X156450000Y-107405300D01*
X136668700Y-106603700D02*
X137470300Y-107405300D01*
X161173300Y-111572700D02*
X156728000Y-107127300D01*
X169696500Y-111572700D02*
X161173300Y-111572700D01*
X172411000Y-108858200D02*
X169696500Y-111572700D01*
X189686500Y-108858200D02*
X172411000Y-108858200D01*
X193896700Y-104648000D02*
X189686500Y-108858200D01*
X156728000Y-107127300D02*
X158270000Y-105585300D01*
%TO.N,Net-(P1-Pad10)*%
X159270000Y-109001100D02*
X159270000Y-104760000D01*
X161266300Y-110997400D02*
X159270000Y-109001100D01*
X164540000Y-110997400D02*
X161266300Y-110997400D01*
X167367300Y-108170100D02*
X164540000Y-110997400D01*
X179924600Y-108170100D02*
X167367300Y-108170100D01*
X185572000Y-104648000D02*
X183446700Y-104648000D01*
X180906700Y-107696000D02*
X180652700Y-107442000D01*
X182904000Y-107696000D02*
X180906700Y-107696000D01*
X183446700Y-104648000D02*
X180652700Y-107442000D01*
X180652700Y-107442000D02*
X179924600Y-108170100D01*
%TO.N,/MAINS_ENABLE*%
X114642000Y-115568000D02*
X114642000Y-108968000D01*
%TO.N,/SWCLK*%
X182176700Y-98298000D02*
X180531800Y-98298000D01*
X183446700Y-97028000D02*
X182176700Y-98298000D01*
X155192500Y-95357200D02*
X155145300Y-95310000D01*
X163049300Y-95357200D02*
X155192500Y-95357200D01*
X154320000Y-95310000D02*
X155145300Y-95310000D01*
X185572000Y-97028000D02*
X183446700Y-97028000D01*
%TO.N,/SWDAT*%
X183119000Y-94815700D02*
X182810800Y-94815700D01*
X183446700Y-94488000D02*
X183119000Y-94815700D01*
X157630700Y-94546000D02*
X157270000Y-94185300D01*
X161681600Y-94546000D02*
X157630700Y-94546000D01*
X157270000Y-93360000D02*
X157270000Y-94185300D01*
X185572000Y-94488000D02*
X183446700Y-94488000D01*
%TO.N,/UART_TX*%
X163827400Y-105642700D02*
X163770000Y-105585300D01*
X181585900Y-105642700D02*
X163827400Y-105642700D01*
X184160200Y-103068400D02*
X181585900Y-105642700D01*
X190396300Y-103068400D02*
X184160200Y-103068400D01*
X193896700Y-99568000D02*
X190396300Y-103068400D01*
X195072000Y-99568000D02*
X193896700Y-99568000D01*
X163770000Y-104760000D02*
X163770000Y-105585300D01*
%TO.N,/UART_RX*%
X166731800Y-102810000D02*
X165720000Y-102810000D01*
X166794300Y-102747500D02*
X166731800Y-102810000D01*
%TO.N,/24VAC_N*%
X130667000Y-64881000D02*
X130810000Y-65024000D01*
X152017000Y-133678000D02*
X151943000Y-133604000D01*
D37*
X192411000Y-62472000D02*
X191391000Y-62472000D01*
X191391000Y-64238600D02*
X192176000Y-65024000D01*
X191391000Y-62472000D02*
X191391000Y-64238600D01*
X172091000Y-62472000D02*
X171071000Y-62472000D01*
X171729000Y-63130400D02*
X171729000Y-64973200D01*
X171071000Y-62472000D02*
X171729000Y-63130400D01*
X151771000Y-62472000D02*
X150751000Y-62472000D01*
X151333000Y-63054200D02*
X151333000Y-65024000D01*
X150751000Y-62472000D02*
X151333000Y-63054200D01*
X131451000Y-62472000D02*
X130431000Y-62472000D01*
X130810000Y-62851000D02*
X130810000Y-65024000D01*
X130431000Y-62472000D02*
X130810000Y-62851000D01*
X131697000Y-136207000D02*
X130677000Y-136207000D01*
X131318000Y-135566000D02*
X131318000Y-133604000D01*
X130677000Y-136207000D02*
X131318000Y-135566000D01*
X150997000Y-136207000D02*
X152017000Y-136207000D01*
X151943000Y-136133000D02*
X151943000Y-133604000D01*
X152017000Y-136207000D02*
X151943000Y-136133000D01*
X171317000Y-136207000D02*
X172337000Y-136207000D01*
X172085000Y-135955000D02*
X172085000Y-133604000D01*
X172337000Y-136207000D02*
X172085000Y-135955000D01*
X191637000Y-136207000D02*
X192657000Y-136207000D01*
X192405000Y-135955000D02*
X192405000Y-133604000D01*
X192657000Y-136207000D02*
X192405000Y-135955000D01*
D38*
X192411000Y-68852700D02*
X192411000Y-65722800D01*
X202427000Y-78868700D02*
X192411000Y-68852700D01*
X202427000Y-79502000D02*
X202427000Y-78868700D01*
D35*
X192411000Y-65722800D02*
X192411000Y-62472000D01*
D33*
%TO.N,/ZONE0_OPEN*%
X162770000Y-93360000D02*
X162770000Y-92534700D01*
X168089800Y-92534700D02*
X162770000Y-92534700D01*
X171093500Y-89531000D02*
X168089800Y-92534700D01*
X194952000Y-89531000D02*
X171093500Y-89531000D01*
X196091000Y-88392000D02*
X194952000Y-89531000D01*
D37*
%TO.N,Net-(U3-Pad1)*%
X194451000Y-62472000D02*
X194451000Y-64452000D01*
X194451000Y-66432000D02*
X196091000Y-68072000D01*
X194451000Y-64452000D02*
X194451000Y-66432000D01*
X194121000Y-64122300D02*
X194451000Y-64452000D01*
X193431000Y-64122300D02*
X194121000Y-64122300D01*
X193431000Y-62472000D02*
X193431000Y-64122300D01*
D33*
%TO.N,/ZONE2_OPEN*%
X155451000Y-88392000D02*
X156127000Y-88392000D01*
X160270000Y-93360000D02*
X160270000Y-92534700D01*
X156127300Y-88392000D02*
X160270000Y-92534700D01*
X156127000Y-88392000D02*
X156127300Y-88392000D01*
D37*
%TO.N,Net-(U4-Pad1)*%
X153811000Y-66432000D02*
X155451000Y-68072000D01*
X153811000Y-62472000D02*
X153811000Y-66432000D01*
X152791000Y-62472000D02*
X153811000Y-62472000D01*
D33*
%TO.N,/ZONE4_OPEN*%
X151689400Y-96310000D02*
X154320000Y-96310000D01*
X149454000Y-94074600D02*
X151689400Y-96310000D01*
X131281200Y-94074600D02*
X149454000Y-94074600D01*
X128815400Y-96540400D02*
X131281200Y-94074600D01*
X128815400Y-108544600D02*
X128815400Y-96540400D01*
X126870000Y-110490000D02*
X128815400Y-108544600D01*
D37*
%TO.N,Net-(U5-Pad1)*%
X128637000Y-132577000D02*
X126870000Y-130810000D01*
X128637000Y-136207000D02*
X128637000Y-132577000D01*
X129657000Y-136207000D02*
X128637000Y-136207000D01*
D33*
%TO.N,/ZONE6_OPEN*%
X164850700Y-102354000D02*
X164894700Y-102310000D01*
X164520900Y-102354000D02*
X164850700Y-102354000D01*
X165720000Y-102310000D02*
X164894700Y-102310000D01*
D37*
%TO.N,Net-(U6-Pad1)*%
X169277000Y-132577000D02*
X167510000Y-130810000D01*
X169277000Y-136207000D02*
X169277000Y-132577000D01*
X170297000Y-136207000D02*
X169277000Y-136207000D01*
D33*
%TO.N,/ZONE0_CLOSE*%
X162720800Y-94636100D02*
X162270000Y-94185300D01*
X168146500Y-94636100D02*
X162720800Y-94636100D01*
X169033500Y-93749100D02*
X168146500Y-94636100D01*
X162270000Y-93360000D02*
X162270000Y-94185300D01*
D37*
%TO.N,Net-(U7-Pad1)*%
X189351000Y-62472000D02*
X189351000Y-64832000D01*
X189351000Y-67192000D02*
X188471000Y-68072000D01*
X189351000Y-64832000D02*
X189351000Y-67192000D01*
X190061000Y-64122300D02*
X189351000Y-64832000D01*
X190371000Y-64122300D02*
X190061000Y-64122300D01*
X190371000Y-62472000D02*
X190371000Y-64122300D01*
D33*
%TO.N,/ZONE2_CLOSE*%
X157038900Y-90303600D02*
X159270000Y-92534700D01*
X149742600Y-90303600D02*
X157038900Y-90303600D01*
X147831000Y-88392000D02*
X149742600Y-90303600D01*
X159270000Y-93360000D02*
X159270000Y-92534700D01*
D37*
%TO.N,Net-(U8-Pad1)*%
X148711000Y-67192000D02*
X147831000Y-68072000D01*
X148711000Y-62472000D02*
X148711000Y-67192000D01*
X149731000Y-62472000D02*
X148711000Y-62472000D01*
D33*
%TO.N,/ZONE4_CLOSE*%
X153458500Y-97273800D02*
X153494700Y-97310000D01*
X147317900Y-97273800D02*
X153458500Y-97273800D01*
X154320000Y-97310000D02*
X153494700Y-97310000D01*
D37*
%TO.N,Net-(U9-Pad1)*%
X133737000Y-131563000D02*
X134490000Y-130810000D01*
X133737000Y-136207000D02*
X133737000Y-131563000D01*
X132717000Y-136207000D02*
X133737000Y-136207000D01*
D33*
%TO.N,/ZONE6_CLOSE*%
X167547500Y-101810000D02*
X165720000Y-101810000D01*
X169789700Y-104052200D02*
X167547500Y-101810000D01*
D37*
%TO.N,Net-(U10-Pad1)*%
X174377000Y-131563000D02*
X175130000Y-130810000D01*
X174377000Y-136207000D02*
X174377000Y-131563000D01*
X173357000Y-136207000D02*
X174377000Y-136207000D01*
D33*
%TO.N,/ZONE1_OPEN*%
X161770000Y-92757600D02*
X161770000Y-93360000D01*
X162517800Y-92009800D02*
X161770000Y-92757600D01*
X167977800Y-92009800D02*
X162517800Y-92009800D01*
X171595600Y-88392000D02*
X167977800Y-92009800D01*
X175771000Y-88392000D02*
X171595600Y-88392000D01*
D37*
%TO.N,Net-(U11-Pad1)*%
X174131000Y-66432000D02*
X175771000Y-68072000D01*
X174131000Y-62472000D02*
X174131000Y-66432000D01*
X174131000Y-62472000D02*
X173111000Y-62472000D01*
D33*
%TO.N,/ZONE3_OPEN*%
X157453900Y-91718600D02*
X158270000Y-92534700D01*
X138457600Y-91718600D02*
X157453900Y-91718600D01*
X135131000Y-88392000D02*
X138457600Y-91718600D01*
X158270000Y-93360000D02*
X158270000Y-92534700D01*
D37*
%TO.N,Net-(U12-Pad1)*%
X133491000Y-66432000D02*
X135131000Y-68072000D01*
X133491000Y-62472000D02*
X133491000Y-66432000D01*
X133491000Y-62472000D02*
X132471000Y-62472000D01*
D33*
%TO.N,/ZONE5_OPEN*%
X155470400Y-98810000D02*
X154320000Y-98810000D01*
X155600800Y-98940400D02*
X155470400Y-98810000D01*
D37*
%TO.N,Net-(U13-Pad1)*%
X148957000Y-132577000D02*
X147190000Y-130810000D01*
X148957000Y-136207000D02*
X148957000Y-132577000D01*
X149977000Y-136207000D02*
X148957000Y-136207000D01*
D33*
%TO.N,/ZONE7_OPEN*%
X167901400Y-93360000D02*
X163770000Y-93360000D01*
X170593000Y-90668400D02*
X167901400Y-93360000D01*
X195394000Y-90668400D02*
X170593000Y-90668400D01*
X197959200Y-93233600D02*
X195394000Y-90668400D01*
X197959200Y-109511700D02*
X197959200Y-93233600D01*
X195869700Y-111601200D02*
X197959200Y-109511700D01*
X188941200Y-111601200D02*
X195869700Y-111601200D01*
X187830000Y-110490000D02*
X188941200Y-111601200D01*
D37*
%TO.N,Net-(U14-Pad1)*%
X189597000Y-132577000D02*
X187830000Y-130810000D01*
X189597000Y-136207000D02*
X189597000Y-132577000D01*
X190617000Y-136207000D02*
X189597000Y-136207000D01*
D33*
%TO.N,/ZONE1_CLOSE*%
X165412700Y-88392000D02*
X161270000Y-92534700D01*
X168151000Y-88392000D02*
X165412700Y-88392000D01*
X161270000Y-93360000D02*
X161270000Y-92534700D01*
D37*
%TO.N,Net-(U15-Pad1)*%
X169031000Y-67192000D02*
X168151000Y-68072000D01*
X169031000Y-62472000D02*
X169031000Y-67192000D01*
X170051000Y-62472000D02*
X169031000Y-62472000D01*
D33*
%TO.N,/ZONE3_CLOSE*%
X131653700Y-92534700D02*
X156270000Y-92534700D01*
X127511000Y-88392000D02*
X131653700Y-92534700D01*
X156270000Y-93360000D02*
X156270000Y-92534700D01*
D37*
%TO.N,Net-(U16-Pad1)*%
X128391000Y-67192000D02*
X127511000Y-68072000D01*
X128391000Y-62472000D02*
X128391000Y-67192000D01*
X129411000Y-62472000D02*
X128391000Y-62472000D01*
D33*
%TO.N,/ZONE5_CLOSE*%
X155283600Y-99810000D02*
X154320000Y-99810000D01*
X155452800Y-99979200D02*
X155283600Y-99810000D01*
D37*
%TO.N,Net-(U17-Pad1)*%
X154057000Y-131563000D02*
X154810000Y-130810000D01*
X154057000Y-136207000D02*
X154057000Y-131563000D01*
X153037000Y-136207000D02*
X154057000Y-136207000D01*
D33*
%TO.N,/ZONE7_CLOSE*%
X163270000Y-93360000D02*
X163270000Y-94185300D01*
X167713000Y-94185300D02*
X163270000Y-94185300D01*
X170776800Y-91121500D02*
X167713000Y-94185300D01*
X195105100Y-91121500D02*
X170776800Y-91121500D01*
X197508800Y-93525200D02*
X195105100Y-91121500D01*
X197508800Y-108431200D02*
X197508800Y-93525200D01*
X195450000Y-110490000D02*
X197508800Y-108431200D01*
D37*
%TO.N,Net-(U18-Pad1)*%
X194697000Y-131563000D02*
X195450000Y-130810000D01*
X194697000Y-136207000D02*
X194697000Y-131563000D01*
X193677000Y-136207000D02*
X194697000Y-136207000D01*
D33*
%TO.N,Net-(ZONE0-Pad9)*%
X200531000Y-58774100D02*
X200531000Y-55492000D01*
X198754000Y-60550600D02*
X200531000Y-58774100D01*
X185026000Y-60550600D02*
X198754000Y-60550600D01*
X183431000Y-58955300D02*
X185026000Y-60550600D01*
X183431000Y-55492000D02*
X183431000Y-58955300D01*
%TO.N,Net-(ZONE1-Pad9)*%
X180211000Y-58774100D02*
X180211000Y-55492000D01*
X178434000Y-60550600D02*
X180211000Y-58774100D01*
X164706000Y-60550600D02*
X178434000Y-60550600D01*
X163111000Y-58955300D02*
X164706000Y-60550600D01*
X163111000Y-55492000D02*
X163111000Y-58955300D01*
%TO.N,Net-(ZONE2-Pad9)*%
X159891000Y-58774100D02*
X159891000Y-55492000D01*
X158114000Y-60550600D02*
X159891000Y-58774100D01*
X144386000Y-60550600D02*
X158114000Y-60550600D01*
X142791000Y-58955300D02*
X144386000Y-60550600D01*
X142791000Y-55492000D02*
X142791000Y-58955300D01*
%TO.N,Net-(ZONE3-Pad9)*%
X139571000Y-58774100D02*
X139571000Y-55492000D01*
X137795000Y-60550100D02*
X139571000Y-58774100D01*
X124081000Y-60550100D02*
X137795000Y-60550100D01*
X122471000Y-58939700D02*
X124081000Y-60550100D01*
X122471000Y-55492000D02*
X122471000Y-58939700D01*
%TO.N,Net-(ZONE4-Pad9)*%
X122557000Y-139762000D02*
X122557000Y-143187000D01*
X124283000Y-138036000D02*
X122557000Y-139762000D01*
X138070000Y-138036000D02*
X124283000Y-138036000D01*
X139657000Y-139624000D02*
X138070000Y-138036000D01*
X139657000Y-143187000D02*
X139657000Y-139624000D01*
%TO.N,Net-(ZONE5-Pad9)*%
X142877000Y-139762000D02*
X142877000Y-143187000D01*
X144551000Y-138088000D02*
X142877000Y-139762000D01*
X158377000Y-138088000D02*
X144551000Y-138088000D01*
X159977000Y-139688000D02*
X158377000Y-138088000D01*
X159977000Y-143187000D02*
X159977000Y-139688000D01*
%TO.N,Net-(ZONE6-Pad9)*%
X163197000Y-139762000D02*
X163197000Y-143187000D01*
X164871000Y-138088000D02*
X163197000Y-139762000D01*
X178697000Y-138088000D02*
X164871000Y-138088000D01*
X180297000Y-139688000D02*
X178697000Y-138088000D01*
X180297000Y-143187000D02*
X180297000Y-139688000D01*
%TO.N,Net-(ZONE7-Pad9)*%
X183517000Y-139762000D02*
X183517000Y-143187000D01*
X185243000Y-138036000D02*
X183517000Y-139762000D01*
X199023000Y-138036000D02*
X185243000Y-138036000D01*
X200617000Y-139630000D02*
X199023000Y-138036000D01*
X200617000Y-143187000D02*
X200617000Y-139630000D01*
%TD*%
D39*
%TO.N,GND*%
G36*
X124726459Y-84672398D02*
X125806200Y-85752244D01*
X125806200Y-89992200D01*
X125815867Y-90040801D01*
X125843397Y-90082003D01*
X125884599Y-90109533D01*
X125933155Y-90119200D01*
X128164191Y-90119993D01*
X131063371Y-93019173D01*
X131105771Y-93082629D01*
X131357163Y-93250604D01*
X131578848Y-93294700D01*
X131578852Y-93294700D01*
X131653700Y-93309588D01*
X131728548Y-93294700D01*
X155497560Y-93294700D01*
X155497560Y-93860000D01*
X155546843Y-94107765D01*
X155687191Y-94317809D01*
X155897235Y-94458157D01*
X156145000Y-94507440D01*
X156395000Y-94507440D01*
X156520000Y-94482576D01*
X156559893Y-94490511D01*
X156631180Y-94597200D01*
X155446482Y-94597200D01*
X155441837Y-94594096D01*
X155220152Y-94550000D01*
X155220147Y-94550000D01*
X155145300Y-94535112D01*
X155070453Y-94550000D01*
X154882541Y-94550000D01*
X154820000Y-94537560D01*
X153820000Y-94537560D01*
X153572235Y-94586843D01*
X153362191Y-94727191D01*
X153221843Y-94937235D01*
X153172560Y-95185000D01*
X153172560Y-95435000D01*
X153195435Y-95550000D01*
X152004202Y-95550000D01*
X150044331Y-93590130D01*
X150001929Y-93526671D01*
X149750537Y-93358696D01*
X149528852Y-93314600D01*
X149528847Y-93314600D01*
X149454000Y-93299712D01*
X149379153Y-93314600D01*
X131356048Y-93314600D01*
X131281200Y-93299712D01*
X131206352Y-93314600D01*
X131206348Y-93314600D01*
X131038792Y-93347929D01*
X130984662Y-93358696D01*
X130847496Y-93450348D01*
X130733271Y-93526671D01*
X130690871Y-93590127D01*
X129125000Y-95155999D01*
X129125000Y-95143690D01*
X129028327Y-94910301D01*
X128849698Y-94731673D01*
X128616309Y-94635000D01*
X126775750Y-94635000D01*
X126617000Y-94793750D01*
X126617000Y-96393000D01*
X126637000Y-96393000D01*
X126637000Y-96647000D01*
X126617000Y-96647000D01*
X126617000Y-98246250D01*
X126775750Y-98405000D01*
X128055401Y-98405000D01*
X128055400Y-108229798D01*
X127369999Y-108915200D01*
X124460000Y-108915200D01*
X124411399Y-108924867D01*
X124370197Y-108952397D01*
X124342667Y-108993599D01*
X124333002Y-109042911D01*
X124348980Y-111895000D01*
X121031723Y-111895000D01*
X121034235Y-111882395D01*
X121012000Y-111770412D01*
X121012000Y-111770217D01*
X120990242Y-111660829D01*
X120946297Y-111439510D01*
X120946185Y-111439343D01*
X120946146Y-111439145D01*
X120820870Y-111251656D01*
X120758856Y-111158777D01*
X120758717Y-111158638D01*
X120695289Y-111063711D01*
X120600687Y-111000500D01*
X119502856Y-109901920D01*
X119539440Y-109718000D01*
X119539440Y-108218000D01*
X119490157Y-107970235D01*
X119349809Y-107760191D01*
X119139765Y-107619843D01*
X118892000Y-107570560D01*
X117392000Y-107570560D01*
X117144235Y-107619843D01*
X116934191Y-107760191D01*
X116793843Y-107970235D01*
X116744560Y-108218000D01*
X116744560Y-109718000D01*
X116793843Y-109965765D01*
X116934191Y-110175809D01*
X117007000Y-110224459D01*
X117007000Y-110306217D01*
X116984765Y-110418000D01*
X117072854Y-110860855D01*
X117243822Y-111116727D01*
X117280177Y-111171136D01*
X116967853Y-111483460D01*
X116757000Y-111992506D01*
X116757000Y-112543494D01*
X116967853Y-113052540D01*
X117280177Y-113364864D01*
X117072854Y-113675145D01*
X116984765Y-114118000D01*
X117007000Y-114229783D01*
X117007000Y-114311541D01*
X116934191Y-114360191D01*
X116793843Y-114570235D01*
X116744560Y-114818000D01*
X116744560Y-116318000D01*
X116793843Y-116565765D01*
X116934191Y-116775809D01*
X117144235Y-116916157D01*
X117392000Y-116965440D01*
X118892000Y-116965440D01*
X119139765Y-116916157D01*
X119349809Y-116775809D01*
X119490157Y-116565765D01*
X119539440Y-116318000D01*
X119539440Y-114981624D01*
X119607289Y-114936289D01*
X119670613Y-114841518D01*
X120347132Y-114165000D01*
X124361697Y-114165000D01*
X124383087Y-117983000D01*
X110260200Y-117983000D01*
X110260200Y-116784226D01*
X110332301Y-116856327D01*
X110565690Y-116953000D01*
X111156250Y-116953000D01*
X111315000Y-116794250D01*
X111315000Y-115695000D01*
X111569000Y-115695000D01*
X111569000Y-116794250D01*
X111727750Y-116953000D01*
X112318310Y-116953000D01*
X112551699Y-116856327D01*
X112730327Y-116677698D01*
X112827000Y-116444309D01*
X112827000Y-115853750D01*
X112668250Y-115695000D01*
X111569000Y-115695000D01*
X111315000Y-115695000D01*
X111295000Y-115695000D01*
X111295000Y-115441000D01*
X111315000Y-115441000D01*
X111315000Y-114341750D01*
X111569000Y-114341750D01*
X111569000Y-115441000D01*
X112668250Y-115441000D01*
X112827000Y-115282250D01*
X112827000Y-114691691D01*
X112730327Y-114458302D01*
X112551699Y-114279673D01*
X112318310Y-114183000D01*
X111727750Y-114183000D01*
X111569000Y-114341750D01*
X111315000Y-114341750D01*
X111156250Y-114183000D01*
X110565690Y-114183000D01*
X110332301Y-114279673D01*
X110260200Y-114351774D01*
X110260200Y-111992506D01*
X110757000Y-111992506D01*
X110757000Y-112543494D01*
X110967853Y-113052540D01*
X111357460Y-113442147D01*
X111866506Y-113653000D01*
X112417494Y-113653000D01*
X112926540Y-113442147D01*
X113316147Y-113052540D01*
X113527000Y-112543494D01*
X113527000Y-111992506D01*
X113316147Y-111483460D01*
X112926540Y-111093853D01*
X112417494Y-110883000D01*
X111866506Y-110883000D01*
X111357460Y-111093853D01*
X110967853Y-111483460D01*
X110757000Y-111992506D01*
X110260200Y-111992506D01*
X110260200Y-110184226D01*
X110332301Y-110256327D01*
X110565690Y-110353000D01*
X111156250Y-110353000D01*
X111315000Y-110194250D01*
X111315000Y-109095000D01*
X111569000Y-109095000D01*
X111569000Y-110194250D01*
X111727750Y-110353000D01*
X112318310Y-110353000D01*
X112551699Y-110256327D01*
X112730327Y-110077698D01*
X112827000Y-109844309D01*
X112827000Y-109253750D01*
X112668250Y-109095000D01*
X111569000Y-109095000D01*
X111315000Y-109095000D01*
X111295000Y-109095000D01*
X111295000Y-108841000D01*
X111315000Y-108841000D01*
X111315000Y-107741750D01*
X111569000Y-107741750D01*
X111569000Y-108841000D01*
X112668250Y-108841000D01*
X112827000Y-108682250D01*
X112827000Y-108218000D01*
X113244560Y-108218000D01*
X113244560Y-109718000D01*
X113293843Y-109965765D01*
X113434191Y-110175809D01*
X113644235Y-110316157D01*
X113882001Y-110363451D01*
X113882000Y-114172549D01*
X113644235Y-114219843D01*
X113434191Y-114360191D01*
X113293843Y-114570235D01*
X113244560Y-114818000D01*
X113244560Y-116318000D01*
X113293843Y-116565765D01*
X113434191Y-116775809D01*
X113644235Y-116916157D01*
X113892000Y-116965440D01*
X115392000Y-116965440D01*
X115639765Y-116916157D01*
X115849809Y-116775809D01*
X115990157Y-116565765D01*
X116039440Y-116318000D01*
X116039440Y-114818000D01*
X115990157Y-114570235D01*
X115849809Y-114360191D01*
X115639765Y-114219843D01*
X115402000Y-114172549D01*
X115402000Y-110363451D01*
X115639765Y-110316157D01*
X115849809Y-110175809D01*
X115990157Y-109965765D01*
X116039440Y-109718000D01*
X116039440Y-108218000D01*
X115990157Y-107970235D01*
X115849809Y-107760191D01*
X115639765Y-107619843D01*
X115392000Y-107570560D01*
X113892000Y-107570560D01*
X113644235Y-107619843D01*
X113434191Y-107760191D01*
X113293843Y-107970235D01*
X113244560Y-108218000D01*
X112827000Y-108218000D01*
X112827000Y-108091691D01*
X112730327Y-107858302D01*
X112551699Y-107679673D01*
X112318310Y-107583000D01*
X111727750Y-107583000D01*
X111569000Y-107741750D01*
X111315000Y-107741750D01*
X111156250Y-107583000D01*
X110565690Y-107583000D01*
X110332301Y-107679673D01*
X110260200Y-107751774D01*
X110260200Y-99008000D01*
X110398590Y-99008000D01*
X110337000Y-99156691D01*
X110337000Y-99747250D01*
X110495750Y-99906000D01*
X111874234Y-99906000D01*
X111893520Y-100160000D01*
X110495750Y-100160000D01*
X110337000Y-100318750D01*
X110337000Y-100909309D01*
X110433673Y-101142698D01*
X110612301Y-101321327D01*
X110845690Y-101418000D01*
X112686250Y-101418000D01*
X112845000Y-101259250D01*
X112845000Y-101130766D01*
X113099000Y-101111480D01*
X113099000Y-101259250D01*
X113257750Y-101418000D01*
X115098310Y-101418000D01*
X115331699Y-101321327D01*
X115510327Y-101142698D01*
X115607000Y-100909309D01*
X115607000Y-100318750D01*
X115448250Y-100160000D01*
X114069766Y-100160000D01*
X114050480Y-99906000D01*
X115448250Y-99906000D01*
X115607000Y-99747250D01*
X115607000Y-99156691D01*
X115545410Y-99008000D01*
X117608274Y-99008000D01*
X117678200Y-99021909D01*
X117748125Y-99008000D01*
X117748126Y-99008000D01*
X117955228Y-98966805D01*
X118190081Y-98809881D01*
X118347005Y-98575028D01*
X118374858Y-98435000D01*
X118376121Y-98428649D01*
X118814170Y-98866698D01*
X119396724Y-99108000D01*
X120027276Y-99108000D01*
X120609830Y-98866698D01*
X121055698Y-98420830D01*
X121297000Y-97838276D01*
X121297000Y-97207724D01*
X121130497Y-96805750D01*
X123855000Y-96805750D01*
X123855000Y-97896310D01*
X123951673Y-98129699D01*
X124130302Y-98308327D01*
X124363691Y-98405000D01*
X126204250Y-98405000D01*
X126363000Y-98246250D01*
X126363000Y-96647000D01*
X124013750Y-96647000D01*
X123855000Y-96805750D01*
X121130497Y-96805750D01*
X121055698Y-96625170D01*
X120609830Y-96179302D01*
X120341123Y-96068000D01*
X121128310Y-96068000D01*
X121361699Y-95971327D01*
X121540327Y-95792698D01*
X121637000Y-95559309D01*
X121637000Y-95418750D01*
X121478252Y-95260002D01*
X121637000Y-95260002D01*
X121637000Y-95257310D01*
X121701969Y-95270235D01*
X121813768Y-95248000D01*
X121813783Y-95248000D01*
X121924280Y-95226021D01*
X122144825Y-95182158D01*
X122144838Y-95182149D01*
X122144855Y-95182146D01*
X122202408Y-95143690D01*
X123855000Y-95143690D01*
X123855000Y-96234250D01*
X124013750Y-96393000D01*
X126363000Y-96393000D01*
X126363000Y-94793750D01*
X126204250Y-94635000D01*
X124363691Y-94635000D01*
X124130302Y-94731673D01*
X123951673Y-94910301D01*
X123855000Y-95143690D01*
X122202408Y-95143690D01*
X122363684Y-95035929D01*
X122425499Y-94994628D01*
X122425506Y-94994621D01*
X122520289Y-94931289D01*
X122583603Y-94836533D01*
X124237510Y-93182719D01*
X124332289Y-93119389D01*
X124471312Y-92911327D01*
X124583133Y-92743985D01*
X124583136Y-92743970D01*
X124583146Y-92743955D01*
X124632967Y-92493488D01*
X124671235Y-92301133D01*
X124649000Y-92189334D01*
X124649000Y-84620641D01*
X124726459Y-84672398D01*
X124726459Y-84672398D01*
G37*
X124726459Y-84672398D02*
X125806200Y-85752244D01*
X125806200Y-89992200D01*
X125815867Y-90040801D01*
X125843397Y-90082003D01*
X125884599Y-90109533D01*
X125933155Y-90119200D01*
X128164191Y-90119993D01*
X131063371Y-93019173D01*
X131105771Y-93082629D01*
X131357163Y-93250604D01*
X131578848Y-93294700D01*
X131578852Y-93294700D01*
X131653700Y-93309588D01*
X131728548Y-93294700D01*
X155497560Y-93294700D01*
X155497560Y-93860000D01*
X155546843Y-94107765D01*
X155687191Y-94317809D01*
X155897235Y-94458157D01*
X156145000Y-94507440D01*
X156395000Y-94507440D01*
X156520000Y-94482576D01*
X156559893Y-94490511D01*
X156631180Y-94597200D01*
X155446482Y-94597200D01*
X155441837Y-94594096D01*
X155220152Y-94550000D01*
X155220147Y-94550000D01*
X155145300Y-94535112D01*
X155070453Y-94550000D01*
X154882541Y-94550000D01*
X154820000Y-94537560D01*
X153820000Y-94537560D01*
X153572235Y-94586843D01*
X153362191Y-94727191D01*
X153221843Y-94937235D01*
X153172560Y-95185000D01*
X153172560Y-95435000D01*
X153195435Y-95550000D01*
X152004202Y-95550000D01*
X150044331Y-93590130D01*
X150001929Y-93526671D01*
X149750537Y-93358696D01*
X149528852Y-93314600D01*
X149528847Y-93314600D01*
X149454000Y-93299712D01*
X149379153Y-93314600D01*
X131356048Y-93314600D01*
X131281200Y-93299712D01*
X131206352Y-93314600D01*
X131206348Y-93314600D01*
X131038792Y-93347929D01*
X130984662Y-93358696D01*
X130847496Y-93450348D01*
X130733271Y-93526671D01*
X130690871Y-93590127D01*
X129125000Y-95155999D01*
X129125000Y-95143690D01*
X129028327Y-94910301D01*
X128849698Y-94731673D01*
X128616309Y-94635000D01*
X126775750Y-94635000D01*
X126617000Y-94793750D01*
X126617000Y-96393000D01*
X126637000Y-96393000D01*
X126637000Y-96647000D01*
X126617000Y-96647000D01*
X126617000Y-98246250D01*
X126775750Y-98405000D01*
X128055401Y-98405000D01*
X128055400Y-108229798D01*
X127369999Y-108915200D01*
X124460000Y-108915200D01*
X124411399Y-108924867D01*
X124370197Y-108952397D01*
X124342667Y-108993599D01*
X124333002Y-109042911D01*
X124348980Y-111895000D01*
X121031723Y-111895000D01*
X121034235Y-111882395D01*
X121012000Y-111770412D01*
X121012000Y-111770217D01*
X120990242Y-111660829D01*
X120946297Y-111439510D01*
X120946185Y-111439343D01*
X120946146Y-111439145D01*
X120820870Y-111251656D01*
X120758856Y-111158777D01*
X120758717Y-111158638D01*
X120695289Y-111063711D01*
X120600687Y-111000500D01*
X119502856Y-109901920D01*
X119539440Y-109718000D01*
X119539440Y-108218000D01*
X119490157Y-107970235D01*
X119349809Y-107760191D01*
X119139765Y-107619843D01*
X118892000Y-107570560D01*
X117392000Y-107570560D01*
X117144235Y-107619843D01*
X116934191Y-107760191D01*
X116793843Y-107970235D01*
X116744560Y-108218000D01*
X116744560Y-109718000D01*
X116793843Y-109965765D01*
X116934191Y-110175809D01*
X117007000Y-110224459D01*
X117007000Y-110306217D01*
X116984765Y-110418000D01*
X117072854Y-110860855D01*
X117243822Y-111116727D01*
X117280177Y-111171136D01*
X116967853Y-111483460D01*
X116757000Y-111992506D01*
X116757000Y-112543494D01*
X116967853Y-113052540D01*
X117280177Y-113364864D01*
X117072854Y-113675145D01*
X116984765Y-114118000D01*
X117007000Y-114229783D01*
X117007000Y-114311541D01*
X116934191Y-114360191D01*
X116793843Y-114570235D01*
X116744560Y-114818000D01*
X116744560Y-116318000D01*
X116793843Y-116565765D01*
X116934191Y-116775809D01*
X117144235Y-116916157D01*
X117392000Y-116965440D01*
X118892000Y-116965440D01*
X119139765Y-116916157D01*
X119349809Y-116775809D01*
X119490157Y-116565765D01*
X119539440Y-116318000D01*
X119539440Y-114981624D01*
X119607289Y-114936289D01*
X119670613Y-114841518D01*
X120347132Y-114165000D01*
X124361697Y-114165000D01*
X124383087Y-117983000D01*
X110260200Y-117983000D01*
X110260200Y-116784226D01*
X110332301Y-116856327D01*
X110565690Y-116953000D01*
X111156250Y-116953000D01*
X111315000Y-116794250D01*
X111315000Y-115695000D01*
X111569000Y-115695000D01*
X111569000Y-116794250D01*
X111727750Y-116953000D01*
X112318310Y-116953000D01*
X112551699Y-116856327D01*
X112730327Y-116677698D01*
X112827000Y-116444309D01*
X112827000Y-115853750D01*
X112668250Y-115695000D01*
X111569000Y-115695000D01*
X111315000Y-115695000D01*
X111295000Y-115695000D01*
X111295000Y-115441000D01*
X111315000Y-115441000D01*
X111315000Y-114341750D01*
X111569000Y-114341750D01*
X111569000Y-115441000D01*
X112668250Y-115441000D01*
X112827000Y-115282250D01*
X112827000Y-114691691D01*
X112730327Y-114458302D01*
X112551699Y-114279673D01*
X112318310Y-114183000D01*
X111727750Y-114183000D01*
X111569000Y-114341750D01*
X111315000Y-114341750D01*
X111156250Y-114183000D01*
X110565690Y-114183000D01*
X110332301Y-114279673D01*
X110260200Y-114351774D01*
X110260200Y-111992506D01*
X110757000Y-111992506D01*
X110757000Y-112543494D01*
X110967853Y-113052540D01*
X111357460Y-113442147D01*
X111866506Y-113653000D01*
X112417494Y-113653000D01*
X112926540Y-113442147D01*
X113316147Y-113052540D01*
X113527000Y-112543494D01*
X113527000Y-111992506D01*
X113316147Y-111483460D01*
X112926540Y-111093853D01*
X112417494Y-110883000D01*
X111866506Y-110883000D01*
X111357460Y-111093853D01*
X110967853Y-111483460D01*
X110757000Y-111992506D01*
X110260200Y-111992506D01*
X110260200Y-110184226D01*
X110332301Y-110256327D01*
X110565690Y-110353000D01*
X111156250Y-110353000D01*
X111315000Y-110194250D01*
X111315000Y-109095000D01*
X111569000Y-109095000D01*
X111569000Y-110194250D01*
X111727750Y-110353000D01*
X112318310Y-110353000D01*
X112551699Y-110256327D01*
X112730327Y-110077698D01*
X112827000Y-109844309D01*
X112827000Y-109253750D01*
X112668250Y-109095000D01*
X111569000Y-109095000D01*
X111315000Y-109095000D01*
X111295000Y-109095000D01*
X111295000Y-108841000D01*
X111315000Y-108841000D01*
X111315000Y-107741750D01*
X111569000Y-107741750D01*
X111569000Y-108841000D01*
X112668250Y-108841000D01*
X112827000Y-108682250D01*
X112827000Y-108218000D01*
X113244560Y-108218000D01*
X113244560Y-109718000D01*
X113293843Y-109965765D01*
X113434191Y-110175809D01*
X113644235Y-110316157D01*
X113882001Y-110363451D01*
X113882000Y-114172549D01*
X113644235Y-114219843D01*
X113434191Y-114360191D01*
X113293843Y-114570235D01*
X113244560Y-114818000D01*
X113244560Y-116318000D01*
X113293843Y-116565765D01*
X113434191Y-116775809D01*
X113644235Y-116916157D01*
X113892000Y-116965440D01*
X115392000Y-116965440D01*
X115639765Y-116916157D01*
X115849809Y-116775809D01*
X115990157Y-116565765D01*
X116039440Y-116318000D01*
X116039440Y-114818000D01*
X115990157Y-114570235D01*
X115849809Y-114360191D01*
X115639765Y-114219843D01*
X115402000Y-114172549D01*
X115402000Y-110363451D01*
X115639765Y-110316157D01*
X115849809Y-110175809D01*
X115990157Y-109965765D01*
X116039440Y-109718000D01*
X116039440Y-108218000D01*
X115990157Y-107970235D01*
X115849809Y-107760191D01*
X115639765Y-107619843D01*
X115392000Y-107570560D01*
X113892000Y-107570560D01*
X113644235Y-107619843D01*
X113434191Y-107760191D01*
X113293843Y-107970235D01*
X113244560Y-108218000D01*
X112827000Y-108218000D01*
X112827000Y-108091691D01*
X112730327Y-107858302D01*
X112551699Y-107679673D01*
X112318310Y-107583000D01*
X111727750Y-107583000D01*
X111569000Y-107741750D01*
X111315000Y-107741750D01*
X111156250Y-107583000D01*
X110565690Y-107583000D01*
X110332301Y-107679673D01*
X110260200Y-107751774D01*
X110260200Y-99008000D01*
X110398590Y-99008000D01*
X110337000Y-99156691D01*
X110337000Y-99747250D01*
X110495750Y-99906000D01*
X111874234Y-99906000D01*
X111893520Y-100160000D01*
X110495750Y-100160000D01*
X110337000Y-100318750D01*
X110337000Y-100909309D01*
X110433673Y-101142698D01*
X110612301Y-101321327D01*
X110845690Y-101418000D01*
X112686250Y-101418000D01*
X112845000Y-101259250D01*
X112845000Y-101130766D01*
X113099000Y-101111480D01*
X113099000Y-101259250D01*
X113257750Y-101418000D01*
X115098310Y-101418000D01*
X115331699Y-101321327D01*
X115510327Y-101142698D01*
X115607000Y-100909309D01*
X115607000Y-100318750D01*
X115448250Y-100160000D01*
X114069766Y-100160000D01*
X114050480Y-99906000D01*
X115448250Y-99906000D01*
X115607000Y-99747250D01*
X115607000Y-99156691D01*
X115545410Y-99008000D01*
X117608274Y-99008000D01*
X117678200Y-99021909D01*
X117748125Y-99008000D01*
X117748126Y-99008000D01*
X117955228Y-98966805D01*
X118190081Y-98809881D01*
X118347005Y-98575028D01*
X118374858Y-98435000D01*
X118376121Y-98428649D01*
X118814170Y-98866698D01*
X119396724Y-99108000D01*
X120027276Y-99108000D01*
X120609830Y-98866698D01*
X121055698Y-98420830D01*
X121297000Y-97838276D01*
X121297000Y-97207724D01*
X121130497Y-96805750D01*
X123855000Y-96805750D01*
X123855000Y-97896310D01*
X123951673Y-98129699D01*
X124130302Y-98308327D01*
X124363691Y-98405000D01*
X126204250Y-98405000D01*
X126363000Y-98246250D01*
X126363000Y-96647000D01*
X124013750Y-96647000D01*
X123855000Y-96805750D01*
X121130497Y-96805750D01*
X121055698Y-96625170D01*
X120609830Y-96179302D01*
X120341123Y-96068000D01*
X121128310Y-96068000D01*
X121361699Y-95971327D01*
X121540327Y-95792698D01*
X121637000Y-95559309D01*
X121637000Y-95418750D01*
X121478252Y-95260002D01*
X121637000Y-95260002D01*
X121637000Y-95257310D01*
X121701969Y-95270235D01*
X121813768Y-95248000D01*
X121813783Y-95248000D01*
X121924280Y-95226021D01*
X122144825Y-95182158D01*
X122144838Y-95182149D01*
X122144855Y-95182146D01*
X122202408Y-95143690D01*
X123855000Y-95143690D01*
X123855000Y-96234250D01*
X124013750Y-96393000D01*
X126363000Y-96393000D01*
X126363000Y-94793750D01*
X126204250Y-94635000D01*
X124363691Y-94635000D01*
X124130302Y-94731673D01*
X123951673Y-94910301D01*
X123855000Y-95143690D01*
X122202408Y-95143690D01*
X122363684Y-95035929D01*
X122425499Y-94994628D01*
X122425506Y-94994621D01*
X122520289Y-94931289D01*
X122583603Y-94836533D01*
X124237510Y-93182719D01*
X124332289Y-93119389D01*
X124471312Y-92911327D01*
X124583133Y-92743985D01*
X124583136Y-92743970D01*
X124583146Y-92743955D01*
X124632967Y-92493488D01*
X124671235Y-92301133D01*
X124649000Y-92189334D01*
X124649000Y-84620641D01*
X124726459Y-84672398D01*
G36*
X161145000Y-105907440D02*
X161395000Y-105907440D01*
X161498852Y-105886783D01*
X161510000Y-105891401D01*
X161510001Y-107685148D01*
X161499117Y-107739867D01*
X161397250Y-107638000D01*
X161156691Y-107638000D01*
X160923302Y-107734673D01*
X160744673Y-107913301D01*
X160648000Y-108146690D01*
X160648000Y-108362250D01*
X160806750Y-108521000D01*
X161556000Y-108521000D01*
X161556000Y-108501000D01*
X161810000Y-108501000D01*
X161810000Y-108521000D01*
X161830000Y-108521000D01*
X161830000Y-108775000D01*
X161810000Y-108775000D01*
X161810000Y-108795000D01*
X161556000Y-108795000D01*
X161556000Y-108775000D01*
X160806750Y-108775000D01*
X160666550Y-108915200D01*
X160258901Y-108915200D01*
X160030000Y-108686299D01*
X160030000Y-105884565D01*
X160145000Y-105907440D01*
X160395000Y-105907440D01*
X160520000Y-105882576D01*
X160645000Y-105907440D01*
X160895000Y-105907440D01*
X161020000Y-105882576D01*
X161145000Y-105907440D01*
X161145000Y-105907440D01*
G37*
X161145000Y-105907440D02*
X161395000Y-105907440D01*
X161498852Y-105886783D01*
X161510000Y-105891401D01*
X161510001Y-107685148D01*
X161499117Y-107739867D01*
X161397250Y-107638000D01*
X161156691Y-107638000D01*
X160923302Y-107734673D01*
X160744673Y-107913301D01*
X160648000Y-108146690D01*
X160648000Y-108362250D01*
X160806750Y-108521000D01*
X161556000Y-108521000D01*
X161556000Y-108501000D01*
X161810000Y-108501000D01*
X161810000Y-108521000D01*
X161830000Y-108521000D01*
X161830000Y-108775000D01*
X161810000Y-108775000D01*
X161810000Y-108795000D01*
X161556000Y-108795000D01*
X161556000Y-108775000D01*
X160806750Y-108775000D01*
X160666550Y-108915200D01*
X160258901Y-108915200D01*
X160030000Y-108686299D01*
X160030000Y-105884565D01*
X160145000Y-105907440D01*
X160395000Y-105907440D01*
X160520000Y-105882576D01*
X160645000Y-105907440D01*
X160895000Y-105907440D01*
X161020000Y-105882576D01*
X161145000Y-105907440D01*
G36*
X138115000Y-97614250D02*
X138273750Y-97773000D01*
X142123000Y-97773000D01*
X142123000Y-97753000D01*
X142377000Y-97753000D01*
X142377000Y-97773000D01*
X146226250Y-97773000D01*
X146385000Y-97614250D01*
X146385000Y-97464853D01*
X146525245Y-97803435D01*
X146788265Y-98066455D01*
X147131917Y-98208800D01*
X147503883Y-98208800D01*
X147847535Y-98066455D01*
X147880190Y-98033800D01*
X153192212Y-98033800D01*
X153197424Y-98060000D01*
X153172560Y-98185000D01*
X153172560Y-98435000D01*
X153197424Y-98560000D01*
X153172560Y-98685000D01*
X153172560Y-98935000D01*
X153197424Y-99060000D01*
X153172560Y-99185000D01*
X153172560Y-99435000D01*
X153197424Y-99560000D01*
X153172560Y-99685000D01*
X153172560Y-99935000D01*
X153197424Y-100060000D01*
X153172560Y-100185000D01*
X153172560Y-100435000D01*
X153193217Y-100538852D01*
X153185000Y-100558690D01*
X153185000Y-100588750D01*
X153207647Y-100611397D01*
X153221843Y-100682765D01*
X153306859Y-100810000D01*
X153221843Y-100937235D01*
X153207647Y-101008603D01*
X153185000Y-101031250D01*
X153185000Y-101061310D01*
X153193217Y-101081148D01*
X153172560Y-101185000D01*
X153172560Y-101435000D01*
X153197424Y-101560000D01*
X153172560Y-101685000D01*
X153172560Y-101935000D01*
X153193217Y-102038852D01*
X153188600Y-102050000D01*
X152243846Y-102050000D01*
X152189133Y-102039117D01*
X152204000Y-102024250D01*
X152204000Y-101783691D01*
X152107327Y-101550302D01*
X151928699Y-101371673D01*
X151695310Y-101275000D01*
X151479750Y-101275000D01*
X151321000Y-101433750D01*
X151321000Y-102183000D01*
X151341000Y-102183000D01*
X151341000Y-102437000D01*
X151321000Y-102437000D01*
X151321000Y-102457000D01*
X151067000Y-102457000D01*
X151067000Y-102437000D01*
X150342750Y-102437000D01*
X150184000Y-102595750D01*
X150184000Y-102665754D01*
X150118699Y-102652765D01*
X149675845Y-102740854D01*
X149300411Y-102991711D01*
X149237089Y-103086479D01*
X148158569Y-104165000D01*
X146177440Y-104165000D01*
X146177440Y-103550000D01*
X146128157Y-103302235D01*
X145987809Y-103092191D01*
X145777765Y-102951843D01*
X145530000Y-102902560D01*
X143530000Y-102902560D01*
X143282235Y-102951843D01*
X143072191Y-103092191D01*
X142931843Y-103302235D01*
X142882560Y-103550000D01*
X142882560Y-106645300D01*
X141597440Y-106645300D01*
X141597440Y-103550000D01*
X141548157Y-103302235D01*
X141407809Y-103092191D01*
X141197765Y-102951843D01*
X140950000Y-102902560D01*
X138950000Y-102902560D01*
X138702235Y-102951843D01*
X138492191Y-103092191D01*
X138351843Y-103302235D01*
X138302560Y-103550000D01*
X138302560Y-104165000D01*
X133876582Y-104165000D01*
X133764799Y-104142765D01*
X133725000Y-104150682D01*
X133725000Y-98417440D01*
X134590000Y-98417440D01*
X134837765Y-98368157D01*
X135047809Y-98227809D01*
X135075912Y-98185750D01*
X138115000Y-98185750D01*
X138115000Y-101526310D01*
X138211673Y-101759699D01*
X138390302Y-101938327D01*
X138623691Y-102035000D01*
X141964250Y-102035000D01*
X142123000Y-101876250D01*
X142123000Y-98027000D01*
X142377000Y-98027000D01*
X142377000Y-101876250D01*
X142535750Y-102035000D01*
X145876309Y-102035000D01*
X146109698Y-101938327D01*
X146264334Y-101783691D01*
X150184000Y-101783691D01*
X150184000Y-102024250D01*
X150342750Y-102183000D01*
X151067000Y-102183000D01*
X151067000Y-101433750D01*
X150908250Y-101275000D01*
X150692690Y-101275000D01*
X150459301Y-101371673D01*
X150280673Y-101550302D01*
X150184000Y-101783691D01*
X146264334Y-101783691D01*
X146288327Y-101759699D01*
X146385000Y-101526310D01*
X146385000Y-98185750D01*
X146226250Y-98027000D01*
X142377000Y-98027000D01*
X142123000Y-98027000D01*
X138273750Y-98027000D01*
X138115000Y-98185750D01*
X135075912Y-98185750D01*
X135188157Y-98017765D01*
X135237440Y-97770000D01*
X135237440Y-95270000D01*
X135188157Y-95022235D01*
X135062782Y-94834600D01*
X138115000Y-94834600D01*
X138115000Y-97614250D01*
X138115000Y-97614250D01*
G37*
X138115000Y-97614250D02*
X138273750Y-97773000D01*
X142123000Y-97773000D01*
X142123000Y-97753000D01*
X142377000Y-97753000D01*
X142377000Y-97773000D01*
X146226250Y-97773000D01*
X146385000Y-97614250D01*
X146385000Y-97464853D01*
X146525245Y-97803435D01*
X146788265Y-98066455D01*
X147131917Y-98208800D01*
X147503883Y-98208800D01*
X147847535Y-98066455D01*
X147880190Y-98033800D01*
X153192212Y-98033800D01*
X153197424Y-98060000D01*
X153172560Y-98185000D01*
X153172560Y-98435000D01*
X153197424Y-98560000D01*
X153172560Y-98685000D01*
X153172560Y-98935000D01*
X153197424Y-99060000D01*
X153172560Y-99185000D01*
X153172560Y-99435000D01*
X153197424Y-99560000D01*
X153172560Y-99685000D01*
X153172560Y-99935000D01*
X153197424Y-100060000D01*
X153172560Y-100185000D01*
X153172560Y-100435000D01*
X153193217Y-100538852D01*
X153185000Y-100558690D01*
X153185000Y-100588750D01*
X153207647Y-100611397D01*
X153221843Y-100682765D01*
X153306859Y-100810000D01*
X153221843Y-100937235D01*
X153207647Y-101008603D01*
X153185000Y-101031250D01*
X153185000Y-101061310D01*
X153193217Y-101081148D01*
X153172560Y-101185000D01*
X153172560Y-101435000D01*
X153197424Y-101560000D01*
X153172560Y-101685000D01*
X153172560Y-101935000D01*
X153193217Y-102038852D01*
X153188600Y-102050000D01*
X152243846Y-102050000D01*
X152189133Y-102039117D01*
X152204000Y-102024250D01*
X152204000Y-101783691D01*
X152107327Y-101550302D01*
X151928699Y-101371673D01*
X151695310Y-101275000D01*
X151479750Y-101275000D01*
X151321000Y-101433750D01*
X151321000Y-102183000D01*
X151341000Y-102183000D01*
X151341000Y-102437000D01*
X151321000Y-102437000D01*
X151321000Y-102457000D01*
X151067000Y-102457000D01*
X151067000Y-102437000D01*
X150342750Y-102437000D01*
X150184000Y-102595750D01*
X150184000Y-102665754D01*
X150118699Y-102652765D01*
X149675845Y-102740854D01*
X149300411Y-102991711D01*
X149237089Y-103086479D01*
X148158569Y-104165000D01*
X146177440Y-104165000D01*
X146177440Y-103550000D01*
X146128157Y-103302235D01*
X145987809Y-103092191D01*
X145777765Y-102951843D01*
X145530000Y-102902560D01*
X143530000Y-102902560D01*
X143282235Y-102951843D01*
X143072191Y-103092191D01*
X142931843Y-103302235D01*
X142882560Y-103550000D01*
X142882560Y-106645300D01*
X141597440Y-106645300D01*
X141597440Y-103550000D01*
X141548157Y-103302235D01*
X141407809Y-103092191D01*
X141197765Y-102951843D01*
X140950000Y-102902560D01*
X138950000Y-102902560D01*
X138702235Y-102951843D01*
X138492191Y-103092191D01*
X138351843Y-103302235D01*
X138302560Y-103550000D01*
X138302560Y-104165000D01*
X133876582Y-104165000D01*
X133764799Y-104142765D01*
X133725000Y-104150682D01*
X133725000Y-98417440D01*
X134590000Y-98417440D01*
X134837765Y-98368157D01*
X135047809Y-98227809D01*
X135075912Y-98185750D01*
X138115000Y-98185750D01*
X138115000Y-101526310D01*
X138211673Y-101759699D01*
X138390302Y-101938327D01*
X138623691Y-102035000D01*
X141964250Y-102035000D01*
X142123000Y-101876250D01*
X142123000Y-98027000D01*
X142377000Y-98027000D01*
X142377000Y-101876250D01*
X142535750Y-102035000D01*
X145876309Y-102035000D01*
X146109698Y-101938327D01*
X146264334Y-101783691D01*
X150184000Y-101783691D01*
X150184000Y-102024250D01*
X150342750Y-102183000D01*
X151067000Y-102183000D01*
X151067000Y-101433750D01*
X150908250Y-101275000D01*
X150692690Y-101275000D01*
X150459301Y-101371673D01*
X150280673Y-101550302D01*
X150184000Y-101783691D01*
X146264334Y-101783691D01*
X146288327Y-101759699D01*
X146385000Y-101526310D01*
X146385000Y-98185750D01*
X146226250Y-98027000D01*
X142377000Y-98027000D01*
X142123000Y-98027000D01*
X138273750Y-98027000D01*
X138115000Y-98185750D01*
X135075912Y-98185750D01*
X135188157Y-98017765D01*
X135237440Y-97770000D01*
X135237440Y-95270000D01*
X135188157Y-95022235D01*
X135062782Y-94834600D01*
X138115000Y-94834600D01*
X138115000Y-97614250D01*
G36*
X194399296Y-93194827D02*
X194190642Y-93292817D01*
X193800355Y-93721076D01*
X193630524Y-94131110D01*
X193751845Y-94361000D01*
X194945000Y-94361000D01*
X194945000Y-94341000D01*
X195199000Y-94341000D01*
X195199000Y-94361000D01*
X195219000Y-94361000D01*
X195219000Y-94615000D01*
X195199000Y-94615000D01*
X195199000Y-94635000D01*
X194945000Y-94635000D01*
X194945000Y-94615000D01*
X193751845Y-94615000D01*
X193630524Y-94844890D01*
X193800355Y-95254924D01*
X194190642Y-95683183D01*
X194320478Y-95744157D01*
X194001375Y-95957375D01*
X193673161Y-96448582D01*
X193557908Y-97028000D01*
X193673161Y-97607418D01*
X194001375Y-98098625D01*
X194299761Y-98298000D01*
X194001375Y-98497375D01*
X193789526Y-98814429D01*
X193600163Y-98852096D01*
X193348771Y-99020071D01*
X193306371Y-99083527D01*
X190081499Y-102308400D01*
X188019440Y-102308400D01*
X188019440Y-101473000D01*
X187970157Y-101225235D01*
X187829809Y-101015191D01*
X187619765Y-100874843D01*
X187434541Y-100838000D01*
X187619765Y-100801157D01*
X187829809Y-100660809D01*
X187970157Y-100450765D01*
X188019440Y-100203000D01*
X188019440Y-98933000D01*
X187970157Y-98685235D01*
X187829809Y-98475191D01*
X187619765Y-98334843D01*
X187434541Y-98298000D01*
X187619765Y-98261157D01*
X187829809Y-98120809D01*
X187970157Y-97910765D01*
X188019440Y-97663000D01*
X188019440Y-96393000D01*
X187970157Y-96145235D01*
X187829809Y-95935191D01*
X187619765Y-95794843D01*
X187434541Y-95758000D01*
X187619765Y-95721157D01*
X187829809Y-95580809D01*
X187970157Y-95370765D01*
X188019440Y-95123000D01*
X188019440Y-93853000D01*
X187970157Y-93605235D01*
X187829809Y-93395191D01*
X187619765Y-93254843D01*
X187372000Y-93205560D01*
X183772000Y-93205560D01*
X183524235Y-93254843D01*
X183314191Y-93395191D01*
X183173843Y-93605235D01*
X183139195Y-93779424D01*
X183063360Y-93830096D01*
X182987626Y-93880700D01*
X182624817Y-93880700D01*
X182281165Y-94023045D01*
X182018145Y-94286065D01*
X181875800Y-94629717D01*
X181875800Y-95001683D01*
X182018145Y-95345335D01*
X182281165Y-95608355D01*
X182624817Y-95750700D01*
X182996783Y-95750700D01*
X183340435Y-95608355D01*
X183346436Y-95602354D01*
X183524235Y-95721157D01*
X183709459Y-95758000D01*
X183524235Y-95794843D01*
X183314191Y-95935191D01*
X183173843Y-96145235D01*
X183139195Y-96319425D01*
X182898771Y-96480071D01*
X182856371Y-96543527D01*
X181861899Y-97538000D01*
X181607000Y-97538000D01*
X181607000Y-97313750D01*
X181448250Y-97155000D01*
X179299000Y-97155000D01*
X179299000Y-98139250D01*
X179457750Y-98298000D01*
X179299000Y-98456750D01*
X179299000Y-99441000D01*
X181448250Y-99441000D01*
X181607000Y-99282250D01*
X181607000Y-99058000D01*
X182101853Y-99058000D01*
X182176700Y-99072888D01*
X182251547Y-99058000D01*
X182251552Y-99058000D01*
X182473237Y-99013904D01*
X182724629Y-98845929D01*
X182767031Y-98782470D01*
X183382829Y-98166672D01*
X183524235Y-98261157D01*
X183709459Y-98298000D01*
X183524235Y-98334843D01*
X183314191Y-98475191D01*
X183173843Y-98685235D01*
X183124560Y-98933000D01*
X183124560Y-100203000D01*
X183173843Y-100450765D01*
X183314191Y-100660809D01*
X183524235Y-100801157D01*
X183709459Y-100838000D01*
X183524235Y-100874843D01*
X183314191Y-101015191D01*
X183173843Y-101225235D01*
X183124560Y-101473000D01*
X183124560Y-102743000D01*
X183172050Y-102981749D01*
X181607000Y-104546799D01*
X181607000Y-104520998D01*
X181448252Y-104520998D01*
X181607000Y-104362250D01*
X181607000Y-103886691D01*
X181510327Y-103653302D01*
X181331699Y-103474673D01*
X181098310Y-103378000D01*
X181034541Y-103378000D01*
X181219765Y-103341157D01*
X181429809Y-103200809D01*
X181570157Y-102990765D01*
X181619440Y-102743000D01*
X181619440Y-101473000D01*
X181570157Y-101225235D01*
X181429809Y-101015191D01*
X181219765Y-100874843D01*
X181034541Y-100838000D01*
X181098310Y-100838000D01*
X181331699Y-100741327D01*
X181510327Y-100562698D01*
X181607000Y-100329309D01*
X181607000Y-99853750D01*
X181448250Y-99695000D01*
X179299000Y-99695000D01*
X179299000Y-99715000D01*
X179045000Y-99715000D01*
X179045000Y-99695000D01*
X176895750Y-99695000D01*
X176737000Y-99853750D01*
X176737000Y-100329309D01*
X176833673Y-100562698D01*
X177012301Y-100741327D01*
X177245690Y-100838000D01*
X177309459Y-100838000D01*
X177124235Y-100874843D01*
X176914191Y-101015191D01*
X176773843Y-101225235D01*
X176724560Y-101473000D01*
X176724560Y-102743000D01*
X176773843Y-102990765D01*
X176914191Y-103200809D01*
X177124235Y-103341157D01*
X177309459Y-103378000D01*
X177245690Y-103378000D01*
X177012301Y-103474673D01*
X176833673Y-103653302D01*
X176737000Y-103886691D01*
X176737000Y-104362250D01*
X176895750Y-104521000D01*
X179045000Y-104521000D01*
X179045000Y-104501000D01*
X179299000Y-104501000D01*
X179299000Y-104521000D01*
X179319000Y-104521000D01*
X179319000Y-104775000D01*
X179299000Y-104775000D01*
X179299000Y-104795000D01*
X179045000Y-104795000D01*
X179045000Y-104775000D01*
X176895750Y-104775000D01*
X176788050Y-104882700D01*
X170227969Y-104882700D01*
X170319335Y-104844855D01*
X170582355Y-104581835D01*
X170724700Y-104238183D01*
X170724700Y-103866217D01*
X170582355Y-103522565D01*
X170319335Y-103259545D01*
X169975683Y-103117200D01*
X169929502Y-103117200D01*
X168137831Y-101325530D01*
X168095429Y-101262071D01*
X167844037Y-101094096D01*
X167622352Y-101050000D01*
X167622347Y-101050000D01*
X167547500Y-101035112D01*
X167472653Y-101050000D01*
X166844565Y-101050000D01*
X166867440Y-100935000D01*
X166867440Y-100685000D01*
X166842576Y-100560000D01*
X166867440Y-100435000D01*
X166867440Y-100185000D01*
X166842576Y-100060000D01*
X166867440Y-99935000D01*
X166867440Y-99685000D01*
X166842576Y-99560000D01*
X166867440Y-99435000D01*
X166867440Y-99185000D01*
X166842576Y-99060000D01*
X166867440Y-98935000D01*
X166867440Y-98685000D01*
X166842576Y-98560000D01*
X166867440Y-98435000D01*
X166867440Y-98185000D01*
X166842576Y-98060000D01*
X166867440Y-97935000D01*
X166867440Y-97685000D01*
X166842576Y-97560000D01*
X166867440Y-97435000D01*
X166867440Y-97313750D01*
X176737000Y-97313750D01*
X176737000Y-97789309D01*
X176833673Y-98022698D01*
X177012301Y-98201327D01*
X177245690Y-98298000D01*
X177012301Y-98394673D01*
X176833673Y-98573302D01*
X176737000Y-98806691D01*
X176737000Y-99282250D01*
X176895750Y-99441000D01*
X179045000Y-99441000D01*
X179045000Y-98456750D01*
X178886250Y-98298000D01*
X179045000Y-98139250D01*
X179045000Y-97155000D01*
X176895750Y-97155000D01*
X176737000Y-97313750D01*
X166867440Y-97313750D01*
X166867440Y-97185000D01*
X166842576Y-97060000D01*
X166867440Y-96935000D01*
X166867440Y-96685000D01*
X166842576Y-96560000D01*
X166859334Y-96475750D01*
X168789000Y-96475750D01*
X168789000Y-96716309D01*
X168885673Y-96949698D01*
X169064301Y-97128327D01*
X169297690Y-97225000D01*
X169513250Y-97225000D01*
X169672000Y-97066250D01*
X169672000Y-96317000D01*
X169926000Y-96317000D01*
X169926000Y-97066250D01*
X170084750Y-97225000D01*
X170300310Y-97225000D01*
X170533699Y-97128327D01*
X170712327Y-96949698D01*
X170809000Y-96716309D01*
X170809000Y-96475750D01*
X170650250Y-96317000D01*
X169926000Y-96317000D01*
X169672000Y-96317000D01*
X168947750Y-96317000D01*
X168789000Y-96475750D01*
X166859334Y-96475750D01*
X166867440Y-96435000D01*
X166867440Y-96185000D01*
X166846783Y-96081148D01*
X166851400Y-96070000D01*
X169104153Y-96070000D01*
X169179000Y-96084888D01*
X169253847Y-96070000D01*
X169253852Y-96070000D01*
X169289043Y-96063000D01*
X169672000Y-96063000D01*
X169672000Y-96043000D01*
X169926000Y-96043000D01*
X169926000Y-96063000D01*
X170650250Y-96063000D01*
X170809000Y-95904250D01*
X170809000Y-95825000D01*
X176357917Y-95825000D01*
X176469700Y-95847235D01*
X176581483Y-95825000D01*
X176912555Y-95759146D01*
X177046823Y-95669431D01*
X177124235Y-95721157D01*
X177309459Y-95758000D01*
X177245690Y-95758000D01*
X177012301Y-95854673D01*
X176833673Y-96033302D01*
X176737000Y-96266691D01*
X176737000Y-96742250D01*
X176895750Y-96901000D01*
X179045000Y-96901000D01*
X179045000Y-96881000D01*
X179299000Y-96881000D01*
X179299000Y-96901000D01*
X181448250Y-96901000D01*
X181607000Y-96742250D01*
X181607000Y-96266691D01*
X181510327Y-96033302D01*
X181331699Y-95854673D01*
X181098310Y-95758000D01*
X181034541Y-95758000D01*
X181219765Y-95721157D01*
X181429809Y-95580809D01*
X181570157Y-95370765D01*
X181619440Y-95123000D01*
X181619440Y-93853000D01*
X181585046Y-93680086D01*
X182183032Y-93082100D01*
X194286569Y-93082100D01*
X194399296Y-93194827D01*
X194399296Y-93194827D01*
G37*
X194399296Y-93194827D02*
X194190642Y-93292817D01*
X193800355Y-93721076D01*
X193630524Y-94131110D01*
X193751845Y-94361000D01*
X194945000Y-94361000D01*
X194945000Y-94341000D01*
X195199000Y-94341000D01*
X195199000Y-94361000D01*
X195219000Y-94361000D01*
X195219000Y-94615000D01*
X195199000Y-94615000D01*
X195199000Y-94635000D01*
X194945000Y-94635000D01*
X194945000Y-94615000D01*
X193751845Y-94615000D01*
X193630524Y-94844890D01*
X193800355Y-95254924D01*
X194190642Y-95683183D01*
X194320478Y-95744157D01*
X194001375Y-95957375D01*
X193673161Y-96448582D01*
X193557908Y-97028000D01*
X193673161Y-97607418D01*
X194001375Y-98098625D01*
X194299761Y-98298000D01*
X194001375Y-98497375D01*
X193789526Y-98814429D01*
X193600163Y-98852096D01*
X193348771Y-99020071D01*
X193306371Y-99083527D01*
X190081499Y-102308400D01*
X188019440Y-102308400D01*
X188019440Y-101473000D01*
X187970157Y-101225235D01*
X187829809Y-101015191D01*
X187619765Y-100874843D01*
X187434541Y-100838000D01*
X187619765Y-100801157D01*
X187829809Y-100660809D01*
X187970157Y-100450765D01*
X188019440Y-100203000D01*
X188019440Y-98933000D01*
X187970157Y-98685235D01*
X187829809Y-98475191D01*
X187619765Y-98334843D01*
X187434541Y-98298000D01*
X187619765Y-98261157D01*
X187829809Y-98120809D01*
X187970157Y-97910765D01*
X188019440Y-97663000D01*
X188019440Y-96393000D01*
X187970157Y-96145235D01*
X187829809Y-95935191D01*
X187619765Y-95794843D01*
X187434541Y-95758000D01*
X187619765Y-95721157D01*
X187829809Y-95580809D01*
X187970157Y-95370765D01*
X188019440Y-95123000D01*
X188019440Y-93853000D01*
X187970157Y-93605235D01*
X187829809Y-93395191D01*
X187619765Y-93254843D01*
X187372000Y-93205560D01*
X183772000Y-93205560D01*
X183524235Y-93254843D01*
X183314191Y-93395191D01*
X183173843Y-93605235D01*
X183139195Y-93779424D01*
X183063360Y-93830096D01*
X182987626Y-93880700D01*
X182624817Y-93880700D01*
X182281165Y-94023045D01*
X182018145Y-94286065D01*
X181875800Y-94629717D01*
X181875800Y-95001683D01*
X182018145Y-95345335D01*
X182281165Y-95608355D01*
X182624817Y-95750700D01*
X182996783Y-95750700D01*
X183340435Y-95608355D01*
X183346436Y-95602354D01*
X183524235Y-95721157D01*
X183709459Y-95758000D01*
X183524235Y-95794843D01*
X183314191Y-95935191D01*
X183173843Y-96145235D01*
X183139195Y-96319425D01*
X182898771Y-96480071D01*
X182856371Y-96543527D01*
X181861899Y-97538000D01*
X181607000Y-97538000D01*
X181607000Y-97313750D01*
X181448250Y-97155000D01*
X179299000Y-97155000D01*
X179299000Y-98139250D01*
X179457750Y-98298000D01*
X179299000Y-98456750D01*
X179299000Y-99441000D01*
X181448250Y-99441000D01*
X181607000Y-99282250D01*
X181607000Y-99058000D01*
X182101853Y-99058000D01*
X182176700Y-99072888D01*
X182251547Y-99058000D01*
X182251552Y-99058000D01*
X182473237Y-99013904D01*
X182724629Y-98845929D01*
X182767031Y-98782470D01*
X183382829Y-98166672D01*
X183524235Y-98261157D01*
X183709459Y-98298000D01*
X183524235Y-98334843D01*
X183314191Y-98475191D01*
X183173843Y-98685235D01*
X183124560Y-98933000D01*
X183124560Y-100203000D01*
X183173843Y-100450765D01*
X183314191Y-100660809D01*
X183524235Y-100801157D01*
X183709459Y-100838000D01*
X183524235Y-100874843D01*
X183314191Y-101015191D01*
X183173843Y-101225235D01*
X183124560Y-101473000D01*
X183124560Y-102743000D01*
X183172050Y-102981749D01*
X181607000Y-104546799D01*
X181607000Y-104520998D01*
X181448252Y-104520998D01*
X181607000Y-104362250D01*
X181607000Y-103886691D01*
X181510327Y-103653302D01*
X181331699Y-103474673D01*
X181098310Y-103378000D01*
X181034541Y-103378000D01*
X181219765Y-103341157D01*
X181429809Y-103200809D01*
X181570157Y-102990765D01*
X181619440Y-102743000D01*
X181619440Y-101473000D01*
X181570157Y-101225235D01*
X181429809Y-101015191D01*
X181219765Y-100874843D01*
X181034541Y-100838000D01*
X181098310Y-100838000D01*
X181331699Y-100741327D01*
X181510327Y-100562698D01*
X181607000Y-100329309D01*
X181607000Y-99853750D01*
X181448250Y-99695000D01*
X179299000Y-99695000D01*
X179299000Y-99715000D01*
X179045000Y-99715000D01*
X179045000Y-99695000D01*
X176895750Y-99695000D01*
X176737000Y-99853750D01*
X176737000Y-100329309D01*
X176833673Y-100562698D01*
X177012301Y-100741327D01*
X177245690Y-100838000D01*
X177309459Y-100838000D01*
X177124235Y-100874843D01*
X176914191Y-101015191D01*
X176773843Y-101225235D01*
X176724560Y-101473000D01*
X176724560Y-102743000D01*
X176773843Y-102990765D01*
X176914191Y-103200809D01*
X177124235Y-103341157D01*
X177309459Y-103378000D01*
X177245690Y-103378000D01*
X177012301Y-103474673D01*
X176833673Y-103653302D01*
X176737000Y-103886691D01*
X176737000Y-104362250D01*
X176895750Y-104521000D01*
X179045000Y-104521000D01*
X179045000Y-104501000D01*
X179299000Y-104501000D01*
X179299000Y-104521000D01*
X179319000Y-104521000D01*
X179319000Y-104775000D01*
X179299000Y-104775000D01*
X179299000Y-104795000D01*
X179045000Y-104795000D01*
X179045000Y-104775000D01*
X176895750Y-104775000D01*
X176788050Y-104882700D01*
X170227969Y-104882700D01*
X170319335Y-104844855D01*
X170582355Y-104581835D01*
X170724700Y-104238183D01*
X170724700Y-103866217D01*
X170582355Y-103522565D01*
X170319335Y-103259545D01*
X169975683Y-103117200D01*
X169929502Y-103117200D01*
X168137831Y-101325530D01*
X168095429Y-101262071D01*
X167844037Y-101094096D01*
X167622352Y-101050000D01*
X167622347Y-101050000D01*
X167547500Y-101035112D01*
X167472653Y-101050000D01*
X166844565Y-101050000D01*
X166867440Y-100935000D01*
X166867440Y-100685000D01*
X166842576Y-100560000D01*
X166867440Y-100435000D01*
X166867440Y-100185000D01*
X166842576Y-100060000D01*
X166867440Y-99935000D01*
X166867440Y-99685000D01*
X166842576Y-99560000D01*
X166867440Y-99435000D01*
X166867440Y-99185000D01*
X166842576Y-99060000D01*
X166867440Y-98935000D01*
X166867440Y-98685000D01*
X166842576Y-98560000D01*
X166867440Y-98435000D01*
X166867440Y-98185000D01*
X166842576Y-98060000D01*
X166867440Y-97935000D01*
X166867440Y-97685000D01*
X166842576Y-97560000D01*
X166867440Y-97435000D01*
X166867440Y-97313750D01*
X176737000Y-97313750D01*
X176737000Y-97789309D01*
X176833673Y-98022698D01*
X177012301Y-98201327D01*
X177245690Y-98298000D01*
X177012301Y-98394673D01*
X176833673Y-98573302D01*
X176737000Y-98806691D01*
X176737000Y-99282250D01*
X176895750Y-99441000D01*
X179045000Y-99441000D01*
X179045000Y-98456750D01*
X178886250Y-98298000D01*
X179045000Y-98139250D01*
X179045000Y-97155000D01*
X176895750Y-97155000D01*
X176737000Y-97313750D01*
X166867440Y-97313750D01*
X166867440Y-97185000D01*
X166842576Y-97060000D01*
X166867440Y-96935000D01*
X166867440Y-96685000D01*
X166842576Y-96560000D01*
X166859334Y-96475750D01*
X168789000Y-96475750D01*
X168789000Y-96716309D01*
X168885673Y-96949698D01*
X169064301Y-97128327D01*
X169297690Y-97225000D01*
X169513250Y-97225000D01*
X169672000Y-97066250D01*
X169672000Y-96317000D01*
X169926000Y-96317000D01*
X169926000Y-97066250D01*
X170084750Y-97225000D01*
X170300310Y-97225000D01*
X170533699Y-97128327D01*
X170712327Y-96949698D01*
X170809000Y-96716309D01*
X170809000Y-96475750D01*
X170650250Y-96317000D01*
X169926000Y-96317000D01*
X169672000Y-96317000D01*
X168947750Y-96317000D01*
X168789000Y-96475750D01*
X166859334Y-96475750D01*
X166867440Y-96435000D01*
X166867440Y-96185000D01*
X166846783Y-96081148D01*
X166851400Y-96070000D01*
X169104153Y-96070000D01*
X169179000Y-96084888D01*
X169253847Y-96070000D01*
X169253852Y-96070000D01*
X169289043Y-96063000D01*
X169672000Y-96063000D01*
X169672000Y-96043000D01*
X169926000Y-96043000D01*
X169926000Y-96063000D01*
X170650250Y-96063000D01*
X170809000Y-95904250D01*
X170809000Y-95825000D01*
X176357917Y-95825000D01*
X176469700Y-95847235D01*
X176581483Y-95825000D01*
X176912555Y-95759146D01*
X177046823Y-95669431D01*
X177124235Y-95721157D01*
X177309459Y-95758000D01*
X177245690Y-95758000D01*
X177012301Y-95854673D01*
X176833673Y-96033302D01*
X176737000Y-96266691D01*
X176737000Y-96742250D01*
X176895750Y-96901000D01*
X179045000Y-96901000D01*
X179045000Y-96881000D01*
X179299000Y-96881000D01*
X179299000Y-96901000D01*
X181448250Y-96901000D01*
X181607000Y-96742250D01*
X181607000Y-96266691D01*
X181510327Y-96033302D01*
X181331699Y-95854673D01*
X181098310Y-95758000D01*
X181034541Y-95758000D01*
X181219765Y-95721157D01*
X181429809Y-95580809D01*
X181570157Y-95370765D01*
X181619440Y-95123000D01*
X181619440Y-93853000D01*
X181585046Y-93680086D01*
X182183032Y-93082100D01*
X194286569Y-93082100D01*
X194399296Y-93194827D01*
G36*
X113165748Y-100018858D02*
X113151605Y-100033000D01*
X113165748Y-100047143D01*
X112986143Y-100226748D01*
X112972000Y-100212605D01*
X112957858Y-100226748D01*
X112778253Y-100047143D01*
X112792395Y-100033000D01*
X112778253Y-100018858D01*
X112911110Y-99886000D01*
X113032890Y-99886000D01*
X113165748Y-100018858D01*
X113165748Y-100018858D01*
G37*
X113165748Y-100018858D02*
X113151605Y-100033000D01*
X113165748Y-100047143D01*
X112986143Y-100226748D01*
X112972000Y-100212605D01*
X112957858Y-100226748D01*
X112778253Y-100047143D01*
X112792395Y-100033000D01*
X112778253Y-100018858D01*
X112911110Y-99886000D01*
X113032890Y-99886000D01*
X113165748Y-100018858D01*
G36*
X118388200Y-95297550D02*
X118388200Y-95260002D01*
X118425748Y-95260002D01*
X118388200Y-95297550D01*
X118388200Y-95297550D01*
G37*
X118388200Y-95297550D02*
X118388200Y-95260002D01*
X118425748Y-95260002D01*
X118388200Y-95297550D01*
G36*
X119840217Y-95248000D02*
X120099000Y-95248000D01*
X120099000Y-95260000D01*
X120079000Y-95260000D01*
X120079000Y-95280000D01*
X119825000Y-95280000D01*
X119825000Y-95260000D01*
X119805000Y-95260000D01*
X119805000Y-95240995D01*
X119840217Y-95248000D01*
X119840217Y-95248000D01*
G37*
X119840217Y-95248000D02*
X120099000Y-95248000D01*
X120099000Y-95260000D01*
X120079000Y-95260000D01*
X120079000Y-95280000D01*
X119825000Y-95280000D01*
X119825000Y-95260000D01*
X119805000Y-95260000D01*
X119805000Y-95240995D01*
X119840217Y-95248000D01*
G36*
X118425748Y-95005998D02*
X118388200Y-95005998D01*
X118388200Y-94968450D01*
X118425748Y-95005998D01*
X118425748Y-95005998D01*
G37*
X118425748Y-95005998D02*
X118388200Y-95005998D01*
X118388200Y-94968450D01*
X118425748Y-95005998D01*
G36*
X118388200Y-92237550D02*
X118388200Y-92200002D01*
X118425748Y-92200002D01*
X118388200Y-92237550D01*
X118388200Y-92237550D01*
G37*
X118388200Y-92237550D02*
X118388200Y-92200002D01*
X118425748Y-92200002D01*
X118388200Y-92237550D01*
G36*
X120099000Y-92145560D02*
X119805000Y-92145560D01*
X119805000Y-92000440D01*
X120099000Y-92000440D01*
X120099000Y-92145560D01*
X120099000Y-92145560D01*
G37*
X120099000Y-92145560D02*
X119805000Y-92145560D01*
X119805000Y-92000440D01*
X120099000Y-92000440D01*
X120099000Y-92145560D01*
G36*
X118425748Y-91945998D02*
X118388200Y-91945998D01*
X118388200Y-91908450D01*
X118425748Y-91945998D01*
X118425748Y-91945998D01*
G37*
X118425748Y-91945998D02*
X118388200Y-91945998D01*
X118388200Y-91908450D01*
X118425748Y-91945998D01*
G36*
X118388200Y-90197550D02*
X118388200Y-90160002D01*
X118425748Y-90160002D01*
X118388200Y-90197550D01*
X118388200Y-90197550D01*
G37*
X118388200Y-90197550D02*
X118388200Y-90160002D01*
X118425748Y-90160002D01*
X118388200Y-90197550D01*
G36*
X118425748Y-89905998D02*
X118388200Y-89905998D01*
X118388200Y-89868450D01*
X118425748Y-89905998D01*
X118425748Y-89905998D01*
G37*
X118425748Y-89905998D02*
X118388200Y-89905998D01*
X118388200Y-89868450D01*
X118425748Y-89905998D01*
G36*
X118388200Y-88157550D02*
X118388200Y-88120002D01*
X118425748Y-88120002D01*
X118388200Y-88157550D01*
X118388200Y-88157550D01*
G37*
X118388200Y-88157550D02*
X118388200Y-88120002D01*
X118425748Y-88120002D01*
X118388200Y-88157550D01*
G36*
X120079000Y-87866000D02*
X120099000Y-87866000D01*
X120099000Y-87878000D01*
X119840217Y-87878000D01*
X119805000Y-87885005D01*
X119805000Y-87866000D01*
X119825000Y-87866000D01*
X119825000Y-87846000D01*
X120079000Y-87846000D01*
X120079000Y-87866000D01*
X120079000Y-87866000D01*
G37*
X120079000Y-87866000D02*
X120099000Y-87866000D01*
X120099000Y-87878000D01*
X119840217Y-87878000D01*
X119805000Y-87885005D01*
X119805000Y-87866000D01*
X119825000Y-87866000D01*
X119825000Y-87846000D01*
X120079000Y-87846000D01*
X120079000Y-87866000D01*
G36*
X122379000Y-76837051D02*
X122379001Y-87878640D01*
X122375783Y-87878000D01*
X121637000Y-87878000D01*
X121637000Y-87865998D01*
X121478252Y-87865998D01*
X121637000Y-87707250D01*
X121637000Y-87566691D01*
X121540327Y-87333302D01*
X121361699Y-87154673D01*
X121128310Y-87058000D01*
X120237750Y-87058000D01*
X120079002Y-87216748D01*
X120079002Y-87096574D01*
X120609830Y-86876698D01*
X121055698Y-86430830D01*
X121297000Y-85848276D01*
X121297000Y-85217724D01*
X121055698Y-84635170D01*
X120609830Y-84189302D01*
X120027276Y-83948000D01*
X119396724Y-83948000D01*
X118814170Y-84189302D01*
X118368302Y-84635170D01*
X118364154Y-84645185D01*
X118347005Y-84558972D01*
X118190081Y-84324119D01*
X117955228Y-84167195D01*
X117748126Y-84126000D01*
X117678200Y-84112091D01*
X117608275Y-84126000D01*
X115427025Y-84126000D01*
X115510327Y-84042698D01*
X115607000Y-83809309D01*
X115607000Y-83218750D01*
X115448250Y-83060000D01*
X114069766Y-83060000D01*
X114050480Y-82806000D01*
X115448250Y-82806000D01*
X115607000Y-82647250D01*
X115607000Y-82056691D01*
X115510327Y-81823302D01*
X115391026Y-81704000D01*
X115510327Y-81584698D01*
X115607000Y-81351309D01*
X115607000Y-80760750D01*
X115448250Y-80602000D01*
X114069766Y-80602000D01*
X114050480Y-80348000D01*
X115448250Y-80348000D01*
X115607000Y-80189250D01*
X115607000Y-79598691D01*
X115545410Y-79450000D01*
X117608274Y-79450000D01*
X117678200Y-79463909D01*
X117748125Y-79450000D01*
X117748126Y-79450000D01*
X117955228Y-79408805D01*
X118190081Y-79251881D01*
X118347005Y-79017028D01*
X118376121Y-78870649D01*
X118814170Y-79308698D01*
X119396724Y-79550000D01*
X120027276Y-79550000D01*
X120609830Y-79308698D01*
X121055698Y-78862830D01*
X121297000Y-78280276D01*
X121297000Y-77649724D01*
X121055698Y-77067170D01*
X120609830Y-76621302D01*
X120341123Y-76510000D01*
X121128310Y-76510000D01*
X121361699Y-76413327D01*
X121540327Y-76234698D01*
X121609531Y-76067624D01*
X122379000Y-76837051D01*
X122379000Y-76837051D01*
G37*
X122379000Y-76837051D02*
X122379001Y-87878640D01*
X122375783Y-87878000D01*
X121637000Y-87878000D01*
X121637000Y-87865998D01*
X121478252Y-87865998D01*
X121637000Y-87707250D01*
X121637000Y-87566691D01*
X121540327Y-87333302D01*
X121361699Y-87154673D01*
X121128310Y-87058000D01*
X120237750Y-87058000D01*
X120079002Y-87216748D01*
X120079002Y-87096574D01*
X120609830Y-86876698D01*
X121055698Y-86430830D01*
X121297000Y-85848276D01*
X121297000Y-85217724D01*
X121055698Y-84635170D01*
X120609830Y-84189302D01*
X120027276Y-83948000D01*
X119396724Y-83948000D01*
X118814170Y-84189302D01*
X118368302Y-84635170D01*
X118364154Y-84645185D01*
X118347005Y-84558972D01*
X118190081Y-84324119D01*
X117955228Y-84167195D01*
X117748126Y-84126000D01*
X117678200Y-84112091D01*
X117608275Y-84126000D01*
X115427025Y-84126000D01*
X115510327Y-84042698D01*
X115607000Y-83809309D01*
X115607000Y-83218750D01*
X115448250Y-83060000D01*
X114069766Y-83060000D01*
X114050480Y-82806000D01*
X115448250Y-82806000D01*
X115607000Y-82647250D01*
X115607000Y-82056691D01*
X115510327Y-81823302D01*
X115391026Y-81704000D01*
X115510327Y-81584698D01*
X115607000Y-81351309D01*
X115607000Y-80760750D01*
X115448250Y-80602000D01*
X114069766Y-80602000D01*
X114050480Y-80348000D01*
X115448250Y-80348000D01*
X115607000Y-80189250D01*
X115607000Y-79598691D01*
X115545410Y-79450000D01*
X117608274Y-79450000D01*
X117678200Y-79463909D01*
X117748125Y-79450000D01*
X117748126Y-79450000D01*
X117955228Y-79408805D01*
X118190081Y-79251881D01*
X118347005Y-79017028D01*
X118376121Y-78870649D01*
X118814170Y-79308698D01*
X119396724Y-79550000D01*
X120027276Y-79550000D01*
X120609830Y-79308698D01*
X121055698Y-78862830D01*
X121297000Y-78280276D01*
X121297000Y-77649724D01*
X121055698Y-77067170D01*
X120609830Y-76621302D01*
X120341123Y-76510000D01*
X121128310Y-76510000D01*
X121361699Y-76413327D01*
X121540327Y-76234698D01*
X121609531Y-76067624D01*
X122379000Y-76837051D01*
G36*
X118425748Y-87865998D02*
X118388200Y-87865998D01*
X118388200Y-87828450D01*
X118425748Y-87865998D01*
X118425748Y-87865998D01*
G37*
X118425748Y-87865998D02*
X118388200Y-87865998D01*
X118388200Y-87828450D01*
X118425748Y-87865998D01*
G36*
X113165748Y-82918858D02*
X113151605Y-82933000D01*
X113165748Y-82947143D01*
X113032890Y-83080000D01*
X112911110Y-83080000D01*
X112778253Y-82947143D01*
X112792395Y-82933000D01*
X112778253Y-82918858D01*
X112911110Y-82786000D01*
X113032890Y-82786000D01*
X113165748Y-82918858D01*
X113165748Y-82918858D01*
G37*
X113165748Y-82918858D02*
X113151605Y-82933000D01*
X113165748Y-82947143D01*
X113032890Y-83080000D01*
X112911110Y-83080000D01*
X112778253Y-82947143D01*
X112792395Y-82933000D01*
X112778253Y-82918858D01*
X112911110Y-82786000D01*
X113032890Y-82786000D01*
X113165748Y-82918858D01*
G36*
X113165748Y-80460858D02*
X113151605Y-80475000D01*
X113165748Y-80489143D01*
X113032890Y-80622000D01*
X112911110Y-80622000D01*
X112778253Y-80489143D01*
X112792395Y-80475000D01*
X112778253Y-80460858D01*
X112911110Y-80328000D01*
X113032890Y-80328000D01*
X113165748Y-80460858D01*
X113165748Y-80460858D01*
G37*
X113165748Y-80460858D02*
X113151605Y-80475000D01*
X113165748Y-80489143D01*
X113032890Y-80622000D01*
X112911110Y-80622000D01*
X112778253Y-80489143D01*
X112792395Y-80475000D01*
X112778253Y-80460858D01*
X112911110Y-80328000D01*
X113032890Y-80328000D01*
X113165748Y-80460858D01*
G36*
X119840217Y-75690000D02*
X120099000Y-75690000D01*
X120099000Y-75702000D01*
X120079000Y-75702000D01*
X120079000Y-75722000D01*
X119825000Y-75722000D01*
X119825000Y-75702000D01*
X119805000Y-75702000D01*
X119805000Y-75682995D01*
X119840217Y-75690000D01*
X119840217Y-75690000D01*
G37*
X119840217Y-75690000D02*
X120099000Y-75690000D01*
X120099000Y-75702000D01*
X120079000Y-75702000D01*
X120079000Y-75722000D01*
X119825000Y-75722000D01*
X119825000Y-75702000D01*
X119805000Y-75702000D01*
X119805000Y-75682995D01*
X119840217Y-75690000D01*
G36*
X118388200Y-72679550D02*
X118388200Y-72642002D01*
X118425748Y-72642002D01*
X118388200Y-72679550D01*
X118388200Y-72679550D01*
G37*
X118388200Y-72679550D02*
X118388200Y-72642002D01*
X118425748Y-72642002D01*
X118388200Y-72679550D01*
G36*
X120099000Y-72587560D02*
X119805000Y-72587560D01*
X119805000Y-72442440D01*
X120099000Y-72442440D01*
X120099000Y-72587560D01*
X120099000Y-72587560D01*
G37*
X120099000Y-72587560D02*
X119805000Y-72587560D01*
X119805000Y-72442440D01*
X120099000Y-72442440D01*
X120099000Y-72587560D01*
G36*
X118425748Y-72387998D02*
X118388200Y-72387998D01*
X118388200Y-72350450D01*
X118425748Y-72387998D01*
X118425748Y-72387998D01*
G37*
X118425748Y-72387998D02*
X118388200Y-72387998D01*
X118388200Y-72350450D01*
X118425748Y-72387998D01*
G36*
X124934537Y-71082082D02*
X122583592Y-68731451D01*
X122520289Y-68636711D01*
X122425485Y-68573365D01*
X122425464Y-68573344D01*
X122350564Y-68523304D01*
X122144855Y-68385854D01*
X122144814Y-68385846D01*
X122144783Y-68385825D01*
X121927443Y-68342608D01*
X121813783Y-68320000D01*
X121813744Y-68320000D01*
X121701923Y-68297765D01*
X121637000Y-68310684D01*
X121637000Y-68307998D01*
X121478252Y-68307998D01*
X121637000Y-68149250D01*
X121637000Y-68008691D01*
X121540327Y-67775302D01*
X121361699Y-67596673D01*
X121128310Y-67500000D01*
X120237750Y-67500000D01*
X120079002Y-67658748D01*
X120079002Y-67538574D01*
X120609830Y-67318698D01*
X121055698Y-66872830D01*
X121297000Y-66290276D01*
X121297000Y-65659724D01*
X121055698Y-65077170D01*
X120609830Y-64631302D01*
X120027276Y-64390000D01*
X119396724Y-64390000D01*
X118814170Y-64631302D01*
X118368302Y-65077170D01*
X118364154Y-65087185D01*
X118347005Y-65000972D01*
X118190081Y-64766119D01*
X117955228Y-64609195D01*
X117678200Y-64554091D01*
X117608275Y-64568000D01*
X115427025Y-64568000D01*
X115510327Y-64484698D01*
X115607000Y-64251309D01*
X115607000Y-63660750D01*
X115448250Y-63502000D01*
X114069766Y-63502000D01*
X114050480Y-63248000D01*
X115448250Y-63248000D01*
X115607000Y-63089250D01*
X115607000Y-62498691D01*
X115511248Y-62267525D01*
X120873518Y-62255582D01*
X124934537Y-71082082D01*
X124934537Y-71082082D01*
G37*
X124934537Y-71082082D02*
X122583592Y-68731451D01*
X122520289Y-68636711D01*
X122425485Y-68573365D01*
X122425464Y-68573344D01*
X122350564Y-68523304D01*
X122144855Y-68385854D01*
X122144814Y-68385846D01*
X122144783Y-68385825D01*
X121927443Y-68342608D01*
X121813783Y-68320000D01*
X121813744Y-68320000D01*
X121701923Y-68297765D01*
X121637000Y-68310684D01*
X121637000Y-68307998D01*
X121478252Y-68307998D01*
X121637000Y-68149250D01*
X121637000Y-68008691D01*
X121540327Y-67775302D01*
X121361699Y-67596673D01*
X121128310Y-67500000D01*
X120237750Y-67500000D01*
X120079002Y-67658748D01*
X120079002Y-67538574D01*
X120609830Y-67318698D01*
X121055698Y-66872830D01*
X121297000Y-66290276D01*
X121297000Y-65659724D01*
X121055698Y-65077170D01*
X120609830Y-64631302D01*
X120027276Y-64390000D01*
X119396724Y-64390000D01*
X118814170Y-64631302D01*
X118368302Y-65077170D01*
X118364154Y-65087185D01*
X118347005Y-65000972D01*
X118190081Y-64766119D01*
X117955228Y-64609195D01*
X117678200Y-64554091D01*
X117608275Y-64568000D01*
X115427025Y-64568000D01*
X115510327Y-64484698D01*
X115607000Y-64251309D01*
X115607000Y-63660750D01*
X115448250Y-63502000D01*
X114069766Y-63502000D01*
X114050480Y-63248000D01*
X115448250Y-63248000D01*
X115607000Y-63089250D01*
X115607000Y-62498691D01*
X115511248Y-62267525D01*
X120873518Y-62255582D01*
X124934537Y-71082082D01*
G36*
X118388200Y-70639550D02*
X118388200Y-70602002D01*
X118425748Y-70602002D01*
X118388200Y-70639550D01*
X118388200Y-70639550D01*
G37*
X118388200Y-70639550D02*
X118388200Y-70602002D01*
X118425748Y-70602002D01*
X118388200Y-70639550D01*
G36*
X118425748Y-70347998D02*
X118388200Y-70347998D01*
X118388200Y-70310450D01*
X118425748Y-70347998D01*
X118425748Y-70347998D01*
G37*
X118425748Y-70347998D02*
X118388200Y-70347998D01*
X118388200Y-70310450D01*
X118425748Y-70347998D01*
G36*
X120079000Y-68308000D02*
X120099000Y-68308000D01*
X120099000Y-68320000D01*
X119840217Y-68320000D01*
X119805000Y-68327005D01*
X119805000Y-68308000D01*
X119825000Y-68308000D01*
X119825000Y-68288000D01*
X120079000Y-68288000D01*
X120079000Y-68308000D01*
X120079000Y-68308000D01*
G37*
X120079000Y-68308000D02*
X120099000Y-68308000D01*
X120099000Y-68320000D01*
X119840217Y-68320000D01*
X119805000Y-68327005D01*
X119805000Y-68308000D01*
X119825000Y-68308000D01*
X119825000Y-68288000D01*
X120079000Y-68288000D01*
X120079000Y-68308000D01*
G36*
X113165748Y-63360858D02*
X113151605Y-63375000D01*
X113165748Y-63389143D01*
X113032890Y-63522000D01*
X112911110Y-63522000D01*
X112778253Y-63389143D01*
X112792395Y-63375000D01*
X112778253Y-63360858D01*
X112911110Y-63228000D01*
X113032890Y-63228000D01*
X113165748Y-63360858D01*
X113165748Y-63360858D01*
G37*
X113165748Y-63360858D02*
X113151605Y-63375000D01*
X113165748Y-63389143D01*
X113032890Y-63522000D01*
X112911110Y-63522000D01*
X112778253Y-63389143D01*
X112792395Y-63375000D01*
X112778253Y-63360858D01*
X112911110Y-63228000D01*
X113032890Y-63228000D01*
X113165748Y-63360858D01*
%TD*%
M02*
