%TF.GenerationSoftware,KiCad,Pcbnew,(5.0.1)-3*%
%TF.CreationDate,2018-12-23T11:35:52+11:00*%
%TF.ProjectId,1Wire-AC_Zoning,31576972652D41435F5A6F6E696E672E,1.2*%
%TF.SameCoordinates,Original*%
%TF.FileFunction,Paste,Top*%
%TF.FilePolarity,Positive*%
%FSLAX46Y46*%
G04 Gerber Fmt 4.6, Leading zero omitted, Abs format (unit mm)*
G04 Created by KiCad (PCBNEW (5.0.1)-3) date 23/12/2018 11:35:52 AM*
%MOMM*%
%LPD*%
G01*
G04 APERTURE LIST*
%ADD10R,1.500000X1.500000*%
%ADD11R,1.500000X4.000000*%
%ADD12R,0.600000X2.100000*%
%ADD13R,0.250000X1.000000*%
%ADD14R,1.000000X0.250000*%
%ADD15R,3.600000X1.270000*%
%ADD16R,4.000000X1.500000*%
%ADD17R,2.100000X0.600000*%
%ADD18R,4.000000X2.500000*%
%ADD19R,0.800000X0.750000*%
%ADD20R,0.750000X0.800000*%
%ADD21R,0.500000X0.900000*%
%ADD22R,2.000000X3.500000*%
%ADD23R,7.000000X7.000000*%
G04 APERTURE END LIST*
D10*
%TO.C,J3*%
X111442000Y-108968000D03*
X118142000Y-108968000D03*
X114642000Y-108968000D03*
X111442000Y-115568000D03*
X114642000Y-115568000D03*
X118142000Y-115568000D03*
%TD*%
D11*
%TO.C,ZONE7*%
X183517000Y-143187000D03*
D12*
X195717000Y-136207000D03*
X194697000Y-136207000D03*
X193677000Y-136207000D03*
X192657000Y-136207000D03*
X191637000Y-136207000D03*
X190617000Y-136207000D03*
X189597000Y-136207000D03*
X188577000Y-136207000D03*
D11*
X200617000Y-143187000D03*
%TD*%
%TO.C,ZONE6*%
X163197000Y-143187000D03*
D12*
X175397000Y-136207000D03*
X174377000Y-136207000D03*
X173357000Y-136207000D03*
X172337000Y-136207000D03*
X171317000Y-136207000D03*
X170297000Y-136207000D03*
X169277000Y-136207000D03*
X168257000Y-136207000D03*
D11*
X180297000Y-143187000D03*
%TD*%
D13*
%TO.C,U2*%
X156270000Y-104760000D03*
X156770000Y-104760000D03*
X157270000Y-104760000D03*
X157770000Y-104760000D03*
X158270000Y-104760000D03*
X158770000Y-104760000D03*
X159270000Y-104760000D03*
X159770000Y-104760000D03*
X160270000Y-104760000D03*
X160770000Y-104760000D03*
X161270000Y-104760000D03*
X161770000Y-104760000D03*
X162270000Y-104760000D03*
X162770000Y-104760000D03*
X163270000Y-104760000D03*
X163770000Y-104760000D03*
D14*
X165720000Y-102810000D03*
X165720000Y-102310000D03*
X165720000Y-101810000D03*
X165720000Y-101310000D03*
X165720000Y-100810000D03*
X165720000Y-100310000D03*
X165720000Y-99810000D03*
X165720000Y-99310000D03*
X165720000Y-98810000D03*
X165720000Y-98310000D03*
X165720000Y-97810000D03*
X165720000Y-97310000D03*
X165720000Y-96810000D03*
X165720000Y-96310000D03*
X165720000Y-95810000D03*
X165720000Y-95310000D03*
D13*
X163770000Y-93360000D03*
X163270000Y-93360000D03*
X162770000Y-93360000D03*
X162270000Y-93360000D03*
X161770000Y-93360000D03*
X161270000Y-93360000D03*
X160770000Y-93360000D03*
X160270000Y-93360000D03*
X159770000Y-93360000D03*
X159270000Y-93360000D03*
X158770000Y-93360000D03*
X158270000Y-93360000D03*
X157770000Y-93360000D03*
X157270000Y-93360000D03*
X156770000Y-93360000D03*
X156270000Y-93360000D03*
D14*
X154320000Y-95310000D03*
X154320000Y-95810000D03*
X154320000Y-96310000D03*
X154320000Y-96810000D03*
X154320000Y-97310000D03*
X154320000Y-97810000D03*
X154320000Y-98310000D03*
X154320000Y-98810000D03*
X154320000Y-99310000D03*
X154320000Y-99810000D03*
X154320000Y-100310000D03*
X154320000Y-100810000D03*
X154320000Y-101310000D03*
X154320000Y-101810000D03*
X154320000Y-102310000D03*
X154320000Y-102810000D03*
%TD*%
D15*
%TO.C,P1*%
X179172000Y-94488000D03*
X179172000Y-97028000D03*
X179172000Y-99568000D03*
X179172000Y-102108000D03*
X185572000Y-102108000D03*
X185572000Y-99568000D03*
X185572000Y-97028000D03*
X185572000Y-94488000D03*
X179172000Y-104648000D03*
X185572000Y-104648000D03*
%TD*%
D16*
%TO.C,J2*%
X112972000Y-63375000D03*
D17*
X119952000Y-75575000D03*
X119952000Y-74555000D03*
X119952000Y-73535000D03*
X119952000Y-72515000D03*
X119952000Y-71495000D03*
X119952000Y-70475000D03*
X119952000Y-69455000D03*
X119952000Y-68435000D03*
D16*
X112972000Y-80475000D03*
%TD*%
D18*
%TO.C,C1*%
X132590000Y-96520000D03*
X126490000Y-96520000D03*
%TD*%
D19*
%TO.C,C2*%
X163183000Y-110172000D03*
X161683000Y-110172000D03*
%TD*%
%TO.C,C3*%
X163183000Y-108648000D03*
X161683000Y-108648000D03*
%TD*%
D20*
%TO.C,C4*%
X169799000Y-94690000D03*
X169799000Y-96190000D03*
%TD*%
%TO.C,C5*%
X151194000Y-103810000D03*
X151194000Y-102310000D03*
%TD*%
D16*
%TO.C,J1*%
X112972000Y-82933000D03*
D17*
X119952000Y-95133000D03*
X119952000Y-94113000D03*
X119952000Y-93093000D03*
X119952000Y-92073000D03*
X119952000Y-91053000D03*
X119952000Y-90033000D03*
X119952000Y-89013000D03*
X119952000Y-87993000D03*
D16*
X112972000Y-100033000D03*
%TD*%
D21*
%TO.C,R1*%
X184404000Y-107696000D03*
X182904000Y-107696000D03*
%TD*%
D22*
%TO.C,U1*%
X139950000Y-105300000D03*
X144530000Y-105300000D03*
D23*
X142250000Y-97900000D03*
%TD*%
D11*
%TO.C,ZONE0*%
X200531000Y-55492000D03*
D12*
X188331000Y-62472000D03*
X189351000Y-62472000D03*
X190371000Y-62472000D03*
X191391000Y-62472000D03*
X192411000Y-62472000D03*
X193431000Y-62472000D03*
X194451000Y-62472000D03*
X195471000Y-62472000D03*
D11*
X183431000Y-55492000D03*
%TD*%
%TO.C,ZONE1*%
X180211000Y-55492000D03*
D12*
X168011000Y-62472000D03*
X169031000Y-62472000D03*
X170051000Y-62472000D03*
X171071000Y-62472000D03*
X172091000Y-62472000D03*
X173111000Y-62472000D03*
X174131000Y-62472000D03*
X175151000Y-62472000D03*
D11*
X163111000Y-55492000D03*
%TD*%
%TO.C,ZONE2*%
X159891000Y-55492000D03*
D12*
X147691000Y-62472000D03*
X148711000Y-62472000D03*
X149731000Y-62472000D03*
X150751000Y-62472000D03*
X151771000Y-62472000D03*
X152791000Y-62472000D03*
X153811000Y-62472000D03*
X154831000Y-62472000D03*
D11*
X142791000Y-55492000D03*
%TD*%
%TO.C,ZONE3*%
X139571000Y-55492000D03*
D12*
X127371000Y-62472000D03*
X128391000Y-62472000D03*
X129411000Y-62472000D03*
X130431000Y-62472000D03*
X131451000Y-62472000D03*
X132471000Y-62472000D03*
X133491000Y-62472000D03*
X134511000Y-62472000D03*
D11*
X122471000Y-55492000D03*
%TD*%
%TO.C,ZONE4*%
X122557000Y-143187000D03*
D12*
X134757000Y-136207000D03*
X133737000Y-136207000D03*
X132717000Y-136207000D03*
X131697000Y-136207000D03*
X130677000Y-136207000D03*
X129657000Y-136207000D03*
X128637000Y-136207000D03*
X127617000Y-136207000D03*
D11*
X139657000Y-143187000D03*
%TD*%
%TO.C,ZONE5*%
X142877000Y-143187000D03*
D12*
X155077000Y-136207000D03*
X154057000Y-136207000D03*
X153037000Y-136207000D03*
X152017000Y-136207000D03*
X150997000Y-136207000D03*
X149977000Y-136207000D03*
X148957000Y-136207000D03*
X147937000Y-136207000D03*
D11*
X159977000Y-143187000D03*
%TD*%
M02*
