G04 #@! TF.FileFunction,Soldermask,Bot*
%FSLAX46Y46*%
G04 Gerber Fmt 4.6, Leading zero omitted, Abs format (unit mm)*
G04 Created by KiCad (PCBNEW 4.0.6) date 06/24/17 11:35:38*
%MOMM*%
%LPD*%
G01*
G04 APERTURE LIST*
%ADD10C,0.100000*%
%ADD11R,1.924000X1.924000*%
%ADD12C,1.924000*%
%ADD13R,3.900000X3.900000*%
%ADD14C,3.600000*%
%ADD15R,1.200000X1.150000*%
%ADD16R,1.400000X2.000000*%
%ADD17R,2.600000X1.600000*%
%ADD18R,6.800000X6.200000*%
%ADD19R,0.700000X1.950000*%
%ADD20R,1.950000X0.700000*%
%ADD21C,2.100000*%
G04 APERTURE END LIST*
D10*
D11*
X16637000Y11303000D03*
X14097000Y11303000D03*
D12*
X2159000Y11303000D03*
X4699000Y11303000D03*
D11*
X16637000Y29845000D03*
X14097000Y29845000D03*
D12*
X2159000Y29845000D03*
X4699000Y29845000D03*
D13*
X10160000Y40005000D03*
X4160000Y40005000D03*
X7160000Y35305000D03*
D14*
X15528000Y56533000D03*
X88252000Y56533000D03*
X88252000Y3478000D03*
D15*
X67195000Y21590000D03*
X68695000Y21590000D03*
X58940000Y44450000D03*
X60440000Y44450000D03*
X44335000Y17145000D03*
X45835000Y17145000D03*
X51320000Y17145000D03*
X52820000Y17145000D03*
X44335000Y15240000D03*
X45835000Y15240000D03*
X40120000Y39370000D03*
X38620000Y39370000D03*
X67195000Y31750000D03*
X68695000Y31750000D03*
X62115000Y44450000D03*
X63615000Y44450000D03*
X54090000Y44450000D03*
X52590000Y44450000D03*
X67195000Y26670000D03*
X68695000Y26670000D03*
X40120000Y27305000D03*
X38620000Y27305000D03*
X67195000Y38100000D03*
X68695000Y38100000D03*
X57035000Y17145000D03*
X58535000Y17145000D03*
D16*
X21360000Y29210000D03*
X24360000Y29210000D03*
D15*
X40120000Y32385000D03*
X38620000Y32385000D03*
D17*
X16120000Y35185000D03*
X16120000Y39745000D03*
D18*
X22420000Y37465000D03*
D19*
X45225000Y41180000D03*
X45725000Y41180000D03*
X46225000Y41180000D03*
X46725000Y41180000D03*
X47225000Y41180000D03*
X47725000Y41180000D03*
X48225000Y41180000D03*
X48725000Y41180000D03*
X49225000Y41180000D03*
X49725000Y41180000D03*
X50225000Y41180000D03*
X50725000Y41180000D03*
X51225000Y41180000D03*
X51725000Y41180000D03*
X52225000Y41180000D03*
X52725000Y41180000D03*
X53225000Y41180000D03*
X53725000Y41180000D03*
X54225000Y41180000D03*
X54725000Y41180000D03*
X55225000Y41180000D03*
X55725000Y41180000D03*
X56225000Y41180000D03*
X56725000Y41180000D03*
X57225000Y41180000D03*
X57725000Y41180000D03*
X58225000Y41180000D03*
X58725000Y41180000D03*
X59225000Y41180000D03*
X59725000Y41180000D03*
X60225000Y41180000D03*
X60725000Y41180000D03*
X61225000Y41180000D03*
X61725000Y41180000D03*
X62225000Y41180000D03*
X62725000Y41180000D03*
D20*
X64675000Y39230000D03*
X64675000Y38730000D03*
X64675000Y38230000D03*
X64675000Y37730000D03*
X64675000Y37230000D03*
X64675000Y36730000D03*
X64675000Y36230000D03*
X64675000Y35730000D03*
X64675000Y35230000D03*
X64675000Y34730000D03*
X64675000Y34230000D03*
X64675000Y33730000D03*
X64675000Y33230000D03*
X64675000Y32730000D03*
X64675000Y32230000D03*
X64675000Y31730000D03*
X64675000Y31230000D03*
X64675000Y30730000D03*
X64675000Y30230000D03*
X64675000Y29730000D03*
X64675000Y29230000D03*
X64675000Y28730000D03*
X64675000Y28230000D03*
X64675000Y27730000D03*
X64675000Y27230000D03*
X64675000Y26730000D03*
X64675000Y26230000D03*
X64675000Y25730000D03*
X64675000Y25230000D03*
X64675000Y24730000D03*
X64675000Y24230000D03*
X64675000Y23730000D03*
X64675000Y23230000D03*
X64675000Y22730000D03*
X64675000Y22230000D03*
X64675000Y21730000D03*
D19*
X62725000Y19780000D03*
X62225000Y19780000D03*
X61725000Y19780000D03*
X61225000Y19780000D03*
X60725000Y19780000D03*
X60225000Y19780000D03*
X59725000Y19780000D03*
X59225000Y19780000D03*
X58725000Y19780000D03*
X58225000Y19780000D03*
X57725000Y19780000D03*
X57225000Y19780000D03*
X56725000Y19780000D03*
X56225000Y19780000D03*
X55725000Y19780000D03*
X55225000Y19780000D03*
X54725000Y19780000D03*
X54225000Y19780000D03*
X53725000Y19780000D03*
X53225000Y19780000D03*
X52725000Y19780000D03*
X52225000Y19780000D03*
X51725000Y19780000D03*
X51225000Y19780000D03*
X50725000Y19780000D03*
X50225000Y19780000D03*
X49725000Y19780000D03*
X49225000Y19780000D03*
X48725000Y19780000D03*
X48225000Y19780000D03*
X47725000Y19780000D03*
X47225000Y19780000D03*
X46725000Y19780000D03*
X46225000Y19780000D03*
X45725000Y19780000D03*
X45225000Y19780000D03*
D20*
X43275000Y21730000D03*
X43275000Y22230000D03*
X43275000Y22730000D03*
X43275000Y23230000D03*
X43275000Y23730000D03*
X43275000Y24230000D03*
X43275000Y24730000D03*
X43275000Y25230000D03*
X43275000Y25730000D03*
X43275000Y26230000D03*
X43275000Y26730000D03*
X43275000Y27230000D03*
X43275000Y27730000D03*
X43275000Y28230000D03*
X43275000Y28730000D03*
X43275000Y29230000D03*
X43275000Y29730000D03*
X43275000Y30230000D03*
X43275000Y30730000D03*
X43275000Y31230000D03*
X43275000Y31730000D03*
X43275000Y32230000D03*
X43275000Y32730000D03*
X43275000Y33230000D03*
X43275000Y33730000D03*
X43275000Y34230000D03*
X43275000Y34730000D03*
X43275000Y35230000D03*
X43275000Y35730000D03*
X43275000Y36230000D03*
X43275000Y36730000D03*
X43275000Y37230000D03*
X43275000Y37730000D03*
X43275000Y38230000D03*
X43275000Y38730000D03*
X43275000Y39230000D03*
D14*
X15528000Y3478000D03*
D21*
X30386000Y2690000D03*
X30385000Y5230000D03*
X32925000Y2690000D03*
X32925000Y5230000D03*
X35465000Y2690000D03*
X35465000Y5230000D03*
X38005000Y2690000D03*
X38005000Y5230000D03*
X40545000Y2690000D03*
X40545000Y5230000D03*
X43085000Y2690000D03*
X43085000Y5230000D03*
X45625000Y2690000D03*
X45625000Y5230000D03*
X48165000Y2690000D03*
X48165000Y5230000D03*
X50705000Y2690000D03*
X50705000Y5230000D03*
X53245000Y2690000D03*
X53245000Y5230000D03*
X55785000Y2690000D03*
X55785000Y5230000D03*
X58325000Y2690000D03*
X58325000Y5230000D03*
X60865000Y2690000D03*
X60865000Y5230000D03*
X63405000Y2690000D03*
X63405000Y5230000D03*
X65945000Y2690000D03*
X65945000Y5230000D03*
X68485000Y2690000D03*
X68485000Y5230000D03*
X71025000Y2690000D03*
X71025000Y5230000D03*
X73565000Y2690000D03*
X73565000Y5230000D03*
X76105000Y2690000D03*
X76105000Y5230000D03*
X78645000Y2690000D03*
X78645000Y5230000D03*
M02*
