G04 #@! TF.FileFunction,Legend,Top*
%FSLAX46Y46*%
G04 Gerber Fmt 4.6, Leading zero omitted, Abs format (unit mm)*
G04 Created by KiCad (PCBNEW 4.0.6) date 06/24/17 11:35:38*
%MOMM*%
%LPD*%
G01*
G04 APERTURE LIST*
%ADD10C,0.100000*%
%ADD11C,0.300000*%
%ADD12C,0.150000*%
%ADD13C,0.120000*%
%ADD14C,0.002540*%
G04 APERTURE END LIST*
D10*
X67610381Y19891286D02*
X67610381Y19415095D01*
X66610381Y19415095D01*
X67610381Y20224619D02*
X66943714Y20224619D01*
X66610381Y20224619D02*
X66658000Y20177000D01*
X66705619Y20224619D01*
X66658000Y20272238D01*
X66610381Y20224619D01*
X66705619Y20224619D01*
X67562762Y21129381D02*
X67610381Y21034143D01*
X67610381Y20843666D01*
X67562762Y20748428D01*
X67515143Y20700809D01*
X67419905Y20653190D01*
X67134190Y20653190D01*
X67038952Y20700809D01*
X66991333Y20748428D01*
X66943714Y20843666D01*
X66943714Y21034143D01*
X66991333Y21129381D01*
X67562762Y21938905D02*
X67610381Y21843667D01*
X67610381Y21653190D01*
X67562762Y21557952D01*
X67467524Y21510333D01*
X67086571Y21510333D01*
X66991333Y21557952D01*
X66943714Y21653190D01*
X66943714Y21843667D01*
X66991333Y21938905D01*
X67086571Y21986524D01*
X67181810Y21986524D01*
X67277048Y21510333D01*
X66943714Y22415095D02*
X67610381Y22415095D01*
X67038952Y22415095D02*
X66991333Y22462714D01*
X66943714Y22557952D01*
X66943714Y22700810D01*
X66991333Y22796048D01*
X67086571Y22843667D01*
X67610381Y22843667D01*
X67562762Y23272238D02*
X67610381Y23367476D01*
X67610381Y23557952D01*
X67562762Y23653191D01*
X67467524Y23700810D01*
X67419905Y23700810D01*
X67324667Y23653191D01*
X67277048Y23557952D01*
X67277048Y23415095D01*
X67229429Y23319857D01*
X67134190Y23272238D01*
X67086571Y23272238D01*
X66991333Y23319857D01*
X66943714Y23415095D01*
X66943714Y23557952D01*
X66991333Y23653191D01*
X67562762Y24510334D02*
X67610381Y24415096D01*
X67610381Y24224619D01*
X67562762Y24129381D01*
X67467524Y24081762D01*
X67086571Y24081762D01*
X66991333Y24129381D01*
X66943714Y24224619D01*
X66943714Y24415096D01*
X66991333Y24510334D01*
X67086571Y24557953D01*
X67181810Y24557953D01*
X67277048Y24081762D01*
X67610381Y25415096D02*
X66610381Y25415096D01*
X67562762Y25415096D02*
X67610381Y25319858D01*
X67610381Y25129381D01*
X67562762Y25034143D01*
X67515143Y24986524D01*
X67419905Y24938905D01*
X67134190Y24938905D01*
X67038952Y24986524D01*
X66991333Y25034143D01*
X66943714Y25129381D01*
X66943714Y25319858D01*
X66991333Y25415096D01*
X66943714Y27081763D02*
X67610381Y27081763D01*
X66943714Y26653191D02*
X67467524Y26653191D01*
X67562762Y26700810D01*
X67610381Y26796048D01*
X67610381Y26938906D01*
X67562762Y27034144D01*
X67515143Y27081763D01*
X66943714Y27557953D02*
X67610381Y27557953D01*
X67038952Y27557953D02*
X66991333Y27605572D01*
X66943714Y27700810D01*
X66943714Y27843668D01*
X66991333Y27938906D01*
X67086571Y27986525D01*
X67610381Y27986525D01*
X67610381Y28891287D02*
X66610381Y28891287D01*
X67562762Y28891287D02*
X67610381Y28796049D01*
X67610381Y28605572D01*
X67562762Y28510334D01*
X67515143Y28462715D01*
X67419905Y28415096D01*
X67134190Y28415096D01*
X67038952Y28462715D01*
X66991333Y28510334D01*
X66943714Y28605572D01*
X66943714Y28796049D01*
X66991333Y28891287D01*
X67562762Y29748430D02*
X67610381Y29653192D01*
X67610381Y29462715D01*
X67562762Y29367477D01*
X67467524Y29319858D01*
X67086571Y29319858D01*
X66991333Y29367477D01*
X66943714Y29462715D01*
X66943714Y29653192D01*
X66991333Y29748430D01*
X67086571Y29796049D01*
X67181810Y29796049D01*
X67277048Y29319858D01*
X67610381Y30224620D02*
X66943714Y30224620D01*
X67134190Y30224620D02*
X67038952Y30272239D01*
X66991333Y30319858D01*
X66943714Y30415096D01*
X66943714Y30510335D01*
X66943714Y31462716D02*
X66943714Y31843668D01*
X66610381Y31605573D02*
X67467524Y31605573D01*
X67562762Y31653192D01*
X67610381Y31748430D01*
X67610381Y31843668D01*
X67610381Y32177002D02*
X66610381Y32177002D01*
X67610381Y32605574D02*
X67086571Y32605574D01*
X66991333Y32557955D01*
X66943714Y32462717D01*
X66943714Y32319859D01*
X66991333Y32224621D01*
X67038952Y32177002D01*
X67562762Y33462717D02*
X67610381Y33367479D01*
X67610381Y33177002D01*
X67562762Y33081764D01*
X67467524Y33034145D01*
X67086571Y33034145D01*
X66991333Y33081764D01*
X66943714Y33177002D01*
X66943714Y33367479D01*
X66991333Y33462717D01*
X67086571Y33510336D01*
X67181810Y33510336D01*
X67277048Y33034145D01*
X66610381Y34557955D02*
X66610381Y35129384D01*
X67610381Y34843669D02*
X66610381Y34843669D01*
X67324667Y35415098D02*
X67324667Y35891289D01*
X67610381Y35319860D02*
X66610381Y35653193D01*
X67610381Y35986527D01*
X67610381Y36319860D02*
X66610381Y36319860D01*
X66610381Y36700813D01*
X66658000Y36796051D01*
X66705619Y36843670D01*
X66800857Y36891289D01*
X66943714Y36891289D01*
X67038952Y36843670D01*
X67086571Y36796051D01*
X67134190Y36700813D01*
X67134190Y36319860D01*
X67610381Y37891289D02*
X67134190Y37557955D01*
X67610381Y37319860D02*
X66610381Y37319860D01*
X66610381Y37700813D01*
X66658000Y37796051D01*
X66705619Y37843670D01*
X66800857Y37891289D01*
X66943714Y37891289D01*
X67038952Y37843670D01*
X67086571Y37796051D01*
X67134190Y37700813D01*
X67134190Y37319860D01*
X68210381Y19605571D02*
X68210381Y19796048D01*
X68258000Y19891286D01*
X68353238Y19986524D01*
X68543714Y20034143D01*
X68877048Y20034143D01*
X69067524Y19986524D01*
X69162762Y19891286D01*
X69210381Y19796048D01*
X69210381Y19605571D01*
X69162762Y19510333D01*
X69067524Y19415095D01*
X68877048Y19367476D01*
X68543714Y19367476D01*
X68353238Y19415095D01*
X68258000Y19510333D01*
X68210381Y19605571D01*
X68543714Y20462714D02*
X69543714Y20462714D01*
X68591333Y20462714D02*
X68543714Y20557952D01*
X68543714Y20748429D01*
X68591333Y20843667D01*
X68638952Y20891286D01*
X68734190Y20938905D01*
X69019905Y20938905D01*
X69115143Y20891286D01*
X69162762Y20843667D01*
X69210381Y20748429D01*
X69210381Y20557952D01*
X69162762Y20462714D01*
X69162762Y21748429D02*
X69210381Y21653191D01*
X69210381Y21462714D01*
X69162762Y21367476D01*
X69067524Y21319857D01*
X68686571Y21319857D01*
X68591333Y21367476D01*
X68543714Y21462714D01*
X68543714Y21653191D01*
X68591333Y21748429D01*
X68686571Y21796048D01*
X68781810Y21796048D01*
X68877048Y21319857D01*
X68543714Y22224619D02*
X69210381Y22224619D01*
X68638952Y22224619D02*
X68591333Y22272238D01*
X68543714Y22367476D01*
X68543714Y22510334D01*
X68591333Y22605572D01*
X68686571Y22653191D01*
X69210381Y22653191D01*
X69210381Y23891286D02*
X68210381Y23891286D01*
X68686571Y23891286D02*
X68686571Y24462715D01*
X69210381Y24462715D02*
X68210381Y24462715D01*
X69210381Y25367477D02*
X68686571Y25367477D01*
X68591333Y25319858D01*
X68543714Y25224620D01*
X68543714Y25034143D01*
X68591333Y24938905D01*
X69162762Y25367477D02*
X69210381Y25272239D01*
X69210381Y25034143D01*
X69162762Y24938905D01*
X69067524Y24891286D01*
X68972286Y24891286D01*
X68877048Y24938905D01*
X68829429Y25034143D01*
X68829429Y25272239D01*
X68781810Y25367477D01*
X69210381Y25843667D02*
X68543714Y25843667D01*
X68734190Y25843667D02*
X68638952Y25891286D01*
X68591333Y25938905D01*
X68543714Y26034143D01*
X68543714Y26129382D01*
X69210381Y26891287D02*
X68210381Y26891287D01*
X69162762Y26891287D02*
X69210381Y26796049D01*
X69210381Y26605572D01*
X69162762Y26510334D01*
X69115143Y26462715D01*
X69019905Y26415096D01*
X68734190Y26415096D01*
X68638952Y26462715D01*
X68591333Y26510334D01*
X68543714Y26605572D01*
X68543714Y26796049D01*
X68591333Y26891287D01*
X68543714Y27272239D02*
X69210381Y27462715D01*
X68734190Y27653192D01*
X69210381Y27843668D01*
X68543714Y28034144D01*
X69210381Y28843668D02*
X68686571Y28843668D01*
X68591333Y28796049D01*
X68543714Y28700811D01*
X68543714Y28510334D01*
X68591333Y28415096D01*
X69162762Y28843668D02*
X69210381Y28748430D01*
X69210381Y28510334D01*
X69162762Y28415096D01*
X69067524Y28367477D01*
X68972286Y28367477D01*
X68877048Y28415096D01*
X68829429Y28510334D01*
X68829429Y28748430D01*
X68781810Y28843668D01*
X69210381Y29319858D02*
X68543714Y29319858D01*
X68734190Y29319858D02*
X68638952Y29367477D01*
X68591333Y29415096D01*
X68543714Y29510334D01*
X68543714Y29605573D01*
X69162762Y30319859D02*
X69210381Y30224621D01*
X69210381Y30034144D01*
X69162762Y29938906D01*
X69067524Y29891287D01*
X68686571Y29891287D01*
X68591333Y29938906D01*
X68543714Y30034144D01*
X68543714Y30224621D01*
X68591333Y30319859D01*
X68686571Y30367478D01*
X68781810Y30367478D01*
X68877048Y29891287D01*
X69210381Y32034145D02*
X69210381Y31557954D01*
X68210381Y31557954D01*
X69210381Y32367478D02*
X68543714Y32367478D01*
X68210381Y32367478D02*
X68258000Y32319859D01*
X68305619Y32367478D01*
X68258000Y32415097D01*
X68210381Y32367478D01*
X68305619Y32367478D01*
X69162762Y33272240D02*
X69210381Y33177002D01*
X69210381Y32986525D01*
X69162762Y32891287D01*
X69115143Y32843668D01*
X69019905Y32796049D01*
X68734190Y32796049D01*
X68638952Y32843668D01*
X68591333Y32891287D01*
X68543714Y32986525D01*
X68543714Y33177002D01*
X68591333Y33272240D01*
X69162762Y34081764D02*
X69210381Y33986526D01*
X69210381Y33796049D01*
X69162762Y33700811D01*
X69067524Y33653192D01*
X68686571Y33653192D01*
X68591333Y33700811D01*
X68543714Y33796049D01*
X68543714Y33986526D01*
X68591333Y34081764D01*
X68686571Y34129383D01*
X68781810Y34129383D01*
X68877048Y33653192D01*
X68543714Y34557954D02*
X69210381Y34557954D01*
X68638952Y34557954D02*
X68591333Y34605573D01*
X68543714Y34700811D01*
X68543714Y34843669D01*
X68591333Y34938907D01*
X68686571Y34986526D01*
X69210381Y34986526D01*
X69162762Y35415097D02*
X69210381Y35510335D01*
X69210381Y35700811D01*
X69162762Y35796050D01*
X69067524Y35843669D01*
X69019905Y35843669D01*
X68924667Y35796050D01*
X68877048Y35700811D01*
X68877048Y35557954D01*
X68829429Y35462716D01*
X68734190Y35415097D01*
X68686571Y35415097D01*
X68591333Y35462716D01*
X68543714Y35557954D01*
X68543714Y35700811D01*
X68591333Y35796050D01*
X69162762Y36653193D02*
X69210381Y36557955D01*
X69210381Y36367478D01*
X69162762Y36272240D01*
X69067524Y36224621D01*
X68686571Y36224621D01*
X68591333Y36272240D01*
X68543714Y36367478D01*
X68543714Y36557955D01*
X68591333Y36653193D01*
X68686571Y36700812D01*
X68781810Y36700812D01*
X68877048Y36224621D01*
X71191333Y19700810D02*
X71143714Y19653190D01*
X71000857Y19557952D01*
X70905619Y19510333D01*
X70762762Y19462714D01*
X70524667Y19415095D01*
X70334190Y19415095D01*
X70096095Y19462714D01*
X69953238Y19510333D01*
X69858000Y19557952D01*
X69715143Y19653190D01*
X69667524Y19700810D01*
X70143714Y19986524D02*
X70810381Y20177000D01*
X70334190Y20367477D01*
X70810381Y20557953D01*
X70143714Y20748429D01*
X70143714Y21034143D02*
X70810381Y21224619D01*
X70334190Y21415096D01*
X70810381Y21605572D01*
X70143714Y21796048D01*
X70143714Y22081762D02*
X70810381Y22272238D01*
X70334190Y22462715D01*
X70810381Y22653191D01*
X70143714Y22843667D01*
X70715143Y23224619D02*
X70762762Y23272238D01*
X70810381Y23224619D01*
X70762762Y23177000D01*
X70715143Y23224619D01*
X70810381Y23224619D01*
X70143714Y23557952D02*
X70143714Y23938904D01*
X69810381Y23700809D02*
X70667524Y23700809D01*
X70762762Y23748428D01*
X70810381Y23843666D01*
X70810381Y23938904D01*
X70810381Y24700810D02*
X70286571Y24700810D01*
X70191333Y24653191D01*
X70143714Y24557953D01*
X70143714Y24367476D01*
X70191333Y24272238D01*
X70762762Y24700810D02*
X70810381Y24605572D01*
X70810381Y24367476D01*
X70762762Y24272238D01*
X70667524Y24224619D01*
X70572286Y24224619D01*
X70477048Y24272238D01*
X70429429Y24367476D01*
X70429429Y24605572D01*
X70381810Y24700810D01*
X70143714Y25177000D02*
X71143714Y25177000D01*
X70191333Y25177000D02*
X70143714Y25272238D01*
X70143714Y25462715D01*
X70191333Y25557953D01*
X70238952Y25605572D01*
X70334190Y25653191D01*
X70619905Y25653191D01*
X70715143Y25605572D01*
X70762762Y25557953D01*
X70810381Y25462715D01*
X70810381Y25272238D01*
X70762762Y25177000D01*
X70810381Y26081762D02*
X70143714Y26081762D01*
X70334190Y26081762D02*
X70238952Y26129381D01*
X70191333Y26177000D01*
X70143714Y26272238D01*
X70143714Y26367477D01*
X70715143Y26700810D02*
X70762762Y26748429D01*
X70810381Y26700810D01*
X70762762Y26653191D01*
X70715143Y26700810D01*
X70810381Y26700810D01*
X70810381Y27319857D02*
X70762762Y27224619D01*
X70715143Y27177000D01*
X70619905Y27129381D01*
X70334190Y27129381D01*
X70238952Y27177000D01*
X70191333Y27224619D01*
X70143714Y27319857D01*
X70143714Y27462715D01*
X70191333Y27557953D01*
X70238952Y27605572D01*
X70334190Y27653191D01*
X70619905Y27653191D01*
X70715143Y27605572D01*
X70762762Y27557953D01*
X70810381Y27462715D01*
X70810381Y27319857D01*
X70810381Y28081762D02*
X70143714Y28081762D01*
X70334190Y28081762D02*
X70238952Y28129381D01*
X70191333Y28177000D01*
X70143714Y28272238D01*
X70143714Y28367477D01*
X70143714Y29129382D02*
X70953238Y29129382D01*
X71048476Y29081763D01*
X71096095Y29034144D01*
X71143714Y28938905D01*
X71143714Y28796048D01*
X71096095Y28700810D01*
X70762762Y29129382D02*
X70810381Y29034144D01*
X70810381Y28843667D01*
X70762762Y28748429D01*
X70715143Y28700810D01*
X70619905Y28653191D01*
X70334190Y28653191D01*
X70238952Y28700810D01*
X70191333Y28748429D01*
X70143714Y28843667D01*
X70143714Y29034144D01*
X70191333Y29129382D01*
X69762762Y30319858D02*
X71048476Y29462715D01*
X69810381Y30843667D02*
X69810381Y31034144D01*
X69858000Y31129382D01*
X69953238Y31224620D01*
X70143714Y31272239D01*
X70477048Y31272239D01*
X70667524Y31224620D01*
X70762762Y31129382D01*
X70810381Y31034144D01*
X70810381Y30843667D01*
X70762762Y30748429D01*
X70667524Y30653191D01*
X70477048Y30605572D01*
X70143714Y30605572D01*
X69953238Y30653191D01*
X69858000Y30748429D01*
X69810381Y30843667D01*
X70810381Y31700810D02*
X69810381Y31700810D01*
X70286571Y31700810D02*
X70286571Y32272239D01*
X70810381Y32272239D02*
X69810381Y32272239D01*
X70810381Y33224620D02*
X70810381Y32748429D01*
X69810381Y32748429D01*
X71191333Y33462715D02*
X71143714Y33510334D01*
X71000857Y33605572D01*
X70905619Y33653191D01*
X70762762Y33700810D01*
X70524667Y33748429D01*
X70334190Y33748429D01*
X70096095Y33700810D01*
X69953238Y33653191D01*
X69858000Y33605572D01*
X69715143Y33510334D01*
X69667524Y33462715D01*
X72315143Y19986524D02*
X72362762Y19938905D01*
X72410381Y19796048D01*
X72410381Y19700810D01*
X72362762Y19557952D01*
X72267524Y19462714D01*
X72172286Y19415095D01*
X71981810Y19367476D01*
X71838952Y19367476D01*
X71648476Y19415095D01*
X71553238Y19462714D01*
X71458000Y19557952D01*
X71410381Y19700810D01*
X71410381Y19796048D01*
X71458000Y19938905D01*
X71505619Y19986524D01*
X72410381Y20557952D02*
X72362762Y20462714D01*
X72315143Y20415095D01*
X72219905Y20367476D01*
X71934190Y20367476D01*
X71838952Y20415095D01*
X71791333Y20462714D01*
X71743714Y20557952D01*
X71743714Y20700810D01*
X71791333Y20796048D01*
X71838952Y20843667D01*
X71934190Y20891286D01*
X72219905Y20891286D01*
X72315143Y20843667D01*
X72362762Y20796048D01*
X72410381Y20700810D01*
X72410381Y20557952D01*
X71743714Y21319857D02*
X72743714Y21319857D01*
X71791333Y21319857D02*
X71743714Y21415095D01*
X71743714Y21605572D01*
X71791333Y21700810D01*
X71838952Y21748429D01*
X71934190Y21796048D01*
X72219905Y21796048D01*
X72315143Y21748429D01*
X72362762Y21700810D01*
X72410381Y21605572D01*
X72410381Y21415095D01*
X72362762Y21319857D01*
X71743714Y22129381D02*
X72410381Y22367476D01*
X71743714Y22605572D02*
X72410381Y22367476D01*
X72648476Y22272238D01*
X72696095Y22224619D01*
X72743714Y22129381D01*
X72410381Y22986524D02*
X71743714Y22986524D01*
X71934190Y22986524D02*
X71838952Y23034143D01*
X71791333Y23081762D01*
X71743714Y23177000D01*
X71743714Y23272239D01*
X72410381Y23605572D02*
X71743714Y23605572D01*
X71410381Y23605572D02*
X71458000Y23557953D01*
X71505619Y23605572D01*
X71458000Y23653191D01*
X71410381Y23605572D01*
X71505619Y23605572D01*
X71743714Y24510334D02*
X72553238Y24510334D01*
X72648476Y24462715D01*
X72696095Y24415096D01*
X72743714Y24319857D01*
X72743714Y24177000D01*
X72696095Y24081762D01*
X72362762Y24510334D02*
X72410381Y24415096D01*
X72410381Y24224619D01*
X72362762Y24129381D01*
X72315143Y24081762D01*
X72219905Y24034143D01*
X71934190Y24034143D01*
X71838952Y24081762D01*
X71791333Y24129381D01*
X71743714Y24224619D01*
X71743714Y24415096D01*
X71791333Y24510334D01*
X72410381Y24986524D02*
X71410381Y24986524D01*
X72410381Y25415096D02*
X71886571Y25415096D01*
X71791333Y25367477D01*
X71743714Y25272239D01*
X71743714Y25129381D01*
X71791333Y25034143D01*
X71838952Y24986524D01*
X71743714Y25748429D02*
X71743714Y26129381D01*
X71410381Y25891286D02*
X72267524Y25891286D01*
X72362762Y25938905D01*
X72410381Y26034143D01*
X72410381Y26129381D01*
X71648476Y28034144D02*
X71600857Y27938906D01*
X71600857Y27748430D01*
X71648476Y27653192D01*
X71743714Y27557954D01*
X71838952Y27510335D01*
X72029429Y27510335D01*
X72124667Y27557954D01*
X72219905Y27653192D01*
X72267524Y27748430D01*
X72267524Y27938906D01*
X72219905Y28034144D01*
X71267524Y27843668D02*
X71315143Y27605573D01*
X71458000Y27367477D01*
X71696095Y27224620D01*
X71934190Y27177001D01*
X72172286Y27224620D01*
X72410381Y27367477D01*
X72553238Y27605573D01*
X72600857Y27843668D01*
X72553238Y28081763D01*
X72410381Y28319858D01*
X72172286Y28462715D01*
X71934190Y28510335D01*
X71696095Y28462715D01*
X71458000Y28319858D01*
X71315143Y28081763D01*
X71267524Y27843668D01*
X71505619Y29653192D02*
X71458000Y29700811D01*
X71410381Y29796049D01*
X71410381Y30034145D01*
X71458000Y30129383D01*
X71505619Y30177002D01*
X71600857Y30224621D01*
X71696095Y30224621D01*
X71838952Y30177002D01*
X72410381Y29605573D01*
X72410381Y30224621D01*
X71410381Y30843668D02*
X71410381Y30938907D01*
X71458000Y31034145D01*
X71505619Y31081764D01*
X71600857Y31129383D01*
X71791333Y31177002D01*
X72029429Y31177002D01*
X72219905Y31129383D01*
X72315143Y31081764D01*
X72362762Y31034145D01*
X72410381Y30938907D01*
X72410381Y30843668D01*
X72362762Y30748430D01*
X72315143Y30700811D01*
X72219905Y30653192D01*
X72029429Y30605573D01*
X71791333Y30605573D01*
X71600857Y30653192D01*
X71505619Y30700811D01*
X71458000Y30748430D01*
X71410381Y30843668D01*
X72410381Y32129383D02*
X72410381Y31557954D01*
X72410381Y31843668D02*
X71410381Y31843668D01*
X71553238Y31748430D01*
X71648476Y31653192D01*
X71696095Y31557954D01*
X71410381Y32462716D02*
X71410381Y33129383D01*
X72410381Y32700811D01*
X74010381Y19415095D02*
X73010381Y19415095D01*
X73343714Y19891285D02*
X74010381Y19891285D01*
X73438952Y19891285D02*
X73391333Y19938904D01*
X73343714Y20034142D01*
X73343714Y20177000D01*
X73391333Y20272238D01*
X73486571Y20319857D01*
X74010381Y20319857D01*
X73343714Y20653190D02*
X73343714Y21034142D01*
X74010381Y20796047D02*
X73153238Y20796047D01*
X73058000Y20843666D01*
X73010381Y20938904D01*
X73010381Y21034142D01*
X73962762Y21748429D02*
X74010381Y21653191D01*
X74010381Y21462714D01*
X73962762Y21367476D01*
X73867524Y21319857D01*
X73486571Y21319857D01*
X73391333Y21367476D01*
X73343714Y21462714D01*
X73343714Y21653191D01*
X73391333Y21748429D01*
X73486571Y21796048D01*
X73581810Y21796048D01*
X73677048Y21319857D01*
X74010381Y22224619D02*
X73343714Y22224619D01*
X73534190Y22224619D02*
X73438952Y22272238D01*
X73391333Y22319857D01*
X73343714Y22415095D01*
X73343714Y22510334D01*
X73343714Y22843667D02*
X74010381Y22843667D01*
X73438952Y22843667D02*
X73391333Y22891286D01*
X73343714Y22986524D01*
X73343714Y23129382D01*
X73391333Y23224620D01*
X73486571Y23272239D01*
X74010381Y23272239D01*
X74010381Y23891286D02*
X73962762Y23796048D01*
X73915143Y23748429D01*
X73819905Y23700810D01*
X73534190Y23700810D01*
X73438952Y23748429D01*
X73391333Y23796048D01*
X73343714Y23891286D01*
X73343714Y24034144D01*
X73391333Y24129382D01*
X73438952Y24177001D01*
X73534190Y24224620D01*
X73819905Y24224620D01*
X73915143Y24177001D01*
X73962762Y24129382D01*
X74010381Y24034144D01*
X74010381Y23891286D01*
X73486571Y25415096D02*
X73486571Y25748430D01*
X74010381Y25891287D02*
X74010381Y25415096D01*
X73010381Y25415096D01*
X73010381Y25891287D01*
X74010381Y26319858D02*
X73343714Y26319858D01*
X73438952Y26319858D02*
X73391333Y26367477D01*
X73343714Y26462715D01*
X73343714Y26605573D01*
X73391333Y26700811D01*
X73486571Y26748430D01*
X74010381Y26748430D01*
X73486571Y26748430D02*
X73391333Y26796049D01*
X73343714Y26891287D01*
X73343714Y27034144D01*
X73391333Y27129382D01*
X73486571Y27177001D01*
X74010381Y27177001D01*
X74010381Y27653191D02*
X73010381Y27653191D01*
X73391333Y27653191D02*
X73343714Y27748429D01*
X73343714Y27938906D01*
X73391333Y28034144D01*
X73438952Y28081763D01*
X73534190Y28129382D01*
X73819905Y28129382D01*
X73915143Y28081763D01*
X73962762Y28034144D01*
X74010381Y27938906D01*
X74010381Y27748429D01*
X73962762Y27653191D01*
X73962762Y28938906D02*
X74010381Y28843668D01*
X74010381Y28653191D01*
X73962762Y28557953D01*
X73867524Y28510334D01*
X73486571Y28510334D01*
X73391333Y28557953D01*
X73343714Y28653191D01*
X73343714Y28843668D01*
X73391333Y28938906D01*
X73486571Y28986525D01*
X73581810Y28986525D01*
X73677048Y28510334D01*
X74010381Y29843668D02*
X73010381Y29843668D01*
X73962762Y29843668D02*
X74010381Y29748430D01*
X74010381Y29557953D01*
X73962762Y29462715D01*
X73915143Y29415096D01*
X73819905Y29367477D01*
X73534190Y29367477D01*
X73438952Y29415096D01*
X73391333Y29462715D01*
X73343714Y29557953D01*
X73343714Y29748430D01*
X73391333Y29843668D01*
X74010381Y30748430D02*
X73010381Y30748430D01*
X73962762Y30748430D02*
X74010381Y30653192D01*
X74010381Y30462715D01*
X73962762Y30367477D01*
X73915143Y30319858D01*
X73819905Y30272239D01*
X73534190Y30272239D01*
X73438952Y30319858D01*
X73391333Y30367477D01*
X73343714Y30462715D01*
X73343714Y30653192D01*
X73391333Y30748430D01*
X73962762Y31605573D02*
X74010381Y31510335D01*
X74010381Y31319858D01*
X73962762Y31224620D01*
X73867524Y31177001D01*
X73486571Y31177001D01*
X73391333Y31224620D01*
X73343714Y31319858D01*
X73343714Y31510335D01*
X73391333Y31605573D01*
X73486571Y31653192D01*
X73581810Y31653192D01*
X73677048Y31177001D01*
X74010381Y32510335D02*
X73010381Y32510335D01*
X73962762Y32510335D02*
X74010381Y32415097D01*
X74010381Y32224620D01*
X73962762Y32129382D01*
X73915143Y32081763D01*
X73819905Y32034144D01*
X73534190Y32034144D01*
X73438952Y32081763D01*
X73391333Y32129382D01*
X73343714Y32224620D01*
X73343714Y32415097D01*
X73391333Y32510335D01*
X44386476Y27535238D02*
X44529333Y27487619D01*
X44767429Y27487619D01*
X44862667Y27535238D01*
X44910286Y27582857D01*
X44957905Y27678095D01*
X44957905Y27773333D01*
X44910286Y27868571D01*
X44862667Y27916190D01*
X44767429Y27963810D01*
X44576952Y28011429D01*
X44481714Y28059048D01*
X44434095Y28106667D01*
X44386476Y28201905D01*
X44386476Y28297143D01*
X44434095Y28392381D01*
X44481714Y28440000D01*
X44576952Y28487619D01*
X44815048Y28487619D01*
X44957905Y28440000D01*
X45291238Y28487619D02*
X45529333Y27487619D01*
X45719810Y28201905D01*
X45910286Y27487619D01*
X46148381Y28487619D01*
X47100762Y27582857D02*
X47053143Y27535238D01*
X46910286Y27487619D01*
X46815048Y27487619D01*
X46672190Y27535238D01*
X46576952Y27630476D01*
X46529333Y27725714D01*
X46481714Y27916190D01*
X46481714Y28059048D01*
X46529333Y28249524D01*
X46576952Y28344762D01*
X46672190Y28440000D01*
X46815048Y28487619D01*
X46910286Y28487619D01*
X47053143Y28440000D01*
X47100762Y28392381D01*
X48005524Y27487619D02*
X47529333Y27487619D01*
X47529333Y28487619D01*
X48338857Y27487619D02*
X48338857Y28487619D01*
X48910286Y27487619D02*
X48481714Y28059048D01*
X48910286Y28487619D02*
X48338857Y27916190D01*
X44513476Y24995238D02*
X44656333Y24947619D01*
X44894429Y24947619D01*
X44989667Y24995238D01*
X45037286Y25042857D01*
X45084905Y25138095D01*
X45084905Y25233333D01*
X45037286Y25328571D01*
X44989667Y25376190D01*
X44894429Y25423810D01*
X44703952Y25471429D01*
X44608714Y25519048D01*
X44561095Y25566667D01*
X44513476Y25661905D01*
X44513476Y25757143D01*
X44561095Y25852381D01*
X44608714Y25900000D01*
X44703952Y25947619D01*
X44942048Y25947619D01*
X45084905Y25900000D01*
X45418238Y25947619D02*
X45656333Y24947619D01*
X45846810Y25661905D01*
X46037286Y24947619D01*
X46275381Y25947619D01*
X46656333Y24947619D02*
X46656333Y25947619D01*
X46894428Y25947619D01*
X47037286Y25900000D01*
X47132524Y25804762D01*
X47180143Y25709524D01*
X47227762Y25519048D01*
X47227762Y25376190D01*
X47180143Y25185714D01*
X47132524Y25090476D01*
X47037286Y24995238D01*
X46894428Y24947619D01*
X46656333Y24947619D01*
X47608714Y25233333D02*
X48084905Y25233333D01*
X47513476Y24947619D02*
X47846809Y25947619D01*
X48180143Y24947619D01*
X48370619Y25947619D02*
X48942048Y25947619D01*
X48656333Y24947619D02*
X48656333Y25947619D01*
X45450095Y35234619D02*
X45450095Y36234619D01*
X46021524Y35234619D01*
X46021524Y36234619D01*
X47069143Y35234619D02*
X46735809Y35710810D01*
X46497714Y35234619D02*
X46497714Y36234619D01*
X46878667Y36234619D01*
X46973905Y36187000D01*
X47021524Y36139381D01*
X47069143Y36044143D01*
X47069143Y35901286D01*
X47021524Y35806048D01*
X46973905Y35758429D01*
X46878667Y35710810D01*
X46497714Y35710810D01*
X47450095Y35282238D02*
X47592952Y35234619D01*
X47831048Y35234619D01*
X47926286Y35282238D01*
X47973905Y35329857D01*
X48021524Y35425095D01*
X48021524Y35520333D01*
X47973905Y35615571D01*
X47926286Y35663190D01*
X47831048Y35710810D01*
X47640571Y35758429D01*
X47545333Y35806048D01*
X47497714Y35853667D01*
X47450095Y35948905D01*
X47450095Y36044143D01*
X47497714Y36139381D01*
X47545333Y36187000D01*
X47640571Y36234619D01*
X47878667Y36234619D01*
X48021524Y36187000D01*
X48307238Y36234619D02*
X48878667Y36234619D01*
X48592952Y35234619D02*
X48592952Y36234619D01*
X59816905Y36060000D02*
X59721667Y36107619D01*
X59578810Y36107619D01*
X59435952Y36060000D01*
X59340714Y35964762D01*
X59293095Y35869524D01*
X59245476Y35679048D01*
X59245476Y35536190D01*
X59293095Y35345714D01*
X59340714Y35250476D01*
X59435952Y35155238D01*
X59578810Y35107619D01*
X59674048Y35107619D01*
X59816905Y35155238D01*
X59864524Y35202857D01*
X59864524Y35536190D01*
X59674048Y35536190D01*
X60293095Y35774286D02*
X60293095Y35107619D01*
X60293095Y35679048D02*
X60340714Y35726667D01*
X60435952Y35774286D01*
X60578810Y35774286D01*
X60674048Y35726667D01*
X60721667Y35631429D01*
X60721667Y35107619D01*
X61626429Y35107619D02*
X61626429Y36107619D01*
X61626429Y35155238D02*
X61531191Y35107619D01*
X61340714Y35107619D01*
X61245476Y35155238D01*
X61197857Y35202857D01*
X61150238Y35298095D01*
X61150238Y35583810D01*
X61197857Y35679048D01*
X61245476Y35726667D01*
X61340714Y35774286D01*
X61531191Y35774286D01*
X61626429Y35726667D01*
X60070905Y30980000D02*
X59975667Y31027619D01*
X59832810Y31027619D01*
X59689952Y30980000D01*
X59594714Y30884762D01*
X59547095Y30789524D01*
X59499476Y30599048D01*
X59499476Y30456190D01*
X59547095Y30265714D01*
X59594714Y30170476D01*
X59689952Y30075238D01*
X59832810Y30027619D01*
X59928048Y30027619D01*
X60070905Y30075238D01*
X60118524Y30122857D01*
X60118524Y30456190D01*
X59928048Y30456190D01*
X60547095Y30694286D02*
X60547095Y30027619D01*
X60547095Y30599048D02*
X60594714Y30646667D01*
X60689952Y30694286D01*
X60832810Y30694286D01*
X60928048Y30646667D01*
X60975667Y30551429D01*
X60975667Y30027619D01*
X61880429Y30027619D02*
X61880429Y31027619D01*
X61880429Y30075238D02*
X61785191Y30027619D01*
X61594714Y30027619D01*
X61499476Y30075238D01*
X61451857Y30122857D01*
X61404238Y30218095D01*
X61404238Y30503810D01*
X61451857Y30599048D01*
X61499476Y30646667D01*
X61594714Y30694286D01*
X61785191Y30694286D01*
X61880429Y30646667D01*
X59943905Y28440000D02*
X59848667Y28487619D01*
X59705810Y28487619D01*
X59562952Y28440000D01*
X59467714Y28344762D01*
X59420095Y28249524D01*
X59372476Y28059048D01*
X59372476Y27916190D01*
X59420095Y27725714D01*
X59467714Y27630476D01*
X59562952Y27535238D01*
X59705810Y27487619D01*
X59801048Y27487619D01*
X59943905Y27535238D01*
X59991524Y27582857D01*
X59991524Y27916190D01*
X59801048Y27916190D01*
X60420095Y28154286D02*
X60420095Y27487619D01*
X60420095Y28059048D02*
X60467714Y28106667D01*
X60562952Y28154286D01*
X60705810Y28154286D01*
X60801048Y28106667D01*
X60848667Y28011429D01*
X60848667Y27487619D01*
X61753429Y27487619D02*
X61753429Y28487619D01*
X61753429Y27535238D02*
X61658191Y27487619D01*
X61467714Y27487619D01*
X61372476Y27535238D01*
X61324857Y27582857D01*
X61277238Y27678095D01*
X61277238Y27963810D01*
X61324857Y28059048D01*
X61372476Y28106667D01*
X61467714Y28154286D01*
X61658191Y28154286D01*
X61753429Y28106667D01*
X59578857Y25947619D02*
X60197905Y25947619D01*
X59864571Y25566667D01*
X60007429Y25566667D01*
X60102667Y25519048D01*
X60150286Y25471429D01*
X60197905Y25376190D01*
X60197905Y25138095D01*
X60150286Y25042857D01*
X60102667Y24995238D01*
X60007429Y24947619D01*
X59721714Y24947619D01*
X59626476Y24995238D01*
X59578857Y25042857D01*
X60626476Y25042857D02*
X60674095Y24995238D01*
X60626476Y24947619D01*
X60578857Y24995238D01*
X60626476Y25042857D01*
X60626476Y24947619D01*
X61007428Y25947619D02*
X61626476Y25947619D01*
X61293142Y25566667D01*
X61436000Y25566667D01*
X61531238Y25519048D01*
X61578857Y25471429D01*
X61626476Y25376190D01*
X61626476Y25138095D01*
X61578857Y25042857D01*
X61531238Y24995238D01*
X61436000Y24947619D01*
X61150285Y24947619D01*
X61055047Y24995238D01*
X61007428Y25042857D01*
X61912190Y25947619D02*
X62245523Y24947619D01*
X62578857Y25947619D01*
D11*
X35212571Y19811857D02*
X35212571Y18954714D01*
X35212571Y19383286D02*
X33712571Y19383286D01*
X33926857Y19240429D01*
X34069714Y19097571D01*
X34141143Y18954714D01*
X33712571Y20311857D02*
X35212571Y20669000D01*
X34141143Y20954714D01*
X35212571Y21240428D01*
X33712571Y21597571D01*
X35212571Y22169000D02*
X34212571Y22169000D01*
X33712571Y22169000D02*
X33784000Y22097571D01*
X33855429Y22169000D01*
X33784000Y22240428D01*
X33712571Y22169000D01*
X33855429Y22169000D01*
X35212571Y22883286D02*
X34212571Y22883286D01*
X34498286Y22883286D02*
X34355429Y22954714D01*
X34284000Y23026143D01*
X34212571Y23169000D01*
X34212571Y23311857D01*
X35141143Y24383285D02*
X35212571Y24240428D01*
X35212571Y23954714D01*
X35141143Y23811857D01*
X34998286Y23740428D01*
X34426857Y23740428D01*
X34284000Y23811857D01*
X34212571Y23954714D01*
X34212571Y24240428D01*
X34284000Y24383285D01*
X34426857Y24454714D01*
X34569714Y24454714D01*
X34712571Y23740428D01*
X35212571Y26240428D02*
X33712571Y26240428D01*
X34784000Y26740428D01*
X33712571Y27240428D01*
X35212571Y27240428D01*
X35212571Y28597571D02*
X34426857Y28597571D01*
X34284000Y28526142D01*
X34212571Y28383285D01*
X34212571Y28097571D01*
X34284000Y27954714D01*
X35141143Y28597571D02*
X35212571Y28454714D01*
X35212571Y28097571D01*
X35141143Y27954714D01*
X34998286Y27883285D01*
X34855429Y27883285D01*
X34712571Y27954714D01*
X34641143Y28097571D01*
X34641143Y28454714D01*
X34569714Y28597571D01*
X35141143Y29240428D02*
X35212571Y29383285D01*
X35212571Y29669000D01*
X35141143Y29811857D01*
X34998286Y29883285D01*
X34926857Y29883285D01*
X34784000Y29811857D01*
X34712571Y29669000D01*
X34712571Y29454714D01*
X34641143Y29311857D01*
X34498286Y29240428D01*
X34426857Y29240428D01*
X34284000Y29311857D01*
X34212571Y29454714D01*
X34212571Y29669000D01*
X34284000Y29811857D01*
X34212571Y30311857D02*
X34212571Y30883286D01*
X33712571Y30526143D02*
X34998286Y30526143D01*
X35141143Y30597571D01*
X35212571Y30740429D01*
X35212571Y30883286D01*
X35141143Y31954714D02*
X35212571Y31811857D01*
X35212571Y31526143D01*
X35141143Y31383286D01*
X34998286Y31311857D01*
X34426857Y31311857D01*
X34284000Y31383286D01*
X34212571Y31526143D01*
X34212571Y31811857D01*
X34284000Y31954714D01*
X34426857Y32026143D01*
X34569714Y32026143D01*
X34712571Y31311857D01*
X35212571Y32669000D02*
X34212571Y32669000D01*
X34498286Y32669000D02*
X34355429Y32740428D01*
X34284000Y32811857D01*
X34212571Y32954714D01*
X34212571Y33097571D01*
X34212571Y34526142D02*
X34212571Y35097571D01*
X35212571Y34740428D02*
X33926857Y34740428D01*
X33784000Y34811856D01*
X33712571Y34954714D01*
X33712571Y35097571D01*
X35212571Y35811857D02*
X35141143Y35668999D01*
X35069714Y35597571D01*
X34926857Y35526142D01*
X34498286Y35526142D01*
X34355429Y35597571D01*
X34284000Y35668999D01*
X34212571Y35811857D01*
X34212571Y36026142D01*
X34284000Y36168999D01*
X34355429Y36240428D01*
X34498286Y36311857D01*
X34926857Y36311857D01*
X35069714Y36240428D01*
X35141143Y36168999D01*
X35212571Y36026142D01*
X35212571Y35811857D01*
X35212571Y36954714D02*
X34212571Y36954714D01*
X34498286Y36954714D02*
X34355429Y37026142D01*
X34284000Y37097571D01*
X34212571Y37240428D01*
X34212571Y37383285D01*
X36262571Y19311857D02*
X36262571Y19597571D01*
X36334000Y19740429D01*
X36476857Y19883286D01*
X36762571Y19954714D01*
X37262571Y19954714D01*
X37548286Y19883286D01*
X37691143Y19740429D01*
X37762571Y19597571D01*
X37762571Y19311857D01*
X37691143Y19169000D01*
X37548286Y19026143D01*
X37262571Y18954714D01*
X36762571Y18954714D01*
X36476857Y19026143D01*
X36334000Y19169000D01*
X36262571Y19311857D01*
X37762571Y20597572D02*
X36762571Y20597572D01*
X37048286Y20597572D02*
X36905429Y20669000D01*
X36834000Y20740429D01*
X36762571Y20883286D01*
X36762571Y21026143D01*
X37762571Y22169000D02*
X36976857Y22169000D01*
X36834000Y22097571D01*
X36762571Y21954714D01*
X36762571Y21669000D01*
X36834000Y21526143D01*
X37691143Y22169000D02*
X37762571Y22026143D01*
X37762571Y21669000D01*
X37691143Y21526143D01*
X37548286Y21454714D01*
X37405429Y21454714D01*
X37262571Y21526143D01*
X37191143Y21669000D01*
X37191143Y22026143D01*
X37119714Y22169000D01*
X36762571Y22883286D02*
X37762571Y22883286D01*
X36905429Y22883286D02*
X36834000Y22954714D01*
X36762571Y23097572D01*
X36762571Y23311857D01*
X36834000Y23454714D01*
X36976857Y23526143D01*
X37762571Y23526143D01*
X36762571Y24883286D02*
X37976857Y24883286D01*
X38119714Y24811857D01*
X38191143Y24740429D01*
X38262571Y24597572D01*
X38262571Y24383286D01*
X38191143Y24240429D01*
X37691143Y24883286D02*
X37762571Y24740429D01*
X37762571Y24454715D01*
X37691143Y24311857D01*
X37619714Y24240429D01*
X37476857Y24169000D01*
X37048286Y24169000D01*
X36905429Y24240429D01*
X36834000Y24311857D01*
X36762571Y24454715D01*
X36762571Y24740429D01*
X36834000Y24883286D01*
X37691143Y26169000D02*
X37762571Y26026143D01*
X37762571Y25740429D01*
X37691143Y25597572D01*
X37548286Y25526143D01*
X36976857Y25526143D01*
X36834000Y25597572D01*
X36762571Y25740429D01*
X36762571Y26026143D01*
X36834000Y26169000D01*
X36976857Y26240429D01*
X37119714Y26240429D01*
X37262571Y25526143D01*
X37762571Y28026143D02*
X36262571Y28026143D01*
X36262571Y28597571D01*
X36334000Y28740429D01*
X36405429Y28811857D01*
X36548286Y28883286D01*
X36762571Y28883286D01*
X36905429Y28811857D01*
X36976857Y28740429D01*
X37048286Y28597571D01*
X37048286Y28026143D01*
X37762571Y29526143D02*
X36762571Y29526143D01*
X36262571Y29526143D02*
X36334000Y29454714D01*
X36405429Y29526143D01*
X36334000Y29597571D01*
X36262571Y29526143D01*
X36405429Y29526143D01*
X37762571Y31383286D02*
X36262571Y31383286D01*
X36262571Y31954714D01*
X36334000Y32097572D01*
X36405429Y32169000D01*
X36548286Y32240429D01*
X36762571Y32240429D01*
X36905429Y32169000D01*
X36976857Y32097572D01*
X37048286Y31954714D01*
X37048286Y31383286D01*
X37762571Y32883286D02*
X36762571Y32883286D01*
X37048286Y32883286D02*
X36905429Y32954714D01*
X36834000Y33026143D01*
X36762571Y33169000D01*
X36762571Y33311857D01*
X37762571Y33811857D02*
X36762571Y33811857D01*
X36262571Y33811857D02*
X36334000Y33740428D01*
X36405429Y33811857D01*
X36334000Y33883285D01*
X36262571Y33811857D01*
X36405429Y33811857D01*
X37762571Y34526143D02*
X36762571Y34526143D01*
X36905429Y34526143D02*
X36834000Y34597571D01*
X36762571Y34740429D01*
X36762571Y34954714D01*
X36834000Y35097571D01*
X36976857Y35169000D01*
X37762571Y35169000D01*
X36976857Y35169000D02*
X36834000Y35240429D01*
X36762571Y35383286D01*
X36762571Y35597571D01*
X36834000Y35740429D01*
X36976857Y35811857D01*
X37762571Y35811857D01*
X37691143Y37097571D02*
X37762571Y36954714D01*
X37762571Y36669000D01*
X37691143Y36526143D01*
X37548286Y36454714D01*
X36976857Y36454714D01*
X36834000Y36526143D01*
X36762571Y36669000D01*
X36762571Y36954714D01*
X36834000Y37097571D01*
X36976857Y37169000D01*
X37119714Y37169000D01*
X37262571Y36454714D01*
X40312571Y19883286D02*
X39598286Y19383286D01*
X40312571Y19026143D02*
X38812571Y19026143D01*
X38812571Y19597571D01*
X38884000Y19740429D01*
X38955429Y19811857D01*
X39098286Y19883286D01*
X39312571Y19883286D01*
X39455429Y19811857D01*
X39526857Y19740429D01*
X39598286Y19597571D01*
X39598286Y19026143D01*
X40241143Y21097571D02*
X40312571Y20954714D01*
X40312571Y20669000D01*
X40241143Y20526143D01*
X40098286Y20454714D01*
X39526857Y20454714D01*
X39384000Y20526143D01*
X39312571Y20669000D01*
X39312571Y20954714D01*
X39384000Y21097571D01*
X39526857Y21169000D01*
X39669714Y21169000D01*
X39812571Y20454714D01*
X39312571Y21669000D02*
X40312571Y22026143D01*
X39312571Y22383285D01*
X40312571Y24883285D02*
X40312571Y24026142D01*
X40312571Y24454714D02*
X38812571Y24454714D01*
X39026857Y24311857D01*
X39169714Y24168999D01*
X39241143Y24026142D01*
X40169714Y25526142D02*
X40241143Y25597570D01*
X40312571Y25526142D01*
X40241143Y25454713D01*
X40169714Y25526142D01*
X40312571Y25526142D01*
X38812571Y26526142D02*
X38812571Y26668999D01*
X38884000Y26811856D01*
X38955429Y26883285D01*
X39098286Y26954714D01*
X39384000Y27026142D01*
X39741143Y27026142D01*
X40026857Y26954714D01*
X40169714Y26883285D01*
X40241143Y26811856D01*
X40312571Y26668999D01*
X40312571Y26526142D01*
X40241143Y26383285D01*
X40169714Y26311856D01*
X40026857Y26240428D01*
X39741143Y26168999D01*
X39384000Y26168999D01*
X39098286Y26240428D01*
X38955429Y26311856D01*
X38884000Y26383285D01*
X38812571Y26526142D01*
X24431572Y51899429D02*
X23574429Y51899429D01*
X24003001Y51899429D02*
X24003001Y53399429D01*
X23860144Y53185143D01*
X23717286Y53042286D01*
X23574429Y52970857D01*
X75485572Y15450429D02*
X74628429Y15450429D01*
X75057001Y15450429D02*
X75057001Y16950429D01*
X74914144Y16736143D01*
X74771286Y16593286D01*
X74628429Y16521857D01*
X77898572Y51645429D02*
X77041429Y51645429D01*
X77470001Y51645429D02*
X77470001Y53145429D01*
X77327144Y52931143D01*
X77184286Y52788286D01*
X77041429Y52716857D01*
X74723572Y57741429D02*
X73866429Y57741429D01*
X74295001Y57741429D02*
X74295001Y59241429D01*
X74152144Y59027143D01*
X74009286Y58884286D01*
X73866429Y58812857D01*
D12*
X17780000Y9525000D02*
X17780000Y31623000D01*
X17780000Y31623000D02*
X1016000Y31623000D01*
X1016000Y31623000D02*
X1016000Y9525000D01*
X1016000Y9525000D02*
X17780000Y9525000D01*
D13*
X5160000Y35405000D02*
X-3640000Y35405000D01*
X-3640000Y35405000D02*
X-3640000Y44605000D01*
X11060000Y38105000D02*
X11060000Y35405000D01*
X11060000Y35405000D02*
X9160000Y35405000D01*
X-3640000Y44605000D02*
X11060000Y44605000D01*
X11060000Y44605000D02*
X11060000Y42005000D01*
X20700000Y51815000D02*
X18020000Y51815000D01*
X12320000Y51815000D02*
X15000000Y51815000D01*
X13080000Y43435000D02*
X15000000Y43435000D01*
X19940000Y43435000D02*
X18020000Y43435000D01*
X20700000Y51815000D02*
X20700000Y44195000D01*
X20700000Y44195000D02*
X19940000Y43435000D01*
X13080000Y43435000D02*
X12320000Y44195000D01*
X12320000Y44195000D02*
X12320000Y51815000D01*
X56575000Y24600000D02*
X56575000Y24070000D01*
X56575000Y24070000D02*
X51375000Y24070000D01*
X51375000Y24070000D02*
X51375000Y24600000D01*
X56575000Y36360000D02*
X56575000Y36890000D01*
X56575000Y36890000D02*
X51375000Y36890000D01*
X51375000Y36890000D02*
X51375000Y36360000D01*
X58245000Y24600000D02*
X56575000Y24600000D01*
X73190000Y56575000D02*
X73720000Y56575000D01*
X73720000Y56575000D02*
X73720000Y51375000D01*
X73720000Y51375000D02*
X73190000Y51375000D01*
X36030000Y56575000D02*
X35500000Y56575000D01*
X35500000Y56575000D02*
X35500000Y51375000D01*
X35500000Y51375000D02*
X36030000Y51375000D01*
X73190000Y58245000D02*
X73190000Y56575000D01*
X73190000Y15300000D02*
X73720000Y15300000D01*
X73720000Y15300000D02*
X73720000Y10100000D01*
X73720000Y10100000D02*
X73190000Y10100000D01*
X36030000Y15300000D02*
X35500000Y15300000D01*
X35500000Y15300000D02*
X35500000Y10100000D01*
X35500000Y10100000D02*
X36030000Y10100000D01*
X73190000Y16970000D02*
X73190000Y15300000D01*
X78680000Y50330000D02*
X78680000Y50860000D01*
X78680000Y50860000D02*
X83880000Y50860000D01*
X83880000Y50860000D02*
X83880000Y50330000D01*
X78680000Y13170000D02*
X78680000Y12640000D01*
X78680000Y12640000D02*
X83880000Y12640000D01*
X83880000Y12640000D02*
X83880000Y13170000D01*
X77010000Y50330000D02*
X78680000Y50330000D01*
X24832000Y50330000D02*
X24832000Y50860000D01*
X24832000Y50860000D02*
X30032000Y50860000D01*
X30032000Y50860000D02*
X30032000Y50330000D01*
X24832000Y13170000D02*
X24832000Y12640000D01*
X24832000Y12640000D02*
X30032000Y12640000D01*
X30032000Y12640000D02*
X30032000Y13170000D01*
X23162000Y50330000D02*
X24832000Y50330000D01*
D12*
X90752000Y3478000D02*
G75*
G03X90752000Y3478000I-2500000J0D01*
G01*
X90752000Y56533000D02*
G75*
G03X90752000Y56533000I-2500000J0D01*
G01*
X18028000Y56553000D02*
G75*
G03X18028000Y56553000I-2500000J0D01*
G01*
X18028000Y3478000D02*
G75*
G03X18028000Y3478000I-2500000J0D01*
G01*
D14*
G36*
X74576940Y40934640D02*
X74559160Y40901620D01*
X74515980Y40833040D01*
X74449940Y40731440D01*
X74371200Y40614600D01*
X74289920Y40495220D01*
X74223880Y40396160D01*
X74180700Y40327580D01*
X74165460Y40299640D01*
X74170540Y40284400D01*
X74198480Y40228520D01*
X74241660Y40147240D01*
X74264520Y40098980D01*
X74297540Y40022780D01*
X74305160Y39987220D01*
X74295000Y39979600D01*
X74236580Y39951660D01*
X74137520Y39908480D01*
X74007980Y39852600D01*
X73855580Y39786560D01*
X73690480Y39717980D01*
X73522840Y39649400D01*
X73365360Y39583360D01*
X73220580Y39522400D01*
X73103740Y39476680D01*
X73022460Y39446200D01*
X72986900Y39433500D01*
X72979280Y39438580D01*
X72943720Y39474140D01*
X72895460Y39540180D01*
X72778620Y39682420D01*
X72603360Y39822120D01*
X72405240Y39908480D01*
X72184260Y39936420D01*
X71981060Y39913560D01*
X71785480Y39832280D01*
X71607680Y39695120D01*
X71475600Y39527480D01*
X71394320Y39334440D01*
X71366380Y39116000D01*
X71389240Y38907720D01*
X71467980Y38707060D01*
X71602600Y38529260D01*
X71688960Y38455600D01*
X71869300Y38351460D01*
X72059800Y38293040D01*
X72108060Y38287960D01*
X72318880Y38295580D01*
X72522080Y38359080D01*
X72702420Y38468300D01*
X72849740Y38623240D01*
X72864980Y38643560D01*
X72918320Y38714680D01*
X72953880Y38762940D01*
X72984360Y38801040D01*
X73632060Y38531800D01*
X73733660Y38488620D01*
X73908920Y38414960D01*
X74061320Y38351460D01*
X74183240Y38298120D01*
X74264520Y38262560D01*
X74297540Y38247320D01*
X74297540Y38244780D01*
X74302620Y38221920D01*
X74284840Y38173660D01*
X74241660Y38082220D01*
X74211180Y38023800D01*
X74178160Y37955220D01*
X74165460Y37924740D01*
X74178160Y37896800D01*
X74221340Y37830760D01*
X74287380Y37736780D01*
X74363580Y37619940D01*
X74439780Y37510720D01*
X74505820Y37409120D01*
X74554080Y37335460D01*
X74571860Y37299900D01*
X74571860Y37294820D01*
X74554080Y37261800D01*
X74505820Y37203380D01*
X74422000Y37117020D01*
X74300080Y36992560D01*
X74282300Y36972240D01*
X74178160Y36870640D01*
X74089260Y36786820D01*
X74028300Y36730940D01*
X74000360Y36710620D01*
X74000360Y36710620D01*
X73964800Y36730940D01*
X73891140Y36776660D01*
X73789540Y36842700D01*
X73667620Y36923980D01*
X73357740Y37139880D01*
X73065640Y37020500D01*
X72974200Y36984940D01*
X72864980Y36939220D01*
X72788780Y36906200D01*
X72753220Y36888420D01*
X72743060Y36855400D01*
X72722740Y36776660D01*
X72699880Y36659820D01*
X72674480Y36520120D01*
X72649080Y36388040D01*
X72626220Y36268660D01*
X72610980Y36182300D01*
X72603360Y36144200D01*
X72595740Y36134040D01*
X72577960Y36126420D01*
X72537320Y36121340D01*
X72463660Y36118800D01*
X72349360Y36116260D01*
X72184260Y36116260D01*
X72166480Y36116260D01*
X72009000Y36118800D01*
X71884540Y36121340D01*
X71803260Y36126420D01*
X71770240Y36131500D01*
X71770240Y36131500D01*
X71760080Y36169600D01*
X71742300Y36253420D01*
X71719440Y36372800D01*
X71691500Y36515040D01*
X71691500Y36525200D01*
X71663560Y36667440D01*
X71638160Y36784280D01*
X71620380Y36868100D01*
X71607680Y36903660D01*
X71597520Y36911280D01*
X71541640Y36939220D01*
X71455280Y36979860D01*
X71348600Y37028120D01*
X71236840Y37073840D01*
X71135240Y37114480D01*
X71061580Y37139880D01*
X71026020Y37147500D01*
X71026020Y37147500D01*
X70993000Y37127180D01*
X70919340Y37078920D01*
X70817740Y37007800D01*
X70695820Y36926520D01*
X70685660Y36918900D01*
X70566280Y36837620D01*
X70464680Y36771580D01*
X70393560Y36728400D01*
X70360540Y36710620D01*
X70358000Y36710620D01*
X70322440Y36738560D01*
X70253860Y36799520D01*
X70162420Y36888420D01*
X70058280Y36992560D01*
X70025260Y37025580D01*
X69910960Y37142420D01*
X69837300Y37223700D01*
X69796660Y37274500D01*
X69786500Y37297360D01*
X69789040Y37299900D01*
X69809360Y37335460D01*
X69860160Y37411660D01*
X69928740Y37513260D01*
X70012560Y37635180D01*
X70017640Y37642800D01*
X70098920Y37764720D01*
X70167500Y37863780D01*
X70213220Y37934900D01*
X70231000Y37965380D01*
X70231000Y37970460D01*
X70218300Y38018720D01*
X70187820Y38105080D01*
X70147180Y38209220D01*
X70104000Y38320980D01*
X70060820Y38422580D01*
X70025260Y38496240D01*
X70004940Y38531800D01*
X70004940Y38534340D01*
X69961760Y38547040D01*
X69870320Y38567360D01*
X69748400Y38592760D01*
X69601080Y38620700D01*
X69578220Y38625780D01*
X69433440Y38651180D01*
X69316600Y38674040D01*
X69235320Y38691820D01*
X69199760Y38699440D01*
X69197220Y38719760D01*
X69192140Y38790880D01*
X69187060Y38897560D01*
X69187060Y39027100D01*
X69187060Y39161720D01*
X69189600Y39293800D01*
X69194680Y39405560D01*
X69199760Y39486840D01*
X69207380Y39522400D01*
X69209920Y39522400D01*
X69253100Y39535100D01*
X69342000Y39555420D01*
X69466460Y39580820D01*
X69613780Y39608760D01*
X69641720Y39613840D01*
X69783960Y39639240D01*
X69900800Y39664640D01*
X69979540Y39682420D01*
X70012560Y39690040D01*
X70017640Y39702740D01*
X70045580Y39761160D01*
X70083680Y39857680D01*
X70131940Y39977060D01*
X70243700Y40251380D01*
X70012560Y40586660D01*
X69992240Y40617140D01*
X69908420Y40739060D01*
X69842380Y40838120D01*
X69799200Y40909240D01*
X69781420Y40937180D01*
X69783960Y40939720D01*
X69811900Y40972740D01*
X69875400Y41038780D01*
X69964300Y41130220D01*
X70068440Y41236900D01*
X70147180Y41315640D01*
X70241160Y41407080D01*
X70304660Y41465500D01*
X70345300Y41498520D01*
X70370700Y41511220D01*
X70388480Y41506140D01*
X70421500Y41485820D01*
X70495160Y41435020D01*
X70599300Y41366440D01*
X70716140Y41285160D01*
X70817740Y41216580D01*
X70929500Y41142920D01*
X71010780Y41097200D01*
X71048880Y41079420D01*
X71066660Y41084500D01*
X71132700Y41107360D01*
X71231760Y41148000D01*
X71351140Y41198800D01*
X71617840Y41315640D01*
X71650860Y41490900D01*
X71671180Y41595040D01*
X71699120Y41744900D01*
X71727060Y41887140D01*
X71770240Y42108120D01*
X72580500Y42115740D01*
X72595740Y42080180D01*
X72605900Y42047160D01*
X72623680Y41965880D01*
X72646540Y41849040D01*
X72671940Y41711880D01*
X72694800Y41592500D01*
X72717660Y41475660D01*
X72732900Y41389300D01*
X72740520Y41351200D01*
X72753220Y41343580D01*
X72811640Y41313100D01*
X72903080Y41269920D01*
X73012300Y41224200D01*
X73126600Y41175940D01*
X73230740Y41135300D01*
X73312020Y41104820D01*
X73352660Y41094660D01*
X73383140Y41109900D01*
X73454260Y41155620D01*
X73553320Y41221660D01*
X73670160Y41300400D01*
X73789540Y41381680D01*
X73888600Y41450260D01*
X73962260Y41498520D01*
X73995280Y41516300D01*
X74018140Y41506140D01*
X74074020Y41460420D01*
X74165460Y41371520D01*
X74297540Y41239440D01*
X74317860Y41216580D01*
X74419460Y41112440D01*
X74500740Y41023540D01*
X74556620Y40962580D01*
X74576940Y40934640D01*
X74576940Y40934640D01*
G37*
X74576940Y40934640D02*
X74559160Y40901620D01*
X74515980Y40833040D01*
X74449940Y40731440D01*
X74371200Y40614600D01*
X74289920Y40495220D01*
X74223880Y40396160D01*
X74180700Y40327580D01*
X74165460Y40299640D01*
X74170540Y40284400D01*
X74198480Y40228520D01*
X74241660Y40147240D01*
X74264520Y40098980D01*
X74297540Y40022780D01*
X74305160Y39987220D01*
X74295000Y39979600D01*
X74236580Y39951660D01*
X74137520Y39908480D01*
X74007980Y39852600D01*
X73855580Y39786560D01*
X73690480Y39717980D01*
X73522840Y39649400D01*
X73365360Y39583360D01*
X73220580Y39522400D01*
X73103740Y39476680D01*
X73022460Y39446200D01*
X72986900Y39433500D01*
X72979280Y39438580D01*
X72943720Y39474140D01*
X72895460Y39540180D01*
X72778620Y39682420D01*
X72603360Y39822120D01*
X72405240Y39908480D01*
X72184260Y39936420D01*
X71981060Y39913560D01*
X71785480Y39832280D01*
X71607680Y39695120D01*
X71475600Y39527480D01*
X71394320Y39334440D01*
X71366380Y39116000D01*
X71389240Y38907720D01*
X71467980Y38707060D01*
X71602600Y38529260D01*
X71688960Y38455600D01*
X71869300Y38351460D01*
X72059800Y38293040D01*
X72108060Y38287960D01*
X72318880Y38295580D01*
X72522080Y38359080D01*
X72702420Y38468300D01*
X72849740Y38623240D01*
X72864980Y38643560D01*
X72918320Y38714680D01*
X72953880Y38762940D01*
X72984360Y38801040D01*
X73632060Y38531800D01*
X73733660Y38488620D01*
X73908920Y38414960D01*
X74061320Y38351460D01*
X74183240Y38298120D01*
X74264520Y38262560D01*
X74297540Y38247320D01*
X74297540Y38244780D01*
X74302620Y38221920D01*
X74284840Y38173660D01*
X74241660Y38082220D01*
X74211180Y38023800D01*
X74178160Y37955220D01*
X74165460Y37924740D01*
X74178160Y37896800D01*
X74221340Y37830760D01*
X74287380Y37736780D01*
X74363580Y37619940D01*
X74439780Y37510720D01*
X74505820Y37409120D01*
X74554080Y37335460D01*
X74571860Y37299900D01*
X74571860Y37294820D01*
X74554080Y37261800D01*
X74505820Y37203380D01*
X74422000Y37117020D01*
X74300080Y36992560D01*
X74282300Y36972240D01*
X74178160Y36870640D01*
X74089260Y36786820D01*
X74028300Y36730940D01*
X74000360Y36710620D01*
X74000360Y36710620D01*
X73964800Y36730940D01*
X73891140Y36776660D01*
X73789540Y36842700D01*
X73667620Y36923980D01*
X73357740Y37139880D01*
X73065640Y37020500D01*
X72974200Y36984940D01*
X72864980Y36939220D01*
X72788780Y36906200D01*
X72753220Y36888420D01*
X72743060Y36855400D01*
X72722740Y36776660D01*
X72699880Y36659820D01*
X72674480Y36520120D01*
X72649080Y36388040D01*
X72626220Y36268660D01*
X72610980Y36182300D01*
X72603360Y36144200D01*
X72595740Y36134040D01*
X72577960Y36126420D01*
X72537320Y36121340D01*
X72463660Y36118800D01*
X72349360Y36116260D01*
X72184260Y36116260D01*
X72166480Y36116260D01*
X72009000Y36118800D01*
X71884540Y36121340D01*
X71803260Y36126420D01*
X71770240Y36131500D01*
X71770240Y36131500D01*
X71760080Y36169600D01*
X71742300Y36253420D01*
X71719440Y36372800D01*
X71691500Y36515040D01*
X71691500Y36525200D01*
X71663560Y36667440D01*
X71638160Y36784280D01*
X71620380Y36868100D01*
X71607680Y36903660D01*
X71597520Y36911280D01*
X71541640Y36939220D01*
X71455280Y36979860D01*
X71348600Y37028120D01*
X71236840Y37073840D01*
X71135240Y37114480D01*
X71061580Y37139880D01*
X71026020Y37147500D01*
X71026020Y37147500D01*
X70993000Y37127180D01*
X70919340Y37078920D01*
X70817740Y37007800D01*
X70695820Y36926520D01*
X70685660Y36918900D01*
X70566280Y36837620D01*
X70464680Y36771580D01*
X70393560Y36728400D01*
X70360540Y36710620D01*
X70358000Y36710620D01*
X70322440Y36738560D01*
X70253860Y36799520D01*
X70162420Y36888420D01*
X70058280Y36992560D01*
X70025260Y37025580D01*
X69910960Y37142420D01*
X69837300Y37223700D01*
X69796660Y37274500D01*
X69786500Y37297360D01*
X69789040Y37299900D01*
X69809360Y37335460D01*
X69860160Y37411660D01*
X69928740Y37513260D01*
X70012560Y37635180D01*
X70017640Y37642800D01*
X70098920Y37764720D01*
X70167500Y37863780D01*
X70213220Y37934900D01*
X70231000Y37965380D01*
X70231000Y37970460D01*
X70218300Y38018720D01*
X70187820Y38105080D01*
X70147180Y38209220D01*
X70104000Y38320980D01*
X70060820Y38422580D01*
X70025260Y38496240D01*
X70004940Y38531800D01*
X70004940Y38534340D01*
X69961760Y38547040D01*
X69870320Y38567360D01*
X69748400Y38592760D01*
X69601080Y38620700D01*
X69578220Y38625780D01*
X69433440Y38651180D01*
X69316600Y38674040D01*
X69235320Y38691820D01*
X69199760Y38699440D01*
X69197220Y38719760D01*
X69192140Y38790880D01*
X69187060Y38897560D01*
X69187060Y39027100D01*
X69187060Y39161720D01*
X69189600Y39293800D01*
X69194680Y39405560D01*
X69199760Y39486840D01*
X69207380Y39522400D01*
X69209920Y39522400D01*
X69253100Y39535100D01*
X69342000Y39555420D01*
X69466460Y39580820D01*
X69613780Y39608760D01*
X69641720Y39613840D01*
X69783960Y39639240D01*
X69900800Y39664640D01*
X69979540Y39682420D01*
X70012560Y39690040D01*
X70017640Y39702740D01*
X70045580Y39761160D01*
X70083680Y39857680D01*
X70131940Y39977060D01*
X70243700Y40251380D01*
X70012560Y40586660D01*
X69992240Y40617140D01*
X69908420Y40739060D01*
X69842380Y40838120D01*
X69799200Y40909240D01*
X69781420Y40937180D01*
X69783960Y40939720D01*
X69811900Y40972740D01*
X69875400Y41038780D01*
X69964300Y41130220D01*
X70068440Y41236900D01*
X70147180Y41315640D01*
X70241160Y41407080D01*
X70304660Y41465500D01*
X70345300Y41498520D01*
X70370700Y41511220D01*
X70388480Y41506140D01*
X70421500Y41485820D01*
X70495160Y41435020D01*
X70599300Y41366440D01*
X70716140Y41285160D01*
X70817740Y41216580D01*
X70929500Y41142920D01*
X71010780Y41097200D01*
X71048880Y41079420D01*
X71066660Y41084500D01*
X71132700Y41107360D01*
X71231760Y41148000D01*
X71351140Y41198800D01*
X71617840Y41315640D01*
X71650860Y41490900D01*
X71671180Y41595040D01*
X71699120Y41744900D01*
X71727060Y41887140D01*
X71770240Y42108120D01*
X72580500Y42115740D01*
X72595740Y42080180D01*
X72605900Y42047160D01*
X72623680Y41965880D01*
X72646540Y41849040D01*
X72671940Y41711880D01*
X72694800Y41592500D01*
X72717660Y41475660D01*
X72732900Y41389300D01*
X72740520Y41351200D01*
X72753220Y41343580D01*
X72811640Y41313100D01*
X72903080Y41269920D01*
X73012300Y41224200D01*
X73126600Y41175940D01*
X73230740Y41135300D01*
X73312020Y41104820D01*
X73352660Y41094660D01*
X73383140Y41109900D01*
X73454260Y41155620D01*
X73553320Y41221660D01*
X73670160Y41300400D01*
X73789540Y41381680D01*
X73888600Y41450260D01*
X73962260Y41498520D01*
X73995280Y41516300D01*
X74018140Y41506140D01*
X74074020Y41460420D01*
X74165460Y41371520D01*
X74297540Y41239440D01*
X74317860Y41216580D01*
X74419460Y41112440D01*
X74500740Y41023540D01*
X74556620Y40962580D01*
X74576940Y40934640D01*
D12*
X3091571Y19232715D02*
X1591571Y19232715D01*
X2663000Y19732715D01*
X1591571Y20232715D01*
X3091571Y20232715D01*
X3091571Y21732715D02*
X3091571Y20875572D01*
X3091571Y21304144D02*
X1591571Y21304144D01*
X1805857Y21161287D01*
X1948714Y21018429D01*
X2020143Y20875572D01*
X11370571Y25892428D02*
X11370571Y26178142D01*
X11442000Y26321000D01*
X11584857Y26463857D01*
X11870571Y26535285D01*
X12370571Y26535285D01*
X12656286Y26463857D01*
X12799143Y26321000D01*
X12870571Y26178142D01*
X12870571Y25892428D01*
X12799143Y25749571D01*
X12656286Y25606714D01*
X12370571Y25535285D01*
X11870571Y25535285D01*
X11584857Y25606714D01*
X11442000Y25749571D01*
X11370571Y25892428D01*
X11370571Y27178143D02*
X12584857Y27178143D01*
X12727714Y27249571D01*
X12799143Y27321000D01*
X12870571Y27463857D01*
X12870571Y27749571D01*
X12799143Y27892429D01*
X12727714Y27963857D01*
X12584857Y28035286D01*
X11370571Y28035286D01*
X11370571Y28535286D02*
X11370571Y29392429D01*
X12870571Y28963858D02*
X11370571Y28963858D01*
X12299143Y29892429D02*
X12299143Y31035286D01*
X12870571Y30463857D02*
X11727714Y30463857D01*
X6417571Y25892428D02*
X6417571Y26178142D01*
X6489000Y26321000D01*
X6631857Y26463857D01*
X6917571Y26535285D01*
X7417571Y26535285D01*
X7703286Y26463857D01*
X7846143Y26321000D01*
X7917571Y26178142D01*
X7917571Y25892428D01*
X7846143Y25749571D01*
X7703286Y25606714D01*
X7417571Y25535285D01*
X6917571Y25535285D01*
X6631857Y25606714D01*
X6489000Y25749571D01*
X6417571Y25892428D01*
X6417571Y27178143D02*
X7631857Y27178143D01*
X7774714Y27249571D01*
X7846143Y27321000D01*
X7917571Y27463857D01*
X7917571Y27749571D01*
X7846143Y27892429D01*
X7774714Y27963857D01*
X7631857Y28035286D01*
X6417571Y28035286D01*
X6417571Y28535286D02*
X6417571Y29392429D01*
X7917571Y28963858D02*
X6417571Y28963858D01*
X7346143Y29892429D02*
X7346143Y31035286D01*
X12870571Y10350714D02*
X11370571Y10350714D01*
X12870571Y11065000D02*
X11370571Y11065000D01*
X12870571Y11922143D01*
X11370571Y11922143D01*
X12299143Y12636429D02*
X12299143Y13779286D01*
X12870571Y13207857D02*
X11727714Y13207857D01*
X7917571Y10477714D02*
X6417571Y10477714D01*
X7917571Y11192000D02*
X6417571Y11192000D01*
X7917571Y12049143D01*
X6417571Y12049143D01*
X7346143Y12763429D02*
X7346143Y13906286D01*
X495715Y33897857D02*
X448096Y33850238D01*
X305239Y33802619D01*
X210001Y33802619D01*
X67143Y33850238D01*
X-28095Y33945476D01*
X-75714Y34040714D01*
X-123333Y34231190D01*
X-123333Y34374048D01*
X-75714Y34564524D01*
X-28095Y34659762D01*
X67143Y34755000D01*
X210001Y34802619D01*
X305239Y34802619D01*
X448096Y34755000D01*
X495715Y34707381D01*
X1114762Y34802619D02*
X1305239Y34802619D01*
X1400477Y34755000D01*
X1495715Y34659762D01*
X1543334Y34469286D01*
X1543334Y34135952D01*
X1495715Y33945476D01*
X1400477Y33850238D01*
X1305239Y33802619D01*
X1114762Y33802619D01*
X1019524Y33850238D01*
X924286Y33945476D01*
X876667Y34135952D01*
X876667Y34469286D01*
X924286Y34659762D01*
X1019524Y34755000D01*
X1114762Y34802619D01*
X1971905Y33802619D02*
X1971905Y34802619D01*
X2543334Y33802619D01*
X2543334Y34802619D01*
X3543334Y33802619D02*
X2971905Y33802619D01*
X3257619Y33802619D02*
X3257619Y34802619D01*
X3162381Y34659762D01*
X3067143Y34564524D01*
X2971905Y34516905D01*
X22317143Y46982143D02*
X22364762Y46934524D01*
X22412381Y46791667D01*
X22412381Y46696429D01*
X22364762Y46553571D01*
X22269524Y46458333D01*
X22174286Y46410714D01*
X21983810Y46363095D01*
X21840952Y46363095D01*
X21650476Y46410714D01*
X21555238Y46458333D01*
X21460000Y46553571D01*
X21412381Y46696429D01*
X21412381Y46791667D01*
X21460000Y46934524D01*
X21507619Y46982143D01*
X22412381Y47934524D02*
X22412381Y47363095D01*
X22412381Y47648809D02*
X21412381Y47648809D01*
X21555238Y47553571D01*
X21650476Y47458333D01*
X21698095Y47363095D01*
X21745714Y48791667D02*
X22412381Y48791667D01*
X21364762Y48553571D02*
X22079048Y48315476D01*
X22079048Y48934524D01*
X20481429Y42464048D02*
X20481429Y43225953D01*
X20862381Y42845001D02*
X20100476Y42845001D01*
X53236905Y22617619D02*
X53236905Y23617619D01*
X53617858Y23617619D01*
X53713096Y23570000D01*
X53760715Y23522381D01*
X53808334Y23427143D01*
X53808334Y23284286D01*
X53760715Y23189048D01*
X53713096Y23141429D01*
X53617858Y23093810D01*
X53236905Y23093810D01*
X54760715Y22617619D02*
X54189286Y22617619D01*
X54475000Y22617619D02*
X54475000Y23617619D01*
X54379762Y23474762D01*
X54284524Y23379524D01*
X54189286Y23331905D01*
X75172381Y53236905D02*
X74172381Y53236905D01*
X74172381Y53617858D01*
X74220000Y53713096D01*
X74267619Y53760715D01*
X74362857Y53808334D01*
X74505714Y53808334D01*
X74600952Y53760715D01*
X74648571Y53713096D01*
X74696190Y53617858D01*
X74696190Y53236905D01*
X74267619Y54189286D02*
X74220000Y54236905D01*
X74172381Y54332143D01*
X74172381Y54570239D01*
X74220000Y54665477D01*
X74267619Y54713096D01*
X74362857Y54760715D01*
X74458095Y54760715D01*
X74600952Y54713096D01*
X75172381Y54141667D01*
X75172381Y54760715D01*
X75172381Y11961905D02*
X74172381Y11961905D01*
X74172381Y12342858D01*
X74220000Y12438096D01*
X74267619Y12485715D01*
X74362857Y12533334D01*
X74505714Y12533334D01*
X74600952Y12485715D01*
X74648571Y12438096D01*
X74696190Y12342858D01*
X74696190Y11961905D01*
X74172381Y12866667D02*
X74172381Y13485715D01*
X74553333Y13152381D01*
X74553333Y13295239D01*
X74600952Y13390477D01*
X74648571Y13438096D01*
X74743810Y13485715D01*
X74981905Y13485715D01*
X75077143Y13438096D01*
X75124762Y13390477D01*
X75172381Y13295239D01*
X75172381Y13009524D01*
X75124762Y12914286D01*
X75077143Y12866667D01*
X80541905Y51407619D02*
X80541905Y52407619D01*
X80922858Y52407619D01*
X81018096Y52360000D01*
X81065715Y52312381D01*
X81113334Y52217143D01*
X81113334Y52074286D01*
X81065715Y51979048D01*
X81018096Y51931429D01*
X80922858Y51883810D01*
X80541905Y51883810D01*
X81970477Y52074286D02*
X81970477Y51407619D01*
X81732381Y52455238D02*
X81494286Y51740952D01*
X82113334Y51740952D01*
X26693905Y51407619D02*
X26693905Y52407619D01*
X27074858Y52407619D01*
X27170096Y52360000D01*
X27217715Y52312381D01*
X27265334Y52217143D01*
X27265334Y52074286D01*
X27217715Y51979048D01*
X27170096Y51931429D01*
X27074858Y51883810D01*
X26693905Y51883810D01*
X28170096Y52407619D02*
X27693905Y52407619D01*
X27646286Y51931429D01*
X27693905Y51979048D01*
X27789143Y52026667D01*
X28027239Y52026667D01*
X28122477Y51979048D01*
X28170096Y51931429D01*
X28217715Y51836190D01*
X28217715Y51598095D01*
X28170096Y51502857D01*
X28122477Y51455238D01*
X28027239Y51407619D01*
X27789143Y51407619D01*
X27693905Y51455238D01*
X27646286Y51502857D01*
X27631667Y61647619D02*
X27631667Y60933333D01*
X27584047Y60790476D01*
X27488809Y60695238D01*
X27345952Y60647619D01*
X27250714Y60647619D01*
X28631667Y60647619D02*
X28060238Y60647619D01*
X28345952Y60647619D02*
X28345952Y61647619D01*
X28250714Y61504762D01*
X28155476Y61409524D01*
X28060238Y61361905D01*
M02*
