M48
;DRILL file {KiCad 4.0.6} date 06/24/17 11:04:03
;FORMAT={-:-/ absolute / inch / decimal}
FMAT,2
INCH,TZ
T1C0.016
T2C0.030
T3C0.039
T4C0.126
%
G90
G05
M72
T1
X0.55Y2.
X0.74Y1.995
X0.975Y1.895
X1.09Y1.895
X1.4057Y0.6535
X1.4099Y0.6208
X1.4272Y0.711
X1.4343Y0.75
X1.443Y0.7825
X1.4542Y2.1535
X1.4557Y0.5175
X1.49Y0.3909
X1.5339Y1.3447
X1.5352Y0.9007
X1.5403Y1.1825
X1.5577Y2.1545
X1.5586Y0.95
X1.5715Y1.3429
X1.5728Y1.51
X1.573Y0.9895
X1.5799Y1.1108
X1.5908Y2.0141
X1.5917Y1.9353
X1.6056Y1.2097
X1.6079Y1.1367
X1.6168Y1.9001
X1.6226Y1.5197
X1.635Y1.1596
X1.6457Y1.3623
X1.6526Y1.2441
X1.6577Y2.1545
X1.6741Y0.8296
X1.7541Y1.0077
X1.7544Y1.3377
X1.7546Y1.2169
X1.7553Y1.1777
X1.7845Y1.389
X1.7859Y1.9046
X1.8292Y1.9367
X1.8661Y2.1548
X1.8668Y1.937
X1.905Y0.885
X1.9163Y0.8295
X1.9559Y1.9371
X1.9581Y2.1541
X1.9623Y0.8328
X1.9961Y0.543
X1.9965Y0.492
X2.0155Y0.5177
X2.0183Y1.9145
X2.0189Y0.4665
X2.0436Y2.1531
X2.0817Y0.7284
X2.0818Y0.8292
X2.1264Y0.8292
X2.1542Y1.9365
X2.1635Y2.1067
X2.166Y0.829
X2.1899Y0.4628
X2.2056Y0.829
X2.2251Y1.9192
X2.25Y2.1546
X2.2528Y1.5696
X2.278Y0.836
X2.2997Y0.5238
X2.3179Y0.7096
X2.3192Y0.8291
X2.3207Y1.
X2.3266Y1.7076
X2.346Y1.9116
X2.3574Y0.4702
X2.367Y1.9364
X2.3684Y0.7159
X2.386Y1.5612
X2.4026Y0.8296
X2.4364Y1.9356
X2.4428Y0.6881
X2.4695Y1.3198
X2.4753Y2.1365
X2.4782Y0.8489
X2.4815Y0.9084
X2.4858Y0.6807
X2.4945Y1.3775
X2.495Y1.088
X2.4951Y1.2992
X2.4956Y1.1766
X2.4957Y1.2184
X2.496Y0.9931
X2.5005Y1.8532
X2.5167Y2.1328
X2.5193Y1.65
X2.5425Y0.6884
X2.5975Y1.3791
X2.5992Y1.1022
X2.5997Y0.8459
X2.6015Y0.7134
X2.6034Y1.3235
X2.6148Y0.9837
X2.6178Y1.7344
X2.6218Y0.944
X2.6273Y1.2019
X2.6342Y1.3786
X2.6346Y0.7199
X2.6356Y1.5598
X2.6356Y1.1384
X2.6377Y2.1469
X2.6657Y1.3471
X2.6704Y1.1205
X2.6731Y1.152
X2.6799Y0.9208
X2.7109Y1.2878
X2.755Y2.13
X2.7724Y0.9756
X2.795Y0.605
X2.875Y2.13
X2.88Y0.305
X2.92Y0.58
X3.095Y1.9
X3.19Y1.74
X3.29Y2.005
T2
X0.085Y1.175
X0.085Y0.445
X0.185Y1.175
X0.185Y0.445
X0.555Y1.175
X0.555Y0.445
X0.655Y1.175
X0.655Y0.445
T3
X1.1963Y0.2059
X1.1963Y0.1059
X1.2963Y0.2059
X1.2963Y0.1059
X1.3963Y0.2059
X1.3963Y0.1059
X1.4963Y0.2059
X1.4963Y0.1059
X1.5963Y0.2059
X1.5963Y0.1059
X1.6963Y0.2059
X1.6963Y0.1059
X1.7963Y0.2059
X1.7963Y0.1059
X1.8963Y0.2059
X1.8963Y0.1059
X1.9963Y0.2059
X1.9963Y0.1059
X2.0963Y0.2059
X2.0963Y0.1059
X2.1963Y0.2059
X2.1963Y0.1059
X2.2963Y0.2059
X2.2963Y0.1059
X2.3963Y0.2059
X2.3963Y0.1059
X2.4963Y0.2059
X2.4963Y0.1059
X2.5963Y0.2059
X2.5963Y0.1059
X2.6963Y0.2059
X2.6963Y0.1059
X2.7963Y0.2059
X2.7963Y0.1059
X2.8963Y0.2059
X2.8963Y0.1059
X2.9963Y0.2059
X2.9963Y0.1059
X3.0963Y0.2059
X3.0963Y0.1059
T4
X0.6113Y2.2257
X0.6113Y0.1369
X3.4745Y2.2257
X3.4745Y0.1369
T3
X0.1638Y1.6144G85X0.1638Y1.5356
G05
X0.2425Y1.39G85X0.3213Y1.39
G05
X0.4Y1.6144G85X0.4Y1.5356
G05
T0
M30
