G04 #@! TF.FileFunction,Copper,L1,Top,Signal*
%FSLAX46Y46*%
G04 Gerber Fmt 4.6, Leading zero omitted, Abs format (unit mm)*
G04 Created by KiCad (PCBNEW 4.0.6) date 06/24/17 11:35:38*
%MOMM*%
%LPD*%
G01*
G04 APERTURE LIST*
%ADD10C,0.100000*%
%ADD11R,1.524000X1.524000*%
%ADD12C,1.524000*%
%ADD13R,3.500000X3.500000*%
%ADD14R,2.500000X4.000000*%
%ADD15R,3.000000X1.000000*%
%ADD16R,1.000000X3.000000*%
%ADD17C,1.700000*%
%ADD18C,0.600000*%
%ADD19C,1.000000*%
%ADD20C,0.250000*%
%ADD21C,1.500000*%
%ADD22C,0.254000*%
G04 APERTURE END LIST*
D10*
D11*
X16637000Y11303000D03*
X14097000Y11303000D03*
D12*
X2159000Y11303000D03*
X4699000Y11303000D03*
D11*
X16637000Y29845000D03*
X14097000Y29845000D03*
D12*
X2159000Y29845000D03*
X4699000Y29845000D03*
D13*
X10160000Y40005000D03*
X4160000Y40005000D03*
X7160000Y35305000D03*
D14*
X16510000Y44575000D03*
X16510000Y50675000D03*
D15*
X56745000Y25400000D03*
X51205000Y25400000D03*
X56745000Y27940000D03*
X51205000Y27940000D03*
X56745000Y30480000D03*
X51205000Y30480000D03*
X56745000Y33020000D03*
X51205000Y33020000D03*
X56745000Y35560000D03*
X51205000Y35560000D03*
D16*
X72390000Y56745000D03*
X72390000Y51205000D03*
X69850000Y56745000D03*
X69850000Y51205000D03*
X67310000Y56745000D03*
X67310000Y51205000D03*
X64770000Y56745000D03*
X64770000Y51205000D03*
X62230000Y56745000D03*
X62230000Y51205000D03*
X59690000Y56745000D03*
X59690000Y51205000D03*
X57150000Y56745000D03*
X57150000Y51205000D03*
X54610000Y56745000D03*
X54610000Y51205000D03*
X52070000Y56745000D03*
X52070000Y51205000D03*
X49530000Y56745000D03*
X49530000Y51205000D03*
X46990000Y56745000D03*
X46990000Y51205000D03*
X44450000Y56745000D03*
X44450000Y51205000D03*
X41910000Y56745000D03*
X41910000Y51205000D03*
X39370000Y56745000D03*
X39370000Y51205000D03*
X36830000Y56745000D03*
X36830000Y51205000D03*
X72390000Y15470000D03*
X72390000Y9930000D03*
X69850000Y15470000D03*
X69850000Y9930000D03*
X67310000Y15470000D03*
X67310000Y9930000D03*
X64770000Y15470000D03*
X64770000Y9930000D03*
X62230000Y15470000D03*
X62230000Y9930000D03*
X59690000Y15470000D03*
X59690000Y9930000D03*
X57150000Y15470000D03*
X57150000Y9930000D03*
X54610000Y15470000D03*
X54610000Y9930000D03*
X52070000Y15470000D03*
X52070000Y9930000D03*
X49530000Y15470000D03*
X49530000Y9930000D03*
X46990000Y15470000D03*
X46990000Y9930000D03*
X44450000Y15470000D03*
X44450000Y9930000D03*
X41910000Y15470000D03*
X41910000Y9930000D03*
X39370000Y15470000D03*
X39370000Y9930000D03*
X36830000Y15470000D03*
X36830000Y9930000D03*
D15*
X78510000Y49530000D03*
X84050000Y49530000D03*
X78510000Y46990000D03*
X84050000Y46990000D03*
X78510000Y44450000D03*
X84050000Y44450000D03*
X78510000Y41910000D03*
X84050000Y41910000D03*
X78510000Y39370000D03*
X84050000Y39370000D03*
X78510000Y36830000D03*
X84050000Y36830000D03*
X78510000Y34290000D03*
X84050000Y34290000D03*
X78510000Y31750000D03*
X84050000Y31750000D03*
X78510000Y29210000D03*
X84050000Y29210000D03*
X78510000Y26670000D03*
X84050000Y26670000D03*
X78510000Y24130000D03*
X84050000Y24130000D03*
X78510000Y21590000D03*
X84050000Y21590000D03*
X78510000Y19050000D03*
X84050000Y19050000D03*
X78510000Y16510000D03*
X84050000Y16510000D03*
X78510000Y13970000D03*
X84050000Y13970000D03*
X24662000Y49530000D03*
X30202000Y49530000D03*
X24662000Y46990000D03*
X30202000Y46990000D03*
X24662000Y44450000D03*
X30202000Y44450000D03*
X24662000Y41910000D03*
X30202000Y41910000D03*
X24662000Y39370000D03*
X30202000Y39370000D03*
X24662000Y36830000D03*
X30202000Y36830000D03*
X24662000Y34290000D03*
X30202000Y34290000D03*
X24662000Y31750000D03*
X30202000Y31750000D03*
X24662000Y29210000D03*
X30202000Y29210000D03*
X24662000Y26670000D03*
X30202000Y26670000D03*
X24662000Y24130000D03*
X30202000Y24130000D03*
X24662000Y21590000D03*
X30202000Y21590000D03*
X24662000Y19050000D03*
X30202000Y19050000D03*
X24662000Y16510000D03*
X30202000Y16510000D03*
X24662000Y13970000D03*
X30202000Y13970000D03*
D17*
X30386000Y2690000D03*
X30385000Y5230000D03*
X32925000Y2690000D03*
X32925000Y5230000D03*
X35465000Y2690000D03*
X35465000Y5230000D03*
X38005000Y2690000D03*
X38005000Y5230000D03*
X40545000Y2690000D03*
X40545000Y5230000D03*
X43085000Y2690000D03*
X43085000Y5230000D03*
X45625000Y2690000D03*
X45625000Y5230000D03*
X48165000Y2690000D03*
X48165000Y5230000D03*
X50705000Y2690000D03*
X50705000Y5230000D03*
X53245000Y2690000D03*
X53245000Y5230000D03*
X55785000Y2690000D03*
X55785000Y5230000D03*
X58325000Y2690000D03*
X58325000Y5230000D03*
X60865000Y2690000D03*
X60865000Y5230000D03*
X63405000Y2690000D03*
X63405000Y5230000D03*
X65945000Y2690000D03*
X65945000Y5230000D03*
X68485000Y2690000D03*
X68485000Y5230000D03*
X71025000Y2690000D03*
X71025000Y5230000D03*
X73565000Y2690000D03*
X73565000Y5230000D03*
X76105000Y2690000D03*
X76105000Y5230000D03*
X78645000Y2690000D03*
X78645000Y5230000D03*
D18*
X58945300Y25400000D03*
X66032300Y21485700D03*
X83566000Y50927000D03*
X13970000Y50800000D03*
X18796000Y50673000D03*
X74168000Y14732000D03*
X70993000Y15367000D03*
X73152000Y7747000D03*
X73025000Y54102000D03*
X69977000Y54102000D03*
X78613000Y48260000D03*
X81026000Y44196000D03*
X24765000Y48133000D03*
X27686000Y48133000D03*
X60603400Y39654600D03*
X66918200Y18286100D03*
X45325200Y35280100D03*
X62725300Y33521800D03*
X70419500Y24781300D03*
X48387000Y22479000D03*
X42521800Y21072900D03*
X57221100Y39866800D03*
X66998200Y54530200D03*
X63923700Y54173700D03*
X63513400Y47072300D03*
X59095200Y43372200D03*
X62873400Y54268200D03*
X61885000Y49164500D03*
X59587900Y48553700D03*
X60121800Y49185700D03*
X57150000Y54726400D03*
X56516800Y48746500D03*
X54953600Y53511000D03*
X54715500Y49187700D03*
X51907300Y54689900D03*
X51265100Y48627900D03*
X49736300Y54713400D03*
X49678700Y49201100D03*
X47399000Y54730700D03*
X47416000Y49200300D03*
X41067600Y48263500D03*
X46461800Y49193200D03*
X42105900Y54723800D03*
X45361700Y48376000D03*
X39565900Y54723800D03*
X40406200Y51157400D03*
X36937500Y54698900D03*
X40429300Y49157700D03*
X66077600Y18120300D03*
X64579500Y17485800D03*
X62047400Y17477900D03*
X63138800Y17288800D03*
X61027300Y21071100D03*
X59877200Y11942500D03*
X60158000Y18185000D03*
X58412700Y13304900D03*
X58906600Y21060300D03*
X55622600Y11755300D03*
X57861900Y21233900D03*
X58873400Y18022600D03*
X56022300Y21056000D03*
X51280400Y11848400D03*
X55016200Y21056600D03*
X50711500Y12497300D03*
X54010100Y21061200D03*
X51193000Y13149500D03*
X52878100Y21061300D03*
X50701900Y13791500D03*
X49843500Y21152500D03*
X52876200Y18502600D03*
X48675100Y21070400D03*
X37846400Y9930000D03*
X66492300Y44054400D03*
X63991100Y41910000D03*
X66944900Y39618900D03*
X66909100Y35015600D03*
X65977100Y35028200D03*
X63359300Y34988400D03*
X67709000Y34215700D03*
X66126500Y33618100D03*
X63375600Y32998600D03*
X68857000Y32709100D03*
X66733100Y30527900D03*
X63390100Y30947100D03*
X67896900Y29261100D03*
X63388200Y29886400D03*
X66945300Y28914100D03*
X67827300Y28460700D03*
X63374000Y27635000D03*
X66019800Y27995800D03*
X68068700Y23387600D03*
X66415600Y24985000D03*
X63397700Y25224100D03*
X66594700Y23976800D03*
X62946200Y21563300D03*
X63029000Y23074300D03*
X41215000Y38599700D03*
X39947900Y38353600D03*
X44562600Y33977800D03*
X41801600Y34603100D03*
X39916300Y34108600D03*
X38959900Y34154300D03*
X41974800Y31599000D03*
X44567800Y30908900D03*
X40783300Y30726100D03*
X44583500Y29913500D03*
X39122400Y30035300D03*
X41528000Y29454200D03*
X40841400Y28872600D03*
X40128600Y28213700D03*
X39953700Y25132300D03*
X39588700Y24130000D03*
X38994500Y22878700D03*
X44553800Y25595400D03*
X36652200Y19875300D03*
X36431100Y19050000D03*
X36250500Y18059100D03*
X35704200Y16598600D03*
X36975800Y13144700D03*
X35812000Y15767100D03*
D19*
X56745000Y25400000D02*
X58945300Y25400000D01*
X60144200Y24201100D02*
X58945300Y25400000D01*
X63316900Y24201100D02*
X60144200Y24201100D01*
X66032300Y21485700D02*
X63316900Y24201100D01*
D20*
X84050000Y49530000D02*
X84050000Y50443000D01*
X84050000Y50443000D02*
X83566000Y50927000D01*
X16510000Y50675000D02*
X14095000Y50675000D01*
X14095000Y50675000D02*
X13970000Y50800000D01*
X16510000Y50675000D02*
X18794000Y50675000D01*
X18794000Y50675000D02*
X18796000Y50673000D01*
X24662000Y46990000D02*
X24662000Y48030000D01*
X24662000Y48030000D02*
X24765000Y48133000D01*
X72390000Y15470000D02*
X73430000Y15470000D01*
X73430000Y15470000D02*
X74168000Y14732000D01*
X72390000Y15470000D02*
X71096000Y15470000D01*
X70890000Y15470000D02*
X70993000Y15367000D01*
X70890000Y15470000D02*
X69850000Y15470000D01*
X71096000Y15470000D02*
X70993000Y15367000D01*
X72274650Y7989350D02*
X72909650Y7989350D01*
X72909650Y7989350D02*
X73152000Y7747000D01*
X72390000Y54102000D02*
X73025000Y54102000D01*
X69977000Y54919700D02*
X69977000Y54102000D01*
X79704500Y48335500D02*
X78688500Y48335500D01*
X78688500Y48335500D02*
X78613000Y48260000D01*
X81244450Y44795450D02*
X81244450Y44414450D01*
X81244450Y44414450D02*
X81026000Y44196000D01*
X24662000Y49530000D02*
X24662000Y48236000D01*
X24662000Y48236000D02*
X24765000Y48133000D01*
X27686000Y48133000D02*
X29083000Y49530000D01*
X29083000Y49530000D02*
X30202000Y49530000D01*
X30202000Y49530000D02*
X26487300Y49530000D01*
X25574700Y49530000D02*
X26487300Y49530000D01*
X25574700Y49530000D02*
X24662000Y49530000D01*
X72390000Y51205000D02*
X72390000Y53030300D01*
X69850000Y56745000D02*
X69850000Y54919700D01*
X72390000Y56745000D02*
X72390000Y54919700D01*
X69850000Y54919700D02*
X69977000Y54919700D01*
X69977000Y54919700D02*
X72390000Y54919700D01*
X72390000Y53030300D02*
X72390000Y54102000D01*
X72390000Y54102000D02*
X72390000Y54919700D01*
X78966400Y46990000D02*
X78510000Y46990000D01*
X24662000Y46990000D02*
X23749400Y46990000D01*
X22836700Y47902700D02*
X22836700Y49530000D01*
X23749400Y46990000D02*
X22836700Y47902700D01*
X24662000Y49530000D02*
X22836700Y49530000D01*
X72390000Y9930000D02*
X72390000Y8104700D01*
X71324100Y7038800D02*
X72274650Y7989350D01*
X72274650Y7989350D02*
X72390000Y8104700D01*
X71324100Y5230000D02*
X71324100Y7038800D01*
X78966400Y46990000D02*
X79650900Y46990000D01*
X79650900Y46990000D02*
X80335300Y46990000D01*
X79650900Y46389000D02*
X81244450Y44795450D01*
X79650900Y46990000D02*
X79650900Y46389000D01*
X80335300Y47704700D02*
X80335300Y46990000D01*
X78510000Y49530000D02*
X79704500Y48335500D01*
X79704500Y48335500D02*
X80335300Y47704700D01*
X39275000Y3960000D02*
X40545000Y2690000D01*
X36735000Y3960000D02*
X39275000Y3960000D01*
X35465000Y5230000D02*
X36735000Y3960000D01*
X41909600Y4054600D02*
X40545000Y2690000D01*
X44449600Y4054600D02*
X41909600Y4054600D01*
X45625000Y5230000D02*
X44449600Y4054600D01*
X65940200Y19264100D02*
X66918200Y18286100D01*
X63768800Y19264100D02*
X65940200Y19264100D01*
X59657200Y23375700D02*
X63768800Y19264100D01*
X56309200Y23375700D02*
X59657200Y23375700D01*
X54919700Y24765200D02*
X56309200Y23375700D01*
X54919700Y27940000D02*
X54919700Y24765200D01*
X72594100Y3960000D02*
X71324100Y5230000D01*
X77375000Y3960000D02*
X72594100Y3960000D01*
X78645000Y2690000D02*
X77375000Y3960000D01*
X62229600Y4054600D02*
X60865000Y2690000D01*
X64769600Y4054600D02*
X62229600Y4054600D01*
X65945000Y5230000D02*
X64769600Y4054600D01*
X71025000Y5230000D02*
X71324100Y5230000D01*
X67143700Y4031300D02*
X65945000Y5230000D01*
X69826300Y4031300D02*
X67143700Y4031300D01*
X71025000Y5230000D02*
X69826300Y4031300D01*
X67033900Y18286100D02*
X69850000Y15470000D01*
X66918200Y18286100D02*
X67033900Y18286100D01*
X56745000Y35560000D02*
X54919700Y35560000D01*
X58570300Y37621500D02*
X58570300Y35560000D01*
X60603400Y39654600D02*
X58570300Y37621500D01*
X56745000Y35560000D02*
X58570300Y35560000D01*
X52069600Y4054600D02*
X53245000Y5230000D01*
X46800400Y4054600D02*
X52069600Y4054600D01*
X45625000Y5230000D02*
X46800400Y4054600D01*
X59500400Y4054600D02*
X60865000Y2690000D01*
X54420400Y4054600D02*
X59500400Y4054600D01*
X53245000Y5230000D02*
X54420400Y4054600D01*
X56745000Y27940000D02*
X55832400Y27940000D01*
X55832400Y27940000D02*
X54919700Y27940000D01*
X54919700Y28852700D02*
X54919700Y30480000D01*
X55832400Y27940000D02*
X54919700Y28852700D01*
X56745000Y30480000D02*
X54919700Y30480000D01*
X45873500Y34731800D02*
X45325200Y35280100D01*
X54212100Y34731800D02*
X45873500Y34731800D01*
X54212100Y34852400D02*
X54212100Y34731800D01*
X54919700Y35560000D02*
X54212100Y34852400D01*
X54212100Y31187600D02*
X54919700Y30480000D01*
X54212100Y34731800D02*
X54212100Y31187600D01*
D21*
X69850000Y51205000D02*
X69850000Y48754700D01*
X12860300Y43125600D02*
X14309700Y44575000D01*
X12860300Y40005000D02*
X12860300Y43125600D01*
X10160000Y40005000D02*
X12860300Y40005000D01*
X16510000Y44575000D02*
X14309700Y44575000D01*
X30202000Y46990000D02*
X32652300Y46990000D01*
X67310000Y51205000D02*
X67310000Y48754700D01*
X84050000Y46990000D02*
X81599700Y46990000D01*
X81599700Y49823100D02*
X81599700Y46990000D01*
X80442400Y50980400D02*
X81599700Y49823100D01*
X75515700Y50980400D02*
X80442400Y50980400D01*
X73290000Y48754700D02*
X75515700Y50980400D01*
X69850000Y48754700D02*
X73290000Y48754700D01*
X84050000Y44450000D02*
X84050000Y46990000D01*
X30202000Y44450000D02*
X32652300Y44450000D01*
X67310000Y9930000D02*
X67310000Y8704900D01*
X69850000Y9930000D02*
X69850000Y7479700D01*
X14097000Y11303000D02*
X16637000Y11303000D01*
X68535200Y7479700D02*
X69850000Y7479700D01*
X67310000Y8704900D02*
X68535200Y7479700D01*
X16637000Y11303000D02*
X18349300Y11303000D01*
X22182600Y7469700D02*
X18349300Y11303000D01*
X66074800Y7469700D02*
X22182600Y7469700D01*
X67310000Y8704900D02*
X66074800Y7469700D01*
X19304900Y47525300D02*
X16510000Y47525300D01*
X22828900Y51049300D02*
X19304900Y47525300D01*
X32084700Y51049300D02*
X22828900Y51049300D01*
X32652300Y50481700D02*
X32084700Y51049300D01*
X32652300Y46990000D02*
X32652300Y50481700D01*
X16510000Y44575000D02*
X16510000Y47525300D01*
X32652300Y44450000D02*
X32652300Y46990000D01*
X67310000Y48754700D02*
X69850000Y48754700D01*
X63302700Y48754700D02*
X67310000Y48754700D01*
X61538000Y46990000D02*
X63302700Y48754700D01*
X32652300Y46990000D02*
X61538000Y46990000D01*
D19*
X64770000Y9930000D02*
X64770000Y12130300D01*
X14097000Y29845000D02*
X15559300Y29845000D01*
X16637000Y29845000D02*
X15559300Y29845000D01*
X84050000Y41910000D02*
X86250300Y41910000D01*
X73944300Y12130300D02*
X79580800Y6493900D01*
X64770000Y12130300D02*
X73944300Y12130300D01*
X86250300Y41910000D02*
X86705100Y41910000D01*
X86705100Y49916200D02*
X86705100Y41910000D01*
X77610800Y59010500D02*
X86705100Y49916200D01*
X66574600Y59010500D02*
X77610800Y59010500D01*
X65970300Y58406200D02*
X66574600Y59010500D01*
X65970300Y54605600D02*
X65970300Y58406200D01*
X64770000Y53405300D02*
X65970300Y54605600D01*
X86705100Y13618200D02*
X79580800Y6493900D01*
X86705100Y41910000D02*
X86705100Y13618200D01*
X64770000Y51205000D02*
X64770000Y53405300D01*
X16637000Y34336300D02*
X16637000Y29845000D01*
X23010300Y40709600D02*
X16637000Y34336300D01*
X26801300Y40709600D02*
X23010300Y40709600D01*
X28001700Y41910000D02*
X26801300Y40709600D01*
X30202000Y41910000D02*
X28001700Y41910000D01*
X30385000Y5229900D02*
X30385000Y5230000D01*
X28791000Y3635900D02*
X30385000Y5229900D01*
X28791000Y2070400D02*
X28791000Y3635900D01*
X29763200Y1098200D02*
X28791000Y2070400D01*
X79303000Y1098200D02*
X29763200Y1098200D01*
X80217900Y2013100D02*
X79303000Y1098200D01*
X80217900Y5856700D02*
X80217900Y2013100D01*
X79580800Y6493900D02*
X80217900Y5856700D01*
X30385000Y5230000D02*
X32925000Y5230000D01*
D20*
X70354000Y24781300D02*
X70419500Y24781300D01*
X68200600Y26934700D02*
X70354000Y24781300D01*
X65450800Y26934700D02*
X68200600Y26934700D01*
X62725300Y29660200D02*
X65450800Y26934700D01*
X62725300Y33521800D02*
X62725300Y29660200D01*
X51205000Y25400000D02*
X49379700Y25400000D01*
X49379700Y23506200D02*
X48387000Y22479000D01*
X49379700Y25400000D02*
X49379700Y23506200D01*
X51205000Y27940000D02*
X49379700Y27940000D01*
X49379700Y27930800D02*
X42521800Y21072900D01*
X49379700Y27940000D02*
X49379700Y27930800D01*
X53030300Y35676000D02*
X53030300Y35560000D01*
X57221100Y39866800D02*
X53030300Y35676000D01*
X51205000Y35560000D02*
X53030300Y35560000D01*
X66998200Y54607900D02*
X66998200Y54530200D01*
X67310000Y54919700D02*
X66998200Y54607900D01*
X67310000Y56745000D02*
X67310000Y54919700D01*
X64669700Y54919700D02*
X63923700Y54173700D01*
X64770000Y54919700D02*
X64669700Y54919700D01*
X64770000Y56745000D02*
X64770000Y54919700D01*
X59813300Y43372200D02*
X59095200Y43372200D01*
X63513400Y47072300D02*
X59813300Y43372200D01*
X62873400Y54276300D02*
X62873400Y54268200D01*
X62230000Y54919700D02*
X62873400Y54276300D01*
X62230000Y56745000D02*
X62230000Y54919700D01*
X62230000Y51205000D02*
X62230000Y49379700D01*
X62100200Y49379700D02*
X61885000Y49164500D01*
X62230000Y49379700D02*
X62100200Y49379700D01*
X59690000Y56745000D02*
X59690000Y54919700D01*
X58864600Y49277000D02*
X59587900Y48553700D01*
X58864600Y54094300D02*
X58864600Y49277000D01*
X59690000Y54919700D02*
X58864600Y54094300D01*
X59927800Y49379700D02*
X60121800Y49185700D01*
X59690000Y49379700D02*
X59927800Y49379700D01*
X59690000Y51205000D02*
X59690000Y49379700D01*
X57150000Y56745000D02*
X57150000Y54726400D01*
X57150000Y51205000D02*
X57150000Y49379700D01*
X57150000Y49379700D02*
X56516800Y48746500D01*
X54610000Y56745000D02*
X54610000Y54919700D01*
X54953600Y54576100D02*
X54953600Y53511000D01*
X54610000Y54919700D02*
X54953600Y54576100D01*
X54715500Y49274200D02*
X54715500Y49187700D01*
X54610000Y49379700D02*
X54715500Y49274200D01*
X54610000Y51205000D02*
X54610000Y49379700D01*
X52070000Y56745000D02*
X52070000Y54919700D01*
X51907300Y54757000D02*
X51907300Y54689900D01*
X52070000Y54919700D02*
X51907300Y54757000D01*
X52070000Y51205000D02*
X52070000Y49379700D01*
X52016900Y49379700D02*
X51265100Y48627900D01*
X52070000Y49379700D02*
X52016900Y49379700D01*
X49530000Y56745000D02*
X49530000Y54919700D01*
X49530000Y54919700D02*
X49736300Y54713400D01*
X49678700Y49231000D02*
X49678700Y49201100D01*
X49530000Y49379700D02*
X49678700Y49231000D01*
X49530000Y51205000D02*
X49530000Y49379700D01*
X47210000Y54919700D02*
X47399000Y54730700D01*
X46990000Y54919700D02*
X47210000Y54919700D01*
X46990000Y56745000D02*
X46990000Y54919700D01*
X47416000Y50779000D02*
X47416000Y49200300D01*
X46990000Y51205000D02*
X47416000Y50779000D01*
X44450000Y56745000D02*
X44450000Y54919700D01*
X41067600Y52877000D02*
X41067600Y48263500D01*
X41829200Y53638600D02*
X41067600Y52877000D01*
X43168900Y53638600D02*
X41829200Y53638600D01*
X44450000Y54919700D02*
X43168900Y53638600D01*
X44450000Y51205000D02*
X44450000Y49379700D01*
X46275300Y49379700D02*
X46461800Y49193200D01*
X44450000Y49379700D02*
X46275300Y49379700D01*
X41910000Y56745000D02*
X41910000Y54919700D01*
X41910000Y54919700D02*
X42105900Y54723800D01*
X41910000Y51205000D02*
X41910000Y49379700D01*
X42913700Y48376000D02*
X45361700Y48376000D01*
X41910000Y49379700D02*
X42913700Y48376000D01*
X39370000Y56745000D02*
X39370000Y54919700D01*
X39370000Y54919700D02*
X39565900Y54723800D01*
X40358600Y51205000D02*
X40406200Y51157400D01*
X39370000Y51205000D02*
X40358600Y51205000D01*
X36937500Y54812200D02*
X36937500Y54698900D01*
X36830000Y54919700D02*
X36937500Y54812200D01*
X36830000Y56745000D02*
X36830000Y54919700D01*
X36830000Y51205000D02*
X36830000Y49379700D01*
X40207300Y49379700D02*
X40429300Y49157700D01*
X36830000Y49379700D02*
X40207300Y49379700D01*
X67310000Y15470000D02*
X67310000Y17295300D01*
X66902600Y17295300D02*
X66077600Y18120300D01*
X67310000Y17295300D02*
X66902600Y17295300D01*
X64770000Y15470000D02*
X64770000Y17295300D01*
X64770000Y17295300D02*
X64579500Y17485800D01*
X62230000Y15470000D02*
X62230000Y17295300D01*
X62230000Y17295300D02*
X62047400Y17477900D01*
X62230000Y9930000D02*
X62230000Y11755300D01*
X63138800Y12664100D02*
X63138800Y17288800D01*
X62230000Y11755300D02*
X63138800Y12664100D01*
X59690000Y15470000D02*
X59690000Y17295300D01*
X61027300Y18149800D02*
X61027300Y21071100D01*
X60172800Y17295300D02*
X61027300Y18149800D01*
X59690000Y17295300D02*
X60172800Y17295300D01*
X59690000Y9930000D02*
X59690000Y11755300D01*
X59690000Y11755300D02*
X59877200Y11942500D01*
X57150000Y15470000D02*
X57150000Y17295300D01*
X59692800Y18650200D02*
X60158000Y18185000D01*
X58504900Y18650200D02*
X59692800Y18650200D01*
X57150000Y17295300D02*
X58504900Y18650200D01*
X58412600Y13304900D02*
X58412700Y13304900D01*
X58412600Y13017900D02*
X58412600Y13304900D01*
X57150000Y11755300D02*
X58412600Y13017900D01*
X57150000Y9930000D02*
X57150000Y11755300D01*
X54610000Y15470000D02*
X54610000Y17295300D01*
X55141600Y17295300D02*
X58906600Y21060300D01*
X54610000Y17295300D02*
X55141600Y17295300D01*
X54610000Y9930000D02*
X54610000Y11755300D01*
X54610000Y11755300D02*
X55622600Y11755300D01*
X52070000Y15470000D02*
X52070000Y17295300D01*
X53923300Y17295300D02*
X57861900Y21233900D01*
X52070000Y17295300D02*
X53923300Y17295300D01*
X58146200Y17295400D02*
X58873400Y18022600D01*
X58146200Y13935100D02*
X58146200Y17295400D01*
X57383100Y13172000D02*
X58146200Y13935100D01*
X53486700Y13172000D02*
X57383100Y13172000D01*
X52070000Y11755300D02*
X53486700Y13172000D01*
X52070000Y9930000D02*
X52070000Y11755300D01*
X49530000Y15470000D02*
X49530000Y17295300D01*
X56022300Y20743300D02*
X56022300Y21056000D01*
X53070800Y17791800D02*
X56022300Y20743300D01*
X50026500Y17791800D02*
X53070800Y17791800D01*
X49530000Y17295300D02*
X50026500Y17791800D01*
X49530000Y9930000D02*
X49530000Y11755300D01*
X51187300Y11755300D02*
X51280400Y11848400D01*
X49530000Y11755300D02*
X51187300Y11755300D01*
X46990000Y15470000D02*
X46990000Y17295300D01*
X53087500Y19127900D02*
X55016200Y21056600D01*
X50006000Y19127900D02*
X53087500Y19127900D01*
X48173400Y17295300D02*
X50006000Y19127900D01*
X46990000Y17295300D02*
X48173400Y17295300D01*
X49557300Y12497300D02*
X50711500Y12497300D01*
X46990000Y9930000D02*
X49557300Y12497300D01*
X44450000Y15470000D02*
X44450000Y17295300D01*
X52944800Y19995900D02*
X54010100Y21061200D01*
X50208400Y19995900D02*
X52944800Y19995900D01*
X48590600Y18378100D02*
X50208400Y19995900D01*
X45532800Y18378100D02*
X48590600Y18378100D01*
X44450000Y17295300D02*
X45532800Y18378100D01*
X44450000Y9930000D02*
X44450000Y11755300D01*
X49374500Y13149500D02*
X51193000Y13149500D01*
X47980300Y11755300D02*
X49374500Y13149500D01*
X44450000Y11755300D02*
X47980300Y11755300D01*
X41910000Y15470000D02*
X41910000Y17295300D01*
X52263100Y20446300D02*
X52878100Y21061300D01*
X49819300Y20446300D02*
X52263100Y20446300D01*
X48256000Y18883000D02*
X49819300Y20446300D01*
X43497700Y18883000D02*
X48256000Y18883000D01*
X41910000Y17295300D02*
X43497700Y18883000D01*
X41910000Y9930000D02*
X41910000Y11755300D01*
X50510300Y13599900D02*
X50701900Y13791500D01*
X48503600Y13599900D02*
X50510300Y13599900D01*
X47109400Y12205700D02*
X48503600Y13599900D01*
X42360400Y12205700D02*
X47109400Y12205700D01*
X41910000Y11755300D02*
X42360400Y12205700D01*
X39370000Y15470000D02*
X39370000Y17295300D01*
X41594600Y19519900D02*
X39370000Y17295300D01*
X41594600Y19520000D02*
X41594600Y19519900D01*
X48211000Y19520000D02*
X41594600Y19520000D01*
X49843500Y21152500D02*
X48211000Y19520000D01*
X39370000Y9930000D02*
X39370000Y11755300D01*
X50065400Y18502600D02*
X52876200Y18502600D01*
X48260100Y16697300D02*
X50065400Y18502600D01*
X48260100Y14227100D02*
X48260100Y16697300D01*
X47632900Y13599900D02*
X48260100Y14227100D01*
X41214600Y13599900D02*
X47632900Y13599900D01*
X39370000Y11755300D02*
X41214600Y13599900D01*
X36830000Y15470000D02*
X36830000Y17295300D01*
X39543400Y20008700D02*
X36830000Y17295300D01*
X47613400Y20008700D02*
X39543400Y20008700D01*
X48675100Y21070400D02*
X47613400Y20008700D01*
X36830000Y9930000D02*
X37846400Y9930000D01*
X78510000Y44450000D02*
X76684700Y44450000D01*
X76289100Y44054400D02*
X66492300Y44054400D01*
X76684700Y44450000D02*
X76289100Y44054400D01*
X78510000Y41910000D02*
X63991100Y41910000D01*
X76435800Y39618900D02*
X66944900Y39618900D01*
X76684700Y39370000D02*
X76435800Y39618900D01*
X78510000Y39370000D02*
X76684700Y39370000D01*
X84050000Y39370000D02*
X82224700Y39370000D01*
X67008900Y35115400D02*
X66909100Y35015600D01*
X79295400Y35115400D02*
X67008900Y35115400D01*
X82224700Y38044700D02*
X79295400Y35115400D01*
X82224700Y39370000D02*
X82224700Y38044700D01*
X67778900Y36830000D02*
X65977100Y35028200D01*
X78510000Y36830000D02*
X67778900Y36830000D01*
X84050000Y36830000D02*
X85875300Y36830000D01*
X66915500Y38544600D02*
X63359300Y34988400D01*
X80428700Y38544600D02*
X66915500Y38544600D01*
X82079500Y40195400D02*
X80428700Y38544600D01*
X85689000Y40195400D02*
X82079500Y40195400D01*
X85875300Y40009100D02*
X85689000Y40195400D01*
X85875300Y36830000D02*
X85875300Y40009100D01*
X78510000Y34290000D02*
X76684700Y34290000D01*
X67783300Y34290000D02*
X67709000Y34215700D01*
X76684700Y34290000D02*
X67783300Y34290000D01*
X66279900Y33464700D02*
X66126500Y33618100D01*
X81399400Y33464700D02*
X66279900Y33464700D01*
X82224700Y34290000D02*
X81399400Y33464700D01*
X84050000Y34290000D02*
X82224700Y34290000D01*
X78510000Y31750000D02*
X76684700Y31750000D01*
X64624200Y31750000D02*
X63375600Y32998600D01*
X76684700Y31750000D02*
X64624200Y31750000D01*
X84050000Y31750000D02*
X82224700Y31750000D01*
X81265600Y32709100D02*
X68857000Y32709100D01*
X82224700Y31750000D02*
X81265600Y32709100D01*
X78510000Y29210000D02*
X76684700Y29210000D01*
X75366800Y30527900D02*
X66733100Y30527900D01*
X76684700Y29210000D02*
X75366800Y30527900D01*
X84050000Y29210000D02*
X82224700Y29210000D01*
X63596300Y31153300D02*
X63390100Y30947100D01*
X76572000Y31153300D02*
X63596300Y31153300D01*
X77690000Y30035300D02*
X76572000Y31153300D01*
X81399400Y30035300D02*
X77690000Y30035300D01*
X82224700Y29210000D02*
X81399400Y30035300D01*
X78510000Y26670000D02*
X76684700Y26670000D01*
X68421800Y29261100D02*
X67896900Y29261100D01*
X70149900Y27533000D02*
X68421800Y29261100D01*
X75821700Y27533000D02*
X70149900Y27533000D01*
X76684700Y26670000D02*
X75821700Y27533000D01*
X84050000Y26670000D02*
X82224700Y26670000D01*
X68433400Y29886400D02*
X63388200Y29886400D01*
X69991700Y28328100D02*
X68433400Y29886400D01*
X80566600Y28328100D02*
X69991700Y28328100D01*
X82224700Y26670000D02*
X80566600Y28328100D01*
X78510000Y24130000D02*
X76684700Y24130000D01*
X66945300Y28415400D02*
X66945300Y28914100D01*
X67525400Y27835300D02*
X66945300Y28415400D01*
X68573800Y27835300D02*
X67525400Y27835300D01*
X69776700Y26632400D02*
X68573800Y27835300D01*
X74182300Y26632400D02*
X69776700Y26632400D01*
X76684700Y24130000D02*
X74182300Y26632400D01*
X84050000Y24130000D02*
X82224700Y24130000D01*
X68585300Y28460700D02*
X67827300Y28460700D01*
X69963300Y27082700D02*
X68585300Y28460700D01*
X75007600Y27082700D02*
X69963300Y27082700D01*
X77135000Y24955300D02*
X75007600Y27082700D01*
X81399400Y24955300D02*
X77135000Y24955300D01*
X82224700Y24130000D02*
X81399400Y24955300D01*
X78510000Y21590000D02*
X76684700Y21590000D01*
X65279700Y25729300D02*
X63374000Y27635000D01*
X68088400Y25729300D02*
X65279700Y25729300D01*
X71101900Y22715800D02*
X68088400Y25729300D01*
X75558900Y22715800D02*
X71101900Y22715800D01*
X76684700Y21590000D02*
X75558900Y22715800D01*
X84050000Y21590000D02*
X82224700Y21590000D01*
X66630600Y27385000D02*
X66019800Y27995800D01*
X68387200Y27385000D02*
X66630600Y27385000D01*
X69590100Y26182100D02*
X68387200Y27385000D01*
X70032000Y26182100D02*
X69590100Y26182100D01*
X72989000Y23225100D02*
X70032000Y26182100D01*
X80589600Y23225100D02*
X72989000Y23225100D01*
X82224700Y21590000D02*
X80589600Y23225100D01*
X78510000Y19050000D02*
X76684700Y19050000D01*
X69641100Y21815200D02*
X68068700Y23387600D01*
X72324000Y21815200D02*
X69641100Y21815200D01*
X75089200Y19050000D02*
X72324000Y21815200D01*
X76684700Y19050000D02*
X75089200Y19050000D01*
X84050000Y19050000D02*
X82224700Y19050000D01*
X67437300Y24985000D02*
X66415600Y24985000D01*
X70156800Y22265500D02*
X67437300Y24985000D01*
X72510600Y22265500D02*
X70156800Y22265500D01*
X74900800Y19875300D02*
X72510600Y22265500D01*
X81399400Y19875300D02*
X74900800Y19875300D01*
X82224700Y19050000D02*
X81399400Y19875300D01*
X78510000Y16510000D02*
X76684700Y16510000D01*
X63461100Y25224100D02*
X63397700Y25224100D01*
X69586000Y19099200D02*
X63461100Y25224100D01*
X73117600Y19099200D02*
X69586000Y19099200D01*
X75706800Y16510000D02*
X73117600Y19099200D01*
X76684700Y16510000D02*
X75706800Y16510000D01*
X70273600Y20297900D02*
X66594700Y23976800D01*
X73105400Y20297900D02*
X70273600Y20297900D01*
X76068000Y17335300D02*
X73105400Y20297900D01*
X81399400Y17335300D02*
X76068000Y17335300D01*
X82224700Y16510000D02*
X81399400Y17335300D01*
X84050000Y16510000D02*
X82224700Y16510000D01*
X78510000Y13970000D02*
X76684700Y13970000D01*
X64795100Y19714400D02*
X62946200Y21563300D01*
X66925400Y19714400D02*
X64795100Y19714400D01*
X69344400Y17295400D02*
X66925400Y19714400D01*
X73359300Y17295400D02*
X69344400Y17295400D01*
X76684700Y13970000D02*
X73359300Y17295400D01*
X84050000Y13970000D02*
X82224700Y13970000D01*
X65905800Y20197500D02*
X63029000Y23074300D01*
X67179600Y20197500D02*
X65905800Y20197500D01*
X68839900Y18537200D02*
X67179600Y20197500D01*
X73042700Y18537200D02*
X68839900Y18537200D01*
X76147700Y15432200D02*
X73042700Y18537200D01*
X80762500Y15432200D02*
X76147700Y15432200D01*
X82224700Y13970000D02*
X80762500Y15432200D01*
X24662000Y44450000D02*
X26487300Y44450000D01*
X36440000Y43374700D02*
X41215000Y38599700D01*
X27562600Y43374700D02*
X36440000Y43374700D01*
X26487300Y44450000D02*
X27562600Y43374700D01*
X24662000Y41910000D02*
X26487300Y41910000D01*
X35566200Y42735300D02*
X39947900Y38353600D01*
X27312600Y42735300D02*
X35566200Y42735300D01*
X26487300Y41910000D02*
X27312600Y42735300D01*
X24662000Y39370000D02*
X26487300Y39370000D01*
X41043300Y33977800D02*
X44562600Y33977800D01*
X36476400Y38544700D02*
X41043300Y33977800D01*
X27312600Y38544700D02*
X36476400Y38544700D01*
X26487300Y39370000D02*
X27312600Y38544700D01*
X30202000Y39370000D02*
X32027300Y39370000D01*
X37034700Y39370000D02*
X41801600Y34603100D01*
X32027300Y39370000D02*
X37034700Y39370000D01*
X24662000Y36830000D02*
X26487300Y36830000D01*
X39336700Y33529000D02*
X39916300Y34108600D01*
X38700900Y33529000D02*
X39336700Y33529000D01*
X36818200Y35411700D02*
X38700900Y33529000D01*
X27905600Y35411700D02*
X36818200Y35411700D01*
X26487300Y36830000D02*
X27905600Y35411700D01*
X36284200Y36830000D02*
X38959900Y34154300D01*
X30202000Y36830000D02*
X36284200Y36830000D01*
X24662000Y34290000D02*
X26487300Y34290000D01*
X40945400Y32628400D02*
X41974800Y31599000D01*
X28148900Y32628400D02*
X40945400Y32628400D01*
X26487300Y34290000D02*
X28148900Y32628400D01*
X30202000Y34290000D02*
X32027300Y34290000D01*
X42398000Y33078700D02*
X44567800Y30908900D01*
X33238600Y33078700D02*
X42398000Y33078700D01*
X32027300Y34290000D02*
X33238600Y33078700D01*
X24662000Y31750000D02*
X26487300Y31750000D01*
X27511200Y30726100D02*
X40783300Y30726100D01*
X26487300Y31750000D02*
X27511200Y30726100D01*
X42486300Y29913500D02*
X44583500Y29913500D01*
X40649800Y31750000D02*
X42486300Y29913500D01*
X30202000Y31750000D02*
X40649800Y31750000D01*
X24662000Y29210000D02*
X26487300Y29210000D01*
X27312600Y30035300D02*
X39122400Y30035300D01*
X26487300Y29210000D02*
X27312600Y30035300D01*
X30202000Y29210000D02*
X32027300Y29210000D01*
X41484300Y29497900D02*
X41528000Y29454200D01*
X39601900Y29497900D02*
X41484300Y29497900D01*
X39506000Y29402000D02*
X39601900Y29497900D01*
X32219300Y29402000D02*
X39506000Y29402000D01*
X32027300Y29210000D02*
X32219300Y29402000D01*
X24662000Y26670000D02*
X26487300Y26670000D01*
X27312600Y27495300D02*
X26487300Y26670000D01*
X32946200Y27495300D02*
X27312600Y27495300D01*
X34323500Y28872600D02*
X32946200Y27495300D01*
X40841400Y28872600D02*
X34323500Y28872600D01*
X38584900Y26670000D02*
X40128600Y28213700D01*
X30202000Y26670000D02*
X38584900Y26670000D01*
X24662000Y24130000D02*
X26487300Y24130000D01*
X27489600Y25132300D02*
X39953700Y25132300D01*
X26487300Y24130000D02*
X27489600Y25132300D01*
X30202000Y24130000D02*
X39588700Y24130000D01*
X24662000Y21590000D02*
X26487300Y21590000D01*
X27776000Y22878700D02*
X38994500Y22878700D01*
X26487300Y21590000D02*
X27776000Y22878700D01*
X40548400Y21590000D02*
X44553800Y25595400D01*
X30202000Y21590000D02*
X40548400Y21590000D01*
X24662000Y19050000D02*
X26487300Y19050000D01*
X27312600Y19875300D02*
X36652200Y19875300D01*
X26487300Y19050000D02*
X27312600Y19875300D01*
X30202000Y19050000D02*
X31914700Y19050000D01*
X31914700Y19050000D02*
X36431100Y19050000D01*
X24662000Y16510000D02*
X26487300Y16510000D01*
X28036400Y18059100D02*
X36250500Y18059100D01*
X26487300Y16510000D02*
X28036400Y18059100D01*
X32115900Y16598600D02*
X35704200Y16598600D01*
X32027300Y16510000D02*
X32115900Y16598600D01*
X30202000Y16510000D02*
X32027300Y16510000D01*
X24662000Y13970000D02*
X26487300Y13970000D01*
X27312600Y13144700D02*
X36975800Y13144700D01*
X26487300Y13970000D02*
X27312600Y13144700D01*
X30202000Y13970000D02*
X32027300Y13970000D01*
X33824400Y15767100D02*
X35812000Y15767100D01*
X32027300Y13970000D02*
X33824400Y15767100D01*
D22*
G36*
X65167734Y59208766D02*
X64956371Y58892440D01*
X64270000Y58892440D01*
X64034683Y58848162D01*
X63818559Y58709090D01*
X63673569Y58496890D01*
X63622560Y58245000D01*
X63622560Y55245000D01*
X63654694Y55074221D01*
X63467241Y54996767D01*
X63403727Y55060392D01*
X63344995Y55084780D01*
X63377440Y55245000D01*
X63377440Y58245000D01*
X63333162Y58480317D01*
X63194090Y58696441D01*
X62981890Y58841431D01*
X62730000Y58892440D01*
X61730000Y58892440D01*
X61494683Y58848162D01*
X61278559Y58709090D01*
X61133569Y58496890D01*
X61082560Y58245000D01*
X61082560Y55245000D01*
X61126838Y55009683D01*
X61265910Y54793559D01*
X61478110Y54648569D01*
X61525855Y54638900D01*
X61527852Y54628861D01*
X61692599Y54382299D01*
X61938285Y54136613D01*
X61938238Y54083033D01*
X62080283Y53739257D01*
X62343073Y53476008D01*
X62640656Y53352440D01*
X61730000Y53352440D01*
X61494683Y53308162D01*
X61278559Y53169090D01*
X61133569Y52956890D01*
X61082560Y52705000D01*
X61082560Y49705000D01*
X61087073Y49681016D01*
X61007747Y49489978D01*
X60914917Y49714643D01*
X60837440Y49792255D01*
X60837440Y52705000D01*
X60793162Y52940317D01*
X60654090Y53156441D01*
X60441890Y53301431D01*
X60190000Y53352440D01*
X59624600Y53352440D01*
X59624600Y53779498D01*
X60227401Y54382299D01*
X60392148Y54628861D01*
X60393540Y54635859D01*
X60425317Y54641838D01*
X60641441Y54780910D01*
X60786431Y54993110D01*
X60837440Y55245000D01*
X60837440Y58245000D01*
X60793162Y58480317D01*
X60654090Y58696441D01*
X60441890Y58841431D01*
X60190000Y58892440D01*
X59190000Y58892440D01*
X58954683Y58848162D01*
X58738559Y58709090D01*
X58593569Y58496890D01*
X58542560Y58245000D01*
X58542560Y55245000D01*
X58586838Y55009683D01*
X58633174Y54937676D01*
X58327199Y54631701D01*
X58162452Y54385139D01*
X58104600Y54094300D01*
X58104600Y53162925D01*
X57901890Y53301431D01*
X57650000Y53352440D01*
X56650000Y53352440D01*
X56414683Y53308162D01*
X56198559Y53169090D01*
X56053569Y52956890D01*
X56002560Y52705000D01*
X56002560Y49705000D01*
X56030373Y49557184D01*
X55987857Y49539617D01*
X55724608Y49276827D01*
X55650423Y49098170D01*
X55650661Y49371488D01*
X55706431Y49453110D01*
X55757440Y49705000D01*
X55757440Y52705000D01*
X55713162Y52940317D01*
X55710113Y52945056D01*
X55745792Y52980673D01*
X55888438Y53324201D01*
X55888762Y53696167D01*
X55746717Y54039943D01*
X55713600Y54073118D01*
X55713600Y54576100D01*
X55655748Y54866939D01*
X55638183Y54893226D01*
X55706431Y54993110D01*
X55757440Y55245000D01*
X55757440Y58245000D01*
X56002560Y58245000D01*
X56002560Y55245000D01*
X56046838Y55009683D01*
X56185910Y54793559D01*
X56215040Y54773655D01*
X56214838Y54541233D01*
X56356883Y54197457D01*
X56619673Y53934208D01*
X56963201Y53791562D01*
X57335167Y53791238D01*
X57678943Y53933283D01*
X57942192Y54196073D01*
X58084838Y54539601D01*
X58085039Y54770356D01*
X58101441Y54780910D01*
X58246431Y54993110D01*
X58297440Y55245000D01*
X58297440Y58245000D01*
X58253162Y58480317D01*
X58114090Y58696441D01*
X57901890Y58841431D01*
X57650000Y58892440D01*
X56650000Y58892440D01*
X56414683Y58848162D01*
X56198559Y58709090D01*
X56053569Y58496890D01*
X56002560Y58245000D01*
X55757440Y58245000D01*
X55713162Y58480317D01*
X55574090Y58696441D01*
X55361890Y58841431D01*
X55110000Y58892440D01*
X54110000Y58892440D01*
X53874683Y58848162D01*
X53658559Y58709090D01*
X53513569Y58496890D01*
X53462560Y58245000D01*
X53462560Y55245000D01*
X53506838Y55009683D01*
X53645910Y54793559D01*
X53858110Y54648569D01*
X53905855Y54638900D01*
X53907852Y54628861D01*
X54072599Y54382299D01*
X54193600Y54261298D01*
X54193600Y54073463D01*
X54161408Y54041327D01*
X54018762Y53697799D01*
X54018446Y53335213D01*
X53874683Y53308162D01*
X53658559Y53169090D01*
X53513569Y52956890D01*
X53462560Y52705000D01*
X53462560Y49705000D01*
X53506838Y49469683D01*
X53645910Y49253559D01*
X53780477Y49161614D01*
X53780338Y49002533D01*
X53922383Y48658757D01*
X54185173Y48395508D01*
X54528701Y48252862D01*
X54900667Y48252538D01*
X55244443Y48394583D01*
X55507692Y48657373D01*
X55581877Y48836030D01*
X55581638Y48561333D01*
X55723683Y48217557D01*
X55986473Y47954308D01*
X56330001Y47811662D01*
X56701967Y47811338D01*
X57045743Y47953383D01*
X57308992Y48216173D01*
X57451638Y48559701D01*
X57451679Y48606577D01*
X57687401Y48842299D01*
X57852148Y49088861D01*
X57853540Y49095859D01*
X57885317Y49101838D01*
X58101441Y49240910D01*
X58109448Y49252628D01*
X58162452Y48986161D01*
X58327199Y48739599D01*
X58652778Y48414020D01*
X58652738Y48368533D01*
X58794783Y48024757D01*
X59057573Y47761508D01*
X59401101Y47618862D01*
X59773067Y47618538D01*
X60116843Y47760583D01*
X60380092Y48023373D01*
X60509100Y48334057D01*
X60650743Y48392583D01*
X60913992Y48655373D01*
X60999053Y48860222D01*
X61091883Y48635557D01*
X61354673Y48372308D01*
X61698201Y48229662D01*
X62070167Y48229338D01*
X62413943Y48371383D01*
X62677192Y48634173D01*
X62762160Y48838797D01*
X62767401Y48842299D01*
X62932148Y49088861D01*
X62933540Y49095859D01*
X62965317Y49101838D01*
X63181441Y49240910D01*
X63326431Y49453110D01*
X63377440Y49705000D01*
X63377440Y52705000D01*
X63333162Y52940317D01*
X63194090Y53156441D01*
X62981890Y53301431D01*
X62824804Y53333242D01*
X63058567Y53333038D01*
X63329859Y53445133D01*
X63393373Y53381508D01*
X63635000Y53281175D01*
X63635000Y52766431D01*
X63622560Y52705000D01*
X63622560Y49705000D01*
X63666838Y49469683D01*
X63805910Y49253559D01*
X64018110Y49108569D01*
X64270000Y49057560D01*
X65270000Y49057560D01*
X65505317Y49101838D01*
X65721441Y49240910D01*
X65866431Y49453110D01*
X65917440Y49705000D01*
X65917440Y50919250D01*
X66175000Y50919250D01*
X66175000Y49578691D01*
X66271673Y49345302D01*
X66450301Y49166673D01*
X66683690Y49070000D01*
X67024250Y49070000D01*
X67183000Y49228750D01*
X67183000Y51078000D01*
X67437000Y51078000D01*
X67437000Y49228750D01*
X67595750Y49070000D01*
X67936310Y49070000D01*
X68169699Y49166673D01*
X68348327Y49345302D01*
X68445000Y49578691D01*
X68445000Y50919250D01*
X68715000Y50919250D01*
X68715000Y49578691D01*
X68811673Y49345302D01*
X68990301Y49166673D01*
X69223690Y49070000D01*
X69564250Y49070000D01*
X69723000Y49228750D01*
X69723000Y51078000D01*
X69977000Y51078000D01*
X69977000Y49228750D01*
X70135750Y49070000D01*
X70476310Y49070000D01*
X70709699Y49166673D01*
X70888327Y49345302D01*
X70985000Y49578691D01*
X70985000Y50919250D01*
X70826250Y51078000D01*
X69977000Y51078000D01*
X69723000Y51078000D01*
X68873750Y51078000D01*
X68715000Y50919250D01*
X68445000Y50919250D01*
X68286250Y51078000D01*
X67437000Y51078000D01*
X67183000Y51078000D01*
X66333750Y51078000D01*
X66175000Y50919250D01*
X65917440Y50919250D01*
X65917440Y52705000D01*
X65905000Y52771113D01*
X65905000Y52831309D01*
X66175000Y52831309D01*
X66175000Y51490750D01*
X66333750Y51332000D01*
X67183000Y51332000D01*
X67183000Y53181250D01*
X67437000Y53181250D01*
X67437000Y51332000D01*
X68286250Y51332000D01*
X68445000Y51490750D01*
X68445000Y52831309D01*
X68348327Y53064698D01*
X68169699Y53243327D01*
X67936310Y53340000D01*
X67595750Y53340000D01*
X67437000Y53181250D01*
X67183000Y53181250D01*
X67024250Y53340000D01*
X66683690Y53340000D01*
X66450301Y53243327D01*
X66271673Y53064698D01*
X66175000Y52831309D01*
X65905000Y52831309D01*
X65905000Y52935168D01*
X66637433Y53667600D01*
X66811401Y53595362D01*
X67183367Y53595038D01*
X67527143Y53737083D01*
X67790392Y53999873D01*
X67933038Y54343401D01*
X67933184Y54510682D01*
X68012148Y54628861D01*
X68013540Y54635859D01*
X68045317Y54641838D01*
X68261441Y54780910D01*
X68406431Y54993110D01*
X68457440Y55245000D01*
X68457440Y57875500D01*
X68702560Y57875500D01*
X68702560Y55245000D01*
X68746838Y55009683D01*
X68885910Y54793559D01*
X69098110Y54648569D01*
X69145855Y54638900D01*
X69147852Y54628861D01*
X69169756Y54596079D01*
X69042162Y54288799D01*
X69041838Y53916833D01*
X69183883Y53573057D01*
X69416534Y53340000D01*
X69223690Y53340000D01*
X68990301Y53243327D01*
X68811673Y53064698D01*
X68715000Y52831309D01*
X68715000Y51490750D01*
X68873750Y51332000D01*
X69723000Y51332000D01*
X69723000Y51352000D01*
X69977000Y51352000D01*
X69977000Y51332000D01*
X70826250Y51332000D01*
X70985000Y51490750D01*
X70985000Y52831309D01*
X70888327Y53064698D01*
X70709699Y53243327D01*
X70519283Y53322200D01*
X70769192Y53571673D01*
X70911838Y53915201D01*
X70912051Y54159700D01*
X71630000Y54159700D01*
X71630000Y53292279D01*
X71438559Y53169090D01*
X71293569Y52956890D01*
X71242560Y52705000D01*
X71242560Y49705000D01*
X71286838Y49469683D01*
X71425910Y49253559D01*
X71638110Y49108569D01*
X71890000Y49057560D01*
X72890000Y49057560D01*
X73125317Y49101838D01*
X73341441Y49240910D01*
X73486431Y49453110D01*
X73537440Y49705000D01*
X73537440Y52705000D01*
X73493162Y52940317D01*
X73354090Y53156441D01*
X73290372Y53199978D01*
X73553943Y53308883D01*
X73817192Y53571673D01*
X73959838Y53915201D01*
X73960162Y54287167D01*
X73818117Y54630943D01*
X73555327Y54894192D01*
X73449008Y54938340D01*
X73486431Y54993110D01*
X73537440Y55245000D01*
X73537440Y57875500D01*
X77140668Y57875500D01*
X83220326Y51795842D01*
X83037057Y51720117D01*
X82773808Y51457327D01*
X82631162Y51113799D01*
X82630838Y50741833D01*
X82657445Y50677440D01*
X82550000Y50677440D01*
X82314683Y50633162D01*
X82098559Y50494090D01*
X81953569Y50281890D01*
X81902560Y50030000D01*
X81902560Y49030000D01*
X81946838Y48794683D01*
X82085910Y48578559D01*
X82298110Y48433569D01*
X82550000Y48382560D01*
X85550000Y48382560D01*
X85570100Y48386342D01*
X85570100Y48125000D01*
X84335750Y48125000D01*
X84177000Y47966250D01*
X84177000Y47117000D01*
X84197000Y47117000D01*
X84197000Y46863000D01*
X84177000Y46863000D01*
X84177000Y46013750D01*
X84335750Y45855000D01*
X85570100Y45855000D01*
X85570100Y45585000D01*
X84335750Y45585000D01*
X84177000Y45426250D01*
X84177000Y44577000D01*
X84197000Y44577000D01*
X84197000Y44323000D01*
X84177000Y44323000D01*
X84177000Y43473750D01*
X84335750Y43315000D01*
X85570100Y43315000D01*
X85570100Y43053370D01*
X85550000Y43057440D01*
X82550000Y43057440D01*
X82314683Y43013162D01*
X82098559Y42874090D01*
X81953569Y42661890D01*
X81902560Y42410000D01*
X81902560Y41410000D01*
X81946838Y41174683D01*
X82085910Y40958559D01*
X82090533Y40955400D01*
X82079500Y40955400D01*
X81788661Y40897548D01*
X81542099Y40732801D01*
X80657440Y39848142D01*
X80657440Y39870000D01*
X80613162Y40105317D01*
X80474090Y40321441D01*
X80261890Y40466431D01*
X80010000Y40517440D01*
X77010000Y40517440D01*
X76774683Y40473162D01*
X76582766Y40349666D01*
X76435800Y40378900D01*
X67507363Y40378900D01*
X67475227Y40411092D01*
X67131699Y40553738D01*
X66759733Y40554062D01*
X66415957Y40412017D01*
X66152708Y40149227D01*
X66010062Y39805699D01*
X66009738Y39433733D01*
X66151783Y39089957D01*
X66268817Y38972719D01*
X63219620Y35923522D01*
X63174133Y35923562D01*
X62830357Y35781517D01*
X62567108Y35518727D01*
X62424462Y35175199D01*
X62424138Y34803233D01*
X62566183Y34459457D01*
X62568698Y34456937D01*
X62540133Y34456962D01*
X62196357Y34314917D01*
X61933108Y34052127D01*
X61790462Y33708599D01*
X61790138Y33336633D01*
X61932183Y32992857D01*
X61965300Y32959682D01*
X61965300Y29660200D01*
X62023152Y29369361D01*
X62187899Y29122799D01*
X62871610Y28439088D01*
X62845057Y28428117D01*
X62581808Y28165327D01*
X62439162Y27821799D01*
X62438838Y27449833D01*
X62580883Y27106057D01*
X62843673Y26842808D01*
X63187201Y26700162D01*
X63234077Y26700121D01*
X63910719Y26023479D01*
X63584499Y26158938D01*
X63212533Y26159262D01*
X62868757Y26017217D01*
X62605508Y25754427D01*
X62462862Y25410899D01*
X62462797Y25336100D01*
X60614332Y25336100D01*
X59747866Y26202566D01*
X59651881Y26266701D01*
X59379646Y26448603D01*
X58945300Y26535000D01*
X58306431Y26535000D01*
X58245000Y26547440D01*
X55679700Y26547440D01*
X55679700Y26792560D01*
X58245000Y26792560D01*
X58480317Y26836838D01*
X58696441Y26975910D01*
X58841431Y27188110D01*
X58892440Y27440000D01*
X58892440Y28440000D01*
X58848162Y28675317D01*
X58709090Y28891441D01*
X58496890Y29036431D01*
X58245000Y29087440D01*
X55759762Y29087440D01*
X55679700Y29167502D01*
X55679700Y29332560D01*
X58245000Y29332560D01*
X58480317Y29376838D01*
X58696441Y29515910D01*
X58841431Y29728110D01*
X58892440Y29980000D01*
X58892440Y30980000D01*
X58848162Y31215317D01*
X58709090Y31431441D01*
X58496890Y31576431D01*
X58245000Y31627440D01*
X55245000Y31627440D01*
X55009683Y31583162D01*
X54972100Y31558978D01*
X54972100Y31937925D01*
X54993110Y31923569D01*
X55245000Y31872560D01*
X58245000Y31872560D01*
X58480317Y31916838D01*
X58696441Y32055910D01*
X58841431Y32268110D01*
X58892440Y32520000D01*
X58892440Y33520000D01*
X58848162Y33755317D01*
X58709090Y33971441D01*
X58496890Y34116431D01*
X58245000Y34167440D01*
X55245000Y34167440D01*
X55009683Y34123162D01*
X54972100Y34098978D01*
X54972100Y34477925D01*
X54993110Y34463569D01*
X55245000Y34412560D01*
X58245000Y34412560D01*
X58480317Y34456838D01*
X58696441Y34595910D01*
X58841431Y34808110D01*
X58851100Y34855855D01*
X58861139Y34857852D01*
X59107701Y35022599D01*
X59272448Y35269161D01*
X59330300Y35560000D01*
X59330300Y37306698D01*
X60743080Y38719478D01*
X60788567Y38719438D01*
X61132343Y38861483D01*
X61395592Y39124273D01*
X61538238Y39467801D01*
X61538562Y39839767D01*
X61396517Y40183543D01*
X61133727Y40446792D01*
X60790199Y40589438D01*
X60418233Y40589762D01*
X60074457Y40447717D01*
X59811208Y40184927D01*
X59668562Y39841399D01*
X59668521Y39794523D01*
X58032899Y38158901D01*
X57868152Y37912339D01*
X57810300Y37621500D01*
X57810300Y36707440D01*
X55245000Y36707440D01*
X55111404Y36682302D01*
X57360780Y38931678D01*
X57406267Y38931638D01*
X57750043Y39073683D01*
X58013292Y39336473D01*
X58155938Y39680001D01*
X58156262Y40051967D01*
X58014217Y40395743D01*
X57751427Y40658992D01*
X57407899Y40801638D01*
X57035933Y40801962D01*
X56692157Y40659917D01*
X56428908Y40397127D01*
X56286262Y40053599D01*
X56286221Y40006723D01*
X52939459Y36659961D01*
X52705000Y36707440D01*
X49705000Y36707440D01*
X49469683Y36663162D01*
X49253559Y36524090D01*
X49108569Y36311890D01*
X49057560Y36060000D01*
X49057560Y35491800D01*
X46249399Y35491800D01*
X46118317Y35809043D01*
X45855527Y36072292D01*
X45511999Y36214938D01*
X45140033Y36215262D01*
X44796257Y36073217D01*
X44533008Y35810427D01*
X44390362Y35466899D01*
X44390038Y35094933D01*
X44465258Y34912885D01*
X44377433Y34912962D01*
X44033657Y34770917D01*
X44000482Y34737800D01*
X42736718Y34737800D01*
X42736762Y34788267D01*
X42594717Y35132043D01*
X42331927Y35395292D01*
X41988399Y35537938D01*
X41941523Y35537979D01*
X40061001Y37418501D01*
X40133067Y37418438D01*
X40476843Y37560483D01*
X40712659Y37795887D01*
X41028201Y37664862D01*
X41400167Y37664538D01*
X41743943Y37806583D01*
X42007192Y38069373D01*
X42149838Y38412901D01*
X42150162Y38784867D01*
X42008117Y39128643D01*
X41745327Y39391892D01*
X41401799Y39534538D01*
X41354923Y39534579D01*
X39164669Y41724833D01*
X63055938Y41724833D01*
X63197983Y41381057D01*
X63460773Y41117808D01*
X63804301Y40975162D01*
X64176267Y40974838D01*
X64520043Y41116883D01*
X64553218Y41150000D01*
X76422721Y41150000D01*
X76545910Y40958559D01*
X76758110Y40813569D01*
X77010000Y40762560D01*
X80010000Y40762560D01*
X80245317Y40806838D01*
X80461441Y40945910D01*
X80606431Y41158110D01*
X80657440Y41410000D01*
X80657440Y42410000D01*
X80613162Y42645317D01*
X80474090Y42861441D01*
X80261890Y43006431D01*
X80010000Y43057440D01*
X77010000Y43057440D01*
X76774683Y43013162D01*
X76558559Y42874090D01*
X76419110Y42670000D01*
X64553563Y42670000D01*
X64521427Y42702192D01*
X64177899Y42844838D01*
X63805933Y42845162D01*
X63462157Y42703117D01*
X63198908Y42440327D01*
X63056262Y42096799D01*
X63055938Y41724833D01*
X39164669Y41724833D01*
X37702469Y43187033D01*
X58160038Y43187033D01*
X58302083Y42843257D01*
X58564873Y42580008D01*
X58908401Y42437362D01*
X59280367Y42437038D01*
X59624143Y42579083D01*
X59657318Y42612200D01*
X59813300Y42612200D01*
X60104139Y42670052D01*
X60350701Y42834799D01*
X61385135Y43869233D01*
X65557138Y43869233D01*
X65699183Y43525457D01*
X65961973Y43262208D01*
X66305501Y43119562D01*
X66677467Y43119238D01*
X67021243Y43261283D01*
X67054418Y43294400D01*
X76289100Y43294400D01*
X76579939Y43352252D01*
X76670994Y43413093D01*
X76758110Y43353569D01*
X77010000Y43302560D01*
X80010000Y43302560D01*
X80245317Y43346838D01*
X80432381Y43467210D01*
X80495673Y43403808D01*
X80839201Y43261162D01*
X81211167Y43260838D01*
X81554943Y43402883D01*
X81818192Y43665673D01*
X81915000Y43898811D01*
X81915000Y43823690D01*
X82011673Y43590301D01*
X82190302Y43411673D01*
X82423691Y43315000D01*
X83764250Y43315000D01*
X83923000Y43473750D01*
X83923000Y44323000D01*
X83903000Y44323000D01*
X83903000Y44577000D01*
X83923000Y44577000D01*
X83923000Y45426250D01*
X83764250Y45585000D01*
X82423691Y45585000D01*
X82190302Y45488327D01*
X82011673Y45309699D01*
X81929644Y45111663D01*
X81781851Y45332851D01*
X80746457Y46368245D01*
X80872701Y46452599D01*
X81037448Y46699161D01*
X81038460Y46704250D01*
X81915000Y46704250D01*
X81915000Y46363690D01*
X82011673Y46130301D01*
X82190302Y45951673D01*
X82423691Y45855000D01*
X83764250Y45855000D01*
X83923000Y46013750D01*
X83923000Y46863000D01*
X82073750Y46863000D01*
X81915000Y46704250D01*
X81038460Y46704250D01*
X81095300Y46990000D01*
X81095300Y47616310D01*
X81915000Y47616310D01*
X81915000Y47275750D01*
X82073750Y47117000D01*
X83923000Y47117000D01*
X83923000Y47966250D01*
X83764250Y48125000D01*
X82423691Y48125000D01*
X82190302Y48028327D01*
X82011673Y47849699D01*
X81915000Y47616310D01*
X81095300Y47616310D01*
X81095300Y47704700D01*
X81037448Y47995539D01*
X80872701Y48242101D01*
X80496939Y48617863D01*
X80606431Y48778110D01*
X80657440Y49030000D01*
X80657440Y50030000D01*
X80613162Y50265317D01*
X80474090Y50481441D01*
X80261890Y50626431D01*
X80010000Y50677440D01*
X77010000Y50677440D01*
X76774683Y50633162D01*
X76558559Y50494090D01*
X76413569Y50281890D01*
X76362560Y50030000D01*
X76362560Y49030000D01*
X76406838Y48794683D01*
X76545910Y48578559D01*
X76758110Y48433569D01*
X77010000Y48382560D01*
X77678106Y48382560D01*
X77677893Y48137440D01*
X77010000Y48137440D01*
X76774683Y48093162D01*
X76558559Y47954090D01*
X76413569Y47741890D01*
X76362560Y47490000D01*
X76362560Y46490000D01*
X76406838Y46254683D01*
X76545910Y46038559D01*
X76758110Y45893569D01*
X77010000Y45842560D01*
X79122538Y45842560D01*
X79367658Y45597440D01*
X77010000Y45597440D01*
X76774683Y45553162D01*
X76558559Y45414090D01*
X76413569Y45201890D01*
X76403900Y45154145D01*
X76393861Y45152148D01*
X76147299Y44987401D01*
X75974298Y44814400D01*
X67054763Y44814400D01*
X67022627Y44846592D01*
X66679099Y44989238D01*
X66307133Y44989562D01*
X65963357Y44847517D01*
X65700108Y44584727D01*
X65557462Y44241199D01*
X65557138Y43869233D01*
X61385135Y43869233D01*
X63653080Y46137178D01*
X63698567Y46137138D01*
X64042343Y46279183D01*
X64305592Y46541973D01*
X64448238Y46885501D01*
X64448562Y47257467D01*
X64306517Y47601243D01*
X64043727Y47864492D01*
X63700199Y48007138D01*
X63328233Y48007462D01*
X62984457Y47865417D01*
X62721208Y47602627D01*
X62578562Y47259099D01*
X62578521Y47212223D01*
X59558516Y44192218D01*
X59281999Y44307038D01*
X58910033Y44307362D01*
X58566257Y44165317D01*
X58303008Y43902527D01*
X58160362Y43558999D01*
X58160038Y43187033D01*
X37702469Y43187033D01*
X36977401Y43912101D01*
X36730839Y44076848D01*
X36440000Y44134700D01*
X32337000Y44134700D01*
X32337000Y44164250D01*
X32178250Y44323000D01*
X30329000Y44323000D01*
X30329000Y44303000D01*
X30075000Y44303000D01*
X30075000Y44323000D01*
X28225750Y44323000D01*
X28067000Y44164250D01*
X28067000Y44134700D01*
X27877402Y44134700D01*
X27024701Y44987401D01*
X26891639Y45076310D01*
X28067000Y45076310D01*
X28067000Y44735750D01*
X28225750Y44577000D01*
X30075000Y44577000D01*
X30075000Y45426250D01*
X30329000Y45426250D01*
X30329000Y44577000D01*
X32178250Y44577000D01*
X32337000Y44735750D01*
X32337000Y45076310D01*
X32240327Y45309699D01*
X32061698Y45488327D01*
X31828309Y45585000D01*
X30487750Y45585000D01*
X30329000Y45426250D01*
X30075000Y45426250D01*
X29916250Y45585000D01*
X28575691Y45585000D01*
X28342302Y45488327D01*
X28163673Y45309699D01*
X28067000Y45076310D01*
X26891639Y45076310D01*
X26778139Y45152148D01*
X26771141Y45153540D01*
X26765162Y45185317D01*
X26626090Y45401441D01*
X26413890Y45546431D01*
X26162000Y45597440D01*
X23162000Y45597440D01*
X22926683Y45553162D01*
X22710559Y45414090D01*
X22565569Y45201890D01*
X22514560Y44950000D01*
X22514560Y43950000D01*
X22558838Y43714683D01*
X22697910Y43498559D01*
X22910110Y43353569D01*
X23162000Y43302560D01*
X26162000Y43302560D01*
X26397317Y43346838D01*
X26469324Y43393174D01*
X26682498Y43180000D01*
X26470351Y42967853D01*
X26413890Y43006431D01*
X26162000Y43057440D01*
X23162000Y43057440D01*
X22926683Y43013162D01*
X22710559Y42874090D01*
X22565569Y42661890D01*
X22514560Y42410000D01*
X22514560Y41717181D01*
X22207734Y41512166D01*
X15834434Y35138866D01*
X15588397Y34770646D01*
X15502000Y34336300D01*
X15502000Y31121565D01*
X15423559Y31071090D01*
X15367626Y30989230D01*
X15323090Y31058441D01*
X15110890Y31203431D01*
X14859000Y31254440D01*
X13335000Y31254440D01*
X13099683Y31210162D01*
X12883559Y31071090D01*
X12738569Y30858890D01*
X12687560Y30607000D01*
X12687560Y29083000D01*
X12731838Y28847683D01*
X12870910Y28631559D01*
X13083110Y28486569D01*
X13335000Y28435560D01*
X14859000Y28435560D01*
X15094317Y28479838D01*
X15310441Y28618910D01*
X15366374Y28700770D01*
X15410910Y28631559D01*
X15623110Y28486569D01*
X15875000Y28435560D01*
X17399000Y28435560D01*
X17634317Y28479838D01*
X17850441Y28618910D01*
X17995431Y28831110D01*
X18046440Y29083000D01*
X18046440Y30607000D01*
X18002162Y30842317D01*
X17863090Y31058441D01*
X17772000Y31120680D01*
X17772000Y33866168D01*
X22555936Y38650104D01*
X22558838Y38634683D01*
X22697910Y38418559D01*
X22910110Y38273569D01*
X23162000Y38222560D01*
X26162000Y38222560D01*
X26397317Y38266838D01*
X26469324Y38313174D01*
X26775199Y38007299D01*
X27021760Y37842552D01*
X27070014Y37832954D01*
X27312600Y37784700D01*
X28244143Y37784700D01*
X28105569Y37581890D01*
X28054560Y37330000D01*
X28054560Y36337542D01*
X27024701Y37367401D01*
X26778139Y37532148D01*
X26771141Y37533540D01*
X26765162Y37565317D01*
X26626090Y37781441D01*
X26413890Y37926431D01*
X26162000Y37977440D01*
X23162000Y37977440D01*
X22926683Y37933162D01*
X22710559Y37794090D01*
X22565569Y37581890D01*
X22514560Y37330000D01*
X22514560Y36330000D01*
X22558838Y36094683D01*
X22697910Y35878559D01*
X22910110Y35733569D01*
X23162000Y35682560D01*
X26162000Y35682560D01*
X26397317Y35726838D01*
X26469324Y35773174D01*
X27368199Y34874299D01*
X27614761Y34709552D01*
X27905600Y34651700D01*
X28054560Y34651700D01*
X28054560Y33797542D01*
X27024701Y34827401D01*
X26778139Y34992148D01*
X26771141Y34993540D01*
X26765162Y35025317D01*
X26626090Y35241441D01*
X26413890Y35386431D01*
X26162000Y35437440D01*
X23162000Y35437440D01*
X22926683Y35393162D01*
X22710559Y35254090D01*
X22565569Y35041890D01*
X22514560Y34790000D01*
X22514560Y33790000D01*
X22558838Y33554683D01*
X22697910Y33338559D01*
X22910110Y33193569D01*
X23162000Y33142560D01*
X26162000Y33142560D01*
X26397317Y33186838D01*
X26469324Y33233174D01*
X27611499Y32090999D01*
X27858060Y31926252D01*
X28054560Y31887165D01*
X28054560Y31486100D01*
X27826002Y31486100D01*
X27024701Y32287401D01*
X26778139Y32452148D01*
X26771141Y32453540D01*
X26765162Y32485317D01*
X26626090Y32701441D01*
X26413890Y32846431D01*
X26162000Y32897440D01*
X23162000Y32897440D01*
X22926683Y32853162D01*
X22710559Y32714090D01*
X22565569Y32501890D01*
X22514560Y32250000D01*
X22514560Y31250000D01*
X22558838Y31014683D01*
X22697910Y30798559D01*
X22910110Y30653569D01*
X23162000Y30602560D01*
X26162000Y30602560D01*
X26397317Y30646838D01*
X26469324Y30693174D01*
X26682498Y30480000D01*
X26470351Y30267853D01*
X26413890Y30306431D01*
X26162000Y30357440D01*
X23162000Y30357440D01*
X22926683Y30313162D01*
X22710559Y30174090D01*
X22565569Y29961890D01*
X22514560Y29710000D01*
X22514560Y28710000D01*
X22558838Y28474683D01*
X22697910Y28258559D01*
X22910110Y28113569D01*
X23162000Y28062560D01*
X26162000Y28062560D01*
X26397317Y28106838D01*
X26613441Y28245910D01*
X26758431Y28458110D01*
X26768100Y28505855D01*
X26778139Y28507852D01*
X27024701Y28672599D01*
X27627402Y29275300D01*
X28054560Y29275300D01*
X28054560Y28710000D01*
X28098838Y28474683D01*
X28237910Y28258559D01*
X28242680Y28255300D01*
X27312600Y28255300D01*
X27103465Y28213700D01*
X27021760Y28197448D01*
X26775199Y28032701D01*
X26470351Y27727853D01*
X26413890Y27766431D01*
X26162000Y27817440D01*
X23162000Y27817440D01*
X22926683Y27773162D01*
X22710559Y27634090D01*
X22565569Y27421890D01*
X22514560Y27170000D01*
X22514560Y26170000D01*
X22558838Y25934683D01*
X22697910Y25718559D01*
X22910110Y25573569D01*
X23162000Y25522560D01*
X26162000Y25522560D01*
X26397317Y25566838D01*
X26613441Y25705910D01*
X26758431Y25918110D01*
X26768100Y25965855D01*
X26778139Y25967852D01*
X27024701Y26132599D01*
X27627402Y26735300D01*
X28054560Y26735300D01*
X28054560Y26170000D01*
X28098838Y25934683D01*
X28126111Y25892300D01*
X27489600Y25892300D01*
X27198760Y25834448D01*
X26952199Y25669701D01*
X26470351Y25187853D01*
X26413890Y25226431D01*
X26162000Y25277440D01*
X23162000Y25277440D01*
X22926683Y25233162D01*
X22710559Y25094090D01*
X22565569Y24881890D01*
X22514560Y24630000D01*
X22514560Y23630000D01*
X22558838Y23394683D01*
X22697910Y23178559D01*
X22910110Y23033569D01*
X23162000Y22982560D01*
X26162000Y22982560D01*
X26397317Y23026838D01*
X26613441Y23165910D01*
X26758431Y23378110D01*
X26768100Y23425855D01*
X26778139Y23427852D01*
X27024701Y23592599D01*
X27804402Y24372300D01*
X28054560Y24372300D01*
X28054560Y23638700D01*
X27776000Y23638700D01*
X27485161Y23580848D01*
X27238599Y23416101D01*
X26470351Y22647853D01*
X26413890Y22686431D01*
X26162000Y22737440D01*
X23162000Y22737440D01*
X22926683Y22693162D01*
X22710559Y22554090D01*
X22565569Y22341890D01*
X22514560Y22090000D01*
X22514560Y21090000D01*
X22558838Y20854683D01*
X22697910Y20638559D01*
X22910110Y20493569D01*
X23162000Y20442560D01*
X26162000Y20442560D01*
X26397317Y20486838D01*
X26613441Y20625910D01*
X26758431Y20838110D01*
X26768100Y20885855D01*
X26778139Y20887852D01*
X27024701Y21052599D01*
X28054560Y22082458D01*
X28054560Y21090000D01*
X28098838Y20854683D01*
X28237910Y20638559D01*
X28242680Y20635300D01*
X27312600Y20635300D01*
X27078529Y20588740D01*
X27021760Y20577448D01*
X26775199Y20412701D01*
X26470351Y20107853D01*
X26413890Y20146431D01*
X26162000Y20197440D01*
X23162000Y20197440D01*
X22926683Y20153162D01*
X22710559Y20014090D01*
X22565569Y19801890D01*
X22514560Y19550000D01*
X22514560Y18550000D01*
X22558838Y18314683D01*
X22697910Y18098559D01*
X22910110Y17953569D01*
X23162000Y17902560D01*
X26162000Y17902560D01*
X26397317Y17946838D01*
X26613441Y18085910D01*
X26758431Y18298110D01*
X26768100Y18345855D01*
X26778139Y18347852D01*
X27024701Y18512599D01*
X27627402Y19115300D01*
X28054560Y19115300D01*
X28054560Y18819100D01*
X28036400Y18819100D01*
X27745560Y18761248D01*
X27498999Y18596501D01*
X26470351Y17567853D01*
X26413890Y17606431D01*
X26162000Y17657440D01*
X23162000Y17657440D01*
X22926683Y17613162D01*
X22710559Y17474090D01*
X22565569Y17261890D01*
X22514560Y17010000D01*
X22514560Y16010000D01*
X22558838Y15774683D01*
X22697910Y15558559D01*
X22910110Y15413569D01*
X23162000Y15362560D01*
X26162000Y15362560D01*
X26397317Y15406838D01*
X26613441Y15545910D01*
X26758431Y15758110D01*
X26768100Y15805855D01*
X26778139Y15807852D01*
X27024701Y15972599D01*
X28054560Y17002458D01*
X28054560Y16010000D01*
X28098838Y15774683D01*
X28237910Y15558559D01*
X28450110Y15413569D01*
X28702000Y15362560D01*
X31702000Y15362560D01*
X31937317Y15406838D01*
X32153441Y15545910D01*
X32298431Y15758110D01*
X32308100Y15805855D01*
X32318139Y15807852D01*
X32364157Y15838600D01*
X32821098Y15838600D01*
X32010351Y15027853D01*
X31953890Y15066431D01*
X31702000Y15117440D01*
X28702000Y15117440D01*
X28466683Y15073162D01*
X28250559Y14934090D01*
X28105569Y14721890D01*
X28054560Y14470000D01*
X28054560Y13904700D01*
X27627402Y13904700D01*
X27024701Y14507401D01*
X26778139Y14672148D01*
X26771141Y14673540D01*
X26765162Y14705317D01*
X26626090Y14921441D01*
X26413890Y15066431D01*
X26162000Y15117440D01*
X23162000Y15117440D01*
X22926683Y15073162D01*
X22710559Y14934090D01*
X22565569Y14721890D01*
X22514560Y14470000D01*
X22514560Y13470000D01*
X22558838Y13234683D01*
X22697910Y13018559D01*
X22910110Y12873569D01*
X23162000Y12822560D01*
X26162000Y12822560D01*
X26397317Y12866838D01*
X26469324Y12913174D01*
X26775199Y12607299D01*
X27021760Y12442552D01*
X27070014Y12432954D01*
X27312600Y12384700D01*
X36413337Y12384700D01*
X36445473Y12352508D01*
X36789001Y12209862D01*
X37160967Y12209538D01*
X37504743Y12351583D01*
X37767992Y12614373D01*
X37910638Y12957901D01*
X37910962Y13329867D01*
X37816825Y13557696D01*
X37926431Y13718110D01*
X37977440Y13970000D01*
X37977440Y16970000D01*
X37933162Y17205317D01*
X37886826Y17277324D01*
X39858202Y19248700D01*
X40248597Y19248700D01*
X38832599Y17832701D01*
X38667852Y17586139D01*
X38666460Y17579141D01*
X38634683Y17573162D01*
X38418559Y17434090D01*
X38273569Y17221890D01*
X38222560Y16970000D01*
X38222560Y13970000D01*
X38266838Y13734683D01*
X38405910Y13518559D01*
X38618110Y13373569D01*
X38870000Y13322560D01*
X39862458Y13322560D01*
X38832599Y12292701D01*
X38667852Y12046139D01*
X38666460Y12039141D01*
X38634683Y12033162D01*
X38418559Y11894090D01*
X38273569Y11681890D01*
X38222560Y11430000D01*
X38222560Y10786208D01*
X38033199Y10864838D01*
X37977440Y10864887D01*
X37977440Y11430000D01*
X37933162Y11665317D01*
X37794090Y11881441D01*
X37581890Y12026431D01*
X37330000Y12077440D01*
X36330000Y12077440D01*
X36094683Y12033162D01*
X35878559Y11894090D01*
X35733569Y11681890D01*
X35682560Y11430000D01*
X35682560Y8430000D01*
X35726838Y8194683D01*
X35865910Y7978559D01*
X36078110Y7833569D01*
X36330000Y7782560D01*
X37330000Y7782560D01*
X37565317Y7826838D01*
X37781441Y7965910D01*
X37926431Y8178110D01*
X37977440Y8430000D01*
X37977440Y8994885D01*
X38031567Y8994838D01*
X38222560Y9073755D01*
X38222560Y8430000D01*
X38266838Y8194683D01*
X38405910Y7978559D01*
X38618110Y7833569D01*
X38870000Y7782560D01*
X39870000Y7782560D01*
X40105317Y7826838D01*
X40321441Y7965910D01*
X40466431Y8178110D01*
X40517440Y8430000D01*
X40517440Y11430000D01*
X40473162Y11665317D01*
X40426826Y11737324D01*
X41529402Y12839900D01*
X41967869Y12839900D01*
X41822999Y12743101D01*
X41372599Y12292701D01*
X41207852Y12046139D01*
X41206460Y12039141D01*
X41174683Y12033162D01*
X40958559Y11894090D01*
X40813569Y11681890D01*
X40762560Y11430000D01*
X40762560Y8430000D01*
X40806838Y8194683D01*
X40945910Y7978559D01*
X41158110Y7833569D01*
X41410000Y7782560D01*
X42410000Y7782560D01*
X42645317Y7826838D01*
X42861441Y7965910D01*
X43006431Y8178110D01*
X43057440Y8430000D01*
X43057440Y11430000D01*
X43054486Y11445700D01*
X43305739Y11445700D01*
X43302560Y11430000D01*
X43302560Y8430000D01*
X43346838Y8194683D01*
X43485910Y7978559D01*
X43698110Y7833569D01*
X43950000Y7782560D01*
X44950000Y7782560D01*
X45185317Y7826838D01*
X45401441Y7965910D01*
X45546431Y8178110D01*
X45597440Y8430000D01*
X45597440Y10995300D01*
X45842560Y10995300D01*
X45842560Y8430000D01*
X45886838Y8194683D01*
X46025910Y7978559D01*
X46238110Y7833569D01*
X46490000Y7782560D01*
X47490000Y7782560D01*
X47725317Y7826838D01*
X47941441Y7965910D01*
X48086431Y8178110D01*
X48137440Y8430000D01*
X48137440Y10002638D01*
X48382560Y10247758D01*
X48382560Y8430000D01*
X48426838Y8194683D01*
X48565910Y7978559D01*
X48778110Y7833569D01*
X49030000Y7782560D01*
X50030000Y7782560D01*
X50265317Y7826838D01*
X50481441Y7965910D01*
X50626431Y8178110D01*
X50677440Y8430000D01*
X50677440Y10995300D01*
X50896755Y10995300D01*
X50922560Y10984585D01*
X50922560Y8430000D01*
X50966838Y8194683D01*
X51105910Y7978559D01*
X51318110Y7833569D01*
X51570000Y7782560D01*
X52570000Y7782560D01*
X52805317Y7826838D01*
X53021441Y7965910D01*
X53166431Y8178110D01*
X53217440Y8430000D01*
X53217440Y11430000D01*
X53173162Y11665317D01*
X53126826Y11737324D01*
X53801502Y12412000D01*
X54251143Y12412000D01*
X54072599Y12292701D01*
X53907852Y12046139D01*
X53906460Y12039141D01*
X53874683Y12033162D01*
X53658559Y11894090D01*
X53513569Y11681890D01*
X53462560Y11430000D01*
X53462560Y8430000D01*
X53506838Y8194683D01*
X53645910Y7978559D01*
X53858110Y7833569D01*
X54110000Y7782560D01*
X55110000Y7782560D01*
X55345317Y7826838D01*
X55561441Y7965910D01*
X55706431Y8178110D01*
X55757440Y8430000D01*
X55757440Y10820182D01*
X55807767Y10820138D01*
X56002560Y10900625D01*
X56002560Y8430000D01*
X56046838Y8194683D01*
X56185910Y7978559D01*
X56398110Y7833569D01*
X56650000Y7782560D01*
X57650000Y7782560D01*
X57885317Y7826838D01*
X58101441Y7965910D01*
X58246431Y8178110D01*
X58297440Y8430000D01*
X58297440Y11430000D01*
X58542560Y11430000D01*
X58542560Y8430000D01*
X58586838Y8194683D01*
X58725910Y7978559D01*
X58938110Y7833569D01*
X59190000Y7782560D01*
X60190000Y7782560D01*
X60425317Y7826838D01*
X60641441Y7965910D01*
X60786431Y8178110D01*
X60837440Y8430000D01*
X60837440Y11430000D01*
X60793162Y11665317D01*
X60781824Y11682937D01*
X60812038Y11755701D01*
X60812362Y12127667D01*
X60670317Y12471443D01*
X60407527Y12734692D01*
X60063999Y12877338D01*
X59692033Y12877662D01*
X59348257Y12735617D01*
X59085008Y12472827D01*
X58942362Y12129299D01*
X58942271Y12025175D01*
X58738559Y11894090D01*
X58593569Y11681890D01*
X58542560Y11430000D01*
X58297440Y11430000D01*
X58253162Y11665317D01*
X58206826Y11737324D01*
X58950001Y12480499D01*
X59029518Y12599504D01*
X59204892Y12774573D01*
X59347538Y13118101D01*
X59347716Y13322560D01*
X60190000Y13322560D01*
X60425317Y13366838D01*
X60641441Y13505910D01*
X60786431Y13718110D01*
X60837440Y13970000D01*
X60837440Y16885138D01*
X61123254Y17170952D01*
X61082560Y16970000D01*
X61082560Y13970000D01*
X61126838Y13734683D01*
X61265910Y13518559D01*
X61478110Y13373569D01*
X61730000Y13322560D01*
X62378800Y13322560D01*
X62378800Y12978902D01*
X61692599Y12292701D01*
X61527852Y12046139D01*
X61526460Y12039141D01*
X61494683Y12033162D01*
X61278559Y11894090D01*
X61133569Y11681890D01*
X61082560Y11430000D01*
X61082560Y8430000D01*
X61126838Y8194683D01*
X61265910Y7978559D01*
X61478110Y7833569D01*
X61730000Y7782560D01*
X62730000Y7782560D01*
X62965317Y7826838D01*
X63181441Y7965910D01*
X63326431Y8178110D01*
X63377440Y8430000D01*
X63377440Y11430000D01*
X63333162Y11665317D01*
X63286826Y11737324D01*
X63635000Y12085498D01*
X63635000Y11491431D01*
X63622560Y11430000D01*
X63622560Y8430000D01*
X63666838Y8194683D01*
X63805910Y7978559D01*
X64018110Y7833569D01*
X64270000Y7782560D01*
X65270000Y7782560D01*
X65505317Y7826838D01*
X65721441Y7965910D01*
X65866431Y8178110D01*
X65917440Y8430000D01*
X65917440Y9644250D01*
X66175000Y9644250D01*
X66175000Y8303691D01*
X66271673Y8070302D01*
X66450301Y7891673D01*
X66683690Y7795000D01*
X67024250Y7795000D01*
X67183000Y7953750D01*
X67183000Y9803000D01*
X67437000Y9803000D01*
X67437000Y7953750D01*
X67595750Y7795000D01*
X67936310Y7795000D01*
X68169699Y7891673D01*
X68348327Y8070302D01*
X68445000Y8303691D01*
X68445000Y9644250D01*
X68715000Y9644250D01*
X68715000Y8303691D01*
X68811673Y8070302D01*
X68990301Y7891673D01*
X69223690Y7795000D01*
X69564250Y7795000D01*
X69723000Y7953750D01*
X69723000Y9803000D01*
X69977000Y9803000D01*
X69977000Y7953750D01*
X70135750Y7795000D01*
X70476310Y7795000D01*
X70709699Y7891673D01*
X70888327Y8070302D01*
X70985000Y8303691D01*
X70985000Y9644250D01*
X70826250Y9803000D01*
X69977000Y9803000D01*
X69723000Y9803000D01*
X68873750Y9803000D01*
X68715000Y9644250D01*
X68445000Y9644250D01*
X68286250Y9803000D01*
X67437000Y9803000D01*
X67183000Y9803000D01*
X66333750Y9803000D01*
X66175000Y9644250D01*
X65917440Y9644250D01*
X65917440Y10995300D01*
X66175000Y10995300D01*
X66175000Y10215750D01*
X66333750Y10057000D01*
X67183000Y10057000D01*
X67183000Y10077000D01*
X67437000Y10077000D01*
X67437000Y10057000D01*
X68286250Y10057000D01*
X68445000Y10215750D01*
X68445000Y10995300D01*
X68715000Y10995300D01*
X68715000Y10215750D01*
X68873750Y10057000D01*
X69723000Y10057000D01*
X69723000Y10077000D01*
X69977000Y10077000D01*
X69977000Y10057000D01*
X70826250Y10057000D01*
X70985000Y10215750D01*
X70985000Y10995300D01*
X71242560Y10995300D01*
X71242560Y8430000D01*
X71286838Y8194683D01*
X71333174Y8122676D01*
X70786699Y7576201D01*
X70621952Y7329639D01*
X70564100Y7038800D01*
X70564100Y6646332D01*
X70184914Y6489656D01*
X69766812Y6072283D01*
X69755252Y6044443D01*
X69744656Y6070086D01*
X69327283Y6488188D01*
X68781681Y6714742D01*
X68190911Y6715257D01*
X67644914Y6489656D01*
X67226812Y6072283D01*
X67215252Y6044443D01*
X67204656Y6070086D01*
X66787283Y6488188D01*
X66241681Y6714742D01*
X65650911Y6715257D01*
X65104914Y6489656D01*
X64686812Y6072283D01*
X64675252Y6044443D01*
X64664656Y6070086D01*
X64247283Y6488188D01*
X63701681Y6714742D01*
X63110911Y6715257D01*
X62564914Y6489656D01*
X62146812Y6072283D01*
X62135252Y6044443D01*
X62124656Y6070086D01*
X61707283Y6488188D01*
X61161681Y6714742D01*
X60570911Y6715257D01*
X60024914Y6489656D01*
X59606812Y6072283D01*
X59595252Y6044443D01*
X59584656Y6070086D01*
X59167283Y6488188D01*
X58621681Y6714742D01*
X58030911Y6715257D01*
X57484914Y6489656D01*
X57066812Y6072283D01*
X57055252Y6044443D01*
X57044656Y6070086D01*
X56627283Y6488188D01*
X56081681Y6714742D01*
X55490911Y6715257D01*
X54944914Y6489656D01*
X54526812Y6072283D01*
X54515252Y6044443D01*
X54504656Y6070086D01*
X54087283Y6488188D01*
X53541681Y6714742D01*
X52950911Y6715257D01*
X52404914Y6489656D01*
X51986812Y6072283D01*
X51975252Y6044443D01*
X51964656Y6070086D01*
X51547283Y6488188D01*
X51001681Y6714742D01*
X50410911Y6715257D01*
X49864914Y6489656D01*
X49446812Y6072283D01*
X49435252Y6044443D01*
X49424656Y6070086D01*
X49007283Y6488188D01*
X48461681Y6714742D01*
X47870911Y6715257D01*
X47324914Y6489656D01*
X46906812Y6072283D01*
X46895252Y6044443D01*
X46884656Y6070086D01*
X46467283Y6488188D01*
X45921681Y6714742D01*
X45330911Y6715257D01*
X44784914Y6489656D01*
X44366812Y6072283D01*
X44355252Y6044443D01*
X44344656Y6070086D01*
X43927283Y6488188D01*
X43381681Y6714742D01*
X42790911Y6715257D01*
X42244914Y6489656D01*
X41826812Y6072283D01*
X41815252Y6044443D01*
X41804656Y6070086D01*
X41387283Y6488188D01*
X40841681Y6714742D01*
X40250911Y6715257D01*
X39704914Y6489656D01*
X39286812Y6072283D01*
X39275252Y6044443D01*
X39264656Y6070086D01*
X38847283Y6488188D01*
X38301681Y6714742D01*
X37710911Y6715257D01*
X37164914Y6489656D01*
X36746812Y6072283D01*
X36735252Y6044443D01*
X36724656Y6070086D01*
X36307283Y6488188D01*
X35761681Y6714742D01*
X35170911Y6715257D01*
X34624914Y6489656D01*
X34206812Y6072283D01*
X34195252Y6044443D01*
X34184656Y6070086D01*
X33767283Y6488188D01*
X33221681Y6714742D01*
X32630911Y6715257D01*
X32084914Y6489656D01*
X31960040Y6365000D01*
X31350256Y6365000D01*
X31227283Y6488188D01*
X30681681Y6714742D01*
X30090911Y6715257D01*
X29544914Y6489656D01*
X29126812Y6072283D01*
X28900258Y5526681D01*
X28900104Y5350136D01*
X27988434Y4438466D01*
X27742397Y4070246D01*
X27656000Y3635900D01*
X27656000Y2070400D01*
X27742397Y1636054D01*
X27879848Y1430344D01*
X27988434Y1267834D01*
X28546268Y710000D01*
X710000Y710000D01*
X710000Y3035381D01*
X13292613Y3035381D01*
X13632155Y2213628D01*
X14260321Y1584364D01*
X15081481Y1243389D01*
X15970619Y1242613D01*
X16792372Y1582155D01*
X17421636Y2210321D01*
X17762611Y3031481D01*
X17763387Y3920619D01*
X17423845Y4742372D01*
X16795679Y5371636D01*
X15974519Y5712611D01*
X15085381Y5713387D01*
X14263628Y5373845D01*
X13634364Y4745679D01*
X13293389Y3924519D01*
X13292613Y3035381D01*
X710000Y3035381D01*
X710000Y11026339D01*
X761758Y11026339D01*
X973990Y10512697D01*
X1366630Y10119371D01*
X1879900Y9906243D01*
X2435661Y9905758D01*
X2949303Y10117990D01*
X3342629Y10510630D01*
X3428949Y10718512D01*
X3513990Y10512697D01*
X3906630Y10119371D01*
X4419900Y9906243D01*
X4975661Y9905758D01*
X5489303Y10117990D01*
X5882629Y10510630D01*
X6092995Y11017250D01*
X12700000Y11017250D01*
X12700000Y10414691D01*
X12796673Y10181302D01*
X12975301Y10002673D01*
X13208690Y9906000D01*
X13811250Y9906000D01*
X13970000Y10064750D01*
X13970000Y11176000D01*
X14224000Y11176000D01*
X14224000Y10064750D01*
X14382750Y9906000D01*
X14985310Y9906000D01*
X15218699Y10002673D01*
X15367000Y10150975D01*
X15515301Y10002673D01*
X15748690Y9906000D01*
X16351250Y9906000D01*
X16510000Y10064750D01*
X16510000Y11176000D01*
X16764000Y11176000D01*
X16764000Y10064750D01*
X16922750Y9906000D01*
X17525310Y9906000D01*
X17758699Y10002673D01*
X17937327Y10181302D01*
X18034000Y10414691D01*
X18034000Y11017250D01*
X17875250Y11176000D01*
X16764000Y11176000D01*
X16510000Y11176000D01*
X15398750Y11176000D01*
X15367000Y11144250D01*
X15335250Y11176000D01*
X14224000Y11176000D01*
X13970000Y11176000D01*
X12858750Y11176000D01*
X12700000Y11017250D01*
X6092995Y11017250D01*
X6095757Y11023900D01*
X6096242Y11579661D01*
X5884010Y12093303D01*
X5786175Y12191309D01*
X12700000Y12191309D01*
X12700000Y11588750D01*
X12858750Y11430000D01*
X13970000Y11430000D01*
X13970000Y12541250D01*
X14224000Y12541250D01*
X14224000Y11430000D01*
X15335250Y11430000D01*
X15367000Y11461750D01*
X15398750Y11430000D01*
X16510000Y11430000D01*
X16510000Y12541250D01*
X16764000Y12541250D01*
X16764000Y11430000D01*
X17875250Y11430000D01*
X18034000Y11588750D01*
X18034000Y12191309D01*
X17937327Y12424698D01*
X17758699Y12603327D01*
X17525310Y12700000D01*
X16922750Y12700000D01*
X16764000Y12541250D01*
X16510000Y12541250D01*
X16351250Y12700000D01*
X15748690Y12700000D01*
X15515301Y12603327D01*
X15367000Y12455025D01*
X15218699Y12603327D01*
X14985310Y12700000D01*
X14382750Y12700000D01*
X14224000Y12541250D01*
X13970000Y12541250D01*
X13811250Y12700000D01*
X13208690Y12700000D01*
X12975301Y12603327D01*
X12796673Y12424698D01*
X12700000Y12191309D01*
X5786175Y12191309D01*
X5491370Y12486629D01*
X4978100Y12699757D01*
X4422339Y12700242D01*
X3908697Y12488010D01*
X3515371Y12095370D01*
X3429051Y11887488D01*
X3344010Y12093303D01*
X2951370Y12486629D01*
X2438100Y12699757D01*
X1882339Y12700242D01*
X1368697Y12488010D01*
X975371Y12095370D01*
X762243Y11582100D01*
X761758Y11026339D01*
X710000Y11026339D01*
X710000Y29568339D01*
X761758Y29568339D01*
X973990Y29054697D01*
X1366630Y28661371D01*
X1879900Y28448243D01*
X2435661Y28447758D01*
X2949303Y28659990D01*
X3342629Y29052630D01*
X3428949Y29260512D01*
X3513990Y29054697D01*
X3906630Y28661371D01*
X4419900Y28448243D01*
X4975661Y28447758D01*
X5489303Y28659990D01*
X5882629Y29052630D01*
X6095757Y29565900D01*
X6096242Y30121661D01*
X5884010Y30635303D01*
X5491370Y31028629D01*
X4978100Y31241757D01*
X4422339Y31242242D01*
X3908697Y31030010D01*
X3515371Y30637370D01*
X3429051Y30429488D01*
X3344010Y30635303D01*
X2951370Y31028629D01*
X2438100Y31241757D01*
X1882339Y31242242D01*
X1368697Y31030010D01*
X975371Y30637370D01*
X762243Y30124100D01*
X761758Y29568339D01*
X710000Y29568339D01*
X710000Y41755000D01*
X1762560Y41755000D01*
X1762560Y38255000D01*
X1806838Y38019683D01*
X1945910Y37803559D01*
X2158110Y37658569D01*
X2410000Y37607560D01*
X5096045Y37607560D01*
X4958559Y37519090D01*
X4813569Y37306890D01*
X4762560Y37055000D01*
X4762560Y33555000D01*
X4806838Y33319683D01*
X4945910Y33103559D01*
X5158110Y32958569D01*
X5410000Y32907560D01*
X8910000Y32907560D01*
X9145317Y32951838D01*
X9361441Y33090910D01*
X9506431Y33303110D01*
X9557440Y33555000D01*
X9557440Y37055000D01*
X9513162Y37290317D01*
X9374090Y37506441D01*
X9207891Y37620000D01*
X9874250Y37620000D01*
X10033000Y37778750D01*
X10033000Y39878000D01*
X10287000Y39878000D01*
X10287000Y37778750D01*
X10445750Y37620000D01*
X12036309Y37620000D01*
X12269698Y37716673D01*
X12448327Y37895301D01*
X12545000Y38128690D01*
X12545000Y39719250D01*
X12386250Y39878000D01*
X10287000Y39878000D01*
X10033000Y39878000D01*
X7933750Y39878000D01*
X7775000Y39719250D01*
X7775000Y38128690D01*
X7871673Y37895301D01*
X8050302Y37716673D01*
X8084663Y37702440D01*
X6223955Y37702440D01*
X6361441Y37790910D01*
X6506431Y38003110D01*
X6557440Y38255000D01*
X6557440Y41755000D01*
X6533674Y41881310D01*
X7775000Y41881310D01*
X7775000Y40290750D01*
X7933750Y40132000D01*
X10033000Y40132000D01*
X10033000Y42231250D01*
X10287000Y42231250D01*
X10287000Y40132000D01*
X12386250Y40132000D01*
X12545000Y40290750D01*
X12545000Y41881310D01*
X12448327Y42114699D01*
X12269698Y42293327D01*
X12036309Y42390000D01*
X10445750Y42390000D01*
X10287000Y42231250D01*
X10033000Y42231250D01*
X9874250Y42390000D01*
X8283691Y42390000D01*
X8050302Y42293327D01*
X7871673Y42114699D01*
X7775000Y41881310D01*
X6533674Y41881310D01*
X6513162Y41990317D01*
X6374090Y42206441D01*
X6161890Y42351431D01*
X5910000Y42402440D01*
X2410000Y42402440D01*
X2174683Y42358162D01*
X1958559Y42219090D01*
X1813569Y42006890D01*
X1762560Y41755000D01*
X710000Y41755000D01*
X710000Y44289250D01*
X14625000Y44289250D01*
X14625000Y42448691D01*
X14721673Y42215302D01*
X14900301Y42036673D01*
X15133690Y41940000D01*
X16224250Y41940000D01*
X16383000Y42098750D01*
X16383000Y44448000D01*
X16637000Y44448000D01*
X16637000Y42098750D01*
X16795750Y41940000D01*
X17886310Y41940000D01*
X18119699Y42036673D01*
X18298327Y42215302D01*
X18395000Y42448691D01*
X18395000Y44289250D01*
X18236250Y44448000D01*
X16637000Y44448000D01*
X16383000Y44448000D01*
X14783750Y44448000D01*
X14625000Y44289250D01*
X710000Y44289250D01*
X710000Y46701309D01*
X14625000Y46701309D01*
X14625000Y44860750D01*
X14783750Y44702000D01*
X16383000Y44702000D01*
X16383000Y47051250D01*
X16637000Y47051250D01*
X16637000Y44702000D01*
X18236250Y44702000D01*
X18395000Y44860750D01*
X18395000Y46701309D01*
X18298327Y46934698D01*
X18119699Y47113327D01*
X17886310Y47210000D01*
X16795750Y47210000D01*
X16637000Y47051250D01*
X16383000Y47051250D01*
X16224250Y47210000D01*
X15133690Y47210000D01*
X14900301Y47113327D01*
X14721673Y46934698D01*
X14625000Y46701309D01*
X710000Y46701309D01*
X710000Y50614833D01*
X13034838Y50614833D01*
X13176883Y50271057D01*
X13439673Y50007808D01*
X13783201Y49865162D01*
X14155167Y49864838D01*
X14276569Y49915000D01*
X14612560Y49915000D01*
X14612560Y48675000D01*
X14656838Y48439683D01*
X14795910Y48223559D01*
X15008110Y48078569D01*
X15260000Y48027560D01*
X17760000Y48027560D01*
X17995317Y48071838D01*
X18211441Y48210910D01*
X18356431Y48423110D01*
X18407440Y48675000D01*
X18407440Y49530000D01*
X22076700Y49530000D01*
X22076700Y47902700D01*
X22134552Y47611861D01*
X22299299Y47365299D01*
X22514560Y47150038D01*
X22514560Y46490000D01*
X22558838Y46254683D01*
X22697910Y46038559D01*
X22910110Y45893569D01*
X23162000Y45842560D01*
X26162000Y45842560D01*
X26397317Y45886838D01*
X26613441Y46025910D01*
X26758431Y46238110D01*
X26809440Y46490000D01*
X26809440Y46704250D01*
X28067000Y46704250D01*
X28067000Y46363690D01*
X28163673Y46130301D01*
X28342302Y45951673D01*
X28575691Y45855000D01*
X29916250Y45855000D01*
X30075000Y46013750D01*
X30075000Y46863000D01*
X30329000Y46863000D01*
X30329000Y46013750D01*
X30487750Y45855000D01*
X31828309Y45855000D01*
X32061698Y45951673D01*
X32240327Y46130301D01*
X32337000Y46363690D01*
X32337000Y46704250D01*
X32178250Y46863000D01*
X30329000Y46863000D01*
X30075000Y46863000D01*
X28225750Y46863000D01*
X28067000Y46704250D01*
X26809440Y46704250D01*
X26809440Y47490000D01*
X26765162Y47725317D01*
X26626090Y47941441D01*
X26413890Y48086431D01*
X26162000Y48137440D01*
X25700005Y48137440D01*
X25700162Y48318167D01*
X25673555Y48382560D01*
X26162000Y48382560D01*
X26397317Y48426838D01*
X26613441Y48565910D01*
X26752890Y48770000D01*
X27000667Y48770000D01*
X26893808Y48663327D01*
X26751162Y48319799D01*
X26750838Y47947833D01*
X26892883Y47604057D01*
X27155673Y47340808D01*
X27499201Y47198162D01*
X27871167Y47197838D01*
X28067000Y47278754D01*
X28067000Y47275750D01*
X28225750Y47117000D01*
X30075000Y47117000D01*
X30075000Y47966250D01*
X30329000Y47966250D01*
X30329000Y47117000D01*
X32178250Y47117000D01*
X32337000Y47275750D01*
X32337000Y47616310D01*
X32240327Y47849699D01*
X32061698Y48028327D01*
X31828309Y48125000D01*
X30487750Y48125000D01*
X30329000Y47966250D01*
X30075000Y47966250D01*
X29916250Y48125000D01*
X28752802Y48125000D01*
X29010362Y48382560D01*
X31702000Y48382560D01*
X31937317Y48426838D01*
X32153441Y48565910D01*
X32298431Y48778110D01*
X32349440Y49030000D01*
X32349440Y50030000D01*
X32305162Y50265317D01*
X32166090Y50481441D01*
X31953890Y50626431D01*
X31702000Y50677440D01*
X28702000Y50677440D01*
X28466683Y50633162D01*
X28250559Y50494090D01*
X28111110Y50290000D01*
X26749279Y50290000D01*
X26626090Y50481441D01*
X26413890Y50626431D01*
X26162000Y50677440D01*
X23162000Y50677440D01*
X22926683Y50633162D01*
X22710559Y50494090D01*
X22565569Y50281890D01*
X22555900Y50234145D01*
X22545861Y50232148D01*
X22299299Y50067401D01*
X22134552Y49820839D01*
X22076700Y49530000D01*
X18407440Y49530000D01*
X18407440Y49821941D01*
X18609201Y49738162D01*
X18981167Y49737838D01*
X19324943Y49879883D01*
X19588192Y50142673D01*
X19730838Y50486201D01*
X19731162Y50858167D01*
X19589117Y51201943D01*
X19326327Y51465192D01*
X18982799Y51607838D01*
X18610833Y51608162D01*
X18407440Y51524122D01*
X18407440Y52675000D01*
X18401796Y52705000D01*
X35682560Y52705000D01*
X35682560Y49705000D01*
X35726838Y49469683D01*
X35865910Y49253559D01*
X36078110Y49108569D01*
X36125855Y49098900D01*
X36127852Y49088861D01*
X36292599Y48842299D01*
X36539161Y48677552D01*
X36830000Y48619700D01*
X39645224Y48619700D01*
X39898973Y48365508D01*
X40132604Y48268496D01*
X40132438Y48078333D01*
X40274483Y47734557D01*
X40537273Y47471308D01*
X40880801Y47328662D01*
X41252767Y47328338D01*
X41596543Y47470383D01*
X41859792Y47733173D01*
X42002438Y48076701D01*
X42002556Y48212342D01*
X42376299Y47838599D01*
X42622861Y47673852D01*
X42913700Y47616000D01*
X44799237Y47616000D01*
X44831373Y47583808D01*
X45174901Y47441162D01*
X45546867Y47440838D01*
X45890643Y47582883D01*
X46153892Y47845673D01*
X46296538Y48189201D01*
X46296598Y48258343D01*
X46646967Y48258038D01*
X46947765Y48382325D01*
X47229201Y48265462D01*
X47601167Y48265138D01*
X47944943Y48407183D01*
X48208192Y48669973D01*
X48350838Y49013501D01*
X48351162Y49385467D01*
X48209117Y49729243D01*
X48176000Y49762418D01*
X48176000Y50779000D01*
X48137440Y50972852D01*
X48137440Y52705000D01*
X48382560Y52705000D01*
X48382560Y49705000D01*
X48426838Y49469683D01*
X48565910Y49253559D01*
X48743639Y49132122D01*
X48743538Y49015933D01*
X48885583Y48672157D01*
X49148373Y48408908D01*
X49491901Y48266262D01*
X49863867Y48265938D01*
X50207643Y48407983D01*
X50330014Y48530141D01*
X50329938Y48442733D01*
X50471983Y48098957D01*
X50734773Y47835708D01*
X51078301Y47693062D01*
X51450267Y47692738D01*
X51794043Y47834783D01*
X52057292Y48097573D01*
X52199938Y48441101D01*
X52199979Y48487977D01*
X52447376Y48735374D01*
X52607401Y48842299D01*
X52772148Y49088861D01*
X52773540Y49095859D01*
X52805317Y49101838D01*
X53021441Y49240910D01*
X53166431Y49453110D01*
X53217440Y49705000D01*
X53217440Y52705000D01*
X53173162Y52940317D01*
X53034090Y53156441D01*
X52821890Y53301431D01*
X52570000Y53352440D01*
X51570000Y53352440D01*
X51334683Y53308162D01*
X51118559Y53169090D01*
X50973569Y52956890D01*
X50922560Y52705000D01*
X50922560Y49705000D01*
X50958694Y49512967D01*
X50736157Y49421017D01*
X50613786Y49298859D01*
X50613862Y49386267D01*
X50601388Y49416458D01*
X50626431Y49453110D01*
X50677440Y49705000D01*
X50677440Y52705000D01*
X50633162Y52940317D01*
X50494090Y53156441D01*
X50281890Y53301431D01*
X50030000Y53352440D01*
X49030000Y53352440D01*
X48794683Y53308162D01*
X48578559Y53169090D01*
X48433569Y52956890D01*
X48382560Y52705000D01*
X48137440Y52705000D01*
X48093162Y52940317D01*
X47954090Y53156441D01*
X47741890Y53301431D01*
X47490000Y53352440D01*
X46490000Y53352440D01*
X46254683Y53308162D01*
X46038559Y53169090D01*
X45893569Y52956890D01*
X45842560Y52705000D01*
X45842560Y50139700D01*
X45597440Y50139700D01*
X45597440Y52705000D01*
X45553162Y52940317D01*
X45414090Y53156441D01*
X45201890Y53301431D01*
X44950000Y53352440D01*
X43957542Y53352440D01*
X44987401Y54382299D01*
X45152148Y54628861D01*
X45153540Y54635859D01*
X45185317Y54641838D01*
X45401441Y54780910D01*
X45546431Y54993110D01*
X45597440Y55245000D01*
X45597440Y58245000D01*
X45842560Y58245000D01*
X45842560Y55245000D01*
X45886838Y55009683D01*
X46025910Y54793559D01*
X46238110Y54648569D01*
X46285855Y54638900D01*
X46287852Y54628861D01*
X46452599Y54382299D01*
X46561294Y54309672D01*
X46605883Y54201757D01*
X46868673Y53938508D01*
X47212201Y53795862D01*
X47584167Y53795538D01*
X47927943Y53937583D01*
X48191192Y54200373D01*
X48333838Y54543901D01*
X48334162Y54915867D01*
X48192117Y55259643D01*
X48137440Y55314416D01*
X48137440Y58245000D01*
X48382560Y58245000D01*
X48382560Y55245000D01*
X48426838Y55009683D01*
X48565910Y54793559D01*
X48778110Y54648569D01*
X48801239Y54643885D01*
X48801138Y54528233D01*
X48943183Y54184457D01*
X49205973Y53921208D01*
X49549501Y53778562D01*
X49921467Y53778238D01*
X50265243Y53920283D01*
X50528492Y54183073D01*
X50671138Y54526601D01*
X50671462Y54898567D01*
X50628393Y55002801D01*
X50677440Y55245000D01*
X50677440Y58245000D01*
X50922560Y58245000D01*
X50922560Y55245000D01*
X50966838Y55009683D01*
X51003819Y54952214D01*
X50972462Y54876699D01*
X50972138Y54504733D01*
X51114183Y54160957D01*
X51376973Y53897708D01*
X51720501Y53755062D01*
X52092467Y53754738D01*
X52436243Y53896783D01*
X52699492Y54159573D01*
X52842138Y54503101D01*
X52842280Y54665623D01*
X53021441Y54780910D01*
X53166431Y54993110D01*
X53217440Y55245000D01*
X53217440Y58245000D01*
X53173162Y58480317D01*
X53034090Y58696441D01*
X52821890Y58841431D01*
X52570000Y58892440D01*
X51570000Y58892440D01*
X51334683Y58848162D01*
X51118559Y58709090D01*
X50973569Y58496890D01*
X50922560Y58245000D01*
X50677440Y58245000D01*
X50633162Y58480317D01*
X50494090Y58696441D01*
X50281890Y58841431D01*
X50030000Y58892440D01*
X49030000Y58892440D01*
X48794683Y58848162D01*
X48578559Y58709090D01*
X48433569Y58496890D01*
X48382560Y58245000D01*
X48137440Y58245000D01*
X48093162Y58480317D01*
X47954090Y58696441D01*
X47741890Y58841431D01*
X47490000Y58892440D01*
X46490000Y58892440D01*
X46254683Y58848162D01*
X46038559Y58709090D01*
X45893569Y58496890D01*
X45842560Y58245000D01*
X45597440Y58245000D01*
X45553162Y58480317D01*
X45414090Y58696441D01*
X45201890Y58841431D01*
X44950000Y58892440D01*
X43950000Y58892440D01*
X43714683Y58848162D01*
X43498559Y58709090D01*
X43353569Y58496890D01*
X43302560Y58245000D01*
X43302560Y55245000D01*
X43346838Y55009683D01*
X43393174Y54937676D01*
X43040780Y54585282D01*
X43041062Y54908967D01*
X43006346Y54992986D01*
X43006431Y54993110D01*
X43057440Y55245000D01*
X43057440Y58245000D01*
X43013162Y58480317D01*
X42874090Y58696441D01*
X42661890Y58841431D01*
X42410000Y58892440D01*
X41410000Y58892440D01*
X41174683Y58848162D01*
X40958559Y58709090D01*
X40813569Y58496890D01*
X40762560Y58245000D01*
X40762560Y55245000D01*
X40806838Y55009683D01*
X40945910Y54793559D01*
X41158110Y54648569D01*
X41170832Y54645993D01*
X41170738Y54538633D01*
X41312783Y54194857D01*
X41315678Y54191957D01*
X41291799Y54176001D01*
X40530199Y53414401D01*
X40365452Y53167839D01*
X40356315Y53121903D01*
X40334090Y53156441D01*
X40121890Y53301431D01*
X39870000Y53352440D01*
X38870000Y53352440D01*
X38634683Y53308162D01*
X38418559Y53169090D01*
X38273569Y52956890D01*
X38222560Y52705000D01*
X38222560Y50139700D01*
X37977440Y50139700D01*
X37977440Y52705000D01*
X37933162Y52940317D01*
X37794090Y53156441D01*
X37581890Y53301431D01*
X37330000Y53352440D01*
X36330000Y53352440D01*
X36094683Y53308162D01*
X35878559Y53169090D01*
X35733569Y52956890D01*
X35682560Y52705000D01*
X18401796Y52705000D01*
X18363162Y52910317D01*
X18224090Y53126441D01*
X18011890Y53271431D01*
X17760000Y53322440D01*
X15260000Y53322440D01*
X15024683Y53278162D01*
X14808559Y53139090D01*
X14663569Y52926890D01*
X14612560Y52675000D01*
X14612560Y51479763D01*
X14500327Y51592192D01*
X14156799Y51734838D01*
X13784833Y51735162D01*
X13441057Y51593117D01*
X13177808Y51330327D01*
X13035162Y50986799D01*
X13034838Y50614833D01*
X710000Y50614833D01*
X710000Y56090381D01*
X13292613Y56090381D01*
X13632155Y55268628D01*
X14260321Y54639364D01*
X15081481Y54298389D01*
X15970619Y54297613D01*
X16792372Y54637155D01*
X17421636Y55265321D01*
X17762611Y56086481D01*
X17763387Y56975619D01*
X17423845Y57797372D01*
X16976999Y58245000D01*
X35682560Y58245000D01*
X35682560Y55245000D01*
X35726838Y55009683D01*
X35865910Y54793559D01*
X36002500Y54700231D01*
X36002338Y54513733D01*
X36144383Y54169957D01*
X36407173Y53906708D01*
X36750701Y53764062D01*
X37122667Y53763738D01*
X37466443Y53905783D01*
X37729692Y54168573D01*
X37872338Y54512101D01*
X37872662Y54884067D01*
X37864848Y54902980D01*
X37926431Y54993110D01*
X37977440Y55245000D01*
X37977440Y58245000D01*
X38222560Y58245000D01*
X38222560Y55245000D01*
X38266838Y55009683D01*
X38405910Y54793559D01*
X38618110Y54648569D01*
X38630832Y54645993D01*
X38630738Y54538633D01*
X38772783Y54194857D01*
X39035573Y53931608D01*
X39379101Y53788962D01*
X39751067Y53788638D01*
X40094843Y53930683D01*
X40358092Y54193473D01*
X40500738Y54537001D01*
X40501062Y54908967D01*
X40466346Y54992986D01*
X40466431Y54993110D01*
X40517440Y55245000D01*
X40517440Y58245000D01*
X40473162Y58480317D01*
X40334090Y58696441D01*
X40121890Y58841431D01*
X39870000Y58892440D01*
X38870000Y58892440D01*
X38634683Y58848162D01*
X38418559Y58709090D01*
X38273569Y58496890D01*
X38222560Y58245000D01*
X37977440Y58245000D01*
X37933162Y58480317D01*
X37794090Y58696441D01*
X37581890Y58841431D01*
X37330000Y58892440D01*
X36330000Y58892440D01*
X36094683Y58848162D01*
X35878559Y58709090D01*
X35733569Y58496890D01*
X35682560Y58245000D01*
X16976999Y58245000D01*
X16795679Y58426636D01*
X15974519Y58767611D01*
X15085381Y58768387D01*
X14263628Y58428845D01*
X13634364Y57800679D01*
X13293389Y56979519D01*
X13292613Y56090381D01*
X710000Y56090381D01*
X710000Y59615000D01*
X65573968Y59615000D01*
X65167734Y59208766D01*
X65167734Y59208766D01*
G37*
X65167734Y59208766D02*
X64956371Y58892440D01*
X64270000Y58892440D01*
X64034683Y58848162D01*
X63818559Y58709090D01*
X63673569Y58496890D01*
X63622560Y58245000D01*
X63622560Y55245000D01*
X63654694Y55074221D01*
X63467241Y54996767D01*
X63403727Y55060392D01*
X63344995Y55084780D01*
X63377440Y55245000D01*
X63377440Y58245000D01*
X63333162Y58480317D01*
X63194090Y58696441D01*
X62981890Y58841431D01*
X62730000Y58892440D01*
X61730000Y58892440D01*
X61494683Y58848162D01*
X61278559Y58709090D01*
X61133569Y58496890D01*
X61082560Y58245000D01*
X61082560Y55245000D01*
X61126838Y55009683D01*
X61265910Y54793559D01*
X61478110Y54648569D01*
X61525855Y54638900D01*
X61527852Y54628861D01*
X61692599Y54382299D01*
X61938285Y54136613D01*
X61938238Y54083033D01*
X62080283Y53739257D01*
X62343073Y53476008D01*
X62640656Y53352440D01*
X61730000Y53352440D01*
X61494683Y53308162D01*
X61278559Y53169090D01*
X61133569Y52956890D01*
X61082560Y52705000D01*
X61082560Y49705000D01*
X61087073Y49681016D01*
X61007747Y49489978D01*
X60914917Y49714643D01*
X60837440Y49792255D01*
X60837440Y52705000D01*
X60793162Y52940317D01*
X60654090Y53156441D01*
X60441890Y53301431D01*
X60190000Y53352440D01*
X59624600Y53352440D01*
X59624600Y53779498D01*
X60227401Y54382299D01*
X60392148Y54628861D01*
X60393540Y54635859D01*
X60425317Y54641838D01*
X60641441Y54780910D01*
X60786431Y54993110D01*
X60837440Y55245000D01*
X60837440Y58245000D01*
X60793162Y58480317D01*
X60654090Y58696441D01*
X60441890Y58841431D01*
X60190000Y58892440D01*
X59190000Y58892440D01*
X58954683Y58848162D01*
X58738559Y58709090D01*
X58593569Y58496890D01*
X58542560Y58245000D01*
X58542560Y55245000D01*
X58586838Y55009683D01*
X58633174Y54937676D01*
X58327199Y54631701D01*
X58162452Y54385139D01*
X58104600Y54094300D01*
X58104600Y53162925D01*
X57901890Y53301431D01*
X57650000Y53352440D01*
X56650000Y53352440D01*
X56414683Y53308162D01*
X56198559Y53169090D01*
X56053569Y52956890D01*
X56002560Y52705000D01*
X56002560Y49705000D01*
X56030373Y49557184D01*
X55987857Y49539617D01*
X55724608Y49276827D01*
X55650423Y49098170D01*
X55650661Y49371488D01*
X55706431Y49453110D01*
X55757440Y49705000D01*
X55757440Y52705000D01*
X55713162Y52940317D01*
X55710113Y52945056D01*
X55745792Y52980673D01*
X55888438Y53324201D01*
X55888762Y53696167D01*
X55746717Y54039943D01*
X55713600Y54073118D01*
X55713600Y54576100D01*
X55655748Y54866939D01*
X55638183Y54893226D01*
X55706431Y54993110D01*
X55757440Y55245000D01*
X55757440Y58245000D01*
X56002560Y58245000D01*
X56002560Y55245000D01*
X56046838Y55009683D01*
X56185910Y54793559D01*
X56215040Y54773655D01*
X56214838Y54541233D01*
X56356883Y54197457D01*
X56619673Y53934208D01*
X56963201Y53791562D01*
X57335167Y53791238D01*
X57678943Y53933283D01*
X57942192Y54196073D01*
X58084838Y54539601D01*
X58085039Y54770356D01*
X58101441Y54780910D01*
X58246431Y54993110D01*
X58297440Y55245000D01*
X58297440Y58245000D01*
X58253162Y58480317D01*
X58114090Y58696441D01*
X57901890Y58841431D01*
X57650000Y58892440D01*
X56650000Y58892440D01*
X56414683Y58848162D01*
X56198559Y58709090D01*
X56053569Y58496890D01*
X56002560Y58245000D01*
X55757440Y58245000D01*
X55713162Y58480317D01*
X55574090Y58696441D01*
X55361890Y58841431D01*
X55110000Y58892440D01*
X54110000Y58892440D01*
X53874683Y58848162D01*
X53658559Y58709090D01*
X53513569Y58496890D01*
X53462560Y58245000D01*
X53462560Y55245000D01*
X53506838Y55009683D01*
X53645910Y54793559D01*
X53858110Y54648569D01*
X53905855Y54638900D01*
X53907852Y54628861D01*
X54072599Y54382299D01*
X54193600Y54261298D01*
X54193600Y54073463D01*
X54161408Y54041327D01*
X54018762Y53697799D01*
X54018446Y53335213D01*
X53874683Y53308162D01*
X53658559Y53169090D01*
X53513569Y52956890D01*
X53462560Y52705000D01*
X53462560Y49705000D01*
X53506838Y49469683D01*
X53645910Y49253559D01*
X53780477Y49161614D01*
X53780338Y49002533D01*
X53922383Y48658757D01*
X54185173Y48395508D01*
X54528701Y48252862D01*
X54900667Y48252538D01*
X55244443Y48394583D01*
X55507692Y48657373D01*
X55581877Y48836030D01*
X55581638Y48561333D01*
X55723683Y48217557D01*
X55986473Y47954308D01*
X56330001Y47811662D01*
X56701967Y47811338D01*
X57045743Y47953383D01*
X57308992Y48216173D01*
X57451638Y48559701D01*
X57451679Y48606577D01*
X57687401Y48842299D01*
X57852148Y49088861D01*
X57853540Y49095859D01*
X57885317Y49101838D01*
X58101441Y49240910D01*
X58109448Y49252628D01*
X58162452Y48986161D01*
X58327199Y48739599D01*
X58652778Y48414020D01*
X58652738Y48368533D01*
X58794783Y48024757D01*
X59057573Y47761508D01*
X59401101Y47618862D01*
X59773067Y47618538D01*
X60116843Y47760583D01*
X60380092Y48023373D01*
X60509100Y48334057D01*
X60650743Y48392583D01*
X60913992Y48655373D01*
X60999053Y48860222D01*
X61091883Y48635557D01*
X61354673Y48372308D01*
X61698201Y48229662D01*
X62070167Y48229338D01*
X62413943Y48371383D01*
X62677192Y48634173D01*
X62762160Y48838797D01*
X62767401Y48842299D01*
X62932148Y49088861D01*
X62933540Y49095859D01*
X62965317Y49101838D01*
X63181441Y49240910D01*
X63326431Y49453110D01*
X63377440Y49705000D01*
X63377440Y52705000D01*
X63333162Y52940317D01*
X63194090Y53156441D01*
X62981890Y53301431D01*
X62824804Y53333242D01*
X63058567Y53333038D01*
X63329859Y53445133D01*
X63393373Y53381508D01*
X63635000Y53281175D01*
X63635000Y52766431D01*
X63622560Y52705000D01*
X63622560Y49705000D01*
X63666838Y49469683D01*
X63805910Y49253559D01*
X64018110Y49108569D01*
X64270000Y49057560D01*
X65270000Y49057560D01*
X65505317Y49101838D01*
X65721441Y49240910D01*
X65866431Y49453110D01*
X65917440Y49705000D01*
X65917440Y50919250D01*
X66175000Y50919250D01*
X66175000Y49578691D01*
X66271673Y49345302D01*
X66450301Y49166673D01*
X66683690Y49070000D01*
X67024250Y49070000D01*
X67183000Y49228750D01*
X67183000Y51078000D01*
X67437000Y51078000D01*
X67437000Y49228750D01*
X67595750Y49070000D01*
X67936310Y49070000D01*
X68169699Y49166673D01*
X68348327Y49345302D01*
X68445000Y49578691D01*
X68445000Y50919250D01*
X68715000Y50919250D01*
X68715000Y49578691D01*
X68811673Y49345302D01*
X68990301Y49166673D01*
X69223690Y49070000D01*
X69564250Y49070000D01*
X69723000Y49228750D01*
X69723000Y51078000D01*
X69977000Y51078000D01*
X69977000Y49228750D01*
X70135750Y49070000D01*
X70476310Y49070000D01*
X70709699Y49166673D01*
X70888327Y49345302D01*
X70985000Y49578691D01*
X70985000Y50919250D01*
X70826250Y51078000D01*
X69977000Y51078000D01*
X69723000Y51078000D01*
X68873750Y51078000D01*
X68715000Y50919250D01*
X68445000Y50919250D01*
X68286250Y51078000D01*
X67437000Y51078000D01*
X67183000Y51078000D01*
X66333750Y51078000D01*
X66175000Y50919250D01*
X65917440Y50919250D01*
X65917440Y52705000D01*
X65905000Y52771113D01*
X65905000Y52831309D01*
X66175000Y52831309D01*
X66175000Y51490750D01*
X66333750Y51332000D01*
X67183000Y51332000D01*
X67183000Y53181250D01*
X67437000Y53181250D01*
X67437000Y51332000D01*
X68286250Y51332000D01*
X68445000Y51490750D01*
X68445000Y52831309D01*
X68348327Y53064698D01*
X68169699Y53243327D01*
X67936310Y53340000D01*
X67595750Y53340000D01*
X67437000Y53181250D01*
X67183000Y53181250D01*
X67024250Y53340000D01*
X66683690Y53340000D01*
X66450301Y53243327D01*
X66271673Y53064698D01*
X66175000Y52831309D01*
X65905000Y52831309D01*
X65905000Y52935168D01*
X66637433Y53667600D01*
X66811401Y53595362D01*
X67183367Y53595038D01*
X67527143Y53737083D01*
X67790392Y53999873D01*
X67933038Y54343401D01*
X67933184Y54510682D01*
X68012148Y54628861D01*
X68013540Y54635859D01*
X68045317Y54641838D01*
X68261441Y54780910D01*
X68406431Y54993110D01*
X68457440Y55245000D01*
X68457440Y57875500D01*
X68702560Y57875500D01*
X68702560Y55245000D01*
X68746838Y55009683D01*
X68885910Y54793559D01*
X69098110Y54648569D01*
X69145855Y54638900D01*
X69147852Y54628861D01*
X69169756Y54596079D01*
X69042162Y54288799D01*
X69041838Y53916833D01*
X69183883Y53573057D01*
X69416534Y53340000D01*
X69223690Y53340000D01*
X68990301Y53243327D01*
X68811673Y53064698D01*
X68715000Y52831309D01*
X68715000Y51490750D01*
X68873750Y51332000D01*
X69723000Y51332000D01*
X69723000Y51352000D01*
X69977000Y51352000D01*
X69977000Y51332000D01*
X70826250Y51332000D01*
X70985000Y51490750D01*
X70985000Y52831309D01*
X70888327Y53064698D01*
X70709699Y53243327D01*
X70519283Y53322200D01*
X70769192Y53571673D01*
X70911838Y53915201D01*
X70912051Y54159700D01*
X71630000Y54159700D01*
X71630000Y53292279D01*
X71438559Y53169090D01*
X71293569Y52956890D01*
X71242560Y52705000D01*
X71242560Y49705000D01*
X71286838Y49469683D01*
X71425910Y49253559D01*
X71638110Y49108569D01*
X71890000Y49057560D01*
X72890000Y49057560D01*
X73125317Y49101838D01*
X73341441Y49240910D01*
X73486431Y49453110D01*
X73537440Y49705000D01*
X73537440Y52705000D01*
X73493162Y52940317D01*
X73354090Y53156441D01*
X73290372Y53199978D01*
X73553943Y53308883D01*
X73817192Y53571673D01*
X73959838Y53915201D01*
X73960162Y54287167D01*
X73818117Y54630943D01*
X73555327Y54894192D01*
X73449008Y54938340D01*
X73486431Y54993110D01*
X73537440Y55245000D01*
X73537440Y57875500D01*
X77140668Y57875500D01*
X83220326Y51795842D01*
X83037057Y51720117D01*
X82773808Y51457327D01*
X82631162Y51113799D01*
X82630838Y50741833D01*
X82657445Y50677440D01*
X82550000Y50677440D01*
X82314683Y50633162D01*
X82098559Y50494090D01*
X81953569Y50281890D01*
X81902560Y50030000D01*
X81902560Y49030000D01*
X81946838Y48794683D01*
X82085910Y48578559D01*
X82298110Y48433569D01*
X82550000Y48382560D01*
X85550000Y48382560D01*
X85570100Y48386342D01*
X85570100Y48125000D01*
X84335750Y48125000D01*
X84177000Y47966250D01*
X84177000Y47117000D01*
X84197000Y47117000D01*
X84197000Y46863000D01*
X84177000Y46863000D01*
X84177000Y46013750D01*
X84335750Y45855000D01*
X85570100Y45855000D01*
X85570100Y45585000D01*
X84335750Y45585000D01*
X84177000Y45426250D01*
X84177000Y44577000D01*
X84197000Y44577000D01*
X84197000Y44323000D01*
X84177000Y44323000D01*
X84177000Y43473750D01*
X84335750Y43315000D01*
X85570100Y43315000D01*
X85570100Y43053370D01*
X85550000Y43057440D01*
X82550000Y43057440D01*
X82314683Y43013162D01*
X82098559Y42874090D01*
X81953569Y42661890D01*
X81902560Y42410000D01*
X81902560Y41410000D01*
X81946838Y41174683D01*
X82085910Y40958559D01*
X82090533Y40955400D01*
X82079500Y40955400D01*
X81788661Y40897548D01*
X81542099Y40732801D01*
X80657440Y39848142D01*
X80657440Y39870000D01*
X80613162Y40105317D01*
X80474090Y40321441D01*
X80261890Y40466431D01*
X80010000Y40517440D01*
X77010000Y40517440D01*
X76774683Y40473162D01*
X76582766Y40349666D01*
X76435800Y40378900D01*
X67507363Y40378900D01*
X67475227Y40411092D01*
X67131699Y40553738D01*
X66759733Y40554062D01*
X66415957Y40412017D01*
X66152708Y40149227D01*
X66010062Y39805699D01*
X66009738Y39433733D01*
X66151783Y39089957D01*
X66268817Y38972719D01*
X63219620Y35923522D01*
X63174133Y35923562D01*
X62830357Y35781517D01*
X62567108Y35518727D01*
X62424462Y35175199D01*
X62424138Y34803233D01*
X62566183Y34459457D01*
X62568698Y34456937D01*
X62540133Y34456962D01*
X62196357Y34314917D01*
X61933108Y34052127D01*
X61790462Y33708599D01*
X61790138Y33336633D01*
X61932183Y32992857D01*
X61965300Y32959682D01*
X61965300Y29660200D01*
X62023152Y29369361D01*
X62187899Y29122799D01*
X62871610Y28439088D01*
X62845057Y28428117D01*
X62581808Y28165327D01*
X62439162Y27821799D01*
X62438838Y27449833D01*
X62580883Y27106057D01*
X62843673Y26842808D01*
X63187201Y26700162D01*
X63234077Y26700121D01*
X63910719Y26023479D01*
X63584499Y26158938D01*
X63212533Y26159262D01*
X62868757Y26017217D01*
X62605508Y25754427D01*
X62462862Y25410899D01*
X62462797Y25336100D01*
X60614332Y25336100D01*
X59747866Y26202566D01*
X59651881Y26266701D01*
X59379646Y26448603D01*
X58945300Y26535000D01*
X58306431Y26535000D01*
X58245000Y26547440D01*
X55679700Y26547440D01*
X55679700Y26792560D01*
X58245000Y26792560D01*
X58480317Y26836838D01*
X58696441Y26975910D01*
X58841431Y27188110D01*
X58892440Y27440000D01*
X58892440Y28440000D01*
X58848162Y28675317D01*
X58709090Y28891441D01*
X58496890Y29036431D01*
X58245000Y29087440D01*
X55759762Y29087440D01*
X55679700Y29167502D01*
X55679700Y29332560D01*
X58245000Y29332560D01*
X58480317Y29376838D01*
X58696441Y29515910D01*
X58841431Y29728110D01*
X58892440Y29980000D01*
X58892440Y30980000D01*
X58848162Y31215317D01*
X58709090Y31431441D01*
X58496890Y31576431D01*
X58245000Y31627440D01*
X55245000Y31627440D01*
X55009683Y31583162D01*
X54972100Y31558978D01*
X54972100Y31937925D01*
X54993110Y31923569D01*
X55245000Y31872560D01*
X58245000Y31872560D01*
X58480317Y31916838D01*
X58696441Y32055910D01*
X58841431Y32268110D01*
X58892440Y32520000D01*
X58892440Y33520000D01*
X58848162Y33755317D01*
X58709090Y33971441D01*
X58496890Y34116431D01*
X58245000Y34167440D01*
X55245000Y34167440D01*
X55009683Y34123162D01*
X54972100Y34098978D01*
X54972100Y34477925D01*
X54993110Y34463569D01*
X55245000Y34412560D01*
X58245000Y34412560D01*
X58480317Y34456838D01*
X58696441Y34595910D01*
X58841431Y34808110D01*
X58851100Y34855855D01*
X58861139Y34857852D01*
X59107701Y35022599D01*
X59272448Y35269161D01*
X59330300Y35560000D01*
X59330300Y37306698D01*
X60743080Y38719478D01*
X60788567Y38719438D01*
X61132343Y38861483D01*
X61395592Y39124273D01*
X61538238Y39467801D01*
X61538562Y39839767D01*
X61396517Y40183543D01*
X61133727Y40446792D01*
X60790199Y40589438D01*
X60418233Y40589762D01*
X60074457Y40447717D01*
X59811208Y40184927D01*
X59668562Y39841399D01*
X59668521Y39794523D01*
X58032899Y38158901D01*
X57868152Y37912339D01*
X57810300Y37621500D01*
X57810300Y36707440D01*
X55245000Y36707440D01*
X55111404Y36682302D01*
X57360780Y38931678D01*
X57406267Y38931638D01*
X57750043Y39073683D01*
X58013292Y39336473D01*
X58155938Y39680001D01*
X58156262Y40051967D01*
X58014217Y40395743D01*
X57751427Y40658992D01*
X57407899Y40801638D01*
X57035933Y40801962D01*
X56692157Y40659917D01*
X56428908Y40397127D01*
X56286262Y40053599D01*
X56286221Y40006723D01*
X52939459Y36659961D01*
X52705000Y36707440D01*
X49705000Y36707440D01*
X49469683Y36663162D01*
X49253559Y36524090D01*
X49108569Y36311890D01*
X49057560Y36060000D01*
X49057560Y35491800D01*
X46249399Y35491800D01*
X46118317Y35809043D01*
X45855527Y36072292D01*
X45511999Y36214938D01*
X45140033Y36215262D01*
X44796257Y36073217D01*
X44533008Y35810427D01*
X44390362Y35466899D01*
X44390038Y35094933D01*
X44465258Y34912885D01*
X44377433Y34912962D01*
X44033657Y34770917D01*
X44000482Y34737800D01*
X42736718Y34737800D01*
X42736762Y34788267D01*
X42594717Y35132043D01*
X42331927Y35395292D01*
X41988399Y35537938D01*
X41941523Y35537979D01*
X40061001Y37418501D01*
X40133067Y37418438D01*
X40476843Y37560483D01*
X40712659Y37795887D01*
X41028201Y37664862D01*
X41400167Y37664538D01*
X41743943Y37806583D01*
X42007192Y38069373D01*
X42149838Y38412901D01*
X42150162Y38784867D01*
X42008117Y39128643D01*
X41745327Y39391892D01*
X41401799Y39534538D01*
X41354923Y39534579D01*
X39164669Y41724833D01*
X63055938Y41724833D01*
X63197983Y41381057D01*
X63460773Y41117808D01*
X63804301Y40975162D01*
X64176267Y40974838D01*
X64520043Y41116883D01*
X64553218Y41150000D01*
X76422721Y41150000D01*
X76545910Y40958559D01*
X76758110Y40813569D01*
X77010000Y40762560D01*
X80010000Y40762560D01*
X80245317Y40806838D01*
X80461441Y40945910D01*
X80606431Y41158110D01*
X80657440Y41410000D01*
X80657440Y42410000D01*
X80613162Y42645317D01*
X80474090Y42861441D01*
X80261890Y43006431D01*
X80010000Y43057440D01*
X77010000Y43057440D01*
X76774683Y43013162D01*
X76558559Y42874090D01*
X76419110Y42670000D01*
X64553563Y42670000D01*
X64521427Y42702192D01*
X64177899Y42844838D01*
X63805933Y42845162D01*
X63462157Y42703117D01*
X63198908Y42440327D01*
X63056262Y42096799D01*
X63055938Y41724833D01*
X39164669Y41724833D01*
X37702469Y43187033D01*
X58160038Y43187033D01*
X58302083Y42843257D01*
X58564873Y42580008D01*
X58908401Y42437362D01*
X59280367Y42437038D01*
X59624143Y42579083D01*
X59657318Y42612200D01*
X59813300Y42612200D01*
X60104139Y42670052D01*
X60350701Y42834799D01*
X61385135Y43869233D01*
X65557138Y43869233D01*
X65699183Y43525457D01*
X65961973Y43262208D01*
X66305501Y43119562D01*
X66677467Y43119238D01*
X67021243Y43261283D01*
X67054418Y43294400D01*
X76289100Y43294400D01*
X76579939Y43352252D01*
X76670994Y43413093D01*
X76758110Y43353569D01*
X77010000Y43302560D01*
X80010000Y43302560D01*
X80245317Y43346838D01*
X80432381Y43467210D01*
X80495673Y43403808D01*
X80839201Y43261162D01*
X81211167Y43260838D01*
X81554943Y43402883D01*
X81818192Y43665673D01*
X81915000Y43898811D01*
X81915000Y43823690D01*
X82011673Y43590301D01*
X82190302Y43411673D01*
X82423691Y43315000D01*
X83764250Y43315000D01*
X83923000Y43473750D01*
X83923000Y44323000D01*
X83903000Y44323000D01*
X83903000Y44577000D01*
X83923000Y44577000D01*
X83923000Y45426250D01*
X83764250Y45585000D01*
X82423691Y45585000D01*
X82190302Y45488327D01*
X82011673Y45309699D01*
X81929644Y45111663D01*
X81781851Y45332851D01*
X80746457Y46368245D01*
X80872701Y46452599D01*
X81037448Y46699161D01*
X81038460Y46704250D01*
X81915000Y46704250D01*
X81915000Y46363690D01*
X82011673Y46130301D01*
X82190302Y45951673D01*
X82423691Y45855000D01*
X83764250Y45855000D01*
X83923000Y46013750D01*
X83923000Y46863000D01*
X82073750Y46863000D01*
X81915000Y46704250D01*
X81038460Y46704250D01*
X81095300Y46990000D01*
X81095300Y47616310D01*
X81915000Y47616310D01*
X81915000Y47275750D01*
X82073750Y47117000D01*
X83923000Y47117000D01*
X83923000Y47966250D01*
X83764250Y48125000D01*
X82423691Y48125000D01*
X82190302Y48028327D01*
X82011673Y47849699D01*
X81915000Y47616310D01*
X81095300Y47616310D01*
X81095300Y47704700D01*
X81037448Y47995539D01*
X80872701Y48242101D01*
X80496939Y48617863D01*
X80606431Y48778110D01*
X80657440Y49030000D01*
X80657440Y50030000D01*
X80613162Y50265317D01*
X80474090Y50481441D01*
X80261890Y50626431D01*
X80010000Y50677440D01*
X77010000Y50677440D01*
X76774683Y50633162D01*
X76558559Y50494090D01*
X76413569Y50281890D01*
X76362560Y50030000D01*
X76362560Y49030000D01*
X76406838Y48794683D01*
X76545910Y48578559D01*
X76758110Y48433569D01*
X77010000Y48382560D01*
X77678106Y48382560D01*
X77677893Y48137440D01*
X77010000Y48137440D01*
X76774683Y48093162D01*
X76558559Y47954090D01*
X76413569Y47741890D01*
X76362560Y47490000D01*
X76362560Y46490000D01*
X76406838Y46254683D01*
X76545910Y46038559D01*
X76758110Y45893569D01*
X77010000Y45842560D01*
X79122538Y45842560D01*
X79367658Y45597440D01*
X77010000Y45597440D01*
X76774683Y45553162D01*
X76558559Y45414090D01*
X76413569Y45201890D01*
X76403900Y45154145D01*
X76393861Y45152148D01*
X76147299Y44987401D01*
X75974298Y44814400D01*
X67054763Y44814400D01*
X67022627Y44846592D01*
X66679099Y44989238D01*
X66307133Y44989562D01*
X65963357Y44847517D01*
X65700108Y44584727D01*
X65557462Y44241199D01*
X65557138Y43869233D01*
X61385135Y43869233D01*
X63653080Y46137178D01*
X63698567Y46137138D01*
X64042343Y46279183D01*
X64305592Y46541973D01*
X64448238Y46885501D01*
X64448562Y47257467D01*
X64306517Y47601243D01*
X64043727Y47864492D01*
X63700199Y48007138D01*
X63328233Y48007462D01*
X62984457Y47865417D01*
X62721208Y47602627D01*
X62578562Y47259099D01*
X62578521Y47212223D01*
X59558516Y44192218D01*
X59281999Y44307038D01*
X58910033Y44307362D01*
X58566257Y44165317D01*
X58303008Y43902527D01*
X58160362Y43558999D01*
X58160038Y43187033D01*
X37702469Y43187033D01*
X36977401Y43912101D01*
X36730839Y44076848D01*
X36440000Y44134700D01*
X32337000Y44134700D01*
X32337000Y44164250D01*
X32178250Y44323000D01*
X30329000Y44323000D01*
X30329000Y44303000D01*
X30075000Y44303000D01*
X30075000Y44323000D01*
X28225750Y44323000D01*
X28067000Y44164250D01*
X28067000Y44134700D01*
X27877402Y44134700D01*
X27024701Y44987401D01*
X26891639Y45076310D01*
X28067000Y45076310D01*
X28067000Y44735750D01*
X28225750Y44577000D01*
X30075000Y44577000D01*
X30075000Y45426250D01*
X30329000Y45426250D01*
X30329000Y44577000D01*
X32178250Y44577000D01*
X32337000Y44735750D01*
X32337000Y45076310D01*
X32240327Y45309699D01*
X32061698Y45488327D01*
X31828309Y45585000D01*
X30487750Y45585000D01*
X30329000Y45426250D01*
X30075000Y45426250D01*
X29916250Y45585000D01*
X28575691Y45585000D01*
X28342302Y45488327D01*
X28163673Y45309699D01*
X28067000Y45076310D01*
X26891639Y45076310D01*
X26778139Y45152148D01*
X26771141Y45153540D01*
X26765162Y45185317D01*
X26626090Y45401441D01*
X26413890Y45546431D01*
X26162000Y45597440D01*
X23162000Y45597440D01*
X22926683Y45553162D01*
X22710559Y45414090D01*
X22565569Y45201890D01*
X22514560Y44950000D01*
X22514560Y43950000D01*
X22558838Y43714683D01*
X22697910Y43498559D01*
X22910110Y43353569D01*
X23162000Y43302560D01*
X26162000Y43302560D01*
X26397317Y43346838D01*
X26469324Y43393174D01*
X26682498Y43180000D01*
X26470351Y42967853D01*
X26413890Y43006431D01*
X26162000Y43057440D01*
X23162000Y43057440D01*
X22926683Y43013162D01*
X22710559Y42874090D01*
X22565569Y42661890D01*
X22514560Y42410000D01*
X22514560Y41717181D01*
X22207734Y41512166D01*
X15834434Y35138866D01*
X15588397Y34770646D01*
X15502000Y34336300D01*
X15502000Y31121565D01*
X15423559Y31071090D01*
X15367626Y30989230D01*
X15323090Y31058441D01*
X15110890Y31203431D01*
X14859000Y31254440D01*
X13335000Y31254440D01*
X13099683Y31210162D01*
X12883559Y31071090D01*
X12738569Y30858890D01*
X12687560Y30607000D01*
X12687560Y29083000D01*
X12731838Y28847683D01*
X12870910Y28631559D01*
X13083110Y28486569D01*
X13335000Y28435560D01*
X14859000Y28435560D01*
X15094317Y28479838D01*
X15310441Y28618910D01*
X15366374Y28700770D01*
X15410910Y28631559D01*
X15623110Y28486569D01*
X15875000Y28435560D01*
X17399000Y28435560D01*
X17634317Y28479838D01*
X17850441Y28618910D01*
X17995431Y28831110D01*
X18046440Y29083000D01*
X18046440Y30607000D01*
X18002162Y30842317D01*
X17863090Y31058441D01*
X17772000Y31120680D01*
X17772000Y33866168D01*
X22555936Y38650104D01*
X22558838Y38634683D01*
X22697910Y38418559D01*
X22910110Y38273569D01*
X23162000Y38222560D01*
X26162000Y38222560D01*
X26397317Y38266838D01*
X26469324Y38313174D01*
X26775199Y38007299D01*
X27021760Y37842552D01*
X27070014Y37832954D01*
X27312600Y37784700D01*
X28244143Y37784700D01*
X28105569Y37581890D01*
X28054560Y37330000D01*
X28054560Y36337542D01*
X27024701Y37367401D01*
X26778139Y37532148D01*
X26771141Y37533540D01*
X26765162Y37565317D01*
X26626090Y37781441D01*
X26413890Y37926431D01*
X26162000Y37977440D01*
X23162000Y37977440D01*
X22926683Y37933162D01*
X22710559Y37794090D01*
X22565569Y37581890D01*
X22514560Y37330000D01*
X22514560Y36330000D01*
X22558838Y36094683D01*
X22697910Y35878559D01*
X22910110Y35733569D01*
X23162000Y35682560D01*
X26162000Y35682560D01*
X26397317Y35726838D01*
X26469324Y35773174D01*
X27368199Y34874299D01*
X27614761Y34709552D01*
X27905600Y34651700D01*
X28054560Y34651700D01*
X28054560Y33797542D01*
X27024701Y34827401D01*
X26778139Y34992148D01*
X26771141Y34993540D01*
X26765162Y35025317D01*
X26626090Y35241441D01*
X26413890Y35386431D01*
X26162000Y35437440D01*
X23162000Y35437440D01*
X22926683Y35393162D01*
X22710559Y35254090D01*
X22565569Y35041890D01*
X22514560Y34790000D01*
X22514560Y33790000D01*
X22558838Y33554683D01*
X22697910Y33338559D01*
X22910110Y33193569D01*
X23162000Y33142560D01*
X26162000Y33142560D01*
X26397317Y33186838D01*
X26469324Y33233174D01*
X27611499Y32090999D01*
X27858060Y31926252D01*
X28054560Y31887165D01*
X28054560Y31486100D01*
X27826002Y31486100D01*
X27024701Y32287401D01*
X26778139Y32452148D01*
X26771141Y32453540D01*
X26765162Y32485317D01*
X26626090Y32701441D01*
X26413890Y32846431D01*
X26162000Y32897440D01*
X23162000Y32897440D01*
X22926683Y32853162D01*
X22710559Y32714090D01*
X22565569Y32501890D01*
X22514560Y32250000D01*
X22514560Y31250000D01*
X22558838Y31014683D01*
X22697910Y30798559D01*
X22910110Y30653569D01*
X23162000Y30602560D01*
X26162000Y30602560D01*
X26397317Y30646838D01*
X26469324Y30693174D01*
X26682498Y30480000D01*
X26470351Y30267853D01*
X26413890Y30306431D01*
X26162000Y30357440D01*
X23162000Y30357440D01*
X22926683Y30313162D01*
X22710559Y30174090D01*
X22565569Y29961890D01*
X22514560Y29710000D01*
X22514560Y28710000D01*
X22558838Y28474683D01*
X22697910Y28258559D01*
X22910110Y28113569D01*
X23162000Y28062560D01*
X26162000Y28062560D01*
X26397317Y28106838D01*
X26613441Y28245910D01*
X26758431Y28458110D01*
X26768100Y28505855D01*
X26778139Y28507852D01*
X27024701Y28672599D01*
X27627402Y29275300D01*
X28054560Y29275300D01*
X28054560Y28710000D01*
X28098838Y28474683D01*
X28237910Y28258559D01*
X28242680Y28255300D01*
X27312600Y28255300D01*
X27103465Y28213700D01*
X27021760Y28197448D01*
X26775199Y28032701D01*
X26470351Y27727853D01*
X26413890Y27766431D01*
X26162000Y27817440D01*
X23162000Y27817440D01*
X22926683Y27773162D01*
X22710559Y27634090D01*
X22565569Y27421890D01*
X22514560Y27170000D01*
X22514560Y26170000D01*
X22558838Y25934683D01*
X22697910Y25718559D01*
X22910110Y25573569D01*
X23162000Y25522560D01*
X26162000Y25522560D01*
X26397317Y25566838D01*
X26613441Y25705910D01*
X26758431Y25918110D01*
X26768100Y25965855D01*
X26778139Y25967852D01*
X27024701Y26132599D01*
X27627402Y26735300D01*
X28054560Y26735300D01*
X28054560Y26170000D01*
X28098838Y25934683D01*
X28126111Y25892300D01*
X27489600Y25892300D01*
X27198760Y25834448D01*
X26952199Y25669701D01*
X26470351Y25187853D01*
X26413890Y25226431D01*
X26162000Y25277440D01*
X23162000Y25277440D01*
X22926683Y25233162D01*
X22710559Y25094090D01*
X22565569Y24881890D01*
X22514560Y24630000D01*
X22514560Y23630000D01*
X22558838Y23394683D01*
X22697910Y23178559D01*
X22910110Y23033569D01*
X23162000Y22982560D01*
X26162000Y22982560D01*
X26397317Y23026838D01*
X26613441Y23165910D01*
X26758431Y23378110D01*
X26768100Y23425855D01*
X26778139Y23427852D01*
X27024701Y23592599D01*
X27804402Y24372300D01*
X28054560Y24372300D01*
X28054560Y23638700D01*
X27776000Y23638700D01*
X27485161Y23580848D01*
X27238599Y23416101D01*
X26470351Y22647853D01*
X26413890Y22686431D01*
X26162000Y22737440D01*
X23162000Y22737440D01*
X22926683Y22693162D01*
X22710559Y22554090D01*
X22565569Y22341890D01*
X22514560Y22090000D01*
X22514560Y21090000D01*
X22558838Y20854683D01*
X22697910Y20638559D01*
X22910110Y20493569D01*
X23162000Y20442560D01*
X26162000Y20442560D01*
X26397317Y20486838D01*
X26613441Y20625910D01*
X26758431Y20838110D01*
X26768100Y20885855D01*
X26778139Y20887852D01*
X27024701Y21052599D01*
X28054560Y22082458D01*
X28054560Y21090000D01*
X28098838Y20854683D01*
X28237910Y20638559D01*
X28242680Y20635300D01*
X27312600Y20635300D01*
X27078529Y20588740D01*
X27021760Y20577448D01*
X26775199Y20412701D01*
X26470351Y20107853D01*
X26413890Y20146431D01*
X26162000Y20197440D01*
X23162000Y20197440D01*
X22926683Y20153162D01*
X22710559Y20014090D01*
X22565569Y19801890D01*
X22514560Y19550000D01*
X22514560Y18550000D01*
X22558838Y18314683D01*
X22697910Y18098559D01*
X22910110Y17953569D01*
X23162000Y17902560D01*
X26162000Y17902560D01*
X26397317Y17946838D01*
X26613441Y18085910D01*
X26758431Y18298110D01*
X26768100Y18345855D01*
X26778139Y18347852D01*
X27024701Y18512599D01*
X27627402Y19115300D01*
X28054560Y19115300D01*
X28054560Y18819100D01*
X28036400Y18819100D01*
X27745560Y18761248D01*
X27498999Y18596501D01*
X26470351Y17567853D01*
X26413890Y17606431D01*
X26162000Y17657440D01*
X23162000Y17657440D01*
X22926683Y17613162D01*
X22710559Y17474090D01*
X22565569Y17261890D01*
X22514560Y17010000D01*
X22514560Y16010000D01*
X22558838Y15774683D01*
X22697910Y15558559D01*
X22910110Y15413569D01*
X23162000Y15362560D01*
X26162000Y15362560D01*
X26397317Y15406838D01*
X26613441Y15545910D01*
X26758431Y15758110D01*
X26768100Y15805855D01*
X26778139Y15807852D01*
X27024701Y15972599D01*
X28054560Y17002458D01*
X28054560Y16010000D01*
X28098838Y15774683D01*
X28237910Y15558559D01*
X28450110Y15413569D01*
X28702000Y15362560D01*
X31702000Y15362560D01*
X31937317Y15406838D01*
X32153441Y15545910D01*
X32298431Y15758110D01*
X32308100Y15805855D01*
X32318139Y15807852D01*
X32364157Y15838600D01*
X32821098Y15838600D01*
X32010351Y15027853D01*
X31953890Y15066431D01*
X31702000Y15117440D01*
X28702000Y15117440D01*
X28466683Y15073162D01*
X28250559Y14934090D01*
X28105569Y14721890D01*
X28054560Y14470000D01*
X28054560Y13904700D01*
X27627402Y13904700D01*
X27024701Y14507401D01*
X26778139Y14672148D01*
X26771141Y14673540D01*
X26765162Y14705317D01*
X26626090Y14921441D01*
X26413890Y15066431D01*
X26162000Y15117440D01*
X23162000Y15117440D01*
X22926683Y15073162D01*
X22710559Y14934090D01*
X22565569Y14721890D01*
X22514560Y14470000D01*
X22514560Y13470000D01*
X22558838Y13234683D01*
X22697910Y13018559D01*
X22910110Y12873569D01*
X23162000Y12822560D01*
X26162000Y12822560D01*
X26397317Y12866838D01*
X26469324Y12913174D01*
X26775199Y12607299D01*
X27021760Y12442552D01*
X27070014Y12432954D01*
X27312600Y12384700D01*
X36413337Y12384700D01*
X36445473Y12352508D01*
X36789001Y12209862D01*
X37160967Y12209538D01*
X37504743Y12351583D01*
X37767992Y12614373D01*
X37910638Y12957901D01*
X37910962Y13329867D01*
X37816825Y13557696D01*
X37926431Y13718110D01*
X37977440Y13970000D01*
X37977440Y16970000D01*
X37933162Y17205317D01*
X37886826Y17277324D01*
X39858202Y19248700D01*
X40248597Y19248700D01*
X38832599Y17832701D01*
X38667852Y17586139D01*
X38666460Y17579141D01*
X38634683Y17573162D01*
X38418559Y17434090D01*
X38273569Y17221890D01*
X38222560Y16970000D01*
X38222560Y13970000D01*
X38266838Y13734683D01*
X38405910Y13518559D01*
X38618110Y13373569D01*
X38870000Y13322560D01*
X39862458Y13322560D01*
X38832599Y12292701D01*
X38667852Y12046139D01*
X38666460Y12039141D01*
X38634683Y12033162D01*
X38418559Y11894090D01*
X38273569Y11681890D01*
X38222560Y11430000D01*
X38222560Y10786208D01*
X38033199Y10864838D01*
X37977440Y10864887D01*
X37977440Y11430000D01*
X37933162Y11665317D01*
X37794090Y11881441D01*
X37581890Y12026431D01*
X37330000Y12077440D01*
X36330000Y12077440D01*
X36094683Y12033162D01*
X35878559Y11894090D01*
X35733569Y11681890D01*
X35682560Y11430000D01*
X35682560Y8430000D01*
X35726838Y8194683D01*
X35865910Y7978559D01*
X36078110Y7833569D01*
X36330000Y7782560D01*
X37330000Y7782560D01*
X37565317Y7826838D01*
X37781441Y7965910D01*
X37926431Y8178110D01*
X37977440Y8430000D01*
X37977440Y8994885D01*
X38031567Y8994838D01*
X38222560Y9073755D01*
X38222560Y8430000D01*
X38266838Y8194683D01*
X38405910Y7978559D01*
X38618110Y7833569D01*
X38870000Y7782560D01*
X39870000Y7782560D01*
X40105317Y7826838D01*
X40321441Y7965910D01*
X40466431Y8178110D01*
X40517440Y8430000D01*
X40517440Y11430000D01*
X40473162Y11665317D01*
X40426826Y11737324D01*
X41529402Y12839900D01*
X41967869Y12839900D01*
X41822999Y12743101D01*
X41372599Y12292701D01*
X41207852Y12046139D01*
X41206460Y12039141D01*
X41174683Y12033162D01*
X40958559Y11894090D01*
X40813569Y11681890D01*
X40762560Y11430000D01*
X40762560Y8430000D01*
X40806838Y8194683D01*
X40945910Y7978559D01*
X41158110Y7833569D01*
X41410000Y7782560D01*
X42410000Y7782560D01*
X42645317Y7826838D01*
X42861441Y7965910D01*
X43006431Y8178110D01*
X43057440Y8430000D01*
X43057440Y11430000D01*
X43054486Y11445700D01*
X43305739Y11445700D01*
X43302560Y11430000D01*
X43302560Y8430000D01*
X43346838Y8194683D01*
X43485910Y7978559D01*
X43698110Y7833569D01*
X43950000Y7782560D01*
X44950000Y7782560D01*
X45185317Y7826838D01*
X45401441Y7965910D01*
X45546431Y8178110D01*
X45597440Y8430000D01*
X45597440Y10995300D01*
X45842560Y10995300D01*
X45842560Y8430000D01*
X45886838Y8194683D01*
X46025910Y7978559D01*
X46238110Y7833569D01*
X46490000Y7782560D01*
X47490000Y7782560D01*
X47725317Y7826838D01*
X47941441Y7965910D01*
X48086431Y8178110D01*
X48137440Y8430000D01*
X48137440Y10002638D01*
X48382560Y10247758D01*
X48382560Y8430000D01*
X48426838Y8194683D01*
X48565910Y7978559D01*
X48778110Y7833569D01*
X49030000Y7782560D01*
X50030000Y7782560D01*
X50265317Y7826838D01*
X50481441Y7965910D01*
X50626431Y8178110D01*
X50677440Y8430000D01*
X50677440Y10995300D01*
X50896755Y10995300D01*
X50922560Y10984585D01*
X50922560Y8430000D01*
X50966838Y8194683D01*
X51105910Y7978559D01*
X51318110Y7833569D01*
X51570000Y7782560D01*
X52570000Y7782560D01*
X52805317Y7826838D01*
X53021441Y7965910D01*
X53166431Y8178110D01*
X53217440Y8430000D01*
X53217440Y11430000D01*
X53173162Y11665317D01*
X53126826Y11737324D01*
X53801502Y12412000D01*
X54251143Y12412000D01*
X54072599Y12292701D01*
X53907852Y12046139D01*
X53906460Y12039141D01*
X53874683Y12033162D01*
X53658559Y11894090D01*
X53513569Y11681890D01*
X53462560Y11430000D01*
X53462560Y8430000D01*
X53506838Y8194683D01*
X53645910Y7978559D01*
X53858110Y7833569D01*
X54110000Y7782560D01*
X55110000Y7782560D01*
X55345317Y7826838D01*
X55561441Y7965910D01*
X55706431Y8178110D01*
X55757440Y8430000D01*
X55757440Y10820182D01*
X55807767Y10820138D01*
X56002560Y10900625D01*
X56002560Y8430000D01*
X56046838Y8194683D01*
X56185910Y7978559D01*
X56398110Y7833569D01*
X56650000Y7782560D01*
X57650000Y7782560D01*
X57885317Y7826838D01*
X58101441Y7965910D01*
X58246431Y8178110D01*
X58297440Y8430000D01*
X58297440Y11430000D01*
X58542560Y11430000D01*
X58542560Y8430000D01*
X58586838Y8194683D01*
X58725910Y7978559D01*
X58938110Y7833569D01*
X59190000Y7782560D01*
X60190000Y7782560D01*
X60425317Y7826838D01*
X60641441Y7965910D01*
X60786431Y8178110D01*
X60837440Y8430000D01*
X60837440Y11430000D01*
X60793162Y11665317D01*
X60781824Y11682937D01*
X60812038Y11755701D01*
X60812362Y12127667D01*
X60670317Y12471443D01*
X60407527Y12734692D01*
X60063999Y12877338D01*
X59692033Y12877662D01*
X59348257Y12735617D01*
X59085008Y12472827D01*
X58942362Y12129299D01*
X58942271Y12025175D01*
X58738559Y11894090D01*
X58593569Y11681890D01*
X58542560Y11430000D01*
X58297440Y11430000D01*
X58253162Y11665317D01*
X58206826Y11737324D01*
X58950001Y12480499D01*
X59029518Y12599504D01*
X59204892Y12774573D01*
X59347538Y13118101D01*
X59347716Y13322560D01*
X60190000Y13322560D01*
X60425317Y13366838D01*
X60641441Y13505910D01*
X60786431Y13718110D01*
X60837440Y13970000D01*
X60837440Y16885138D01*
X61123254Y17170952D01*
X61082560Y16970000D01*
X61082560Y13970000D01*
X61126838Y13734683D01*
X61265910Y13518559D01*
X61478110Y13373569D01*
X61730000Y13322560D01*
X62378800Y13322560D01*
X62378800Y12978902D01*
X61692599Y12292701D01*
X61527852Y12046139D01*
X61526460Y12039141D01*
X61494683Y12033162D01*
X61278559Y11894090D01*
X61133569Y11681890D01*
X61082560Y11430000D01*
X61082560Y8430000D01*
X61126838Y8194683D01*
X61265910Y7978559D01*
X61478110Y7833569D01*
X61730000Y7782560D01*
X62730000Y7782560D01*
X62965317Y7826838D01*
X63181441Y7965910D01*
X63326431Y8178110D01*
X63377440Y8430000D01*
X63377440Y11430000D01*
X63333162Y11665317D01*
X63286826Y11737324D01*
X63635000Y12085498D01*
X63635000Y11491431D01*
X63622560Y11430000D01*
X63622560Y8430000D01*
X63666838Y8194683D01*
X63805910Y7978559D01*
X64018110Y7833569D01*
X64270000Y7782560D01*
X65270000Y7782560D01*
X65505317Y7826838D01*
X65721441Y7965910D01*
X65866431Y8178110D01*
X65917440Y8430000D01*
X65917440Y9644250D01*
X66175000Y9644250D01*
X66175000Y8303691D01*
X66271673Y8070302D01*
X66450301Y7891673D01*
X66683690Y7795000D01*
X67024250Y7795000D01*
X67183000Y7953750D01*
X67183000Y9803000D01*
X67437000Y9803000D01*
X67437000Y7953750D01*
X67595750Y7795000D01*
X67936310Y7795000D01*
X68169699Y7891673D01*
X68348327Y8070302D01*
X68445000Y8303691D01*
X68445000Y9644250D01*
X68715000Y9644250D01*
X68715000Y8303691D01*
X68811673Y8070302D01*
X68990301Y7891673D01*
X69223690Y7795000D01*
X69564250Y7795000D01*
X69723000Y7953750D01*
X69723000Y9803000D01*
X69977000Y9803000D01*
X69977000Y7953750D01*
X70135750Y7795000D01*
X70476310Y7795000D01*
X70709699Y7891673D01*
X70888327Y8070302D01*
X70985000Y8303691D01*
X70985000Y9644250D01*
X70826250Y9803000D01*
X69977000Y9803000D01*
X69723000Y9803000D01*
X68873750Y9803000D01*
X68715000Y9644250D01*
X68445000Y9644250D01*
X68286250Y9803000D01*
X67437000Y9803000D01*
X67183000Y9803000D01*
X66333750Y9803000D01*
X66175000Y9644250D01*
X65917440Y9644250D01*
X65917440Y10995300D01*
X66175000Y10995300D01*
X66175000Y10215750D01*
X66333750Y10057000D01*
X67183000Y10057000D01*
X67183000Y10077000D01*
X67437000Y10077000D01*
X67437000Y10057000D01*
X68286250Y10057000D01*
X68445000Y10215750D01*
X68445000Y10995300D01*
X68715000Y10995300D01*
X68715000Y10215750D01*
X68873750Y10057000D01*
X69723000Y10057000D01*
X69723000Y10077000D01*
X69977000Y10077000D01*
X69977000Y10057000D01*
X70826250Y10057000D01*
X70985000Y10215750D01*
X70985000Y10995300D01*
X71242560Y10995300D01*
X71242560Y8430000D01*
X71286838Y8194683D01*
X71333174Y8122676D01*
X70786699Y7576201D01*
X70621952Y7329639D01*
X70564100Y7038800D01*
X70564100Y6646332D01*
X70184914Y6489656D01*
X69766812Y6072283D01*
X69755252Y6044443D01*
X69744656Y6070086D01*
X69327283Y6488188D01*
X68781681Y6714742D01*
X68190911Y6715257D01*
X67644914Y6489656D01*
X67226812Y6072283D01*
X67215252Y6044443D01*
X67204656Y6070086D01*
X66787283Y6488188D01*
X66241681Y6714742D01*
X65650911Y6715257D01*
X65104914Y6489656D01*
X64686812Y6072283D01*
X64675252Y6044443D01*
X64664656Y6070086D01*
X64247283Y6488188D01*
X63701681Y6714742D01*
X63110911Y6715257D01*
X62564914Y6489656D01*
X62146812Y6072283D01*
X62135252Y6044443D01*
X62124656Y6070086D01*
X61707283Y6488188D01*
X61161681Y6714742D01*
X60570911Y6715257D01*
X60024914Y6489656D01*
X59606812Y6072283D01*
X59595252Y6044443D01*
X59584656Y6070086D01*
X59167283Y6488188D01*
X58621681Y6714742D01*
X58030911Y6715257D01*
X57484914Y6489656D01*
X57066812Y6072283D01*
X57055252Y6044443D01*
X57044656Y6070086D01*
X56627283Y6488188D01*
X56081681Y6714742D01*
X55490911Y6715257D01*
X54944914Y6489656D01*
X54526812Y6072283D01*
X54515252Y6044443D01*
X54504656Y6070086D01*
X54087283Y6488188D01*
X53541681Y6714742D01*
X52950911Y6715257D01*
X52404914Y6489656D01*
X51986812Y6072283D01*
X51975252Y6044443D01*
X51964656Y6070086D01*
X51547283Y6488188D01*
X51001681Y6714742D01*
X50410911Y6715257D01*
X49864914Y6489656D01*
X49446812Y6072283D01*
X49435252Y6044443D01*
X49424656Y6070086D01*
X49007283Y6488188D01*
X48461681Y6714742D01*
X47870911Y6715257D01*
X47324914Y6489656D01*
X46906812Y6072283D01*
X46895252Y6044443D01*
X46884656Y6070086D01*
X46467283Y6488188D01*
X45921681Y6714742D01*
X45330911Y6715257D01*
X44784914Y6489656D01*
X44366812Y6072283D01*
X44355252Y6044443D01*
X44344656Y6070086D01*
X43927283Y6488188D01*
X43381681Y6714742D01*
X42790911Y6715257D01*
X42244914Y6489656D01*
X41826812Y6072283D01*
X41815252Y6044443D01*
X41804656Y6070086D01*
X41387283Y6488188D01*
X40841681Y6714742D01*
X40250911Y6715257D01*
X39704914Y6489656D01*
X39286812Y6072283D01*
X39275252Y6044443D01*
X39264656Y6070086D01*
X38847283Y6488188D01*
X38301681Y6714742D01*
X37710911Y6715257D01*
X37164914Y6489656D01*
X36746812Y6072283D01*
X36735252Y6044443D01*
X36724656Y6070086D01*
X36307283Y6488188D01*
X35761681Y6714742D01*
X35170911Y6715257D01*
X34624914Y6489656D01*
X34206812Y6072283D01*
X34195252Y6044443D01*
X34184656Y6070086D01*
X33767283Y6488188D01*
X33221681Y6714742D01*
X32630911Y6715257D01*
X32084914Y6489656D01*
X31960040Y6365000D01*
X31350256Y6365000D01*
X31227283Y6488188D01*
X30681681Y6714742D01*
X30090911Y6715257D01*
X29544914Y6489656D01*
X29126812Y6072283D01*
X28900258Y5526681D01*
X28900104Y5350136D01*
X27988434Y4438466D01*
X27742397Y4070246D01*
X27656000Y3635900D01*
X27656000Y2070400D01*
X27742397Y1636054D01*
X27879848Y1430344D01*
X27988434Y1267834D01*
X28546268Y710000D01*
X710000Y710000D01*
X710000Y3035381D01*
X13292613Y3035381D01*
X13632155Y2213628D01*
X14260321Y1584364D01*
X15081481Y1243389D01*
X15970619Y1242613D01*
X16792372Y1582155D01*
X17421636Y2210321D01*
X17762611Y3031481D01*
X17763387Y3920619D01*
X17423845Y4742372D01*
X16795679Y5371636D01*
X15974519Y5712611D01*
X15085381Y5713387D01*
X14263628Y5373845D01*
X13634364Y4745679D01*
X13293389Y3924519D01*
X13292613Y3035381D01*
X710000Y3035381D01*
X710000Y11026339D01*
X761758Y11026339D01*
X973990Y10512697D01*
X1366630Y10119371D01*
X1879900Y9906243D01*
X2435661Y9905758D01*
X2949303Y10117990D01*
X3342629Y10510630D01*
X3428949Y10718512D01*
X3513990Y10512697D01*
X3906630Y10119371D01*
X4419900Y9906243D01*
X4975661Y9905758D01*
X5489303Y10117990D01*
X5882629Y10510630D01*
X6092995Y11017250D01*
X12700000Y11017250D01*
X12700000Y10414691D01*
X12796673Y10181302D01*
X12975301Y10002673D01*
X13208690Y9906000D01*
X13811250Y9906000D01*
X13970000Y10064750D01*
X13970000Y11176000D01*
X14224000Y11176000D01*
X14224000Y10064750D01*
X14382750Y9906000D01*
X14985310Y9906000D01*
X15218699Y10002673D01*
X15367000Y10150975D01*
X15515301Y10002673D01*
X15748690Y9906000D01*
X16351250Y9906000D01*
X16510000Y10064750D01*
X16510000Y11176000D01*
X16764000Y11176000D01*
X16764000Y10064750D01*
X16922750Y9906000D01*
X17525310Y9906000D01*
X17758699Y10002673D01*
X17937327Y10181302D01*
X18034000Y10414691D01*
X18034000Y11017250D01*
X17875250Y11176000D01*
X16764000Y11176000D01*
X16510000Y11176000D01*
X15398750Y11176000D01*
X15367000Y11144250D01*
X15335250Y11176000D01*
X14224000Y11176000D01*
X13970000Y11176000D01*
X12858750Y11176000D01*
X12700000Y11017250D01*
X6092995Y11017250D01*
X6095757Y11023900D01*
X6096242Y11579661D01*
X5884010Y12093303D01*
X5786175Y12191309D01*
X12700000Y12191309D01*
X12700000Y11588750D01*
X12858750Y11430000D01*
X13970000Y11430000D01*
X13970000Y12541250D01*
X14224000Y12541250D01*
X14224000Y11430000D01*
X15335250Y11430000D01*
X15367000Y11461750D01*
X15398750Y11430000D01*
X16510000Y11430000D01*
X16510000Y12541250D01*
X16764000Y12541250D01*
X16764000Y11430000D01*
X17875250Y11430000D01*
X18034000Y11588750D01*
X18034000Y12191309D01*
X17937327Y12424698D01*
X17758699Y12603327D01*
X17525310Y12700000D01*
X16922750Y12700000D01*
X16764000Y12541250D01*
X16510000Y12541250D01*
X16351250Y12700000D01*
X15748690Y12700000D01*
X15515301Y12603327D01*
X15367000Y12455025D01*
X15218699Y12603327D01*
X14985310Y12700000D01*
X14382750Y12700000D01*
X14224000Y12541250D01*
X13970000Y12541250D01*
X13811250Y12700000D01*
X13208690Y12700000D01*
X12975301Y12603327D01*
X12796673Y12424698D01*
X12700000Y12191309D01*
X5786175Y12191309D01*
X5491370Y12486629D01*
X4978100Y12699757D01*
X4422339Y12700242D01*
X3908697Y12488010D01*
X3515371Y12095370D01*
X3429051Y11887488D01*
X3344010Y12093303D01*
X2951370Y12486629D01*
X2438100Y12699757D01*
X1882339Y12700242D01*
X1368697Y12488010D01*
X975371Y12095370D01*
X762243Y11582100D01*
X761758Y11026339D01*
X710000Y11026339D01*
X710000Y29568339D01*
X761758Y29568339D01*
X973990Y29054697D01*
X1366630Y28661371D01*
X1879900Y28448243D01*
X2435661Y28447758D01*
X2949303Y28659990D01*
X3342629Y29052630D01*
X3428949Y29260512D01*
X3513990Y29054697D01*
X3906630Y28661371D01*
X4419900Y28448243D01*
X4975661Y28447758D01*
X5489303Y28659990D01*
X5882629Y29052630D01*
X6095757Y29565900D01*
X6096242Y30121661D01*
X5884010Y30635303D01*
X5491370Y31028629D01*
X4978100Y31241757D01*
X4422339Y31242242D01*
X3908697Y31030010D01*
X3515371Y30637370D01*
X3429051Y30429488D01*
X3344010Y30635303D01*
X2951370Y31028629D01*
X2438100Y31241757D01*
X1882339Y31242242D01*
X1368697Y31030010D01*
X975371Y30637370D01*
X762243Y30124100D01*
X761758Y29568339D01*
X710000Y29568339D01*
X710000Y41755000D01*
X1762560Y41755000D01*
X1762560Y38255000D01*
X1806838Y38019683D01*
X1945910Y37803559D01*
X2158110Y37658569D01*
X2410000Y37607560D01*
X5096045Y37607560D01*
X4958559Y37519090D01*
X4813569Y37306890D01*
X4762560Y37055000D01*
X4762560Y33555000D01*
X4806838Y33319683D01*
X4945910Y33103559D01*
X5158110Y32958569D01*
X5410000Y32907560D01*
X8910000Y32907560D01*
X9145317Y32951838D01*
X9361441Y33090910D01*
X9506431Y33303110D01*
X9557440Y33555000D01*
X9557440Y37055000D01*
X9513162Y37290317D01*
X9374090Y37506441D01*
X9207891Y37620000D01*
X9874250Y37620000D01*
X10033000Y37778750D01*
X10033000Y39878000D01*
X10287000Y39878000D01*
X10287000Y37778750D01*
X10445750Y37620000D01*
X12036309Y37620000D01*
X12269698Y37716673D01*
X12448327Y37895301D01*
X12545000Y38128690D01*
X12545000Y39719250D01*
X12386250Y39878000D01*
X10287000Y39878000D01*
X10033000Y39878000D01*
X7933750Y39878000D01*
X7775000Y39719250D01*
X7775000Y38128690D01*
X7871673Y37895301D01*
X8050302Y37716673D01*
X8084663Y37702440D01*
X6223955Y37702440D01*
X6361441Y37790910D01*
X6506431Y38003110D01*
X6557440Y38255000D01*
X6557440Y41755000D01*
X6533674Y41881310D01*
X7775000Y41881310D01*
X7775000Y40290750D01*
X7933750Y40132000D01*
X10033000Y40132000D01*
X10033000Y42231250D01*
X10287000Y42231250D01*
X10287000Y40132000D01*
X12386250Y40132000D01*
X12545000Y40290750D01*
X12545000Y41881310D01*
X12448327Y42114699D01*
X12269698Y42293327D01*
X12036309Y42390000D01*
X10445750Y42390000D01*
X10287000Y42231250D01*
X10033000Y42231250D01*
X9874250Y42390000D01*
X8283691Y42390000D01*
X8050302Y42293327D01*
X7871673Y42114699D01*
X7775000Y41881310D01*
X6533674Y41881310D01*
X6513162Y41990317D01*
X6374090Y42206441D01*
X6161890Y42351431D01*
X5910000Y42402440D01*
X2410000Y42402440D01*
X2174683Y42358162D01*
X1958559Y42219090D01*
X1813569Y42006890D01*
X1762560Y41755000D01*
X710000Y41755000D01*
X710000Y44289250D01*
X14625000Y44289250D01*
X14625000Y42448691D01*
X14721673Y42215302D01*
X14900301Y42036673D01*
X15133690Y41940000D01*
X16224250Y41940000D01*
X16383000Y42098750D01*
X16383000Y44448000D01*
X16637000Y44448000D01*
X16637000Y42098750D01*
X16795750Y41940000D01*
X17886310Y41940000D01*
X18119699Y42036673D01*
X18298327Y42215302D01*
X18395000Y42448691D01*
X18395000Y44289250D01*
X18236250Y44448000D01*
X16637000Y44448000D01*
X16383000Y44448000D01*
X14783750Y44448000D01*
X14625000Y44289250D01*
X710000Y44289250D01*
X710000Y46701309D01*
X14625000Y46701309D01*
X14625000Y44860750D01*
X14783750Y44702000D01*
X16383000Y44702000D01*
X16383000Y47051250D01*
X16637000Y47051250D01*
X16637000Y44702000D01*
X18236250Y44702000D01*
X18395000Y44860750D01*
X18395000Y46701309D01*
X18298327Y46934698D01*
X18119699Y47113327D01*
X17886310Y47210000D01*
X16795750Y47210000D01*
X16637000Y47051250D01*
X16383000Y47051250D01*
X16224250Y47210000D01*
X15133690Y47210000D01*
X14900301Y47113327D01*
X14721673Y46934698D01*
X14625000Y46701309D01*
X710000Y46701309D01*
X710000Y50614833D01*
X13034838Y50614833D01*
X13176883Y50271057D01*
X13439673Y50007808D01*
X13783201Y49865162D01*
X14155167Y49864838D01*
X14276569Y49915000D01*
X14612560Y49915000D01*
X14612560Y48675000D01*
X14656838Y48439683D01*
X14795910Y48223559D01*
X15008110Y48078569D01*
X15260000Y48027560D01*
X17760000Y48027560D01*
X17995317Y48071838D01*
X18211441Y48210910D01*
X18356431Y48423110D01*
X18407440Y48675000D01*
X18407440Y49530000D01*
X22076700Y49530000D01*
X22076700Y47902700D01*
X22134552Y47611861D01*
X22299299Y47365299D01*
X22514560Y47150038D01*
X22514560Y46490000D01*
X22558838Y46254683D01*
X22697910Y46038559D01*
X22910110Y45893569D01*
X23162000Y45842560D01*
X26162000Y45842560D01*
X26397317Y45886838D01*
X26613441Y46025910D01*
X26758431Y46238110D01*
X26809440Y46490000D01*
X26809440Y46704250D01*
X28067000Y46704250D01*
X28067000Y46363690D01*
X28163673Y46130301D01*
X28342302Y45951673D01*
X28575691Y45855000D01*
X29916250Y45855000D01*
X30075000Y46013750D01*
X30075000Y46863000D01*
X30329000Y46863000D01*
X30329000Y46013750D01*
X30487750Y45855000D01*
X31828309Y45855000D01*
X32061698Y45951673D01*
X32240327Y46130301D01*
X32337000Y46363690D01*
X32337000Y46704250D01*
X32178250Y46863000D01*
X30329000Y46863000D01*
X30075000Y46863000D01*
X28225750Y46863000D01*
X28067000Y46704250D01*
X26809440Y46704250D01*
X26809440Y47490000D01*
X26765162Y47725317D01*
X26626090Y47941441D01*
X26413890Y48086431D01*
X26162000Y48137440D01*
X25700005Y48137440D01*
X25700162Y48318167D01*
X25673555Y48382560D01*
X26162000Y48382560D01*
X26397317Y48426838D01*
X26613441Y48565910D01*
X26752890Y48770000D01*
X27000667Y48770000D01*
X26893808Y48663327D01*
X26751162Y48319799D01*
X26750838Y47947833D01*
X26892883Y47604057D01*
X27155673Y47340808D01*
X27499201Y47198162D01*
X27871167Y47197838D01*
X28067000Y47278754D01*
X28067000Y47275750D01*
X28225750Y47117000D01*
X30075000Y47117000D01*
X30075000Y47966250D01*
X30329000Y47966250D01*
X30329000Y47117000D01*
X32178250Y47117000D01*
X32337000Y47275750D01*
X32337000Y47616310D01*
X32240327Y47849699D01*
X32061698Y48028327D01*
X31828309Y48125000D01*
X30487750Y48125000D01*
X30329000Y47966250D01*
X30075000Y47966250D01*
X29916250Y48125000D01*
X28752802Y48125000D01*
X29010362Y48382560D01*
X31702000Y48382560D01*
X31937317Y48426838D01*
X32153441Y48565910D01*
X32298431Y48778110D01*
X32349440Y49030000D01*
X32349440Y50030000D01*
X32305162Y50265317D01*
X32166090Y50481441D01*
X31953890Y50626431D01*
X31702000Y50677440D01*
X28702000Y50677440D01*
X28466683Y50633162D01*
X28250559Y50494090D01*
X28111110Y50290000D01*
X26749279Y50290000D01*
X26626090Y50481441D01*
X26413890Y50626431D01*
X26162000Y50677440D01*
X23162000Y50677440D01*
X22926683Y50633162D01*
X22710559Y50494090D01*
X22565569Y50281890D01*
X22555900Y50234145D01*
X22545861Y50232148D01*
X22299299Y50067401D01*
X22134552Y49820839D01*
X22076700Y49530000D01*
X18407440Y49530000D01*
X18407440Y49821941D01*
X18609201Y49738162D01*
X18981167Y49737838D01*
X19324943Y49879883D01*
X19588192Y50142673D01*
X19730838Y50486201D01*
X19731162Y50858167D01*
X19589117Y51201943D01*
X19326327Y51465192D01*
X18982799Y51607838D01*
X18610833Y51608162D01*
X18407440Y51524122D01*
X18407440Y52675000D01*
X18401796Y52705000D01*
X35682560Y52705000D01*
X35682560Y49705000D01*
X35726838Y49469683D01*
X35865910Y49253559D01*
X36078110Y49108569D01*
X36125855Y49098900D01*
X36127852Y49088861D01*
X36292599Y48842299D01*
X36539161Y48677552D01*
X36830000Y48619700D01*
X39645224Y48619700D01*
X39898973Y48365508D01*
X40132604Y48268496D01*
X40132438Y48078333D01*
X40274483Y47734557D01*
X40537273Y47471308D01*
X40880801Y47328662D01*
X41252767Y47328338D01*
X41596543Y47470383D01*
X41859792Y47733173D01*
X42002438Y48076701D01*
X42002556Y48212342D01*
X42376299Y47838599D01*
X42622861Y47673852D01*
X42913700Y47616000D01*
X44799237Y47616000D01*
X44831373Y47583808D01*
X45174901Y47441162D01*
X45546867Y47440838D01*
X45890643Y47582883D01*
X46153892Y47845673D01*
X46296538Y48189201D01*
X46296598Y48258343D01*
X46646967Y48258038D01*
X46947765Y48382325D01*
X47229201Y48265462D01*
X47601167Y48265138D01*
X47944943Y48407183D01*
X48208192Y48669973D01*
X48350838Y49013501D01*
X48351162Y49385467D01*
X48209117Y49729243D01*
X48176000Y49762418D01*
X48176000Y50779000D01*
X48137440Y50972852D01*
X48137440Y52705000D01*
X48382560Y52705000D01*
X48382560Y49705000D01*
X48426838Y49469683D01*
X48565910Y49253559D01*
X48743639Y49132122D01*
X48743538Y49015933D01*
X48885583Y48672157D01*
X49148373Y48408908D01*
X49491901Y48266262D01*
X49863867Y48265938D01*
X50207643Y48407983D01*
X50330014Y48530141D01*
X50329938Y48442733D01*
X50471983Y48098957D01*
X50734773Y47835708D01*
X51078301Y47693062D01*
X51450267Y47692738D01*
X51794043Y47834783D01*
X52057292Y48097573D01*
X52199938Y48441101D01*
X52199979Y48487977D01*
X52447376Y48735374D01*
X52607401Y48842299D01*
X52772148Y49088861D01*
X52773540Y49095859D01*
X52805317Y49101838D01*
X53021441Y49240910D01*
X53166431Y49453110D01*
X53217440Y49705000D01*
X53217440Y52705000D01*
X53173162Y52940317D01*
X53034090Y53156441D01*
X52821890Y53301431D01*
X52570000Y53352440D01*
X51570000Y53352440D01*
X51334683Y53308162D01*
X51118559Y53169090D01*
X50973569Y52956890D01*
X50922560Y52705000D01*
X50922560Y49705000D01*
X50958694Y49512967D01*
X50736157Y49421017D01*
X50613786Y49298859D01*
X50613862Y49386267D01*
X50601388Y49416458D01*
X50626431Y49453110D01*
X50677440Y49705000D01*
X50677440Y52705000D01*
X50633162Y52940317D01*
X50494090Y53156441D01*
X50281890Y53301431D01*
X50030000Y53352440D01*
X49030000Y53352440D01*
X48794683Y53308162D01*
X48578559Y53169090D01*
X48433569Y52956890D01*
X48382560Y52705000D01*
X48137440Y52705000D01*
X48093162Y52940317D01*
X47954090Y53156441D01*
X47741890Y53301431D01*
X47490000Y53352440D01*
X46490000Y53352440D01*
X46254683Y53308162D01*
X46038559Y53169090D01*
X45893569Y52956890D01*
X45842560Y52705000D01*
X45842560Y50139700D01*
X45597440Y50139700D01*
X45597440Y52705000D01*
X45553162Y52940317D01*
X45414090Y53156441D01*
X45201890Y53301431D01*
X44950000Y53352440D01*
X43957542Y53352440D01*
X44987401Y54382299D01*
X45152148Y54628861D01*
X45153540Y54635859D01*
X45185317Y54641838D01*
X45401441Y54780910D01*
X45546431Y54993110D01*
X45597440Y55245000D01*
X45597440Y58245000D01*
X45842560Y58245000D01*
X45842560Y55245000D01*
X45886838Y55009683D01*
X46025910Y54793559D01*
X46238110Y54648569D01*
X46285855Y54638900D01*
X46287852Y54628861D01*
X46452599Y54382299D01*
X46561294Y54309672D01*
X46605883Y54201757D01*
X46868673Y53938508D01*
X47212201Y53795862D01*
X47584167Y53795538D01*
X47927943Y53937583D01*
X48191192Y54200373D01*
X48333838Y54543901D01*
X48334162Y54915867D01*
X48192117Y55259643D01*
X48137440Y55314416D01*
X48137440Y58245000D01*
X48382560Y58245000D01*
X48382560Y55245000D01*
X48426838Y55009683D01*
X48565910Y54793559D01*
X48778110Y54648569D01*
X48801239Y54643885D01*
X48801138Y54528233D01*
X48943183Y54184457D01*
X49205973Y53921208D01*
X49549501Y53778562D01*
X49921467Y53778238D01*
X50265243Y53920283D01*
X50528492Y54183073D01*
X50671138Y54526601D01*
X50671462Y54898567D01*
X50628393Y55002801D01*
X50677440Y55245000D01*
X50677440Y58245000D01*
X50922560Y58245000D01*
X50922560Y55245000D01*
X50966838Y55009683D01*
X51003819Y54952214D01*
X50972462Y54876699D01*
X50972138Y54504733D01*
X51114183Y54160957D01*
X51376973Y53897708D01*
X51720501Y53755062D01*
X52092467Y53754738D01*
X52436243Y53896783D01*
X52699492Y54159573D01*
X52842138Y54503101D01*
X52842280Y54665623D01*
X53021441Y54780910D01*
X53166431Y54993110D01*
X53217440Y55245000D01*
X53217440Y58245000D01*
X53173162Y58480317D01*
X53034090Y58696441D01*
X52821890Y58841431D01*
X52570000Y58892440D01*
X51570000Y58892440D01*
X51334683Y58848162D01*
X51118559Y58709090D01*
X50973569Y58496890D01*
X50922560Y58245000D01*
X50677440Y58245000D01*
X50633162Y58480317D01*
X50494090Y58696441D01*
X50281890Y58841431D01*
X50030000Y58892440D01*
X49030000Y58892440D01*
X48794683Y58848162D01*
X48578559Y58709090D01*
X48433569Y58496890D01*
X48382560Y58245000D01*
X48137440Y58245000D01*
X48093162Y58480317D01*
X47954090Y58696441D01*
X47741890Y58841431D01*
X47490000Y58892440D01*
X46490000Y58892440D01*
X46254683Y58848162D01*
X46038559Y58709090D01*
X45893569Y58496890D01*
X45842560Y58245000D01*
X45597440Y58245000D01*
X45553162Y58480317D01*
X45414090Y58696441D01*
X45201890Y58841431D01*
X44950000Y58892440D01*
X43950000Y58892440D01*
X43714683Y58848162D01*
X43498559Y58709090D01*
X43353569Y58496890D01*
X43302560Y58245000D01*
X43302560Y55245000D01*
X43346838Y55009683D01*
X43393174Y54937676D01*
X43040780Y54585282D01*
X43041062Y54908967D01*
X43006346Y54992986D01*
X43006431Y54993110D01*
X43057440Y55245000D01*
X43057440Y58245000D01*
X43013162Y58480317D01*
X42874090Y58696441D01*
X42661890Y58841431D01*
X42410000Y58892440D01*
X41410000Y58892440D01*
X41174683Y58848162D01*
X40958559Y58709090D01*
X40813569Y58496890D01*
X40762560Y58245000D01*
X40762560Y55245000D01*
X40806838Y55009683D01*
X40945910Y54793559D01*
X41158110Y54648569D01*
X41170832Y54645993D01*
X41170738Y54538633D01*
X41312783Y54194857D01*
X41315678Y54191957D01*
X41291799Y54176001D01*
X40530199Y53414401D01*
X40365452Y53167839D01*
X40356315Y53121903D01*
X40334090Y53156441D01*
X40121890Y53301431D01*
X39870000Y53352440D01*
X38870000Y53352440D01*
X38634683Y53308162D01*
X38418559Y53169090D01*
X38273569Y52956890D01*
X38222560Y52705000D01*
X38222560Y50139700D01*
X37977440Y50139700D01*
X37977440Y52705000D01*
X37933162Y52940317D01*
X37794090Y53156441D01*
X37581890Y53301431D01*
X37330000Y53352440D01*
X36330000Y53352440D01*
X36094683Y53308162D01*
X35878559Y53169090D01*
X35733569Y52956890D01*
X35682560Y52705000D01*
X18401796Y52705000D01*
X18363162Y52910317D01*
X18224090Y53126441D01*
X18011890Y53271431D01*
X17760000Y53322440D01*
X15260000Y53322440D01*
X15024683Y53278162D01*
X14808559Y53139090D01*
X14663569Y52926890D01*
X14612560Y52675000D01*
X14612560Y51479763D01*
X14500327Y51592192D01*
X14156799Y51734838D01*
X13784833Y51735162D01*
X13441057Y51593117D01*
X13177808Y51330327D01*
X13035162Y50986799D01*
X13034838Y50614833D01*
X710000Y50614833D01*
X710000Y56090381D01*
X13292613Y56090381D01*
X13632155Y55268628D01*
X14260321Y54639364D01*
X15081481Y54298389D01*
X15970619Y54297613D01*
X16792372Y54637155D01*
X17421636Y55265321D01*
X17762611Y56086481D01*
X17763387Y56975619D01*
X17423845Y57797372D01*
X16976999Y58245000D01*
X35682560Y58245000D01*
X35682560Y55245000D01*
X35726838Y55009683D01*
X35865910Y54793559D01*
X36002500Y54700231D01*
X36002338Y54513733D01*
X36144383Y54169957D01*
X36407173Y53906708D01*
X36750701Y53764062D01*
X37122667Y53763738D01*
X37466443Y53905783D01*
X37729692Y54168573D01*
X37872338Y54512101D01*
X37872662Y54884067D01*
X37864848Y54902980D01*
X37926431Y54993110D01*
X37977440Y55245000D01*
X37977440Y58245000D01*
X38222560Y58245000D01*
X38222560Y55245000D01*
X38266838Y55009683D01*
X38405910Y54793559D01*
X38618110Y54648569D01*
X38630832Y54645993D01*
X38630738Y54538633D01*
X38772783Y54194857D01*
X39035573Y53931608D01*
X39379101Y53788962D01*
X39751067Y53788638D01*
X40094843Y53930683D01*
X40358092Y54193473D01*
X40500738Y54537001D01*
X40501062Y54908967D01*
X40466346Y54992986D01*
X40466431Y54993110D01*
X40517440Y55245000D01*
X40517440Y58245000D01*
X40473162Y58480317D01*
X40334090Y58696441D01*
X40121890Y58841431D01*
X39870000Y58892440D01*
X38870000Y58892440D01*
X38634683Y58848162D01*
X38418559Y58709090D01*
X38273569Y58496890D01*
X38222560Y58245000D01*
X37977440Y58245000D01*
X37933162Y58480317D01*
X37794090Y58696441D01*
X37581890Y58841431D01*
X37330000Y58892440D01*
X36330000Y58892440D01*
X36094683Y58848162D01*
X35878559Y58709090D01*
X35733569Y58496890D01*
X35682560Y58245000D01*
X16976999Y58245000D01*
X16795679Y58426636D01*
X15974519Y58767611D01*
X15085381Y58768387D01*
X14263628Y58428845D01*
X13634364Y57800679D01*
X13293389Y56979519D01*
X13292613Y56090381D01*
X710000Y56090381D01*
X710000Y59615000D01*
X65573968Y59615000D01*
X65167734Y59208766D01*
M02*
