G04 #@! TF.FileFunction,Legend,Bot*
%FSLAX46Y46*%
G04 Gerber Fmt 4.6, Leading zero omitted, Abs format (unit mm)*
G04 Created by KiCad (PCBNEW 4.0.6) date 06/24/17 11:35:38*
%MOMM*%
%LPD*%
G01*
G04 APERTURE LIST*
%ADD10C,0.100000*%
%ADD11C,0.120000*%
%ADD12C,0.150000*%
G04 APERTURE END LIST*
D10*
D11*
X67595000Y20990000D02*
X68295000Y20990000D01*
X68295000Y22190000D02*
X67595000Y22190000D01*
X59340000Y43850000D02*
X60040000Y43850000D01*
X60040000Y45050000D02*
X59340000Y45050000D01*
X44735000Y16545000D02*
X45435000Y16545000D01*
X45435000Y17745000D02*
X44735000Y17745000D01*
X51720000Y16545000D02*
X52420000Y16545000D01*
X52420000Y17745000D02*
X51720000Y17745000D01*
X44735000Y14640000D02*
X45435000Y14640000D01*
X45435000Y15840000D02*
X44735000Y15840000D01*
X39720000Y39970000D02*
X39020000Y39970000D01*
X39020000Y38770000D02*
X39720000Y38770000D01*
X67595000Y31150000D02*
X68295000Y31150000D01*
X68295000Y32350000D02*
X67595000Y32350000D01*
X62515000Y43850000D02*
X63215000Y43850000D01*
X63215000Y45050000D02*
X62515000Y45050000D01*
X53690000Y45050000D02*
X52990000Y45050000D01*
X52990000Y43850000D02*
X53690000Y43850000D01*
X67595000Y26070000D02*
X68295000Y26070000D01*
X68295000Y27270000D02*
X67595000Y27270000D01*
X39720000Y27905000D02*
X39020000Y27905000D01*
X39020000Y26705000D02*
X39720000Y26705000D01*
X67595000Y37500000D02*
X68295000Y37500000D01*
X68295000Y38700000D02*
X67595000Y38700000D01*
X57435000Y16545000D02*
X58135000Y16545000D01*
X58135000Y17745000D02*
X57435000Y17745000D01*
X23860000Y28190000D02*
X21860000Y28190000D01*
X21860000Y30230000D02*
X23860000Y30230000D01*
X39720000Y32985000D02*
X39020000Y32985000D01*
X39020000Y31785000D02*
X39720000Y31785000D01*
X19350000Y34015000D02*
X17850000Y34015000D01*
X17850000Y34015000D02*
X17850000Y34285000D01*
X17850000Y34285000D02*
X15020000Y34285000D01*
X19350000Y40915000D02*
X17850000Y40915000D01*
X17850000Y40915000D02*
X17850000Y40645000D01*
X17850000Y40645000D02*
X16750000Y40645000D01*
D12*
X43800000Y40655000D02*
X44775000Y40655000D01*
X43800000Y20305000D02*
X44850000Y20305000D01*
X64150000Y20305000D02*
X63100000Y20305000D01*
X64150000Y40655000D02*
X63100000Y40655000D01*
X43800000Y40655000D02*
X43800000Y39605000D01*
X64150000Y40655000D02*
X64150000Y39605000D01*
X64150000Y20305000D02*
X64150000Y21355000D01*
X43800000Y20305000D02*
X43800000Y21355000D01*
X44775000Y40655000D02*
X44775000Y41955000D01*
X68111666Y19732857D02*
X68159285Y19685238D01*
X68302142Y19637619D01*
X68397380Y19637619D01*
X68540238Y19685238D01*
X68635476Y19780476D01*
X68683095Y19875714D01*
X68730714Y20066190D01*
X68730714Y20209048D01*
X68683095Y20399524D01*
X68635476Y20494762D01*
X68540238Y20590000D01*
X68397380Y20637619D01*
X68302142Y20637619D01*
X68159285Y20590000D01*
X68111666Y20542381D01*
X67159285Y19637619D02*
X67730714Y19637619D01*
X67445000Y19637619D02*
X67445000Y20637619D01*
X67540238Y20494762D01*
X67635476Y20399524D01*
X67730714Y20351905D01*
X59856666Y42592857D02*
X59904285Y42545238D01*
X60047142Y42497619D01*
X60142380Y42497619D01*
X60285238Y42545238D01*
X60380476Y42640476D01*
X60428095Y42735714D01*
X60475714Y42926190D01*
X60475714Y43069048D01*
X60428095Y43259524D01*
X60380476Y43354762D01*
X60285238Y43450000D01*
X60142380Y43497619D01*
X60047142Y43497619D01*
X59904285Y43450000D01*
X59856666Y43402381D01*
X59475714Y43402381D02*
X59428095Y43450000D01*
X59332857Y43497619D01*
X59094761Y43497619D01*
X58999523Y43450000D01*
X58951904Y43402381D01*
X58904285Y43307143D01*
X58904285Y43211905D01*
X58951904Y43069048D01*
X59523333Y42497619D01*
X58904285Y42497619D01*
X45251666Y15287857D02*
X45299285Y15240238D01*
X45442142Y15192619D01*
X45537380Y15192619D01*
X45680238Y15240238D01*
X45775476Y15335476D01*
X45823095Y15430714D01*
X45870714Y15621190D01*
X45870714Y15764048D01*
X45823095Y15954524D01*
X45775476Y16049762D01*
X45680238Y16145000D01*
X45537380Y16192619D01*
X45442142Y16192619D01*
X45299285Y16145000D01*
X45251666Y16097381D01*
X44918333Y16192619D02*
X44299285Y16192619D01*
X44632619Y15811667D01*
X44489761Y15811667D01*
X44394523Y15764048D01*
X44346904Y15716429D01*
X44299285Y15621190D01*
X44299285Y15383095D01*
X44346904Y15287857D01*
X44394523Y15240238D01*
X44489761Y15192619D01*
X44775476Y15192619D01*
X44870714Y15240238D01*
X44918333Y15287857D01*
X52236666Y15287857D02*
X52284285Y15240238D01*
X52427142Y15192619D01*
X52522380Y15192619D01*
X52665238Y15240238D01*
X52760476Y15335476D01*
X52808095Y15430714D01*
X52855714Y15621190D01*
X52855714Y15764048D01*
X52808095Y15954524D01*
X52760476Y16049762D01*
X52665238Y16145000D01*
X52522380Y16192619D01*
X52427142Y16192619D01*
X52284285Y16145000D01*
X52236666Y16097381D01*
X51379523Y15859286D02*
X51379523Y15192619D01*
X51617619Y16240238D02*
X51855714Y15525952D01*
X51236666Y15525952D01*
X45251666Y13382857D02*
X45299285Y13335238D01*
X45442142Y13287619D01*
X45537380Y13287619D01*
X45680238Y13335238D01*
X45775476Y13430476D01*
X45823095Y13525714D01*
X45870714Y13716190D01*
X45870714Y13859048D01*
X45823095Y14049524D01*
X45775476Y14144762D01*
X45680238Y14240000D01*
X45537380Y14287619D01*
X45442142Y14287619D01*
X45299285Y14240000D01*
X45251666Y14192381D01*
X44346904Y14287619D02*
X44823095Y14287619D01*
X44870714Y13811429D01*
X44823095Y13859048D01*
X44727857Y13906667D01*
X44489761Y13906667D01*
X44394523Y13859048D01*
X44346904Y13811429D01*
X44299285Y13716190D01*
X44299285Y13478095D01*
X44346904Y13382857D01*
X44394523Y13335238D01*
X44489761Y13287619D01*
X44727857Y13287619D01*
X44823095Y13335238D01*
X44870714Y13382857D01*
X39536666Y40512857D02*
X39584285Y40465238D01*
X39727142Y40417619D01*
X39822380Y40417619D01*
X39965238Y40465238D01*
X40060476Y40560476D01*
X40108095Y40655714D01*
X40155714Y40846190D01*
X40155714Y40989048D01*
X40108095Y41179524D01*
X40060476Y41274762D01*
X39965238Y41370000D01*
X39822380Y41417619D01*
X39727142Y41417619D01*
X39584285Y41370000D01*
X39536666Y41322381D01*
X38679523Y41417619D02*
X38870000Y41417619D01*
X38965238Y41370000D01*
X39012857Y41322381D01*
X39108095Y41179524D01*
X39155714Y40989048D01*
X39155714Y40608095D01*
X39108095Y40512857D01*
X39060476Y40465238D01*
X38965238Y40417619D01*
X38774761Y40417619D01*
X38679523Y40465238D01*
X38631904Y40512857D01*
X38584285Y40608095D01*
X38584285Y40846190D01*
X38631904Y40941429D01*
X38679523Y40989048D01*
X38774761Y41036667D01*
X38965238Y41036667D01*
X39060476Y40989048D01*
X39108095Y40941429D01*
X39155714Y40846190D01*
X68111666Y29892857D02*
X68159285Y29845238D01*
X68302142Y29797619D01*
X68397380Y29797619D01*
X68540238Y29845238D01*
X68635476Y29940476D01*
X68683095Y30035714D01*
X68730714Y30226190D01*
X68730714Y30369048D01*
X68683095Y30559524D01*
X68635476Y30654762D01*
X68540238Y30750000D01*
X68397380Y30797619D01*
X68302142Y30797619D01*
X68159285Y30750000D01*
X68111666Y30702381D01*
X67778333Y30797619D02*
X67111666Y30797619D01*
X67540238Y29797619D01*
X63031666Y42592857D02*
X63079285Y42545238D01*
X63222142Y42497619D01*
X63317380Y42497619D01*
X63460238Y42545238D01*
X63555476Y42640476D01*
X63603095Y42735714D01*
X63650714Y42926190D01*
X63650714Y43069048D01*
X63603095Y43259524D01*
X63555476Y43354762D01*
X63460238Y43450000D01*
X63317380Y43497619D01*
X63222142Y43497619D01*
X63079285Y43450000D01*
X63031666Y43402381D01*
X62460238Y43069048D02*
X62555476Y43116667D01*
X62603095Y43164286D01*
X62650714Y43259524D01*
X62650714Y43307143D01*
X62603095Y43402381D01*
X62555476Y43450000D01*
X62460238Y43497619D01*
X62269761Y43497619D01*
X62174523Y43450000D01*
X62126904Y43402381D01*
X62079285Y43307143D01*
X62079285Y43259524D01*
X62126904Y43164286D01*
X62174523Y43116667D01*
X62269761Y43069048D01*
X62460238Y43069048D01*
X62555476Y43021429D01*
X62603095Y42973810D01*
X62650714Y42878571D01*
X62650714Y42688095D01*
X62603095Y42592857D01*
X62555476Y42545238D01*
X62460238Y42497619D01*
X62269761Y42497619D01*
X62174523Y42545238D01*
X62126904Y42592857D01*
X62079285Y42688095D01*
X62079285Y42878571D01*
X62126904Y42973810D01*
X62174523Y43021429D01*
X62269761Y43069048D01*
X53506666Y45592857D02*
X53554285Y45545238D01*
X53697142Y45497619D01*
X53792380Y45497619D01*
X53935238Y45545238D01*
X54030476Y45640476D01*
X54078095Y45735714D01*
X54125714Y45926190D01*
X54125714Y46069048D01*
X54078095Y46259524D01*
X54030476Y46354762D01*
X53935238Y46450000D01*
X53792380Y46497619D01*
X53697142Y46497619D01*
X53554285Y46450000D01*
X53506666Y46402381D01*
X53030476Y45497619D02*
X52840000Y45497619D01*
X52744761Y45545238D01*
X52697142Y45592857D01*
X52601904Y45735714D01*
X52554285Y45926190D01*
X52554285Y46307143D01*
X52601904Y46402381D01*
X52649523Y46450000D01*
X52744761Y46497619D01*
X52935238Y46497619D01*
X53030476Y46450000D01*
X53078095Y46402381D01*
X53125714Y46307143D01*
X53125714Y46069048D01*
X53078095Y45973810D01*
X53030476Y45926190D01*
X52935238Y45878571D01*
X52744761Y45878571D01*
X52649523Y45926190D01*
X52601904Y45973810D01*
X52554285Y46069048D01*
X68587857Y24812857D02*
X68635476Y24765238D01*
X68778333Y24717619D01*
X68873571Y24717619D01*
X69016429Y24765238D01*
X69111667Y24860476D01*
X69159286Y24955714D01*
X69206905Y25146190D01*
X69206905Y25289048D01*
X69159286Y25479524D01*
X69111667Y25574762D01*
X69016429Y25670000D01*
X68873571Y25717619D01*
X68778333Y25717619D01*
X68635476Y25670000D01*
X68587857Y25622381D01*
X67635476Y24717619D02*
X68206905Y24717619D01*
X67921191Y24717619D02*
X67921191Y25717619D01*
X68016429Y25574762D01*
X68111667Y25479524D01*
X68206905Y25431905D01*
X67016429Y25717619D02*
X66921190Y25717619D01*
X66825952Y25670000D01*
X66778333Y25622381D01*
X66730714Y25527143D01*
X66683095Y25336667D01*
X66683095Y25098571D01*
X66730714Y24908095D01*
X66778333Y24812857D01*
X66825952Y24765238D01*
X66921190Y24717619D01*
X67016429Y24717619D01*
X67111667Y24765238D01*
X67159286Y24812857D01*
X67206905Y24908095D01*
X67254524Y25098571D01*
X67254524Y25336667D01*
X67206905Y25527143D01*
X67159286Y25622381D01*
X67111667Y25670000D01*
X67016429Y25717619D01*
X40012857Y28447857D02*
X40060476Y28400238D01*
X40203333Y28352619D01*
X40298571Y28352619D01*
X40441429Y28400238D01*
X40536667Y28495476D01*
X40584286Y28590714D01*
X40631905Y28781190D01*
X40631905Y28924048D01*
X40584286Y29114524D01*
X40536667Y29209762D01*
X40441429Y29305000D01*
X40298571Y29352619D01*
X40203333Y29352619D01*
X40060476Y29305000D01*
X40012857Y29257381D01*
X39060476Y28352619D02*
X39631905Y28352619D01*
X39346191Y28352619D02*
X39346191Y29352619D01*
X39441429Y29209762D01*
X39536667Y29114524D01*
X39631905Y29066905D01*
X38108095Y28352619D02*
X38679524Y28352619D01*
X38393810Y28352619D02*
X38393810Y29352619D01*
X38489048Y29209762D01*
X38584286Y29114524D01*
X38679524Y29066905D01*
X68587857Y36242857D02*
X68635476Y36195238D01*
X68778333Y36147619D01*
X68873571Y36147619D01*
X69016429Y36195238D01*
X69111667Y36290476D01*
X69159286Y36385714D01*
X69206905Y36576190D01*
X69206905Y36719048D01*
X69159286Y36909524D01*
X69111667Y37004762D01*
X69016429Y37100000D01*
X68873571Y37147619D01*
X68778333Y37147619D01*
X68635476Y37100000D01*
X68587857Y37052381D01*
X67635476Y36147619D02*
X68206905Y36147619D01*
X67921191Y36147619D02*
X67921191Y37147619D01*
X68016429Y37004762D01*
X68111667Y36909524D01*
X68206905Y36861905D01*
X67254524Y37052381D02*
X67206905Y37100000D01*
X67111667Y37147619D01*
X66873571Y37147619D01*
X66778333Y37100000D01*
X66730714Y37052381D01*
X66683095Y36957143D01*
X66683095Y36861905D01*
X66730714Y36719048D01*
X67302143Y36147619D01*
X66683095Y36147619D01*
X58427857Y15287857D02*
X58475476Y15240238D01*
X58618333Y15192619D01*
X58713571Y15192619D01*
X58856429Y15240238D01*
X58951667Y15335476D01*
X58999286Y15430714D01*
X59046905Y15621190D01*
X59046905Y15764048D01*
X58999286Y15954524D01*
X58951667Y16049762D01*
X58856429Y16145000D01*
X58713571Y16192619D01*
X58618333Y16192619D01*
X58475476Y16145000D01*
X58427857Y16097381D01*
X57475476Y15192619D02*
X58046905Y15192619D01*
X57761191Y15192619D02*
X57761191Y16192619D01*
X57856429Y16049762D01*
X57951667Y15954524D01*
X58046905Y15906905D01*
X57142143Y16192619D02*
X56523095Y16192619D01*
X56856429Y15811667D01*
X56713571Y15811667D01*
X56618333Y15764048D01*
X56570714Y15716429D01*
X56523095Y15621190D01*
X56523095Y15383095D01*
X56570714Y15287857D01*
X56618333Y15240238D01*
X56713571Y15192619D01*
X56999286Y15192619D01*
X57094524Y15240238D01*
X57142143Y15287857D01*
X23502857Y27102857D02*
X23550476Y27055238D01*
X23693333Y27007619D01*
X23788571Y27007619D01*
X23931429Y27055238D01*
X24026667Y27150476D01*
X24074286Y27245714D01*
X24121905Y27436190D01*
X24121905Y27579048D01*
X24074286Y27769524D01*
X24026667Y27864762D01*
X23931429Y27960000D01*
X23788571Y28007619D01*
X23693333Y28007619D01*
X23550476Y27960000D01*
X23502857Y27912381D01*
X22550476Y27007619D02*
X23121905Y27007619D01*
X22836191Y27007619D02*
X22836191Y28007619D01*
X22931429Y27864762D01*
X23026667Y27769524D01*
X23121905Y27721905D01*
X21645714Y28007619D02*
X22121905Y28007619D01*
X22169524Y27531429D01*
X22121905Y27579048D01*
X22026667Y27626667D01*
X21788571Y27626667D01*
X21693333Y27579048D01*
X21645714Y27531429D01*
X21598095Y27436190D01*
X21598095Y27198095D01*
X21645714Y27102857D01*
X21693333Y27055238D01*
X21788571Y27007619D01*
X22026667Y27007619D01*
X22121905Y27055238D01*
X22169524Y27102857D01*
X40012857Y33527857D02*
X40060476Y33480238D01*
X40203333Y33432619D01*
X40298571Y33432619D01*
X40441429Y33480238D01*
X40536667Y33575476D01*
X40584286Y33670714D01*
X40631905Y33861190D01*
X40631905Y34004048D01*
X40584286Y34194524D01*
X40536667Y34289762D01*
X40441429Y34385000D01*
X40298571Y34432619D01*
X40203333Y34432619D01*
X40060476Y34385000D01*
X40012857Y34337381D01*
X39060476Y33432619D02*
X39631905Y33432619D01*
X39346191Y33432619D02*
X39346191Y34432619D01*
X39441429Y34289762D01*
X39536667Y34194524D01*
X39631905Y34146905D01*
X38203333Y34432619D02*
X38393810Y34432619D01*
X38489048Y34385000D01*
X38536667Y34337381D01*
X38631905Y34194524D01*
X38679524Y34004048D01*
X38679524Y33623095D01*
X38631905Y33527857D01*
X38584286Y33480238D01*
X38489048Y33432619D01*
X38298571Y33432619D01*
X38203333Y33480238D01*
X38155714Y33527857D01*
X38108095Y33623095D01*
X38108095Y33861190D01*
X38155714Y33956429D01*
X38203333Y34004048D01*
X38298571Y34051667D01*
X38489048Y34051667D01*
X38584286Y34004048D01*
X38631905Y33956429D01*
X38679524Y33861190D01*
X21081905Y33512619D02*
X21081905Y32703095D01*
X21034286Y32607857D01*
X20986667Y32560238D01*
X20891429Y32512619D01*
X20700952Y32512619D01*
X20605714Y32560238D01*
X20558095Y32607857D01*
X20510476Y32703095D01*
X20510476Y33512619D01*
X20081905Y33417381D02*
X20034286Y33465000D01*
X19939048Y33512619D01*
X19700952Y33512619D01*
X19605714Y33465000D01*
X19558095Y33417381D01*
X19510476Y33322143D01*
X19510476Y33226905D01*
X19558095Y33084048D01*
X20129524Y32512619D01*
X19510476Y32512619D01*
X40952381Y31241905D02*
X41761905Y31241905D01*
X41857143Y31194286D01*
X41904762Y31146667D01*
X41952381Y31051429D01*
X41952381Y30860952D01*
X41904762Y30765714D01*
X41857143Y30718095D01*
X41761905Y30670476D01*
X40952381Y30670476D01*
X41952381Y29670476D02*
X41952381Y30241905D01*
X41952381Y29956191D02*
X40952381Y29956191D01*
X41095238Y30051429D01*
X41190476Y30146667D01*
X41238095Y30241905D01*
M02*
