G04 #@! TF.FileFunction,Copper,L2,Bot,Signal*
%FSLAX46Y46*%
G04 Gerber Fmt 4.6, Leading zero omitted, Abs format (unit mm)*
G04 Created by KiCad (PCBNEW 4.0.6) date 06/24/17 11:35:38*
%MOMM*%
%LPD*%
G01*
G04 APERTURE LIST*
%ADD10C,0.100000*%
%ADD11R,1.524000X1.524000*%
%ADD12C,1.524000*%
%ADD13R,3.500000X3.500000*%
%ADD14R,0.800000X0.750000*%
%ADD15R,1.000000X1.600000*%
%ADD16R,2.200000X1.200000*%
%ADD17R,6.400000X5.800000*%
%ADD18R,3.050000X2.750000*%
%ADD19R,0.300000X1.550000*%
%ADD20R,1.550000X0.300000*%
%ADD21C,1.700000*%
%ADD22C,0.600000*%
%ADD23C,0.500000*%
%ADD24C,1.000000*%
%ADD25C,0.250000*%
%ADD26C,0.254000*%
G04 APERTURE END LIST*
D10*
D11*
X16637000Y11303000D03*
X14097000Y11303000D03*
D12*
X2159000Y11303000D03*
X4699000Y11303000D03*
D11*
X16637000Y29845000D03*
X14097000Y29845000D03*
D12*
X2159000Y29845000D03*
X4699000Y29845000D03*
D13*
X10160000Y40005000D03*
X4160000Y40005000D03*
X7160000Y35305000D03*
D14*
X67195000Y21590000D03*
X68695000Y21590000D03*
X58940000Y44450000D03*
X60440000Y44450000D03*
X44335000Y17145000D03*
X45835000Y17145000D03*
X51320000Y17145000D03*
X52820000Y17145000D03*
X44335000Y15240000D03*
X45835000Y15240000D03*
X40120000Y39370000D03*
X38620000Y39370000D03*
X67195000Y31750000D03*
X68695000Y31750000D03*
X62115000Y44450000D03*
X63615000Y44450000D03*
X54090000Y44450000D03*
X52590000Y44450000D03*
X67195000Y26670000D03*
X68695000Y26670000D03*
X40120000Y27305000D03*
X38620000Y27305000D03*
X67195000Y38100000D03*
X68695000Y38100000D03*
X57035000Y17145000D03*
X58535000Y17145000D03*
D15*
X21360000Y29210000D03*
X24360000Y29210000D03*
D14*
X40120000Y32385000D03*
X38620000Y32385000D03*
D16*
X16120000Y35185000D03*
X16120000Y39745000D03*
D17*
X22420000Y37465000D03*
D18*
X24095000Y38990000D03*
X20745000Y35940000D03*
X24095000Y35940000D03*
X20745000Y38990000D03*
D19*
X45225000Y41180000D03*
X45725000Y41180000D03*
X46225000Y41180000D03*
X46725000Y41180000D03*
X47225000Y41180000D03*
X47725000Y41180000D03*
X48225000Y41180000D03*
X48725000Y41180000D03*
X49225000Y41180000D03*
X49725000Y41180000D03*
X50225000Y41180000D03*
X50725000Y41180000D03*
X51225000Y41180000D03*
X51725000Y41180000D03*
X52225000Y41180000D03*
X52725000Y41180000D03*
X53225000Y41180000D03*
X53725000Y41180000D03*
X54225000Y41180000D03*
X54725000Y41180000D03*
X55225000Y41180000D03*
X55725000Y41180000D03*
X56225000Y41180000D03*
X56725000Y41180000D03*
X57225000Y41180000D03*
X57725000Y41180000D03*
X58225000Y41180000D03*
X58725000Y41180000D03*
X59225000Y41180000D03*
X59725000Y41180000D03*
X60225000Y41180000D03*
X60725000Y41180000D03*
X61225000Y41180000D03*
X61725000Y41180000D03*
X62225000Y41180000D03*
X62725000Y41180000D03*
D20*
X64675000Y39230000D03*
X64675000Y38730000D03*
X64675000Y38230000D03*
X64675000Y37730000D03*
X64675000Y37230000D03*
X64675000Y36730000D03*
X64675000Y36230000D03*
X64675000Y35730000D03*
X64675000Y35230000D03*
X64675000Y34730000D03*
X64675000Y34230000D03*
X64675000Y33730000D03*
X64675000Y33230000D03*
X64675000Y32730000D03*
X64675000Y32230000D03*
X64675000Y31730000D03*
X64675000Y31230000D03*
X64675000Y30730000D03*
X64675000Y30230000D03*
X64675000Y29730000D03*
X64675000Y29230000D03*
X64675000Y28730000D03*
X64675000Y28230000D03*
X64675000Y27730000D03*
X64675000Y27230000D03*
X64675000Y26730000D03*
X64675000Y26230000D03*
X64675000Y25730000D03*
X64675000Y25230000D03*
X64675000Y24730000D03*
X64675000Y24230000D03*
X64675000Y23730000D03*
X64675000Y23230000D03*
X64675000Y22730000D03*
X64675000Y22230000D03*
X64675000Y21730000D03*
D19*
X62725000Y19780000D03*
X62225000Y19780000D03*
X61725000Y19780000D03*
X61225000Y19780000D03*
X60725000Y19780000D03*
X60225000Y19780000D03*
X59725000Y19780000D03*
X59225000Y19780000D03*
X58725000Y19780000D03*
X58225000Y19780000D03*
X57725000Y19780000D03*
X57225000Y19780000D03*
X56725000Y19780000D03*
X56225000Y19780000D03*
X55725000Y19780000D03*
X55225000Y19780000D03*
X54725000Y19780000D03*
X54225000Y19780000D03*
X53725000Y19780000D03*
X53225000Y19780000D03*
X52725000Y19780000D03*
X52225000Y19780000D03*
X51725000Y19780000D03*
X51225000Y19780000D03*
X50725000Y19780000D03*
X50225000Y19780000D03*
X49725000Y19780000D03*
X49225000Y19780000D03*
X48725000Y19780000D03*
X48225000Y19780000D03*
X47725000Y19780000D03*
X47225000Y19780000D03*
X46725000Y19780000D03*
X46225000Y19780000D03*
X45725000Y19780000D03*
X45225000Y19780000D03*
D20*
X43275000Y21730000D03*
X43275000Y22230000D03*
X43275000Y22730000D03*
X43275000Y23230000D03*
X43275000Y23730000D03*
X43275000Y24230000D03*
X43275000Y24730000D03*
X43275000Y25230000D03*
X43275000Y25730000D03*
X43275000Y26230000D03*
X43275000Y26730000D03*
X43275000Y27230000D03*
X43275000Y27730000D03*
X43275000Y28230000D03*
X43275000Y28730000D03*
X43275000Y29230000D03*
X43275000Y29730000D03*
X43275000Y30230000D03*
X43275000Y30730000D03*
X43275000Y31230000D03*
X43275000Y31730000D03*
X43275000Y32230000D03*
X43275000Y32730000D03*
X43275000Y33230000D03*
X43275000Y33730000D03*
X43275000Y34230000D03*
X43275000Y34730000D03*
X43275000Y35230000D03*
X43275000Y35730000D03*
X43275000Y36230000D03*
X43275000Y36730000D03*
X43275000Y37230000D03*
X43275000Y37730000D03*
X43275000Y38230000D03*
X43275000Y38730000D03*
X43275000Y39230000D03*
D21*
X30386000Y2690000D03*
X30385000Y5230000D03*
X32925000Y2690000D03*
X32925000Y5230000D03*
X35465000Y2690000D03*
X35465000Y5230000D03*
X38005000Y2690000D03*
X38005000Y5230000D03*
X40545000Y2690000D03*
X40545000Y5230000D03*
X43085000Y2690000D03*
X43085000Y5230000D03*
X45625000Y2690000D03*
X45625000Y5230000D03*
X48165000Y2690000D03*
X48165000Y5230000D03*
X50705000Y2690000D03*
X50705000Y5230000D03*
X53245000Y2690000D03*
X53245000Y5230000D03*
X55785000Y2690000D03*
X55785000Y5230000D03*
X58325000Y2690000D03*
X58325000Y5230000D03*
X60865000Y2690000D03*
X60865000Y5230000D03*
X63405000Y2690000D03*
X63405000Y5230000D03*
X65945000Y2690000D03*
X65945000Y5230000D03*
X68485000Y2690000D03*
X68485000Y5230000D03*
X71025000Y2690000D03*
X71025000Y5230000D03*
X73565000Y2690000D03*
X73565000Y5230000D03*
X76105000Y2690000D03*
X76105000Y5230000D03*
X78645000Y2690000D03*
X78645000Y5230000D03*
D22*
X58945300Y25400000D03*
X66032300Y21485700D03*
X83566000Y50927000D03*
X13970000Y50800000D03*
X18796000Y50673000D03*
X74168000Y14732000D03*
X70993000Y15367000D03*
X73152000Y7747000D03*
X73025000Y54102000D03*
X69977000Y54102000D03*
X78613000Y48260000D03*
X81026000Y44196000D03*
X24765000Y48133000D03*
X27686000Y48133000D03*
X60603400Y39654600D03*
X66918200Y18286100D03*
X45325200Y35280100D03*
X62725300Y33521800D03*
X70419500Y24781300D03*
X48387000Y22479000D03*
X42521800Y21072900D03*
X57221100Y39866800D03*
X66998200Y54530200D03*
X63923700Y54173700D03*
X63513400Y47072300D03*
X59095200Y43372200D03*
X62873400Y54268200D03*
X61885000Y49164500D03*
X59587900Y48553700D03*
X60121800Y49185700D03*
X57150000Y54726400D03*
X56516800Y48746500D03*
X54953600Y53511000D03*
X54715500Y49187700D03*
X51907300Y54689900D03*
X51265100Y48627900D03*
X49736300Y54713400D03*
X49678700Y49201100D03*
X47399000Y54730700D03*
X47416000Y49200300D03*
X41067600Y48263500D03*
X46461800Y49193200D03*
X42105900Y54723800D03*
X45361700Y48376000D03*
X39565900Y54723800D03*
X40406200Y51157400D03*
X36937500Y54698900D03*
X40429300Y49157700D03*
X66077600Y18120300D03*
X64579500Y17485800D03*
X62047400Y17477900D03*
X63138800Y17288800D03*
X61027300Y21071100D03*
X59877200Y11942500D03*
X60158000Y18185000D03*
X58412700Y13304900D03*
X58906600Y21060300D03*
X55622600Y11755300D03*
X57861900Y21233900D03*
X58873400Y18022600D03*
X56022300Y21056000D03*
X51280400Y11848400D03*
X55016200Y21056600D03*
X50711500Y12497300D03*
X54010100Y21061200D03*
X51193000Y13149500D03*
X52878100Y21061300D03*
X50701900Y13791500D03*
X49843500Y21152500D03*
X52876200Y18502600D03*
X48675100Y21070400D03*
X37846400Y9930000D03*
X66492300Y44054400D03*
X63991100Y41910000D03*
X66944900Y39618900D03*
X66909100Y35015600D03*
X65977100Y35028200D03*
X63359300Y34988400D03*
X67709000Y34215700D03*
X66126500Y33618100D03*
X63375600Y32998600D03*
X68857000Y32709100D03*
X66733100Y30527900D03*
X63390100Y30947100D03*
X67896900Y29261100D03*
X63388200Y29886400D03*
X66945300Y28914100D03*
X67827300Y28460700D03*
X63374000Y27635000D03*
X66019800Y27995800D03*
X68068700Y23387600D03*
X66415600Y24985000D03*
X63397700Y25224100D03*
X66594700Y23976800D03*
X62946200Y21563300D03*
X63029000Y23074300D03*
X41215000Y38599700D03*
X39947900Y38353600D03*
X44562600Y33977800D03*
X41801600Y34603100D03*
X39916300Y34108600D03*
X38959900Y34154300D03*
X41974800Y31599000D03*
X44567800Y30908900D03*
X40783300Y30726100D03*
X44583500Y29913500D03*
X39122400Y30035300D03*
X41528000Y29454200D03*
X40841400Y28872600D03*
X40128600Y28213700D03*
X39953700Y25132300D03*
X39588700Y24130000D03*
X38994500Y22878700D03*
X44553800Y25595400D03*
X36652200Y19875300D03*
X36431100Y19050000D03*
X36250500Y18059100D03*
X35704200Y16598600D03*
X36975800Y13144700D03*
X35812000Y15767100D03*
D23*
X40092150Y40473150D02*
X43727850Y40473150D01*
X46609000Y37592000D02*
X46736000Y37592000D01*
X43727850Y40473150D02*
X46609000Y37592000D01*
D24*
X62103000Y37719000D02*
X59499000Y37719000D01*
D25*
X62614000Y38230000D02*
X62103000Y37719000D01*
X64675000Y38230000D02*
X62614000Y38230000D01*
D24*
X59499000Y37719000D02*
X59372000Y37592000D01*
D25*
X64675000Y31730000D02*
X59860000Y31730000D01*
X59860000Y31730000D02*
X59372000Y31242000D01*
X43275000Y27730000D02*
X46736000Y27730000D01*
X46609000Y27686000D02*
X46736000Y27686000D01*
X46692000Y27686000D02*
X46609000Y27686000D01*
X46736000Y27730000D02*
X46692000Y27686000D01*
X43275000Y32730000D02*
X46736000Y32730000D01*
X46863000Y32766000D02*
X46736000Y32766000D01*
X46772000Y32766000D02*
X46863000Y32766000D01*
X46736000Y32730000D02*
X46772000Y32766000D01*
D24*
X46736000Y37592000D02*
X46736000Y32766000D01*
X46736000Y32766000D02*
X46736000Y27686000D01*
X46736000Y27686000D02*
X46736000Y24638000D01*
X46736000Y24638000D02*
X46037500Y23939500D01*
X53022000Y37592000D02*
X46736000Y37592000D01*
D25*
X53225000Y37794500D02*
X53022000Y37592000D01*
X53225000Y41180000D02*
X53225000Y37794500D01*
X59372000Y25717500D02*
X59531000Y25558800D01*
D24*
X59372000Y31242000D02*
X59372000Y25717500D01*
D25*
X51725000Y19780000D02*
X51725000Y23939500D01*
X51626000Y23876000D02*
X51626000Y23939500D01*
X51662000Y23876000D02*
X51626000Y23876000D01*
X51725000Y23939500D02*
X51662000Y23876000D01*
D24*
X60702000Y26730000D02*
X59531000Y25558800D01*
D25*
X64675000Y26730000D02*
X60702000Y26730000D01*
X45225000Y18035000D02*
X44335000Y17145000D01*
X45225000Y19780000D02*
X45225000Y18035000D01*
X51725000Y17550000D02*
X51320000Y17145000D01*
X51725000Y19780000D02*
X51725000Y17550000D01*
X57225000Y17335000D02*
X57035000Y17145000D01*
X57225000Y19780000D02*
X57225000Y17335000D01*
X67135000Y26730000D02*
X67195000Y26670000D01*
X64675000Y26730000D02*
X67135000Y26730000D01*
X67175000Y31730000D02*
X67195000Y31750000D01*
X64675000Y31730000D02*
X67175000Y31730000D01*
X67065000Y38230000D02*
X67195000Y38100000D01*
X64675000Y38230000D02*
X67065000Y38230000D01*
X59725000Y43665000D02*
X58940000Y44450000D01*
X59725000Y41180000D02*
X59725000Y43665000D01*
X40465000Y32730000D02*
X40120000Y32385000D01*
X43275000Y32730000D02*
X40465000Y32730000D01*
X40545000Y27730000D02*
X40120000Y27305000D01*
X43275000Y27730000D02*
X40545000Y27730000D01*
X45225000Y19780000D02*
X45225000Y23939500D01*
D24*
X46037500Y23939500D02*
X45225000Y23939500D01*
D25*
X57225000Y19780000D02*
X57225000Y23939500D01*
X57225000Y23939500D02*
X57277000Y23939500D01*
X57277000Y23939500D02*
X57225000Y23939500D01*
D24*
X57225000Y23939500D02*
X51725000Y23939500D01*
D25*
X51725000Y23939500D02*
X51626000Y23939500D01*
D24*
X51626000Y23939500D02*
X46037500Y23939500D01*
D25*
X59372000Y38163500D02*
X59372000Y37592000D01*
D24*
X59372000Y37592000D02*
X59372000Y31242000D01*
D25*
X59372000Y38230000D02*
X59372000Y38163500D01*
X59372000Y39624000D02*
X59372000Y38230000D01*
X59725000Y39976500D02*
X59372000Y39624000D01*
X59725000Y41180000D02*
X59725000Y39976500D01*
X59372000Y38230000D02*
X59372000Y38163500D01*
D24*
X59372000Y37592000D02*
X53022000Y37592000D01*
X44335000Y15240000D02*
X44335000Y17145000D01*
D25*
X53225000Y43585000D02*
X54090000Y44450000D01*
X53225000Y41180000D02*
X53225000Y43585000D01*
X61225000Y43560000D02*
X61866800Y44201800D01*
X61225000Y41180000D02*
X61225000Y43560000D01*
X61866800Y44201800D02*
X62115000Y44450000D01*
D24*
X61866800Y44835900D02*
X61866800Y44201800D01*
X61177400Y45525300D02*
X61866800Y44835900D01*
X58940000Y45525300D02*
X61177400Y45525300D01*
D25*
X67055000Y21730000D02*
X67125000Y21660000D01*
X64675000Y21730000D02*
X67055000Y21730000D01*
X67125000Y21660000D02*
X67195000Y21590000D01*
X59531000Y25558800D02*
X59158800Y25186500D01*
D24*
X58945300Y25400000D02*
X59158800Y25186500D01*
X57912000Y23939500D02*
X57277000Y23939500D01*
X59158800Y25186500D02*
X57912000Y23939500D01*
X66950700Y21485700D02*
X66032300Y21485700D01*
X67125000Y21660000D02*
X66950700Y21485700D01*
X58940000Y44450000D02*
X58940000Y45525300D01*
D25*
X40260000Y39230000D02*
X40120000Y39370000D01*
X43275000Y39230000D02*
X40260000Y39230000D01*
D24*
X17920300Y40070100D02*
X17920300Y39745000D01*
X18916300Y41066100D02*
X17920300Y40070100D01*
X39499200Y41066100D02*
X18916300Y41066100D01*
X40120000Y40445300D02*
X40092150Y40473150D01*
X40092150Y40473150D02*
X39499200Y41066100D01*
X40120000Y39370000D02*
X40120000Y40445300D01*
X16120000Y39745000D02*
X17920300Y39745000D01*
X22420000Y37465000D02*
X22420000Y32707000D01*
X22420000Y32707000D02*
X22352000Y32639000D01*
X22420000Y37465000D02*
X27686000Y37465000D01*
X22420000Y37465000D02*
X13970000Y37465000D01*
D25*
X13843000Y50673000D02*
X13462000Y50673000D01*
X13970000Y50800000D02*
X13843000Y50673000D01*
X18669000Y50546000D02*
X18669000Y50165000D01*
X18796000Y50673000D02*
X18669000Y50546000D01*
X69977000Y54102000D02*
X70104000Y53975000D01*
X24765000Y48133000D02*
X27686000Y48133000D01*
X57725000Y17955000D02*
X58535000Y17145000D01*
X57725000Y19780000D02*
X57725000Y17955000D01*
X45725000Y17255000D02*
X45835000Y17145000D01*
X45725000Y19780000D02*
X45725000Y17255000D01*
X60225000Y44235000D02*
X60440000Y44450000D01*
X60225000Y41180000D02*
X60225000Y44235000D01*
X60225000Y41180000D02*
X60225000Y40079700D01*
X39509000Y31496000D02*
X38620000Y32385000D01*
X40703500Y31496000D02*
X39509000Y31496000D01*
X41437500Y32230000D02*
X40703500Y31496000D01*
X43275000Y32230000D02*
X41437500Y32230000D01*
X45835000Y17145000D02*
X45835000Y16444700D01*
X45835000Y15240000D02*
X45835000Y16444700D01*
X67870000Y27495500D02*
X68695000Y26670000D01*
X66421000Y27495500D02*
X67870000Y27495500D01*
X66156000Y27230000D02*
X66421000Y27495500D01*
X64675000Y27230000D02*
X66156000Y27230000D01*
X60603400Y39701300D02*
X60603400Y39654600D01*
X60225000Y40079700D02*
X60603400Y39701300D01*
X61528000Y38730000D02*
X60603400Y39654600D01*
X64675000Y38730000D02*
X61528000Y38730000D01*
X66421000Y38862000D02*
X67645600Y38862000D01*
X66289000Y38730000D02*
X66421000Y38862000D01*
X64675000Y38730000D02*
X66289000Y38730000D01*
X67933000Y38862000D02*
X68695000Y38100000D01*
X67645600Y38862000D02*
X67933000Y38862000D01*
X63615000Y44450000D02*
X64340300Y44450000D01*
X52725000Y44315000D02*
X52657500Y44382500D01*
X52725000Y41180000D02*
X52725000Y44315000D01*
X52657500Y44382500D02*
X52590000Y44450000D01*
X67645600Y43796000D02*
X66714500Y44727100D01*
X67645600Y38862000D02*
X67645600Y43796000D01*
X64617400Y44727100D02*
X64340300Y44450000D01*
X66714500Y44727100D02*
X64617400Y44727100D01*
X68695000Y26670000D02*
X68695000Y25969700D01*
X68695000Y22290300D02*
X68695000Y25969700D01*
X67933000Y32512000D02*
X68695000Y31750000D01*
X66484000Y32512000D02*
X67933000Y32512000D01*
X66202000Y32230000D02*
X66484000Y32512000D01*
X64675000Y32230000D02*
X66202000Y32230000D01*
X68695000Y31750000D02*
X68695000Y31049700D01*
X68695000Y26670000D02*
X68695000Y27370300D01*
X68695000Y21940200D02*
X68695000Y22290300D01*
X52225000Y17740000D02*
X52524600Y17440400D01*
X52225000Y19780000D02*
X52225000Y17740000D01*
X52524600Y17440400D02*
X52820000Y17145000D01*
X68695000Y21940200D02*
X68695000Y21590000D01*
X58535000Y17145000D02*
X58535000Y16444700D01*
X54973100Y12882800D02*
X58535000Y16444700D01*
X54973100Y11108000D02*
X54973100Y12882800D01*
X52857300Y9379900D02*
X53245000Y9379900D01*
X50068500Y12168700D02*
X52857300Y9379900D01*
X50068500Y14546500D02*
X50068500Y12168700D01*
X52524600Y17002600D02*
X50068500Y14546500D01*
X52524600Y17440400D02*
X52524600Y17002600D01*
X54973100Y11108000D02*
X53245000Y9379900D01*
X53245000Y9379900D02*
X53245000Y5230000D01*
X68695000Y31049700D02*
X68695000Y27370300D01*
X68695000Y20062900D02*
X66918200Y18286100D01*
X68695000Y21590000D02*
X68695000Y20062900D01*
X59993800Y11108000D02*
X54973100Y11108000D01*
X66918200Y18032400D02*
X59993800Y11108000D01*
X66918200Y18286100D02*
X66918200Y18032400D01*
X38497100Y28128200D02*
X38620000Y28005300D01*
X38497100Y30484100D02*
X38497100Y28128200D01*
X39509000Y31496000D02*
X38497100Y30484100D01*
X38620000Y27305000D02*
X38620000Y28005300D01*
X35064000Y22098000D02*
X39445500Y26479500D01*
X35064000Y5631000D02*
X35064000Y22098000D01*
X35465000Y5230000D02*
X35064000Y5631000D01*
X40767000Y26479500D02*
X39445500Y26479500D01*
X41517500Y27230000D02*
X40767000Y26479500D01*
X43275000Y27230000D02*
X41517500Y27230000D01*
X39445500Y26479500D02*
X38620000Y27305000D01*
X45835000Y5440000D02*
X45835000Y15240000D01*
X45625000Y5230000D02*
X45835000Y5440000D01*
X52657500Y52107900D02*
X52657500Y44382500D01*
X55940000Y55390400D02*
X52657500Y52107900D01*
X67028500Y55390400D02*
X55940000Y55390400D01*
X67651000Y54767900D02*
X67028500Y55390400D01*
X67651000Y45663600D02*
X67651000Y54767900D01*
X66714500Y44727100D02*
X67651000Y45663600D01*
X20745000Y38990000D02*
X20745000Y38139900D01*
X38620000Y39370000D02*
X38620000Y39019900D01*
X24095000Y35089900D02*
X24095000Y35940000D01*
X43275000Y36230000D02*
X44375300Y36230000D01*
X44375300Y36230000D02*
X45325200Y35280100D01*
X20745000Y35940000D02*
X20745000Y37640300D01*
X24095000Y35940000D02*
X24095000Y37640300D01*
X23420200Y38315200D02*
X24095000Y37640300D01*
X24095000Y38990000D02*
X23420200Y38315200D01*
X23182400Y38227400D02*
X22420000Y37465000D01*
X23332400Y38227400D02*
X23182400Y38227400D01*
X23420200Y38315200D02*
X23332400Y38227400D01*
X38620000Y38990000D02*
X38620000Y39019900D01*
X41133200Y36230000D02*
X43275000Y36230000D01*
X38620000Y38743200D02*
X41133200Y36230000D01*
X38620000Y38990000D02*
X38620000Y38743200D01*
X21745100Y38139900D02*
X22420000Y37465000D01*
X20745000Y38139900D02*
X21745100Y38139900D01*
X20745000Y38139900D02*
X20745000Y37640300D01*
D24*
X16120000Y35185000D02*
X17920300Y35185000D01*
X17920300Y32590600D02*
X17920300Y35185000D01*
X16637000Y31307300D02*
X17920300Y32590600D01*
X16637000Y29845000D02*
X16637000Y31307300D01*
X16637000Y29845000D02*
X18099300Y29845000D01*
X18734300Y29210000D02*
X18099300Y29845000D01*
X21360000Y29210000D02*
X18734300Y29210000D01*
X21360000Y14255000D02*
X30385000Y5230000D01*
X21360000Y29210000D02*
X21360000Y14255000D01*
D25*
X31734400Y3880600D02*
X32925000Y2690000D01*
X31734400Y28543000D02*
X31734400Y3880600D01*
X38921400Y35730000D02*
X31734400Y28543000D01*
X43275000Y35730000D02*
X38921400Y35730000D01*
X43275000Y35230000D02*
X42174700Y35230000D01*
X39102700Y35230000D02*
X42174700Y35230000D01*
X34251300Y30378600D02*
X39102700Y35230000D01*
X34251300Y3903700D02*
X34251300Y30378600D01*
X35465000Y2690000D02*
X34251300Y3903700D01*
X48725000Y19780000D02*
X48725000Y18679700D01*
X44327000Y1448000D02*
X43085000Y2690000D01*
X46114800Y1448000D02*
X44327000Y1448000D01*
X46895000Y2228200D02*
X46114800Y1448000D01*
X46895000Y3082200D02*
X46895000Y2228200D01*
X47772800Y3960000D02*
X46895000Y3082200D01*
X48596000Y3960000D02*
X47772800Y3960000D01*
X49340400Y4704400D02*
X48596000Y3960000D01*
X49340400Y7897500D02*
X49340400Y4704400D01*
X48725000Y8512900D02*
X49340400Y7897500D01*
X48725000Y18679700D02*
X48725000Y8512900D01*
X46895000Y3960000D02*
X45625000Y2690000D01*
X46895000Y15133200D02*
X46895000Y3960000D01*
X48225000Y16463200D02*
X46895000Y15133200D01*
X48225000Y19780000D02*
X48225000Y16463200D01*
X54515000Y3960000D02*
X53245000Y2690000D01*
X54515000Y5645300D02*
X54515000Y3960000D01*
X56377200Y7507500D02*
X54515000Y5645300D01*
X57044600Y7507500D02*
X56377200Y7507500D01*
X69488100Y19951000D02*
X57044600Y7507500D01*
X69488100Y24191500D02*
X69488100Y19951000D01*
X69343900Y24335700D02*
X69488100Y24191500D01*
X69343900Y25226900D02*
X69343900Y24335700D01*
X69488100Y25371100D02*
X69343900Y25226900D01*
X69488100Y33321200D02*
X69488100Y25371100D01*
X66579300Y36230000D02*
X69488100Y33321200D01*
X64675000Y36230000D02*
X66579300Y36230000D01*
X57055000Y3960000D02*
X55785000Y2690000D01*
X57055000Y6541600D02*
X57055000Y3960000D01*
X69938400Y19425000D02*
X57055000Y6541600D01*
X69938400Y24378100D02*
X69938400Y19425000D01*
X69794200Y24522300D02*
X69938400Y24378100D01*
X69794200Y25040300D02*
X69794200Y24522300D01*
X69938400Y25184500D02*
X69794200Y25040300D01*
X69938400Y33507800D02*
X69938400Y25184500D01*
X66716200Y36730000D02*
X69938400Y33507800D01*
X64675000Y36730000D02*
X66716200Y36730000D01*
X59595000Y3960000D02*
X58325000Y2690000D01*
X59595000Y5863100D02*
X59595000Y3960000D01*
X71066700Y17334800D02*
X59595000Y5863100D01*
X71066700Y33024800D02*
X71066700Y17334800D01*
X66861500Y37230000D02*
X71066700Y33024800D01*
X64675000Y37230000D02*
X66861500Y37230000D01*
X70419500Y17324500D02*
X58325000Y5230000D01*
X70419500Y24781300D02*
X70419500Y17324500D01*
X64675000Y37730000D02*
X63574700Y37730000D01*
X62725300Y36880600D02*
X62725300Y33521800D01*
X63574700Y37730000D02*
X62725300Y36880600D01*
X46725000Y19780000D02*
X46725000Y20880300D01*
X46753800Y20880300D02*
X48387000Y22479000D01*
X46725000Y20880300D02*
X46753800Y20880300D01*
X43275000Y21730000D02*
X42174700Y21730000D01*
X42174700Y21420000D02*
X42521800Y21072900D01*
X42174700Y21730000D02*
X42174700Y21420000D01*
X57221100Y40075800D02*
X57221100Y39866800D01*
X57225000Y40079700D02*
X57221100Y40075800D01*
X57225000Y41180000D02*
X57225000Y40079700D01*
X61725000Y42814400D02*
X61725000Y41180000D01*
X62889600Y43979000D02*
X61725000Y42814400D01*
X62889600Y45297800D02*
X62889600Y43979000D01*
X66998200Y49406400D02*
X62889600Y45297800D01*
X66998200Y54530200D02*
X66998200Y49406400D01*
X63923700Y47482600D02*
X63513400Y47072300D01*
X63923700Y54173700D02*
X63923700Y47482600D01*
X59225000Y43242400D02*
X59095200Y43372200D01*
X59225000Y41180000D02*
X59225000Y43242400D01*
X62873400Y49268500D02*
X62873400Y54268200D01*
X60632500Y47027600D02*
X62873400Y49268500D01*
X59267900Y47027600D02*
X60632500Y47027600D01*
X58099800Y45859500D02*
X59267900Y47027600D01*
X58099800Y43157800D02*
X58099800Y45859500D01*
X58725000Y42532600D02*
X58099800Y43157800D01*
X58725000Y41180000D02*
X58725000Y42532600D01*
X57634500Y42870800D02*
X58225000Y42280300D01*
X57634500Y46031100D02*
X57634500Y42870800D01*
X59081400Y47478000D02*
X57634500Y46031100D01*
X60198500Y47478000D02*
X59081400Y47478000D01*
X61885000Y49164500D02*
X60198500Y47478000D01*
X58225000Y41180000D02*
X58225000Y42280300D01*
X59520200Y48553700D02*
X59587900Y48553700D01*
X57184200Y46217700D02*
X59520200Y48553700D01*
X57184200Y42611600D02*
X57184200Y46217700D01*
X57725000Y42070800D02*
X57184200Y42611600D01*
X57725000Y41180000D02*
X57725000Y42070800D01*
X55725000Y42190700D02*
X55725000Y41180000D01*
X56733900Y43199600D02*
X55725000Y42190700D01*
X56733900Y46584000D02*
X56733900Y43199600D01*
X59335500Y49185600D02*
X56733900Y46584000D01*
X60121800Y49185600D02*
X59335500Y49185600D01*
X60121800Y49185700D02*
X60121800Y49185600D01*
X57150000Y48007000D02*
X57150000Y54726400D01*
X56283600Y47140600D02*
X57150000Y48007000D01*
X56283600Y43386200D02*
X56283600Y47140600D01*
X55225000Y42327600D02*
X56283600Y43386200D01*
X55225000Y41180000D02*
X55225000Y42327600D01*
X55825000Y48054700D02*
X56516800Y48746500D01*
X55825000Y43564500D02*
X55825000Y48054700D01*
X54725000Y42464500D02*
X55825000Y43564500D01*
X54725000Y41180000D02*
X54725000Y42464500D01*
X55374600Y53090000D02*
X54953600Y53511000D01*
X55374600Y43777200D02*
X55374600Y53090000D01*
X54225000Y42627600D02*
X55374600Y43777200D01*
X54225000Y41180000D02*
X54225000Y42627600D01*
X53725000Y42817700D02*
X53725000Y41180000D01*
X54815400Y43908100D02*
X53725000Y42817700D01*
X54815400Y49087800D02*
X54815400Y43908100D01*
X54715500Y49187700D02*
X54815400Y49087800D01*
X51907300Y45002400D02*
X51907300Y54689900D01*
X51864700Y44959800D02*
X51907300Y45002400D01*
X51864700Y43504500D02*
X51864700Y44959800D01*
X52225000Y43144200D02*
X51864700Y43504500D01*
X52225000Y41180000D02*
X52225000Y43144200D01*
X51265100Y43467200D02*
X51265100Y48627900D01*
X51725000Y43007300D02*
X51265100Y43467200D01*
X51725000Y41180000D02*
X51725000Y43007300D01*
X50355300Y54094400D02*
X49736300Y54713400D01*
X50355300Y48343900D02*
X50355300Y54094400D01*
X50698400Y48000800D02*
X50355300Y48343900D01*
X50698400Y43309300D02*
X50698400Y48000800D01*
X51225000Y42782700D02*
X50698400Y43309300D01*
X51225000Y41180000D02*
X51225000Y42782700D01*
X50725000Y41180000D02*
X50725000Y42280300D01*
X49678700Y48136200D02*
X49678700Y49201100D01*
X50175400Y47639500D02*
X49678700Y48136200D01*
X50175400Y42927200D02*
X50175400Y47639500D01*
X50725000Y42377600D02*
X50175400Y42927200D01*
X50725000Y42280300D02*
X50725000Y42377600D01*
X48316700Y53813000D02*
X47399000Y54730700D01*
X48316700Y48785400D02*
X48316700Y53813000D01*
X49725000Y47377100D02*
X48316700Y48785400D01*
X49725000Y42740700D02*
X49725000Y47377100D01*
X50225000Y42240700D02*
X49725000Y42740700D01*
X50225000Y41180000D02*
X50225000Y42240700D01*
X47416000Y47582200D02*
X47416000Y49200300D01*
X49175400Y45822800D02*
X47416000Y47582200D01*
X49175400Y42621000D02*
X49175400Y45822800D01*
X49725000Y42071400D02*
X49175400Y42621000D01*
X49725000Y41180000D02*
X49725000Y42071400D01*
X49225000Y41180000D02*
X49225000Y40079700D01*
X41067600Y43947400D02*
X41067600Y48263500D01*
X44935300Y40079700D02*
X41067600Y43947400D01*
X49225000Y40079700D02*
X44935300Y40079700D01*
X46461800Y47899500D02*
X46461800Y49193200D01*
X48725000Y45636300D02*
X46461800Y47899500D01*
X48725000Y41180000D02*
X48725000Y45636300D01*
X48225000Y45419700D02*
X48225000Y41180000D01*
X45987100Y47657600D02*
X48225000Y45419700D01*
X45987100Y48712800D02*
X45987100Y47657600D01*
X42105900Y52594000D02*
X45987100Y48712800D01*
X42105900Y54723800D02*
X42105900Y52594000D01*
X47225000Y45782800D02*
X47225000Y41180000D01*
X45536800Y47471000D02*
X47225000Y45782800D01*
X45536800Y48200900D02*
X45536800Y47471000D01*
X45361700Y48376000D02*
X45536800Y48200900D01*
X46725000Y45645900D02*
X46725000Y41180000D01*
X45086500Y47284400D02*
X46725000Y45645900D01*
X45086500Y47402300D02*
X45086500Y47284400D01*
X39565900Y52922900D02*
X45086500Y47402300D01*
X39565900Y54723800D02*
X39565900Y52922900D01*
X46225000Y45338600D02*
X46225000Y41180000D01*
X40406200Y51157400D02*
X46225000Y45338600D01*
X45725000Y45149600D02*
X45725000Y41180000D01*
X41091500Y49783100D02*
X45725000Y45149600D01*
X40874500Y49783100D02*
X41091500Y49783100D01*
X36937500Y53720100D02*
X40874500Y49783100D01*
X36937500Y54698900D02*
X36937500Y53720100D01*
X45225000Y41180000D02*
X45225000Y42280300D01*
X45225000Y44990500D02*
X45225000Y42280300D01*
X41057800Y49157700D02*
X45225000Y44990500D01*
X40429300Y49157700D02*
X41057800Y49157700D01*
X66077600Y18412100D02*
X66077600Y18120300D01*
X67960000Y20294500D02*
X66077600Y18412100D01*
X67960000Y22095600D02*
X67960000Y20294500D01*
X66825600Y23230000D02*
X67960000Y22095600D01*
X64675000Y23230000D02*
X66825600Y23230000D01*
X64675000Y22730000D02*
X63574700Y22730000D01*
X63574700Y18490600D02*
X64579500Y17485800D01*
X63574700Y22730000D02*
X63574700Y18490600D01*
X62225000Y17655500D02*
X62047400Y17477900D01*
X62225000Y19780000D02*
X62225000Y17655500D01*
X62725000Y19780000D02*
X62725000Y18679700D01*
X63138800Y18265900D02*
X63138800Y17288800D01*
X62725000Y18679700D02*
X63138800Y18265900D01*
X61218100Y20880300D02*
X61027300Y21071100D01*
X61225000Y20880300D02*
X61218100Y20880300D01*
X61225000Y19780000D02*
X61225000Y20880300D01*
X61361200Y13426500D02*
X59877200Y11942500D01*
X61361200Y18315900D02*
X61361200Y13426500D01*
X61725000Y18679700D02*
X61361200Y18315900D01*
X61725000Y19780000D02*
X61725000Y18679700D01*
X60225000Y18252000D02*
X60158000Y18185000D01*
X60225000Y19780000D02*
X60225000Y18252000D01*
X60725000Y19780000D02*
X60725000Y18679700D01*
X60802400Y18602300D02*
X60725000Y18679700D01*
X60802400Y15694600D02*
X60802400Y18602300D01*
X58412700Y13304900D02*
X60802400Y15694600D01*
X59086600Y20880300D02*
X58906600Y21060300D01*
X59225000Y20880300D02*
X59086600Y20880300D01*
X59225000Y19780000D02*
X59225000Y20880300D01*
X59506000Y15638700D02*
X55622600Y11755300D01*
X59506000Y18460700D02*
X59506000Y15638700D01*
X59725000Y18679700D02*
X59506000Y18460700D01*
X59725000Y19780000D02*
X59725000Y18679700D01*
X58215500Y20880300D02*
X57861900Y21233900D01*
X58225000Y20880300D02*
X58215500Y20880300D01*
X58225000Y19780000D02*
X58225000Y20880300D01*
X58725000Y18171000D02*
X58725000Y19780000D01*
X58873400Y18022600D02*
X58725000Y18171000D01*
X56198000Y20880300D02*
X56022300Y21056000D01*
X56225000Y20880300D02*
X56198000Y20880300D01*
X56225000Y19780000D02*
X56225000Y20880300D01*
X51477000Y11848400D02*
X51280400Y11848400D01*
X56175400Y16546800D02*
X51477000Y11848400D01*
X56175400Y17730000D02*
X56175400Y16546800D01*
X56725000Y18279600D02*
X56175400Y17730000D01*
X56725000Y19780000D02*
X56725000Y18279600D01*
X55192500Y20880300D02*
X55225000Y20880300D01*
X55016200Y21056600D02*
X55192500Y20880300D01*
X55225000Y19780000D02*
X55225000Y20880300D01*
X51486500Y12497300D02*
X50711500Y12497300D01*
X55725000Y16735800D02*
X51486500Y12497300D01*
X55725000Y19780000D02*
X55725000Y16735800D01*
X54191000Y20880300D02*
X54225000Y20880300D01*
X54010100Y21061200D02*
X54191000Y20880300D01*
X54225000Y19780000D02*
X54225000Y20880300D01*
X54725000Y16681500D02*
X51193000Y13149500D01*
X54725000Y19780000D02*
X54725000Y16681500D01*
X53059100Y20880300D02*
X52878100Y21061300D01*
X53225000Y20880300D02*
X53059100Y20880300D01*
X53225000Y19780000D02*
X53225000Y20880300D01*
X53725000Y16814600D02*
X53725000Y19780000D01*
X50701900Y13791500D02*
X53725000Y16814600D01*
X50115700Y20880300D02*
X49843500Y21152500D01*
X50225000Y20880300D02*
X50115700Y20880300D01*
X50225000Y19780000D02*
X50225000Y20880300D01*
X52725000Y19780000D02*
X52725000Y18679700D01*
X52725000Y18653800D02*
X52876200Y18502600D01*
X52725000Y18679700D02*
X52725000Y18653800D01*
X49225000Y19780000D02*
X49225000Y20880300D01*
X48865200Y20880300D02*
X48675100Y21070400D01*
X49225000Y20880300D02*
X48865200Y20880300D01*
X41815000Y5961400D02*
X37846400Y9930000D01*
X41815000Y2286200D02*
X41815000Y5961400D01*
X43114000Y987200D02*
X41815000Y2286200D01*
X50737600Y987200D02*
X43114000Y987200D01*
X51897700Y2147300D02*
X50737600Y987200D01*
X51897700Y7080100D02*
X51897700Y2147300D01*
X49546700Y9431100D02*
X51897700Y7080100D01*
X49546700Y14714900D02*
X49546700Y9431100D01*
X49725000Y14893200D02*
X49546700Y14714900D01*
X49725000Y19780000D02*
X49725000Y14893200D01*
X65225100Y42787200D02*
X66492300Y44054400D01*
X62578800Y42787200D02*
X65225100Y42787200D01*
X62225000Y42433400D02*
X62578800Y42787200D01*
X62225000Y41180000D02*
X62225000Y42433400D01*
X62725000Y41180000D02*
X62725000Y42280300D01*
X63620800Y42280300D02*
X63991100Y41910000D01*
X62725000Y42280300D02*
X63620800Y42280300D01*
X66164200Y39618900D02*
X65775300Y39230000D01*
X66944900Y39618900D02*
X66164200Y39618900D01*
X64675000Y39230000D02*
X65775300Y39230000D01*
X66194700Y35730000D02*
X66909100Y35015600D01*
X64675000Y35730000D02*
X66194700Y35730000D01*
X64675000Y35230000D02*
X65775300Y35230000D01*
X65775300Y35230000D02*
X65977100Y35028200D01*
X63574700Y34773000D02*
X63359300Y34988400D01*
X63574700Y34730000D02*
X63574700Y34773000D01*
X64675000Y34730000D02*
X63574700Y34730000D01*
X65788700Y34243400D02*
X65775300Y34230000D01*
X67681300Y34243400D02*
X65788700Y34243400D01*
X67709000Y34215700D02*
X67681300Y34243400D01*
X64675000Y34230000D02*
X65775300Y34230000D01*
X66014600Y33730000D02*
X64675000Y33730000D01*
X66126500Y33618100D02*
X66014600Y33730000D01*
X64675000Y33230000D02*
X63574700Y33230000D01*
X63574700Y33197700D02*
X63375600Y32998600D01*
X63574700Y33230000D02*
X63574700Y33197700D01*
X64675000Y32730000D02*
X65775300Y32730000D01*
X68573300Y32992800D02*
X68857000Y32709100D01*
X66038100Y32992800D02*
X68573300Y32992800D01*
X65775300Y32730000D02*
X66038100Y32992800D01*
X66031000Y31230000D02*
X66733100Y30527900D01*
X64675000Y31230000D02*
X66031000Y31230000D01*
X64675000Y30730000D02*
X63574700Y30730000D01*
X63574700Y30762500D02*
X63390100Y30947100D01*
X63574700Y30730000D02*
X63574700Y30762500D01*
X67477600Y29680400D02*
X67896900Y29261100D01*
X66514400Y29680400D02*
X67477600Y29680400D01*
X65964800Y30230000D02*
X66514400Y29680400D01*
X64675000Y30230000D02*
X65964800Y30230000D01*
X64675000Y29730000D02*
X63574700Y29730000D01*
X63544600Y29730000D02*
X63388200Y29886400D01*
X63574700Y29730000D02*
X63544600Y29730000D01*
X64675000Y29230000D02*
X65775300Y29230000D01*
X66629400Y29230000D02*
X66945300Y28914100D01*
X65775300Y29230000D02*
X66629400Y29230000D01*
X67632300Y28265700D02*
X67827300Y28460700D01*
X66639400Y28265700D02*
X67632300Y28265700D01*
X66175100Y28730000D02*
X66639400Y28265700D01*
X64675000Y28730000D02*
X66175100Y28730000D01*
X63574700Y27835700D02*
X63374000Y27635000D01*
X63574700Y28230000D02*
X63574700Y27835700D01*
X64675000Y28230000D02*
X63574700Y28230000D01*
X64675000Y27730000D02*
X65775300Y27730000D01*
X65775300Y27751300D02*
X66019800Y27995800D01*
X65775300Y27730000D02*
X65775300Y27751300D01*
X64675000Y26230000D02*
X65775300Y26230000D01*
X68068700Y24216300D02*
X68068700Y23387600D01*
X66055000Y26230000D02*
X68068700Y24216300D01*
X65775300Y26230000D02*
X66055000Y26230000D01*
X65775300Y25625300D02*
X65775300Y25730000D01*
X66415600Y24985000D02*
X65775300Y25625300D01*
X64675000Y25730000D02*
X65775300Y25730000D01*
X64675000Y25230000D02*
X63574700Y25230000D01*
X63568800Y25224100D02*
X63574700Y25230000D01*
X63397700Y25224100D02*
X63568800Y25224100D01*
X66528500Y23976800D02*
X65775300Y24730000D01*
X66594700Y23976800D02*
X66528500Y23976800D01*
X64675000Y24730000D02*
X65775300Y24730000D01*
X62358600Y22150900D02*
X62946200Y21563300D01*
X62358600Y23293400D02*
X62358600Y22150900D01*
X63295200Y24230000D02*
X62358600Y23293400D01*
X64675000Y24230000D02*
X63295200Y24230000D01*
X63574700Y23620000D02*
X63029000Y23074300D01*
X63574700Y23730000D02*
X63574700Y23620000D01*
X64675000Y23730000D02*
X63574700Y23730000D01*
X43275000Y37230000D02*
X42174700Y37230000D01*
X42174700Y37640000D02*
X41215000Y38599700D01*
X42174700Y37230000D02*
X42174700Y37640000D01*
X41571500Y36730000D02*
X39947900Y38353600D01*
X43275000Y36730000D02*
X41571500Y36730000D01*
X43275000Y34730000D02*
X44375300Y34730000D01*
X44375300Y34165100D02*
X44562600Y33977800D01*
X44375300Y34730000D02*
X44375300Y34165100D01*
X43275000Y34230000D02*
X42174700Y34230000D01*
X42174700Y34230000D02*
X41801600Y34603100D01*
X43275000Y33730000D02*
X42174700Y33730000D01*
X40294900Y33730000D02*
X39916300Y34108600D01*
X42174700Y33730000D02*
X40294900Y33730000D01*
X39884200Y33230000D02*
X38959900Y34154300D01*
X43275000Y33230000D02*
X39884200Y33230000D01*
X43275000Y31730000D02*
X42174700Y31730000D01*
X42043700Y31599000D02*
X41974800Y31599000D01*
X42174700Y31730000D02*
X42043700Y31599000D01*
X44375300Y31101400D02*
X44375300Y31230000D01*
X44567800Y30908900D02*
X44375300Y31101400D01*
X43275000Y31230000D02*
X44375300Y31230000D01*
X43275000Y30730000D02*
X42174700Y30730000D01*
X42170800Y30726100D02*
X40783300Y30726100D01*
X42174700Y30730000D02*
X42170800Y30726100D01*
X44375300Y30121700D02*
X44583500Y29913500D01*
X44375300Y30230000D02*
X44375300Y30121700D01*
X43275000Y30230000D02*
X44375300Y30230000D01*
X39166700Y30079600D02*
X39122400Y30035300D01*
X41962000Y30079600D02*
X39166700Y30079600D01*
X42311600Y29730000D02*
X41962000Y30079600D01*
X43275000Y29730000D02*
X42311600Y29730000D01*
X43275000Y29230000D02*
X42174700Y29230000D01*
X42081800Y29322900D02*
X42174700Y29230000D01*
X41659200Y29322900D02*
X42081800Y29322900D01*
X41659200Y29323000D02*
X41659200Y29322900D01*
X41528000Y29454200D02*
X41659200Y29323000D01*
X40984000Y28730000D02*
X43275000Y28730000D01*
X40841400Y28872600D02*
X40984000Y28730000D01*
X43275000Y28230000D02*
X42174700Y28230000D01*
X42158400Y28213700D02*
X42174700Y28230000D01*
X40128600Y28213700D02*
X42158400Y28213700D01*
X40169800Y25132300D02*
X39953700Y25132300D01*
X41767500Y26730000D02*
X40169800Y25132300D01*
X43275000Y26730000D02*
X41767500Y26730000D01*
X39845900Y24130000D02*
X39588700Y24130000D01*
X41945900Y26230000D02*
X39845900Y24130000D01*
X43275000Y26230000D02*
X41945900Y26230000D01*
X42124400Y25730000D02*
X43275000Y25730000D01*
X39273100Y22878700D02*
X42124400Y25730000D01*
X38994500Y22878700D02*
X39273100Y22878700D01*
X44375300Y25416900D02*
X44553800Y25595400D01*
X44375300Y25230000D02*
X44375300Y25416900D01*
X43275000Y25230000D02*
X44375300Y25230000D01*
X41761300Y24730000D02*
X43275000Y24730000D01*
X36906600Y19875300D02*
X41761300Y24730000D01*
X36652200Y19875300D02*
X36906600Y19875300D01*
X43275000Y24230000D02*
X42174700Y24230000D01*
X41898200Y24230000D02*
X42174700Y24230000D01*
X36718200Y19050000D02*
X41898200Y24230000D01*
X36431100Y19050000D02*
X36718200Y19050000D01*
X42035100Y23730000D02*
X43275000Y23730000D01*
X36364200Y18059100D02*
X42035100Y23730000D01*
X36250500Y18059100D02*
X36364200Y18059100D01*
X42174700Y23069100D02*
X42174700Y23230000D01*
X35704200Y16598600D02*
X42174700Y23069100D01*
X43275000Y23230000D02*
X42174700Y23230000D01*
X43275000Y22730000D02*
X44375300Y22730000D01*
X44375300Y20544200D02*
X36975800Y13144700D01*
X44375300Y22730000D02*
X44375300Y20544200D01*
X43275000Y22230000D02*
X42174700Y22230000D01*
X42023500Y22230000D02*
X42174700Y22230000D01*
X41321100Y21527600D02*
X42023500Y22230000D01*
X41321100Y21276200D02*
X41321100Y21527600D01*
X35812000Y15767100D02*
X41321100Y21276200D01*
D26*
G36*
X93853000Y48970000D02*
X89535000Y48970000D01*
X89263295Y48915954D01*
X89032954Y48762046D01*
X88879046Y48531705D01*
X88825000Y48260000D01*
X88825000Y38810000D01*
X87630000Y38810000D01*
X87358295Y38755954D01*
X87127954Y38602046D01*
X86974046Y38371705D01*
X86920000Y38100000D01*
X86920000Y21590000D01*
X86974046Y21318295D01*
X87127954Y21087954D01*
X87358295Y20934046D01*
X87630000Y20880000D01*
X91365000Y20880000D01*
X91365000Y710000D01*
X51535202Y710000D01*
X52329929Y1504727D01*
X52402717Y1431812D01*
X52948319Y1205258D01*
X53539089Y1204743D01*
X54085086Y1430344D01*
X54503188Y1847717D01*
X54514748Y1875557D01*
X54525344Y1849914D01*
X54942717Y1431812D01*
X55488319Y1205258D01*
X56079089Y1204743D01*
X56625086Y1430344D01*
X57043188Y1847717D01*
X57054748Y1875557D01*
X57065344Y1849914D01*
X57482717Y1431812D01*
X58028319Y1205258D01*
X58619089Y1204743D01*
X59165086Y1430344D01*
X59381160Y1646042D01*
X60000647Y1646042D01*
X60080920Y1394741D01*
X60636279Y1193282D01*
X61226458Y1219685D01*
X61649080Y1394741D01*
X61729353Y1646042D01*
X60865000Y2510395D01*
X60000647Y1646042D01*
X59381160Y1646042D01*
X59583188Y1847717D01*
X59602951Y1895312D01*
X59821042Y1825647D01*
X60685395Y2690000D01*
X60671253Y2704142D01*
X60850858Y2883747D01*
X60865000Y2869605D01*
X61729353Y3733958D01*
X61659819Y3951640D01*
X61705086Y3970344D01*
X62123188Y4387717D01*
X62134748Y4415557D01*
X62145344Y4389914D01*
X62562717Y3971812D01*
X62590557Y3960252D01*
X62564914Y3949656D01*
X62146812Y3532283D01*
X62127049Y3484688D01*
X61908958Y3554353D01*
X61044605Y2690000D01*
X61908958Y1825647D01*
X62126640Y1895181D01*
X62145344Y1849914D01*
X62562717Y1431812D01*
X63108319Y1205258D01*
X63699089Y1204743D01*
X64245086Y1430344D01*
X64663188Y1847717D01*
X64674748Y1875557D01*
X64685344Y1849914D01*
X65102717Y1431812D01*
X65648319Y1205258D01*
X66239089Y1204743D01*
X66785086Y1430344D01*
X67203188Y1847717D01*
X67214748Y1875557D01*
X67225344Y1849914D01*
X67642717Y1431812D01*
X68188319Y1205258D01*
X68779089Y1204743D01*
X69325086Y1430344D01*
X69743188Y1847717D01*
X69754748Y1875557D01*
X69765344Y1849914D01*
X70182717Y1431812D01*
X70728319Y1205258D01*
X71319089Y1204743D01*
X71865086Y1430344D01*
X72283188Y1847717D01*
X72294748Y1875557D01*
X72305344Y1849914D01*
X72722717Y1431812D01*
X73268319Y1205258D01*
X73859089Y1204743D01*
X74405086Y1430344D01*
X74823188Y1847717D01*
X74834748Y1875557D01*
X74845344Y1849914D01*
X75262717Y1431812D01*
X75808319Y1205258D01*
X76399089Y1204743D01*
X76945086Y1430344D01*
X77161160Y1646042D01*
X77780647Y1646042D01*
X77860920Y1394741D01*
X78416279Y1193282D01*
X79006458Y1219685D01*
X79429080Y1394741D01*
X79509353Y1646042D01*
X78645000Y2510395D01*
X77780647Y1646042D01*
X77161160Y1646042D01*
X77363188Y1847717D01*
X77382951Y1895312D01*
X77601042Y1825647D01*
X78465395Y2690000D01*
X78824605Y2690000D01*
X79688958Y1825647D01*
X79940259Y1905920D01*
X80141718Y2461279D01*
X80116035Y3035381D01*
X86016613Y3035381D01*
X86356155Y2213628D01*
X86984321Y1584364D01*
X87805481Y1243389D01*
X88694619Y1242613D01*
X89516372Y1582155D01*
X90145636Y2210321D01*
X90486611Y3031481D01*
X90487387Y3920619D01*
X90147845Y4742372D01*
X89519679Y5371636D01*
X88698519Y5712611D01*
X87809381Y5713387D01*
X86987628Y5373845D01*
X86358364Y4745679D01*
X86017389Y3924519D01*
X86016613Y3035381D01*
X80116035Y3035381D01*
X80115315Y3051458D01*
X79940259Y3474080D01*
X79688958Y3554353D01*
X78824605Y2690000D01*
X78465395Y2690000D01*
X77601042Y3554353D01*
X77383360Y3484819D01*
X77364656Y3530086D01*
X76947283Y3948188D01*
X76919443Y3959748D01*
X76945086Y3970344D01*
X77363188Y4387717D01*
X77374748Y4415557D01*
X77385344Y4389914D01*
X77802717Y3971812D01*
X77850312Y3952049D01*
X77780647Y3733958D01*
X78645000Y2869605D01*
X79509353Y3733958D01*
X79439819Y3951640D01*
X79485086Y3970344D01*
X79903188Y4387717D01*
X80129742Y4933319D01*
X80130257Y5524089D01*
X79904656Y6070086D01*
X79487283Y6488188D01*
X78941681Y6714742D01*
X78350911Y6715257D01*
X77804914Y6489656D01*
X77386812Y6072283D01*
X77375252Y6044443D01*
X77364656Y6070086D01*
X76947283Y6488188D01*
X76401681Y6714742D01*
X75810911Y6715257D01*
X75264914Y6489656D01*
X74846812Y6072283D01*
X74835252Y6044443D01*
X74824656Y6070086D01*
X74407283Y6488188D01*
X73861681Y6714742D01*
X73270911Y6715257D01*
X72724914Y6489656D01*
X72306812Y6072283D01*
X72287049Y6024688D01*
X72068958Y6094353D01*
X71204605Y5230000D01*
X72068958Y4365647D01*
X72286640Y4435181D01*
X72305344Y4389914D01*
X72722717Y3971812D01*
X72750557Y3960252D01*
X72724914Y3949656D01*
X72306812Y3532283D01*
X72295252Y3504443D01*
X72284656Y3530086D01*
X71867283Y3948188D01*
X71819688Y3967951D01*
X71889353Y4186042D01*
X71025000Y5050395D01*
X70160647Y4186042D01*
X70230181Y3968360D01*
X70184914Y3949656D01*
X69766812Y3532283D01*
X69755252Y3504443D01*
X69744656Y3530086D01*
X69327283Y3948188D01*
X69299443Y3959748D01*
X69325086Y3970344D01*
X69743188Y4387717D01*
X69762951Y4435312D01*
X69981042Y4365647D01*
X70845395Y5230000D01*
X69981042Y6094353D01*
X69763360Y6024819D01*
X69744656Y6070086D01*
X69541140Y6273958D01*
X70160647Y6273958D01*
X71025000Y5409605D01*
X71889353Y6273958D01*
X71809080Y6525259D01*
X71253721Y6726718D01*
X70663542Y6700315D01*
X70240920Y6525259D01*
X70160647Y6273958D01*
X69541140Y6273958D01*
X69327283Y6488188D01*
X68781681Y6714742D01*
X68190911Y6715257D01*
X67644914Y6489656D01*
X67226812Y6072283D01*
X67207049Y6024688D01*
X66988958Y6094353D01*
X66124605Y5230000D01*
X66988958Y4365647D01*
X67206640Y4435181D01*
X67225344Y4389914D01*
X67642717Y3971812D01*
X67670557Y3960252D01*
X67644914Y3949656D01*
X67226812Y3532283D01*
X67215252Y3504443D01*
X67204656Y3530086D01*
X66787283Y3948188D01*
X66739688Y3967951D01*
X66809353Y4186042D01*
X65945000Y5050395D01*
X65080647Y4186042D01*
X65150181Y3968360D01*
X65104914Y3949656D01*
X64686812Y3532283D01*
X64675252Y3504443D01*
X64664656Y3530086D01*
X64247283Y3948188D01*
X64219443Y3959748D01*
X64245086Y3970344D01*
X64663188Y4387717D01*
X64682951Y4435312D01*
X64901042Y4365647D01*
X65765395Y5230000D01*
X64901042Y6094353D01*
X64683360Y6024819D01*
X64664656Y6070086D01*
X64461140Y6273958D01*
X65080647Y6273958D01*
X65945000Y5409605D01*
X66809353Y6273958D01*
X66729080Y6525259D01*
X66173721Y6726718D01*
X65583542Y6700315D01*
X65160920Y6525259D01*
X65080647Y6273958D01*
X64461140Y6273958D01*
X64247283Y6488188D01*
X63701681Y6714742D01*
X63110911Y6715257D01*
X62564914Y6489656D01*
X62146812Y6072283D01*
X62135252Y6044443D01*
X62124656Y6070086D01*
X61707283Y6488188D01*
X61415888Y6609186D01*
X71604101Y16797399D01*
X71768848Y17043961D01*
X71826700Y17334800D01*
X71826700Y33024800D01*
X71768848Y33315639D01*
X71604101Y33562201D01*
X68010973Y37155329D01*
X68168691Y37090000D01*
X68409250Y37090000D01*
X68568000Y37248750D01*
X68568000Y37973000D01*
X68822000Y37973000D01*
X68822000Y37248750D01*
X68980750Y37090000D01*
X69221309Y37090000D01*
X69454698Y37186673D01*
X69633327Y37365301D01*
X69730000Y37598690D01*
X69730000Y37814250D01*
X69571250Y37973000D01*
X68822000Y37973000D01*
X68568000Y37973000D01*
X68548000Y37973000D01*
X68548000Y38227000D01*
X68568000Y38227000D01*
X68568000Y38951250D01*
X68822000Y38951250D01*
X68822000Y38227000D01*
X69571250Y38227000D01*
X69730000Y38385750D01*
X69730000Y38601310D01*
X69633327Y38834699D01*
X69454698Y39013327D01*
X69221309Y39110000D01*
X68980750Y39110000D01*
X68822000Y38951250D01*
X68568000Y38951250D01*
X68409250Y39110000D01*
X68168691Y39110000D01*
X67935302Y39013327D01*
X67933932Y39011957D01*
X67846890Y39071431D01*
X67739043Y39093271D01*
X67879738Y39432101D01*
X67880062Y39804067D01*
X67738017Y40147843D01*
X67475227Y40411092D01*
X67131699Y40553738D01*
X66759733Y40554062D01*
X66415957Y40412017D01*
X66382782Y40378900D01*
X66164200Y40378900D01*
X65873361Y40321048D01*
X65626799Y40156301D01*
X65489865Y40019367D01*
X65450000Y40027440D01*
X63900000Y40027440D01*
X63664683Y39983162D01*
X63448559Y39844090D01*
X63303569Y39631890D01*
X63252560Y39380000D01*
X63252560Y39080000D01*
X63265980Y39008677D01*
X63265000Y39006310D01*
X63265000Y38990000D01*
X62614000Y38990000D01*
X62323161Y38932148D01*
X62182529Y38838181D01*
X62103000Y38854000D01*
X60132000Y38854000D01*
X60132000Y39308882D01*
X60262020Y39438718D01*
X60262173Y39438947D01*
X60262401Y39439099D01*
X60344374Y39561781D01*
X60426942Y39685163D01*
X60426996Y39685434D01*
X60427148Y39685661D01*
X60446384Y39782366D01*
X60458750Y39770000D01*
X60501310Y39770000D01*
X60505335Y39771667D01*
X60575000Y39757560D01*
X60875000Y39757560D01*
X60978671Y39777067D01*
X61075000Y39757560D01*
X61375000Y39757560D01*
X61478671Y39777067D01*
X61575000Y39757560D01*
X61875000Y39757560D01*
X61978671Y39777067D01*
X62075000Y39757560D01*
X62375000Y39757560D01*
X62478671Y39777067D01*
X62575000Y39757560D01*
X62875000Y39757560D01*
X63110317Y39801838D01*
X63326441Y39940910D01*
X63471431Y40153110D01*
X63522440Y40405000D01*
X63522440Y41092201D01*
X63804301Y40975162D01*
X64176267Y40974838D01*
X64520043Y41116883D01*
X64783292Y41379673D01*
X64925938Y41723201D01*
X64926203Y42027200D01*
X65225100Y42027200D01*
X65515939Y42085052D01*
X65762501Y42249799D01*
X66631980Y43119278D01*
X66677467Y43119238D01*
X67021243Y43261283D01*
X67284492Y43524073D01*
X67427138Y43867601D01*
X67427462Y44239567D01*
X67285417Y44583343D01*
X67022627Y44846592D01*
X66679099Y44989238D01*
X66307133Y44989562D01*
X65963357Y44847517D01*
X65700108Y44584727D01*
X65557462Y44241199D01*
X65557421Y44194323D01*
X64910298Y43547200D01*
X64385225Y43547200D01*
X64553327Y43715301D01*
X64650000Y43948690D01*
X64650000Y44164250D01*
X64491250Y44323000D01*
X63742000Y44323000D01*
X63742000Y44303000D01*
X63649600Y44303000D01*
X63649600Y44597000D01*
X63742000Y44597000D01*
X63742000Y44577000D01*
X64491250Y44577000D01*
X64650000Y44735750D01*
X64650000Y44951310D01*
X64553327Y45184699D01*
X64374698Y45363327D01*
X64141309Y45460000D01*
X64126602Y45460000D01*
X67535601Y48868999D01*
X67700348Y49115561D01*
X67758200Y49406400D01*
X67758200Y53967737D01*
X67790392Y53999873D01*
X67933038Y54343401D01*
X67933362Y54715367D01*
X67791317Y55059143D01*
X67528527Y55322392D01*
X67184999Y55465038D01*
X66813033Y55465362D01*
X66469257Y55323317D01*
X66206008Y55060527D01*
X66063362Y54716999D01*
X66063038Y54345033D01*
X66205083Y54001257D01*
X66238200Y53968082D01*
X66238200Y49721202D01*
X64683700Y48166702D01*
X64683700Y53611237D01*
X64715892Y53643373D01*
X64858538Y53986901D01*
X64858862Y54358867D01*
X64716817Y54702643D01*
X64454027Y54965892D01*
X64110499Y55108538D01*
X63738533Y55108862D01*
X63467241Y54996767D01*
X63403727Y55060392D01*
X63060199Y55203038D01*
X62688233Y55203362D01*
X62344457Y55061317D01*
X62081208Y54798527D01*
X61938562Y54454999D01*
X61938238Y54083033D01*
X62080283Y53739257D01*
X62113400Y53706082D01*
X62113400Y50082064D01*
X62071799Y50099338D01*
X61699833Y50099662D01*
X61356057Y49957617D01*
X61092808Y49694827D01*
X61007747Y49489978D01*
X60914917Y49714643D01*
X60652127Y49977892D01*
X60308599Y50120538D01*
X59936633Y50120862D01*
X59592857Y49978817D01*
X59559582Y49945600D01*
X59335500Y49945600D01*
X59044661Y49887748D01*
X58798099Y49723001D01*
X57910000Y48834902D01*
X57910000Y54163937D01*
X57942192Y54196073D01*
X58084838Y54539601D01*
X58085162Y54911567D01*
X57943117Y55255343D01*
X57680327Y55518592D01*
X57336799Y55661238D01*
X56964833Y55661562D01*
X56621057Y55519517D01*
X56357808Y55256727D01*
X56215162Y54913199D01*
X56214838Y54541233D01*
X56356883Y54197457D01*
X56390000Y54164282D01*
X56390000Y49681611D01*
X56331633Y49681662D01*
X56134600Y49600250D01*
X56134600Y53090000D01*
X56076748Y53380839D01*
X55912001Y53627401D01*
X55888722Y53650680D01*
X55888762Y53696167D01*
X55746717Y54039943D01*
X55483927Y54303192D01*
X55140399Y54445838D01*
X54768433Y54446162D01*
X54424657Y54304117D01*
X54161408Y54041327D01*
X54018762Y53697799D01*
X54018438Y53325833D01*
X54160483Y52982057D01*
X54423273Y52718808D01*
X54614600Y52639362D01*
X54614600Y50122789D01*
X54530333Y50122862D01*
X54186557Y49980817D01*
X53923308Y49718027D01*
X53780662Y49374499D01*
X53780338Y49002533D01*
X53922383Y48658757D01*
X54055400Y48525508D01*
X54055400Y45472440D01*
X53690000Y45472440D01*
X53454683Y45428162D01*
X53351354Y45361671D01*
X53349698Y45363327D01*
X53116309Y45460000D01*
X52875750Y45460000D01*
X52717002Y45301252D01*
X52717002Y45460000D01*
X52667300Y45460000D01*
X52667300Y54127437D01*
X52699492Y54159573D01*
X52842138Y54503101D01*
X52842462Y54875067D01*
X52700417Y55218843D01*
X52437627Y55482092D01*
X52094099Y55624738D01*
X51722133Y55625062D01*
X51378357Y55483017D01*
X51115108Y55220227D01*
X50972462Y54876699D01*
X50972145Y54512905D01*
X50892701Y54631801D01*
X50671422Y54853080D01*
X50671462Y54898567D01*
X50529417Y55242343D01*
X50266627Y55505592D01*
X49923099Y55648238D01*
X49551133Y55648562D01*
X49207357Y55506517D01*
X48944108Y55243727D01*
X48801462Y54900199D01*
X48801138Y54528233D01*
X48907861Y54269944D01*
X48854101Y54350401D01*
X48334122Y54870380D01*
X48334162Y54915867D01*
X48192117Y55259643D01*
X47929327Y55522892D01*
X47585799Y55665538D01*
X47213833Y55665862D01*
X46870057Y55523817D01*
X46606808Y55261027D01*
X46464162Y54917499D01*
X46463838Y54545533D01*
X46605883Y54201757D01*
X46868673Y53938508D01*
X47212201Y53795862D01*
X47259077Y53795821D01*
X47556700Y53498198D01*
X47556700Y50135178D01*
X47230833Y50135462D01*
X46930035Y50011175D01*
X46648599Y50128038D01*
X46276633Y50128362D01*
X45932857Y49986317D01*
X45860558Y49914144D01*
X42865900Y52908802D01*
X42865900Y54161337D01*
X42898092Y54193473D01*
X43040738Y54537001D01*
X43041062Y54908967D01*
X42899017Y55252743D01*
X42636227Y55515992D01*
X42292699Y55658638D01*
X41920733Y55658962D01*
X41576957Y55516917D01*
X41313708Y55254127D01*
X41171062Y54910599D01*
X41170738Y54538633D01*
X41312783Y54194857D01*
X41345900Y54161682D01*
X41345900Y52594000D01*
X41403752Y52303161D01*
X41568499Y52056599D01*
X44644205Y48980893D01*
X44613430Y48950172D01*
X40325900Y53237702D01*
X40325900Y54161337D01*
X40358092Y54193473D01*
X40500738Y54537001D01*
X40501062Y54908967D01*
X40359017Y55252743D01*
X40096227Y55515992D01*
X39752699Y55658638D01*
X39380733Y55658962D01*
X39036957Y55516917D01*
X38773708Y55254127D01*
X38631062Y54910599D01*
X38630738Y54538633D01*
X38772783Y54194857D01*
X38805900Y54161682D01*
X38805900Y52926502D01*
X37697500Y54034902D01*
X37697500Y54136437D01*
X37729692Y54168573D01*
X37872338Y54512101D01*
X37872662Y54884067D01*
X37730617Y55227843D01*
X37467827Y55491092D01*
X37124299Y55633738D01*
X36752333Y55634062D01*
X36408557Y55492017D01*
X36145308Y55229227D01*
X36002662Y54885699D01*
X36002338Y54513733D01*
X36144383Y54169957D01*
X36177500Y54136782D01*
X36177500Y53720100D01*
X36235352Y53429261D01*
X36400099Y53182699D01*
X39766052Y49816746D01*
X39637108Y49688027D01*
X39494462Y49344499D01*
X39494138Y48972533D01*
X39636183Y48628757D01*
X39898973Y48365508D01*
X40132604Y48268496D01*
X40132438Y48078333D01*
X40274483Y47734557D01*
X40307600Y47701382D01*
X40307600Y43947400D01*
X40365452Y43656561D01*
X40530199Y43409999D01*
X41522198Y42418000D01*
X39116000Y42418000D01*
X39066590Y42407994D01*
X39024965Y42379553D01*
X38997685Y42337159D01*
X38989000Y42291000D01*
X38989000Y42201100D01*
X18916300Y42201100D01*
X18481955Y42114704D01*
X18113734Y41868666D01*
X17234560Y40989492D01*
X17220000Y40992440D01*
X15020000Y40992440D01*
X14784683Y40948162D01*
X14568559Y40809090D01*
X14423569Y40596890D01*
X14372560Y40345000D01*
X14372560Y39145000D01*
X14416838Y38909683D01*
X14555910Y38693559D01*
X14768110Y38548569D01*
X15020000Y38497560D01*
X17220000Y38497560D01*
X17455317Y38541838D01*
X17561244Y38610000D01*
X17920300Y38610000D01*
X18354646Y38696397D01*
X18585000Y38850315D01*
X18585000Y37488690D01*
X18594813Y37465000D01*
X18585000Y37441310D01*
X18585000Y36079685D01*
X18354646Y36233603D01*
X17920300Y36320000D01*
X17561797Y36320000D01*
X17471890Y36381431D01*
X17220000Y36432440D01*
X15020000Y36432440D01*
X14784683Y36388162D01*
X14568559Y36249090D01*
X14423569Y36036890D01*
X14372560Y35785000D01*
X14372560Y34585000D01*
X14416838Y34349683D01*
X14555910Y34133559D01*
X14768110Y33988569D01*
X15020000Y33937560D01*
X16785300Y33937560D01*
X16785300Y33060732D01*
X15834434Y32109866D01*
X15588397Y31741646D01*
X15502000Y31307300D01*
X15502000Y31121565D01*
X15423559Y31071090D01*
X15367626Y30989230D01*
X15323090Y31058441D01*
X15110890Y31203431D01*
X14859000Y31254440D01*
X13335000Y31254440D01*
X13099683Y31210162D01*
X12883559Y31071090D01*
X12738569Y30858890D01*
X12687560Y30607000D01*
X12687560Y29083000D01*
X12731838Y28847683D01*
X12870910Y28631559D01*
X13083110Y28486569D01*
X13335000Y28435560D01*
X14859000Y28435560D01*
X15094317Y28479838D01*
X15310441Y28618910D01*
X15366374Y28700770D01*
X15410910Y28631559D01*
X15623110Y28486569D01*
X15875000Y28435560D01*
X17399000Y28435560D01*
X17634317Y28479838D01*
X17771229Y28567939D01*
X17931734Y28407434D01*
X18299955Y28161396D01*
X18734300Y28075000D01*
X20225000Y28075000D01*
X20225000Y14255000D01*
X20311397Y13820654D01*
X20461681Y13595739D01*
X20557434Y13452434D01*
X28899895Y5109973D01*
X28899743Y4935911D01*
X29125344Y4389914D01*
X29542717Y3971812D01*
X29571056Y3960045D01*
X29545914Y3949656D01*
X29127812Y3532283D01*
X28901258Y2986681D01*
X28900743Y2395911D01*
X29126344Y1849914D01*
X29543717Y1431812D01*
X30089319Y1205258D01*
X30680089Y1204743D01*
X31226086Y1430344D01*
X31644188Y1847717D01*
X31655247Y1874350D01*
X31665344Y1849914D01*
X32082717Y1431812D01*
X32628319Y1205258D01*
X33219089Y1204743D01*
X33765086Y1430344D01*
X34183188Y1847717D01*
X34194748Y1875557D01*
X34205344Y1849914D01*
X34622717Y1431812D01*
X35168319Y1205258D01*
X35759089Y1204743D01*
X36305086Y1430344D01*
X36723188Y1847717D01*
X36734748Y1875557D01*
X36745344Y1849914D01*
X37162717Y1431812D01*
X37708319Y1205258D01*
X38299089Y1204743D01*
X38845086Y1430344D01*
X39263188Y1847717D01*
X39282951Y1895312D01*
X39501042Y1825647D01*
X40365395Y2690000D01*
X39501042Y3554353D01*
X39283360Y3484819D01*
X39264656Y3530086D01*
X38847283Y3948188D01*
X38819443Y3959748D01*
X38845086Y3970344D01*
X39263188Y4387717D01*
X39274748Y4415557D01*
X39285344Y4389914D01*
X39702717Y3971812D01*
X39750312Y3952049D01*
X39680647Y3733958D01*
X40545000Y2869605D01*
X40559143Y2883747D01*
X40738748Y2704142D01*
X40724605Y2690000D01*
X40738748Y2675857D01*
X40559143Y2496252D01*
X40545000Y2510395D01*
X39680647Y1646042D01*
X39760920Y1394741D01*
X40316279Y1193282D01*
X40906458Y1219685D01*
X41329080Y1394741D01*
X41402333Y1624065D01*
X42316398Y710000D01*
X710000Y710000D01*
X710000Y3035381D01*
X13292613Y3035381D01*
X13632155Y2213628D01*
X14260321Y1584364D01*
X15081481Y1243389D01*
X15970619Y1242613D01*
X16792372Y1582155D01*
X17421636Y2210321D01*
X17762611Y3031481D01*
X17763387Y3920619D01*
X17423845Y4742372D01*
X16795679Y5371636D01*
X15974519Y5712611D01*
X15085381Y5713387D01*
X14263628Y5373845D01*
X13634364Y4745679D01*
X13293389Y3924519D01*
X13292613Y3035381D01*
X710000Y3035381D01*
X710000Y10322787D01*
X1358392Y10322787D01*
X1427857Y10080603D01*
X1951302Y9893856D01*
X2506368Y9921638D01*
X2890143Y10080603D01*
X2959608Y10322787D01*
X3898392Y10322787D01*
X3967857Y10080603D01*
X4491302Y9893856D01*
X5046368Y9921638D01*
X5430143Y10080603D01*
X5499608Y10322787D01*
X4699000Y11123395D01*
X3898392Y10322787D01*
X2959608Y10322787D01*
X2159000Y11123395D01*
X1358392Y10322787D01*
X710000Y10322787D01*
X710000Y11510698D01*
X749856Y11510698D01*
X777638Y10955632D01*
X936603Y10571857D01*
X1178787Y10502392D01*
X1979395Y11303000D01*
X2338605Y11303000D01*
X3139213Y10502392D01*
X3381397Y10571857D01*
X3425453Y10695344D01*
X3476603Y10571857D01*
X3718787Y10502392D01*
X4519395Y11303000D01*
X4878605Y11303000D01*
X5679213Y10502392D01*
X5921397Y10571857D01*
X6108144Y11095302D01*
X6080362Y11650368D01*
X5921397Y12034143D01*
X5813817Y12065000D01*
X12687560Y12065000D01*
X12687560Y10541000D01*
X12731838Y10305683D01*
X12870910Y10089559D01*
X13083110Y9944569D01*
X13335000Y9893560D01*
X14859000Y9893560D01*
X15094317Y9937838D01*
X15310441Y10076910D01*
X15366374Y10158770D01*
X15410910Y10089559D01*
X15623110Y9944569D01*
X15875000Y9893560D01*
X17399000Y9893560D01*
X17634317Y9937838D01*
X17850441Y10076910D01*
X17995431Y10289110D01*
X18046440Y10541000D01*
X18046440Y12065000D01*
X18002162Y12300317D01*
X17863090Y12516441D01*
X17650890Y12661431D01*
X17399000Y12712440D01*
X15875000Y12712440D01*
X15639683Y12668162D01*
X15423559Y12529090D01*
X15367626Y12447230D01*
X15323090Y12516441D01*
X15110890Y12661431D01*
X14859000Y12712440D01*
X13335000Y12712440D01*
X13099683Y12668162D01*
X12883559Y12529090D01*
X12738569Y12316890D01*
X12687560Y12065000D01*
X5813817Y12065000D01*
X5679213Y12103608D01*
X4878605Y11303000D01*
X4519395Y11303000D01*
X3718787Y12103608D01*
X3476603Y12034143D01*
X3432547Y11910656D01*
X3381397Y12034143D01*
X3139213Y12103608D01*
X2338605Y11303000D01*
X1979395Y11303000D01*
X1178787Y12103608D01*
X936603Y12034143D01*
X749856Y11510698D01*
X710000Y11510698D01*
X710000Y12283213D01*
X1358392Y12283213D01*
X2159000Y11482605D01*
X2959608Y12283213D01*
X3898392Y12283213D01*
X4699000Y11482605D01*
X5499608Y12283213D01*
X5430143Y12525397D01*
X4906698Y12712144D01*
X4351632Y12684362D01*
X3967857Y12525397D01*
X3898392Y12283213D01*
X2959608Y12283213D01*
X2890143Y12525397D01*
X2366698Y12712144D01*
X1811632Y12684362D01*
X1427857Y12525397D01*
X1358392Y12283213D01*
X710000Y12283213D01*
X710000Y28864787D01*
X1358392Y28864787D01*
X1427857Y28622603D01*
X1951302Y28435856D01*
X2506368Y28463638D01*
X2890143Y28622603D01*
X2959608Y28864787D01*
X3898392Y28864787D01*
X3967857Y28622603D01*
X4491302Y28435856D01*
X5046368Y28463638D01*
X5430143Y28622603D01*
X5499608Y28864787D01*
X4699000Y29665395D01*
X3898392Y28864787D01*
X2959608Y28864787D01*
X2159000Y29665395D01*
X1358392Y28864787D01*
X710000Y28864787D01*
X710000Y30052698D01*
X749856Y30052698D01*
X777638Y29497632D01*
X936603Y29113857D01*
X1178787Y29044392D01*
X1979395Y29845000D01*
X2338605Y29845000D01*
X3139213Y29044392D01*
X3381397Y29113857D01*
X3425453Y29237344D01*
X3476603Y29113857D01*
X3718787Y29044392D01*
X4519395Y29845000D01*
X4878605Y29845000D01*
X5679213Y29044392D01*
X5921397Y29113857D01*
X6108144Y29637302D01*
X6080362Y30192368D01*
X5921397Y30576143D01*
X5679213Y30645608D01*
X4878605Y29845000D01*
X4519395Y29845000D01*
X3718787Y30645608D01*
X3476603Y30576143D01*
X3432547Y30452656D01*
X3381397Y30576143D01*
X3139213Y30645608D01*
X2338605Y29845000D01*
X1979395Y29845000D01*
X1178787Y30645608D01*
X936603Y30576143D01*
X749856Y30052698D01*
X710000Y30052698D01*
X710000Y30825213D01*
X1358392Y30825213D01*
X2159000Y30024605D01*
X2959608Y30825213D01*
X3898392Y30825213D01*
X4699000Y30024605D01*
X5499608Y30825213D01*
X5430143Y31067397D01*
X4906698Y31254144D01*
X4351632Y31226362D01*
X3967857Y31067397D01*
X3898392Y30825213D01*
X2959608Y30825213D01*
X2890143Y31067397D01*
X2366698Y31254144D01*
X1811632Y31226362D01*
X1427857Y31067397D01*
X1358392Y30825213D01*
X710000Y30825213D01*
X710000Y35019250D01*
X4775000Y35019250D01*
X4775000Y33428690D01*
X4871673Y33195301D01*
X5050302Y33016673D01*
X5283691Y32920000D01*
X6874250Y32920000D01*
X7033000Y33078750D01*
X7033000Y35178000D01*
X7287000Y35178000D01*
X7287000Y33078750D01*
X7445750Y32920000D01*
X9036309Y32920000D01*
X9269698Y33016673D01*
X9448327Y33195301D01*
X9545000Y33428690D01*
X9545000Y35019250D01*
X9386250Y35178000D01*
X7287000Y35178000D01*
X7033000Y35178000D01*
X4933750Y35178000D01*
X4775000Y35019250D01*
X710000Y35019250D01*
X710000Y39719250D01*
X1775000Y39719250D01*
X1775000Y38128690D01*
X1871673Y37895301D01*
X2050302Y37716673D01*
X2283691Y37620000D01*
X3874250Y37620000D01*
X4033000Y37778750D01*
X4033000Y39878000D01*
X4287000Y39878000D01*
X4287000Y37778750D01*
X4445750Y37620000D01*
X5114696Y37620000D01*
X5050302Y37593327D01*
X4871673Y37414699D01*
X4775000Y37181310D01*
X4775000Y35590750D01*
X4933750Y35432000D01*
X7033000Y35432000D01*
X7033000Y37531250D01*
X7287000Y37531250D01*
X7287000Y35432000D01*
X9386250Y35432000D01*
X9545000Y35590750D01*
X9545000Y37181310D01*
X9448327Y37414699D01*
X9269698Y37593327D01*
X9235337Y37607560D01*
X11910000Y37607560D01*
X12145317Y37651838D01*
X12361441Y37790910D01*
X12506431Y38003110D01*
X12557440Y38255000D01*
X12557440Y41755000D01*
X12513162Y41990317D01*
X12374090Y42206441D01*
X12161890Y42351431D01*
X11910000Y42402440D01*
X8410000Y42402440D01*
X8174683Y42358162D01*
X7958559Y42219090D01*
X7813569Y42006890D01*
X7762560Y41755000D01*
X7762560Y38255000D01*
X7806838Y38019683D01*
X7945910Y37803559D01*
X8112109Y37690000D01*
X7445750Y37690000D01*
X7287000Y37531250D01*
X7033000Y37531250D01*
X6874250Y37690000D01*
X6205304Y37690000D01*
X6269698Y37716673D01*
X6448327Y37895301D01*
X6545000Y38128690D01*
X6545000Y39719250D01*
X6386250Y39878000D01*
X4287000Y39878000D01*
X4033000Y39878000D01*
X1933750Y39878000D01*
X1775000Y39719250D01*
X710000Y39719250D01*
X710000Y41881310D01*
X1775000Y41881310D01*
X1775000Y40290750D01*
X1933750Y40132000D01*
X4033000Y40132000D01*
X4033000Y42231250D01*
X4287000Y42231250D01*
X4287000Y40132000D01*
X6386250Y40132000D01*
X6545000Y40290750D01*
X6545000Y41881310D01*
X6448327Y42114699D01*
X6269698Y42293327D01*
X6036309Y42390000D01*
X4445750Y42390000D01*
X4287000Y42231250D01*
X4033000Y42231250D01*
X3874250Y42390000D01*
X2283691Y42390000D01*
X2050302Y42293327D01*
X1871673Y42114699D01*
X1775000Y41881310D01*
X710000Y41881310D01*
X710000Y56090381D01*
X13292613Y56090381D01*
X13632155Y55268628D01*
X14260321Y54639364D01*
X15081481Y54298389D01*
X15970619Y54297613D01*
X16792372Y54637155D01*
X17421636Y55265321D01*
X17762611Y56086481D01*
X17762614Y56090381D01*
X86016613Y56090381D01*
X86356155Y55268628D01*
X86984321Y54639364D01*
X87805481Y54298389D01*
X88694619Y54297613D01*
X89516372Y54637155D01*
X90145636Y55265321D01*
X90486611Y56086481D01*
X90487387Y56975619D01*
X90147845Y57797372D01*
X89519679Y58426636D01*
X88698519Y58767611D01*
X87809381Y58768387D01*
X86987628Y58428845D01*
X86358364Y57800679D01*
X86017389Y56979519D01*
X86016613Y56090381D01*
X17762614Y56090381D01*
X17763387Y56975619D01*
X17423845Y57797372D01*
X16795679Y58426636D01*
X15974519Y58767611D01*
X15085381Y58768387D01*
X14263628Y58428845D01*
X13634364Y57800679D01*
X13293389Y56979519D01*
X13292613Y56090381D01*
X710000Y56090381D01*
X710000Y59615000D01*
X93853000Y59615000D01*
X93853000Y48970000D01*
X93853000Y48970000D01*
G37*
X93853000Y48970000D02*
X89535000Y48970000D01*
X89263295Y48915954D01*
X89032954Y48762046D01*
X88879046Y48531705D01*
X88825000Y48260000D01*
X88825000Y38810000D01*
X87630000Y38810000D01*
X87358295Y38755954D01*
X87127954Y38602046D01*
X86974046Y38371705D01*
X86920000Y38100000D01*
X86920000Y21590000D01*
X86974046Y21318295D01*
X87127954Y21087954D01*
X87358295Y20934046D01*
X87630000Y20880000D01*
X91365000Y20880000D01*
X91365000Y710000D01*
X51535202Y710000D01*
X52329929Y1504727D01*
X52402717Y1431812D01*
X52948319Y1205258D01*
X53539089Y1204743D01*
X54085086Y1430344D01*
X54503188Y1847717D01*
X54514748Y1875557D01*
X54525344Y1849914D01*
X54942717Y1431812D01*
X55488319Y1205258D01*
X56079089Y1204743D01*
X56625086Y1430344D01*
X57043188Y1847717D01*
X57054748Y1875557D01*
X57065344Y1849914D01*
X57482717Y1431812D01*
X58028319Y1205258D01*
X58619089Y1204743D01*
X59165086Y1430344D01*
X59381160Y1646042D01*
X60000647Y1646042D01*
X60080920Y1394741D01*
X60636279Y1193282D01*
X61226458Y1219685D01*
X61649080Y1394741D01*
X61729353Y1646042D01*
X60865000Y2510395D01*
X60000647Y1646042D01*
X59381160Y1646042D01*
X59583188Y1847717D01*
X59602951Y1895312D01*
X59821042Y1825647D01*
X60685395Y2690000D01*
X60671253Y2704142D01*
X60850858Y2883747D01*
X60865000Y2869605D01*
X61729353Y3733958D01*
X61659819Y3951640D01*
X61705086Y3970344D01*
X62123188Y4387717D01*
X62134748Y4415557D01*
X62145344Y4389914D01*
X62562717Y3971812D01*
X62590557Y3960252D01*
X62564914Y3949656D01*
X62146812Y3532283D01*
X62127049Y3484688D01*
X61908958Y3554353D01*
X61044605Y2690000D01*
X61908958Y1825647D01*
X62126640Y1895181D01*
X62145344Y1849914D01*
X62562717Y1431812D01*
X63108319Y1205258D01*
X63699089Y1204743D01*
X64245086Y1430344D01*
X64663188Y1847717D01*
X64674748Y1875557D01*
X64685344Y1849914D01*
X65102717Y1431812D01*
X65648319Y1205258D01*
X66239089Y1204743D01*
X66785086Y1430344D01*
X67203188Y1847717D01*
X67214748Y1875557D01*
X67225344Y1849914D01*
X67642717Y1431812D01*
X68188319Y1205258D01*
X68779089Y1204743D01*
X69325086Y1430344D01*
X69743188Y1847717D01*
X69754748Y1875557D01*
X69765344Y1849914D01*
X70182717Y1431812D01*
X70728319Y1205258D01*
X71319089Y1204743D01*
X71865086Y1430344D01*
X72283188Y1847717D01*
X72294748Y1875557D01*
X72305344Y1849914D01*
X72722717Y1431812D01*
X73268319Y1205258D01*
X73859089Y1204743D01*
X74405086Y1430344D01*
X74823188Y1847717D01*
X74834748Y1875557D01*
X74845344Y1849914D01*
X75262717Y1431812D01*
X75808319Y1205258D01*
X76399089Y1204743D01*
X76945086Y1430344D01*
X77161160Y1646042D01*
X77780647Y1646042D01*
X77860920Y1394741D01*
X78416279Y1193282D01*
X79006458Y1219685D01*
X79429080Y1394741D01*
X79509353Y1646042D01*
X78645000Y2510395D01*
X77780647Y1646042D01*
X77161160Y1646042D01*
X77363188Y1847717D01*
X77382951Y1895312D01*
X77601042Y1825647D01*
X78465395Y2690000D01*
X78824605Y2690000D01*
X79688958Y1825647D01*
X79940259Y1905920D01*
X80141718Y2461279D01*
X80116035Y3035381D01*
X86016613Y3035381D01*
X86356155Y2213628D01*
X86984321Y1584364D01*
X87805481Y1243389D01*
X88694619Y1242613D01*
X89516372Y1582155D01*
X90145636Y2210321D01*
X90486611Y3031481D01*
X90487387Y3920619D01*
X90147845Y4742372D01*
X89519679Y5371636D01*
X88698519Y5712611D01*
X87809381Y5713387D01*
X86987628Y5373845D01*
X86358364Y4745679D01*
X86017389Y3924519D01*
X86016613Y3035381D01*
X80116035Y3035381D01*
X80115315Y3051458D01*
X79940259Y3474080D01*
X79688958Y3554353D01*
X78824605Y2690000D01*
X78465395Y2690000D01*
X77601042Y3554353D01*
X77383360Y3484819D01*
X77364656Y3530086D01*
X76947283Y3948188D01*
X76919443Y3959748D01*
X76945086Y3970344D01*
X77363188Y4387717D01*
X77374748Y4415557D01*
X77385344Y4389914D01*
X77802717Y3971812D01*
X77850312Y3952049D01*
X77780647Y3733958D01*
X78645000Y2869605D01*
X79509353Y3733958D01*
X79439819Y3951640D01*
X79485086Y3970344D01*
X79903188Y4387717D01*
X80129742Y4933319D01*
X80130257Y5524089D01*
X79904656Y6070086D01*
X79487283Y6488188D01*
X78941681Y6714742D01*
X78350911Y6715257D01*
X77804914Y6489656D01*
X77386812Y6072283D01*
X77375252Y6044443D01*
X77364656Y6070086D01*
X76947283Y6488188D01*
X76401681Y6714742D01*
X75810911Y6715257D01*
X75264914Y6489656D01*
X74846812Y6072283D01*
X74835252Y6044443D01*
X74824656Y6070086D01*
X74407283Y6488188D01*
X73861681Y6714742D01*
X73270911Y6715257D01*
X72724914Y6489656D01*
X72306812Y6072283D01*
X72287049Y6024688D01*
X72068958Y6094353D01*
X71204605Y5230000D01*
X72068958Y4365647D01*
X72286640Y4435181D01*
X72305344Y4389914D01*
X72722717Y3971812D01*
X72750557Y3960252D01*
X72724914Y3949656D01*
X72306812Y3532283D01*
X72295252Y3504443D01*
X72284656Y3530086D01*
X71867283Y3948188D01*
X71819688Y3967951D01*
X71889353Y4186042D01*
X71025000Y5050395D01*
X70160647Y4186042D01*
X70230181Y3968360D01*
X70184914Y3949656D01*
X69766812Y3532283D01*
X69755252Y3504443D01*
X69744656Y3530086D01*
X69327283Y3948188D01*
X69299443Y3959748D01*
X69325086Y3970344D01*
X69743188Y4387717D01*
X69762951Y4435312D01*
X69981042Y4365647D01*
X70845395Y5230000D01*
X69981042Y6094353D01*
X69763360Y6024819D01*
X69744656Y6070086D01*
X69541140Y6273958D01*
X70160647Y6273958D01*
X71025000Y5409605D01*
X71889353Y6273958D01*
X71809080Y6525259D01*
X71253721Y6726718D01*
X70663542Y6700315D01*
X70240920Y6525259D01*
X70160647Y6273958D01*
X69541140Y6273958D01*
X69327283Y6488188D01*
X68781681Y6714742D01*
X68190911Y6715257D01*
X67644914Y6489656D01*
X67226812Y6072283D01*
X67207049Y6024688D01*
X66988958Y6094353D01*
X66124605Y5230000D01*
X66988958Y4365647D01*
X67206640Y4435181D01*
X67225344Y4389914D01*
X67642717Y3971812D01*
X67670557Y3960252D01*
X67644914Y3949656D01*
X67226812Y3532283D01*
X67215252Y3504443D01*
X67204656Y3530086D01*
X66787283Y3948188D01*
X66739688Y3967951D01*
X66809353Y4186042D01*
X65945000Y5050395D01*
X65080647Y4186042D01*
X65150181Y3968360D01*
X65104914Y3949656D01*
X64686812Y3532283D01*
X64675252Y3504443D01*
X64664656Y3530086D01*
X64247283Y3948188D01*
X64219443Y3959748D01*
X64245086Y3970344D01*
X64663188Y4387717D01*
X64682951Y4435312D01*
X64901042Y4365647D01*
X65765395Y5230000D01*
X64901042Y6094353D01*
X64683360Y6024819D01*
X64664656Y6070086D01*
X64461140Y6273958D01*
X65080647Y6273958D01*
X65945000Y5409605D01*
X66809353Y6273958D01*
X66729080Y6525259D01*
X66173721Y6726718D01*
X65583542Y6700315D01*
X65160920Y6525259D01*
X65080647Y6273958D01*
X64461140Y6273958D01*
X64247283Y6488188D01*
X63701681Y6714742D01*
X63110911Y6715257D01*
X62564914Y6489656D01*
X62146812Y6072283D01*
X62135252Y6044443D01*
X62124656Y6070086D01*
X61707283Y6488188D01*
X61415888Y6609186D01*
X71604101Y16797399D01*
X71768848Y17043961D01*
X71826700Y17334800D01*
X71826700Y33024800D01*
X71768848Y33315639D01*
X71604101Y33562201D01*
X68010973Y37155329D01*
X68168691Y37090000D01*
X68409250Y37090000D01*
X68568000Y37248750D01*
X68568000Y37973000D01*
X68822000Y37973000D01*
X68822000Y37248750D01*
X68980750Y37090000D01*
X69221309Y37090000D01*
X69454698Y37186673D01*
X69633327Y37365301D01*
X69730000Y37598690D01*
X69730000Y37814250D01*
X69571250Y37973000D01*
X68822000Y37973000D01*
X68568000Y37973000D01*
X68548000Y37973000D01*
X68548000Y38227000D01*
X68568000Y38227000D01*
X68568000Y38951250D01*
X68822000Y38951250D01*
X68822000Y38227000D01*
X69571250Y38227000D01*
X69730000Y38385750D01*
X69730000Y38601310D01*
X69633327Y38834699D01*
X69454698Y39013327D01*
X69221309Y39110000D01*
X68980750Y39110000D01*
X68822000Y38951250D01*
X68568000Y38951250D01*
X68409250Y39110000D01*
X68168691Y39110000D01*
X67935302Y39013327D01*
X67933932Y39011957D01*
X67846890Y39071431D01*
X67739043Y39093271D01*
X67879738Y39432101D01*
X67880062Y39804067D01*
X67738017Y40147843D01*
X67475227Y40411092D01*
X67131699Y40553738D01*
X66759733Y40554062D01*
X66415957Y40412017D01*
X66382782Y40378900D01*
X66164200Y40378900D01*
X65873361Y40321048D01*
X65626799Y40156301D01*
X65489865Y40019367D01*
X65450000Y40027440D01*
X63900000Y40027440D01*
X63664683Y39983162D01*
X63448559Y39844090D01*
X63303569Y39631890D01*
X63252560Y39380000D01*
X63252560Y39080000D01*
X63265980Y39008677D01*
X63265000Y39006310D01*
X63265000Y38990000D01*
X62614000Y38990000D01*
X62323161Y38932148D01*
X62182529Y38838181D01*
X62103000Y38854000D01*
X60132000Y38854000D01*
X60132000Y39308882D01*
X60262020Y39438718D01*
X60262173Y39438947D01*
X60262401Y39439099D01*
X60344374Y39561781D01*
X60426942Y39685163D01*
X60426996Y39685434D01*
X60427148Y39685661D01*
X60446384Y39782366D01*
X60458750Y39770000D01*
X60501310Y39770000D01*
X60505335Y39771667D01*
X60575000Y39757560D01*
X60875000Y39757560D01*
X60978671Y39777067D01*
X61075000Y39757560D01*
X61375000Y39757560D01*
X61478671Y39777067D01*
X61575000Y39757560D01*
X61875000Y39757560D01*
X61978671Y39777067D01*
X62075000Y39757560D01*
X62375000Y39757560D01*
X62478671Y39777067D01*
X62575000Y39757560D01*
X62875000Y39757560D01*
X63110317Y39801838D01*
X63326441Y39940910D01*
X63471431Y40153110D01*
X63522440Y40405000D01*
X63522440Y41092201D01*
X63804301Y40975162D01*
X64176267Y40974838D01*
X64520043Y41116883D01*
X64783292Y41379673D01*
X64925938Y41723201D01*
X64926203Y42027200D01*
X65225100Y42027200D01*
X65515939Y42085052D01*
X65762501Y42249799D01*
X66631980Y43119278D01*
X66677467Y43119238D01*
X67021243Y43261283D01*
X67284492Y43524073D01*
X67427138Y43867601D01*
X67427462Y44239567D01*
X67285417Y44583343D01*
X67022627Y44846592D01*
X66679099Y44989238D01*
X66307133Y44989562D01*
X65963357Y44847517D01*
X65700108Y44584727D01*
X65557462Y44241199D01*
X65557421Y44194323D01*
X64910298Y43547200D01*
X64385225Y43547200D01*
X64553327Y43715301D01*
X64650000Y43948690D01*
X64650000Y44164250D01*
X64491250Y44323000D01*
X63742000Y44323000D01*
X63742000Y44303000D01*
X63649600Y44303000D01*
X63649600Y44597000D01*
X63742000Y44597000D01*
X63742000Y44577000D01*
X64491250Y44577000D01*
X64650000Y44735750D01*
X64650000Y44951310D01*
X64553327Y45184699D01*
X64374698Y45363327D01*
X64141309Y45460000D01*
X64126602Y45460000D01*
X67535601Y48868999D01*
X67700348Y49115561D01*
X67758200Y49406400D01*
X67758200Y53967737D01*
X67790392Y53999873D01*
X67933038Y54343401D01*
X67933362Y54715367D01*
X67791317Y55059143D01*
X67528527Y55322392D01*
X67184999Y55465038D01*
X66813033Y55465362D01*
X66469257Y55323317D01*
X66206008Y55060527D01*
X66063362Y54716999D01*
X66063038Y54345033D01*
X66205083Y54001257D01*
X66238200Y53968082D01*
X66238200Y49721202D01*
X64683700Y48166702D01*
X64683700Y53611237D01*
X64715892Y53643373D01*
X64858538Y53986901D01*
X64858862Y54358867D01*
X64716817Y54702643D01*
X64454027Y54965892D01*
X64110499Y55108538D01*
X63738533Y55108862D01*
X63467241Y54996767D01*
X63403727Y55060392D01*
X63060199Y55203038D01*
X62688233Y55203362D01*
X62344457Y55061317D01*
X62081208Y54798527D01*
X61938562Y54454999D01*
X61938238Y54083033D01*
X62080283Y53739257D01*
X62113400Y53706082D01*
X62113400Y50082064D01*
X62071799Y50099338D01*
X61699833Y50099662D01*
X61356057Y49957617D01*
X61092808Y49694827D01*
X61007747Y49489978D01*
X60914917Y49714643D01*
X60652127Y49977892D01*
X60308599Y50120538D01*
X59936633Y50120862D01*
X59592857Y49978817D01*
X59559582Y49945600D01*
X59335500Y49945600D01*
X59044661Y49887748D01*
X58798099Y49723001D01*
X57910000Y48834902D01*
X57910000Y54163937D01*
X57942192Y54196073D01*
X58084838Y54539601D01*
X58085162Y54911567D01*
X57943117Y55255343D01*
X57680327Y55518592D01*
X57336799Y55661238D01*
X56964833Y55661562D01*
X56621057Y55519517D01*
X56357808Y55256727D01*
X56215162Y54913199D01*
X56214838Y54541233D01*
X56356883Y54197457D01*
X56390000Y54164282D01*
X56390000Y49681611D01*
X56331633Y49681662D01*
X56134600Y49600250D01*
X56134600Y53090000D01*
X56076748Y53380839D01*
X55912001Y53627401D01*
X55888722Y53650680D01*
X55888762Y53696167D01*
X55746717Y54039943D01*
X55483927Y54303192D01*
X55140399Y54445838D01*
X54768433Y54446162D01*
X54424657Y54304117D01*
X54161408Y54041327D01*
X54018762Y53697799D01*
X54018438Y53325833D01*
X54160483Y52982057D01*
X54423273Y52718808D01*
X54614600Y52639362D01*
X54614600Y50122789D01*
X54530333Y50122862D01*
X54186557Y49980817D01*
X53923308Y49718027D01*
X53780662Y49374499D01*
X53780338Y49002533D01*
X53922383Y48658757D01*
X54055400Y48525508D01*
X54055400Y45472440D01*
X53690000Y45472440D01*
X53454683Y45428162D01*
X53351354Y45361671D01*
X53349698Y45363327D01*
X53116309Y45460000D01*
X52875750Y45460000D01*
X52717002Y45301252D01*
X52717002Y45460000D01*
X52667300Y45460000D01*
X52667300Y54127437D01*
X52699492Y54159573D01*
X52842138Y54503101D01*
X52842462Y54875067D01*
X52700417Y55218843D01*
X52437627Y55482092D01*
X52094099Y55624738D01*
X51722133Y55625062D01*
X51378357Y55483017D01*
X51115108Y55220227D01*
X50972462Y54876699D01*
X50972145Y54512905D01*
X50892701Y54631801D01*
X50671422Y54853080D01*
X50671462Y54898567D01*
X50529417Y55242343D01*
X50266627Y55505592D01*
X49923099Y55648238D01*
X49551133Y55648562D01*
X49207357Y55506517D01*
X48944108Y55243727D01*
X48801462Y54900199D01*
X48801138Y54528233D01*
X48907861Y54269944D01*
X48854101Y54350401D01*
X48334122Y54870380D01*
X48334162Y54915867D01*
X48192117Y55259643D01*
X47929327Y55522892D01*
X47585799Y55665538D01*
X47213833Y55665862D01*
X46870057Y55523817D01*
X46606808Y55261027D01*
X46464162Y54917499D01*
X46463838Y54545533D01*
X46605883Y54201757D01*
X46868673Y53938508D01*
X47212201Y53795862D01*
X47259077Y53795821D01*
X47556700Y53498198D01*
X47556700Y50135178D01*
X47230833Y50135462D01*
X46930035Y50011175D01*
X46648599Y50128038D01*
X46276633Y50128362D01*
X45932857Y49986317D01*
X45860558Y49914144D01*
X42865900Y52908802D01*
X42865900Y54161337D01*
X42898092Y54193473D01*
X43040738Y54537001D01*
X43041062Y54908967D01*
X42899017Y55252743D01*
X42636227Y55515992D01*
X42292699Y55658638D01*
X41920733Y55658962D01*
X41576957Y55516917D01*
X41313708Y55254127D01*
X41171062Y54910599D01*
X41170738Y54538633D01*
X41312783Y54194857D01*
X41345900Y54161682D01*
X41345900Y52594000D01*
X41403752Y52303161D01*
X41568499Y52056599D01*
X44644205Y48980893D01*
X44613430Y48950172D01*
X40325900Y53237702D01*
X40325900Y54161337D01*
X40358092Y54193473D01*
X40500738Y54537001D01*
X40501062Y54908967D01*
X40359017Y55252743D01*
X40096227Y55515992D01*
X39752699Y55658638D01*
X39380733Y55658962D01*
X39036957Y55516917D01*
X38773708Y55254127D01*
X38631062Y54910599D01*
X38630738Y54538633D01*
X38772783Y54194857D01*
X38805900Y54161682D01*
X38805900Y52926502D01*
X37697500Y54034902D01*
X37697500Y54136437D01*
X37729692Y54168573D01*
X37872338Y54512101D01*
X37872662Y54884067D01*
X37730617Y55227843D01*
X37467827Y55491092D01*
X37124299Y55633738D01*
X36752333Y55634062D01*
X36408557Y55492017D01*
X36145308Y55229227D01*
X36002662Y54885699D01*
X36002338Y54513733D01*
X36144383Y54169957D01*
X36177500Y54136782D01*
X36177500Y53720100D01*
X36235352Y53429261D01*
X36400099Y53182699D01*
X39766052Y49816746D01*
X39637108Y49688027D01*
X39494462Y49344499D01*
X39494138Y48972533D01*
X39636183Y48628757D01*
X39898973Y48365508D01*
X40132604Y48268496D01*
X40132438Y48078333D01*
X40274483Y47734557D01*
X40307600Y47701382D01*
X40307600Y43947400D01*
X40365452Y43656561D01*
X40530199Y43409999D01*
X41522198Y42418000D01*
X39116000Y42418000D01*
X39066590Y42407994D01*
X39024965Y42379553D01*
X38997685Y42337159D01*
X38989000Y42291000D01*
X38989000Y42201100D01*
X18916300Y42201100D01*
X18481955Y42114704D01*
X18113734Y41868666D01*
X17234560Y40989492D01*
X17220000Y40992440D01*
X15020000Y40992440D01*
X14784683Y40948162D01*
X14568559Y40809090D01*
X14423569Y40596890D01*
X14372560Y40345000D01*
X14372560Y39145000D01*
X14416838Y38909683D01*
X14555910Y38693559D01*
X14768110Y38548569D01*
X15020000Y38497560D01*
X17220000Y38497560D01*
X17455317Y38541838D01*
X17561244Y38610000D01*
X17920300Y38610000D01*
X18354646Y38696397D01*
X18585000Y38850315D01*
X18585000Y37488690D01*
X18594813Y37465000D01*
X18585000Y37441310D01*
X18585000Y36079685D01*
X18354646Y36233603D01*
X17920300Y36320000D01*
X17561797Y36320000D01*
X17471890Y36381431D01*
X17220000Y36432440D01*
X15020000Y36432440D01*
X14784683Y36388162D01*
X14568559Y36249090D01*
X14423569Y36036890D01*
X14372560Y35785000D01*
X14372560Y34585000D01*
X14416838Y34349683D01*
X14555910Y34133559D01*
X14768110Y33988569D01*
X15020000Y33937560D01*
X16785300Y33937560D01*
X16785300Y33060732D01*
X15834434Y32109866D01*
X15588397Y31741646D01*
X15502000Y31307300D01*
X15502000Y31121565D01*
X15423559Y31071090D01*
X15367626Y30989230D01*
X15323090Y31058441D01*
X15110890Y31203431D01*
X14859000Y31254440D01*
X13335000Y31254440D01*
X13099683Y31210162D01*
X12883559Y31071090D01*
X12738569Y30858890D01*
X12687560Y30607000D01*
X12687560Y29083000D01*
X12731838Y28847683D01*
X12870910Y28631559D01*
X13083110Y28486569D01*
X13335000Y28435560D01*
X14859000Y28435560D01*
X15094317Y28479838D01*
X15310441Y28618910D01*
X15366374Y28700770D01*
X15410910Y28631559D01*
X15623110Y28486569D01*
X15875000Y28435560D01*
X17399000Y28435560D01*
X17634317Y28479838D01*
X17771229Y28567939D01*
X17931734Y28407434D01*
X18299955Y28161396D01*
X18734300Y28075000D01*
X20225000Y28075000D01*
X20225000Y14255000D01*
X20311397Y13820654D01*
X20461681Y13595739D01*
X20557434Y13452434D01*
X28899895Y5109973D01*
X28899743Y4935911D01*
X29125344Y4389914D01*
X29542717Y3971812D01*
X29571056Y3960045D01*
X29545914Y3949656D01*
X29127812Y3532283D01*
X28901258Y2986681D01*
X28900743Y2395911D01*
X29126344Y1849914D01*
X29543717Y1431812D01*
X30089319Y1205258D01*
X30680089Y1204743D01*
X31226086Y1430344D01*
X31644188Y1847717D01*
X31655247Y1874350D01*
X31665344Y1849914D01*
X32082717Y1431812D01*
X32628319Y1205258D01*
X33219089Y1204743D01*
X33765086Y1430344D01*
X34183188Y1847717D01*
X34194748Y1875557D01*
X34205344Y1849914D01*
X34622717Y1431812D01*
X35168319Y1205258D01*
X35759089Y1204743D01*
X36305086Y1430344D01*
X36723188Y1847717D01*
X36734748Y1875557D01*
X36745344Y1849914D01*
X37162717Y1431812D01*
X37708319Y1205258D01*
X38299089Y1204743D01*
X38845086Y1430344D01*
X39263188Y1847717D01*
X39282951Y1895312D01*
X39501042Y1825647D01*
X40365395Y2690000D01*
X39501042Y3554353D01*
X39283360Y3484819D01*
X39264656Y3530086D01*
X38847283Y3948188D01*
X38819443Y3959748D01*
X38845086Y3970344D01*
X39263188Y4387717D01*
X39274748Y4415557D01*
X39285344Y4389914D01*
X39702717Y3971812D01*
X39750312Y3952049D01*
X39680647Y3733958D01*
X40545000Y2869605D01*
X40559143Y2883747D01*
X40738748Y2704142D01*
X40724605Y2690000D01*
X40738748Y2675857D01*
X40559143Y2496252D01*
X40545000Y2510395D01*
X39680647Y1646042D01*
X39760920Y1394741D01*
X40316279Y1193282D01*
X40906458Y1219685D01*
X41329080Y1394741D01*
X41402333Y1624065D01*
X42316398Y710000D01*
X710000Y710000D01*
X710000Y3035381D01*
X13292613Y3035381D01*
X13632155Y2213628D01*
X14260321Y1584364D01*
X15081481Y1243389D01*
X15970619Y1242613D01*
X16792372Y1582155D01*
X17421636Y2210321D01*
X17762611Y3031481D01*
X17763387Y3920619D01*
X17423845Y4742372D01*
X16795679Y5371636D01*
X15974519Y5712611D01*
X15085381Y5713387D01*
X14263628Y5373845D01*
X13634364Y4745679D01*
X13293389Y3924519D01*
X13292613Y3035381D01*
X710000Y3035381D01*
X710000Y10322787D01*
X1358392Y10322787D01*
X1427857Y10080603D01*
X1951302Y9893856D01*
X2506368Y9921638D01*
X2890143Y10080603D01*
X2959608Y10322787D01*
X3898392Y10322787D01*
X3967857Y10080603D01*
X4491302Y9893856D01*
X5046368Y9921638D01*
X5430143Y10080603D01*
X5499608Y10322787D01*
X4699000Y11123395D01*
X3898392Y10322787D01*
X2959608Y10322787D01*
X2159000Y11123395D01*
X1358392Y10322787D01*
X710000Y10322787D01*
X710000Y11510698D01*
X749856Y11510698D01*
X777638Y10955632D01*
X936603Y10571857D01*
X1178787Y10502392D01*
X1979395Y11303000D01*
X2338605Y11303000D01*
X3139213Y10502392D01*
X3381397Y10571857D01*
X3425453Y10695344D01*
X3476603Y10571857D01*
X3718787Y10502392D01*
X4519395Y11303000D01*
X4878605Y11303000D01*
X5679213Y10502392D01*
X5921397Y10571857D01*
X6108144Y11095302D01*
X6080362Y11650368D01*
X5921397Y12034143D01*
X5813817Y12065000D01*
X12687560Y12065000D01*
X12687560Y10541000D01*
X12731838Y10305683D01*
X12870910Y10089559D01*
X13083110Y9944569D01*
X13335000Y9893560D01*
X14859000Y9893560D01*
X15094317Y9937838D01*
X15310441Y10076910D01*
X15366374Y10158770D01*
X15410910Y10089559D01*
X15623110Y9944569D01*
X15875000Y9893560D01*
X17399000Y9893560D01*
X17634317Y9937838D01*
X17850441Y10076910D01*
X17995431Y10289110D01*
X18046440Y10541000D01*
X18046440Y12065000D01*
X18002162Y12300317D01*
X17863090Y12516441D01*
X17650890Y12661431D01*
X17399000Y12712440D01*
X15875000Y12712440D01*
X15639683Y12668162D01*
X15423559Y12529090D01*
X15367626Y12447230D01*
X15323090Y12516441D01*
X15110890Y12661431D01*
X14859000Y12712440D01*
X13335000Y12712440D01*
X13099683Y12668162D01*
X12883559Y12529090D01*
X12738569Y12316890D01*
X12687560Y12065000D01*
X5813817Y12065000D01*
X5679213Y12103608D01*
X4878605Y11303000D01*
X4519395Y11303000D01*
X3718787Y12103608D01*
X3476603Y12034143D01*
X3432547Y11910656D01*
X3381397Y12034143D01*
X3139213Y12103608D01*
X2338605Y11303000D01*
X1979395Y11303000D01*
X1178787Y12103608D01*
X936603Y12034143D01*
X749856Y11510698D01*
X710000Y11510698D01*
X710000Y12283213D01*
X1358392Y12283213D01*
X2159000Y11482605D01*
X2959608Y12283213D01*
X3898392Y12283213D01*
X4699000Y11482605D01*
X5499608Y12283213D01*
X5430143Y12525397D01*
X4906698Y12712144D01*
X4351632Y12684362D01*
X3967857Y12525397D01*
X3898392Y12283213D01*
X2959608Y12283213D01*
X2890143Y12525397D01*
X2366698Y12712144D01*
X1811632Y12684362D01*
X1427857Y12525397D01*
X1358392Y12283213D01*
X710000Y12283213D01*
X710000Y28864787D01*
X1358392Y28864787D01*
X1427857Y28622603D01*
X1951302Y28435856D01*
X2506368Y28463638D01*
X2890143Y28622603D01*
X2959608Y28864787D01*
X3898392Y28864787D01*
X3967857Y28622603D01*
X4491302Y28435856D01*
X5046368Y28463638D01*
X5430143Y28622603D01*
X5499608Y28864787D01*
X4699000Y29665395D01*
X3898392Y28864787D01*
X2959608Y28864787D01*
X2159000Y29665395D01*
X1358392Y28864787D01*
X710000Y28864787D01*
X710000Y30052698D01*
X749856Y30052698D01*
X777638Y29497632D01*
X936603Y29113857D01*
X1178787Y29044392D01*
X1979395Y29845000D01*
X2338605Y29845000D01*
X3139213Y29044392D01*
X3381397Y29113857D01*
X3425453Y29237344D01*
X3476603Y29113857D01*
X3718787Y29044392D01*
X4519395Y29845000D01*
X4878605Y29845000D01*
X5679213Y29044392D01*
X5921397Y29113857D01*
X6108144Y29637302D01*
X6080362Y30192368D01*
X5921397Y30576143D01*
X5679213Y30645608D01*
X4878605Y29845000D01*
X4519395Y29845000D01*
X3718787Y30645608D01*
X3476603Y30576143D01*
X3432547Y30452656D01*
X3381397Y30576143D01*
X3139213Y30645608D01*
X2338605Y29845000D01*
X1979395Y29845000D01*
X1178787Y30645608D01*
X936603Y30576143D01*
X749856Y30052698D01*
X710000Y30052698D01*
X710000Y30825213D01*
X1358392Y30825213D01*
X2159000Y30024605D01*
X2959608Y30825213D01*
X3898392Y30825213D01*
X4699000Y30024605D01*
X5499608Y30825213D01*
X5430143Y31067397D01*
X4906698Y31254144D01*
X4351632Y31226362D01*
X3967857Y31067397D01*
X3898392Y30825213D01*
X2959608Y30825213D01*
X2890143Y31067397D01*
X2366698Y31254144D01*
X1811632Y31226362D01*
X1427857Y31067397D01*
X1358392Y30825213D01*
X710000Y30825213D01*
X710000Y35019250D01*
X4775000Y35019250D01*
X4775000Y33428690D01*
X4871673Y33195301D01*
X5050302Y33016673D01*
X5283691Y32920000D01*
X6874250Y32920000D01*
X7033000Y33078750D01*
X7033000Y35178000D01*
X7287000Y35178000D01*
X7287000Y33078750D01*
X7445750Y32920000D01*
X9036309Y32920000D01*
X9269698Y33016673D01*
X9448327Y33195301D01*
X9545000Y33428690D01*
X9545000Y35019250D01*
X9386250Y35178000D01*
X7287000Y35178000D01*
X7033000Y35178000D01*
X4933750Y35178000D01*
X4775000Y35019250D01*
X710000Y35019250D01*
X710000Y39719250D01*
X1775000Y39719250D01*
X1775000Y38128690D01*
X1871673Y37895301D01*
X2050302Y37716673D01*
X2283691Y37620000D01*
X3874250Y37620000D01*
X4033000Y37778750D01*
X4033000Y39878000D01*
X4287000Y39878000D01*
X4287000Y37778750D01*
X4445750Y37620000D01*
X5114696Y37620000D01*
X5050302Y37593327D01*
X4871673Y37414699D01*
X4775000Y37181310D01*
X4775000Y35590750D01*
X4933750Y35432000D01*
X7033000Y35432000D01*
X7033000Y37531250D01*
X7287000Y37531250D01*
X7287000Y35432000D01*
X9386250Y35432000D01*
X9545000Y35590750D01*
X9545000Y37181310D01*
X9448327Y37414699D01*
X9269698Y37593327D01*
X9235337Y37607560D01*
X11910000Y37607560D01*
X12145317Y37651838D01*
X12361441Y37790910D01*
X12506431Y38003110D01*
X12557440Y38255000D01*
X12557440Y41755000D01*
X12513162Y41990317D01*
X12374090Y42206441D01*
X12161890Y42351431D01*
X11910000Y42402440D01*
X8410000Y42402440D01*
X8174683Y42358162D01*
X7958559Y42219090D01*
X7813569Y42006890D01*
X7762560Y41755000D01*
X7762560Y38255000D01*
X7806838Y38019683D01*
X7945910Y37803559D01*
X8112109Y37690000D01*
X7445750Y37690000D01*
X7287000Y37531250D01*
X7033000Y37531250D01*
X6874250Y37690000D01*
X6205304Y37690000D01*
X6269698Y37716673D01*
X6448327Y37895301D01*
X6545000Y38128690D01*
X6545000Y39719250D01*
X6386250Y39878000D01*
X4287000Y39878000D01*
X4033000Y39878000D01*
X1933750Y39878000D01*
X1775000Y39719250D01*
X710000Y39719250D01*
X710000Y41881310D01*
X1775000Y41881310D01*
X1775000Y40290750D01*
X1933750Y40132000D01*
X4033000Y40132000D01*
X4033000Y42231250D01*
X4287000Y42231250D01*
X4287000Y40132000D01*
X6386250Y40132000D01*
X6545000Y40290750D01*
X6545000Y41881310D01*
X6448327Y42114699D01*
X6269698Y42293327D01*
X6036309Y42390000D01*
X4445750Y42390000D01*
X4287000Y42231250D01*
X4033000Y42231250D01*
X3874250Y42390000D01*
X2283691Y42390000D01*
X2050302Y42293327D01*
X1871673Y42114699D01*
X1775000Y41881310D01*
X710000Y41881310D01*
X710000Y56090381D01*
X13292613Y56090381D01*
X13632155Y55268628D01*
X14260321Y54639364D01*
X15081481Y54298389D01*
X15970619Y54297613D01*
X16792372Y54637155D01*
X17421636Y55265321D01*
X17762611Y56086481D01*
X17762614Y56090381D01*
X86016613Y56090381D01*
X86356155Y55268628D01*
X86984321Y54639364D01*
X87805481Y54298389D01*
X88694619Y54297613D01*
X89516372Y54637155D01*
X90145636Y55265321D01*
X90486611Y56086481D01*
X90487387Y56975619D01*
X90147845Y57797372D01*
X89519679Y58426636D01*
X88698519Y58767611D01*
X87809381Y58768387D01*
X86987628Y58428845D01*
X86358364Y57800679D01*
X86017389Y56979519D01*
X86016613Y56090381D01*
X17762614Y56090381D01*
X17763387Y56975619D01*
X17423845Y57797372D01*
X16795679Y58426636D01*
X15974519Y58767611D01*
X15085381Y58768387D01*
X14263628Y58428845D01*
X13634364Y57800679D01*
X13293389Y56979519D01*
X13292613Y56090381D01*
X710000Y56090381D01*
X710000Y59615000D01*
X93853000Y59615000D01*
X93853000Y48970000D01*
G36*
X41728683Y20543957D02*
X41991473Y20280708D01*
X42335001Y20138062D01*
X42706967Y20137738D01*
X43025757Y20269459D01*
X36836120Y14079822D01*
X36790633Y14079862D01*
X36446857Y13937817D01*
X36183608Y13675027D01*
X36040962Y13331499D01*
X36040638Y12959533D01*
X36182683Y12615757D01*
X36445473Y12352508D01*
X36789001Y12209862D01*
X37160967Y12209538D01*
X37504743Y12351583D01*
X37767992Y12614373D01*
X37910638Y12957901D01*
X37910679Y13004777D01*
X44427560Y19521658D01*
X44427560Y19005000D01*
X44465000Y18806024D01*
X44465000Y18349802D01*
X44385210Y18270012D01*
X44335000Y18280000D01*
X43900654Y18193603D01*
X43832686Y18148188D01*
X43699683Y18123162D01*
X43483559Y17984090D01*
X43338569Y17771890D01*
X43305310Y17607651D01*
X43286397Y17579346D01*
X43200000Y17145000D01*
X43200000Y15240000D01*
X43286397Y14805654D01*
X43303560Y14779968D01*
X43331838Y14629683D01*
X43470910Y14413559D01*
X43683110Y14268569D01*
X43829535Y14238917D01*
X43900654Y14191397D01*
X44335000Y14105000D01*
X44769346Y14191397D01*
X44837314Y14236812D01*
X44970317Y14261838D01*
X45073646Y14328329D01*
X45075302Y14326673D01*
X45308691Y14230000D01*
X45549250Y14230000D01*
X45708000Y14388750D01*
X45708000Y15113000D01*
X45688000Y15113000D01*
X45688000Y15367000D01*
X45708000Y15367000D01*
X45708000Y16091250D01*
X45606750Y16192500D01*
X45708000Y16293750D01*
X45708000Y17018000D01*
X45688000Y17018000D01*
X45688000Y17272000D01*
X45708000Y17272000D01*
X45708000Y17292000D01*
X45962000Y17292000D01*
X45962000Y17272000D01*
X46711250Y17272000D01*
X46870000Y17430750D01*
X46870000Y17646310D01*
X46773327Y17879699D01*
X46594698Y18058327D01*
X46361309Y18155000D01*
X46120750Y18155000D01*
X45981089Y18015339D01*
X45985000Y18035000D01*
X45985000Y18370000D01*
X46001310Y18370000D01*
X46005335Y18371667D01*
X46075000Y18357560D01*
X46375000Y18357560D01*
X46478671Y18377067D01*
X46575000Y18357560D01*
X46875000Y18357560D01*
X46978671Y18377067D01*
X47075000Y18357560D01*
X47375000Y18357560D01*
X47465000Y18374495D01*
X47465000Y16778002D01*
X46717512Y16030514D01*
X46594698Y16153327D01*
X46500126Y16192500D01*
X46594698Y16231673D01*
X46773327Y16410301D01*
X46870000Y16643690D01*
X46870000Y16859250D01*
X46711250Y17018000D01*
X45962000Y17018000D01*
X45962000Y16293750D01*
X46063250Y16192500D01*
X45962000Y16091250D01*
X45962000Y15367000D01*
X45982000Y15367000D01*
X45982000Y15113000D01*
X45962000Y15113000D01*
X45962000Y14388750D01*
X46120750Y14230000D01*
X46135000Y14230000D01*
X46135000Y6624683D01*
X45853721Y6726718D01*
X45263542Y6700315D01*
X44840920Y6525259D01*
X44760647Y6273958D01*
X45625000Y5409605D01*
X45639143Y5423747D01*
X45818748Y5244142D01*
X45804605Y5230000D01*
X45818748Y5215857D01*
X45639143Y5036252D01*
X45625000Y5050395D01*
X44760647Y4186042D01*
X44830181Y3968360D01*
X44784914Y3949656D01*
X44366812Y3532283D01*
X44355252Y3504443D01*
X44344656Y3530086D01*
X43927283Y3948188D01*
X43899443Y3959748D01*
X43925086Y3970344D01*
X44343188Y4387717D01*
X44362951Y4435312D01*
X44581042Y4365647D01*
X45445395Y5230000D01*
X44581042Y6094353D01*
X44363360Y6024819D01*
X44344656Y6070086D01*
X43927283Y6488188D01*
X43381681Y6714742D01*
X42790911Y6715257D01*
X42327445Y6523757D01*
X38781522Y10069680D01*
X38781562Y10115167D01*
X38639517Y10458943D01*
X38376727Y10722192D01*
X38033199Y10864838D01*
X37661233Y10865162D01*
X37317457Y10723117D01*
X37054208Y10460327D01*
X36911562Y10116799D01*
X36911238Y9744833D01*
X37053283Y9401057D01*
X37316073Y9137808D01*
X37659601Y8995162D01*
X37706477Y8995121D01*
X40063696Y6637902D01*
X39704914Y6489656D01*
X39286812Y6072283D01*
X39275252Y6044443D01*
X39264656Y6070086D01*
X38847283Y6488188D01*
X38301681Y6714742D01*
X37710911Y6715257D01*
X37164914Y6489656D01*
X36746812Y6072283D01*
X36727049Y6024688D01*
X36508958Y6094353D01*
X35644605Y5230000D01*
X36508958Y4365647D01*
X36726640Y4435181D01*
X36745344Y4389914D01*
X37162717Y3971812D01*
X37190557Y3960252D01*
X37164914Y3949656D01*
X36746812Y3532283D01*
X36735252Y3504443D01*
X36724656Y3530086D01*
X36307283Y3948188D01*
X36259688Y3967951D01*
X36329353Y4186042D01*
X35465000Y5050395D01*
X35450858Y5036252D01*
X35271253Y5215857D01*
X35285395Y5230000D01*
X35271253Y5244142D01*
X35450858Y5423747D01*
X35465000Y5409605D01*
X36329353Y6273958D01*
X36249080Y6525259D01*
X35693721Y6726718D01*
X35103542Y6700315D01*
X35011300Y6662107D01*
X35011300Y15256509D01*
X35018883Y15238157D01*
X35281673Y14974908D01*
X35625201Y14832262D01*
X35997167Y14831938D01*
X36340943Y14973983D01*
X36604192Y15236773D01*
X36746838Y15580301D01*
X36746879Y15627177D01*
X41709671Y20589969D01*
X41728683Y20543957D01*
X41728683Y20543957D01*
G37*
X41728683Y20543957D02*
X41991473Y20280708D01*
X42335001Y20138062D01*
X42706967Y20137738D01*
X43025757Y20269459D01*
X36836120Y14079822D01*
X36790633Y14079862D01*
X36446857Y13937817D01*
X36183608Y13675027D01*
X36040962Y13331499D01*
X36040638Y12959533D01*
X36182683Y12615757D01*
X36445473Y12352508D01*
X36789001Y12209862D01*
X37160967Y12209538D01*
X37504743Y12351583D01*
X37767992Y12614373D01*
X37910638Y12957901D01*
X37910679Y13004777D01*
X44427560Y19521658D01*
X44427560Y19005000D01*
X44465000Y18806024D01*
X44465000Y18349802D01*
X44385210Y18270012D01*
X44335000Y18280000D01*
X43900654Y18193603D01*
X43832686Y18148188D01*
X43699683Y18123162D01*
X43483559Y17984090D01*
X43338569Y17771890D01*
X43305310Y17607651D01*
X43286397Y17579346D01*
X43200000Y17145000D01*
X43200000Y15240000D01*
X43286397Y14805654D01*
X43303560Y14779968D01*
X43331838Y14629683D01*
X43470910Y14413559D01*
X43683110Y14268569D01*
X43829535Y14238917D01*
X43900654Y14191397D01*
X44335000Y14105000D01*
X44769346Y14191397D01*
X44837314Y14236812D01*
X44970317Y14261838D01*
X45073646Y14328329D01*
X45075302Y14326673D01*
X45308691Y14230000D01*
X45549250Y14230000D01*
X45708000Y14388750D01*
X45708000Y15113000D01*
X45688000Y15113000D01*
X45688000Y15367000D01*
X45708000Y15367000D01*
X45708000Y16091250D01*
X45606750Y16192500D01*
X45708000Y16293750D01*
X45708000Y17018000D01*
X45688000Y17018000D01*
X45688000Y17272000D01*
X45708000Y17272000D01*
X45708000Y17292000D01*
X45962000Y17292000D01*
X45962000Y17272000D01*
X46711250Y17272000D01*
X46870000Y17430750D01*
X46870000Y17646310D01*
X46773327Y17879699D01*
X46594698Y18058327D01*
X46361309Y18155000D01*
X46120750Y18155000D01*
X45981089Y18015339D01*
X45985000Y18035000D01*
X45985000Y18370000D01*
X46001310Y18370000D01*
X46005335Y18371667D01*
X46075000Y18357560D01*
X46375000Y18357560D01*
X46478671Y18377067D01*
X46575000Y18357560D01*
X46875000Y18357560D01*
X46978671Y18377067D01*
X47075000Y18357560D01*
X47375000Y18357560D01*
X47465000Y18374495D01*
X47465000Y16778002D01*
X46717512Y16030514D01*
X46594698Y16153327D01*
X46500126Y16192500D01*
X46594698Y16231673D01*
X46773327Y16410301D01*
X46870000Y16643690D01*
X46870000Y16859250D01*
X46711250Y17018000D01*
X45962000Y17018000D01*
X45962000Y16293750D01*
X46063250Y16192500D01*
X45962000Y16091250D01*
X45962000Y15367000D01*
X45982000Y15367000D01*
X45982000Y15113000D01*
X45962000Y15113000D01*
X45962000Y14388750D01*
X46120750Y14230000D01*
X46135000Y14230000D01*
X46135000Y6624683D01*
X45853721Y6726718D01*
X45263542Y6700315D01*
X44840920Y6525259D01*
X44760647Y6273958D01*
X45625000Y5409605D01*
X45639143Y5423747D01*
X45818748Y5244142D01*
X45804605Y5230000D01*
X45818748Y5215857D01*
X45639143Y5036252D01*
X45625000Y5050395D01*
X44760647Y4186042D01*
X44830181Y3968360D01*
X44784914Y3949656D01*
X44366812Y3532283D01*
X44355252Y3504443D01*
X44344656Y3530086D01*
X43927283Y3948188D01*
X43899443Y3959748D01*
X43925086Y3970344D01*
X44343188Y4387717D01*
X44362951Y4435312D01*
X44581042Y4365647D01*
X45445395Y5230000D01*
X44581042Y6094353D01*
X44363360Y6024819D01*
X44344656Y6070086D01*
X43927283Y6488188D01*
X43381681Y6714742D01*
X42790911Y6715257D01*
X42327445Y6523757D01*
X38781522Y10069680D01*
X38781562Y10115167D01*
X38639517Y10458943D01*
X38376727Y10722192D01*
X38033199Y10864838D01*
X37661233Y10865162D01*
X37317457Y10723117D01*
X37054208Y10460327D01*
X36911562Y10116799D01*
X36911238Y9744833D01*
X37053283Y9401057D01*
X37316073Y9137808D01*
X37659601Y8995162D01*
X37706477Y8995121D01*
X40063696Y6637902D01*
X39704914Y6489656D01*
X39286812Y6072283D01*
X39275252Y6044443D01*
X39264656Y6070086D01*
X38847283Y6488188D01*
X38301681Y6714742D01*
X37710911Y6715257D01*
X37164914Y6489656D01*
X36746812Y6072283D01*
X36727049Y6024688D01*
X36508958Y6094353D01*
X35644605Y5230000D01*
X36508958Y4365647D01*
X36726640Y4435181D01*
X36745344Y4389914D01*
X37162717Y3971812D01*
X37190557Y3960252D01*
X37164914Y3949656D01*
X36746812Y3532283D01*
X36735252Y3504443D01*
X36724656Y3530086D01*
X36307283Y3948188D01*
X36259688Y3967951D01*
X36329353Y4186042D01*
X35465000Y5050395D01*
X35450858Y5036252D01*
X35271253Y5215857D01*
X35285395Y5230000D01*
X35271253Y5244142D01*
X35450858Y5423747D01*
X35465000Y5409605D01*
X36329353Y6273958D01*
X36249080Y6525259D01*
X35693721Y6726718D01*
X35103542Y6700315D01*
X35011300Y6662107D01*
X35011300Y15256509D01*
X35018883Y15238157D01*
X35281673Y14974908D01*
X35625201Y14832262D01*
X35997167Y14831938D01*
X36340943Y14973983D01*
X36604192Y15236773D01*
X36746838Y15580301D01*
X36746879Y15627177D01*
X41709671Y20589969D01*
X41728683Y20543957D01*
G36*
X53438748Y5244142D02*
X53424605Y5230000D01*
X53438748Y5215857D01*
X53259143Y5036252D01*
X53245000Y5050395D01*
X53230858Y5036252D01*
X53051253Y5215857D01*
X53065395Y5230000D01*
X53051253Y5244142D01*
X53230858Y5423747D01*
X53245000Y5409605D01*
X53259143Y5423747D01*
X53438748Y5244142D01*
X53438748Y5244142D01*
G37*
X53438748Y5244142D02*
X53424605Y5230000D01*
X53438748Y5215857D01*
X53259143Y5036252D01*
X53245000Y5050395D01*
X53230858Y5036252D01*
X53051253Y5215857D01*
X53065395Y5230000D01*
X53051253Y5244142D01*
X53230858Y5423747D01*
X53245000Y5409605D01*
X53259143Y5423747D01*
X53438748Y5244142D01*
G36*
X58682000Y17089673D02*
X58682000Y17018000D01*
X58662000Y17018000D01*
X58662000Y16293750D01*
X58746000Y16209750D01*
X58746000Y15953502D01*
X55482920Y12690422D01*
X55437433Y12690462D01*
X55093657Y12548417D01*
X54830408Y12285627D01*
X54687762Y11942099D01*
X54687438Y11570133D01*
X54829483Y11226357D01*
X55092273Y10963108D01*
X55435801Y10820462D01*
X55807767Y10820138D01*
X56151543Y10962183D01*
X56414792Y11224973D01*
X56557438Y11568501D01*
X56557479Y11615377D01*
X57668778Y12726676D01*
X57882373Y12512708D01*
X58225901Y12370062D01*
X58597867Y12369738D01*
X58941643Y12511783D01*
X59204892Y12774573D01*
X59347538Y13118101D01*
X59347579Y13164977D01*
X60601200Y14418598D01*
X60601200Y13741302D01*
X59737520Y12877622D01*
X59692033Y12877662D01*
X59348257Y12735617D01*
X59085008Y12472827D01*
X58942362Y12129299D01*
X58942038Y11757333D01*
X59084083Y11413557D01*
X59346873Y11150308D01*
X59534639Y11072341D01*
X56729798Y8267500D01*
X56377200Y8267500D01*
X56086361Y8209648D01*
X56086359Y8209647D01*
X56086360Y8209647D01*
X55839798Y8044901D01*
X54099549Y6304651D01*
X54029080Y6525259D01*
X53473721Y6726718D01*
X52883542Y6700315D01*
X52657700Y6606768D01*
X52657700Y7080100D01*
X52599848Y7370939D01*
X52435101Y7617501D01*
X50306700Y9745902D01*
X50306700Y11652984D01*
X50358331Y11631545D01*
X50487283Y11319457D01*
X50750073Y11056208D01*
X51093601Y10913562D01*
X51465567Y10913238D01*
X51809343Y11055283D01*
X52072592Y11318073D01*
X52108890Y11405488D01*
X56712801Y16009399D01*
X56788413Y16122560D01*
X57435000Y16122560D01*
X57670317Y16166838D01*
X57773646Y16233329D01*
X57775302Y16231673D01*
X58008691Y16135000D01*
X58249250Y16135000D01*
X58408000Y16293750D01*
X58408000Y17018000D01*
X58388000Y17018000D01*
X58388000Y17211753D01*
X58682000Y17089673D01*
X58682000Y17089673D01*
G37*
X58682000Y17089673D02*
X58682000Y17018000D01*
X58662000Y17018000D01*
X58662000Y16293750D01*
X58746000Y16209750D01*
X58746000Y15953502D01*
X55482920Y12690422D01*
X55437433Y12690462D01*
X55093657Y12548417D01*
X54830408Y12285627D01*
X54687762Y11942099D01*
X54687438Y11570133D01*
X54829483Y11226357D01*
X55092273Y10963108D01*
X55435801Y10820462D01*
X55807767Y10820138D01*
X56151543Y10962183D01*
X56414792Y11224973D01*
X56557438Y11568501D01*
X56557479Y11615377D01*
X57668778Y12726676D01*
X57882373Y12512708D01*
X58225901Y12370062D01*
X58597867Y12369738D01*
X58941643Y12511783D01*
X59204892Y12774573D01*
X59347538Y13118101D01*
X59347579Y13164977D01*
X60601200Y14418598D01*
X60601200Y13741302D01*
X59737520Y12877622D01*
X59692033Y12877662D01*
X59348257Y12735617D01*
X59085008Y12472827D01*
X58942362Y12129299D01*
X58942038Y11757333D01*
X59084083Y11413557D01*
X59346873Y11150308D01*
X59534639Y11072341D01*
X56729798Y8267500D01*
X56377200Y8267500D01*
X56086361Y8209648D01*
X56086359Y8209647D01*
X56086360Y8209647D01*
X55839798Y8044901D01*
X54099549Y6304651D01*
X54029080Y6525259D01*
X53473721Y6726718D01*
X52883542Y6700315D01*
X52657700Y6606768D01*
X52657700Y7080100D01*
X52599848Y7370939D01*
X52435101Y7617501D01*
X50306700Y9745902D01*
X50306700Y11652984D01*
X50358331Y11631545D01*
X50487283Y11319457D01*
X50750073Y11056208D01*
X51093601Y10913562D01*
X51465567Y10913238D01*
X51809343Y11055283D01*
X52072592Y11318073D01*
X52108890Y11405488D01*
X56712801Y16009399D01*
X56788413Y16122560D01*
X57435000Y16122560D01*
X57670317Y16166838D01*
X57773646Y16233329D01*
X57775302Y16231673D01*
X58008691Y16135000D01*
X58249250Y16135000D01*
X58408000Y16293750D01*
X58408000Y17018000D01*
X58388000Y17018000D01*
X58388000Y17211753D01*
X58682000Y17089673D01*
G36*
X37585000Y39871310D02*
X37585000Y39655750D01*
X37743750Y39497000D01*
X38493000Y39497000D01*
X38493000Y39517000D01*
X38747000Y39517000D01*
X38747000Y39497000D01*
X38767000Y39497000D01*
X38767000Y39243000D01*
X38747000Y39243000D01*
X38747000Y38518750D01*
X38905750Y38360000D01*
X39012905Y38360000D01*
X39012738Y38168433D01*
X39154783Y37824657D01*
X39417573Y37561408D01*
X39761101Y37418762D01*
X39807977Y37418721D01*
X40736698Y36490000D01*
X38921400Y36490000D01*
X38630561Y36432148D01*
X38383999Y36267401D01*
X31196999Y29080401D01*
X31032252Y28833839D01*
X30974400Y28543000D01*
X30974400Y6593194D01*
X30681681Y6714742D01*
X30505236Y6714896D01*
X22495000Y14725132D01*
X22495000Y28348569D01*
X22507440Y28410000D01*
X22507440Y28924250D01*
X23225000Y28924250D01*
X23225000Y28283690D01*
X23321673Y28050301D01*
X23500302Y27871673D01*
X23733691Y27775000D01*
X24074250Y27775000D01*
X24233000Y27933750D01*
X24233000Y29083000D01*
X24487000Y29083000D01*
X24487000Y27933750D01*
X24645750Y27775000D01*
X24986309Y27775000D01*
X25219698Y27871673D01*
X25398327Y28050301D01*
X25495000Y28283690D01*
X25495000Y28924250D01*
X25336250Y29083000D01*
X24487000Y29083000D01*
X24233000Y29083000D01*
X23383750Y29083000D01*
X23225000Y28924250D01*
X22507440Y28924250D01*
X22507440Y30010000D01*
X22483674Y30136310D01*
X23225000Y30136310D01*
X23225000Y29495750D01*
X23383750Y29337000D01*
X24233000Y29337000D01*
X24233000Y30486250D01*
X24487000Y30486250D01*
X24487000Y29337000D01*
X25336250Y29337000D01*
X25495000Y29495750D01*
X25495000Y30136310D01*
X25398327Y30369699D01*
X25219698Y30548327D01*
X24986309Y30645000D01*
X24645750Y30645000D01*
X24487000Y30486250D01*
X24233000Y30486250D01*
X24074250Y30645000D01*
X23733691Y30645000D01*
X23500302Y30548327D01*
X23321673Y30369699D01*
X23225000Y30136310D01*
X22483674Y30136310D01*
X22463162Y30245317D01*
X22324090Y30461441D01*
X22111890Y30606431D01*
X21860000Y30657440D01*
X20860000Y30657440D01*
X20624683Y30613162D01*
X20408559Y30474090D01*
X20320356Y30345000D01*
X19204432Y30345000D01*
X18901866Y30647566D01*
X18888853Y30656261D01*
X18533646Y30893603D01*
X18099300Y30980000D01*
X17914832Y30980000D01*
X18722866Y31788034D01*
X18833554Y31953690D01*
X18968903Y32156254D01*
X19055300Y32590600D01*
X19055300Y33945902D01*
X19093691Y33930000D01*
X22396309Y33930000D01*
X22420000Y33939813D01*
X22443691Y33930000D01*
X25746309Y33930000D01*
X25979698Y34026673D01*
X26158327Y34205301D01*
X26255000Y34438690D01*
X26255000Y37441310D01*
X26245187Y37465000D01*
X26255000Y37488690D01*
X26255000Y39084250D01*
X37585000Y39084250D01*
X37585000Y38868690D01*
X37681673Y38635301D01*
X37860302Y38456673D01*
X38093691Y38360000D01*
X38334250Y38360000D01*
X38493000Y38518750D01*
X38493000Y39243000D01*
X37743750Y39243000D01*
X37585000Y39084250D01*
X26255000Y39084250D01*
X26255000Y39931100D01*
X37609766Y39931100D01*
X37585000Y39871310D01*
X37585000Y39871310D01*
G37*
X37585000Y39871310D02*
X37585000Y39655750D01*
X37743750Y39497000D01*
X38493000Y39497000D01*
X38493000Y39517000D01*
X38747000Y39517000D01*
X38747000Y39497000D01*
X38767000Y39497000D01*
X38767000Y39243000D01*
X38747000Y39243000D01*
X38747000Y38518750D01*
X38905750Y38360000D01*
X39012905Y38360000D01*
X39012738Y38168433D01*
X39154783Y37824657D01*
X39417573Y37561408D01*
X39761101Y37418762D01*
X39807977Y37418721D01*
X40736698Y36490000D01*
X38921400Y36490000D01*
X38630561Y36432148D01*
X38383999Y36267401D01*
X31196999Y29080401D01*
X31032252Y28833839D01*
X30974400Y28543000D01*
X30974400Y6593194D01*
X30681681Y6714742D01*
X30505236Y6714896D01*
X22495000Y14725132D01*
X22495000Y28348569D01*
X22507440Y28410000D01*
X22507440Y28924250D01*
X23225000Y28924250D01*
X23225000Y28283690D01*
X23321673Y28050301D01*
X23500302Y27871673D01*
X23733691Y27775000D01*
X24074250Y27775000D01*
X24233000Y27933750D01*
X24233000Y29083000D01*
X24487000Y29083000D01*
X24487000Y27933750D01*
X24645750Y27775000D01*
X24986309Y27775000D01*
X25219698Y27871673D01*
X25398327Y28050301D01*
X25495000Y28283690D01*
X25495000Y28924250D01*
X25336250Y29083000D01*
X24487000Y29083000D01*
X24233000Y29083000D01*
X23383750Y29083000D01*
X23225000Y28924250D01*
X22507440Y28924250D01*
X22507440Y30010000D01*
X22483674Y30136310D01*
X23225000Y30136310D01*
X23225000Y29495750D01*
X23383750Y29337000D01*
X24233000Y29337000D01*
X24233000Y30486250D01*
X24487000Y30486250D01*
X24487000Y29337000D01*
X25336250Y29337000D01*
X25495000Y29495750D01*
X25495000Y30136310D01*
X25398327Y30369699D01*
X25219698Y30548327D01*
X24986309Y30645000D01*
X24645750Y30645000D01*
X24487000Y30486250D01*
X24233000Y30486250D01*
X24074250Y30645000D01*
X23733691Y30645000D01*
X23500302Y30548327D01*
X23321673Y30369699D01*
X23225000Y30136310D01*
X22483674Y30136310D01*
X22463162Y30245317D01*
X22324090Y30461441D01*
X22111890Y30606431D01*
X21860000Y30657440D01*
X20860000Y30657440D01*
X20624683Y30613162D01*
X20408559Y30474090D01*
X20320356Y30345000D01*
X19204432Y30345000D01*
X18901866Y30647566D01*
X18888853Y30656261D01*
X18533646Y30893603D01*
X18099300Y30980000D01*
X17914832Y30980000D01*
X18722866Y31788034D01*
X18833554Y31953690D01*
X18968903Y32156254D01*
X19055300Y32590600D01*
X19055300Y33945902D01*
X19093691Y33930000D01*
X22396309Y33930000D01*
X22420000Y33939813D01*
X22443691Y33930000D01*
X25746309Y33930000D01*
X25979698Y34026673D01*
X26158327Y34205301D01*
X26255000Y34438690D01*
X26255000Y37441310D01*
X26245187Y37465000D01*
X26255000Y37488690D01*
X26255000Y39084250D01*
X37585000Y39084250D01*
X37585000Y38868690D01*
X37681673Y38635301D01*
X37860302Y38456673D01*
X38093691Y38360000D01*
X38334250Y38360000D01*
X38493000Y38518750D01*
X38493000Y39243000D01*
X37743750Y39243000D01*
X37585000Y39084250D01*
X26255000Y39084250D01*
X26255000Y39931100D01*
X37609766Y39931100D01*
X37585000Y39871310D01*
G36*
X52947000Y17272000D02*
X52965000Y17272000D01*
X52965000Y17129402D01*
X52833598Y16998000D01*
X52693000Y16998000D01*
X52693000Y17018000D01*
X52673000Y17018000D01*
X52673000Y17272000D01*
X52693000Y17272000D01*
X52693000Y17292000D01*
X52947000Y17292000D01*
X52947000Y17272000D01*
X52947000Y17272000D01*
G37*
X52947000Y17272000D02*
X52965000Y17272000D01*
X52965000Y17129402D01*
X52833598Y16998000D01*
X52693000Y16998000D01*
X52693000Y17018000D01*
X52673000Y17018000D01*
X52673000Y17272000D01*
X52693000Y17272000D01*
X52693000Y17292000D01*
X52947000Y17292000D01*
X52947000Y17272000D01*
G36*
X37743750Y32512000D02*
X38493000Y32512000D01*
X38493000Y32532000D01*
X38747000Y32532000D01*
X38747000Y32512000D01*
X38767000Y32512000D01*
X38767000Y32258000D01*
X38747000Y32258000D01*
X38747000Y31533750D01*
X38905750Y31375000D01*
X39146309Y31375000D01*
X39379698Y31471673D01*
X39381068Y31473043D01*
X39468110Y31413569D01*
X39720000Y31362560D01*
X40097426Y31362560D01*
X39991108Y31256427D01*
X39848462Y30912899D01*
X39848398Y30839600D01*
X39623568Y30839600D01*
X39309199Y30970138D01*
X38937233Y30970462D01*
X38593457Y30828417D01*
X38330208Y30565627D01*
X38187562Y30222099D01*
X38187238Y29850133D01*
X38329283Y29506357D01*
X38592073Y29243108D01*
X38935601Y29100462D01*
X39307567Y29100138D01*
X39651343Y29242183D01*
X39728895Y29319600D01*
X40014607Y29319600D01*
X39943710Y29148862D01*
X39599657Y29006817D01*
X39336408Y28744027D01*
X39193762Y28400499D01*
X39193670Y28295382D01*
X39146309Y28315000D01*
X38905750Y28315000D01*
X38747000Y28156250D01*
X38747000Y27432000D01*
X38767000Y27432000D01*
X38767000Y27178000D01*
X38747000Y27178000D01*
X38747000Y26453750D01*
X38905750Y26295000D01*
X39146309Y26295000D01*
X39379698Y26391673D01*
X39381068Y26393043D01*
X39468110Y26333569D01*
X39720000Y26282560D01*
X40245258Y26282560D01*
X40029932Y26067234D01*
X39768533Y26067462D01*
X39424757Y25925417D01*
X39161508Y25662627D01*
X39018862Y25319099D01*
X39018538Y24947133D01*
X39037600Y24900999D01*
X38796508Y24660327D01*
X38653862Y24316799D01*
X38653538Y23944833D01*
X38722482Y23777976D01*
X38465557Y23671817D01*
X38202308Y23409027D01*
X38059662Y23065499D01*
X38059338Y22693533D01*
X38201383Y22349757D01*
X38253773Y22297275D01*
X36766699Y20810201D01*
X36467033Y20810462D01*
X36123257Y20668417D01*
X35860008Y20405627D01*
X35717362Y20062099D01*
X35717038Y19690133D01*
X35726344Y19667611D01*
X35638908Y19580327D01*
X35496262Y19236799D01*
X35495938Y18864833D01*
X35565514Y18696446D01*
X35458308Y18589427D01*
X35315662Y18245899D01*
X35315338Y17873933D01*
X35457383Y17530157D01*
X35472838Y17514675D01*
X35175257Y17391717D01*
X35011300Y17228046D01*
X35011300Y27019250D01*
X37585000Y27019250D01*
X37585000Y26803690D01*
X37681673Y26570301D01*
X37860302Y26391673D01*
X38093691Y26295000D01*
X38334250Y26295000D01*
X38493000Y26453750D01*
X38493000Y27178000D01*
X37743750Y27178000D01*
X37585000Y27019250D01*
X35011300Y27019250D01*
X35011300Y27806310D01*
X37585000Y27806310D01*
X37585000Y27590750D01*
X37743750Y27432000D01*
X38493000Y27432000D01*
X38493000Y28156250D01*
X38334250Y28315000D01*
X38093691Y28315000D01*
X37860302Y28218327D01*
X37681673Y28039699D01*
X37585000Y27806310D01*
X35011300Y27806310D01*
X35011300Y30063798D01*
X37046752Y32099250D01*
X37585000Y32099250D01*
X37585000Y31883690D01*
X37681673Y31650301D01*
X37860302Y31471673D01*
X38093691Y31375000D01*
X38334250Y31375000D01*
X38493000Y31533750D01*
X38493000Y32258000D01*
X37743750Y32258000D01*
X37585000Y32099250D01*
X37046752Y32099250D01*
X37601626Y32654124D01*
X37743750Y32512000D01*
X37743750Y32512000D01*
G37*
X37743750Y32512000D02*
X38493000Y32512000D01*
X38493000Y32532000D01*
X38747000Y32532000D01*
X38747000Y32512000D01*
X38767000Y32512000D01*
X38767000Y32258000D01*
X38747000Y32258000D01*
X38747000Y31533750D01*
X38905750Y31375000D01*
X39146309Y31375000D01*
X39379698Y31471673D01*
X39381068Y31473043D01*
X39468110Y31413569D01*
X39720000Y31362560D01*
X40097426Y31362560D01*
X39991108Y31256427D01*
X39848462Y30912899D01*
X39848398Y30839600D01*
X39623568Y30839600D01*
X39309199Y30970138D01*
X38937233Y30970462D01*
X38593457Y30828417D01*
X38330208Y30565627D01*
X38187562Y30222099D01*
X38187238Y29850133D01*
X38329283Y29506357D01*
X38592073Y29243108D01*
X38935601Y29100462D01*
X39307567Y29100138D01*
X39651343Y29242183D01*
X39728895Y29319600D01*
X40014607Y29319600D01*
X39943710Y29148862D01*
X39599657Y29006817D01*
X39336408Y28744027D01*
X39193762Y28400499D01*
X39193670Y28295382D01*
X39146309Y28315000D01*
X38905750Y28315000D01*
X38747000Y28156250D01*
X38747000Y27432000D01*
X38767000Y27432000D01*
X38767000Y27178000D01*
X38747000Y27178000D01*
X38747000Y26453750D01*
X38905750Y26295000D01*
X39146309Y26295000D01*
X39379698Y26391673D01*
X39381068Y26393043D01*
X39468110Y26333569D01*
X39720000Y26282560D01*
X40245258Y26282560D01*
X40029932Y26067234D01*
X39768533Y26067462D01*
X39424757Y25925417D01*
X39161508Y25662627D01*
X39018862Y25319099D01*
X39018538Y24947133D01*
X39037600Y24900999D01*
X38796508Y24660327D01*
X38653862Y24316799D01*
X38653538Y23944833D01*
X38722482Y23777976D01*
X38465557Y23671817D01*
X38202308Y23409027D01*
X38059662Y23065499D01*
X38059338Y22693533D01*
X38201383Y22349757D01*
X38253773Y22297275D01*
X36766699Y20810201D01*
X36467033Y20810462D01*
X36123257Y20668417D01*
X35860008Y20405627D01*
X35717362Y20062099D01*
X35717038Y19690133D01*
X35726344Y19667611D01*
X35638908Y19580327D01*
X35496262Y19236799D01*
X35495938Y18864833D01*
X35565514Y18696446D01*
X35458308Y18589427D01*
X35315662Y18245899D01*
X35315338Y17873933D01*
X35457383Y17530157D01*
X35472838Y17514675D01*
X35175257Y17391717D01*
X35011300Y17228046D01*
X35011300Y27019250D01*
X37585000Y27019250D01*
X37585000Y26803690D01*
X37681673Y26570301D01*
X37860302Y26391673D01*
X38093691Y26295000D01*
X38334250Y26295000D01*
X38493000Y26453750D01*
X38493000Y27178000D01*
X37743750Y27178000D01*
X37585000Y27019250D01*
X35011300Y27019250D01*
X35011300Y27806310D01*
X37585000Y27806310D01*
X37585000Y27590750D01*
X37743750Y27432000D01*
X38493000Y27432000D01*
X38493000Y28156250D01*
X38334250Y28315000D01*
X38093691Y28315000D01*
X37860302Y28218327D01*
X37681673Y28039699D01*
X37585000Y27806310D01*
X35011300Y27806310D01*
X35011300Y30063798D01*
X37046752Y32099250D01*
X37585000Y32099250D01*
X37585000Y31883690D01*
X37681673Y31650301D01*
X37860302Y31471673D01*
X38093691Y31375000D01*
X38334250Y31375000D01*
X38493000Y31533750D01*
X38493000Y32258000D01*
X37743750Y32258000D01*
X37585000Y32099250D01*
X37046752Y32099250D01*
X37601626Y32654124D01*
X37743750Y32512000D01*
G36*
X68728100Y21443000D02*
X68720000Y21443000D01*
X68720000Y22095600D01*
X68662148Y22386439D01*
X68539257Y22570359D01*
X68597643Y22594483D01*
X68728100Y22724713D01*
X68728100Y21443000D01*
X68728100Y21443000D01*
G37*
X68728100Y21443000D02*
X68720000Y21443000D01*
X68720000Y22095600D01*
X68662148Y22386439D01*
X68539257Y22570359D01*
X68597643Y22594483D01*
X68728100Y22724713D01*
X68728100Y21443000D01*
G36*
X68728100Y25646968D02*
X68641752Y25517739D01*
X68583900Y25226900D01*
X68583900Y24775902D01*
X67693675Y25666127D01*
X67830317Y25691838D01*
X67933646Y25758329D01*
X67935302Y25756673D01*
X68168691Y25660000D01*
X68409250Y25660000D01*
X68568000Y25818750D01*
X68568000Y26543000D01*
X68548000Y26543000D01*
X68548000Y26797000D01*
X68568000Y26797000D01*
X68568000Y27521250D01*
X68409250Y27680000D01*
X68368682Y27680000D01*
X68619492Y27930373D01*
X68728100Y28191929D01*
X68728100Y25646968D01*
X68728100Y25646968D01*
G37*
X68728100Y25646968D02*
X68641752Y25517739D01*
X68583900Y25226900D01*
X68583900Y24775902D01*
X67693675Y25666127D01*
X67830317Y25691838D01*
X67933646Y25758329D01*
X67935302Y25756673D01*
X68168691Y25660000D01*
X68409250Y25660000D01*
X68568000Y25818750D01*
X68568000Y26543000D01*
X68548000Y26543000D01*
X68548000Y26797000D01*
X68568000Y26797000D01*
X68568000Y27521250D01*
X68409250Y27680000D01*
X68368682Y27680000D01*
X68619492Y27930373D01*
X68728100Y28191929D01*
X68728100Y25646968D01*
G36*
X68670201Y31774262D02*
X68728100Y31774212D01*
X68728100Y29697875D01*
X68690017Y29790043D01*
X68427227Y30053292D01*
X68083699Y30195938D01*
X68036823Y30195979D01*
X68015001Y30217801D01*
X67768439Y30382548D01*
X67667992Y30402528D01*
X67668262Y30713067D01*
X67657421Y30739305D01*
X67830317Y30771838D01*
X67933646Y30838329D01*
X67935302Y30836673D01*
X68168691Y30740000D01*
X68409250Y30740000D01*
X68568000Y30898750D01*
X68568000Y31623000D01*
X68548000Y31623000D01*
X68548000Y31825005D01*
X68670201Y31774262D01*
X68670201Y31774262D01*
G37*
X68670201Y31774262D02*
X68728100Y31774212D01*
X68728100Y29697875D01*
X68690017Y29790043D01*
X68427227Y30053292D01*
X68083699Y30195938D01*
X68036823Y30195979D01*
X68015001Y30217801D01*
X67768439Y30382548D01*
X67667992Y30402528D01*
X67668262Y30713067D01*
X67657421Y30739305D01*
X67830317Y30771838D01*
X67933646Y30838329D01*
X67935302Y30836673D01*
X68168691Y30740000D01*
X68409250Y30740000D01*
X68568000Y30898750D01*
X68568000Y31623000D01*
X68548000Y31623000D01*
X68548000Y31825005D01*
X68670201Y31774262D01*
G36*
X52717000Y44577000D02*
X52737000Y44577000D01*
X52737000Y44323000D01*
X52717000Y44323000D01*
X52717000Y44303000D01*
X52624700Y44303000D01*
X52624700Y44597000D01*
X52717000Y44597000D01*
X52717000Y44577000D01*
X52717000Y44577000D01*
G37*
X52717000Y44577000D02*
X52737000Y44577000D01*
X52737000Y44323000D01*
X52717000Y44323000D01*
X52717000Y44303000D01*
X52624700Y44303000D01*
X52624700Y44597000D01*
X52717000Y44597000D01*
X52717000Y44577000D01*
G36*
X44360846Y39938562D02*
X44176309Y40015000D01*
X43560750Y40015000D01*
X43402000Y39856250D01*
X43402000Y39305000D01*
X44526250Y39305000D01*
X44685000Y39463750D01*
X44685000Y39506310D01*
X44602660Y39705095D01*
X44741662Y39612217D01*
X44935300Y39573700D01*
X49225000Y39573700D01*
X49418638Y39612217D01*
X49582796Y39721904D01*
X49692483Y39886062D01*
X49718436Y40016536D01*
X49875000Y40016536D01*
X49978670Y40036043D01*
X50075000Y40016536D01*
X50375000Y40016536D01*
X50478670Y40036043D01*
X50575000Y40016536D01*
X50875000Y40016536D01*
X50978670Y40036043D01*
X51075000Y40016536D01*
X51375000Y40016536D01*
X51478670Y40036043D01*
X51575000Y40016536D01*
X51875000Y40016536D01*
X51978670Y40036043D01*
X52075000Y40016536D01*
X52375000Y40016536D01*
X52478670Y40036043D01*
X52563011Y40018964D01*
X52715301Y39866673D01*
X52948690Y39770000D01*
X52991250Y39770000D01*
X53150000Y39928750D01*
X53150000Y40132598D01*
X53225980Y40243798D01*
X53296546Y40134135D01*
X53300000Y40131775D01*
X53300000Y39928750D01*
X53458750Y39770000D01*
X53501310Y39770000D01*
X53734699Y39866673D01*
X53886777Y40018752D01*
X53978670Y40036043D01*
X54075000Y40016536D01*
X54375000Y40016536D01*
X54478670Y40036043D01*
X54575000Y40016536D01*
X54875000Y40016536D01*
X54978670Y40036043D01*
X55075000Y40016536D01*
X55375000Y40016536D01*
X55478670Y40036043D01*
X55575000Y40016536D01*
X55875000Y40016536D01*
X55978670Y40036043D01*
X56075000Y40016536D01*
X56375000Y40016536D01*
X56478670Y40036043D01*
X56548156Y40021972D01*
X56540218Y40002854D01*
X56539982Y39731935D01*
X56643439Y39481548D01*
X56834841Y39289813D01*
X57085046Y39185918D01*
X57355965Y39185682D01*
X57606352Y39289139D01*
X57798087Y39480541D01*
X57901982Y39730746D01*
X57902218Y40001665D01*
X57894553Y40020215D01*
X57978670Y40036043D01*
X58075000Y40016536D01*
X58375000Y40016536D01*
X58478670Y40036043D01*
X58575000Y40016536D01*
X58875000Y40016536D01*
X58978670Y40036043D01*
X59055000Y40020586D01*
X59055000Y37973000D01*
X59065006Y37923590D01*
X59093447Y37881965D01*
X59135841Y37854685D01*
X59182000Y37846000D01*
X62865000Y37846000D01*
X62865000Y37735892D01*
X62367504Y37238396D01*
X62257817Y37074238D01*
X62219300Y36880600D01*
X62219300Y33978923D01*
X62148313Y33908059D01*
X62044418Y33657854D01*
X62044182Y33386935D01*
X62147639Y33136548D01*
X62339041Y32944813D01*
X62589246Y32840918D01*
X62703951Y32840818D01*
X62797939Y32613348D01*
X62865000Y32546170D01*
X62865000Y31385156D01*
X62813113Y31333359D01*
X62709218Y31083154D01*
X62708982Y30812235D01*
X62812439Y30561848D01*
X62865000Y30509195D01*
X62865000Y30326353D01*
X62811213Y30272659D01*
X62707318Y30022454D01*
X62707082Y29751535D01*
X62810539Y29501148D01*
X62865000Y29446592D01*
X62865000Y28089128D01*
X62797013Y28021259D01*
X62693118Y27771054D01*
X62692882Y27500135D01*
X62796339Y27249748D01*
X62865000Y27180968D01*
X62865000Y25654569D01*
X62820713Y25610359D01*
X62716818Y25360154D01*
X62716582Y25089235D01*
X62820039Y24838848D01*
X62865000Y24793809D01*
X62865000Y24515392D01*
X62000804Y23651196D01*
X61891117Y23487038D01*
X61852600Y23293400D01*
X61852600Y22150900D01*
X61891117Y21957262D01*
X62000804Y21793104D01*
X62265169Y21528739D01*
X62265082Y21428435D01*
X62368539Y21178048D01*
X62559941Y20986313D01*
X62635350Y20955000D01*
X61716141Y20955000D01*
X61708234Y20994752D01*
X61708418Y21205965D01*
X61604961Y21456352D01*
X61413559Y21648087D01*
X61163354Y21751982D01*
X60892435Y21752218D01*
X60642048Y21648761D01*
X60450313Y21457359D01*
X60346418Y21207154D01*
X60346198Y20955000D01*
X59716141Y20955000D01*
X59692483Y21073938D01*
X59582796Y21238096D01*
X59565091Y21249926D01*
X59484261Y21445552D01*
X59292859Y21637287D01*
X59042654Y21741182D01*
X58771735Y21741418D01*
X58521348Y21637961D01*
X58457942Y21574665D01*
X58439561Y21619152D01*
X58248159Y21810887D01*
X57997954Y21914782D01*
X57727035Y21915018D01*
X57476648Y21811561D01*
X57284913Y21620159D01*
X57181018Y21369954D01*
X57180861Y21190000D01*
X57097998Y21190000D01*
X57097998Y21083252D01*
X56991250Y21190000D01*
X56948690Y21190000D01*
X56715301Y21093327D01*
X56703323Y21081349D01*
X56703418Y21190865D01*
X56599961Y21441252D01*
X56408559Y21632987D01*
X56158354Y21736882D01*
X55887435Y21737118D01*
X55637048Y21633661D01*
X55519513Y21516330D01*
X55402459Y21633587D01*
X55152254Y21737482D01*
X54881335Y21737718D01*
X54630948Y21634261D01*
X54515413Y21518926D01*
X54396359Y21638187D01*
X54146154Y21742082D01*
X53875235Y21742318D01*
X53624848Y21638861D01*
X53444003Y21458330D01*
X53264359Y21638287D01*
X53014154Y21742182D01*
X52743235Y21742418D01*
X52492848Y21638961D01*
X52301113Y21447559D01*
X52197218Y21197354D01*
X52197141Y21108884D01*
X52001310Y21190000D01*
X51958750Y21190000D01*
X51800000Y21031250D01*
X51800000Y20955000D01*
X51650000Y20955000D01*
X51650000Y21031250D01*
X51491250Y21190000D01*
X51448690Y21190000D01*
X51215301Y21093327D01*
X51076975Y20955000D01*
X50716141Y20955000D01*
X50692483Y21073938D01*
X50582796Y21238096D01*
X50524609Y21276975D01*
X50524618Y21287365D01*
X50421161Y21537752D01*
X50229759Y21729487D01*
X49979554Y21833382D01*
X49708635Y21833618D01*
X49458248Y21730161D01*
X49266513Y21538759D01*
X49238101Y21470337D01*
X49061359Y21647387D01*
X48811154Y21751282D01*
X48540235Y21751518D01*
X48289848Y21648061D01*
X48098113Y21456659D01*
X47994218Y21206454D01*
X47993999Y20955000D01*
X47553466Y20955000D01*
X48414634Y21797975D01*
X48521865Y21797882D01*
X48772252Y21901339D01*
X48963987Y22092741D01*
X49067882Y22342946D01*
X49068118Y22613865D01*
X48964661Y22864252D01*
X48773259Y23055987D01*
X48523054Y23159882D01*
X48252135Y23160118D01*
X48001748Y23056661D01*
X47810013Y22865259D01*
X47706118Y22615054D01*
X47706036Y22520494D01*
X46457812Y21298638D01*
X46367204Y21238096D01*
X46257517Y21073938D01*
X46233859Y20955000D01*
X45873025Y20955000D01*
X45734699Y21093327D01*
X45501310Y21190000D01*
X45458750Y21190000D01*
X45300000Y21031250D01*
X45300000Y20955000D01*
X45150000Y20955000D01*
X45150000Y21031250D01*
X44991250Y21190000D01*
X44948690Y21190000D01*
X44881300Y21162086D01*
X44881300Y22730000D01*
X44842783Y22923638D01*
X44733096Y23087796D01*
X44568938Y23197483D01*
X44438464Y23223436D01*
X44438464Y23380000D01*
X44418957Y23483670D01*
X44438464Y23580000D01*
X44438464Y23880000D01*
X44418957Y23983670D01*
X44438464Y24080000D01*
X44438464Y24380000D01*
X44418957Y24483670D01*
X44438464Y24580000D01*
X44438464Y24736564D01*
X44568938Y24762517D01*
X44733096Y24872204D01*
X44788879Y24955689D01*
X44939052Y25017739D01*
X45130787Y25209141D01*
X45234682Y25459346D01*
X45234918Y25730265D01*
X45131461Y25980652D01*
X44940059Y26172387D01*
X44689854Y26276282D01*
X44438464Y26276501D01*
X44438464Y26380000D01*
X44418957Y26483670D01*
X44438464Y26580000D01*
X44438464Y26880000D01*
X44418957Y26983670D01*
X44436036Y27068011D01*
X44588327Y27220301D01*
X44685000Y27453690D01*
X44685000Y27496250D01*
X44526250Y27655000D01*
X44322402Y27655000D01*
X44211202Y27730980D01*
X44320865Y27801546D01*
X44323225Y27805000D01*
X44526250Y27805000D01*
X44685000Y27963750D01*
X44685000Y28006310D01*
X44588327Y28239699D01*
X44436248Y28391777D01*
X44418957Y28483670D01*
X44438464Y28580000D01*
X44438464Y28880000D01*
X44418957Y28983670D01*
X44438464Y29080000D01*
X44438464Y29236348D01*
X44447446Y29232618D01*
X44718365Y29232382D01*
X44968752Y29335839D01*
X45160487Y29527241D01*
X45264382Y29777446D01*
X45264618Y30048365D01*
X45161161Y30298752D01*
X45041044Y30419078D01*
X45144787Y30522641D01*
X45248682Y30772846D01*
X45248918Y31043765D01*
X45145461Y31294152D01*
X44954059Y31485887D01*
X44742488Y31573740D01*
X44733096Y31587796D01*
X44568938Y31697483D01*
X44438464Y31723436D01*
X44438464Y31880000D01*
X44418957Y31983670D01*
X44436036Y32068011D01*
X44588327Y32220301D01*
X44685000Y32453690D01*
X44685000Y32496250D01*
X44526250Y32655000D01*
X44322402Y32655000D01*
X44211202Y32730980D01*
X44320865Y32801546D01*
X44323225Y32805000D01*
X44526250Y32805000D01*
X44685000Y32963750D01*
X44685000Y33006310D01*
X44588327Y33239699D01*
X44531199Y33296827D01*
X44697465Y33296682D01*
X44947852Y33400139D01*
X45139587Y33591541D01*
X45243482Y33841746D01*
X45243718Y34112665D01*
X45140261Y34363052D01*
X44948859Y34554787D01*
X44881300Y34582840D01*
X44881300Y34730000D01*
X44873635Y34768532D01*
X44938941Y34703113D01*
X45189146Y34599218D01*
X45460065Y34598982D01*
X45710452Y34702439D01*
X45902187Y34893841D01*
X46006082Y35144046D01*
X46006318Y35414965D01*
X45902861Y35665352D01*
X45711459Y35857087D01*
X45461254Y35960982D01*
X45359822Y35961070D01*
X44733096Y36587796D01*
X44568938Y36697483D01*
X44438464Y36723436D01*
X44438464Y36880000D01*
X44418957Y36983670D01*
X44438464Y37080000D01*
X44438464Y37380000D01*
X44418957Y37483670D01*
X44438464Y37580000D01*
X44438464Y37880000D01*
X44418957Y37983670D01*
X44438464Y38080000D01*
X44438464Y38380000D01*
X44418957Y38483670D01*
X44436036Y38568011D01*
X44588327Y38720301D01*
X44685000Y38953690D01*
X44685000Y38996250D01*
X44526250Y39155000D01*
X44322402Y39155000D01*
X44201134Y39237859D01*
X44050000Y39268464D01*
X42500000Y39268464D01*
X42358810Y39241897D01*
X42229135Y39158454D01*
X42226775Y39155000D01*
X42023750Y39155000D01*
X41984750Y39116000D01*
X41661841Y39116000D01*
X41601259Y39176687D01*
X41351054Y39280582D01*
X41080135Y39280818D01*
X40988608Y39243000D01*
X40247000Y39243000D01*
X40247000Y39223000D01*
X39993000Y39223000D01*
X39993000Y39243000D01*
X39973000Y39243000D01*
X39973000Y39497000D01*
X39993000Y39497000D01*
X39993000Y40221250D01*
X40247000Y40221250D01*
X40247000Y39497000D01*
X40996250Y39497000D01*
X41005560Y39506310D01*
X41865000Y39506310D01*
X41865000Y39463750D01*
X42023750Y39305000D01*
X43148000Y39305000D01*
X43148000Y39856250D01*
X42989250Y40015000D01*
X42373691Y40015000D01*
X42140302Y39918327D01*
X41961673Y39739699D01*
X41865000Y39506310D01*
X41005560Y39506310D01*
X41155000Y39655750D01*
X41155000Y39871310D01*
X41058327Y40104699D01*
X40879698Y40283327D01*
X40646309Y40380000D01*
X40405750Y40380000D01*
X40247000Y40221250D01*
X39993000Y40221250D01*
X39834250Y40380000D01*
X39751000Y40380000D01*
X39751000Y41656000D01*
X42643408Y41656000D01*
X44360846Y39938562D01*
X44360846Y39938562D01*
G37*
X44360846Y39938562D02*
X44176309Y40015000D01*
X43560750Y40015000D01*
X43402000Y39856250D01*
X43402000Y39305000D01*
X44526250Y39305000D01*
X44685000Y39463750D01*
X44685000Y39506310D01*
X44602660Y39705095D01*
X44741662Y39612217D01*
X44935300Y39573700D01*
X49225000Y39573700D01*
X49418638Y39612217D01*
X49582796Y39721904D01*
X49692483Y39886062D01*
X49718436Y40016536D01*
X49875000Y40016536D01*
X49978670Y40036043D01*
X50075000Y40016536D01*
X50375000Y40016536D01*
X50478670Y40036043D01*
X50575000Y40016536D01*
X50875000Y40016536D01*
X50978670Y40036043D01*
X51075000Y40016536D01*
X51375000Y40016536D01*
X51478670Y40036043D01*
X51575000Y40016536D01*
X51875000Y40016536D01*
X51978670Y40036043D01*
X52075000Y40016536D01*
X52375000Y40016536D01*
X52478670Y40036043D01*
X52563011Y40018964D01*
X52715301Y39866673D01*
X52948690Y39770000D01*
X52991250Y39770000D01*
X53150000Y39928750D01*
X53150000Y40132598D01*
X53225980Y40243798D01*
X53296546Y40134135D01*
X53300000Y40131775D01*
X53300000Y39928750D01*
X53458750Y39770000D01*
X53501310Y39770000D01*
X53734699Y39866673D01*
X53886777Y40018752D01*
X53978670Y40036043D01*
X54075000Y40016536D01*
X54375000Y40016536D01*
X54478670Y40036043D01*
X54575000Y40016536D01*
X54875000Y40016536D01*
X54978670Y40036043D01*
X55075000Y40016536D01*
X55375000Y40016536D01*
X55478670Y40036043D01*
X55575000Y40016536D01*
X55875000Y40016536D01*
X55978670Y40036043D01*
X56075000Y40016536D01*
X56375000Y40016536D01*
X56478670Y40036043D01*
X56548156Y40021972D01*
X56540218Y40002854D01*
X56539982Y39731935D01*
X56643439Y39481548D01*
X56834841Y39289813D01*
X57085046Y39185918D01*
X57355965Y39185682D01*
X57606352Y39289139D01*
X57798087Y39480541D01*
X57901982Y39730746D01*
X57902218Y40001665D01*
X57894553Y40020215D01*
X57978670Y40036043D01*
X58075000Y40016536D01*
X58375000Y40016536D01*
X58478670Y40036043D01*
X58575000Y40016536D01*
X58875000Y40016536D01*
X58978670Y40036043D01*
X59055000Y40020586D01*
X59055000Y37973000D01*
X59065006Y37923590D01*
X59093447Y37881965D01*
X59135841Y37854685D01*
X59182000Y37846000D01*
X62865000Y37846000D01*
X62865000Y37735892D01*
X62367504Y37238396D01*
X62257817Y37074238D01*
X62219300Y36880600D01*
X62219300Y33978923D01*
X62148313Y33908059D01*
X62044418Y33657854D01*
X62044182Y33386935D01*
X62147639Y33136548D01*
X62339041Y32944813D01*
X62589246Y32840918D01*
X62703951Y32840818D01*
X62797939Y32613348D01*
X62865000Y32546170D01*
X62865000Y31385156D01*
X62813113Y31333359D01*
X62709218Y31083154D01*
X62708982Y30812235D01*
X62812439Y30561848D01*
X62865000Y30509195D01*
X62865000Y30326353D01*
X62811213Y30272659D01*
X62707318Y30022454D01*
X62707082Y29751535D01*
X62810539Y29501148D01*
X62865000Y29446592D01*
X62865000Y28089128D01*
X62797013Y28021259D01*
X62693118Y27771054D01*
X62692882Y27500135D01*
X62796339Y27249748D01*
X62865000Y27180968D01*
X62865000Y25654569D01*
X62820713Y25610359D01*
X62716818Y25360154D01*
X62716582Y25089235D01*
X62820039Y24838848D01*
X62865000Y24793809D01*
X62865000Y24515392D01*
X62000804Y23651196D01*
X61891117Y23487038D01*
X61852600Y23293400D01*
X61852600Y22150900D01*
X61891117Y21957262D01*
X62000804Y21793104D01*
X62265169Y21528739D01*
X62265082Y21428435D01*
X62368539Y21178048D01*
X62559941Y20986313D01*
X62635350Y20955000D01*
X61716141Y20955000D01*
X61708234Y20994752D01*
X61708418Y21205965D01*
X61604961Y21456352D01*
X61413559Y21648087D01*
X61163354Y21751982D01*
X60892435Y21752218D01*
X60642048Y21648761D01*
X60450313Y21457359D01*
X60346418Y21207154D01*
X60346198Y20955000D01*
X59716141Y20955000D01*
X59692483Y21073938D01*
X59582796Y21238096D01*
X59565091Y21249926D01*
X59484261Y21445552D01*
X59292859Y21637287D01*
X59042654Y21741182D01*
X58771735Y21741418D01*
X58521348Y21637961D01*
X58457942Y21574665D01*
X58439561Y21619152D01*
X58248159Y21810887D01*
X57997954Y21914782D01*
X57727035Y21915018D01*
X57476648Y21811561D01*
X57284913Y21620159D01*
X57181018Y21369954D01*
X57180861Y21190000D01*
X57097998Y21190000D01*
X57097998Y21083252D01*
X56991250Y21190000D01*
X56948690Y21190000D01*
X56715301Y21093327D01*
X56703323Y21081349D01*
X56703418Y21190865D01*
X56599961Y21441252D01*
X56408559Y21632987D01*
X56158354Y21736882D01*
X55887435Y21737118D01*
X55637048Y21633661D01*
X55519513Y21516330D01*
X55402459Y21633587D01*
X55152254Y21737482D01*
X54881335Y21737718D01*
X54630948Y21634261D01*
X54515413Y21518926D01*
X54396359Y21638187D01*
X54146154Y21742082D01*
X53875235Y21742318D01*
X53624848Y21638861D01*
X53444003Y21458330D01*
X53264359Y21638287D01*
X53014154Y21742182D01*
X52743235Y21742418D01*
X52492848Y21638961D01*
X52301113Y21447559D01*
X52197218Y21197354D01*
X52197141Y21108884D01*
X52001310Y21190000D01*
X51958750Y21190000D01*
X51800000Y21031250D01*
X51800000Y20955000D01*
X51650000Y20955000D01*
X51650000Y21031250D01*
X51491250Y21190000D01*
X51448690Y21190000D01*
X51215301Y21093327D01*
X51076975Y20955000D01*
X50716141Y20955000D01*
X50692483Y21073938D01*
X50582796Y21238096D01*
X50524609Y21276975D01*
X50524618Y21287365D01*
X50421161Y21537752D01*
X50229759Y21729487D01*
X49979554Y21833382D01*
X49708635Y21833618D01*
X49458248Y21730161D01*
X49266513Y21538759D01*
X49238101Y21470337D01*
X49061359Y21647387D01*
X48811154Y21751282D01*
X48540235Y21751518D01*
X48289848Y21648061D01*
X48098113Y21456659D01*
X47994218Y21206454D01*
X47993999Y20955000D01*
X47553466Y20955000D01*
X48414634Y21797975D01*
X48521865Y21797882D01*
X48772252Y21901339D01*
X48963987Y22092741D01*
X49067882Y22342946D01*
X49068118Y22613865D01*
X48964661Y22864252D01*
X48773259Y23055987D01*
X48523054Y23159882D01*
X48252135Y23160118D01*
X48001748Y23056661D01*
X47810013Y22865259D01*
X47706118Y22615054D01*
X47706036Y22520494D01*
X46457812Y21298638D01*
X46367204Y21238096D01*
X46257517Y21073938D01*
X46233859Y20955000D01*
X45873025Y20955000D01*
X45734699Y21093327D01*
X45501310Y21190000D01*
X45458750Y21190000D01*
X45300000Y21031250D01*
X45300000Y20955000D01*
X45150000Y20955000D01*
X45150000Y21031250D01*
X44991250Y21190000D01*
X44948690Y21190000D01*
X44881300Y21162086D01*
X44881300Y22730000D01*
X44842783Y22923638D01*
X44733096Y23087796D01*
X44568938Y23197483D01*
X44438464Y23223436D01*
X44438464Y23380000D01*
X44418957Y23483670D01*
X44438464Y23580000D01*
X44438464Y23880000D01*
X44418957Y23983670D01*
X44438464Y24080000D01*
X44438464Y24380000D01*
X44418957Y24483670D01*
X44438464Y24580000D01*
X44438464Y24736564D01*
X44568938Y24762517D01*
X44733096Y24872204D01*
X44788879Y24955689D01*
X44939052Y25017739D01*
X45130787Y25209141D01*
X45234682Y25459346D01*
X45234918Y25730265D01*
X45131461Y25980652D01*
X44940059Y26172387D01*
X44689854Y26276282D01*
X44438464Y26276501D01*
X44438464Y26380000D01*
X44418957Y26483670D01*
X44438464Y26580000D01*
X44438464Y26880000D01*
X44418957Y26983670D01*
X44436036Y27068011D01*
X44588327Y27220301D01*
X44685000Y27453690D01*
X44685000Y27496250D01*
X44526250Y27655000D01*
X44322402Y27655000D01*
X44211202Y27730980D01*
X44320865Y27801546D01*
X44323225Y27805000D01*
X44526250Y27805000D01*
X44685000Y27963750D01*
X44685000Y28006310D01*
X44588327Y28239699D01*
X44436248Y28391777D01*
X44418957Y28483670D01*
X44438464Y28580000D01*
X44438464Y28880000D01*
X44418957Y28983670D01*
X44438464Y29080000D01*
X44438464Y29236348D01*
X44447446Y29232618D01*
X44718365Y29232382D01*
X44968752Y29335839D01*
X45160487Y29527241D01*
X45264382Y29777446D01*
X45264618Y30048365D01*
X45161161Y30298752D01*
X45041044Y30419078D01*
X45144787Y30522641D01*
X45248682Y30772846D01*
X45248918Y31043765D01*
X45145461Y31294152D01*
X44954059Y31485887D01*
X44742488Y31573740D01*
X44733096Y31587796D01*
X44568938Y31697483D01*
X44438464Y31723436D01*
X44438464Y31880000D01*
X44418957Y31983670D01*
X44436036Y32068011D01*
X44588327Y32220301D01*
X44685000Y32453690D01*
X44685000Y32496250D01*
X44526250Y32655000D01*
X44322402Y32655000D01*
X44211202Y32730980D01*
X44320865Y32801546D01*
X44323225Y32805000D01*
X44526250Y32805000D01*
X44685000Y32963750D01*
X44685000Y33006310D01*
X44588327Y33239699D01*
X44531199Y33296827D01*
X44697465Y33296682D01*
X44947852Y33400139D01*
X45139587Y33591541D01*
X45243482Y33841746D01*
X45243718Y34112665D01*
X45140261Y34363052D01*
X44948859Y34554787D01*
X44881300Y34582840D01*
X44881300Y34730000D01*
X44873635Y34768532D01*
X44938941Y34703113D01*
X45189146Y34599218D01*
X45460065Y34598982D01*
X45710452Y34702439D01*
X45902187Y34893841D01*
X46006082Y35144046D01*
X46006318Y35414965D01*
X45902861Y35665352D01*
X45711459Y35857087D01*
X45461254Y35960982D01*
X45359822Y35961070D01*
X44733096Y36587796D01*
X44568938Y36697483D01*
X44438464Y36723436D01*
X44438464Y36880000D01*
X44418957Y36983670D01*
X44438464Y37080000D01*
X44438464Y37380000D01*
X44418957Y37483670D01*
X44438464Y37580000D01*
X44438464Y37880000D01*
X44418957Y37983670D01*
X44438464Y38080000D01*
X44438464Y38380000D01*
X44418957Y38483670D01*
X44436036Y38568011D01*
X44588327Y38720301D01*
X44685000Y38953690D01*
X44685000Y38996250D01*
X44526250Y39155000D01*
X44322402Y39155000D01*
X44201134Y39237859D01*
X44050000Y39268464D01*
X42500000Y39268464D01*
X42358810Y39241897D01*
X42229135Y39158454D01*
X42226775Y39155000D01*
X42023750Y39155000D01*
X41984750Y39116000D01*
X41661841Y39116000D01*
X41601259Y39176687D01*
X41351054Y39280582D01*
X41080135Y39280818D01*
X40988608Y39243000D01*
X40247000Y39243000D01*
X40247000Y39223000D01*
X39993000Y39223000D01*
X39993000Y39243000D01*
X39973000Y39243000D01*
X39973000Y39497000D01*
X39993000Y39497000D01*
X39993000Y40221250D01*
X40247000Y40221250D01*
X40247000Y39497000D01*
X40996250Y39497000D01*
X41005560Y39506310D01*
X41865000Y39506310D01*
X41865000Y39463750D01*
X42023750Y39305000D01*
X43148000Y39305000D01*
X43148000Y39856250D01*
X42989250Y40015000D01*
X42373691Y40015000D01*
X42140302Y39918327D01*
X41961673Y39739699D01*
X41865000Y39506310D01*
X41005560Y39506310D01*
X41155000Y39655750D01*
X41155000Y39871310D01*
X41058327Y40104699D01*
X40879698Y40283327D01*
X40646309Y40380000D01*
X40405750Y40380000D01*
X40247000Y40221250D01*
X39993000Y40221250D01*
X39834250Y40380000D01*
X39751000Y40380000D01*
X39751000Y41656000D01*
X42643408Y41656000D01*
X44360846Y39938562D01*
M02*
