G04 #@! TF.FileFunction,Soldermask,Top*
%FSLAX46Y46*%
G04 Gerber Fmt 4.6, Leading zero omitted, Abs format (unit mm)*
G04 Created by KiCad (PCBNEW 4.0.4-stable) date 05/23/17 22:39:59*
%MOMM*%
%LPD*%
G01*
G04 APERTURE LIST*
%ADD10C,0.100000*%
%ADD11R,1.900000X4.400000*%
%ADD12C,1.300000*%
%ADD13C,2.300000*%
%ADD14R,1.000000X2.500000*%
%ADD15R,1.300000X0.900000*%
%ADD16R,1.050000X0.800000*%
%ADD17R,0.850000X0.800000*%
%ADD18R,2.100000X2.100000*%
%ADD19O,2.100000X2.100000*%
G04 APERTURE END LIST*
D10*
D11*
X18349500Y21660500D03*
D12*
X18349500Y21660500D03*
D13*
X15749500Y14920500D03*
X3759500Y14920500D03*
D14*
X6149500Y14680500D03*
X7169500Y14680500D03*
X8189500Y14680500D03*
X9209500Y14680500D03*
X10229500Y14680500D03*
X11249500Y14680500D03*
X12269500Y14680500D03*
X13289500Y14680500D03*
D12*
X1249500Y21660500D03*
D11*
X1249500Y21660500D03*
D15*
X1714500Y11735500D03*
X1714500Y10235500D03*
X1714500Y7925500D03*
X1714500Y6425500D03*
D16*
X9594500Y12410500D03*
X9594500Y11210500D03*
X11994500Y12410500D03*
X11994500Y11210500D03*
D17*
X10394500Y12410500D03*
X11194500Y12410500D03*
X11194500Y11210500D03*
X10394500Y11210500D03*
D16*
X9594500Y8791500D03*
X9594500Y7591500D03*
X11994500Y8791500D03*
X11994500Y7591500D03*
D17*
X10394500Y8791500D03*
X11194500Y8791500D03*
X11194500Y7591500D03*
X10394500Y7591500D03*
D16*
X5594500Y12410500D03*
X5594500Y11210500D03*
X7994500Y12410500D03*
X7994500Y11210500D03*
D17*
X6394500Y12410500D03*
X7194500Y12410500D03*
X7194500Y11210500D03*
X6394500Y11210500D03*
D16*
X5594500Y8791500D03*
X5594500Y7591500D03*
X7994500Y8791500D03*
X7994500Y7591500D03*
D17*
X6394500Y8791500D03*
X7194500Y8791500D03*
X7194500Y7591500D03*
X6394500Y7591500D03*
D18*
X15684500Y4064500D03*
D19*
X15684500Y1524500D03*
X13144500Y4064500D03*
X13144500Y1524500D03*
X10604500Y4064500D03*
X10604500Y1524500D03*
X8064500Y4064500D03*
X8064500Y1524500D03*
X5524500Y4064500D03*
X5524500Y1524500D03*
X2984500Y4064500D03*
X2984500Y1524500D03*
M02*
