G04 #@! TF.FileFunction,Legend,Top*
%FSLAX46Y46*%
G04 Gerber Fmt 4.6, Leading zero omitted, Abs format (unit mm)*
G04 Created by KiCad (PCBNEW 4.0.4-stable) date 05/23/17 22:39:58*
%MOMM*%
%LPD*%
G01*
G04 APERTURE LIST*
%ADD10C,0.100000*%
%ADD11C,0.120000*%
%ADD12C,0.150000*%
G04 APERTURE END LIST*
D10*
X2424429Y27358979D02*
X16988875Y27358979D01*
X16988875Y27358979D02*
X16988875Y14067052D01*
X16988875Y14067052D02*
X2424429Y14067052D01*
X2424429Y14067052D02*
X2424429Y27358979D01*
X1252584Y25066025D02*
X2361314Y25066025D01*
X2361314Y25066025D02*
X2361314Y17204120D01*
X2361314Y17204120D02*
X1252584Y17204120D01*
X1252584Y17204120D02*
X1252584Y25066025D01*
X17077188Y25065802D02*
X18185918Y25065802D01*
X18185918Y25065802D02*
X18185918Y17203897D01*
X18185918Y17203897D02*
X17077188Y17203897D01*
X17077188Y17203897D02*
X17077188Y25065802D01*
D11*
X1034500Y10485500D02*
X1034500Y11485500D01*
X2394500Y11485500D02*
X2394500Y10485500D01*
X1034500Y6675500D02*
X1034500Y7675500D01*
X2394500Y7675500D02*
X2394500Y6675500D01*
D12*
X12494500Y12810500D02*
X12494500Y10810500D01*
X12494500Y10810500D02*
X9094500Y10810500D01*
X9094500Y10810500D02*
X9094500Y12810500D01*
X9094500Y12810500D02*
X12494500Y12810500D01*
X12494500Y9191500D02*
X12494500Y7191500D01*
X12494500Y7191500D02*
X9094500Y7191500D01*
X9094500Y7191500D02*
X9094500Y9191500D01*
X9094500Y9191500D02*
X12494500Y9191500D01*
X8494500Y12810500D02*
X8494500Y10810500D01*
X8494500Y10810500D02*
X5094500Y10810500D01*
X5094500Y10810500D02*
X5094500Y12810500D01*
X5094500Y12810500D02*
X8494500Y12810500D01*
X8494500Y9191500D02*
X8494500Y7191500D01*
X8494500Y7191500D02*
X5094500Y7191500D01*
X5094500Y7191500D02*
X5094500Y9191500D01*
X5094500Y9191500D02*
X8494500Y9191500D01*
D11*
X14414500Y5394500D02*
X1654500Y5394500D01*
X1654500Y5394500D02*
X1654500Y194500D01*
X1654500Y194500D02*
X17014500Y194500D01*
X17014500Y194500D02*
X17014500Y2794500D01*
X17014500Y2794500D02*
X14414500Y2794500D01*
X14414500Y2794500D02*
X14414500Y5394500D01*
X15684500Y5394500D02*
X17014500Y5394500D01*
X17014500Y5394500D02*
X17014500Y4064500D01*
D12*
X9626167Y19788119D02*
X9626167Y19073833D01*
X9578547Y18930976D01*
X9483309Y18835738D01*
X9340452Y18788119D01*
X9245214Y18788119D01*
X10626167Y18788119D02*
X10054738Y18788119D01*
X10340452Y18788119D02*
X10340452Y19788119D01*
X10245214Y19645262D01*
X10149976Y19550024D01*
X10054738Y19502405D01*
X2166881Y13358834D02*
X1690690Y13025500D01*
X2166881Y12787405D02*
X1166881Y12787405D01*
X1166881Y13168358D01*
X1214500Y13263596D01*
X1262119Y13311215D01*
X1357357Y13358834D01*
X1500214Y13358834D01*
X1595452Y13311215D01*
X1643071Y13263596D01*
X1690690Y13168358D01*
X1690690Y12787405D01*
X2166881Y14311215D02*
X2166881Y13739786D01*
X2166881Y14025500D02*
X1166881Y14025500D01*
X1309738Y13930262D01*
X1404976Y13835024D01*
X1452595Y13739786D01*
X627119Y14573405D02*
X579500Y14621024D01*
X531881Y14716262D01*
X531881Y14954358D01*
X579500Y15049596D01*
X627119Y15097215D01*
X722357Y15144834D01*
X817595Y15144834D01*
X960452Y15097215D01*
X1531881Y14525786D01*
X1531881Y15144834D01*
X627119Y15525786D02*
X579500Y15573405D01*
X531881Y15668643D01*
X531881Y15906739D01*
X579500Y16001977D01*
X627119Y16049596D01*
X722357Y16097215D01*
X817595Y16097215D01*
X960452Y16049596D01*
X1531881Y15478167D01*
X1531881Y16097215D01*
X531881Y16954358D02*
X531881Y16763881D01*
X579500Y16668643D01*
X627119Y16621024D01*
X769976Y16525786D01*
X960452Y16478167D01*
X1341405Y16478167D01*
X1436643Y16525786D01*
X1484262Y16573405D01*
X1531881Y16668643D01*
X1531881Y16859120D01*
X1484262Y16954358D01*
X1436643Y17001977D01*
X1341405Y17049596D01*
X1103310Y17049596D01*
X1008071Y17001977D01*
X960452Y16954358D01*
X912833Y16859120D01*
X912833Y16668643D01*
X960452Y16573405D01*
X1008071Y16525786D01*
X1103310Y16478167D01*
X1293834Y8564619D02*
X960500Y9040810D01*
X722405Y8564619D02*
X722405Y9564619D01*
X1103358Y9564619D01*
X1198596Y9517000D01*
X1246215Y9469381D01*
X1293834Y9374143D01*
X1293834Y9231286D01*
X1246215Y9136048D01*
X1198596Y9088429D01*
X1103358Y9040810D01*
X722405Y9040810D01*
X1674786Y9469381D02*
X1722405Y9517000D01*
X1817643Y9564619D01*
X2055739Y9564619D01*
X2150977Y9517000D01*
X2198596Y9469381D01*
X2246215Y9374143D01*
X2246215Y9278905D01*
X2198596Y9136048D01*
X1627167Y8564619D01*
X2246215Y8564619D01*
X3087714Y6794596D02*
X3754381Y6794596D01*
X2706762Y6556500D02*
X3421048Y6318405D01*
X3421048Y6937453D01*
X2754381Y7223167D02*
X2754381Y7842215D01*
X3135333Y7508881D01*
X3135333Y7651739D01*
X3182952Y7746977D01*
X3230571Y7794596D01*
X3325810Y7842215D01*
X3563905Y7842215D01*
X3659143Y7794596D01*
X3706762Y7746977D01*
X3754381Y7651739D01*
X3754381Y7366024D01*
X3706762Y7270786D01*
X3659143Y7223167D01*
X2849619Y8223167D02*
X2802000Y8270786D01*
X2754381Y8366024D01*
X2754381Y8604120D01*
X2802000Y8699358D01*
X2849619Y8746977D01*
X2944857Y8794596D01*
X3040095Y8794596D01*
X3182952Y8746977D01*
X3754381Y8175548D01*
X3754381Y8794596D01*
X13493334Y11358119D02*
X13160000Y11834310D01*
X12921905Y11358119D02*
X12921905Y12358119D01*
X13302858Y12358119D01*
X13398096Y12310500D01*
X13445715Y12262881D01*
X13493334Y12167643D01*
X13493334Y12024786D01*
X13445715Y11929548D01*
X13398096Y11881929D01*
X13302858Y11834310D01*
X12921905Y11834310D01*
X13921905Y11358119D02*
X13921905Y12358119D01*
X14302858Y12358119D01*
X14398096Y12310500D01*
X14445715Y12262881D01*
X14493334Y12167643D01*
X14493334Y12024786D01*
X14445715Y11929548D01*
X14398096Y11881929D01*
X14302858Y11834310D01*
X13921905Y11834310D01*
X15445715Y11358119D02*
X14874286Y11358119D01*
X15160000Y11358119D02*
X15160000Y12358119D01*
X15064762Y12215262D01*
X14969524Y12120024D01*
X14874286Y12072405D01*
X16454024Y11358119D02*
X15882595Y11358119D01*
X16168309Y11358119D02*
X16168309Y12358119D01*
X16073071Y12215262D01*
X15977833Y12120024D01*
X15882595Y12072405D01*
X17073071Y12358119D02*
X17168310Y12358119D01*
X17263548Y12310500D01*
X17311167Y12262881D01*
X17358786Y12167643D01*
X17406405Y11977167D01*
X17406405Y11739071D01*
X17358786Y11548595D01*
X17311167Y11453357D01*
X17263548Y11405738D01*
X17168310Y11358119D01*
X17073071Y11358119D01*
X16977833Y11405738D01*
X16930214Y11453357D01*
X16882595Y11548595D01*
X16834976Y11739071D01*
X16834976Y11977167D01*
X16882595Y12167643D01*
X16930214Y12262881D01*
X16977833Y12310500D01*
X17073071Y12358119D01*
X17834976Y11358119D02*
X17834976Y12358119D01*
X18406405Y11358119D02*
X17977833Y11929548D01*
X18406405Y12358119D02*
X17834976Y11786690D01*
X13493334Y7993119D02*
X13160000Y8469310D01*
X12921905Y7993119D02*
X12921905Y8993119D01*
X13302858Y8993119D01*
X13398096Y8945500D01*
X13445715Y8897881D01*
X13493334Y8802643D01*
X13493334Y8659786D01*
X13445715Y8564548D01*
X13398096Y8516929D01*
X13302858Y8469310D01*
X12921905Y8469310D01*
X13921905Y7993119D02*
X13921905Y8993119D01*
X14302858Y8993119D01*
X14398096Y8945500D01*
X14445715Y8897881D01*
X14493334Y8802643D01*
X14493334Y8659786D01*
X14445715Y8564548D01*
X14398096Y8516929D01*
X14302858Y8469310D01*
X13921905Y8469310D01*
X14874286Y8897881D02*
X14921905Y8945500D01*
X15017143Y8993119D01*
X15255239Y8993119D01*
X15350477Y8945500D01*
X15398096Y8897881D01*
X15445715Y8802643D01*
X15445715Y8707405D01*
X15398096Y8564548D01*
X14826667Y7993119D01*
X15445715Y7993119D01*
X16517524Y7993119D02*
X15946095Y7993119D01*
X16231809Y7993119D02*
X16231809Y8993119D01*
X16136571Y8850262D01*
X16041333Y8755024D01*
X15946095Y8707405D01*
X17136571Y8993119D02*
X17231810Y8993119D01*
X17327048Y8945500D01*
X17374667Y8897881D01*
X17422286Y8802643D01*
X17469905Y8612167D01*
X17469905Y8374071D01*
X17422286Y8183595D01*
X17374667Y8088357D01*
X17327048Y8040738D01*
X17231810Y7993119D01*
X17136571Y7993119D01*
X17041333Y8040738D01*
X16993714Y8088357D01*
X16946095Y8183595D01*
X16898476Y8374071D01*
X16898476Y8612167D01*
X16946095Y8802643D01*
X16993714Y8897881D01*
X17041333Y8945500D01*
X17136571Y8993119D01*
X17898476Y7993119D02*
X17898476Y8993119D01*
X18469905Y7993119D02*
X18041333Y8564548D01*
X18469905Y8993119D02*
X17898476Y8421690D01*
X3016334Y12437619D02*
X2683000Y12913810D01*
X2444905Y12437619D02*
X2444905Y13437619D01*
X2825858Y13437619D01*
X2921096Y13390000D01*
X2968715Y13342381D01*
X3016334Y13247143D01*
X3016334Y13104286D01*
X2968715Y13009048D01*
X2921096Y12961429D01*
X2825858Y12913810D01*
X2444905Y12913810D01*
X3444905Y12437619D02*
X3444905Y13437619D01*
X3825858Y13437619D01*
X3921096Y13390000D01*
X3968715Y13342381D01*
X4016334Y13247143D01*
X4016334Y13104286D01*
X3968715Y13009048D01*
X3921096Y12961429D01*
X3825858Y12913810D01*
X3444905Y12913810D01*
X4349667Y13437619D02*
X4968715Y13437619D01*
X4635381Y13056667D01*
X4778239Y13056667D01*
X4873477Y13009048D01*
X4921096Y12961429D01*
X4968715Y12866190D01*
X4968715Y12628095D01*
X4921096Y12532857D01*
X4873477Y12485238D01*
X4778239Y12437619D01*
X4492524Y12437619D01*
X4397286Y12485238D01*
X4349667Y12532857D01*
X3056024Y11040619D02*
X2484595Y11040619D01*
X2770309Y11040619D02*
X2770309Y12040619D01*
X2675071Y11897762D01*
X2579833Y11802524D01*
X2484595Y11754905D01*
X3675071Y12040619D02*
X3770310Y12040619D01*
X3865548Y11993000D01*
X3913167Y11945381D01*
X3960786Y11850143D01*
X4008405Y11659667D01*
X4008405Y11421571D01*
X3960786Y11231095D01*
X3913167Y11135857D01*
X3865548Y11088238D01*
X3770310Y11040619D01*
X3675071Y11040619D01*
X3579833Y11088238D01*
X3532214Y11135857D01*
X3484595Y11231095D01*
X3436976Y11421571D01*
X3436976Y11659667D01*
X3484595Y11850143D01*
X3532214Y11945381D01*
X3579833Y11993000D01*
X3675071Y12040619D01*
X4436976Y11040619D02*
X4436976Y12040619D01*
X5008405Y11040619D02*
X4579833Y11612048D01*
X5008405Y12040619D02*
X4436976Y11469190D01*
X6000834Y5770619D02*
X5667500Y6246810D01*
X5429405Y5770619D02*
X5429405Y6770619D01*
X5810358Y6770619D01*
X5905596Y6723000D01*
X5953215Y6675381D01*
X6000834Y6580143D01*
X6000834Y6437286D01*
X5953215Y6342048D01*
X5905596Y6294429D01*
X5810358Y6246810D01*
X5429405Y6246810D01*
X6429405Y5770619D02*
X6429405Y6770619D01*
X6810358Y6770619D01*
X6905596Y6723000D01*
X6953215Y6675381D01*
X7000834Y6580143D01*
X7000834Y6437286D01*
X6953215Y6342048D01*
X6905596Y6294429D01*
X6810358Y6246810D01*
X6429405Y6246810D01*
X7857977Y6437286D02*
X7857977Y5770619D01*
X7619881Y6818238D02*
X7381786Y6103952D01*
X8000834Y6103952D01*
X9152024Y5834119D02*
X8580595Y5834119D01*
X8866309Y5834119D02*
X8866309Y6834119D01*
X8771071Y6691262D01*
X8675833Y6596024D01*
X8580595Y6548405D01*
X9771071Y6834119D02*
X9866310Y6834119D01*
X9961548Y6786500D01*
X10009167Y6738881D01*
X10056786Y6643643D01*
X10104405Y6453167D01*
X10104405Y6215071D01*
X10056786Y6024595D01*
X10009167Y5929357D01*
X9961548Y5881738D01*
X9866310Y5834119D01*
X9771071Y5834119D01*
X9675833Y5881738D01*
X9628214Y5929357D01*
X9580595Y6024595D01*
X9532976Y6215071D01*
X9532976Y6453167D01*
X9580595Y6643643D01*
X9628214Y6738881D01*
X9675833Y6786500D01*
X9771071Y6834119D01*
X10532976Y5834119D02*
X10532976Y6834119D01*
X11104405Y5834119D02*
X10675833Y6405548D01*
X11104405Y6834119D02*
X10532976Y6262690D01*
X18466881Y2056405D02*
X17466881Y2056405D01*
X17466881Y2437358D01*
X17514500Y2532596D01*
X17562119Y2580215D01*
X17657357Y2627834D01*
X17800214Y2627834D01*
X17895452Y2580215D01*
X17943071Y2532596D01*
X17990690Y2437358D01*
X17990690Y2056405D01*
X18466881Y3580215D02*
X18466881Y3008786D01*
X18466881Y3294500D02*
X17466881Y3294500D01*
X17609738Y3199262D01*
X17704976Y3104024D01*
X17752595Y3008786D01*
M02*
