G04 #@! TF.GenerationSoftware,KiCad,Pcbnew,(5.0.1)-3*
G04 #@! TF.CreationDate,2018-11-04T16:08:14+11:00*
G04 #@! TF.ProjectId,15_Channel_SSR_Driver,31355F4368616E6E656C5F5353525F44,1.1*
G04 #@! TF.SameCoordinates,PX7c25018PY69db1f0*
G04 #@! TF.FileFunction,Legend,Top*
G04 #@! TF.FilePolarity,Positive*
%FSLAX46Y46*%
G04 Gerber Fmt 4.6, Leading zero omitted, Abs format (unit mm)*
G04 Created by KiCad (PCBNEW (5.0.1)-3) date 4/11/2018 4:08:14 PM*
%MOMM*%
%LPD*%
G01*
G04 APERTURE LIST*
%ADD10C,0.300000*%
%ADD11C,0.250000*%
%ADD12C,0.254000*%
%ADD13C,0.152400*%
%ADD14C,0.120000*%
%ADD15C,0.100000*%
%ADD16C,0.150000*%
%ADD17C,0.050000*%
G04 APERTURE END LIST*
D10*
X1571571Y-25824571D02*
X714428Y-25824571D01*
X1143000Y-25824571D02*
X1143000Y-24324571D01*
X1000142Y-24538857D01*
X857285Y-24681714D01*
X714428Y-24753142D01*
X36877571Y-17442571D02*
X36020428Y-17442571D01*
X36449000Y-17442571D02*
X36449000Y-15942571D01*
X36306142Y-16156857D01*
X36163285Y-16299714D01*
X36020428Y-16371142D01*
D11*
X6811000Y-19153142D02*
X6763380Y-19200761D01*
X6620523Y-19248380D01*
X6525285Y-19248380D01*
X6382428Y-19200761D01*
X6287190Y-19105523D01*
X6239571Y-19010285D01*
X6191952Y-18819809D01*
X6191952Y-18676952D01*
X6239571Y-18486476D01*
X6287190Y-18391238D01*
X6382428Y-18296000D01*
X6525285Y-18248380D01*
X6620523Y-18248380D01*
X6763380Y-18296000D01*
X6811000Y-18343619D01*
X7239571Y-19248380D02*
X7239571Y-18248380D01*
X7239571Y-18724571D02*
X7811000Y-18724571D01*
X7811000Y-19248380D02*
X7811000Y-18248380D01*
X8811000Y-19248380D02*
X8239571Y-19248380D01*
X8525285Y-19248380D02*
X8525285Y-18248380D01*
X8430047Y-18391238D01*
X8334809Y-18486476D01*
X8239571Y-18534095D01*
X9430047Y-18248380D02*
X9525285Y-18248380D01*
X9620523Y-18296000D01*
X9668142Y-18343619D01*
X9715761Y-18438857D01*
X9763380Y-18629333D01*
X9763380Y-18867428D01*
X9715761Y-19057904D01*
X9668142Y-19153142D01*
X9620523Y-19200761D01*
X9525285Y-19248380D01*
X9430047Y-19248380D01*
X9334809Y-19200761D01*
X9287190Y-19153142D01*
X9239571Y-19057904D01*
X9191952Y-18867428D01*
X9191952Y-18629333D01*
X9239571Y-18438857D01*
X9287190Y-18343619D01*
X9334809Y-18296000D01*
X9430047Y-18248380D01*
X10191952Y-18867428D02*
X10953857Y-18867428D01*
X11953857Y-19248380D02*
X11382428Y-19248380D01*
X11668142Y-19248380D02*
X11668142Y-18248380D01*
X11572904Y-18391238D01*
X11477666Y-18486476D01*
X11382428Y-18534095D01*
X12811000Y-18581714D02*
X12811000Y-19248380D01*
X12572904Y-18200761D02*
X12334809Y-18915047D01*
X12953857Y-18915047D01*
X14096714Y-19248380D02*
X14096714Y-18248380D01*
X14572904Y-18581714D02*
X14572904Y-19248380D01*
X14572904Y-18676952D02*
X14620523Y-18629333D01*
X14715761Y-18581714D01*
X14858619Y-18581714D01*
X14953857Y-18629333D01*
X15001476Y-18724571D01*
X15001476Y-19248380D01*
X15477666Y-18581714D02*
X15477666Y-19581714D01*
X15477666Y-18629333D02*
X15572904Y-18581714D01*
X15763380Y-18581714D01*
X15858619Y-18629333D01*
X15906238Y-18676952D01*
X15953857Y-18772190D01*
X15953857Y-19057904D01*
X15906238Y-19153142D01*
X15858619Y-19200761D01*
X15763380Y-19248380D01*
X15572904Y-19248380D01*
X15477666Y-19200761D01*
X16811000Y-18581714D02*
X16811000Y-19248380D01*
X16382428Y-18581714D02*
X16382428Y-19105523D01*
X16430047Y-19200761D01*
X16525285Y-19248380D01*
X16668142Y-19248380D01*
X16763380Y-19200761D01*
X16811000Y-19153142D01*
X17144333Y-18581714D02*
X17525285Y-18581714D01*
X17287190Y-18248380D02*
X17287190Y-19105523D01*
X17334809Y-19200761D01*
X17430047Y-19248380D01*
X17525285Y-19248380D01*
X6747380Y-16867142D02*
X6699761Y-16914761D01*
X6556904Y-16962380D01*
X6461666Y-16962380D01*
X6318809Y-16914761D01*
X6223571Y-16819523D01*
X6175952Y-16724285D01*
X6128333Y-16533809D01*
X6128333Y-16390952D01*
X6175952Y-16200476D01*
X6223571Y-16105238D01*
X6318809Y-16010000D01*
X6461666Y-15962380D01*
X6556904Y-15962380D01*
X6699761Y-16010000D01*
X6747380Y-16057619D01*
X7175952Y-16962380D02*
X7175952Y-15962380D01*
X7175952Y-16438571D02*
X7747380Y-16438571D01*
X7747380Y-16962380D02*
X7747380Y-15962380D01*
X8699761Y-15962380D02*
X8223571Y-15962380D01*
X8175952Y-16438571D01*
X8223571Y-16390952D01*
X8318809Y-16343333D01*
X8556904Y-16343333D01*
X8652142Y-16390952D01*
X8699761Y-16438571D01*
X8747380Y-16533809D01*
X8747380Y-16771904D01*
X8699761Y-16867142D01*
X8652142Y-16914761D01*
X8556904Y-16962380D01*
X8318809Y-16962380D01*
X8223571Y-16914761D01*
X8175952Y-16867142D01*
X9175952Y-16581428D02*
X9937857Y-16581428D01*
X10461666Y-16962380D02*
X10652142Y-16962380D01*
X10747380Y-16914761D01*
X10795000Y-16867142D01*
X10890238Y-16724285D01*
X10937857Y-16533809D01*
X10937857Y-16152857D01*
X10890238Y-16057619D01*
X10842619Y-16010000D01*
X10747380Y-15962380D01*
X10556904Y-15962380D01*
X10461666Y-16010000D01*
X10414047Y-16057619D01*
X10366428Y-16152857D01*
X10366428Y-16390952D01*
X10414047Y-16486190D01*
X10461666Y-16533809D01*
X10556904Y-16581428D01*
X10747380Y-16581428D01*
X10842619Y-16533809D01*
X10890238Y-16486190D01*
X10937857Y-16390952D01*
X12128333Y-16962380D02*
X12128333Y-15962380D01*
X12604523Y-16295714D02*
X12604523Y-16962380D01*
X12604523Y-16390952D02*
X12652142Y-16343333D01*
X12747380Y-16295714D01*
X12890238Y-16295714D01*
X12985476Y-16343333D01*
X13033095Y-16438571D01*
X13033095Y-16962380D01*
X13509285Y-16295714D02*
X13509285Y-17295714D01*
X13509285Y-16343333D02*
X13604523Y-16295714D01*
X13795000Y-16295714D01*
X13890238Y-16343333D01*
X13937857Y-16390952D01*
X13985476Y-16486190D01*
X13985476Y-16771904D01*
X13937857Y-16867142D01*
X13890238Y-16914761D01*
X13795000Y-16962380D01*
X13604523Y-16962380D01*
X13509285Y-16914761D01*
X14842619Y-16295714D02*
X14842619Y-16962380D01*
X14414047Y-16295714D02*
X14414047Y-16819523D01*
X14461666Y-16914761D01*
X14556904Y-16962380D01*
X14699761Y-16962380D01*
X14795000Y-16914761D01*
X14842619Y-16867142D01*
X15175952Y-16295714D02*
X15556904Y-16295714D01*
X15318809Y-15962380D02*
X15318809Y-16819523D01*
X15366428Y-16914761D01*
X15461666Y-16962380D01*
X15556904Y-16962380D01*
X6747380Y-14581142D02*
X6699761Y-14628761D01*
X6556904Y-14676380D01*
X6461666Y-14676380D01*
X6318809Y-14628761D01*
X6223571Y-14533523D01*
X6175952Y-14438285D01*
X6128333Y-14247809D01*
X6128333Y-14104952D01*
X6175952Y-13914476D01*
X6223571Y-13819238D01*
X6318809Y-13724000D01*
X6461666Y-13676380D01*
X6556904Y-13676380D01*
X6699761Y-13724000D01*
X6747380Y-13771619D01*
X7175952Y-14676380D02*
X7175952Y-13676380D01*
X7175952Y-14152571D02*
X7747380Y-14152571D01*
X7747380Y-14676380D02*
X7747380Y-13676380D01*
X8414047Y-13676380D02*
X8509285Y-13676380D01*
X8604523Y-13724000D01*
X8652142Y-13771619D01*
X8699761Y-13866857D01*
X8747380Y-14057333D01*
X8747380Y-14295428D01*
X8699761Y-14485904D01*
X8652142Y-14581142D01*
X8604523Y-14628761D01*
X8509285Y-14676380D01*
X8414047Y-14676380D01*
X8318809Y-14628761D01*
X8271190Y-14581142D01*
X8223571Y-14485904D01*
X8175952Y-14295428D01*
X8175952Y-14057333D01*
X8223571Y-13866857D01*
X8271190Y-13771619D01*
X8318809Y-13724000D01*
X8414047Y-13676380D01*
X9175952Y-14295428D02*
X9937857Y-14295428D01*
X10842619Y-14009714D02*
X10842619Y-14676380D01*
X10604523Y-13628761D02*
X10366428Y-14343047D01*
X10985476Y-14343047D01*
X12128333Y-14676380D02*
X12128333Y-13676380D01*
X12604523Y-14009714D02*
X12604523Y-14676380D01*
X12604523Y-14104952D02*
X12652142Y-14057333D01*
X12747380Y-14009714D01*
X12890238Y-14009714D01*
X12985476Y-14057333D01*
X13033095Y-14152571D01*
X13033095Y-14676380D01*
X13509285Y-14009714D02*
X13509285Y-15009714D01*
X13509285Y-14057333D02*
X13604523Y-14009714D01*
X13795000Y-14009714D01*
X13890238Y-14057333D01*
X13937857Y-14104952D01*
X13985476Y-14200190D01*
X13985476Y-14485904D01*
X13937857Y-14581142D01*
X13890238Y-14628761D01*
X13795000Y-14676380D01*
X13604523Y-14676380D01*
X13509285Y-14628761D01*
X14842619Y-14009714D02*
X14842619Y-14676380D01*
X14414047Y-14009714D02*
X14414047Y-14533523D01*
X14461666Y-14628761D01*
X14556904Y-14676380D01*
X14699761Y-14676380D01*
X14795000Y-14628761D01*
X14842619Y-14581142D01*
X15175952Y-14009714D02*
X15556904Y-14009714D01*
X15318809Y-13676380D02*
X15318809Y-14533523D01*
X15366428Y-14628761D01*
X15461666Y-14676380D01*
X15556904Y-14676380D01*
D12*
G04 #@! TO.C,ZD1*
X18872200Y-30632400D02*
X15163800Y-30632400D01*
X15163800Y-30632400D02*
X15163800Y-27025600D01*
X15163800Y-27025600D02*
X18872200Y-27025600D01*
X18872200Y-27025600D02*
X18872200Y-30632400D01*
D13*
X18415000Y-27813000D02*
G75*
G03X18415000Y-27813000I-254000J0D01*
G01*
D14*
G04 #@! TO.C,J3*
X38733000Y-2226000D02*
X39753000Y-2226000D01*
X38733000Y-7426000D02*
X39753000Y-7426000D01*
X36193000Y-2226000D02*
X37213000Y-2226000D01*
X36193000Y-7426000D02*
X37213000Y-7426000D01*
X33653000Y-2226000D02*
X34673000Y-2226000D01*
X33653000Y-7426000D02*
X34673000Y-7426000D01*
X31113000Y-2226000D02*
X32133000Y-2226000D01*
X31113000Y-7426000D02*
X32133000Y-7426000D01*
X28573000Y-2226000D02*
X29593000Y-2226000D01*
X28573000Y-7426000D02*
X29593000Y-7426000D01*
X26033000Y-2226000D02*
X27053000Y-2226000D01*
X26033000Y-7426000D02*
X27053000Y-7426000D01*
X23493000Y-2226000D02*
X24513000Y-2226000D01*
X23493000Y-7426000D02*
X24513000Y-7426000D01*
X20953000Y-2226000D02*
X21973000Y-2226000D01*
X20953000Y-7426000D02*
X21973000Y-7426000D01*
X18413000Y-2226000D02*
X19433000Y-2226000D01*
X18413000Y-7426000D02*
X19433000Y-7426000D01*
X15873000Y-2226000D02*
X16893000Y-2226000D01*
X15873000Y-7426000D02*
X16893000Y-7426000D01*
X13333000Y-2226000D02*
X14353000Y-2226000D01*
X13333000Y-7426000D02*
X14353000Y-7426000D01*
X10793000Y-2226000D02*
X11813000Y-2226000D01*
X10793000Y-7426000D02*
X11813000Y-7426000D01*
X8253000Y-2226000D02*
X9273000Y-2226000D01*
X8253000Y-7426000D02*
X9273000Y-7426000D01*
X5713000Y-2226000D02*
X6733000Y-2226000D01*
X5713000Y-7426000D02*
X6733000Y-7426000D01*
X41273000Y-2226000D02*
X41843000Y-2226000D01*
X41273000Y-7426000D02*
X41843000Y-7426000D01*
X3623000Y-2226000D02*
X4193000Y-2226000D01*
X3623000Y-7426000D02*
X4193000Y-7426000D01*
X4193000Y-8866000D02*
X4193000Y-7426000D01*
X41843000Y-7426000D02*
X41843000Y-2226000D01*
X3623000Y-7426000D02*
X3623000Y-2226000D01*
G04 #@! TO.C,C2*
X28925000Y-31334000D02*
X28225000Y-31334000D01*
X28225000Y-30134000D02*
X28925000Y-30134000D01*
G04 #@! TO.C,C3*
X20732000Y-10195000D02*
X21432000Y-10195000D01*
X21432000Y-11395000D02*
X20732000Y-11395000D01*
G04 #@! TO.C,C4*
X29179000Y-28032000D02*
X28479000Y-28032000D01*
X28479000Y-26832000D02*
X29179000Y-26832000D01*
G04 #@! TO.C,C5*
X33620000Y-16541000D02*
X33620000Y-17241000D01*
X32420000Y-17241000D02*
X32420000Y-16541000D01*
D15*
G04 #@! TO.C,J1*
X39295071Y-46980479D02*
X24730625Y-46980479D01*
X24730625Y-46980479D02*
X24730625Y-33688552D01*
X24730625Y-33688552D02*
X39295071Y-33688552D01*
X39295071Y-33688552D02*
X39295071Y-46980479D01*
X40466916Y-44687525D02*
X39358186Y-44687525D01*
X39358186Y-44687525D02*
X39358186Y-36825620D01*
X39358186Y-36825620D02*
X40466916Y-36825620D01*
X40466916Y-36825620D02*
X40466916Y-44687525D01*
X24642312Y-44687302D02*
X23533582Y-44687302D01*
X23533582Y-44687302D02*
X23533582Y-36825397D01*
X23533582Y-36825397D02*
X24642312Y-36825397D01*
X24642312Y-36825397D02*
X24642312Y-44687302D01*
G04 #@! TO.C,J2*
X19610071Y-46980479D02*
X5045625Y-46980479D01*
X5045625Y-46980479D02*
X5045625Y-33688552D01*
X5045625Y-33688552D02*
X19610071Y-33688552D01*
X19610071Y-33688552D02*
X19610071Y-46980479D01*
X20781916Y-44687525D02*
X19673186Y-44687525D01*
X19673186Y-44687525D02*
X19673186Y-36825620D01*
X19673186Y-36825620D02*
X20781916Y-36825620D01*
X20781916Y-36825620D02*
X20781916Y-44687525D01*
X4957312Y-44687302D02*
X3848582Y-44687302D01*
X3848582Y-44687302D02*
X3848582Y-36825397D01*
X3848582Y-36825397D02*
X4957312Y-36825397D01*
X4957312Y-36825397D02*
X4957312Y-44687302D01*
D14*
G04 #@! TO.C,P6*
X3683000Y-23301000D02*
X13903000Y-23301000D01*
X13903000Y-23301000D02*
X13903000Y-20641000D01*
X13903000Y-20641000D02*
X3683000Y-20641000D01*
X3683000Y-20641000D02*
X3683000Y-23301000D01*
X2413000Y-23301000D02*
X1083000Y-23301000D01*
X1083000Y-23301000D02*
X1083000Y-21971000D01*
G04 #@! TO.C,R1*
X23921000Y-33663000D02*
X23921000Y-34663000D01*
X22561000Y-34663000D02*
X22561000Y-33663000D01*
D16*
G04 #@! TO.C,U2*
X30702000Y-23971000D02*
X30702000Y-22971000D01*
X20352000Y-23971000D02*
X20352000Y-22896000D01*
X20352000Y-13621000D02*
X20352000Y-14696000D01*
X30702000Y-13621000D02*
X30702000Y-14696000D01*
X30702000Y-23971000D02*
X29627000Y-23971000D01*
X30702000Y-13621000D02*
X29627000Y-13621000D01*
X20352000Y-13621000D02*
X21427000Y-13621000D01*
X20352000Y-23971000D02*
X21427000Y-23971000D01*
X30702000Y-22971000D02*
X31727000Y-22971000D01*
D14*
G04 #@! TO.C,U1*
X8590000Y-31390000D02*
X10090000Y-31390000D01*
X10090000Y-31390000D02*
X10090000Y-31120000D01*
X10090000Y-31120000D02*
X12920000Y-31120000D01*
X8590000Y-24490000D02*
X10090000Y-24490000D01*
X10090000Y-24490000D02*
X10090000Y-24760000D01*
X10090000Y-24760000D02*
X11190000Y-24760000D01*
G04 #@! TO.C,C1*
X22856000Y-29099000D02*
X22856000Y-31099000D01*
X24896000Y-31099000D02*
X24896000Y-29099000D01*
G04 #@! TO.C,P1*
X37405000Y-18123000D02*
X37405000Y-17593000D01*
X37405000Y-17593000D02*
X42605000Y-17593000D01*
X42605000Y-17593000D02*
X42605000Y-18123000D01*
X37405000Y-29883000D02*
X37405000Y-30413000D01*
X37405000Y-30413000D02*
X42605000Y-30413000D01*
X42605000Y-30413000D02*
X42605000Y-29883000D01*
X35735000Y-18123000D02*
X37405000Y-18123000D01*
G04 #@! TO.C,JP3*
D16*
X450904Y-19462666D02*
X1022333Y-19462666D01*
X1136619Y-19500761D01*
X1212809Y-19576952D01*
X1250904Y-19691238D01*
X1250904Y-19767428D01*
X1250904Y-19081714D02*
X450904Y-19081714D01*
X450904Y-18776952D01*
X489000Y-18700761D01*
X527095Y-18662666D01*
X603285Y-18624571D01*
X717571Y-18624571D01*
X793761Y-18662666D01*
X831857Y-18700761D01*
X869952Y-18776952D01*
X869952Y-19081714D01*
X450904Y-18357904D02*
X450904Y-17862666D01*
X755666Y-18129333D01*
X755666Y-18015047D01*
X793761Y-17938857D01*
X831857Y-17900761D01*
X908047Y-17862666D01*
X1098523Y-17862666D01*
X1174714Y-17900761D01*
X1212809Y-17938857D01*
X1250904Y-18015047D01*
X1250904Y-18243619D01*
X1212809Y-18319809D01*
X1174714Y-18357904D01*
G04 #@! TO.C,JP2*
X450904Y-17176666D02*
X1022333Y-17176666D01*
X1136619Y-17214761D01*
X1212809Y-17290952D01*
X1250904Y-17405238D01*
X1250904Y-17481428D01*
X1250904Y-16795714D02*
X450904Y-16795714D01*
X450904Y-16490952D01*
X489000Y-16414761D01*
X527095Y-16376666D01*
X603285Y-16338571D01*
X717571Y-16338571D01*
X793761Y-16376666D01*
X831857Y-16414761D01*
X869952Y-16490952D01*
X869952Y-16795714D01*
X527095Y-16033809D02*
X489000Y-15995714D01*
X450904Y-15919523D01*
X450904Y-15729047D01*
X489000Y-15652857D01*
X527095Y-15614761D01*
X603285Y-15576666D01*
X679476Y-15576666D01*
X793761Y-15614761D01*
X1250904Y-16071904D01*
X1250904Y-15576666D01*
G04 #@! TO.C,JP1*
X450904Y-14636666D02*
X1022333Y-14636666D01*
X1136619Y-14674761D01*
X1212809Y-14750952D01*
X1250904Y-14865238D01*
X1250904Y-14941428D01*
X1250904Y-14255714D02*
X450904Y-14255714D01*
X450904Y-13950952D01*
X489000Y-13874761D01*
X527095Y-13836666D01*
X603285Y-13798571D01*
X717571Y-13798571D01*
X793761Y-13836666D01*
X831857Y-13874761D01*
X869952Y-13950952D01*
X869952Y-14255714D01*
X1250904Y-13036666D02*
X1250904Y-13493809D01*
X1250904Y-13265238D02*
X450904Y-13265238D01*
X565190Y-13341428D01*
X641380Y-13417619D01*
X679476Y-13493809D01*
G04 #@! TO.C,D1*
D17*
X275490Y-36904720D02*
X275490Y-35903440D01*
X513890Y-35903440D01*
X656930Y-35951120D01*
X752290Y-36046480D01*
X799970Y-36141840D01*
X847650Y-36332560D01*
X847650Y-36475600D01*
X799970Y-36666320D01*
X752290Y-36761680D01*
X656930Y-36857040D01*
X513890Y-36904720D01*
X275490Y-36904720D01*
X1801250Y-36904720D02*
X1229090Y-36904720D01*
X1515170Y-36904720D02*
X1515170Y-35903440D01*
X1419810Y-36046480D01*
X1324450Y-36141840D01*
X1229090Y-36189520D01*
X1802356Y-42874120D02*
X1850045Y-42731053D01*
X1850045Y-42492607D01*
X1802356Y-42397229D01*
X1754667Y-42349540D01*
X1659289Y-42301851D01*
X1563911Y-42301851D01*
X1468533Y-42349540D01*
X1420844Y-42397229D01*
X1373155Y-42492607D01*
X1325466Y-42683364D01*
X1277777Y-42778742D01*
X1230088Y-42826431D01*
X1134710Y-42874120D01*
X1039332Y-42874120D01*
X943954Y-42826431D01*
X896265Y-42778742D01*
X848575Y-42683364D01*
X848575Y-42444918D01*
X896265Y-42301851D01*
X1850045Y-41872650D02*
X848575Y-41872650D01*
X1563911Y-41538826D01*
X848575Y-41205003D01*
X1850045Y-41205003D01*
X1325466Y-40394289D02*
X1325466Y-40728113D01*
X1850045Y-40728113D02*
X848575Y-40728113D01*
X848575Y-40251222D01*
X848575Y-39678954D02*
X848575Y-39583575D01*
X896265Y-39488197D01*
X943954Y-39440508D01*
X1039332Y-39392819D01*
X1230088Y-39345130D01*
X1468533Y-39345130D01*
X1659289Y-39392819D01*
X1754667Y-39440508D01*
X1802356Y-39488197D01*
X1850045Y-39583575D01*
X1850045Y-39678954D01*
X1802356Y-39774332D01*
X1754667Y-39822021D01*
X1659289Y-39869710D01*
X1468533Y-39917399D01*
X1230088Y-39917399D01*
X1039332Y-39869710D01*
X943954Y-39822021D01*
X896265Y-39774332D01*
X848575Y-39678954D01*
X848575Y-38439038D02*
X848575Y-38915929D01*
X1325466Y-38963618D01*
X1277777Y-38915929D01*
X1230088Y-38820551D01*
X1230088Y-38582105D01*
X1277777Y-38486727D01*
X1325466Y-38439038D01*
X1420844Y-38391349D01*
X1659289Y-38391349D01*
X1754667Y-38439038D01*
X1802356Y-38486727D01*
X1850045Y-38582105D01*
X1850045Y-38820551D01*
X1802356Y-38915929D01*
X1754667Y-38963618D01*
X1754667Y-37389879D02*
X1802356Y-37437568D01*
X1850045Y-37580635D01*
X1850045Y-37676014D01*
X1802356Y-37819081D01*
X1706978Y-37914459D01*
X1611600Y-37962148D01*
X1420844Y-38009837D01*
X1277777Y-38009837D01*
X1087021Y-37962148D01*
X991643Y-37914459D01*
X896265Y-37819081D01*
X848575Y-37676014D01*
X848575Y-37580635D01*
X896265Y-37437568D01*
X943954Y-37389879D01*
G04 #@! TO.C,ZD1*
X15708397Y-31456548D02*
X16375104Y-31456548D01*
X15708397Y-32456608D01*
X16375104Y-32456608D01*
X16756079Y-32456608D02*
X16756079Y-31456548D01*
X16994189Y-31456548D01*
X17137054Y-31504170D01*
X17232298Y-31599413D01*
X17279920Y-31694657D01*
X17327542Y-31885145D01*
X17327542Y-32028010D01*
X17279920Y-32218498D01*
X17232298Y-32313742D01*
X17137054Y-32408986D01*
X16994189Y-32456608D01*
X16756079Y-32456608D01*
X18279980Y-32456608D02*
X17708517Y-32456608D01*
X17994249Y-32456608D02*
X17994249Y-31456548D01*
X17899005Y-31599413D01*
X17803761Y-31694657D01*
X17708517Y-31742279D01*
X13738491Y-26105017D02*
X13738491Y-25104517D01*
X13976705Y-25104517D01*
X14119634Y-25152160D01*
X14214920Y-25247445D01*
X14262562Y-25342731D01*
X14310205Y-25533302D01*
X14310205Y-25676231D01*
X14262562Y-25866802D01*
X14214920Y-25962088D01*
X14119634Y-26057374D01*
X13976705Y-26105017D01*
X13738491Y-26105017D01*
X14691348Y-26057374D02*
X14834277Y-26105017D01*
X15072491Y-26105017D01*
X15167777Y-26057374D01*
X15215420Y-26009731D01*
X15263062Y-25914445D01*
X15263062Y-25819160D01*
X15215420Y-25723874D01*
X15167777Y-25676231D01*
X15072491Y-25628588D01*
X14881920Y-25580945D01*
X14786634Y-25533302D01*
X14738991Y-25485660D01*
X14691348Y-25390374D01*
X14691348Y-25295088D01*
X14738991Y-25199802D01*
X14786634Y-25152160D01*
X14881920Y-25104517D01*
X15120134Y-25104517D01*
X15263062Y-25152160D01*
X15739491Y-26105017D02*
X15930062Y-26105017D01*
X16025348Y-26057374D01*
X16072991Y-26009731D01*
X16168277Y-25866802D01*
X16215920Y-25676231D01*
X16215920Y-25295088D01*
X16168277Y-25199802D01*
X16120634Y-25152160D01*
X16025348Y-25104517D01*
X15834777Y-25104517D01*
X15739491Y-25152160D01*
X15691848Y-25199802D01*
X15644205Y-25295088D01*
X15644205Y-25533302D01*
X15691848Y-25628588D01*
X15739491Y-25676231D01*
X15834777Y-25723874D01*
X16025348Y-25723874D01*
X16120634Y-25676231D01*
X16168277Y-25628588D01*
X16215920Y-25533302D01*
X17121134Y-25104517D02*
X16644705Y-25104517D01*
X16597062Y-25580945D01*
X16644705Y-25533302D01*
X16739991Y-25485660D01*
X16978205Y-25485660D01*
X17073491Y-25533302D01*
X17121134Y-25580945D01*
X17168777Y-25676231D01*
X17168777Y-25914445D01*
X17121134Y-26009731D01*
X17073491Y-26057374D01*
X16978205Y-26105017D01*
X16739991Y-26105017D01*
X16644705Y-26057374D01*
X16597062Y-26009731D01*
X17788134Y-25104517D02*
X17883420Y-25104517D01*
X17978705Y-25152160D01*
X18026348Y-25199802D01*
X18073991Y-25295088D01*
X18121634Y-25485660D01*
X18121634Y-25723874D01*
X18073991Y-25914445D01*
X18026348Y-26009731D01*
X17978705Y-26057374D01*
X17883420Y-26105017D01*
X17788134Y-26105017D01*
X17692848Y-26057374D01*
X17645205Y-26009731D01*
X17597562Y-25914445D01*
X17549920Y-25723874D01*
X17549920Y-25485660D01*
X17597562Y-25295088D01*
X17645205Y-25199802D01*
X17692848Y-25152160D01*
X17788134Y-25104517D01*
X18455134Y-25104517D02*
X19074491Y-25104517D01*
X18740991Y-25485660D01*
X18883920Y-25485660D01*
X18979205Y-25533302D01*
X19026848Y-25580945D01*
X19074491Y-25676231D01*
X19074491Y-25914445D01*
X19026848Y-26009731D01*
X18979205Y-26057374D01*
X18883920Y-26105017D01*
X18598062Y-26105017D01*
X18502777Y-26057374D01*
X18455134Y-26009731D01*
G04 #@! TO.C,J3*
D16*
X2075380Y-5159333D02*
X2789666Y-5159333D01*
X2932523Y-5206952D01*
X3027761Y-5302190D01*
X3075380Y-5445047D01*
X3075380Y-5540285D01*
X2075380Y-4778380D02*
X2075380Y-4159333D01*
X2456333Y-4492666D01*
X2456333Y-4349809D01*
X2503952Y-4254571D01*
X2551571Y-4206952D01*
X2646809Y-4159333D01*
X2884904Y-4159333D01*
X2980142Y-4206952D01*
X3027761Y-4254571D01*
X3075380Y-4349809D01*
X3075380Y-4635523D01*
X3027761Y-4730761D01*
X2980142Y-4778380D01*
G04 #@! TO.C,C2*
X28408333Y-32591142D02*
X28360714Y-32638761D01*
X28217857Y-32686380D01*
X28122619Y-32686380D01*
X27979761Y-32638761D01*
X27884523Y-32543523D01*
X27836904Y-32448285D01*
X27789285Y-32257809D01*
X27789285Y-32114952D01*
X27836904Y-31924476D01*
X27884523Y-31829238D01*
X27979761Y-31734000D01*
X28122619Y-31686380D01*
X28217857Y-31686380D01*
X28360714Y-31734000D01*
X28408333Y-31781619D01*
X28789285Y-31781619D02*
X28836904Y-31734000D01*
X28932142Y-31686380D01*
X29170238Y-31686380D01*
X29265476Y-31734000D01*
X29313095Y-31781619D01*
X29360714Y-31876857D01*
X29360714Y-31972095D01*
X29313095Y-32114952D01*
X28741666Y-32686380D01*
X29360714Y-32686380D01*
G04 #@! TO.C,C3*
X19899333Y-12930142D02*
X19851714Y-12977761D01*
X19708857Y-13025380D01*
X19613619Y-13025380D01*
X19470761Y-12977761D01*
X19375523Y-12882523D01*
X19327904Y-12787285D01*
X19280285Y-12596809D01*
X19280285Y-12453952D01*
X19327904Y-12263476D01*
X19375523Y-12168238D01*
X19470761Y-12073000D01*
X19613619Y-12025380D01*
X19708857Y-12025380D01*
X19851714Y-12073000D01*
X19899333Y-12120619D01*
X20232666Y-12025380D02*
X20851714Y-12025380D01*
X20518380Y-12406333D01*
X20661238Y-12406333D01*
X20756476Y-12453952D01*
X20804095Y-12501571D01*
X20851714Y-12596809D01*
X20851714Y-12834904D01*
X20804095Y-12930142D01*
X20756476Y-12977761D01*
X20661238Y-13025380D01*
X20375523Y-13025380D01*
X20280285Y-12977761D01*
X20232666Y-12930142D01*
G04 #@! TO.C,C4*
X28662333Y-29289142D02*
X28614714Y-29336761D01*
X28471857Y-29384380D01*
X28376619Y-29384380D01*
X28233761Y-29336761D01*
X28138523Y-29241523D01*
X28090904Y-29146285D01*
X28043285Y-28955809D01*
X28043285Y-28812952D01*
X28090904Y-28622476D01*
X28138523Y-28527238D01*
X28233761Y-28432000D01*
X28376619Y-28384380D01*
X28471857Y-28384380D01*
X28614714Y-28432000D01*
X28662333Y-28479619D01*
X29519476Y-28717714D02*
X29519476Y-29384380D01*
X29281380Y-28336761D02*
X29043285Y-29051047D01*
X29662333Y-29051047D01*
G04 #@! TO.C,C5*
X34877142Y-17057666D02*
X34924761Y-17105285D01*
X34972380Y-17248142D01*
X34972380Y-17343380D01*
X34924761Y-17486238D01*
X34829523Y-17581476D01*
X34734285Y-17629095D01*
X34543809Y-17676714D01*
X34400952Y-17676714D01*
X34210476Y-17629095D01*
X34115238Y-17581476D01*
X34020000Y-17486238D01*
X33972380Y-17343380D01*
X33972380Y-17248142D01*
X34020000Y-17105285D01*
X34067619Y-17057666D01*
X33972380Y-16152904D02*
X33972380Y-16629095D01*
X34448571Y-16676714D01*
X34400952Y-16629095D01*
X34353333Y-16533857D01*
X34353333Y-16295761D01*
X34400952Y-16200523D01*
X34448571Y-16152904D01*
X34543809Y-16105285D01*
X34781904Y-16105285D01*
X34877142Y-16152904D01*
X34924761Y-16200523D01*
X34972380Y-16295761D01*
X34972380Y-16533857D01*
X34924761Y-16629095D01*
X34877142Y-16676714D01*
G04 #@! TO.C,J1*
X31426666Y-38314380D02*
X31426666Y-39028666D01*
X31379047Y-39171523D01*
X31283809Y-39266761D01*
X31140952Y-39314380D01*
X31045714Y-39314380D01*
X32426666Y-39314380D02*
X31855238Y-39314380D01*
X32140952Y-39314380D02*
X32140952Y-38314380D01*
X32045714Y-38457238D01*
X31950476Y-38552476D01*
X31855238Y-38600095D01*
G04 #@! TO.C,J2*
X11741666Y-38314380D02*
X11741666Y-39028666D01*
X11694047Y-39171523D01*
X11598809Y-39266761D01*
X11455952Y-39314380D01*
X11360714Y-39314380D01*
X12170238Y-38409619D02*
X12217857Y-38362000D01*
X12313095Y-38314380D01*
X12551190Y-38314380D01*
X12646428Y-38362000D01*
X12694047Y-38409619D01*
X12741666Y-38504857D01*
X12741666Y-38600095D01*
X12694047Y-38742952D01*
X12122619Y-39314380D01*
X12741666Y-39314380D01*
G04 #@! TO.C,P6*
X14882904Y-22423380D02*
X14882904Y-21423380D01*
X15263857Y-21423380D01*
X15359095Y-21471000D01*
X15406714Y-21518619D01*
X15454333Y-21613857D01*
X15454333Y-21756714D01*
X15406714Y-21851952D01*
X15359095Y-21899571D01*
X15263857Y-21947190D01*
X14882904Y-21947190D01*
X16311476Y-21423380D02*
X16121000Y-21423380D01*
X16025761Y-21471000D01*
X15978142Y-21518619D01*
X15882904Y-21661476D01*
X15835285Y-21851952D01*
X15835285Y-22232904D01*
X15882904Y-22328142D01*
X15930523Y-22375761D01*
X16025761Y-22423380D01*
X16216238Y-22423380D01*
X16311476Y-22375761D01*
X16359095Y-22328142D01*
X16406714Y-22232904D01*
X16406714Y-21994809D01*
X16359095Y-21899571D01*
X16311476Y-21851952D01*
X16216238Y-21804333D01*
X16025761Y-21804333D01*
X15930523Y-21851952D01*
X15882904Y-21899571D01*
X15835285Y-21994809D01*
G04 #@! TO.C,R1*
X22243380Y-34329666D02*
X21767190Y-34663000D01*
X22243380Y-34901095D02*
X21243380Y-34901095D01*
X21243380Y-34520142D01*
X21291000Y-34424904D01*
X21338619Y-34377285D01*
X21433857Y-34329666D01*
X21576714Y-34329666D01*
X21671952Y-34377285D01*
X21719571Y-34424904D01*
X21767190Y-34520142D01*
X21767190Y-34901095D01*
X22243380Y-33377285D02*
X22243380Y-33948714D01*
X22243380Y-33663000D02*
X21243380Y-33663000D01*
X21386238Y-33758238D01*
X21481476Y-33853476D01*
X21529095Y-33948714D01*
G04 #@! TO.C,U2*
X24765095Y-25448380D02*
X24765095Y-26257904D01*
X24812714Y-26353142D01*
X24860333Y-26400761D01*
X24955571Y-26448380D01*
X25146047Y-26448380D01*
X25241285Y-26400761D01*
X25288904Y-26353142D01*
X25336523Y-26257904D01*
X25336523Y-25448380D01*
X25765095Y-25543619D02*
X25812714Y-25496000D01*
X25907952Y-25448380D01*
X26146047Y-25448380D01*
X26241285Y-25496000D01*
X26288904Y-25543619D01*
X26336523Y-25638857D01*
X26336523Y-25734095D01*
X26288904Y-25876952D01*
X25717476Y-26448380D01*
X26336523Y-26448380D01*
G04 #@! TO.C,U1*
X6858095Y-31892380D02*
X6858095Y-32701904D01*
X6905714Y-32797142D01*
X6953333Y-32844761D01*
X7048571Y-32892380D01*
X7239047Y-32892380D01*
X7334285Y-32844761D01*
X7381904Y-32797142D01*
X7429523Y-32701904D01*
X7429523Y-31892380D01*
X8429523Y-32892380D02*
X7858095Y-32892380D01*
X8143809Y-32892380D02*
X8143809Y-31892380D01*
X8048571Y-32035238D01*
X7953333Y-32130476D01*
X7858095Y-32178095D01*
G04 #@! TO.C,C1*
X22483142Y-30265666D02*
X22530761Y-30313285D01*
X22578380Y-30456142D01*
X22578380Y-30551380D01*
X22530761Y-30694238D01*
X22435523Y-30789476D01*
X22340285Y-30837095D01*
X22149809Y-30884714D01*
X22006952Y-30884714D01*
X21816476Y-30837095D01*
X21721238Y-30789476D01*
X21626000Y-30694238D01*
X21578380Y-30551380D01*
X21578380Y-30456142D01*
X21626000Y-30313285D01*
X21673619Y-30265666D01*
X22578380Y-29313285D02*
X22578380Y-29884714D01*
X22578380Y-29599000D02*
X21578380Y-29599000D01*
X21721238Y-29694238D01*
X21816476Y-29789476D01*
X21864095Y-29884714D01*
G04 #@! TO.C,P1*
X39266904Y-17045380D02*
X39266904Y-16045380D01*
X39647857Y-16045380D01*
X39743095Y-16093000D01*
X39790714Y-16140619D01*
X39838333Y-16235857D01*
X39838333Y-16378714D01*
X39790714Y-16473952D01*
X39743095Y-16521571D01*
X39647857Y-16569190D01*
X39266904Y-16569190D01*
X40790714Y-17045380D02*
X40219285Y-17045380D01*
X40505000Y-17045380D02*
X40505000Y-16045380D01*
X40409761Y-16188238D01*
X40314523Y-16283476D01*
X40219285Y-16331095D01*
G04 #@! TD*
M02*
