G04 #@! TF.GenerationSoftware,KiCad,Pcbnew,(5.0.1)-3*
G04 #@! TF.CreationDate,2018-11-04T16:08:14+11:00*
G04 #@! TF.ProjectId,15_Channel_SSR_Driver,31355F4368616E6E656C5F5353525F44,1.1*
G04 #@! TF.SameCoordinates,PX7c25018PY69db1f0*
G04 #@! TF.FileFunction,Copper,L1,Top,Signal*
G04 #@! TF.FilePolarity,Positive*
%FSLAX46Y46*%
G04 Gerber Fmt 4.6, Leading zero omitted, Abs format (unit mm)*
G04 Created by KiCad (PCBNEW (5.0.1)-3) date 4/11/2018 4:08:14 PM*
%MOMM*%
%LPD*%
G01*
G04 APERTURE LIST*
G04 #@! TA.AperFunction,SMDPad,CuDef*
%ADD10R,1.380000X1.250000*%
G04 #@! TD*
G04 #@! TA.AperFunction,SMDPad,CuDef*
%ADD11R,0.350000X0.800000*%
G04 #@! TD*
G04 #@! TA.AperFunction,SMDPad,CuDef*
%ADD12R,0.406400X1.219200*%
G04 #@! TD*
G04 #@! TA.AperFunction,SMDPad,CuDef*
%ADD13R,1.000000X3.150000*%
G04 #@! TD*
G04 #@! TA.AperFunction,SMDPad,CuDef*
%ADD14R,0.800000X0.750000*%
G04 #@! TD*
G04 #@! TA.AperFunction,SMDPad,CuDef*
%ADD15R,0.750000X0.800000*%
G04 #@! TD*
G04 #@! TA.AperFunction,SMDPad,CuDef*
%ADD16R,1.500000X4.000000*%
G04 #@! TD*
G04 #@! TA.AperFunction,ComponentPad*
%ADD17C,0.900000*%
G04 #@! TD*
G04 #@! TA.AperFunction,SMDPad,CuDef*
%ADD18R,0.600000X2.100000*%
G04 #@! TD*
G04 #@! TA.AperFunction,ComponentPad*
%ADD19R,1.700000X1.700000*%
G04 #@! TD*
G04 #@! TA.AperFunction,ComponentPad*
%ADD20O,1.700000X1.700000*%
G04 #@! TD*
G04 #@! TA.AperFunction,SMDPad,CuDef*
%ADD21R,0.900000X0.500000*%
G04 #@! TD*
G04 #@! TA.AperFunction,SMDPad,CuDef*
%ADD22R,1.000000X0.250000*%
G04 #@! TD*
G04 #@! TA.AperFunction,SMDPad,CuDef*
%ADD23R,0.250000X1.000000*%
G04 #@! TD*
G04 #@! TA.AperFunction,SMDPad,CuDef*
%ADD24R,2.200000X1.200000*%
G04 #@! TD*
G04 #@! TA.AperFunction,SMDPad,CuDef*
%ADD25R,6.400000X5.800000*%
G04 #@! TD*
G04 #@! TA.AperFunction,SMDPad,CuDef*
%ADD26R,3.050000X2.750000*%
G04 #@! TD*
G04 #@! TA.AperFunction,SMDPad,CuDef*
%ADD27R,1.600000X1.000000*%
G04 #@! TD*
G04 #@! TA.AperFunction,SMDPad,CuDef*
%ADD28R,3.000000X1.000000*%
G04 #@! TD*
G04 #@! TA.AperFunction,ViaPad*
%ADD29C,0.600000*%
G04 #@! TD*
G04 #@! TA.AperFunction,Conductor*
%ADD30C,0.600000*%
G04 #@! TD*
G04 #@! TA.AperFunction,Conductor*
%ADD31C,0.500000*%
G04 #@! TD*
G04 #@! TA.AperFunction,Conductor*
%ADD32C,0.250000*%
G04 #@! TD*
G04 #@! TA.AperFunction,Conductor*
%ADD33C,0.249800*%
G04 #@! TD*
G04 #@! TA.AperFunction,Conductor*
%ADD34C,0.800000*%
G04 #@! TD*
G04 #@! TA.AperFunction,Conductor*
%ADD35C,0.254000*%
G04 #@! TD*
G04 APERTURE END LIST*
D10*
G04 #@! TO.P,JP3,1*
G04 #@! TO.N,Net-(JP3-Pad1)*
X4541000Y-18796000D03*
G04 #@! TO.P,JP3,2*
G04 #@! TO.N,GND*
X2921000Y-18796000D03*
G04 #@! TD*
G04 #@! TO.P,JP2,2*
G04 #@! TO.N,GND*
X2921000Y-16510000D03*
G04 #@! TO.P,JP2,1*
G04 #@! TO.N,Net-(JP2-Pad1)*
X4541000Y-16510000D03*
G04 #@! TD*
G04 #@! TO.P,JP1,1*
G04 #@! TO.N,Net-(JP1-Pad1)*
X4541000Y-14224000D03*
G04 #@! TO.P,JP1,2*
G04 #@! TO.N,GND*
X2921000Y-14224000D03*
G04 #@! TD*
D11*
G04 #@! TO.P,D1,1*
G04 #@! TO.N,+5V*
X2809000Y-33340000D03*
G04 #@! TO.P,D1,2*
G04 #@! TO.N,GND*
X2159000Y-33340000D03*
G04 #@! TO.P,D1,3*
G04 #@! TO.N,+5V*
X1509000Y-33340000D03*
G04 #@! TO.P,D1,4*
X1509000Y-35240000D03*
G04 #@! TO.P,D1,5*
X2159000Y-35240000D03*
G04 #@! TO.P,D1,6*
X2809000Y-35240000D03*
G04 #@! TD*
D12*
G04 #@! TO.P,ZD1,1*
G04 #@! TO.N,/1W-DATA*
X18288000Y-27228800D03*
G04 #@! TO.P,ZD1,2*
G04 #@! TO.N,GND*
X17018000Y-27228800D03*
G04 #@! TO.P,ZD1,3*
G04 #@! TO.N,N/C*
X15748000Y-27228800D03*
G04 #@! TO.P,ZD1,4*
X15748000Y-30429200D03*
G04 #@! TO.P,ZD1,5*
G04 #@! TO.N,Net-(J1-Pad1)*
X17018000Y-30429200D03*
G04 #@! TO.P,ZD1,6*
G04 #@! TO.N,Net-(J1-Pad4)*
X18288000Y-30429200D03*
G04 #@! TD*
D13*
G04 #@! TO.P,J3,30*
G04 #@! TO.N,GND*
X40513000Y-2301000D03*
G04 #@! TO.P,J3,29*
G04 #@! TO.N,/CH14*
X40513000Y-7351000D03*
G04 #@! TO.P,J3,28*
G04 #@! TO.N,GND*
X37973000Y-2301000D03*
G04 #@! TO.P,J3,27*
G04 #@! TO.N,/CH13*
X37973000Y-7351000D03*
G04 #@! TO.P,J3,26*
G04 #@! TO.N,GND*
X35433000Y-2301000D03*
G04 #@! TO.P,J3,25*
G04 #@! TO.N,/CH12*
X35433000Y-7351000D03*
G04 #@! TO.P,J3,24*
G04 #@! TO.N,GND*
X32893000Y-2301000D03*
G04 #@! TO.P,J3,23*
G04 #@! TO.N,/CH11*
X32893000Y-7351000D03*
G04 #@! TO.P,J3,22*
G04 #@! TO.N,GND*
X30353000Y-2301000D03*
G04 #@! TO.P,J3,21*
G04 #@! TO.N,/CH10*
X30353000Y-7351000D03*
G04 #@! TO.P,J3,20*
G04 #@! TO.N,GND*
X27813000Y-2301000D03*
G04 #@! TO.P,J3,19*
G04 #@! TO.N,/CH9*
X27813000Y-7351000D03*
G04 #@! TO.P,J3,18*
G04 #@! TO.N,GND*
X25273000Y-2301000D03*
G04 #@! TO.P,J3,17*
G04 #@! TO.N,/CH8*
X25273000Y-7351000D03*
G04 #@! TO.P,J3,16*
G04 #@! TO.N,GND*
X22733000Y-2301000D03*
G04 #@! TO.P,J3,15*
G04 #@! TO.N,/CH7*
X22733000Y-7351000D03*
G04 #@! TO.P,J3,14*
G04 #@! TO.N,GND*
X20193000Y-2301000D03*
G04 #@! TO.P,J3,13*
G04 #@! TO.N,/CH6*
X20193000Y-7351000D03*
G04 #@! TO.P,J3,12*
G04 #@! TO.N,GND*
X17653000Y-2301000D03*
G04 #@! TO.P,J3,11*
G04 #@! TO.N,/CH5*
X17653000Y-7351000D03*
G04 #@! TO.P,J3,10*
G04 #@! TO.N,GND*
X15113000Y-2301000D03*
G04 #@! TO.P,J3,9*
G04 #@! TO.N,/CH4*
X15113000Y-7351000D03*
G04 #@! TO.P,J3,8*
G04 #@! TO.N,GND*
X12573000Y-2301000D03*
G04 #@! TO.P,J3,7*
G04 #@! TO.N,/CH3*
X12573000Y-7351000D03*
G04 #@! TO.P,J3,6*
G04 #@! TO.N,GND*
X10033000Y-2301000D03*
G04 #@! TO.P,J3,5*
G04 #@! TO.N,/CH2*
X10033000Y-7351000D03*
G04 #@! TO.P,J3,4*
G04 #@! TO.N,GND*
X7493000Y-2301000D03*
G04 #@! TO.P,J3,3*
G04 #@! TO.N,/CH1*
X7493000Y-7351000D03*
G04 #@! TO.P,J3,2*
G04 #@! TO.N,GND*
X4953000Y-2301000D03*
G04 #@! TO.P,J3,1*
G04 #@! TO.N,/CH0*
X4953000Y-7351000D03*
G04 #@! TD*
D14*
G04 #@! TO.P,C2,1*
G04 #@! TO.N,+3V3*
X29325000Y-30734000D03*
G04 #@! TO.P,C2,2*
G04 #@! TO.N,GND*
X27825000Y-30734000D03*
G04 #@! TD*
G04 #@! TO.P,C3,1*
G04 #@! TO.N,+3V3*
X20332000Y-10795000D03*
G04 #@! TO.P,C3,2*
G04 #@! TO.N,GND*
X21832000Y-10795000D03*
G04 #@! TD*
G04 #@! TO.P,C4,1*
G04 #@! TO.N,+3V3*
X29579000Y-27432000D03*
G04 #@! TO.P,C4,2*
G04 #@! TO.N,GND*
X28079000Y-27432000D03*
G04 #@! TD*
D15*
G04 #@! TO.P,C5,1*
G04 #@! TO.N,+3V3*
X33020000Y-16141000D03*
G04 #@! TO.P,C5,2*
G04 #@! TO.N,GND*
X33020000Y-17641000D03*
G04 #@! TD*
D16*
G04 #@! TO.P,J1,9*
G04 #@! TO.N,Net-(J1-Pad1)*
X23370000Y-41282000D03*
D17*
X23370000Y-41282000D03*
D18*
G04 #@! TO.P,J1,8*
X35570000Y-34302000D03*
G04 #@! TO.P,J1,7*
G04 #@! TO.N,Net-(J1-Pad7)*
X34550000Y-34302000D03*
G04 #@! TO.P,J1,6*
G04 #@! TO.N,Net-(J1-Pad6)*
X33530000Y-34302000D03*
G04 #@! TO.P,J1,5*
G04 #@! TO.N,Net-(J1-Pad1)*
X32510000Y-34302000D03*
G04 #@! TO.P,J1,4*
G04 #@! TO.N,Net-(J1-Pad4)*
X31490000Y-34302000D03*
G04 #@! TO.P,J1,3*
G04 #@! TO.N,Net-(J1-Pad1)*
X30470000Y-34302000D03*
G04 #@! TO.P,J1,2*
G04 #@! TO.N,+5V*
X29450000Y-34302000D03*
G04 #@! TO.P,J1,1*
G04 #@! TO.N,Net-(J1-Pad1)*
X28430000Y-34302000D03*
D17*
G04 #@! TO.P,J1,9*
X40470000Y-41282000D03*
D16*
X40470000Y-41282000D03*
G04 #@! TD*
G04 #@! TO.P,J2,9*
G04 #@! TO.N,Net-(J1-Pad1)*
X3685000Y-41282000D03*
D17*
X3685000Y-41282000D03*
D18*
G04 #@! TO.P,J2,8*
X15885000Y-34302000D03*
G04 #@! TO.P,J2,7*
G04 #@! TO.N,Net-(J1-Pad7)*
X14865000Y-34302000D03*
G04 #@! TO.P,J2,6*
G04 #@! TO.N,Net-(J1-Pad6)*
X13845000Y-34302000D03*
G04 #@! TO.P,J2,5*
G04 #@! TO.N,Net-(J1-Pad1)*
X12825000Y-34302000D03*
G04 #@! TO.P,J2,4*
G04 #@! TO.N,Net-(J1-Pad4)*
X11805000Y-34302000D03*
G04 #@! TO.P,J2,3*
G04 #@! TO.N,Net-(J1-Pad1)*
X10785000Y-34302000D03*
G04 #@! TO.P,J2,2*
G04 #@! TO.N,+5V*
X9765000Y-34302000D03*
G04 #@! TO.P,J2,1*
G04 #@! TO.N,Net-(J1-Pad1)*
X8745000Y-34302000D03*
D17*
G04 #@! TO.P,J2,9*
X20785000Y-41282000D03*
D16*
X20785000Y-41282000D03*
G04 #@! TD*
D19*
G04 #@! TO.P,P6,1*
G04 #@! TO.N,/1W-DATA*
X2413000Y-21971000D03*
D20*
G04 #@! TO.P,P6,2*
G04 #@! TO.N,+3V3*
X4953000Y-21971000D03*
G04 #@! TO.P,P6,3*
G04 #@! TO.N,/UART_TX*
X7493000Y-21971000D03*
G04 #@! TO.P,P6,4*
G04 #@! TO.N,/UART_RX*
X10033000Y-21971000D03*
G04 #@! TO.P,P6,5*
G04 #@! TO.N,GND*
X12573000Y-21971000D03*
G04 #@! TD*
D21*
G04 #@! TO.P,R1,1*
G04 #@! TO.N,+5V*
X23241000Y-34913000D03*
G04 #@! TO.P,R1,2*
G04 #@! TO.N,Net-(C1-Pad1)*
X23241000Y-33413000D03*
G04 #@! TD*
D22*
G04 #@! TO.P,U2,1*
G04 #@! TO.N,+3V3*
X31227000Y-22546000D03*
G04 #@! TO.P,U2,2*
G04 #@! TO.N,Net-(U2-Pad2)*
X31227000Y-22046000D03*
G04 #@! TO.P,U2,3*
G04 #@! TO.N,Net-(U2-Pad3)*
X31227000Y-21546000D03*
G04 #@! TO.P,U2,4*
G04 #@! TO.N,Net-(U2-Pad4)*
X31227000Y-21046000D03*
G04 #@! TO.P,U2,5*
G04 #@! TO.N,/1W-DATA*
X31227000Y-20546000D03*
G04 #@! TO.P,U2,6*
G04 #@! TO.N,Net-(U2-Pad6)*
X31227000Y-20046000D03*
G04 #@! TO.P,U2,7*
G04 #@! TO.N,Net-(P1-Pad10)*
X31227000Y-19546000D03*
G04 #@! TO.P,U2,8*
G04 #@! TO.N,Net-(U2-Pad8)*
X31227000Y-19046000D03*
G04 #@! TO.P,U2,9*
G04 #@! TO.N,Net-(U2-Pad9)*
X31227000Y-18546000D03*
G04 #@! TO.P,U2,10*
G04 #@! TO.N,Net-(U2-Pad10)*
X31227000Y-18046000D03*
G04 #@! TO.P,U2,11*
G04 #@! TO.N,Net-(U2-Pad11)*
X31227000Y-17546000D03*
G04 #@! TO.P,U2,12*
G04 #@! TO.N,GND*
X31227000Y-17046000D03*
G04 #@! TO.P,U2,13*
G04 #@! TO.N,+3V3*
X31227000Y-16546000D03*
G04 #@! TO.P,U2,14*
G04 #@! TO.N,Net-(U2-Pad14)*
X31227000Y-16046000D03*
G04 #@! TO.P,U2,15*
G04 #@! TO.N,Net-(U2-Pad15)*
X31227000Y-15546000D03*
G04 #@! TO.P,U2,16*
G04 #@! TO.N,/UART_TX*
X31227000Y-15046000D03*
D23*
G04 #@! TO.P,U2,17*
G04 #@! TO.N,/UART_RX*
X29277000Y-13096000D03*
G04 #@! TO.P,U2,18*
G04 #@! TO.N,Net-(U2-Pad18)*
X28777000Y-13096000D03*
G04 #@! TO.P,U2,19*
G04 #@! TO.N,Net-(U2-Pad19)*
X28277000Y-13096000D03*
G04 #@! TO.P,U2,20*
G04 #@! TO.N,Net-(U2-Pad20)*
X27777000Y-13096000D03*
G04 #@! TO.P,U2,21*
G04 #@! TO.N,Net-(U2-Pad21)*
X27277000Y-13096000D03*
G04 #@! TO.P,U2,22*
G04 #@! TO.N,Net-(U2-Pad22)*
X26777000Y-13096000D03*
G04 #@! TO.P,U2,23*
G04 #@! TO.N,/CH14*
X26277000Y-13096000D03*
G04 #@! TO.P,U2,24*
G04 #@! TO.N,/CH13*
X25777000Y-13096000D03*
G04 #@! TO.P,U2,25*
G04 #@! TO.N,/CH12*
X25277000Y-13096000D03*
G04 #@! TO.P,U2,26*
G04 #@! TO.N,/CH11*
X24777000Y-13096000D03*
G04 #@! TO.P,U2,27*
G04 #@! TO.N,/CH10*
X24277000Y-13096000D03*
G04 #@! TO.P,U2,28*
G04 #@! TO.N,/CH9*
X23777000Y-13096000D03*
G04 #@! TO.P,U2,29*
G04 #@! TO.N,Net-(U2-Pad29)*
X23277000Y-13096000D03*
G04 #@! TO.P,U2,30*
G04 #@! TO.N,/CH8*
X22777000Y-13096000D03*
G04 #@! TO.P,U2,31*
G04 #@! TO.N,GND*
X22277000Y-13096000D03*
G04 #@! TO.P,U2,32*
G04 #@! TO.N,+3V3*
X21777000Y-13096000D03*
D22*
G04 #@! TO.P,U2,33*
G04 #@! TO.N,/CH7*
X19827000Y-15046000D03*
G04 #@! TO.P,U2,34*
G04 #@! TO.N,/CH6*
X19827000Y-15546000D03*
G04 #@! TO.P,U2,35*
G04 #@! TO.N,/CH5*
X19827000Y-16046000D03*
G04 #@! TO.P,U2,36*
G04 #@! TO.N,/CH4*
X19827000Y-16546000D03*
G04 #@! TO.P,U2,37*
G04 #@! TO.N,/CH3*
X19827000Y-17046000D03*
G04 #@! TO.P,U2,38*
G04 #@! TO.N,/CH2*
X19827000Y-17546000D03*
G04 #@! TO.P,U2,39*
G04 #@! TO.N,/CH1*
X19827000Y-18046000D03*
G04 #@! TO.P,U2,40*
G04 #@! TO.N,/CH0*
X19827000Y-18546000D03*
G04 #@! TO.P,U2,41*
G04 #@! TO.N,Net-(JP1-Pad1)*
X19827000Y-19046000D03*
G04 #@! TO.P,U2,42*
G04 #@! TO.N,Net-(JP2-Pad1)*
X19827000Y-19546000D03*
G04 #@! TO.P,U2,43*
G04 #@! TO.N,Net-(JP3-Pad1)*
X19827000Y-20046000D03*
G04 #@! TO.P,U2,44*
G04 #@! TO.N,Net-(U2-Pad44)*
X19827000Y-20546000D03*
G04 #@! TO.P,U2,45*
G04 #@! TO.N,Net-(U2-Pad45)*
X19827000Y-21046000D03*
G04 #@! TO.P,U2,46*
G04 #@! TO.N,/SWDAT*
X19827000Y-21546000D03*
G04 #@! TO.P,U2,47*
G04 #@! TO.N,Net-(U2-Pad47)*
X19827000Y-22046000D03*
G04 #@! TO.P,U2,48*
G04 #@! TO.N,Net-(U2-Pad48)*
X19827000Y-22546000D03*
D23*
G04 #@! TO.P,U2,49*
G04 #@! TO.N,/SWCLK*
X21777000Y-24496000D03*
G04 #@! TO.P,U2,50*
G04 #@! TO.N,Net-(U2-Pad50)*
X22277000Y-24496000D03*
G04 #@! TO.P,U2,51*
G04 #@! TO.N,Net-(U2-Pad51)*
X22777000Y-24496000D03*
G04 #@! TO.P,U2,52*
G04 #@! TO.N,Net-(U2-Pad52)*
X23277000Y-24496000D03*
G04 #@! TO.P,U2,53*
G04 #@! TO.N,Net-(U2-Pad53)*
X23777000Y-24496000D03*
G04 #@! TO.P,U2,54*
G04 #@! TO.N,N/C*
X24277000Y-24496000D03*
G04 #@! TO.P,U2,55*
G04 #@! TO.N,Net-(U2-Pad55)*
X24777000Y-24496000D03*
G04 #@! TO.P,U2,56*
G04 #@! TO.N,Net-(U2-Pad56)*
X25277000Y-24496000D03*
G04 #@! TO.P,U2,57*
G04 #@! TO.N,Net-(U2-Pad57)*
X25777000Y-24496000D03*
G04 #@! TO.P,U2,58*
G04 #@! TO.N,Net-(U2-Pad58)*
X26277000Y-24496000D03*
G04 #@! TO.P,U2,59*
G04 #@! TO.N,Net-(U2-Pad59)*
X26777000Y-24496000D03*
G04 #@! TO.P,U2,60*
G04 #@! TO.N,GND*
X27277000Y-24496000D03*
G04 #@! TO.P,U2,61*
G04 #@! TO.N,Net-(U2-Pad61)*
X27777000Y-24496000D03*
G04 #@! TO.P,U2,62*
G04 #@! TO.N,Net-(U2-Pad62)*
X28277000Y-24496000D03*
G04 #@! TO.P,U2,63*
G04 #@! TO.N,GND*
X28777000Y-24496000D03*
G04 #@! TO.P,U2,64*
G04 #@! TO.N,+3V3*
X29277000Y-24496000D03*
G04 #@! TD*
D24*
G04 #@! TO.P,U1,1*
G04 #@! TO.N,Net-(C1-Pad1)*
X11820000Y-30220000D03*
G04 #@! TO.P,U1,3*
G04 #@! TO.N,+3V3*
X11820000Y-25660000D03*
D25*
G04 #@! TO.P,U1,2*
G04 #@! TO.N,GND*
X5520000Y-27940000D03*
D26*
X3845000Y-26415000D03*
X7195000Y-29465000D03*
X3845000Y-29465000D03*
X7195000Y-26415000D03*
G04 #@! TD*
D27*
G04 #@! TO.P,C1,1*
G04 #@! TO.N,Net-(C1-Pad1)*
X23876000Y-31599000D03*
G04 #@! TO.P,C1,2*
G04 #@! TO.N,GND*
X23876000Y-28599000D03*
G04 #@! TD*
D28*
G04 #@! TO.P,P1,1*
G04 #@! TO.N,+3V3*
X37235000Y-18923000D03*
G04 #@! TO.P,P1,2*
G04 #@! TO.N,/SWDAT*
X42775000Y-18923000D03*
G04 #@! TO.P,P1,3*
G04 #@! TO.N,GND*
X37235000Y-21463000D03*
G04 #@! TO.P,P1,4*
G04 #@! TO.N,/SWCLK*
X42775000Y-21463000D03*
G04 #@! TO.P,P1,5*
G04 #@! TO.N,GND*
X37235000Y-24003000D03*
G04 #@! TO.P,P1,6*
G04 #@! TO.N,Net-(P1-Pad6)*
X42775000Y-24003000D03*
G04 #@! TO.P,P1,7*
G04 #@! TO.N,Net-(P1-Pad7)*
X37235000Y-26543000D03*
G04 #@! TO.P,P1,8*
G04 #@! TO.N,Net-(P1-Pad8)*
X42775000Y-26543000D03*
G04 #@! TO.P,P1,9*
G04 #@! TO.N,GND*
X37235000Y-29083000D03*
G04 #@! TO.P,P1,10*
G04 #@! TO.N,Net-(P1-Pad10)*
X42775000Y-29083000D03*
G04 #@! TD*
D29*
G04 #@! TO.N,+5V*
X10909800Y-31749800D03*
X22004700Y-35036800D03*
G04 #@! TO.N,GND*
X26162000Y-27305000D03*
X17145000Y-25527000D03*
X39624000Y-20701000D03*
X34163000Y-19050000D03*
X33401000Y-30480000D03*
X33147000Y-28575000D03*
X33274000Y-26670000D03*
X33528000Y-24511000D03*
X34036000Y-22860000D03*
G04 #@! TO.N,+3V3*
X34316000Y-15278000D03*
X19937000Y-11955000D03*
G04 #@! TO.N,Net-(J1-Pad7)*
X26289000Y-32204900D03*
X14859000Y-32537200D03*
G04 #@! TO.N,Net-(J1-Pad6)*
X32449600Y-32703800D03*
X13843000Y-32512000D03*
G04 #@! TO.N,/1W-DATA*
X29821000Y-19769600D03*
X19514500Y-23259900D03*
G04 #@! TO.N,/UART_TX*
X32295000Y-15231000D03*
G04 #@! TO.N,/UART_RX*
X26845000Y-15599000D03*
G04 #@! TO.N,Net-(P1-Pad10)*
X32891000Y-19999000D03*
X41765000Y-27946000D03*
G04 #@! TO.N,/CH13*
X37883800Y-10173600D03*
X26982100Y-14274000D03*
G04 #@! TD*
D30*
G04 #@! TO.N,+5V*
X23241000Y-35006700D02*
X24245000Y-36010700D01*
X24245000Y-36010700D02*
X29291600Y-36010700D01*
X29291600Y-36010700D02*
X29450000Y-35852300D01*
X29450000Y-34302000D02*
X29450000Y-35852300D01*
X23241000Y-35006700D02*
X23210900Y-35036800D01*
X23210900Y-35036800D02*
X22004700Y-35036800D01*
X9765000Y-34302000D02*
X9765000Y-32751700D01*
X10909800Y-31749800D02*
X9907900Y-32751700D01*
X9907900Y-32751700D02*
X9765000Y-32751700D01*
X23241000Y-34913000D02*
X23241000Y-35006700D01*
D31*
X4072300Y-32751700D02*
X9765000Y-32751700D01*
X3484000Y-33340000D02*
X4072300Y-32751700D01*
X2809000Y-33340000D02*
X3484000Y-33340000D01*
X2809000Y-33340000D02*
X2809000Y-35240000D01*
X2809000Y-35240000D02*
X2159000Y-35240000D01*
X2159000Y-35240000D02*
X1509000Y-35240000D01*
X1509000Y-35240000D02*
X1509000Y-33340000D01*
D32*
G04 #@! TO.N,GND*
X3845000Y-27940000D02*
X3845000Y-26415000D01*
X3845000Y-29465000D02*
X3845000Y-27940000D01*
X27001000Y-29210000D02*
X26390000Y-28599000D01*
X26390000Y-28599000D02*
X23876000Y-28599000D01*
X12573000Y-21971000D02*
X11398000Y-21971000D01*
X11398000Y-21971000D02*
X11398000Y-21604000D01*
X11398000Y-21604000D02*
X10387000Y-20593000D01*
X10387000Y-20593000D02*
X4202000Y-20593000D01*
X4202000Y-20593000D02*
X3717000Y-21078000D01*
X3717000Y-21078000D02*
X3717000Y-24586000D01*
X3717000Y-24586000D02*
X3845000Y-24715000D01*
X3845000Y-24715000D02*
X3845000Y-26415000D01*
X37235000Y-29083000D02*
X35522000Y-29083000D01*
X35522000Y-29083000D02*
X35410000Y-28970000D01*
X35410000Y-28970000D02*
X35410000Y-24916000D01*
X35410000Y-24916000D02*
X36322000Y-24003000D01*
X36322000Y-24003000D02*
X35410000Y-23090000D01*
X35410000Y-23090000D02*
X35410000Y-21463000D01*
X35410000Y-21463000D02*
X37235000Y-21463000D01*
X37235000Y-24003000D02*
X36322000Y-24003000D01*
X28777000Y-23671000D02*
X28777000Y-24496000D01*
X31227000Y-17046000D02*
X30402000Y-17046000D01*
X30402000Y-17046000D02*
X28777000Y-18671000D01*
X28777000Y-18671000D02*
X28777000Y-23671000D01*
X28777000Y-23671000D02*
X27277000Y-23671000D01*
X27277000Y-23671000D02*
X27277000Y-24496000D01*
X31227000Y-17046000D02*
X32425000Y-17046000D01*
X32425000Y-17046000D02*
X33020000Y-17641000D01*
X28079000Y-27432000D02*
X28079000Y-28132000D01*
X28079000Y-28132000D02*
X27001000Y-29210000D01*
X7195000Y-27940000D02*
X7195000Y-29465000D01*
X3845000Y-27940000D02*
X5520000Y-27940000D01*
X7195000Y-26415000D02*
X7195000Y-27940000D01*
X7195000Y-27940000D02*
X5520000Y-27940000D01*
X27825000Y-30734000D02*
X27825000Y-30034000D01*
X27825000Y-30034000D02*
X27001000Y-29210000D01*
X28777000Y-24496000D02*
X28777000Y-26734000D01*
X28777000Y-26734000D02*
X28079000Y-27432000D01*
X22277000Y-11240000D02*
X21832000Y-10795000D01*
X22277000Y-13096000D02*
X22277000Y-11240000D01*
X28079000Y-27432000D02*
X26289000Y-27432000D01*
X26289000Y-27432000D02*
X26162000Y-27305000D01*
X17145000Y-27101800D02*
X17018000Y-27228800D01*
X17145000Y-25527000D02*
X17145000Y-27101800D01*
X38997000Y-20701000D02*
X39624000Y-20701000D01*
X37235000Y-21463000D02*
X38235000Y-21463000D01*
X38235000Y-21463000D02*
X38997000Y-20701000D01*
X34163000Y-18784000D02*
X33020000Y-17641000D01*
X34163000Y-19050000D02*
X34163000Y-18784000D01*
X37235000Y-29083000D02*
X34798000Y-29083000D01*
X34798000Y-29083000D02*
X33401000Y-30480000D01*
X33147000Y-28575000D02*
X33147000Y-26797000D01*
X33147000Y-26797000D02*
X33274000Y-26670000D01*
X33827999Y-24211001D02*
X33827999Y-23068001D01*
X33528000Y-24511000D02*
X33827999Y-24211001D01*
X33827999Y-23068001D02*
X34036000Y-22860000D01*
X5220000Y-27940000D02*
X5520000Y-27940000D01*
X2070000Y-31090000D02*
X5220000Y-27940000D01*
X2070000Y-31212000D02*
X2070000Y-31090000D01*
X2159000Y-31301000D02*
X2070000Y-31212000D01*
X2159000Y-33340000D02*
X2159000Y-31301000D01*
D30*
G04 #@! TO.N,+3V3*
X33020000Y-16141000D02*
X33895300Y-16141000D01*
X34316000Y-15278000D02*
X33895300Y-15698700D01*
X33895300Y-15698700D02*
X33895300Y-16141000D01*
X32857000Y-16304000D02*
X33208000Y-16304000D01*
X33208000Y-16304000D02*
X35235000Y-18331000D01*
X35235000Y-18331000D02*
X35235000Y-18923000D01*
X29325000Y-30734000D02*
X29325000Y-29859000D01*
X29325000Y-29859000D02*
X29428000Y-29756000D01*
X29428000Y-29756000D02*
X29428000Y-27281000D01*
D33*
X21777000Y-13096000D02*
X21777000Y-12270800D01*
X20636000Y-11955000D02*
X20951800Y-12270800D01*
X20951800Y-12270800D02*
X21777000Y-12270800D01*
D30*
X19937000Y-11955000D02*
X20636000Y-11955000D01*
D33*
X31352000Y-22671000D02*
X31227000Y-22546000D01*
D32*
X32857000Y-16304000D02*
X33020000Y-16141000D01*
X31227000Y-16546000D02*
X32615000Y-16546000D01*
X32615000Y-16546000D02*
X32857000Y-16304000D01*
D30*
X37235000Y-18923000D02*
X35235000Y-18923000D01*
D32*
X31227000Y-22546000D02*
X29277000Y-24496000D01*
X29428000Y-27281000D02*
X29579000Y-27432000D01*
X29277000Y-24496000D02*
X29277000Y-27130000D01*
X29277000Y-27130000D02*
X29428000Y-27281000D01*
D30*
X20332000Y-10795000D02*
X20332000Y-11670000D01*
X20332000Y-11670000D02*
X20221000Y-11670000D01*
X20221000Y-11670000D02*
X19937000Y-11955000D01*
X4953000Y-21971000D02*
X7196000Y-24214000D01*
X7196000Y-24214000D02*
X8773000Y-24214000D01*
X8773000Y-24214000D02*
X10220000Y-25660000D01*
X10220000Y-25660000D02*
X11820000Y-25660000D01*
X31934000Y-22671000D02*
X31352000Y-22671000D01*
X32574000Y-22671000D02*
X31934000Y-22671000D01*
X35235000Y-18923000D02*
X35235000Y-20010000D01*
X35235000Y-20010000D02*
X32574000Y-22671000D01*
D31*
G04 #@! TO.N,Net-(J1-Pad7)*
X14865000Y-32543200D02*
X14859000Y-32537200D01*
X14865000Y-34302000D02*
X14865000Y-32543200D01*
X26596110Y-31897790D02*
X26289000Y-32204900D01*
X33695790Y-31897790D02*
X26596110Y-31897790D01*
X34550000Y-32752000D02*
X33695790Y-31897790D01*
X34550000Y-34302000D02*
X34550000Y-32752000D01*
D32*
G04 #@! TO.N,Net-(J1-Pad6)*
X33530000Y-34302000D02*
X33530000Y-32926700D01*
X32449600Y-32703800D02*
X32672500Y-32926700D01*
X32672500Y-32926700D02*
X33530000Y-32926700D01*
X13843000Y-34300000D02*
X13845000Y-34302000D01*
X13843000Y-32512000D02*
X13843000Y-34300000D01*
G04 #@! TO.N,/1W-DATA*
X31227000Y-20546000D02*
X30401700Y-20546000D01*
X30401700Y-20546000D02*
X30401700Y-20350300D01*
X30401700Y-20350300D02*
X29821000Y-19769600D01*
X19514500Y-23259900D02*
X18288000Y-24486400D01*
X18288000Y-24486400D02*
X18288000Y-27228800D01*
G04 #@! TO.N,/UART_TX*
X31227000Y-15046000D02*
X32110000Y-15046000D01*
X32110000Y-15046000D02*
X32295000Y-15231000D01*
G04 #@! TO.N,/UART_RX*
X29277000Y-13096000D02*
X29277000Y-13921000D01*
X29277000Y-13921000D02*
X28522000Y-13921000D01*
X28522000Y-13921000D02*
X26845000Y-15599000D01*
D30*
G04 #@! TO.N,Net-(C1-Pad1)*
X23876000Y-31599000D02*
X23876000Y-30598700D01*
X11820000Y-30220000D02*
X13420300Y-30220000D01*
X13420300Y-30220000D02*
X14321100Y-29319200D01*
X14321100Y-29319200D02*
X21596200Y-29319200D01*
X21596200Y-29319200D02*
X22875700Y-30598700D01*
X22875700Y-30598700D02*
X23876000Y-30598700D01*
X23876000Y-31599000D02*
X23876000Y-32599300D01*
X23876000Y-32599300D02*
X23304400Y-32599300D01*
X23304400Y-32599300D02*
X23241000Y-32662700D01*
X23241000Y-33413000D02*
X23241000Y-32662700D01*
D34*
X12221000Y-30621000D02*
X11820000Y-30220000D01*
D32*
G04 #@! TO.N,Net-(P1-Pad10)*
X42775000Y-29083000D02*
X40950000Y-29083000D01*
X40950000Y-29083000D02*
X40950000Y-28361000D01*
X40950000Y-28361000D02*
X41365000Y-27946000D01*
X41365000Y-27946000D02*
X41765000Y-27946000D01*
X32891000Y-19999000D02*
X32438000Y-19546000D01*
X32438000Y-19546000D02*
X31227000Y-19546000D01*
G04 #@! TO.N,/SWDAT*
X42775000Y-18923000D02*
X40950000Y-18923000D01*
X40950000Y-18923000D02*
X36161000Y-14134000D01*
X36161000Y-14134000D02*
X30058000Y-14134000D01*
X30058000Y-14134000D02*
X22646000Y-21546000D01*
X22646000Y-21546000D02*
X19827000Y-21546000D01*
G04 #@! TO.N,/SWCLK*
X42775000Y-21463000D02*
X40950000Y-21463000D01*
X40950000Y-21463000D02*
X40950000Y-20094000D01*
X40950000Y-20094000D02*
X35451000Y-14596000D01*
X35451000Y-14596000D02*
X30590000Y-14596000D01*
X30590000Y-14596000D02*
X21777000Y-23408000D01*
X21777000Y-23408000D02*
X21777000Y-24496000D01*
G04 #@! TO.N,/CH0*
X4953000Y-7351000D02*
X4953000Y-9251300D01*
X19827000Y-18546000D02*
X14247700Y-18546000D01*
X14247700Y-18546000D02*
X4953000Y-9251300D01*
G04 #@! TO.N,/CH1*
X7493000Y-7351000D02*
X7493000Y-9251300D01*
X19827000Y-18046000D02*
X16287700Y-18046000D01*
X16287700Y-18046000D02*
X7493000Y-9251300D01*
G04 #@! TO.N,/CH2*
X10033000Y-7351000D02*
X10033000Y-9251300D01*
X19827000Y-17546000D02*
X18327700Y-17546000D01*
X18327700Y-17546000D02*
X10033000Y-9251300D01*
G04 #@! TO.N,/CH3*
X19827000Y-17046000D02*
X18837400Y-17046000D01*
X18837400Y-17046000D02*
X12573000Y-10781600D01*
X12573000Y-10781600D02*
X12573000Y-7351000D01*
G04 #@! TO.N,/CH4*
X19001700Y-16546000D02*
X15113000Y-12657300D01*
X15113000Y-12657300D02*
X15113000Y-7351000D01*
X19827000Y-16546000D02*
X19001700Y-16546000D01*
G04 #@! TO.N,/CH5*
X19827000Y-16046000D02*
X19224700Y-16046000D01*
X19224700Y-16046000D02*
X17653000Y-14474300D01*
X17653000Y-14474300D02*
X17653000Y-7351000D01*
G04 #@! TO.N,/CH6*
X19827000Y-15546000D02*
X20652300Y-15546000D01*
X20193000Y-7351000D02*
X20193000Y-9251300D01*
X20193000Y-9251300D02*
X19304300Y-10140000D01*
X19304300Y-10140000D02*
X19304300Y-12213100D01*
X19304300Y-12213100D02*
X20652300Y-13561100D01*
X20652300Y-13561100D02*
X20652300Y-15546000D01*
G04 #@! TO.N,/CH7*
X22733000Y-7351000D02*
X22733000Y-5450700D01*
X19827000Y-15046000D02*
X19001700Y-15046000D01*
X19001700Y-15046000D02*
X18846500Y-14890800D01*
X18846500Y-14890800D02*
X18846500Y-6095100D01*
X18846500Y-6095100D02*
X19490900Y-5450700D01*
X19490900Y-5450700D02*
X22733000Y-5450700D01*
G04 #@! TO.N,/CH8*
X25273000Y-7351000D02*
X25273000Y-9251300D01*
X22777000Y-13096000D02*
X22777000Y-11747300D01*
X22777000Y-11747300D02*
X25273000Y-9251300D01*
G04 #@! TO.N,/CH9*
X23777000Y-13096000D02*
X23777000Y-11387000D01*
X23777000Y-11387000D02*
X27813000Y-7351000D01*
G04 #@! TO.N,/CH10*
X30353000Y-7351000D02*
X30353000Y-9251300D01*
X24277000Y-13096000D02*
X24277000Y-11929800D01*
X24277000Y-11929800D02*
X26955500Y-9251300D01*
X26955500Y-9251300D02*
X30353000Y-9251300D01*
G04 #@! TO.N,/CH11*
X32893000Y-7351000D02*
X32893000Y-9251300D01*
X24777000Y-13096000D02*
X24777000Y-12073200D01*
X24777000Y-12073200D02*
X26110700Y-10739500D01*
X26110700Y-10739500D02*
X31404800Y-10739500D01*
X31404800Y-10739500D02*
X32893000Y-9251300D01*
G04 #@! TO.N,/CH12*
X35433000Y-7351000D02*
X35433000Y-9251300D01*
X25277000Y-13096000D02*
X25277000Y-12270700D01*
X25277000Y-12270700D02*
X26357800Y-11189900D01*
X26357800Y-11189900D02*
X33494400Y-11189900D01*
X33494400Y-11189900D02*
X35433000Y-9251300D01*
G04 #@! TO.N,/CH13*
X25777000Y-13096000D02*
X25777000Y-13921300D01*
X37883800Y-10173600D02*
X37973000Y-10084400D01*
X37973000Y-10084400D02*
X37973000Y-7351000D01*
X25777000Y-13921300D02*
X26629400Y-13921300D01*
X26629400Y-13921300D02*
X26982100Y-14274000D01*
G04 #@! TO.N,/CH14*
X40513000Y-7351000D02*
X40513000Y-9251300D01*
X26277000Y-13096000D02*
X26277000Y-12270700D01*
X26277000Y-12270700D02*
X37493600Y-12270700D01*
X37493600Y-12270700D02*
X40513000Y-9251300D01*
G04 #@! TO.N,Net-(J1-Pad1)*
X20785000Y-38956700D02*
X20785000Y-37771200D01*
X20785000Y-37771200D02*
X18831200Y-35817400D01*
X18831200Y-35817400D02*
X16025100Y-35817400D01*
X16025100Y-35817400D02*
X15885000Y-35677300D01*
X8745000Y-35677300D02*
X8446500Y-35975800D01*
X8446500Y-35975800D02*
X5651800Y-35975800D01*
X5651800Y-35975800D02*
X3685000Y-37942600D01*
X3685000Y-37942600D02*
X3685000Y-41282000D01*
X8745000Y-35634700D02*
X8745000Y-35677300D01*
X8745000Y-34302000D02*
X8745000Y-35634700D01*
X8745000Y-35677300D02*
X10785000Y-35677300D01*
X10785000Y-34302000D02*
X10785000Y-35677300D01*
X12825000Y-35677300D02*
X10785000Y-35677300D01*
X12825000Y-35634700D02*
X12825000Y-35677300D01*
X12825000Y-35677300D02*
X15885000Y-35677300D01*
X12825000Y-34302000D02*
X12825000Y-35634700D01*
X15885000Y-34302000D02*
X15885000Y-35677300D01*
X20785000Y-40119300D02*
X22207300Y-40119300D01*
X22207300Y-40119300D02*
X23370000Y-41282000D01*
X20785000Y-40119300D02*
X20785000Y-38956700D01*
X20785000Y-41282000D02*
X20785000Y-40119300D01*
X28430000Y-33272700D02*
X28776000Y-32926700D01*
X28776000Y-32926700D02*
X30470000Y-32926700D01*
X30470000Y-34302000D02*
X30470000Y-32926700D01*
X28430000Y-34302000D02*
X28430000Y-33272700D01*
X40470000Y-41282000D02*
X40470000Y-37773700D01*
X40470000Y-37773700D02*
X38884600Y-36188300D01*
X38884600Y-36188300D02*
X36081000Y-36188300D01*
X36081000Y-36188300D02*
X35570000Y-35677300D01*
X35570000Y-34302000D02*
X35570000Y-35677300D01*
X32510000Y-35677300D02*
X35570000Y-35677300D01*
X32510000Y-35564700D02*
X32510000Y-35677300D01*
X32510000Y-35677300D02*
X30470000Y-35677300D01*
X17018000Y-30429200D02*
X17018000Y-31364100D01*
X10785000Y-34302000D02*
X10785000Y-32926700D01*
X10785000Y-32926700D02*
X12347600Y-31364100D01*
X12347600Y-31364100D02*
X17018000Y-31364100D01*
X30470000Y-34302000D02*
X30470000Y-35677300D01*
X32510000Y-34302000D02*
X32510000Y-35564700D01*
G04 #@! TO.N,Net-(J1-Pad4)*
X11805000Y-34302000D02*
X11805000Y-32926700D01*
X18288000Y-31224100D02*
X21113600Y-34049700D01*
X21113600Y-34049700D02*
X23808900Y-34049700D01*
X23808900Y-34049700D02*
X25028700Y-32829900D01*
X25028700Y-32829900D02*
X27116500Y-32829900D01*
X27116500Y-32829900D02*
X27473600Y-32472800D01*
X27473600Y-32472800D02*
X31036100Y-32472800D01*
X31036100Y-32472800D02*
X31490000Y-32926700D01*
X18288000Y-31181400D02*
X18288000Y-31224100D01*
X11805000Y-32926700D02*
X12888400Y-31843300D01*
X12888400Y-31843300D02*
X17668800Y-31843300D01*
X17668800Y-31843300D02*
X18288000Y-31224100D01*
X31490000Y-34302000D02*
X31490000Y-32926700D01*
X18288000Y-30429200D02*
X18288000Y-31181400D01*
G04 #@! TO.N,Net-(JP1-Pad1)*
X19827000Y-19046000D02*
X11553000Y-19046000D01*
X6731000Y-14224000D02*
X4541000Y-14224000D01*
X11553000Y-19046000D02*
X6731000Y-14224000D01*
G04 #@! TO.N,Net-(JP2-Pad1)*
X4606000Y-16510000D02*
X4541000Y-16510000D01*
X5481000Y-17385000D02*
X4606000Y-16510000D01*
X5481000Y-17450000D02*
X5481000Y-17385000D01*
X7577000Y-19546000D02*
X5481000Y-17450000D01*
X19827000Y-19546000D02*
X7577000Y-19546000D01*
G04 #@! TO.N,Net-(JP3-Pad1)*
X4541000Y-19671000D02*
X4541000Y-18796000D01*
X4916000Y-20046000D02*
X4541000Y-19671000D01*
X19827000Y-20046000D02*
X4916000Y-20046000D01*
G04 #@! TD*
D35*
G04 #@! TO.N,GND*
G36*
X40190001Y-20408844D02*
X40190000Y-21388148D01*
X40175111Y-21463000D01*
X40234096Y-21759537D01*
X40375391Y-21971000D01*
X40402071Y-22010929D01*
X40653463Y-22178904D01*
X40671208Y-22182434D01*
X40676843Y-22210765D01*
X40817191Y-22420809D01*
X41027235Y-22561157D01*
X41275000Y-22610440D01*
X44275000Y-22610440D01*
X44375001Y-22590549D01*
X44375001Y-22875451D01*
X44275000Y-22855560D01*
X41275000Y-22855560D01*
X41027235Y-22904843D01*
X40817191Y-23045191D01*
X40676843Y-23255235D01*
X40627560Y-23503000D01*
X40627560Y-24503000D01*
X40676843Y-24750765D01*
X40817191Y-24960809D01*
X41027235Y-25101157D01*
X41275000Y-25150440D01*
X44275000Y-25150440D01*
X44375001Y-25130549D01*
X44375001Y-25415451D01*
X44275000Y-25395560D01*
X41275000Y-25395560D01*
X41027235Y-25444843D01*
X40817191Y-25585191D01*
X40676843Y-25795235D01*
X40627560Y-26043000D01*
X40627560Y-27043000D01*
X40676843Y-27290765D01*
X40782807Y-27449350D01*
X40774669Y-27461530D01*
X40465528Y-27770671D01*
X40402072Y-27813071D01*
X40359672Y-27876527D01*
X40359671Y-27876528D01*
X40311915Y-27948000D01*
X40234097Y-28064463D01*
X40190000Y-28286148D01*
X40190000Y-28286153D01*
X40175112Y-28361000D01*
X40190000Y-28435847D01*
X40190000Y-29008148D01*
X40175111Y-29083000D01*
X40234096Y-29379537D01*
X40394768Y-29620000D01*
X40402071Y-29630929D01*
X40653463Y-29798904D01*
X40671208Y-29802434D01*
X40676843Y-29830765D01*
X40817191Y-30040809D01*
X41027235Y-30181157D01*
X41275000Y-30230440D01*
X44275000Y-30230440D01*
X44375001Y-30210549D01*
X44375001Y-43994000D01*
X39445000Y-43994000D01*
X39445000Y-43861959D01*
X39472235Y-43880157D01*
X39720000Y-43929440D01*
X41220000Y-43929440D01*
X41467765Y-43880157D01*
X41677809Y-43739809D01*
X41818157Y-43529765D01*
X41867440Y-43282000D01*
X41867440Y-39282000D01*
X41818157Y-39034235D01*
X41677809Y-38824191D01*
X41467765Y-38683843D01*
X41230000Y-38636549D01*
X41230000Y-37848546D01*
X41244888Y-37773699D01*
X41230000Y-37698852D01*
X41230000Y-37698848D01*
X41185904Y-37477163D01*
X41017929Y-37225771D01*
X40954473Y-37183371D01*
X39474931Y-35703830D01*
X39432529Y-35640371D01*
X39235085Y-35508443D01*
X39303698Y-35439830D01*
X39545000Y-34857276D01*
X39545000Y-34226724D01*
X39303698Y-33644170D01*
X38857830Y-33198302D01*
X38275276Y-32957000D01*
X37644724Y-32957000D01*
X37062170Y-33198302D01*
X36616302Y-33644170D01*
X36517440Y-33882844D01*
X36517440Y-33252000D01*
X36468157Y-33004235D01*
X36327809Y-32794191D01*
X36117765Y-32653843D01*
X35870000Y-32604560D01*
X35423011Y-32604560D01*
X35383652Y-32406690D01*
X35300317Y-32281971D01*
X35237424Y-32187845D01*
X35237423Y-32187844D01*
X35188049Y-32113951D01*
X35114156Y-32064577D01*
X34383215Y-31333637D01*
X34333839Y-31259741D01*
X34041100Y-31064138D01*
X33782955Y-31012790D01*
X33782951Y-31012790D01*
X33695790Y-30995453D01*
X33608629Y-31012790D01*
X30372440Y-31012790D01*
X30372440Y-30359000D01*
X30323157Y-30111235D01*
X30313524Y-30096818D01*
X30363000Y-29848086D01*
X30363000Y-29848085D01*
X30381317Y-29756000D01*
X30363000Y-29663914D01*
X30363000Y-29368750D01*
X35100000Y-29368750D01*
X35100000Y-29709310D01*
X35196673Y-29942699D01*
X35375302Y-30121327D01*
X35608691Y-30218000D01*
X36949250Y-30218000D01*
X37108000Y-30059250D01*
X37108000Y-29210000D01*
X37362000Y-29210000D01*
X37362000Y-30059250D01*
X37520750Y-30218000D01*
X38861309Y-30218000D01*
X39094698Y-30121327D01*
X39273327Y-29942699D01*
X39370000Y-29709310D01*
X39370000Y-29368750D01*
X39211250Y-29210000D01*
X37362000Y-29210000D01*
X37108000Y-29210000D01*
X35258750Y-29210000D01*
X35100000Y-29368750D01*
X30363000Y-29368750D01*
X30363000Y-28456690D01*
X35100000Y-28456690D01*
X35100000Y-28797250D01*
X35258750Y-28956000D01*
X37108000Y-28956000D01*
X37108000Y-28106750D01*
X37362000Y-28106750D01*
X37362000Y-28956000D01*
X39211250Y-28956000D01*
X39370000Y-28797250D01*
X39370000Y-28456690D01*
X39273327Y-28223301D01*
X39094698Y-28044673D01*
X38861309Y-27948000D01*
X37520750Y-27948000D01*
X37362000Y-28106750D01*
X37108000Y-28106750D01*
X36949250Y-27948000D01*
X35608691Y-27948000D01*
X35375302Y-28044673D01*
X35196673Y-28223301D01*
X35100000Y-28456690D01*
X30363000Y-28456690D01*
X30363000Y-28314127D01*
X30436809Y-28264809D01*
X30577157Y-28054765D01*
X30626440Y-27807000D01*
X30626440Y-27057000D01*
X30577157Y-26809235D01*
X30436809Y-26599191D01*
X30226765Y-26458843D01*
X30037000Y-26421097D01*
X30037000Y-26043000D01*
X35087560Y-26043000D01*
X35087560Y-27043000D01*
X35136843Y-27290765D01*
X35277191Y-27500809D01*
X35487235Y-27641157D01*
X35735000Y-27690440D01*
X38735000Y-27690440D01*
X38982765Y-27641157D01*
X39192809Y-27500809D01*
X39333157Y-27290765D01*
X39382440Y-27043000D01*
X39382440Y-26043000D01*
X39333157Y-25795235D01*
X39192809Y-25585191D01*
X38982765Y-25444843D01*
X38735000Y-25395560D01*
X35735000Y-25395560D01*
X35487235Y-25444843D01*
X35277191Y-25585191D01*
X35136843Y-25795235D01*
X35087560Y-26043000D01*
X30037000Y-26043000D01*
X30037000Y-25058541D01*
X30049440Y-24996000D01*
X30049440Y-24798361D01*
X30559051Y-24288750D01*
X35100000Y-24288750D01*
X35100000Y-24629310D01*
X35196673Y-24862699D01*
X35375302Y-25041327D01*
X35608691Y-25138000D01*
X36949250Y-25138000D01*
X37108000Y-24979250D01*
X37108000Y-24130000D01*
X37362000Y-24130000D01*
X37362000Y-24979250D01*
X37520750Y-25138000D01*
X38861309Y-25138000D01*
X39094698Y-25041327D01*
X39273327Y-24862699D01*
X39370000Y-24629310D01*
X39370000Y-24288750D01*
X39211250Y-24130000D01*
X37362000Y-24130000D01*
X37108000Y-24130000D01*
X35258750Y-24130000D01*
X35100000Y-24288750D01*
X30559051Y-24288750D01*
X31244807Y-23602995D01*
X31259914Y-23606000D01*
X32481914Y-23606000D01*
X32574000Y-23624317D01*
X32666086Y-23606000D01*
X32938819Y-23551750D01*
X33200814Y-23376690D01*
X35100000Y-23376690D01*
X35100000Y-23717250D01*
X35258750Y-23876000D01*
X37108000Y-23876000D01*
X37108000Y-23026750D01*
X37362000Y-23026750D01*
X37362000Y-23876000D01*
X39211250Y-23876000D01*
X39370000Y-23717250D01*
X39370000Y-23376690D01*
X39273327Y-23143301D01*
X39094698Y-22964673D01*
X38861309Y-22868000D01*
X37520750Y-22868000D01*
X37362000Y-23026750D01*
X37108000Y-23026750D01*
X36949250Y-22868000D01*
X35608691Y-22868000D01*
X35375302Y-22964673D01*
X35196673Y-23143301D01*
X35100000Y-23376690D01*
X33200814Y-23376690D01*
X33248097Y-23345097D01*
X33300261Y-23267028D01*
X35100000Y-21467290D01*
X35100000Y-21590002D01*
X35258748Y-21590002D01*
X35100000Y-21748750D01*
X35100000Y-22089310D01*
X35196673Y-22322699D01*
X35375302Y-22501327D01*
X35608691Y-22598000D01*
X36949250Y-22598000D01*
X37108000Y-22439250D01*
X37108000Y-21590000D01*
X37362000Y-21590000D01*
X37362000Y-22439250D01*
X37520750Y-22598000D01*
X38861309Y-22598000D01*
X39094698Y-22501327D01*
X39273327Y-22322699D01*
X39370000Y-22089310D01*
X39370000Y-21748750D01*
X39211250Y-21590000D01*
X37362000Y-21590000D01*
X37108000Y-21590000D01*
X37088000Y-21590000D01*
X37088000Y-21336000D01*
X37108000Y-21336000D01*
X37108000Y-20486750D01*
X37362000Y-20486750D01*
X37362000Y-21336000D01*
X39211250Y-21336000D01*
X39370000Y-21177250D01*
X39370000Y-20836690D01*
X39273327Y-20603301D01*
X39094698Y-20424673D01*
X38861309Y-20328000D01*
X37520750Y-20328000D01*
X37362000Y-20486750D01*
X37108000Y-20486750D01*
X36949250Y-20328000D01*
X36125063Y-20328000D01*
X36170000Y-20102086D01*
X36170000Y-20102083D01*
X36176294Y-20070440D01*
X38735000Y-20070440D01*
X38982765Y-20021157D01*
X39192809Y-19880809D01*
X39333157Y-19670765D01*
X39352836Y-19571831D01*
X40190001Y-20408844D01*
X40190001Y-20408844D01*
G37*
X40190001Y-20408844D02*
X40190000Y-21388148D01*
X40175111Y-21463000D01*
X40234096Y-21759537D01*
X40375391Y-21971000D01*
X40402071Y-22010929D01*
X40653463Y-22178904D01*
X40671208Y-22182434D01*
X40676843Y-22210765D01*
X40817191Y-22420809D01*
X41027235Y-22561157D01*
X41275000Y-22610440D01*
X44275000Y-22610440D01*
X44375001Y-22590549D01*
X44375001Y-22875451D01*
X44275000Y-22855560D01*
X41275000Y-22855560D01*
X41027235Y-22904843D01*
X40817191Y-23045191D01*
X40676843Y-23255235D01*
X40627560Y-23503000D01*
X40627560Y-24503000D01*
X40676843Y-24750765D01*
X40817191Y-24960809D01*
X41027235Y-25101157D01*
X41275000Y-25150440D01*
X44275000Y-25150440D01*
X44375001Y-25130549D01*
X44375001Y-25415451D01*
X44275000Y-25395560D01*
X41275000Y-25395560D01*
X41027235Y-25444843D01*
X40817191Y-25585191D01*
X40676843Y-25795235D01*
X40627560Y-26043000D01*
X40627560Y-27043000D01*
X40676843Y-27290765D01*
X40782807Y-27449350D01*
X40774669Y-27461530D01*
X40465528Y-27770671D01*
X40402072Y-27813071D01*
X40359672Y-27876527D01*
X40359671Y-27876528D01*
X40311915Y-27948000D01*
X40234097Y-28064463D01*
X40190000Y-28286148D01*
X40190000Y-28286153D01*
X40175112Y-28361000D01*
X40190000Y-28435847D01*
X40190000Y-29008148D01*
X40175111Y-29083000D01*
X40234096Y-29379537D01*
X40394768Y-29620000D01*
X40402071Y-29630929D01*
X40653463Y-29798904D01*
X40671208Y-29802434D01*
X40676843Y-29830765D01*
X40817191Y-30040809D01*
X41027235Y-30181157D01*
X41275000Y-30230440D01*
X44275000Y-30230440D01*
X44375001Y-30210549D01*
X44375001Y-43994000D01*
X39445000Y-43994000D01*
X39445000Y-43861959D01*
X39472235Y-43880157D01*
X39720000Y-43929440D01*
X41220000Y-43929440D01*
X41467765Y-43880157D01*
X41677809Y-43739809D01*
X41818157Y-43529765D01*
X41867440Y-43282000D01*
X41867440Y-39282000D01*
X41818157Y-39034235D01*
X41677809Y-38824191D01*
X41467765Y-38683843D01*
X41230000Y-38636549D01*
X41230000Y-37848546D01*
X41244888Y-37773699D01*
X41230000Y-37698852D01*
X41230000Y-37698848D01*
X41185904Y-37477163D01*
X41017929Y-37225771D01*
X40954473Y-37183371D01*
X39474931Y-35703830D01*
X39432529Y-35640371D01*
X39235085Y-35508443D01*
X39303698Y-35439830D01*
X39545000Y-34857276D01*
X39545000Y-34226724D01*
X39303698Y-33644170D01*
X38857830Y-33198302D01*
X38275276Y-32957000D01*
X37644724Y-32957000D01*
X37062170Y-33198302D01*
X36616302Y-33644170D01*
X36517440Y-33882844D01*
X36517440Y-33252000D01*
X36468157Y-33004235D01*
X36327809Y-32794191D01*
X36117765Y-32653843D01*
X35870000Y-32604560D01*
X35423011Y-32604560D01*
X35383652Y-32406690D01*
X35300317Y-32281971D01*
X35237424Y-32187845D01*
X35237423Y-32187844D01*
X35188049Y-32113951D01*
X35114156Y-32064577D01*
X34383215Y-31333637D01*
X34333839Y-31259741D01*
X34041100Y-31064138D01*
X33782955Y-31012790D01*
X33782951Y-31012790D01*
X33695790Y-30995453D01*
X33608629Y-31012790D01*
X30372440Y-31012790D01*
X30372440Y-30359000D01*
X30323157Y-30111235D01*
X30313524Y-30096818D01*
X30363000Y-29848086D01*
X30363000Y-29848085D01*
X30381317Y-29756000D01*
X30363000Y-29663914D01*
X30363000Y-29368750D01*
X35100000Y-29368750D01*
X35100000Y-29709310D01*
X35196673Y-29942699D01*
X35375302Y-30121327D01*
X35608691Y-30218000D01*
X36949250Y-30218000D01*
X37108000Y-30059250D01*
X37108000Y-29210000D01*
X37362000Y-29210000D01*
X37362000Y-30059250D01*
X37520750Y-30218000D01*
X38861309Y-30218000D01*
X39094698Y-30121327D01*
X39273327Y-29942699D01*
X39370000Y-29709310D01*
X39370000Y-29368750D01*
X39211250Y-29210000D01*
X37362000Y-29210000D01*
X37108000Y-29210000D01*
X35258750Y-29210000D01*
X35100000Y-29368750D01*
X30363000Y-29368750D01*
X30363000Y-28456690D01*
X35100000Y-28456690D01*
X35100000Y-28797250D01*
X35258750Y-28956000D01*
X37108000Y-28956000D01*
X37108000Y-28106750D01*
X37362000Y-28106750D01*
X37362000Y-28956000D01*
X39211250Y-28956000D01*
X39370000Y-28797250D01*
X39370000Y-28456690D01*
X39273327Y-28223301D01*
X39094698Y-28044673D01*
X38861309Y-27948000D01*
X37520750Y-27948000D01*
X37362000Y-28106750D01*
X37108000Y-28106750D01*
X36949250Y-27948000D01*
X35608691Y-27948000D01*
X35375302Y-28044673D01*
X35196673Y-28223301D01*
X35100000Y-28456690D01*
X30363000Y-28456690D01*
X30363000Y-28314127D01*
X30436809Y-28264809D01*
X30577157Y-28054765D01*
X30626440Y-27807000D01*
X30626440Y-27057000D01*
X30577157Y-26809235D01*
X30436809Y-26599191D01*
X30226765Y-26458843D01*
X30037000Y-26421097D01*
X30037000Y-26043000D01*
X35087560Y-26043000D01*
X35087560Y-27043000D01*
X35136843Y-27290765D01*
X35277191Y-27500809D01*
X35487235Y-27641157D01*
X35735000Y-27690440D01*
X38735000Y-27690440D01*
X38982765Y-27641157D01*
X39192809Y-27500809D01*
X39333157Y-27290765D01*
X39382440Y-27043000D01*
X39382440Y-26043000D01*
X39333157Y-25795235D01*
X39192809Y-25585191D01*
X38982765Y-25444843D01*
X38735000Y-25395560D01*
X35735000Y-25395560D01*
X35487235Y-25444843D01*
X35277191Y-25585191D01*
X35136843Y-25795235D01*
X35087560Y-26043000D01*
X30037000Y-26043000D01*
X30037000Y-25058541D01*
X30049440Y-24996000D01*
X30049440Y-24798361D01*
X30559051Y-24288750D01*
X35100000Y-24288750D01*
X35100000Y-24629310D01*
X35196673Y-24862699D01*
X35375302Y-25041327D01*
X35608691Y-25138000D01*
X36949250Y-25138000D01*
X37108000Y-24979250D01*
X37108000Y-24130000D01*
X37362000Y-24130000D01*
X37362000Y-24979250D01*
X37520750Y-25138000D01*
X38861309Y-25138000D01*
X39094698Y-25041327D01*
X39273327Y-24862699D01*
X39370000Y-24629310D01*
X39370000Y-24288750D01*
X39211250Y-24130000D01*
X37362000Y-24130000D01*
X37108000Y-24130000D01*
X35258750Y-24130000D01*
X35100000Y-24288750D01*
X30559051Y-24288750D01*
X31244807Y-23602995D01*
X31259914Y-23606000D01*
X32481914Y-23606000D01*
X32574000Y-23624317D01*
X32666086Y-23606000D01*
X32938819Y-23551750D01*
X33200814Y-23376690D01*
X35100000Y-23376690D01*
X35100000Y-23717250D01*
X35258750Y-23876000D01*
X37108000Y-23876000D01*
X37108000Y-23026750D01*
X37362000Y-23026750D01*
X37362000Y-23876000D01*
X39211250Y-23876000D01*
X39370000Y-23717250D01*
X39370000Y-23376690D01*
X39273327Y-23143301D01*
X39094698Y-22964673D01*
X38861309Y-22868000D01*
X37520750Y-22868000D01*
X37362000Y-23026750D01*
X37108000Y-23026750D01*
X36949250Y-22868000D01*
X35608691Y-22868000D01*
X35375302Y-22964673D01*
X35196673Y-23143301D01*
X35100000Y-23376690D01*
X33200814Y-23376690D01*
X33248097Y-23345097D01*
X33300261Y-23267028D01*
X35100000Y-21467290D01*
X35100000Y-21590002D01*
X35258748Y-21590002D01*
X35100000Y-21748750D01*
X35100000Y-22089310D01*
X35196673Y-22322699D01*
X35375302Y-22501327D01*
X35608691Y-22598000D01*
X36949250Y-22598000D01*
X37108000Y-22439250D01*
X37108000Y-21590000D01*
X37362000Y-21590000D01*
X37362000Y-22439250D01*
X37520750Y-22598000D01*
X38861309Y-22598000D01*
X39094698Y-22501327D01*
X39273327Y-22322699D01*
X39370000Y-22089310D01*
X39370000Y-21748750D01*
X39211250Y-21590000D01*
X37362000Y-21590000D01*
X37108000Y-21590000D01*
X37088000Y-21590000D01*
X37088000Y-21336000D01*
X37108000Y-21336000D01*
X37108000Y-20486750D01*
X37362000Y-20486750D01*
X37362000Y-21336000D01*
X39211250Y-21336000D01*
X39370000Y-21177250D01*
X39370000Y-20836690D01*
X39273327Y-20603301D01*
X39094698Y-20424673D01*
X38861309Y-20328000D01*
X37520750Y-20328000D01*
X37362000Y-20486750D01*
X37108000Y-20486750D01*
X36949250Y-20328000D01*
X36125063Y-20328000D01*
X36170000Y-20102086D01*
X36170000Y-20102083D01*
X36176294Y-20070440D01*
X38735000Y-20070440D01*
X38982765Y-20021157D01*
X39192809Y-19880809D01*
X39333157Y-19670765D01*
X39352836Y-19571831D01*
X40190001Y-20408844D01*
G36*
X3818000Y-2015250D02*
X3976750Y-2174000D01*
X4826000Y-2174000D01*
X4826000Y-2154000D01*
X5080000Y-2154000D01*
X5080000Y-2174000D01*
X5929250Y-2174000D01*
X6088000Y-2015250D01*
X6088000Y-710000D01*
X6358000Y-710000D01*
X6358000Y-2015250D01*
X6516750Y-2174000D01*
X7366000Y-2174000D01*
X7366000Y-2154000D01*
X7620000Y-2154000D01*
X7620000Y-2174000D01*
X8469250Y-2174000D01*
X8628000Y-2015250D01*
X8628000Y-710000D01*
X8898000Y-710000D01*
X8898000Y-2015250D01*
X9056750Y-2174000D01*
X9906000Y-2174000D01*
X9906000Y-2154000D01*
X10160000Y-2154000D01*
X10160000Y-2174000D01*
X11009250Y-2174000D01*
X11168000Y-2015250D01*
X11168000Y-710000D01*
X11438000Y-710000D01*
X11438000Y-2015250D01*
X11596750Y-2174000D01*
X12446000Y-2174000D01*
X12446000Y-2154000D01*
X12700000Y-2154000D01*
X12700000Y-2174000D01*
X13549250Y-2174000D01*
X13708000Y-2015250D01*
X13708000Y-710000D01*
X13978000Y-710000D01*
X13978000Y-2015250D01*
X14136750Y-2174000D01*
X14986000Y-2174000D01*
X14986000Y-2154000D01*
X15240000Y-2154000D01*
X15240000Y-2174000D01*
X16089250Y-2174000D01*
X16248000Y-2015250D01*
X16248000Y-710000D01*
X16518000Y-710000D01*
X16518000Y-2015250D01*
X16676750Y-2174000D01*
X17526000Y-2174000D01*
X17526000Y-2154000D01*
X17780000Y-2154000D01*
X17780000Y-2174000D01*
X18629250Y-2174000D01*
X18788000Y-2015250D01*
X18788000Y-710000D01*
X19058000Y-710000D01*
X19058000Y-2015250D01*
X19216750Y-2174000D01*
X20066000Y-2174000D01*
X20066000Y-2154000D01*
X20320000Y-2154000D01*
X20320000Y-2174000D01*
X21169250Y-2174000D01*
X21328000Y-2015250D01*
X21328000Y-710000D01*
X21598000Y-710000D01*
X21598000Y-2015250D01*
X21756750Y-2174000D01*
X22606000Y-2174000D01*
X22606000Y-2154000D01*
X22860000Y-2154000D01*
X22860000Y-2174000D01*
X23709250Y-2174000D01*
X23868000Y-2015250D01*
X23868000Y-710000D01*
X24138000Y-710000D01*
X24138000Y-2015250D01*
X24296750Y-2174000D01*
X25146000Y-2174000D01*
X25146000Y-2154000D01*
X25400000Y-2154000D01*
X25400000Y-2174000D01*
X26249250Y-2174000D01*
X26408000Y-2015250D01*
X26408000Y-710000D01*
X26678000Y-710000D01*
X26678000Y-2015250D01*
X26836750Y-2174000D01*
X27686000Y-2174000D01*
X27686000Y-2154000D01*
X27940000Y-2154000D01*
X27940000Y-2174000D01*
X28789250Y-2174000D01*
X28948000Y-2015250D01*
X28948000Y-710000D01*
X29218000Y-710000D01*
X29218000Y-2015250D01*
X29376750Y-2174000D01*
X30226000Y-2174000D01*
X30226000Y-2154000D01*
X30480000Y-2154000D01*
X30480000Y-2174000D01*
X31329250Y-2174000D01*
X31488000Y-2015250D01*
X31488000Y-710000D01*
X31758000Y-710000D01*
X31758000Y-2015250D01*
X31916750Y-2174000D01*
X32766000Y-2174000D01*
X32766000Y-2154000D01*
X33020000Y-2154000D01*
X33020000Y-2174000D01*
X33869250Y-2174000D01*
X34028000Y-2015250D01*
X34028000Y-710000D01*
X34298000Y-710000D01*
X34298000Y-2015250D01*
X34456750Y-2174000D01*
X35306000Y-2174000D01*
X35306000Y-2154000D01*
X35560000Y-2154000D01*
X35560000Y-2174000D01*
X36409250Y-2174000D01*
X36568000Y-2015250D01*
X36568000Y-710000D01*
X36838000Y-710000D01*
X36838000Y-2015250D01*
X36996750Y-2174000D01*
X37846000Y-2174000D01*
X37846000Y-2154000D01*
X38100000Y-2154000D01*
X38100000Y-2174000D01*
X38949250Y-2174000D01*
X39108000Y-2015250D01*
X39108000Y-710000D01*
X39378000Y-710000D01*
X39378000Y-2015250D01*
X39536750Y-2174000D01*
X40386000Y-2174000D01*
X40386000Y-2154000D01*
X40640000Y-2154000D01*
X40640000Y-2174000D01*
X41489250Y-2174000D01*
X41648000Y-2015250D01*
X41648000Y-710000D01*
X44375000Y-710000D01*
X44375000Y-17795451D01*
X44275000Y-17775560D01*
X41275000Y-17775560D01*
X41027235Y-17824843D01*
X40966936Y-17865134D01*
X36751331Y-13649530D01*
X36708929Y-13586071D01*
X36457537Y-13418096D01*
X36235852Y-13374000D01*
X36235847Y-13374000D01*
X36161000Y-13359112D01*
X36086153Y-13374000D01*
X30132847Y-13374000D01*
X30058000Y-13359112D01*
X30049440Y-13360815D01*
X30049440Y-13030700D01*
X37418753Y-13030700D01*
X37493600Y-13045588D01*
X37568447Y-13030700D01*
X37568452Y-13030700D01*
X37790137Y-12986604D01*
X38041529Y-12818629D01*
X38083931Y-12755170D01*
X40997476Y-9841627D01*
X41060929Y-9799229D01*
X41103327Y-9735776D01*
X41103329Y-9735774D01*
X41199348Y-9592071D01*
X41228904Y-9547837D01*
X41232496Y-9529780D01*
X41260765Y-9524157D01*
X41470809Y-9383809D01*
X41611157Y-9173765D01*
X41660440Y-8926000D01*
X41660440Y-5776000D01*
X41611157Y-5528235D01*
X41470809Y-5318191D01*
X41260765Y-5177843D01*
X41013000Y-5128560D01*
X40013000Y-5128560D01*
X39765235Y-5177843D01*
X39555191Y-5318191D01*
X39414843Y-5528235D01*
X39365560Y-5776000D01*
X39365560Y-8926000D01*
X39414843Y-9173765D01*
X39455254Y-9234244D01*
X38784555Y-9904943D01*
X38733000Y-9780477D01*
X38733000Y-9515982D01*
X38930809Y-9383809D01*
X39071157Y-9173765D01*
X39120440Y-8926000D01*
X39120440Y-5776000D01*
X39071157Y-5528235D01*
X38930809Y-5318191D01*
X38720765Y-5177843D01*
X38473000Y-5128560D01*
X37473000Y-5128560D01*
X37225235Y-5177843D01*
X37015191Y-5318191D01*
X36874843Y-5528235D01*
X36825560Y-5776000D01*
X36825560Y-8926000D01*
X36874843Y-9173765D01*
X37015191Y-9383809D01*
X37213000Y-9515982D01*
X37213000Y-9522110D01*
X37091145Y-9643965D01*
X36948800Y-9987617D01*
X36948800Y-10359583D01*
X37091145Y-10703235D01*
X37354165Y-10966255D01*
X37615143Y-11074355D01*
X37178799Y-11510700D01*
X34248401Y-11510700D01*
X35917476Y-9841627D01*
X35980929Y-9799229D01*
X36023327Y-9735776D01*
X36023329Y-9735774D01*
X36119348Y-9592071D01*
X36148904Y-9547837D01*
X36152496Y-9529780D01*
X36180765Y-9524157D01*
X36390809Y-9383809D01*
X36531157Y-9173765D01*
X36580440Y-8926000D01*
X36580440Y-5776000D01*
X36531157Y-5528235D01*
X36390809Y-5318191D01*
X36180765Y-5177843D01*
X35933000Y-5128560D01*
X34933000Y-5128560D01*
X34685235Y-5177843D01*
X34475191Y-5318191D01*
X34334843Y-5528235D01*
X34285560Y-5776000D01*
X34285560Y-8926000D01*
X34334843Y-9173765D01*
X34375254Y-9234244D01*
X33179599Y-10429900D01*
X32789202Y-10429900D01*
X33377473Y-9841629D01*
X33440929Y-9799229D01*
X33608904Y-9547837D01*
X33612496Y-9529780D01*
X33640765Y-9524157D01*
X33850809Y-9383809D01*
X33991157Y-9173765D01*
X34040440Y-8926000D01*
X34040440Y-5776000D01*
X33991157Y-5528235D01*
X33850809Y-5318191D01*
X33640765Y-5177843D01*
X33393000Y-5128560D01*
X32393000Y-5128560D01*
X32145235Y-5177843D01*
X31935191Y-5318191D01*
X31794843Y-5528235D01*
X31745560Y-5776000D01*
X31745560Y-8926000D01*
X31794843Y-9173765D01*
X31835254Y-9234244D01*
X31089999Y-9979500D01*
X30587721Y-9979500D01*
X30649537Y-9967204D01*
X30900929Y-9799229D01*
X31068904Y-9547837D01*
X31072496Y-9529780D01*
X31100765Y-9524157D01*
X31310809Y-9383809D01*
X31451157Y-9173765D01*
X31500440Y-8926000D01*
X31500440Y-5776000D01*
X31451157Y-5528235D01*
X31310809Y-5318191D01*
X31100765Y-5177843D01*
X30853000Y-5128560D01*
X29853000Y-5128560D01*
X29605235Y-5177843D01*
X29395191Y-5318191D01*
X29254843Y-5528235D01*
X29205560Y-5776000D01*
X29205560Y-8491300D01*
X28960440Y-8491300D01*
X28960440Y-5776000D01*
X28911157Y-5528235D01*
X28770809Y-5318191D01*
X28560765Y-5177843D01*
X28313000Y-5128560D01*
X27313000Y-5128560D01*
X27065235Y-5177843D01*
X26855191Y-5318191D01*
X26714843Y-5528235D01*
X26665560Y-5776000D01*
X26665560Y-7423638D01*
X26420440Y-7668758D01*
X26420440Y-5776000D01*
X26371157Y-5528235D01*
X26230809Y-5318191D01*
X26020765Y-5177843D01*
X25773000Y-5128560D01*
X24773000Y-5128560D01*
X24525235Y-5177843D01*
X24315191Y-5318191D01*
X24174843Y-5528235D01*
X24125560Y-5776000D01*
X24125560Y-8926000D01*
X24174843Y-9173765D01*
X24215254Y-9234244D01*
X22781501Y-10667998D01*
X22708252Y-10667998D01*
X22867000Y-10509250D01*
X22867000Y-10293690D01*
X22770327Y-10060301D01*
X22591698Y-9881673D01*
X22358309Y-9785000D01*
X22117750Y-9785000D01*
X21959000Y-9943750D01*
X21959000Y-10668000D01*
X21979000Y-10668000D01*
X21979000Y-10922000D01*
X21959000Y-10922000D01*
X21959000Y-10942000D01*
X21705000Y-10942000D01*
X21705000Y-10922000D01*
X21685000Y-10922000D01*
X21685000Y-10668000D01*
X21705000Y-10668000D01*
X21705000Y-9943750D01*
X21546250Y-9785000D01*
X21305691Y-9785000D01*
X21072302Y-9881673D01*
X21071102Y-9882873D01*
X20979765Y-9821843D01*
X20755611Y-9777256D01*
X20908904Y-9547837D01*
X20912496Y-9529780D01*
X20940765Y-9524157D01*
X21150809Y-9383809D01*
X21291157Y-9173765D01*
X21340440Y-8926000D01*
X21340440Y-6210700D01*
X21585560Y-6210700D01*
X21585560Y-8926000D01*
X21634843Y-9173765D01*
X21775191Y-9383809D01*
X21985235Y-9524157D01*
X22233000Y-9573440D01*
X23233000Y-9573440D01*
X23480765Y-9524157D01*
X23690809Y-9383809D01*
X23831157Y-9173765D01*
X23880440Y-8926000D01*
X23880440Y-5776000D01*
X23831157Y-5528235D01*
X23690809Y-5318191D01*
X23480765Y-5177843D01*
X23452496Y-5172220D01*
X23448904Y-5154163D01*
X23280929Y-4902771D01*
X23029537Y-4734796D01*
X22807852Y-4690700D01*
X22733000Y-4675811D01*
X22658148Y-4690700D01*
X19565746Y-4690700D01*
X19490899Y-4675812D01*
X19416052Y-4690700D01*
X19416048Y-4690700D01*
X19194363Y-4734796D01*
X18942971Y-4902771D01*
X18900571Y-4966227D01*
X18573522Y-5293276D01*
X18400765Y-5177843D01*
X18153000Y-5128560D01*
X17153000Y-5128560D01*
X16905235Y-5177843D01*
X16695191Y-5318191D01*
X16554843Y-5528235D01*
X16505560Y-5776000D01*
X16505560Y-8926000D01*
X16554843Y-9173765D01*
X16695191Y-9383809D01*
X16893001Y-9515982D01*
X16893000Y-13362499D01*
X15873000Y-12342499D01*
X15873000Y-9515982D01*
X16070809Y-9383809D01*
X16211157Y-9173765D01*
X16260440Y-8926000D01*
X16260440Y-5776000D01*
X16211157Y-5528235D01*
X16070809Y-5318191D01*
X15860765Y-5177843D01*
X15613000Y-5128560D01*
X14613000Y-5128560D01*
X14365235Y-5177843D01*
X14155191Y-5318191D01*
X14014843Y-5528235D01*
X13965560Y-5776000D01*
X13965560Y-8926000D01*
X14014843Y-9173765D01*
X14155191Y-9383809D01*
X14353001Y-9515982D01*
X14353000Y-11486799D01*
X13333000Y-10466799D01*
X13333000Y-9515982D01*
X13530809Y-9383809D01*
X13671157Y-9173765D01*
X13720440Y-8926000D01*
X13720440Y-5776000D01*
X13671157Y-5528235D01*
X13530809Y-5318191D01*
X13320765Y-5177843D01*
X13073000Y-5128560D01*
X12073000Y-5128560D01*
X11825235Y-5177843D01*
X11615191Y-5318191D01*
X11474843Y-5528235D01*
X11425560Y-5776000D01*
X11425560Y-8926000D01*
X11474843Y-9173765D01*
X11615191Y-9383809D01*
X11813000Y-9515982D01*
X11813000Y-9956499D01*
X11090746Y-9234245D01*
X11131157Y-9173765D01*
X11180440Y-8926000D01*
X11180440Y-5776000D01*
X11131157Y-5528235D01*
X10990809Y-5318191D01*
X10780765Y-5177843D01*
X10533000Y-5128560D01*
X9533000Y-5128560D01*
X9285235Y-5177843D01*
X9075191Y-5318191D01*
X8934843Y-5528235D01*
X8885560Y-5776000D01*
X8885560Y-8926000D01*
X8934843Y-9173765D01*
X9075191Y-9383809D01*
X9285235Y-9524157D01*
X9313505Y-9529780D01*
X9317097Y-9547837D01*
X9485072Y-9799229D01*
X9548528Y-9841629D01*
X16992898Y-17286000D01*
X16602502Y-17286000D01*
X8550746Y-9234245D01*
X8591157Y-9173765D01*
X8640440Y-8926000D01*
X8640440Y-5776000D01*
X8591157Y-5528235D01*
X8450809Y-5318191D01*
X8240765Y-5177843D01*
X7993000Y-5128560D01*
X6993000Y-5128560D01*
X6745235Y-5177843D01*
X6535191Y-5318191D01*
X6394843Y-5528235D01*
X6345560Y-5776000D01*
X6345560Y-8926000D01*
X6394843Y-9173765D01*
X6535191Y-9383809D01*
X6745235Y-9524157D01*
X6773505Y-9529780D01*
X6777097Y-9547837D01*
X6945072Y-9799229D01*
X7008528Y-9841629D01*
X14952898Y-17786000D01*
X14562502Y-17786000D01*
X6010746Y-9234245D01*
X6051157Y-9173765D01*
X6100440Y-8926000D01*
X6100440Y-5776000D01*
X6051157Y-5528235D01*
X5910809Y-5318191D01*
X5700765Y-5177843D01*
X5453000Y-5128560D01*
X4453000Y-5128560D01*
X4205235Y-5177843D01*
X3995191Y-5318191D01*
X3854843Y-5528235D01*
X3805560Y-5776000D01*
X3805560Y-8926000D01*
X3854843Y-9173765D01*
X3995191Y-9383809D01*
X4205235Y-9524157D01*
X4233505Y-9529780D01*
X4237097Y-9547837D01*
X4405072Y-9799229D01*
X4468528Y-9841629D01*
X12912898Y-18286000D01*
X11867802Y-18286000D01*
X7321331Y-13739530D01*
X7278929Y-13676071D01*
X7027537Y-13508096D01*
X6805852Y-13464000D01*
X6805847Y-13464000D01*
X6731000Y-13449112D01*
X6656153Y-13464000D01*
X5851587Y-13464000D01*
X5829157Y-13351235D01*
X5688809Y-13141191D01*
X5478765Y-13000843D01*
X5231000Y-12951560D01*
X3851000Y-12951560D01*
X3753903Y-12970874D01*
X3737309Y-12964000D01*
X3206750Y-12964000D01*
X3048000Y-13122750D01*
X3048000Y-14097000D01*
X3068000Y-14097000D01*
X3068000Y-14351000D01*
X3048000Y-14351000D01*
X3048000Y-15325250D01*
X3089750Y-15367000D01*
X3048000Y-15408750D01*
X3048000Y-16383000D01*
X3068000Y-16383000D01*
X3068000Y-16637000D01*
X3048000Y-16637000D01*
X3048000Y-17611250D01*
X3089750Y-17653000D01*
X3048000Y-17694750D01*
X3048000Y-18669000D01*
X3068000Y-18669000D01*
X3068000Y-18923000D01*
X3048000Y-18923000D01*
X3048000Y-19897250D01*
X3206750Y-20056000D01*
X3737309Y-20056000D01*
X3753903Y-20049126D01*
X3851000Y-20068440D01*
X3892518Y-20068440D01*
X3993071Y-20218929D01*
X4056530Y-20261331D01*
X4325669Y-20530470D01*
X4359717Y-20581426D01*
X3882375Y-20900375D01*
X3870184Y-20918619D01*
X3861157Y-20873235D01*
X3720809Y-20663191D01*
X3510765Y-20522843D01*
X3263000Y-20473560D01*
X1563000Y-20473560D01*
X1315235Y-20522843D01*
X1105191Y-20663191D01*
X964843Y-20873235D01*
X915560Y-21121000D01*
X915560Y-22821000D01*
X964843Y-23068765D01*
X1105191Y-23278809D01*
X1315235Y-23419157D01*
X1563000Y-23468440D01*
X3263000Y-23468440D01*
X3510765Y-23419157D01*
X3720809Y-23278809D01*
X3861157Y-23068765D01*
X3870184Y-23023381D01*
X3882375Y-23041625D01*
X4373582Y-23369839D01*
X4806744Y-23456000D01*
X5099256Y-23456000D01*
X5112981Y-23453270D01*
X6064710Y-24405000D01*
X5543691Y-24405000D01*
X5520000Y-24414813D01*
X5496309Y-24405000D01*
X2193691Y-24405000D01*
X1960302Y-24501673D01*
X1781673Y-24680301D01*
X1685000Y-24913690D01*
X1685000Y-27916310D01*
X1694813Y-27940000D01*
X1685000Y-27963690D01*
X1685000Y-30966310D01*
X1781673Y-31199699D01*
X1960302Y-31378327D01*
X2193691Y-31475000D01*
X5496309Y-31475000D01*
X5520000Y-31465187D01*
X5543691Y-31475000D01*
X8846309Y-31475000D01*
X9079698Y-31378327D01*
X9258327Y-31199699D01*
X9355000Y-30966310D01*
X9355000Y-27963690D01*
X9345187Y-27940000D01*
X9355000Y-27916310D01*
X9355000Y-26117431D01*
X9493832Y-26256167D01*
X9545903Y-26334097D01*
X9624105Y-26386350D01*
X9624220Y-26386465D01*
X9700438Y-26437354D01*
X9855181Y-26540750D01*
X9855347Y-26540783D01*
X9855486Y-26540876D01*
X10037676Y-26577051D01*
X10127914Y-26595000D01*
X10128077Y-26595000D01*
X10188095Y-26606917D01*
X10262191Y-26717809D01*
X10472235Y-26858157D01*
X10720000Y-26907440D01*
X12920000Y-26907440D01*
X13167765Y-26858157D01*
X13377809Y-26717809D01*
X13518157Y-26507765D01*
X13567440Y-26260000D01*
X13567440Y-25060000D01*
X13518157Y-24812235D01*
X13377809Y-24602191D01*
X13167765Y-24461843D01*
X12920000Y-24412560D01*
X10720000Y-24412560D01*
X10472235Y-24461843D01*
X10395242Y-24513288D01*
X9499170Y-23617836D01*
X9447097Y-23539903D01*
X9368892Y-23487648D01*
X9368779Y-23487535D01*
X9293893Y-23437535D01*
X9137819Y-23333250D01*
X9137652Y-23333217D01*
X9137513Y-23333124D01*
X8955602Y-23297005D01*
X8865086Y-23279000D01*
X8864923Y-23279000D01*
X8772671Y-23260683D01*
X8680751Y-23279000D01*
X8208368Y-23279000D01*
X8563625Y-23041625D01*
X8763000Y-22743239D01*
X8962375Y-23041625D01*
X9453582Y-23369839D01*
X9886744Y-23456000D01*
X10179256Y-23456000D01*
X10612418Y-23369839D01*
X11103625Y-23041625D01*
X11316843Y-22722522D01*
X11377817Y-22852358D01*
X11806076Y-23242645D01*
X12216110Y-23412476D01*
X12446000Y-23291155D01*
X12446000Y-22098000D01*
X12700000Y-22098000D01*
X12700000Y-23291155D01*
X12929890Y-23412476D01*
X13339924Y-23242645D01*
X13768183Y-22852358D01*
X14014486Y-22327892D01*
X13893819Y-22098000D01*
X12700000Y-22098000D01*
X12446000Y-22098000D01*
X12426000Y-22098000D01*
X12426000Y-21844000D01*
X12446000Y-21844000D01*
X12446000Y-21824000D01*
X12700000Y-21824000D01*
X12700000Y-21844000D01*
X13893819Y-21844000D01*
X14014486Y-21614108D01*
X13768183Y-21089642D01*
X13456945Y-20806000D01*
X18702435Y-20806000D01*
X18679560Y-20921000D01*
X18679560Y-21171000D01*
X18704424Y-21296000D01*
X18679560Y-21421000D01*
X18679560Y-21671000D01*
X18704424Y-21796000D01*
X18679560Y-21921000D01*
X18679560Y-22171000D01*
X18704424Y-22296000D01*
X18679560Y-22421000D01*
X18679560Y-22671000D01*
X18701242Y-22780005D01*
X18579500Y-23073917D01*
X18579500Y-23120098D01*
X17803530Y-23896069D01*
X17740071Y-23938471D01*
X17572096Y-24189864D01*
X17528000Y-24411549D01*
X17528000Y-24411553D01*
X17513112Y-24486400D01*
X17528000Y-24561247D01*
X17528001Y-26058962D01*
X17347509Y-25984200D01*
X17278350Y-25984200D01*
X17119600Y-26142950D01*
X17119600Y-27101800D01*
X17165000Y-27101800D01*
X17165000Y-27355800D01*
X17119600Y-27355800D01*
X17119600Y-27375800D01*
X16916400Y-27375800D01*
X16916400Y-27355800D01*
X16871000Y-27355800D01*
X16871000Y-27101800D01*
X16916400Y-27101800D01*
X16916400Y-26142950D01*
X16757650Y-25984200D01*
X16688491Y-25984200D01*
X16455102Y-26080873D01*
X16388373Y-26147602D01*
X16198965Y-26021043D01*
X15951200Y-25971760D01*
X15544800Y-25971760D01*
X15297035Y-26021043D01*
X15086991Y-26161391D01*
X14946643Y-26371435D01*
X14897360Y-26619200D01*
X14897360Y-27838400D01*
X14946643Y-28086165D01*
X15086991Y-28296209D01*
X15218678Y-28384200D01*
X14413186Y-28384200D01*
X14321100Y-28365883D01*
X14229014Y-28384200D01*
X13956281Y-28438450D01*
X13647003Y-28645103D01*
X13594839Y-28723172D01*
X13244737Y-29073274D01*
X13167765Y-29021843D01*
X12920000Y-28972560D01*
X10720000Y-28972560D01*
X10472235Y-29021843D01*
X10262191Y-29162191D01*
X10121843Y-29372235D01*
X10072560Y-29620000D01*
X10072560Y-30820000D01*
X10121843Y-31067765D01*
X10181004Y-31156306D01*
X10117145Y-31220165D01*
X10117144Y-31220167D01*
X9482794Y-31854517D01*
X9421547Y-31866700D01*
X4159461Y-31866700D01*
X4072300Y-31849363D01*
X3985139Y-31866700D01*
X3985135Y-31866700D01*
X3761694Y-31911145D01*
X3726990Y-31918048D01*
X3508145Y-32064276D01*
X3508144Y-32064277D01*
X3434251Y-32113651D01*
X3384877Y-32187544D01*
X3230775Y-32341646D01*
X2984000Y-32292560D01*
X2634000Y-32292560D01*
X2496368Y-32319936D01*
X2460309Y-32305000D01*
X2405250Y-32305000D01*
X2332506Y-32377744D01*
X2176191Y-32482191D01*
X2159000Y-32507919D01*
X2141809Y-32482191D01*
X1985494Y-32377744D01*
X1912750Y-32305000D01*
X1857691Y-32305000D01*
X1821632Y-32319936D01*
X1684000Y-32292560D01*
X1334000Y-32292560D01*
X1086235Y-32341843D01*
X876191Y-32482191D01*
X735843Y-32692235D01*
X710000Y-32822158D01*
X710000Y-19081750D01*
X1596000Y-19081750D01*
X1596000Y-19547310D01*
X1692673Y-19780699D01*
X1871302Y-19959327D01*
X2104691Y-20056000D01*
X2635250Y-20056000D01*
X2794000Y-19897250D01*
X2794000Y-18923000D01*
X1754750Y-18923000D01*
X1596000Y-19081750D01*
X710000Y-19081750D01*
X710000Y-16795750D01*
X1596000Y-16795750D01*
X1596000Y-17261310D01*
X1692673Y-17494699D01*
X1850975Y-17653000D01*
X1692673Y-17811301D01*
X1596000Y-18044690D01*
X1596000Y-18510250D01*
X1754750Y-18669000D01*
X2794000Y-18669000D01*
X2794000Y-17694750D01*
X2752250Y-17653000D01*
X2794000Y-17611250D01*
X2794000Y-16637000D01*
X1754750Y-16637000D01*
X1596000Y-16795750D01*
X710000Y-16795750D01*
X710000Y-14509750D01*
X1596000Y-14509750D01*
X1596000Y-14975310D01*
X1692673Y-15208699D01*
X1850975Y-15367000D01*
X1692673Y-15525301D01*
X1596000Y-15758690D01*
X1596000Y-16224250D01*
X1754750Y-16383000D01*
X2794000Y-16383000D01*
X2794000Y-15408750D01*
X2752250Y-15367000D01*
X2794000Y-15325250D01*
X2794000Y-14351000D01*
X1754750Y-14351000D01*
X1596000Y-14509750D01*
X710000Y-14509750D01*
X710000Y-13472690D01*
X1596000Y-13472690D01*
X1596000Y-13938250D01*
X1754750Y-14097000D01*
X2794000Y-14097000D01*
X2794000Y-13122750D01*
X2635250Y-12964000D01*
X2104691Y-12964000D01*
X1871302Y-13060673D01*
X1692673Y-13239301D01*
X1596000Y-13472690D01*
X710000Y-13472690D01*
X710000Y-2586750D01*
X3818000Y-2586750D01*
X3818000Y-4002309D01*
X3914673Y-4235698D01*
X4093301Y-4414327D01*
X4326690Y-4511000D01*
X4667250Y-4511000D01*
X4826000Y-4352250D01*
X4826000Y-2428000D01*
X5080000Y-2428000D01*
X5080000Y-4352250D01*
X5238750Y-4511000D01*
X5579310Y-4511000D01*
X5812699Y-4414327D01*
X5991327Y-4235698D01*
X6088000Y-4002309D01*
X6088000Y-2586750D01*
X6358000Y-2586750D01*
X6358000Y-4002309D01*
X6454673Y-4235698D01*
X6633301Y-4414327D01*
X6866690Y-4511000D01*
X7207250Y-4511000D01*
X7366000Y-4352250D01*
X7366000Y-2428000D01*
X7620000Y-2428000D01*
X7620000Y-4352250D01*
X7778750Y-4511000D01*
X8119310Y-4511000D01*
X8352699Y-4414327D01*
X8531327Y-4235698D01*
X8628000Y-4002309D01*
X8628000Y-2586750D01*
X8898000Y-2586750D01*
X8898000Y-4002309D01*
X8994673Y-4235698D01*
X9173301Y-4414327D01*
X9406690Y-4511000D01*
X9747250Y-4511000D01*
X9906000Y-4352250D01*
X9906000Y-2428000D01*
X10160000Y-2428000D01*
X10160000Y-4352250D01*
X10318750Y-4511000D01*
X10659310Y-4511000D01*
X10892699Y-4414327D01*
X11071327Y-4235698D01*
X11168000Y-4002309D01*
X11168000Y-2586750D01*
X11438000Y-2586750D01*
X11438000Y-4002309D01*
X11534673Y-4235698D01*
X11713301Y-4414327D01*
X11946690Y-4511000D01*
X12287250Y-4511000D01*
X12446000Y-4352250D01*
X12446000Y-2428000D01*
X12700000Y-2428000D01*
X12700000Y-4352250D01*
X12858750Y-4511000D01*
X13199310Y-4511000D01*
X13432699Y-4414327D01*
X13611327Y-4235698D01*
X13708000Y-4002309D01*
X13708000Y-2586750D01*
X13978000Y-2586750D01*
X13978000Y-4002309D01*
X14074673Y-4235698D01*
X14253301Y-4414327D01*
X14486690Y-4511000D01*
X14827250Y-4511000D01*
X14986000Y-4352250D01*
X14986000Y-2428000D01*
X15240000Y-2428000D01*
X15240000Y-4352250D01*
X15398750Y-4511000D01*
X15739310Y-4511000D01*
X15972699Y-4414327D01*
X16151327Y-4235698D01*
X16248000Y-4002309D01*
X16248000Y-2586750D01*
X16518000Y-2586750D01*
X16518000Y-4002309D01*
X16614673Y-4235698D01*
X16793301Y-4414327D01*
X17026690Y-4511000D01*
X17367250Y-4511000D01*
X17526000Y-4352250D01*
X17526000Y-2428000D01*
X17780000Y-2428000D01*
X17780000Y-4352250D01*
X17938750Y-4511000D01*
X18279310Y-4511000D01*
X18512699Y-4414327D01*
X18691327Y-4235698D01*
X18788000Y-4002309D01*
X18788000Y-2586750D01*
X19058000Y-2586750D01*
X19058000Y-4002309D01*
X19154673Y-4235698D01*
X19333301Y-4414327D01*
X19566690Y-4511000D01*
X19907250Y-4511000D01*
X20066000Y-4352250D01*
X20066000Y-2428000D01*
X20320000Y-2428000D01*
X20320000Y-4352250D01*
X20478750Y-4511000D01*
X20819310Y-4511000D01*
X21052699Y-4414327D01*
X21231327Y-4235698D01*
X21328000Y-4002309D01*
X21328000Y-2586750D01*
X21598000Y-2586750D01*
X21598000Y-4002309D01*
X21694673Y-4235698D01*
X21873301Y-4414327D01*
X22106690Y-4511000D01*
X22447250Y-4511000D01*
X22606000Y-4352250D01*
X22606000Y-2428000D01*
X22860000Y-2428000D01*
X22860000Y-4352250D01*
X23018750Y-4511000D01*
X23359310Y-4511000D01*
X23592699Y-4414327D01*
X23771327Y-4235698D01*
X23868000Y-4002309D01*
X23868000Y-2586750D01*
X24138000Y-2586750D01*
X24138000Y-4002309D01*
X24234673Y-4235698D01*
X24413301Y-4414327D01*
X24646690Y-4511000D01*
X24987250Y-4511000D01*
X25146000Y-4352250D01*
X25146000Y-2428000D01*
X25400000Y-2428000D01*
X25400000Y-4352250D01*
X25558750Y-4511000D01*
X25899310Y-4511000D01*
X26132699Y-4414327D01*
X26311327Y-4235698D01*
X26408000Y-4002309D01*
X26408000Y-2586750D01*
X26678000Y-2586750D01*
X26678000Y-4002309D01*
X26774673Y-4235698D01*
X26953301Y-4414327D01*
X27186690Y-4511000D01*
X27527250Y-4511000D01*
X27686000Y-4352250D01*
X27686000Y-2428000D01*
X27940000Y-2428000D01*
X27940000Y-4352250D01*
X28098750Y-4511000D01*
X28439310Y-4511000D01*
X28672699Y-4414327D01*
X28851327Y-4235698D01*
X28948000Y-4002309D01*
X28948000Y-2586750D01*
X29218000Y-2586750D01*
X29218000Y-4002309D01*
X29314673Y-4235698D01*
X29493301Y-4414327D01*
X29726690Y-4511000D01*
X30067250Y-4511000D01*
X30226000Y-4352250D01*
X30226000Y-2428000D01*
X30480000Y-2428000D01*
X30480000Y-4352250D01*
X30638750Y-4511000D01*
X30979310Y-4511000D01*
X31212699Y-4414327D01*
X31391327Y-4235698D01*
X31488000Y-4002309D01*
X31488000Y-2586750D01*
X31758000Y-2586750D01*
X31758000Y-4002309D01*
X31854673Y-4235698D01*
X32033301Y-4414327D01*
X32266690Y-4511000D01*
X32607250Y-4511000D01*
X32766000Y-4352250D01*
X32766000Y-2428000D01*
X33020000Y-2428000D01*
X33020000Y-4352250D01*
X33178750Y-4511000D01*
X33519310Y-4511000D01*
X33752699Y-4414327D01*
X33931327Y-4235698D01*
X34028000Y-4002309D01*
X34028000Y-2586750D01*
X34298000Y-2586750D01*
X34298000Y-4002309D01*
X34394673Y-4235698D01*
X34573301Y-4414327D01*
X34806690Y-4511000D01*
X35147250Y-4511000D01*
X35306000Y-4352250D01*
X35306000Y-2428000D01*
X35560000Y-2428000D01*
X35560000Y-4352250D01*
X35718750Y-4511000D01*
X36059310Y-4511000D01*
X36292699Y-4414327D01*
X36471327Y-4235698D01*
X36568000Y-4002309D01*
X36568000Y-2586750D01*
X36838000Y-2586750D01*
X36838000Y-4002309D01*
X36934673Y-4235698D01*
X37113301Y-4414327D01*
X37346690Y-4511000D01*
X37687250Y-4511000D01*
X37846000Y-4352250D01*
X37846000Y-2428000D01*
X38100000Y-2428000D01*
X38100000Y-4352250D01*
X38258750Y-4511000D01*
X38599310Y-4511000D01*
X38832699Y-4414327D01*
X39011327Y-4235698D01*
X39108000Y-4002309D01*
X39108000Y-2586750D01*
X39378000Y-2586750D01*
X39378000Y-4002309D01*
X39474673Y-4235698D01*
X39653301Y-4414327D01*
X39886690Y-4511000D01*
X40227250Y-4511000D01*
X40386000Y-4352250D01*
X40386000Y-2428000D01*
X40640000Y-2428000D01*
X40640000Y-4352250D01*
X40798750Y-4511000D01*
X41139310Y-4511000D01*
X41372699Y-4414327D01*
X41551327Y-4235698D01*
X41648000Y-4002309D01*
X41648000Y-2586750D01*
X41489250Y-2428000D01*
X40640000Y-2428000D01*
X40386000Y-2428000D01*
X39536750Y-2428000D01*
X39378000Y-2586750D01*
X39108000Y-2586750D01*
X38949250Y-2428000D01*
X38100000Y-2428000D01*
X37846000Y-2428000D01*
X36996750Y-2428000D01*
X36838000Y-2586750D01*
X36568000Y-2586750D01*
X36409250Y-2428000D01*
X35560000Y-2428000D01*
X35306000Y-2428000D01*
X34456750Y-2428000D01*
X34298000Y-2586750D01*
X34028000Y-2586750D01*
X33869250Y-2428000D01*
X33020000Y-2428000D01*
X32766000Y-2428000D01*
X31916750Y-2428000D01*
X31758000Y-2586750D01*
X31488000Y-2586750D01*
X31329250Y-2428000D01*
X30480000Y-2428000D01*
X30226000Y-2428000D01*
X29376750Y-2428000D01*
X29218000Y-2586750D01*
X28948000Y-2586750D01*
X28789250Y-2428000D01*
X27940000Y-2428000D01*
X27686000Y-2428000D01*
X26836750Y-2428000D01*
X26678000Y-2586750D01*
X26408000Y-2586750D01*
X26249250Y-2428000D01*
X25400000Y-2428000D01*
X25146000Y-2428000D01*
X24296750Y-2428000D01*
X24138000Y-2586750D01*
X23868000Y-2586750D01*
X23709250Y-2428000D01*
X22860000Y-2428000D01*
X22606000Y-2428000D01*
X21756750Y-2428000D01*
X21598000Y-2586750D01*
X21328000Y-2586750D01*
X21169250Y-2428000D01*
X20320000Y-2428000D01*
X20066000Y-2428000D01*
X19216750Y-2428000D01*
X19058000Y-2586750D01*
X18788000Y-2586750D01*
X18629250Y-2428000D01*
X17780000Y-2428000D01*
X17526000Y-2428000D01*
X16676750Y-2428000D01*
X16518000Y-2586750D01*
X16248000Y-2586750D01*
X16089250Y-2428000D01*
X15240000Y-2428000D01*
X14986000Y-2428000D01*
X14136750Y-2428000D01*
X13978000Y-2586750D01*
X13708000Y-2586750D01*
X13549250Y-2428000D01*
X12700000Y-2428000D01*
X12446000Y-2428000D01*
X11596750Y-2428000D01*
X11438000Y-2586750D01*
X11168000Y-2586750D01*
X11009250Y-2428000D01*
X10160000Y-2428000D01*
X9906000Y-2428000D01*
X9056750Y-2428000D01*
X8898000Y-2586750D01*
X8628000Y-2586750D01*
X8469250Y-2428000D01*
X7620000Y-2428000D01*
X7366000Y-2428000D01*
X6516750Y-2428000D01*
X6358000Y-2586750D01*
X6088000Y-2586750D01*
X5929250Y-2428000D01*
X5080000Y-2428000D01*
X4826000Y-2428000D01*
X3976750Y-2428000D01*
X3818000Y-2586750D01*
X710000Y-2586750D01*
X710000Y-710000D01*
X3818000Y-710000D01*
X3818000Y-2015250D01*
X3818000Y-2015250D01*
G37*
X3818000Y-2015250D02*
X3976750Y-2174000D01*
X4826000Y-2174000D01*
X4826000Y-2154000D01*
X5080000Y-2154000D01*
X5080000Y-2174000D01*
X5929250Y-2174000D01*
X6088000Y-2015250D01*
X6088000Y-710000D01*
X6358000Y-710000D01*
X6358000Y-2015250D01*
X6516750Y-2174000D01*
X7366000Y-2174000D01*
X7366000Y-2154000D01*
X7620000Y-2154000D01*
X7620000Y-2174000D01*
X8469250Y-2174000D01*
X8628000Y-2015250D01*
X8628000Y-710000D01*
X8898000Y-710000D01*
X8898000Y-2015250D01*
X9056750Y-2174000D01*
X9906000Y-2174000D01*
X9906000Y-2154000D01*
X10160000Y-2154000D01*
X10160000Y-2174000D01*
X11009250Y-2174000D01*
X11168000Y-2015250D01*
X11168000Y-710000D01*
X11438000Y-710000D01*
X11438000Y-2015250D01*
X11596750Y-2174000D01*
X12446000Y-2174000D01*
X12446000Y-2154000D01*
X12700000Y-2154000D01*
X12700000Y-2174000D01*
X13549250Y-2174000D01*
X13708000Y-2015250D01*
X13708000Y-710000D01*
X13978000Y-710000D01*
X13978000Y-2015250D01*
X14136750Y-2174000D01*
X14986000Y-2174000D01*
X14986000Y-2154000D01*
X15240000Y-2154000D01*
X15240000Y-2174000D01*
X16089250Y-2174000D01*
X16248000Y-2015250D01*
X16248000Y-710000D01*
X16518000Y-710000D01*
X16518000Y-2015250D01*
X16676750Y-2174000D01*
X17526000Y-2174000D01*
X17526000Y-2154000D01*
X17780000Y-2154000D01*
X17780000Y-2174000D01*
X18629250Y-2174000D01*
X18788000Y-2015250D01*
X18788000Y-710000D01*
X19058000Y-710000D01*
X19058000Y-2015250D01*
X19216750Y-2174000D01*
X20066000Y-2174000D01*
X20066000Y-2154000D01*
X20320000Y-2154000D01*
X20320000Y-2174000D01*
X21169250Y-2174000D01*
X21328000Y-2015250D01*
X21328000Y-710000D01*
X21598000Y-710000D01*
X21598000Y-2015250D01*
X21756750Y-2174000D01*
X22606000Y-2174000D01*
X22606000Y-2154000D01*
X22860000Y-2154000D01*
X22860000Y-2174000D01*
X23709250Y-2174000D01*
X23868000Y-2015250D01*
X23868000Y-710000D01*
X24138000Y-710000D01*
X24138000Y-2015250D01*
X24296750Y-2174000D01*
X25146000Y-2174000D01*
X25146000Y-2154000D01*
X25400000Y-2154000D01*
X25400000Y-2174000D01*
X26249250Y-2174000D01*
X26408000Y-2015250D01*
X26408000Y-710000D01*
X26678000Y-710000D01*
X26678000Y-2015250D01*
X26836750Y-2174000D01*
X27686000Y-2174000D01*
X27686000Y-2154000D01*
X27940000Y-2154000D01*
X27940000Y-2174000D01*
X28789250Y-2174000D01*
X28948000Y-2015250D01*
X28948000Y-710000D01*
X29218000Y-710000D01*
X29218000Y-2015250D01*
X29376750Y-2174000D01*
X30226000Y-2174000D01*
X30226000Y-2154000D01*
X30480000Y-2154000D01*
X30480000Y-2174000D01*
X31329250Y-2174000D01*
X31488000Y-2015250D01*
X31488000Y-710000D01*
X31758000Y-710000D01*
X31758000Y-2015250D01*
X31916750Y-2174000D01*
X32766000Y-2174000D01*
X32766000Y-2154000D01*
X33020000Y-2154000D01*
X33020000Y-2174000D01*
X33869250Y-2174000D01*
X34028000Y-2015250D01*
X34028000Y-710000D01*
X34298000Y-710000D01*
X34298000Y-2015250D01*
X34456750Y-2174000D01*
X35306000Y-2174000D01*
X35306000Y-2154000D01*
X35560000Y-2154000D01*
X35560000Y-2174000D01*
X36409250Y-2174000D01*
X36568000Y-2015250D01*
X36568000Y-710000D01*
X36838000Y-710000D01*
X36838000Y-2015250D01*
X36996750Y-2174000D01*
X37846000Y-2174000D01*
X37846000Y-2154000D01*
X38100000Y-2154000D01*
X38100000Y-2174000D01*
X38949250Y-2174000D01*
X39108000Y-2015250D01*
X39108000Y-710000D01*
X39378000Y-710000D01*
X39378000Y-2015250D01*
X39536750Y-2174000D01*
X40386000Y-2174000D01*
X40386000Y-2154000D01*
X40640000Y-2154000D01*
X40640000Y-2174000D01*
X41489250Y-2174000D01*
X41648000Y-2015250D01*
X41648000Y-710000D01*
X44375000Y-710000D01*
X44375000Y-17795451D01*
X44275000Y-17775560D01*
X41275000Y-17775560D01*
X41027235Y-17824843D01*
X40966936Y-17865134D01*
X36751331Y-13649530D01*
X36708929Y-13586071D01*
X36457537Y-13418096D01*
X36235852Y-13374000D01*
X36235847Y-13374000D01*
X36161000Y-13359112D01*
X36086153Y-13374000D01*
X30132847Y-13374000D01*
X30058000Y-13359112D01*
X30049440Y-13360815D01*
X30049440Y-13030700D01*
X37418753Y-13030700D01*
X37493600Y-13045588D01*
X37568447Y-13030700D01*
X37568452Y-13030700D01*
X37790137Y-12986604D01*
X38041529Y-12818629D01*
X38083931Y-12755170D01*
X40997476Y-9841627D01*
X41060929Y-9799229D01*
X41103327Y-9735776D01*
X41103329Y-9735774D01*
X41199348Y-9592071D01*
X41228904Y-9547837D01*
X41232496Y-9529780D01*
X41260765Y-9524157D01*
X41470809Y-9383809D01*
X41611157Y-9173765D01*
X41660440Y-8926000D01*
X41660440Y-5776000D01*
X41611157Y-5528235D01*
X41470809Y-5318191D01*
X41260765Y-5177843D01*
X41013000Y-5128560D01*
X40013000Y-5128560D01*
X39765235Y-5177843D01*
X39555191Y-5318191D01*
X39414843Y-5528235D01*
X39365560Y-5776000D01*
X39365560Y-8926000D01*
X39414843Y-9173765D01*
X39455254Y-9234244D01*
X38784555Y-9904943D01*
X38733000Y-9780477D01*
X38733000Y-9515982D01*
X38930809Y-9383809D01*
X39071157Y-9173765D01*
X39120440Y-8926000D01*
X39120440Y-5776000D01*
X39071157Y-5528235D01*
X38930809Y-5318191D01*
X38720765Y-5177843D01*
X38473000Y-5128560D01*
X37473000Y-5128560D01*
X37225235Y-5177843D01*
X37015191Y-5318191D01*
X36874843Y-5528235D01*
X36825560Y-5776000D01*
X36825560Y-8926000D01*
X36874843Y-9173765D01*
X37015191Y-9383809D01*
X37213000Y-9515982D01*
X37213000Y-9522110D01*
X37091145Y-9643965D01*
X36948800Y-9987617D01*
X36948800Y-10359583D01*
X37091145Y-10703235D01*
X37354165Y-10966255D01*
X37615143Y-11074355D01*
X37178799Y-11510700D01*
X34248401Y-11510700D01*
X35917476Y-9841627D01*
X35980929Y-9799229D01*
X36023327Y-9735776D01*
X36023329Y-9735774D01*
X36119348Y-9592071D01*
X36148904Y-9547837D01*
X36152496Y-9529780D01*
X36180765Y-9524157D01*
X36390809Y-9383809D01*
X36531157Y-9173765D01*
X36580440Y-8926000D01*
X36580440Y-5776000D01*
X36531157Y-5528235D01*
X36390809Y-5318191D01*
X36180765Y-5177843D01*
X35933000Y-5128560D01*
X34933000Y-5128560D01*
X34685235Y-5177843D01*
X34475191Y-5318191D01*
X34334843Y-5528235D01*
X34285560Y-5776000D01*
X34285560Y-8926000D01*
X34334843Y-9173765D01*
X34375254Y-9234244D01*
X33179599Y-10429900D01*
X32789202Y-10429900D01*
X33377473Y-9841629D01*
X33440929Y-9799229D01*
X33608904Y-9547837D01*
X33612496Y-9529780D01*
X33640765Y-9524157D01*
X33850809Y-9383809D01*
X33991157Y-9173765D01*
X34040440Y-8926000D01*
X34040440Y-5776000D01*
X33991157Y-5528235D01*
X33850809Y-5318191D01*
X33640765Y-5177843D01*
X33393000Y-5128560D01*
X32393000Y-5128560D01*
X32145235Y-5177843D01*
X31935191Y-5318191D01*
X31794843Y-5528235D01*
X31745560Y-5776000D01*
X31745560Y-8926000D01*
X31794843Y-9173765D01*
X31835254Y-9234244D01*
X31089999Y-9979500D01*
X30587721Y-9979500D01*
X30649537Y-9967204D01*
X30900929Y-9799229D01*
X31068904Y-9547837D01*
X31072496Y-9529780D01*
X31100765Y-9524157D01*
X31310809Y-9383809D01*
X31451157Y-9173765D01*
X31500440Y-8926000D01*
X31500440Y-5776000D01*
X31451157Y-5528235D01*
X31310809Y-5318191D01*
X31100765Y-5177843D01*
X30853000Y-5128560D01*
X29853000Y-5128560D01*
X29605235Y-5177843D01*
X29395191Y-5318191D01*
X29254843Y-5528235D01*
X29205560Y-5776000D01*
X29205560Y-8491300D01*
X28960440Y-8491300D01*
X28960440Y-5776000D01*
X28911157Y-5528235D01*
X28770809Y-5318191D01*
X28560765Y-5177843D01*
X28313000Y-5128560D01*
X27313000Y-5128560D01*
X27065235Y-5177843D01*
X26855191Y-5318191D01*
X26714843Y-5528235D01*
X26665560Y-5776000D01*
X26665560Y-7423638D01*
X26420440Y-7668758D01*
X26420440Y-5776000D01*
X26371157Y-5528235D01*
X26230809Y-5318191D01*
X26020765Y-5177843D01*
X25773000Y-5128560D01*
X24773000Y-5128560D01*
X24525235Y-5177843D01*
X24315191Y-5318191D01*
X24174843Y-5528235D01*
X24125560Y-5776000D01*
X24125560Y-8926000D01*
X24174843Y-9173765D01*
X24215254Y-9234244D01*
X22781501Y-10667998D01*
X22708252Y-10667998D01*
X22867000Y-10509250D01*
X22867000Y-10293690D01*
X22770327Y-10060301D01*
X22591698Y-9881673D01*
X22358309Y-9785000D01*
X22117750Y-9785000D01*
X21959000Y-9943750D01*
X21959000Y-10668000D01*
X21979000Y-10668000D01*
X21979000Y-10922000D01*
X21959000Y-10922000D01*
X21959000Y-10942000D01*
X21705000Y-10942000D01*
X21705000Y-10922000D01*
X21685000Y-10922000D01*
X21685000Y-10668000D01*
X21705000Y-10668000D01*
X21705000Y-9943750D01*
X21546250Y-9785000D01*
X21305691Y-9785000D01*
X21072302Y-9881673D01*
X21071102Y-9882873D01*
X20979765Y-9821843D01*
X20755611Y-9777256D01*
X20908904Y-9547837D01*
X20912496Y-9529780D01*
X20940765Y-9524157D01*
X21150809Y-9383809D01*
X21291157Y-9173765D01*
X21340440Y-8926000D01*
X21340440Y-6210700D01*
X21585560Y-6210700D01*
X21585560Y-8926000D01*
X21634843Y-9173765D01*
X21775191Y-9383809D01*
X21985235Y-9524157D01*
X22233000Y-9573440D01*
X23233000Y-9573440D01*
X23480765Y-9524157D01*
X23690809Y-9383809D01*
X23831157Y-9173765D01*
X23880440Y-8926000D01*
X23880440Y-5776000D01*
X23831157Y-5528235D01*
X23690809Y-5318191D01*
X23480765Y-5177843D01*
X23452496Y-5172220D01*
X23448904Y-5154163D01*
X23280929Y-4902771D01*
X23029537Y-4734796D01*
X22807852Y-4690700D01*
X22733000Y-4675811D01*
X22658148Y-4690700D01*
X19565746Y-4690700D01*
X19490899Y-4675812D01*
X19416052Y-4690700D01*
X19416048Y-4690700D01*
X19194363Y-4734796D01*
X18942971Y-4902771D01*
X18900571Y-4966227D01*
X18573522Y-5293276D01*
X18400765Y-5177843D01*
X18153000Y-5128560D01*
X17153000Y-5128560D01*
X16905235Y-5177843D01*
X16695191Y-5318191D01*
X16554843Y-5528235D01*
X16505560Y-5776000D01*
X16505560Y-8926000D01*
X16554843Y-9173765D01*
X16695191Y-9383809D01*
X16893001Y-9515982D01*
X16893000Y-13362499D01*
X15873000Y-12342499D01*
X15873000Y-9515982D01*
X16070809Y-9383809D01*
X16211157Y-9173765D01*
X16260440Y-8926000D01*
X16260440Y-5776000D01*
X16211157Y-5528235D01*
X16070809Y-5318191D01*
X15860765Y-5177843D01*
X15613000Y-5128560D01*
X14613000Y-5128560D01*
X14365235Y-5177843D01*
X14155191Y-5318191D01*
X14014843Y-5528235D01*
X13965560Y-5776000D01*
X13965560Y-8926000D01*
X14014843Y-9173765D01*
X14155191Y-9383809D01*
X14353001Y-9515982D01*
X14353000Y-11486799D01*
X13333000Y-10466799D01*
X13333000Y-9515982D01*
X13530809Y-9383809D01*
X13671157Y-9173765D01*
X13720440Y-8926000D01*
X13720440Y-5776000D01*
X13671157Y-5528235D01*
X13530809Y-5318191D01*
X13320765Y-5177843D01*
X13073000Y-5128560D01*
X12073000Y-5128560D01*
X11825235Y-5177843D01*
X11615191Y-5318191D01*
X11474843Y-5528235D01*
X11425560Y-5776000D01*
X11425560Y-8926000D01*
X11474843Y-9173765D01*
X11615191Y-9383809D01*
X11813000Y-9515982D01*
X11813000Y-9956499D01*
X11090746Y-9234245D01*
X11131157Y-9173765D01*
X11180440Y-8926000D01*
X11180440Y-5776000D01*
X11131157Y-5528235D01*
X10990809Y-5318191D01*
X10780765Y-5177843D01*
X10533000Y-5128560D01*
X9533000Y-5128560D01*
X9285235Y-5177843D01*
X9075191Y-5318191D01*
X8934843Y-5528235D01*
X8885560Y-5776000D01*
X8885560Y-8926000D01*
X8934843Y-9173765D01*
X9075191Y-9383809D01*
X9285235Y-9524157D01*
X9313505Y-9529780D01*
X9317097Y-9547837D01*
X9485072Y-9799229D01*
X9548528Y-9841629D01*
X16992898Y-17286000D01*
X16602502Y-17286000D01*
X8550746Y-9234245D01*
X8591157Y-9173765D01*
X8640440Y-8926000D01*
X8640440Y-5776000D01*
X8591157Y-5528235D01*
X8450809Y-5318191D01*
X8240765Y-5177843D01*
X7993000Y-5128560D01*
X6993000Y-5128560D01*
X6745235Y-5177843D01*
X6535191Y-5318191D01*
X6394843Y-5528235D01*
X6345560Y-5776000D01*
X6345560Y-8926000D01*
X6394843Y-9173765D01*
X6535191Y-9383809D01*
X6745235Y-9524157D01*
X6773505Y-9529780D01*
X6777097Y-9547837D01*
X6945072Y-9799229D01*
X7008528Y-9841629D01*
X14952898Y-17786000D01*
X14562502Y-17786000D01*
X6010746Y-9234245D01*
X6051157Y-9173765D01*
X6100440Y-8926000D01*
X6100440Y-5776000D01*
X6051157Y-5528235D01*
X5910809Y-5318191D01*
X5700765Y-5177843D01*
X5453000Y-5128560D01*
X4453000Y-5128560D01*
X4205235Y-5177843D01*
X3995191Y-5318191D01*
X3854843Y-5528235D01*
X3805560Y-5776000D01*
X3805560Y-8926000D01*
X3854843Y-9173765D01*
X3995191Y-9383809D01*
X4205235Y-9524157D01*
X4233505Y-9529780D01*
X4237097Y-9547837D01*
X4405072Y-9799229D01*
X4468528Y-9841629D01*
X12912898Y-18286000D01*
X11867802Y-18286000D01*
X7321331Y-13739530D01*
X7278929Y-13676071D01*
X7027537Y-13508096D01*
X6805852Y-13464000D01*
X6805847Y-13464000D01*
X6731000Y-13449112D01*
X6656153Y-13464000D01*
X5851587Y-13464000D01*
X5829157Y-13351235D01*
X5688809Y-13141191D01*
X5478765Y-13000843D01*
X5231000Y-12951560D01*
X3851000Y-12951560D01*
X3753903Y-12970874D01*
X3737309Y-12964000D01*
X3206750Y-12964000D01*
X3048000Y-13122750D01*
X3048000Y-14097000D01*
X3068000Y-14097000D01*
X3068000Y-14351000D01*
X3048000Y-14351000D01*
X3048000Y-15325250D01*
X3089750Y-15367000D01*
X3048000Y-15408750D01*
X3048000Y-16383000D01*
X3068000Y-16383000D01*
X3068000Y-16637000D01*
X3048000Y-16637000D01*
X3048000Y-17611250D01*
X3089750Y-17653000D01*
X3048000Y-17694750D01*
X3048000Y-18669000D01*
X3068000Y-18669000D01*
X3068000Y-18923000D01*
X3048000Y-18923000D01*
X3048000Y-19897250D01*
X3206750Y-20056000D01*
X3737309Y-20056000D01*
X3753903Y-20049126D01*
X3851000Y-20068440D01*
X3892518Y-20068440D01*
X3993071Y-20218929D01*
X4056530Y-20261331D01*
X4325669Y-20530470D01*
X4359717Y-20581426D01*
X3882375Y-20900375D01*
X3870184Y-20918619D01*
X3861157Y-20873235D01*
X3720809Y-20663191D01*
X3510765Y-20522843D01*
X3263000Y-20473560D01*
X1563000Y-20473560D01*
X1315235Y-20522843D01*
X1105191Y-20663191D01*
X964843Y-20873235D01*
X915560Y-21121000D01*
X915560Y-22821000D01*
X964843Y-23068765D01*
X1105191Y-23278809D01*
X1315235Y-23419157D01*
X1563000Y-23468440D01*
X3263000Y-23468440D01*
X3510765Y-23419157D01*
X3720809Y-23278809D01*
X3861157Y-23068765D01*
X3870184Y-23023381D01*
X3882375Y-23041625D01*
X4373582Y-23369839D01*
X4806744Y-23456000D01*
X5099256Y-23456000D01*
X5112981Y-23453270D01*
X6064710Y-24405000D01*
X5543691Y-24405000D01*
X5520000Y-24414813D01*
X5496309Y-24405000D01*
X2193691Y-24405000D01*
X1960302Y-24501673D01*
X1781673Y-24680301D01*
X1685000Y-24913690D01*
X1685000Y-27916310D01*
X1694813Y-27940000D01*
X1685000Y-27963690D01*
X1685000Y-30966310D01*
X1781673Y-31199699D01*
X1960302Y-31378327D01*
X2193691Y-31475000D01*
X5496309Y-31475000D01*
X5520000Y-31465187D01*
X5543691Y-31475000D01*
X8846309Y-31475000D01*
X9079698Y-31378327D01*
X9258327Y-31199699D01*
X9355000Y-30966310D01*
X9355000Y-27963690D01*
X9345187Y-27940000D01*
X9355000Y-27916310D01*
X9355000Y-26117431D01*
X9493832Y-26256167D01*
X9545903Y-26334097D01*
X9624105Y-26386350D01*
X9624220Y-26386465D01*
X9700438Y-26437354D01*
X9855181Y-26540750D01*
X9855347Y-26540783D01*
X9855486Y-26540876D01*
X10037676Y-26577051D01*
X10127914Y-26595000D01*
X10128077Y-26595000D01*
X10188095Y-26606917D01*
X10262191Y-26717809D01*
X10472235Y-26858157D01*
X10720000Y-26907440D01*
X12920000Y-26907440D01*
X13167765Y-26858157D01*
X13377809Y-26717809D01*
X13518157Y-26507765D01*
X13567440Y-26260000D01*
X13567440Y-25060000D01*
X13518157Y-24812235D01*
X13377809Y-24602191D01*
X13167765Y-24461843D01*
X12920000Y-24412560D01*
X10720000Y-24412560D01*
X10472235Y-24461843D01*
X10395242Y-24513288D01*
X9499170Y-23617836D01*
X9447097Y-23539903D01*
X9368892Y-23487648D01*
X9368779Y-23487535D01*
X9293893Y-23437535D01*
X9137819Y-23333250D01*
X9137652Y-23333217D01*
X9137513Y-23333124D01*
X8955602Y-23297005D01*
X8865086Y-23279000D01*
X8864923Y-23279000D01*
X8772671Y-23260683D01*
X8680751Y-23279000D01*
X8208368Y-23279000D01*
X8563625Y-23041625D01*
X8763000Y-22743239D01*
X8962375Y-23041625D01*
X9453582Y-23369839D01*
X9886744Y-23456000D01*
X10179256Y-23456000D01*
X10612418Y-23369839D01*
X11103625Y-23041625D01*
X11316843Y-22722522D01*
X11377817Y-22852358D01*
X11806076Y-23242645D01*
X12216110Y-23412476D01*
X12446000Y-23291155D01*
X12446000Y-22098000D01*
X12700000Y-22098000D01*
X12700000Y-23291155D01*
X12929890Y-23412476D01*
X13339924Y-23242645D01*
X13768183Y-22852358D01*
X14014486Y-22327892D01*
X13893819Y-22098000D01*
X12700000Y-22098000D01*
X12446000Y-22098000D01*
X12426000Y-22098000D01*
X12426000Y-21844000D01*
X12446000Y-21844000D01*
X12446000Y-21824000D01*
X12700000Y-21824000D01*
X12700000Y-21844000D01*
X13893819Y-21844000D01*
X14014486Y-21614108D01*
X13768183Y-21089642D01*
X13456945Y-20806000D01*
X18702435Y-20806000D01*
X18679560Y-20921000D01*
X18679560Y-21171000D01*
X18704424Y-21296000D01*
X18679560Y-21421000D01*
X18679560Y-21671000D01*
X18704424Y-21796000D01*
X18679560Y-21921000D01*
X18679560Y-22171000D01*
X18704424Y-22296000D01*
X18679560Y-22421000D01*
X18679560Y-22671000D01*
X18701242Y-22780005D01*
X18579500Y-23073917D01*
X18579500Y-23120098D01*
X17803530Y-23896069D01*
X17740071Y-23938471D01*
X17572096Y-24189864D01*
X17528000Y-24411549D01*
X17528000Y-24411553D01*
X17513112Y-24486400D01*
X17528000Y-24561247D01*
X17528001Y-26058962D01*
X17347509Y-25984200D01*
X17278350Y-25984200D01*
X17119600Y-26142950D01*
X17119600Y-27101800D01*
X17165000Y-27101800D01*
X17165000Y-27355800D01*
X17119600Y-27355800D01*
X17119600Y-27375800D01*
X16916400Y-27375800D01*
X16916400Y-27355800D01*
X16871000Y-27355800D01*
X16871000Y-27101800D01*
X16916400Y-27101800D01*
X16916400Y-26142950D01*
X16757650Y-25984200D01*
X16688491Y-25984200D01*
X16455102Y-26080873D01*
X16388373Y-26147602D01*
X16198965Y-26021043D01*
X15951200Y-25971760D01*
X15544800Y-25971760D01*
X15297035Y-26021043D01*
X15086991Y-26161391D01*
X14946643Y-26371435D01*
X14897360Y-26619200D01*
X14897360Y-27838400D01*
X14946643Y-28086165D01*
X15086991Y-28296209D01*
X15218678Y-28384200D01*
X14413186Y-28384200D01*
X14321100Y-28365883D01*
X14229014Y-28384200D01*
X13956281Y-28438450D01*
X13647003Y-28645103D01*
X13594839Y-28723172D01*
X13244737Y-29073274D01*
X13167765Y-29021843D01*
X12920000Y-28972560D01*
X10720000Y-28972560D01*
X10472235Y-29021843D01*
X10262191Y-29162191D01*
X10121843Y-29372235D01*
X10072560Y-29620000D01*
X10072560Y-30820000D01*
X10121843Y-31067765D01*
X10181004Y-31156306D01*
X10117145Y-31220165D01*
X10117144Y-31220167D01*
X9482794Y-31854517D01*
X9421547Y-31866700D01*
X4159461Y-31866700D01*
X4072300Y-31849363D01*
X3985139Y-31866700D01*
X3985135Y-31866700D01*
X3761694Y-31911145D01*
X3726990Y-31918048D01*
X3508145Y-32064276D01*
X3508144Y-32064277D01*
X3434251Y-32113651D01*
X3384877Y-32187544D01*
X3230775Y-32341646D01*
X2984000Y-32292560D01*
X2634000Y-32292560D01*
X2496368Y-32319936D01*
X2460309Y-32305000D01*
X2405250Y-32305000D01*
X2332506Y-32377744D01*
X2176191Y-32482191D01*
X2159000Y-32507919D01*
X2141809Y-32482191D01*
X1985494Y-32377744D01*
X1912750Y-32305000D01*
X1857691Y-32305000D01*
X1821632Y-32319936D01*
X1684000Y-32292560D01*
X1334000Y-32292560D01*
X1086235Y-32341843D01*
X876191Y-32482191D01*
X735843Y-32692235D01*
X710000Y-32822158D01*
X710000Y-19081750D01*
X1596000Y-19081750D01*
X1596000Y-19547310D01*
X1692673Y-19780699D01*
X1871302Y-19959327D01*
X2104691Y-20056000D01*
X2635250Y-20056000D01*
X2794000Y-19897250D01*
X2794000Y-18923000D01*
X1754750Y-18923000D01*
X1596000Y-19081750D01*
X710000Y-19081750D01*
X710000Y-16795750D01*
X1596000Y-16795750D01*
X1596000Y-17261310D01*
X1692673Y-17494699D01*
X1850975Y-17653000D01*
X1692673Y-17811301D01*
X1596000Y-18044690D01*
X1596000Y-18510250D01*
X1754750Y-18669000D01*
X2794000Y-18669000D01*
X2794000Y-17694750D01*
X2752250Y-17653000D01*
X2794000Y-17611250D01*
X2794000Y-16637000D01*
X1754750Y-16637000D01*
X1596000Y-16795750D01*
X710000Y-16795750D01*
X710000Y-14509750D01*
X1596000Y-14509750D01*
X1596000Y-14975310D01*
X1692673Y-15208699D01*
X1850975Y-15367000D01*
X1692673Y-15525301D01*
X1596000Y-15758690D01*
X1596000Y-16224250D01*
X1754750Y-16383000D01*
X2794000Y-16383000D01*
X2794000Y-15408750D01*
X2752250Y-15367000D01*
X2794000Y-15325250D01*
X2794000Y-14351000D01*
X1754750Y-14351000D01*
X1596000Y-14509750D01*
X710000Y-14509750D01*
X710000Y-13472690D01*
X1596000Y-13472690D01*
X1596000Y-13938250D01*
X1754750Y-14097000D01*
X2794000Y-14097000D01*
X2794000Y-13122750D01*
X2635250Y-12964000D01*
X2104691Y-12964000D01*
X1871302Y-13060673D01*
X1692673Y-13239301D01*
X1596000Y-13472690D01*
X710000Y-13472690D01*
X710000Y-2586750D01*
X3818000Y-2586750D01*
X3818000Y-4002309D01*
X3914673Y-4235698D01*
X4093301Y-4414327D01*
X4326690Y-4511000D01*
X4667250Y-4511000D01*
X4826000Y-4352250D01*
X4826000Y-2428000D01*
X5080000Y-2428000D01*
X5080000Y-4352250D01*
X5238750Y-4511000D01*
X5579310Y-4511000D01*
X5812699Y-4414327D01*
X5991327Y-4235698D01*
X6088000Y-4002309D01*
X6088000Y-2586750D01*
X6358000Y-2586750D01*
X6358000Y-4002309D01*
X6454673Y-4235698D01*
X6633301Y-4414327D01*
X6866690Y-4511000D01*
X7207250Y-4511000D01*
X7366000Y-4352250D01*
X7366000Y-2428000D01*
X7620000Y-2428000D01*
X7620000Y-4352250D01*
X7778750Y-4511000D01*
X8119310Y-4511000D01*
X8352699Y-4414327D01*
X8531327Y-4235698D01*
X8628000Y-4002309D01*
X8628000Y-2586750D01*
X8898000Y-2586750D01*
X8898000Y-4002309D01*
X8994673Y-4235698D01*
X9173301Y-4414327D01*
X9406690Y-4511000D01*
X9747250Y-4511000D01*
X9906000Y-4352250D01*
X9906000Y-2428000D01*
X10160000Y-2428000D01*
X10160000Y-4352250D01*
X10318750Y-4511000D01*
X10659310Y-4511000D01*
X10892699Y-4414327D01*
X11071327Y-4235698D01*
X11168000Y-4002309D01*
X11168000Y-2586750D01*
X11438000Y-2586750D01*
X11438000Y-4002309D01*
X11534673Y-4235698D01*
X11713301Y-4414327D01*
X11946690Y-4511000D01*
X12287250Y-4511000D01*
X12446000Y-4352250D01*
X12446000Y-2428000D01*
X12700000Y-2428000D01*
X12700000Y-4352250D01*
X12858750Y-4511000D01*
X13199310Y-4511000D01*
X13432699Y-4414327D01*
X13611327Y-4235698D01*
X13708000Y-4002309D01*
X13708000Y-2586750D01*
X13978000Y-2586750D01*
X13978000Y-4002309D01*
X14074673Y-4235698D01*
X14253301Y-4414327D01*
X14486690Y-4511000D01*
X14827250Y-4511000D01*
X14986000Y-4352250D01*
X14986000Y-2428000D01*
X15240000Y-2428000D01*
X15240000Y-4352250D01*
X15398750Y-4511000D01*
X15739310Y-4511000D01*
X15972699Y-4414327D01*
X16151327Y-4235698D01*
X16248000Y-4002309D01*
X16248000Y-2586750D01*
X16518000Y-2586750D01*
X16518000Y-4002309D01*
X16614673Y-4235698D01*
X16793301Y-4414327D01*
X17026690Y-4511000D01*
X17367250Y-4511000D01*
X17526000Y-4352250D01*
X17526000Y-2428000D01*
X17780000Y-2428000D01*
X17780000Y-4352250D01*
X17938750Y-4511000D01*
X18279310Y-4511000D01*
X18512699Y-4414327D01*
X18691327Y-4235698D01*
X18788000Y-4002309D01*
X18788000Y-2586750D01*
X19058000Y-2586750D01*
X19058000Y-4002309D01*
X19154673Y-4235698D01*
X19333301Y-4414327D01*
X19566690Y-4511000D01*
X19907250Y-4511000D01*
X20066000Y-4352250D01*
X20066000Y-2428000D01*
X20320000Y-2428000D01*
X20320000Y-4352250D01*
X20478750Y-4511000D01*
X20819310Y-4511000D01*
X21052699Y-4414327D01*
X21231327Y-4235698D01*
X21328000Y-4002309D01*
X21328000Y-2586750D01*
X21598000Y-2586750D01*
X21598000Y-4002309D01*
X21694673Y-4235698D01*
X21873301Y-4414327D01*
X22106690Y-4511000D01*
X22447250Y-4511000D01*
X22606000Y-4352250D01*
X22606000Y-2428000D01*
X22860000Y-2428000D01*
X22860000Y-4352250D01*
X23018750Y-4511000D01*
X23359310Y-4511000D01*
X23592699Y-4414327D01*
X23771327Y-4235698D01*
X23868000Y-4002309D01*
X23868000Y-2586750D01*
X24138000Y-2586750D01*
X24138000Y-4002309D01*
X24234673Y-4235698D01*
X24413301Y-4414327D01*
X24646690Y-4511000D01*
X24987250Y-4511000D01*
X25146000Y-4352250D01*
X25146000Y-2428000D01*
X25400000Y-2428000D01*
X25400000Y-4352250D01*
X25558750Y-4511000D01*
X25899310Y-4511000D01*
X26132699Y-4414327D01*
X26311327Y-4235698D01*
X26408000Y-4002309D01*
X26408000Y-2586750D01*
X26678000Y-2586750D01*
X26678000Y-4002309D01*
X26774673Y-4235698D01*
X26953301Y-4414327D01*
X27186690Y-4511000D01*
X27527250Y-4511000D01*
X27686000Y-4352250D01*
X27686000Y-2428000D01*
X27940000Y-2428000D01*
X27940000Y-4352250D01*
X28098750Y-4511000D01*
X28439310Y-4511000D01*
X28672699Y-4414327D01*
X28851327Y-4235698D01*
X28948000Y-4002309D01*
X28948000Y-2586750D01*
X29218000Y-2586750D01*
X29218000Y-4002309D01*
X29314673Y-4235698D01*
X29493301Y-4414327D01*
X29726690Y-4511000D01*
X30067250Y-4511000D01*
X30226000Y-4352250D01*
X30226000Y-2428000D01*
X30480000Y-2428000D01*
X30480000Y-4352250D01*
X30638750Y-4511000D01*
X30979310Y-4511000D01*
X31212699Y-4414327D01*
X31391327Y-4235698D01*
X31488000Y-4002309D01*
X31488000Y-2586750D01*
X31758000Y-2586750D01*
X31758000Y-4002309D01*
X31854673Y-4235698D01*
X32033301Y-4414327D01*
X32266690Y-4511000D01*
X32607250Y-4511000D01*
X32766000Y-4352250D01*
X32766000Y-2428000D01*
X33020000Y-2428000D01*
X33020000Y-4352250D01*
X33178750Y-4511000D01*
X33519310Y-4511000D01*
X33752699Y-4414327D01*
X33931327Y-4235698D01*
X34028000Y-4002309D01*
X34028000Y-2586750D01*
X34298000Y-2586750D01*
X34298000Y-4002309D01*
X34394673Y-4235698D01*
X34573301Y-4414327D01*
X34806690Y-4511000D01*
X35147250Y-4511000D01*
X35306000Y-4352250D01*
X35306000Y-2428000D01*
X35560000Y-2428000D01*
X35560000Y-4352250D01*
X35718750Y-4511000D01*
X36059310Y-4511000D01*
X36292699Y-4414327D01*
X36471327Y-4235698D01*
X36568000Y-4002309D01*
X36568000Y-2586750D01*
X36838000Y-2586750D01*
X36838000Y-4002309D01*
X36934673Y-4235698D01*
X37113301Y-4414327D01*
X37346690Y-4511000D01*
X37687250Y-4511000D01*
X37846000Y-4352250D01*
X37846000Y-2428000D01*
X38100000Y-2428000D01*
X38100000Y-4352250D01*
X38258750Y-4511000D01*
X38599310Y-4511000D01*
X38832699Y-4414327D01*
X39011327Y-4235698D01*
X39108000Y-4002309D01*
X39108000Y-2586750D01*
X39378000Y-2586750D01*
X39378000Y-4002309D01*
X39474673Y-4235698D01*
X39653301Y-4414327D01*
X39886690Y-4511000D01*
X40227250Y-4511000D01*
X40386000Y-4352250D01*
X40386000Y-2428000D01*
X40640000Y-2428000D01*
X40640000Y-4352250D01*
X40798750Y-4511000D01*
X41139310Y-4511000D01*
X41372699Y-4414327D01*
X41551327Y-4235698D01*
X41648000Y-4002309D01*
X41648000Y-2586750D01*
X41489250Y-2428000D01*
X40640000Y-2428000D01*
X40386000Y-2428000D01*
X39536750Y-2428000D01*
X39378000Y-2586750D01*
X39108000Y-2586750D01*
X38949250Y-2428000D01*
X38100000Y-2428000D01*
X37846000Y-2428000D01*
X36996750Y-2428000D01*
X36838000Y-2586750D01*
X36568000Y-2586750D01*
X36409250Y-2428000D01*
X35560000Y-2428000D01*
X35306000Y-2428000D01*
X34456750Y-2428000D01*
X34298000Y-2586750D01*
X34028000Y-2586750D01*
X33869250Y-2428000D01*
X33020000Y-2428000D01*
X32766000Y-2428000D01*
X31916750Y-2428000D01*
X31758000Y-2586750D01*
X31488000Y-2586750D01*
X31329250Y-2428000D01*
X30480000Y-2428000D01*
X30226000Y-2428000D01*
X29376750Y-2428000D01*
X29218000Y-2586750D01*
X28948000Y-2586750D01*
X28789250Y-2428000D01*
X27940000Y-2428000D01*
X27686000Y-2428000D01*
X26836750Y-2428000D01*
X26678000Y-2586750D01*
X26408000Y-2586750D01*
X26249250Y-2428000D01*
X25400000Y-2428000D01*
X25146000Y-2428000D01*
X24296750Y-2428000D01*
X24138000Y-2586750D01*
X23868000Y-2586750D01*
X23709250Y-2428000D01*
X22860000Y-2428000D01*
X22606000Y-2428000D01*
X21756750Y-2428000D01*
X21598000Y-2586750D01*
X21328000Y-2586750D01*
X21169250Y-2428000D01*
X20320000Y-2428000D01*
X20066000Y-2428000D01*
X19216750Y-2428000D01*
X19058000Y-2586750D01*
X18788000Y-2586750D01*
X18629250Y-2428000D01*
X17780000Y-2428000D01*
X17526000Y-2428000D01*
X16676750Y-2428000D01*
X16518000Y-2586750D01*
X16248000Y-2586750D01*
X16089250Y-2428000D01*
X15240000Y-2428000D01*
X14986000Y-2428000D01*
X14136750Y-2428000D01*
X13978000Y-2586750D01*
X13708000Y-2586750D01*
X13549250Y-2428000D01*
X12700000Y-2428000D01*
X12446000Y-2428000D01*
X11596750Y-2428000D01*
X11438000Y-2586750D01*
X11168000Y-2586750D01*
X11009250Y-2428000D01*
X10160000Y-2428000D01*
X9906000Y-2428000D01*
X9056750Y-2428000D01*
X8898000Y-2586750D01*
X8628000Y-2586750D01*
X8469250Y-2428000D01*
X7620000Y-2428000D01*
X7366000Y-2428000D01*
X6516750Y-2428000D01*
X6358000Y-2586750D01*
X6088000Y-2586750D01*
X5929250Y-2428000D01*
X5080000Y-2428000D01*
X4826000Y-2428000D01*
X3976750Y-2428000D01*
X3818000Y-2586750D01*
X710000Y-2586750D01*
X710000Y-710000D01*
X3818000Y-710000D01*
X3818000Y-2015250D01*
G36*
X21292545Y-22817659D02*
X21229071Y-22860071D01*
X21147114Y-22982729D01*
X21061113Y-23111423D01*
X21061109Y-23111445D01*
X21061096Y-23111464D01*
X21029729Y-23269157D01*
X21002112Y-23407957D01*
X21017000Y-23482827D01*
X21017000Y-23933457D01*
X21004560Y-23996000D01*
X21004560Y-24996000D01*
X21053843Y-25243765D01*
X21194191Y-25453809D01*
X21404235Y-25594157D01*
X21652000Y-25643440D01*
X21902000Y-25643440D01*
X22027000Y-25618576D01*
X22152000Y-25643440D01*
X22402000Y-25643440D01*
X22527000Y-25618576D01*
X22652000Y-25643440D01*
X22902000Y-25643440D01*
X23027000Y-25618576D01*
X23152000Y-25643440D01*
X23402000Y-25643440D01*
X23527000Y-25618576D01*
X23652000Y-25643440D01*
X23902000Y-25643440D01*
X24027000Y-25618576D01*
X24152000Y-25643440D01*
X24402000Y-25643440D01*
X24527000Y-25618576D01*
X24652000Y-25643440D01*
X24902000Y-25643440D01*
X25027000Y-25618576D01*
X25152000Y-25643440D01*
X25402000Y-25643440D01*
X25527000Y-25618576D01*
X25652000Y-25643440D01*
X25902000Y-25643440D01*
X26027000Y-25618576D01*
X26152000Y-25643440D01*
X26402000Y-25643440D01*
X26527000Y-25618576D01*
X26652000Y-25643440D01*
X26902000Y-25643440D01*
X27005852Y-25622783D01*
X27025690Y-25631000D01*
X27055750Y-25631000D01*
X27078397Y-25608353D01*
X27149765Y-25594157D01*
X27277000Y-25509141D01*
X27404235Y-25594157D01*
X27475603Y-25608353D01*
X27498250Y-25631000D01*
X27528310Y-25631000D01*
X27548148Y-25622783D01*
X27652000Y-25643440D01*
X27902000Y-25643440D01*
X28027000Y-25618576D01*
X28152000Y-25643440D01*
X28402000Y-25643440D01*
X28505852Y-25622783D01*
X28517000Y-25627401D01*
X28517001Y-26422000D01*
X28364750Y-26422000D01*
X28206000Y-26580750D01*
X28206000Y-27305000D01*
X28226000Y-27305000D01*
X28226000Y-27559000D01*
X28206000Y-27559000D01*
X28206000Y-28283250D01*
X28364750Y-28442000D01*
X28493001Y-28442000D01*
X28493000Y-29421222D01*
X28444250Y-29494182D01*
X28394941Y-29742073D01*
X28351309Y-29724000D01*
X28110750Y-29724000D01*
X27952000Y-29882750D01*
X27952000Y-30607000D01*
X27972000Y-30607000D01*
X27972000Y-30861000D01*
X27952000Y-30861000D01*
X27952000Y-30881000D01*
X27698000Y-30881000D01*
X27698000Y-30861000D01*
X26948750Y-30861000D01*
X26796960Y-31012790D01*
X26683269Y-31012790D01*
X26596109Y-30995453D01*
X26508950Y-31012790D01*
X26508945Y-31012790D01*
X26250800Y-31064138D01*
X25958061Y-31259741D01*
X25908685Y-31333637D01*
X25880078Y-31362244D01*
X25759365Y-31412245D01*
X25496345Y-31675265D01*
X25354000Y-32018917D01*
X25354000Y-32069900D01*
X25323440Y-32069900D01*
X25323440Y-31099000D01*
X25274157Y-30851235D01*
X25133809Y-30641191D01*
X24923765Y-30500843D01*
X24805159Y-30477251D01*
X24756750Y-30233881D01*
X24755955Y-30232690D01*
X26790000Y-30232690D01*
X26790000Y-30448250D01*
X26948750Y-30607000D01*
X27698000Y-30607000D01*
X27698000Y-29882750D01*
X27539250Y-29724000D01*
X27298691Y-29724000D01*
X27065302Y-29820673D01*
X26886673Y-29999301D01*
X26790000Y-30232690D01*
X24755955Y-30232690D01*
X24550097Y-29924603D01*
X24264840Y-29734000D01*
X24802310Y-29734000D01*
X25035699Y-29637327D01*
X25214327Y-29458698D01*
X25311000Y-29225309D01*
X25311000Y-28884750D01*
X25152250Y-28726000D01*
X24003000Y-28726000D01*
X24003000Y-28746000D01*
X23749000Y-28746000D01*
X23749000Y-28726000D01*
X22599750Y-28726000D01*
X22462520Y-28863230D01*
X22322461Y-28723172D01*
X22270297Y-28645103D01*
X21961019Y-28438450D01*
X21688286Y-28384200D01*
X21596200Y-28365883D01*
X21504114Y-28384200D01*
X18817322Y-28384200D01*
X18949009Y-28296209D01*
X19089357Y-28086165D01*
X19111928Y-27972691D01*
X22441000Y-27972691D01*
X22441000Y-28313250D01*
X22599750Y-28472000D01*
X23749000Y-28472000D01*
X23749000Y-27622750D01*
X24003000Y-27622750D01*
X24003000Y-28472000D01*
X25152250Y-28472000D01*
X25311000Y-28313250D01*
X25311000Y-27972691D01*
X25214327Y-27739302D01*
X25192776Y-27717750D01*
X27044000Y-27717750D01*
X27044000Y-27933310D01*
X27140673Y-28166699D01*
X27319302Y-28345327D01*
X27552691Y-28442000D01*
X27793250Y-28442000D01*
X27952000Y-28283250D01*
X27952000Y-27559000D01*
X27202750Y-27559000D01*
X27044000Y-27717750D01*
X25192776Y-27717750D01*
X25035699Y-27560673D01*
X24802310Y-27464000D01*
X24161750Y-27464000D01*
X24003000Y-27622750D01*
X23749000Y-27622750D01*
X23590250Y-27464000D01*
X22949690Y-27464000D01*
X22716301Y-27560673D01*
X22537673Y-27739302D01*
X22441000Y-27972691D01*
X19111928Y-27972691D01*
X19138640Y-27838400D01*
X19138640Y-26930690D01*
X27044000Y-26930690D01*
X27044000Y-27146250D01*
X27202750Y-27305000D01*
X27952000Y-27305000D01*
X27952000Y-26580750D01*
X27793250Y-26422000D01*
X27552691Y-26422000D01*
X27319302Y-26518673D01*
X27140673Y-26697301D01*
X27044000Y-26930690D01*
X19138640Y-26930690D01*
X19138640Y-26619200D01*
X19089357Y-26371435D01*
X19048000Y-26309540D01*
X19048000Y-24801201D01*
X19654302Y-24194900D01*
X19700483Y-24194900D01*
X20044135Y-24052555D01*
X20307155Y-23789535D01*
X20449500Y-23445883D01*
X20449500Y-23294073D01*
X20574765Y-23269157D01*
X20784809Y-23128809D01*
X20925157Y-22918765D01*
X20974440Y-22671000D01*
X20974440Y-22421000D01*
X20951565Y-22306000D01*
X21804262Y-22306000D01*
X21292545Y-22817659D01*
X21292545Y-22817659D01*
G37*
X21292545Y-22817659D02*
X21229071Y-22860071D01*
X21147114Y-22982729D01*
X21061113Y-23111423D01*
X21061109Y-23111445D01*
X21061096Y-23111464D01*
X21029729Y-23269157D01*
X21002112Y-23407957D01*
X21017000Y-23482827D01*
X21017000Y-23933457D01*
X21004560Y-23996000D01*
X21004560Y-24996000D01*
X21053843Y-25243765D01*
X21194191Y-25453809D01*
X21404235Y-25594157D01*
X21652000Y-25643440D01*
X21902000Y-25643440D01*
X22027000Y-25618576D01*
X22152000Y-25643440D01*
X22402000Y-25643440D01*
X22527000Y-25618576D01*
X22652000Y-25643440D01*
X22902000Y-25643440D01*
X23027000Y-25618576D01*
X23152000Y-25643440D01*
X23402000Y-25643440D01*
X23527000Y-25618576D01*
X23652000Y-25643440D01*
X23902000Y-25643440D01*
X24027000Y-25618576D01*
X24152000Y-25643440D01*
X24402000Y-25643440D01*
X24527000Y-25618576D01*
X24652000Y-25643440D01*
X24902000Y-25643440D01*
X25027000Y-25618576D01*
X25152000Y-25643440D01*
X25402000Y-25643440D01*
X25527000Y-25618576D01*
X25652000Y-25643440D01*
X25902000Y-25643440D01*
X26027000Y-25618576D01*
X26152000Y-25643440D01*
X26402000Y-25643440D01*
X26527000Y-25618576D01*
X26652000Y-25643440D01*
X26902000Y-25643440D01*
X27005852Y-25622783D01*
X27025690Y-25631000D01*
X27055750Y-25631000D01*
X27078397Y-25608353D01*
X27149765Y-25594157D01*
X27277000Y-25509141D01*
X27404235Y-25594157D01*
X27475603Y-25608353D01*
X27498250Y-25631000D01*
X27528310Y-25631000D01*
X27548148Y-25622783D01*
X27652000Y-25643440D01*
X27902000Y-25643440D01*
X28027000Y-25618576D01*
X28152000Y-25643440D01*
X28402000Y-25643440D01*
X28505852Y-25622783D01*
X28517000Y-25627401D01*
X28517001Y-26422000D01*
X28364750Y-26422000D01*
X28206000Y-26580750D01*
X28206000Y-27305000D01*
X28226000Y-27305000D01*
X28226000Y-27559000D01*
X28206000Y-27559000D01*
X28206000Y-28283250D01*
X28364750Y-28442000D01*
X28493001Y-28442000D01*
X28493000Y-29421222D01*
X28444250Y-29494182D01*
X28394941Y-29742073D01*
X28351309Y-29724000D01*
X28110750Y-29724000D01*
X27952000Y-29882750D01*
X27952000Y-30607000D01*
X27972000Y-30607000D01*
X27972000Y-30861000D01*
X27952000Y-30861000D01*
X27952000Y-30881000D01*
X27698000Y-30881000D01*
X27698000Y-30861000D01*
X26948750Y-30861000D01*
X26796960Y-31012790D01*
X26683269Y-31012790D01*
X26596109Y-30995453D01*
X26508950Y-31012790D01*
X26508945Y-31012790D01*
X26250800Y-31064138D01*
X25958061Y-31259741D01*
X25908685Y-31333637D01*
X25880078Y-31362244D01*
X25759365Y-31412245D01*
X25496345Y-31675265D01*
X25354000Y-32018917D01*
X25354000Y-32069900D01*
X25323440Y-32069900D01*
X25323440Y-31099000D01*
X25274157Y-30851235D01*
X25133809Y-30641191D01*
X24923765Y-30500843D01*
X24805159Y-30477251D01*
X24756750Y-30233881D01*
X24755955Y-30232690D01*
X26790000Y-30232690D01*
X26790000Y-30448250D01*
X26948750Y-30607000D01*
X27698000Y-30607000D01*
X27698000Y-29882750D01*
X27539250Y-29724000D01*
X27298691Y-29724000D01*
X27065302Y-29820673D01*
X26886673Y-29999301D01*
X26790000Y-30232690D01*
X24755955Y-30232690D01*
X24550097Y-29924603D01*
X24264840Y-29734000D01*
X24802310Y-29734000D01*
X25035699Y-29637327D01*
X25214327Y-29458698D01*
X25311000Y-29225309D01*
X25311000Y-28884750D01*
X25152250Y-28726000D01*
X24003000Y-28726000D01*
X24003000Y-28746000D01*
X23749000Y-28746000D01*
X23749000Y-28726000D01*
X22599750Y-28726000D01*
X22462520Y-28863230D01*
X22322461Y-28723172D01*
X22270297Y-28645103D01*
X21961019Y-28438450D01*
X21688286Y-28384200D01*
X21596200Y-28365883D01*
X21504114Y-28384200D01*
X18817322Y-28384200D01*
X18949009Y-28296209D01*
X19089357Y-28086165D01*
X19111928Y-27972691D01*
X22441000Y-27972691D01*
X22441000Y-28313250D01*
X22599750Y-28472000D01*
X23749000Y-28472000D01*
X23749000Y-27622750D01*
X24003000Y-27622750D01*
X24003000Y-28472000D01*
X25152250Y-28472000D01*
X25311000Y-28313250D01*
X25311000Y-27972691D01*
X25214327Y-27739302D01*
X25192776Y-27717750D01*
X27044000Y-27717750D01*
X27044000Y-27933310D01*
X27140673Y-28166699D01*
X27319302Y-28345327D01*
X27552691Y-28442000D01*
X27793250Y-28442000D01*
X27952000Y-28283250D01*
X27952000Y-27559000D01*
X27202750Y-27559000D01*
X27044000Y-27717750D01*
X25192776Y-27717750D01*
X25035699Y-27560673D01*
X24802310Y-27464000D01*
X24161750Y-27464000D01*
X24003000Y-27622750D01*
X23749000Y-27622750D01*
X23590250Y-27464000D01*
X22949690Y-27464000D01*
X22716301Y-27560673D01*
X22537673Y-27739302D01*
X22441000Y-27972691D01*
X19111928Y-27972691D01*
X19138640Y-27838400D01*
X19138640Y-26930690D01*
X27044000Y-26930690D01*
X27044000Y-27146250D01*
X27202750Y-27305000D01*
X27952000Y-27305000D01*
X27952000Y-26580750D01*
X27793250Y-26422000D01*
X27552691Y-26422000D01*
X27319302Y-26518673D01*
X27140673Y-26697301D01*
X27044000Y-26930690D01*
X19138640Y-26930690D01*
X19138640Y-26619200D01*
X19089357Y-26371435D01*
X19048000Y-26309540D01*
X19048000Y-24801201D01*
X19654302Y-24194900D01*
X19700483Y-24194900D01*
X20044135Y-24052555D01*
X20307155Y-23789535D01*
X20449500Y-23445883D01*
X20449500Y-23294073D01*
X20574765Y-23269157D01*
X20784809Y-23128809D01*
X20925157Y-22918765D01*
X20974440Y-22671000D01*
X20974440Y-22421000D01*
X20951565Y-22306000D01*
X21804262Y-22306000D01*
X21292545Y-22817659D01*
G36*
X30104424Y-16296000D02*
X30079560Y-16421000D01*
X30079560Y-16671000D01*
X30100217Y-16774852D01*
X30092000Y-16794690D01*
X30092000Y-16824750D01*
X30114647Y-16847397D01*
X30128843Y-16918765D01*
X30213859Y-17046000D01*
X30128843Y-17173235D01*
X30114647Y-17244603D01*
X30092000Y-17267250D01*
X30092000Y-17297310D01*
X30100217Y-17317148D01*
X30079560Y-17421000D01*
X30079560Y-17671000D01*
X30104424Y-17796000D01*
X30079560Y-17921000D01*
X30079560Y-18171000D01*
X30104424Y-18296000D01*
X30079560Y-18421000D01*
X30079560Y-18671000D01*
X30104424Y-18796000D01*
X30089913Y-18868951D01*
X30006983Y-18834600D01*
X29635017Y-18834600D01*
X29291365Y-18976945D01*
X29028345Y-19239965D01*
X28886000Y-19583617D01*
X28886000Y-19955583D01*
X29028345Y-20299235D01*
X29291365Y-20562255D01*
X29635017Y-20704600D01*
X29658359Y-20704600D01*
X29685796Y-20842537D01*
X29853771Y-21093929D01*
X30096489Y-21256108D01*
X30104424Y-21296000D01*
X30079560Y-21421000D01*
X30079560Y-21671000D01*
X30104424Y-21796000D01*
X30079560Y-21921000D01*
X30079560Y-22171000D01*
X30104424Y-22296000D01*
X30079560Y-22421000D01*
X30079560Y-22618638D01*
X29349638Y-23348560D01*
X29152000Y-23348560D01*
X29048148Y-23369217D01*
X29028310Y-23361000D01*
X28998250Y-23361000D01*
X28975603Y-23383647D01*
X28904235Y-23397843D01*
X28777000Y-23482859D01*
X28649765Y-23397843D01*
X28578397Y-23383647D01*
X28555750Y-23361000D01*
X28525690Y-23361000D01*
X28505852Y-23369217D01*
X28402000Y-23348560D01*
X28152000Y-23348560D01*
X28027000Y-23373424D01*
X27902000Y-23348560D01*
X27652000Y-23348560D01*
X27548148Y-23369217D01*
X27528310Y-23361000D01*
X27498250Y-23361000D01*
X27475603Y-23383647D01*
X27404235Y-23397843D01*
X27277000Y-23482859D01*
X27149765Y-23397843D01*
X27078397Y-23383647D01*
X27055750Y-23361000D01*
X27025690Y-23361000D01*
X27005852Y-23369217D01*
X26902000Y-23348560D01*
X26652000Y-23348560D01*
X26527000Y-23373424D01*
X26402000Y-23348560D01*
X26152000Y-23348560D01*
X26027000Y-23373424D01*
X25902000Y-23348560D01*
X25652000Y-23348560D01*
X25527000Y-23373424D01*
X25402000Y-23348560D01*
X25152000Y-23348560D01*
X25027000Y-23373424D01*
X24902000Y-23348560D01*
X24652000Y-23348560D01*
X24527000Y-23373424D01*
X24402000Y-23348560D01*
X24152000Y-23348560D01*
X24027000Y-23373424D01*
X23902000Y-23348560D01*
X23652000Y-23348560D01*
X23527000Y-23373424D01*
X23402000Y-23348560D01*
X23152000Y-23348560D01*
X23027000Y-23373424D01*
X22909764Y-23350104D01*
X30081240Y-16179444D01*
X30104424Y-16296000D01*
X30104424Y-16296000D01*
G37*
X30104424Y-16296000D02*
X30079560Y-16421000D01*
X30079560Y-16671000D01*
X30100217Y-16774852D01*
X30092000Y-16794690D01*
X30092000Y-16824750D01*
X30114647Y-16847397D01*
X30128843Y-16918765D01*
X30213859Y-17046000D01*
X30128843Y-17173235D01*
X30114647Y-17244603D01*
X30092000Y-17267250D01*
X30092000Y-17297310D01*
X30100217Y-17317148D01*
X30079560Y-17421000D01*
X30079560Y-17671000D01*
X30104424Y-17796000D01*
X30079560Y-17921000D01*
X30079560Y-18171000D01*
X30104424Y-18296000D01*
X30079560Y-18421000D01*
X30079560Y-18671000D01*
X30104424Y-18796000D01*
X30089913Y-18868951D01*
X30006983Y-18834600D01*
X29635017Y-18834600D01*
X29291365Y-18976945D01*
X29028345Y-19239965D01*
X28886000Y-19583617D01*
X28886000Y-19955583D01*
X29028345Y-20299235D01*
X29291365Y-20562255D01*
X29635017Y-20704600D01*
X29658359Y-20704600D01*
X29685796Y-20842537D01*
X29853771Y-21093929D01*
X30096489Y-21256108D01*
X30104424Y-21296000D01*
X30079560Y-21421000D01*
X30079560Y-21671000D01*
X30104424Y-21796000D01*
X30079560Y-21921000D01*
X30079560Y-22171000D01*
X30104424Y-22296000D01*
X30079560Y-22421000D01*
X30079560Y-22618638D01*
X29349638Y-23348560D01*
X29152000Y-23348560D01*
X29048148Y-23369217D01*
X29028310Y-23361000D01*
X28998250Y-23361000D01*
X28975603Y-23383647D01*
X28904235Y-23397843D01*
X28777000Y-23482859D01*
X28649765Y-23397843D01*
X28578397Y-23383647D01*
X28555750Y-23361000D01*
X28525690Y-23361000D01*
X28505852Y-23369217D01*
X28402000Y-23348560D01*
X28152000Y-23348560D01*
X28027000Y-23373424D01*
X27902000Y-23348560D01*
X27652000Y-23348560D01*
X27548148Y-23369217D01*
X27528310Y-23361000D01*
X27498250Y-23361000D01*
X27475603Y-23383647D01*
X27404235Y-23397843D01*
X27277000Y-23482859D01*
X27149765Y-23397843D01*
X27078397Y-23383647D01*
X27055750Y-23361000D01*
X27025690Y-23361000D01*
X27005852Y-23369217D01*
X26902000Y-23348560D01*
X26652000Y-23348560D01*
X26527000Y-23373424D01*
X26402000Y-23348560D01*
X26152000Y-23348560D01*
X26027000Y-23373424D01*
X25902000Y-23348560D01*
X25652000Y-23348560D01*
X25527000Y-23373424D01*
X25402000Y-23348560D01*
X25152000Y-23348560D01*
X25027000Y-23373424D01*
X24902000Y-23348560D01*
X24652000Y-23348560D01*
X24527000Y-23373424D01*
X24402000Y-23348560D01*
X24152000Y-23348560D01*
X24027000Y-23373424D01*
X23902000Y-23348560D01*
X23652000Y-23348560D01*
X23527000Y-23373424D01*
X23402000Y-23348560D01*
X23152000Y-23348560D01*
X23027000Y-23373424D01*
X22909764Y-23350104D01*
X30081240Y-16179444D01*
X30104424Y-16296000D01*
G36*
X35258748Y-21335998D02*
X35231292Y-21335998D01*
X35245020Y-21322270D01*
X35258748Y-21335998D01*
X35258748Y-21335998D01*
G37*
X35258748Y-21335998D02*
X35231292Y-21335998D01*
X35245020Y-21322270D01*
X35258748Y-21335998D01*
G36*
X33167000Y-17585289D02*
X33167000Y-17768000D01*
X33147000Y-17768000D01*
X33147000Y-18517250D01*
X33305750Y-18676000D01*
X33521310Y-18676000D01*
X33754699Y-18579327D01*
X33933327Y-18400698D01*
X33947703Y-18365992D01*
X34300000Y-18718290D01*
X34300000Y-18830914D01*
X34281683Y-18923000D01*
X34300000Y-19015086D01*
X34300001Y-19622709D01*
X33826000Y-20096710D01*
X33826000Y-19813017D01*
X33683655Y-19469365D01*
X33420635Y-19206345D01*
X33076983Y-19064000D01*
X33030801Y-19064000D01*
X33028331Y-19061530D01*
X32985929Y-18998071D01*
X32734537Y-18830096D01*
X32512852Y-18786000D01*
X32512847Y-18786000D01*
X32438000Y-18771112D01*
X32363153Y-18786000D01*
X32351565Y-18786000D01*
X32374440Y-18671000D01*
X32374440Y-18616250D01*
X32518690Y-18676000D01*
X32734250Y-18676000D01*
X32893000Y-18517250D01*
X32893000Y-17768000D01*
X32873000Y-17768000D01*
X32873000Y-17514000D01*
X32893000Y-17514000D01*
X32893000Y-17494000D01*
X33075711Y-17494000D01*
X33167000Y-17585289D01*
X33167000Y-17585289D01*
G37*
X33167000Y-17585289D02*
X33167000Y-17768000D01*
X33147000Y-17768000D01*
X33147000Y-18517250D01*
X33305750Y-18676000D01*
X33521310Y-18676000D01*
X33754699Y-18579327D01*
X33933327Y-18400698D01*
X33947703Y-18365992D01*
X34300000Y-18718290D01*
X34300000Y-18830914D01*
X34281683Y-18923000D01*
X34300000Y-19015086D01*
X34300001Y-19622709D01*
X33826000Y-20096710D01*
X33826000Y-19813017D01*
X33683655Y-19469365D01*
X33420635Y-19206345D01*
X33076983Y-19064000D01*
X33030801Y-19064000D01*
X33028331Y-19061530D01*
X32985929Y-18998071D01*
X32734537Y-18830096D01*
X32512852Y-18786000D01*
X32512847Y-18786000D01*
X32438000Y-18771112D01*
X32363153Y-18786000D01*
X32351565Y-18786000D01*
X32374440Y-18671000D01*
X32374440Y-18616250D01*
X32518690Y-18676000D01*
X32734250Y-18676000D01*
X32893000Y-18517250D01*
X32893000Y-17768000D01*
X32873000Y-17768000D01*
X32873000Y-17514000D01*
X32893000Y-17514000D01*
X32893000Y-17494000D01*
X33075711Y-17494000D01*
X33167000Y-17585289D01*
G04 #@! TD*
M02*
