M48
;DRILL file {KiCad (5.0.1)-3} date 4/11/2018 4:08:24 PM
;FORMAT={-:-/ absolute / inch / decimal}
FMAT,2
INCH,TZ
T1C0.0157
T2C0.0315
T3C0.0394
T4C0.0748
%
G90
G05
M72
T1
X0.4295Y-1.25
X0.545Y-1.28
X0.585Y-1.281
X0.675Y-1.005
X0.7683Y-0.9157
X0.7849Y-0.4707
X0.8663Y-1.3794
X1.03Y-1.075
X1.035Y-1.2679
X1.0569Y-0.6141
X1.0623Y-0.562
X1.1741Y-0.7783
X1.2715Y-0.5996
X1.2775Y-1.2876
X1.2949Y-0.7874
X1.305Y-1.125
X1.31Y-1.05
X1.315Y-1.2
X1.32Y-0.965
X1.34Y-0.9
X1.345Y-0.75
X1.351Y-0.6015
X1.4915Y-0.4005
X1.56Y-0.815
X1.6443Y-1.1002
T2
X0.1451Y-1.6253
X0.8183Y-1.6253
X0.9201Y-1.6253
X1.5933Y-1.6253
T3
X0.095Y-0.865
X0.195Y-0.865
X0.295Y-0.865
X0.395Y-0.865
X0.495Y-0.865
T4
X0.2474Y-1.3599
X0.7195Y-1.3599
X1.0224Y-1.3599
X1.4945Y-1.3599
T0
M30
