G04 #@! TF.GenerationSoftware,KiCad,Pcbnew,(5.0.1)-3*
G04 #@! TF.CreationDate,2018-10-30T18:00:54+11:00*
G04 #@! TF.ProjectId,SoManySwitches-ClientBoard,536F4D616E7953776974636865732D43,rev?*
G04 #@! TF.SameCoordinates,PX8d4855cPY6bf9b94*
G04 #@! TF.FileFunction,Legend,Top*
G04 #@! TF.FilePolarity,Positive*
%FSLAX46Y46*%
G04 Gerber Fmt 4.6, Leading zero omitted, Abs format (unit mm)*
G04 Created by KiCad (PCBNEW (5.0.1)-3) date 30/10/2018 6:00:54 PM*
%MOMM*%
%LPD*%
G01*
G04 APERTURE LIST*
%ADD10C,0.100000*%
%ADD11C,0.120000*%
%ADD12C,0.150000*%
G04 APERTURE END LIST*
D10*
G04 #@! TO.C,J1*
X2424429Y27358979D02*
X16988875Y27358979D01*
X16988875Y27358979D02*
X16988875Y14067052D01*
X16988875Y14067052D02*
X2424429Y14067052D01*
X2424429Y14067052D02*
X2424429Y27358979D01*
X1252584Y25066025D02*
X2361314Y25066025D01*
X2361314Y25066025D02*
X2361314Y17204120D01*
X2361314Y17204120D02*
X1252584Y17204120D01*
X1252584Y17204120D02*
X1252584Y25066025D01*
X17077188Y25065802D02*
X18185918Y25065802D01*
X18185918Y25065802D02*
X18185918Y17203897D01*
X18185918Y17203897D02*
X17077188Y17203897D01*
X17077188Y17203897D02*
X17077188Y25065802D01*
D11*
G04 #@! TO.C,R1*
X1034500Y10485500D02*
X1034500Y11485500D01*
X2394500Y11485500D02*
X2394500Y10485500D01*
G04 #@! TO.C,R2*
X1034500Y6675500D02*
X1034500Y7675500D01*
X2394500Y7675500D02*
X2394500Y6675500D01*
D12*
G04 #@! TO.C,RP1*
X12494500Y12810500D02*
X12494500Y10810500D01*
X12494500Y10810500D02*
X9094500Y10810500D01*
X9094500Y10810500D02*
X9094500Y12810500D01*
X9094500Y12810500D02*
X12494500Y12810500D01*
G04 #@! TO.C,RP2*
X12494500Y9191500D02*
X12494500Y7191500D01*
X12494500Y7191500D02*
X9094500Y7191500D01*
X9094500Y7191500D02*
X9094500Y9191500D01*
X9094500Y9191500D02*
X12494500Y9191500D01*
G04 #@! TO.C,RP3*
X8494500Y12810500D02*
X8494500Y10810500D01*
X8494500Y10810500D02*
X5094500Y10810500D01*
X5094500Y10810500D02*
X5094500Y12810500D01*
X5094500Y12810500D02*
X8494500Y12810500D01*
G04 #@! TO.C,RP4*
X8494500Y9191500D02*
X8494500Y7191500D01*
X8494500Y7191500D02*
X5094500Y7191500D01*
X5094500Y7191500D02*
X5094500Y9191500D01*
X5094500Y9191500D02*
X8494500Y9191500D01*
D11*
G04 #@! TO.C,P1*
X14414500Y5394500D02*
X1654500Y5394500D01*
X1654500Y5394500D02*
X1654500Y194500D01*
X1654500Y194500D02*
X17014500Y194500D01*
X17014500Y194500D02*
X17014500Y2794500D01*
X17014500Y2794500D02*
X14414500Y2794500D01*
X14414500Y2794500D02*
X14414500Y5394500D01*
X15684500Y5394500D02*
X17014500Y5394500D01*
X17014500Y5394500D02*
X17014500Y4064500D01*
G04 #@! TO.C,J1*
D12*
X9626166Y19788120D02*
X9626166Y19073834D01*
X9578547Y18930977D01*
X9483309Y18835739D01*
X9340452Y18788120D01*
X9245214Y18788120D01*
X10626166Y18788120D02*
X10054738Y18788120D01*
X10340452Y18788120D02*
X10340452Y19788120D01*
X10245214Y19645262D01*
X10149976Y19550024D01*
X10054738Y19502405D01*
G04 #@! TO.C,R1*
X2166880Y13358834D02*
X1690690Y13025500D01*
X2166880Y12787405D02*
X1166880Y12787405D01*
X1166880Y13168358D01*
X1214500Y13263596D01*
X1262119Y13311215D01*
X1357357Y13358834D01*
X1500214Y13358834D01*
X1595452Y13311215D01*
X1643071Y13263596D01*
X1690690Y13168358D01*
X1690690Y12787405D01*
X2166880Y14311215D02*
X2166880Y13739786D01*
X2166880Y14025500D02*
X1166880Y14025500D01*
X1309738Y13930262D01*
X1404976Y13835024D01*
X1452595Y13739786D01*
X627119Y14573405D02*
X579500Y14621024D01*
X531880Y14716262D01*
X531880Y14954358D01*
X579500Y15049596D01*
X627119Y15097215D01*
X722357Y15144834D01*
X817595Y15144834D01*
X960452Y15097215D01*
X1531880Y14525786D01*
X1531880Y15144834D01*
X627119Y15525786D02*
X579500Y15573405D01*
X531880Y15668643D01*
X531880Y15906739D01*
X579500Y16001977D01*
X627119Y16049596D01*
X722357Y16097215D01*
X817595Y16097215D01*
X960452Y16049596D01*
X1531880Y15478167D01*
X1531880Y16097215D01*
X531880Y16954358D02*
X531880Y16763881D01*
X579500Y16668643D01*
X627119Y16621024D01*
X769976Y16525786D01*
X960452Y16478167D01*
X1341404Y16478167D01*
X1436642Y16525786D01*
X1484261Y16573405D01*
X1531880Y16668643D01*
X1531880Y16859120D01*
X1484261Y16954358D01*
X1436642Y17001977D01*
X1341404Y17049596D01*
X1103309Y17049596D01*
X1008071Y17001977D01*
X960452Y16954358D01*
X912833Y16859120D01*
X912833Y16668643D01*
X960452Y16573405D01*
X1008071Y16525786D01*
X1103309Y16478167D01*
G04 #@! TO.C,R2*
X1293833Y8564620D02*
X960500Y9040810D01*
X722404Y8564620D02*
X722404Y9564620D01*
X1103357Y9564620D01*
X1198595Y9517000D01*
X1246214Y9469381D01*
X1293833Y9374143D01*
X1293833Y9231286D01*
X1246214Y9136048D01*
X1198595Y9088429D01*
X1103357Y9040810D01*
X722404Y9040810D01*
X1674785Y9469381D02*
X1722404Y9517000D01*
X1817642Y9564620D01*
X2055738Y9564620D01*
X2150976Y9517000D01*
X2198595Y9469381D01*
X2246214Y9374143D01*
X2246214Y9278905D01*
X2198595Y9136048D01*
X1627166Y8564620D01*
X2246214Y8564620D01*
X3087714Y6794596D02*
X3754380Y6794596D01*
X2706761Y6556500D02*
X3421047Y6318405D01*
X3421047Y6937453D01*
X2754380Y7223167D02*
X2754380Y7842215D01*
X3135333Y7508881D01*
X3135333Y7651739D01*
X3182952Y7746977D01*
X3230571Y7794596D01*
X3325809Y7842215D01*
X3563904Y7842215D01*
X3659142Y7794596D01*
X3706761Y7746977D01*
X3754380Y7651739D01*
X3754380Y7366024D01*
X3706761Y7270786D01*
X3659142Y7223167D01*
X2849619Y8223167D02*
X2802000Y8270786D01*
X2754380Y8366024D01*
X2754380Y8604120D01*
X2802000Y8699358D01*
X2849619Y8746977D01*
X2944857Y8794596D01*
X3040095Y8794596D01*
X3182952Y8746977D01*
X3754380Y8175548D01*
X3754380Y8794596D01*
G04 #@! TO.C,RP1*
X13493333Y11358120D02*
X13160000Y11834310D01*
X12921904Y11358120D02*
X12921904Y12358120D01*
X13302857Y12358120D01*
X13398095Y12310500D01*
X13445714Y12262881D01*
X13493333Y12167643D01*
X13493333Y12024786D01*
X13445714Y11929548D01*
X13398095Y11881929D01*
X13302857Y11834310D01*
X12921904Y11834310D01*
X13921904Y11358120D02*
X13921904Y12358120D01*
X14302857Y12358120D01*
X14398095Y12310500D01*
X14445714Y12262881D01*
X14493333Y12167643D01*
X14493333Y12024786D01*
X14445714Y11929548D01*
X14398095Y11881929D01*
X14302857Y11834310D01*
X13921904Y11834310D01*
X15445714Y11358120D02*
X14874285Y11358120D01*
X15160000Y11358120D02*
X15160000Y12358120D01*
X15064761Y12215262D01*
X14969523Y12120024D01*
X14874285Y12072405D01*
X16454023Y11358120D02*
X15882595Y11358120D01*
X16168309Y11358120D02*
X16168309Y12358120D01*
X16073071Y12215262D01*
X15977833Y12120024D01*
X15882595Y12072405D01*
X17073071Y12358120D02*
X17168309Y12358120D01*
X17263547Y12310500D01*
X17311166Y12262881D01*
X17358785Y12167643D01*
X17406404Y11977167D01*
X17406404Y11739072D01*
X17358785Y11548596D01*
X17311166Y11453358D01*
X17263547Y11405739D01*
X17168309Y11358120D01*
X17073071Y11358120D01*
X16977833Y11405739D01*
X16930214Y11453358D01*
X16882595Y11548596D01*
X16834976Y11739072D01*
X16834976Y11977167D01*
X16882595Y12167643D01*
X16930214Y12262881D01*
X16977833Y12310500D01*
X17073071Y12358120D01*
X17834976Y11358120D02*
X17834976Y12358120D01*
X18406404Y11358120D02*
X17977833Y11929548D01*
X18406404Y12358120D02*
X17834976Y11786691D01*
G04 #@! TO.C,RP2*
X13493333Y7993120D02*
X13160000Y8469310D01*
X12921904Y7993120D02*
X12921904Y8993120D01*
X13302857Y8993120D01*
X13398095Y8945500D01*
X13445714Y8897881D01*
X13493333Y8802643D01*
X13493333Y8659786D01*
X13445714Y8564548D01*
X13398095Y8516929D01*
X13302857Y8469310D01*
X12921904Y8469310D01*
X13921904Y7993120D02*
X13921904Y8993120D01*
X14302857Y8993120D01*
X14398095Y8945500D01*
X14445714Y8897881D01*
X14493333Y8802643D01*
X14493333Y8659786D01*
X14445714Y8564548D01*
X14398095Y8516929D01*
X14302857Y8469310D01*
X13921904Y8469310D01*
X14874285Y8897881D02*
X14921904Y8945500D01*
X15017142Y8993120D01*
X15255238Y8993120D01*
X15350476Y8945500D01*
X15398095Y8897881D01*
X15445714Y8802643D01*
X15445714Y8707405D01*
X15398095Y8564548D01*
X14826666Y7993120D01*
X15445714Y7993120D01*
X16517523Y7993120D02*
X15946095Y7993120D01*
X16231809Y7993120D02*
X16231809Y8993120D01*
X16136571Y8850262D01*
X16041333Y8755024D01*
X15946095Y8707405D01*
X17136571Y8993120D02*
X17231809Y8993120D01*
X17327047Y8945500D01*
X17374666Y8897881D01*
X17422285Y8802643D01*
X17469904Y8612167D01*
X17469904Y8374072D01*
X17422285Y8183596D01*
X17374666Y8088358D01*
X17327047Y8040739D01*
X17231809Y7993120D01*
X17136571Y7993120D01*
X17041333Y8040739D01*
X16993714Y8088358D01*
X16946095Y8183596D01*
X16898476Y8374072D01*
X16898476Y8612167D01*
X16946095Y8802643D01*
X16993714Y8897881D01*
X17041333Y8945500D01*
X17136571Y8993120D01*
X17898476Y7993120D02*
X17898476Y8993120D01*
X18469904Y7993120D02*
X18041333Y8564548D01*
X18469904Y8993120D02*
X17898476Y8421691D01*
G04 #@! TO.C,RP3*
X3016333Y12437620D02*
X2683000Y12913810D01*
X2444904Y12437620D02*
X2444904Y13437620D01*
X2825857Y13437620D01*
X2921095Y13390000D01*
X2968714Y13342381D01*
X3016333Y13247143D01*
X3016333Y13104286D01*
X2968714Y13009048D01*
X2921095Y12961429D01*
X2825857Y12913810D01*
X2444904Y12913810D01*
X3444904Y12437620D02*
X3444904Y13437620D01*
X3825857Y13437620D01*
X3921095Y13390000D01*
X3968714Y13342381D01*
X4016333Y13247143D01*
X4016333Y13104286D01*
X3968714Y13009048D01*
X3921095Y12961429D01*
X3825857Y12913810D01*
X3444904Y12913810D01*
X4349666Y13437620D02*
X4968714Y13437620D01*
X4635380Y13056667D01*
X4778238Y13056667D01*
X4873476Y13009048D01*
X4921095Y12961429D01*
X4968714Y12866191D01*
X4968714Y12628096D01*
X4921095Y12532858D01*
X4873476Y12485239D01*
X4778238Y12437620D01*
X4492523Y12437620D01*
X4397285Y12485239D01*
X4349666Y12532858D01*
X3056023Y11040620D02*
X2484595Y11040620D01*
X2770309Y11040620D02*
X2770309Y12040620D01*
X2675071Y11897762D01*
X2579833Y11802524D01*
X2484595Y11754905D01*
X3675071Y12040620D02*
X3770309Y12040620D01*
X3865547Y11993000D01*
X3913166Y11945381D01*
X3960785Y11850143D01*
X4008404Y11659667D01*
X4008404Y11421572D01*
X3960785Y11231096D01*
X3913166Y11135858D01*
X3865547Y11088239D01*
X3770309Y11040620D01*
X3675071Y11040620D01*
X3579833Y11088239D01*
X3532214Y11135858D01*
X3484595Y11231096D01*
X3436976Y11421572D01*
X3436976Y11659667D01*
X3484595Y11850143D01*
X3532214Y11945381D01*
X3579833Y11993000D01*
X3675071Y12040620D01*
X4436976Y11040620D02*
X4436976Y12040620D01*
X5008404Y11040620D02*
X4579833Y11612048D01*
X5008404Y12040620D02*
X4436976Y11469191D01*
G04 #@! TO.C,RP4*
X6000833Y5770620D02*
X5667500Y6246810D01*
X5429404Y5770620D02*
X5429404Y6770620D01*
X5810357Y6770620D01*
X5905595Y6723000D01*
X5953214Y6675381D01*
X6000833Y6580143D01*
X6000833Y6437286D01*
X5953214Y6342048D01*
X5905595Y6294429D01*
X5810357Y6246810D01*
X5429404Y6246810D01*
X6429404Y5770620D02*
X6429404Y6770620D01*
X6810357Y6770620D01*
X6905595Y6723000D01*
X6953214Y6675381D01*
X7000833Y6580143D01*
X7000833Y6437286D01*
X6953214Y6342048D01*
X6905595Y6294429D01*
X6810357Y6246810D01*
X6429404Y6246810D01*
X7857976Y6437286D02*
X7857976Y5770620D01*
X7619880Y6818239D02*
X7381785Y6103953D01*
X8000833Y6103953D01*
X9152023Y5834120D02*
X8580595Y5834120D01*
X8866309Y5834120D02*
X8866309Y6834120D01*
X8771071Y6691262D01*
X8675833Y6596024D01*
X8580595Y6548405D01*
X9771071Y6834120D02*
X9866309Y6834120D01*
X9961547Y6786500D01*
X10009166Y6738881D01*
X10056785Y6643643D01*
X10104404Y6453167D01*
X10104404Y6215072D01*
X10056785Y6024596D01*
X10009166Y5929358D01*
X9961547Y5881739D01*
X9866309Y5834120D01*
X9771071Y5834120D01*
X9675833Y5881739D01*
X9628214Y5929358D01*
X9580595Y6024596D01*
X9532976Y6215072D01*
X9532976Y6453167D01*
X9580595Y6643643D01*
X9628214Y6738881D01*
X9675833Y6786500D01*
X9771071Y6834120D01*
X10532976Y5834120D02*
X10532976Y6834120D01*
X11104404Y5834120D02*
X10675833Y6405548D01*
X11104404Y6834120D02*
X10532976Y6262691D01*
G04 #@! TO.C,P1*
X18466880Y2056405D02*
X17466880Y2056405D01*
X17466880Y2437358D01*
X17514500Y2532596D01*
X17562119Y2580215D01*
X17657357Y2627834D01*
X17800214Y2627834D01*
X17895452Y2580215D01*
X17943071Y2532596D01*
X17990690Y2437358D01*
X17990690Y2056405D01*
X18466880Y3580215D02*
X18466880Y3008786D01*
X18466880Y3294500D02*
X17466880Y3294500D01*
X17609738Y3199262D01*
X17704976Y3104024D01*
X17752595Y3008786D01*
G04 #@! TD*
M02*
