%MOIN*%
%OFA0B0*%
%FSLAX46Y46*%
%IPPOS*%
%LPD*%
%ADD10C,0.0039370078740157488*%
%ADD11C,0.051181102362204731*%
%ADD12C,0.0905511811023622*%
%ADD13R,0.082677165354330714X0.082677165354330714*%
%ADD14O,0.082677165354330714X0.082677165354330714*%
%ADD25C,0.0039370078740157488*%
%ADD26C,0.051181102362204731*%
%ADD27C,0.0905511811023622*%
%ADD28R,0.082677165354330714X0.082677165354330714*%
%ADD29O,0.082677165354330714X0.082677165354330714*%
%ADD30C,0.0039370078740157488*%
%ADD31C,0.051181102362204731*%
%ADD32C,0.0905511811023622*%
%ADD33R,0.082677165354330714X0.082677165354330714*%
%ADD34O,0.082677165354330714X0.082677165354330714*%
%ADD35C,0.0039370078740157488*%
%ADD36C,0.051181102362204731*%
%ADD37C,0.0905511811023622*%
%ADD38R,0.082677165354330714X0.082677165354330714*%
%ADD39O,0.082677165354330714X0.082677165354330714*%
%ADD40C,0.0039370078740157488*%
%ADD41C,0.051181102362204731*%
%ADD42C,0.0905511811023622*%
%ADD43R,0.082677165354330714X0.082677165354330714*%
%ADD44O,0.082677165354330714X0.082677165354330714*%
%ADD45C,0.0039370078740157488*%
%ADD46C,0.051181102362204731*%
%ADD47C,0.0905511811023622*%
%ADD48R,0.082677165354330714X0.082677165354330714*%
%ADD49O,0.082677165354330714X0.082677165354330714*%
%ADD50C,0.0039370078740157488*%
%ADD51C,0.051181102362204731*%
%ADD52C,0.0905511811023622*%
%ADD53R,0.082677165354330714X0.082677165354330714*%
%ADD54O,0.082677165354330714X0.082677165354330714*%
%ADD55C,0.0039370078740157488*%
%ADD56C,0.051181102362204731*%
%ADD57C,0.0905511811023622*%
%ADD58R,0.082677165354330714X0.082677165354330714*%
%ADD59O,0.082677165354330714X0.082677165354330714*%
%ADD60C,0.0039370078740157488*%
%ADD61C,0.051181102362204731*%
%ADD62C,0.0905511811023622*%
%ADD63R,0.082677165354330714X0.082677165354330714*%
%ADD64O,0.082677165354330714X0.082677165354330714*%
%ADD65C,0.0039370078740157488*%
%ADD66C,0.051181102362204731*%
%ADD67C,0.0905511811023622*%
%ADD68R,0.082677165354330714X0.082677165354330714*%
%ADD69O,0.082677165354330714X0.082677165354330714*%
%ADD70C,0.0039370078740157488*%
%ADD71C,0.051181102362204731*%
%ADD72C,0.0905511811023622*%
%ADD73R,0.082677165354330714X0.082677165354330714*%
%ADD74O,0.082677165354330714X0.082677165354330714*%
%ADD75C,0.0039370078740157488*%
%ADD76C,0.051181102362204731*%
%ADD77C,0.0905511811023622*%
%ADD78R,0.082677165354330714X0.082677165354330714*%
%ADD79O,0.082677165354330714X0.082677165354330714*%
G01G01*
D10*
D11*
X0000002500Y0000000000D02*
X0000724921Y0000852775D03*
D12*
X0000622559Y0000587421D03*
X0000150511Y0000587421D03*
D11*
X0000051692Y0000852775D03*
D13*
X0000620000Y0000160019D03*
D14*
X0000620000Y0000060019D03*
X0000520000Y0000160019D03*
X0000520000Y0000060019D03*
X0000420000Y0000160019D03*
X0000420000Y0000060019D03*
X0000320000Y0000160019D03*
X0000320000Y0000060019D03*
X0000220000Y0000160019D03*
X0000220000Y0000060019D03*
X0000120000Y0000160019D03*
X0000120000Y0000060019D03*
G04 next file*
G04 #@! TF.FileFunction,Soldermask,Bot*
G04 Gerber Fmt 4.6, Leading zero omitted, Abs format (unit mm)*
G04 Created by KiCad (PCBNEW 4.0.4-stable) date 05/23/17 22:39:59*
G01G01*
G04 APERTURE LIST*
G04 APERTURE END LIST*
D25*
D26*
X0000002500Y0001195610D02*
X0000724921Y0002048385D03*
D27*
X0000622559Y0001783031D03*
X0000150511Y0001783031D03*
D26*
X0000051692Y0002048385D03*
D28*
X0000620000Y0001355629D03*
D29*
X0000620000Y0001255629D03*
X0000520000Y0001355629D03*
X0000520000Y0001255629D03*
X0000420000Y0001355629D03*
X0000420000Y0001255629D03*
X0000320000Y0001355629D03*
X0000320000Y0001255629D03*
X0000220000Y0001355629D03*
X0000220000Y0001255629D03*
X0000120000Y0001355629D03*
X0000120000Y0001255629D03*
G04 next file*
G04 #@! TF.FileFunction,Soldermask,Bot*
G04 Gerber Fmt 4.6, Leading zero omitted, Abs format (unit mm)*
G04 Created by KiCad (PCBNEW 4.0.4-stable) date 05/23/17 22:39:59*
G01G01*
G04 APERTURE LIST*
G04 APERTURE END LIST*
D30*
D31*
X0000002500Y0002391220D02*
X0000724921Y0003243996D03*
D32*
X0000622559Y0002978641D03*
X0000150511Y0002978641D03*
D31*
X0000051692Y0003243996D03*
D33*
X0000620000Y0002551240D03*
D34*
X0000620000Y0002451240D03*
X0000520000Y0002551240D03*
X0000520000Y0002451240D03*
X0000420000Y0002551240D03*
X0000420000Y0002451240D03*
X0000320000Y0002551240D03*
X0000320000Y0002451240D03*
X0000220000Y0002551240D03*
X0000220000Y0002451240D03*
X0000120000Y0002551240D03*
X0000120000Y0002451240D03*
G04 next file*
G04 #@! TF.FileFunction,Soldermask,Bot*
G04 Gerber Fmt 4.6, Leading zero omitted, Abs format (unit mm)*
G04 Created by KiCad (PCBNEW 4.0.4-stable) date 05/23/17 22:39:59*
G01G01*
G04 APERTURE LIST*
G04 APERTURE END LIST*
D35*
D36*
X0000905610Y0000000000D02*
X0001628031Y0000852775D03*
D37*
X0001525669Y0000587421D03*
X0001053622Y0000587421D03*
D36*
X0000954803Y0000852775D03*
D38*
X0001523110Y0000160019D03*
D39*
X0001523110Y0000060019D03*
X0001423110Y0000160019D03*
X0001423110Y0000060019D03*
X0001323110Y0000160019D03*
X0001323110Y0000060019D03*
X0001223110Y0000160019D03*
X0001223110Y0000060019D03*
X0001123110Y0000160019D03*
X0001123110Y0000060019D03*
X0001023110Y0000160019D03*
X0001023110Y0000060019D03*
G04 next file*
G04 #@! TF.FileFunction,Soldermask,Bot*
G04 Gerber Fmt 4.6, Leading zero omitted, Abs format (unit mm)*
G04 Created by KiCad (PCBNEW 4.0.4-stable) date 05/23/17 22:39:59*
G01G01*
G04 APERTURE LIST*
G04 APERTURE END LIST*
D40*
D41*
X0001808720Y0000000000D02*
X0002531141Y0000852775D03*
D42*
X0002428779Y0000587421D03*
X0001956732Y0000587421D03*
D41*
X0001857913Y0000852775D03*
D43*
X0002426220Y0000160019D03*
D44*
X0002426220Y0000060019D03*
X0002326220Y0000160019D03*
X0002326220Y0000060019D03*
X0002226220Y0000160019D03*
X0002226220Y0000060019D03*
X0002126220Y0000160019D03*
X0002126220Y0000060019D03*
X0002026220Y0000160019D03*
X0002026220Y0000060019D03*
X0001926220Y0000160019D03*
X0001926220Y0000060019D03*
G04 next file*
G04 #@! TF.FileFunction,Soldermask,Bot*
G04 Gerber Fmt 4.6, Leading zero omitted, Abs format (unit mm)*
G04 Created by KiCad (PCBNEW 4.0.4-stable) date 05/23/17 22:39:59*
G01G01*
G04 APERTURE LIST*
G04 APERTURE END LIST*
D45*
D46*
X0002711830Y0000000000D02*
X0003434251Y0000852775D03*
D47*
X0003331889Y0000587421D03*
X0002859842Y0000587421D03*
D46*
X0002761023Y0000852775D03*
D48*
X0003329330Y0000160019D03*
D49*
X0003329330Y0000060019D03*
X0003229330Y0000160019D03*
X0003229330Y0000060019D03*
X0003129330Y0000160019D03*
X0003129330Y0000060019D03*
X0003029330Y0000160019D03*
X0003029330Y0000060019D03*
X0002929330Y0000160019D03*
X0002929330Y0000060019D03*
X0002829330Y0000160019D03*
X0002829330Y0000060019D03*
G04 next file*
G04 #@! TF.FileFunction,Soldermask,Bot*
G04 Gerber Fmt 4.6, Leading zero omitted, Abs format (unit mm)*
G04 Created by KiCad (PCBNEW 4.0.4-stable) date 05/23/17 22:39:59*
G01G01*
G04 APERTURE LIST*
G04 APERTURE END LIST*
D50*
D51*
X0000905610Y0001195610D02*
X0001628031Y0002048385D03*
D52*
X0001525669Y0001783031D03*
X0001053622Y0001783031D03*
D51*
X0000954803Y0002048385D03*
D53*
X0001523110Y0001355629D03*
D54*
X0001523110Y0001255629D03*
X0001423110Y0001355629D03*
X0001423110Y0001255629D03*
X0001323110Y0001355629D03*
X0001323110Y0001255629D03*
X0001223110Y0001355629D03*
X0001223110Y0001255629D03*
X0001123110Y0001355629D03*
X0001123110Y0001255629D03*
X0001023110Y0001355629D03*
X0001023110Y0001255629D03*
G04 next file*
G04 #@! TF.FileFunction,Soldermask,Bot*
G04 Gerber Fmt 4.6, Leading zero omitted, Abs format (unit mm)*
G04 Created by KiCad (PCBNEW 4.0.4-stable) date 05/23/17 22:39:59*
G01G01*
G04 APERTURE LIST*
G04 APERTURE END LIST*
D55*
D56*
X0000905610Y0002391220D02*
X0001628031Y0003243996D03*
D57*
X0001525669Y0002978641D03*
X0001053622Y0002978641D03*
D56*
X0000954803Y0003243996D03*
D58*
X0001523110Y0002551240D03*
D59*
X0001523110Y0002451240D03*
X0001423110Y0002551240D03*
X0001423110Y0002451240D03*
X0001323110Y0002551240D03*
X0001323110Y0002451240D03*
X0001223110Y0002551240D03*
X0001223110Y0002451240D03*
X0001123110Y0002551240D03*
X0001123110Y0002451240D03*
X0001023110Y0002551240D03*
X0001023110Y0002451240D03*
G04 next file*
G04 #@! TF.FileFunction,Soldermask,Bot*
G04 Gerber Fmt 4.6, Leading zero omitted, Abs format (unit mm)*
G04 Created by KiCad (PCBNEW 4.0.4-stable) date 05/23/17 22:39:59*
G01G01*
G04 APERTURE LIST*
G04 APERTURE END LIST*
D60*
D61*
X0001808720Y0001195610D02*
X0002531141Y0002048385D03*
D62*
X0002428779Y0001783031D03*
X0001956732Y0001783031D03*
D61*
X0001857913Y0002048385D03*
D63*
X0002426220Y0001355629D03*
D64*
X0002426220Y0001255629D03*
X0002326220Y0001355629D03*
X0002326220Y0001255629D03*
X0002226220Y0001355629D03*
X0002226220Y0001255629D03*
X0002126220Y0001355629D03*
X0002126220Y0001255629D03*
X0002026220Y0001355629D03*
X0002026220Y0001255629D03*
X0001926220Y0001355629D03*
X0001926220Y0001255629D03*
G04 next file*
G04 #@! TF.FileFunction,Soldermask,Bot*
G04 Gerber Fmt 4.6, Leading zero omitted, Abs format (unit mm)*
G04 Created by KiCad (PCBNEW 4.0.4-stable) date 05/23/17 22:39:59*
G01G01*
G04 APERTURE LIST*
G04 APERTURE END LIST*
D65*
D66*
X0002711830Y0001195610D02*
X0003434251Y0002048385D03*
D67*
X0003331889Y0001783031D03*
X0002859842Y0001783031D03*
D66*
X0002761023Y0002048385D03*
D68*
X0003329330Y0001355629D03*
D69*
X0003329330Y0001255629D03*
X0003229330Y0001355629D03*
X0003229330Y0001255629D03*
X0003129330Y0001355629D03*
X0003129330Y0001255629D03*
X0003029330Y0001355629D03*
X0003029330Y0001255629D03*
X0002929330Y0001355629D03*
X0002929330Y0001255629D03*
X0002829330Y0001355629D03*
X0002829330Y0001255629D03*
G04 next file*
G04 #@! TF.FileFunction,Soldermask,Bot*
G04 Gerber Fmt 4.6, Leading zero omitted, Abs format (unit mm)*
G04 Created by KiCad (PCBNEW 4.0.4-stable) date 05/23/17 22:39:59*
G01G01*
G04 APERTURE LIST*
G04 APERTURE END LIST*
D70*
D71*
X0001808720Y0002391220D02*
X0002531141Y0003243996D03*
D72*
X0002428779Y0002978641D03*
X0001956732Y0002978641D03*
D71*
X0001857913Y0003243996D03*
D73*
X0002426220Y0002551240D03*
D74*
X0002426220Y0002451240D03*
X0002326220Y0002551240D03*
X0002326220Y0002451240D03*
X0002226220Y0002551240D03*
X0002226220Y0002451240D03*
X0002126220Y0002551240D03*
X0002126220Y0002451240D03*
X0002026220Y0002551240D03*
X0002026220Y0002451240D03*
X0001926220Y0002551240D03*
X0001926220Y0002451240D03*
G04 next file*
G04 #@! TF.FileFunction,Soldermask,Bot*
G04 Gerber Fmt 4.6, Leading zero omitted, Abs format (unit mm)*
G04 Created by KiCad (PCBNEW 4.0.4-stable) date 05/23/17 22:39:59*
G01G01*
G04 APERTURE LIST*
G04 APERTURE END LIST*
D75*
D76*
X0002711830Y0002391220D02*
X0003434251Y0003243996D03*
D77*
X0003331889Y0002978641D03*
X0002859842Y0002978641D03*
D76*
X0002761023Y0003243996D03*
D78*
X0003329330Y0002551240D03*
D79*
X0003329330Y0002451240D03*
X0003229330Y0002551240D03*
X0003229330Y0002451240D03*
X0003129330Y0002551240D03*
X0003129330Y0002451240D03*
X0003029330Y0002551240D03*
X0003029330Y0002451240D03*
X0002929330Y0002551240D03*
X0002929330Y0002451240D03*
X0002829330Y0002551240D03*
X0002829330Y0002451240D03*
M02*