%MOIN*%
%OFA0B0*%
%FSLAX46Y46*%
%IPPOS*%
%LPD*%
%ADD10C,0.0039370078740157488*%
%ADD11R,0.059055118110236227X0.15748031496062992*%
%ADD12C,0.035433070866141732*%
%ADD13R,0.023622047244094488X0.082677165354330714*%
%ADD14R,0.035433070866141732X0.01968503937007874*%
%ADD15R,0.025590551181102365X0.015748031496062995*%
%ADD16R,0.017716535433070866X0.015748031496062995*%
%ADD17R,0.066929133858267723X0.066929133858267723*%
%ADD18O,0.066929133858267723X0.066929133858267723*%
%ADD19C,0.023622047244094488*%
%ADD20C,0.00984251968503937*%
%ADD31C,0.0039370078740157488*%
%ADD32R,0.059055118110236227X0.15748031496062992*%
%ADD33C,0.035433070866141732*%
%ADD34R,0.023622047244094488X0.082677165354330714*%
%ADD35R,0.035433070866141732X0.01968503937007874*%
%ADD36R,0.025590551181102365X0.015748031496062995*%
%ADD37R,0.017716535433070866X0.015748031496062995*%
%ADD38R,0.066929133858267723X0.066929133858267723*%
%ADD39O,0.066929133858267723X0.066929133858267723*%
%ADD40C,0.023622047244094488*%
%ADD41C,0.00984251968503937*%
%ADD42C,0.0039370078740157488*%
%ADD43R,0.059055118110236227X0.15748031496062992*%
%ADD44C,0.035433070866141732*%
%ADD45R,0.023622047244094488X0.082677165354330714*%
%ADD46R,0.035433070866141732X0.01968503937007874*%
%ADD47R,0.025590551181102365X0.015748031496062995*%
%ADD48R,0.017716535433070866X0.015748031496062995*%
%ADD49R,0.066929133858267723X0.066929133858267723*%
%ADD50O,0.066929133858267723X0.066929133858267723*%
%ADD51C,0.023622047244094488*%
%ADD52C,0.00984251968503937*%
%ADD53C,0.0039370078740157488*%
%ADD54R,0.059055118110236227X0.15748031496062992*%
%ADD55C,0.035433070866141732*%
%ADD56R,0.023622047244094488X0.082677165354330714*%
%ADD57R,0.035433070866141732X0.01968503937007874*%
%ADD58R,0.025590551181102365X0.015748031496062995*%
%ADD59R,0.017716535433070866X0.015748031496062995*%
%ADD60R,0.066929133858267723X0.066929133858267723*%
%ADD61O,0.066929133858267723X0.066929133858267723*%
%ADD62C,0.023622047244094488*%
%ADD63C,0.00984251968503937*%
%ADD64C,0.0039370078740157488*%
%ADD65R,0.059055118110236227X0.15748031496062992*%
%ADD66C,0.035433070866141732*%
%ADD67R,0.023622047244094488X0.082677165354330714*%
%ADD68R,0.035433070866141732X0.01968503937007874*%
%ADD69R,0.025590551181102365X0.015748031496062995*%
%ADD70R,0.017716535433070866X0.015748031496062995*%
%ADD71R,0.066929133858267723X0.066929133858267723*%
%ADD72O,0.066929133858267723X0.066929133858267723*%
%ADD73C,0.023622047244094488*%
%ADD74C,0.00984251968503937*%
%ADD75C,0.0039370078740157488*%
%ADD76R,0.059055118110236227X0.15748031496062992*%
%ADD77C,0.035433070866141732*%
%ADD78R,0.023622047244094488X0.082677165354330714*%
%ADD79R,0.035433070866141732X0.01968503937007874*%
%ADD80R,0.025590551181102365X0.015748031496062995*%
%ADD81R,0.017716535433070866X0.015748031496062995*%
%ADD82R,0.066929133858267723X0.066929133858267723*%
%ADD83O,0.066929133858267723X0.066929133858267723*%
%ADD84C,0.023622047244094488*%
%ADD85C,0.00984251968503937*%
%ADD86C,0.0039370078740157488*%
%ADD87R,0.059055118110236227X0.15748031496062992*%
%ADD88C,0.035433070866141732*%
%ADD89R,0.023622047244094488X0.082677165354330714*%
%ADD90R,0.035433070866141732X0.01968503937007874*%
%ADD91R,0.025590551181102365X0.015748031496062995*%
%ADD92R,0.017716535433070866X0.015748031496062995*%
%ADD93R,0.066929133858267723X0.066929133858267723*%
%ADD94O,0.066929133858267723X0.066929133858267723*%
%ADD95C,0.023622047244094488*%
%ADD96C,0.00984251968503937*%
%ADD97C,0.0039370078740157488*%
%ADD98R,0.059055118110236227X0.15748031496062992*%
%ADD99C,0.035433070866141732*%
%ADD100R,0.023622047244094488X0.082677165354330714*%
%ADD101R,0.035433070866141732X0.01968503937007874*%
%ADD102R,0.025590551181102365X0.015748031496062995*%
%ADD103R,0.017716535433070866X0.015748031496062995*%
%ADD104R,0.066929133858267723X0.066929133858267723*%
%ADD105O,0.066929133858267723X0.066929133858267723*%
%ADD106C,0.023622047244094488*%
%ADD107C,0.00984251968503937*%
%ADD108C,0.0039370078740157488*%
%ADD109R,0.059055118110236227X0.15748031496062992*%
%ADD110C,0.035433070866141732*%
%ADD111R,0.023622047244094488X0.082677165354330714*%
%ADD112R,0.035433070866141732X0.01968503937007874*%
%ADD113R,0.025590551181102365X0.015748031496062995*%
%ADD114R,0.017716535433070866X0.015748031496062995*%
%ADD115R,0.066929133858267723X0.066929133858267723*%
%ADD116O,0.066929133858267723X0.066929133858267723*%
%ADD117C,0.023622047244094488*%
%ADD118C,0.00984251968503937*%
%ADD119C,0.0039370078740157488*%
%ADD120R,0.059055118110236227X0.15748031496062992*%
%ADD121C,0.035433070866141732*%
%ADD122R,0.023622047244094488X0.082677165354330714*%
%ADD123R,0.035433070866141732X0.01968503937007874*%
%ADD124R,0.025590551181102365X0.015748031496062995*%
%ADD125R,0.017716535433070866X0.015748031496062995*%
%ADD126R,0.066929133858267723X0.066929133858267723*%
%ADD127O,0.066929133858267723X0.066929133858267723*%
%ADD128C,0.023622047244094488*%
%ADD129C,0.00984251968503937*%
%ADD130C,0.0039370078740157488*%
%ADD131R,0.059055118110236227X0.15748031496062992*%
%ADD132C,0.035433070866141732*%
%ADD133R,0.023622047244094488X0.082677165354330714*%
%ADD134R,0.035433070866141732X0.01968503937007874*%
%ADD135R,0.025590551181102365X0.015748031496062995*%
%ADD136R,0.017716535433070866X0.015748031496062995*%
%ADD137R,0.066929133858267723X0.066929133858267723*%
%ADD138O,0.066929133858267723X0.066929133858267723*%
%ADD139C,0.023622047244094488*%
%ADD140C,0.00984251968503937*%
%ADD141C,0.0039370078740157488*%
%ADD142R,0.059055118110236227X0.15748031496062992*%
%ADD143C,0.035433070866141732*%
%ADD144R,0.023622047244094488X0.082677165354330714*%
%ADD145R,0.035433070866141732X0.01968503937007874*%
%ADD146R,0.025590551181102365X0.015748031496062995*%
%ADD147R,0.017716535433070866X0.015748031496062995*%
%ADD148R,0.066929133858267723X0.066929133858267723*%
%ADD149O,0.066929133858267723X0.066929133858267723*%
%ADD150C,0.023622047244094488*%
%ADD151C,0.00984251968503937*%
G01G01*
D10*
D11*
X0000002500Y0000000000D02*
X0000724921Y0000852775D03*
D12*
X0000724921Y0000852775D03*
D13*
X0000244606Y0000577972D03*
X0000284763Y0000577972D03*
X0000324921Y0000577972D03*
X0000365078Y0000577972D03*
X0000405236Y0000577972D03*
X0000445393Y0000577972D03*
X0000485551Y0000577972D03*
X0000525708Y0000577972D03*
D12*
X0000051692Y0000852775D03*
D11*
X0000051692Y0000852775D03*
D14*
X0000070000Y0000462027D03*
X0000070000Y0000402972D03*
X0000070000Y0000312027D03*
X0000070000Y0000252972D03*
D15*
X0000380236Y0000488602D03*
X0000380236Y0000441358D03*
X0000474724Y0000488602D03*
X0000474724Y0000441358D03*
D16*
X0000411732Y0000488602D03*
X0000443228Y0000488602D03*
X0000443228Y0000441358D03*
X0000411732Y0000441358D03*
D15*
X0000380236Y0000346122D03*
X0000380236Y0000298877D03*
X0000474724Y0000346122D03*
X0000474724Y0000298877D03*
D16*
X0000411732Y0000346122D03*
X0000443228Y0000346122D03*
X0000443228Y0000298877D03*
X0000411732Y0000298877D03*
D15*
X0000222755Y0000488602D03*
X0000222755Y0000441358D03*
X0000317244Y0000488602D03*
X0000317244Y0000441358D03*
D16*
X0000254251Y0000488602D03*
X0000285748Y0000488602D03*
X0000285748Y0000441358D03*
X0000254251Y0000441358D03*
D15*
X0000222755Y0000346122D03*
X0000222755Y0000298877D03*
X0000317244Y0000346122D03*
X0000317244Y0000298877D03*
D16*
X0000254251Y0000346122D03*
X0000285748Y0000346122D03*
X0000285748Y0000298877D03*
X0000254251Y0000298877D03*
D17*
X0000620000Y0000160019D03*
D18*
X0000620000Y0000060019D03*
X0000520000Y0000160019D03*
X0000520000Y0000060019D03*
X0000420000Y0000160019D03*
X0000420000Y0000060019D03*
X0000320000Y0000160019D03*
X0000320000Y0000060019D03*
X0000220000Y0000160019D03*
X0000220000Y0000060019D03*
X0000120000Y0000160019D03*
X0000120000Y0000060019D03*
D19*
X0000380236Y0000373862D03*
D20*
X0000724921Y0000723559D02*
X0000724921Y0000852775D01*
X0000654996Y0000653633D02*
X0000724921Y0000723559D01*
X0000115059Y0000653633D02*
X0000654996Y0000653633D01*
X0000051692Y0000717000D02*
X0000115059Y0000653633D01*
X0000051692Y0000852775D02*
X0000051692Y0000717000D01*
X0000109149Y0000523826D02*
X0000244606Y0000523826D01*
X0000070000Y0000484677D02*
X0000109149Y0000523826D01*
X0000244606Y0000577972D02*
X0000244606Y0000523826D01*
X0000070000Y0000462027D02*
X0000070000Y0000484677D01*
X0000285748Y0000522842D02*
X0000284763Y0000523826D01*
X0000285748Y0000488602D02*
X0000285748Y0000522842D01*
X0000284763Y0000577972D02*
X0000284763Y0000523826D01*
X0000324921Y0000522724D02*
X0000324921Y0000577972D01*
X0000342846Y0000504799D02*
X0000324921Y0000522724D01*
X0000342846Y0000488602D02*
X0000342846Y0000504799D01*
X0000317244Y0000488602D02*
X0000342846Y0000488602D01*
X0000380236Y0000508669D02*
X0000365078Y0000523826D01*
X0000380236Y0000488602D02*
X0000380236Y0000508669D01*
X0000365078Y0000577972D02*
X0000365078Y0000523826D01*
X0000411732Y0000517330D02*
X0000405236Y0000523826D01*
X0000411732Y0000488602D02*
X0000411732Y0000517330D01*
X0000405236Y0000577972D02*
X0000405236Y0000523826D01*
X0000443228Y0000521661D02*
X0000445393Y0000523826D01*
X0000443228Y0000488602D02*
X0000443228Y0000521661D01*
X0000445393Y0000577972D02*
X0000445393Y0000523826D01*
X0000500326Y0000509051D02*
X0000485551Y0000523826D01*
X0000500326Y0000488602D02*
X0000500326Y0000509051D01*
X0000474724Y0000488602D02*
X0000500326Y0000488602D01*
X0000485551Y0000577972D02*
X0000485551Y0000523826D01*
X0000285748Y0000298877D02*
X0000317244Y0000298877D01*
X0000285748Y0000298877D02*
X0000254251Y0000298877D01*
X0000254251Y0000298877D02*
X0000222755Y0000298877D01*
X0000443228Y0000298877D02*
X0000474724Y0000298877D01*
X0000411732Y0000298877D02*
X0000443228Y0000298877D01*
X0000411732Y0000298877D02*
X0000390066Y0000298877D01*
X0000380236Y0000298877D02*
X0000390066Y0000298877D01*
X0000173507Y0000249629D02*
X0000173507Y0000038287D01*
X0000222755Y0000298877D02*
X0000173507Y0000249629D01*
X0000380236Y0000294401D02*
X0000380236Y0000298877D01*
X0000270000Y0000184165D02*
X0000380236Y0000294401D01*
X0000270000Y0000042338D02*
X0000270000Y0000184165D01*
X0000240885Y0000013224D02*
X0000270000Y0000042338D01*
X0000198570Y0000013224D02*
X0000240885Y0000013224D01*
X0000173507Y0000038287D02*
X0000198570Y0000013224D01*
X0000070000Y0000252972D02*
X0000070000Y0000275622D01*
X0000525708Y0000486173D02*
X0000525708Y0000577972D01*
X0000504515Y0000464980D02*
X0000525708Y0000486173D01*
X0000150283Y0000464980D02*
X0000504515Y0000464980D01*
X0000102267Y0000416964D02*
X0000150283Y0000464980D01*
X0000093606Y0000425625D02*
X0000102267Y0000416964D01*
X0000045169Y0000425625D02*
X0000093606Y0000425625D01*
X0000021437Y0000401893D02*
X0000045169Y0000425625D01*
X0000021437Y0000090370D02*
X0000021437Y0000401893D01*
X0000098582Y0000013224D02*
X0000021437Y0000090370D01*
X0000148444Y0000013224D02*
X0000098582Y0000013224D01*
X0000173507Y0000038287D02*
X0000148444Y0000013224D01*
X0000081322Y0000275622D02*
X0000070000Y0000275622D01*
X0000102267Y0000296566D02*
X0000081322Y0000275622D01*
X0000102267Y0000416964D02*
X0000102267Y0000296566D01*
X0000620000Y0000160019D02*
X0000596866Y0000160019D01*
X0000474724Y0000441358D02*
X0000500326Y0000441358D01*
X0000596866Y0000344818D02*
X0000596866Y0000160019D01*
X0000500326Y0000441358D02*
X0000596866Y0000344818D01*
X0000520000Y0000326448D02*
X0000500326Y0000346122D01*
X0000520000Y0000261433D02*
X0000520000Y0000326448D01*
X0000473661Y0000215094D02*
X0000520000Y0000261433D01*
X0000473661Y0000139389D02*
X0000473661Y0000215094D01*
X0000499307Y0000113744D02*
X0000473661Y0000139389D01*
X0000550590Y0000113744D02*
X0000499307Y0000113744D01*
X0000596866Y0000160019D02*
X0000550590Y0000113744D01*
X0000474724Y0000346122D02*
X0000500326Y0000346122D01*
X0000070000Y0000312027D02*
X0000070000Y0000402972D01*
X0000039472Y0000281500D02*
X0000070000Y0000312027D01*
X0000039472Y0000172358D02*
X0000039472Y0000281500D01*
X0000105539Y0000106291D02*
X0000039472Y0000172358D01*
X0000120000Y0000106291D02*
X0000105539Y0000106291D01*
X0000120000Y0000060019D02*
X0000120000Y0000106291D01*
X0000443228Y0000346122D02*
X0000443228Y0000366803D01*
X0000443228Y0000366803D02*
X0000443228Y0000441358D01*
X0000504822Y0000366803D02*
X0000443228Y0000366803D01*
X0000537728Y0000333897D02*
X0000504822Y0000366803D01*
X0000537728Y0000224019D02*
X0000537728Y0000333897D01*
X0000520000Y0000206291D02*
X0000537728Y0000224019D01*
X0000520000Y0000160019D02*
X0000520000Y0000206291D01*
X0000411732Y0000346122D02*
X0000411732Y0000441358D01*
X0000487862Y0000325440D02*
X0000411732Y0000325440D01*
X0000500330Y0000312972D02*
X0000487862Y0000325440D01*
X0000500330Y0000281677D02*
X0000500330Y0000312972D01*
X0000424944Y0000206291D02*
X0000500330Y0000281677D01*
X0000420000Y0000206291D02*
X0000424944Y0000206291D01*
X0000420000Y0000160019D02*
X0000420000Y0000206291D01*
X0000411732Y0000346122D02*
X0000411732Y0000325440D01*
X0000380236Y0000346122D02*
X0000380236Y0000373862D01*
X0000380236Y0000373862D02*
X0000380236Y0000441358D01*
X0000317244Y0000346122D02*
X0000330047Y0000346122D01*
X0000342846Y0000358921D02*
X0000342846Y0000441358D01*
X0000330047Y0000346122D02*
X0000342846Y0000358921D01*
X0000317244Y0000441358D02*
X0000342846Y0000441358D01*
X0000342850Y0000333318D02*
X0000330047Y0000346122D01*
X0000342850Y0000282870D02*
X0000342850Y0000333318D01*
X0000266271Y0000206291D02*
X0000342850Y0000282870D01*
X0000220000Y0000206291D02*
X0000266271Y0000206291D01*
X0000220000Y0000160019D02*
X0000220000Y0000206291D01*
X0000285748Y0000346122D02*
X0000285748Y0000441358D01*
X0000208519Y0000325440D02*
X0000285748Y0000325440D01*
X0000120000Y0000236921D02*
X0000208519Y0000325440D01*
X0000120000Y0000160019D02*
X0000120000Y0000236921D01*
X0000285748Y0000346122D02*
X0000285748Y0000325440D01*
G04 next file*
G04 #@! TF.FileFunction,Copper,L1,Top,Signal*
G04 Gerber Fmt 4.6, Leading zero omitted, Abs format (unit mm)*
G04 Created by KiCad (PCBNEW 4.0.4-stable) date 05/23/17 22:39:58*
G01G01*
G04 APERTURE LIST*
G04 APERTURE END LIST*
D31*
D32*
X0000002500Y0001195610D02*
X0000724921Y0002048385D03*
D33*
X0000724921Y0002048385D03*
D34*
X0000244606Y0001773582D03*
X0000284763Y0001773582D03*
X0000324921Y0001773582D03*
X0000365078Y0001773582D03*
X0000405236Y0001773582D03*
X0000445393Y0001773582D03*
X0000485551Y0001773582D03*
X0000525708Y0001773582D03*
D33*
X0000051692Y0002048385D03*
D32*
X0000051692Y0002048385D03*
D35*
X0000070000Y0001657637D03*
X0000070000Y0001598582D03*
X0000070000Y0001507637D03*
X0000070000Y0001448582D03*
D36*
X0000380236Y0001684212D03*
X0000380236Y0001636968D03*
X0000474724Y0001684212D03*
X0000474724Y0001636968D03*
D37*
X0000411732Y0001684212D03*
X0000443228Y0001684212D03*
X0000443228Y0001636968D03*
X0000411732Y0001636968D03*
D36*
X0000380236Y0001541732D03*
X0000380236Y0001494488D03*
X0000474724Y0001541732D03*
X0000474724Y0001494488D03*
D37*
X0000411732Y0001541732D03*
X0000443228Y0001541732D03*
X0000443228Y0001494488D03*
X0000411732Y0001494488D03*
D36*
X0000222755Y0001684212D03*
X0000222755Y0001636968D03*
X0000317244Y0001684212D03*
X0000317244Y0001636968D03*
D37*
X0000254251Y0001684212D03*
X0000285748Y0001684212D03*
X0000285748Y0001636968D03*
X0000254251Y0001636968D03*
D36*
X0000222755Y0001541732D03*
X0000222755Y0001494488D03*
X0000317244Y0001541732D03*
X0000317244Y0001494488D03*
D37*
X0000254251Y0001541732D03*
X0000285748Y0001541732D03*
X0000285748Y0001494488D03*
X0000254251Y0001494488D03*
D38*
X0000620000Y0001355629D03*
D39*
X0000620000Y0001255629D03*
X0000520000Y0001355629D03*
X0000520000Y0001255629D03*
X0000420000Y0001355629D03*
X0000420000Y0001255629D03*
X0000320000Y0001355629D03*
X0000320000Y0001255629D03*
X0000220000Y0001355629D03*
X0000220000Y0001255629D03*
X0000120000Y0001355629D03*
X0000120000Y0001255629D03*
D40*
X0000380236Y0001569472D03*
D41*
X0000724921Y0001919169D02*
X0000724921Y0002048385D01*
X0000654996Y0001849244D02*
X0000724921Y0001919169D01*
X0000115059Y0001849244D02*
X0000654996Y0001849244D01*
X0000051692Y0001912610D02*
X0000115059Y0001849244D01*
X0000051692Y0002048385D02*
X0000051692Y0001912610D01*
X0000109149Y0001719436D02*
X0000244606Y0001719436D01*
X0000070000Y0001680287D02*
X0000109149Y0001719436D01*
X0000244606Y0001773582D02*
X0000244606Y0001719436D01*
X0000070000Y0001657637D02*
X0000070000Y0001680287D01*
X0000285748Y0001718452D02*
X0000284763Y0001719436D01*
X0000285748Y0001684212D02*
X0000285748Y0001718452D01*
X0000284763Y0001773582D02*
X0000284763Y0001719436D01*
X0000324921Y0001718334D02*
X0000324921Y0001773582D01*
X0000342846Y0001700409D02*
X0000324921Y0001718334D01*
X0000342846Y0001684212D02*
X0000342846Y0001700409D01*
X0000317244Y0001684212D02*
X0000342846Y0001684212D01*
X0000380236Y0001704279D02*
X0000365078Y0001719436D01*
X0000380236Y0001684212D02*
X0000380236Y0001704279D01*
X0000365078Y0001773582D02*
X0000365078Y0001719436D01*
X0000411732Y0001712940D02*
X0000405236Y0001719436D01*
X0000411732Y0001684212D02*
X0000411732Y0001712940D01*
X0000405236Y0001773582D02*
X0000405236Y0001719436D01*
X0000443228Y0001717271D02*
X0000445393Y0001719436D01*
X0000443228Y0001684212D02*
X0000443228Y0001717271D01*
X0000445393Y0001773582D02*
X0000445393Y0001719436D01*
X0000500326Y0001704661D02*
X0000485551Y0001719436D01*
X0000500326Y0001684212D02*
X0000500326Y0001704661D01*
X0000474724Y0001684212D02*
X0000500326Y0001684212D01*
X0000485551Y0001773582D02*
X0000485551Y0001719436D01*
X0000285748Y0001494488D02*
X0000317244Y0001494488D01*
X0000285748Y0001494488D02*
X0000254251Y0001494488D01*
X0000254251Y0001494488D02*
X0000222755Y0001494488D01*
X0000443228Y0001494488D02*
X0000474724Y0001494488D01*
X0000411732Y0001494488D02*
X0000443228Y0001494488D01*
X0000411732Y0001494488D02*
X0000390066Y0001494488D01*
X0000380236Y0001494488D02*
X0000390066Y0001494488D01*
X0000173507Y0001445240D02*
X0000173507Y0001233897D01*
X0000222755Y0001494488D02*
X0000173507Y0001445240D01*
X0000380236Y0001490011D02*
X0000380236Y0001494488D01*
X0000270000Y0001379775D02*
X0000380236Y0001490011D01*
X0000270000Y0001237948D02*
X0000270000Y0001379775D01*
X0000240885Y0001208834D02*
X0000270000Y0001237948D01*
X0000198570Y0001208834D02*
X0000240885Y0001208834D01*
X0000173507Y0001233897D02*
X0000198570Y0001208834D01*
X0000070000Y0001448582D02*
X0000070000Y0001471232D01*
X0000525708Y0001681783D02*
X0000525708Y0001773582D01*
X0000504515Y0001660590D02*
X0000525708Y0001681783D01*
X0000150283Y0001660590D02*
X0000504515Y0001660590D01*
X0000102267Y0001612574D02*
X0000150283Y0001660590D01*
X0000093606Y0001621236D02*
X0000102267Y0001612574D01*
X0000045169Y0001621236D02*
X0000093606Y0001621236D01*
X0000021437Y0001597503D02*
X0000045169Y0001621236D01*
X0000021437Y0001285980D02*
X0000021437Y0001597503D01*
X0000098582Y0001208834D02*
X0000021437Y0001285980D01*
X0000148444Y0001208834D02*
X0000098582Y0001208834D01*
X0000173507Y0001233897D02*
X0000148444Y0001208834D01*
X0000081322Y0001471232D02*
X0000070000Y0001471232D01*
X0000102267Y0001492177D02*
X0000081322Y0001471232D01*
X0000102267Y0001612574D02*
X0000102267Y0001492177D01*
X0000620000Y0001355629D02*
X0000596866Y0001355629D01*
X0000474724Y0001636968D02*
X0000500326Y0001636968D01*
X0000596866Y0001540429D02*
X0000596866Y0001355629D01*
X0000500326Y0001636968D02*
X0000596866Y0001540429D01*
X0000520000Y0001522059D02*
X0000500326Y0001541732D01*
X0000520000Y0001457043D02*
X0000520000Y0001522059D01*
X0000473661Y0001410704D02*
X0000520000Y0001457043D01*
X0000473661Y0001334999D02*
X0000473661Y0001410704D01*
X0000499307Y0001309354D02*
X0000473661Y0001334999D01*
X0000550590Y0001309354D02*
X0000499307Y0001309354D01*
X0000596866Y0001355629D02*
X0000550590Y0001309354D01*
X0000474724Y0001541732D02*
X0000500326Y0001541732D01*
X0000070000Y0001507637D02*
X0000070000Y0001598582D01*
X0000039472Y0001477110D02*
X0000070000Y0001507637D01*
X0000039472Y0001367968D02*
X0000039472Y0001477110D01*
X0000105539Y0001301901D02*
X0000039472Y0001367968D01*
X0000120000Y0001301901D02*
X0000105539Y0001301901D01*
X0000120000Y0001255629D02*
X0000120000Y0001301901D01*
X0000443228Y0001541732D02*
X0000443228Y0001562413D01*
X0000443228Y0001562413D02*
X0000443228Y0001636968D01*
X0000504822Y0001562413D02*
X0000443228Y0001562413D01*
X0000537728Y0001529507D02*
X0000504822Y0001562413D01*
X0000537728Y0001419629D02*
X0000537728Y0001529507D01*
X0000520000Y0001401901D02*
X0000537728Y0001419629D01*
X0000520000Y0001355629D02*
X0000520000Y0001401901D01*
X0000411732Y0001541732D02*
X0000411732Y0001636968D01*
X0000487862Y0001521051D02*
X0000411732Y0001521051D01*
X0000500330Y0001508582D02*
X0000487862Y0001521051D01*
X0000500330Y0001477287D02*
X0000500330Y0001508582D01*
X0000424944Y0001401901D02*
X0000500330Y0001477287D01*
X0000420000Y0001401901D02*
X0000424944Y0001401901D01*
X0000420000Y0001355629D02*
X0000420000Y0001401901D01*
X0000411732Y0001541732D02*
X0000411732Y0001521051D01*
X0000380236Y0001541732D02*
X0000380236Y0001569472D01*
X0000380236Y0001569472D02*
X0000380236Y0001636968D01*
X0000317244Y0001541732D02*
X0000330047Y0001541732D01*
X0000342846Y0001554531D02*
X0000342846Y0001636968D01*
X0000330047Y0001541732D02*
X0000342846Y0001554531D01*
X0000317244Y0001636968D02*
X0000342846Y0001636968D01*
X0000342850Y0001528929D02*
X0000330047Y0001541732D01*
X0000342850Y0001478480D02*
X0000342850Y0001528929D01*
X0000266271Y0001401901D02*
X0000342850Y0001478480D01*
X0000220000Y0001401901D02*
X0000266271Y0001401901D01*
X0000220000Y0001355629D02*
X0000220000Y0001401901D01*
X0000285748Y0001541732D02*
X0000285748Y0001636968D01*
X0000208519Y0001521051D02*
X0000285748Y0001521051D01*
X0000120000Y0001432531D02*
X0000208519Y0001521051D01*
X0000120000Y0001355629D02*
X0000120000Y0001432531D01*
X0000285748Y0001541732D02*
X0000285748Y0001521051D01*
G04 next file*
G04 #@! TF.FileFunction,Copper,L1,Top,Signal*
G04 Gerber Fmt 4.6, Leading zero omitted, Abs format (unit mm)*
G04 Created by KiCad (PCBNEW 4.0.4-stable) date 05/23/17 22:39:58*
G01G01*
G04 APERTURE LIST*
G04 APERTURE END LIST*
D42*
D43*
X0000002500Y0002391220D02*
X0000724921Y0003243996D03*
D44*
X0000724921Y0003243996D03*
D45*
X0000244606Y0002969192D03*
X0000284763Y0002969192D03*
X0000324921Y0002969192D03*
X0000365078Y0002969192D03*
X0000405236Y0002969192D03*
X0000445393Y0002969192D03*
X0000485551Y0002969192D03*
X0000525708Y0002969192D03*
D44*
X0000051692Y0003243996D03*
D43*
X0000051692Y0003243996D03*
D46*
X0000070000Y0002853247D03*
X0000070000Y0002794192D03*
X0000070000Y0002703247D03*
X0000070000Y0002644192D03*
D47*
X0000380236Y0002879822D03*
X0000380236Y0002832578D03*
X0000474724Y0002879822D03*
X0000474724Y0002832578D03*
D48*
X0000411732Y0002879822D03*
X0000443228Y0002879822D03*
X0000443228Y0002832578D03*
X0000411732Y0002832578D03*
D47*
X0000380236Y0002737342D03*
X0000380236Y0002690098D03*
X0000474724Y0002737342D03*
X0000474724Y0002690098D03*
D48*
X0000411732Y0002737342D03*
X0000443228Y0002737342D03*
X0000443228Y0002690098D03*
X0000411732Y0002690098D03*
D47*
X0000222755Y0002879822D03*
X0000222755Y0002832578D03*
X0000317244Y0002879822D03*
X0000317244Y0002832578D03*
D48*
X0000254251Y0002879822D03*
X0000285748Y0002879822D03*
X0000285748Y0002832578D03*
X0000254251Y0002832578D03*
D47*
X0000222755Y0002737342D03*
X0000222755Y0002690098D03*
X0000317244Y0002737342D03*
X0000317244Y0002690098D03*
D48*
X0000254251Y0002737342D03*
X0000285748Y0002737342D03*
X0000285748Y0002690098D03*
X0000254251Y0002690098D03*
D49*
X0000620000Y0002551240D03*
D50*
X0000620000Y0002451240D03*
X0000520000Y0002551240D03*
X0000520000Y0002451240D03*
X0000420000Y0002551240D03*
X0000420000Y0002451240D03*
X0000320000Y0002551240D03*
X0000320000Y0002451240D03*
X0000220000Y0002551240D03*
X0000220000Y0002451240D03*
X0000120000Y0002551240D03*
X0000120000Y0002451240D03*
D51*
X0000380236Y0002765082D03*
D52*
X0000724921Y0003114779D02*
X0000724921Y0003243996D01*
X0000654996Y0003044854D02*
X0000724921Y0003114779D01*
X0000115059Y0003044854D02*
X0000654996Y0003044854D01*
X0000051692Y0003108220D02*
X0000115059Y0003044854D01*
X0000051692Y0003243996D02*
X0000051692Y0003108220D01*
X0000109149Y0002915047D02*
X0000244606Y0002915047D01*
X0000070000Y0002875897D02*
X0000109149Y0002915047D01*
X0000244606Y0002969192D02*
X0000244606Y0002915047D01*
X0000070000Y0002853247D02*
X0000070000Y0002875897D01*
X0000285748Y0002914062D02*
X0000284763Y0002915047D01*
X0000285748Y0002879822D02*
X0000285748Y0002914062D01*
X0000284763Y0002969192D02*
X0000284763Y0002915047D01*
X0000324921Y0002913944D02*
X0000324921Y0002969192D01*
X0000342846Y0002896019D02*
X0000324921Y0002913944D01*
X0000342846Y0002879822D02*
X0000342846Y0002896019D01*
X0000317244Y0002879822D02*
X0000342846Y0002879822D01*
X0000380236Y0002899889D02*
X0000365078Y0002915047D01*
X0000380236Y0002879822D02*
X0000380236Y0002899889D01*
X0000365078Y0002969192D02*
X0000365078Y0002915047D01*
X0000411732Y0002908551D02*
X0000405236Y0002915047D01*
X0000411732Y0002879822D02*
X0000411732Y0002908551D01*
X0000405236Y0002969192D02*
X0000405236Y0002915047D01*
X0000443228Y0002912881D02*
X0000445393Y0002915047D01*
X0000443228Y0002879822D02*
X0000443228Y0002912881D01*
X0000445393Y0002969192D02*
X0000445393Y0002915047D01*
X0000500326Y0002900271D02*
X0000485551Y0002915047D01*
X0000500326Y0002879822D02*
X0000500326Y0002900271D01*
X0000474724Y0002879822D02*
X0000500326Y0002879822D01*
X0000485551Y0002969192D02*
X0000485551Y0002915047D01*
X0000285748Y0002690098D02*
X0000317244Y0002690098D01*
X0000285748Y0002690098D02*
X0000254251Y0002690098D01*
X0000254251Y0002690098D02*
X0000222755Y0002690098D01*
X0000443228Y0002690098D02*
X0000474724Y0002690098D01*
X0000411732Y0002690098D02*
X0000443228Y0002690098D01*
X0000411732Y0002690098D02*
X0000390066Y0002690098D01*
X0000380236Y0002690098D02*
X0000390066Y0002690098D01*
X0000173507Y0002640850D02*
X0000173507Y0002429507D01*
X0000222755Y0002690098D02*
X0000173507Y0002640850D01*
X0000380236Y0002685622D02*
X0000380236Y0002690098D01*
X0000270000Y0002575385D02*
X0000380236Y0002685622D01*
X0000270000Y0002433559D02*
X0000270000Y0002575385D01*
X0000240885Y0002404444D02*
X0000270000Y0002433559D01*
X0000198570Y0002404444D02*
X0000240885Y0002404444D01*
X0000173507Y0002429507D02*
X0000198570Y0002404444D01*
X0000070000Y0002644192D02*
X0000070000Y0002666842D01*
X0000525708Y0002877393D02*
X0000525708Y0002969192D01*
X0000504515Y0002856200D02*
X0000525708Y0002877393D01*
X0000150283Y0002856200D02*
X0000504515Y0002856200D01*
X0000102267Y0002808185D02*
X0000150283Y0002856200D01*
X0000093606Y0002816846D02*
X0000102267Y0002808185D01*
X0000045169Y0002816846D02*
X0000093606Y0002816846D01*
X0000021437Y0002793114D02*
X0000045169Y0002816846D01*
X0000021437Y0002481590D02*
X0000021437Y0002793114D01*
X0000098582Y0002404444D02*
X0000021437Y0002481590D01*
X0000148444Y0002404444D02*
X0000098582Y0002404444D01*
X0000173507Y0002429507D02*
X0000148444Y0002404444D01*
X0000081322Y0002666842D02*
X0000070000Y0002666842D01*
X0000102267Y0002687787D02*
X0000081322Y0002666842D01*
X0000102267Y0002808185D02*
X0000102267Y0002687787D01*
X0000620000Y0002551240D02*
X0000596866Y0002551240D01*
X0000474724Y0002832578D02*
X0000500326Y0002832578D01*
X0000596866Y0002736039D02*
X0000596866Y0002551240D01*
X0000500326Y0002832578D02*
X0000596866Y0002736039D01*
X0000520000Y0002717669D02*
X0000500326Y0002737342D01*
X0000520000Y0002652653D02*
X0000520000Y0002717669D01*
X0000473661Y0002606314D02*
X0000520000Y0002652653D01*
X0000473661Y0002530610D02*
X0000473661Y0002606314D01*
X0000499307Y0002504964D02*
X0000473661Y0002530610D01*
X0000550590Y0002504964D02*
X0000499307Y0002504964D01*
X0000596866Y0002551240D02*
X0000550590Y0002504964D01*
X0000474724Y0002737342D02*
X0000500326Y0002737342D01*
X0000070000Y0002703247D02*
X0000070000Y0002794192D01*
X0000039472Y0002672720D02*
X0000070000Y0002703247D01*
X0000039472Y0002563578D02*
X0000039472Y0002672720D01*
X0000105539Y0002497511D02*
X0000039472Y0002563578D01*
X0000120000Y0002497511D02*
X0000105539Y0002497511D01*
X0000120000Y0002451240D02*
X0000120000Y0002497511D01*
X0000443228Y0002737342D02*
X0000443228Y0002758023D01*
X0000443228Y0002758023D02*
X0000443228Y0002832578D01*
X0000504822Y0002758023D02*
X0000443228Y0002758023D01*
X0000537728Y0002725118D02*
X0000504822Y0002758023D01*
X0000537728Y0002615240D02*
X0000537728Y0002725118D01*
X0000520000Y0002597511D02*
X0000537728Y0002615240D01*
X0000520000Y0002551240D02*
X0000520000Y0002597511D01*
X0000411732Y0002737342D02*
X0000411732Y0002832578D01*
X0000487862Y0002716661D02*
X0000411732Y0002716661D01*
X0000500330Y0002704192D02*
X0000487862Y0002716661D01*
X0000500330Y0002672897D02*
X0000500330Y0002704192D01*
X0000424944Y0002597511D02*
X0000500330Y0002672897D01*
X0000420000Y0002597511D02*
X0000424944Y0002597511D01*
X0000420000Y0002551240D02*
X0000420000Y0002597511D01*
X0000411732Y0002737342D02*
X0000411732Y0002716661D01*
X0000380236Y0002737342D02*
X0000380236Y0002765082D01*
X0000380236Y0002765082D02*
X0000380236Y0002832578D01*
X0000317244Y0002737342D02*
X0000330047Y0002737342D01*
X0000342846Y0002750141D02*
X0000342846Y0002832578D01*
X0000330047Y0002737342D02*
X0000342846Y0002750141D01*
X0000317244Y0002832578D02*
X0000342846Y0002832578D01*
X0000342850Y0002724539D02*
X0000330047Y0002737342D01*
X0000342850Y0002674090D02*
X0000342850Y0002724539D01*
X0000266271Y0002597511D02*
X0000342850Y0002674090D01*
X0000220000Y0002597511D02*
X0000266271Y0002597511D01*
X0000220000Y0002551240D02*
X0000220000Y0002597511D01*
X0000285748Y0002737342D02*
X0000285748Y0002832578D01*
X0000208519Y0002716661D02*
X0000285748Y0002716661D01*
X0000120000Y0002628141D02*
X0000208519Y0002716661D01*
X0000120000Y0002551240D02*
X0000120000Y0002628141D01*
X0000285748Y0002737342D02*
X0000285748Y0002716661D01*
G04 next file*
G04 #@! TF.FileFunction,Copper,L1,Top,Signal*
G04 Gerber Fmt 4.6, Leading zero omitted, Abs format (unit mm)*
G04 Created by KiCad (PCBNEW 4.0.4-stable) date 05/23/17 22:39:58*
G01G01*
G04 APERTURE LIST*
G04 APERTURE END LIST*
D53*
D54*
X0000905610Y0000000000D02*
X0001628031Y0000852775D03*
D55*
X0001628031Y0000852775D03*
D56*
X0001147716Y0000577972D03*
X0001187874Y0000577972D03*
X0001228031Y0000577972D03*
X0001268188Y0000577972D03*
X0001308346Y0000577972D03*
X0001348503Y0000577972D03*
X0001388661Y0000577972D03*
X0001428818Y0000577972D03*
D55*
X0000954803Y0000852775D03*
D54*
X0000954803Y0000852775D03*
D57*
X0000973110Y0000462027D03*
X0000973110Y0000402972D03*
X0000973110Y0000312027D03*
X0000973110Y0000252972D03*
D58*
X0001283346Y0000488602D03*
X0001283346Y0000441358D03*
X0001377834Y0000488602D03*
X0001377834Y0000441358D03*
D59*
X0001314842Y0000488602D03*
X0001346338Y0000488602D03*
X0001346338Y0000441358D03*
X0001314842Y0000441358D03*
D58*
X0001283346Y0000346122D03*
X0001283346Y0000298877D03*
X0001377834Y0000346122D03*
X0001377834Y0000298877D03*
D59*
X0001314842Y0000346122D03*
X0001346338Y0000346122D03*
X0001346338Y0000298877D03*
X0001314842Y0000298877D03*
D58*
X0001125866Y0000488602D03*
X0001125866Y0000441358D03*
X0001220354Y0000488602D03*
X0001220354Y0000441358D03*
D59*
X0001157362Y0000488602D03*
X0001188858Y0000488602D03*
X0001188858Y0000441358D03*
X0001157362Y0000441358D03*
D58*
X0001125866Y0000346122D03*
X0001125866Y0000298877D03*
X0001220354Y0000346122D03*
X0001220354Y0000298877D03*
D59*
X0001157362Y0000346122D03*
X0001188858Y0000346122D03*
X0001188858Y0000298877D03*
X0001157362Y0000298877D03*
D60*
X0001523110Y0000160019D03*
D61*
X0001523110Y0000060019D03*
X0001423110Y0000160019D03*
X0001423110Y0000060019D03*
X0001323110Y0000160019D03*
X0001323110Y0000060019D03*
X0001223110Y0000160019D03*
X0001223110Y0000060019D03*
X0001123110Y0000160019D03*
X0001123110Y0000060019D03*
X0001023110Y0000160019D03*
X0001023110Y0000060019D03*
D62*
X0001283346Y0000373862D03*
D63*
X0001628031Y0000723559D02*
X0001628031Y0000852775D01*
X0001558106Y0000653633D02*
X0001628031Y0000723559D01*
X0001018169Y0000653633D02*
X0001558106Y0000653633D01*
X0000954803Y0000717000D02*
X0001018169Y0000653633D01*
X0000954803Y0000852775D02*
X0000954803Y0000717000D01*
X0001012259Y0000523826D02*
X0001147716Y0000523826D01*
X0000973110Y0000484677D02*
X0001012259Y0000523826D01*
X0001147716Y0000577972D02*
X0001147716Y0000523826D01*
X0000973110Y0000462027D02*
X0000973110Y0000484677D01*
X0001188858Y0000522842D02*
X0001187874Y0000523826D01*
X0001188858Y0000488602D02*
X0001188858Y0000522842D01*
X0001187874Y0000577972D02*
X0001187874Y0000523826D01*
X0001228031Y0000522724D02*
X0001228031Y0000577972D01*
X0001245956Y0000504799D02*
X0001228031Y0000522724D01*
X0001245956Y0000488602D02*
X0001245956Y0000504799D01*
X0001220354Y0000488602D02*
X0001245956Y0000488602D01*
X0001283346Y0000508669D02*
X0001268188Y0000523826D01*
X0001283346Y0000488602D02*
X0001283346Y0000508669D01*
X0001268188Y0000577972D02*
X0001268188Y0000523826D01*
X0001314842Y0000517330D02*
X0001308346Y0000523826D01*
X0001314842Y0000488602D02*
X0001314842Y0000517330D01*
X0001308346Y0000577972D02*
X0001308346Y0000523826D01*
X0001346338Y0000521661D02*
X0001348503Y0000523826D01*
X0001346338Y0000488602D02*
X0001346338Y0000521661D01*
X0001348503Y0000577972D02*
X0001348503Y0000523826D01*
X0001403437Y0000509051D02*
X0001388661Y0000523826D01*
X0001403437Y0000488602D02*
X0001403437Y0000509051D01*
X0001377834Y0000488602D02*
X0001403437Y0000488602D01*
X0001388661Y0000577972D02*
X0001388661Y0000523826D01*
X0001188858Y0000298877D02*
X0001220354Y0000298877D01*
X0001188858Y0000298877D02*
X0001157362Y0000298877D01*
X0001157362Y0000298877D02*
X0001125866Y0000298877D01*
X0001346338Y0000298877D02*
X0001377834Y0000298877D01*
X0001314842Y0000298877D02*
X0001346338Y0000298877D01*
X0001314842Y0000298877D02*
X0001293177Y0000298877D01*
X0001283346Y0000298877D02*
X0001293177Y0000298877D01*
X0001076618Y0000249629D02*
X0001076618Y0000038287D01*
X0001125866Y0000298877D02*
X0001076618Y0000249629D01*
X0001283346Y0000294401D02*
X0001283346Y0000298877D01*
X0001173110Y0000184165D02*
X0001283346Y0000294401D01*
X0001173110Y0000042338D02*
X0001173110Y0000184165D01*
X0001143996Y0000013224D02*
X0001173110Y0000042338D01*
X0001101681Y0000013224D02*
X0001143996Y0000013224D01*
X0001076618Y0000038287D02*
X0001101681Y0000013224D01*
X0000973110Y0000252972D02*
X0000973110Y0000275622D01*
X0001428818Y0000486173D02*
X0001428818Y0000577972D01*
X0001407625Y0000464980D02*
X0001428818Y0000486173D01*
X0001053393Y0000464980D02*
X0001407625Y0000464980D01*
X0001005377Y0000416964D02*
X0001053393Y0000464980D01*
X0000996716Y0000425625D02*
X0001005377Y0000416964D01*
X0000948279Y0000425625D02*
X0000996716Y0000425625D01*
X0000924547Y0000401893D02*
X0000948279Y0000425625D01*
X0000924547Y0000090370D02*
X0000924547Y0000401893D01*
X0001001692Y0000013224D02*
X0000924547Y0000090370D01*
X0001051555Y0000013224D02*
X0001001692Y0000013224D01*
X0001076618Y0000038287D02*
X0001051555Y0000013224D01*
X0000984433Y0000275622D02*
X0000973110Y0000275622D01*
X0001005377Y0000296566D02*
X0000984433Y0000275622D01*
X0001005377Y0000416964D02*
X0001005377Y0000296566D01*
X0001523110Y0000160019D02*
X0001499976Y0000160019D01*
X0001377834Y0000441358D02*
X0001403437Y0000441358D01*
X0001499976Y0000344818D02*
X0001499976Y0000160019D01*
X0001403437Y0000441358D02*
X0001499976Y0000344818D01*
X0001423110Y0000326448D02*
X0001403437Y0000346122D01*
X0001423110Y0000261433D02*
X0001423110Y0000326448D01*
X0001376771Y0000215094D02*
X0001423110Y0000261433D01*
X0001376771Y0000139389D02*
X0001376771Y0000215094D01*
X0001402417Y0000113744D02*
X0001376771Y0000139389D01*
X0001453700Y0000113744D02*
X0001402417Y0000113744D01*
X0001499976Y0000160019D02*
X0001453700Y0000113744D01*
X0001377834Y0000346122D02*
X0001403437Y0000346122D01*
X0000973110Y0000312027D02*
X0000973110Y0000402972D01*
X0000942582Y0000281500D02*
X0000973110Y0000312027D01*
X0000942582Y0000172358D02*
X0000942582Y0000281500D01*
X0001008649Y0000106291D02*
X0000942582Y0000172358D01*
X0001023110Y0000106291D02*
X0001008649Y0000106291D01*
X0001023110Y0000060019D02*
X0001023110Y0000106291D01*
X0001346338Y0000346122D02*
X0001346338Y0000366803D01*
X0001346338Y0000366803D02*
X0001346338Y0000441358D01*
X0001407933Y0000366803D02*
X0001346338Y0000366803D01*
X0001440838Y0000333897D02*
X0001407933Y0000366803D01*
X0001440838Y0000224019D02*
X0001440838Y0000333897D01*
X0001423110Y0000206291D02*
X0001440838Y0000224019D01*
X0001423110Y0000160019D02*
X0001423110Y0000206291D01*
X0001314842Y0000346122D02*
X0001314842Y0000441358D01*
X0001390972Y0000325440D02*
X0001314842Y0000325440D01*
X0001403440Y0000312972D02*
X0001390972Y0000325440D01*
X0001403440Y0000281677D02*
X0001403440Y0000312972D01*
X0001328055Y0000206291D02*
X0001403440Y0000281677D01*
X0001323110Y0000206291D02*
X0001328055Y0000206291D01*
X0001323110Y0000160019D02*
X0001323110Y0000206291D01*
X0001314842Y0000346122D02*
X0001314842Y0000325440D01*
X0001283346Y0000346122D02*
X0001283346Y0000373862D01*
X0001283346Y0000373862D02*
X0001283346Y0000441358D01*
X0001220354Y0000346122D02*
X0001233157Y0000346122D01*
X0001245956Y0000358921D02*
X0001245956Y0000441358D01*
X0001233157Y0000346122D02*
X0001245956Y0000358921D01*
X0001220354Y0000441358D02*
X0001245956Y0000441358D01*
X0001245960Y0000333318D02*
X0001233157Y0000346122D01*
X0001245960Y0000282870D02*
X0001245960Y0000333318D01*
X0001169381Y0000206291D02*
X0001245960Y0000282870D01*
X0001123110Y0000206291D02*
X0001169381Y0000206291D01*
X0001123110Y0000160019D02*
X0001123110Y0000206291D01*
X0001188858Y0000346122D02*
X0001188858Y0000441358D01*
X0001111629Y0000325440D02*
X0001188858Y0000325440D01*
X0001023110Y0000236921D02*
X0001111629Y0000325440D01*
X0001023110Y0000160019D02*
X0001023110Y0000236921D01*
X0001188858Y0000346122D02*
X0001188858Y0000325440D01*
G04 next file*
G04 #@! TF.FileFunction,Copper,L1,Top,Signal*
G04 Gerber Fmt 4.6, Leading zero omitted, Abs format (unit mm)*
G04 Created by KiCad (PCBNEW 4.0.4-stable) date 05/23/17 22:39:58*
G01G01*
G04 APERTURE LIST*
G04 APERTURE END LIST*
D64*
D65*
X0001808720Y0000000000D02*
X0002531141Y0000852775D03*
D66*
X0002531141Y0000852775D03*
D67*
X0002050826Y0000577972D03*
X0002090984Y0000577972D03*
X0002131141Y0000577972D03*
X0002171299Y0000577972D03*
X0002211456Y0000577972D03*
X0002251614Y0000577972D03*
X0002291771Y0000577972D03*
X0002331929Y0000577972D03*
D66*
X0001857913Y0000852775D03*
D65*
X0001857913Y0000852775D03*
D68*
X0001876220Y0000462027D03*
X0001876220Y0000402972D03*
X0001876220Y0000312027D03*
X0001876220Y0000252972D03*
D69*
X0002186456Y0000488602D03*
X0002186456Y0000441358D03*
X0002280944Y0000488602D03*
X0002280944Y0000441358D03*
D70*
X0002217952Y0000488602D03*
X0002249448Y0000488602D03*
X0002249448Y0000441358D03*
X0002217952Y0000441358D03*
D69*
X0002186456Y0000346122D03*
X0002186456Y0000298877D03*
X0002280944Y0000346122D03*
X0002280944Y0000298877D03*
D70*
X0002217952Y0000346122D03*
X0002249448Y0000346122D03*
X0002249448Y0000298877D03*
X0002217952Y0000298877D03*
D69*
X0002028976Y0000488602D03*
X0002028976Y0000441358D03*
X0002123464Y0000488602D03*
X0002123464Y0000441358D03*
D70*
X0002060472Y0000488602D03*
X0002091968Y0000488602D03*
X0002091968Y0000441358D03*
X0002060472Y0000441358D03*
D69*
X0002028976Y0000346122D03*
X0002028976Y0000298877D03*
X0002123464Y0000346122D03*
X0002123464Y0000298877D03*
D70*
X0002060472Y0000346122D03*
X0002091968Y0000346122D03*
X0002091968Y0000298877D03*
X0002060472Y0000298877D03*
D71*
X0002426220Y0000160019D03*
D72*
X0002426220Y0000060019D03*
X0002326220Y0000160019D03*
X0002326220Y0000060019D03*
X0002226220Y0000160019D03*
X0002226220Y0000060019D03*
X0002126220Y0000160019D03*
X0002126220Y0000060019D03*
X0002026220Y0000160019D03*
X0002026220Y0000060019D03*
X0001926220Y0000160019D03*
X0001926220Y0000060019D03*
D73*
X0002186456Y0000373862D03*
D74*
X0002531141Y0000723559D02*
X0002531141Y0000852775D01*
X0002461216Y0000653633D02*
X0002531141Y0000723559D01*
X0001921279Y0000653633D02*
X0002461216Y0000653633D01*
X0001857913Y0000717000D02*
X0001921279Y0000653633D01*
X0001857913Y0000852775D02*
X0001857913Y0000717000D01*
X0001915370Y0000523826D02*
X0002050826Y0000523826D01*
X0001876220Y0000484677D02*
X0001915370Y0000523826D01*
X0002050826Y0000577972D02*
X0002050826Y0000523826D01*
X0001876220Y0000462027D02*
X0001876220Y0000484677D01*
X0002091968Y0000522842D02*
X0002090984Y0000523826D01*
X0002091968Y0000488602D02*
X0002091968Y0000522842D01*
X0002090984Y0000577972D02*
X0002090984Y0000523826D01*
X0002131141Y0000522724D02*
X0002131141Y0000577972D01*
X0002149066Y0000504799D02*
X0002131141Y0000522724D01*
X0002149066Y0000488602D02*
X0002149066Y0000504799D01*
X0002123464Y0000488602D02*
X0002149066Y0000488602D01*
X0002186456Y0000508669D02*
X0002171299Y0000523826D01*
X0002186456Y0000488602D02*
X0002186456Y0000508669D01*
X0002171299Y0000577972D02*
X0002171299Y0000523826D01*
X0002217952Y0000517330D02*
X0002211456Y0000523826D01*
X0002217952Y0000488602D02*
X0002217952Y0000517330D01*
X0002211456Y0000577972D02*
X0002211456Y0000523826D01*
X0002249448Y0000521661D02*
X0002251614Y0000523826D01*
X0002249448Y0000488602D02*
X0002249448Y0000521661D01*
X0002251614Y0000577972D02*
X0002251614Y0000523826D01*
X0002306547Y0000509051D02*
X0002291771Y0000523826D01*
X0002306547Y0000488602D02*
X0002306547Y0000509051D01*
X0002280944Y0000488602D02*
X0002306547Y0000488602D01*
X0002291771Y0000577972D02*
X0002291771Y0000523826D01*
X0002091968Y0000298877D02*
X0002123464Y0000298877D01*
X0002091968Y0000298877D02*
X0002060472Y0000298877D01*
X0002060472Y0000298877D02*
X0002028976Y0000298877D01*
X0002249448Y0000298877D02*
X0002280944Y0000298877D01*
X0002217952Y0000298877D02*
X0002249448Y0000298877D01*
X0002217952Y0000298877D02*
X0002196287Y0000298877D01*
X0002186456Y0000298877D02*
X0002196287Y0000298877D01*
X0001979728Y0000249629D02*
X0001979728Y0000038287D01*
X0002028976Y0000298877D02*
X0001979728Y0000249629D01*
X0002186456Y0000294401D02*
X0002186456Y0000298877D01*
X0002076220Y0000184165D02*
X0002186456Y0000294401D01*
X0002076220Y0000042338D02*
X0002076220Y0000184165D01*
X0002047106Y0000013224D02*
X0002076220Y0000042338D01*
X0002004791Y0000013224D02*
X0002047106Y0000013224D01*
X0001979728Y0000038287D02*
X0002004791Y0000013224D01*
X0001876220Y0000252972D02*
X0001876220Y0000275622D01*
X0002331929Y0000486173D02*
X0002331929Y0000577972D01*
X0002310736Y0000464980D02*
X0002331929Y0000486173D01*
X0001956503Y0000464980D02*
X0002310736Y0000464980D01*
X0001908488Y0000416964D02*
X0001956503Y0000464980D01*
X0001899826Y0000425625D02*
X0001908488Y0000416964D01*
X0001851389Y0000425625D02*
X0001899826Y0000425625D01*
X0001827657Y0000401893D02*
X0001851389Y0000425625D01*
X0001827657Y0000090370D02*
X0001827657Y0000401893D01*
X0001904803Y0000013224D02*
X0001827657Y0000090370D01*
X0001954665Y0000013224D02*
X0001904803Y0000013224D01*
X0001979728Y0000038287D02*
X0001954665Y0000013224D01*
X0001887543Y0000275622D02*
X0001876220Y0000275622D01*
X0001908488Y0000296566D02*
X0001887543Y0000275622D01*
X0001908488Y0000416964D02*
X0001908488Y0000296566D01*
X0002426220Y0000160019D02*
X0002403086Y0000160019D01*
X0002280944Y0000441358D02*
X0002306547Y0000441358D01*
X0002403086Y0000344818D02*
X0002403086Y0000160019D01*
X0002306547Y0000441358D02*
X0002403086Y0000344818D01*
X0002326220Y0000326448D02*
X0002306547Y0000346122D01*
X0002326220Y0000261433D02*
X0002326220Y0000326448D01*
X0002279881Y0000215094D02*
X0002326220Y0000261433D01*
X0002279881Y0000139389D02*
X0002279881Y0000215094D01*
X0002305527Y0000113744D02*
X0002279881Y0000139389D01*
X0002356811Y0000113744D02*
X0002305527Y0000113744D01*
X0002403086Y0000160019D02*
X0002356811Y0000113744D01*
X0002280944Y0000346122D02*
X0002306547Y0000346122D01*
X0001876220Y0000312027D02*
X0001876220Y0000402972D01*
X0001845692Y0000281500D02*
X0001876220Y0000312027D01*
X0001845692Y0000172358D02*
X0001845692Y0000281500D01*
X0001911759Y0000106291D02*
X0001845692Y0000172358D01*
X0001926220Y0000106291D02*
X0001911759Y0000106291D01*
X0001926220Y0000060019D02*
X0001926220Y0000106291D01*
X0002249448Y0000346122D02*
X0002249448Y0000366803D01*
X0002249448Y0000366803D02*
X0002249448Y0000441358D01*
X0002311043Y0000366803D02*
X0002249448Y0000366803D01*
X0002343948Y0000333897D02*
X0002311043Y0000366803D01*
X0002343948Y0000224019D02*
X0002343948Y0000333897D01*
X0002326220Y0000206291D02*
X0002343948Y0000224019D01*
X0002326220Y0000160019D02*
X0002326220Y0000206291D01*
X0002217952Y0000346122D02*
X0002217952Y0000441358D01*
X0002294082Y0000325440D02*
X0002217952Y0000325440D01*
X0002306551Y0000312972D02*
X0002294082Y0000325440D01*
X0002306551Y0000281677D02*
X0002306551Y0000312972D01*
X0002231165Y0000206291D02*
X0002306551Y0000281677D01*
X0002226220Y0000206291D02*
X0002231165Y0000206291D01*
X0002226220Y0000160019D02*
X0002226220Y0000206291D01*
X0002217952Y0000346122D02*
X0002217952Y0000325440D01*
X0002186456Y0000346122D02*
X0002186456Y0000373862D01*
X0002186456Y0000373862D02*
X0002186456Y0000441358D01*
X0002123464Y0000346122D02*
X0002136267Y0000346122D01*
X0002149066Y0000358921D02*
X0002149066Y0000441358D01*
X0002136267Y0000346122D02*
X0002149066Y0000358921D01*
X0002123464Y0000441358D02*
X0002149066Y0000441358D01*
X0002149070Y0000333318D02*
X0002136267Y0000346122D01*
X0002149070Y0000282870D02*
X0002149070Y0000333318D01*
X0002072492Y0000206291D02*
X0002149070Y0000282870D01*
X0002026220Y0000206291D02*
X0002072492Y0000206291D01*
X0002026220Y0000160019D02*
X0002026220Y0000206291D01*
X0002091968Y0000346122D02*
X0002091968Y0000441358D01*
X0002014740Y0000325440D02*
X0002091968Y0000325440D01*
X0001926220Y0000236921D02*
X0002014740Y0000325440D01*
X0001926220Y0000160019D02*
X0001926220Y0000236921D01*
X0002091968Y0000346122D02*
X0002091968Y0000325440D01*
G04 next file*
G04 #@! TF.FileFunction,Copper,L1,Top,Signal*
G04 Gerber Fmt 4.6, Leading zero omitted, Abs format (unit mm)*
G04 Created by KiCad (PCBNEW 4.0.4-stable) date 05/23/17 22:39:58*
G01G01*
G04 APERTURE LIST*
G04 APERTURE END LIST*
D75*
D76*
X0002711830Y0000000000D02*
X0003434251Y0000852775D03*
D77*
X0003434251Y0000852775D03*
D78*
X0002953937Y0000577972D03*
X0002994094Y0000577972D03*
X0003034251Y0000577972D03*
X0003074409Y0000577972D03*
X0003114566Y0000577972D03*
X0003154724Y0000577972D03*
X0003194881Y0000577972D03*
X0003235039Y0000577972D03*
D77*
X0002761023Y0000852775D03*
D76*
X0002761023Y0000852775D03*
D79*
X0002779330Y0000462027D03*
X0002779330Y0000402972D03*
X0002779330Y0000312027D03*
X0002779330Y0000252972D03*
D80*
X0003089566Y0000488602D03*
X0003089566Y0000441358D03*
X0003184055Y0000488602D03*
X0003184055Y0000441358D03*
D81*
X0003121062Y0000488602D03*
X0003152559Y0000488602D03*
X0003152559Y0000441358D03*
X0003121062Y0000441358D03*
D80*
X0003089566Y0000346122D03*
X0003089566Y0000298877D03*
X0003184055Y0000346122D03*
X0003184055Y0000298877D03*
D81*
X0003121062Y0000346122D03*
X0003152559Y0000346122D03*
X0003152559Y0000298877D03*
X0003121062Y0000298877D03*
D80*
X0002932086Y0000488602D03*
X0002932086Y0000441358D03*
X0003026574Y0000488602D03*
X0003026574Y0000441358D03*
D81*
X0002963582Y0000488602D03*
X0002995078Y0000488602D03*
X0002995078Y0000441358D03*
X0002963582Y0000441358D03*
D80*
X0002932086Y0000346122D03*
X0002932086Y0000298877D03*
X0003026574Y0000346122D03*
X0003026574Y0000298877D03*
D81*
X0002963582Y0000346122D03*
X0002995078Y0000346122D03*
X0002995078Y0000298877D03*
X0002963582Y0000298877D03*
D82*
X0003329330Y0000160019D03*
D83*
X0003329330Y0000060019D03*
X0003229330Y0000160019D03*
X0003229330Y0000060019D03*
X0003129330Y0000160019D03*
X0003129330Y0000060019D03*
X0003029330Y0000160019D03*
X0003029330Y0000060019D03*
X0002929330Y0000160019D03*
X0002929330Y0000060019D03*
X0002829330Y0000160019D03*
X0002829330Y0000060019D03*
D84*
X0003089566Y0000373862D03*
D85*
X0003434251Y0000723559D02*
X0003434251Y0000852775D01*
X0003364326Y0000653633D02*
X0003434251Y0000723559D01*
X0002824389Y0000653633D02*
X0003364326Y0000653633D01*
X0002761023Y0000717000D02*
X0002824389Y0000653633D01*
X0002761023Y0000852775D02*
X0002761023Y0000717000D01*
X0002818480Y0000523826D02*
X0002953937Y0000523826D01*
X0002779330Y0000484677D02*
X0002818480Y0000523826D01*
X0002953937Y0000577972D02*
X0002953937Y0000523826D01*
X0002779330Y0000462027D02*
X0002779330Y0000484677D01*
X0002995078Y0000522842D02*
X0002994094Y0000523826D01*
X0002995078Y0000488602D02*
X0002995078Y0000522842D01*
X0002994094Y0000577972D02*
X0002994094Y0000523826D01*
X0003034251Y0000522724D02*
X0003034251Y0000577972D01*
X0003052177Y0000504799D02*
X0003034251Y0000522724D01*
X0003052177Y0000488602D02*
X0003052177Y0000504799D01*
X0003026574Y0000488602D02*
X0003052177Y0000488602D01*
X0003089566Y0000508669D02*
X0003074409Y0000523826D01*
X0003089566Y0000488602D02*
X0003089566Y0000508669D01*
X0003074409Y0000577972D02*
X0003074409Y0000523826D01*
X0003121062Y0000517330D02*
X0003114566Y0000523826D01*
X0003121062Y0000488602D02*
X0003121062Y0000517330D01*
X0003114566Y0000577972D02*
X0003114566Y0000523826D01*
X0003152559Y0000521661D02*
X0003154724Y0000523826D01*
X0003152559Y0000488602D02*
X0003152559Y0000521661D01*
X0003154724Y0000577972D02*
X0003154724Y0000523826D01*
X0003209657Y0000509051D02*
X0003194881Y0000523826D01*
X0003209657Y0000488602D02*
X0003209657Y0000509051D01*
X0003184055Y0000488602D02*
X0003209657Y0000488602D01*
X0003194881Y0000577972D02*
X0003194881Y0000523826D01*
X0002995078Y0000298877D02*
X0003026574Y0000298877D01*
X0002995078Y0000298877D02*
X0002963582Y0000298877D01*
X0002963582Y0000298877D02*
X0002932086Y0000298877D01*
X0003152559Y0000298877D02*
X0003184055Y0000298877D01*
X0003121062Y0000298877D02*
X0003152559Y0000298877D01*
X0003121062Y0000298877D02*
X0003099397Y0000298877D01*
X0003089566Y0000298877D02*
X0003099397Y0000298877D01*
X0002882838Y0000249629D02*
X0002882838Y0000038287D01*
X0002932086Y0000298877D02*
X0002882838Y0000249629D01*
X0003089566Y0000294401D02*
X0003089566Y0000298877D01*
X0002979330Y0000184165D02*
X0003089566Y0000294401D01*
X0002979330Y0000042338D02*
X0002979330Y0000184165D01*
X0002950216Y0000013224D02*
X0002979330Y0000042338D01*
X0002907901Y0000013224D02*
X0002950216Y0000013224D01*
X0002882838Y0000038287D02*
X0002907901Y0000013224D01*
X0002779330Y0000252972D02*
X0002779330Y0000275622D01*
X0003235039Y0000486173D02*
X0003235039Y0000577972D01*
X0003213846Y0000464980D02*
X0003235039Y0000486173D01*
X0002859614Y0000464980D02*
X0003213846Y0000464980D01*
X0002811598Y0000416964D02*
X0002859614Y0000464980D01*
X0002802937Y0000425625D02*
X0002811598Y0000416964D01*
X0002754499Y0000425625D02*
X0002802937Y0000425625D01*
X0002730767Y0000401893D02*
X0002754499Y0000425625D01*
X0002730767Y0000090370D02*
X0002730767Y0000401893D01*
X0002807913Y0000013224D02*
X0002730767Y0000090370D01*
X0002857775Y0000013224D02*
X0002807913Y0000013224D01*
X0002882838Y0000038287D02*
X0002857775Y0000013224D01*
X0002790653Y0000275622D02*
X0002779330Y0000275622D01*
X0002811598Y0000296566D02*
X0002790653Y0000275622D01*
X0002811598Y0000416964D02*
X0002811598Y0000296566D01*
X0003329330Y0000160019D02*
X0003306196Y0000160019D01*
X0003184055Y0000441358D02*
X0003209657Y0000441358D01*
X0003306196Y0000344818D02*
X0003306196Y0000160019D01*
X0003209657Y0000441358D02*
X0003306196Y0000344818D01*
X0003229330Y0000326448D02*
X0003209657Y0000346122D01*
X0003229330Y0000261433D02*
X0003229330Y0000326448D01*
X0003182992Y0000215094D02*
X0003229330Y0000261433D01*
X0003182992Y0000139389D02*
X0003182992Y0000215094D01*
X0003208637Y0000113744D02*
X0003182992Y0000139389D01*
X0003259921Y0000113744D02*
X0003208637Y0000113744D01*
X0003306196Y0000160019D02*
X0003259921Y0000113744D01*
X0003184055Y0000346122D02*
X0003209657Y0000346122D01*
X0002779330Y0000312027D02*
X0002779330Y0000402972D01*
X0002748803Y0000281500D02*
X0002779330Y0000312027D01*
X0002748803Y0000172358D02*
X0002748803Y0000281500D01*
X0002814870Y0000106291D02*
X0002748803Y0000172358D01*
X0002829330Y0000106291D02*
X0002814870Y0000106291D01*
X0002829330Y0000060019D02*
X0002829330Y0000106291D01*
X0003152559Y0000346122D02*
X0003152559Y0000366803D01*
X0003152559Y0000366803D02*
X0003152559Y0000441358D01*
X0003214153Y0000366803D02*
X0003152559Y0000366803D01*
X0003247059Y0000333897D02*
X0003214153Y0000366803D01*
X0003247059Y0000224019D02*
X0003247059Y0000333897D01*
X0003229330Y0000206291D02*
X0003247059Y0000224019D01*
X0003229330Y0000160019D02*
X0003229330Y0000206291D01*
X0003121062Y0000346122D02*
X0003121062Y0000441358D01*
X0003197192Y0000325440D02*
X0003121062Y0000325440D01*
X0003209661Y0000312972D02*
X0003197192Y0000325440D01*
X0003209661Y0000281677D02*
X0003209661Y0000312972D01*
X0003134275Y0000206291D02*
X0003209661Y0000281677D01*
X0003129330Y0000206291D02*
X0003134275Y0000206291D01*
X0003129330Y0000160019D02*
X0003129330Y0000206291D01*
X0003121062Y0000346122D02*
X0003121062Y0000325440D01*
X0003089566Y0000346122D02*
X0003089566Y0000373862D01*
X0003089566Y0000373862D02*
X0003089566Y0000441358D01*
X0003026574Y0000346122D02*
X0003039377Y0000346122D01*
X0003052177Y0000358921D02*
X0003052177Y0000441358D01*
X0003039377Y0000346122D02*
X0003052177Y0000358921D01*
X0003026574Y0000441358D02*
X0003052177Y0000441358D01*
X0003052181Y0000333318D02*
X0003039377Y0000346122D01*
X0003052181Y0000282870D02*
X0003052181Y0000333318D01*
X0002975602Y0000206291D02*
X0003052181Y0000282870D01*
X0002929330Y0000206291D02*
X0002975602Y0000206291D01*
X0002929330Y0000160019D02*
X0002929330Y0000206291D01*
X0002995078Y0000346122D02*
X0002995078Y0000441358D01*
X0002917850Y0000325440D02*
X0002995078Y0000325440D01*
X0002829330Y0000236921D02*
X0002917850Y0000325440D01*
X0002829330Y0000160019D02*
X0002829330Y0000236921D01*
X0002995078Y0000346122D02*
X0002995078Y0000325440D01*
G04 next file*
G04 #@! TF.FileFunction,Copper,L1,Top,Signal*
G04 Gerber Fmt 4.6, Leading zero omitted, Abs format (unit mm)*
G04 Created by KiCad (PCBNEW 4.0.4-stable) date 05/23/17 22:39:58*
G01G01*
G04 APERTURE LIST*
G04 APERTURE END LIST*
D86*
D87*
X0000905610Y0001195610D02*
X0001628031Y0002048385D03*
D88*
X0001628031Y0002048385D03*
D89*
X0001147716Y0001773582D03*
X0001187874Y0001773582D03*
X0001228031Y0001773582D03*
X0001268188Y0001773582D03*
X0001308346Y0001773582D03*
X0001348503Y0001773582D03*
X0001388661Y0001773582D03*
X0001428818Y0001773582D03*
D88*
X0000954803Y0002048385D03*
D87*
X0000954803Y0002048385D03*
D90*
X0000973110Y0001657637D03*
X0000973110Y0001598582D03*
X0000973110Y0001507637D03*
X0000973110Y0001448582D03*
D91*
X0001283346Y0001684212D03*
X0001283346Y0001636968D03*
X0001377834Y0001684212D03*
X0001377834Y0001636968D03*
D92*
X0001314842Y0001684212D03*
X0001346338Y0001684212D03*
X0001346338Y0001636968D03*
X0001314842Y0001636968D03*
D91*
X0001283346Y0001541732D03*
X0001283346Y0001494488D03*
X0001377834Y0001541732D03*
X0001377834Y0001494488D03*
D92*
X0001314842Y0001541732D03*
X0001346338Y0001541732D03*
X0001346338Y0001494488D03*
X0001314842Y0001494488D03*
D91*
X0001125866Y0001684212D03*
X0001125866Y0001636968D03*
X0001220354Y0001684212D03*
X0001220354Y0001636968D03*
D92*
X0001157362Y0001684212D03*
X0001188858Y0001684212D03*
X0001188858Y0001636968D03*
X0001157362Y0001636968D03*
D91*
X0001125866Y0001541732D03*
X0001125866Y0001494488D03*
X0001220354Y0001541732D03*
X0001220354Y0001494488D03*
D92*
X0001157362Y0001541732D03*
X0001188858Y0001541732D03*
X0001188858Y0001494488D03*
X0001157362Y0001494488D03*
D93*
X0001523110Y0001355629D03*
D94*
X0001523110Y0001255629D03*
X0001423110Y0001355629D03*
X0001423110Y0001255629D03*
X0001323110Y0001355629D03*
X0001323110Y0001255629D03*
X0001223110Y0001355629D03*
X0001223110Y0001255629D03*
X0001123110Y0001355629D03*
X0001123110Y0001255629D03*
X0001023110Y0001355629D03*
X0001023110Y0001255629D03*
D95*
X0001283346Y0001569472D03*
D96*
X0001628031Y0001919169D02*
X0001628031Y0002048385D01*
X0001558106Y0001849244D02*
X0001628031Y0001919169D01*
X0001018169Y0001849244D02*
X0001558106Y0001849244D01*
X0000954803Y0001912610D02*
X0001018169Y0001849244D01*
X0000954803Y0002048385D02*
X0000954803Y0001912610D01*
X0001012259Y0001719436D02*
X0001147716Y0001719436D01*
X0000973110Y0001680287D02*
X0001012259Y0001719436D01*
X0001147716Y0001773582D02*
X0001147716Y0001719436D01*
X0000973110Y0001657637D02*
X0000973110Y0001680287D01*
X0001188858Y0001718452D02*
X0001187874Y0001719436D01*
X0001188858Y0001684212D02*
X0001188858Y0001718452D01*
X0001187874Y0001773582D02*
X0001187874Y0001719436D01*
X0001228031Y0001718334D02*
X0001228031Y0001773582D01*
X0001245956Y0001700409D02*
X0001228031Y0001718334D01*
X0001245956Y0001684212D02*
X0001245956Y0001700409D01*
X0001220354Y0001684212D02*
X0001245956Y0001684212D01*
X0001283346Y0001704279D02*
X0001268188Y0001719436D01*
X0001283346Y0001684212D02*
X0001283346Y0001704279D01*
X0001268188Y0001773582D02*
X0001268188Y0001719436D01*
X0001314842Y0001712940D02*
X0001308346Y0001719436D01*
X0001314842Y0001684212D02*
X0001314842Y0001712940D01*
X0001308346Y0001773582D02*
X0001308346Y0001719436D01*
X0001346338Y0001717271D02*
X0001348503Y0001719436D01*
X0001346338Y0001684212D02*
X0001346338Y0001717271D01*
X0001348503Y0001773582D02*
X0001348503Y0001719436D01*
X0001403437Y0001704661D02*
X0001388661Y0001719436D01*
X0001403437Y0001684212D02*
X0001403437Y0001704661D01*
X0001377834Y0001684212D02*
X0001403437Y0001684212D01*
X0001388661Y0001773582D02*
X0001388661Y0001719436D01*
X0001188858Y0001494488D02*
X0001220354Y0001494488D01*
X0001188858Y0001494488D02*
X0001157362Y0001494488D01*
X0001157362Y0001494488D02*
X0001125866Y0001494488D01*
X0001346338Y0001494488D02*
X0001377834Y0001494488D01*
X0001314842Y0001494488D02*
X0001346338Y0001494488D01*
X0001314842Y0001494488D02*
X0001293177Y0001494488D01*
X0001283346Y0001494488D02*
X0001293177Y0001494488D01*
X0001076618Y0001445240D02*
X0001076618Y0001233897D01*
X0001125866Y0001494488D02*
X0001076618Y0001445240D01*
X0001283346Y0001490011D02*
X0001283346Y0001494488D01*
X0001173110Y0001379775D02*
X0001283346Y0001490011D01*
X0001173110Y0001237948D02*
X0001173110Y0001379775D01*
X0001143996Y0001208834D02*
X0001173110Y0001237948D01*
X0001101681Y0001208834D02*
X0001143996Y0001208834D01*
X0001076618Y0001233897D02*
X0001101681Y0001208834D01*
X0000973110Y0001448582D02*
X0000973110Y0001471232D01*
X0001428818Y0001681783D02*
X0001428818Y0001773582D01*
X0001407625Y0001660590D02*
X0001428818Y0001681783D01*
X0001053393Y0001660590D02*
X0001407625Y0001660590D01*
X0001005377Y0001612574D02*
X0001053393Y0001660590D01*
X0000996716Y0001621236D02*
X0001005377Y0001612574D01*
X0000948279Y0001621236D02*
X0000996716Y0001621236D01*
X0000924547Y0001597503D02*
X0000948279Y0001621236D01*
X0000924547Y0001285980D02*
X0000924547Y0001597503D01*
X0001001692Y0001208834D02*
X0000924547Y0001285980D01*
X0001051555Y0001208834D02*
X0001001692Y0001208834D01*
X0001076618Y0001233897D02*
X0001051555Y0001208834D01*
X0000984433Y0001471232D02*
X0000973110Y0001471232D01*
X0001005377Y0001492177D02*
X0000984433Y0001471232D01*
X0001005377Y0001612574D02*
X0001005377Y0001492177D01*
X0001523110Y0001355629D02*
X0001499976Y0001355629D01*
X0001377834Y0001636968D02*
X0001403437Y0001636968D01*
X0001499976Y0001540429D02*
X0001499976Y0001355629D01*
X0001403437Y0001636968D02*
X0001499976Y0001540429D01*
X0001423110Y0001522059D02*
X0001403437Y0001541732D01*
X0001423110Y0001457043D02*
X0001423110Y0001522059D01*
X0001376771Y0001410704D02*
X0001423110Y0001457043D01*
X0001376771Y0001334999D02*
X0001376771Y0001410704D01*
X0001402417Y0001309354D02*
X0001376771Y0001334999D01*
X0001453700Y0001309354D02*
X0001402417Y0001309354D01*
X0001499976Y0001355629D02*
X0001453700Y0001309354D01*
X0001377834Y0001541732D02*
X0001403437Y0001541732D01*
X0000973110Y0001507637D02*
X0000973110Y0001598582D01*
X0000942582Y0001477110D02*
X0000973110Y0001507637D01*
X0000942582Y0001367968D02*
X0000942582Y0001477110D01*
X0001008649Y0001301901D02*
X0000942582Y0001367968D01*
X0001023110Y0001301901D02*
X0001008649Y0001301901D01*
X0001023110Y0001255629D02*
X0001023110Y0001301901D01*
X0001346338Y0001541732D02*
X0001346338Y0001562413D01*
X0001346338Y0001562413D02*
X0001346338Y0001636968D01*
X0001407933Y0001562413D02*
X0001346338Y0001562413D01*
X0001440838Y0001529507D02*
X0001407933Y0001562413D01*
X0001440838Y0001419629D02*
X0001440838Y0001529507D01*
X0001423110Y0001401901D02*
X0001440838Y0001419629D01*
X0001423110Y0001355629D02*
X0001423110Y0001401901D01*
X0001314842Y0001541732D02*
X0001314842Y0001636968D01*
X0001390972Y0001521051D02*
X0001314842Y0001521051D01*
X0001403440Y0001508582D02*
X0001390972Y0001521051D01*
X0001403440Y0001477287D02*
X0001403440Y0001508582D01*
X0001328055Y0001401901D02*
X0001403440Y0001477287D01*
X0001323110Y0001401901D02*
X0001328055Y0001401901D01*
X0001323110Y0001355629D02*
X0001323110Y0001401901D01*
X0001314842Y0001541732D02*
X0001314842Y0001521051D01*
X0001283346Y0001541732D02*
X0001283346Y0001569472D01*
X0001283346Y0001569472D02*
X0001283346Y0001636968D01*
X0001220354Y0001541732D02*
X0001233157Y0001541732D01*
X0001245956Y0001554531D02*
X0001245956Y0001636968D01*
X0001233157Y0001541732D02*
X0001245956Y0001554531D01*
X0001220354Y0001636968D02*
X0001245956Y0001636968D01*
X0001245960Y0001528929D02*
X0001233157Y0001541732D01*
X0001245960Y0001478480D02*
X0001245960Y0001528929D01*
X0001169381Y0001401901D02*
X0001245960Y0001478480D01*
X0001123110Y0001401901D02*
X0001169381Y0001401901D01*
X0001123110Y0001355629D02*
X0001123110Y0001401901D01*
X0001188858Y0001541732D02*
X0001188858Y0001636968D01*
X0001111629Y0001521051D02*
X0001188858Y0001521051D01*
X0001023110Y0001432531D02*
X0001111629Y0001521051D01*
X0001023110Y0001355629D02*
X0001023110Y0001432531D01*
X0001188858Y0001541732D02*
X0001188858Y0001521051D01*
G04 next file*
G04 #@! TF.FileFunction,Copper,L1,Top,Signal*
G04 Gerber Fmt 4.6, Leading zero omitted, Abs format (unit mm)*
G04 Created by KiCad (PCBNEW 4.0.4-stable) date 05/23/17 22:39:58*
G01G01*
G04 APERTURE LIST*
G04 APERTURE END LIST*
D97*
D98*
X0000905610Y0002391220D02*
X0001628031Y0003243996D03*
D99*
X0001628031Y0003243996D03*
D100*
X0001147716Y0002969192D03*
X0001187874Y0002969192D03*
X0001228031Y0002969192D03*
X0001268188Y0002969192D03*
X0001308346Y0002969192D03*
X0001348503Y0002969192D03*
X0001388661Y0002969192D03*
X0001428818Y0002969192D03*
D99*
X0000954803Y0003243996D03*
D98*
X0000954803Y0003243996D03*
D101*
X0000973110Y0002853247D03*
X0000973110Y0002794192D03*
X0000973110Y0002703247D03*
X0000973110Y0002644192D03*
D102*
X0001283346Y0002879822D03*
X0001283346Y0002832578D03*
X0001377834Y0002879822D03*
X0001377834Y0002832578D03*
D103*
X0001314842Y0002879822D03*
X0001346338Y0002879822D03*
X0001346338Y0002832578D03*
X0001314842Y0002832578D03*
D102*
X0001283346Y0002737342D03*
X0001283346Y0002690098D03*
X0001377834Y0002737342D03*
X0001377834Y0002690098D03*
D103*
X0001314842Y0002737342D03*
X0001346338Y0002737342D03*
X0001346338Y0002690098D03*
X0001314842Y0002690098D03*
D102*
X0001125866Y0002879822D03*
X0001125866Y0002832578D03*
X0001220354Y0002879822D03*
X0001220354Y0002832578D03*
D103*
X0001157362Y0002879822D03*
X0001188858Y0002879822D03*
X0001188858Y0002832578D03*
X0001157362Y0002832578D03*
D102*
X0001125866Y0002737342D03*
X0001125866Y0002690098D03*
X0001220354Y0002737342D03*
X0001220354Y0002690098D03*
D103*
X0001157362Y0002737342D03*
X0001188858Y0002737342D03*
X0001188858Y0002690098D03*
X0001157362Y0002690098D03*
D104*
X0001523110Y0002551240D03*
D105*
X0001523110Y0002451240D03*
X0001423110Y0002551240D03*
X0001423110Y0002451240D03*
X0001323110Y0002551240D03*
X0001323110Y0002451240D03*
X0001223110Y0002551240D03*
X0001223110Y0002451240D03*
X0001123110Y0002551240D03*
X0001123110Y0002451240D03*
X0001023110Y0002551240D03*
X0001023110Y0002451240D03*
D106*
X0001283346Y0002765082D03*
D107*
X0001628031Y0003114779D02*
X0001628031Y0003243996D01*
X0001558106Y0003044854D02*
X0001628031Y0003114779D01*
X0001018169Y0003044854D02*
X0001558106Y0003044854D01*
X0000954803Y0003108220D02*
X0001018169Y0003044854D01*
X0000954803Y0003243996D02*
X0000954803Y0003108220D01*
X0001012259Y0002915047D02*
X0001147716Y0002915047D01*
X0000973110Y0002875897D02*
X0001012259Y0002915047D01*
X0001147716Y0002969192D02*
X0001147716Y0002915047D01*
X0000973110Y0002853247D02*
X0000973110Y0002875897D01*
X0001188858Y0002914062D02*
X0001187874Y0002915047D01*
X0001188858Y0002879822D02*
X0001188858Y0002914062D01*
X0001187874Y0002969192D02*
X0001187874Y0002915047D01*
X0001228031Y0002913944D02*
X0001228031Y0002969192D01*
X0001245956Y0002896019D02*
X0001228031Y0002913944D01*
X0001245956Y0002879822D02*
X0001245956Y0002896019D01*
X0001220354Y0002879822D02*
X0001245956Y0002879822D01*
X0001283346Y0002899889D02*
X0001268188Y0002915047D01*
X0001283346Y0002879822D02*
X0001283346Y0002899889D01*
X0001268188Y0002969192D02*
X0001268188Y0002915047D01*
X0001314842Y0002908551D02*
X0001308346Y0002915047D01*
X0001314842Y0002879822D02*
X0001314842Y0002908551D01*
X0001308346Y0002969192D02*
X0001308346Y0002915047D01*
X0001346338Y0002912881D02*
X0001348503Y0002915047D01*
X0001346338Y0002879822D02*
X0001346338Y0002912881D01*
X0001348503Y0002969192D02*
X0001348503Y0002915047D01*
X0001403437Y0002900271D02*
X0001388661Y0002915047D01*
X0001403437Y0002879822D02*
X0001403437Y0002900271D01*
X0001377834Y0002879822D02*
X0001403437Y0002879822D01*
X0001388661Y0002969192D02*
X0001388661Y0002915047D01*
X0001188858Y0002690098D02*
X0001220354Y0002690098D01*
X0001188858Y0002690098D02*
X0001157362Y0002690098D01*
X0001157362Y0002690098D02*
X0001125866Y0002690098D01*
X0001346338Y0002690098D02*
X0001377834Y0002690098D01*
X0001314842Y0002690098D02*
X0001346338Y0002690098D01*
X0001314842Y0002690098D02*
X0001293177Y0002690098D01*
X0001283346Y0002690098D02*
X0001293177Y0002690098D01*
X0001076618Y0002640850D02*
X0001076618Y0002429507D01*
X0001125866Y0002690098D02*
X0001076618Y0002640850D01*
X0001283346Y0002685622D02*
X0001283346Y0002690098D01*
X0001173110Y0002575385D02*
X0001283346Y0002685622D01*
X0001173110Y0002433559D02*
X0001173110Y0002575385D01*
X0001143996Y0002404444D02*
X0001173110Y0002433559D01*
X0001101681Y0002404444D02*
X0001143996Y0002404444D01*
X0001076618Y0002429507D02*
X0001101681Y0002404444D01*
X0000973110Y0002644192D02*
X0000973110Y0002666842D01*
X0001428818Y0002877393D02*
X0001428818Y0002969192D01*
X0001407625Y0002856200D02*
X0001428818Y0002877393D01*
X0001053393Y0002856200D02*
X0001407625Y0002856200D01*
X0001005377Y0002808185D02*
X0001053393Y0002856200D01*
X0000996716Y0002816846D02*
X0001005377Y0002808185D01*
X0000948279Y0002816846D02*
X0000996716Y0002816846D01*
X0000924547Y0002793114D02*
X0000948279Y0002816846D01*
X0000924547Y0002481590D02*
X0000924547Y0002793114D01*
X0001001692Y0002404444D02*
X0000924547Y0002481590D01*
X0001051555Y0002404444D02*
X0001001692Y0002404444D01*
X0001076618Y0002429507D02*
X0001051555Y0002404444D01*
X0000984433Y0002666842D02*
X0000973110Y0002666842D01*
X0001005377Y0002687787D02*
X0000984433Y0002666842D01*
X0001005377Y0002808185D02*
X0001005377Y0002687787D01*
X0001523110Y0002551240D02*
X0001499976Y0002551240D01*
X0001377834Y0002832578D02*
X0001403437Y0002832578D01*
X0001499976Y0002736039D02*
X0001499976Y0002551240D01*
X0001403437Y0002832578D02*
X0001499976Y0002736039D01*
X0001423110Y0002717669D02*
X0001403437Y0002737342D01*
X0001423110Y0002652653D02*
X0001423110Y0002717669D01*
X0001376771Y0002606314D02*
X0001423110Y0002652653D01*
X0001376771Y0002530610D02*
X0001376771Y0002606314D01*
X0001402417Y0002504964D02*
X0001376771Y0002530610D01*
X0001453700Y0002504964D02*
X0001402417Y0002504964D01*
X0001499976Y0002551240D02*
X0001453700Y0002504964D01*
X0001377834Y0002737342D02*
X0001403437Y0002737342D01*
X0000973110Y0002703247D02*
X0000973110Y0002794192D01*
X0000942582Y0002672720D02*
X0000973110Y0002703247D01*
X0000942582Y0002563578D02*
X0000942582Y0002672720D01*
X0001008649Y0002497511D02*
X0000942582Y0002563578D01*
X0001023110Y0002497511D02*
X0001008649Y0002497511D01*
X0001023110Y0002451240D02*
X0001023110Y0002497511D01*
X0001346338Y0002737342D02*
X0001346338Y0002758023D01*
X0001346338Y0002758023D02*
X0001346338Y0002832578D01*
X0001407933Y0002758023D02*
X0001346338Y0002758023D01*
X0001440838Y0002725118D02*
X0001407933Y0002758023D01*
X0001440838Y0002615240D02*
X0001440838Y0002725118D01*
X0001423110Y0002597511D02*
X0001440838Y0002615240D01*
X0001423110Y0002551240D02*
X0001423110Y0002597511D01*
X0001314842Y0002737342D02*
X0001314842Y0002832578D01*
X0001390972Y0002716661D02*
X0001314842Y0002716661D01*
X0001403440Y0002704192D02*
X0001390972Y0002716661D01*
X0001403440Y0002672897D02*
X0001403440Y0002704192D01*
X0001328055Y0002597511D02*
X0001403440Y0002672897D01*
X0001323110Y0002597511D02*
X0001328055Y0002597511D01*
X0001323110Y0002551240D02*
X0001323110Y0002597511D01*
X0001314842Y0002737342D02*
X0001314842Y0002716661D01*
X0001283346Y0002737342D02*
X0001283346Y0002765082D01*
X0001283346Y0002765082D02*
X0001283346Y0002832578D01*
X0001220354Y0002737342D02*
X0001233157Y0002737342D01*
X0001245956Y0002750141D02*
X0001245956Y0002832578D01*
X0001233157Y0002737342D02*
X0001245956Y0002750141D01*
X0001220354Y0002832578D02*
X0001245956Y0002832578D01*
X0001245960Y0002724539D02*
X0001233157Y0002737342D01*
X0001245960Y0002674090D02*
X0001245960Y0002724539D01*
X0001169381Y0002597511D02*
X0001245960Y0002674090D01*
X0001123110Y0002597511D02*
X0001169381Y0002597511D01*
X0001123110Y0002551240D02*
X0001123110Y0002597511D01*
X0001188858Y0002737342D02*
X0001188858Y0002832578D01*
X0001111629Y0002716661D02*
X0001188858Y0002716661D01*
X0001023110Y0002628141D02*
X0001111629Y0002716661D01*
X0001023110Y0002551240D02*
X0001023110Y0002628141D01*
X0001188858Y0002737342D02*
X0001188858Y0002716661D01*
G04 next file*
G04 #@! TF.FileFunction,Copper,L1,Top,Signal*
G04 Gerber Fmt 4.6, Leading zero omitted, Abs format (unit mm)*
G04 Created by KiCad (PCBNEW 4.0.4-stable) date 05/23/17 22:39:58*
G01G01*
G04 APERTURE LIST*
G04 APERTURE END LIST*
D108*
D109*
X0001808720Y0001195610D02*
X0002531141Y0002048385D03*
D110*
X0002531141Y0002048385D03*
D111*
X0002050826Y0001773582D03*
X0002090984Y0001773582D03*
X0002131141Y0001773582D03*
X0002171299Y0001773582D03*
X0002211456Y0001773582D03*
X0002251614Y0001773582D03*
X0002291771Y0001773582D03*
X0002331929Y0001773582D03*
D110*
X0001857913Y0002048385D03*
D109*
X0001857913Y0002048385D03*
D112*
X0001876220Y0001657637D03*
X0001876220Y0001598582D03*
X0001876220Y0001507637D03*
X0001876220Y0001448582D03*
D113*
X0002186456Y0001684212D03*
X0002186456Y0001636968D03*
X0002280944Y0001684212D03*
X0002280944Y0001636968D03*
D114*
X0002217952Y0001684212D03*
X0002249448Y0001684212D03*
X0002249448Y0001636968D03*
X0002217952Y0001636968D03*
D113*
X0002186456Y0001541732D03*
X0002186456Y0001494488D03*
X0002280944Y0001541732D03*
X0002280944Y0001494488D03*
D114*
X0002217952Y0001541732D03*
X0002249448Y0001541732D03*
X0002249448Y0001494488D03*
X0002217952Y0001494488D03*
D113*
X0002028976Y0001684212D03*
X0002028976Y0001636968D03*
X0002123464Y0001684212D03*
X0002123464Y0001636968D03*
D114*
X0002060472Y0001684212D03*
X0002091968Y0001684212D03*
X0002091968Y0001636968D03*
X0002060472Y0001636968D03*
D113*
X0002028976Y0001541732D03*
X0002028976Y0001494488D03*
X0002123464Y0001541732D03*
X0002123464Y0001494488D03*
D114*
X0002060472Y0001541732D03*
X0002091968Y0001541732D03*
X0002091968Y0001494488D03*
X0002060472Y0001494488D03*
D115*
X0002426220Y0001355629D03*
D116*
X0002426220Y0001255629D03*
X0002326220Y0001355629D03*
X0002326220Y0001255629D03*
X0002226220Y0001355629D03*
X0002226220Y0001255629D03*
X0002126220Y0001355629D03*
X0002126220Y0001255629D03*
X0002026220Y0001355629D03*
X0002026220Y0001255629D03*
X0001926220Y0001355629D03*
X0001926220Y0001255629D03*
D117*
X0002186456Y0001569472D03*
D118*
X0002531141Y0001919169D02*
X0002531141Y0002048385D01*
X0002461216Y0001849244D02*
X0002531141Y0001919169D01*
X0001921279Y0001849244D02*
X0002461216Y0001849244D01*
X0001857913Y0001912610D02*
X0001921279Y0001849244D01*
X0001857913Y0002048385D02*
X0001857913Y0001912610D01*
X0001915370Y0001719436D02*
X0002050826Y0001719436D01*
X0001876220Y0001680287D02*
X0001915370Y0001719436D01*
X0002050826Y0001773582D02*
X0002050826Y0001719436D01*
X0001876220Y0001657637D02*
X0001876220Y0001680287D01*
X0002091968Y0001718452D02*
X0002090984Y0001719436D01*
X0002091968Y0001684212D02*
X0002091968Y0001718452D01*
X0002090984Y0001773582D02*
X0002090984Y0001719436D01*
X0002131141Y0001718334D02*
X0002131141Y0001773582D01*
X0002149066Y0001700409D02*
X0002131141Y0001718334D01*
X0002149066Y0001684212D02*
X0002149066Y0001700409D01*
X0002123464Y0001684212D02*
X0002149066Y0001684212D01*
X0002186456Y0001704279D02*
X0002171299Y0001719436D01*
X0002186456Y0001684212D02*
X0002186456Y0001704279D01*
X0002171299Y0001773582D02*
X0002171299Y0001719436D01*
X0002217952Y0001712940D02*
X0002211456Y0001719436D01*
X0002217952Y0001684212D02*
X0002217952Y0001712940D01*
X0002211456Y0001773582D02*
X0002211456Y0001719436D01*
X0002249448Y0001717271D02*
X0002251614Y0001719436D01*
X0002249448Y0001684212D02*
X0002249448Y0001717271D01*
X0002251614Y0001773582D02*
X0002251614Y0001719436D01*
X0002306547Y0001704661D02*
X0002291771Y0001719436D01*
X0002306547Y0001684212D02*
X0002306547Y0001704661D01*
X0002280944Y0001684212D02*
X0002306547Y0001684212D01*
X0002291771Y0001773582D02*
X0002291771Y0001719436D01*
X0002091968Y0001494488D02*
X0002123464Y0001494488D01*
X0002091968Y0001494488D02*
X0002060472Y0001494488D01*
X0002060472Y0001494488D02*
X0002028976Y0001494488D01*
X0002249448Y0001494488D02*
X0002280944Y0001494488D01*
X0002217952Y0001494488D02*
X0002249448Y0001494488D01*
X0002217952Y0001494488D02*
X0002196287Y0001494488D01*
X0002186456Y0001494488D02*
X0002196287Y0001494488D01*
X0001979728Y0001445240D02*
X0001979728Y0001233897D01*
X0002028976Y0001494488D02*
X0001979728Y0001445240D01*
X0002186456Y0001490011D02*
X0002186456Y0001494488D01*
X0002076220Y0001379775D02*
X0002186456Y0001490011D01*
X0002076220Y0001237948D02*
X0002076220Y0001379775D01*
X0002047106Y0001208834D02*
X0002076220Y0001237948D01*
X0002004791Y0001208834D02*
X0002047106Y0001208834D01*
X0001979728Y0001233897D02*
X0002004791Y0001208834D01*
X0001876220Y0001448582D02*
X0001876220Y0001471232D01*
X0002331929Y0001681783D02*
X0002331929Y0001773582D01*
X0002310736Y0001660590D02*
X0002331929Y0001681783D01*
X0001956503Y0001660590D02*
X0002310736Y0001660590D01*
X0001908488Y0001612574D02*
X0001956503Y0001660590D01*
X0001899826Y0001621236D02*
X0001908488Y0001612574D01*
X0001851389Y0001621236D02*
X0001899826Y0001621236D01*
X0001827657Y0001597503D02*
X0001851389Y0001621236D01*
X0001827657Y0001285980D02*
X0001827657Y0001597503D01*
X0001904803Y0001208834D02*
X0001827657Y0001285980D01*
X0001954665Y0001208834D02*
X0001904803Y0001208834D01*
X0001979728Y0001233897D02*
X0001954665Y0001208834D01*
X0001887543Y0001471232D02*
X0001876220Y0001471232D01*
X0001908488Y0001492177D02*
X0001887543Y0001471232D01*
X0001908488Y0001612574D02*
X0001908488Y0001492177D01*
X0002426220Y0001355629D02*
X0002403086Y0001355629D01*
X0002280944Y0001636968D02*
X0002306547Y0001636968D01*
X0002403086Y0001540429D02*
X0002403086Y0001355629D01*
X0002306547Y0001636968D02*
X0002403086Y0001540429D01*
X0002326220Y0001522059D02*
X0002306547Y0001541732D01*
X0002326220Y0001457043D02*
X0002326220Y0001522059D01*
X0002279881Y0001410704D02*
X0002326220Y0001457043D01*
X0002279881Y0001334999D02*
X0002279881Y0001410704D01*
X0002305527Y0001309354D02*
X0002279881Y0001334999D01*
X0002356811Y0001309354D02*
X0002305527Y0001309354D01*
X0002403086Y0001355629D02*
X0002356811Y0001309354D01*
X0002280944Y0001541732D02*
X0002306547Y0001541732D01*
X0001876220Y0001507637D02*
X0001876220Y0001598582D01*
X0001845692Y0001477110D02*
X0001876220Y0001507637D01*
X0001845692Y0001367968D02*
X0001845692Y0001477110D01*
X0001911759Y0001301901D02*
X0001845692Y0001367968D01*
X0001926220Y0001301901D02*
X0001911759Y0001301901D01*
X0001926220Y0001255629D02*
X0001926220Y0001301901D01*
X0002249448Y0001541732D02*
X0002249448Y0001562413D01*
X0002249448Y0001562413D02*
X0002249448Y0001636968D01*
X0002311043Y0001562413D02*
X0002249448Y0001562413D01*
X0002343948Y0001529507D02*
X0002311043Y0001562413D01*
X0002343948Y0001419629D02*
X0002343948Y0001529507D01*
X0002326220Y0001401901D02*
X0002343948Y0001419629D01*
X0002326220Y0001355629D02*
X0002326220Y0001401901D01*
X0002217952Y0001541732D02*
X0002217952Y0001636968D01*
X0002294082Y0001521051D02*
X0002217952Y0001521051D01*
X0002306551Y0001508582D02*
X0002294082Y0001521051D01*
X0002306551Y0001477287D02*
X0002306551Y0001508582D01*
X0002231165Y0001401901D02*
X0002306551Y0001477287D01*
X0002226220Y0001401901D02*
X0002231165Y0001401901D01*
X0002226220Y0001355629D02*
X0002226220Y0001401901D01*
X0002217952Y0001541732D02*
X0002217952Y0001521051D01*
X0002186456Y0001541732D02*
X0002186456Y0001569472D01*
X0002186456Y0001569472D02*
X0002186456Y0001636968D01*
X0002123464Y0001541732D02*
X0002136267Y0001541732D01*
X0002149066Y0001554531D02*
X0002149066Y0001636968D01*
X0002136267Y0001541732D02*
X0002149066Y0001554531D01*
X0002123464Y0001636968D02*
X0002149066Y0001636968D01*
X0002149070Y0001528929D02*
X0002136267Y0001541732D01*
X0002149070Y0001478480D02*
X0002149070Y0001528929D01*
X0002072492Y0001401901D02*
X0002149070Y0001478480D01*
X0002026220Y0001401901D02*
X0002072492Y0001401901D01*
X0002026220Y0001355629D02*
X0002026220Y0001401901D01*
X0002091968Y0001541732D02*
X0002091968Y0001636968D01*
X0002014740Y0001521051D02*
X0002091968Y0001521051D01*
X0001926220Y0001432531D02*
X0002014740Y0001521051D01*
X0001926220Y0001355629D02*
X0001926220Y0001432531D01*
X0002091968Y0001541732D02*
X0002091968Y0001521051D01*
G04 next file*
G04 #@! TF.FileFunction,Copper,L1,Top,Signal*
G04 Gerber Fmt 4.6, Leading zero omitted, Abs format (unit mm)*
G04 Created by KiCad (PCBNEW 4.0.4-stable) date 05/23/17 22:39:58*
G01G01*
G04 APERTURE LIST*
G04 APERTURE END LIST*
D119*
D120*
X0002711830Y0001195610D02*
X0003434251Y0002048385D03*
D121*
X0003434251Y0002048385D03*
D122*
X0002953937Y0001773582D03*
X0002994094Y0001773582D03*
X0003034251Y0001773582D03*
X0003074409Y0001773582D03*
X0003114566Y0001773582D03*
X0003154724Y0001773582D03*
X0003194881Y0001773582D03*
X0003235039Y0001773582D03*
D121*
X0002761023Y0002048385D03*
D120*
X0002761023Y0002048385D03*
D123*
X0002779330Y0001657637D03*
X0002779330Y0001598582D03*
X0002779330Y0001507637D03*
X0002779330Y0001448582D03*
D124*
X0003089566Y0001684212D03*
X0003089566Y0001636968D03*
X0003184055Y0001684212D03*
X0003184055Y0001636968D03*
D125*
X0003121062Y0001684212D03*
X0003152559Y0001684212D03*
X0003152559Y0001636968D03*
X0003121062Y0001636968D03*
D124*
X0003089566Y0001541732D03*
X0003089566Y0001494488D03*
X0003184055Y0001541732D03*
X0003184055Y0001494488D03*
D125*
X0003121062Y0001541732D03*
X0003152559Y0001541732D03*
X0003152559Y0001494488D03*
X0003121062Y0001494488D03*
D124*
X0002932086Y0001684212D03*
X0002932086Y0001636968D03*
X0003026574Y0001684212D03*
X0003026574Y0001636968D03*
D125*
X0002963582Y0001684212D03*
X0002995078Y0001684212D03*
X0002995078Y0001636968D03*
X0002963582Y0001636968D03*
D124*
X0002932086Y0001541732D03*
X0002932086Y0001494488D03*
X0003026574Y0001541732D03*
X0003026574Y0001494488D03*
D125*
X0002963582Y0001541732D03*
X0002995078Y0001541732D03*
X0002995078Y0001494488D03*
X0002963582Y0001494488D03*
D126*
X0003329330Y0001355629D03*
D127*
X0003329330Y0001255629D03*
X0003229330Y0001355629D03*
X0003229330Y0001255629D03*
X0003129330Y0001355629D03*
X0003129330Y0001255629D03*
X0003029330Y0001355629D03*
X0003029330Y0001255629D03*
X0002929330Y0001355629D03*
X0002929330Y0001255629D03*
X0002829330Y0001355629D03*
X0002829330Y0001255629D03*
D128*
X0003089566Y0001569472D03*
D129*
X0003434251Y0001919169D02*
X0003434251Y0002048385D01*
X0003364326Y0001849244D02*
X0003434251Y0001919169D01*
X0002824389Y0001849244D02*
X0003364326Y0001849244D01*
X0002761023Y0001912610D02*
X0002824389Y0001849244D01*
X0002761023Y0002048385D02*
X0002761023Y0001912610D01*
X0002818480Y0001719436D02*
X0002953937Y0001719436D01*
X0002779330Y0001680287D02*
X0002818480Y0001719436D01*
X0002953937Y0001773582D02*
X0002953937Y0001719436D01*
X0002779330Y0001657637D02*
X0002779330Y0001680287D01*
X0002995078Y0001718452D02*
X0002994094Y0001719436D01*
X0002995078Y0001684212D02*
X0002995078Y0001718452D01*
X0002994094Y0001773582D02*
X0002994094Y0001719436D01*
X0003034251Y0001718334D02*
X0003034251Y0001773582D01*
X0003052177Y0001700409D02*
X0003034251Y0001718334D01*
X0003052177Y0001684212D02*
X0003052177Y0001700409D01*
X0003026574Y0001684212D02*
X0003052177Y0001684212D01*
X0003089566Y0001704279D02*
X0003074409Y0001719436D01*
X0003089566Y0001684212D02*
X0003089566Y0001704279D01*
X0003074409Y0001773582D02*
X0003074409Y0001719436D01*
X0003121062Y0001712940D02*
X0003114566Y0001719436D01*
X0003121062Y0001684212D02*
X0003121062Y0001712940D01*
X0003114566Y0001773582D02*
X0003114566Y0001719436D01*
X0003152559Y0001717271D02*
X0003154724Y0001719436D01*
X0003152559Y0001684212D02*
X0003152559Y0001717271D01*
X0003154724Y0001773582D02*
X0003154724Y0001719436D01*
X0003209657Y0001704661D02*
X0003194881Y0001719436D01*
X0003209657Y0001684212D02*
X0003209657Y0001704661D01*
X0003184055Y0001684212D02*
X0003209657Y0001684212D01*
X0003194881Y0001773582D02*
X0003194881Y0001719436D01*
X0002995078Y0001494488D02*
X0003026574Y0001494488D01*
X0002995078Y0001494488D02*
X0002963582Y0001494488D01*
X0002963582Y0001494488D02*
X0002932086Y0001494488D01*
X0003152559Y0001494488D02*
X0003184055Y0001494488D01*
X0003121062Y0001494488D02*
X0003152559Y0001494488D01*
X0003121062Y0001494488D02*
X0003099397Y0001494488D01*
X0003089566Y0001494488D02*
X0003099397Y0001494488D01*
X0002882838Y0001445240D02*
X0002882838Y0001233897D01*
X0002932086Y0001494488D02*
X0002882838Y0001445240D01*
X0003089566Y0001490011D02*
X0003089566Y0001494488D01*
X0002979330Y0001379775D02*
X0003089566Y0001490011D01*
X0002979330Y0001237948D02*
X0002979330Y0001379775D01*
X0002950216Y0001208834D02*
X0002979330Y0001237948D01*
X0002907901Y0001208834D02*
X0002950216Y0001208834D01*
X0002882838Y0001233897D02*
X0002907901Y0001208834D01*
X0002779330Y0001448582D02*
X0002779330Y0001471232D01*
X0003235039Y0001681783D02*
X0003235039Y0001773582D01*
X0003213846Y0001660590D02*
X0003235039Y0001681783D01*
X0002859614Y0001660590D02*
X0003213846Y0001660590D01*
X0002811598Y0001612574D02*
X0002859614Y0001660590D01*
X0002802937Y0001621236D02*
X0002811598Y0001612574D01*
X0002754499Y0001621236D02*
X0002802937Y0001621236D01*
X0002730767Y0001597503D02*
X0002754499Y0001621236D01*
X0002730767Y0001285980D02*
X0002730767Y0001597503D01*
X0002807913Y0001208834D02*
X0002730767Y0001285980D01*
X0002857775Y0001208834D02*
X0002807913Y0001208834D01*
X0002882838Y0001233897D02*
X0002857775Y0001208834D01*
X0002790653Y0001471232D02*
X0002779330Y0001471232D01*
X0002811598Y0001492177D02*
X0002790653Y0001471232D01*
X0002811598Y0001612574D02*
X0002811598Y0001492177D01*
X0003329330Y0001355629D02*
X0003306196Y0001355629D01*
X0003184055Y0001636968D02*
X0003209657Y0001636968D01*
X0003306196Y0001540429D02*
X0003306196Y0001355629D01*
X0003209657Y0001636968D02*
X0003306196Y0001540429D01*
X0003229330Y0001522059D02*
X0003209657Y0001541732D01*
X0003229330Y0001457043D02*
X0003229330Y0001522059D01*
X0003182992Y0001410704D02*
X0003229330Y0001457043D01*
X0003182992Y0001334999D02*
X0003182992Y0001410704D01*
X0003208637Y0001309354D02*
X0003182992Y0001334999D01*
X0003259921Y0001309354D02*
X0003208637Y0001309354D01*
X0003306196Y0001355629D02*
X0003259921Y0001309354D01*
X0003184055Y0001541732D02*
X0003209657Y0001541732D01*
X0002779330Y0001507637D02*
X0002779330Y0001598582D01*
X0002748803Y0001477110D02*
X0002779330Y0001507637D01*
X0002748803Y0001367968D02*
X0002748803Y0001477110D01*
X0002814870Y0001301901D02*
X0002748803Y0001367968D01*
X0002829330Y0001301901D02*
X0002814870Y0001301901D01*
X0002829330Y0001255629D02*
X0002829330Y0001301901D01*
X0003152559Y0001541732D02*
X0003152559Y0001562413D01*
X0003152559Y0001562413D02*
X0003152559Y0001636968D01*
X0003214153Y0001562413D02*
X0003152559Y0001562413D01*
X0003247059Y0001529507D02*
X0003214153Y0001562413D01*
X0003247059Y0001419629D02*
X0003247059Y0001529507D01*
X0003229330Y0001401901D02*
X0003247059Y0001419629D01*
X0003229330Y0001355629D02*
X0003229330Y0001401901D01*
X0003121062Y0001541732D02*
X0003121062Y0001636968D01*
X0003197192Y0001521051D02*
X0003121062Y0001521051D01*
X0003209661Y0001508582D02*
X0003197192Y0001521051D01*
X0003209661Y0001477287D02*
X0003209661Y0001508582D01*
X0003134275Y0001401901D02*
X0003209661Y0001477287D01*
X0003129330Y0001401901D02*
X0003134275Y0001401901D01*
X0003129330Y0001355629D02*
X0003129330Y0001401901D01*
X0003121062Y0001541732D02*
X0003121062Y0001521051D01*
X0003089566Y0001541732D02*
X0003089566Y0001569472D01*
X0003089566Y0001569472D02*
X0003089566Y0001636968D01*
X0003026574Y0001541732D02*
X0003039377Y0001541732D01*
X0003052177Y0001554531D02*
X0003052177Y0001636968D01*
X0003039377Y0001541732D02*
X0003052177Y0001554531D01*
X0003026574Y0001636968D02*
X0003052177Y0001636968D01*
X0003052181Y0001528929D02*
X0003039377Y0001541732D01*
X0003052181Y0001478480D02*
X0003052181Y0001528929D01*
X0002975602Y0001401901D02*
X0003052181Y0001478480D01*
X0002929330Y0001401901D02*
X0002975602Y0001401901D01*
X0002929330Y0001355629D02*
X0002929330Y0001401901D01*
X0002995078Y0001541732D02*
X0002995078Y0001636968D01*
X0002917850Y0001521051D02*
X0002995078Y0001521051D01*
X0002829330Y0001432531D02*
X0002917850Y0001521051D01*
X0002829330Y0001355629D02*
X0002829330Y0001432531D01*
X0002995078Y0001541732D02*
X0002995078Y0001521051D01*
G04 next file*
G04 #@! TF.FileFunction,Copper,L1,Top,Signal*
G04 Gerber Fmt 4.6, Leading zero omitted, Abs format (unit mm)*
G04 Created by KiCad (PCBNEW 4.0.4-stable) date 05/23/17 22:39:58*
G01G01*
G04 APERTURE LIST*
G04 APERTURE END LIST*
D130*
D131*
X0001808720Y0002391220D02*
X0002531141Y0003243996D03*
D132*
X0002531141Y0003243996D03*
D133*
X0002050826Y0002969192D03*
X0002090984Y0002969192D03*
X0002131141Y0002969192D03*
X0002171299Y0002969192D03*
X0002211456Y0002969192D03*
X0002251614Y0002969192D03*
X0002291771Y0002969192D03*
X0002331929Y0002969192D03*
D132*
X0001857913Y0003243996D03*
D131*
X0001857913Y0003243996D03*
D134*
X0001876220Y0002853247D03*
X0001876220Y0002794192D03*
X0001876220Y0002703247D03*
X0001876220Y0002644192D03*
D135*
X0002186456Y0002879822D03*
X0002186456Y0002832578D03*
X0002280944Y0002879822D03*
X0002280944Y0002832578D03*
D136*
X0002217952Y0002879822D03*
X0002249448Y0002879822D03*
X0002249448Y0002832578D03*
X0002217952Y0002832578D03*
D135*
X0002186456Y0002737342D03*
X0002186456Y0002690098D03*
X0002280944Y0002737342D03*
X0002280944Y0002690098D03*
D136*
X0002217952Y0002737342D03*
X0002249448Y0002737342D03*
X0002249448Y0002690098D03*
X0002217952Y0002690098D03*
D135*
X0002028976Y0002879822D03*
X0002028976Y0002832578D03*
X0002123464Y0002879822D03*
X0002123464Y0002832578D03*
D136*
X0002060472Y0002879822D03*
X0002091968Y0002879822D03*
X0002091968Y0002832578D03*
X0002060472Y0002832578D03*
D135*
X0002028976Y0002737342D03*
X0002028976Y0002690098D03*
X0002123464Y0002737342D03*
X0002123464Y0002690098D03*
D136*
X0002060472Y0002737342D03*
X0002091968Y0002737342D03*
X0002091968Y0002690098D03*
X0002060472Y0002690098D03*
D137*
X0002426220Y0002551240D03*
D138*
X0002426220Y0002451240D03*
X0002326220Y0002551240D03*
X0002326220Y0002451240D03*
X0002226220Y0002551240D03*
X0002226220Y0002451240D03*
X0002126220Y0002551240D03*
X0002126220Y0002451240D03*
X0002026220Y0002551240D03*
X0002026220Y0002451240D03*
X0001926220Y0002551240D03*
X0001926220Y0002451240D03*
D139*
X0002186456Y0002765082D03*
D140*
X0002531141Y0003114779D02*
X0002531141Y0003243996D01*
X0002461216Y0003044854D02*
X0002531141Y0003114779D01*
X0001921279Y0003044854D02*
X0002461216Y0003044854D01*
X0001857913Y0003108220D02*
X0001921279Y0003044854D01*
X0001857913Y0003243996D02*
X0001857913Y0003108220D01*
X0001915370Y0002915047D02*
X0002050826Y0002915047D01*
X0001876220Y0002875897D02*
X0001915370Y0002915047D01*
X0002050826Y0002969192D02*
X0002050826Y0002915047D01*
X0001876220Y0002853247D02*
X0001876220Y0002875897D01*
X0002091968Y0002914062D02*
X0002090984Y0002915047D01*
X0002091968Y0002879822D02*
X0002091968Y0002914062D01*
X0002090984Y0002969192D02*
X0002090984Y0002915047D01*
X0002131141Y0002913944D02*
X0002131141Y0002969192D01*
X0002149066Y0002896019D02*
X0002131141Y0002913944D01*
X0002149066Y0002879822D02*
X0002149066Y0002896019D01*
X0002123464Y0002879822D02*
X0002149066Y0002879822D01*
X0002186456Y0002899889D02*
X0002171299Y0002915047D01*
X0002186456Y0002879822D02*
X0002186456Y0002899889D01*
X0002171299Y0002969192D02*
X0002171299Y0002915047D01*
X0002217952Y0002908551D02*
X0002211456Y0002915047D01*
X0002217952Y0002879822D02*
X0002217952Y0002908551D01*
X0002211456Y0002969192D02*
X0002211456Y0002915047D01*
X0002249448Y0002912881D02*
X0002251614Y0002915047D01*
X0002249448Y0002879822D02*
X0002249448Y0002912881D01*
X0002251614Y0002969192D02*
X0002251614Y0002915047D01*
X0002306547Y0002900271D02*
X0002291771Y0002915047D01*
X0002306547Y0002879822D02*
X0002306547Y0002900271D01*
X0002280944Y0002879822D02*
X0002306547Y0002879822D01*
X0002291771Y0002969192D02*
X0002291771Y0002915047D01*
X0002091968Y0002690098D02*
X0002123464Y0002690098D01*
X0002091968Y0002690098D02*
X0002060472Y0002690098D01*
X0002060472Y0002690098D02*
X0002028976Y0002690098D01*
X0002249448Y0002690098D02*
X0002280944Y0002690098D01*
X0002217952Y0002690098D02*
X0002249448Y0002690098D01*
X0002217952Y0002690098D02*
X0002196287Y0002690098D01*
X0002186456Y0002690098D02*
X0002196287Y0002690098D01*
X0001979728Y0002640850D02*
X0001979728Y0002429507D01*
X0002028976Y0002690098D02*
X0001979728Y0002640850D01*
X0002186456Y0002685622D02*
X0002186456Y0002690098D01*
X0002076220Y0002575385D02*
X0002186456Y0002685622D01*
X0002076220Y0002433559D02*
X0002076220Y0002575385D01*
X0002047106Y0002404444D02*
X0002076220Y0002433559D01*
X0002004791Y0002404444D02*
X0002047106Y0002404444D01*
X0001979728Y0002429507D02*
X0002004791Y0002404444D01*
X0001876220Y0002644192D02*
X0001876220Y0002666842D01*
X0002331929Y0002877393D02*
X0002331929Y0002969192D01*
X0002310736Y0002856200D02*
X0002331929Y0002877393D01*
X0001956503Y0002856200D02*
X0002310736Y0002856200D01*
X0001908488Y0002808185D02*
X0001956503Y0002856200D01*
X0001899826Y0002816846D02*
X0001908488Y0002808185D01*
X0001851389Y0002816846D02*
X0001899826Y0002816846D01*
X0001827657Y0002793114D02*
X0001851389Y0002816846D01*
X0001827657Y0002481590D02*
X0001827657Y0002793114D01*
X0001904803Y0002404444D02*
X0001827657Y0002481590D01*
X0001954665Y0002404444D02*
X0001904803Y0002404444D01*
X0001979728Y0002429507D02*
X0001954665Y0002404444D01*
X0001887543Y0002666842D02*
X0001876220Y0002666842D01*
X0001908488Y0002687787D02*
X0001887543Y0002666842D01*
X0001908488Y0002808185D02*
X0001908488Y0002687787D01*
X0002426220Y0002551240D02*
X0002403086Y0002551240D01*
X0002280944Y0002832578D02*
X0002306547Y0002832578D01*
X0002403086Y0002736039D02*
X0002403086Y0002551240D01*
X0002306547Y0002832578D02*
X0002403086Y0002736039D01*
X0002326220Y0002717669D02*
X0002306547Y0002737342D01*
X0002326220Y0002652653D02*
X0002326220Y0002717669D01*
X0002279881Y0002606314D02*
X0002326220Y0002652653D01*
X0002279881Y0002530610D02*
X0002279881Y0002606314D01*
X0002305527Y0002504964D02*
X0002279881Y0002530610D01*
X0002356811Y0002504964D02*
X0002305527Y0002504964D01*
X0002403086Y0002551240D02*
X0002356811Y0002504964D01*
X0002280944Y0002737342D02*
X0002306547Y0002737342D01*
X0001876220Y0002703247D02*
X0001876220Y0002794192D01*
X0001845692Y0002672720D02*
X0001876220Y0002703247D01*
X0001845692Y0002563578D02*
X0001845692Y0002672720D01*
X0001911759Y0002497511D02*
X0001845692Y0002563578D01*
X0001926220Y0002497511D02*
X0001911759Y0002497511D01*
X0001926220Y0002451240D02*
X0001926220Y0002497511D01*
X0002249448Y0002737342D02*
X0002249448Y0002758023D01*
X0002249448Y0002758023D02*
X0002249448Y0002832578D01*
X0002311043Y0002758023D02*
X0002249448Y0002758023D01*
X0002343948Y0002725118D02*
X0002311043Y0002758023D01*
X0002343948Y0002615240D02*
X0002343948Y0002725118D01*
X0002326220Y0002597511D02*
X0002343948Y0002615240D01*
X0002326220Y0002551240D02*
X0002326220Y0002597511D01*
X0002217952Y0002737342D02*
X0002217952Y0002832578D01*
X0002294082Y0002716661D02*
X0002217952Y0002716661D01*
X0002306551Y0002704192D02*
X0002294082Y0002716661D01*
X0002306551Y0002672897D02*
X0002306551Y0002704192D01*
X0002231165Y0002597511D02*
X0002306551Y0002672897D01*
X0002226220Y0002597511D02*
X0002231165Y0002597511D01*
X0002226220Y0002551240D02*
X0002226220Y0002597511D01*
X0002217952Y0002737342D02*
X0002217952Y0002716661D01*
X0002186456Y0002737342D02*
X0002186456Y0002765082D01*
X0002186456Y0002765082D02*
X0002186456Y0002832578D01*
X0002123464Y0002737342D02*
X0002136267Y0002737342D01*
X0002149066Y0002750141D02*
X0002149066Y0002832578D01*
X0002136267Y0002737342D02*
X0002149066Y0002750141D01*
X0002123464Y0002832578D02*
X0002149066Y0002832578D01*
X0002149070Y0002724539D02*
X0002136267Y0002737342D01*
X0002149070Y0002674090D02*
X0002149070Y0002724539D01*
X0002072492Y0002597511D02*
X0002149070Y0002674090D01*
X0002026220Y0002597511D02*
X0002072492Y0002597511D01*
X0002026220Y0002551240D02*
X0002026220Y0002597511D01*
X0002091968Y0002737342D02*
X0002091968Y0002832578D01*
X0002014740Y0002716661D02*
X0002091968Y0002716661D01*
X0001926220Y0002628141D02*
X0002014740Y0002716661D01*
X0001926220Y0002551240D02*
X0001926220Y0002628141D01*
X0002091968Y0002737342D02*
X0002091968Y0002716661D01*
G04 next file*
G04 #@! TF.FileFunction,Copper,L1,Top,Signal*
G04 Gerber Fmt 4.6, Leading zero omitted, Abs format (unit mm)*
G04 Created by KiCad (PCBNEW 4.0.4-stable) date 05/23/17 22:39:58*
G01G01*
G04 APERTURE LIST*
G04 APERTURE END LIST*
D141*
D142*
X0002711830Y0002391220D02*
X0003434251Y0003243996D03*
D143*
X0003434251Y0003243996D03*
D144*
X0002953937Y0002969192D03*
X0002994094Y0002969192D03*
X0003034251Y0002969192D03*
X0003074409Y0002969192D03*
X0003114566Y0002969192D03*
X0003154724Y0002969192D03*
X0003194881Y0002969192D03*
X0003235039Y0002969192D03*
D143*
X0002761023Y0003243996D03*
D142*
X0002761023Y0003243996D03*
D145*
X0002779330Y0002853247D03*
X0002779330Y0002794192D03*
X0002779330Y0002703247D03*
X0002779330Y0002644192D03*
D146*
X0003089566Y0002879822D03*
X0003089566Y0002832578D03*
X0003184055Y0002879822D03*
X0003184055Y0002832578D03*
D147*
X0003121062Y0002879822D03*
X0003152559Y0002879822D03*
X0003152559Y0002832578D03*
X0003121062Y0002832578D03*
D146*
X0003089566Y0002737342D03*
X0003089566Y0002690098D03*
X0003184055Y0002737342D03*
X0003184055Y0002690098D03*
D147*
X0003121062Y0002737342D03*
X0003152559Y0002737342D03*
X0003152559Y0002690098D03*
X0003121062Y0002690098D03*
D146*
X0002932086Y0002879822D03*
X0002932086Y0002832578D03*
X0003026574Y0002879822D03*
X0003026574Y0002832578D03*
D147*
X0002963582Y0002879822D03*
X0002995078Y0002879822D03*
X0002995078Y0002832578D03*
X0002963582Y0002832578D03*
D146*
X0002932086Y0002737342D03*
X0002932086Y0002690098D03*
X0003026574Y0002737342D03*
X0003026574Y0002690098D03*
D147*
X0002963582Y0002737342D03*
X0002995078Y0002737342D03*
X0002995078Y0002690098D03*
X0002963582Y0002690098D03*
D148*
X0003329330Y0002551240D03*
D149*
X0003329330Y0002451240D03*
X0003229330Y0002551240D03*
X0003229330Y0002451240D03*
X0003129330Y0002551240D03*
X0003129330Y0002451240D03*
X0003029330Y0002551240D03*
X0003029330Y0002451240D03*
X0002929330Y0002551240D03*
X0002929330Y0002451240D03*
X0002829330Y0002551240D03*
X0002829330Y0002451240D03*
D150*
X0003089566Y0002765082D03*
D151*
X0003434251Y0003114779D02*
X0003434251Y0003243996D01*
X0003364326Y0003044854D02*
X0003434251Y0003114779D01*
X0002824389Y0003044854D02*
X0003364326Y0003044854D01*
X0002761023Y0003108220D02*
X0002824389Y0003044854D01*
X0002761023Y0003243996D02*
X0002761023Y0003108220D01*
X0002818480Y0002915047D02*
X0002953937Y0002915047D01*
X0002779330Y0002875897D02*
X0002818480Y0002915047D01*
X0002953937Y0002969192D02*
X0002953937Y0002915047D01*
X0002779330Y0002853247D02*
X0002779330Y0002875897D01*
X0002995078Y0002914062D02*
X0002994094Y0002915047D01*
X0002995078Y0002879822D02*
X0002995078Y0002914062D01*
X0002994094Y0002969192D02*
X0002994094Y0002915047D01*
X0003034251Y0002913944D02*
X0003034251Y0002969192D01*
X0003052177Y0002896019D02*
X0003034251Y0002913944D01*
X0003052177Y0002879822D02*
X0003052177Y0002896019D01*
X0003026574Y0002879822D02*
X0003052177Y0002879822D01*
X0003089566Y0002899889D02*
X0003074409Y0002915047D01*
X0003089566Y0002879822D02*
X0003089566Y0002899889D01*
X0003074409Y0002969192D02*
X0003074409Y0002915047D01*
X0003121062Y0002908551D02*
X0003114566Y0002915047D01*
X0003121062Y0002879822D02*
X0003121062Y0002908551D01*
X0003114566Y0002969192D02*
X0003114566Y0002915047D01*
X0003152559Y0002912881D02*
X0003154724Y0002915047D01*
X0003152559Y0002879822D02*
X0003152559Y0002912881D01*
X0003154724Y0002969192D02*
X0003154724Y0002915047D01*
X0003209657Y0002900271D02*
X0003194881Y0002915047D01*
X0003209657Y0002879822D02*
X0003209657Y0002900271D01*
X0003184055Y0002879822D02*
X0003209657Y0002879822D01*
X0003194881Y0002969192D02*
X0003194881Y0002915047D01*
X0002995078Y0002690098D02*
X0003026574Y0002690098D01*
X0002995078Y0002690098D02*
X0002963582Y0002690098D01*
X0002963582Y0002690098D02*
X0002932086Y0002690098D01*
X0003152559Y0002690098D02*
X0003184055Y0002690098D01*
X0003121062Y0002690098D02*
X0003152559Y0002690098D01*
X0003121062Y0002690098D02*
X0003099397Y0002690098D01*
X0003089566Y0002690098D02*
X0003099397Y0002690098D01*
X0002882838Y0002640850D02*
X0002882838Y0002429507D01*
X0002932086Y0002690098D02*
X0002882838Y0002640850D01*
X0003089566Y0002685622D02*
X0003089566Y0002690098D01*
X0002979330Y0002575385D02*
X0003089566Y0002685622D01*
X0002979330Y0002433559D02*
X0002979330Y0002575385D01*
X0002950216Y0002404444D02*
X0002979330Y0002433559D01*
X0002907901Y0002404444D02*
X0002950216Y0002404444D01*
X0002882838Y0002429507D02*
X0002907901Y0002404444D01*
X0002779330Y0002644192D02*
X0002779330Y0002666842D01*
X0003235039Y0002877393D02*
X0003235039Y0002969192D01*
X0003213846Y0002856200D02*
X0003235039Y0002877393D01*
X0002859614Y0002856200D02*
X0003213846Y0002856200D01*
X0002811598Y0002808185D02*
X0002859614Y0002856200D01*
X0002802937Y0002816846D02*
X0002811598Y0002808185D01*
X0002754499Y0002816846D02*
X0002802937Y0002816846D01*
X0002730767Y0002793114D02*
X0002754499Y0002816846D01*
X0002730767Y0002481590D02*
X0002730767Y0002793114D01*
X0002807913Y0002404444D02*
X0002730767Y0002481590D01*
X0002857775Y0002404444D02*
X0002807913Y0002404444D01*
X0002882838Y0002429507D02*
X0002857775Y0002404444D01*
X0002790653Y0002666842D02*
X0002779330Y0002666842D01*
X0002811598Y0002687787D02*
X0002790653Y0002666842D01*
X0002811598Y0002808185D02*
X0002811598Y0002687787D01*
X0003329330Y0002551240D02*
X0003306196Y0002551240D01*
X0003184055Y0002832578D02*
X0003209657Y0002832578D01*
X0003306196Y0002736039D02*
X0003306196Y0002551240D01*
X0003209657Y0002832578D02*
X0003306196Y0002736039D01*
X0003229330Y0002717669D02*
X0003209657Y0002737342D01*
X0003229330Y0002652653D02*
X0003229330Y0002717669D01*
X0003182992Y0002606314D02*
X0003229330Y0002652653D01*
X0003182992Y0002530610D02*
X0003182992Y0002606314D01*
X0003208637Y0002504964D02*
X0003182992Y0002530610D01*
X0003259921Y0002504964D02*
X0003208637Y0002504964D01*
X0003306196Y0002551240D02*
X0003259921Y0002504964D01*
X0003184055Y0002737342D02*
X0003209657Y0002737342D01*
X0002779330Y0002703247D02*
X0002779330Y0002794192D01*
X0002748803Y0002672720D02*
X0002779330Y0002703247D01*
X0002748803Y0002563578D02*
X0002748803Y0002672720D01*
X0002814870Y0002497511D02*
X0002748803Y0002563578D01*
X0002829330Y0002497511D02*
X0002814870Y0002497511D01*
X0002829330Y0002451240D02*
X0002829330Y0002497511D01*
X0003152559Y0002737342D02*
X0003152559Y0002758023D01*
X0003152559Y0002758023D02*
X0003152559Y0002832578D01*
X0003214153Y0002758023D02*
X0003152559Y0002758023D01*
X0003247059Y0002725118D02*
X0003214153Y0002758023D01*
X0003247059Y0002615240D02*
X0003247059Y0002725118D01*
X0003229330Y0002597511D02*
X0003247059Y0002615240D01*
X0003229330Y0002551240D02*
X0003229330Y0002597511D01*
X0003121062Y0002737342D02*
X0003121062Y0002832578D01*
X0003197192Y0002716661D02*
X0003121062Y0002716661D01*
X0003209661Y0002704192D02*
X0003197192Y0002716661D01*
X0003209661Y0002672897D02*
X0003209661Y0002704192D01*
X0003134275Y0002597511D02*
X0003209661Y0002672897D01*
X0003129330Y0002597511D02*
X0003134275Y0002597511D01*
X0003129330Y0002551240D02*
X0003129330Y0002597511D01*
X0003121062Y0002737342D02*
X0003121062Y0002716661D01*
X0003089566Y0002737342D02*
X0003089566Y0002765082D01*
X0003089566Y0002765082D02*
X0003089566Y0002832578D01*
X0003026574Y0002737342D02*
X0003039377Y0002737342D01*
X0003052177Y0002750141D02*
X0003052177Y0002832578D01*
X0003039377Y0002737342D02*
X0003052177Y0002750141D01*
X0003026574Y0002832578D02*
X0003052177Y0002832578D01*
X0003052181Y0002724539D02*
X0003039377Y0002737342D01*
X0003052181Y0002674090D02*
X0003052181Y0002724539D01*
X0002975602Y0002597511D02*
X0003052181Y0002674090D01*
X0002929330Y0002597511D02*
X0002975602Y0002597511D01*
X0002929330Y0002551240D02*
X0002929330Y0002597511D01*
X0002995078Y0002737342D02*
X0002995078Y0002832578D01*
X0002917850Y0002716661D02*
X0002995078Y0002716661D01*
X0002829330Y0002628141D02*
X0002917850Y0002716661D01*
X0002829330Y0002551240D02*
X0002829330Y0002628141D01*
X0002995078Y0002737342D02*
X0002995078Y0002716661D01*
M02*