M48
;DRILL file {KiCad 4.0.1-stable} date 8/05/2016 3:47:31 PM
;FORMAT={-:-/ absolute / inch / decimal}
FMAT,2
INCH,TZ
T1C0.024
T2C0.025
T3C0.039
T4C0.040
T5C0.055
%
G90
G05
M72
T1
X3.6007Y-4.5958
X3.6007Y-4.6792
X3.6007Y-4.7625
X3.6007Y-4.8459
X3.6007Y-5.2958
X3.6007Y-5.3792
X3.6007Y-5.4625
X3.6007Y-5.5459
X3.6972Y-4.5541
X3.6972Y-4.6375
X3.6972Y-4.7208
X3.6972Y-4.8042
X3.6972Y-5.2541
X3.6972Y-5.3375
X3.6972Y-5.4208
X3.6972Y-5.5042
T2
X4.0063Y-5.5556
X4.0228Y-5.6136
X4.086Y-4.9134
X4.1141Y-5.3735
X4.2169Y-4.6463
X4.2169Y-4.7724
X4.2499Y-5.4966
X4.3046Y-5.6571
X4.4799Y-5.4843
T3
X4.5Y-4.3351
X4.5Y-4.6951
X4.5Y-5.0151
X4.5Y-5.3551
X4.6Y-4.3351
X4.6Y-4.6951
X4.6Y-5.0151
X4.6Y-5.3551
X5.Y-4.3351
X5.Y-4.6951
X5.Y-5.0151
X5.Y-5.3551
X5.3Y-4.3351
X5.3Y-4.6951
X5.3Y-5.0151
X5.3Y-5.3551
T4
X4.28Y-4.94
X4.28Y-5.04
X4.28Y-5.14
X4.34Y-4.42
X4.34Y-4.52
X4.34Y-4.62
T5
X3.64Y-4.1884
X3.7Y-5.9516
X3.84Y-4.1884
X3.9Y-5.9516
X4.04Y-4.1884
X4.1Y-5.9516
X4.24Y-4.1884
X4.3Y-5.9516
X4.6Y-5.9516
X4.8Y-5.9516
X5.Y-5.9516
X5.2Y-5.9516
X5.6916Y-4.26
X5.6916Y-4.46
X5.6916Y-4.66
X5.6916Y-4.86
X5.6916Y-5.0537
T0
M30
