G04 #@! TF.FileFunction,Legend,Top*
%FSLAX46Y46*%
G04 Gerber Fmt 4.6, Leading zero omitted, Abs format (unit mm)*
G04 Created by KiCad (PCBNEW 4.0.1-stable) date 8/05/2016 3:47:28 PM*
%MOMM*%
G01*
G04 APERTURE LIST*
%ADD10C,0.150000*%
%ADD11C,0.300000*%
%ADD12C,0.250000*%
%ADD13C,0.066040*%
%ADD14C,0.152400*%
%ADD15C,0.050800*%
%ADD16C,0.127000*%
%ADD17C,0.002540*%
%ADD18C,0.040640*%
%ADD19C,0.149860*%
%ADD20C,2.900000*%
%ADD21R,2.232000X0.860400*%
%ADD22R,0.600000X0.850000*%
%ADD23R,0.600000X0.650000*%
%ADD24R,1.200760X1.099160*%
%ADD25R,1.724000X1.724000*%
%ADD26C,1.724000*%
%ADD27R,1.470000X0.835000*%
%ADD28C,1.750000*%
%ADD29C,1.900000*%
%ADD30C,2.200000*%
%ADD31C,1.350000*%
G04 APERTURE END LIST*
D10*
D11*
X109128858Y-123614571D02*
X109128858Y-122114571D01*
X109700286Y-122114571D01*
X109843144Y-122186000D01*
X109914572Y-122257429D01*
X109986001Y-122400286D01*
X109986001Y-122614571D01*
X109914572Y-122757429D01*
X109843144Y-122828857D01*
X109700286Y-122900286D01*
X109128858Y-122900286D01*
X111343144Y-122114571D02*
X110628858Y-122114571D01*
X110557429Y-122828857D01*
X110628858Y-122757429D01*
X110771715Y-122686000D01*
X111128858Y-122686000D01*
X111271715Y-122757429D01*
X111343144Y-122828857D01*
X111414572Y-122971714D01*
X111414572Y-123328857D01*
X111343144Y-123471714D01*
X111271715Y-123543143D01*
X111128858Y-123614571D01*
X110771715Y-123614571D01*
X110628858Y-123543143D01*
X110557429Y-123471714D01*
D12*
X108656381Y-117300000D02*
X107656381Y-117300000D01*
X108656381Y-116823810D02*
X107656381Y-116823810D01*
X108656381Y-116252381D01*
X107656381Y-116252381D01*
X108656381Y-115776191D02*
X107656381Y-115776191D01*
X107656381Y-115538096D01*
X107704000Y-115395238D01*
X107799238Y-115300000D01*
X107894476Y-115252381D01*
X108084952Y-115204762D01*
X108227810Y-115204762D01*
X108418286Y-115252381D01*
X108513524Y-115300000D01*
X108608762Y-115395238D01*
X108656381Y-115538096D01*
X108656381Y-115776191D01*
X108370667Y-113300000D02*
X108370667Y-112823809D01*
X108656381Y-113395238D02*
X107656381Y-113061905D01*
X108656381Y-112728571D01*
X108656381Y-111919047D02*
X108656381Y-112395238D01*
X107656381Y-112395238D01*
X107656381Y-111728571D02*
X107656381Y-111157142D01*
X108656381Y-111442857D02*
X107656381Y-111442857D01*
D11*
X95765427Y-145482571D02*
X96622570Y-145482571D01*
X96193999Y-146982571D02*
X96193999Y-145482571D01*
X97051141Y-146554000D02*
X97765427Y-146554000D01*
X96908284Y-146982571D02*
X97408284Y-145482571D01*
X97908284Y-146982571D01*
X98408284Y-146982571D02*
X98408284Y-145482571D01*
X98979712Y-145482571D01*
X99122570Y-145554000D01*
X99193998Y-145625429D01*
X99265427Y-145768286D01*
X99265427Y-145982571D01*
X99193998Y-146125429D01*
X99122570Y-146196857D01*
X98979712Y-146268286D01*
X98408284Y-146268286D01*
X100765427Y-146982571D02*
X100265427Y-146268286D01*
X99908284Y-146982571D02*
X99908284Y-145482571D01*
X100479712Y-145482571D01*
X100622570Y-145554000D01*
X100693998Y-145625429D01*
X100765427Y-145768286D01*
X100765427Y-145982571D01*
X100693998Y-146125429D01*
X100622570Y-146196857D01*
X100479712Y-146268286D01*
X99908284Y-146268286D01*
X102836855Y-145482571D02*
X103122569Y-145482571D01*
X103265427Y-145554000D01*
X103408284Y-145696857D01*
X103479712Y-145982571D01*
X103479712Y-146482571D01*
X103408284Y-146768286D01*
X103265427Y-146911143D01*
X103122569Y-146982571D01*
X102836855Y-146982571D01*
X102693998Y-146911143D01*
X102551141Y-146768286D01*
X102479712Y-146482571D01*
X102479712Y-145982571D01*
X102551141Y-145696857D01*
X102693998Y-145554000D01*
X102836855Y-145482571D01*
X104122570Y-145982571D02*
X104122570Y-147482571D01*
X104122570Y-146054000D02*
X104265427Y-145982571D01*
X104551141Y-145982571D01*
X104693998Y-146054000D01*
X104765427Y-146125429D01*
X104836856Y-146268286D01*
X104836856Y-146696857D01*
X104765427Y-146839714D01*
X104693998Y-146911143D01*
X104551141Y-146982571D01*
X104265427Y-146982571D01*
X104122570Y-146911143D01*
X106051141Y-146911143D02*
X105908284Y-146982571D01*
X105622570Y-146982571D01*
X105479713Y-146911143D01*
X105408284Y-146768286D01*
X105408284Y-146196857D01*
X105479713Y-146054000D01*
X105622570Y-145982571D01*
X105908284Y-145982571D01*
X106051141Y-146054000D01*
X106122570Y-146196857D01*
X106122570Y-146339714D01*
X105408284Y-146482571D01*
X106765427Y-145982571D02*
X106765427Y-146982571D01*
X106765427Y-146125429D02*
X106836855Y-146054000D01*
X106979713Y-145982571D01*
X107193998Y-145982571D01*
X107336855Y-146054000D01*
X107408284Y-146196857D01*
X107408284Y-146982571D01*
X109265427Y-146982571D02*
X109265427Y-145482571D01*
X109265427Y-146196857D02*
X110122570Y-146196857D01*
X110122570Y-146982571D02*
X110122570Y-145482571D01*
X111479713Y-146982571D02*
X111479713Y-146196857D01*
X111408284Y-146054000D01*
X111265427Y-145982571D01*
X110979713Y-145982571D01*
X110836856Y-146054000D01*
X111479713Y-146911143D02*
X111336856Y-146982571D01*
X110979713Y-146982571D01*
X110836856Y-146911143D01*
X110765427Y-146768286D01*
X110765427Y-146625429D01*
X110836856Y-146482571D01*
X110979713Y-146411143D01*
X111336856Y-146411143D01*
X111479713Y-146339714D01*
X112193999Y-146982571D02*
X112193999Y-145982571D01*
X112193999Y-146268286D02*
X112265427Y-146125429D01*
X112336856Y-146054000D01*
X112479713Y-145982571D01*
X112622570Y-145982571D01*
X113765427Y-146982571D02*
X113765427Y-145482571D01*
X113765427Y-146911143D02*
X113622570Y-146982571D01*
X113336856Y-146982571D01*
X113193998Y-146911143D01*
X113122570Y-146839714D01*
X113051141Y-146696857D01*
X113051141Y-146268286D01*
X113122570Y-146125429D01*
X113193998Y-146054000D01*
X113336856Y-145982571D01*
X113622570Y-145982571D01*
X113765427Y-146054000D01*
X114336856Y-145982571D02*
X114622570Y-146982571D01*
X114908284Y-146268286D01*
X115193999Y-146982571D01*
X115479713Y-145982571D01*
X116693999Y-146982571D02*
X116693999Y-146196857D01*
X116622570Y-146054000D01*
X116479713Y-145982571D01*
X116193999Y-145982571D01*
X116051142Y-146054000D01*
X116693999Y-146911143D02*
X116551142Y-146982571D01*
X116193999Y-146982571D01*
X116051142Y-146911143D01*
X115979713Y-146768286D01*
X115979713Y-146625429D01*
X116051142Y-146482571D01*
X116193999Y-146411143D01*
X116551142Y-146411143D01*
X116693999Y-146339714D01*
X117408285Y-146982571D02*
X117408285Y-145982571D01*
X117408285Y-146268286D02*
X117479713Y-146125429D01*
X117551142Y-146054000D01*
X117693999Y-145982571D01*
X117836856Y-145982571D01*
X118908284Y-146911143D02*
X118765427Y-146982571D01*
X118479713Y-146982571D01*
X118336856Y-146911143D01*
X118265427Y-146768286D01*
X118265427Y-146196857D01*
X118336856Y-146054000D01*
X118479713Y-145982571D01*
X118765427Y-145982571D01*
X118908284Y-146054000D01*
X118979713Y-146196857D01*
X118979713Y-146339714D01*
X118265427Y-146482571D01*
X121479713Y-146982571D02*
X120765427Y-146982571D01*
X120765427Y-145482571D01*
X121979713Y-146982571D02*
X121979713Y-145982571D01*
X121979713Y-145482571D02*
X121908284Y-145554000D01*
X121979713Y-145625429D01*
X122051141Y-145554000D01*
X121979713Y-145482571D01*
X121979713Y-145625429D01*
X123336856Y-146911143D02*
X123193999Y-146982571D01*
X122908285Y-146982571D01*
X122765427Y-146911143D01*
X122693999Y-146839714D01*
X122622570Y-146696857D01*
X122622570Y-146268286D01*
X122693999Y-146125429D01*
X122765427Y-146054000D01*
X122908285Y-145982571D01*
X123193999Y-145982571D01*
X123336856Y-146054000D01*
X124551141Y-146911143D02*
X124408284Y-146982571D01*
X124122570Y-146982571D01*
X123979713Y-146911143D01*
X123908284Y-146768286D01*
X123908284Y-146196857D01*
X123979713Y-146054000D01*
X124122570Y-145982571D01*
X124408284Y-145982571D01*
X124551141Y-146054000D01*
X124622570Y-146196857D01*
X124622570Y-146339714D01*
X123908284Y-146482571D01*
X125265427Y-145982571D02*
X125265427Y-146982571D01*
X125265427Y-146125429D02*
X125336855Y-146054000D01*
X125479713Y-145982571D01*
X125693998Y-145982571D01*
X125836855Y-146054000D01*
X125908284Y-146196857D01*
X125908284Y-146982571D01*
X126551141Y-146911143D02*
X126693998Y-146982571D01*
X126979713Y-146982571D01*
X127122570Y-146911143D01*
X127193998Y-146768286D01*
X127193998Y-146696857D01*
X127122570Y-146554000D01*
X126979713Y-146482571D01*
X126765427Y-146482571D01*
X126622570Y-146411143D01*
X126551141Y-146268286D01*
X126551141Y-146196857D01*
X126622570Y-146054000D01*
X126765427Y-145982571D01*
X126979713Y-145982571D01*
X127122570Y-146054000D01*
X128408284Y-146911143D02*
X128265427Y-146982571D01*
X127979713Y-146982571D01*
X127836856Y-146911143D01*
X127765427Y-146768286D01*
X127765427Y-146196857D01*
X127836856Y-146054000D01*
X127979713Y-145982571D01*
X128265427Y-145982571D01*
X128408284Y-146054000D01*
X128479713Y-146196857D01*
X128479713Y-146339714D01*
X127765427Y-146482571D01*
X131265427Y-145982571D02*
X131551141Y-146982571D01*
X131836855Y-146268286D01*
X132122570Y-146982571D01*
X132408284Y-145982571D01*
X132836856Y-145982571D02*
X133122570Y-146982571D01*
X133408284Y-146268286D01*
X133693999Y-146982571D01*
X133979713Y-145982571D01*
X134408285Y-145982571D02*
X134693999Y-146982571D01*
X134979713Y-146268286D01*
X135265428Y-146982571D01*
X135551142Y-145982571D01*
X136122571Y-146839714D02*
X136193999Y-146911143D01*
X136122571Y-146982571D01*
X136051142Y-146911143D01*
X136122571Y-146839714D01*
X136122571Y-146982571D01*
X136622571Y-145982571D02*
X137194000Y-145982571D01*
X136836857Y-145482571D02*
X136836857Y-146768286D01*
X136908285Y-146911143D01*
X137051143Y-146982571D01*
X137194000Y-146982571D01*
X138336857Y-146982571D02*
X138336857Y-146196857D01*
X138265428Y-146054000D01*
X138122571Y-145982571D01*
X137836857Y-145982571D01*
X137694000Y-146054000D01*
X138336857Y-146911143D02*
X138194000Y-146982571D01*
X137836857Y-146982571D01*
X137694000Y-146911143D01*
X137622571Y-146768286D01*
X137622571Y-146625429D01*
X137694000Y-146482571D01*
X137836857Y-146411143D01*
X138194000Y-146411143D01*
X138336857Y-146339714D01*
X139051143Y-145982571D02*
X139051143Y-147482571D01*
X139051143Y-146054000D02*
X139194000Y-145982571D01*
X139479714Y-145982571D01*
X139622571Y-146054000D01*
X139694000Y-146125429D01*
X139765429Y-146268286D01*
X139765429Y-146696857D01*
X139694000Y-146839714D01*
X139622571Y-146911143D01*
X139479714Y-146982571D01*
X139194000Y-146982571D01*
X139051143Y-146911143D01*
X140408286Y-146982571D02*
X140408286Y-145982571D01*
X140408286Y-146268286D02*
X140479714Y-146125429D01*
X140551143Y-146054000D01*
X140694000Y-145982571D01*
X140836857Y-145982571D01*
X141336857Y-146839714D02*
X141408285Y-146911143D01*
X141336857Y-146982571D01*
X141265428Y-146911143D01*
X141336857Y-146839714D01*
X141336857Y-146982571D01*
X142265429Y-146982571D02*
X142122571Y-146911143D01*
X142051143Y-146839714D01*
X141979714Y-146696857D01*
X141979714Y-146268286D01*
X142051143Y-146125429D01*
X142122571Y-146054000D01*
X142265429Y-145982571D01*
X142479714Y-145982571D01*
X142622571Y-146054000D01*
X142694000Y-146125429D01*
X142765429Y-146268286D01*
X142765429Y-146696857D01*
X142694000Y-146839714D01*
X142622571Y-146911143D01*
X142479714Y-146982571D01*
X142265429Y-146982571D01*
X143408286Y-146982571D02*
X143408286Y-145982571D01*
X143408286Y-146268286D02*
X143479714Y-146125429D01*
X143551143Y-146054000D01*
X143694000Y-145982571D01*
X143836857Y-145982571D01*
X144979714Y-145982571D02*
X144979714Y-147196857D01*
X144908285Y-147339714D01*
X144836857Y-147411143D01*
X144694000Y-147482571D01*
X144479714Y-147482571D01*
X144336857Y-147411143D01*
X144979714Y-146911143D02*
X144836857Y-146982571D01*
X144551143Y-146982571D01*
X144408285Y-146911143D01*
X144336857Y-146839714D01*
X144265428Y-146696857D01*
X144265428Y-146268286D01*
X144336857Y-146125429D01*
X144408285Y-146054000D01*
X144551143Y-145982571D01*
X144836857Y-145982571D01*
X144979714Y-146054000D01*
X146765428Y-145411143D02*
X145479714Y-147339714D01*
X147551143Y-145482571D02*
X147836857Y-145482571D01*
X147979715Y-145554000D01*
X148122572Y-145696857D01*
X148194000Y-145982571D01*
X148194000Y-146482571D01*
X148122572Y-146768286D01*
X147979715Y-146911143D01*
X147836857Y-146982571D01*
X147551143Y-146982571D01*
X147408286Y-146911143D01*
X147265429Y-146768286D01*
X147194000Y-146482571D01*
X147194000Y-145982571D01*
X147265429Y-145696857D01*
X147408286Y-145554000D01*
X147551143Y-145482571D01*
X148836858Y-146982571D02*
X148836858Y-145482571D01*
X148836858Y-146196857D02*
X149694001Y-146196857D01*
X149694001Y-146982571D02*
X149694001Y-145482571D01*
X151122573Y-146982571D02*
X150408287Y-146982571D01*
X150408287Y-145482571D01*
X140624858Y-129202571D02*
X140624858Y-127702571D01*
X141196286Y-127702571D01*
X141339144Y-127774000D01*
X141410572Y-127845429D01*
X141482001Y-127988286D01*
X141482001Y-128202571D01*
X141410572Y-128345429D01*
X141339144Y-128416857D01*
X141196286Y-128488286D01*
X140624858Y-128488286D01*
X142767715Y-128202571D02*
X142767715Y-129202571D01*
X142410572Y-127631143D02*
X142053429Y-128702571D01*
X142982001Y-128702571D01*
X140624858Y-124122571D02*
X140624858Y-122622571D01*
X141196286Y-122622571D01*
X141339144Y-122694000D01*
X141410572Y-122765429D01*
X141482001Y-122908286D01*
X141482001Y-123122571D01*
X141410572Y-123265429D01*
X141339144Y-123336857D01*
X141196286Y-123408286D01*
X140624858Y-123408286D01*
X142839144Y-122622571D02*
X142124858Y-122622571D01*
X142053429Y-123336857D01*
X142124858Y-123265429D01*
X142267715Y-123194000D01*
X142624858Y-123194000D01*
X142767715Y-123265429D01*
X142839144Y-123336857D01*
X142910572Y-123479714D01*
X142910572Y-123836857D01*
X142839144Y-123979714D01*
X142767715Y-124051143D01*
X142624858Y-124122571D01*
X142267715Y-124122571D01*
X142124858Y-124051143D01*
X142053429Y-123979714D01*
X140624858Y-119042571D02*
X140624858Y-117542571D01*
X141196286Y-117542571D01*
X141339144Y-117614000D01*
X141410572Y-117685429D01*
X141482001Y-117828286D01*
X141482001Y-118042571D01*
X141410572Y-118185429D01*
X141339144Y-118256857D01*
X141196286Y-118328286D01*
X140624858Y-118328286D01*
X142767715Y-117542571D02*
X142482001Y-117542571D01*
X142339144Y-117614000D01*
X142267715Y-117685429D01*
X142124858Y-117899714D01*
X142053429Y-118185429D01*
X142053429Y-118756857D01*
X142124858Y-118899714D01*
X142196286Y-118971143D01*
X142339144Y-119042571D01*
X142624858Y-119042571D01*
X142767715Y-118971143D01*
X142839144Y-118899714D01*
X142910572Y-118756857D01*
X142910572Y-118399714D01*
X142839144Y-118256857D01*
X142767715Y-118185429D01*
X142624858Y-118114000D01*
X142339144Y-118114000D01*
X142196286Y-118185429D01*
X142124858Y-118256857D01*
X142053429Y-118399714D01*
X140624858Y-113962571D02*
X140624858Y-112462571D01*
X141196286Y-112462571D01*
X141339144Y-112534000D01*
X141410572Y-112605429D01*
X141482001Y-112748286D01*
X141482001Y-112962571D01*
X141410572Y-113105429D01*
X141339144Y-113176857D01*
X141196286Y-113248286D01*
X140624858Y-113248286D01*
X141982001Y-112462571D02*
X142982001Y-112462571D01*
X142339144Y-113962571D01*
X141454286Y-108882571D02*
X141454286Y-107382571D01*
X142168572Y-108882571D02*
X142168572Y-107382571D01*
X143025715Y-108882571D01*
X143025715Y-107382571D01*
X109128858Y-134790571D02*
X109128858Y-133290571D01*
X109700286Y-133290571D01*
X109843144Y-133362000D01*
X109914572Y-133433429D01*
X109986001Y-133576286D01*
X109986001Y-133790571D01*
X109914572Y-133933429D01*
X109843144Y-134004857D01*
X109700286Y-134076286D01*
X109128858Y-134076286D01*
X111271715Y-133790571D02*
X111271715Y-134790571D01*
X110914572Y-133219143D02*
X110557429Y-134290571D01*
X111486001Y-134290571D01*
X109128858Y-121074571D02*
X109128858Y-119574571D01*
X109700286Y-119574571D01*
X109843144Y-119646000D01*
X109914572Y-119717429D01*
X109986001Y-119860286D01*
X109986001Y-120074571D01*
X109914572Y-120217429D01*
X109843144Y-120288857D01*
X109700286Y-120360286D01*
X109128858Y-120360286D01*
X111271715Y-119574571D02*
X110986001Y-119574571D01*
X110843144Y-119646000D01*
X110771715Y-119717429D01*
X110628858Y-119931714D01*
X110557429Y-120217429D01*
X110557429Y-120788857D01*
X110628858Y-120931714D01*
X110700286Y-121003143D01*
X110843144Y-121074571D01*
X111128858Y-121074571D01*
X111271715Y-121003143D01*
X111343144Y-120931714D01*
X111414572Y-120788857D01*
X111414572Y-120431714D01*
X111343144Y-120288857D01*
X111271715Y-120217429D01*
X111128858Y-120146000D01*
X110843144Y-120146000D01*
X110700286Y-120217429D01*
X110628858Y-120288857D01*
X110557429Y-120431714D01*
X114716858Y-105326571D02*
X114716858Y-103826571D01*
X115288286Y-103826571D01*
X115431144Y-103898000D01*
X115502572Y-103969429D01*
X115574001Y-104112286D01*
X115574001Y-104326571D01*
X115502572Y-104469429D01*
X115431144Y-104540857D01*
X115288286Y-104612286D01*
X114716858Y-104612286D01*
X116074001Y-103826571D02*
X117074001Y-103826571D01*
X116431144Y-105326571D01*
X91348858Y-109898571D02*
X91348858Y-108398571D01*
X91920286Y-108398571D01*
X92063144Y-108470000D01*
X92134572Y-108541429D01*
X92206001Y-108684286D01*
X92206001Y-108898571D01*
X92134572Y-109041429D01*
X92063144Y-109112857D01*
X91920286Y-109184286D01*
X91348858Y-109184286D01*
X93563144Y-108398571D02*
X92848858Y-108398571D01*
X92777429Y-109112857D01*
X92848858Y-109041429D01*
X92991715Y-108970000D01*
X93348858Y-108970000D01*
X93491715Y-109041429D01*
X93563144Y-109112857D01*
X93634572Y-109255714D01*
X93634572Y-109612857D01*
X93563144Y-109755714D01*
X93491715Y-109827143D01*
X93348858Y-109898571D01*
X92991715Y-109898571D01*
X92848858Y-109827143D01*
X92777429Y-109755714D01*
X101000858Y-109898571D02*
X101000858Y-108398571D01*
X101572286Y-108398571D01*
X101715144Y-108470000D01*
X101786572Y-108541429D01*
X101858001Y-108684286D01*
X101858001Y-108898571D01*
X101786572Y-109041429D01*
X101715144Y-109112857D01*
X101572286Y-109184286D01*
X101000858Y-109184286D01*
X103143715Y-108898571D02*
X103143715Y-109898571D01*
X102786572Y-108327143D02*
X102429429Y-109398571D01*
X103358001Y-109398571D01*
X120304858Y-149522571D02*
X120304858Y-148022571D01*
X120876286Y-148022571D01*
X121019144Y-148094000D01*
X121090572Y-148165429D01*
X121162001Y-148308286D01*
X121162001Y-148522571D01*
X121090572Y-148665429D01*
X121019144Y-148736857D01*
X120876286Y-148808286D01*
X120304858Y-148808286D01*
X122090572Y-148022571D02*
X122233429Y-148022571D01*
X122376286Y-148094000D01*
X122447715Y-148165429D01*
X122519144Y-148308286D01*
X122590572Y-148594000D01*
X122590572Y-148951143D01*
X122519144Y-149236857D01*
X122447715Y-149379714D01*
X122376286Y-149451143D01*
X122233429Y-149522571D01*
X122090572Y-149522571D01*
X121947715Y-149451143D01*
X121876286Y-149379714D01*
X121804858Y-149236857D01*
X121733429Y-148951143D01*
X121733429Y-148594000D01*
X121804858Y-148308286D01*
X121876286Y-148165429D01*
X121947715Y-148094000D01*
X122090572Y-148022571D01*
X130972858Y-149522571D02*
X130972858Y-148022571D01*
X131544286Y-148022571D01*
X131687144Y-148094000D01*
X131758572Y-148165429D01*
X131830001Y-148308286D01*
X131830001Y-148522571D01*
X131758572Y-148665429D01*
X131687144Y-148736857D01*
X131544286Y-148808286D01*
X130972858Y-148808286D01*
X133258572Y-149522571D02*
X132401429Y-149522571D01*
X132830001Y-149522571D02*
X132830001Y-148022571D01*
X132687144Y-148236857D01*
X132544286Y-148379714D01*
X132401429Y-148451143D01*
X97952858Y-149522571D02*
X97952858Y-148022571D01*
X98524286Y-148022571D01*
X98667144Y-148094000D01*
X98738572Y-148165429D01*
X98810001Y-148308286D01*
X98810001Y-148522571D01*
X98738572Y-148665429D01*
X98667144Y-148736857D01*
X98524286Y-148808286D01*
X97952858Y-148808286D01*
X99381429Y-148165429D02*
X99452858Y-148094000D01*
X99595715Y-148022571D01*
X99952858Y-148022571D01*
X100095715Y-148094000D01*
X100167144Y-148165429D01*
X100238572Y-148308286D01*
X100238572Y-148451143D01*
X100167144Y-148665429D01*
X99310001Y-149522571D01*
X100238572Y-149522571D01*
X108112858Y-149522571D02*
X108112858Y-148022571D01*
X108684286Y-148022571D01*
X108827144Y-148094000D01*
X108898572Y-148165429D01*
X108970001Y-148308286D01*
X108970001Y-148522571D01*
X108898572Y-148665429D01*
X108827144Y-148736857D01*
X108684286Y-148808286D01*
X108112858Y-148808286D01*
X109470001Y-148022571D02*
X110398572Y-148022571D01*
X109898572Y-148594000D01*
X110112858Y-148594000D01*
X110255715Y-148665429D01*
X110327144Y-148736857D01*
X110398572Y-148879714D01*
X110398572Y-149236857D01*
X110327144Y-149379714D01*
X110255715Y-149451143D01*
X110112858Y-149522571D01*
X109684286Y-149522571D01*
X109541429Y-149451143D01*
X109470001Y-149379714D01*
X124251143Y-104310571D02*
X124251143Y-103310571D01*
X124251143Y-102810571D02*
X124179714Y-102882000D01*
X124251143Y-102953429D01*
X124322571Y-102882000D01*
X124251143Y-102810571D01*
X124251143Y-102953429D01*
X124965429Y-103310571D02*
X124965429Y-104310571D01*
X124965429Y-103453429D02*
X125036857Y-103382000D01*
X125179715Y-103310571D01*
X125394000Y-103310571D01*
X125536857Y-103382000D01*
X125608286Y-103524857D01*
X125608286Y-104310571D01*
X126108286Y-103310571D02*
X126679715Y-103310571D01*
X126322572Y-104310571D02*
X126322572Y-103024857D01*
X126394000Y-102882000D01*
X126536858Y-102810571D01*
X126679715Y-102810571D01*
X127751143Y-104239143D02*
X127608286Y-104310571D01*
X127322572Y-104310571D01*
X127179715Y-104239143D01*
X127108286Y-104096286D01*
X127108286Y-103524857D01*
X127179715Y-103382000D01*
X127322572Y-103310571D01*
X127608286Y-103310571D01*
X127751143Y-103382000D01*
X127822572Y-103524857D01*
X127822572Y-103667714D01*
X127108286Y-103810571D01*
X128465429Y-104310571D02*
X128465429Y-103310571D01*
X128465429Y-103596286D02*
X128536857Y-103453429D01*
X128608286Y-103382000D01*
X128751143Y-103310571D01*
X128894000Y-103310571D01*
X129394000Y-103310571D02*
X129394000Y-104310571D01*
X129394000Y-103453429D02*
X129465428Y-103382000D01*
X129608286Y-103310571D01*
X129822571Y-103310571D01*
X129965428Y-103382000D01*
X130036857Y-103524857D01*
X130036857Y-104310571D01*
X130965429Y-104310571D02*
X130822571Y-104239143D01*
X130751143Y-104167714D01*
X130679714Y-104024857D01*
X130679714Y-103596286D01*
X130751143Y-103453429D01*
X130822571Y-103382000D01*
X130965429Y-103310571D01*
X131179714Y-103310571D01*
X131322571Y-103382000D01*
X131394000Y-103453429D01*
X131465429Y-103596286D01*
X131465429Y-104024857D01*
X131394000Y-104167714D01*
X131322571Y-104239143D01*
X131179714Y-104310571D01*
X130965429Y-104310571D01*
X132679714Y-104239143D02*
X132536857Y-104310571D01*
X132251143Y-104310571D01*
X132108286Y-104239143D01*
X132036857Y-104096286D01*
X132036857Y-103524857D01*
X132108286Y-103382000D01*
X132251143Y-103310571D01*
X132536857Y-103310571D01*
X132679714Y-103382000D01*
X132751143Y-103524857D01*
X132751143Y-103667714D01*
X132036857Y-103810571D01*
X133394000Y-104310571D02*
X133394000Y-103310571D01*
X133394000Y-103453429D02*
X133465428Y-103382000D01*
X133608286Y-103310571D01*
X133822571Y-103310571D01*
X133965428Y-103382000D01*
X134036857Y-103524857D01*
X134036857Y-104310571D01*
X134036857Y-103524857D02*
X134108286Y-103382000D01*
X134251143Y-103310571D01*
X134465428Y-103310571D01*
X134608286Y-103382000D01*
X134679714Y-103524857D01*
X134679714Y-104310571D01*
X135394000Y-104310571D02*
X135394000Y-102810571D01*
X135394000Y-103382000D02*
X135536857Y-103310571D01*
X135822571Y-103310571D01*
X135965428Y-103382000D01*
X136036857Y-103453429D01*
X136108286Y-103596286D01*
X136108286Y-104024857D01*
X136036857Y-104167714D01*
X135965428Y-104239143D01*
X135822571Y-104310571D01*
X135536857Y-104310571D01*
X135394000Y-104239143D01*
X137322571Y-104239143D02*
X137179714Y-104310571D01*
X136894000Y-104310571D01*
X136751143Y-104239143D01*
X136679714Y-104096286D01*
X136679714Y-103524857D01*
X136751143Y-103382000D01*
X136894000Y-103310571D01*
X137179714Y-103310571D01*
X137322571Y-103382000D01*
X137394000Y-103524857D01*
X137394000Y-103667714D01*
X136679714Y-103810571D01*
X138679714Y-104310571D02*
X138679714Y-102810571D01*
X138679714Y-104239143D02*
X138536857Y-104310571D01*
X138251143Y-104310571D01*
X138108285Y-104239143D01*
X138036857Y-104167714D01*
X137965428Y-104024857D01*
X137965428Y-103596286D01*
X138036857Y-103453429D01*
X138108285Y-103382000D01*
X138251143Y-103310571D01*
X138536857Y-103310571D01*
X138679714Y-103382000D01*
X140036857Y-104310571D02*
X140036857Y-102810571D01*
X140036857Y-104239143D02*
X139894000Y-104310571D01*
X139608286Y-104310571D01*
X139465428Y-104239143D01*
X139394000Y-104167714D01*
X139322571Y-104024857D01*
X139322571Y-103596286D01*
X139394000Y-103453429D01*
X139465428Y-103382000D01*
X139608286Y-103310571D01*
X139894000Y-103310571D01*
X140036857Y-103382000D01*
X141322571Y-104239143D02*
X141179714Y-104310571D01*
X140894000Y-104310571D01*
X140751143Y-104239143D01*
X140679714Y-104096286D01*
X140679714Y-103524857D01*
X140751143Y-103382000D01*
X140894000Y-103310571D01*
X141179714Y-103310571D01*
X141322571Y-103382000D01*
X141394000Y-103524857D01*
X141394000Y-103667714D01*
X140679714Y-103810571D01*
X142679714Y-104310571D02*
X142679714Y-102810571D01*
X142679714Y-104239143D02*
X142536857Y-104310571D01*
X142251143Y-104310571D01*
X142108285Y-104239143D01*
X142036857Y-104167714D01*
X141965428Y-104024857D01*
X141965428Y-103596286D01*
X142036857Y-103453429D01*
X142108285Y-103382000D01*
X142251143Y-103310571D01*
X142536857Y-103310571D01*
X142679714Y-103382000D01*
X143394000Y-104167714D02*
X143465428Y-104239143D01*
X143394000Y-104310571D01*
X143322571Y-104239143D01*
X143394000Y-104167714D01*
X143394000Y-104310571D01*
X144751143Y-104239143D02*
X144608286Y-104310571D01*
X144322572Y-104310571D01*
X144179714Y-104239143D01*
X144108286Y-104167714D01*
X144036857Y-104024857D01*
X144036857Y-103596286D01*
X144108286Y-103453429D01*
X144179714Y-103382000D01*
X144322572Y-103310571D01*
X144608286Y-103310571D01*
X144751143Y-103382000D01*
X145608286Y-104310571D02*
X145465428Y-104239143D01*
X145394000Y-104167714D01*
X145322571Y-104024857D01*
X145322571Y-103596286D01*
X145394000Y-103453429D01*
X145465428Y-103382000D01*
X145608286Y-103310571D01*
X145822571Y-103310571D01*
X145965428Y-103382000D01*
X146036857Y-103453429D01*
X146108286Y-103596286D01*
X146108286Y-104024857D01*
X146036857Y-104167714D01*
X145965428Y-104239143D01*
X145822571Y-104310571D01*
X145608286Y-104310571D01*
X146751143Y-104310571D02*
X146751143Y-103310571D01*
X146751143Y-103453429D02*
X146822571Y-103382000D01*
X146965429Y-103310571D01*
X147179714Y-103310571D01*
X147322571Y-103382000D01*
X147394000Y-103524857D01*
X147394000Y-104310571D01*
X147394000Y-103524857D02*
X147465429Y-103382000D01*
X147608286Y-103310571D01*
X147822571Y-103310571D01*
X147965429Y-103382000D01*
X148036857Y-103524857D01*
X148036857Y-104310571D01*
X138219714Y-135241427D02*
X138148286Y-135384285D01*
X138148286Y-135669999D01*
X138219714Y-135812856D01*
X138362571Y-135955713D01*
X138505429Y-136027142D01*
X138791143Y-136027142D01*
X138934000Y-135955713D01*
X139076857Y-135812856D01*
X139148286Y-135669999D01*
X139148286Y-135384285D01*
X139076857Y-135241427D01*
X137648286Y-135527142D02*
X137719714Y-135884285D01*
X137934000Y-136241427D01*
X138291143Y-136455713D01*
X138648286Y-136527142D01*
X139005429Y-136455713D01*
X139362571Y-136241427D01*
X139576857Y-135884285D01*
X139648286Y-135527142D01*
X139576857Y-135169999D01*
X139362571Y-134812856D01*
X139005429Y-134598570D01*
X138648286Y-134527142D01*
X138291143Y-134598570D01*
X137934000Y-134812856D01*
X137719714Y-135169999D01*
X137648286Y-135527142D01*
X138005429Y-133955713D02*
X137934000Y-133884284D01*
X137862571Y-133741427D01*
X137862571Y-133384284D01*
X137934000Y-133241427D01*
X138005429Y-133169998D01*
X138148286Y-133098570D01*
X138291143Y-133098570D01*
X138505429Y-133169998D01*
X139362571Y-134027141D01*
X139362571Y-133098570D01*
X137862571Y-132169999D02*
X137862571Y-132027142D01*
X137934000Y-131884285D01*
X138005429Y-131812856D01*
X138148286Y-131741427D01*
X138434000Y-131669999D01*
X138791143Y-131669999D01*
X139076857Y-131741427D01*
X139219714Y-131812856D01*
X139291143Y-131884285D01*
X139362571Y-132027142D01*
X139362571Y-132169999D01*
X139291143Y-132312856D01*
X139219714Y-132384285D01*
X139076857Y-132455713D01*
X138791143Y-132527142D01*
X138434000Y-132527142D01*
X138148286Y-132455713D01*
X138005429Y-132384285D01*
X137934000Y-132312856D01*
X137862571Y-132169999D01*
X139362571Y-130241428D02*
X139362571Y-131098571D01*
X139362571Y-130669999D02*
X137862571Y-130669999D01*
X138076857Y-130812856D01*
X138219714Y-130955714D01*
X138291143Y-131098571D01*
X137862571Y-128955714D02*
X137862571Y-129241428D01*
X137934000Y-129384285D01*
X138005429Y-129455714D01*
X138219714Y-129598571D01*
X138505429Y-129670000D01*
X139076857Y-129670000D01*
X139219714Y-129598571D01*
X139291143Y-129527143D01*
X139362571Y-129384285D01*
X139362571Y-129098571D01*
X139291143Y-128955714D01*
X139219714Y-128884285D01*
X139076857Y-128812857D01*
X138719714Y-128812857D01*
X138576857Y-128884285D01*
X138505429Y-128955714D01*
X138434000Y-129098571D01*
X138434000Y-129384285D01*
X138505429Y-129527143D01*
X138576857Y-129598571D01*
X138719714Y-129670000D01*
X139362571Y-127027143D02*
X137862571Y-127027143D01*
X138362571Y-126312857D02*
X139362571Y-126312857D01*
X138505429Y-126312857D02*
X138434000Y-126241429D01*
X138362571Y-126098571D01*
X138362571Y-125884286D01*
X138434000Y-125741429D01*
X138576857Y-125670000D01*
X139362571Y-125670000D01*
X138362571Y-125170000D02*
X138362571Y-124598571D01*
X139362571Y-124955714D02*
X138076857Y-124955714D01*
X137934000Y-124884286D01*
X137862571Y-124741428D01*
X137862571Y-124598571D01*
X139291143Y-123527143D02*
X139362571Y-123670000D01*
X139362571Y-123955714D01*
X139291143Y-124098571D01*
X139148286Y-124170000D01*
X138576857Y-124170000D01*
X138434000Y-124098571D01*
X138362571Y-123955714D01*
X138362571Y-123670000D01*
X138434000Y-123527143D01*
X138576857Y-123455714D01*
X138719714Y-123455714D01*
X138862571Y-124170000D01*
X139362571Y-122812857D02*
X138362571Y-122812857D01*
X138648286Y-122812857D02*
X138505429Y-122741429D01*
X138434000Y-122670000D01*
X138362571Y-122527143D01*
X138362571Y-122384286D01*
X138362571Y-121884286D02*
X139362571Y-121884286D01*
X138505429Y-121884286D02*
X138434000Y-121812858D01*
X138362571Y-121670000D01*
X138362571Y-121455715D01*
X138434000Y-121312858D01*
X138576857Y-121241429D01*
X139362571Y-121241429D01*
X139362571Y-120312857D02*
X139291143Y-120455715D01*
X139219714Y-120527143D01*
X139076857Y-120598572D01*
X138648286Y-120598572D01*
X138505429Y-120527143D01*
X138434000Y-120455715D01*
X138362571Y-120312857D01*
X138362571Y-120098572D01*
X138434000Y-119955715D01*
X138505429Y-119884286D01*
X138648286Y-119812857D01*
X139076857Y-119812857D01*
X139219714Y-119884286D01*
X139291143Y-119955715D01*
X139362571Y-120098572D01*
X139362571Y-120312857D01*
X138576857Y-118027143D02*
X138576857Y-117527143D01*
X139362571Y-117312857D02*
X139362571Y-118027143D01*
X137862571Y-118027143D01*
X137862571Y-117312857D01*
X139362571Y-116670000D02*
X138362571Y-116670000D01*
X138505429Y-116670000D02*
X138434000Y-116598572D01*
X138362571Y-116455714D01*
X138362571Y-116241429D01*
X138434000Y-116098572D01*
X138576857Y-116027143D01*
X139362571Y-116027143D01*
X138576857Y-116027143D02*
X138434000Y-115955714D01*
X138362571Y-115812857D01*
X138362571Y-115598572D01*
X138434000Y-115455714D01*
X138576857Y-115384286D01*
X139362571Y-115384286D01*
X139362571Y-114670000D02*
X137862571Y-114670000D01*
X138434000Y-114670000D02*
X138362571Y-114527143D01*
X138362571Y-114241429D01*
X138434000Y-114098572D01*
X138505429Y-114027143D01*
X138648286Y-113955714D01*
X139076857Y-113955714D01*
X139219714Y-114027143D01*
X139291143Y-114098572D01*
X139362571Y-114241429D01*
X139362571Y-114527143D01*
X139291143Y-114670000D01*
X139291143Y-112741429D02*
X139362571Y-112884286D01*
X139362571Y-113170000D01*
X139291143Y-113312857D01*
X139148286Y-113384286D01*
X138576857Y-113384286D01*
X138434000Y-113312857D01*
X138362571Y-113170000D01*
X138362571Y-112884286D01*
X138434000Y-112741429D01*
X138576857Y-112670000D01*
X138719714Y-112670000D01*
X138862571Y-113384286D01*
X139362571Y-111384286D02*
X137862571Y-111384286D01*
X139291143Y-111384286D02*
X139362571Y-111527143D01*
X139362571Y-111812857D01*
X139291143Y-111955715D01*
X139219714Y-112027143D01*
X139076857Y-112098572D01*
X138648286Y-112098572D01*
X138505429Y-112027143D01*
X138434000Y-111955715D01*
X138362571Y-111812857D01*
X138362571Y-111527143D01*
X138434000Y-111384286D01*
X139362571Y-110027143D02*
X137862571Y-110027143D01*
X139291143Y-110027143D02*
X139362571Y-110170000D01*
X139362571Y-110455714D01*
X139291143Y-110598572D01*
X139219714Y-110670000D01*
X139076857Y-110741429D01*
X138648286Y-110741429D01*
X138505429Y-110670000D01*
X138434000Y-110598572D01*
X138362571Y-110455714D01*
X138362571Y-110170000D01*
X138434000Y-110027143D01*
X139291143Y-108741429D02*
X139362571Y-108884286D01*
X139362571Y-109170000D01*
X139291143Y-109312857D01*
X139148286Y-109384286D01*
X138576857Y-109384286D01*
X138434000Y-109312857D01*
X138362571Y-109170000D01*
X138362571Y-108884286D01*
X138434000Y-108741429D01*
X138576857Y-108670000D01*
X138719714Y-108670000D01*
X138862571Y-109384286D01*
X139362571Y-107384286D02*
X137862571Y-107384286D01*
X139291143Y-107384286D02*
X139362571Y-107527143D01*
X139362571Y-107812857D01*
X139291143Y-107955715D01*
X139219714Y-108027143D01*
X139076857Y-108098572D01*
X138648286Y-108098572D01*
X138505429Y-108027143D01*
X138434000Y-107955715D01*
X138362571Y-107812857D01*
X138362571Y-107527143D01*
X138434000Y-107384286D01*
X116536287Y-101770571D02*
X115679144Y-101770571D01*
X116107716Y-101770571D02*
X116107716Y-100270571D01*
X115964859Y-100484857D01*
X115822001Y-100627714D01*
X115679144Y-100699143D01*
X118179144Y-100270571D02*
X118536287Y-101770571D01*
X118822001Y-100699143D01*
X119107715Y-101770571D01*
X119464858Y-100270571D01*
X120036287Y-101770571D02*
X120036287Y-100770571D01*
X120036287Y-100270571D02*
X119964858Y-100342000D01*
X120036287Y-100413429D01*
X120107715Y-100342000D01*
X120036287Y-100270571D01*
X120036287Y-100413429D01*
X120750573Y-101770571D02*
X120750573Y-100770571D01*
X120750573Y-101056286D02*
X120822001Y-100913429D01*
X120893430Y-100842000D01*
X121036287Y-100770571D01*
X121179144Y-100770571D01*
X122250572Y-101699143D02*
X122107715Y-101770571D01*
X121822001Y-101770571D01*
X121679144Y-101699143D01*
X121607715Y-101556286D01*
X121607715Y-100984857D01*
X121679144Y-100842000D01*
X121822001Y-100770571D01*
X122107715Y-100770571D01*
X122250572Y-100842000D01*
X122322001Y-100984857D01*
X122322001Y-101127714D01*
X121607715Y-101270571D01*
X124750572Y-100770571D02*
X124750572Y-101770571D01*
X124393429Y-100199143D02*
X124036286Y-101270571D01*
X124964858Y-101270571D01*
X127536286Y-101627714D02*
X127464857Y-101699143D01*
X127250571Y-101770571D01*
X127107714Y-101770571D01*
X126893429Y-101699143D01*
X126750571Y-101556286D01*
X126679143Y-101413429D01*
X126607714Y-101127714D01*
X126607714Y-100913429D01*
X126679143Y-100627714D01*
X126750571Y-100484857D01*
X126893429Y-100342000D01*
X127107714Y-100270571D01*
X127250571Y-100270571D01*
X127464857Y-100342000D01*
X127536286Y-100413429D01*
X128179143Y-101770571D02*
X128179143Y-100270571D01*
X128822000Y-101770571D02*
X128822000Y-100984857D01*
X128750571Y-100842000D01*
X128607714Y-100770571D01*
X128393429Y-100770571D01*
X128250571Y-100842000D01*
X128179143Y-100913429D01*
X130179143Y-101770571D02*
X130179143Y-100984857D01*
X130107714Y-100842000D01*
X129964857Y-100770571D01*
X129679143Y-100770571D01*
X129536286Y-100842000D01*
X130179143Y-101699143D02*
X130036286Y-101770571D01*
X129679143Y-101770571D01*
X129536286Y-101699143D01*
X129464857Y-101556286D01*
X129464857Y-101413429D01*
X129536286Y-101270571D01*
X129679143Y-101199143D01*
X130036286Y-101199143D01*
X130179143Y-101127714D01*
X130893429Y-100770571D02*
X130893429Y-101770571D01*
X130893429Y-100913429D02*
X130964857Y-100842000D01*
X131107715Y-100770571D01*
X131322000Y-100770571D01*
X131464857Y-100842000D01*
X131536286Y-100984857D01*
X131536286Y-101770571D01*
X132250572Y-100770571D02*
X132250572Y-101770571D01*
X132250572Y-100913429D02*
X132322000Y-100842000D01*
X132464858Y-100770571D01*
X132679143Y-100770571D01*
X132822000Y-100842000D01*
X132893429Y-100984857D01*
X132893429Y-101770571D01*
X134179143Y-101699143D02*
X134036286Y-101770571D01*
X133750572Y-101770571D01*
X133607715Y-101699143D01*
X133536286Y-101556286D01*
X133536286Y-100984857D01*
X133607715Y-100842000D01*
X133750572Y-100770571D01*
X134036286Y-100770571D01*
X134179143Y-100842000D01*
X134250572Y-100984857D01*
X134250572Y-101127714D01*
X133536286Y-101270571D01*
X135107715Y-101770571D02*
X134964857Y-101699143D01*
X134893429Y-101556286D01*
X134893429Y-100270571D01*
X136750571Y-101699143D02*
X136964857Y-101770571D01*
X137322000Y-101770571D01*
X137464857Y-101699143D01*
X137536286Y-101627714D01*
X137607714Y-101484857D01*
X137607714Y-101342000D01*
X137536286Y-101199143D01*
X137464857Y-101127714D01*
X137322000Y-101056286D01*
X137036286Y-100984857D01*
X136893428Y-100913429D01*
X136822000Y-100842000D01*
X136750571Y-100699143D01*
X136750571Y-100556286D01*
X136822000Y-100413429D01*
X136893428Y-100342000D01*
X137036286Y-100270571D01*
X137393428Y-100270571D01*
X137607714Y-100342000D01*
X138107714Y-100770571D02*
X138393428Y-101770571D01*
X138679142Y-101056286D01*
X138964857Y-101770571D01*
X139250571Y-100770571D01*
X139822000Y-101770571D02*
X139822000Y-100770571D01*
X139822000Y-100270571D02*
X139750571Y-100342000D01*
X139822000Y-100413429D01*
X139893428Y-100342000D01*
X139822000Y-100270571D01*
X139822000Y-100413429D01*
X140322000Y-100770571D02*
X140893429Y-100770571D01*
X140536286Y-100270571D02*
X140536286Y-101556286D01*
X140607714Y-101699143D01*
X140750572Y-101770571D01*
X140893429Y-101770571D01*
X142036286Y-101699143D02*
X141893429Y-101770571D01*
X141607715Y-101770571D01*
X141464857Y-101699143D01*
X141393429Y-101627714D01*
X141322000Y-101484857D01*
X141322000Y-101056286D01*
X141393429Y-100913429D01*
X141464857Y-100842000D01*
X141607715Y-100770571D01*
X141893429Y-100770571D01*
X142036286Y-100842000D01*
X142679143Y-101770571D02*
X142679143Y-100270571D01*
X143322000Y-101770571D02*
X143322000Y-100984857D01*
X143250571Y-100842000D01*
X143107714Y-100770571D01*
X142893429Y-100770571D01*
X142750571Y-100842000D01*
X142679143Y-100913429D01*
X146036286Y-101770571D02*
X145536286Y-101056286D01*
X145179143Y-101770571D02*
X145179143Y-100270571D01*
X145750571Y-100270571D01*
X145893429Y-100342000D01*
X145964857Y-100413429D01*
X146036286Y-100556286D01*
X146036286Y-100770571D01*
X145964857Y-100913429D01*
X145893429Y-100984857D01*
X145750571Y-101056286D01*
X145179143Y-101056286D01*
X147322000Y-100770571D02*
X147322000Y-101770571D01*
X146964857Y-100199143D02*
X146607714Y-101270571D01*
X147536286Y-101270571D01*
D12*
X107132381Y-131016000D02*
X106132381Y-131016000D01*
X107132381Y-130539810D02*
X106132381Y-130539810D01*
X107132381Y-129968381D01*
X106132381Y-129968381D01*
X107132381Y-129492191D02*
X106132381Y-129492191D01*
X106132381Y-129254096D01*
X106180000Y-129111238D01*
X106275238Y-129016000D01*
X106370476Y-128968381D01*
X106560952Y-128920762D01*
X106703810Y-128920762D01*
X106894286Y-128968381D01*
X106989524Y-129016000D01*
X107084762Y-129111238D01*
X107132381Y-129254096D01*
X107132381Y-129492191D01*
X106846667Y-127016000D02*
X106846667Y-126539809D01*
X107132381Y-127111238D02*
X106132381Y-126777905D01*
X107132381Y-126444571D01*
X107132381Y-125635047D02*
X107132381Y-126111238D01*
X106132381Y-126111238D01*
X106132381Y-125444571D02*
X106132381Y-124873142D01*
X107132381Y-125158857D02*
X106132381Y-125158857D01*
D10*
X148416000Y-105664000D02*
X155916000Y-105664000D01*
X155916000Y-105664000D02*
X155916000Y-131064000D01*
X155916000Y-131064000D02*
X148416000Y-131064000D01*
X140716000Y-105664000D02*
X140716000Y-131064000D01*
X140716000Y-131064000D02*
X148416000Y-131064000D01*
X148416000Y-131064000D02*
X148416000Y-105664000D01*
X148416000Y-105664000D02*
X140716000Y-105664000D01*
X111760000Y-155020000D02*
X111760000Y-162520000D01*
X111760000Y-162520000D02*
X91440000Y-162520000D01*
X91440000Y-162520000D02*
X91440000Y-155020000D01*
X111760000Y-147320000D02*
X91440000Y-147320000D01*
X91440000Y-147320000D02*
X91440000Y-155020000D01*
X91440000Y-155020000D02*
X111760000Y-155020000D01*
X111760000Y-155020000D02*
X111760000Y-147320000D01*
X134620000Y-155020000D02*
X134620000Y-162520000D01*
X134620000Y-162520000D02*
X114300000Y-162520000D01*
X114300000Y-162520000D02*
X114300000Y-155020000D01*
X134620000Y-147320000D02*
X114300000Y-147320000D01*
X114300000Y-147320000D02*
X114300000Y-155020000D01*
X114300000Y-155020000D02*
X134620000Y-155020000D01*
X134620000Y-155020000D02*
X134620000Y-147320000D01*
D13*
X105079800Y-139319000D02*
X105079800Y-139827000D01*
X105079800Y-139827000D02*
X106222800Y-139827000D01*
X106222800Y-139319000D02*
X106222800Y-139827000D01*
X105079800Y-139319000D02*
X106222800Y-139319000D01*
X100025200Y-135509000D02*
X100025200Y-136017000D01*
X100025200Y-136017000D02*
X101168200Y-136017000D01*
X101168200Y-135509000D02*
X101168200Y-136017000D01*
X100025200Y-135509000D02*
X101168200Y-135509000D01*
X100025200Y-136779000D02*
X100025200Y-137287000D01*
X100025200Y-137287000D02*
X101168200Y-137287000D01*
X101168200Y-136779000D02*
X101168200Y-137287000D01*
X100025200Y-136779000D02*
X101168200Y-136779000D01*
X100050600Y-138049000D02*
X100050600Y-138557000D01*
X100050600Y-138557000D02*
X101193600Y-138557000D01*
X101193600Y-138049000D02*
X101193600Y-138557000D01*
X100050600Y-138049000D02*
X101193600Y-138049000D01*
X100025200Y-139319000D02*
X100025200Y-139827000D01*
X100025200Y-139827000D02*
X101168200Y-139827000D01*
X101168200Y-139319000D02*
X101168200Y-139827000D01*
X100025200Y-139319000D02*
X101168200Y-139319000D01*
X105079800Y-138049000D02*
X105079800Y-138557000D01*
X105079800Y-138557000D02*
X106222800Y-138557000D01*
X106222800Y-138049000D02*
X106222800Y-138557000D01*
X105079800Y-138049000D02*
X106222800Y-138049000D01*
X105079800Y-136779000D02*
X105079800Y-137287000D01*
X105079800Y-137287000D02*
X106222800Y-137287000D01*
X106222800Y-136779000D02*
X106222800Y-137287000D01*
X105079800Y-136779000D02*
X106222800Y-136779000D01*
X105079800Y-135509000D02*
X105079800Y-136017000D01*
X105079800Y-136017000D02*
X106222800Y-136017000D01*
X106222800Y-135509000D02*
X106222800Y-136017000D01*
X105079800Y-135509000D02*
X106222800Y-135509000D01*
X100025200Y-140589000D02*
X100025200Y-141097000D01*
X100025200Y-141097000D02*
X101168200Y-141097000D01*
X101168200Y-140589000D02*
X101168200Y-141097000D01*
X100025200Y-140589000D02*
X101168200Y-140589000D01*
X100025200Y-141859000D02*
X100025200Y-142367000D01*
X100025200Y-142367000D02*
X101168200Y-142367000D01*
X101168200Y-141859000D02*
X101168200Y-142367000D01*
X100025200Y-141859000D02*
X101168200Y-141859000D01*
X100025200Y-143129000D02*
X100025200Y-143637000D01*
X100025200Y-143637000D02*
X101168200Y-143637000D01*
X101168200Y-143129000D02*
X101168200Y-143637000D01*
X100025200Y-143129000D02*
X101168200Y-143129000D01*
X100025200Y-144399000D02*
X100025200Y-144907000D01*
X100025200Y-144907000D02*
X101168200Y-144907000D01*
X101168200Y-144399000D02*
X101168200Y-144907000D01*
X100025200Y-144399000D02*
X101168200Y-144399000D01*
X105079800Y-140589000D02*
X105079800Y-141097000D01*
X105079800Y-141097000D02*
X106222800Y-141097000D01*
X106222800Y-140589000D02*
X106222800Y-141097000D01*
X105079800Y-140589000D02*
X106222800Y-140589000D01*
X105079800Y-141859000D02*
X105079800Y-142367000D01*
X105079800Y-142367000D02*
X106222800Y-142367000D01*
X106222800Y-141859000D02*
X106222800Y-142367000D01*
X105079800Y-141859000D02*
X106222800Y-141859000D01*
X105079800Y-143129000D02*
X105079800Y-143637000D01*
X105079800Y-143637000D02*
X106222800Y-143637000D01*
X106222800Y-143129000D02*
X106222800Y-143637000D01*
X105079800Y-143129000D02*
X106222800Y-143129000D01*
X105079800Y-144399000D02*
X105079800Y-144907000D01*
X105079800Y-144907000D02*
X106222800Y-144907000D01*
X106222800Y-144399000D02*
X106222800Y-144907000D01*
X105079800Y-144399000D02*
X106222800Y-144399000D01*
D14*
X105079800Y-144907000D02*
X105079800Y-135509000D01*
X101168200Y-135509000D02*
X101168200Y-144907000D01*
X101549200Y-145288000D02*
X104698800Y-145288000D01*
X104698800Y-135128000D02*
X103632000Y-135128000D01*
X103632000Y-135128000D02*
X102616000Y-135128000D01*
X102616000Y-135128000D02*
X101549200Y-135128000D01*
D15*
X101523800Y-135128000D02*
X101523800Y-145288000D01*
D14*
X101168200Y-144907000D02*
G75*
G03X101549200Y-145288000I381000J0D01*
G01*
X105079800Y-135509000D02*
G75*
G03X104698800Y-135128000I-381000J0D01*
G01*
X104698800Y-145288000D02*
G75*
G03X105079800Y-144907000I0J381000D01*
G01*
X101549200Y-135128000D02*
G75*
G03X101168200Y-135509000I0J-381000D01*
G01*
X102616000Y-135128000D02*
G75*
G03X103632000Y-135128000I508000J0D01*
G01*
D10*
X114316000Y-138000000D02*
X116316000Y-138000000D01*
X116316000Y-138000000D02*
X116316000Y-141400000D01*
X116316000Y-141400000D02*
X114316000Y-141400000D01*
X114316000Y-141400000D02*
X114316000Y-138000000D01*
X111776000Y-141556000D02*
X113776000Y-141556000D01*
X113776000Y-141556000D02*
X113776000Y-144956000D01*
X113776000Y-144956000D02*
X111776000Y-144956000D01*
X111776000Y-144956000D02*
X111776000Y-141556000D01*
D16*
X97129600Y-124002800D02*
X97942400Y-124002800D01*
X97917000Y-122885200D02*
X97129600Y-122885200D01*
X97942400Y-122631200D02*
X97942400Y-124256800D01*
X97942400Y-124256800D02*
X97129600Y-124256800D01*
X97129600Y-124256800D02*
X97129600Y-122631200D01*
X97129600Y-122631200D02*
X97942400Y-122631200D01*
D14*
X108966000Y-110998000D02*
X111506000Y-110998000D01*
X111506000Y-110998000D02*
X111506000Y-118618000D01*
X111506000Y-118618000D02*
X108966000Y-118618000D01*
X108966000Y-118618000D02*
X108966000Y-110998000D01*
X111506000Y-113538000D02*
X108966000Y-113538000D01*
X107442000Y-124206000D02*
X109982000Y-124206000D01*
X109982000Y-124206000D02*
X109982000Y-131826000D01*
X109982000Y-131826000D02*
X107442000Y-131826000D01*
X107442000Y-131826000D02*
X107442000Y-124206000D01*
X109982000Y-126746000D02*
X107442000Y-126746000D01*
D10*
X89916000Y-102536000D02*
X89916000Y-95036000D01*
X89916000Y-95036000D02*
X110236000Y-95036000D01*
X110236000Y-95036000D02*
X110236000Y-102536000D01*
X89916000Y-110236000D02*
X110236000Y-110236000D01*
X110236000Y-110236000D02*
X110236000Y-102536000D01*
X110236000Y-102536000D02*
X89916000Y-102536000D01*
X89916000Y-102536000D02*
X89916000Y-110236000D01*
D16*
X100126800Y-124206000D02*
X104089200Y-124206000D01*
X104089200Y-124206000D02*
X104089200Y-115570000D01*
X104089200Y-115570000D02*
X100126800Y-115570000D01*
X100126800Y-115570000D02*
X100126800Y-124206000D01*
X100126800Y-122428000D02*
X99034600Y-122428000D01*
X100126800Y-121158000D02*
X99034600Y-121158000D01*
X100126800Y-119888000D02*
X99034600Y-119888000D01*
X100126800Y-123698000D02*
X99034600Y-123698000D01*
X99034600Y-118618000D02*
X100126800Y-118618000D01*
X99034600Y-117348000D02*
X100126800Y-117348000D01*
X99034600Y-116078000D02*
X100126800Y-116078000D01*
X104089200Y-116078000D02*
X105181400Y-116078000D01*
X104089200Y-117348000D02*
X105181400Y-117348000D01*
X104089200Y-123698000D02*
X105181400Y-123698000D01*
X105181400Y-122428000D02*
X104089200Y-122428000D01*
X105181400Y-118618000D02*
X104089200Y-118618000D01*
X105181400Y-119888000D02*
X104089200Y-119888000D01*
X105181400Y-121158000D02*
X104089200Y-121158000D01*
X103825067Y-123469400D02*
G75*
G03X103825067Y-123469400I-472467J0D01*
G01*
D17*
G36*
X143372840Y-157007560D02*
X143413480Y-156987240D01*
X143507460Y-156928820D01*
X143642080Y-156839920D01*
X143799560Y-156735780D01*
X143957040Y-156626560D01*
X144086580Y-156540200D01*
X144178020Y-156481780D01*
X144216120Y-156461460D01*
X144236440Y-156466540D01*
X144312640Y-156504640D01*
X144421860Y-156560520D01*
X144485360Y-156593540D01*
X144584420Y-156636720D01*
X144635220Y-156646880D01*
X144642840Y-156631640D01*
X144680940Y-156555440D01*
X144736820Y-156423360D01*
X144813020Y-156250640D01*
X144899380Y-156047440D01*
X144993360Y-155829000D01*
X145084800Y-155605480D01*
X145173700Y-155392120D01*
X145252440Y-155201620D01*
X145315940Y-155046680D01*
X145356580Y-154937460D01*
X145371820Y-154891740D01*
X145366740Y-154881580D01*
X145315940Y-154833320D01*
X145229580Y-154767280D01*
X145039080Y-154612340D01*
X144853660Y-154378660D01*
X144739360Y-154114500D01*
X144701260Y-153819860D01*
X144734280Y-153548080D01*
X144840960Y-153286460D01*
X145023840Y-153050240D01*
X145244820Y-152874980D01*
X145503900Y-152763220D01*
X145796000Y-152727660D01*
X146075400Y-152758140D01*
X146342100Y-152864820D01*
X146578320Y-153045160D01*
X146677380Y-153159460D01*
X146814540Y-153398220D01*
X146893280Y-153654760D01*
X146900900Y-153718260D01*
X146890740Y-154000200D01*
X146806920Y-154269440D01*
X146659600Y-154510740D01*
X146453860Y-154706320D01*
X146425920Y-154726640D01*
X146331940Y-154797760D01*
X146268440Y-154846020D01*
X146217640Y-154886660D01*
X146575780Y-155747720D01*
X146631660Y-155884880D01*
X146730720Y-156121100D01*
X146817080Y-156324300D01*
X146885660Y-156484320D01*
X146933920Y-156593540D01*
X146954240Y-156636720D01*
X146956780Y-156639260D01*
X146987260Y-156644340D01*
X147053300Y-156618940D01*
X147172680Y-156560520D01*
X147253960Y-156519880D01*
X147345400Y-156476700D01*
X147386040Y-156461460D01*
X147421600Y-156479240D01*
X147507960Y-156537660D01*
X147637500Y-156621480D01*
X147789900Y-156725620D01*
X147937220Y-156827220D01*
X148071840Y-156916120D01*
X148170900Y-156977080D01*
X148219160Y-157005020D01*
X148226780Y-157005020D01*
X148267420Y-156979620D01*
X148346160Y-156916120D01*
X148463000Y-156804360D01*
X148628100Y-156641800D01*
X148653500Y-156616400D01*
X148790660Y-156476700D01*
X148902420Y-156359860D01*
X148976080Y-156278580D01*
X149001480Y-156240480D01*
X149001480Y-156240480D01*
X148978620Y-156192220D01*
X148915120Y-156095700D01*
X148826220Y-155958540D01*
X148717000Y-155798520D01*
X148432520Y-155384500D01*
X148590000Y-154993340D01*
X148638260Y-154873960D01*
X148699220Y-154729180D01*
X148742400Y-154625040D01*
X148767800Y-154579320D01*
X148808440Y-154564080D01*
X148917660Y-154538680D01*
X149072600Y-154505660D01*
X149255480Y-154472640D01*
X149433280Y-154439620D01*
X149593300Y-154409140D01*
X149707600Y-154386280D01*
X149758400Y-154376120D01*
X149771100Y-154368500D01*
X149781260Y-154343100D01*
X149788880Y-154289760D01*
X149791420Y-154193240D01*
X149793960Y-154040840D01*
X149793960Y-153819860D01*
X149793960Y-153797000D01*
X149791420Y-153586180D01*
X149788880Y-153418540D01*
X149783800Y-153309320D01*
X149776180Y-153266140D01*
X149776180Y-153266140D01*
X149725380Y-153253440D01*
X149613620Y-153230580D01*
X149453600Y-153197560D01*
X149263100Y-153162000D01*
X149252940Y-153159460D01*
X149062440Y-153123900D01*
X148904960Y-153090880D01*
X148793200Y-153065480D01*
X148747480Y-153050240D01*
X148737320Y-153037540D01*
X148699220Y-152963880D01*
X148643340Y-152847040D01*
X148582380Y-152702260D01*
X148518880Y-152554940D01*
X148465540Y-152420320D01*
X148429980Y-152321260D01*
X148419820Y-152275540D01*
X148419820Y-152275540D01*
X148447760Y-152229820D01*
X148513800Y-152130760D01*
X148605240Y-151996140D01*
X148717000Y-151833580D01*
X148724620Y-151820880D01*
X148833840Y-151660860D01*
X148922740Y-151526240D01*
X148981160Y-151429720D01*
X149001480Y-151386540D01*
X149001480Y-151384000D01*
X148965920Y-151335740D01*
X148884640Y-151246840D01*
X148767800Y-151124920D01*
X148628100Y-150982680D01*
X148582380Y-150939500D01*
X148427440Y-150787100D01*
X148320760Y-150688040D01*
X148252180Y-150634700D01*
X148219160Y-150622000D01*
X148219160Y-150624540D01*
X148170900Y-150652480D01*
X148069300Y-150718520D01*
X147932140Y-150812500D01*
X147769580Y-150921720D01*
X147759420Y-150929340D01*
X147599400Y-151038560D01*
X147467320Y-151127460D01*
X147370800Y-151190960D01*
X147330160Y-151216360D01*
X147322540Y-151216360D01*
X147259040Y-151196040D01*
X147144740Y-151157940D01*
X147005040Y-151102060D01*
X146857720Y-151043640D01*
X146723100Y-150987760D01*
X146621500Y-150939500D01*
X146573240Y-150914100D01*
X146573240Y-150911560D01*
X146555460Y-150853140D01*
X146527520Y-150733760D01*
X146494500Y-150568660D01*
X146456400Y-150373080D01*
X146451320Y-150342600D01*
X146415760Y-150152100D01*
X146385280Y-149994620D01*
X146362420Y-149885400D01*
X146349720Y-149839680D01*
X146324320Y-149834600D01*
X146230340Y-149826980D01*
X146088100Y-149824440D01*
X145915380Y-149821900D01*
X145735040Y-149824440D01*
X145559780Y-149826980D01*
X145407380Y-149832060D01*
X145300700Y-149839680D01*
X145254980Y-149849840D01*
X145252440Y-149852380D01*
X145237200Y-149910800D01*
X145211800Y-150030180D01*
X145176240Y-150195280D01*
X145138140Y-150393400D01*
X145133060Y-150426420D01*
X145097500Y-150616920D01*
X145064480Y-150771860D01*
X145041620Y-150881080D01*
X145028920Y-150921720D01*
X145013680Y-150931880D01*
X144934940Y-150964900D01*
X144807940Y-151018240D01*
X144647920Y-151081740D01*
X144282160Y-151231600D01*
X143835120Y-150921720D01*
X143791940Y-150893780D01*
X143631920Y-150784560D01*
X143497300Y-150695660D01*
X143405860Y-150637240D01*
X143367760Y-150614380D01*
X143365220Y-150616920D01*
X143319500Y-150655020D01*
X143230600Y-150738840D01*
X143108680Y-150858220D01*
X142968980Y-150997920D01*
X142864840Y-151102060D01*
X142740380Y-151229060D01*
X142661640Y-151312880D01*
X142618460Y-151368760D01*
X142603220Y-151401780D01*
X142608300Y-151422100D01*
X142636240Y-151467820D01*
X142702280Y-151566880D01*
X142793720Y-151704040D01*
X142902940Y-151861520D01*
X142994380Y-151996140D01*
X143090900Y-152146000D01*
X143154400Y-152252680D01*
X143177260Y-152306020D01*
X143172180Y-152328880D01*
X143139160Y-152415240D01*
X143085820Y-152549860D01*
X143019780Y-152707340D01*
X142862300Y-153062940D01*
X142628620Y-153106120D01*
X142488920Y-153134060D01*
X142290800Y-153172160D01*
X142102840Y-153207720D01*
X141808200Y-153266140D01*
X141798040Y-154348180D01*
X141843760Y-154368500D01*
X141886940Y-154381200D01*
X141996160Y-154404060D01*
X142151100Y-154434540D01*
X142336520Y-154470100D01*
X142491460Y-154500580D01*
X142651480Y-154528520D01*
X142763240Y-154551380D01*
X142814040Y-154561540D01*
X142826740Y-154579320D01*
X142867380Y-154655520D01*
X142923260Y-154777440D01*
X142984220Y-154924760D01*
X143047720Y-155074620D01*
X143103600Y-155214320D01*
X143144240Y-155321000D01*
X143156940Y-155376880D01*
X143136620Y-155420060D01*
X143075660Y-155511500D01*
X142989300Y-155643580D01*
X142882620Y-155801060D01*
X142773400Y-155958540D01*
X142684500Y-156093160D01*
X142621000Y-156189680D01*
X142595600Y-156232860D01*
X142608300Y-156263340D01*
X142669260Y-156339540D01*
X142788640Y-156461460D01*
X142963900Y-156636720D01*
X142994380Y-156664660D01*
X143134080Y-156799280D01*
X143253460Y-156908500D01*
X143334740Y-156982160D01*
X143372840Y-157007560D01*
X143372840Y-157007560D01*
G37*
X143372840Y-157007560D02*
X143413480Y-156987240D01*
X143507460Y-156928820D01*
X143642080Y-156839920D01*
X143799560Y-156735780D01*
X143957040Y-156626560D01*
X144086580Y-156540200D01*
X144178020Y-156481780D01*
X144216120Y-156461460D01*
X144236440Y-156466540D01*
X144312640Y-156504640D01*
X144421860Y-156560520D01*
X144485360Y-156593540D01*
X144584420Y-156636720D01*
X144635220Y-156646880D01*
X144642840Y-156631640D01*
X144680940Y-156555440D01*
X144736820Y-156423360D01*
X144813020Y-156250640D01*
X144899380Y-156047440D01*
X144993360Y-155829000D01*
X145084800Y-155605480D01*
X145173700Y-155392120D01*
X145252440Y-155201620D01*
X145315940Y-155046680D01*
X145356580Y-154937460D01*
X145371820Y-154891740D01*
X145366740Y-154881580D01*
X145315940Y-154833320D01*
X145229580Y-154767280D01*
X145039080Y-154612340D01*
X144853660Y-154378660D01*
X144739360Y-154114500D01*
X144701260Y-153819860D01*
X144734280Y-153548080D01*
X144840960Y-153286460D01*
X145023840Y-153050240D01*
X145244820Y-152874980D01*
X145503900Y-152763220D01*
X145796000Y-152727660D01*
X146075400Y-152758140D01*
X146342100Y-152864820D01*
X146578320Y-153045160D01*
X146677380Y-153159460D01*
X146814540Y-153398220D01*
X146893280Y-153654760D01*
X146900900Y-153718260D01*
X146890740Y-154000200D01*
X146806920Y-154269440D01*
X146659600Y-154510740D01*
X146453860Y-154706320D01*
X146425920Y-154726640D01*
X146331940Y-154797760D01*
X146268440Y-154846020D01*
X146217640Y-154886660D01*
X146575780Y-155747720D01*
X146631660Y-155884880D01*
X146730720Y-156121100D01*
X146817080Y-156324300D01*
X146885660Y-156484320D01*
X146933920Y-156593540D01*
X146954240Y-156636720D01*
X146956780Y-156639260D01*
X146987260Y-156644340D01*
X147053300Y-156618940D01*
X147172680Y-156560520D01*
X147253960Y-156519880D01*
X147345400Y-156476700D01*
X147386040Y-156461460D01*
X147421600Y-156479240D01*
X147507960Y-156537660D01*
X147637500Y-156621480D01*
X147789900Y-156725620D01*
X147937220Y-156827220D01*
X148071840Y-156916120D01*
X148170900Y-156977080D01*
X148219160Y-157005020D01*
X148226780Y-157005020D01*
X148267420Y-156979620D01*
X148346160Y-156916120D01*
X148463000Y-156804360D01*
X148628100Y-156641800D01*
X148653500Y-156616400D01*
X148790660Y-156476700D01*
X148902420Y-156359860D01*
X148976080Y-156278580D01*
X149001480Y-156240480D01*
X149001480Y-156240480D01*
X148978620Y-156192220D01*
X148915120Y-156095700D01*
X148826220Y-155958540D01*
X148717000Y-155798520D01*
X148432520Y-155384500D01*
X148590000Y-154993340D01*
X148638260Y-154873960D01*
X148699220Y-154729180D01*
X148742400Y-154625040D01*
X148767800Y-154579320D01*
X148808440Y-154564080D01*
X148917660Y-154538680D01*
X149072600Y-154505660D01*
X149255480Y-154472640D01*
X149433280Y-154439620D01*
X149593300Y-154409140D01*
X149707600Y-154386280D01*
X149758400Y-154376120D01*
X149771100Y-154368500D01*
X149781260Y-154343100D01*
X149788880Y-154289760D01*
X149791420Y-154193240D01*
X149793960Y-154040840D01*
X149793960Y-153819860D01*
X149793960Y-153797000D01*
X149791420Y-153586180D01*
X149788880Y-153418540D01*
X149783800Y-153309320D01*
X149776180Y-153266140D01*
X149776180Y-153266140D01*
X149725380Y-153253440D01*
X149613620Y-153230580D01*
X149453600Y-153197560D01*
X149263100Y-153162000D01*
X149252940Y-153159460D01*
X149062440Y-153123900D01*
X148904960Y-153090880D01*
X148793200Y-153065480D01*
X148747480Y-153050240D01*
X148737320Y-153037540D01*
X148699220Y-152963880D01*
X148643340Y-152847040D01*
X148582380Y-152702260D01*
X148518880Y-152554940D01*
X148465540Y-152420320D01*
X148429980Y-152321260D01*
X148419820Y-152275540D01*
X148419820Y-152275540D01*
X148447760Y-152229820D01*
X148513800Y-152130760D01*
X148605240Y-151996140D01*
X148717000Y-151833580D01*
X148724620Y-151820880D01*
X148833840Y-151660860D01*
X148922740Y-151526240D01*
X148981160Y-151429720D01*
X149001480Y-151386540D01*
X149001480Y-151384000D01*
X148965920Y-151335740D01*
X148884640Y-151246840D01*
X148767800Y-151124920D01*
X148628100Y-150982680D01*
X148582380Y-150939500D01*
X148427440Y-150787100D01*
X148320760Y-150688040D01*
X148252180Y-150634700D01*
X148219160Y-150622000D01*
X148219160Y-150624540D01*
X148170900Y-150652480D01*
X148069300Y-150718520D01*
X147932140Y-150812500D01*
X147769580Y-150921720D01*
X147759420Y-150929340D01*
X147599400Y-151038560D01*
X147467320Y-151127460D01*
X147370800Y-151190960D01*
X147330160Y-151216360D01*
X147322540Y-151216360D01*
X147259040Y-151196040D01*
X147144740Y-151157940D01*
X147005040Y-151102060D01*
X146857720Y-151043640D01*
X146723100Y-150987760D01*
X146621500Y-150939500D01*
X146573240Y-150914100D01*
X146573240Y-150911560D01*
X146555460Y-150853140D01*
X146527520Y-150733760D01*
X146494500Y-150568660D01*
X146456400Y-150373080D01*
X146451320Y-150342600D01*
X146415760Y-150152100D01*
X146385280Y-149994620D01*
X146362420Y-149885400D01*
X146349720Y-149839680D01*
X146324320Y-149834600D01*
X146230340Y-149826980D01*
X146088100Y-149824440D01*
X145915380Y-149821900D01*
X145735040Y-149824440D01*
X145559780Y-149826980D01*
X145407380Y-149832060D01*
X145300700Y-149839680D01*
X145254980Y-149849840D01*
X145252440Y-149852380D01*
X145237200Y-149910800D01*
X145211800Y-150030180D01*
X145176240Y-150195280D01*
X145138140Y-150393400D01*
X145133060Y-150426420D01*
X145097500Y-150616920D01*
X145064480Y-150771860D01*
X145041620Y-150881080D01*
X145028920Y-150921720D01*
X145013680Y-150931880D01*
X144934940Y-150964900D01*
X144807940Y-151018240D01*
X144647920Y-151081740D01*
X144282160Y-151231600D01*
X143835120Y-150921720D01*
X143791940Y-150893780D01*
X143631920Y-150784560D01*
X143497300Y-150695660D01*
X143405860Y-150637240D01*
X143367760Y-150614380D01*
X143365220Y-150616920D01*
X143319500Y-150655020D01*
X143230600Y-150738840D01*
X143108680Y-150858220D01*
X142968980Y-150997920D01*
X142864840Y-151102060D01*
X142740380Y-151229060D01*
X142661640Y-151312880D01*
X142618460Y-151368760D01*
X142603220Y-151401780D01*
X142608300Y-151422100D01*
X142636240Y-151467820D01*
X142702280Y-151566880D01*
X142793720Y-151704040D01*
X142902940Y-151861520D01*
X142994380Y-151996140D01*
X143090900Y-152146000D01*
X143154400Y-152252680D01*
X143177260Y-152306020D01*
X143172180Y-152328880D01*
X143139160Y-152415240D01*
X143085820Y-152549860D01*
X143019780Y-152707340D01*
X142862300Y-153062940D01*
X142628620Y-153106120D01*
X142488920Y-153134060D01*
X142290800Y-153172160D01*
X142102840Y-153207720D01*
X141808200Y-153266140D01*
X141798040Y-154348180D01*
X141843760Y-154368500D01*
X141886940Y-154381200D01*
X141996160Y-154404060D01*
X142151100Y-154434540D01*
X142336520Y-154470100D01*
X142491460Y-154500580D01*
X142651480Y-154528520D01*
X142763240Y-154551380D01*
X142814040Y-154561540D01*
X142826740Y-154579320D01*
X142867380Y-154655520D01*
X142923260Y-154777440D01*
X142984220Y-154924760D01*
X143047720Y-155074620D01*
X143103600Y-155214320D01*
X143144240Y-155321000D01*
X143156940Y-155376880D01*
X143136620Y-155420060D01*
X143075660Y-155511500D01*
X142989300Y-155643580D01*
X142882620Y-155801060D01*
X142773400Y-155958540D01*
X142684500Y-156093160D01*
X142621000Y-156189680D01*
X142595600Y-156232860D01*
X142608300Y-156263340D01*
X142669260Y-156339540D01*
X142788640Y-156461460D01*
X142963900Y-156636720D01*
X142994380Y-156664660D01*
X143134080Y-156799280D01*
X143253460Y-156908500D01*
X143334740Y-156982160D01*
X143372840Y-157007560D01*
D10*
X112160000Y-131820000D02*
X136760000Y-131820000D01*
X136760000Y-131820000D02*
X136760000Y-137420000D01*
X136760000Y-137420000D02*
X112160000Y-137420000D01*
X112160000Y-137420000D02*
X112160000Y-131820000D01*
X112160000Y-123184000D02*
X136760000Y-123184000D01*
X136760000Y-123184000D02*
X136760000Y-128784000D01*
X136760000Y-128784000D02*
X112160000Y-128784000D01*
X112160000Y-128784000D02*
X112160000Y-123184000D01*
X112160000Y-115056000D02*
X136760000Y-115056000D01*
X136760000Y-115056000D02*
X136760000Y-120656000D01*
X136760000Y-120656000D02*
X112160000Y-120656000D01*
X112160000Y-120656000D02*
X112160000Y-115056000D01*
X112160000Y-105912000D02*
X136760000Y-105912000D01*
X136760000Y-105912000D02*
X136760000Y-111512000D01*
X136760000Y-111512000D02*
X112160000Y-111512000D01*
X112160000Y-111512000D02*
X112160000Y-105912000D01*
X95908000Y-129660000D02*
X82908000Y-129660000D01*
X82908000Y-129660000D02*
X82908000Y-144660000D01*
X82908000Y-144660000D02*
X95908000Y-144660000D01*
X95908000Y-144560000D02*
X95908000Y-129660000D01*
X95908000Y-111880000D02*
X82908000Y-111880000D01*
X82908000Y-111880000D02*
X82908000Y-126880000D01*
X82908000Y-126880000D02*
X95908000Y-126880000D01*
X95908000Y-126780000D02*
X95908000Y-111880000D01*
X148280381Y-133326095D02*
X147280381Y-133326095D01*
X147280381Y-132945142D01*
X147328000Y-132849904D01*
X147375619Y-132802285D01*
X147470857Y-132754666D01*
X147613714Y-132754666D01*
X147708952Y-132802285D01*
X147756571Y-132849904D01*
X147804190Y-132945142D01*
X147804190Y-133326095D01*
X147280381Y-132421333D02*
X147280381Y-131802285D01*
X147661333Y-132135619D01*
X147661333Y-131992761D01*
X147708952Y-131897523D01*
X147756571Y-131849904D01*
X147851810Y-131802285D01*
X148089905Y-131802285D01*
X148185143Y-131849904D01*
X148232762Y-131897523D01*
X148280381Y-131992761D01*
X148280381Y-132278476D01*
X148232762Y-132373714D01*
X148185143Y-132421333D01*
X147677143Y-129928571D02*
X147724762Y-129976190D01*
X147772381Y-130119047D01*
X147772381Y-130214285D01*
X147724762Y-130357143D01*
X147629524Y-130452381D01*
X147534286Y-130500000D01*
X147343810Y-130547619D01*
X147200952Y-130547619D01*
X147010476Y-130500000D01*
X146915238Y-130452381D01*
X146820000Y-130357143D01*
X146772381Y-130214285D01*
X146772381Y-130119047D01*
X146820000Y-129976190D01*
X146867619Y-129928571D01*
X146772381Y-129309524D02*
X146772381Y-129119047D01*
X146820000Y-129023809D01*
X146915238Y-128928571D01*
X147105714Y-128880952D01*
X147439048Y-128880952D01*
X147629524Y-128928571D01*
X147724762Y-129023809D01*
X147772381Y-129119047D01*
X147772381Y-129309524D01*
X147724762Y-129404762D01*
X147629524Y-129500000D01*
X147439048Y-129547619D01*
X147105714Y-129547619D01*
X146915238Y-129500000D01*
X146820000Y-129404762D01*
X146772381Y-129309524D01*
X147772381Y-128452381D02*
X146772381Y-128452381D01*
X147772381Y-127880952D01*
X146772381Y-127880952D01*
X147772381Y-127404762D02*
X146772381Y-127404762D01*
X147772381Y-126833333D01*
X146772381Y-126833333D01*
X147867619Y-126595238D02*
X147867619Y-125833333D01*
X146772381Y-125119047D02*
X146772381Y-125595238D01*
X147248571Y-125642857D01*
X147200952Y-125595238D01*
X147153333Y-125500000D01*
X147153333Y-125261904D01*
X147200952Y-125166666D01*
X147248571Y-125119047D01*
X147343810Y-125071428D01*
X147581905Y-125071428D01*
X147677143Y-125119047D01*
X147724762Y-125166666D01*
X147772381Y-125261904D01*
X147772381Y-125500000D01*
X147724762Y-125595238D01*
X147677143Y-125642857D01*
X147867619Y-124880952D02*
X147867619Y-124119047D01*
X146772381Y-124023809D02*
X147772381Y-123690476D01*
X146772381Y-123357142D01*
X92225905Y-154376381D02*
X92225905Y-153376381D01*
X92606858Y-153376381D01*
X92702096Y-153424000D01*
X92749715Y-153471619D01*
X92797334Y-153566857D01*
X92797334Y-153709714D01*
X92749715Y-153804952D01*
X92702096Y-153852571D01*
X92606858Y-153900190D01*
X92225905Y-153900190D01*
X93749715Y-154376381D02*
X93178286Y-154376381D01*
X93464000Y-154376381D02*
X93464000Y-153376381D01*
X93368762Y-153519238D01*
X93273524Y-153614476D01*
X93178286Y-153662095D01*
X106084953Y-154281143D02*
X106037334Y-154328762D01*
X105894477Y-154376381D01*
X105799239Y-154376381D01*
X105656381Y-154328762D01*
X105561143Y-154233524D01*
X105513524Y-154138286D01*
X105465905Y-153947810D01*
X105465905Y-153804952D01*
X105513524Y-153614476D01*
X105561143Y-153519238D01*
X105656381Y-153424000D01*
X105799239Y-153376381D01*
X105894477Y-153376381D01*
X106037334Y-153424000D01*
X106084953Y-153471619D01*
X106704000Y-153376381D02*
X106894477Y-153376381D01*
X106989715Y-153424000D01*
X107084953Y-153519238D01*
X107132572Y-153709714D01*
X107132572Y-154043048D01*
X107084953Y-154233524D01*
X106989715Y-154328762D01*
X106894477Y-154376381D01*
X106704000Y-154376381D01*
X106608762Y-154328762D01*
X106513524Y-154233524D01*
X106465905Y-154043048D01*
X106465905Y-153709714D01*
X106513524Y-153519238D01*
X106608762Y-153424000D01*
X106704000Y-153376381D01*
X107561143Y-154376381D02*
X107561143Y-153376381D01*
X108132572Y-154376381D01*
X108132572Y-153376381D01*
X108608762Y-154376381D02*
X108608762Y-153376381D01*
X109180191Y-154376381D01*
X109180191Y-153376381D01*
X109418286Y-154471619D02*
X110180191Y-154471619D01*
X110846858Y-153709714D02*
X110846858Y-154376381D01*
X110608762Y-153328762D02*
X110370667Y-154043048D01*
X110989715Y-154043048D01*
X115593905Y-154376381D02*
X115593905Y-153376381D01*
X115974858Y-153376381D01*
X116070096Y-153424000D01*
X116117715Y-153471619D01*
X116165334Y-153566857D01*
X116165334Y-153709714D01*
X116117715Y-153804952D01*
X116070096Y-153852571D01*
X115974858Y-153900190D01*
X115593905Y-153900190D01*
X116546286Y-153471619D02*
X116593905Y-153424000D01*
X116689143Y-153376381D01*
X116927239Y-153376381D01*
X117022477Y-153424000D01*
X117070096Y-153471619D01*
X117117715Y-153566857D01*
X117117715Y-153662095D01*
X117070096Y-153804952D01*
X116498667Y-154376381D01*
X117117715Y-154376381D01*
X128944953Y-154281143D02*
X128897334Y-154328762D01*
X128754477Y-154376381D01*
X128659239Y-154376381D01*
X128516381Y-154328762D01*
X128421143Y-154233524D01*
X128373524Y-154138286D01*
X128325905Y-153947810D01*
X128325905Y-153804952D01*
X128373524Y-153614476D01*
X128421143Y-153519238D01*
X128516381Y-153424000D01*
X128659239Y-153376381D01*
X128754477Y-153376381D01*
X128897334Y-153424000D01*
X128944953Y-153471619D01*
X129564000Y-153376381D02*
X129754477Y-153376381D01*
X129849715Y-153424000D01*
X129944953Y-153519238D01*
X129992572Y-153709714D01*
X129992572Y-154043048D01*
X129944953Y-154233524D01*
X129849715Y-154328762D01*
X129754477Y-154376381D01*
X129564000Y-154376381D01*
X129468762Y-154328762D01*
X129373524Y-154233524D01*
X129325905Y-154043048D01*
X129325905Y-153709714D01*
X129373524Y-153519238D01*
X129468762Y-153424000D01*
X129564000Y-153376381D01*
X130421143Y-154376381D02*
X130421143Y-153376381D01*
X130992572Y-154376381D01*
X130992572Y-153376381D01*
X131468762Y-154376381D02*
X131468762Y-153376381D01*
X132040191Y-154376381D01*
X132040191Y-153376381D01*
X132278286Y-154471619D02*
X133040191Y-154471619D01*
X133706858Y-153709714D02*
X133706858Y-154376381D01*
X133468762Y-153328762D02*
X133230667Y-154043048D01*
X133849715Y-154043048D01*
X118168381Y-140366666D02*
X117692190Y-140700000D01*
X118168381Y-140938095D02*
X117168381Y-140938095D01*
X117168381Y-140557142D01*
X117216000Y-140461904D01*
X117263619Y-140414285D01*
X117358857Y-140366666D01*
X117501714Y-140366666D01*
X117596952Y-140414285D01*
X117644571Y-140461904D01*
X117692190Y-140557142D01*
X117692190Y-140938095D01*
X118168381Y-139938095D02*
X117168381Y-139938095D01*
X117168381Y-139557142D01*
X117216000Y-139461904D01*
X117263619Y-139414285D01*
X117358857Y-139366666D01*
X117501714Y-139366666D01*
X117596952Y-139414285D01*
X117644571Y-139461904D01*
X117692190Y-139557142D01*
X117692190Y-139938095D01*
X118168381Y-138414285D02*
X118168381Y-138985714D01*
X118168381Y-138700000D02*
X117168381Y-138700000D01*
X117311238Y-138795238D01*
X117406476Y-138890476D01*
X117454095Y-138985714D01*
X112720381Y-140390476D02*
X112720381Y-140961905D01*
X112720381Y-140676191D02*
X111720381Y-140676191D01*
X111863238Y-140771429D01*
X111958476Y-140866667D01*
X112006095Y-140961905D01*
X111720381Y-139771429D02*
X111720381Y-139676190D01*
X111768000Y-139580952D01*
X111815619Y-139533333D01*
X111910857Y-139485714D01*
X112101333Y-139438095D01*
X112339429Y-139438095D01*
X112529905Y-139485714D01*
X112625143Y-139533333D01*
X112672762Y-139580952D01*
X112720381Y-139676190D01*
X112720381Y-139771429D01*
X112672762Y-139866667D01*
X112625143Y-139914286D01*
X112529905Y-139961905D01*
X112339429Y-140009524D01*
X112101333Y-140009524D01*
X111910857Y-139961905D01*
X111815619Y-139914286D01*
X111768000Y-139866667D01*
X111720381Y-139771429D01*
X112720381Y-139009524D02*
X111720381Y-139009524D01*
X112720381Y-138438095D02*
X112148952Y-138866667D01*
X111720381Y-138438095D02*
X112291810Y-139009524D01*
X115628381Y-143922666D02*
X115152190Y-144256000D01*
X115628381Y-144494095D02*
X114628381Y-144494095D01*
X114628381Y-144113142D01*
X114676000Y-144017904D01*
X114723619Y-143970285D01*
X114818857Y-143922666D01*
X114961714Y-143922666D01*
X115056952Y-143970285D01*
X115104571Y-144017904D01*
X115152190Y-144113142D01*
X115152190Y-144494095D01*
X115628381Y-143494095D02*
X114628381Y-143494095D01*
X114628381Y-143113142D01*
X114676000Y-143017904D01*
X114723619Y-142970285D01*
X114818857Y-142922666D01*
X114961714Y-142922666D01*
X115056952Y-142970285D01*
X115104571Y-143017904D01*
X115152190Y-143113142D01*
X115152190Y-143494095D01*
X114723619Y-142541714D02*
X114676000Y-142494095D01*
X114628381Y-142398857D01*
X114628381Y-142160761D01*
X114676000Y-142065523D01*
X114723619Y-142017904D01*
X114818857Y-141970285D01*
X114914095Y-141970285D01*
X115056952Y-142017904D01*
X115628381Y-142589333D01*
X115628381Y-141970285D01*
X111028381Y-143946476D02*
X111028381Y-144517905D01*
X111028381Y-144232191D02*
X110028381Y-144232191D01*
X110171238Y-144327429D01*
X110266476Y-144422667D01*
X110314095Y-144517905D01*
X110028381Y-143327429D02*
X110028381Y-143232190D01*
X110076000Y-143136952D01*
X110123619Y-143089333D01*
X110218857Y-143041714D01*
X110409333Y-142994095D01*
X110647429Y-142994095D01*
X110837905Y-143041714D01*
X110933143Y-143089333D01*
X110980762Y-143136952D01*
X111028381Y-143232190D01*
X111028381Y-143327429D01*
X110980762Y-143422667D01*
X110933143Y-143470286D01*
X110837905Y-143517905D01*
X110647429Y-143565524D01*
X110409333Y-143565524D01*
X110218857Y-143517905D01*
X110123619Y-143470286D01*
X110076000Y-143422667D01*
X110028381Y-143327429D01*
X111028381Y-142565524D02*
X110028381Y-142565524D01*
X111028381Y-141994095D02*
X110456952Y-142422667D01*
X110028381Y-141994095D02*
X110599810Y-142565524D01*
D18*
X98242664Y-123477443D02*
X98252220Y-123486998D01*
X98261775Y-123515664D01*
X98261775Y-123534774D01*
X98252220Y-123563440D01*
X98233109Y-123582551D01*
X98213999Y-123592106D01*
X98175778Y-123601661D01*
X98147112Y-123601661D01*
X98108891Y-123592106D01*
X98089780Y-123582551D01*
X98070670Y-123563440D01*
X98061115Y-123534774D01*
X98061115Y-123515664D01*
X98070670Y-123486998D01*
X98080225Y-123477443D01*
X98261775Y-123286338D02*
X98261775Y-123401001D01*
X98261775Y-123343670D02*
X98061115Y-123343670D01*
X98089780Y-123362780D01*
X98108891Y-123381891D01*
X98118446Y-123401001D01*
D14*
X107139619Y-115557904D02*
X106123619Y-115557904D01*
X107139619Y-114977333D02*
X106559048Y-115412761D01*
X106123619Y-114977333D02*
X106704190Y-115557904D01*
X106220381Y-114590285D02*
X106172000Y-114541904D01*
X106123619Y-114445142D01*
X106123619Y-114203238D01*
X106172000Y-114106476D01*
X106220381Y-114058095D01*
X106317143Y-114009714D01*
X106413905Y-114009714D01*
X106559048Y-114058095D01*
X107139619Y-114638666D01*
X107139619Y-114009714D01*
X105615619Y-128765904D02*
X104599619Y-128765904D01*
X105615619Y-128185333D02*
X105035048Y-128620761D01*
X104599619Y-128185333D02*
X105180190Y-128765904D01*
X105615619Y-127217714D02*
X105615619Y-127798285D01*
X105615619Y-127507999D02*
X104599619Y-127507999D01*
X104744762Y-127604761D01*
X104841524Y-127701523D01*
X104889905Y-127798285D01*
D10*
X90193905Y-104084381D02*
X90193905Y-103084381D01*
X90574858Y-103084381D01*
X90670096Y-103132000D01*
X90717715Y-103179619D01*
X90765334Y-103274857D01*
X90765334Y-103417714D01*
X90717715Y-103512952D01*
X90670096Y-103560571D01*
X90574858Y-103608190D01*
X90193905Y-103608190D01*
X91622477Y-103417714D02*
X91622477Y-104084381D01*
X91384381Y-103036762D02*
X91146286Y-103751048D01*
X91765334Y-103751048D01*
X105068953Y-103989143D02*
X105021334Y-104036762D01*
X104878477Y-104084381D01*
X104783239Y-104084381D01*
X104640381Y-104036762D01*
X104545143Y-103941524D01*
X104497524Y-103846286D01*
X104449905Y-103655810D01*
X104449905Y-103512952D01*
X104497524Y-103322476D01*
X104545143Y-103227238D01*
X104640381Y-103132000D01*
X104783239Y-103084381D01*
X104878477Y-103084381D01*
X105021334Y-103132000D01*
X105068953Y-103179619D01*
X105688000Y-103084381D02*
X105878477Y-103084381D01*
X105973715Y-103132000D01*
X106068953Y-103227238D01*
X106116572Y-103417714D01*
X106116572Y-103751048D01*
X106068953Y-103941524D01*
X105973715Y-104036762D01*
X105878477Y-104084381D01*
X105688000Y-104084381D01*
X105592762Y-104036762D01*
X105497524Y-103941524D01*
X105449905Y-103751048D01*
X105449905Y-103417714D01*
X105497524Y-103227238D01*
X105592762Y-103132000D01*
X105688000Y-103084381D01*
X106545143Y-104084381D02*
X106545143Y-103084381D01*
X107116572Y-104084381D01*
X107116572Y-103084381D01*
X107592762Y-104084381D02*
X107592762Y-103084381D01*
X108164191Y-104084381D01*
X108164191Y-103084381D01*
X108402286Y-104179619D02*
X109164191Y-104179619D01*
X109830858Y-103417714D02*
X109830858Y-104084381D01*
X109592762Y-103036762D02*
X109354667Y-103751048D01*
X109973715Y-103751048D01*
D19*
X100681669Y-123506895D02*
X101288245Y-123506895D01*
X101359607Y-123471214D01*
X101395288Y-123435533D01*
X101430969Y-123364171D01*
X101430969Y-123221448D01*
X101395288Y-123150086D01*
X101359607Y-123114405D01*
X101288245Y-123078724D01*
X100681669Y-123078724D01*
X101430969Y-122329424D02*
X101430969Y-122757595D01*
X101430969Y-122543509D02*
X100681669Y-122543509D01*
X100788712Y-122614871D01*
X100860074Y-122686233D01*
X100895755Y-122757595D01*
X102713669Y-121975335D02*
X102713669Y-121475802D01*
X103462969Y-121796930D01*
X102963436Y-120869226D02*
X103462969Y-120869226D01*
X102677988Y-121047630D02*
X103213202Y-121226035D01*
X103213202Y-120762183D01*
X103462969Y-120476735D02*
X102713669Y-120476735D01*
X103070479Y-120476735D02*
X103070479Y-120048564D01*
X103462969Y-120048564D02*
X102713669Y-120048564D01*
X103391607Y-119263583D02*
X103427288Y-119299264D01*
X103462969Y-119406307D01*
X103462969Y-119477669D01*
X103427288Y-119584711D01*
X103355926Y-119656073D01*
X103284564Y-119691754D01*
X103141840Y-119727435D01*
X103034798Y-119727435D01*
X102892074Y-119691754D01*
X102820712Y-119656073D01*
X102749350Y-119584711D01*
X102713669Y-119477669D01*
X102713669Y-119406307D01*
X102749350Y-119299264D01*
X102785031Y-119263583D01*
X102713669Y-118799730D02*
X102713669Y-118728369D01*
X102749350Y-118657007D01*
X102785031Y-118621326D01*
X102856393Y-118585645D01*
X102999117Y-118549964D01*
X103177521Y-118549964D01*
X103320245Y-118585645D01*
X103391607Y-118621326D01*
X103427288Y-118657007D01*
X103462969Y-118728369D01*
X103462969Y-118799730D01*
X103427288Y-118871092D01*
X103391607Y-118906773D01*
X103320245Y-118942454D01*
X103177521Y-118978135D01*
X102999117Y-118978135D01*
X102856393Y-118942454D01*
X102785031Y-118906773D01*
X102749350Y-118871092D01*
X102713669Y-118799730D01*
X102963436Y-117907707D02*
X103462969Y-117907707D01*
X102677988Y-118086111D02*
X103213202Y-118264516D01*
X103213202Y-117800664D01*
D10*
X118110095Y-134072381D02*
X118110095Y-134881905D01*
X118157714Y-134977143D01*
X118205333Y-135024762D01*
X118300571Y-135072381D01*
X118491048Y-135072381D01*
X118586286Y-135024762D01*
X118633905Y-134977143D01*
X118681524Y-134881905D01*
X118681524Y-134072381D01*
X119633905Y-134072381D02*
X119157714Y-134072381D01*
X119110095Y-134548571D01*
X119157714Y-134500952D01*
X119252952Y-134453333D01*
X119491048Y-134453333D01*
X119586286Y-134500952D01*
X119633905Y-134548571D01*
X119681524Y-134643810D01*
X119681524Y-134881905D01*
X119633905Y-134977143D01*
X119586286Y-135024762D01*
X119491048Y-135072381D01*
X119252952Y-135072381D01*
X119157714Y-135024762D01*
X119110095Y-134977143D01*
X113212953Y-132596000D02*
X113117715Y-132548381D01*
X112974858Y-132548381D01*
X112832000Y-132596000D01*
X112736762Y-132691238D01*
X112689143Y-132786476D01*
X112641524Y-132976952D01*
X112641524Y-133119810D01*
X112689143Y-133310286D01*
X112736762Y-133405524D01*
X112832000Y-133500762D01*
X112974858Y-133548381D01*
X113070096Y-133548381D01*
X113212953Y-133500762D01*
X113260572Y-133453143D01*
X113260572Y-133119810D01*
X113070096Y-133119810D01*
X113593905Y-132548381D02*
X114212953Y-132548381D01*
X113879619Y-132929333D01*
X114022477Y-132929333D01*
X114117715Y-132976952D01*
X114165334Y-133024571D01*
X114212953Y-133119810D01*
X114212953Y-133357905D01*
X114165334Y-133453143D01*
X114117715Y-133500762D01*
X114022477Y-133548381D01*
X113736762Y-133548381D01*
X113641524Y-133500762D01*
X113593905Y-133453143D01*
X114641524Y-133548381D02*
X114641524Y-132548381D01*
X114974858Y-133262667D01*
X115308191Y-132548381D01*
X115308191Y-133548381D01*
X116117715Y-133024571D02*
X116260572Y-133072190D01*
X116308191Y-133119810D01*
X116355810Y-133215048D01*
X116355810Y-133357905D01*
X116308191Y-133453143D01*
X116260572Y-133500762D01*
X116165334Y-133548381D01*
X115784381Y-133548381D01*
X115784381Y-132548381D01*
X116117715Y-132548381D01*
X116212953Y-132596000D01*
X116260572Y-132643619D01*
X116308191Y-132738857D01*
X116308191Y-132834095D01*
X116260572Y-132929333D01*
X116212953Y-132976952D01*
X116117715Y-133024571D01*
X115784381Y-133024571D01*
X116546286Y-133643619D02*
X117308191Y-133643619D01*
X117498667Y-133500762D02*
X117641524Y-133548381D01*
X117879620Y-133548381D01*
X117974858Y-133500762D01*
X118022477Y-133453143D01*
X118070096Y-133357905D01*
X118070096Y-133262667D01*
X118022477Y-133167429D01*
X117974858Y-133119810D01*
X117879620Y-133072190D01*
X117689143Y-133024571D01*
X117593905Y-132976952D01*
X117546286Y-132929333D01*
X117498667Y-132834095D01*
X117498667Y-132738857D01*
X117546286Y-132643619D01*
X117593905Y-132596000D01*
X117689143Y-132548381D01*
X117927239Y-132548381D01*
X118070096Y-132596000D01*
X118451048Y-133500762D02*
X118593905Y-133548381D01*
X118832001Y-133548381D01*
X118927239Y-133500762D01*
X118974858Y-133453143D01*
X119022477Y-133357905D01*
X119022477Y-133262667D01*
X118974858Y-133167429D01*
X118927239Y-133119810D01*
X118832001Y-133072190D01*
X118641524Y-133024571D01*
X118546286Y-132976952D01*
X118498667Y-132929333D01*
X118451048Y-132834095D01*
X118451048Y-132738857D01*
X118498667Y-132643619D01*
X118546286Y-132596000D01*
X118641524Y-132548381D01*
X118879620Y-132548381D01*
X119022477Y-132596000D01*
X120022477Y-133548381D02*
X119689143Y-133072190D01*
X119451048Y-133548381D02*
X119451048Y-132548381D01*
X119832001Y-132548381D01*
X119927239Y-132596000D01*
X119974858Y-132643619D01*
X120022477Y-132738857D01*
X120022477Y-132881714D01*
X119974858Y-132976952D01*
X119927239Y-133024571D01*
X119832001Y-133072190D01*
X119451048Y-133072190D01*
X118618095Y-125436381D02*
X118618095Y-126245905D01*
X118665714Y-126341143D01*
X118713333Y-126388762D01*
X118808571Y-126436381D01*
X118999048Y-126436381D01*
X119094286Y-126388762D01*
X119141905Y-126341143D01*
X119189524Y-126245905D01*
X119189524Y-125436381D01*
X120094286Y-125769714D02*
X120094286Y-126436381D01*
X119856190Y-125388762D02*
X119618095Y-126103048D01*
X120237143Y-126103048D01*
X113212953Y-123960000D02*
X113117715Y-123912381D01*
X112974858Y-123912381D01*
X112832000Y-123960000D01*
X112736762Y-124055238D01*
X112689143Y-124150476D01*
X112641524Y-124340952D01*
X112641524Y-124483810D01*
X112689143Y-124674286D01*
X112736762Y-124769524D01*
X112832000Y-124864762D01*
X112974858Y-124912381D01*
X113070096Y-124912381D01*
X113212953Y-124864762D01*
X113260572Y-124817143D01*
X113260572Y-124483810D01*
X113070096Y-124483810D01*
X113593905Y-123912381D02*
X114212953Y-123912381D01*
X113879619Y-124293333D01*
X114022477Y-124293333D01*
X114117715Y-124340952D01*
X114165334Y-124388571D01*
X114212953Y-124483810D01*
X114212953Y-124721905D01*
X114165334Y-124817143D01*
X114117715Y-124864762D01*
X114022477Y-124912381D01*
X113736762Y-124912381D01*
X113641524Y-124864762D01*
X113593905Y-124817143D01*
X114641524Y-124912381D02*
X114641524Y-123912381D01*
X114974858Y-124626667D01*
X115308191Y-123912381D01*
X115308191Y-124912381D01*
X116117715Y-124388571D02*
X116260572Y-124436190D01*
X116308191Y-124483810D01*
X116355810Y-124579048D01*
X116355810Y-124721905D01*
X116308191Y-124817143D01*
X116260572Y-124864762D01*
X116165334Y-124912381D01*
X115784381Y-124912381D01*
X115784381Y-123912381D01*
X116117715Y-123912381D01*
X116212953Y-123960000D01*
X116260572Y-124007619D01*
X116308191Y-124102857D01*
X116308191Y-124198095D01*
X116260572Y-124293333D01*
X116212953Y-124340952D01*
X116117715Y-124388571D01*
X115784381Y-124388571D01*
X116546286Y-125007619D02*
X117308191Y-125007619D01*
X117498667Y-124864762D02*
X117641524Y-124912381D01*
X117879620Y-124912381D01*
X117974858Y-124864762D01*
X118022477Y-124817143D01*
X118070096Y-124721905D01*
X118070096Y-124626667D01*
X118022477Y-124531429D01*
X117974858Y-124483810D01*
X117879620Y-124436190D01*
X117689143Y-124388571D01*
X117593905Y-124340952D01*
X117546286Y-124293333D01*
X117498667Y-124198095D01*
X117498667Y-124102857D01*
X117546286Y-124007619D01*
X117593905Y-123960000D01*
X117689143Y-123912381D01*
X117927239Y-123912381D01*
X118070096Y-123960000D01*
X118451048Y-124864762D02*
X118593905Y-124912381D01*
X118832001Y-124912381D01*
X118927239Y-124864762D01*
X118974858Y-124817143D01*
X119022477Y-124721905D01*
X119022477Y-124626667D01*
X118974858Y-124531429D01*
X118927239Y-124483810D01*
X118832001Y-124436190D01*
X118641524Y-124388571D01*
X118546286Y-124340952D01*
X118498667Y-124293333D01*
X118451048Y-124198095D01*
X118451048Y-124102857D01*
X118498667Y-124007619D01*
X118546286Y-123960000D01*
X118641524Y-123912381D01*
X118879620Y-123912381D01*
X119022477Y-123960000D01*
X120022477Y-124912381D02*
X119689143Y-124436190D01*
X119451048Y-124912381D02*
X119451048Y-123912381D01*
X119832001Y-123912381D01*
X119927239Y-123960000D01*
X119974858Y-124007619D01*
X120022477Y-124102857D01*
X120022477Y-124245714D01*
X119974858Y-124340952D01*
X119927239Y-124388571D01*
X119832001Y-124436190D01*
X119451048Y-124436190D01*
X118110095Y-117308381D02*
X118110095Y-118117905D01*
X118157714Y-118213143D01*
X118205333Y-118260762D01*
X118300571Y-118308381D01*
X118491048Y-118308381D01*
X118586286Y-118260762D01*
X118633905Y-118213143D01*
X118681524Y-118117905D01*
X118681524Y-117308381D01*
X119062476Y-117308381D02*
X119681524Y-117308381D01*
X119348190Y-117689333D01*
X119491048Y-117689333D01*
X119586286Y-117736952D01*
X119633905Y-117784571D01*
X119681524Y-117879810D01*
X119681524Y-118117905D01*
X119633905Y-118213143D01*
X119586286Y-118260762D01*
X119491048Y-118308381D01*
X119205333Y-118308381D01*
X119110095Y-118260762D01*
X119062476Y-118213143D01*
X113212953Y-115832000D02*
X113117715Y-115784381D01*
X112974858Y-115784381D01*
X112832000Y-115832000D01*
X112736762Y-115927238D01*
X112689143Y-116022476D01*
X112641524Y-116212952D01*
X112641524Y-116355810D01*
X112689143Y-116546286D01*
X112736762Y-116641524D01*
X112832000Y-116736762D01*
X112974858Y-116784381D01*
X113070096Y-116784381D01*
X113212953Y-116736762D01*
X113260572Y-116689143D01*
X113260572Y-116355810D01*
X113070096Y-116355810D01*
X113593905Y-115784381D02*
X114212953Y-115784381D01*
X113879619Y-116165333D01*
X114022477Y-116165333D01*
X114117715Y-116212952D01*
X114165334Y-116260571D01*
X114212953Y-116355810D01*
X114212953Y-116593905D01*
X114165334Y-116689143D01*
X114117715Y-116736762D01*
X114022477Y-116784381D01*
X113736762Y-116784381D01*
X113641524Y-116736762D01*
X113593905Y-116689143D01*
X114641524Y-116784381D02*
X114641524Y-115784381D01*
X114974858Y-116498667D01*
X115308191Y-115784381D01*
X115308191Y-116784381D01*
X116117715Y-116260571D02*
X116260572Y-116308190D01*
X116308191Y-116355810D01*
X116355810Y-116451048D01*
X116355810Y-116593905D01*
X116308191Y-116689143D01*
X116260572Y-116736762D01*
X116165334Y-116784381D01*
X115784381Y-116784381D01*
X115784381Y-115784381D01*
X116117715Y-115784381D01*
X116212953Y-115832000D01*
X116260572Y-115879619D01*
X116308191Y-115974857D01*
X116308191Y-116070095D01*
X116260572Y-116165333D01*
X116212953Y-116212952D01*
X116117715Y-116260571D01*
X115784381Y-116260571D01*
X116546286Y-116879619D02*
X117308191Y-116879619D01*
X117498667Y-116736762D02*
X117641524Y-116784381D01*
X117879620Y-116784381D01*
X117974858Y-116736762D01*
X118022477Y-116689143D01*
X118070096Y-116593905D01*
X118070096Y-116498667D01*
X118022477Y-116403429D01*
X117974858Y-116355810D01*
X117879620Y-116308190D01*
X117689143Y-116260571D01*
X117593905Y-116212952D01*
X117546286Y-116165333D01*
X117498667Y-116070095D01*
X117498667Y-115974857D01*
X117546286Y-115879619D01*
X117593905Y-115832000D01*
X117689143Y-115784381D01*
X117927239Y-115784381D01*
X118070096Y-115832000D01*
X118451048Y-116736762D02*
X118593905Y-116784381D01*
X118832001Y-116784381D01*
X118927239Y-116736762D01*
X118974858Y-116689143D01*
X119022477Y-116593905D01*
X119022477Y-116498667D01*
X118974858Y-116403429D01*
X118927239Y-116355810D01*
X118832001Y-116308190D01*
X118641524Y-116260571D01*
X118546286Y-116212952D01*
X118498667Y-116165333D01*
X118451048Y-116070095D01*
X118451048Y-115974857D01*
X118498667Y-115879619D01*
X118546286Y-115832000D01*
X118641524Y-115784381D01*
X118879620Y-115784381D01*
X119022477Y-115832000D01*
X120022477Y-116784381D02*
X119689143Y-116308190D01*
X119451048Y-116784381D02*
X119451048Y-115784381D01*
X119832001Y-115784381D01*
X119927239Y-115832000D01*
X119974858Y-115879619D01*
X120022477Y-115974857D01*
X120022477Y-116117714D01*
X119974858Y-116212952D01*
X119927239Y-116260571D01*
X119832001Y-116308190D01*
X119451048Y-116308190D01*
X118110095Y-108164381D02*
X118110095Y-108973905D01*
X118157714Y-109069143D01*
X118205333Y-109116762D01*
X118300571Y-109164381D01*
X118491048Y-109164381D01*
X118586286Y-109116762D01*
X118633905Y-109069143D01*
X118681524Y-108973905D01*
X118681524Y-108164381D01*
X119110095Y-108259619D02*
X119157714Y-108212000D01*
X119252952Y-108164381D01*
X119491048Y-108164381D01*
X119586286Y-108212000D01*
X119633905Y-108259619D01*
X119681524Y-108354857D01*
X119681524Y-108450095D01*
X119633905Y-108592952D01*
X119062476Y-109164381D01*
X119681524Y-109164381D01*
X113212953Y-106688000D02*
X113117715Y-106640381D01*
X112974858Y-106640381D01*
X112832000Y-106688000D01*
X112736762Y-106783238D01*
X112689143Y-106878476D01*
X112641524Y-107068952D01*
X112641524Y-107211810D01*
X112689143Y-107402286D01*
X112736762Y-107497524D01*
X112832000Y-107592762D01*
X112974858Y-107640381D01*
X113070096Y-107640381D01*
X113212953Y-107592762D01*
X113260572Y-107545143D01*
X113260572Y-107211810D01*
X113070096Y-107211810D01*
X113593905Y-106640381D02*
X114212953Y-106640381D01*
X113879619Y-107021333D01*
X114022477Y-107021333D01*
X114117715Y-107068952D01*
X114165334Y-107116571D01*
X114212953Y-107211810D01*
X114212953Y-107449905D01*
X114165334Y-107545143D01*
X114117715Y-107592762D01*
X114022477Y-107640381D01*
X113736762Y-107640381D01*
X113641524Y-107592762D01*
X113593905Y-107545143D01*
X114641524Y-107640381D02*
X114641524Y-106640381D01*
X114974858Y-107354667D01*
X115308191Y-106640381D01*
X115308191Y-107640381D01*
X116117715Y-107116571D02*
X116260572Y-107164190D01*
X116308191Y-107211810D01*
X116355810Y-107307048D01*
X116355810Y-107449905D01*
X116308191Y-107545143D01*
X116260572Y-107592762D01*
X116165334Y-107640381D01*
X115784381Y-107640381D01*
X115784381Y-106640381D01*
X116117715Y-106640381D01*
X116212953Y-106688000D01*
X116260572Y-106735619D01*
X116308191Y-106830857D01*
X116308191Y-106926095D01*
X116260572Y-107021333D01*
X116212953Y-107068952D01*
X116117715Y-107116571D01*
X115784381Y-107116571D01*
X116546286Y-107735619D02*
X117308191Y-107735619D01*
X117498667Y-107592762D02*
X117641524Y-107640381D01*
X117879620Y-107640381D01*
X117974858Y-107592762D01*
X118022477Y-107545143D01*
X118070096Y-107449905D01*
X118070096Y-107354667D01*
X118022477Y-107259429D01*
X117974858Y-107211810D01*
X117879620Y-107164190D01*
X117689143Y-107116571D01*
X117593905Y-107068952D01*
X117546286Y-107021333D01*
X117498667Y-106926095D01*
X117498667Y-106830857D01*
X117546286Y-106735619D01*
X117593905Y-106688000D01*
X117689143Y-106640381D01*
X117927239Y-106640381D01*
X118070096Y-106688000D01*
X118451048Y-107592762D02*
X118593905Y-107640381D01*
X118832001Y-107640381D01*
X118927239Y-107592762D01*
X118974858Y-107545143D01*
X119022477Y-107449905D01*
X119022477Y-107354667D01*
X118974858Y-107259429D01*
X118927239Y-107211810D01*
X118832001Y-107164190D01*
X118641524Y-107116571D01*
X118546286Y-107068952D01*
X118498667Y-107021333D01*
X118451048Y-106926095D01*
X118451048Y-106830857D01*
X118498667Y-106735619D01*
X118546286Y-106688000D01*
X118641524Y-106640381D01*
X118879620Y-106640381D01*
X119022477Y-106688000D01*
X120022477Y-107640381D02*
X119689143Y-107164190D01*
X119451048Y-107640381D02*
X119451048Y-106640381D01*
X119832001Y-106640381D01*
X119927239Y-106688000D01*
X119974858Y-106735619D01*
X120022477Y-106830857D01*
X120022477Y-106973714D01*
X119974858Y-107068952D01*
X119927239Y-107116571D01*
X119832001Y-107164190D01*
X119451048Y-107164190D01*
X94448381Y-131397333D02*
X95162667Y-131397333D01*
X95305524Y-131444953D01*
X95400762Y-131540191D01*
X95448381Y-131683048D01*
X95448381Y-131778286D01*
X94543619Y-130968762D02*
X94496000Y-130921143D01*
X94448381Y-130825905D01*
X94448381Y-130587809D01*
X94496000Y-130492571D01*
X94543619Y-130444952D01*
X94638857Y-130397333D01*
X94734095Y-130397333D01*
X94876952Y-130444952D01*
X95448381Y-131016381D01*
X95448381Y-130397333D01*
X89352381Y-138183809D02*
X88876190Y-138517143D01*
X89352381Y-138755238D02*
X88352381Y-138755238D01*
X88352381Y-138374285D01*
X88400000Y-138279047D01*
X88447619Y-138231428D01*
X88542857Y-138183809D01*
X88685714Y-138183809D01*
X88780952Y-138231428D01*
X88828571Y-138279047D01*
X88876190Y-138374285D01*
X88876190Y-138755238D01*
X88352381Y-137469523D02*
X89066667Y-137469523D01*
X89209524Y-137517143D01*
X89304762Y-137612381D01*
X89352381Y-137755238D01*
X89352381Y-137850476D01*
X88685714Y-136564761D02*
X89352381Y-136564761D01*
X88304762Y-136802857D02*
X89019048Y-137040952D01*
X89019048Y-136421904D01*
X88352381Y-135564761D02*
X88352381Y-136040952D01*
X88828571Y-136088571D01*
X88780952Y-136040952D01*
X88733333Y-135945714D01*
X88733333Y-135707618D01*
X88780952Y-135612380D01*
X88828571Y-135564761D01*
X88923810Y-135517142D01*
X89161905Y-135517142D01*
X89257143Y-135564761D01*
X89304762Y-135612380D01*
X89352381Y-135707618D01*
X89352381Y-135945714D01*
X89304762Y-136040952D01*
X89257143Y-136088571D01*
X93940381Y-113617333D02*
X94654667Y-113617333D01*
X94797524Y-113664953D01*
X94892762Y-113760191D01*
X94940381Y-113903048D01*
X94940381Y-113998286D01*
X94940381Y-112617333D02*
X94940381Y-113188762D01*
X94940381Y-112903048D02*
X93940381Y-112903048D01*
X94083238Y-112998286D01*
X94178476Y-113093524D01*
X94226095Y-113188762D01*
X89352381Y-119895809D02*
X88876190Y-120229143D01*
X89352381Y-120467238D02*
X88352381Y-120467238D01*
X88352381Y-120086285D01*
X88400000Y-119991047D01*
X88447619Y-119943428D01*
X88542857Y-119895809D01*
X88685714Y-119895809D01*
X88780952Y-119943428D01*
X88828571Y-119991047D01*
X88876190Y-120086285D01*
X88876190Y-120467238D01*
X88352381Y-119181523D02*
X89066667Y-119181523D01*
X89209524Y-119229143D01*
X89304762Y-119324381D01*
X89352381Y-119467238D01*
X89352381Y-119562476D01*
X88685714Y-118276761D02*
X89352381Y-118276761D01*
X88304762Y-118514857D02*
X89019048Y-118752952D01*
X89019048Y-118133904D01*
X88352381Y-117276761D02*
X88352381Y-117752952D01*
X88828571Y-117800571D01*
X88780952Y-117752952D01*
X88733333Y-117657714D01*
X88733333Y-117419618D01*
X88780952Y-117324380D01*
X88828571Y-117276761D01*
X88923810Y-117229142D01*
X89161905Y-117229142D01*
X89257143Y-117276761D01*
X89304762Y-117324380D01*
X89352381Y-117419618D01*
X89352381Y-117657714D01*
X89304762Y-117752952D01*
X89257143Y-117800571D01*
%LPC*%
D20*
X144566000Y-108204000D03*
X144566000Y-113284000D03*
X144566000Y-118364000D03*
X144566000Y-123444000D03*
X144566000Y-128364000D03*
X109220000Y-151170000D03*
X104140000Y-151170000D03*
X99060000Y-151170000D03*
X93980000Y-151170000D03*
X132080000Y-151170000D03*
X127000000Y-151170000D03*
X121920000Y-151170000D03*
X116840000Y-151170000D03*
D21*
X100050600Y-135763000D03*
X100050600Y-137033000D03*
X100050600Y-138303000D03*
X100050600Y-139573000D03*
X100050600Y-140843000D03*
X100050600Y-142113000D03*
X100050600Y-143383000D03*
X100050600Y-144653000D03*
X106197400Y-144653000D03*
X106197400Y-143383000D03*
X106197400Y-142113000D03*
X106197400Y-140843000D03*
X106197400Y-139573000D03*
X106197400Y-138303000D03*
X106197400Y-137033000D03*
X106197400Y-135763000D03*
D22*
X114716000Y-140900000D03*
X115916000Y-140900000D03*
X114716000Y-138500000D03*
X115916000Y-138500000D03*
D23*
X114716000Y-140100000D03*
X114716000Y-139300000D03*
X115916000Y-139300000D03*
X115916000Y-140100000D03*
D22*
X112176000Y-144456000D03*
X113376000Y-144456000D03*
X112176000Y-142056000D03*
X113376000Y-142056000D03*
D23*
X112176000Y-143656000D03*
X112176000Y-142856000D03*
X113376000Y-142856000D03*
X113376000Y-143656000D03*
D24*
X97536000Y-124195840D03*
X97536000Y-122692160D03*
D25*
X110236000Y-112268000D03*
D26*
X110236000Y-114808000D03*
X110236000Y-117348000D03*
D25*
X108712000Y-125476000D03*
D26*
X108712000Y-128016000D03*
X108712000Y-130556000D03*
D20*
X92456000Y-106386000D03*
X97536000Y-106386000D03*
X102616000Y-106386000D03*
X107696000Y-106386000D03*
D27*
X104902000Y-123698000D03*
X104902000Y-122428000D03*
X104902000Y-121158000D03*
X104902000Y-119888000D03*
X104902000Y-118618000D03*
X104902000Y-117348000D03*
X104902000Y-116078000D03*
X99314000Y-116078000D03*
X99314000Y-117348000D03*
X99314000Y-118618000D03*
X99314000Y-119888000D03*
X99314000Y-121158000D03*
X99314000Y-122428000D03*
X99314000Y-123698000D03*
D28*
X114300000Y-136020000D03*
D29*
X116840000Y-136020000D03*
D30*
X127000000Y-136020000D03*
X134620000Y-136020000D03*
D29*
X114300000Y-127384000D03*
X116840000Y-127384000D03*
D30*
X127000000Y-127384000D03*
X134620000Y-127384000D03*
D29*
X114300000Y-119256000D03*
D28*
X116840000Y-119256000D03*
D30*
X127000000Y-119256000D03*
X134620000Y-119256000D03*
D29*
X114300000Y-110112000D03*
X116840000Y-110112000D03*
D30*
X127000000Y-110112000D03*
X134620000Y-110112000D03*
X89408000Y-129660000D03*
X89408000Y-144660000D03*
D31*
X93908000Y-133455000D03*
X93908000Y-135572200D03*
X93908000Y-137689300D03*
X93908000Y-139806400D03*
X91458000Y-134513600D03*
X91458000Y-136630700D03*
X91458000Y-138747800D03*
X91458000Y-140865000D03*
D30*
X89408000Y-111880000D03*
X89408000Y-126880000D03*
D31*
X93908000Y-115675000D03*
X93908000Y-117792200D03*
X93908000Y-119909300D03*
X93908000Y-122026400D03*
X91458000Y-116733600D03*
X91458000Y-118850700D03*
X91458000Y-120967800D03*
X91458000Y-123085000D03*
M02*
