G04 #@! TF.FileFunction,Legend,Bot*
%FSLAX46Y46*%
G04 Gerber Fmt 4.6, Leading zero omitted, Abs format (unit mm)*
G04 Created by KiCad (PCBNEW 4.0.1-stable) date 8/05/2016 3:47:28 PM*
%MOMM*%
G01*
G04 APERTURE LIST*
%ADD10C,0.150000*%
%ADD11C,0.088900*%
%ADD12C,2.900000*%
%ADD13R,1.724000X1.724000*%
%ADD14C,1.724000*%
%ADD15C,1.750000*%
%ADD16C,1.900000*%
%ADD17C,2.200000*%
%ADD18C,1.350000*%
G04 APERTURE END LIST*
D10*
D11*
X102392238Y-134686524D02*
X102392238Y-133416524D01*
X103722714Y-134565571D02*
X103662238Y-134626048D01*
X103480809Y-134686524D01*
X103359857Y-134686524D01*
X103178429Y-134626048D01*
X103057476Y-134505095D01*
X102997000Y-134384143D01*
X102936524Y-134142238D01*
X102936524Y-133960810D01*
X102997000Y-133718905D01*
X103057476Y-133597952D01*
X103178429Y-133477000D01*
X103359857Y-133416524D01*
X103480809Y-133416524D01*
X103662238Y-133477000D01*
X103722714Y-133537476D01*
X104932238Y-134686524D02*
X104206524Y-134686524D01*
X104569381Y-134686524D02*
X104569381Y-133416524D01*
X104448429Y-133597952D01*
X104327476Y-133718905D01*
X104206524Y-133779381D01*
X104206524Y-144677191D02*
X102936524Y-144677191D01*
X102936524Y-144374810D01*
X102997000Y-144193382D01*
X103117952Y-144072429D01*
X103238905Y-144011953D01*
X103480810Y-143951477D01*
X103662238Y-143951477D01*
X103904143Y-144011953D01*
X104025095Y-144072429D01*
X104146048Y-144193382D01*
X104206524Y-144374810D01*
X104206524Y-144677191D01*
X104146048Y-143467667D02*
X104206524Y-143286239D01*
X104206524Y-142983858D01*
X104146048Y-142862905D01*
X104085571Y-142802429D01*
X103964619Y-142741953D01*
X103843667Y-142741953D01*
X103722714Y-142802429D01*
X103662238Y-142862905D01*
X103601762Y-142983858D01*
X103541286Y-143225762D01*
X103480810Y-143346715D01*
X103420333Y-143407191D01*
X103299381Y-143467667D01*
X103178429Y-143467667D01*
X103057476Y-143407191D01*
X102997000Y-143346715D01*
X102936524Y-143225762D01*
X102936524Y-142923382D01*
X102997000Y-142741953D01*
X103057476Y-142258143D02*
X102997000Y-142197667D01*
X102936524Y-142076715D01*
X102936524Y-141774334D01*
X102997000Y-141653381D01*
X103057476Y-141592905D01*
X103178429Y-141532429D01*
X103299381Y-141532429D01*
X103480810Y-141592905D01*
X104206524Y-142318619D01*
X104206524Y-141532429D01*
X103359857Y-140443857D02*
X104206524Y-140443857D01*
X102876048Y-140746238D02*
X103783190Y-141048619D01*
X103783190Y-140262429D01*
X102936524Y-139536714D02*
X102936524Y-139415762D01*
X102997000Y-139294810D01*
X103057476Y-139234333D01*
X103178429Y-139173857D01*
X103420333Y-139113381D01*
X103722714Y-139113381D01*
X103964619Y-139173857D01*
X104085571Y-139234333D01*
X104146048Y-139294810D01*
X104206524Y-139415762D01*
X104206524Y-139536714D01*
X104146048Y-139657667D01*
X104085571Y-139718143D01*
X103964619Y-139778619D01*
X103722714Y-139839095D01*
X103420333Y-139839095D01*
X103178429Y-139778619D01*
X103057476Y-139718143D01*
X102997000Y-139657667D01*
X102936524Y-139536714D01*
X103480810Y-138387666D02*
X103420333Y-138508619D01*
X103359857Y-138569095D01*
X103238905Y-138629571D01*
X103178429Y-138629571D01*
X103057476Y-138569095D01*
X102997000Y-138508619D01*
X102936524Y-138387666D01*
X102936524Y-138145762D01*
X102997000Y-138024809D01*
X103057476Y-137964333D01*
X103178429Y-137903857D01*
X103238905Y-137903857D01*
X103359857Y-137964333D01*
X103420333Y-138024809D01*
X103480810Y-138145762D01*
X103480810Y-138387666D01*
X103541286Y-138508619D01*
X103601762Y-138569095D01*
X103722714Y-138629571D01*
X103964619Y-138629571D01*
X104085571Y-138569095D01*
X104146048Y-138508619D01*
X104206524Y-138387666D01*
X104206524Y-138145762D01*
X104146048Y-138024809D01*
X104085571Y-137964333D01*
X103964619Y-137903857D01*
X103722714Y-137903857D01*
X103601762Y-137964333D01*
X103541286Y-138024809D01*
X103480810Y-138145762D01*
X104146048Y-137420047D02*
X104206524Y-137238619D01*
X104206524Y-136936238D01*
X104146048Y-136815285D01*
X104085571Y-136754809D01*
X103964619Y-136694333D01*
X103843667Y-136694333D01*
X103722714Y-136754809D01*
X103662238Y-136815285D01*
X103601762Y-136936238D01*
X103541286Y-137178142D01*
X103480810Y-137299095D01*
X103420333Y-137359571D01*
X103299381Y-137420047D01*
X103178429Y-137420047D01*
X103057476Y-137359571D01*
X102997000Y-137299095D01*
X102936524Y-137178142D01*
X102936524Y-136875762D01*
X102997000Y-136694333D01*
%LPC*%
D12*
X144566000Y-108204000D03*
X144566000Y-113284000D03*
X144566000Y-118364000D03*
X144566000Y-123444000D03*
X144566000Y-128364000D03*
X109220000Y-151170000D03*
X104140000Y-151170000D03*
X99060000Y-151170000D03*
X93980000Y-151170000D03*
X132080000Y-151170000D03*
X127000000Y-151170000D03*
X121920000Y-151170000D03*
X116840000Y-151170000D03*
D13*
X110236000Y-112268000D03*
D14*
X110236000Y-114808000D03*
X110236000Y-117348000D03*
D13*
X108712000Y-125476000D03*
D14*
X108712000Y-128016000D03*
X108712000Y-130556000D03*
D12*
X92456000Y-106386000D03*
X97536000Y-106386000D03*
X102616000Y-106386000D03*
X107696000Y-106386000D03*
D15*
X114300000Y-136020000D03*
D16*
X116840000Y-136020000D03*
D17*
X127000000Y-136020000D03*
X134620000Y-136020000D03*
D16*
X114300000Y-127384000D03*
X116840000Y-127384000D03*
D17*
X127000000Y-127384000D03*
X134620000Y-127384000D03*
D16*
X114300000Y-119256000D03*
D15*
X116840000Y-119256000D03*
D17*
X127000000Y-119256000D03*
X134620000Y-119256000D03*
D16*
X114300000Y-110112000D03*
X116840000Y-110112000D03*
D17*
X127000000Y-110112000D03*
X134620000Y-110112000D03*
X89408000Y-129660000D03*
X89408000Y-144660000D03*
D18*
X93908000Y-133455000D03*
X93908000Y-135572200D03*
X93908000Y-137689300D03*
X93908000Y-139806400D03*
X91458000Y-134513600D03*
X91458000Y-136630700D03*
X91458000Y-138747800D03*
X91458000Y-140865000D03*
D17*
X89408000Y-111880000D03*
X89408000Y-126880000D03*
D18*
X93908000Y-115675000D03*
X93908000Y-117792200D03*
X93908000Y-119909300D03*
X93908000Y-122026400D03*
X91458000Y-116733600D03*
X91458000Y-118850700D03*
X91458000Y-120967800D03*
X91458000Y-123085000D03*
M02*
