G04 #@! TF.FileFunction,Copper,L2,Bot,Signal*
%FSLAX46Y46*%
G04 Gerber Fmt 4.6, Leading zero omitted, Abs format (unit mm)*
G04 Created by KiCad (PCBNEW 4.0.1-stable) date 8/05/2016 3:47:28 PM*
%MOMM*%
G01*
G04 APERTURE LIST*
%ADD10C,0.150000*%
%ADD11C,2.700000*%
%ADD12R,1.524000X1.524000*%
%ADD13C,1.524000*%
%ADD14C,1.550000*%
%ADD15C,1.700000*%
%ADD16C,2.000000*%
%ADD17C,1.150000*%
%ADD18C,0.889000*%
%ADD19C,2.030000*%
%ADD20C,0.500000*%
%ADD21C,0.254000*%
G04 APERTURE END LIST*
D10*
D11*
X144566000Y-108204000D03*
X144566000Y-113284000D03*
X144566000Y-118364000D03*
X144566000Y-123444000D03*
X144566000Y-128364000D03*
X109220000Y-151170000D03*
X104140000Y-151170000D03*
X99060000Y-151170000D03*
X93980000Y-151170000D03*
X132080000Y-151170000D03*
X127000000Y-151170000D03*
X121920000Y-151170000D03*
X116840000Y-151170000D03*
D12*
X110236000Y-112268000D03*
D13*
X110236000Y-114808000D03*
X110236000Y-117348000D03*
D12*
X108712000Y-125476000D03*
D13*
X108712000Y-128016000D03*
X108712000Y-130556000D03*
D11*
X92456000Y-106386000D03*
X97536000Y-106386000D03*
X102616000Y-106386000D03*
X107696000Y-106386000D03*
D14*
X114300000Y-136020000D03*
D15*
X116840000Y-136020000D03*
D16*
X127000000Y-136020000D03*
X134620000Y-136020000D03*
D15*
X114300000Y-127384000D03*
X116840000Y-127384000D03*
D16*
X127000000Y-127384000D03*
X134620000Y-127384000D03*
D15*
X114300000Y-119256000D03*
D14*
X116840000Y-119256000D03*
D16*
X127000000Y-119256000D03*
X134620000Y-119256000D03*
D15*
X114300000Y-110112000D03*
X116840000Y-110112000D03*
D16*
X127000000Y-110112000D03*
X134620000Y-110112000D03*
D17*
X93908000Y-133455000D03*
X93908000Y-135572200D03*
X93908000Y-137689300D03*
X93908000Y-139806400D03*
X91458000Y-134513600D03*
X91458000Y-136630700D03*
X91458000Y-138747800D03*
X91458000Y-140865000D03*
X93908000Y-115675000D03*
X93908000Y-117792200D03*
X93908000Y-119909300D03*
X93908000Y-122026400D03*
X91458000Y-116733600D03*
X91458000Y-118850700D03*
X91458000Y-120967800D03*
X91458000Y-123085000D03*
D18*
X104497000Y-136485700D03*
X101761000Y-141112400D03*
X107108000Y-121217900D03*
X109336600Y-143690400D03*
X107108000Y-118016700D03*
X113788600Y-139300000D03*
X103785500Y-124800700D03*
X102178100Y-142585200D03*
X107946200Y-139613100D03*
D19*
X131956000Y-105156000D02*
X127000000Y-110112000D01*
X136144000Y-105156000D02*
X131956000Y-105156000D01*
X139192000Y-108204000D02*
X136144000Y-105156000D01*
X144566000Y-108204000D02*
X139192000Y-108204000D01*
X127000000Y-127384000D02*
X127000000Y-136020000D01*
X127000000Y-119256000D02*
X127000000Y-127384000D01*
X127000000Y-110112000D02*
X127000000Y-119256000D01*
X137792000Y-113284000D02*
X134620000Y-110112000D01*
X144566000Y-113284000D02*
X137792000Y-113284000D01*
X135512000Y-118364000D02*
X134620000Y-119256000D01*
X144566000Y-118364000D02*
X135512000Y-118364000D01*
X138560000Y-123444000D02*
X134620000Y-127384000D01*
X144566000Y-123444000D02*
X138560000Y-123444000D01*
X142276000Y-128364000D02*
X134620000Y-136020000D01*
X144566000Y-128364000D02*
X142276000Y-128364000D01*
D20*
X109106400Y-126738000D02*
X108712000Y-126738000D01*
X116840000Y-134471600D02*
X109106400Y-126738000D01*
X116840000Y-136020000D02*
X116840000Y-134471600D01*
X108712000Y-125476000D02*
X108712000Y-126738000D01*
X114300000Y-110744000D02*
X110236000Y-114808000D01*
X114300000Y-110112000D02*
X114300000Y-110744000D01*
X104660000Y-108430000D02*
X102616000Y-106386000D01*
X104660000Y-136322700D02*
X104660000Y-108430000D01*
X104497000Y-136485700D02*
X104660000Y-136322700D01*
X101761000Y-115691000D02*
X92456000Y-106386000D01*
X101761000Y-141112400D02*
X101761000Y-115691000D01*
X109336600Y-136785300D02*
X109336600Y-143690400D01*
X107108000Y-134556700D02*
X109336600Y-136785300D01*
X107108000Y-121217900D02*
X107108000Y-134556700D01*
X94883400Y-132479600D02*
X93908000Y-133455000D01*
X94883400Y-116650400D02*
X94883400Y-132479600D01*
X93908000Y-115675000D02*
X94883400Y-116650400D01*
X107472700Y-118016700D02*
X107108000Y-118016700D01*
X116840000Y-127384000D02*
X107472700Y-118016700D01*
X91458000Y-124710000D02*
X91458000Y-134513600D01*
X90471200Y-123723200D02*
X91458000Y-124710000D01*
X90471200Y-117720400D02*
X90471200Y-123723200D01*
X91458000Y-116733600D02*
X90471200Y-117720400D01*
X92924100Y-118925400D02*
X93908000Y-119909300D01*
X92924100Y-115173900D02*
X92924100Y-118925400D01*
X93401100Y-114696900D02*
X92924100Y-115173900D01*
X94418900Y-114696900D02*
X93401100Y-114696900D01*
X95568900Y-115846900D02*
X94418900Y-114696900D01*
X95568900Y-136028400D02*
X95568900Y-115846900D01*
X93908000Y-137689300D02*
X95568900Y-136028400D01*
X92444300Y-137761500D02*
X91458000Y-138747800D01*
X92444300Y-121954100D02*
X92444300Y-137761500D01*
X91458000Y-120967800D02*
X92444300Y-121954100D01*
X128627400Y-147717400D02*
X132080000Y-151170000D01*
X121188500Y-147717400D02*
X128627400Y-147717400D01*
X113788600Y-140317500D02*
X121188500Y-147717400D01*
X113788600Y-139300000D02*
X113788600Y-140317500D01*
X102806000Y-141957300D02*
X102178100Y-142585200D01*
X102806000Y-125780200D02*
X102806000Y-141957300D01*
X103785500Y-124800700D02*
X102806000Y-125780200D01*
X107946200Y-142283800D02*
X107946200Y-139613100D01*
X99060000Y-151170000D02*
X107946200Y-142283800D01*
D21*
G36*
X91559300Y-123191590D02*
X91472142Y-123278747D01*
X91458000Y-123264605D01*
X91443857Y-123278747D01*
X91356200Y-123191090D01*
X91356200Y-122978910D01*
X91443857Y-122891252D01*
X91458000Y-122905395D01*
X91472142Y-122891252D01*
X91559300Y-122978410D01*
X91559300Y-123191590D01*
X91559300Y-123191590D01*
G37*
X91559300Y-123191590D02*
X91472142Y-123278747D01*
X91458000Y-123264605D01*
X91443857Y-123278747D01*
X91356200Y-123191090D01*
X91356200Y-122978910D01*
X91443857Y-122891252D01*
X91458000Y-122905395D01*
X91472142Y-122891252D01*
X91559300Y-122978410D01*
X91559300Y-123191590D01*
G36*
X93301682Y-120967703D02*
X93223486Y-121000014D01*
X92982429Y-121240649D01*
X92668036Y-120926256D01*
X92668209Y-120728172D01*
X92484386Y-120283286D01*
X92144305Y-119942610D01*
X92077256Y-119914769D01*
X92122982Y-119695287D01*
X91458000Y-119030305D01*
X91443857Y-119044447D01*
X91356200Y-118956790D01*
X91356200Y-118744610D01*
X91443857Y-118656952D01*
X91458000Y-118671095D01*
X91472142Y-118656952D01*
X91651747Y-118836557D01*
X91637605Y-118850700D01*
X92218197Y-119431292D01*
X92218198Y-119431293D01*
X92298310Y-119551190D01*
X92697963Y-119950843D01*
X92697791Y-120148928D01*
X92881614Y-120593814D01*
X93221695Y-120934490D01*
X93301682Y-120967703D01*
X93301682Y-120967703D01*
G37*
X93301682Y-120967703D02*
X93223486Y-121000014D01*
X92982429Y-121240649D01*
X92668036Y-120926256D01*
X92668209Y-120728172D01*
X92484386Y-120283286D01*
X92144305Y-119942610D01*
X92077256Y-119914769D01*
X92122982Y-119695287D01*
X91458000Y-119030305D01*
X91443857Y-119044447D01*
X91356200Y-118956790D01*
X91356200Y-118744610D01*
X91443857Y-118656952D01*
X91458000Y-118671095D01*
X91472142Y-118656952D01*
X91651747Y-118836557D01*
X91637605Y-118850700D01*
X92218197Y-119431292D01*
X92218198Y-119431293D01*
X92298310Y-119551190D01*
X92697963Y-119950843D01*
X92697791Y-120148928D01*
X92881614Y-120593814D01*
X93221695Y-120934490D01*
X93301682Y-120967703D01*
G36*
X136525000Y-157353000D02*
X128993737Y-157353000D01*
X128993737Y-151518045D01*
X128975164Y-150728582D01*
X128708782Y-150085478D01*
X128405593Y-149944012D01*
X128225988Y-150123617D01*
X128225988Y-149764407D01*
X128084522Y-149461218D01*
X127348045Y-149176263D01*
X126558582Y-149194836D01*
X125915478Y-149461218D01*
X125774012Y-149764407D01*
X127000000Y-150990395D01*
X128225988Y-149764407D01*
X128225988Y-150123617D01*
X127179605Y-151170000D01*
X128405593Y-152395988D01*
X128708782Y-152254522D01*
X128993737Y-151518045D01*
X128993737Y-157353000D01*
X128225988Y-157353000D01*
X128225988Y-152575593D01*
X127000000Y-151349605D01*
X126820395Y-151529210D01*
X126820395Y-151170000D01*
X125594407Y-149944012D01*
X125291218Y-150085478D01*
X125006263Y-150821955D01*
X125024836Y-151611418D01*
X125291218Y-152254522D01*
X125594407Y-152395988D01*
X126820395Y-151170000D01*
X126820395Y-151529210D01*
X125774012Y-152575593D01*
X125915478Y-152878782D01*
X126651955Y-153163737D01*
X127441418Y-153145164D01*
X128084522Y-152878782D01*
X128225988Y-152575593D01*
X128225988Y-157353000D01*
X123905343Y-157353000D01*
X123905343Y-150776891D01*
X123603782Y-150047057D01*
X123045880Y-149488181D01*
X122316573Y-149185346D01*
X121526891Y-149184657D01*
X120797057Y-149486218D01*
X120238181Y-150044120D01*
X119935346Y-150773427D01*
X119934657Y-151563109D01*
X120236218Y-152292943D01*
X120794120Y-152851819D01*
X121523427Y-153154654D01*
X122313109Y-153155343D01*
X123042943Y-152853782D01*
X123601819Y-152295880D01*
X123904654Y-151566573D01*
X123905343Y-150776891D01*
X123905343Y-157353000D01*
X118833737Y-157353000D01*
X118833737Y-151518045D01*
X118815164Y-150728582D01*
X118548782Y-150085478D01*
X118245593Y-149944012D01*
X118065988Y-150123617D01*
X118065988Y-149764407D01*
X117924522Y-149461218D01*
X117188045Y-149176263D01*
X116398582Y-149194836D01*
X115755478Y-149461218D01*
X115614012Y-149764407D01*
X116840000Y-150990395D01*
X118065988Y-149764407D01*
X118065988Y-150123617D01*
X117019605Y-151170000D01*
X118245593Y-152395988D01*
X118548782Y-152254522D01*
X118833737Y-151518045D01*
X118833737Y-157353000D01*
X118065988Y-157353000D01*
X118065988Y-152575593D01*
X116840000Y-151349605D01*
X116660395Y-151529210D01*
X116660395Y-151170000D01*
X115434407Y-149944012D01*
X115131218Y-150085478D01*
X114846263Y-150821955D01*
X114864836Y-151611418D01*
X115131218Y-152254522D01*
X115434407Y-152395988D01*
X116660395Y-151170000D01*
X116660395Y-151529210D01*
X115614012Y-152575593D01*
X115755478Y-152878782D01*
X116491955Y-153163737D01*
X117281418Y-153145164D01*
X117924522Y-152878782D01*
X118065988Y-152575593D01*
X118065988Y-157353000D01*
X111205343Y-157353000D01*
X111205343Y-150776891D01*
X110903782Y-150047057D01*
X110345880Y-149488181D01*
X109616573Y-149185346D01*
X108826891Y-149184657D01*
X108097057Y-149486218D01*
X107538181Y-150044120D01*
X107235346Y-150773427D01*
X107234657Y-151563109D01*
X107536218Y-152292943D01*
X108094120Y-152851819D01*
X108823427Y-153154654D01*
X109613109Y-153155343D01*
X110342943Y-152853782D01*
X110901819Y-152295880D01*
X111204654Y-151566573D01*
X111205343Y-150776891D01*
X111205343Y-157353000D01*
X106133737Y-157353000D01*
X106133737Y-151518045D01*
X106115164Y-150728582D01*
X105848782Y-150085478D01*
X105545593Y-149944012D01*
X105365988Y-150123617D01*
X105365988Y-149764407D01*
X105224522Y-149461218D01*
X104488045Y-149176263D01*
X103698582Y-149194836D01*
X103055478Y-149461218D01*
X102914012Y-149764407D01*
X104140000Y-150990395D01*
X105365988Y-149764407D01*
X105365988Y-150123617D01*
X104319605Y-151170000D01*
X105545593Y-152395988D01*
X105848782Y-152254522D01*
X106133737Y-151518045D01*
X106133737Y-157353000D01*
X105365988Y-157353000D01*
X105365988Y-152575593D01*
X104140000Y-151349605D01*
X103960395Y-151529210D01*
X103960395Y-151170000D01*
X102734407Y-149944012D01*
X102431218Y-150085478D01*
X102146263Y-150821955D01*
X102164836Y-151611418D01*
X102431218Y-152254522D01*
X102734407Y-152395988D01*
X103960395Y-151170000D01*
X103960395Y-151529210D01*
X102914012Y-152575593D01*
X103055478Y-152878782D01*
X103791955Y-153163737D01*
X104581418Y-153145164D01*
X105224522Y-152878782D01*
X105365988Y-152575593D01*
X105365988Y-157353000D01*
X96453900Y-157353000D01*
X96453900Y-136028400D01*
X96453900Y-115846900D01*
X96386533Y-115508225D01*
X96194690Y-115221110D01*
X96194686Y-115221107D01*
X95044690Y-114071110D01*
X94757575Y-113879267D01*
X94701384Y-113868089D01*
X94418900Y-113811899D01*
X94418894Y-113811900D01*
X93401100Y-113811900D01*
X93401099Y-113811900D01*
X93062425Y-113879267D01*
X92775310Y-114071110D01*
X92775307Y-114071113D01*
X92298310Y-114548110D01*
X92106467Y-114835225D01*
X92095289Y-114891415D01*
X92039099Y-115173900D01*
X92039100Y-115173905D01*
X92039100Y-115664725D01*
X91699740Y-115523811D01*
X91218372Y-115523391D01*
X91043283Y-115595736D01*
X91043283Y-111556205D01*
X90794893Y-110955057D01*
X90335362Y-110494723D01*
X89734648Y-110245285D01*
X89084205Y-110244717D01*
X88483057Y-110493107D01*
X88022723Y-110952638D01*
X87773285Y-111553352D01*
X87772717Y-112203795D01*
X88021107Y-112804943D01*
X88480638Y-113265277D01*
X89081352Y-113514715D01*
X89731795Y-113515283D01*
X90332943Y-113266893D01*
X90793277Y-112807362D01*
X91042715Y-112206648D01*
X91043283Y-111556205D01*
X91043283Y-115595736D01*
X90773486Y-115707214D01*
X90432810Y-116047295D01*
X90248211Y-116491860D01*
X90248036Y-116691984D01*
X89845410Y-117094610D01*
X89653567Y-117381725D01*
X89642389Y-117437915D01*
X89586199Y-117720400D01*
X89586200Y-117720405D01*
X89586200Y-123723194D01*
X89586199Y-123723200D01*
X89642389Y-124005684D01*
X89653567Y-124061875D01*
X89845410Y-124348990D01*
X90573000Y-125076579D01*
X90573000Y-125732776D01*
X90335362Y-125494723D01*
X89734648Y-125245285D01*
X89084205Y-125244717D01*
X88483057Y-125493107D01*
X88022723Y-125952638D01*
X87773285Y-126553352D01*
X87772717Y-127203795D01*
X88021107Y-127804943D01*
X88480638Y-128265277D01*
X88491296Y-128269702D01*
X88483057Y-128273107D01*
X88022723Y-128732638D01*
X87773285Y-129333352D01*
X87772717Y-129983795D01*
X88021107Y-130584943D01*
X88480638Y-131045277D01*
X89081352Y-131294715D01*
X89731795Y-131295283D01*
X90332943Y-131046893D01*
X90573000Y-130807254D01*
X90573000Y-133687349D01*
X90432810Y-133827295D01*
X90248211Y-134271860D01*
X90247791Y-134753228D01*
X90431614Y-135198114D01*
X90771695Y-135538790D01*
X90838743Y-135566630D01*
X90793018Y-135786113D01*
X91458000Y-136451095D01*
X91472142Y-136436952D01*
X91559300Y-136524110D01*
X91559300Y-136737290D01*
X91472142Y-136824447D01*
X91458000Y-136810305D01*
X91278395Y-136989910D01*
X91278395Y-136630700D01*
X90613413Y-135965718D01*
X90390566Y-136012144D01*
X90235108Y-136467719D01*
X90265826Y-136948105D01*
X90390566Y-137249256D01*
X90613413Y-137295682D01*
X91278395Y-136630700D01*
X91278395Y-136989910D01*
X90793018Y-137475287D01*
X90838681Y-137694475D01*
X90773486Y-137721414D01*
X90432810Y-138061495D01*
X90248211Y-138506060D01*
X90247791Y-138987428D01*
X90431614Y-139432314D01*
X90771695Y-139772990D01*
X90838762Y-139800838D01*
X90793018Y-140020413D01*
X91458000Y-140685395D01*
X92122982Y-140020413D01*
X92077298Y-139801132D01*
X92142514Y-139774186D01*
X92483190Y-139434105D01*
X92667789Y-138989540D01*
X92667963Y-138789415D01*
X92982501Y-138474877D01*
X93221695Y-138714490D01*
X93301682Y-138747703D01*
X93223486Y-138780014D01*
X92882810Y-139120095D01*
X92698211Y-139564660D01*
X92697791Y-140046028D01*
X92881614Y-140490914D01*
X93221695Y-140831590D01*
X93666260Y-141016189D01*
X94147628Y-141016609D01*
X94592514Y-140832786D01*
X94933190Y-140492705D01*
X95117789Y-140048140D01*
X95118209Y-139566772D01*
X94934386Y-139121886D01*
X94594305Y-138781210D01*
X94514317Y-138747996D01*
X94592514Y-138715686D01*
X94933190Y-138375605D01*
X95117789Y-137931040D01*
X95117963Y-137730916D01*
X96194686Y-136654192D01*
X96194689Y-136654190D01*
X96194690Y-136654190D01*
X96386533Y-136367075D01*
X96453900Y-136028400D01*
X96453900Y-157353000D01*
X95973737Y-157353000D01*
X95973737Y-151518045D01*
X95955164Y-150728582D01*
X95688782Y-150085478D01*
X95385593Y-149944012D01*
X95205988Y-150123617D01*
X95205988Y-149764407D01*
X95064522Y-149461218D01*
X94328045Y-149176263D01*
X93538582Y-149194836D01*
X92895478Y-149461218D01*
X92754012Y-149764407D01*
X93980000Y-150990395D01*
X95205988Y-149764407D01*
X95205988Y-150123617D01*
X94159605Y-151170000D01*
X95385593Y-152395988D01*
X95688782Y-152254522D01*
X95973737Y-151518045D01*
X95973737Y-157353000D01*
X95205988Y-157353000D01*
X95205988Y-152575593D01*
X93980000Y-151349605D01*
X93800395Y-151529210D01*
X93800395Y-151170000D01*
X92680892Y-150050497D01*
X92680892Y-141027981D01*
X92650174Y-140547595D01*
X92525434Y-140246444D01*
X92302587Y-140200018D01*
X91637605Y-140865000D01*
X92302587Y-141529982D01*
X92525434Y-141483556D01*
X92680892Y-141027981D01*
X92680892Y-150050497D01*
X92574407Y-149944012D01*
X92271218Y-150085478D01*
X92122982Y-150468599D01*
X92122982Y-141709587D01*
X91458000Y-141044605D01*
X91278395Y-141224210D01*
X91278395Y-140865000D01*
X90613413Y-140200018D01*
X90390566Y-140246444D01*
X90235108Y-140702019D01*
X90265826Y-141182405D01*
X90390566Y-141483556D01*
X90613413Y-141529982D01*
X91278395Y-140865000D01*
X91278395Y-141224210D01*
X90793018Y-141709587D01*
X90839444Y-141932434D01*
X91295019Y-142087892D01*
X91775405Y-142057174D01*
X92076556Y-141932434D01*
X92122982Y-141709587D01*
X92122982Y-150468599D01*
X91986263Y-150821955D01*
X92004836Y-151611418D01*
X92271218Y-152254522D01*
X92574407Y-152395988D01*
X93800395Y-151170000D01*
X93800395Y-151529210D01*
X92754012Y-152575593D01*
X92895478Y-152878782D01*
X93631955Y-153163737D01*
X94421418Y-153145164D01*
X95064522Y-152878782D01*
X95205988Y-152575593D01*
X95205988Y-157353000D01*
X91043283Y-157353000D01*
X91043283Y-144336205D01*
X90794893Y-143735057D01*
X90335362Y-143274723D01*
X89734648Y-143025285D01*
X89084205Y-143024717D01*
X88483057Y-143273107D01*
X88022723Y-143732638D01*
X87773285Y-144333352D01*
X87772717Y-144983795D01*
X88021107Y-145584943D01*
X88480638Y-146045277D01*
X89081352Y-146294715D01*
X89731795Y-146295283D01*
X90332943Y-146046893D01*
X90793277Y-145587362D01*
X91042715Y-144986648D01*
X91043283Y-144336205D01*
X91043283Y-157353000D01*
X87553000Y-157353000D01*
X87553000Y-100203000D01*
X117729000Y-100203000D01*
X117729000Y-109042156D01*
X117625563Y-108938539D01*
X117116702Y-108727242D01*
X116565715Y-108726761D01*
X116056486Y-108937170D01*
X115666539Y-109326437D01*
X115570023Y-109558872D01*
X115474830Y-109328486D01*
X115085563Y-108938539D01*
X114576702Y-108727242D01*
X114025715Y-108726761D01*
X113516486Y-108937170D01*
X113126539Y-109326437D01*
X112915242Y-109835298D01*
X112914761Y-110386285D01*
X113058430Y-110733990D01*
X111633110Y-112159310D01*
X111633110Y-111380245D01*
X111536641Y-111146771D01*
X111358168Y-110967987D01*
X111124864Y-110871111D01*
X110872245Y-110870890D01*
X109689737Y-110870890D01*
X109689737Y-106734045D01*
X109671164Y-105944582D01*
X109404782Y-105301478D01*
X109101593Y-105160012D01*
X108921988Y-105339617D01*
X108921988Y-104980407D01*
X108780522Y-104677218D01*
X108044045Y-104392263D01*
X107254582Y-104410836D01*
X106611478Y-104677218D01*
X106470012Y-104980407D01*
X107696000Y-106206395D01*
X108921988Y-104980407D01*
X108921988Y-105339617D01*
X107875605Y-106386000D01*
X109101593Y-107611988D01*
X109404782Y-107470522D01*
X109689737Y-106734045D01*
X109689737Y-110870890D01*
X109348245Y-110870890D01*
X109114771Y-110967359D01*
X108935987Y-111145832D01*
X108921988Y-111179545D01*
X108921988Y-107791593D01*
X107696000Y-106565605D01*
X107516395Y-106745210D01*
X107516395Y-106386000D01*
X106290407Y-105160012D01*
X105987218Y-105301478D01*
X105702263Y-106037955D01*
X105720836Y-106827418D01*
X105987218Y-107470522D01*
X106290407Y-107611988D01*
X107516395Y-106386000D01*
X107516395Y-106745210D01*
X106470012Y-107791593D01*
X106611478Y-108094782D01*
X107347955Y-108379737D01*
X108137418Y-108361164D01*
X108780522Y-108094782D01*
X108921988Y-107791593D01*
X108921988Y-111179545D01*
X108839111Y-111379136D01*
X108838890Y-111631755D01*
X108838890Y-113155755D01*
X108935359Y-113389229D01*
X109113832Y-113568013D01*
X109347136Y-113664889D01*
X109403676Y-113664938D01*
X109052372Y-114015630D01*
X108839244Y-114528901D01*
X108838759Y-115084661D01*
X109050991Y-115598303D01*
X109443630Y-115991628D01*
X109635730Y-116071394D01*
X109504858Y-116125604D01*
X109435393Y-116367788D01*
X110236000Y-117168395D01*
X111036607Y-116367788D01*
X110967142Y-116125604D01*
X110826678Y-116075491D01*
X111026303Y-115993009D01*
X111419628Y-115600370D01*
X111632756Y-115087099D01*
X111633126Y-114662453D01*
X114925786Y-111369792D01*
X114925789Y-111369790D01*
X114925790Y-111369790D01*
X114942210Y-111345215D01*
X115083514Y-111286830D01*
X115473461Y-110897563D01*
X115569976Y-110665127D01*
X115665170Y-110895514D01*
X116054437Y-111285461D01*
X116563298Y-111496758D01*
X117114285Y-111497239D01*
X117623514Y-111286830D01*
X117729000Y-111181527D01*
X117729000Y-118186156D01*
X117625563Y-118082539D01*
X117116702Y-117871242D01*
X116565715Y-117870761D01*
X116056486Y-118081170D01*
X115666539Y-118470437D01*
X115576621Y-118686982D01*
X115512458Y-118532078D01*
X115271517Y-118464088D01*
X115091912Y-118643693D01*
X115091912Y-118284483D01*
X115023922Y-118043542D01*
X114504830Y-117858802D01*
X113954554Y-117886772D01*
X113576078Y-118043542D01*
X113508088Y-118284483D01*
X114300000Y-119076395D01*
X115091912Y-118284483D01*
X115091912Y-118643693D01*
X114479605Y-119256000D01*
X115271517Y-120047912D01*
X115512458Y-119979922D01*
X115571730Y-119813373D01*
X115665170Y-120039514D01*
X116054437Y-120429461D01*
X116563298Y-120640758D01*
X117114285Y-120641239D01*
X117623514Y-120430830D01*
X117729000Y-120325527D01*
X117729000Y-126314156D01*
X117625563Y-126210539D01*
X117116702Y-125999242D01*
X116706462Y-125998883D01*
X115091912Y-124384332D01*
X115091912Y-120227517D01*
X114300000Y-119435605D01*
X114120395Y-119615210D01*
X114120395Y-119256000D01*
X113328483Y-118464088D01*
X113087542Y-118532078D01*
X112902802Y-119051170D01*
X112930772Y-119601446D01*
X113087542Y-119979922D01*
X113328483Y-120047912D01*
X114120395Y-119256000D01*
X114120395Y-119615210D01*
X113508088Y-120227517D01*
X113576078Y-120468458D01*
X114095170Y-120653198D01*
X114645446Y-120625228D01*
X115023922Y-120468458D01*
X115091912Y-120227517D01*
X115091912Y-124384332D01*
X111645143Y-120937563D01*
X111645143Y-117555696D01*
X111617360Y-117000631D01*
X111458396Y-116616858D01*
X111216212Y-116547393D01*
X110415605Y-117348000D01*
X111216212Y-118148607D01*
X111458396Y-118079142D01*
X111645143Y-117555696D01*
X111645143Y-120937563D01*
X111036607Y-120329027D01*
X111036607Y-118328212D01*
X110236000Y-117527605D01*
X110056395Y-117707210D01*
X110056395Y-117348000D01*
X109255788Y-116547393D01*
X109013604Y-116616858D01*
X108826857Y-117140304D01*
X108854640Y-117695369D01*
X109013604Y-118079142D01*
X109255788Y-118148607D01*
X110056395Y-117348000D01*
X110056395Y-117707210D01*
X109435393Y-118328212D01*
X109504858Y-118570396D01*
X110028304Y-118757143D01*
X110583369Y-118729360D01*
X110967142Y-118570396D01*
X111036607Y-118328212D01*
X111036607Y-120329027D01*
X108098490Y-117390910D01*
X107828587Y-117210568D01*
X107828585Y-117210566D01*
X107720286Y-117102078D01*
X107323668Y-116937387D01*
X106894216Y-116937013D01*
X106497311Y-117101011D01*
X106193378Y-117404414D01*
X106028687Y-117801032D01*
X106028313Y-118230484D01*
X106192311Y-118627389D01*
X106495714Y-118931322D01*
X106892332Y-119096013D01*
X107300788Y-119096368D01*
X114203336Y-125998916D01*
X114025715Y-125998761D01*
X113516486Y-126209170D01*
X113126539Y-126598437D01*
X112915242Y-127107298D01*
X112914761Y-127658285D01*
X113125170Y-128167514D01*
X113514437Y-128557461D01*
X114023298Y-128768758D01*
X114574285Y-128769239D01*
X115083514Y-128558830D01*
X115473461Y-128169563D01*
X115569976Y-127937127D01*
X115665170Y-128167514D01*
X116054437Y-128557461D01*
X116563298Y-128768758D01*
X117114285Y-128769239D01*
X117623514Y-128558830D01*
X117729000Y-128453527D01*
X117729000Y-134950156D01*
X117725000Y-134946149D01*
X117725000Y-134471605D01*
X117725000Y-134471600D01*
X117725001Y-134471600D01*
X117668810Y-134189115D01*
X117657633Y-134132926D01*
X117657633Y-134132925D01*
X117465790Y-133845810D01*
X117465786Y-133845807D01*
X110072493Y-126452513D01*
X110108889Y-126364864D01*
X110109110Y-126112245D01*
X110109110Y-124588245D01*
X110012641Y-124354771D01*
X109834168Y-124175987D01*
X109600864Y-124079111D01*
X109348245Y-124078890D01*
X107993000Y-124078890D01*
X107993000Y-121859756D01*
X108022622Y-121830186D01*
X108187313Y-121433568D01*
X108187687Y-121004116D01*
X108023689Y-120607211D01*
X107720286Y-120303278D01*
X107323668Y-120138587D01*
X106894216Y-120138213D01*
X106497311Y-120302211D01*
X106193378Y-120605614D01*
X106028687Y-121002232D01*
X106028313Y-121431684D01*
X106192311Y-121828589D01*
X106223000Y-121859331D01*
X106223000Y-134556694D01*
X106222999Y-134556700D01*
X106279189Y-134839184D01*
X106290367Y-134895375D01*
X106482210Y-135182490D01*
X108451600Y-137151879D01*
X108451600Y-138654094D01*
X108161868Y-138533787D01*
X107732416Y-138533413D01*
X107335511Y-138697411D01*
X107031578Y-139000814D01*
X106866887Y-139397432D01*
X106866513Y-139826884D01*
X107030511Y-140223789D01*
X107061200Y-140254531D01*
X107061200Y-141917220D01*
X105576687Y-143401732D01*
X105576687Y-136271916D01*
X105545000Y-136195227D01*
X105545000Y-108430000D01*
X105477633Y-108091325D01*
X105285790Y-107804210D01*
X105285786Y-107804207D01*
X104501922Y-107020343D01*
X104600654Y-106782573D01*
X104601343Y-105992891D01*
X104299782Y-105263057D01*
X103741880Y-104704181D01*
X103012573Y-104401346D01*
X102222891Y-104400657D01*
X101493057Y-104702218D01*
X100934181Y-105260120D01*
X100631346Y-105989427D01*
X100630657Y-106779109D01*
X100932218Y-107508943D01*
X101490120Y-108067819D01*
X102219427Y-108370654D01*
X103009109Y-108371343D01*
X103250162Y-108271741D01*
X103775000Y-108796579D01*
X103775000Y-123721190D01*
X103571716Y-123721013D01*
X103174811Y-123885011D01*
X102870878Y-124188414D01*
X102706187Y-124585032D01*
X102706149Y-124628471D01*
X102646000Y-124688620D01*
X102646000Y-115691005D01*
X102646000Y-115691000D01*
X102646001Y-115691000D01*
X102578633Y-115352325D01*
X102386790Y-115065210D01*
X102386786Y-115065207D01*
X99529737Y-112208157D01*
X99529737Y-106734045D01*
X99511164Y-105944582D01*
X99244782Y-105301478D01*
X98941593Y-105160012D01*
X98761988Y-105339617D01*
X98761988Y-104980407D01*
X98620522Y-104677218D01*
X97884045Y-104392263D01*
X97094582Y-104410836D01*
X96451478Y-104677218D01*
X96310012Y-104980407D01*
X97536000Y-106206395D01*
X98761988Y-104980407D01*
X98761988Y-105339617D01*
X97715605Y-106386000D01*
X98941593Y-107611988D01*
X99244782Y-107470522D01*
X99529737Y-106734045D01*
X99529737Y-112208157D01*
X98761988Y-111440408D01*
X98761988Y-107791593D01*
X97536000Y-106565605D01*
X97356395Y-106745210D01*
X97356395Y-106386000D01*
X96130407Y-105160012D01*
X95827218Y-105301478D01*
X95542263Y-106037955D01*
X95560836Y-106827418D01*
X95827218Y-107470522D01*
X96130407Y-107611988D01*
X97356395Y-106386000D01*
X97356395Y-106745210D01*
X96310012Y-107791593D01*
X96451478Y-108094782D01*
X97187955Y-108379737D01*
X97977418Y-108361164D01*
X98620522Y-108094782D01*
X98761988Y-107791593D01*
X98761988Y-111440408D01*
X94341923Y-107020343D01*
X94440654Y-106782573D01*
X94441343Y-105992891D01*
X94139782Y-105263057D01*
X93581880Y-104704181D01*
X92852573Y-104401346D01*
X92062891Y-104400657D01*
X91333057Y-104702218D01*
X90774181Y-105260120D01*
X90471346Y-105989427D01*
X90470657Y-106779109D01*
X90772218Y-107508943D01*
X91330120Y-108067819D01*
X92059427Y-108370654D01*
X92849109Y-108371343D01*
X93090162Y-108271741D01*
X100876000Y-116057579D01*
X100876000Y-140470543D01*
X100846378Y-140500114D01*
X100681687Y-140896732D01*
X100681313Y-141326184D01*
X100845311Y-141723089D01*
X101148714Y-142027022D01*
X101227436Y-142059710D01*
X101098787Y-142369532D01*
X101098413Y-142798984D01*
X101262411Y-143195889D01*
X101565814Y-143499822D01*
X101962432Y-143664513D01*
X102391884Y-143664887D01*
X102788789Y-143500889D01*
X103092722Y-143197486D01*
X103257413Y-142800868D01*
X103257450Y-142757428D01*
X103431786Y-142583092D01*
X103431789Y-142583090D01*
X103431790Y-142583090D01*
X103623633Y-142295975D01*
X103691000Y-141957300D01*
X103691000Y-137206269D01*
X103884714Y-137400322D01*
X104281332Y-137565013D01*
X104710784Y-137565387D01*
X105107689Y-137401389D01*
X105411622Y-137097986D01*
X105576313Y-136701368D01*
X105576687Y-136271916D01*
X105576687Y-143401732D01*
X99694343Y-149284076D01*
X99456573Y-149185346D01*
X98666891Y-149184657D01*
X97937057Y-149486218D01*
X97378181Y-150044120D01*
X97075346Y-150773427D01*
X97074657Y-151563109D01*
X97376218Y-152292943D01*
X97934120Y-152851819D01*
X98663427Y-153154654D01*
X99453109Y-153155343D01*
X100182943Y-152853782D01*
X100741819Y-152295880D01*
X101044654Y-151566573D01*
X101045343Y-150776891D01*
X100945741Y-150535837D01*
X108451600Y-143029979D01*
X108451600Y-143048543D01*
X108421978Y-143078114D01*
X108257287Y-143474732D01*
X108256913Y-143904184D01*
X108420911Y-144301089D01*
X108724314Y-144605022D01*
X109120932Y-144769713D01*
X109550384Y-144770087D01*
X109947289Y-144606089D01*
X110251222Y-144302686D01*
X110415913Y-143906068D01*
X110416287Y-143476616D01*
X110252289Y-143079711D01*
X110221600Y-143048968D01*
X110221600Y-136785300D01*
X110154233Y-136446625D01*
X110121143Y-136397102D01*
X110121143Y-130763696D01*
X110093360Y-130208631D01*
X109934396Y-129824858D01*
X109692212Y-129755393D01*
X108891605Y-130556000D01*
X109692212Y-131356607D01*
X109934396Y-131287142D01*
X110121143Y-130763696D01*
X110121143Y-136397102D01*
X109962390Y-136159510D01*
X109962386Y-136159507D01*
X107993000Y-134190120D01*
X107993000Y-131782727D01*
X108504304Y-131965143D01*
X109059369Y-131937360D01*
X109443142Y-131778396D01*
X109512607Y-131536212D01*
X108712000Y-130735605D01*
X108697857Y-130749747D01*
X108518252Y-130570142D01*
X108532395Y-130556000D01*
X108518252Y-130541857D01*
X108697857Y-130362252D01*
X108712000Y-130376395D01*
X109512607Y-129575788D01*
X109443142Y-129333604D01*
X109302678Y-129283491D01*
X109502303Y-129201009D01*
X109895628Y-128808370D01*
X109904301Y-128787481D01*
X115955000Y-134838179D01*
X115955000Y-134946479D01*
X115666539Y-135234437D01*
X115576621Y-135450982D01*
X115512458Y-135296078D01*
X115271517Y-135228088D01*
X115091912Y-135407693D01*
X115091912Y-135048483D01*
X115023922Y-134807542D01*
X114504830Y-134622802D01*
X113954554Y-134650772D01*
X113576078Y-134807542D01*
X113508088Y-135048483D01*
X114300000Y-135840395D01*
X115091912Y-135048483D01*
X115091912Y-135407693D01*
X114479605Y-136020000D01*
X115271517Y-136811912D01*
X115512458Y-136743922D01*
X115571730Y-136577373D01*
X115665170Y-136803514D01*
X116054437Y-137193461D01*
X116563298Y-137404758D01*
X117114285Y-137405239D01*
X117623514Y-137194830D01*
X117729000Y-137089527D01*
X117729000Y-143006320D01*
X115091912Y-140369232D01*
X115091912Y-136991517D01*
X114300000Y-136199605D01*
X114120395Y-136379210D01*
X114120395Y-136020000D01*
X113328483Y-135228088D01*
X113087542Y-135296078D01*
X112902802Y-135815170D01*
X112930772Y-136365446D01*
X113087542Y-136743922D01*
X113328483Y-136811912D01*
X114120395Y-136020000D01*
X114120395Y-136379210D01*
X113508088Y-136991517D01*
X113576078Y-137232458D01*
X114095170Y-137417198D01*
X114645446Y-137389228D01*
X115023922Y-137232458D01*
X115091912Y-136991517D01*
X115091912Y-140369232D01*
X114673600Y-139950920D01*
X114673600Y-139941856D01*
X114703222Y-139912286D01*
X114867913Y-139515668D01*
X114868287Y-139086216D01*
X114704289Y-138689311D01*
X114400886Y-138385378D01*
X114004268Y-138220687D01*
X113574816Y-138220313D01*
X113177911Y-138384311D01*
X112873978Y-138687714D01*
X112709287Y-139084332D01*
X112708913Y-139513784D01*
X112872911Y-139910689D01*
X112903600Y-139941431D01*
X112903600Y-140317494D01*
X112903599Y-140317500D01*
X112959789Y-140599984D01*
X112970967Y-140656175D01*
X113162810Y-140943290D01*
X117729000Y-145509479D01*
X117729000Y-147447000D01*
X119666520Y-147447000D01*
X120562707Y-148343186D01*
X120562710Y-148343190D01*
X120849825Y-148535033D01*
X121188499Y-148602400D01*
X121188499Y-148602399D01*
X121188500Y-148602400D01*
X128260820Y-148602400D01*
X130194077Y-150535656D01*
X130095346Y-150773427D01*
X130094657Y-151563109D01*
X130396218Y-152292943D01*
X130954120Y-152851819D01*
X131683427Y-153154654D01*
X132473109Y-153155343D01*
X133202943Y-152853782D01*
X133761819Y-152295880D01*
X134064654Y-151566573D01*
X134065343Y-150776891D01*
X133763782Y-150047057D01*
X133205880Y-149488181D01*
X132476573Y-149185346D01*
X131686891Y-149184657D01*
X131445837Y-149284258D01*
X129608579Y-147447000D01*
X136525000Y-147447000D01*
X136525000Y-157353000D01*
X136525000Y-157353000D01*
G37*
X136525000Y-157353000D02*
X128993737Y-157353000D01*
X128993737Y-151518045D01*
X128975164Y-150728582D01*
X128708782Y-150085478D01*
X128405593Y-149944012D01*
X128225988Y-150123617D01*
X128225988Y-149764407D01*
X128084522Y-149461218D01*
X127348045Y-149176263D01*
X126558582Y-149194836D01*
X125915478Y-149461218D01*
X125774012Y-149764407D01*
X127000000Y-150990395D01*
X128225988Y-149764407D01*
X128225988Y-150123617D01*
X127179605Y-151170000D01*
X128405593Y-152395988D01*
X128708782Y-152254522D01*
X128993737Y-151518045D01*
X128993737Y-157353000D01*
X128225988Y-157353000D01*
X128225988Y-152575593D01*
X127000000Y-151349605D01*
X126820395Y-151529210D01*
X126820395Y-151170000D01*
X125594407Y-149944012D01*
X125291218Y-150085478D01*
X125006263Y-150821955D01*
X125024836Y-151611418D01*
X125291218Y-152254522D01*
X125594407Y-152395988D01*
X126820395Y-151170000D01*
X126820395Y-151529210D01*
X125774012Y-152575593D01*
X125915478Y-152878782D01*
X126651955Y-153163737D01*
X127441418Y-153145164D01*
X128084522Y-152878782D01*
X128225988Y-152575593D01*
X128225988Y-157353000D01*
X123905343Y-157353000D01*
X123905343Y-150776891D01*
X123603782Y-150047057D01*
X123045880Y-149488181D01*
X122316573Y-149185346D01*
X121526891Y-149184657D01*
X120797057Y-149486218D01*
X120238181Y-150044120D01*
X119935346Y-150773427D01*
X119934657Y-151563109D01*
X120236218Y-152292943D01*
X120794120Y-152851819D01*
X121523427Y-153154654D01*
X122313109Y-153155343D01*
X123042943Y-152853782D01*
X123601819Y-152295880D01*
X123904654Y-151566573D01*
X123905343Y-150776891D01*
X123905343Y-157353000D01*
X118833737Y-157353000D01*
X118833737Y-151518045D01*
X118815164Y-150728582D01*
X118548782Y-150085478D01*
X118245593Y-149944012D01*
X118065988Y-150123617D01*
X118065988Y-149764407D01*
X117924522Y-149461218D01*
X117188045Y-149176263D01*
X116398582Y-149194836D01*
X115755478Y-149461218D01*
X115614012Y-149764407D01*
X116840000Y-150990395D01*
X118065988Y-149764407D01*
X118065988Y-150123617D01*
X117019605Y-151170000D01*
X118245593Y-152395988D01*
X118548782Y-152254522D01*
X118833737Y-151518045D01*
X118833737Y-157353000D01*
X118065988Y-157353000D01*
X118065988Y-152575593D01*
X116840000Y-151349605D01*
X116660395Y-151529210D01*
X116660395Y-151170000D01*
X115434407Y-149944012D01*
X115131218Y-150085478D01*
X114846263Y-150821955D01*
X114864836Y-151611418D01*
X115131218Y-152254522D01*
X115434407Y-152395988D01*
X116660395Y-151170000D01*
X116660395Y-151529210D01*
X115614012Y-152575593D01*
X115755478Y-152878782D01*
X116491955Y-153163737D01*
X117281418Y-153145164D01*
X117924522Y-152878782D01*
X118065988Y-152575593D01*
X118065988Y-157353000D01*
X111205343Y-157353000D01*
X111205343Y-150776891D01*
X110903782Y-150047057D01*
X110345880Y-149488181D01*
X109616573Y-149185346D01*
X108826891Y-149184657D01*
X108097057Y-149486218D01*
X107538181Y-150044120D01*
X107235346Y-150773427D01*
X107234657Y-151563109D01*
X107536218Y-152292943D01*
X108094120Y-152851819D01*
X108823427Y-153154654D01*
X109613109Y-153155343D01*
X110342943Y-152853782D01*
X110901819Y-152295880D01*
X111204654Y-151566573D01*
X111205343Y-150776891D01*
X111205343Y-157353000D01*
X106133737Y-157353000D01*
X106133737Y-151518045D01*
X106115164Y-150728582D01*
X105848782Y-150085478D01*
X105545593Y-149944012D01*
X105365988Y-150123617D01*
X105365988Y-149764407D01*
X105224522Y-149461218D01*
X104488045Y-149176263D01*
X103698582Y-149194836D01*
X103055478Y-149461218D01*
X102914012Y-149764407D01*
X104140000Y-150990395D01*
X105365988Y-149764407D01*
X105365988Y-150123617D01*
X104319605Y-151170000D01*
X105545593Y-152395988D01*
X105848782Y-152254522D01*
X106133737Y-151518045D01*
X106133737Y-157353000D01*
X105365988Y-157353000D01*
X105365988Y-152575593D01*
X104140000Y-151349605D01*
X103960395Y-151529210D01*
X103960395Y-151170000D01*
X102734407Y-149944012D01*
X102431218Y-150085478D01*
X102146263Y-150821955D01*
X102164836Y-151611418D01*
X102431218Y-152254522D01*
X102734407Y-152395988D01*
X103960395Y-151170000D01*
X103960395Y-151529210D01*
X102914012Y-152575593D01*
X103055478Y-152878782D01*
X103791955Y-153163737D01*
X104581418Y-153145164D01*
X105224522Y-152878782D01*
X105365988Y-152575593D01*
X105365988Y-157353000D01*
X96453900Y-157353000D01*
X96453900Y-136028400D01*
X96453900Y-115846900D01*
X96386533Y-115508225D01*
X96194690Y-115221110D01*
X96194686Y-115221107D01*
X95044690Y-114071110D01*
X94757575Y-113879267D01*
X94701384Y-113868089D01*
X94418900Y-113811899D01*
X94418894Y-113811900D01*
X93401100Y-113811900D01*
X93401099Y-113811900D01*
X93062425Y-113879267D01*
X92775310Y-114071110D01*
X92775307Y-114071113D01*
X92298310Y-114548110D01*
X92106467Y-114835225D01*
X92095289Y-114891415D01*
X92039099Y-115173900D01*
X92039100Y-115173905D01*
X92039100Y-115664725D01*
X91699740Y-115523811D01*
X91218372Y-115523391D01*
X91043283Y-115595736D01*
X91043283Y-111556205D01*
X90794893Y-110955057D01*
X90335362Y-110494723D01*
X89734648Y-110245285D01*
X89084205Y-110244717D01*
X88483057Y-110493107D01*
X88022723Y-110952638D01*
X87773285Y-111553352D01*
X87772717Y-112203795D01*
X88021107Y-112804943D01*
X88480638Y-113265277D01*
X89081352Y-113514715D01*
X89731795Y-113515283D01*
X90332943Y-113266893D01*
X90793277Y-112807362D01*
X91042715Y-112206648D01*
X91043283Y-111556205D01*
X91043283Y-115595736D01*
X90773486Y-115707214D01*
X90432810Y-116047295D01*
X90248211Y-116491860D01*
X90248036Y-116691984D01*
X89845410Y-117094610D01*
X89653567Y-117381725D01*
X89642389Y-117437915D01*
X89586199Y-117720400D01*
X89586200Y-117720405D01*
X89586200Y-123723194D01*
X89586199Y-123723200D01*
X89642389Y-124005684D01*
X89653567Y-124061875D01*
X89845410Y-124348990D01*
X90573000Y-125076579D01*
X90573000Y-125732776D01*
X90335362Y-125494723D01*
X89734648Y-125245285D01*
X89084205Y-125244717D01*
X88483057Y-125493107D01*
X88022723Y-125952638D01*
X87773285Y-126553352D01*
X87772717Y-127203795D01*
X88021107Y-127804943D01*
X88480638Y-128265277D01*
X88491296Y-128269702D01*
X88483057Y-128273107D01*
X88022723Y-128732638D01*
X87773285Y-129333352D01*
X87772717Y-129983795D01*
X88021107Y-130584943D01*
X88480638Y-131045277D01*
X89081352Y-131294715D01*
X89731795Y-131295283D01*
X90332943Y-131046893D01*
X90573000Y-130807254D01*
X90573000Y-133687349D01*
X90432810Y-133827295D01*
X90248211Y-134271860D01*
X90247791Y-134753228D01*
X90431614Y-135198114D01*
X90771695Y-135538790D01*
X90838743Y-135566630D01*
X90793018Y-135786113D01*
X91458000Y-136451095D01*
X91472142Y-136436952D01*
X91559300Y-136524110D01*
X91559300Y-136737290D01*
X91472142Y-136824447D01*
X91458000Y-136810305D01*
X91278395Y-136989910D01*
X91278395Y-136630700D01*
X90613413Y-135965718D01*
X90390566Y-136012144D01*
X90235108Y-136467719D01*
X90265826Y-136948105D01*
X90390566Y-137249256D01*
X90613413Y-137295682D01*
X91278395Y-136630700D01*
X91278395Y-136989910D01*
X90793018Y-137475287D01*
X90838681Y-137694475D01*
X90773486Y-137721414D01*
X90432810Y-138061495D01*
X90248211Y-138506060D01*
X90247791Y-138987428D01*
X90431614Y-139432314D01*
X90771695Y-139772990D01*
X90838762Y-139800838D01*
X90793018Y-140020413D01*
X91458000Y-140685395D01*
X92122982Y-140020413D01*
X92077298Y-139801132D01*
X92142514Y-139774186D01*
X92483190Y-139434105D01*
X92667789Y-138989540D01*
X92667963Y-138789415D01*
X92982501Y-138474877D01*
X93221695Y-138714490D01*
X93301682Y-138747703D01*
X93223486Y-138780014D01*
X92882810Y-139120095D01*
X92698211Y-139564660D01*
X92697791Y-140046028D01*
X92881614Y-140490914D01*
X93221695Y-140831590D01*
X93666260Y-141016189D01*
X94147628Y-141016609D01*
X94592514Y-140832786D01*
X94933190Y-140492705D01*
X95117789Y-140048140D01*
X95118209Y-139566772D01*
X94934386Y-139121886D01*
X94594305Y-138781210D01*
X94514317Y-138747996D01*
X94592514Y-138715686D01*
X94933190Y-138375605D01*
X95117789Y-137931040D01*
X95117963Y-137730916D01*
X96194686Y-136654192D01*
X96194689Y-136654190D01*
X96194690Y-136654190D01*
X96386533Y-136367075D01*
X96453900Y-136028400D01*
X96453900Y-157353000D01*
X95973737Y-157353000D01*
X95973737Y-151518045D01*
X95955164Y-150728582D01*
X95688782Y-150085478D01*
X95385593Y-149944012D01*
X95205988Y-150123617D01*
X95205988Y-149764407D01*
X95064522Y-149461218D01*
X94328045Y-149176263D01*
X93538582Y-149194836D01*
X92895478Y-149461218D01*
X92754012Y-149764407D01*
X93980000Y-150990395D01*
X95205988Y-149764407D01*
X95205988Y-150123617D01*
X94159605Y-151170000D01*
X95385593Y-152395988D01*
X95688782Y-152254522D01*
X95973737Y-151518045D01*
X95973737Y-157353000D01*
X95205988Y-157353000D01*
X95205988Y-152575593D01*
X93980000Y-151349605D01*
X93800395Y-151529210D01*
X93800395Y-151170000D01*
X92680892Y-150050497D01*
X92680892Y-141027981D01*
X92650174Y-140547595D01*
X92525434Y-140246444D01*
X92302587Y-140200018D01*
X91637605Y-140865000D01*
X92302587Y-141529982D01*
X92525434Y-141483556D01*
X92680892Y-141027981D01*
X92680892Y-150050497D01*
X92574407Y-149944012D01*
X92271218Y-150085478D01*
X92122982Y-150468599D01*
X92122982Y-141709587D01*
X91458000Y-141044605D01*
X91278395Y-141224210D01*
X91278395Y-140865000D01*
X90613413Y-140200018D01*
X90390566Y-140246444D01*
X90235108Y-140702019D01*
X90265826Y-141182405D01*
X90390566Y-141483556D01*
X90613413Y-141529982D01*
X91278395Y-140865000D01*
X91278395Y-141224210D01*
X90793018Y-141709587D01*
X90839444Y-141932434D01*
X91295019Y-142087892D01*
X91775405Y-142057174D01*
X92076556Y-141932434D01*
X92122982Y-141709587D01*
X92122982Y-150468599D01*
X91986263Y-150821955D01*
X92004836Y-151611418D01*
X92271218Y-152254522D01*
X92574407Y-152395988D01*
X93800395Y-151170000D01*
X93800395Y-151529210D01*
X92754012Y-152575593D01*
X92895478Y-152878782D01*
X93631955Y-153163737D01*
X94421418Y-153145164D01*
X95064522Y-152878782D01*
X95205988Y-152575593D01*
X95205988Y-157353000D01*
X91043283Y-157353000D01*
X91043283Y-144336205D01*
X90794893Y-143735057D01*
X90335362Y-143274723D01*
X89734648Y-143025285D01*
X89084205Y-143024717D01*
X88483057Y-143273107D01*
X88022723Y-143732638D01*
X87773285Y-144333352D01*
X87772717Y-144983795D01*
X88021107Y-145584943D01*
X88480638Y-146045277D01*
X89081352Y-146294715D01*
X89731795Y-146295283D01*
X90332943Y-146046893D01*
X90793277Y-145587362D01*
X91042715Y-144986648D01*
X91043283Y-144336205D01*
X91043283Y-157353000D01*
X87553000Y-157353000D01*
X87553000Y-100203000D01*
X117729000Y-100203000D01*
X117729000Y-109042156D01*
X117625563Y-108938539D01*
X117116702Y-108727242D01*
X116565715Y-108726761D01*
X116056486Y-108937170D01*
X115666539Y-109326437D01*
X115570023Y-109558872D01*
X115474830Y-109328486D01*
X115085563Y-108938539D01*
X114576702Y-108727242D01*
X114025715Y-108726761D01*
X113516486Y-108937170D01*
X113126539Y-109326437D01*
X112915242Y-109835298D01*
X112914761Y-110386285D01*
X113058430Y-110733990D01*
X111633110Y-112159310D01*
X111633110Y-111380245D01*
X111536641Y-111146771D01*
X111358168Y-110967987D01*
X111124864Y-110871111D01*
X110872245Y-110870890D01*
X109689737Y-110870890D01*
X109689737Y-106734045D01*
X109671164Y-105944582D01*
X109404782Y-105301478D01*
X109101593Y-105160012D01*
X108921988Y-105339617D01*
X108921988Y-104980407D01*
X108780522Y-104677218D01*
X108044045Y-104392263D01*
X107254582Y-104410836D01*
X106611478Y-104677218D01*
X106470012Y-104980407D01*
X107696000Y-106206395D01*
X108921988Y-104980407D01*
X108921988Y-105339617D01*
X107875605Y-106386000D01*
X109101593Y-107611988D01*
X109404782Y-107470522D01*
X109689737Y-106734045D01*
X109689737Y-110870890D01*
X109348245Y-110870890D01*
X109114771Y-110967359D01*
X108935987Y-111145832D01*
X108921988Y-111179545D01*
X108921988Y-107791593D01*
X107696000Y-106565605D01*
X107516395Y-106745210D01*
X107516395Y-106386000D01*
X106290407Y-105160012D01*
X105987218Y-105301478D01*
X105702263Y-106037955D01*
X105720836Y-106827418D01*
X105987218Y-107470522D01*
X106290407Y-107611988D01*
X107516395Y-106386000D01*
X107516395Y-106745210D01*
X106470012Y-107791593D01*
X106611478Y-108094782D01*
X107347955Y-108379737D01*
X108137418Y-108361164D01*
X108780522Y-108094782D01*
X108921988Y-107791593D01*
X108921988Y-111179545D01*
X108839111Y-111379136D01*
X108838890Y-111631755D01*
X108838890Y-113155755D01*
X108935359Y-113389229D01*
X109113832Y-113568013D01*
X109347136Y-113664889D01*
X109403676Y-113664938D01*
X109052372Y-114015630D01*
X108839244Y-114528901D01*
X108838759Y-115084661D01*
X109050991Y-115598303D01*
X109443630Y-115991628D01*
X109635730Y-116071394D01*
X109504858Y-116125604D01*
X109435393Y-116367788D01*
X110236000Y-117168395D01*
X111036607Y-116367788D01*
X110967142Y-116125604D01*
X110826678Y-116075491D01*
X111026303Y-115993009D01*
X111419628Y-115600370D01*
X111632756Y-115087099D01*
X111633126Y-114662453D01*
X114925786Y-111369792D01*
X114925789Y-111369790D01*
X114925790Y-111369790D01*
X114942210Y-111345215D01*
X115083514Y-111286830D01*
X115473461Y-110897563D01*
X115569976Y-110665127D01*
X115665170Y-110895514D01*
X116054437Y-111285461D01*
X116563298Y-111496758D01*
X117114285Y-111497239D01*
X117623514Y-111286830D01*
X117729000Y-111181527D01*
X117729000Y-118186156D01*
X117625563Y-118082539D01*
X117116702Y-117871242D01*
X116565715Y-117870761D01*
X116056486Y-118081170D01*
X115666539Y-118470437D01*
X115576621Y-118686982D01*
X115512458Y-118532078D01*
X115271517Y-118464088D01*
X115091912Y-118643693D01*
X115091912Y-118284483D01*
X115023922Y-118043542D01*
X114504830Y-117858802D01*
X113954554Y-117886772D01*
X113576078Y-118043542D01*
X113508088Y-118284483D01*
X114300000Y-119076395D01*
X115091912Y-118284483D01*
X115091912Y-118643693D01*
X114479605Y-119256000D01*
X115271517Y-120047912D01*
X115512458Y-119979922D01*
X115571730Y-119813373D01*
X115665170Y-120039514D01*
X116054437Y-120429461D01*
X116563298Y-120640758D01*
X117114285Y-120641239D01*
X117623514Y-120430830D01*
X117729000Y-120325527D01*
X117729000Y-126314156D01*
X117625563Y-126210539D01*
X117116702Y-125999242D01*
X116706462Y-125998883D01*
X115091912Y-124384332D01*
X115091912Y-120227517D01*
X114300000Y-119435605D01*
X114120395Y-119615210D01*
X114120395Y-119256000D01*
X113328483Y-118464088D01*
X113087542Y-118532078D01*
X112902802Y-119051170D01*
X112930772Y-119601446D01*
X113087542Y-119979922D01*
X113328483Y-120047912D01*
X114120395Y-119256000D01*
X114120395Y-119615210D01*
X113508088Y-120227517D01*
X113576078Y-120468458D01*
X114095170Y-120653198D01*
X114645446Y-120625228D01*
X115023922Y-120468458D01*
X115091912Y-120227517D01*
X115091912Y-124384332D01*
X111645143Y-120937563D01*
X111645143Y-117555696D01*
X111617360Y-117000631D01*
X111458396Y-116616858D01*
X111216212Y-116547393D01*
X110415605Y-117348000D01*
X111216212Y-118148607D01*
X111458396Y-118079142D01*
X111645143Y-117555696D01*
X111645143Y-120937563D01*
X111036607Y-120329027D01*
X111036607Y-118328212D01*
X110236000Y-117527605D01*
X110056395Y-117707210D01*
X110056395Y-117348000D01*
X109255788Y-116547393D01*
X109013604Y-116616858D01*
X108826857Y-117140304D01*
X108854640Y-117695369D01*
X109013604Y-118079142D01*
X109255788Y-118148607D01*
X110056395Y-117348000D01*
X110056395Y-117707210D01*
X109435393Y-118328212D01*
X109504858Y-118570396D01*
X110028304Y-118757143D01*
X110583369Y-118729360D01*
X110967142Y-118570396D01*
X111036607Y-118328212D01*
X111036607Y-120329027D01*
X108098490Y-117390910D01*
X107828587Y-117210568D01*
X107828585Y-117210566D01*
X107720286Y-117102078D01*
X107323668Y-116937387D01*
X106894216Y-116937013D01*
X106497311Y-117101011D01*
X106193378Y-117404414D01*
X106028687Y-117801032D01*
X106028313Y-118230484D01*
X106192311Y-118627389D01*
X106495714Y-118931322D01*
X106892332Y-119096013D01*
X107300788Y-119096368D01*
X114203336Y-125998916D01*
X114025715Y-125998761D01*
X113516486Y-126209170D01*
X113126539Y-126598437D01*
X112915242Y-127107298D01*
X112914761Y-127658285D01*
X113125170Y-128167514D01*
X113514437Y-128557461D01*
X114023298Y-128768758D01*
X114574285Y-128769239D01*
X115083514Y-128558830D01*
X115473461Y-128169563D01*
X115569976Y-127937127D01*
X115665170Y-128167514D01*
X116054437Y-128557461D01*
X116563298Y-128768758D01*
X117114285Y-128769239D01*
X117623514Y-128558830D01*
X117729000Y-128453527D01*
X117729000Y-134950156D01*
X117725000Y-134946149D01*
X117725000Y-134471605D01*
X117725000Y-134471600D01*
X117725001Y-134471600D01*
X117668810Y-134189115D01*
X117657633Y-134132926D01*
X117657633Y-134132925D01*
X117465790Y-133845810D01*
X117465786Y-133845807D01*
X110072493Y-126452513D01*
X110108889Y-126364864D01*
X110109110Y-126112245D01*
X110109110Y-124588245D01*
X110012641Y-124354771D01*
X109834168Y-124175987D01*
X109600864Y-124079111D01*
X109348245Y-124078890D01*
X107993000Y-124078890D01*
X107993000Y-121859756D01*
X108022622Y-121830186D01*
X108187313Y-121433568D01*
X108187687Y-121004116D01*
X108023689Y-120607211D01*
X107720286Y-120303278D01*
X107323668Y-120138587D01*
X106894216Y-120138213D01*
X106497311Y-120302211D01*
X106193378Y-120605614D01*
X106028687Y-121002232D01*
X106028313Y-121431684D01*
X106192311Y-121828589D01*
X106223000Y-121859331D01*
X106223000Y-134556694D01*
X106222999Y-134556700D01*
X106279189Y-134839184D01*
X106290367Y-134895375D01*
X106482210Y-135182490D01*
X108451600Y-137151879D01*
X108451600Y-138654094D01*
X108161868Y-138533787D01*
X107732416Y-138533413D01*
X107335511Y-138697411D01*
X107031578Y-139000814D01*
X106866887Y-139397432D01*
X106866513Y-139826884D01*
X107030511Y-140223789D01*
X107061200Y-140254531D01*
X107061200Y-141917220D01*
X105576687Y-143401732D01*
X105576687Y-136271916D01*
X105545000Y-136195227D01*
X105545000Y-108430000D01*
X105477633Y-108091325D01*
X105285790Y-107804210D01*
X105285786Y-107804207D01*
X104501922Y-107020343D01*
X104600654Y-106782573D01*
X104601343Y-105992891D01*
X104299782Y-105263057D01*
X103741880Y-104704181D01*
X103012573Y-104401346D01*
X102222891Y-104400657D01*
X101493057Y-104702218D01*
X100934181Y-105260120D01*
X100631346Y-105989427D01*
X100630657Y-106779109D01*
X100932218Y-107508943D01*
X101490120Y-108067819D01*
X102219427Y-108370654D01*
X103009109Y-108371343D01*
X103250162Y-108271741D01*
X103775000Y-108796579D01*
X103775000Y-123721190D01*
X103571716Y-123721013D01*
X103174811Y-123885011D01*
X102870878Y-124188414D01*
X102706187Y-124585032D01*
X102706149Y-124628471D01*
X102646000Y-124688620D01*
X102646000Y-115691005D01*
X102646000Y-115691000D01*
X102646001Y-115691000D01*
X102578633Y-115352325D01*
X102386790Y-115065210D01*
X102386786Y-115065207D01*
X99529737Y-112208157D01*
X99529737Y-106734045D01*
X99511164Y-105944582D01*
X99244782Y-105301478D01*
X98941593Y-105160012D01*
X98761988Y-105339617D01*
X98761988Y-104980407D01*
X98620522Y-104677218D01*
X97884045Y-104392263D01*
X97094582Y-104410836D01*
X96451478Y-104677218D01*
X96310012Y-104980407D01*
X97536000Y-106206395D01*
X98761988Y-104980407D01*
X98761988Y-105339617D01*
X97715605Y-106386000D01*
X98941593Y-107611988D01*
X99244782Y-107470522D01*
X99529737Y-106734045D01*
X99529737Y-112208157D01*
X98761988Y-111440408D01*
X98761988Y-107791593D01*
X97536000Y-106565605D01*
X97356395Y-106745210D01*
X97356395Y-106386000D01*
X96130407Y-105160012D01*
X95827218Y-105301478D01*
X95542263Y-106037955D01*
X95560836Y-106827418D01*
X95827218Y-107470522D01*
X96130407Y-107611988D01*
X97356395Y-106386000D01*
X97356395Y-106745210D01*
X96310012Y-107791593D01*
X96451478Y-108094782D01*
X97187955Y-108379737D01*
X97977418Y-108361164D01*
X98620522Y-108094782D01*
X98761988Y-107791593D01*
X98761988Y-111440408D01*
X94341923Y-107020343D01*
X94440654Y-106782573D01*
X94441343Y-105992891D01*
X94139782Y-105263057D01*
X93581880Y-104704181D01*
X92852573Y-104401346D01*
X92062891Y-104400657D01*
X91333057Y-104702218D01*
X90774181Y-105260120D01*
X90471346Y-105989427D01*
X90470657Y-106779109D01*
X90772218Y-107508943D01*
X91330120Y-108067819D01*
X92059427Y-108370654D01*
X92849109Y-108371343D01*
X93090162Y-108271741D01*
X100876000Y-116057579D01*
X100876000Y-140470543D01*
X100846378Y-140500114D01*
X100681687Y-140896732D01*
X100681313Y-141326184D01*
X100845311Y-141723089D01*
X101148714Y-142027022D01*
X101227436Y-142059710D01*
X101098787Y-142369532D01*
X101098413Y-142798984D01*
X101262411Y-143195889D01*
X101565814Y-143499822D01*
X101962432Y-143664513D01*
X102391884Y-143664887D01*
X102788789Y-143500889D01*
X103092722Y-143197486D01*
X103257413Y-142800868D01*
X103257450Y-142757428D01*
X103431786Y-142583092D01*
X103431789Y-142583090D01*
X103431790Y-142583090D01*
X103623633Y-142295975D01*
X103691000Y-141957300D01*
X103691000Y-137206269D01*
X103884714Y-137400322D01*
X104281332Y-137565013D01*
X104710784Y-137565387D01*
X105107689Y-137401389D01*
X105411622Y-137097986D01*
X105576313Y-136701368D01*
X105576687Y-136271916D01*
X105576687Y-143401732D01*
X99694343Y-149284076D01*
X99456573Y-149185346D01*
X98666891Y-149184657D01*
X97937057Y-149486218D01*
X97378181Y-150044120D01*
X97075346Y-150773427D01*
X97074657Y-151563109D01*
X97376218Y-152292943D01*
X97934120Y-152851819D01*
X98663427Y-153154654D01*
X99453109Y-153155343D01*
X100182943Y-152853782D01*
X100741819Y-152295880D01*
X101044654Y-151566573D01*
X101045343Y-150776891D01*
X100945741Y-150535837D01*
X108451600Y-143029979D01*
X108451600Y-143048543D01*
X108421978Y-143078114D01*
X108257287Y-143474732D01*
X108256913Y-143904184D01*
X108420911Y-144301089D01*
X108724314Y-144605022D01*
X109120932Y-144769713D01*
X109550384Y-144770087D01*
X109947289Y-144606089D01*
X110251222Y-144302686D01*
X110415913Y-143906068D01*
X110416287Y-143476616D01*
X110252289Y-143079711D01*
X110221600Y-143048968D01*
X110221600Y-136785300D01*
X110154233Y-136446625D01*
X110121143Y-136397102D01*
X110121143Y-130763696D01*
X110093360Y-130208631D01*
X109934396Y-129824858D01*
X109692212Y-129755393D01*
X108891605Y-130556000D01*
X109692212Y-131356607D01*
X109934396Y-131287142D01*
X110121143Y-130763696D01*
X110121143Y-136397102D01*
X109962390Y-136159510D01*
X109962386Y-136159507D01*
X107993000Y-134190120D01*
X107993000Y-131782727D01*
X108504304Y-131965143D01*
X109059369Y-131937360D01*
X109443142Y-131778396D01*
X109512607Y-131536212D01*
X108712000Y-130735605D01*
X108697857Y-130749747D01*
X108518252Y-130570142D01*
X108532395Y-130556000D01*
X108518252Y-130541857D01*
X108697857Y-130362252D01*
X108712000Y-130376395D01*
X109512607Y-129575788D01*
X109443142Y-129333604D01*
X109302678Y-129283491D01*
X109502303Y-129201009D01*
X109895628Y-128808370D01*
X109904301Y-128787481D01*
X115955000Y-134838179D01*
X115955000Y-134946479D01*
X115666539Y-135234437D01*
X115576621Y-135450982D01*
X115512458Y-135296078D01*
X115271517Y-135228088D01*
X115091912Y-135407693D01*
X115091912Y-135048483D01*
X115023922Y-134807542D01*
X114504830Y-134622802D01*
X113954554Y-134650772D01*
X113576078Y-134807542D01*
X113508088Y-135048483D01*
X114300000Y-135840395D01*
X115091912Y-135048483D01*
X115091912Y-135407693D01*
X114479605Y-136020000D01*
X115271517Y-136811912D01*
X115512458Y-136743922D01*
X115571730Y-136577373D01*
X115665170Y-136803514D01*
X116054437Y-137193461D01*
X116563298Y-137404758D01*
X117114285Y-137405239D01*
X117623514Y-137194830D01*
X117729000Y-137089527D01*
X117729000Y-143006320D01*
X115091912Y-140369232D01*
X115091912Y-136991517D01*
X114300000Y-136199605D01*
X114120395Y-136379210D01*
X114120395Y-136020000D01*
X113328483Y-135228088D01*
X113087542Y-135296078D01*
X112902802Y-135815170D01*
X112930772Y-136365446D01*
X113087542Y-136743922D01*
X113328483Y-136811912D01*
X114120395Y-136020000D01*
X114120395Y-136379210D01*
X113508088Y-136991517D01*
X113576078Y-137232458D01*
X114095170Y-137417198D01*
X114645446Y-137389228D01*
X115023922Y-137232458D01*
X115091912Y-136991517D01*
X115091912Y-140369232D01*
X114673600Y-139950920D01*
X114673600Y-139941856D01*
X114703222Y-139912286D01*
X114867913Y-139515668D01*
X114868287Y-139086216D01*
X114704289Y-138689311D01*
X114400886Y-138385378D01*
X114004268Y-138220687D01*
X113574816Y-138220313D01*
X113177911Y-138384311D01*
X112873978Y-138687714D01*
X112709287Y-139084332D01*
X112708913Y-139513784D01*
X112872911Y-139910689D01*
X112903600Y-139941431D01*
X112903600Y-140317494D01*
X112903599Y-140317500D01*
X112959789Y-140599984D01*
X112970967Y-140656175D01*
X113162810Y-140943290D01*
X117729000Y-145509479D01*
X117729000Y-147447000D01*
X119666520Y-147447000D01*
X120562707Y-148343186D01*
X120562710Y-148343190D01*
X120849825Y-148535033D01*
X121188499Y-148602400D01*
X121188499Y-148602399D01*
X121188500Y-148602400D01*
X128260820Y-148602400D01*
X130194077Y-150535656D01*
X130095346Y-150773427D01*
X130094657Y-151563109D01*
X130396218Y-152292943D01*
X130954120Y-152851819D01*
X131683427Y-153154654D01*
X132473109Y-153155343D01*
X133202943Y-152853782D01*
X133761819Y-152295880D01*
X134064654Y-151566573D01*
X134065343Y-150776891D01*
X133763782Y-150047057D01*
X133205880Y-149488181D01*
X132476573Y-149185346D01*
X131686891Y-149184657D01*
X131445837Y-149284258D01*
X129608579Y-147447000D01*
X136525000Y-147447000D01*
X136525000Y-157353000D01*
M02*
