G04 #@! TF.FileFunction,Soldermask,Bot*
%FSLAX46Y46*%
G04 Gerber Fmt 4.6, Leading zero omitted, Abs format (unit mm)*
G04 Created by KiCad (PCBNEW 4.0.1-stable) date 8/05/2016 3:47:28 PM*
%MOMM*%
G01*
G04 APERTURE LIST*
%ADD10C,0.150000*%
%ADD11C,2.900000*%
%ADD12R,1.724000X1.724000*%
%ADD13C,1.724000*%
%ADD14C,1.750000*%
%ADD15C,1.900000*%
%ADD16C,2.200000*%
%ADD17C,1.350000*%
G04 APERTURE END LIST*
D10*
D11*
X144566000Y-108204000D03*
X144566000Y-113284000D03*
X144566000Y-118364000D03*
X144566000Y-123444000D03*
X144566000Y-128364000D03*
X109220000Y-151170000D03*
X104140000Y-151170000D03*
X99060000Y-151170000D03*
X93980000Y-151170000D03*
X132080000Y-151170000D03*
X127000000Y-151170000D03*
X121920000Y-151170000D03*
X116840000Y-151170000D03*
D12*
X110236000Y-112268000D03*
D13*
X110236000Y-114808000D03*
X110236000Y-117348000D03*
D12*
X108712000Y-125476000D03*
D13*
X108712000Y-128016000D03*
X108712000Y-130556000D03*
D11*
X92456000Y-106386000D03*
X97536000Y-106386000D03*
X102616000Y-106386000D03*
X107696000Y-106386000D03*
D14*
X114300000Y-136020000D03*
D15*
X116840000Y-136020000D03*
D16*
X127000000Y-136020000D03*
X134620000Y-136020000D03*
D15*
X114300000Y-127384000D03*
X116840000Y-127384000D03*
D16*
X127000000Y-127384000D03*
X134620000Y-127384000D03*
D15*
X114300000Y-119256000D03*
D14*
X116840000Y-119256000D03*
D16*
X127000000Y-119256000D03*
X134620000Y-119256000D03*
D15*
X114300000Y-110112000D03*
X116840000Y-110112000D03*
D16*
X127000000Y-110112000D03*
X134620000Y-110112000D03*
X89408000Y-129660000D03*
X89408000Y-144660000D03*
D17*
X93908000Y-133455000D03*
X93908000Y-135572200D03*
X93908000Y-137689300D03*
X93908000Y-139806400D03*
X91458000Y-134513600D03*
X91458000Y-136630700D03*
X91458000Y-138747800D03*
X91458000Y-140865000D03*
D16*
X89408000Y-111880000D03*
X89408000Y-126880000D03*
D17*
X93908000Y-115675000D03*
X93908000Y-117792200D03*
X93908000Y-119909300D03*
X93908000Y-122026400D03*
X91458000Y-116733600D03*
X91458000Y-118850700D03*
X91458000Y-120967800D03*
X91458000Y-123085000D03*
M02*
