G04 #@! TF.FileFunction,Copper,L1,Top,Signal*
%FSLAX46Y46*%
G04 Gerber Fmt 4.6, Leading zero omitted, Abs format (unit mm)*
G04 Created by KiCad (PCBNEW 4.0.6) date 06/24/17 11:43:18*
%MOMM*%
%LPD*%
G01*
G04 APERTURE LIST*
%ADD10C,0.100000*%
%ADD11C,1.524000*%
%ADD12C,2.200000*%
%ADD13R,1.700000X1.700000*%
%ADD14O,1.700000X1.700000*%
%ADD15C,0.600000*%
%ADD16C,1.000000*%
%ADD17C,0.250000*%
%ADD18C,0.254000*%
G04 APERTURE END LIST*
D10*
D11*
X147955000Y-110490000D03*
X149225000Y-107950000D03*
X150495000Y-110490000D03*
X151765000Y-107950000D03*
X153035000Y-110490000D03*
X154305000Y-107950000D03*
X155575000Y-110490000D03*
X156845000Y-107950000D03*
X161925000Y-110490000D03*
X163195000Y-107950000D03*
X164465000Y-110490000D03*
X165735000Y-107950000D03*
X167005000Y-110490000D03*
X168275000Y-107950000D03*
X169545000Y-110490000D03*
X170815000Y-107950000D03*
X175895000Y-110490000D03*
X177165000Y-107950000D03*
X178435000Y-110490000D03*
X179705000Y-107950000D03*
X180975000Y-110490000D03*
X182245000Y-107950000D03*
X183515000Y-110490000D03*
X184785000Y-107950000D03*
X189865000Y-110490000D03*
X191135000Y-107950000D03*
X192405000Y-110490000D03*
X193675000Y-107950000D03*
X194945000Y-110490000D03*
X196215000Y-107950000D03*
X197485000Y-110490000D03*
X198755000Y-107950000D03*
X156845000Y-101346000D03*
X155575000Y-103886000D03*
X154305000Y-101346000D03*
X153035000Y-103886000D03*
X151765000Y-101346000D03*
X150495000Y-103886000D03*
X149225000Y-101346000D03*
X147955000Y-103886000D03*
X170815000Y-101346000D03*
X169545000Y-103886000D03*
X168275000Y-101346000D03*
X167005000Y-103886000D03*
X165735000Y-101346000D03*
X164465000Y-103886000D03*
X163195000Y-101346000D03*
X161925000Y-103886000D03*
X184785000Y-101346000D03*
X183515000Y-103886000D03*
X182245000Y-101346000D03*
X180975000Y-103886000D03*
X179705000Y-101346000D03*
X178435000Y-103886000D03*
X177165000Y-101346000D03*
X175895000Y-103886000D03*
X198755000Y-101346000D03*
X197485000Y-103886000D03*
X196215000Y-101346000D03*
X194945000Y-103886000D03*
X193675000Y-101346000D03*
X192405000Y-103886000D03*
X191135000Y-101346000D03*
X189865000Y-103886000D03*
D12*
X144655000Y-107690000D03*
X143880000Y-101340000D03*
X143880000Y-121415000D03*
X202830000Y-121415000D03*
X202075000Y-110990000D03*
X202825000Y-105410000D03*
D13*
X157480000Y-82550000D03*
D14*
X157480000Y-80010000D03*
X160020000Y-82550000D03*
X160020000Y-80010000D03*
X162560000Y-82550000D03*
X162560000Y-80010000D03*
X165100000Y-82550000D03*
X165100000Y-80010000D03*
X167640000Y-82550000D03*
X167640000Y-80010000D03*
X170180000Y-82550000D03*
X170180000Y-80010000D03*
X172720000Y-82550000D03*
X172720000Y-80010000D03*
X175260000Y-82550000D03*
X175260000Y-80010000D03*
X177800000Y-82550000D03*
X177800000Y-80010000D03*
X180340000Y-82550000D03*
X180340000Y-80010000D03*
X182880000Y-82550000D03*
X182880000Y-80010000D03*
X185420000Y-82550000D03*
X185420000Y-80010000D03*
X187960000Y-82550000D03*
X187960000Y-80010000D03*
X190500000Y-82550000D03*
X190500000Y-80010000D03*
X193040000Y-82550000D03*
X193040000Y-80010000D03*
D15*
X134683500Y-109601000D03*
X148145500Y-79057500D03*
X141922500Y-82929698D03*
X138176000Y-79946500D03*
X135382000Y-83058000D03*
X130810000Y-84201000D03*
X134937500Y-87947500D03*
X130873500Y-90106500D03*
X133667500Y-93218000D03*
X130619500Y-94996000D03*
X135382000Y-106553000D03*
X134747000Y-103822500D03*
X157861000Y-96139000D03*
X163703000Y-97726500D03*
X162369500Y-96647000D03*
X160147000Y-96202500D03*
X164401500Y-91630500D03*
X162052000Y-91630500D03*
X151066496Y-89281000D03*
X154368500Y-84328000D03*
X152146000Y-86106000D03*
X150558500Y-90551000D03*
X163954900Y-86737000D03*
X172425600Y-115823400D03*
X174831500Y-118222800D03*
X213205600Y-101476700D03*
X162912400Y-118243300D03*
X131742000Y-109420700D03*
X189386400Y-118117600D03*
X177961800Y-121297600D03*
X132548000Y-115738400D03*
X180312600Y-120177800D03*
X145660900Y-119723600D03*
X189847700Y-113716700D03*
X163949200Y-113042100D03*
X207456000Y-109472300D03*
X206393400Y-104204000D03*
X206551000Y-108025700D03*
X163538600Y-113796300D03*
X198380000Y-112898400D03*
X207750600Y-102127600D03*
X208529700Y-108093500D03*
X148187600Y-93081010D03*
X175219100Y-92184600D03*
X177691500Y-92310000D03*
X178242100Y-91448900D03*
X137990700Y-91997600D03*
X174910700Y-90628000D03*
X151665919Y-93227702D03*
X153860500Y-89090500D03*
X173769700Y-90007600D03*
X138243700Y-95536600D03*
X168156100Y-90504800D03*
X169744100Y-90587500D03*
X173153476Y-93979173D03*
X137142800Y-101345300D03*
X183404500Y-92452200D03*
X208189800Y-95414900D03*
X185011100Y-91110100D03*
X207889700Y-91869900D03*
X172484000Y-85090700D03*
X208563400Y-87606700D03*
X181633200Y-106412100D03*
X173616000Y-112233800D03*
X207597900Y-97202200D03*
X182339700Y-113078400D03*
X186856600Y-78878100D03*
X190396500Y-116166900D03*
X162891904Y-88981596D03*
X172193000Y-88256800D03*
X159783600Y-101774100D03*
X179851200Y-106550600D03*
X182377000Y-92217900D03*
X181547600Y-95722500D03*
X179812300Y-93655000D03*
X178009100Y-96583400D03*
X150431874Y-93253978D03*
X172490771Y-93531021D03*
X170829500Y-95909600D03*
X166475100Y-95885000D03*
X171153600Y-98130200D03*
X165829600Y-85127900D03*
X181044800Y-87619700D03*
X179995100Y-87731300D03*
X169154500Y-97701800D03*
X183212400Y-105475300D03*
X182803000Y-86619000D03*
X187784800Y-86543700D03*
X173479900Y-101279900D03*
X150496893Y-94503990D03*
X141159900Y-106011000D03*
X187548200Y-84892800D03*
X147525100Y-90768300D03*
X152161032Y-97139010D03*
X146719900Y-101625500D03*
X144437700Y-90512300D03*
X171338300Y-88168800D03*
X147580000Y-89662800D03*
X145598600Y-89556400D03*
D16*
X133096000Y-108140500D02*
X133223000Y-108140500D01*
X133223000Y-108140500D02*
X134683500Y-109601000D01*
X133350000Y-95758000D02*
X131381500Y-95758000D01*
X145794698Y-79057500D02*
X148145500Y-79057500D01*
X141922500Y-82929698D02*
X145794698Y-79057500D01*
X138176000Y-80264000D02*
X138176000Y-79946500D01*
X135382000Y-83058000D02*
X138176000Y-80264000D01*
X131191000Y-84201000D02*
X130810000Y-84201000D01*
X134937500Y-87947500D02*
X131191000Y-84201000D01*
X130873500Y-90424000D02*
X130873500Y-90106500D01*
X133667500Y-93218000D02*
X130873500Y-90424000D01*
X131381500Y-95758000D02*
X130619500Y-94996000D01*
X175702600Y-99883600D02*
X177165000Y-101346000D01*
X164657400Y-99883600D02*
X175702600Y-99883600D01*
X163195000Y-101346000D02*
X164657400Y-99883600D01*
X189663800Y-99874800D02*
X191135000Y-101346000D01*
X178636200Y-99874800D02*
X189663800Y-99874800D01*
X177165000Y-101346000D02*
X178636200Y-99874800D01*
X162545900Y-100696900D02*
X158343800Y-100696900D01*
X163195000Y-101346000D02*
X162545900Y-100696900D01*
X157509300Y-99862400D02*
X158343800Y-100696900D01*
X150708600Y-99862400D02*
X157509300Y-99862400D01*
X149225000Y-101346000D02*
X150708600Y-99862400D01*
X156396300Y-110490000D02*
X155575000Y-110490000D01*
X158343800Y-108542500D02*
X156396300Y-110490000D01*
X158343800Y-100696900D02*
X158343800Y-108542500D01*
X135382000Y-104457500D02*
X135382000Y-106553000D01*
X134747000Y-103822500D02*
X135382000Y-104457500D01*
X160591500Y-96647000D02*
X162369500Y-96647000D01*
X160147000Y-96202500D02*
X160591500Y-96647000D01*
X149161500Y-96139000D02*
X157861000Y-96139000D01*
X157861000Y-96139000D02*
X157988000Y-96139000D01*
X144979999Y-100240001D02*
X145060499Y-100240001D01*
X143880000Y-101340000D02*
X144979999Y-100240001D01*
X145060499Y-100240001D02*
X149161500Y-96139000D01*
X160591500Y-90551000D02*
X160909000Y-90551000D01*
X160909000Y-90551000D02*
X161988500Y-91630500D01*
X161988500Y-91630500D02*
X162052000Y-91630500D01*
X150558500Y-90551000D02*
X160591500Y-90551000D01*
D17*
X151066496Y-89705264D02*
X151066496Y-89281000D01*
X151066496Y-90043004D02*
X151066496Y-89705264D01*
X150558500Y-90551000D02*
X151066496Y-90043004D01*
X153924000Y-84328000D02*
X154368500Y-84328000D01*
X152146000Y-86106000D02*
X153924000Y-84328000D01*
X193675000Y-101346000D02*
X196215000Y-101346000D01*
X179705000Y-101346000D02*
X182245000Y-101346000D01*
X182245000Y-101346000D02*
X184785000Y-101346000D01*
D16*
X151765000Y-101346000D02*
X154305000Y-101346000D01*
D17*
X194945000Y-110490000D02*
X192405000Y-110490000D01*
X192405000Y-110490000D02*
X189865000Y-110490000D01*
X187325000Y-107950000D02*
X184785000Y-107950000D01*
X189865000Y-110490000D02*
X187325000Y-107950000D01*
X167005000Y-110490000D02*
X164465000Y-110490000D01*
X153035000Y-110490000D02*
X150495000Y-110490000D01*
D16*
X154305000Y-101346000D02*
X156845000Y-101346000D01*
D17*
X178435000Y-110490000D02*
X175895000Y-110490000D01*
X180975000Y-110490000D02*
X178435000Y-110490000D01*
X161925000Y-110490000D02*
X161925000Y-103886000D01*
X164465000Y-110490000D02*
X162902100Y-110490000D01*
X162902100Y-110490000D02*
X161925000Y-110490000D01*
D16*
X165735000Y-101346000D02*
X168275000Y-101346000D01*
D17*
X160943200Y-83725300D02*
X163954900Y-86737000D01*
X160020000Y-83725300D02*
X160943200Y-83725300D01*
X164608300Y-115823400D02*
X172425600Y-115823400D01*
X162902100Y-114117200D02*
X164608300Y-115823400D01*
X162902100Y-110490000D02*
X162902100Y-114117200D01*
X174825000Y-118222800D02*
X172425600Y-115823400D01*
X174831500Y-118222800D02*
X174825000Y-118222800D01*
X173355000Y-103886000D02*
X175895000Y-103886000D01*
X170815000Y-101346000D02*
X173355000Y-103886000D01*
X160020000Y-82550000D02*
X160020000Y-83137600D01*
X160020000Y-83137600D02*
X160020000Y-83725300D01*
X159242900Y-83137600D02*
X158655300Y-82550000D01*
X160020000Y-83137600D02*
X159242900Y-83137600D01*
X157480000Y-82550000D02*
X158655300Y-82550000D01*
X146426000Y-105919000D02*
X144655000Y-107690000D01*
X146426000Y-103886000D02*
X146426000Y-105919000D01*
X147955000Y-103886000D02*
X146426000Y-103886000D01*
X146426000Y-103886000D02*
X143880000Y-101340000D01*
X200285000Y-109200000D02*
X202075000Y-110990000D01*
X200285000Y-107950000D02*
X200285000Y-109200000D01*
X198755000Y-107950000D02*
X200285000Y-107950000D01*
X200285000Y-107950000D02*
X202825000Y-105410000D01*
D16*
X191135000Y-106164100D02*
X191135000Y-107950000D01*
X173609000Y-107950000D02*
X177165000Y-107950000D01*
X169545000Y-103886000D02*
X173609000Y-107950000D01*
X185793100Y-106164100D02*
X183515000Y-103886000D01*
X191135000Y-106164100D02*
X185793100Y-106164100D01*
X167759100Y-105671900D02*
X169545000Y-103886000D01*
X165473100Y-105671900D02*
X167759100Y-105671900D01*
X163195000Y-107950000D02*
X165473100Y-105671900D01*
X195206900Y-106164100D02*
X197485000Y-103886000D01*
X191135000Y-106164100D02*
X195206900Y-106164100D01*
X212835900Y-101107000D02*
X213205600Y-101476700D01*
X204268800Y-101107000D02*
X212835900Y-101107000D01*
X201489800Y-103886000D02*
X204268800Y-101107000D01*
X197485000Y-103886000D02*
X201489800Y-103886000D01*
X151010900Y-106164100D02*
X149225000Y-107950000D01*
X153296900Y-106164100D02*
X151010900Y-106164100D01*
X155575000Y-103886000D02*
X153296900Y-106164100D01*
X148332000Y-107950000D02*
X149225000Y-107950000D01*
X146749500Y-109532500D02*
X148332000Y-107950000D01*
X143263700Y-109532500D02*
X146749500Y-109532500D01*
X136097200Y-102366000D02*
X143263700Y-109532500D01*
X136097200Y-92435700D02*
X136097200Y-102366000D01*
X142906300Y-85626600D02*
X136097200Y-92435700D01*
X148155600Y-85626600D02*
X142906300Y-85626600D01*
X155338500Y-78443700D02*
X148155600Y-85626600D01*
X163533700Y-78443700D02*
X155338500Y-78443700D01*
X165100000Y-80010000D02*
X163533700Y-78443700D01*
D17*
X137071900Y-114750600D02*
X131742000Y-109420700D01*
X159419700Y-114750600D02*
X137071900Y-114750600D01*
X162912400Y-118243300D02*
X159419700Y-114750600D01*
X186206400Y-121297600D02*
X177961800Y-121297600D01*
X189386400Y-118117600D02*
X186206400Y-121297600D01*
X146350600Y-121297600D02*
X177961800Y-121297600D01*
X140791400Y-115738400D02*
X146350600Y-121297600D01*
X132548000Y-115738400D02*
X140791400Y-115738400D01*
X183814500Y-119749900D02*
X180312600Y-119749900D01*
X189847700Y-113716700D02*
X183814500Y-119749900D01*
X180286300Y-119723600D02*
X180312600Y-119749900D01*
X145660900Y-119723600D02*
X180286300Y-119723600D01*
X180312600Y-119749900D02*
X180312600Y-120177800D01*
X204449200Y-112479100D02*
X207456000Y-109472300D01*
X200773400Y-112479100D02*
X204449200Y-112479100D01*
X200087200Y-111792900D02*
X200773400Y-112479100D01*
X177687400Y-111792900D02*
X200087200Y-111792900D01*
X176438200Y-113042100D02*
X177687400Y-111792900D01*
X163949200Y-113042100D02*
X176438200Y-113042100D01*
X206393400Y-107868100D02*
X206551000Y-108025700D01*
X206393400Y-104204000D02*
X206393400Y-107868100D01*
X188838500Y-112898400D02*
X198380000Y-112898400D01*
X187940600Y-113796300D02*
X188838500Y-112898400D01*
X163538600Y-113796300D02*
X187940600Y-113796300D01*
X207750600Y-107314400D02*
X208529700Y-108093500D01*
X207750600Y-102127600D02*
X207750600Y-107314400D01*
X149089645Y-92178965D02*
X148487599Y-92781011D01*
X151542186Y-92178965D02*
X149089645Y-92178965D01*
X152269232Y-92906011D02*
X151542186Y-92178965D01*
X148487599Y-92781011D02*
X148187600Y-93081010D01*
X174497689Y-92906011D02*
X152269232Y-92906011D01*
X175219100Y-92184600D02*
X174497689Y-92906011D01*
X175344500Y-92310000D02*
X175219100Y-92184600D01*
X177691500Y-92310000D02*
X175344500Y-92310000D01*
X137990700Y-91997600D02*
X138290699Y-91697601D01*
X138290699Y-91697601D02*
X151697232Y-91697601D01*
X151697232Y-91697601D02*
X152455631Y-92456000D01*
X173207200Y-92456000D02*
X174910700Y-90752500D01*
X152455631Y-92456000D02*
X173207200Y-92456000D01*
X174910700Y-90628000D02*
X174910700Y-90752500D01*
X177545700Y-90752500D02*
X178242100Y-91448900D01*
X174910700Y-90752500D02*
X177545700Y-90752500D01*
X151067193Y-92628976D02*
X151365920Y-92927703D01*
X150131872Y-92628976D02*
X151067193Y-92628976D01*
X140074288Y-93706012D02*
X149054836Y-93706012D01*
X151365920Y-92927703D02*
X151665919Y-93227702D01*
X138243700Y-95536600D02*
X140074288Y-93706012D01*
X149054836Y-93706012D02*
X150131872Y-92628976D01*
X153987500Y-88963500D02*
X153860500Y-89090500D01*
X168156100Y-90290400D02*
X162680400Y-90290400D01*
X162680400Y-90290400D02*
X161353500Y-88963500D01*
X161353500Y-88963500D02*
X153987500Y-88963500D01*
X168156100Y-90290400D02*
X168156100Y-90504800D01*
X169744100Y-90290400D02*
X169744100Y-90587500D01*
X173486900Y-90290400D02*
X169744100Y-90290400D01*
X173769700Y-90007600D02*
X173486900Y-90290400D01*
X169744100Y-90290400D02*
X168156100Y-90290400D01*
X173153476Y-94541924D02*
X173153476Y-94403437D01*
X150796895Y-93878988D02*
X151850896Y-94932989D01*
X144291612Y-94196488D02*
X149879391Y-94196488D01*
X173153476Y-94403437D02*
X173153476Y-93979173D01*
X151850896Y-94932989D02*
X167674089Y-94932989D01*
X137142800Y-101345300D02*
X144291612Y-94196488D01*
X149879391Y-94196488D02*
X150196891Y-93878988D01*
X167674089Y-94932989D02*
X169302700Y-96561600D01*
X169302700Y-96561600D02*
X171133800Y-96561600D01*
X171133800Y-96561600D02*
X173153476Y-94541924D01*
X150196891Y-93878988D02*
X150796895Y-93878988D01*
X205227100Y-92452200D02*
X208189800Y-95414900D01*
X183404500Y-92452200D02*
X205227100Y-92452200D01*
X207129900Y-91110100D02*
X207889700Y-91869900D01*
X185011100Y-91110100D02*
X207129900Y-91110100D01*
X199147900Y-78191200D02*
X208563400Y-87606700D01*
X172849300Y-78191200D02*
X199147900Y-78191200D01*
X171526000Y-79514500D02*
X172849300Y-78191200D01*
X171526000Y-84132700D02*
X171526000Y-79514500D01*
X172484000Y-85090700D02*
X171526000Y-84132700D01*
X173616000Y-111156400D02*
X173616000Y-112233800D01*
X175369800Y-109402600D02*
X173616000Y-111156400D01*
X179846100Y-109402600D02*
X175369800Y-109402600D01*
X180889800Y-108358900D02*
X179846100Y-109402600D01*
X180889800Y-107155500D02*
X180889800Y-108358900D01*
X181633200Y-106412100D02*
X180889800Y-107155500D01*
X183174800Y-112243300D02*
X182339700Y-113078400D01*
X199576400Y-112243300D02*
X183174800Y-112243300D01*
X200262600Y-112929500D02*
X199576400Y-112243300D01*
X204899200Y-112929500D02*
X200262600Y-112929500D01*
X214062300Y-103766400D02*
X204899200Y-112929500D01*
X214062300Y-101131700D02*
X214062300Y-103766400D01*
X210132800Y-97202200D02*
X214062300Y-101131700D01*
X207597900Y-97202200D02*
X210132800Y-97202200D01*
X186949000Y-78785700D02*
X186856600Y-78878100D01*
X188413700Y-78785700D02*
X186949000Y-78785700D01*
X189324600Y-79696600D02*
X188413700Y-78785700D01*
X189324600Y-80535600D02*
X189324600Y-79696600D01*
X190163600Y-81374600D02*
X189324600Y-80535600D01*
X191025600Y-81374600D02*
X190163600Y-81374600D01*
X191770000Y-82119000D02*
X191025600Y-81374600D01*
X191770000Y-82986800D02*
X191770000Y-82119000D01*
X198845600Y-90062400D02*
X191770000Y-82986800D01*
X207022000Y-90062400D02*
X198845600Y-90062400D01*
X214512700Y-97553100D02*
X207022000Y-90062400D01*
X214512700Y-104025800D02*
X214512700Y-97553100D01*
X203722700Y-114815800D02*
X214512700Y-104025800D01*
X191747600Y-114815800D02*
X203722700Y-114815800D01*
X190396500Y-116166900D02*
X191747600Y-114815800D01*
X171468204Y-88981596D02*
X163316168Y-88981596D01*
X172193000Y-88256800D02*
X171468204Y-88981596D01*
X163316168Y-88981596D02*
X162891904Y-88981596D01*
X174721600Y-106550600D02*
X179851200Y-106550600D01*
X170643200Y-102472200D02*
X174721600Y-106550600D01*
X160481700Y-102472200D02*
X170643200Y-102472200D01*
X159783600Y-101774100D02*
X160481700Y-102472200D01*
X183893500Y-90701400D02*
X182377000Y-92217900D01*
X184535400Y-90701400D02*
X183893500Y-90701400D01*
X188440000Y-86796800D02*
X184535400Y-90701400D01*
X188440000Y-84718800D02*
X188440000Y-86796800D01*
X186690000Y-82968800D02*
X188440000Y-84718800D01*
X186690000Y-82119000D02*
X186690000Y-82968800D01*
X185945600Y-81374600D02*
X186690000Y-82119000D01*
X182580400Y-81374600D02*
X185945600Y-81374600D01*
X181516700Y-80310900D02*
X182580400Y-81374600D01*
X181516700Y-79501300D02*
X181516700Y-80310900D01*
X180808400Y-78793000D02*
X181516700Y-79501300D01*
X177285000Y-78793000D02*
X180808400Y-78793000D01*
X176435300Y-79642700D02*
X177285000Y-78793000D01*
X176435300Y-80010000D02*
X176435300Y-79642700D01*
X175260000Y-80010000D02*
X176435300Y-80010000D01*
X182377000Y-94893100D02*
X181547600Y-95722500D01*
X182377000Y-92217900D02*
X182377000Y-94893100D01*
X181670100Y-91797200D02*
X179812300Y-93655000D01*
X181670100Y-82141100D02*
X181670100Y-91797200D01*
X180714300Y-81185300D02*
X181670100Y-82141100D01*
X174703200Y-81185300D02*
X180714300Y-81185300D01*
X173895300Y-80377400D02*
X174703200Y-81185300D01*
X173895300Y-80010000D02*
X173895300Y-80377400D01*
X172720000Y-80010000D02*
X173895300Y-80010000D01*
X178009100Y-95458200D02*
X178009100Y-96583400D01*
X179812300Y-93655000D02*
X178009100Y-95458200D01*
X150808296Y-93253978D02*
X150431874Y-93253978D01*
X170667000Y-93829100D02*
X170215069Y-94281031D01*
X151571906Y-94017588D02*
X150808296Y-93253978D01*
X154758183Y-94281031D02*
X154494740Y-94017588D01*
X170215069Y-94281031D02*
X154758183Y-94281031D01*
X154494740Y-94017588D02*
X151571906Y-94017588D01*
X170667000Y-93829100D02*
X170965079Y-93531021D01*
X170965079Y-93531021D02*
X172066507Y-93531021D01*
X172066507Y-93531021D02*
X172490771Y-93531021D01*
X170667000Y-95747100D02*
X170829500Y-95909600D01*
X170667000Y-93829100D02*
X170667000Y-95747100D01*
X170956700Y-98327100D02*
X171153600Y-98130200D01*
X168792100Y-98327100D02*
X170956700Y-98327100D01*
X166475100Y-96010100D02*
X168792100Y-98327100D01*
X166475100Y-95885000D02*
X166475100Y-96010100D01*
X166464700Y-84492800D02*
X165829600Y-85127900D01*
X166464700Y-81993200D02*
X166464700Y-84492800D01*
X167272600Y-81185300D02*
X166464700Y-81993200D01*
X167640000Y-81185300D02*
X167272600Y-81185300D01*
X167640000Y-80010000D02*
X167640000Y-81185300D01*
X152918500Y-109103500D02*
X151765000Y-107950000D01*
X154697000Y-109103500D02*
X152918500Y-109103500D01*
X155757600Y-108042900D02*
X154697000Y-109103500D01*
X155757600Y-105241200D02*
X155757600Y-108042900D01*
X156706400Y-104292400D02*
X155757600Y-105241200D01*
X156706400Y-103420200D02*
X156706400Y-104292400D01*
X155769300Y-102483100D02*
X156706400Y-103420200D01*
X148751100Y-102483100D02*
X155769300Y-102483100D01*
X148119400Y-101851400D02*
X148751100Y-102483100D01*
X148119400Y-100886200D02*
X148119400Y-101851400D01*
X150180600Y-98825000D02*
X148119400Y-100886200D01*
X172754400Y-98825000D02*
X150180600Y-98825000D01*
X181044800Y-90534600D02*
X172754400Y-98825000D01*
X181044800Y-87619700D02*
X181044800Y-90534600D01*
X169691100Y-97165200D02*
X169154500Y-97701800D01*
X173777300Y-97165200D02*
X169691100Y-97165200D01*
X179995100Y-90947400D02*
X173777300Y-97165200D01*
X179995100Y-87731300D02*
X179995100Y-90947400D01*
X181685700Y-105475300D02*
X183212400Y-105475300D01*
X180476500Y-106684500D02*
X181685700Y-105475300D01*
X180476500Y-106809700D02*
X180476500Y-106684500D01*
X179705000Y-107581200D02*
X180476500Y-106809700D01*
X179705000Y-107950000D02*
X179705000Y-107581200D01*
X187709500Y-86619000D02*
X187784800Y-86543700D01*
X182803000Y-86619000D02*
X187709500Y-86619000D01*
X193531200Y-102472200D02*
X194945000Y-103886000D01*
X174672200Y-102472200D02*
X193531200Y-102472200D01*
X173479900Y-101279900D02*
X174672200Y-102472200D01*
X141159900Y-106011000D02*
X141159900Y-101994900D01*
X141159900Y-101994900D02*
X148475811Y-94678989D01*
X148475811Y-94678989D02*
X150321894Y-94678989D01*
X150321894Y-94678989D02*
X150496893Y-94503990D01*
X186030800Y-84892800D02*
X187548200Y-84892800D01*
X184055300Y-82917300D02*
X186030800Y-84892800D01*
X184055300Y-82550000D02*
X184055300Y-82917300D01*
X182880000Y-82550000D02*
X184055300Y-82550000D01*
X173108600Y-89781400D02*
X179490001Y-83399999D01*
X147525100Y-90768300D02*
X149827902Y-88465498D01*
X161491908Y-88465498D02*
X162807810Y-89781400D01*
X149827902Y-88465498D02*
X161491908Y-88465498D01*
X179490001Y-83399999D02*
X180340000Y-82550000D01*
X162807810Y-89781400D02*
X173108600Y-89781400D01*
X151206390Y-97139010D02*
X151736768Y-97139010D01*
X151736768Y-97139010D02*
X152161032Y-97139010D01*
X146719900Y-101625500D02*
X151206390Y-97139010D01*
X144861964Y-90512300D02*
X144437700Y-90512300D01*
X172975024Y-87374976D02*
X148805524Y-87374976D01*
X148805524Y-87374976D02*
X145668200Y-90512300D01*
X177800000Y-82550000D02*
X172975024Y-87374976D01*
X145668200Y-90512300D02*
X144861964Y-90512300D01*
X147879999Y-89362801D02*
X147580000Y-89662800D01*
X171038301Y-87868801D02*
X149373999Y-87868801D01*
X171338300Y-88168800D02*
X171038301Y-87868801D01*
X149373999Y-87868801D02*
X147879999Y-89362801D01*
X153780400Y-81374600D02*
X145598600Y-89556400D01*
X163080300Y-81374600D02*
X153780400Y-81374600D01*
X163830000Y-82124300D02*
X163080300Y-81374600D01*
X163830000Y-84040300D02*
X163830000Y-82124300D01*
X165548300Y-85758600D02*
X163830000Y-84040300D01*
X172727300Y-85758600D02*
X165548300Y-85758600D01*
X173129900Y-85356000D02*
X172727300Y-85758600D01*
X173129900Y-84135200D02*
X173129900Y-85356000D01*
X172720000Y-83725300D02*
X173129900Y-84135200D01*
X172720000Y-82550000D02*
X172720000Y-83725300D01*
D18*
G36*
X149520096Y-82656972D02*
X149215845Y-81920628D01*
X148587679Y-81291364D01*
X147766519Y-80950389D01*
X146877381Y-80949613D01*
X146055628Y-81289155D01*
X145426364Y-81917321D01*
X145085389Y-82738481D01*
X145084613Y-83627619D01*
X145424155Y-84449372D01*
X145466309Y-84491600D01*
X142906300Y-84491600D01*
X142471955Y-84577996D01*
X142103734Y-84824033D01*
X135294634Y-91633134D01*
X135048597Y-92001354D01*
X134962200Y-92435700D01*
X134962200Y-102366000D01*
X135048597Y-102800346D01*
X135268438Y-103129361D01*
X135294634Y-103168566D01*
X142461133Y-110335066D01*
X142639508Y-110454252D01*
X142829354Y-110581103D01*
X143263700Y-110667500D01*
X146565136Y-110667500D01*
X146573638Y-110837368D01*
X146732603Y-111221143D01*
X146974787Y-111290608D01*
X147775395Y-110490000D01*
X148134605Y-110490000D01*
X148935213Y-111290608D01*
X149177397Y-111221143D01*
X149221453Y-111097656D01*
X149272603Y-111221143D01*
X149514787Y-111290608D01*
X150315395Y-110490000D01*
X150674605Y-110490000D01*
X151475213Y-111290608D01*
X151717397Y-111221143D01*
X151761453Y-111097656D01*
X151812603Y-111221143D01*
X152054787Y-111290608D01*
X152855395Y-110490000D01*
X152054787Y-109689392D01*
X151812603Y-109758857D01*
X151768547Y-109882344D01*
X151717397Y-109758857D01*
X151475213Y-109689392D01*
X150674605Y-110490000D01*
X150315395Y-110490000D01*
X149514787Y-109689392D01*
X149272603Y-109758857D01*
X149228547Y-109882344D01*
X149177397Y-109758857D01*
X148935213Y-109689392D01*
X148134605Y-110490000D01*
X147775395Y-110490000D01*
X147761253Y-110475858D01*
X147940858Y-110296253D01*
X147955000Y-110310395D01*
X148755608Y-109509787D01*
X149694392Y-109509787D01*
X150495000Y-110310395D01*
X151295608Y-109509787D01*
X151226143Y-109267603D01*
X150702698Y-109080856D01*
X150147632Y-109108638D01*
X149763857Y-109267603D01*
X149694392Y-109509787D01*
X148755608Y-109509787D01*
X148686143Y-109267603D01*
X148637045Y-109250087D01*
X148659358Y-109227774D01*
X148945900Y-109346757D01*
X149501661Y-109347242D01*
X150015303Y-109135010D01*
X150408629Y-108742370D01*
X150494949Y-108534488D01*
X150579990Y-108740303D01*
X150972630Y-109133629D01*
X151485900Y-109346757D01*
X152041661Y-109347242D01*
X152074055Y-109333857D01*
X152237868Y-109497670D01*
X152234392Y-109509787D01*
X153035000Y-110310395D01*
X153049143Y-110296253D01*
X153228748Y-110475858D01*
X153214605Y-110490000D01*
X154015213Y-111290608D01*
X154257397Y-111221143D01*
X154307509Y-111080682D01*
X154389990Y-111280303D01*
X154782630Y-111673629D01*
X155295900Y-111886757D01*
X155851661Y-111887242D01*
X156365303Y-111675010D01*
X156420153Y-111620255D01*
X156830646Y-111538603D01*
X156932998Y-111470213D01*
X161124392Y-111470213D01*
X161193857Y-111712397D01*
X161717302Y-111899144D01*
X162272368Y-111871362D01*
X162656143Y-111712397D01*
X162725608Y-111470213D01*
X163664392Y-111470213D01*
X163733857Y-111712397D01*
X164257302Y-111899144D01*
X164812368Y-111871362D01*
X165196143Y-111712397D01*
X165265608Y-111470213D01*
X166204392Y-111470213D01*
X166273857Y-111712397D01*
X166797302Y-111899144D01*
X167352368Y-111871362D01*
X167736143Y-111712397D01*
X167805608Y-111470213D01*
X167005000Y-110669605D01*
X166204392Y-111470213D01*
X165265608Y-111470213D01*
X164465000Y-110669605D01*
X163664392Y-111470213D01*
X162725608Y-111470213D01*
X161925000Y-110669605D01*
X161124392Y-111470213D01*
X156932998Y-111470213D01*
X157198866Y-111292566D01*
X158209130Y-110282302D01*
X160515856Y-110282302D01*
X160543638Y-110837368D01*
X160702603Y-111221143D01*
X160944787Y-111290608D01*
X161745395Y-110490000D01*
X162104605Y-110490000D01*
X162905213Y-111290608D01*
X163147397Y-111221143D01*
X163191453Y-111097656D01*
X163242603Y-111221143D01*
X163484787Y-111290608D01*
X164285395Y-110490000D01*
X164644605Y-110490000D01*
X165445213Y-111290608D01*
X165687397Y-111221143D01*
X165731453Y-111097656D01*
X165782603Y-111221143D01*
X166024787Y-111290608D01*
X166825395Y-110490000D01*
X167184605Y-110490000D01*
X167985213Y-111290608D01*
X168227397Y-111221143D01*
X168277509Y-111080682D01*
X168359990Y-111280303D01*
X168752630Y-111673629D01*
X169265900Y-111886757D01*
X169821661Y-111887242D01*
X170335303Y-111675010D01*
X170728629Y-111282370D01*
X170941757Y-110769100D01*
X170942242Y-110213339D01*
X170730010Y-109699697D01*
X170337370Y-109306371D01*
X169824100Y-109093243D01*
X169268339Y-109092758D01*
X168754697Y-109304990D01*
X168361371Y-109697630D01*
X168281605Y-109889727D01*
X168227397Y-109758857D01*
X167985213Y-109689392D01*
X167184605Y-110490000D01*
X166825395Y-110490000D01*
X166024787Y-109689392D01*
X165782603Y-109758857D01*
X165738547Y-109882344D01*
X165687397Y-109758857D01*
X165445213Y-109689392D01*
X164644605Y-110490000D01*
X164285395Y-110490000D01*
X163484787Y-109689392D01*
X163242603Y-109758857D01*
X163198547Y-109882344D01*
X163147397Y-109758857D01*
X162905213Y-109689392D01*
X162104605Y-110490000D01*
X161745395Y-110490000D01*
X160944787Y-109689392D01*
X160702603Y-109758857D01*
X160515856Y-110282302D01*
X158209130Y-110282302D01*
X158981645Y-109509787D01*
X161124392Y-109509787D01*
X161925000Y-110310395D01*
X162725608Y-109509787D01*
X163664392Y-109509787D01*
X164465000Y-110310395D01*
X165265608Y-109509787D01*
X166204392Y-109509787D01*
X167005000Y-110310395D01*
X167805608Y-109509787D01*
X167736143Y-109267603D01*
X167212698Y-109080856D01*
X166657632Y-109108638D01*
X166273857Y-109267603D01*
X166204392Y-109509787D01*
X165265608Y-109509787D01*
X165196143Y-109267603D01*
X164672698Y-109080856D01*
X164117632Y-109108638D01*
X163733857Y-109267603D01*
X163664392Y-109509787D01*
X162725608Y-109509787D01*
X162656143Y-109267603D01*
X162132698Y-109080856D01*
X161577632Y-109108638D01*
X161193857Y-109267603D01*
X161124392Y-109509787D01*
X158981645Y-109509787D01*
X159146366Y-109345066D01*
X159198125Y-109267603D01*
X159392403Y-108976846D01*
X159478800Y-108542500D01*
X159478800Y-104866213D01*
X161124392Y-104866213D01*
X161193857Y-105108397D01*
X161717302Y-105295144D01*
X162272368Y-105267362D01*
X162656143Y-105108397D01*
X162725608Y-104866213D01*
X161925000Y-104065605D01*
X161124392Y-104866213D01*
X159478800Y-104866213D01*
X159478800Y-102659939D01*
X159596801Y-102708938D01*
X159643677Y-102708979D01*
X159944299Y-103009601D01*
X160190861Y-103174348D01*
X160481700Y-103232200D01*
X160675010Y-103232200D01*
X160515856Y-103678302D01*
X160543638Y-104233368D01*
X160702603Y-104617143D01*
X160944787Y-104686608D01*
X161745395Y-103886000D01*
X161731253Y-103871858D01*
X161910858Y-103692253D01*
X161925000Y-103706395D01*
X161939143Y-103692253D01*
X162118748Y-103871858D01*
X162104605Y-103886000D01*
X162905213Y-104686608D01*
X163147397Y-104617143D01*
X163197509Y-104476682D01*
X163279990Y-104676303D01*
X163672630Y-105069629D01*
X164185900Y-105282757D01*
X164257049Y-105282819D01*
X162987050Y-106552818D01*
X162918339Y-106552758D01*
X162404697Y-106764990D01*
X162011371Y-107157630D01*
X161798243Y-107670900D01*
X161797758Y-108226661D01*
X162009990Y-108740303D01*
X162402630Y-109133629D01*
X162915900Y-109346757D01*
X163471661Y-109347242D01*
X163985303Y-109135010D01*
X164378629Y-108742370D01*
X164464949Y-108534488D01*
X164549990Y-108740303D01*
X164942630Y-109133629D01*
X165455900Y-109346757D01*
X166011661Y-109347242D01*
X166525303Y-109135010D01*
X166918629Y-108742370D01*
X167004949Y-108534488D01*
X167089990Y-108740303D01*
X167482630Y-109133629D01*
X167995900Y-109346757D01*
X168551661Y-109347242D01*
X169065303Y-109135010D01*
X169270457Y-108930213D01*
X170014392Y-108930213D01*
X170083857Y-109172397D01*
X170607302Y-109359144D01*
X171162368Y-109331362D01*
X171546143Y-109172397D01*
X171615608Y-108930213D01*
X170815000Y-108129605D01*
X170014392Y-108930213D01*
X169270457Y-108930213D01*
X169458629Y-108742370D01*
X169538395Y-108550273D01*
X169592603Y-108681143D01*
X169834787Y-108750608D01*
X170635395Y-107950000D01*
X169834787Y-107149392D01*
X169592603Y-107218857D01*
X169542491Y-107359318D01*
X169460010Y-107159697D01*
X169067370Y-106766371D01*
X168554100Y-106553243D01*
X168443912Y-106553147D01*
X168561666Y-106474466D01*
X169545000Y-105491132D01*
X170615124Y-106561256D01*
X170467632Y-106568638D01*
X170083857Y-106727603D01*
X170014392Y-106969787D01*
X170815000Y-107770395D01*
X170829143Y-107756253D01*
X171008748Y-107935858D01*
X170994605Y-107950000D01*
X171795213Y-108750608D01*
X172037397Y-108681143D01*
X172220837Y-108166969D01*
X172806434Y-108752566D01*
X173174654Y-108998603D01*
X173609000Y-109085000D01*
X174612598Y-109085000D01*
X173078599Y-110618999D01*
X172913852Y-110865561D01*
X172856000Y-111156400D01*
X172856000Y-111671337D01*
X172823808Y-111703473D01*
X172681162Y-112047001D01*
X172680957Y-112282100D01*
X164511663Y-112282100D01*
X164479527Y-112249908D01*
X164135999Y-112107262D01*
X163764033Y-112106938D01*
X163420257Y-112248983D01*
X163157008Y-112511773D01*
X163014362Y-112855301D01*
X163014235Y-113001291D01*
X163009657Y-113003183D01*
X162746408Y-113265973D01*
X162603762Y-113609501D01*
X162603438Y-113981467D01*
X162745483Y-114325243D01*
X163008273Y-114588492D01*
X163351801Y-114731138D01*
X163723767Y-114731462D01*
X164067543Y-114589417D01*
X164100718Y-114556300D01*
X187933298Y-114556300D01*
X183499698Y-118989900D01*
X180418518Y-118989900D01*
X180286300Y-118963600D01*
X163514287Y-118963600D01*
X163704592Y-118773627D01*
X163847238Y-118430099D01*
X163847562Y-118058133D01*
X163705517Y-117714357D01*
X163442727Y-117451108D01*
X163099199Y-117308462D01*
X163052323Y-117308421D01*
X159957101Y-114213199D01*
X159710539Y-114048452D01*
X159419700Y-113990600D01*
X137386702Y-113990600D01*
X134866315Y-111470213D01*
X147154392Y-111470213D01*
X147223857Y-111712397D01*
X147747302Y-111899144D01*
X148302368Y-111871362D01*
X148686143Y-111712397D01*
X148755608Y-111470213D01*
X149694392Y-111470213D01*
X149763857Y-111712397D01*
X150287302Y-111899144D01*
X150842368Y-111871362D01*
X151226143Y-111712397D01*
X151295608Y-111470213D01*
X152234392Y-111470213D01*
X152303857Y-111712397D01*
X152827302Y-111899144D01*
X153382368Y-111871362D01*
X153766143Y-111712397D01*
X153835608Y-111470213D01*
X153035000Y-110669605D01*
X152234392Y-111470213D01*
X151295608Y-111470213D01*
X150495000Y-110669605D01*
X149694392Y-111470213D01*
X148755608Y-111470213D01*
X147955000Y-110669605D01*
X147154392Y-111470213D01*
X134866315Y-111470213D01*
X132677122Y-109281020D01*
X132677162Y-109235533D01*
X132535117Y-108891757D01*
X132272327Y-108628508D01*
X131928799Y-108485862D01*
X131556833Y-108485538D01*
X131213057Y-108627583D01*
X130949808Y-108890373D01*
X130807162Y-109233901D01*
X130806838Y-109605867D01*
X130948883Y-109949643D01*
X131211673Y-110212892D01*
X131555201Y-110355538D01*
X131602077Y-110355579D01*
X136224898Y-114978400D01*
X133110463Y-114978400D01*
X133078327Y-114946208D01*
X132734799Y-114803562D01*
X132362833Y-114803238D01*
X132019057Y-114945283D01*
X131755808Y-115208073D01*
X131613162Y-115551601D01*
X131612838Y-115923567D01*
X131754883Y-116267343D01*
X132017673Y-116530592D01*
X132361201Y-116673238D01*
X132733167Y-116673562D01*
X133076943Y-116531517D01*
X133110118Y-116498400D01*
X140476598Y-116498400D01*
X143664307Y-119686109D01*
X143478547Y-119692164D01*
X142945641Y-119912901D01*
X142834737Y-120190132D01*
X143880000Y-121235395D01*
X143894143Y-121221253D01*
X144073748Y-121400858D01*
X144059605Y-121415000D01*
X145104868Y-122460263D01*
X145382099Y-122349359D01*
X145625323Y-121703407D01*
X145623427Y-121645229D01*
X145813199Y-121835001D01*
X146059761Y-121999748D01*
X146350600Y-122057600D01*
X177399337Y-122057600D01*
X177431473Y-122089792D01*
X177775001Y-122232438D01*
X178146967Y-122232762D01*
X178490743Y-122090717D01*
X178523918Y-122057600D01*
X186206400Y-122057600D01*
X186497239Y-121999748D01*
X186743801Y-121835001D01*
X187452209Y-121126593D01*
X201084677Y-121126593D01*
X201107164Y-121816453D01*
X201327901Y-122349359D01*
X201605132Y-122460263D01*
X202650395Y-121415000D01*
X203009605Y-121415000D01*
X204054868Y-122460263D01*
X204332099Y-122349359D01*
X204575323Y-121703407D01*
X204552836Y-121013547D01*
X204332099Y-120480641D01*
X204054868Y-120369737D01*
X203009605Y-121415000D01*
X202650395Y-121415000D01*
X201605132Y-120369737D01*
X201327901Y-120480641D01*
X201084677Y-121126593D01*
X187452209Y-121126593D01*
X188388670Y-120190132D01*
X201784737Y-120190132D01*
X202830000Y-121235395D01*
X203875263Y-120190132D01*
X203764359Y-119912901D01*
X203524589Y-119822619D01*
X207314613Y-119822619D01*
X207654155Y-120644372D01*
X208282321Y-121273636D01*
X209103481Y-121614611D01*
X209992619Y-121615387D01*
X210814372Y-121275845D01*
X211443636Y-120647679D01*
X211784611Y-119826519D01*
X211785387Y-118937381D01*
X211445845Y-118115628D01*
X210817679Y-117486364D01*
X209996519Y-117145389D01*
X209107381Y-117144613D01*
X208285628Y-117484155D01*
X207656364Y-118112321D01*
X207315389Y-118933481D01*
X207314613Y-119822619D01*
X203524589Y-119822619D01*
X203118407Y-119669677D01*
X202428547Y-119692164D01*
X201895641Y-119912901D01*
X201784737Y-120190132D01*
X188388670Y-120190132D01*
X189526080Y-119052722D01*
X189571567Y-119052762D01*
X189915343Y-118910717D01*
X190178592Y-118647927D01*
X190321238Y-118304399D01*
X190321562Y-117932433D01*
X190179517Y-117588657D01*
X189916727Y-117325408D01*
X189573199Y-117182762D01*
X189201233Y-117182438D01*
X188857457Y-117324483D01*
X188594208Y-117587273D01*
X188451562Y-117930801D01*
X188451521Y-117977677D01*
X185891598Y-120537600D01*
X181175601Y-120537600D01*
X181187103Y-120509900D01*
X183814500Y-120509900D01*
X184105339Y-120452048D01*
X184351901Y-120287301D01*
X189987380Y-114651822D01*
X190032867Y-114651862D01*
X190376643Y-114509817D01*
X190639892Y-114247027D01*
X190782538Y-113903499D01*
X190782751Y-113658400D01*
X197817537Y-113658400D01*
X197849673Y-113690592D01*
X198193201Y-113833238D01*
X198565167Y-113833562D01*
X198908943Y-113691517D01*
X199172192Y-113428727D01*
X199314838Y-113085199D01*
X199314863Y-113056565D01*
X199725199Y-113466901D01*
X199971760Y-113631648D01*
X200262600Y-113689500D01*
X203774198Y-113689500D01*
X203407898Y-114055800D01*
X191747600Y-114055800D01*
X191456761Y-114113652D01*
X191210199Y-114278399D01*
X190256820Y-115231778D01*
X190211333Y-115231738D01*
X189867557Y-115373783D01*
X189604308Y-115636573D01*
X189461662Y-115980101D01*
X189461338Y-116352067D01*
X189603383Y-116695843D01*
X189866173Y-116959092D01*
X190209701Y-117101738D01*
X190581667Y-117102062D01*
X190925443Y-116960017D01*
X191188692Y-116697227D01*
X191331338Y-116353699D01*
X191331379Y-116306823D01*
X192062402Y-115575800D01*
X198129919Y-115575800D01*
X197790389Y-116393481D01*
X197789613Y-117282619D01*
X198129155Y-118104372D01*
X198757321Y-118733636D01*
X199578481Y-119074611D01*
X200467619Y-119075387D01*
X201289372Y-118735845D01*
X201918636Y-118107679D01*
X202259611Y-117286519D01*
X202260387Y-116397381D01*
X201920916Y-115575800D01*
X203722700Y-115575800D01*
X204013539Y-115517948D01*
X204260101Y-115353201D01*
X215050101Y-104563201D01*
X215214848Y-104316640D01*
X215272700Y-104025800D01*
X215272700Y-97553100D01*
X215214848Y-97262261D01*
X215050101Y-97015699D01*
X207559401Y-89524999D01*
X207312839Y-89360252D01*
X207022000Y-89302400D01*
X199160402Y-89302400D01*
X193728639Y-83870637D01*
X194090054Y-83629147D01*
X194411961Y-83147378D01*
X194525000Y-82579093D01*
X194525000Y-82520907D01*
X194411961Y-81952622D01*
X194090054Y-81470853D01*
X193804422Y-81280000D01*
X194090054Y-81089147D01*
X194411961Y-80607378D01*
X194525000Y-80039093D01*
X194525000Y-79980907D01*
X194411961Y-79412622D01*
X194103649Y-78951200D01*
X198833098Y-78951200D01*
X200832047Y-80950149D01*
X200217381Y-80949613D01*
X199395628Y-81289155D01*
X198766364Y-81917321D01*
X198425389Y-82738481D01*
X198424613Y-83627619D01*
X198764155Y-84449372D01*
X199392321Y-85078636D01*
X200213481Y-85419611D01*
X201102619Y-85420387D01*
X201924372Y-85080845D01*
X202553636Y-84452679D01*
X202894611Y-83631519D01*
X202895151Y-83013253D01*
X207628278Y-87746380D01*
X207628238Y-87791867D01*
X207770283Y-88135643D01*
X208033073Y-88398892D01*
X208376601Y-88541538D01*
X208748567Y-88541862D01*
X209092343Y-88399817D01*
X209355592Y-88137027D01*
X209498238Y-87793499D01*
X209498562Y-87421533D01*
X209356517Y-87077757D01*
X209093727Y-86814508D01*
X208750199Y-86671862D01*
X208703323Y-86671821D01*
X200211502Y-78180000D01*
X216460000Y-78180000D01*
X216460000Y-125020000D01*
X129615000Y-125020000D01*
X129615000Y-122639868D01*
X142834737Y-122639868D01*
X142945641Y-122917099D01*
X143591593Y-123160323D01*
X144281453Y-123137836D01*
X144814359Y-122917099D01*
X144925263Y-122639868D01*
X201784737Y-122639868D01*
X201895641Y-122917099D01*
X202541593Y-123160323D01*
X203231453Y-123137836D01*
X203764359Y-122917099D01*
X203875263Y-122639868D01*
X202830000Y-121594605D01*
X201784737Y-122639868D01*
X144925263Y-122639868D01*
X143880000Y-121594605D01*
X142834737Y-122639868D01*
X129615000Y-122639868D01*
X129615000Y-119822619D01*
X135559613Y-119822619D01*
X135899155Y-120644372D01*
X136527321Y-121273636D01*
X137348481Y-121614611D01*
X138237619Y-121615387D01*
X139059372Y-121275845D01*
X139208884Y-121126593D01*
X142134677Y-121126593D01*
X142157164Y-121816453D01*
X142377901Y-122349359D01*
X142655132Y-122460263D01*
X143700395Y-121415000D01*
X142655132Y-120369737D01*
X142377901Y-120480641D01*
X142134677Y-121126593D01*
X139208884Y-121126593D01*
X139688636Y-120647679D01*
X140029611Y-119826519D01*
X140030387Y-118937381D01*
X139690845Y-118115628D01*
X139062679Y-117486364D01*
X138241519Y-117145389D01*
X137352381Y-117144613D01*
X136530628Y-117484155D01*
X135901364Y-118112321D01*
X135560389Y-118933481D01*
X135559613Y-119822619D01*
X129615000Y-119822619D01*
X129615000Y-78180000D01*
X153997068Y-78180000D01*
X149520096Y-82656972D01*
X149520096Y-82656972D01*
G37*
X149520096Y-82656972D02*
X149215845Y-81920628D01*
X148587679Y-81291364D01*
X147766519Y-80950389D01*
X146877381Y-80949613D01*
X146055628Y-81289155D01*
X145426364Y-81917321D01*
X145085389Y-82738481D01*
X145084613Y-83627619D01*
X145424155Y-84449372D01*
X145466309Y-84491600D01*
X142906300Y-84491600D01*
X142471955Y-84577996D01*
X142103734Y-84824033D01*
X135294634Y-91633134D01*
X135048597Y-92001354D01*
X134962200Y-92435700D01*
X134962200Y-102366000D01*
X135048597Y-102800346D01*
X135268438Y-103129361D01*
X135294634Y-103168566D01*
X142461133Y-110335066D01*
X142639508Y-110454252D01*
X142829354Y-110581103D01*
X143263700Y-110667500D01*
X146565136Y-110667500D01*
X146573638Y-110837368D01*
X146732603Y-111221143D01*
X146974787Y-111290608D01*
X147775395Y-110490000D01*
X148134605Y-110490000D01*
X148935213Y-111290608D01*
X149177397Y-111221143D01*
X149221453Y-111097656D01*
X149272603Y-111221143D01*
X149514787Y-111290608D01*
X150315395Y-110490000D01*
X150674605Y-110490000D01*
X151475213Y-111290608D01*
X151717397Y-111221143D01*
X151761453Y-111097656D01*
X151812603Y-111221143D01*
X152054787Y-111290608D01*
X152855395Y-110490000D01*
X152054787Y-109689392D01*
X151812603Y-109758857D01*
X151768547Y-109882344D01*
X151717397Y-109758857D01*
X151475213Y-109689392D01*
X150674605Y-110490000D01*
X150315395Y-110490000D01*
X149514787Y-109689392D01*
X149272603Y-109758857D01*
X149228547Y-109882344D01*
X149177397Y-109758857D01*
X148935213Y-109689392D01*
X148134605Y-110490000D01*
X147775395Y-110490000D01*
X147761253Y-110475858D01*
X147940858Y-110296253D01*
X147955000Y-110310395D01*
X148755608Y-109509787D01*
X149694392Y-109509787D01*
X150495000Y-110310395D01*
X151295608Y-109509787D01*
X151226143Y-109267603D01*
X150702698Y-109080856D01*
X150147632Y-109108638D01*
X149763857Y-109267603D01*
X149694392Y-109509787D01*
X148755608Y-109509787D01*
X148686143Y-109267603D01*
X148637045Y-109250087D01*
X148659358Y-109227774D01*
X148945900Y-109346757D01*
X149501661Y-109347242D01*
X150015303Y-109135010D01*
X150408629Y-108742370D01*
X150494949Y-108534488D01*
X150579990Y-108740303D01*
X150972630Y-109133629D01*
X151485900Y-109346757D01*
X152041661Y-109347242D01*
X152074055Y-109333857D01*
X152237868Y-109497670D01*
X152234392Y-109509787D01*
X153035000Y-110310395D01*
X153049143Y-110296253D01*
X153228748Y-110475858D01*
X153214605Y-110490000D01*
X154015213Y-111290608D01*
X154257397Y-111221143D01*
X154307509Y-111080682D01*
X154389990Y-111280303D01*
X154782630Y-111673629D01*
X155295900Y-111886757D01*
X155851661Y-111887242D01*
X156365303Y-111675010D01*
X156420153Y-111620255D01*
X156830646Y-111538603D01*
X156932998Y-111470213D01*
X161124392Y-111470213D01*
X161193857Y-111712397D01*
X161717302Y-111899144D01*
X162272368Y-111871362D01*
X162656143Y-111712397D01*
X162725608Y-111470213D01*
X163664392Y-111470213D01*
X163733857Y-111712397D01*
X164257302Y-111899144D01*
X164812368Y-111871362D01*
X165196143Y-111712397D01*
X165265608Y-111470213D01*
X166204392Y-111470213D01*
X166273857Y-111712397D01*
X166797302Y-111899144D01*
X167352368Y-111871362D01*
X167736143Y-111712397D01*
X167805608Y-111470213D01*
X167005000Y-110669605D01*
X166204392Y-111470213D01*
X165265608Y-111470213D01*
X164465000Y-110669605D01*
X163664392Y-111470213D01*
X162725608Y-111470213D01*
X161925000Y-110669605D01*
X161124392Y-111470213D01*
X156932998Y-111470213D01*
X157198866Y-111292566D01*
X158209130Y-110282302D01*
X160515856Y-110282302D01*
X160543638Y-110837368D01*
X160702603Y-111221143D01*
X160944787Y-111290608D01*
X161745395Y-110490000D01*
X162104605Y-110490000D01*
X162905213Y-111290608D01*
X163147397Y-111221143D01*
X163191453Y-111097656D01*
X163242603Y-111221143D01*
X163484787Y-111290608D01*
X164285395Y-110490000D01*
X164644605Y-110490000D01*
X165445213Y-111290608D01*
X165687397Y-111221143D01*
X165731453Y-111097656D01*
X165782603Y-111221143D01*
X166024787Y-111290608D01*
X166825395Y-110490000D01*
X167184605Y-110490000D01*
X167985213Y-111290608D01*
X168227397Y-111221143D01*
X168277509Y-111080682D01*
X168359990Y-111280303D01*
X168752630Y-111673629D01*
X169265900Y-111886757D01*
X169821661Y-111887242D01*
X170335303Y-111675010D01*
X170728629Y-111282370D01*
X170941757Y-110769100D01*
X170942242Y-110213339D01*
X170730010Y-109699697D01*
X170337370Y-109306371D01*
X169824100Y-109093243D01*
X169268339Y-109092758D01*
X168754697Y-109304990D01*
X168361371Y-109697630D01*
X168281605Y-109889727D01*
X168227397Y-109758857D01*
X167985213Y-109689392D01*
X167184605Y-110490000D01*
X166825395Y-110490000D01*
X166024787Y-109689392D01*
X165782603Y-109758857D01*
X165738547Y-109882344D01*
X165687397Y-109758857D01*
X165445213Y-109689392D01*
X164644605Y-110490000D01*
X164285395Y-110490000D01*
X163484787Y-109689392D01*
X163242603Y-109758857D01*
X163198547Y-109882344D01*
X163147397Y-109758857D01*
X162905213Y-109689392D01*
X162104605Y-110490000D01*
X161745395Y-110490000D01*
X160944787Y-109689392D01*
X160702603Y-109758857D01*
X160515856Y-110282302D01*
X158209130Y-110282302D01*
X158981645Y-109509787D01*
X161124392Y-109509787D01*
X161925000Y-110310395D01*
X162725608Y-109509787D01*
X163664392Y-109509787D01*
X164465000Y-110310395D01*
X165265608Y-109509787D01*
X166204392Y-109509787D01*
X167005000Y-110310395D01*
X167805608Y-109509787D01*
X167736143Y-109267603D01*
X167212698Y-109080856D01*
X166657632Y-109108638D01*
X166273857Y-109267603D01*
X166204392Y-109509787D01*
X165265608Y-109509787D01*
X165196143Y-109267603D01*
X164672698Y-109080856D01*
X164117632Y-109108638D01*
X163733857Y-109267603D01*
X163664392Y-109509787D01*
X162725608Y-109509787D01*
X162656143Y-109267603D01*
X162132698Y-109080856D01*
X161577632Y-109108638D01*
X161193857Y-109267603D01*
X161124392Y-109509787D01*
X158981645Y-109509787D01*
X159146366Y-109345066D01*
X159198125Y-109267603D01*
X159392403Y-108976846D01*
X159478800Y-108542500D01*
X159478800Y-104866213D01*
X161124392Y-104866213D01*
X161193857Y-105108397D01*
X161717302Y-105295144D01*
X162272368Y-105267362D01*
X162656143Y-105108397D01*
X162725608Y-104866213D01*
X161925000Y-104065605D01*
X161124392Y-104866213D01*
X159478800Y-104866213D01*
X159478800Y-102659939D01*
X159596801Y-102708938D01*
X159643677Y-102708979D01*
X159944299Y-103009601D01*
X160190861Y-103174348D01*
X160481700Y-103232200D01*
X160675010Y-103232200D01*
X160515856Y-103678302D01*
X160543638Y-104233368D01*
X160702603Y-104617143D01*
X160944787Y-104686608D01*
X161745395Y-103886000D01*
X161731253Y-103871858D01*
X161910858Y-103692253D01*
X161925000Y-103706395D01*
X161939143Y-103692253D01*
X162118748Y-103871858D01*
X162104605Y-103886000D01*
X162905213Y-104686608D01*
X163147397Y-104617143D01*
X163197509Y-104476682D01*
X163279990Y-104676303D01*
X163672630Y-105069629D01*
X164185900Y-105282757D01*
X164257049Y-105282819D01*
X162987050Y-106552818D01*
X162918339Y-106552758D01*
X162404697Y-106764990D01*
X162011371Y-107157630D01*
X161798243Y-107670900D01*
X161797758Y-108226661D01*
X162009990Y-108740303D01*
X162402630Y-109133629D01*
X162915900Y-109346757D01*
X163471661Y-109347242D01*
X163985303Y-109135010D01*
X164378629Y-108742370D01*
X164464949Y-108534488D01*
X164549990Y-108740303D01*
X164942630Y-109133629D01*
X165455900Y-109346757D01*
X166011661Y-109347242D01*
X166525303Y-109135010D01*
X166918629Y-108742370D01*
X167004949Y-108534488D01*
X167089990Y-108740303D01*
X167482630Y-109133629D01*
X167995900Y-109346757D01*
X168551661Y-109347242D01*
X169065303Y-109135010D01*
X169270457Y-108930213D01*
X170014392Y-108930213D01*
X170083857Y-109172397D01*
X170607302Y-109359144D01*
X171162368Y-109331362D01*
X171546143Y-109172397D01*
X171615608Y-108930213D01*
X170815000Y-108129605D01*
X170014392Y-108930213D01*
X169270457Y-108930213D01*
X169458629Y-108742370D01*
X169538395Y-108550273D01*
X169592603Y-108681143D01*
X169834787Y-108750608D01*
X170635395Y-107950000D01*
X169834787Y-107149392D01*
X169592603Y-107218857D01*
X169542491Y-107359318D01*
X169460010Y-107159697D01*
X169067370Y-106766371D01*
X168554100Y-106553243D01*
X168443912Y-106553147D01*
X168561666Y-106474466D01*
X169545000Y-105491132D01*
X170615124Y-106561256D01*
X170467632Y-106568638D01*
X170083857Y-106727603D01*
X170014392Y-106969787D01*
X170815000Y-107770395D01*
X170829143Y-107756253D01*
X171008748Y-107935858D01*
X170994605Y-107950000D01*
X171795213Y-108750608D01*
X172037397Y-108681143D01*
X172220837Y-108166969D01*
X172806434Y-108752566D01*
X173174654Y-108998603D01*
X173609000Y-109085000D01*
X174612598Y-109085000D01*
X173078599Y-110618999D01*
X172913852Y-110865561D01*
X172856000Y-111156400D01*
X172856000Y-111671337D01*
X172823808Y-111703473D01*
X172681162Y-112047001D01*
X172680957Y-112282100D01*
X164511663Y-112282100D01*
X164479527Y-112249908D01*
X164135999Y-112107262D01*
X163764033Y-112106938D01*
X163420257Y-112248983D01*
X163157008Y-112511773D01*
X163014362Y-112855301D01*
X163014235Y-113001291D01*
X163009657Y-113003183D01*
X162746408Y-113265973D01*
X162603762Y-113609501D01*
X162603438Y-113981467D01*
X162745483Y-114325243D01*
X163008273Y-114588492D01*
X163351801Y-114731138D01*
X163723767Y-114731462D01*
X164067543Y-114589417D01*
X164100718Y-114556300D01*
X187933298Y-114556300D01*
X183499698Y-118989900D01*
X180418518Y-118989900D01*
X180286300Y-118963600D01*
X163514287Y-118963600D01*
X163704592Y-118773627D01*
X163847238Y-118430099D01*
X163847562Y-118058133D01*
X163705517Y-117714357D01*
X163442727Y-117451108D01*
X163099199Y-117308462D01*
X163052323Y-117308421D01*
X159957101Y-114213199D01*
X159710539Y-114048452D01*
X159419700Y-113990600D01*
X137386702Y-113990600D01*
X134866315Y-111470213D01*
X147154392Y-111470213D01*
X147223857Y-111712397D01*
X147747302Y-111899144D01*
X148302368Y-111871362D01*
X148686143Y-111712397D01*
X148755608Y-111470213D01*
X149694392Y-111470213D01*
X149763857Y-111712397D01*
X150287302Y-111899144D01*
X150842368Y-111871362D01*
X151226143Y-111712397D01*
X151295608Y-111470213D01*
X152234392Y-111470213D01*
X152303857Y-111712397D01*
X152827302Y-111899144D01*
X153382368Y-111871362D01*
X153766143Y-111712397D01*
X153835608Y-111470213D01*
X153035000Y-110669605D01*
X152234392Y-111470213D01*
X151295608Y-111470213D01*
X150495000Y-110669605D01*
X149694392Y-111470213D01*
X148755608Y-111470213D01*
X147955000Y-110669605D01*
X147154392Y-111470213D01*
X134866315Y-111470213D01*
X132677122Y-109281020D01*
X132677162Y-109235533D01*
X132535117Y-108891757D01*
X132272327Y-108628508D01*
X131928799Y-108485862D01*
X131556833Y-108485538D01*
X131213057Y-108627583D01*
X130949808Y-108890373D01*
X130807162Y-109233901D01*
X130806838Y-109605867D01*
X130948883Y-109949643D01*
X131211673Y-110212892D01*
X131555201Y-110355538D01*
X131602077Y-110355579D01*
X136224898Y-114978400D01*
X133110463Y-114978400D01*
X133078327Y-114946208D01*
X132734799Y-114803562D01*
X132362833Y-114803238D01*
X132019057Y-114945283D01*
X131755808Y-115208073D01*
X131613162Y-115551601D01*
X131612838Y-115923567D01*
X131754883Y-116267343D01*
X132017673Y-116530592D01*
X132361201Y-116673238D01*
X132733167Y-116673562D01*
X133076943Y-116531517D01*
X133110118Y-116498400D01*
X140476598Y-116498400D01*
X143664307Y-119686109D01*
X143478547Y-119692164D01*
X142945641Y-119912901D01*
X142834737Y-120190132D01*
X143880000Y-121235395D01*
X143894143Y-121221253D01*
X144073748Y-121400858D01*
X144059605Y-121415000D01*
X145104868Y-122460263D01*
X145382099Y-122349359D01*
X145625323Y-121703407D01*
X145623427Y-121645229D01*
X145813199Y-121835001D01*
X146059761Y-121999748D01*
X146350600Y-122057600D01*
X177399337Y-122057600D01*
X177431473Y-122089792D01*
X177775001Y-122232438D01*
X178146967Y-122232762D01*
X178490743Y-122090717D01*
X178523918Y-122057600D01*
X186206400Y-122057600D01*
X186497239Y-121999748D01*
X186743801Y-121835001D01*
X187452209Y-121126593D01*
X201084677Y-121126593D01*
X201107164Y-121816453D01*
X201327901Y-122349359D01*
X201605132Y-122460263D01*
X202650395Y-121415000D01*
X203009605Y-121415000D01*
X204054868Y-122460263D01*
X204332099Y-122349359D01*
X204575323Y-121703407D01*
X204552836Y-121013547D01*
X204332099Y-120480641D01*
X204054868Y-120369737D01*
X203009605Y-121415000D01*
X202650395Y-121415000D01*
X201605132Y-120369737D01*
X201327901Y-120480641D01*
X201084677Y-121126593D01*
X187452209Y-121126593D01*
X188388670Y-120190132D01*
X201784737Y-120190132D01*
X202830000Y-121235395D01*
X203875263Y-120190132D01*
X203764359Y-119912901D01*
X203524589Y-119822619D01*
X207314613Y-119822619D01*
X207654155Y-120644372D01*
X208282321Y-121273636D01*
X209103481Y-121614611D01*
X209992619Y-121615387D01*
X210814372Y-121275845D01*
X211443636Y-120647679D01*
X211784611Y-119826519D01*
X211785387Y-118937381D01*
X211445845Y-118115628D01*
X210817679Y-117486364D01*
X209996519Y-117145389D01*
X209107381Y-117144613D01*
X208285628Y-117484155D01*
X207656364Y-118112321D01*
X207315389Y-118933481D01*
X207314613Y-119822619D01*
X203524589Y-119822619D01*
X203118407Y-119669677D01*
X202428547Y-119692164D01*
X201895641Y-119912901D01*
X201784737Y-120190132D01*
X188388670Y-120190132D01*
X189526080Y-119052722D01*
X189571567Y-119052762D01*
X189915343Y-118910717D01*
X190178592Y-118647927D01*
X190321238Y-118304399D01*
X190321562Y-117932433D01*
X190179517Y-117588657D01*
X189916727Y-117325408D01*
X189573199Y-117182762D01*
X189201233Y-117182438D01*
X188857457Y-117324483D01*
X188594208Y-117587273D01*
X188451562Y-117930801D01*
X188451521Y-117977677D01*
X185891598Y-120537600D01*
X181175601Y-120537600D01*
X181187103Y-120509900D01*
X183814500Y-120509900D01*
X184105339Y-120452048D01*
X184351901Y-120287301D01*
X189987380Y-114651822D01*
X190032867Y-114651862D01*
X190376643Y-114509817D01*
X190639892Y-114247027D01*
X190782538Y-113903499D01*
X190782751Y-113658400D01*
X197817537Y-113658400D01*
X197849673Y-113690592D01*
X198193201Y-113833238D01*
X198565167Y-113833562D01*
X198908943Y-113691517D01*
X199172192Y-113428727D01*
X199314838Y-113085199D01*
X199314863Y-113056565D01*
X199725199Y-113466901D01*
X199971760Y-113631648D01*
X200262600Y-113689500D01*
X203774198Y-113689500D01*
X203407898Y-114055800D01*
X191747600Y-114055800D01*
X191456761Y-114113652D01*
X191210199Y-114278399D01*
X190256820Y-115231778D01*
X190211333Y-115231738D01*
X189867557Y-115373783D01*
X189604308Y-115636573D01*
X189461662Y-115980101D01*
X189461338Y-116352067D01*
X189603383Y-116695843D01*
X189866173Y-116959092D01*
X190209701Y-117101738D01*
X190581667Y-117102062D01*
X190925443Y-116960017D01*
X191188692Y-116697227D01*
X191331338Y-116353699D01*
X191331379Y-116306823D01*
X192062402Y-115575800D01*
X198129919Y-115575800D01*
X197790389Y-116393481D01*
X197789613Y-117282619D01*
X198129155Y-118104372D01*
X198757321Y-118733636D01*
X199578481Y-119074611D01*
X200467619Y-119075387D01*
X201289372Y-118735845D01*
X201918636Y-118107679D01*
X202259611Y-117286519D01*
X202260387Y-116397381D01*
X201920916Y-115575800D01*
X203722700Y-115575800D01*
X204013539Y-115517948D01*
X204260101Y-115353201D01*
X215050101Y-104563201D01*
X215214848Y-104316640D01*
X215272700Y-104025800D01*
X215272700Y-97553100D01*
X215214848Y-97262261D01*
X215050101Y-97015699D01*
X207559401Y-89524999D01*
X207312839Y-89360252D01*
X207022000Y-89302400D01*
X199160402Y-89302400D01*
X193728639Y-83870637D01*
X194090054Y-83629147D01*
X194411961Y-83147378D01*
X194525000Y-82579093D01*
X194525000Y-82520907D01*
X194411961Y-81952622D01*
X194090054Y-81470853D01*
X193804422Y-81280000D01*
X194090054Y-81089147D01*
X194411961Y-80607378D01*
X194525000Y-80039093D01*
X194525000Y-79980907D01*
X194411961Y-79412622D01*
X194103649Y-78951200D01*
X198833098Y-78951200D01*
X200832047Y-80950149D01*
X200217381Y-80949613D01*
X199395628Y-81289155D01*
X198766364Y-81917321D01*
X198425389Y-82738481D01*
X198424613Y-83627619D01*
X198764155Y-84449372D01*
X199392321Y-85078636D01*
X200213481Y-85419611D01*
X201102619Y-85420387D01*
X201924372Y-85080845D01*
X202553636Y-84452679D01*
X202894611Y-83631519D01*
X202895151Y-83013253D01*
X207628278Y-87746380D01*
X207628238Y-87791867D01*
X207770283Y-88135643D01*
X208033073Y-88398892D01*
X208376601Y-88541538D01*
X208748567Y-88541862D01*
X209092343Y-88399817D01*
X209355592Y-88137027D01*
X209498238Y-87793499D01*
X209498562Y-87421533D01*
X209356517Y-87077757D01*
X209093727Y-86814508D01*
X208750199Y-86671862D01*
X208703323Y-86671821D01*
X200211502Y-78180000D01*
X216460000Y-78180000D01*
X216460000Y-125020000D01*
X129615000Y-125020000D01*
X129615000Y-122639868D01*
X142834737Y-122639868D01*
X142945641Y-122917099D01*
X143591593Y-123160323D01*
X144281453Y-123137836D01*
X144814359Y-122917099D01*
X144925263Y-122639868D01*
X201784737Y-122639868D01*
X201895641Y-122917099D01*
X202541593Y-123160323D01*
X203231453Y-123137836D01*
X203764359Y-122917099D01*
X203875263Y-122639868D01*
X202830000Y-121594605D01*
X201784737Y-122639868D01*
X144925263Y-122639868D01*
X143880000Y-121594605D01*
X142834737Y-122639868D01*
X129615000Y-122639868D01*
X129615000Y-119822619D01*
X135559613Y-119822619D01*
X135899155Y-120644372D01*
X136527321Y-121273636D01*
X137348481Y-121614611D01*
X138237619Y-121615387D01*
X139059372Y-121275845D01*
X139208884Y-121126593D01*
X142134677Y-121126593D01*
X142157164Y-121816453D01*
X142377901Y-122349359D01*
X142655132Y-122460263D01*
X143700395Y-121415000D01*
X142655132Y-120369737D01*
X142377901Y-120480641D01*
X142134677Y-121126593D01*
X139208884Y-121126593D01*
X139688636Y-120647679D01*
X140029611Y-119826519D01*
X140030387Y-118937381D01*
X139690845Y-118115628D01*
X139062679Y-117486364D01*
X138241519Y-117145389D01*
X137352381Y-117144613D01*
X136530628Y-117484155D01*
X135901364Y-118112321D01*
X135560389Y-118933481D01*
X135559613Y-119822619D01*
X129615000Y-119822619D01*
X129615000Y-78180000D01*
X153997068Y-78180000D01*
X149520096Y-82656972D01*
G36*
X176088748Y-110475858D02*
X176074605Y-110490000D01*
X176875213Y-111290608D01*
X177117397Y-111221143D01*
X177161453Y-111097656D01*
X177210178Y-111215289D01*
X177149999Y-111255499D01*
X176123398Y-112282100D01*
X174550959Y-112282100D01*
X174551162Y-112048633D01*
X174409117Y-111704857D01*
X174376000Y-111671682D01*
X174376000Y-111471202D01*
X174376989Y-111470213D01*
X175094392Y-111470213D01*
X175163857Y-111712397D01*
X175687302Y-111899144D01*
X176242368Y-111871362D01*
X176626143Y-111712397D01*
X176695608Y-111470213D01*
X175895000Y-110669605D01*
X175094392Y-111470213D01*
X174376989Y-111470213D01*
X174658971Y-111188231D01*
X174672603Y-111221143D01*
X174914787Y-111290608D01*
X175715395Y-110490000D01*
X175701253Y-110475858D01*
X175880858Y-110296253D01*
X175895000Y-110310395D01*
X175909143Y-110296253D01*
X176088748Y-110475858D01*
X176088748Y-110475858D01*
G37*
X176088748Y-110475858D02*
X176074605Y-110490000D01*
X176875213Y-111290608D01*
X177117397Y-111221143D01*
X177161453Y-111097656D01*
X177210178Y-111215289D01*
X177149999Y-111255499D01*
X176123398Y-112282100D01*
X174550959Y-112282100D01*
X174551162Y-112048633D01*
X174409117Y-111704857D01*
X174376000Y-111671682D01*
X174376000Y-111471202D01*
X174376989Y-111470213D01*
X175094392Y-111470213D01*
X175163857Y-111712397D01*
X175687302Y-111899144D01*
X176242368Y-111871362D01*
X176626143Y-111712397D01*
X176695608Y-111470213D01*
X175895000Y-110669605D01*
X175094392Y-111470213D01*
X174376989Y-111470213D01*
X174658971Y-111188231D01*
X174672603Y-111221143D01*
X174914787Y-111290608D01*
X175715395Y-110490000D01*
X175701253Y-110475858D01*
X175880858Y-110296253D01*
X175895000Y-110310395D01*
X175909143Y-110296253D01*
X176088748Y-110475858D01*
G36*
X206815438Y-102312767D02*
X206957483Y-102656543D01*
X206990600Y-102689718D01*
X206990600Y-103478798D01*
X206923727Y-103411808D01*
X206580199Y-103269162D01*
X206208233Y-103268838D01*
X205864457Y-103410883D01*
X205601208Y-103673673D01*
X205458562Y-104017201D01*
X205458238Y-104389167D01*
X205600283Y-104732943D01*
X205633400Y-104766118D01*
X205633400Y-107797387D01*
X205616162Y-107838901D01*
X205615838Y-108210867D01*
X205757883Y-108554643D01*
X206020673Y-108817892D01*
X206364201Y-108960538D01*
X206655994Y-108960792D01*
X206521162Y-109285501D01*
X206521121Y-109332377D01*
X204134398Y-111719100D01*
X203654386Y-111719100D01*
X203820323Y-111278407D01*
X203797836Y-110588547D01*
X203577099Y-110055641D01*
X203299868Y-109944737D01*
X202254605Y-110990000D01*
X202268748Y-111004143D01*
X202089143Y-111183748D01*
X202075000Y-111169605D01*
X202060858Y-111183748D01*
X201881253Y-111004143D01*
X201895395Y-110990000D01*
X200850132Y-109944737D01*
X200572901Y-110055641D01*
X200329677Y-110701593D01*
X200342129Y-111083609D01*
X200087200Y-111032900D01*
X198772218Y-111032900D01*
X198881757Y-110769100D01*
X198882242Y-110213339D01*
X198697048Y-109765132D01*
X201029737Y-109765132D01*
X202075000Y-110810395D01*
X203120263Y-109765132D01*
X203009359Y-109487901D01*
X202363407Y-109244677D01*
X201673547Y-109267164D01*
X201140641Y-109487901D01*
X201029737Y-109765132D01*
X198697048Y-109765132D01*
X198670010Y-109699697D01*
X198277370Y-109306371D01*
X197764100Y-109093243D01*
X197208339Y-109092758D01*
X196694697Y-109304990D01*
X196301371Y-109697630D01*
X196221605Y-109889727D01*
X196167397Y-109758857D01*
X195925213Y-109689392D01*
X195124605Y-110490000D01*
X195138748Y-110504143D01*
X194959143Y-110683748D01*
X194945000Y-110669605D01*
X194930858Y-110683748D01*
X194751253Y-110504143D01*
X194765395Y-110490000D01*
X193964787Y-109689392D01*
X193722603Y-109758857D01*
X193678547Y-109882344D01*
X193627397Y-109758857D01*
X193385213Y-109689392D01*
X192584605Y-110490000D01*
X192598748Y-110504143D01*
X192419143Y-110683748D01*
X192405000Y-110669605D01*
X192390858Y-110683748D01*
X192211253Y-110504143D01*
X192225395Y-110490000D01*
X191424787Y-109689392D01*
X191182603Y-109758857D01*
X191138547Y-109882344D01*
X191087397Y-109758857D01*
X190845213Y-109689392D01*
X190044605Y-110490000D01*
X190058748Y-110504143D01*
X189879143Y-110683748D01*
X189865000Y-110669605D01*
X189850858Y-110683748D01*
X189671253Y-110504143D01*
X189685395Y-110490000D01*
X188884787Y-109689392D01*
X188642603Y-109758857D01*
X188455856Y-110282302D01*
X188483638Y-110837368D01*
X188564630Y-111032900D01*
X184802218Y-111032900D01*
X184911757Y-110769100D01*
X184912242Y-110213339D01*
X184700010Y-109699697D01*
X184510432Y-109509787D01*
X189064392Y-109509787D01*
X189865000Y-110310395D01*
X190665608Y-109509787D01*
X191604392Y-109509787D01*
X192405000Y-110310395D01*
X193205608Y-109509787D01*
X194144392Y-109509787D01*
X194945000Y-110310395D01*
X195745608Y-109509787D01*
X195676143Y-109267603D01*
X195152698Y-109080856D01*
X194597632Y-109108638D01*
X194213857Y-109267603D01*
X194144392Y-109509787D01*
X193205608Y-109509787D01*
X193136143Y-109267603D01*
X192612698Y-109080856D01*
X192057632Y-109108638D01*
X191673857Y-109267603D01*
X191604392Y-109509787D01*
X190665608Y-109509787D01*
X190596143Y-109267603D01*
X190072698Y-109080856D01*
X189517632Y-109108638D01*
X189133857Y-109267603D01*
X189064392Y-109509787D01*
X184510432Y-109509787D01*
X184307370Y-109306371D01*
X183794100Y-109093243D01*
X183238339Y-109092758D01*
X182724697Y-109304990D01*
X182331371Y-109697630D01*
X182251605Y-109889727D01*
X182197397Y-109758857D01*
X181955213Y-109689392D01*
X181154605Y-110490000D01*
X181168748Y-110504143D01*
X180989143Y-110683748D01*
X180975000Y-110669605D01*
X180960858Y-110683748D01*
X180781253Y-110504143D01*
X180795395Y-110490000D01*
X180781253Y-110475858D01*
X180960858Y-110296253D01*
X180975000Y-110310395D01*
X181775608Y-109509787D01*
X181706143Y-109267603D01*
X181226883Y-109096619D01*
X181321366Y-109002136D01*
X181452630Y-109133629D01*
X181965900Y-109346757D01*
X182521661Y-109347242D01*
X183035303Y-109135010D01*
X183240457Y-108930213D01*
X183984392Y-108930213D01*
X184053857Y-109172397D01*
X184577302Y-109359144D01*
X185132368Y-109331362D01*
X185516143Y-109172397D01*
X185585608Y-108930213D01*
X184785000Y-108129605D01*
X183984392Y-108930213D01*
X183240457Y-108930213D01*
X183428629Y-108742370D01*
X183508395Y-108550273D01*
X183562603Y-108681143D01*
X183804787Y-108750608D01*
X184605395Y-107950000D01*
X183804787Y-107149392D01*
X183562603Y-107218857D01*
X183512491Y-107359318D01*
X183430010Y-107159697D01*
X183037370Y-106766371D01*
X182568062Y-106571498D01*
X182568355Y-106235300D01*
X182649937Y-106235300D01*
X182682073Y-106267492D01*
X183025601Y-106410138D01*
X183397567Y-106410462D01*
X183741343Y-106268417D01*
X184004592Y-106005627D01*
X184011899Y-105988031D01*
X184585124Y-106561256D01*
X184437632Y-106568638D01*
X184053857Y-106727603D01*
X183984392Y-106969787D01*
X184785000Y-107770395D01*
X184799143Y-107756253D01*
X184978748Y-107935858D01*
X184964605Y-107950000D01*
X185765213Y-108750608D01*
X186007397Y-108681143D01*
X186194144Y-108157698D01*
X186166362Y-107602632D01*
X186040635Y-107299100D01*
X189892628Y-107299100D01*
X189738243Y-107670900D01*
X189737758Y-108226661D01*
X189949990Y-108740303D01*
X190342630Y-109133629D01*
X190855900Y-109346757D01*
X191411661Y-109347242D01*
X191925303Y-109135010D01*
X192318629Y-108742370D01*
X192404949Y-108534488D01*
X192489990Y-108740303D01*
X192882630Y-109133629D01*
X193395900Y-109346757D01*
X193951661Y-109347242D01*
X194465303Y-109135010D01*
X194858629Y-108742370D01*
X194944949Y-108534488D01*
X195029990Y-108740303D01*
X195422630Y-109133629D01*
X195935900Y-109346757D01*
X196491661Y-109347242D01*
X197005303Y-109135010D01*
X197210457Y-108930213D01*
X197954392Y-108930213D01*
X198023857Y-109172397D01*
X198547302Y-109359144D01*
X199102368Y-109331362D01*
X199486143Y-109172397D01*
X199555608Y-108930213D01*
X198755000Y-108129605D01*
X197954392Y-108930213D01*
X197210457Y-108930213D01*
X197398629Y-108742370D01*
X197478395Y-108550273D01*
X197532603Y-108681143D01*
X197774787Y-108750608D01*
X198575395Y-107950000D01*
X198934605Y-107950000D01*
X199735213Y-108750608D01*
X199977397Y-108681143D01*
X200164144Y-108157698D01*
X200136362Y-107602632D01*
X199977397Y-107218857D01*
X199735213Y-107149392D01*
X198934605Y-107950000D01*
X198575395Y-107950000D01*
X197774787Y-107149392D01*
X197532603Y-107218857D01*
X197482491Y-107359318D01*
X197400010Y-107159697D01*
X197210432Y-106969787D01*
X197954392Y-106969787D01*
X198755000Y-107770395D01*
X199555608Y-106969787D01*
X199486143Y-106727603D01*
X199226211Y-106634868D01*
X201779737Y-106634868D01*
X201890641Y-106912099D01*
X202536593Y-107155323D01*
X203226453Y-107132836D01*
X203759359Y-106912099D01*
X203870263Y-106634868D01*
X202825000Y-105589605D01*
X201779737Y-106634868D01*
X199226211Y-106634868D01*
X198962698Y-106540856D01*
X198407632Y-106568638D01*
X198023857Y-106727603D01*
X197954392Y-106969787D01*
X197210432Y-106969787D01*
X197007370Y-106766371D01*
X196494100Y-106553243D01*
X196422951Y-106553181D01*
X197692950Y-105283182D01*
X197761661Y-105283242D01*
X198275303Y-105071010D01*
X198325400Y-105021000D01*
X201117554Y-105021000D01*
X201079677Y-105121593D01*
X201102164Y-105811453D01*
X201322901Y-106344359D01*
X201600132Y-106455263D01*
X202645395Y-105410000D01*
X203004605Y-105410000D01*
X204049868Y-106455263D01*
X204327099Y-106344359D01*
X204570323Y-105698407D01*
X204547836Y-105008547D01*
X204327099Y-104475641D01*
X204049868Y-104364737D01*
X203004605Y-105410000D01*
X202645395Y-105410000D01*
X202631253Y-105395858D01*
X202810858Y-105216253D01*
X202825000Y-105230395D01*
X203870263Y-104185132D01*
X203759359Y-103907901D01*
X203260768Y-103720164D01*
X204738933Y-102242000D01*
X206815500Y-102242000D01*
X206815438Y-102312767D01*
X206815438Y-102312767D01*
G37*
X206815438Y-102312767D02*
X206957483Y-102656543D01*
X206990600Y-102689718D01*
X206990600Y-103478798D01*
X206923727Y-103411808D01*
X206580199Y-103269162D01*
X206208233Y-103268838D01*
X205864457Y-103410883D01*
X205601208Y-103673673D01*
X205458562Y-104017201D01*
X205458238Y-104389167D01*
X205600283Y-104732943D01*
X205633400Y-104766118D01*
X205633400Y-107797387D01*
X205616162Y-107838901D01*
X205615838Y-108210867D01*
X205757883Y-108554643D01*
X206020673Y-108817892D01*
X206364201Y-108960538D01*
X206655994Y-108960792D01*
X206521162Y-109285501D01*
X206521121Y-109332377D01*
X204134398Y-111719100D01*
X203654386Y-111719100D01*
X203820323Y-111278407D01*
X203797836Y-110588547D01*
X203577099Y-110055641D01*
X203299868Y-109944737D01*
X202254605Y-110990000D01*
X202268748Y-111004143D01*
X202089143Y-111183748D01*
X202075000Y-111169605D01*
X202060858Y-111183748D01*
X201881253Y-111004143D01*
X201895395Y-110990000D01*
X200850132Y-109944737D01*
X200572901Y-110055641D01*
X200329677Y-110701593D01*
X200342129Y-111083609D01*
X200087200Y-111032900D01*
X198772218Y-111032900D01*
X198881757Y-110769100D01*
X198882242Y-110213339D01*
X198697048Y-109765132D01*
X201029737Y-109765132D01*
X202075000Y-110810395D01*
X203120263Y-109765132D01*
X203009359Y-109487901D01*
X202363407Y-109244677D01*
X201673547Y-109267164D01*
X201140641Y-109487901D01*
X201029737Y-109765132D01*
X198697048Y-109765132D01*
X198670010Y-109699697D01*
X198277370Y-109306371D01*
X197764100Y-109093243D01*
X197208339Y-109092758D01*
X196694697Y-109304990D01*
X196301371Y-109697630D01*
X196221605Y-109889727D01*
X196167397Y-109758857D01*
X195925213Y-109689392D01*
X195124605Y-110490000D01*
X195138748Y-110504143D01*
X194959143Y-110683748D01*
X194945000Y-110669605D01*
X194930858Y-110683748D01*
X194751253Y-110504143D01*
X194765395Y-110490000D01*
X193964787Y-109689392D01*
X193722603Y-109758857D01*
X193678547Y-109882344D01*
X193627397Y-109758857D01*
X193385213Y-109689392D01*
X192584605Y-110490000D01*
X192598748Y-110504143D01*
X192419143Y-110683748D01*
X192405000Y-110669605D01*
X192390858Y-110683748D01*
X192211253Y-110504143D01*
X192225395Y-110490000D01*
X191424787Y-109689392D01*
X191182603Y-109758857D01*
X191138547Y-109882344D01*
X191087397Y-109758857D01*
X190845213Y-109689392D01*
X190044605Y-110490000D01*
X190058748Y-110504143D01*
X189879143Y-110683748D01*
X189865000Y-110669605D01*
X189850858Y-110683748D01*
X189671253Y-110504143D01*
X189685395Y-110490000D01*
X188884787Y-109689392D01*
X188642603Y-109758857D01*
X188455856Y-110282302D01*
X188483638Y-110837368D01*
X188564630Y-111032900D01*
X184802218Y-111032900D01*
X184911757Y-110769100D01*
X184912242Y-110213339D01*
X184700010Y-109699697D01*
X184510432Y-109509787D01*
X189064392Y-109509787D01*
X189865000Y-110310395D01*
X190665608Y-109509787D01*
X191604392Y-109509787D01*
X192405000Y-110310395D01*
X193205608Y-109509787D01*
X194144392Y-109509787D01*
X194945000Y-110310395D01*
X195745608Y-109509787D01*
X195676143Y-109267603D01*
X195152698Y-109080856D01*
X194597632Y-109108638D01*
X194213857Y-109267603D01*
X194144392Y-109509787D01*
X193205608Y-109509787D01*
X193136143Y-109267603D01*
X192612698Y-109080856D01*
X192057632Y-109108638D01*
X191673857Y-109267603D01*
X191604392Y-109509787D01*
X190665608Y-109509787D01*
X190596143Y-109267603D01*
X190072698Y-109080856D01*
X189517632Y-109108638D01*
X189133857Y-109267603D01*
X189064392Y-109509787D01*
X184510432Y-109509787D01*
X184307370Y-109306371D01*
X183794100Y-109093243D01*
X183238339Y-109092758D01*
X182724697Y-109304990D01*
X182331371Y-109697630D01*
X182251605Y-109889727D01*
X182197397Y-109758857D01*
X181955213Y-109689392D01*
X181154605Y-110490000D01*
X181168748Y-110504143D01*
X180989143Y-110683748D01*
X180975000Y-110669605D01*
X180960858Y-110683748D01*
X180781253Y-110504143D01*
X180795395Y-110490000D01*
X180781253Y-110475858D01*
X180960858Y-110296253D01*
X180975000Y-110310395D01*
X181775608Y-109509787D01*
X181706143Y-109267603D01*
X181226883Y-109096619D01*
X181321366Y-109002136D01*
X181452630Y-109133629D01*
X181965900Y-109346757D01*
X182521661Y-109347242D01*
X183035303Y-109135010D01*
X183240457Y-108930213D01*
X183984392Y-108930213D01*
X184053857Y-109172397D01*
X184577302Y-109359144D01*
X185132368Y-109331362D01*
X185516143Y-109172397D01*
X185585608Y-108930213D01*
X184785000Y-108129605D01*
X183984392Y-108930213D01*
X183240457Y-108930213D01*
X183428629Y-108742370D01*
X183508395Y-108550273D01*
X183562603Y-108681143D01*
X183804787Y-108750608D01*
X184605395Y-107950000D01*
X183804787Y-107149392D01*
X183562603Y-107218857D01*
X183512491Y-107359318D01*
X183430010Y-107159697D01*
X183037370Y-106766371D01*
X182568062Y-106571498D01*
X182568355Y-106235300D01*
X182649937Y-106235300D01*
X182682073Y-106267492D01*
X183025601Y-106410138D01*
X183397567Y-106410462D01*
X183741343Y-106268417D01*
X184004592Y-106005627D01*
X184011899Y-105988031D01*
X184585124Y-106561256D01*
X184437632Y-106568638D01*
X184053857Y-106727603D01*
X183984392Y-106969787D01*
X184785000Y-107770395D01*
X184799143Y-107756253D01*
X184978748Y-107935858D01*
X184964605Y-107950000D01*
X185765213Y-108750608D01*
X186007397Y-108681143D01*
X186194144Y-108157698D01*
X186166362Y-107602632D01*
X186040635Y-107299100D01*
X189892628Y-107299100D01*
X189738243Y-107670900D01*
X189737758Y-108226661D01*
X189949990Y-108740303D01*
X190342630Y-109133629D01*
X190855900Y-109346757D01*
X191411661Y-109347242D01*
X191925303Y-109135010D01*
X192318629Y-108742370D01*
X192404949Y-108534488D01*
X192489990Y-108740303D01*
X192882630Y-109133629D01*
X193395900Y-109346757D01*
X193951661Y-109347242D01*
X194465303Y-109135010D01*
X194858629Y-108742370D01*
X194944949Y-108534488D01*
X195029990Y-108740303D01*
X195422630Y-109133629D01*
X195935900Y-109346757D01*
X196491661Y-109347242D01*
X197005303Y-109135010D01*
X197210457Y-108930213D01*
X197954392Y-108930213D01*
X198023857Y-109172397D01*
X198547302Y-109359144D01*
X199102368Y-109331362D01*
X199486143Y-109172397D01*
X199555608Y-108930213D01*
X198755000Y-108129605D01*
X197954392Y-108930213D01*
X197210457Y-108930213D01*
X197398629Y-108742370D01*
X197478395Y-108550273D01*
X197532603Y-108681143D01*
X197774787Y-108750608D01*
X198575395Y-107950000D01*
X198934605Y-107950000D01*
X199735213Y-108750608D01*
X199977397Y-108681143D01*
X200164144Y-108157698D01*
X200136362Y-107602632D01*
X199977397Y-107218857D01*
X199735213Y-107149392D01*
X198934605Y-107950000D01*
X198575395Y-107950000D01*
X197774787Y-107149392D01*
X197532603Y-107218857D01*
X197482491Y-107359318D01*
X197400010Y-107159697D01*
X197210432Y-106969787D01*
X197954392Y-106969787D01*
X198755000Y-107770395D01*
X199555608Y-106969787D01*
X199486143Y-106727603D01*
X199226211Y-106634868D01*
X201779737Y-106634868D01*
X201890641Y-106912099D01*
X202536593Y-107155323D01*
X203226453Y-107132836D01*
X203759359Y-106912099D01*
X203870263Y-106634868D01*
X202825000Y-105589605D01*
X201779737Y-106634868D01*
X199226211Y-106634868D01*
X198962698Y-106540856D01*
X198407632Y-106568638D01*
X198023857Y-106727603D01*
X197954392Y-106969787D01*
X197210432Y-106969787D01*
X197007370Y-106766371D01*
X196494100Y-106553243D01*
X196422951Y-106553181D01*
X197692950Y-105283182D01*
X197761661Y-105283242D01*
X198275303Y-105071010D01*
X198325400Y-105021000D01*
X201117554Y-105021000D01*
X201079677Y-105121593D01*
X201102164Y-105811453D01*
X201322901Y-106344359D01*
X201600132Y-106455263D01*
X202645395Y-105410000D01*
X203004605Y-105410000D01*
X204049868Y-106455263D01*
X204327099Y-106344359D01*
X204570323Y-105698407D01*
X204547836Y-105008547D01*
X204327099Y-104475641D01*
X204049868Y-104364737D01*
X203004605Y-105410000D01*
X202645395Y-105410000D01*
X202631253Y-105395858D01*
X202810858Y-105216253D01*
X202825000Y-105230395D01*
X203870263Y-104185132D01*
X203759359Y-103907901D01*
X203260768Y-103720164D01*
X204738933Y-102242000D01*
X206815500Y-102242000D01*
X206815438Y-102312767D01*
G36*
X178628748Y-110475858D02*
X178614605Y-110490000D01*
X178628748Y-110504143D01*
X178449143Y-110683748D01*
X178435000Y-110669605D01*
X178420858Y-110683748D01*
X178241253Y-110504143D01*
X178255395Y-110490000D01*
X178241253Y-110475858D01*
X178420858Y-110296253D01*
X178435000Y-110310395D01*
X178449143Y-110296253D01*
X178628748Y-110475858D01*
X178628748Y-110475858D01*
G37*
X178628748Y-110475858D02*
X178614605Y-110490000D01*
X178628748Y-110504143D01*
X178449143Y-110683748D01*
X178435000Y-110669605D01*
X178420858Y-110683748D01*
X178241253Y-110504143D01*
X178255395Y-110490000D01*
X178241253Y-110475858D01*
X178420858Y-110296253D01*
X178435000Y-110310395D01*
X178449143Y-110296253D01*
X178628748Y-110475858D01*
G36*
X151313495Y-95470391D02*
X151560057Y-95635137D01*
X151850896Y-95692989D01*
X165542426Y-95692989D01*
X165540262Y-95698201D01*
X165539938Y-96070167D01*
X165681983Y-96413943D01*
X165944773Y-96677192D01*
X166154460Y-96764262D01*
X167455198Y-98065000D01*
X152368397Y-98065000D01*
X152689975Y-97932127D01*
X152953224Y-97669337D01*
X153095870Y-97325809D01*
X153096194Y-96953843D01*
X152954149Y-96610067D01*
X152691359Y-96346818D01*
X152347831Y-96204172D01*
X151975865Y-96203848D01*
X151632089Y-96345893D01*
X151598914Y-96379010D01*
X151206390Y-96379010D01*
X150915551Y-96436862D01*
X150668989Y-96601609D01*
X146580220Y-100690378D01*
X146534733Y-100690338D01*
X146190957Y-100832383D01*
X145927708Y-101095173D01*
X145785062Y-101438701D01*
X145784738Y-101810667D01*
X145926783Y-102154443D01*
X146189573Y-102417692D01*
X146533101Y-102560338D01*
X146905067Y-102560662D01*
X147248843Y-102418617D01*
X147460646Y-102207183D01*
X147581999Y-102388801D01*
X147693536Y-102500338D01*
X147607632Y-102504638D01*
X147223857Y-102663603D01*
X147154392Y-102905787D01*
X147955000Y-103706395D01*
X147969143Y-103692253D01*
X148148748Y-103871858D01*
X148134605Y-103886000D01*
X148935213Y-104686608D01*
X149177397Y-104617143D01*
X149227509Y-104476682D01*
X149309990Y-104676303D01*
X149702630Y-105069629D01*
X150215900Y-105282757D01*
X150326088Y-105282853D01*
X150315193Y-105290133D01*
X150208334Y-105361534D01*
X149017050Y-106552818D01*
X148948339Y-106552758D01*
X148434697Y-106764990D01*
X148384600Y-106815000D01*
X148332000Y-106815000D01*
X147897654Y-106901397D01*
X147551281Y-107132836D01*
X147529434Y-107147434D01*
X146279368Y-108397500D01*
X146242520Y-108397500D01*
X146400323Y-107978407D01*
X146377836Y-107288547D01*
X146157099Y-106755641D01*
X145879868Y-106644737D01*
X144834605Y-107690000D01*
X144848748Y-107704143D01*
X144669143Y-107883748D01*
X144655000Y-107869605D01*
X144640858Y-107883748D01*
X144461253Y-107704143D01*
X144475395Y-107690000D01*
X143430132Y-106644737D01*
X143152901Y-106755641D01*
X142909677Y-107401593D01*
X142915464Y-107579131D01*
X141914843Y-106578511D01*
X141952092Y-106541327D01*
X141983731Y-106465132D01*
X143609737Y-106465132D01*
X144655000Y-107510395D01*
X145700263Y-106465132D01*
X145589359Y-106187901D01*
X144943407Y-105944677D01*
X144253547Y-105967164D01*
X143720641Y-106187901D01*
X143609737Y-106465132D01*
X141983731Y-106465132D01*
X142094738Y-106197799D01*
X142095062Y-105825833D01*
X141953017Y-105482057D01*
X141919900Y-105448882D01*
X141919900Y-104866213D01*
X147154392Y-104866213D01*
X147223857Y-105108397D01*
X147747302Y-105295144D01*
X148302368Y-105267362D01*
X148686143Y-105108397D01*
X148755608Y-104866213D01*
X147955000Y-104065605D01*
X147154392Y-104866213D01*
X141919900Y-104866213D01*
X141919900Y-103678302D01*
X146545856Y-103678302D01*
X146573638Y-104233368D01*
X146732603Y-104617143D01*
X146974787Y-104686608D01*
X147775395Y-103886000D01*
X146974787Y-103085392D01*
X146732603Y-103154857D01*
X146545856Y-103678302D01*
X141919900Y-103678302D01*
X141919900Y-102564868D01*
X142834737Y-102564868D01*
X142945641Y-102842099D01*
X143591593Y-103085323D01*
X144281453Y-103062836D01*
X144814359Y-102842099D01*
X144925263Y-102564868D01*
X143880000Y-101519605D01*
X142834737Y-102564868D01*
X141919900Y-102564868D01*
X141919900Y-102309702D01*
X142254107Y-101975495D01*
X142377901Y-102274359D01*
X142655132Y-102385263D01*
X143700395Y-101340000D01*
X144059605Y-101340000D01*
X145104868Y-102385263D01*
X145382099Y-102274359D01*
X145625323Y-101628407D01*
X145602836Y-100938547D01*
X145382099Y-100405641D01*
X145104868Y-100294737D01*
X144059605Y-101340000D01*
X143700395Y-101340000D01*
X143686253Y-101325858D01*
X143865858Y-101146253D01*
X143880000Y-101160395D01*
X144925263Y-100115132D01*
X144814359Y-99837901D01*
X144507314Y-99722288D01*
X148790613Y-95438989D01*
X150321894Y-95438989D01*
X150322648Y-95438839D01*
X150682060Y-95439152D01*
X151025836Y-95297107D01*
X151083074Y-95239969D01*
X151313495Y-95470391D01*
X151313495Y-95470391D01*
G37*
X151313495Y-95470391D02*
X151560057Y-95635137D01*
X151850896Y-95692989D01*
X165542426Y-95692989D01*
X165540262Y-95698201D01*
X165539938Y-96070167D01*
X165681983Y-96413943D01*
X165944773Y-96677192D01*
X166154460Y-96764262D01*
X167455198Y-98065000D01*
X152368397Y-98065000D01*
X152689975Y-97932127D01*
X152953224Y-97669337D01*
X153095870Y-97325809D01*
X153096194Y-96953843D01*
X152954149Y-96610067D01*
X152691359Y-96346818D01*
X152347831Y-96204172D01*
X151975865Y-96203848D01*
X151632089Y-96345893D01*
X151598914Y-96379010D01*
X151206390Y-96379010D01*
X150915551Y-96436862D01*
X150668989Y-96601609D01*
X146580220Y-100690378D01*
X146534733Y-100690338D01*
X146190957Y-100832383D01*
X145927708Y-101095173D01*
X145785062Y-101438701D01*
X145784738Y-101810667D01*
X145926783Y-102154443D01*
X146189573Y-102417692D01*
X146533101Y-102560338D01*
X146905067Y-102560662D01*
X147248843Y-102418617D01*
X147460646Y-102207183D01*
X147581999Y-102388801D01*
X147693536Y-102500338D01*
X147607632Y-102504638D01*
X147223857Y-102663603D01*
X147154392Y-102905787D01*
X147955000Y-103706395D01*
X147969143Y-103692253D01*
X148148748Y-103871858D01*
X148134605Y-103886000D01*
X148935213Y-104686608D01*
X149177397Y-104617143D01*
X149227509Y-104476682D01*
X149309990Y-104676303D01*
X149702630Y-105069629D01*
X150215900Y-105282757D01*
X150326088Y-105282853D01*
X150315193Y-105290133D01*
X150208334Y-105361534D01*
X149017050Y-106552818D01*
X148948339Y-106552758D01*
X148434697Y-106764990D01*
X148384600Y-106815000D01*
X148332000Y-106815000D01*
X147897654Y-106901397D01*
X147551281Y-107132836D01*
X147529434Y-107147434D01*
X146279368Y-108397500D01*
X146242520Y-108397500D01*
X146400323Y-107978407D01*
X146377836Y-107288547D01*
X146157099Y-106755641D01*
X145879868Y-106644737D01*
X144834605Y-107690000D01*
X144848748Y-107704143D01*
X144669143Y-107883748D01*
X144655000Y-107869605D01*
X144640858Y-107883748D01*
X144461253Y-107704143D01*
X144475395Y-107690000D01*
X143430132Y-106644737D01*
X143152901Y-106755641D01*
X142909677Y-107401593D01*
X142915464Y-107579131D01*
X141914843Y-106578511D01*
X141952092Y-106541327D01*
X141983731Y-106465132D01*
X143609737Y-106465132D01*
X144655000Y-107510395D01*
X145700263Y-106465132D01*
X145589359Y-106187901D01*
X144943407Y-105944677D01*
X144253547Y-105967164D01*
X143720641Y-106187901D01*
X143609737Y-106465132D01*
X141983731Y-106465132D01*
X142094738Y-106197799D01*
X142095062Y-105825833D01*
X141953017Y-105482057D01*
X141919900Y-105448882D01*
X141919900Y-104866213D01*
X147154392Y-104866213D01*
X147223857Y-105108397D01*
X147747302Y-105295144D01*
X148302368Y-105267362D01*
X148686143Y-105108397D01*
X148755608Y-104866213D01*
X147955000Y-104065605D01*
X147154392Y-104866213D01*
X141919900Y-104866213D01*
X141919900Y-103678302D01*
X146545856Y-103678302D01*
X146573638Y-104233368D01*
X146732603Y-104617143D01*
X146974787Y-104686608D01*
X147775395Y-103886000D01*
X146974787Y-103085392D01*
X146732603Y-103154857D01*
X146545856Y-103678302D01*
X141919900Y-103678302D01*
X141919900Y-102564868D01*
X142834737Y-102564868D01*
X142945641Y-102842099D01*
X143591593Y-103085323D01*
X144281453Y-103062836D01*
X144814359Y-102842099D01*
X144925263Y-102564868D01*
X143880000Y-101519605D01*
X142834737Y-102564868D01*
X141919900Y-102564868D01*
X141919900Y-102309702D01*
X142254107Y-101975495D01*
X142377901Y-102274359D01*
X142655132Y-102385263D01*
X143700395Y-101340000D01*
X144059605Y-101340000D01*
X145104868Y-102385263D01*
X145382099Y-102274359D01*
X145625323Y-101628407D01*
X145602836Y-100938547D01*
X145382099Y-100405641D01*
X145104868Y-100294737D01*
X144059605Y-101340000D01*
X143700395Y-101340000D01*
X143686253Y-101325858D01*
X143865858Y-101146253D01*
X143880000Y-101160395D01*
X144925263Y-100115132D01*
X144814359Y-99837901D01*
X144507314Y-99722288D01*
X148790613Y-95438989D01*
X150321894Y-95438989D01*
X150322648Y-95438839D01*
X150682060Y-95439152D01*
X151025836Y-95297107D01*
X151083074Y-95239969D01*
X151313495Y-95470391D01*
G36*
X157038748Y-107935858D02*
X157024605Y-107950000D01*
X157038748Y-107964143D01*
X156859143Y-108143748D01*
X156845000Y-108129605D01*
X156830858Y-108143748D01*
X156651253Y-107964143D01*
X156665395Y-107950000D01*
X156651253Y-107935858D01*
X156830858Y-107756253D01*
X156845000Y-107770395D01*
X156859143Y-107756253D01*
X157038748Y-107935858D01*
X157038748Y-107935858D01*
G37*
X157038748Y-107935858D02*
X157024605Y-107950000D01*
X157038748Y-107964143D01*
X156859143Y-108143748D01*
X156845000Y-108129605D01*
X156830858Y-108143748D01*
X156651253Y-107964143D01*
X156665395Y-107950000D01*
X156651253Y-107935858D01*
X156830858Y-107756253D01*
X156845000Y-107770395D01*
X156859143Y-107756253D01*
X157038748Y-107935858D01*
G36*
X172545062Y-101093101D02*
X172544738Y-101465067D01*
X172686783Y-101808843D01*
X172949573Y-102072092D01*
X173293101Y-102214738D01*
X173339977Y-102214779D01*
X174134799Y-103009601D01*
X174381361Y-103174348D01*
X174646811Y-103227150D01*
X174485856Y-103678302D01*
X174513638Y-104233368D01*
X174672603Y-104617143D01*
X174914787Y-104686608D01*
X175715395Y-103886000D01*
X175701253Y-103871858D01*
X175880858Y-103692253D01*
X175895000Y-103706395D01*
X175909143Y-103692253D01*
X176088748Y-103871858D01*
X176074605Y-103886000D01*
X176875213Y-104686608D01*
X177117397Y-104617143D01*
X177167509Y-104476682D01*
X177249990Y-104676303D01*
X177642630Y-105069629D01*
X178155900Y-105282757D01*
X178711661Y-105283242D01*
X179225303Y-105071010D01*
X179618629Y-104678370D01*
X179704949Y-104470488D01*
X179789990Y-104676303D01*
X180182630Y-105069629D01*
X180695900Y-105282757D01*
X180803347Y-105282851D01*
X180343557Y-105742641D01*
X180037999Y-105615762D01*
X179666033Y-105615438D01*
X179322257Y-105757483D01*
X179289082Y-105790600D01*
X175036402Y-105790600D01*
X174112015Y-104866213D01*
X175094392Y-104866213D01*
X175163857Y-105108397D01*
X175687302Y-105295144D01*
X176242368Y-105267362D01*
X176626143Y-105108397D01*
X176695608Y-104866213D01*
X175895000Y-104065605D01*
X175094392Y-104866213D01*
X174112015Y-104866213D01*
X171605891Y-102360089D01*
X171615608Y-102326213D01*
X170815000Y-101525605D01*
X170800858Y-101539748D01*
X170621253Y-101360143D01*
X170635395Y-101346000D01*
X170621253Y-101331858D01*
X170800858Y-101152253D01*
X170815000Y-101166395D01*
X170829143Y-101152253D01*
X171008748Y-101331858D01*
X170994605Y-101346000D01*
X171795213Y-102146608D01*
X172037397Y-102077143D01*
X172224144Y-101553698D01*
X172197361Y-101018600D01*
X172575998Y-101018600D01*
X172545062Y-101093101D01*
X172545062Y-101093101D01*
G37*
X172545062Y-101093101D02*
X172544738Y-101465067D01*
X172686783Y-101808843D01*
X172949573Y-102072092D01*
X173293101Y-102214738D01*
X173339977Y-102214779D01*
X174134799Y-103009601D01*
X174381361Y-103174348D01*
X174646811Y-103227150D01*
X174485856Y-103678302D01*
X174513638Y-104233368D01*
X174672603Y-104617143D01*
X174914787Y-104686608D01*
X175715395Y-103886000D01*
X175701253Y-103871858D01*
X175880858Y-103692253D01*
X175895000Y-103706395D01*
X175909143Y-103692253D01*
X176088748Y-103871858D01*
X176074605Y-103886000D01*
X176875213Y-104686608D01*
X177117397Y-104617143D01*
X177167509Y-104476682D01*
X177249990Y-104676303D01*
X177642630Y-105069629D01*
X178155900Y-105282757D01*
X178711661Y-105283242D01*
X179225303Y-105071010D01*
X179618629Y-104678370D01*
X179704949Y-104470488D01*
X179789990Y-104676303D01*
X180182630Y-105069629D01*
X180695900Y-105282757D01*
X180803347Y-105282851D01*
X180343557Y-105742641D01*
X180037999Y-105615762D01*
X179666033Y-105615438D01*
X179322257Y-105757483D01*
X179289082Y-105790600D01*
X175036402Y-105790600D01*
X174112015Y-104866213D01*
X175094392Y-104866213D01*
X175163857Y-105108397D01*
X175687302Y-105295144D01*
X176242368Y-105267362D01*
X176626143Y-105108397D01*
X176695608Y-104866213D01*
X175895000Y-104065605D01*
X175094392Y-104866213D01*
X174112015Y-104866213D01*
X171605891Y-102360089D01*
X171615608Y-102326213D01*
X170815000Y-101525605D01*
X170800858Y-101539748D01*
X170621253Y-101360143D01*
X170635395Y-101346000D01*
X170621253Y-101331858D01*
X170800858Y-101152253D01*
X170815000Y-101166395D01*
X170829143Y-101152253D01*
X171008748Y-101331858D01*
X170994605Y-101346000D01*
X171795213Y-102146608D01*
X172037397Y-102077143D01*
X172224144Y-101553698D01*
X172197361Y-101018600D01*
X172575998Y-101018600D01*
X172545062Y-101093101D01*
G36*
X188455856Y-103678302D02*
X188483638Y-104233368D01*
X188642603Y-104617143D01*
X188884787Y-104686608D01*
X189685395Y-103886000D01*
X189671253Y-103871858D01*
X189850858Y-103692253D01*
X189865000Y-103706395D01*
X189879143Y-103692253D01*
X190058748Y-103871858D01*
X190044605Y-103886000D01*
X190845213Y-104686608D01*
X191087397Y-104617143D01*
X191137509Y-104476682D01*
X191219990Y-104676303D01*
X191572172Y-105029100D01*
X190618888Y-105029100D01*
X190665608Y-104866213D01*
X189865000Y-104065605D01*
X189064392Y-104866213D01*
X189111112Y-105029100D01*
X186263232Y-105029100D01*
X184912182Y-103678050D01*
X184912242Y-103609339D01*
X184756412Y-103232200D01*
X188615010Y-103232200D01*
X188455856Y-103678302D01*
X188455856Y-103678302D01*
G37*
X188455856Y-103678302D02*
X188483638Y-104233368D01*
X188642603Y-104617143D01*
X188884787Y-104686608D01*
X189685395Y-103886000D01*
X189671253Y-103871858D01*
X189850858Y-103692253D01*
X189865000Y-103706395D01*
X189879143Y-103692253D01*
X190058748Y-103871858D01*
X190044605Y-103886000D01*
X190845213Y-104686608D01*
X191087397Y-104617143D01*
X191137509Y-104476682D01*
X191219990Y-104676303D01*
X191572172Y-105029100D01*
X190618888Y-105029100D01*
X190665608Y-104866213D01*
X189865000Y-104065605D01*
X189064392Y-104866213D01*
X189111112Y-105029100D01*
X186263232Y-105029100D01*
X184912182Y-103678050D01*
X184912242Y-103609339D01*
X184756412Y-103232200D01*
X188615010Y-103232200D01*
X188455856Y-103678302D01*
G36*
X206954578Y-92009580D02*
X206954538Y-92055067D01*
X207096583Y-92398843D01*
X207359373Y-92662092D01*
X207702901Y-92804738D01*
X208074867Y-92805062D01*
X208418643Y-92663017D01*
X208483285Y-92598487D01*
X213752700Y-97867902D01*
X213752700Y-99747298D01*
X210670201Y-96664799D01*
X210423639Y-96500052D01*
X210132800Y-96442200D01*
X208160363Y-96442200D01*
X208128227Y-96410008D01*
X207784699Y-96267362D01*
X207412733Y-96267038D01*
X207068957Y-96409083D01*
X206805708Y-96671873D01*
X206663062Y-97015401D01*
X206662738Y-97387367D01*
X206804783Y-97731143D01*
X207067573Y-97994392D01*
X207411101Y-98137038D01*
X207783067Y-98137362D01*
X208126843Y-97995317D01*
X208160018Y-97962200D01*
X209817998Y-97962200D01*
X211827798Y-99972000D01*
X204268800Y-99972000D01*
X203834454Y-100058397D01*
X203466233Y-100304434D01*
X201019668Y-102751000D01*
X198630096Y-102751000D01*
X199102368Y-102727362D01*
X199486143Y-102568397D01*
X199555608Y-102326213D01*
X198755000Y-101525605D01*
X197954392Y-102326213D01*
X198023857Y-102568397D01*
X198535687Y-102751000D01*
X198325914Y-102751000D01*
X198277370Y-102702371D01*
X197764100Y-102489243D01*
X197208339Y-102488758D01*
X196694697Y-102700990D01*
X196301371Y-103093630D01*
X196215051Y-103301512D01*
X196130010Y-103095697D01*
X195737370Y-102702371D01*
X195224100Y-102489243D01*
X194668339Y-102488758D01*
X194635945Y-102502143D01*
X194472132Y-102338330D01*
X194475608Y-102326213D01*
X195414392Y-102326213D01*
X195483857Y-102568397D01*
X196007302Y-102755144D01*
X196562368Y-102727362D01*
X196946143Y-102568397D01*
X197015608Y-102326213D01*
X196215000Y-101525605D01*
X195414392Y-102326213D01*
X194475608Y-102326213D01*
X193675000Y-101525605D01*
X193660858Y-101539748D01*
X193481253Y-101360143D01*
X193495395Y-101346000D01*
X193854605Y-101346000D01*
X194655213Y-102146608D01*
X194897397Y-102077143D01*
X194941453Y-101953656D01*
X194992603Y-102077143D01*
X195234787Y-102146608D01*
X196035395Y-101346000D01*
X196394605Y-101346000D01*
X197195213Y-102146608D01*
X197437397Y-102077143D01*
X197481453Y-101953656D01*
X197532603Y-102077143D01*
X197774787Y-102146608D01*
X198575395Y-101346000D01*
X198934605Y-101346000D01*
X199735213Y-102146608D01*
X199977397Y-102077143D01*
X200164144Y-101553698D01*
X200136362Y-100998632D01*
X199977397Y-100614857D01*
X199735213Y-100545392D01*
X198934605Y-101346000D01*
X198575395Y-101346000D01*
X197774787Y-100545392D01*
X197532603Y-100614857D01*
X197488547Y-100738344D01*
X197437397Y-100614857D01*
X197195213Y-100545392D01*
X196394605Y-101346000D01*
X196035395Y-101346000D01*
X195234787Y-100545392D01*
X194992603Y-100614857D01*
X194948547Y-100738344D01*
X194897397Y-100614857D01*
X194655213Y-100545392D01*
X193854605Y-101346000D01*
X193495395Y-101346000D01*
X192694787Y-100545392D01*
X192452603Y-100614857D01*
X192402491Y-100755318D01*
X192320010Y-100555697D01*
X192130432Y-100365787D01*
X192874392Y-100365787D01*
X193675000Y-101166395D01*
X194475608Y-100365787D01*
X195414392Y-100365787D01*
X196215000Y-101166395D01*
X197015608Y-100365787D01*
X197954392Y-100365787D01*
X198755000Y-101166395D01*
X199555608Y-100365787D01*
X199486143Y-100123603D01*
X198962698Y-99936856D01*
X198407632Y-99964638D01*
X198023857Y-100123603D01*
X197954392Y-100365787D01*
X197015608Y-100365787D01*
X196946143Y-100123603D01*
X196422698Y-99936856D01*
X195867632Y-99964638D01*
X195483857Y-100123603D01*
X195414392Y-100365787D01*
X194475608Y-100365787D01*
X194406143Y-100123603D01*
X193882698Y-99936856D01*
X193327632Y-99964638D01*
X192943857Y-100123603D01*
X192874392Y-100365787D01*
X192130432Y-100365787D01*
X191927370Y-100162371D01*
X191414100Y-99949243D01*
X191343313Y-99949181D01*
X190466366Y-99072234D01*
X190243496Y-98923317D01*
X190098146Y-98826197D01*
X189663800Y-98739800D01*
X178636200Y-98739800D01*
X178201854Y-98826197D01*
X178056504Y-98923317D01*
X177833634Y-99072234D01*
X177165000Y-99740868D01*
X176505166Y-99081034D01*
X176427663Y-99029248D01*
X176136946Y-98834997D01*
X175702600Y-98748600D01*
X173905602Y-98748600D01*
X177262285Y-95391917D01*
X177249100Y-95458200D01*
X177249100Y-96020937D01*
X177216908Y-96053073D01*
X177074262Y-96396601D01*
X177073938Y-96768567D01*
X177215983Y-97112343D01*
X177478773Y-97375592D01*
X177822301Y-97518238D01*
X178194267Y-97518562D01*
X178538043Y-97376517D01*
X178801292Y-97113727D01*
X178943938Y-96770199D01*
X178944262Y-96398233D01*
X178802217Y-96054457D01*
X178769100Y-96021282D01*
X178769100Y-95773002D01*
X179951980Y-94590122D01*
X179997467Y-94590162D01*
X180341243Y-94448117D01*
X180604492Y-94185327D01*
X180747138Y-93841799D01*
X180747179Y-93794923D01*
X181617000Y-92925102D01*
X181617000Y-94578298D01*
X181407920Y-94787378D01*
X181362433Y-94787338D01*
X181018657Y-94929383D01*
X180755408Y-95192173D01*
X180612762Y-95535701D01*
X180612438Y-95907667D01*
X180754483Y-96251443D01*
X181017273Y-96514692D01*
X181360801Y-96657338D01*
X181732767Y-96657662D01*
X182076543Y-96515617D01*
X182339792Y-96252827D01*
X182482438Y-95909299D01*
X182482479Y-95862423D01*
X182914401Y-95430501D01*
X183079148Y-95183939D01*
X183137000Y-94893100D01*
X183137000Y-93353528D01*
X183217701Y-93387038D01*
X183589667Y-93387362D01*
X183933443Y-93245317D01*
X183966618Y-93212200D01*
X204912298Y-93212200D01*
X207254678Y-95554580D01*
X207254638Y-95600067D01*
X207396683Y-95943843D01*
X207659473Y-96207092D01*
X208003001Y-96349738D01*
X208374967Y-96350062D01*
X208718743Y-96208017D01*
X208981992Y-95945227D01*
X209124638Y-95601699D01*
X209124962Y-95229733D01*
X208982917Y-94885957D01*
X208720127Y-94622708D01*
X208376599Y-94480062D01*
X208329723Y-94480021D01*
X205764501Y-91914799D01*
X205697604Y-91870100D01*
X206815098Y-91870100D01*
X206954578Y-92009580D01*
X206954578Y-92009580D01*
G37*
X206954578Y-92009580D02*
X206954538Y-92055067D01*
X207096583Y-92398843D01*
X207359373Y-92662092D01*
X207702901Y-92804738D01*
X208074867Y-92805062D01*
X208418643Y-92663017D01*
X208483285Y-92598487D01*
X213752700Y-97867902D01*
X213752700Y-99747298D01*
X210670201Y-96664799D01*
X210423639Y-96500052D01*
X210132800Y-96442200D01*
X208160363Y-96442200D01*
X208128227Y-96410008D01*
X207784699Y-96267362D01*
X207412733Y-96267038D01*
X207068957Y-96409083D01*
X206805708Y-96671873D01*
X206663062Y-97015401D01*
X206662738Y-97387367D01*
X206804783Y-97731143D01*
X207067573Y-97994392D01*
X207411101Y-98137038D01*
X207783067Y-98137362D01*
X208126843Y-97995317D01*
X208160018Y-97962200D01*
X209817998Y-97962200D01*
X211827798Y-99972000D01*
X204268800Y-99972000D01*
X203834454Y-100058397D01*
X203466233Y-100304434D01*
X201019668Y-102751000D01*
X198630096Y-102751000D01*
X199102368Y-102727362D01*
X199486143Y-102568397D01*
X199555608Y-102326213D01*
X198755000Y-101525605D01*
X197954392Y-102326213D01*
X198023857Y-102568397D01*
X198535687Y-102751000D01*
X198325914Y-102751000D01*
X198277370Y-102702371D01*
X197764100Y-102489243D01*
X197208339Y-102488758D01*
X196694697Y-102700990D01*
X196301371Y-103093630D01*
X196215051Y-103301512D01*
X196130010Y-103095697D01*
X195737370Y-102702371D01*
X195224100Y-102489243D01*
X194668339Y-102488758D01*
X194635945Y-102502143D01*
X194472132Y-102338330D01*
X194475608Y-102326213D01*
X195414392Y-102326213D01*
X195483857Y-102568397D01*
X196007302Y-102755144D01*
X196562368Y-102727362D01*
X196946143Y-102568397D01*
X197015608Y-102326213D01*
X196215000Y-101525605D01*
X195414392Y-102326213D01*
X194475608Y-102326213D01*
X193675000Y-101525605D01*
X193660858Y-101539748D01*
X193481253Y-101360143D01*
X193495395Y-101346000D01*
X193854605Y-101346000D01*
X194655213Y-102146608D01*
X194897397Y-102077143D01*
X194941453Y-101953656D01*
X194992603Y-102077143D01*
X195234787Y-102146608D01*
X196035395Y-101346000D01*
X196394605Y-101346000D01*
X197195213Y-102146608D01*
X197437397Y-102077143D01*
X197481453Y-101953656D01*
X197532603Y-102077143D01*
X197774787Y-102146608D01*
X198575395Y-101346000D01*
X198934605Y-101346000D01*
X199735213Y-102146608D01*
X199977397Y-102077143D01*
X200164144Y-101553698D01*
X200136362Y-100998632D01*
X199977397Y-100614857D01*
X199735213Y-100545392D01*
X198934605Y-101346000D01*
X198575395Y-101346000D01*
X197774787Y-100545392D01*
X197532603Y-100614857D01*
X197488547Y-100738344D01*
X197437397Y-100614857D01*
X197195213Y-100545392D01*
X196394605Y-101346000D01*
X196035395Y-101346000D01*
X195234787Y-100545392D01*
X194992603Y-100614857D01*
X194948547Y-100738344D01*
X194897397Y-100614857D01*
X194655213Y-100545392D01*
X193854605Y-101346000D01*
X193495395Y-101346000D01*
X192694787Y-100545392D01*
X192452603Y-100614857D01*
X192402491Y-100755318D01*
X192320010Y-100555697D01*
X192130432Y-100365787D01*
X192874392Y-100365787D01*
X193675000Y-101166395D01*
X194475608Y-100365787D01*
X195414392Y-100365787D01*
X196215000Y-101166395D01*
X197015608Y-100365787D01*
X197954392Y-100365787D01*
X198755000Y-101166395D01*
X199555608Y-100365787D01*
X199486143Y-100123603D01*
X198962698Y-99936856D01*
X198407632Y-99964638D01*
X198023857Y-100123603D01*
X197954392Y-100365787D01*
X197015608Y-100365787D01*
X196946143Y-100123603D01*
X196422698Y-99936856D01*
X195867632Y-99964638D01*
X195483857Y-100123603D01*
X195414392Y-100365787D01*
X194475608Y-100365787D01*
X194406143Y-100123603D01*
X193882698Y-99936856D01*
X193327632Y-99964638D01*
X192943857Y-100123603D01*
X192874392Y-100365787D01*
X192130432Y-100365787D01*
X191927370Y-100162371D01*
X191414100Y-99949243D01*
X191343313Y-99949181D01*
X190466366Y-99072234D01*
X190243496Y-98923317D01*
X190098146Y-98826197D01*
X189663800Y-98739800D01*
X178636200Y-98739800D01*
X178201854Y-98826197D01*
X178056504Y-98923317D01*
X177833634Y-99072234D01*
X177165000Y-99740868D01*
X176505166Y-99081034D01*
X176427663Y-99029248D01*
X176136946Y-98834997D01*
X175702600Y-98748600D01*
X173905602Y-98748600D01*
X177262285Y-95391917D01*
X177249100Y-95458200D01*
X177249100Y-96020937D01*
X177216908Y-96053073D01*
X177074262Y-96396601D01*
X177073938Y-96768567D01*
X177215983Y-97112343D01*
X177478773Y-97375592D01*
X177822301Y-97518238D01*
X178194267Y-97518562D01*
X178538043Y-97376517D01*
X178801292Y-97113727D01*
X178943938Y-96770199D01*
X178944262Y-96398233D01*
X178802217Y-96054457D01*
X178769100Y-96021282D01*
X178769100Y-95773002D01*
X179951980Y-94590122D01*
X179997467Y-94590162D01*
X180341243Y-94448117D01*
X180604492Y-94185327D01*
X180747138Y-93841799D01*
X180747179Y-93794923D01*
X181617000Y-92925102D01*
X181617000Y-94578298D01*
X181407920Y-94787378D01*
X181362433Y-94787338D01*
X181018657Y-94929383D01*
X180755408Y-95192173D01*
X180612762Y-95535701D01*
X180612438Y-95907667D01*
X180754483Y-96251443D01*
X181017273Y-96514692D01*
X181360801Y-96657338D01*
X181732767Y-96657662D01*
X182076543Y-96515617D01*
X182339792Y-96252827D01*
X182482438Y-95909299D01*
X182482479Y-95862423D01*
X182914401Y-95430501D01*
X183079148Y-95183939D01*
X183137000Y-94893100D01*
X183137000Y-93353528D01*
X183217701Y-93387038D01*
X183589667Y-93387362D01*
X183933443Y-93245317D01*
X183966618Y-93212200D01*
X204912298Y-93212200D01*
X207254678Y-95554580D01*
X207254638Y-95600067D01*
X207396683Y-95943843D01*
X207659473Y-96207092D01*
X208003001Y-96349738D01*
X208374967Y-96350062D01*
X208718743Y-96208017D01*
X208981992Y-95945227D01*
X209124638Y-95601699D01*
X209124962Y-95229733D01*
X208982917Y-94885957D01*
X208720127Y-94622708D01*
X208376599Y-94480062D01*
X208329723Y-94480021D01*
X205764501Y-91914799D01*
X205697604Y-91870100D01*
X206815098Y-91870100D01*
X206954578Y-92009580D01*
G36*
X168468748Y-101331858D02*
X168454605Y-101346000D01*
X168468748Y-101360143D01*
X168289143Y-101539748D01*
X168275000Y-101525605D01*
X168260858Y-101539748D01*
X168081253Y-101360143D01*
X168095395Y-101346000D01*
X168081253Y-101331858D01*
X168260858Y-101152253D01*
X168275000Y-101166395D01*
X168289143Y-101152253D01*
X168468748Y-101331858D01*
X168468748Y-101331858D01*
G37*
X168468748Y-101331858D02*
X168454605Y-101346000D01*
X168468748Y-101360143D01*
X168289143Y-101539748D01*
X168275000Y-101525605D01*
X168260858Y-101539748D01*
X168081253Y-101360143D01*
X168095395Y-101346000D01*
X168081253Y-101331858D01*
X168260858Y-101152253D01*
X168275000Y-101166395D01*
X168289143Y-101152253D01*
X168468748Y-101331858D01*
G36*
X179898748Y-101331858D02*
X179884605Y-101346000D01*
X179898748Y-101360143D01*
X179719143Y-101539748D01*
X179705000Y-101525605D01*
X179690858Y-101539748D01*
X179511253Y-101360143D01*
X179525395Y-101346000D01*
X179511253Y-101331858D01*
X179690858Y-101152253D01*
X179705000Y-101166395D01*
X179719143Y-101152253D01*
X179898748Y-101331858D01*
X179898748Y-101331858D01*
G37*
X179898748Y-101331858D02*
X179884605Y-101346000D01*
X179898748Y-101360143D01*
X179719143Y-101539748D01*
X179705000Y-101525605D01*
X179690858Y-101539748D01*
X179511253Y-101360143D01*
X179525395Y-101346000D01*
X179511253Y-101331858D01*
X179690858Y-101152253D01*
X179705000Y-101166395D01*
X179719143Y-101152253D01*
X179898748Y-101331858D01*
G36*
X151958748Y-101331858D02*
X151944605Y-101346000D01*
X151958748Y-101360143D01*
X151779143Y-101539748D01*
X151765000Y-101525605D01*
X151750858Y-101539748D01*
X151571253Y-101360143D01*
X151585395Y-101346000D01*
X151571253Y-101331858D01*
X151750858Y-101152253D01*
X151765000Y-101166395D01*
X151779143Y-101152253D01*
X151958748Y-101331858D01*
X151958748Y-101331858D01*
G37*
X151958748Y-101331858D02*
X151944605Y-101346000D01*
X151958748Y-101360143D01*
X151779143Y-101539748D01*
X151765000Y-101525605D01*
X151750858Y-101539748D01*
X151571253Y-101360143D01*
X151585395Y-101346000D01*
X151571253Y-101331858D01*
X151750858Y-101152253D01*
X151765000Y-101166395D01*
X151779143Y-101152253D01*
X151958748Y-101331858D01*
G36*
X184978748Y-101331858D02*
X184964605Y-101346000D01*
X184978748Y-101360143D01*
X184799143Y-101539748D01*
X184785000Y-101525605D01*
X184770858Y-101539748D01*
X184591253Y-101360143D01*
X184605395Y-101346000D01*
X184591253Y-101331858D01*
X184770858Y-101152253D01*
X184785000Y-101166395D01*
X184799143Y-101152253D01*
X184978748Y-101331858D01*
X184978748Y-101331858D01*
G37*
X184978748Y-101331858D02*
X184964605Y-101346000D01*
X184978748Y-101360143D01*
X184799143Y-101539748D01*
X184785000Y-101525605D01*
X184770858Y-101539748D01*
X184591253Y-101360143D01*
X184605395Y-101346000D01*
X184591253Y-101331858D01*
X184770858Y-101152253D01*
X184785000Y-101166395D01*
X184799143Y-101152253D01*
X184978748Y-101331858D01*
G36*
X182438748Y-101331858D02*
X182424605Y-101346000D01*
X182438748Y-101360143D01*
X182259143Y-101539748D01*
X182245000Y-101525605D01*
X182230858Y-101539748D01*
X182051253Y-101360143D01*
X182065395Y-101346000D01*
X182051253Y-101331858D01*
X182230858Y-101152253D01*
X182245000Y-101166395D01*
X182259143Y-101152253D01*
X182438748Y-101331858D01*
X182438748Y-101331858D01*
G37*
X182438748Y-101331858D02*
X182424605Y-101346000D01*
X182438748Y-101360143D01*
X182259143Y-101539748D01*
X182245000Y-101525605D01*
X182230858Y-101539748D01*
X182051253Y-101360143D01*
X182065395Y-101346000D01*
X182051253Y-101331858D01*
X182230858Y-101152253D01*
X182245000Y-101166395D01*
X182259143Y-101152253D01*
X182438748Y-101331858D01*
G36*
X154498748Y-101331858D02*
X154484605Y-101346000D01*
X154498748Y-101360143D01*
X154319143Y-101539748D01*
X154305000Y-101525605D01*
X154290858Y-101539748D01*
X154111253Y-101360143D01*
X154125395Y-101346000D01*
X154111253Y-101331858D01*
X154290858Y-101152253D01*
X154305000Y-101166395D01*
X154319143Y-101152253D01*
X154498748Y-101331858D01*
X154498748Y-101331858D01*
G37*
X154498748Y-101331858D02*
X154484605Y-101346000D01*
X154498748Y-101360143D01*
X154319143Y-101539748D01*
X154305000Y-101525605D01*
X154290858Y-101539748D01*
X154111253Y-101360143D01*
X154125395Y-101346000D01*
X154111253Y-101331858D01*
X154290858Y-101152253D01*
X154305000Y-101166395D01*
X154319143Y-101152253D01*
X154498748Y-101331858D01*
G36*
X165928748Y-101331858D02*
X165914605Y-101346000D01*
X165928748Y-101360143D01*
X165749143Y-101539748D01*
X165735000Y-101525605D01*
X165720858Y-101539748D01*
X165541253Y-101360143D01*
X165555395Y-101346000D01*
X165541253Y-101331858D01*
X165720858Y-101152253D01*
X165735000Y-101166395D01*
X165749143Y-101152253D01*
X165928748Y-101331858D01*
X165928748Y-101331858D01*
G37*
X165928748Y-101331858D02*
X165914605Y-101346000D01*
X165928748Y-101360143D01*
X165749143Y-101539748D01*
X165735000Y-101525605D01*
X165720858Y-101539748D01*
X165541253Y-101360143D01*
X165555395Y-101346000D01*
X165541253Y-101331858D01*
X165720858Y-101152253D01*
X165735000Y-101166395D01*
X165749143Y-101152253D01*
X165928748Y-101331858D01*
G36*
X157038748Y-101331858D02*
X157024605Y-101346000D01*
X157038748Y-101360143D01*
X156859143Y-101539748D01*
X156845000Y-101525605D01*
X156830858Y-101539748D01*
X156651253Y-101360143D01*
X156665395Y-101346000D01*
X156651253Y-101331858D01*
X156830858Y-101152253D01*
X156845000Y-101166395D01*
X156859143Y-101152253D01*
X157038748Y-101331858D01*
X157038748Y-101331858D01*
G37*
X157038748Y-101331858D02*
X157024605Y-101346000D01*
X157038748Y-101360143D01*
X156859143Y-101539748D01*
X156845000Y-101525605D01*
X156830858Y-101539748D01*
X156651253Y-101360143D01*
X156665395Y-101346000D01*
X156651253Y-101331858D01*
X156830858Y-101152253D01*
X156845000Y-101166395D01*
X156859143Y-101152253D01*
X157038748Y-101331858D01*
G36*
X152925338Y-89275667D02*
X153067383Y-89619443D01*
X153330173Y-89882692D01*
X153673701Y-90025338D01*
X154045667Y-90025662D01*
X154389443Y-89883617D01*
X154549840Y-89723500D01*
X161038698Y-89723500D01*
X162142999Y-90827801D01*
X162389561Y-90992548D01*
X162680400Y-91050400D01*
X167379611Y-91050400D01*
X167625773Y-91296992D01*
X167969301Y-91439638D01*
X168341267Y-91439962D01*
X168685043Y-91297917D01*
X168926410Y-91056971D01*
X168950983Y-91116443D01*
X169213773Y-91379692D01*
X169557301Y-91522338D01*
X169929267Y-91522662D01*
X170273043Y-91380617D01*
X170536292Y-91117827D01*
X170564290Y-91050400D01*
X173486900Y-91050400D01*
X173550686Y-91037712D01*
X172892398Y-91696000D01*
X152770433Y-91696000D01*
X152234633Y-91160200D01*
X151988071Y-90995453D01*
X151697232Y-90937601D01*
X148459953Y-90937601D01*
X148459979Y-90908223D01*
X150142704Y-89225498D01*
X152925382Y-89225498D01*
X152925338Y-89275667D01*
X152925338Y-89275667D01*
G37*
X152925338Y-89275667D02*
X153067383Y-89619443D01*
X153330173Y-89882692D01*
X153673701Y-90025338D01*
X154045667Y-90025662D01*
X154389443Y-89883617D01*
X154549840Y-89723500D01*
X161038698Y-89723500D01*
X162142999Y-90827801D01*
X162389561Y-90992548D01*
X162680400Y-91050400D01*
X167379611Y-91050400D01*
X167625773Y-91296992D01*
X167969301Y-91439638D01*
X168341267Y-91439962D01*
X168685043Y-91297917D01*
X168926410Y-91056971D01*
X168950983Y-91116443D01*
X169213773Y-91379692D01*
X169557301Y-91522338D01*
X169929267Y-91522662D01*
X170273043Y-91380617D01*
X170536292Y-91117827D01*
X170564290Y-91050400D01*
X173486900Y-91050400D01*
X173550686Y-91037712D01*
X172892398Y-91696000D01*
X152770433Y-91696000D01*
X152234633Y-91160200D01*
X151988071Y-90995453D01*
X151697232Y-90937601D01*
X148459953Y-90937601D01*
X148459979Y-90908223D01*
X150142704Y-89225498D01*
X152925382Y-89225498D01*
X152925338Y-89275667D01*
G36*
X155995000Y-82264250D02*
X156153750Y-82423000D01*
X157353000Y-82423000D01*
X157353000Y-82403000D01*
X157607000Y-82403000D01*
X157607000Y-82423000D01*
X159893000Y-82423000D01*
X159893000Y-82403000D01*
X160147000Y-82403000D01*
X160147000Y-82423000D01*
X160167000Y-82423000D01*
X160167000Y-82677000D01*
X160147000Y-82677000D01*
X160147000Y-83870155D01*
X160376890Y-83991476D01*
X160786924Y-83821645D01*
X161215183Y-83431358D01*
X161282298Y-83288447D01*
X161509946Y-83629147D01*
X161991715Y-83951054D01*
X162560000Y-84064093D01*
X163070000Y-83962648D01*
X163070000Y-84040300D01*
X163127852Y-84331139D01*
X163292599Y-84577701D01*
X165010899Y-86296001D01*
X165257461Y-86460748D01*
X165548300Y-86518600D01*
X172727300Y-86518600D01*
X172763873Y-86511325D01*
X172660222Y-86614976D01*
X149614826Y-86614976D01*
X153394052Y-82835750D01*
X155995000Y-82835750D01*
X155995000Y-83526309D01*
X156091673Y-83759698D01*
X156270301Y-83938327D01*
X156503690Y-84035000D01*
X157194250Y-84035000D01*
X157353000Y-83876250D01*
X157353000Y-82677000D01*
X157607000Y-82677000D01*
X157607000Y-83876250D01*
X157765750Y-84035000D01*
X158456310Y-84035000D01*
X158689699Y-83938327D01*
X158868327Y-83759698D01*
X158955136Y-83550122D01*
X159253076Y-83821645D01*
X159663110Y-83991476D01*
X159893000Y-83870155D01*
X159893000Y-82677000D01*
X157607000Y-82677000D01*
X157353000Y-82677000D01*
X156153750Y-82677000D01*
X155995000Y-82835750D01*
X153394052Y-82835750D01*
X154095202Y-82134600D01*
X155995000Y-82134600D01*
X155995000Y-82264250D01*
X155995000Y-82264250D01*
G37*
X155995000Y-82264250D02*
X156153750Y-82423000D01*
X157353000Y-82423000D01*
X157353000Y-82403000D01*
X157607000Y-82403000D01*
X157607000Y-82423000D01*
X159893000Y-82423000D01*
X159893000Y-82403000D01*
X160147000Y-82403000D01*
X160147000Y-82423000D01*
X160167000Y-82423000D01*
X160167000Y-82677000D01*
X160147000Y-82677000D01*
X160147000Y-83870155D01*
X160376890Y-83991476D01*
X160786924Y-83821645D01*
X161215183Y-83431358D01*
X161282298Y-83288447D01*
X161509946Y-83629147D01*
X161991715Y-83951054D01*
X162560000Y-84064093D01*
X163070000Y-83962648D01*
X163070000Y-84040300D01*
X163127852Y-84331139D01*
X163292599Y-84577701D01*
X165010899Y-86296001D01*
X165257461Y-86460748D01*
X165548300Y-86518600D01*
X172727300Y-86518600D01*
X172763873Y-86511325D01*
X172660222Y-86614976D01*
X149614826Y-86614976D01*
X153394052Y-82835750D01*
X155995000Y-82835750D01*
X155995000Y-83526309D01*
X156091673Y-83759698D01*
X156270301Y-83938327D01*
X156503690Y-84035000D01*
X157194250Y-84035000D01*
X157353000Y-83876250D01*
X157353000Y-82677000D01*
X157607000Y-82677000D01*
X157607000Y-83876250D01*
X157765750Y-84035000D01*
X158456310Y-84035000D01*
X158689699Y-83938327D01*
X158868327Y-83759698D01*
X158955136Y-83550122D01*
X159253076Y-83821645D01*
X159663110Y-83991476D01*
X159893000Y-83870155D01*
X159893000Y-82677000D01*
X157607000Y-82677000D01*
X157353000Y-82677000D01*
X156153750Y-82677000D01*
X155995000Y-82835750D01*
X153394052Y-82835750D01*
X154095202Y-82134600D01*
X155995000Y-82134600D01*
X155995000Y-82264250D01*
G36*
X156038514Y-79653108D02*
X156159181Y-79883000D01*
X157353000Y-79883000D01*
X157353000Y-79863000D01*
X157607000Y-79863000D01*
X157607000Y-79883000D01*
X157627000Y-79883000D01*
X157627000Y-80137000D01*
X157607000Y-80137000D01*
X157607000Y-80157000D01*
X157353000Y-80157000D01*
X157353000Y-80137000D01*
X156159181Y-80137000D01*
X156038514Y-80366892D01*
X156154844Y-80614600D01*
X154772732Y-80614600D01*
X155808632Y-79578700D01*
X156073458Y-79578700D01*
X156038514Y-79653108D01*
X156038514Y-79653108D01*
G37*
X156038514Y-79653108D02*
X156159181Y-79883000D01*
X157353000Y-79883000D01*
X157353000Y-79863000D01*
X157607000Y-79863000D01*
X157607000Y-79883000D01*
X157627000Y-79883000D01*
X157627000Y-80137000D01*
X157607000Y-80137000D01*
X157607000Y-80157000D01*
X157353000Y-80157000D01*
X157353000Y-80137000D01*
X156159181Y-80137000D01*
X156038514Y-80366892D01*
X156154844Y-80614600D01*
X154772732Y-80614600D01*
X155808632Y-79578700D01*
X156073458Y-79578700D01*
X156038514Y-79653108D01*
M02*
