G04 #@! TF.FileFunction,Legend,Top*
%FSLAX46Y46*%
G04 Gerber Fmt 4.6, Leading zero omitted, Abs format (unit mm)*
G04 Created by KiCad (PCBNEW 4.0.6) date 06/24/17 11:43:18*
%MOMM*%
%LPD*%
G01*
G04 APERTURE LIST*
%ADD10C,0.100000*%
%ADD11C,0.300000*%
%ADD12C,0.002540*%
%ADD13C,0.120000*%
%ADD14C,0.150000*%
G04 APERTURE END LIST*
D10*
X185486586Y-87777981D02*
X185010395Y-87777981D01*
X185010395Y-86777981D01*
X185819919Y-87777981D02*
X185819919Y-87111314D01*
X185819919Y-86777981D02*
X185772300Y-86825600D01*
X185819919Y-86873219D01*
X185867538Y-86825600D01*
X185819919Y-86777981D01*
X185819919Y-86873219D01*
X186724681Y-87730362D02*
X186629443Y-87777981D01*
X186438966Y-87777981D01*
X186343728Y-87730362D01*
X186296109Y-87682743D01*
X186248490Y-87587505D01*
X186248490Y-87301790D01*
X186296109Y-87206552D01*
X186343728Y-87158933D01*
X186438966Y-87111314D01*
X186629443Y-87111314D01*
X186724681Y-87158933D01*
X187534205Y-87730362D02*
X187438967Y-87777981D01*
X187248490Y-87777981D01*
X187153252Y-87730362D01*
X187105633Y-87635124D01*
X187105633Y-87254171D01*
X187153252Y-87158933D01*
X187248490Y-87111314D01*
X187438967Y-87111314D01*
X187534205Y-87158933D01*
X187581824Y-87254171D01*
X187581824Y-87349410D01*
X187105633Y-87444648D01*
X188010395Y-87111314D02*
X188010395Y-87777981D01*
X188010395Y-87206552D02*
X188058014Y-87158933D01*
X188153252Y-87111314D01*
X188296110Y-87111314D01*
X188391348Y-87158933D01*
X188438967Y-87254171D01*
X188438967Y-87777981D01*
X188867538Y-87730362D02*
X188962776Y-87777981D01*
X189153252Y-87777981D01*
X189248491Y-87730362D01*
X189296110Y-87635124D01*
X189296110Y-87587505D01*
X189248491Y-87492267D01*
X189153252Y-87444648D01*
X189010395Y-87444648D01*
X188915157Y-87397029D01*
X188867538Y-87301790D01*
X188867538Y-87254171D01*
X188915157Y-87158933D01*
X189010395Y-87111314D01*
X189153252Y-87111314D01*
X189248491Y-87158933D01*
X190105634Y-87730362D02*
X190010396Y-87777981D01*
X189819919Y-87777981D01*
X189724681Y-87730362D01*
X189677062Y-87635124D01*
X189677062Y-87254171D01*
X189724681Y-87158933D01*
X189819919Y-87111314D01*
X190010396Y-87111314D01*
X190105634Y-87158933D01*
X190153253Y-87254171D01*
X190153253Y-87349410D01*
X189677062Y-87444648D01*
X191010396Y-87777981D02*
X191010396Y-86777981D01*
X191010396Y-87730362D02*
X190915158Y-87777981D01*
X190724681Y-87777981D01*
X190629443Y-87730362D01*
X190581824Y-87682743D01*
X190534205Y-87587505D01*
X190534205Y-87301790D01*
X190581824Y-87206552D01*
X190629443Y-87158933D01*
X190724681Y-87111314D01*
X190915158Y-87111314D01*
X191010396Y-87158933D01*
X192677063Y-87111314D02*
X192677063Y-87777981D01*
X192248491Y-87111314D02*
X192248491Y-87635124D01*
X192296110Y-87730362D01*
X192391348Y-87777981D01*
X192534206Y-87777981D01*
X192629444Y-87730362D01*
X192677063Y-87682743D01*
X193153253Y-87111314D02*
X193153253Y-87777981D01*
X193153253Y-87206552D02*
X193200872Y-87158933D01*
X193296110Y-87111314D01*
X193438968Y-87111314D01*
X193534206Y-87158933D01*
X193581825Y-87254171D01*
X193581825Y-87777981D01*
X194486587Y-87777981D02*
X194486587Y-86777981D01*
X194486587Y-87730362D02*
X194391349Y-87777981D01*
X194200872Y-87777981D01*
X194105634Y-87730362D01*
X194058015Y-87682743D01*
X194010396Y-87587505D01*
X194010396Y-87301790D01*
X194058015Y-87206552D01*
X194105634Y-87158933D01*
X194200872Y-87111314D01*
X194391349Y-87111314D01*
X194486587Y-87158933D01*
X195343730Y-87730362D02*
X195248492Y-87777981D01*
X195058015Y-87777981D01*
X194962777Y-87730362D01*
X194915158Y-87635124D01*
X194915158Y-87254171D01*
X194962777Y-87158933D01*
X195058015Y-87111314D01*
X195248492Y-87111314D01*
X195343730Y-87158933D01*
X195391349Y-87254171D01*
X195391349Y-87349410D01*
X194915158Y-87444648D01*
X195819920Y-87777981D02*
X195819920Y-87111314D01*
X195819920Y-87301790D02*
X195867539Y-87206552D01*
X195915158Y-87158933D01*
X196010396Y-87111314D01*
X196105635Y-87111314D01*
X197058016Y-87111314D02*
X197438968Y-87111314D01*
X197200873Y-86777981D02*
X197200873Y-87635124D01*
X197248492Y-87730362D01*
X197343730Y-87777981D01*
X197438968Y-87777981D01*
X197772302Y-87777981D02*
X197772302Y-86777981D01*
X198200874Y-87777981D02*
X198200874Y-87254171D01*
X198153255Y-87158933D01*
X198058017Y-87111314D01*
X197915159Y-87111314D01*
X197819921Y-87158933D01*
X197772302Y-87206552D01*
X199058017Y-87730362D02*
X198962779Y-87777981D01*
X198772302Y-87777981D01*
X198677064Y-87730362D01*
X198629445Y-87635124D01*
X198629445Y-87254171D01*
X198677064Y-87158933D01*
X198772302Y-87111314D01*
X198962779Y-87111314D01*
X199058017Y-87158933D01*
X199105636Y-87254171D01*
X199105636Y-87349410D01*
X198629445Y-87444648D01*
X200153255Y-86777981D02*
X200724684Y-86777981D01*
X200438969Y-87777981D02*
X200438969Y-86777981D01*
X201010398Y-87492267D02*
X201486589Y-87492267D01*
X200915160Y-87777981D02*
X201248493Y-86777981D01*
X201581827Y-87777981D01*
X201915160Y-87777981D02*
X201915160Y-86777981D01*
X202296113Y-86777981D01*
X202391351Y-86825600D01*
X202438970Y-86873219D01*
X202486589Y-86968457D01*
X202486589Y-87111314D01*
X202438970Y-87206552D01*
X202391351Y-87254171D01*
X202296113Y-87301790D01*
X201915160Y-87301790D01*
X203486589Y-87777981D02*
X203153255Y-87301790D01*
X202915160Y-87777981D02*
X202915160Y-86777981D01*
X203296113Y-86777981D01*
X203391351Y-86825600D01*
X203438970Y-86873219D01*
X203486589Y-86968457D01*
X203486589Y-87111314D01*
X203438970Y-87206552D01*
X203391351Y-87254171D01*
X203296113Y-87301790D01*
X202915160Y-87301790D01*
X185200871Y-88377981D02*
X185391348Y-88377981D01*
X185486586Y-88425600D01*
X185581824Y-88520838D01*
X185629443Y-88711314D01*
X185629443Y-89044648D01*
X185581824Y-89235124D01*
X185486586Y-89330362D01*
X185391348Y-89377981D01*
X185200871Y-89377981D01*
X185105633Y-89330362D01*
X185010395Y-89235124D01*
X184962776Y-89044648D01*
X184962776Y-88711314D01*
X185010395Y-88520838D01*
X185105633Y-88425600D01*
X185200871Y-88377981D01*
X186058014Y-88711314D02*
X186058014Y-89711314D01*
X186058014Y-88758933D02*
X186153252Y-88711314D01*
X186343729Y-88711314D01*
X186438967Y-88758933D01*
X186486586Y-88806552D01*
X186534205Y-88901790D01*
X186534205Y-89187505D01*
X186486586Y-89282743D01*
X186438967Y-89330362D01*
X186343729Y-89377981D01*
X186153252Y-89377981D01*
X186058014Y-89330362D01*
X187343729Y-89330362D02*
X187248491Y-89377981D01*
X187058014Y-89377981D01*
X186962776Y-89330362D01*
X186915157Y-89235124D01*
X186915157Y-88854171D01*
X186962776Y-88758933D01*
X187058014Y-88711314D01*
X187248491Y-88711314D01*
X187343729Y-88758933D01*
X187391348Y-88854171D01*
X187391348Y-88949410D01*
X186915157Y-89044648D01*
X187819919Y-88711314D02*
X187819919Y-89377981D01*
X187819919Y-88806552D02*
X187867538Y-88758933D01*
X187962776Y-88711314D01*
X188105634Y-88711314D01*
X188200872Y-88758933D01*
X188248491Y-88854171D01*
X188248491Y-89377981D01*
X189486586Y-89377981D02*
X189486586Y-88377981D01*
X189486586Y-88854171D02*
X190058015Y-88854171D01*
X190058015Y-89377981D02*
X190058015Y-88377981D01*
X190962777Y-89377981D02*
X190962777Y-88854171D01*
X190915158Y-88758933D01*
X190819920Y-88711314D01*
X190629443Y-88711314D01*
X190534205Y-88758933D01*
X190962777Y-89330362D02*
X190867539Y-89377981D01*
X190629443Y-89377981D01*
X190534205Y-89330362D01*
X190486586Y-89235124D01*
X190486586Y-89139886D01*
X190534205Y-89044648D01*
X190629443Y-88997029D01*
X190867539Y-88997029D01*
X190962777Y-88949410D01*
X191438967Y-89377981D02*
X191438967Y-88711314D01*
X191438967Y-88901790D02*
X191486586Y-88806552D01*
X191534205Y-88758933D01*
X191629443Y-88711314D01*
X191724682Y-88711314D01*
X192486587Y-89377981D02*
X192486587Y-88377981D01*
X192486587Y-89330362D02*
X192391349Y-89377981D01*
X192200872Y-89377981D01*
X192105634Y-89330362D01*
X192058015Y-89282743D01*
X192010396Y-89187505D01*
X192010396Y-88901790D01*
X192058015Y-88806552D01*
X192105634Y-88758933D01*
X192200872Y-88711314D01*
X192391349Y-88711314D01*
X192486587Y-88758933D01*
X192867539Y-88711314D02*
X193058015Y-89377981D01*
X193248492Y-88901790D01*
X193438968Y-89377981D01*
X193629444Y-88711314D01*
X194438968Y-89377981D02*
X194438968Y-88854171D01*
X194391349Y-88758933D01*
X194296111Y-88711314D01*
X194105634Y-88711314D01*
X194010396Y-88758933D01*
X194438968Y-89330362D02*
X194343730Y-89377981D01*
X194105634Y-89377981D01*
X194010396Y-89330362D01*
X193962777Y-89235124D01*
X193962777Y-89139886D01*
X194010396Y-89044648D01*
X194105634Y-88997029D01*
X194343730Y-88997029D01*
X194438968Y-88949410D01*
X194915158Y-89377981D02*
X194915158Y-88711314D01*
X194915158Y-88901790D02*
X194962777Y-88806552D01*
X195010396Y-88758933D01*
X195105634Y-88711314D01*
X195200873Y-88711314D01*
X195915159Y-89330362D02*
X195819921Y-89377981D01*
X195629444Y-89377981D01*
X195534206Y-89330362D01*
X195486587Y-89235124D01*
X195486587Y-88854171D01*
X195534206Y-88758933D01*
X195629444Y-88711314D01*
X195819921Y-88711314D01*
X195915159Y-88758933D01*
X195962778Y-88854171D01*
X195962778Y-88949410D01*
X195486587Y-89044648D01*
X197629445Y-89377981D02*
X197153254Y-89377981D01*
X197153254Y-88377981D01*
X197962778Y-89377981D02*
X197962778Y-88711314D01*
X197962778Y-88377981D02*
X197915159Y-88425600D01*
X197962778Y-88473219D01*
X198010397Y-88425600D01*
X197962778Y-88377981D01*
X197962778Y-88473219D01*
X198867540Y-89330362D02*
X198772302Y-89377981D01*
X198581825Y-89377981D01*
X198486587Y-89330362D01*
X198438968Y-89282743D01*
X198391349Y-89187505D01*
X198391349Y-88901790D01*
X198438968Y-88806552D01*
X198486587Y-88758933D01*
X198581825Y-88711314D01*
X198772302Y-88711314D01*
X198867540Y-88758933D01*
X199677064Y-89330362D02*
X199581826Y-89377981D01*
X199391349Y-89377981D01*
X199296111Y-89330362D01*
X199248492Y-89235124D01*
X199248492Y-88854171D01*
X199296111Y-88758933D01*
X199391349Y-88711314D01*
X199581826Y-88711314D01*
X199677064Y-88758933D01*
X199724683Y-88854171D01*
X199724683Y-88949410D01*
X199248492Y-89044648D01*
X200153254Y-88711314D02*
X200153254Y-89377981D01*
X200153254Y-88806552D02*
X200200873Y-88758933D01*
X200296111Y-88711314D01*
X200438969Y-88711314D01*
X200534207Y-88758933D01*
X200581826Y-88854171D01*
X200581826Y-89377981D01*
X201010397Y-89330362D02*
X201105635Y-89377981D01*
X201296111Y-89377981D01*
X201391350Y-89330362D01*
X201438969Y-89235124D01*
X201438969Y-89187505D01*
X201391350Y-89092267D01*
X201296111Y-89044648D01*
X201153254Y-89044648D01*
X201058016Y-88997029D01*
X201010397Y-88901790D01*
X201010397Y-88854171D01*
X201058016Y-88758933D01*
X201153254Y-88711314D01*
X201296111Y-88711314D01*
X201391350Y-88758933D01*
X202248493Y-89330362D02*
X202153255Y-89377981D01*
X201962778Y-89377981D01*
X201867540Y-89330362D01*
X201819921Y-89235124D01*
X201819921Y-88854171D01*
X201867540Y-88758933D01*
X201962778Y-88711314D01*
X202153255Y-88711314D01*
X202248493Y-88758933D01*
X202296112Y-88854171D01*
X202296112Y-88949410D01*
X201819921Y-89044648D01*
X185296110Y-91358933D02*
X185248490Y-91311314D01*
X185153252Y-91168457D01*
X185105633Y-91073219D01*
X185058014Y-90930362D01*
X185010395Y-90692267D01*
X185010395Y-90501790D01*
X185058014Y-90263695D01*
X185105633Y-90120838D01*
X185153252Y-90025600D01*
X185248490Y-89882743D01*
X185296110Y-89835124D01*
X185581824Y-90311314D02*
X185772300Y-90977981D01*
X185962777Y-90501790D01*
X186153253Y-90977981D01*
X186343729Y-90311314D01*
X186629443Y-90311314D02*
X186819919Y-90977981D01*
X187010396Y-90501790D01*
X187200872Y-90977981D01*
X187391348Y-90311314D01*
X187677062Y-90311314D02*
X187867538Y-90977981D01*
X188058015Y-90501790D01*
X188248491Y-90977981D01*
X188438967Y-90311314D01*
X188819919Y-90882743D02*
X188867538Y-90930362D01*
X188819919Y-90977981D01*
X188772300Y-90930362D01*
X188819919Y-90882743D01*
X188819919Y-90977981D01*
X189153252Y-90311314D02*
X189534204Y-90311314D01*
X189296109Y-89977981D02*
X189296109Y-90835124D01*
X189343728Y-90930362D01*
X189438966Y-90977981D01*
X189534204Y-90977981D01*
X190296110Y-90977981D02*
X190296110Y-90454171D01*
X190248491Y-90358933D01*
X190153253Y-90311314D01*
X189962776Y-90311314D01*
X189867538Y-90358933D01*
X190296110Y-90930362D02*
X190200872Y-90977981D01*
X189962776Y-90977981D01*
X189867538Y-90930362D01*
X189819919Y-90835124D01*
X189819919Y-90739886D01*
X189867538Y-90644648D01*
X189962776Y-90597029D01*
X190200872Y-90597029D01*
X190296110Y-90549410D01*
X190772300Y-90311314D02*
X190772300Y-91311314D01*
X190772300Y-90358933D02*
X190867538Y-90311314D01*
X191058015Y-90311314D01*
X191153253Y-90358933D01*
X191200872Y-90406552D01*
X191248491Y-90501790D01*
X191248491Y-90787505D01*
X191200872Y-90882743D01*
X191153253Y-90930362D01*
X191058015Y-90977981D01*
X190867538Y-90977981D01*
X190772300Y-90930362D01*
X191677062Y-90977981D02*
X191677062Y-90311314D01*
X191677062Y-90501790D02*
X191724681Y-90406552D01*
X191772300Y-90358933D01*
X191867538Y-90311314D01*
X191962777Y-90311314D01*
X192296110Y-90882743D02*
X192343729Y-90930362D01*
X192296110Y-90977981D01*
X192248491Y-90930362D01*
X192296110Y-90882743D01*
X192296110Y-90977981D01*
X192915157Y-90977981D02*
X192819919Y-90930362D01*
X192772300Y-90882743D01*
X192724681Y-90787505D01*
X192724681Y-90501790D01*
X192772300Y-90406552D01*
X192819919Y-90358933D01*
X192915157Y-90311314D01*
X193058015Y-90311314D01*
X193153253Y-90358933D01*
X193200872Y-90406552D01*
X193248491Y-90501790D01*
X193248491Y-90787505D01*
X193200872Y-90882743D01*
X193153253Y-90930362D01*
X193058015Y-90977981D01*
X192915157Y-90977981D01*
X193677062Y-90977981D02*
X193677062Y-90311314D01*
X193677062Y-90501790D02*
X193724681Y-90406552D01*
X193772300Y-90358933D01*
X193867538Y-90311314D01*
X193962777Y-90311314D01*
X194724682Y-90311314D02*
X194724682Y-91120838D01*
X194677063Y-91216076D01*
X194629444Y-91263695D01*
X194534205Y-91311314D01*
X194391348Y-91311314D01*
X194296110Y-91263695D01*
X194724682Y-90930362D02*
X194629444Y-90977981D01*
X194438967Y-90977981D01*
X194343729Y-90930362D01*
X194296110Y-90882743D01*
X194248491Y-90787505D01*
X194248491Y-90501790D01*
X194296110Y-90406552D01*
X194343729Y-90358933D01*
X194438967Y-90311314D01*
X194629444Y-90311314D01*
X194724682Y-90358933D01*
X195915158Y-89930362D02*
X195058015Y-91216076D01*
X196438967Y-89977981D02*
X196629444Y-89977981D01*
X196724682Y-90025600D01*
X196819920Y-90120838D01*
X196867539Y-90311314D01*
X196867539Y-90644648D01*
X196819920Y-90835124D01*
X196724682Y-90930362D01*
X196629444Y-90977981D01*
X196438967Y-90977981D01*
X196343729Y-90930362D01*
X196248491Y-90835124D01*
X196200872Y-90644648D01*
X196200872Y-90311314D01*
X196248491Y-90120838D01*
X196343729Y-90025600D01*
X196438967Y-89977981D01*
X197296110Y-90977981D02*
X197296110Y-89977981D01*
X197296110Y-90454171D02*
X197867539Y-90454171D01*
X197867539Y-90977981D02*
X197867539Y-89977981D01*
X198819920Y-90977981D02*
X198343729Y-90977981D01*
X198343729Y-89977981D01*
X199058015Y-91358933D02*
X199105634Y-91311314D01*
X199200872Y-91168457D01*
X199248491Y-91073219D01*
X199296110Y-90930362D01*
X199343729Y-90692267D01*
X199343729Y-90501790D01*
X199296110Y-90263695D01*
X199248491Y-90120838D01*
X199200872Y-90025600D01*
X199105634Y-89882743D01*
X199058015Y-89835124D01*
X185581824Y-92482743D02*
X185534205Y-92530362D01*
X185391348Y-92577981D01*
X185296110Y-92577981D01*
X185153252Y-92530362D01*
X185058014Y-92435124D01*
X185010395Y-92339886D01*
X184962776Y-92149410D01*
X184962776Y-92006552D01*
X185010395Y-91816076D01*
X185058014Y-91720838D01*
X185153252Y-91625600D01*
X185296110Y-91577981D01*
X185391348Y-91577981D01*
X185534205Y-91625600D01*
X185581824Y-91673219D01*
X186153252Y-92577981D02*
X186058014Y-92530362D01*
X186010395Y-92482743D01*
X185962776Y-92387505D01*
X185962776Y-92101790D01*
X186010395Y-92006552D01*
X186058014Y-91958933D01*
X186153252Y-91911314D01*
X186296110Y-91911314D01*
X186391348Y-91958933D01*
X186438967Y-92006552D01*
X186486586Y-92101790D01*
X186486586Y-92387505D01*
X186438967Y-92482743D01*
X186391348Y-92530362D01*
X186296110Y-92577981D01*
X186153252Y-92577981D01*
X186915157Y-91911314D02*
X186915157Y-92911314D01*
X186915157Y-91958933D02*
X187010395Y-91911314D01*
X187200872Y-91911314D01*
X187296110Y-91958933D01*
X187343729Y-92006552D01*
X187391348Y-92101790D01*
X187391348Y-92387505D01*
X187343729Y-92482743D01*
X187296110Y-92530362D01*
X187200872Y-92577981D01*
X187010395Y-92577981D01*
X186915157Y-92530362D01*
X187724681Y-91911314D02*
X187962776Y-92577981D01*
X188200872Y-91911314D02*
X187962776Y-92577981D01*
X187867538Y-92816076D01*
X187819919Y-92863695D01*
X187724681Y-92911314D01*
X188581824Y-92577981D02*
X188581824Y-91911314D01*
X188581824Y-92101790D02*
X188629443Y-92006552D01*
X188677062Y-91958933D01*
X188772300Y-91911314D01*
X188867539Y-91911314D01*
X189200872Y-92577981D02*
X189200872Y-91911314D01*
X189200872Y-91577981D02*
X189153253Y-91625600D01*
X189200872Y-91673219D01*
X189248491Y-91625600D01*
X189200872Y-91577981D01*
X189200872Y-91673219D01*
X190105634Y-91911314D02*
X190105634Y-92720838D01*
X190058015Y-92816076D01*
X190010396Y-92863695D01*
X189915157Y-92911314D01*
X189772300Y-92911314D01*
X189677062Y-92863695D01*
X190105634Y-92530362D02*
X190010396Y-92577981D01*
X189819919Y-92577981D01*
X189724681Y-92530362D01*
X189677062Y-92482743D01*
X189629443Y-92387505D01*
X189629443Y-92101790D01*
X189677062Y-92006552D01*
X189724681Y-91958933D01*
X189819919Y-91911314D01*
X190010396Y-91911314D01*
X190105634Y-91958933D01*
X190581824Y-92577981D02*
X190581824Y-91577981D01*
X191010396Y-92577981D02*
X191010396Y-92054171D01*
X190962777Y-91958933D01*
X190867539Y-91911314D01*
X190724681Y-91911314D01*
X190629443Y-91958933D01*
X190581824Y-92006552D01*
X191343729Y-91911314D02*
X191724681Y-91911314D01*
X191486586Y-91577981D02*
X191486586Y-92435124D01*
X191534205Y-92530362D01*
X191629443Y-92577981D01*
X191724681Y-92577981D01*
X193629444Y-91816076D02*
X193534206Y-91768457D01*
X193343730Y-91768457D01*
X193248492Y-91816076D01*
X193153254Y-91911314D01*
X193105635Y-92006552D01*
X193105635Y-92197029D01*
X193153254Y-92292267D01*
X193248492Y-92387505D01*
X193343730Y-92435124D01*
X193534206Y-92435124D01*
X193629444Y-92387505D01*
X193438968Y-91435124D02*
X193200873Y-91482743D01*
X192962777Y-91625600D01*
X192819920Y-91863695D01*
X192772301Y-92101790D01*
X192819920Y-92339886D01*
X192962777Y-92577981D01*
X193200873Y-92720838D01*
X193438968Y-92768457D01*
X193677063Y-92720838D01*
X193915158Y-92577981D01*
X194058015Y-92339886D01*
X194105635Y-92101790D01*
X194058015Y-91863695D01*
X193915158Y-91625600D01*
X193677063Y-91482743D01*
X193438968Y-91435124D01*
X195248492Y-91673219D02*
X195296111Y-91625600D01*
X195391349Y-91577981D01*
X195629445Y-91577981D01*
X195724683Y-91625600D01*
X195772302Y-91673219D01*
X195819921Y-91768457D01*
X195819921Y-91863695D01*
X195772302Y-92006552D01*
X195200873Y-92577981D01*
X195819921Y-92577981D01*
X196438968Y-91577981D02*
X196534207Y-91577981D01*
X196629445Y-91625600D01*
X196677064Y-91673219D01*
X196724683Y-91768457D01*
X196772302Y-91958933D01*
X196772302Y-92197029D01*
X196724683Y-92387505D01*
X196677064Y-92482743D01*
X196629445Y-92530362D01*
X196534207Y-92577981D01*
X196438968Y-92577981D01*
X196343730Y-92530362D01*
X196296111Y-92482743D01*
X196248492Y-92387505D01*
X196200873Y-92197029D01*
X196200873Y-91958933D01*
X196248492Y-91768457D01*
X196296111Y-91673219D01*
X196343730Y-91625600D01*
X196438968Y-91577981D01*
X197724683Y-92577981D02*
X197153254Y-92577981D01*
X197438968Y-92577981D02*
X197438968Y-91577981D01*
X197343730Y-91720838D01*
X197248492Y-91816076D01*
X197153254Y-91863695D01*
X198058016Y-91577981D02*
X198724683Y-91577981D01*
X198296111Y-92577981D01*
X185010395Y-94177981D02*
X185010395Y-93177981D01*
X185486585Y-93511314D02*
X185486585Y-94177981D01*
X185486585Y-93606552D02*
X185534204Y-93558933D01*
X185629442Y-93511314D01*
X185772300Y-93511314D01*
X185867538Y-93558933D01*
X185915157Y-93654171D01*
X185915157Y-94177981D01*
X186248490Y-93511314D02*
X186629442Y-93511314D01*
X186391347Y-94177981D02*
X186391347Y-93320838D01*
X186438966Y-93225600D01*
X186534204Y-93177981D01*
X186629442Y-93177981D01*
X187343729Y-94130362D02*
X187248491Y-94177981D01*
X187058014Y-94177981D01*
X186962776Y-94130362D01*
X186915157Y-94035124D01*
X186915157Y-93654171D01*
X186962776Y-93558933D01*
X187058014Y-93511314D01*
X187248491Y-93511314D01*
X187343729Y-93558933D01*
X187391348Y-93654171D01*
X187391348Y-93749410D01*
X186915157Y-93844648D01*
X187819919Y-94177981D02*
X187819919Y-93511314D01*
X187819919Y-93701790D02*
X187867538Y-93606552D01*
X187915157Y-93558933D01*
X188010395Y-93511314D01*
X188105634Y-93511314D01*
X188438967Y-93511314D02*
X188438967Y-94177981D01*
X188438967Y-93606552D02*
X188486586Y-93558933D01*
X188581824Y-93511314D01*
X188724682Y-93511314D01*
X188819920Y-93558933D01*
X188867539Y-93654171D01*
X188867539Y-94177981D01*
X189486586Y-94177981D02*
X189391348Y-94130362D01*
X189343729Y-94082743D01*
X189296110Y-93987505D01*
X189296110Y-93701790D01*
X189343729Y-93606552D01*
X189391348Y-93558933D01*
X189486586Y-93511314D01*
X189629444Y-93511314D01*
X189724682Y-93558933D01*
X189772301Y-93606552D01*
X189819920Y-93701790D01*
X189819920Y-93987505D01*
X189772301Y-94082743D01*
X189724682Y-94130362D01*
X189629444Y-94177981D01*
X189486586Y-94177981D01*
X191010396Y-93654171D02*
X191343730Y-93654171D01*
X191486587Y-94177981D02*
X191010396Y-94177981D01*
X191010396Y-93177981D01*
X191486587Y-93177981D01*
X191915158Y-94177981D02*
X191915158Y-93511314D01*
X191915158Y-93606552D02*
X191962777Y-93558933D01*
X192058015Y-93511314D01*
X192200873Y-93511314D01*
X192296111Y-93558933D01*
X192343730Y-93654171D01*
X192343730Y-94177981D01*
X192343730Y-93654171D02*
X192391349Y-93558933D01*
X192486587Y-93511314D01*
X192629444Y-93511314D01*
X192724682Y-93558933D01*
X192772301Y-93654171D01*
X192772301Y-94177981D01*
X193248491Y-94177981D02*
X193248491Y-93177981D01*
X193248491Y-93558933D02*
X193343729Y-93511314D01*
X193534206Y-93511314D01*
X193629444Y-93558933D01*
X193677063Y-93606552D01*
X193724682Y-93701790D01*
X193724682Y-93987505D01*
X193677063Y-94082743D01*
X193629444Y-94130362D01*
X193534206Y-94177981D01*
X193343729Y-94177981D01*
X193248491Y-94130362D01*
X194534206Y-94130362D02*
X194438968Y-94177981D01*
X194248491Y-94177981D01*
X194153253Y-94130362D01*
X194105634Y-94035124D01*
X194105634Y-93654171D01*
X194153253Y-93558933D01*
X194248491Y-93511314D01*
X194438968Y-93511314D01*
X194534206Y-93558933D01*
X194581825Y-93654171D01*
X194581825Y-93749410D01*
X194105634Y-93844648D01*
X195438968Y-94177981D02*
X195438968Y-93177981D01*
X195438968Y-94130362D02*
X195343730Y-94177981D01*
X195153253Y-94177981D01*
X195058015Y-94130362D01*
X195010396Y-94082743D01*
X194962777Y-93987505D01*
X194962777Y-93701790D01*
X195010396Y-93606552D01*
X195058015Y-93558933D01*
X195153253Y-93511314D01*
X195343730Y-93511314D01*
X195438968Y-93558933D01*
X196343730Y-94177981D02*
X196343730Y-93177981D01*
X196343730Y-94130362D02*
X196248492Y-94177981D01*
X196058015Y-94177981D01*
X195962777Y-94130362D01*
X195915158Y-94082743D01*
X195867539Y-93987505D01*
X195867539Y-93701790D01*
X195915158Y-93606552D01*
X195962777Y-93558933D01*
X196058015Y-93511314D01*
X196248492Y-93511314D01*
X196343730Y-93558933D01*
X197200873Y-94130362D02*
X197105635Y-94177981D01*
X196915158Y-94177981D01*
X196819920Y-94130362D01*
X196772301Y-94035124D01*
X196772301Y-93654171D01*
X196819920Y-93558933D01*
X196915158Y-93511314D01*
X197105635Y-93511314D01*
X197200873Y-93558933D01*
X197248492Y-93654171D01*
X197248492Y-93749410D01*
X196772301Y-93844648D01*
X198105635Y-94177981D02*
X198105635Y-93177981D01*
X198105635Y-94130362D02*
X198010397Y-94177981D01*
X197819920Y-94177981D01*
X197724682Y-94130362D01*
X197677063Y-94082743D01*
X197629444Y-93987505D01*
X197629444Y-93701790D01*
X197677063Y-93606552D01*
X197724682Y-93558933D01*
X197819920Y-93511314D01*
X198010397Y-93511314D01*
X198105635Y-93558933D01*
D11*
X131406757Y-89548171D02*
X130549614Y-89548171D01*
X130978186Y-89548171D02*
X130978186Y-88048171D01*
X130835329Y-88262457D01*
X130692471Y-88405314D01*
X130549614Y-88476743D01*
X133049614Y-88048171D02*
X133406757Y-89548171D01*
X133692471Y-88476743D01*
X133978185Y-89548171D01*
X134335328Y-88048171D01*
X134906757Y-89548171D02*
X134906757Y-88548171D01*
X134906757Y-88048171D02*
X134835328Y-88119600D01*
X134906757Y-88191029D01*
X134978185Y-88119600D01*
X134906757Y-88048171D01*
X134906757Y-88191029D01*
X135621043Y-89548171D02*
X135621043Y-88548171D01*
X135621043Y-88833886D02*
X135692471Y-88691029D01*
X135763900Y-88619600D01*
X135906757Y-88548171D01*
X136049614Y-88548171D01*
X137121042Y-89476743D02*
X136978185Y-89548171D01*
X136692471Y-89548171D01*
X136549614Y-89476743D01*
X136478185Y-89333886D01*
X136478185Y-88762457D01*
X136549614Y-88619600D01*
X136692471Y-88548171D01*
X136978185Y-88548171D01*
X137121042Y-88619600D01*
X137192471Y-88762457D01*
X137192471Y-88905314D01*
X136478185Y-89048171D01*
X138978185Y-89548171D02*
X138978185Y-88048171D01*
X139549613Y-88048171D01*
X139692471Y-88119600D01*
X139763899Y-88191029D01*
X139835328Y-88333886D01*
X139835328Y-88548171D01*
X139763899Y-88691029D01*
X139692471Y-88762457D01*
X139549613Y-88833886D01*
X138978185Y-88833886D01*
X140692471Y-89548171D02*
X140549613Y-89476743D01*
X140478185Y-89405314D01*
X140406756Y-89262457D01*
X140406756Y-88833886D01*
X140478185Y-88691029D01*
X140549613Y-88619600D01*
X140692471Y-88548171D01*
X140906756Y-88548171D01*
X141049613Y-88619600D01*
X141121042Y-88691029D01*
X141192471Y-88833886D01*
X141192471Y-89262457D01*
X141121042Y-89405314D01*
X141049613Y-89476743D01*
X140906756Y-89548171D01*
X140692471Y-89548171D01*
X141835328Y-89548171D02*
X141835328Y-88548171D01*
X141835328Y-88833886D02*
X141906756Y-88691029D01*
X141978185Y-88619600D01*
X142121042Y-88548171D01*
X142263899Y-88548171D01*
X142549613Y-88548171D02*
X143121042Y-88548171D01*
X142763899Y-88048171D02*
X142763899Y-89333886D01*
X142835327Y-89476743D01*
X142978185Y-89548171D01*
X143121042Y-89548171D01*
X144763899Y-89548171D02*
X144763899Y-88048171D01*
X145121042Y-88048171D01*
X145335327Y-88119600D01*
X145478185Y-88262457D01*
X145549613Y-88405314D01*
X145621042Y-88691029D01*
X145621042Y-88905314D01*
X145549613Y-89191029D01*
X145478185Y-89333886D01*
X145335327Y-89476743D01*
X145121042Y-89548171D01*
X144763899Y-89548171D01*
X146263899Y-89548171D02*
X146263899Y-88548171D01*
X146263899Y-88833886D02*
X146335327Y-88691029D01*
X146406756Y-88619600D01*
X146549613Y-88548171D01*
X146692470Y-88548171D01*
X147192470Y-89548171D02*
X147192470Y-88548171D01*
X147192470Y-88048171D02*
X147121041Y-88119600D01*
X147192470Y-88191029D01*
X147263898Y-88119600D01*
X147192470Y-88048171D01*
X147192470Y-88191029D01*
X147763899Y-88548171D02*
X148121042Y-89548171D01*
X148478184Y-88548171D01*
X149621041Y-89476743D02*
X149478184Y-89548171D01*
X149192470Y-89548171D01*
X149049613Y-89476743D01*
X148978184Y-89333886D01*
X148978184Y-88762457D01*
X149049613Y-88619600D01*
X149192470Y-88548171D01*
X149478184Y-88548171D01*
X149621041Y-88619600D01*
X149692470Y-88762457D01*
X149692470Y-88905314D01*
X148978184Y-89048171D01*
X150335327Y-89548171D02*
X150335327Y-88548171D01*
X150335327Y-88833886D02*
X150406755Y-88691029D01*
X150478184Y-88619600D01*
X150621041Y-88548171D01*
X150763898Y-88548171D01*
X152906755Y-88762457D02*
X153121041Y-88833886D01*
X153192469Y-88905314D01*
X153263898Y-89048171D01*
X153263898Y-89262457D01*
X153192469Y-89405314D01*
X153121041Y-89476743D01*
X152978183Y-89548171D01*
X152406755Y-89548171D01*
X152406755Y-88048171D01*
X152906755Y-88048171D01*
X153049612Y-88119600D01*
X153121041Y-88191029D01*
X153192469Y-88333886D01*
X153192469Y-88476743D01*
X153121041Y-88619600D01*
X153049612Y-88691029D01*
X152906755Y-88762457D01*
X152406755Y-88762457D01*
X154121041Y-89548171D02*
X153978183Y-89476743D01*
X153906755Y-89405314D01*
X153835326Y-89262457D01*
X153835326Y-88833886D01*
X153906755Y-88691029D01*
X153978183Y-88619600D01*
X154121041Y-88548171D01*
X154335326Y-88548171D01*
X154478183Y-88619600D01*
X154549612Y-88691029D01*
X154621041Y-88833886D01*
X154621041Y-89262457D01*
X154549612Y-89405314D01*
X154478183Y-89476743D01*
X154335326Y-89548171D01*
X154121041Y-89548171D01*
X155906755Y-89548171D02*
X155906755Y-88762457D01*
X155835326Y-88619600D01*
X155692469Y-88548171D01*
X155406755Y-88548171D01*
X155263898Y-88619600D01*
X155906755Y-89476743D02*
X155763898Y-89548171D01*
X155406755Y-89548171D01*
X155263898Y-89476743D01*
X155192469Y-89333886D01*
X155192469Y-89191029D01*
X155263898Y-89048171D01*
X155406755Y-88976743D01*
X155763898Y-88976743D01*
X155906755Y-88905314D01*
X156621041Y-89548171D02*
X156621041Y-88548171D01*
X156621041Y-88833886D02*
X156692469Y-88691029D01*
X156763898Y-88619600D01*
X156906755Y-88548171D01*
X157049612Y-88548171D01*
X158192469Y-89548171D02*
X158192469Y-88048171D01*
X158192469Y-89476743D02*
X158049612Y-89548171D01*
X157763898Y-89548171D01*
X157621040Y-89476743D01*
X157549612Y-89405314D01*
X157478183Y-89262457D01*
X157478183Y-88833886D01*
X157549612Y-88691029D01*
X157621040Y-88619600D01*
X157763898Y-88548171D01*
X158049612Y-88548171D01*
X158192469Y-88619600D01*
X130406757Y-90598171D02*
X130906757Y-92098171D01*
X131406757Y-90598171D01*
X132478185Y-92026743D02*
X132335328Y-92098171D01*
X132049614Y-92098171D01*
X131906757Y-92026743D01*
X131835328Y-91883886D01*
X131835328Y-91312457D01*
X131906757Y-91169600D01*
X132049614Y-91098171D01*
X132335328Y-91098171D01*
X132478185Y-91169600D01*
X132549614Y-91312457D01*
X132549614Y-91455314D01*
X131835328Y-91598171D01*
X133192471Y-92098171D02*
X133192471Y-91098171D01*
X133192471Y-91383886D02*
X133263899Y-91241029D01*
X133335328Y-91169600D01*
X133478185Y-91098171D01*
X133621042Y-91098171D01*
X136049613Y-92098171D02*
X135192470Y-92098171D01*
X135621042Y-92098171D02*
X135621042Y-90598171D01*
X135478185Y-90812457D01*
X135335327Y-90955314D01*
X135192470Y-91026743D01*
X136692470Y-91955314D02*
X136763898Y-92026743D01*
X136692470Y-92098171D01*
X136621041Y-92026743D01*
X136692470Y-91955314D01*
X136692470Y-92098171D01*
X137692470Y-90598171D02*
X137835327Y-90598171D01*
X137978184Y-90669600D01*
X138049613Y-90741029D01*
X138121042Y-90883886D01*
X138192470Y-91169600D01*
X138192470Y-91526743D01*
X138121042Y-91812457D01*
X138049613Y-91955314D01*
X137978184Y-92026743D01*
X137835327Y-92098171D01*
X137692470Y-92098171D01*
X137549613Y-92026743D01*
X137478184Y-91955314D01*
X137406756Y-91812457D01*
X137335327Y-91526743D01*
X137335327Y-91169600D01*
X137406756Y-90883886D01*
X137478184Y-90741029D01*
X137549613Y-90669600D01*
X137692470Y-90598171D01*
D12*
G36*
X209928460Y-94764860D02*
X209887820Y-94744540D01*
X209793840Y-94686120D01*
X209659220Y-94597220D01*
X209501740Y-94493080D01*
X209344260Y-94383860D01*
X209214720Y-94297500D01*
X209123280Y-94239080D01*
X209085180Y-94218760D01*
X209064860Y-94223840D01*
X208988660Y-94261940D01*
X208879440Y-94317820D01*
X208815940Y-94350840D01*
X208716880Y-94394020D01*
X208666080Y-94404180D01*
X208658460Y-94388940D01*
X208620360Y-94312740D01*
X208564480Y-94180660D01*
X208488280Y-94007940D01*
X208401920Y-93804740D01*
X208307940Y-93586300D01*
X208216500Y-93362780D01*
X208127600Y-93149420D01*
X208048860Y-92958920D01*
X207985360Y-92803980D01*
X207944720Y-92694760D01*
X207929480Y-92649040D01*
X207934560Y-92638880D01*
X207985360Y-92590620D01*
X208071720Y-92524580D01*
X208262220Y-92369640D01*
X208447640Y-92135960D01*
X208561940Y-91871800D01*
X208600040Y-91577160D01*
X208567020Y-91305380D01*
X208460340Y-91043760D01*
X208277460Y-90807540D01*
X208056480Y-90632280D01*
X207797400Y-90520520D01*
X207505300Y-90484960D01*
X207225900Y-90515440D01*
X206959200Y-90622120D01*
X206722980Y-90802460D01*
X206623920Y-90916760D01*
X206486760Y-91155520D01*
X206408020Y-91412060D01*
X206400400Y-91475560D01*
X206410560Y-91757500D01*
X206494380Y-92026740D01*
X206641700Y-92268040D01*
X206847440Y-92463620D01*
X206875380Y-92483940D01*
X206969360Y-92555060D01*
X207032860Y-92603320D01*
X207083660Y-92643960D01*
X206725520Y-93505020D01*
X206669640Y-93642180D01*
X206570580Y-93878400D01*
X206484220Y-94081600D01*
X206415640Y-94241620D01*
X206367380Y-94350840D01*
X206347060Y-94394020D01*
X206344520Y-94396560D01*
X206314040Y-94401640D01*
X206248000Y-94376240D01*
X206128620Y-94317820D01*
X206047340Y-94277180D01*
X205955900Y-94234000D01*
X205915260Y-94218760D01*
X205879700Y-94236540D01*
X205793340Y-94294960D01*
X205663800Y-94378780D01*
X205511400Y-94482920D01*
X205364080Y-94584520D01*
X205229460Y-94673420D01*
X205130400Y-94734380D01*
X205082140Y-94762320D01*
X205074520Y-94762320D01*
X205033880Y-94736920D01*
X204955140Y-94673420D01*
X204838300Y-94561660D01*
X204673200Y-94399100D01*
X204647800Y-94373700D01*
X204510640Y-94234000D01*
X204398880Y-94117160D01*
X204325220Y-94035880D01*
X204299820Y-93997780D01*
X204299820Y-93997780D01*
X204322680Y-93949520D01*
X204386180Y-93853000D01*
X204475080Y-93715840D01*
X204584300Y-93555820D01*
X204868780Y-93141800D01*
X204711300Y-92750640D01*
X204663040Y-92631260D01*
X204602080Y-92486480D01*
X204558900Y-92382340D01*
X204533500Y-92336620D01*
X204492860Y-92321380D01*
X204383640Y-92295980D01*
X204228700Y-92262960D01*
X204045820Y-92229940D01*
X203868020Y-92196920D01*
X203708000Y-92166440D01*
X203593700Y-92143580D01*
X203542900Y-92133420D01*
X203530200Y-92125800D01*
X203520040Y-92100400D01*
X203512420Y-92047060D01*
X203509880Y-91950540D01*
X203507340Y-91798140D01*
X203507340Y-91577160D01*
X203507340Y-91554300D01*
X203509880Y-91343480D01*
X203512420Y-91175840D01*
X203517500Y-91066620D01*
X203525120Y-91023440D01*
X203525120Y-91023440D01*
X203575920Y-91010740D01*
X203687680Y-90987880D01*
X203847700Y-90954860D01*
X204038200Y-90919300D01*
X204048360Y-90916760D01*
X204238860Y-90881200D01*
X204396340Y-90848180D01*
X204508100Y-90822780D01*
X204553820Y-90807540D01*
X204563980Y-90794840D01*
X204602080Y-90721180D01*
X204657960Y-90604340D01*
X204718920Y-90459560D01*
X204782420Y-90312240D01*
X204835760Y-90177620D01*
X204871320Y-90078560D01*
X204881480Y-90032840D01*
X204881480Y-90032840D01*
X204853540Y-89987120D01*
X204787500Y-89888060D01*
X204696060Y-89753440D01*
X204584300Y-89590880D01*
X204576680Y-89578180D01*
X204467460Y-89418160D01*
X204378560Y-89283540D01*
X204320140Y-89187020D01*
X204299820Y-89143840D01*
X204299820Y-89141300D01*
X204335380Y-89093040D01*
X204416660Y-89004140D01*
X204533500Y-88882220D01*
X204673200Y-88739980D01*
X204718920Y-88696800D01*
X204873860Y-88544400D01*
X204980540Y-88445340D01*
X205049120Y-88392000D01*
X205082140Y-88379300D01*
X205082140Y-88381840D01*
X205130400Y-88409780D01*
X205232000Y-88475820D01*
X205369160Y-88569800D01*
X205531720Y-88679020D01*
X205541880Y-88686640D01*
X205701900Y-88795860D01*
X205833980Y-88884760D01*
X205930500Y-88948260D01*
X205971140Y-88973660D01*
X205978760Y-88973660D01*
X206042260Y-88953340D01*
X206156560Y-88915240D01*
X206296260Y-88859360D01*
X206443580Y-88800940D01*
X206578200Y-88745060D01*
X206679800Y-88696800D01*
X206728060Y-88671400D01*
X206728060Y-88668860D01*
X206745840Y-88610440D01*
X206773780Y-88491060D01*
X206806800Y-88325960D01*
X206844900Y-88130380D01*
X206849980Y-88099900D01*
X206885540Y-87909400D01*
X206916020Y-87751920D01*
X206938880Y-87642700D01*
X206951580Y-87596980D01*
X206976980Y-87591900D01*
X207070960Y-87584280D01*
X207213200Y-87581740D01*
X207385920Y-87579200D01*
X207566260Y-87581740D01*
X207741520Y-87584280D01*
X207893920Y-87589360D01*
X208000600Y-87596980D01*
X208046320Y-87607140D01*
X208048860Y-87609680D01*
X208064100Y-87668100D01*
X208089500Y-87787480D01*
X208125060Y-87952580D01*
X208163160Y-88150700D01*
X208168240Y-88183720D01*
X208203800Y-88374220D01*
X208236820Y-88529160D01*
X208259680Y-88638380D01*
X208272380Y-88679020D01*
X208287620Y-88689180D01*
X208366360Y-88722200D01*
X208493360Y-88775540D01*
X208653380Y-88839040D01*
X209019140Y-88988900D01*
X209466180Y-88679020D01*
X209509360Y-88651080D01*
X209669380Y-88541860D01*
X209804000Y-88452960D01*
X209895440Y-88394540D01*
X209933540Y-88371680D01*
X209936080Y-88374220D01*
X209981800Y-88412320D01*
X210070700Y-88496140D01*
X210192620Y-88615520D01*
X210332320Y-88755220D01*
X210436460Y-88859360D01*
X210560920Y-88986360D01*
X210639660Y-89070180D01*
X210682840Y-89126060D01*
X210698080Y-89159080D01*
X210693000Y-89179400D01*
X210665060Y-89225120D01*
X210599020Y-89324180D01*
X210507580Y-89461340D01*
X210398360Y-89618820D01*
X210306920Y-89753440D01*
X210210400Y-89903300D01*
X210146900Y-90009980D01*
X210124040Y-90063320D01*
X210129120Y-90086180D01*
X210162140Y-90172540D01*
X210215480Y-90307160D01*
X210281520Y-90464640D01*
X210439000Y-90820240D01*
X210672680Y-90863420D01*
X210812380Y-90891360D01*
X211010500Y-90929460D01*
X211198460Y-90965020D01*
X211493100Y-91023440D01*
X211503260Y-92105480D01*
X211457540Y-92125800D01*
X211414360Y-92138500D01*
X211305140Y-92161360D01*
X211150200Y-92191840D01*
X210964780Y-92227400D01*
X210809840Y-92257880D01*
X210649820Y-92285820D01*
X210538060Y-92308680D01*
X210487260Y-92318840D01*
X210474560Y-92336620D01*
X210433920Y-92412820D01*
X210378040Y-92534740D01*
X210317080Y-92682060D01*
X210253580Y-92831920D01*
X210197700Y-92971620D01*
X210157060Y-93078300D01*
X210144360Y-93134180D01*
X210164680Y-93177360D01*
X210225640Y-93268800D01*
X210312000Y-93400880D01*
X210418680Y-93558360D01*
X210527900Y-93715840D01*
X210616800Y-93850460D01*
X210680300Y-93946980D01*
X210705700Y-93990160D01*
X210693000Y-94020640D01*
X210632040Y-94096840D01*
X210512660Y-94218760D01*
X210337400Y-94394020D01*
X210306920Y-94421960D01*
X210167220Y-94556580D01*
X210047840Y-94665800D01*
X209966560Y-94739460D01*
X209928460Y-94764860D01*
X209928460Y-94764860D01*
G37*
X209928460Y-94764860D02*
X209887820Y-94744540D01*
X209793840Y-94686120D01*
X209659220Y-94597220D01*
X209501740Y-94493080D01*
X209344260Y-94383860D01*
X209214720Y-94297500D01*
X209123280Y-94239080D01*
X209085180Y-94218760D01*
X209064860Y-94223840D01*
X208988660Y-94261940D01*
X208879440Y-94317820D01*
X208815940Y-94350840D01*
X208716880Y-94394020D01*
X208666080Y-94404180D01*
X208658460Y-94388940D01*
X208620360Y-94312740D01*
X208564480Y-94180660D01*
X208488280Y-94007940D01*
X208401920Y-93804740D01*
X208307940Y-93586300D01*
X208216500Y-93362780D01*
X208127600Y-93149420D01*
X208048860Y-92958920D01*
X207985360Y-92803980D01*
X207944720Y-92694760D01*
X207929480Y-92649040D01*
X207934560Y-92638880D01*
X207985360Y-92590620D01*
X208071720Y-92524580D01*
X208262220Y-92369640D01*
X208447640Y-92135960D01*
X208561940Y-91871800D01*
X208600040Y-91577160D01*
X208567020Y-91305380D01*
X208460340Y-91043760D01*
X208277460Y-90807540D01*
X208056480Y-90632280D01*
X207797400Y-90520520D01*
X207505300Y-90484960D01*
X207225900Y-90515440D01*
X206959200Y-90622120D01*
X206722980Y-90802460D01*
X206623920Y-90916760D01*
X206486760Y-91155520D01*
X206408020Y-91412060D01*
X206400400Y-91475560D01*
X206410560Y-91757500D01*
X206494380Y-92026740D01*
X206641700Y-92268040D01*
X206847440Y-92463620D01*
X206875380Y-92483940D01*
X206969360Y-92555060D01*
X207032860Y-92603320D01*
X207083660Y-92643960D01*
X206725520Y-93505020D01*
X206669640Y-93642180D01*
X206570580Y-93878400D01*
X206484220Y-94081600D01*
X206415640Y-94241620D01*
X206367380Y-94350840D01*
X206347060Y-94394020D01*
X206344520Y-94396560D01*
X206314040Y-94401640D01*
X206248000Y-94376240D01*
X206128620Y-94317820D01*
X206047340Y-94277180D01*
X205955900Y-94234000D01*
X205915260Y-94218760D01*
X205879700Y-94236540D01*
X205793340Y-94294960D01*
X205663800Y-94378780D01*
X205511400Y-94482920D01*
X205364080Y-94584520D01*
X205229460Y-94673420D01*
X205130400Y-94734380D01*
X205082140Y-94762320D01*
X205074520Y-94762320D01*
X205033880Y-94736920D01*
X204955140Y-94673420D01*
X204838300Y-94561660D01*
X204673200Y-94399100D01*
X204647800Y-94373700D01*
X204510640Y-94234000D01*
X204398880Y-94117160D01*
X204325220Y-94035880D01*
X204299820Y-93997780D01*
X204299820Y-93997780D01*
X204322680Y-93949520D01*
X204386180Y-93853000D01*
X204475080Y-93715840D01*
X204584300Y-93555820D01*
X204868780Y-93141800D01*
X204711300Y-92750640D01*
X204663040Y-92631260D01*
X204602080Y-92486480D01*
X204558900Y-92382340D01*
X204533500Y-92336620D01*
X204492860Y-92321380D01*
X204383640Y-92295980D01*
X204228700Y-92262960D01*
X204045820Y-92229940D01*
X203868020Y-92196920D01*
X203708000Y-92166440D01*
X203593700Y-92143580D01*
X203542900Y-92133420D01*
X203530200Y-92125800D01*
X203520040Y-92100400D01*
X203512420Y-92047060D01*
X203509880Y-91950540D01*
X203507340Y-91798140D01*
X203507340Y-91577160D01*
X203507340Y-91554300D01*
X203509880Y-91343480D01*
X203512420Y-91175840D01*
X203517500Y-91066620D01*
X203525120Y-91023440D01*
X203525120Y-91023440D01*
X203575920Y-91010740D01*
X203687680Y-90987880D01*
X203847700Y-90954860D01*
X204038200Y-90919300D01*
X204048360Y-90916760D01*
X204238860Y-90881200D01*
X204396340Y-90848180D01*
X204508100Y-90822780D01*
X204553820Y-90807540D01*
X204563980Y-90794840D01*
X204602080Y-90721180D01*
X204657960Y-90604340D01*
X204718920Y-90459560D01*
X204782420Y-90312240D01*
X204835760Y-90177620D01*
X204871320Y-90078560D01*
X204881480Y-90032840D01*
X204881480Y-90032840D01*
X204853540Y-89987120D01*
X204787500Y-89888060D01*
X204696060Y-89753440D01*
X204584300Y-89590880D01*
X204576680Y-89578180D01*
X204467460Y-89418160D01*
X204378560Y-89283540D01*
X204320140Y-89187020D01*
X204299820Y-89143840D01*
X204299820Y-89141300D01*
X204335380Y-89093040D01*
X204416660Y-89004140D01*
X204533500Y-88882220D01*
X204673200Y-88739980D01*
X204718920Y-88696800D01*
X204873860Y-88544400D01*
X204980540Y-88445340D01*
X205049120Y-88392000D01*
X205082140Y-88379300D01*
X205082140Y-88381840D01*
X205130400Y-88409780D01*
X205232000Y-88475820D01*
X205369160Y-88569800D01*
X205531720Y-88679020D01*
X205541880Y-88686640D01*
X205701900Y-88795860D01*
X205833980Y-88884760D01*
X205930500Y-88948260D01*
X205971140Y-88973660D01*
X205978760Y-88973660D01*
X206042260Y-88953340D01*
X206156560Y-88915240D01*
X206296260Y-88859360D01*
X206443580Y-88800940D01*
X206578200Y-88745060D01*
X206679800Y-88696800D01*
X206728060Y-88671400D01*
X206728060Y-88668860D01*
X206745840Y-88610440D01*
X206773780Y-88491060D01*
X206806800Y-88325960D01*
X206844900Y-88130380D01*
X206849980Y-88099900D01*
X206885540Y-87909400D01*
X206916020Y-87751920D01*
X206938880Y-87642700D01*
X206951580Y-87596980D01*
X206976980Y-87591900D01*
X207070960Y-87584280D01*
X207213200Y-87581740D01*
X207385920Y-87579200D01*
X207566260Y-87581740D01*
X207741520Y-87584280D01*
X207893920Y-87589360D01*
X208000600Y-87596980D01*
X208046320Y-87607140D01*
X208048860Y-87609680D01*
X208064100Y-87668100D01*
X208089500Y-87787480D01*
X208125060Y-87952580D01*
X208163160Y-88150700D01*
X208168240Y-88183720D01*
X208203800Y-88374220D01*
X208236820Y-88529160D01*
X208259680Y-88638380D01*
X208272380Y-88679020D01*
X208287620Y-88689180D01*
X208366360Y-88722200D01*
X208493360Y-88775540D01*
X208653380Y-88839040D01*
X209019140Y-88988900D01*
X209466180Y-88679020D01*
X209509360Y-88651080D01*
X209669380Y-88541860D01*
X209804000Y-88452960D01*
X209895440Y-88394540D01*
X209933540Y-88371680D01*
X209936080Y-88374220D01*
X209981800Y-88412320D01*
X210070700Y-88496140D01*
X210192620Y-88615520D01*
X210332320Y-88755220D01*
X210436460Y-88859360D01*
X210560920Y-88986360D01*
X210639660Y-89070180D01*
X210682840Y-89126060D01*
X210698080Y-89159080D01*
X210693000Y-89179400D01*
X210665060Y-89225120D01*
X210599020Y-89324180D01*
X210507580Y-89461340D01*
X210398360Y-89618820D01*
X210306920Y-89753440D01*
X210210400Y-89903300D01*
X210146900Y-90009980D01*
X210124040Y-90063320D01*
X210129120Y-90086180D01*
X210162140Y-90172540D01*
X210215480Y-90307160D01*
X210281520Y-90464640D01*
X210439000Y-90820240D01*
X210672680Y-90863420D01*
X210812380Y-90891360D01*
X211010500Y-90929460D01*
X211198460Y-90965020D01*
X211493100Y-91023440D01*
X211503260Y-92105480D01*
X211457540Y-92125800D01*
X211414360Y-92138500D01*
X211305140Y-92161360D01*
X211150200Y-92191840D01*
X210964780Y-92227400D01*
X210809840Y-92257880D01*
X210649820Y-92285820D01*
X210538060Y-92308680D01*
X210487260Y-92318840D01*
X210474560Y-92336620D01*
X210433920Y-92412820D01*
X210378040Y-92534740D01*
X210317080Y-92682060D01*
X210253580Y-92831920D01*
X210197700Y-92971620D01*
X210157060Y-93078300D01*
X210144360Y-93134180D01*
X210164680Y-93177360D01*
X210225640Y-93268800D01*
X210312000Y-93400880D01*
X210418680Y-93558360D01*
X210527900Y-93715840D01*
X210616800Y-93850460D01*
X210680300Y-93946980D01*
X210705700Y-93990160D01*
X210693000Y-94020640D01*
X210632040Y-94096840D01*
X210512660Y-94218760D01*
X210337400Y-94394020D01*
X210306920Y-94421960D01*
X210167220Y-94556580D01*
X210047840Y-94665800D01*
X209966560Y-94739460D01*
X209928460Y-94764860D01*
D13*
X158750000Y-83880000D02*
X194370000Y-83880000D01*
X194370000Y-83880000D02*
X194370000Y-78680000D01*
X194370000Y-78680000D02*
X156150000Y-78680000D01*
X156150000Y-78680000D02*
X156150000Y-81280000D01*
X156150000Y-81280000D02*
X158750000Y-81280000D01*
X158750000Y-81280000D02*
X158750000Y-83880000D01*
X157480000Y-83880000D02*
X156150000Y-83880000D01*
X156150000Y-83880000D02*
X156150000Y-82550000D01*
D14*
X196971667Y-97752381D02*
X196971667Y-98466667D01*
X196924047Y-98609524D01*
X196828809Y-98704762D01*
X196685952Y-98752381D01*
X196590714Y-98752381D01*
X197971667Y-98752381D02*
X197400238Y-98752381D01*
X197685952Y-98752381D02*
X197685952Y-97752381D01*
X197590714Y-97895238D01*
X197495476Y-97990476D01*
X197400238Y-98038095D01*
X155602381Y-82018095D02*
X154602381Y-82018095D01*
X154602381Y-81637142D01*
X154650000Y-81541904D01*
X154697619Y-81494285D01*
X154792857Y-81446666D01*
X154935714Y-81446666D01*
X155030952Y-81494285D01*
X155078571Y-81541904D01*
X155126190Y-81637142D01*
X155126190Y-82018095D01*
X155602381Y-80494285D02*
X155602381Y-81065714D01*
X155602381Y-80780000D02*
X154602381Y-80780000D01*
X154745238Y-80875238D01*
X154840476Y-80970476D01*
X154888095Y-81065714D01*
M02*
