G04 #@! TF.FileFunction,Soldermask,Top*
%FSLAX46Y46*%
G04 Gerber Fmt 4.6, Leading zero omitted, Abs format (unit mm)*
G04 Created by KiCad (PCBNEW 4.0.6) date 06/24/17 11:43:18*
%MOMM*%
%LPD*%
G01*
G04 APERTURE LIST*
%ADD10C,0.100000*%
%ADD11C,3.600000*%
%ADD12C,1.924000*%
%ADD13C,2.600000*%
%ADD14R,2.100000X2.100000*%
%ADD15O,2.100000X2.100000*%
G04 APERTURE END LIST*
D10*
D11*
X200660000Y-83185000D03*
X147320000Y-83185000D03*
X209550000Y-119380000D03*
D12*
X147955000Y-110490000D03*
X149225000Y-107950000D03*
X150495000Y-110490000D03*
X151765000Y-107950000D03*
X153035000Y-110490000D03*
X154305000Y-107950000D03*
X155575000Y-110490000D03*
X156845000Y-107950000D03*
X161925000Y-110490000D03*
X163195000Y-107950000D03*
X164465000Y-110490000D03*
X165735000Y-107950000D03*
X167005000Y-110490000D03*
X168275000Y-107950000D03*
X169545000Y-110490000D03*
X170815000Y-107950000D03*
X175895000Y-110490000D03*
X177165000Y-107950000D03*
X178435000Y-110490000D03*
X179705000Y-107950000D03*
X180975000Y-110490000D03*
X182245000Y-107950000D03*
X183515000Y-110490000D03*
X184785000Y-107950000D03*
X189865000Y-110490000D03*
X191135000Y-107950000D03*
X192405000Y-110490000D03*
X193675000Y-107950000D03*
X194945000Y-110490000D03*
X196215000Y-107950000D03*
X197485000Y-110490000D03*
X198755000Y-107950000D03*
X156845000Y-101346000D03*
X155575000Y-103886000D03*
X154305000Y-101346000D03*
X153035000Y-103886000D03*
X151765000Y-101346000D03*
X150495000Y-103886000D03*
X149225000Y-101346000D03*
X147955000Y-103886000D03*
X170815000Y-101346000D03*
X169545000Y-103886000D03*
X168275000Y-101346000D03*
X167005000Y-103886000D03*
X165735000Y-101346000D03*
X164465000Y-103886000D03*
X163195000Y-101346000D03*
X161925000Y-103886000D03*
X184785000Y-101346000D03*
X183515000Y-103886000D03*
X182245000Y-101346000D03*
X180975000Y-103886000D03*
X179705000Y-101346000D03*
X178435000Y-103886000D03*
X177165000Y-101346000D03*
X175895000Y-103886000D03*
X198755000Y-101346000D03*
X197485000Y-103886000D03*
X196215000Y-101346000D03*
X194945000Y-103886000D03*
X193675000Y-101346000D03*
X192405000Y-103886000D03*
X191135000Y-101346000D03*
X189865000Y-103886000D03*
D13*
X144655000Y-107690000D03*
X143880000Y-101340000D03*
X143880000Y-121415000D03*
X202830000Y-121415000D03*
X202075000Y-110990000D03*
X202825000Y-105410000D03*
D11*
X146685000Y-116840000D03*
X200025000Y-116840000D03*
X137795000Y-119380000D03*
D14*
X157480000Y-82550000D03*
D15*
X157480000Y-80010000D03*
X160020000Y-82550000D03*
X160020000Y-80010000D03*
X162560000Y-82550000D03*
X162560000Y-80010000D03*
X165100000Y-82550000D03*
X165100000Y-80010000D03*
X167640000Y-82550000D03*
X167640000Y-80010000D03*
X170180000Y-82550000D03*
X170180000Y-80010000D03*
X172720000Y-82550000D03*
X172720000Y-80010000D03*
X175260000Y-82550000D03*
X175260000Y-80010000D03*
X177800000Y-82550000D03*
X177800000Y-80010000D03*
X180340000Y-82550000D03*
X180340000Y-80010000D03*
X182880000Y-82550000D03*
X182880000Y-80010000D03*
X185420000Y-82550000D03*
X185420000Y-80010000D03*
X187960000Y-82550000D03*
X187960000Y-80010000D03*
X190500000Y-82550000D03*
X190500000Y-80010000D03*
X193040000Y-82550000D03*
X193040000Y-80010000D03*
M02*
