G04 #@! TF.FileFunction,Legend,Bot*
%FSLAX46Y46*%
G04 Gerber Fmt 4.6, Leading zero omitted, Abs format (unit mm)*
G04 Created by KiCad (PCBNEW 4.0.6) date 06/24/17 11:43:18*
%MOMM*%
%LPD*%
G01*
G04 APERTURE LIST*
%ADD10C,0.100000*%
%ADD11C,0.120000*%
%ADD12C,0.150000*%
G04 APERTURE END LIST*
D10*
D11*
X152670000Y-113280000D02*
X154670000Y-113280000D01*
X154670000Y-115320000D02*
X152670000Y-115320000D01*
X188960000Y-121035000D02*
X186960000Y-121035000D01*
X186960000Y-118995000D02*
X188960000Y-118995000D01*
X131730000Y-98390000D02*
X132430000Y-98390000D01*
X132430000Y-97190000D02*
X131730000Y-97190000D01*
X131730000Y-104740000D02*
X132430000Y-104740000D01*
X132430000Y-103540000D02*
X131730000Y-103540000D01*
X131730000Y-111090000D02*
X132430000Y-111090000D01*
X132430000Y-109890000D02*
X131730000Y-109890000D01*
X131730000Y-118075000D02*
X132430000Y-118075000D01*
X132430000Y-116875000D02*
X131730000Y-116875000D01*
X208950000Y-111410000D02*
X208950000Y-112110000D01*
X210150000Y-112110000D02*
X210150000Y-111410000D01*
X208950000Y-107600000D02*
X208950000Y-108300000D01*
X210150000Y-108300000D02*
X210150000Y-107600000D01*
X208950000Y-103790000D02*
X208950000Y-104490000D01*
X210150000Y-104490000D02*
X210150000Y-103790000D01*
X208950000Y-99980000D02*
X208950000Y-100680000D01*
X210150000Y-100680000D02*
X210150000Y-99980000D01*
X173705000Y-120685000D02*
X173005000Y-120685000D01*
X173005000Y-121885000D02*
X173705000Y-121885000D01*
X173705000Y-118780000D02*
X173005000Y-118780000D01*
X173005000Y-119980000D02*
X173705000Y-119980000D01*
X179990000Y-119980000D02*
X180690000Y-119980000D01*
X180690000Y-118780000D02*
X179990000Y-118780000D01*
X179990000Y-121885000D02*
X180690000Y-121885000D01*
X180690000Y-120685000D02*
X179990000Y-120685000D01*
X138080000Y-85055000D02*
X138780000Y-85055000D01*
X138780000Y-83855000D02*
X138080000Y-83855000D01*
X138080000Y-91405000D02*
X138780000Y-91405000D01*
X138780000Y-90205000D02*
X138080000Y-90205000D01*
X138080000Y-97755000D02*
X138780000Y-97755000D01*
X138780000Y-96555000D02*
X138080000Y-96555000D01*
X138080000Y-104105000D02*
X138780000Y-104105000D01*
X138780000Y-102905000D02*
X138080000Y-102905000D01*
X208950000Y-96170000D02*
X208950000Y-96870000D01*
X210150000Y-96870000D02*
X210150000Y-96170000D01*
X208950000Y-92360000D02*
X208950000Y-93060000D01*
X210150000Y-93060000D02*
X210150000Y-92360000D01*
X208950000Y-88550000D02*
X208950000Y-89250000D01*
X210150000Y-89250000D02*
X210150000Y-88550000D01*
X208950000Y-84740000D02*
X208950000Y-85440000D01*
X210150000Y-85440000D02*
X210150000Y-84740000D01*
X185070000Y-90770000D02*
X185770000Y-90770000D01*
X185770000Y-89570000D02*
X185070000Y-89570000D01*
X184435000Y-87595000D02*
X185135000Y-87595000D01*
X185135000Y-86395000D02*
X184435000Y-86395000D01*
X166085000Y-86395000D02*
X165385000Y-86395000D01*
X165385000Y-87595000D02*
X166085000Y-87595000D01*
X166085000Y-89570000D02*
X165385000Y-89570000D01*
X165385000Y-90770000D02*
X166085000Y-90770000D01*
X168600000Y-114810000D02*
X169530000Y-114810000D01*
X171760000Y-114810000D02*
X170830000Y-114810000D01*
X171760000Y-114810000D02*
X171760000Y-116970000D01*
X168600000Y-114810000D02*
X168600000Y-116270000D01*
X174315000Y-114810000D02*
X175245000Y-114810000D01*
X177475000Y-114810000D02*
X176545000Y-114810000D01*
X177475000Y-114810000D02*
X177475000Y-116970000D01*
X174315000Y-114810000D02*
X174315000Y-116270000D01*
X179395000Y-114810000D02*
X180325000Y-114810000D01*
X182555000Y-114810000D02*
X181625000Y-114810000D01*
X182555000Y-114810000D02*
X182555000Y-116970000D01*
X179395000Y-114810000D02*
X179395000Y-116270000D01*
X184475000Y-114810000D02*
X185405000Y-114810000D01*
X187635000Y-114810000D02*
X186705000Y-114810000D01*
X187635000Y-114810000D02*
X187635000Y-116970000D01*
X184475000Y-114810000D02*
X184475000Y-116270000D01*
X183190000Y-96645000D02*
X182260000Y-96645000D01*
X180030000Y-96645000D02*
X180960000Y-96645000D01*
X180030000Y-96645000D02*
X180030000Y-94485000D01*
X183190000Y-96645000D02*
X183190000Y-95185000D01*
X178110000Y-96645000D02*
X177180000Y-96645000D01*
X174950000Y-96645000D02*
X175880000Y-96645000D01*
X174950000Y-96645000D02*
X174950000Y-94485000D01*
X178110000Y-96645000D02*
X178110000Y-95185000D01*
X173030000Y-96645000D02*
X172100000Y-96645000D01*
X169870000Y-96645000D02*
X170800000Y-96645000D01*
X169870000Y-96645000D02*
X169870000Y-94485000D01*
X173030000Y-96645000D02*
X173030000Y-95185000D01*
X167950000Y-96645000D02*
X167020000Y-96645000D01*
X164790000Y-96645000D02*
X165720000Y-96645000D01*
X164790000Y-96645000D02*
X164790000Y-94485000D01*
X167950000Y-96645000D02*
X167950000Y-95185000D01*
X131320000Y-102545000D02*
X131320000Y-101615000D01*
X131320000Y-99385000D02*
X131320000Y-100315000D01*
X131320000Y-99385000D02*
X133480000Y-99385000D01*
X131320000Y-102545000D02*
X132780000Y-102545000D01*
X131320000Y-108895000D02*
X131320000Y-107965000D01*
X131320000Y-105735000D02*
X131320000Y-106665000D01*
X131320000Y-105735000D02*
X133480000Y-105735000D01*
X131320000Y-108895000D02*
X132780000Y-108895000D01*
X131320000Y-115245000D02*
X131320000Y-114315000D01*
X131320000Y-112085000D02*
X131320000Y-113015000D01*
X131320000Y-112085000D02*
X133480000Y-112085000D01*
X131320000Y-115245000D02*
X132780000Y-115245000D01*
X131320000Y-122865000D02*
X131320000Y-121935000D01*
X131320000Y-119705000D02*
X131320000Y-120635000D01*
X131320000Y-119705000D02*
X133480000Y-119705000D01*
X131320000Y-122865000D02*
X132780000Y-122865000D01*
X213485000Y-110180000D02*
X213485000Y-111110000D01*
X213485000Y-113340000D02*
X213485000Y-112410000D01*
X213485000Y-113340000D02*
X211325000Y-113340000D01*
X213485000Y-110180000D02*
X212025000Y-110180000D01*
X213485000Y-106370000D02*
X213485000Y-107300000D01*
X213485000Y-109530000D02*
X213485000Y-108600000D01*
X213485000Y-109530000D02*
X211325000Y-109530000D01*
X213485000Y-106370000D02*
X212025000Y-106370000D01*
X213485000Y-102560000D02*
X213485000Y-103490000D01*
X213485000Y-105720000D02*
X213485000Y-104790000D01*
X213485000Y-105720000D02*
X211325000Y-105720000D01*
X213485000Y-102560000D02*
X212025000Y-102560000D01*
X213485000Y-98750000D02*
X213485000Y-99680000D01*
X213485000Y-101910000D02*
X213485000Y-100980000D01*
X213485000Y-101910000D02*
X211325000Y-101910000D01*
X213485000Y-98750000D02*
X212025000Y-98750000D01*
X137670000Y-89210000D02*
X137670000Y-88280000D01*
X137670000Y-86050000D02*
X137670000Y-86980000D01*
X137670000Y-86050000D02*
X139830000Y-86050000D01*
X137670000Y-89210000D02*
X139130000Y-89210000D01*
X137670000Y-95560000D02*
X137670000Y-94630000D01*
X137670000Y-92400000D02*
X137670000Y-93330000D01*
X137670000Y-92400000D02*
X139830000Y-92400000D01*
X137670000Y-95560000D02*
X139130000Y-95560000D01*
X137670000Y-101910000D02*
X137670000Y-100980000D01*
X137670000Y-98750000D02*
X137670000Y-99680000D01*
X137670000Y-98750000D02*
X139830000Y-98750000D01*
X137670000Y-101910000D02*
X139130000Y-101910000D01*
X137670000Y-108260000D02*
X137670000Y-107330000D01*
X137670000Y-105100000D02*
X137670000Y-106030000D01*
X137670000Y-105100000D02*
X139830000Y-105100000D01*
X137670000Y-108260000D02*
X139130000Y-108260000D01*
X213485000Y-94940000D02*
X213485000Y-95870000D01*
X213485000Y-98100000D02*
X213485000Y-97170000D01*
X213485000Y-98100000D02*
X211325000Y-98100000D01*
X213485000Y-94940000D02*
X212025000Y-94940000D01*
X213485000Y-91130000D02*
X213485000Y-92060000D01*
X213485000Y-94290000D02*
X213485000Y-93360000D01*
X213485000Y-94290000D02*
X211325000Y-94290000D01*
X213485000Y-91130000D02*
X212025000Y-91130000D01*
X213485000Y-87320000D02*
X213485000Y-88250000D01*
X213485000Y-90480000D02*
X213485000Y-89550000D01*
X213485000Y-90480000D02*
X211325000Y-90480000D01*
X213485000Y-87320000D02*
X212025000Y-87320000D01*
X213485000Y-83510000D02*
X213485000Y-84440000D01*
X213485000Y-86670000D02*
X213485000Y-85740000D01*
X213485000Y-86670000D02*
X211325000Y-86670000D01*
X213485000Y-83510000D02*
X212025000Y-83510000D01*
D12*
X136160000Y-114730000D02*
X138160000Y-114730000D01*
X138160000Y-114730000D02*
X138160000Y-111330000D01*
X138160000Y-111330000D02*
X136160000Y-111330000D01*
X136160000Y-111330000D02*
X136160000Y-114730000D01*
X206105000Y-97360000D02*
X204105000Y-97360000D01*
X204105000Y-97360000D02*
X204105000Y-100760000D01*
X204105000Y-100760000D02*
X206105000Y-100760000D01*
X206105000Y-100760000D02*
X206105000Y-97360000D01*
X160925000Y-117270000D02*
X162925000Y-117270000D01*
X162925000Y-117270000D02*
X162925000Y-113870000D01*
X162925000Y-113870000D02*
X160925000Y-113870000D01*
X160925000Y-113870000D02*
X160925000Y-117270000D01*
X192770000Y-113235000D02*
X190770000Y-113235000D01*
X190770000Y-113235000D02*
X190770000Y-116635000D01*
X190770000Y-116635000D02*
X192770000Y-116635000D01*
X192770000Y-116635000D02*
X192770000Y-113235000D01*
X175465000Y-122190000D02*
X175465000Y-124190000D01*
X175465000Y-124190000D02*
X178865000Y-124190000D01*
X178865000Y-124190000D02*
X178865000Y-122190000D01*
X178865000Y-122190000D02*
X175465000Y-122190000D01*
X182040000Y-86725000D02*
X182040000Y-84725000D01*
X182040000Y-84725000D02*
X178640000Y-84725000D01*
X178640000Y-84725000D02*
X178640000Y-86725000D01*
X178640000Y-86725000D02*
X182040000Y-86725000D01*
X143780000Y-95045000D02*
X145780000Y-95045000D01*
X145780000Y-95045000D02*
X145780000Y-91645000D01*
X145780000Y-91645000D02*
X143780000Y-91645000D01*
X143780000Y-91645000D02*
X143780000Y-95045000D01*
X206105000Y-89105000D02*
X204105000Y-89105000D01*
X204105000Y-89105000D02*
X204105000Y-92505000D01*
X204105000Y-92505000D02*
X206105000Y-92505000D01*
X206105000Y-92505000D02*
X206105000Y-89105000D01*
X178640000Y-91075000D02*
X178640000Y-93075000D01*
X178640000Y-93075000D02*
X182040000Y-93075000D01*
X182040000Y-93075000D02*
X182040000Y-91075000D01*
X182040000Y-91075000D02*
X178640000Y-91075000D01*
X167845000Y-91075000D02*
X167845000Y-93075000D01*
X167845000Y-93075000D02*
X171245000Y-93075000D01*
X171245000Y-93075000D02*
X171245000Y-91075000D01*
X171245000Y-91075000D02*
X167845000Y-91075000D01*
X176325000Y-89265000D02*
X176325000Y-87265000D01*
X176325000Y-87265000D02*
X172925000Y-87265000D01*
X172925000Y-87265000D02*
X172925000Y-89265000D01*
X172925000Y-89265000D02*
X176325000Y-89265000D01*
X175690000Y-100695000D02*
X175690000Y-98695000D01*
X175690000Y-98695000D02*
X172290000Y-98695000D01*
X172290000Y-98695000D02*
X172290000Y-100695000D01*
X172290000Y-100695000D02*
X175690000Y-100695000D01*
X153836666Y-112907143D02*
X153884285Y-112954762D01*
X154027142Y-113002381D01*
X154122380Y-113002381D01*
X154265238Y-112954762D01*
X154360476Y-112859524D01*
X154408095Y-112764286D01*
X154455714Y-112573810D01*
X154455714Y-112430952D01*
X154408095Y-112240476D01*
X154360476Y-112145238D01*
X154265238Y-112050000D01*
X154122380Y-112002381D01*
X154027142Y-112002381D01*
X153884285Y-112050000D01*
X153836666Y-112097619D01*
X152884285Y-113002381D02*
X153455714Y-113002381D01*
X153170000Y-113002381D02*
X153170000Y-112002381D01*
X153265238Y-112145238D01*
X153360476Y-112240476D01*
X153455714Y-112288095D01*
X155217619Y-116752381D02*
X155789048Y-116752381D01*
X155503334Y-116752381D02*
X155503334Y-115752381D01*
X155598572Y-115895238D01*
X155693810Y-115990476D01*
X155789048Y-116038095D01*
X154598572Y-115752381D02*
X154503333Y-115752381D01*
X154408095Y-115800000D01*
X154360476Y-115847619D01*
X154312857Y-115942857D01*
X154265238Y-116133333D01*
X154265238Y-116371429D01*
X154312857Y-116561905D01*
X154360476Y-116657143D01*
X154408095Y-116704762D01*
X154503333Y-116752381D01*
X154598572Y-116752381D01*
X154693810Y-116704762D01*
X154741429Y-116657143D01*
X154789048Y-116561905D01*
X154836667Y-116371429D01*
X154836667Y-116133333D01*
X154789048Y-115942857D01*
X154741429Y-115847619D01*
X154693810Y-115800000D01*
X154598572Y-115752381D01*
X153646191Y-115752381D02*
X153550952Y-115752381D01*
X153455714Y-115800000D01*
X153408095Y-115847619D01*
X153360476Y-115942857D01*
X153312857Y-116133333D01*
X153312857Y-116371429D01*
X153360476Y-116561905D01*
X153408095Y-116657143D01*
X153455714Y-116704762D01*
X153550952Y-116752381D01*
X153646191Y-116752381D01*
X153741429Y-116704762D01*
X153789048Y-116657143D01*
X153836667Y-116561905D01*
X153884286Y-116371429D01*
X153884286Y-116133333D01*
X153836667Y-115942857D01*
X153789048Y-115847619D01*
X153741429Y-115800000D01*
X153646191Y-115752381D01*
X152455714Y-116085714D02*
X152455714Y-116752381D01*
X152884286Y-116085714D02*
X152884286Y-116609524D01*
X152836667Y-116704762D01*
X152741429Y-116752381D01*
X152598571Y-116752381D01*
X152503333Y-116704762D01*
X152455714Y-116657143D01*
X151646190Y-116228571D02*
X151979524Y-116228571D01*
X151979524Y-116752381D02*
X151979524Y-115752381D01*
X151503333Y-115752381D01*
X188126666Y-122122143D02*
X188174285Y-122169762D01*
X188317142Y-122217381D01*
X188412380Y-122217381D01*
X188555238Y-122169762D01*
X188650476Y-122074524D01*
X188698095Y-121979286D01*
X188745714Y-121788810D01*
X188745714Y-121645952D01*
X188698095Y-121455476D01*
X188650476Y-121360238D01*
X188555238Y-121265000D01*
X188412380Y-121217381D01*
X188317142Y-121217381D01*
X188174285Y-121265000D01*
X188126666Y-121312619D01*
X187745714Y-121312619D02*
X187698095Y-121265000D01*
X187602857Y-121217381D01*
X187364761Y-121217381D01*
X187269523Y-121265000D01*
X187221904Y-121312619D01*
X187174285Y-121407857D01*
X187174285Y-121503095D01*
X187221904Y-121645952D01*
X187793333Y-122217381D01*
X187174285Y-122217381D01*
X189507619Y-118467381D02*
X190079048Y-118467381D01*
X189793334Y-118467381D02*
X189793334Y-117467381D01*
X189888572Y-117610238D01*
X189983810Y-117705476D01*
X190079048Y-117753095D01*
X188888572Y-117467381D02*
X188793333Y-117467381D01*
X188698095Y-117515000D01*
X188650476Y-117562619D01*
X188602857Y-117657857D01*
X188555238Y-117848333D01*
X188555238Y-118086429D01*
X188602857Y-118276905D01*
X188650476Y-118372143D01*
X188698095Y-118419762D01*
X188793333Y-118467381D01*
X188888572Y-118467381D01*
X188983810Y-118419762D01*
X189031429Y-118372143D01*
X189079048Y-118276905D01*
X189126667Y-118086429D01*
X189126667Y-117848333D01*
X189079048Y-117657857D01*
X189031429Y-117562619D01*
X188983810Y-117515000D01*
X188888572Y-117467381D01*
X187936191Y-117467381D02*
X187840952Y-117467381D01*
X187745714Y-117515000D01*
X187698095Y-117562619D01*
X187650476Y-117657857D01*
X187602857Y-117848333D01*
X187602857Y-118086429D01*
X187650476Y-118276905D01*
X187698095Y-118372143D01*
X187745714Y-118419762D01*
X187840952Y-118467381D01*
X187936191Y-118467381D01*
X188031429Y-118419762D01*
X188079048Y-118372143D01*
X188126667Y-118276905D01*
X188174286Y-118086429D01*
X188174286Y-117848333D01*
X188126667Y-117657857D01*
X188079048Y-117562619D01*
X188031429Y-117515000D01*
X187936191Y-117467381D01*
X186745714Y-117800714D02*
X186745714Y-118467381D01*
X187174286Y-117800714D02*
X187174286Y-118324524D01*
X187126667Y-118419762D01*
X187031429Y-118467381D01*
X186888571Y-118467381D01*
X186793333Y-118419762D01*
X186745714Y-118372143D01*
X185936190Y-117943571D02*
X186269524Y-117943571D01*
X186269524Y-118467381D02*
X186269524Y-117467381D01*
X185793333Y-117467381D01*
X134672366Y-98261443D02*
X134719985Y-98309062D01*
X134862842Y-98356681D01*
X134958080Y-98356681D01*
X135100938Y-98309062D01*
X135196176Y-98213824D01*
X135243795Y-98118586D01*
X135291414Y-97928110D01*
X135291414Y-97785252D01*
X135243795Y-97594776D01*
X135196176Y-97499538D01*
X135100938Y-97404300D01*
X134958080Y-97356681D01*
X134862842Y-97356681D01*
X134719985Y-97404300D01*
X134672366Y-97451919D01*
X134339033Y-97356681D02*
X133719985Y-97356681D01*
X134053319Y-97737633D01*
X133910461Y-97737633D01*
X133815223Y-97785252D01*
X133767604Y-97832871D01*
X133719985Y-97928110D01*
X133719985Y-98166205D01*
X133767604Y-98261443D01*
X133815223Y-98309062D01*
X133910461Y-98356681D01*
X134196176Y-98356681D01*
X134291414Y-98309062D01*
X134339033Y-98261443D01*
X133627619Y-96742381D02*
X134199048Y-96742381D01*
X133913334Y-96742381D02*
X133913334Y-95742381D01*
X134008572Y-95885238D01*
X134103810Y-95980476D01*
X134199048Y-96028095D01*
X133008572Y-95742381D02*
X132913333Y-95742381D01*
X132818095Y-95790000D01*
X132770476Y-95837619D01*
X132722857Y-95932857D01*
X132675238Y-96123333D01*
X132675238Y-96361429D01*
X132722857Y-96551905D01*
X132770476Y-96647143D01*
X132818095Y-96694762D01*
X132913333Y-96742381D01*
X133008572Y-96742381D01*
X133103810Y-96694762D01*
X133151429Y-96647143D01*
X133199048Y-96551905D01*
X133246667Y-96361429D01*
X133246667Y-96123333D01*
X133199048Y-95932857D01*
X133151429Y-95837619D01*
X133103810Y-95790000D01*
X133008572Y-95742381D01*
X132056191Y-95742381D02*
X131960952Y-95742381D01*
X131865714Y-95790000D01*
X131818095Y-95837619D01*
X131770476Y-95932857D01*
X131722857Y-96123333D01*
X131722857Y-96361429D01*
X131770476Y-96551905D01*
X131818095Y-96647143D01*
X131865714Y-96694762D01*
X131960952Y-96742381D01*
X132056191Y-96742381D01*
X132151429Y-96694762D01*
X132199048Y-96647143D01*
X132246667Y-96551905D01*
X132294286Y-96361429D01*
X132294286Y-96123333D01*
X132246667Y-95932857D01*
X132199048Y-95837619D01*
X132151429Y-95790000D01*
X132056191Y-95742381D01*
X131294286Y-96075714D02*
X131294286Y-97075714D01*
X131294286Y-96123333D02*
X131199048Y-96075714D01*
X131008571Y-96075714D01*
X130913333Y-96123333D01*
X130865714Y-96170952D01*
X130818095Y-96266190D01*
X130818095Y-96551905D01*
X130865714Y-96647143D01*
X130913333Y-96694762D01*
X131008571Y-96742381D01*
X131199048Y-96742381D01*
X131294286Y-96694762D01*
X130056190Y-96218571D02*
X130389524Y-96218571D01*
X130389524Y-96742381D02*
X130389524Y-95742381D01*
X129913333Y-95742381D01*
X130214666Y-103354143D02*
X130262285Y-103401762D01*
X130405142Y-103449381D01*
X130500380Y-103449381D01*
X130643238Y-103401762D01*
X130738476Y-103306524D01*
X130786095Y-103211286D01*
X130833714Y-103020810D01*
X130833714Y-102877952D01*
X130786095Y-102687476D01*
X130738476Y-102592238D01*
X130643238Y-102497000D01*
X130500380Y-102449381D01*
X130405142Y-102449381D01*
X130262285Y-102497000D01*
X130214666Y-102544619D01*
X129357523Y-102782714D02*
X129357523Y-103449381D01*
X129595619Y-102401762D02*
X129833714Y-103116048D01*
X129214666Y-103116048D01*
X136904219Y-103957381D02*
X137475648Y-103957381D01*
X137189934Y-103957381D02*
X137189934Y-102957381D01*
X137285172Y-103100238D01*
X137380410Y-103195476D01*
X137475648Y-103243095D01*
X136285172Y-102957381D02*
X136189933Y-102957381D01*
X136094695Y-103005000D01*
X136047076Y-103052619D01*
X135999457Y-103147857D01*
X135951838Y-103338333D01*
X135951838Y-103576429D01*
X135999457Y-103766905D01*
X136047076Y-103862143D01*
X136094695Y-103909762D01*
X136189933Y-103957381D01*
X136285172Y-103957381D01*
X136380410Y-103909762D01*
X136428029Y-103862143D01*
X136475648Y-103766905D01*
X136523267Y-103576429D01*
X136523267Y-103338333D01*
X136475648Y-103147857D01*
X136428029Y-103052619D01*
X136380410Y-103005000D01*
X136285172Y-102957381D01*
X135332791Y-102957381D02*
X135237552Y-102957381D01*
X135142314Y-103005000D01*
X135094695Y-103052619D01*
X135047076Y-103147857D01*
X134999457Y-103338333D01*
X134999457Y-103576429D01*
X135047076Y-103766905D01*
X135094695Y-103862143D01*
X135142314Y-103909762D01*
X135237552Y-103957381D01*
X135332791Y-103957381D01*
X135428029Y-103909762D01*
X135475648Y-103862143D01*
X135523267Y-103766905D01*
X135570886Y-103576429D01*
X135570886Y-103338333D01*
X135523267Y-103147857D01*
X135475648Y-103052619D01*
X135428029Y-103005000D01*
X135332791Y-102957381D01*
X134570886Y-103290714D02*
X134570886Y-104290714D01*
X134570886Y-103338333D02*
X134475648Y-103290714D01*
X134285171Y-103290714D01*
X134189933Y-103338333D01*
X134142314Y-103385952D01*
X134094695Y-103481190D01*
X134094695Y-103766905D01*
X134142314Y-103862143D01*
X134189933Y-103909762D01*
X134285171Y-103957381D01*
X134475648Y-103957381D01*
X134570886Y-103909762D01*
X133332790Y-103433571D02*
X133666124Y-103433571D01*
X133666124Y-103957381D02*
X133666124Y-102957381D01*
X133189933Y-102957381D01*
X132246666Y-112347143D02*
X132294285Y-112394762D01*
X132437142Y-112442381D01*
X132532380Y-112442381D01*
X132675238Y-112394762D01*
X132770476Y-112299524D01*
X132818095Y-112204286D01*
X132865714Y-112013810D01*
X132865714Y-111870952D01*
X132818095Y-111680476D01*
X132770476Y-111585238D01*
X132675238Y-111490000D01*
X132532380Y-111442381D01*
X132437142Y-111442381D01*
X132294285Y-111490000D01*
X132246666Y-111537619D01*
X131341904Y-111442381D02*
X131818095Y-111442381D01*
X131865714Y-111918571D01*
X131818095Y-111870952D01*
X131722857Y-111823333D01*
X131484761Y-111823333D01*
X131389523Y-111870952D01*
X131341904Y-111918571D01*
X131294285Y-112013810D01*
X131294285Y-112251905D01*
X131341904Y-112347143D01*
X131389523Y-112394762D01*
X131484761Y-112442381D01*
X131722857Y-112442381D01*
X131818095Y-112394762D01*
X131865714Y-112347143D01*
X137348719Y-110662981D02*
X137920148Y-110662981D01*
X137634434Y-110662981D02*
X137634434Y-109662981D01*
X137729672Y-109805838D01*
X137824910Y-109901076D01*
X137920148Y-109948695D01*
X136729672Y-109662981D02*
X136634433Y-109662981D01*
X136539195Y-109710600D01*
X136491576Y-109758219D01*
X136443957Y-109853457D01*
X136396338Y-110043933D01*
X136396338Y-110282029D01*
X136443957Y-110472505D01*
X136491576Y-110567743D01*
X136539195Y-110615362D01*
X136634433Y-110662981D01*
X136729672Y-110662981D01*
X136824910Y-110615362D01*
X136872529Y-110567743D01*
X136920148Y-110472505D01*
X136967767Y-110282029D01*
X136967767Y-110043933D01*
X136920148Y-109853457D01*
X136872529Y-109758219D01*
X136824910Y-109710600D01*
X136729672Y-109662981D01*
X135777291Y-109662981D02*
X135682052Y-109662981D01*
X135586814Y-109710600D01*
X135539195Y-109758219D01*
X135491576Y-109853457D01*
X135443957Y-110043933D01*
X135443957Y-110282029D01*
X135491576Y-110472505D01*
X135539195Y-110567743D01*
X135586814Y-110615362D01*
X135682052Y-110662981D01*
X135777291Y-110662981D01*
X135872529Y-110615362D01*
X135920148Y-110567743D01*
X135967767Y-110472505D01*
X136015386Y-110282029D01*
X136015386Y-110043933D01*
X135967767Y-109853457D01*
X135920148Y-109758219D01*
X135872529Y-109710600D01*
X135777291Y-109662981D01*
X135015386Y-109996314D02*
X135015386Y-110996314D01*
X135015386Y-110043933D02*
X134920148Y-109996314D01*
X134729671Y-109996314D01*
X134634433Y-110043933D01*
X134586814Y-110091552D01*
X134539195Y-110186790D01*
X134539195Y-110472505D01*
X134586814Y-110567743D01*
X134634433Y-110615362D01*
X134729671Y-110662981D01*
X134920148Y-110662981D01*
X135015386Y-110615362D01*
X133777290Y-110139171D02*
X134110624Y-110139171D01*
X134110624Y-110662981D02*
X134110624Y-109662981D01*
X133634433Y-109662981D01*
X134862866Y-118746543D02*
X134910485Y-118794162D01*
X135053342Y-118841781D01*
X135148580Y-118841781D01*
X135291438Y-118794162D01*
X135386676Y-118698924D01*
X135434295Y-118603686D01*
X135481914Y-118413210D01*
X135481914Y-118270352D01*
X135434295Y-118079876D01*
X135386676Y-117984638D01*
X135291438Y-117889400D01*
X135148580Y-117841781D01*
X135053342Y-117841781D01*
X134910485Y-117889400D01*
X134862866Y-117937019D01*
X134005723Y-117841781D02*
X134196200Y-117841781D01*
X134291438Y-117889400D01*
X134339057Y-117937019D01*
X134434295Y-118079876D01*
X134481914Y-118270352D01*
X134481914Y-118651305D01*
X134434295Y-118746543D01*
X134386676Y-118794162D01*
X134291438Y-118841781D01*
X134100961Y-118841781D01*
X134005723Y-118794162D01*
X133958104Y-118746543D01*
X133910485Y-118651305D01*
X133910485Y-118413210D01*
X133958104Y-118317971D01*
X134005723Y-118270352D01*
X134100961Y-118222733D01*
X134291438Y-118222733D01*
X134386676Y-118270352D01*
X134434295Y-118317971D01*
X134481914Y-118413210D01*
X137145519Y-117216181D02*
X137716948Y-117216181D01*
X137431234Y-117216181D02*
X137431234Y-116216181D01*
X137526472Y-116359038D01*
X137621710Y-116454276D01*
X137716948Y-116501895D01*
X136526472Y-116216181D02*
X136431233Y-116216181D01*
X136335995Y-116263800D01*
X136288376Y-116311419D01*
X136240757Y-116406657D01*
X136193138Y-116597133D01*
X136193138Y-116835229D01*
X136240757Y-117025705D01*
X136288376Y-117120943D01*
X136335995Y-117168562D01*
X136431233Y-117216181D01*
X136526472Y-117216181D01*
X136621710Y-117168562D01*
X136669329Y-117120943D01*
X136716948Y-117025705D01*
X136764567Y-116835229D01*
X136764567Y-116597133D01*
X136716948Y-116406657D01*
X136669329Y-116311419D01*
X136621710Y-116263800D01*
X136526472Y-116216181D01*
X135574091Y-116216181D02*
X135478852Y-116216181D01*
X135383614Y-116263800D01*
X135335995Y-116311419D01*
X135288376Y-116406657D01*
X135240757Y-116597133D01*
X135240757Y-116835229D01*
X135288376Y-117025705D01*
X135335995Y-117120943D01*
X135383614Y-117168562D01*
X135478852Y-117216181D01*
X135574091Y-117216181D01*
X135669329Y-117168562D01*
X135716948Y-117120943D01*
X135764567Y-117025705D01*
X135812186Y-116835229D01*
X135812186Y-116597133D01*
X135764567Y-116406657D01*
X135716948Y-116311419D01*
X135669329Y-116263800D01*
X135574091Y-116216181D01*
X134812186Y-116549514D02*
X134812186Y-117549514D01*
X134812186Y-116597133D02*
X134716948Y-116549514D01*
X134526471Y-116549514D01*
X134431233Y-116597133D01*
X134383614Y-116644752D01*
X134335995Y-116739990D01*
X134335995Y-117025705D01*
X134383614Y-117120943D01*
X134431233Y-117168562D01*
X134526471Y-117216181D01*
X134716948Y-117216181D01*
X134812186Y-117168562D01*
X133574090Y-116692371D02*
X133907424Y-116692371D01*
X133907424Y-117216181D02*
X133907424Y-116216181D01*
X133431233Y-116216181D01*
X208407143Y-111593334D02*
X208454762Y-111545715D01*
X208502381Y-111402858D01*
X208502381Y-111307620D01*
X208454762Y-111164762D01*
X208359524Y-111069524D01*
X208264286Y-111021905D01*
X208073810Y-110974286D01*
X207930952Y-110974286D01*
X207740476Y-111021905D01*
X207645238Y-111069524D01*
X207550000Y-111164762D01*
X207502381Y-111307620D01*
X207502381Y-111402858D01*
X207550000Y-111545715D01*
X207597619Y-111593334D01*
X207502381Y-111926667D02*
X207502381Y-112593334D01*
X208502381Y-112164762D01*
X208407143Y-107783334D02*
X208454762Y-107735715D01*
X208502381Y-107592858D01*
X208502381Y-107497620D01*
X208454762Y-107354762D01*
X208359524Y-107259524D01*
X208264286Y-107211905D01*
X208073810Y-107164286D01*
X207930952Y-107164286D01*
X207740476Y-107211905D01*
X207645238Y-107259524D01*
X207550000Y-107354762D01*
X207502381Y-107497620D01*
X207502381Y-107592858D01*
X207550000Y-107735715D01*
X207597619Y-107783334D01*
X207930952Y-108354762D02*
X207883333Y-108259524D01*
X207835714Y-108211905D01*
X207740476Y-108164286D01*
X207692857Y-108164286D01*
X207597619Y-108211905D01*
X207550000Y-108259524D01*
X207502381Y-108354762D01*
X207502381Y-108545239D01*
X207550000Y-108640477D01*
X207597619Y-108688096D01*
X207692857Y-108735715D01*
X207740476Y-108735715D01*
X207835714Y-108688096D01*
X207883333Y-108640477D01*
X207930952Y-108545239D01*
X207930952Y-108354762D01*
X207978571Y-108259524D01*
X208026190Y-108211905D01*
X208121429Y-108164286D01*
X208311905Y-108164286D01*
X208407143Y-108211905D01*
X208454762Y-108259524D01*
X208502381Y-108354762D01*
X208502381Y-108545239D01*
X208454762Y-108640477D01*
X208407143Y-108688096D01*
X208311905Y-108735715D01*
X208121429Y-108735715D01*
X208026190Y-108688096D01*
X207978571Y-108640477D01*
X207930952Y-108545239D01*
X208407143Y-103973334D02*
X208454762Y-103925715D01*
X208502381Y-103782858D01*
X208502381Y-103687620D01*
X208454762Y-103544762D01*
X208359524Y-103449524D01*
X208264286Y-103401905D01*
X208073810Y-103354286D01*
X207930952Y-103354286D01*
X207740476Y-103401905D01*
X207645238Y-103449524D01*
X207550000Y-103544762D01*
X207502381Y-103687620D01*
X207502381Y-103782858D01*
X207550000Y-103925715D01*
X207597619Y-103973334D01*
X208502381Y-104449524D02*
X208502381Y-104640000D01*
X208454762Y-104735239D01*
X208407143Y-104782858D01*
X208264286Y-104878096D01*
X208073810Y-104925715D01*
X207692857Y-104925715D01*
X207597619Y-104878096D01*
X207550000Y-104830477D01*
X207502381Y-104735239D01*
X207502381Y-104544762D01*
X207550000Y-104449524D01*
X207597619Y-104401905D01*
X207692857Y-104354286D01*
X207930952Y-104354286D01*
X208026190Y-104401905D01*
X208073810Y-104449524D01*
X208121429Y-104544762D01*
X208121429Y-104735239D01*
X208073810Y-104830477D01*
X208026190Y-104878096D01*
X207930952Y-104925715D01*
X208407143Y-99687143D02*
X208454762Y-99639524D01*
X208502381Y-99496667D01*
X208502381Y-99401429D01*
X208454762Y-99258571D01*
X208359524Y-99163333D01*
X208264286Y-99115714D01*
X208073810Y-99068095D01*
X207930952Y-99068095D01*
X207740476Y-99115714D01*
X207645238Y-99163333D01*
X207550000Y-99258571D01*
X207502381Y-99401429D01*
X207502381Y-99496667D01*
X207550000Y-99639524D01*
X207597619Y-99687143D01*
X208502381Y-100639524D02*
X208502381Y-100068095D01*
X208502381Y-100353809D02*
X207502381Y-100353809D01*
X207645238Y-100258571D01*
X207740476Y-100163333D01*
X207788095Y-100068095D01*
X207502381Y-101258571D02*
X207502381Y-101353810D01*
X207550000Y-101449048D01*
X207597619Y-101496667D01*
X207692857Y-101544286D01*
X207883333Y-101591905D01*
X208121429Y-101591905D01*
X208311905Y-101544286D01*
X208407143Y-101496667D01*
X208454762Y-101449048D01*
X208502381Y-101353810D01*
X208502381Y-101258571D01*
X208454762Y-101163333D01*
X208407143Y-101115714D01*
X208311905Y-101068095D01*
X208121429Y-101020476D01*
X207883333Y-101020476D01*
X207692857Y-101068095D01*
X207597619Y-101115714D01*
X207550000Y-101163333D01*
X207502381Y-101258571D01*
X171064157Y-121642143D02*
X171111776Y-121689762D01*
X171254633Y-121737381D01*
X171349871Y-121737381D01*
X171492729Y-121689762D01*
X171587967Y-121594524D01*
X171635586Y-121499286D01*
X171683205Y-121308810D01*
X171683205Y-121165952D01*
X171635586Y-120975476D01*
X171587967Y-120880238D01*
X171492729Y-120785000D01*
X171349871Y-120737381D01*
X171254633Y-120737381D01*
X171111776Y-120785000D01*
X171064157Y-120832619D01*
X170111776Y-121737381D02*
X170683205Y-121737381D01*
X170397491Y-121737381D02*
X170397491Y-120737381D01*
X170492729Y-120880238D01*
X170587967Y-120975476D01*
X170683205Y-121023095D01*
X169159395Y-121737381D02*
X169730824Y-121737381D01*
X169445110Y-121737381D02*
X169445110Y-120737381D01*
X169540348Y-120880238D01*
X169635586Y-120975476D01*
X169730824Y-121023095D01*
X173950238Y-123237381D02*
X174521667Y-123237381D01*
X174235953Y-123237381D02*
X174235953Y-122237381D01*
X174331191Y-122380238D01*
X174426429Y-122475476D01*
X174521667Y-122523095D01*
X173521667Y-122570714D02*
X173521667Y-123237381D01*
X173521667Y-122665952D02*
X173474048Y-122618333D01*
X173378810Y-122570714D01*
X173235952Y-122570714D01*
X173140714Y-122618333D01*
X173093095Y-122713571D01*
X173093095Y-123237381D01*
X172283571Y-122713571D02*
X172616905Y-122713571D01*
X172616905Y-123237381D02*
X172616905Y-122237381D01*
X172140714Y-122237381D01*
X176969657Y-119686343D02*
X177017276Y-119733962D01*
X177160133Y-119781581D01*
X177255371Y-119781581D01*
X177398229Y-119733962D01*
X177493467Y-119638724D01*
X177541086Y-119543486D01*
X177588705Y-119353010D01*
X177588705Y-119210152D01*
X177541086Y-119019676D01*
X177493467Y-118924438D01*
X177398229Y-118829200D01*
X177255371Y-118781581D01*
X177160133Y-118781581D01*
X177017276Y-118829200D01*
X176969657Y-118876819D01*
X176017276Y-119781581D02*
X176588705Y-119781581D01*
X176302991Y-119781581D02*
X176302991Y-118781581D01*
X176398229Y-118924438D01*
X176493467Y-119019676D01*
X176588705Y-119067295D01*
X175636324Y-118876819D02*
X175588705Y-118829200D01*
X175493467Y-118781581D01*
X175255371Y-118781581D01*
X175160133Y-118829200D01*
X175112514Y-118876819D01*
X175064895Y-118972057D01*
X175064895Y-119067295D01*
X175112514Y-119210152D01*
X175683943Y-119781581D01*
X175064895Y-119781581D01*
X171194338Y-119857781D02*
X171765767Y-119857781D01*
X171480053Y-119857781D02*
X171480053Y-118857781D01*
X171575291Y-119000638D01*
X171670529Y-119095876D01*
X171765767Y-119143495D01*
X170765767Y-119191114D02*
X170765767Y-119857781D01*
X170765767Y-119286352D02*
X170718148Y-119238733D01*
X170622910Y-119191114D01*
X170480052Y-119191114D01*
X170384814Y-119238733D01*
X170337195Y-119333971D01*
X170337195Y-119857781D01*
X169527671Y-119333971D02*
X169861005Y-119333971D01*
X169861005Y-119857781D02*
X169861005Y-118857781D01*
X169384814Y-118857781D01*
X183840357Y-119787943D02*
X183887976Y-119835562D01*
X184030833Y-119883181D01*
X184126071Y-119883181D01*
X184268929Y-119835562D01*
X184364167Y-119740324D01*
X184411786Y-119645086D01*
X184459405Y-119454610D01*
X184459405Y-119311752D01*
X184411786Y-119121276D01*
X184364167Y-119026038D01*
X184268929Y-118930800D01*
X184126071Y-118883181D01*
X184030833Y-118883181D01*
X183887976Y-118930800D01*
X183840357Y-118978419D01*
X182887976Y-119883181D02*
X183459405Y-119883181D01*
X183173691Y-119883181D02*
X183173691Y-118883181D01*
X183268929Y-119026038D01*
X183364167Y-119121276D01*
X183459405Y-119168895D01*
X182554643Y-118883181D02*
X181935595Y-118883181D01*
X182268929Y-119264133D01*
X182126071Y-119264133D01*
X182030833Y-119311752D01*
X181983214Y-119359371D01*
X181935595Y-119454610D01*
X181935595Y-119692705D01*
X181983214Y-119787943D01*
X182030833Y-119835562D01*
X182126071Y-119883181D01*
X182411786Y-119883181D01*
X182507024Y-119835562D01*
X182554643Y-119787943D01*
X180935238Y-118332381D02*
X181506667Y-118332381D01*
X181220953Y-118332381D02*
X181220953Y-117332381D01*
X181316191Y-117475238D01*
X181411429Y-117570476D01*
X181506667Y-117618095D01*
X180506667Y-117665714D02*
X180506667Y-118332381D01*
X180506667Y-117760952D02*
X180459048Y-117713333D01*
X180363810Y-117665714D01*
X180220952Y-117665714D01*
X180125714Y-117713333D01*
X180078095Y-117808571D01*
X180078095Y-118332381D01*
X179268571Y-117808571D02*
X179601905Y-117808571D01*
X179601905Y-118332381D02*
X179601905Y-117332381D01*
X179125714Y-117332381D01*
X183903857Y-121515143D02*
X183951476Y-121562762D01*
X184094333Y-121610381D01*
X184189571Y-121610381D01*
X184332429Y-121562762D01*
X184427667Y-121467524D01*
X184475286Y-121372286D01*
X184522905Y-121181810D01*
X184522905Y-121038952D01*
X184475286Y-120848476D01*
X184427667Y-120753238D01*
X184332429Y-120658000D01*
X184189571Y-120610381D01*
X184094333Y-120610381D01*
X183951476Y-120658000D01*
X183903857Y-120705619D01*
X182951476Y-121610381D02*
X183522905Y-121610381D01*
X183237191Y-121610381D02*
X183237191Y-120610381D01*
X183332429Y-120753238D01*
X183427667Y-120848476D01*
X183522905Y-120896095D01*
X182094333Y-120943714D02*
X182094333Y-121610381D01*
X182332429Y-120562762D02*
X182570524Y-121277048D01*
X181951476Y-121277048D01*
X178052338Y-121661181D02*
X178623767Y-121661181D01*
X178338053Y-121661181D02*
X178338053Y-120661181D01*
X178433291Y-120804038D01*
X178528529Y-120899276D01*
X178623767Y-120946895D01*
X177623767Y-120994514D02*
X177623767Y-121661181D01*
X177623767Y-121089752D02*
X177576148Y-121042133D01*
X177480910Y-120994514D01*
X177338052Y-120994514D01*
X177242814Y-121042133D01*
X177195195Y-121137371D01*
X177195195Y-121661181D01*
X176385671Y-121137371D02*
X176719005Y-121137371D01*
X176719005Y-121661181D02*
X176719005Y-120661181D01*
X176242814Y-120661181D01*
X142184357Y-84875643D02*
X142231976Y-84923262D01*
X142374833Y-84970881D01*
X142470071Y-84970881D01*
X142612929Y-84923262D01*
X142708167Y-84828024D01*
X142755786Y-84732786D01*
X142803405Y-84542310D01*
X142803405Y-84399452D01*
X142755786Y-84208976D01*
X142708167Y-84113738D01*
X142612929Y-84018500D01*
X142470071Y-83970881D01*
X142374833Y-83970881D01*
X142231976Y-84018500D01*
X142184357Y-84066119D01*
X141231976Y-84970881D02*
X141803405Y-84970881D01*
X141517691Y-84970881D02*
X141517691Y-83970881D01*
X141612929Y-84113738D01*
X141708167Y-84208976D01*
X141803405Y-84256595D01*
X140327214Y-83970881D02*
X140803405Y-83970881D01*
X140851024Y-84447071D01*
X140803405Y-84399452D01*
X140708167Y-84351833D01*
X140470071Y-84351833D01*
X140374833Y-84399452D01*
X140327214Y-84447071D01*
X140279595Y-84542310D01*
X140279595Y-84780405D01*
X140327214Y-84875643D01*
X140374833Y-84923262D01*
X140470071Y-84970881D01*
X140708167Y-84970881D01*
X140803405Y-84923262D01*
X140851024Y-84875643D01*
X139977619Y-83407381D02*
X140549048Y-83407381D01*
X140263334Y-83407381D02*
X140263334Y-82407381D01*
X140358572Y-82550238D01*
X140453810Y-82645476D01*
X140549048Y-82693095D01*
X139358572Y-82407381D02*
X139263333Y-82407381D01*
X139168095Y-82455000D01*
X139120476Y-82502619D01*
X139072857Y-82597857D01*
X139025238Y-82788333D01*
X139025238Y-83026429D01*
X139072857Y-83216905D01*
X139120476Y-83312143D01*
X139168095Y-83359762D01*
X139263333Y-83407381D01*
X139358572Y-83407381D01*
X139453810Y-83359762D01*
X139501429Y-83312143D01*
X139549048Y-83216905D01*
X139596667Y-83026429D01*
X139596667Y-82788333D01*
X139549048Y-82597857D01*
X139501429Y-82502619D01*
X139453810Y-82455000D01*
X139358572Y-82407381D01*
X138406191Y-82407381D02*
X138310952Y-82407381D01*
X138215714Y-82455000D01*
X138168095Y-82502619D01*
X138120476Y-82597857D01*
X138072857Y-82788333D01*
X138072857Y-83026429D01*
X138120476Y-83216905D01*
X138168095Y-83312143D01*
X138215714Y-83359762D01*
X138310952Y-83407381D01*
X138406191Y-83407381D01*
X138501429Y-83359762D01*
X138549048Y-83312143D01*
X138596667Y-83216905D01*
X138644286Y-83026429D01*
X138644286Y-82788333D01*
X138596667Y-82597857D01*
X138549048Y-82502619D01*
X138501429Y-82455000D01*
X138406191Y-82407381D01*
X137644286Y-82740714D02*
X137644286Y-83740714D01*
X137644286Y-82788333D02*
X137549048Y-82740714D01*
X137358571Y-82740714D01*
X137263333Y-82788333D01*
X137215714Y-82835952D01*
X137168095Y-82931190D01*
X137168095Y-83216905D01*
X137215714Y-83312143D01*
X137263333Y-83359762D01*
X137358571Y-83407381D01*
X137549048Y-83407381D01*
X137644286Y-83359762D01*
X136406190Y-82883571D02*
X136739524Y-82883571D01*
X136739524Y-83407381D02*
X136739524Y-82407381D01*
X136263333Y-82407381D01*
X141981157Y-91263743D02*
X142028776Y-91311362D01*
X142171633Y-91358981D01*
X142266871Y-91358981D01*
X142409729Y-91311362D01*
X142504967Y-91216124D01*
X142552586Y-91120886D01*
X142600205Y-90930410D01*
X142600205Y-90787552D01*
X142552586Y-90597076D01*
X142504967Y-90501838D01*
X142409729Y-90406600D01*
X142266871Y-90358981D01*
X142171633Y-90358981D01*
X142028776Y-90406600D01*
X141981157Y-90454219D01*
X141028776Y-91358981D02*
X141600205Y-91358981D01*
X141314491Y-91358981D02*
X141314491Y-90358981D01*
X141409729Y-90501838D01*
X141504967Y-90597076D01*
X141600205Y-90644695D01*
X140171633Y-90358981D02*
X140362110Y-90358981D01*
X140457348Y-90406600D01*
X140504967Y-90454219D01*
X140600205Y-90597076D01*
X140647824Y-90787552D01*
X140647824Y-91168505D01*
X140600205Y-91263743D01*
X140552586Y-91311362D01*
X140457348Y-91358981D01*
X140266871Y-91358981D01*
X140171633Y-91311362D01*
X140124014Y-91263743D01*
X140076395Y-91168505D01*
X140076395Y-90930410D01*
X140124014Y-90835171D01*
X140171633Y-90787552D01*
X140266871Y-90739933D01*
X140457348Y-90739933D01*
X140552586Y-90787552D01*
X140600205Y-90835171D01*
X140647824Y-90930410D01*
X135900919Y-91270081D02*
X136472348Y-91270081D01*
X136186634Y-91270081D02*
X136186634Y-90270081D01*
X136281872Y-90412938D01*
X136377110Y-90508176D01*
X136472348Y-90555795D01*
X135281872Y-90270081D02*
X135186633Y-90270081D01*
X135091395Y-90317700D01*
X135043776Y-90365319D01*
X134996157Y-90460557D01*
X134948538Y-90651033D01*
X134948538Y-90889129D01*
X134996157Y-91079605D01*
X135043776Y-91174843D01*
X135091395Y-91222462D01*
X135186633Y-91270081D01*
X135281872Y-91270081D01*
X135377110Y-91222462D01*
X135424729Y-91174843D01*
X135472348Y-91079605D01*
X135519967Y-90889129D01*
X135519967Y-90651033D01*
X135472348Y-90460557D01*
X135424729Y-90365319D01*
X135377110Y-90317700D01*
X135281872Y-90270081D01*
X134329491Y-90270081D02*
X134234252Y-90270081D01*
X134139014Y-90317700D01*
X134091395Y-90365319D01*
X134043776Y-90460557D01*
X133996157Y-90651033D01*
X133996157Y-90889129D01*
X134043776Y-91079605D01*
X134091395Y-91174843D01*
X134139014Y-91222462D01*
X134234252Y-91270081D01*
X134329491Y-91270081D01*
X134424729Y-91222462D01*
X134472348Y-91174843D01*
X134519967Y-91079605D01*
X134567586Y-90889129D01*
X134567586Y-90651033D01*
X134519967Y-90460557D01*
X134472348Y-90365319D01*
X134424729Y-90317700D01*
X134329491Y-90270081D01*
X133567586Y-90603414D02*
X133567586Y-91603414D01*
X133567586Y-90651033D02*
X133472348Y-90603414D01*
X133281871Y-90603414D01*
X133186633Y-90651033D01*
X133139014Y-90698652D01*
X133091395Y-90793890D01*
X133091395Y-91079605D01*
X133139014Y-91174843D01*
X133186633Y-91222462D01*
X133281871Y-91270081D01*
X133472348Y-91270081D01*
X133567586Y-91222462D01*
X132329490Y-90746271D02*
X132662824Y-90746271D01*
X132662824Y-91270081D02*
X132662824Y-90270081D01*
X132186633Y-90270081D01*
X146807157Y-97562943D02*
X146854776Y-97610562D01*
X146997633Y-97658181D01*
X147092871Y-97658181D01*
X147235729Y-97610562D01*
X147330967Y-97515324D01*
X147378586Y-97420086D01*
X147426205Y-97229610D01*
X147426205Y-97086752D01*
X147378586Y-96896276D01*
X147330967Y-96801038D01*
X147235729Y-96705800D01*
X147092871Y-96658181D01*
X146997633Y-96658181D01*
X146854776Y-96705800D01*
X146807157Y-96753419D01*
X145854776Y-97658181D02*
X146426205Y-97658181D01*
X146140491Y-97658181D02*
X146140491Y-96658181D01*
X146235729Y-96801038D01*
X146330967Y-96896276D01*
X146426205Y-96943895D01*
X145521443Y-96658181D02*
X144854776Y-96658181D01*
X145283348Y-97658181D01*
X143508219Y-97531181D02*
X144079648Y-97531181D01*
X143793934Y-97531181D02*
X143793934Y-96531181D01*
X143889172Y-96674038D01*
X143984410Y-96769276D01*
X144079648Y-96816895D01*
X142889172Y-96531181D02*
X142793933Y-96531181D01*
X142698695Y-96578800D01*
X142651076Y-96626419D01*
X142603457Y-96721657D01*
X142555838Y-96912133D01*
X142555838Y-97150229D01*
X142603457Y-97340705D01*
X142651076Y-97435943D01*
X142698695Y-97483562D01*
X142793933Y-97531181D01*
X142889172Y-97531181D01*
X142984410Y-97483562D01*
X143032029Y-97435943D01*
X143079648Y-97340705D01*
X143127267Y-97150229D01*
X143127267Y-96912133D01*
X143079648Y-96721657D01*
X143032029Y-96626419D01*
X142984410Y-96578800D01*
X142889172Y-96531181D01*
X141936791Y-96531181D02*
X141841552Y-96531181D01*
X141746314Y-96578800D01*
X141698695Y-96626419D01*
X141651076Y-96721657D01*
X141603457Y-96912133D01*
X141603457Y-97150229D01*
X141651076Y-97340705D01*
X141698695Y-97435943D01*
X141746314Y-97483562D01*
X141841552Y-97531181D01*
X141936791Y-97531181D01*
X142032029Y-97483562D01*
X142079648Y-97435943D01*
X142127267Y-97340705D01*
X142174886Y-97150229D01*
X142174886Y-96912133D01*
X142127267Y-96721657D01*
X142079648Y-96626419D01*
X142032029Y-96578800D01*
X141936791Y-96531181D01*
X141174886Y-96864514D02*
X141174886Y-97864514D01*
X141174886Y-96912133D02*
X141079648Y-96864514D01*
X140889171Y-96864514D01*
X140793933Y-96912133D01*
X140746314Y-96959752D01*
X140698695Y-97054990D01*
X140698695Y-97340705D01*
X140746314Y-97435943D01*
X140793933Y-97483562D01*
X140889171Y-97531181D01*
X141079648Y-97531181D01*
X141174886Y-97483562D01*
X139936790Y-97007371D02*
X140270124Y-97007371D01*
X140270124Y-97531181D02*
X140270124Y-96531181D01*
X139793933Y-96531181D01*
X143886157Y-105182943D02*
X143933776Y-105230562D01*
X144076633Y-105278181D01*
X144171871Y-105278181D01*
X144314729Y-105230562D01*
X144409967Y-105135324D01*
X144457586Y-105040086D01*
X144505205Y-104849610D01*
X144505205Y-104706752D01*
X144457586Y-104516276D01*
X144409967Y-104421038D01*
X144314729Y-104325800D01*
X144171871Y-104278181D01*
X144076633Y-104278181D01*
X143933776Y-104325800D01*
X143886157Y-104373419D01*
X142933776Y-105278181D02*
X143505205Y-105278181D01*
X143219491Y-105278181D02*
X143219491Y-104278181D01*
X143314729Y-104421038D01*
X143409967Y-104516276D01*
X143505205Y-104563895D01*
X142362348Y-104706752D02*
X142457586Y-104659133D01*
X142505205Y-104611514D01*
X142552824Y-104516276D01*
X142552824Y-104468657D01*
X142505205Y-104373419D01*
X142457586Y-104325800D01*
X142362348Y-104278181D01*
X142171871Y-104278181D01*
X142076633Y-104325800D01*
X142029014Y-104373419D01*
X141981395Y-104468657D01*
X141981395Y-104516276D01*
X142029014Y-104611514D01*
X142076633Y-104659133D01*
X142171871Y-104706752D01*
X142362348Y-104706752D01*
X142457586Y-104754371D01*
X142505205Y-104801990D01*
X142552824Y-104897229D01*
X142552824Y-105087705D01*
X142505205Y-105182943D01*
X142457586Y-105230562D01*
X142362348Y-105278181D01*
X142171871Y-105278181D01*
X142076633Y-105230562D01*
X142029014Y-105182943D01*
X141981395Y-105087705D01*
X141981395Y-104897229D01*
X142029014Y-104801990D01*
X142076633Y-104754371D01*
X142171871Y-104706752D01*
X143800319Y-103931981D02*
X144371748Y-103931981D01*
X144086034Y-103931981D02*
X144086034Y-102931981D01*
X144181272Y-103074838D01*
X144276510Y-103170076D01*
X144371748Y-103217695D01*
X143181272Y-102931981D02*
X143086033Y-102931981D01*
X142990795Y-102979600D01*
X142943176Y-103027219D01*
X142895557Y-103122457D01*
X142847938Y-103312933D01*
X142847938Y-103551029D01*
X142895557Y-103741505D01*
X142943176Y-103836743D01*
X142990795Y-103884362D01*
X143086033Y-103931981D01*
X143181272Y-103931981D01*
X143276510Y-103884362D01*
X143324129Y-103836743D01*
X143371748Y-103741505D01*
X143419367Y-103551029D01*
X143419367Y-103312933D01*
X143371748Y-103122457D01*
X143324129Y-103027219D01*
X143276510Y-102979600D01*
X143181272Y-102931981D01*
X142228891Y-102931981D02*
X142133652Y-102931981D01*
X142038414Y-102979600D01*
X141990795Y-103027219D01*
X141943176Y-103122457D01*
X141895557Y-103312933D01*
X141895557Y-103551029D01*
X141943176Y-103741505D01*
X141990795Y-103836743D01*
X142038414Y-103884362D01*
X142133652Y-103931981D01*
X142228891Y-103931981D01*
X142324129Y-103884362D01*
X142371748Y-103836743D01*
X142419367Y-103741505D01*
X142466986Y-103551029D01*
X142466986Y-103312933D01*
X142419367Y-103122457D01*
X142371748Y-103027219D01*
X142324129Y-102979600D01*
X142228891Y-102931981D01*
X141466986Y-103265314D02*
X141466986Y-104265314D01*
X141466986Y-103312933D02*
X141371748Y-103265314D01*
X141181271Y-103265314D01*
X141086033Y-103312933D01*
X141038414Y-103360552D01*
X140990795Y-103455790D01*
X140990795Y-103741505D01*
X141038414Y-103836743D01*
X141086033Y-103884362D01*
X141181271Y-103931981D01*
X141371748Y-103931981D01*
X141466986Y-103884362D01*
X140228890Y-103408171D02*
X140562224Y-103408171D01*
X140562224Y-103931981D02*
X140562224Y-102931981D01*
X140086033Y-102931981D01*
X208407143Y-95877143D02*
X208454762Y-95829524D01*
X208502381Y-95686667D01*
X208502381Y-95591429D01*
X208454762Y-95448571D01*
X208359524Y-95353333D01*
X208264286Y-95305714D01*
X208073810Y-95258095D01*
X207930952Y-95258095D01*
X207740476Y-95305714D01*
X207645238Y-95353333D01*
X207550000Y-95448571D01*
X207502381Y-95591429D01*
X207502381Y-95686667D01*
X207550000Y-95829524D01*
X207597619Y-95877143D01*
X208502381Y-96829524D02*
X208502381Y-96258095D01*
X208502381Y-96543809D02*
X207502381Y-96543809D01*
X207645238Y-96448571D01*
X207740476Y-96353333D01*
X207788095Y-96258095D01*
X208502381Y-97305714D02*
X208502381Y-97496190D01*
X208454762Y-97591429D01*
X208407143Y-97639048D01*
X208264286Y-97734286D01*
X208073810Y-97781905D01*
X207692857Y-97781905D01*
X207597619Y-97734286D01*
X207550000Y-97686667D01*
X207502381Y-97591429D01*
X207502381Y-97400952D01*
X207550000Y-97305714D01*
X207597619Y-97258095D01*
X207692857Y-97210476D01*
X207930952Y-97210476D01*
X208026190Y-97258095D01*
X208073810Y-97305714D01*
X208121429Y-97400952D01*
X208121429Y-97591429D01*
X208073810Y-97686667D01*
X208026190Y-97734286D01*
X207930952Y-97781905D01*
X208407143Y-92067143D02*
X208454762Y-92019524D01*
X208502381Y-91876667D01*
X208502381Y-91781429D01*
X208454762Y-91638571D01*
X208359524Y-91543333D01*
X208264286Y-91495714D01*
X208073810Y-91448095D01*
X207930952Y-91448095D01*
X207740476Y-91495714D01*
X207645238Y-91543333D01*
X207550000Y-91638571D01*
X207502381Y-91781429D01*
X207502381Y-91876667D01*
X207550000Y-92019524D01*
X207597619Y-92067143D01*
X207597619Y-92448095D02*
X207550000Y-92495714D01*
X207502381Y-92590952D01*
X207502381Y-92829048D01*
X207550000Y-92924286D01*
X207597619Y-92971905D01*
X207692857Y-93019524D01*
X207788095Y-93019524D01*
X207930952Y-92971905D01*
X208502381Y-92400476D01*
X208502381Y-93019524D01*
X207502381Y-93638571D02*
X207502381Y-93733810D01*
X207550000Y-93829048D01*
X207597619Y-93876667D01*
X207692857Y-93924286D01*
X207883333Y-93971905D01*
X208121429Y-93971905D01*
X208311905Y-93924286D01*
X208407143Y-93876667D01*
X208454762Y-93829048D01*
X208502381Y-93733810D01*
X208502381Y-93638571D01*
X208454762Y-93543333D01*
X208407143Y-93495714D01*
X208311905Y-93448095D01*
X208121429Y-93400476D01*
X207883333Y-93400476D01*
X207692857Y-93448095D01*
X207597619Y-93495714D01*
X207550000Y-93543333D01*
X207502381Y-93638571D01*
X208407143Y-88257143D02*
X208454762Y-88209524D01*
X208502381Y-88066667D01*
X208502381Y-87971429D01*
X208454762Y-87828571D01*
X208359524Y-87733333D01*
X208264286Y-87685714D01*
X208073810Y-87638095D01*
X207930952Y-87638095D01*
X207740476Y-87685714D01*
X207645238Y-87733333D01*
X207550000Y-87828571D01*
X207502381Y-87971429D01*
X207502381Y-88066667D01*
X207550000Y-88209524D01*
X207597619Y-88257143D01*
X207597619Y-88638095D02*
X207550000Y-88685714D01*
X207502381Y-88780952D01*
X207502381Y-89019048D01*
X207550000Y-89114286D01*
X207597619Y-89161905D01*
X207692857Y-89209524D01*
X207788095Y-89209524D01*
X207930952Y-89161905D01*
X208502381Y-88590476D01*
X208502381Y-89209524D01*
X208502381Y-90161905D02*
X208502381Y-89590476D01*
X208502381Y-89876190D02*
X207502381Y-89876190D01*
X207645238Y-89780952D01*
X207740476Y-89685714D01*
X207788095Y-89590476D01*
X208407143Y-84447143D02*
X208454762Y-84399524D01*
X208502381Y-84256667D01*
X208502381Y-84161429D01*
X208454762Y-84018571D01*
X208359524Y-83923333D01*
X208264286Y-83875714D01*
X208073810Y-83828095D01*
X207930952Y-83828095D01*
X207740476Y-83875714D01*
X207645238Y-83923333D01*
X207550000Y-84018571D01*
X207502381Y-84161429D01*
X207502381Y-84256667D01*
X207550000Y-84399524D01*
X207597619Y-84447143D01*
X207597619Y-84828095D02*
X207550000Y-84875714D01*
X207502381Y-84970952D01*
X207502381Y-85209048D01*
X207550000Y-85304286D01*
X207597619Y-85351905D01*
X207692857Y-85399524D01*
X207788095Y-85399524D01*
X207930952Y-85351905D01*
X208502381Y-84780476D01*
X208502381Y-85399524D01*
X207597619Y-85780476D02*
X207550000Y-85828095D01*
X207502381Y-85923333D01*
X207502381Y-86161429D01*
X207550000Y-86256667D01*
X207597619Y-86304286D01*
X207692857Y-86351905D01*
X207788095Y-86351905D01*
X207930952Y-86304286D01*
X208502381Y-85732857D01*
X208502381Y-86351905D01*
X189009257Y-91898743D02*
X189056876Y-91946362D01*
X189199733Y-91993981D01*
X189294971Y-91993981D01*
X189437829Y-91946362D01*
X189533067Y-91851124D01*
X189580686Y-91755886D01*
X189628305Y-91565410D01*
X189628305Y-91422552D01*
X189580686Y-91232076D01*
X189533067Y-91136838D01*
X189437829Y-91041600D01*
X189294971Y-90993981D01*
X189199733Y-90993981D01*
X189056876Y-91041600D01*
X189009257Y-91089219D01*
X188628305Y-91089219D02*
X188580686Y-91041600D01*
X188485448Y-90993981D01*
X188247352Y-90993981D01*
X188152114Y-91041600D01*
X188104495Y-91089219D01*
X188056876Y-91184457D01*
X188056876Y-91279695D01*
X188104495Y-91422552D01*
X188675924Y-91993981D01*
X188056876Y-91993981D01*
X187723543Y-90993981D02*
X187104495Y-90993981D01*
X187437829Y-91374933D01*
X187294971Y-91374933D01*
X187199733Y-91422552D01*
X187152114Y-91470171D01*
X187104495Y-91565410D01*
X187104495Y-91803505D01*
X187152114Y-91898743D01*
X187199733Y-91946362D01*
X187294971Y-91993981D01*
X187580686Y-91993981D01*
X187675924Y-91946362D01*
X187723543Y-91898743D01*
X188796538Y-90673181D02*
X189367967Y-90673181D01*
X189082253Y-90673181D02*
X189082253Y-89673181D01*
X189177491Y-89816038D01*
X189272729Y-89911276D01*
X189367967Y-89958895D01*
X188367967Y-90006514D02*
X188367967Y-90673181D01*
X188367967Y-90101752D02*
X188320348Y-90054133D01*
X188225110Y-90006514D01*
X188082252Y-90006514D01*
X187987014Y-90054133D01*
X187939395Y-90149371D01*
X187939395Y-90673181D01*
X187129871Y-90149371D02*
X187463205Y-90149371D01*
X187463205Y-90673181D02*
X187463205Y-89673181D01*
X186987014Y-89673181D01*
X188145657Y-86107543D02*
X188193276Y-86155162D01*
X188336133Y-86202781D01*
X188431371Y-86202781D01*
X188574229Y-86155162D01*
X188669467Y-86059924D01*
X188717086Y-85964686D01*
X188764705Y-85774210D01*
X188764705Y-85631352D01*
X188717086Y-85440876D01*
X188669467Y-85345638D01*
X188574229Y-85250400D01*
X188431371Y-85202781D01*
X188336133Y-85202781D01*
X188193276Y-85250400D01*
X188145657Y-85298019D01*
X187764705Y-85298019D02*
X187717086Y-85250400D01*
X187621848Y-85202781D01*
X187383752Y-85202781D01*
X187288514Y-85250400D01*
X187240895Y-85298019D01*
X187193276Y-85393257D01*
X187193276Y-85488495D01*
X187240895Y-85631352D01*
X187812324Y-86202781D01*
X187193276Y-86202781D01*
X186336133Y-85536114D02*
X186336133Y-86202781D01*
X186574229Y-85155162D02*
X186812324Y-85869448D01*
X186193276Y-85869448D01*
X188225038Y-87523581D02*
X188796467Y-87523581D01*
X188510753Y-87523581D02*
X188510753Y-86523581D01*
X188605991Y-86666438D01*
X188701229Y-86761676D01*
X188796467Y-86809295D01*
X187796467Y-86856914D02*
X187796467Y-87523581D01*
X187796467Y-86952152D02*
X187748848Y-86904533D01*
X187653610Y-86856914D01*
X187510752Y-86856914D01*
X187415514Y-86904533D01*
X187367895Y-86999771D01*
X187367895Y-87523581D01*
X186558371Y-86999771D02*
X186891705Y-86999771D01*
X186891705Y-87523581D02*
X186891705Y-86523581D01*
X186415514Y-86523581D01*
X166377857Y-85852143D02*
X166425476Y-85899762D01*
X166568333Y-85947381D01*
X166663571Y-85947381D01*
X166806429Y-85899762D01*
X166901667Y-85804524D01*
X166949286Y-85709286D01*
X166996905Y-85518810D01*
X166996905Y-85375952D01*
X166949286Y-85185476D01*
X166901667Y-85090238D01*
X166806429Y-84995000D01*
X166663571Y-84947381D01*
X166568333Y-84947381D01*
X166425476Y-84995000D01*
X166377857Y-85042619D01*
X165996905Y-85042619D02*
X165949286Y-84995000D01*
X165854048Y-84947381D01*
X165615952Y-84947381D01*
X165520714Y-84995000D01*
X165473095Y-85042619D01*
X165425476Y-85137857D01*
X165425476Y-85233095D01*
X165473095Y-85375952D01*
X166044524Y-85947381D01*
X165425476Y-85947381D01*
X164520714Y-84947381D02*
X164996905Y-84947381D01*
X165044524Y-85423571D01*
X164996905Y-85375952D01*
X164901667Y-85328333D01*
X164663571Y-85328333D01*
X164568333Y-85375952D01*
X164520714Y-85423571D01*
X164473095Y-85518810D01*
X164473095Y-85756905D01*
X164520714Y-85852143D01*
X164568333Y-85899762D01*
X164663571Y-85947381D01*
X164901667Y-85947381D01*
X164996905Y-85899762D01*
X165044524Y-85852143D01*
X163345738Y-87409281D02*
X163917167Y-87409281D01*
X163631453Y-87409281D02*
X163631453Y-86409281D01*
X163726691Y-86552138D01*
X163821929Y-86647376D01*
X163917167Y-86694995D01*
X162917167Y-86742614D02*
X162917167Y-87409281D01*
X162917167Y-86837852D02*
X162869548Y-86790233D01*
X162774310Y-86742614D01*
X162631452Y-86742614D01*
X162536214Y-86790233D01*
X162488595Y-86885471D01*
X162488595Y-87409281D01*
X161679071Y-86885471D02*
X162012405Y-86885471D01*
X162012405Y-87409281D02*
X162012405Y-86409281D01*
X161536214Y-86409281D01*
X166377857Y-89027143D02*
X166425476Y-89074762D01*
X166568333Y-89122381D01*
X166663571Y-89122381D01*
X166806429Y-89074762D01*
X166901667Y-88979524D01*
X166949286Y-88884286D01*
X166996905Y-88693810D01*
X166996905Y-88550952D01*
X166949286Y-88360476D01*
X166901667Y-88265238D01*
X166806429Y-88170000D01*
X166663571Y-88122381D01*
X166568333Y-88122381D01*
X166425476Y-88170000D01*
X166377857Y-88217619D01*
X165996905Y-88217619D02*
X165949286Y-88170000D01*
X165854048Y-88122381D01*
X165615952Y-88122381D01*
X165520714Y-88170000D01*
X165473095Y-88217619D01*
X165425476Y-88312857D01*
X165425476Y-88408095D01*
X165473095Y-88550952D01*
X166044524Y-89122381D01*
X165425476Y-89122381D01*
X164568333Y-88122381D02*
X164758810Y-88122381D01*
X164854048Y-88170000D01*
X164901667Y-88217619D01*
X164996905Y-88360476D01*
X165044524Y-88550952D01*
X165044524Y-88931905D01*
X164996905Y-89027143D01*
X164949286Y-89074762D01*
X164854048Y-89122381D01*
X164663571Y-89122381D01*
X164568333Y-89074762D01*
X164520714Y-89027143D01*
X164473095Y-88931905D01*
X164473095Y-88693810D01*
X164520714Y-88598571D01*
X164568333Y-88550952D01*
X164663571Y-88503333D01*
X164854048Y-88503333D01*
X164949286Y-88550952D01*
X164996905Y-88598571D01*
X165044524Y-88693810D01*
X162469438Y-92857581D02*
X163040867Y-92857581D01*
X162755153Y-92857581D02*
X162755153Y-91857581D01*
X162850391Y-92000438D01*
X162945629Y-92095676D01*
X163040867Y-92143295D01*
X162040867Y-92190914D02*
X162040867Y-92857581D01*
X162040867Y-92286152D02*
X161993248Y-92238533D01*
X161898010Y-92190914D01*
X161755152Y-92190914D01*
X161659914Y-92238533D01*
X161612295Y-92333771D01*
X161612295Y-92857581D01*
X160802771Y-92333771D02*
X161136105Y-92333771D01*
X161136105Y-92857581D02*
X161136105Y-91857581D01*
X160659914Y-91857581D01*
X173132381Y-114831905D02*
X172132381Y-114831905D01*
X172132381Y-115070000D01*
X172180000Y-115212858D01*
X172275238Y-115308096D01*
X172370476Y-115355715D01*
X172560952Y-115403334D01*
X172703810Y-115403334D01*
X172894286Y-115355715D01*
X172989524Y-115308096D01*
X173084762Y-115212858D01*
X173132381Y-115070000D01*
X173132381Y-114831905D01*
X173132381Y-116355715D02*
X173132381Y-115784286D01*
X173132381Y-116070000D02*
X172132381Y-116070000D01*
X172275238Y-115974762D01*
X172370476Y-115879524D01*
X172418095Y-115784286D01*
X178847381Y-114831905D02*
X177847381Y-114831905D01*
X177847381Y-115070000D01*
X177895000Y-115212858D01*
X177990238Y-115308096D01*
X178085476Y-115355715D01*
X178275952Y-115403334D01*
X178418810Y-115403334D01*
X178609286Y-115355715D01*
X178704524Y-115308096D01*
X178799762Y-115212858D01*
X178847381Y-115070000D01*
X178847381Y-114831905D01*
X177942619Y-115784286D02*
X177895000Y-115831905D01*
X177847381Y-115927143D01*
X177847381Y-116165239D01*
X177895000Y-116260477D01*
X177942619Y-116308096D01*
X178037857Y-116355715D01*
X178133095Y-116355715D01*
X178275952Y-116308096D01*
X178847381Y-115736667D01*
X178847381Y-116355715D01*
X183927381Y-114831905D02*
X182927381Y-114831905D01*
X182927381Y-115070000D01*
X182975000Y-115212858D01*
X183070238Y-115308096D01*
X183165476Y-115355715D01*
X183355952Y-115403334D01*
X183498810Y-115403334D01*
X183689286Y-115355715D01*
X183784524Y-115308096D01*
X183879762Y-115212858D01*
X183927381Y-115070000D01*
X183927381Y-114831905D01*
X182927381Y-115736667D02*
X182927381Y-116355715D01*
X183308333Y-116022381D01*
X183308333Y-116165239D01*
X183355952Y-116260477D01*
X183403571Y-116308096D01*
X183498810Y-116355715D01*
X183736905Y-116355715D01*
X183832143Y-116308096D01*
X183879762Y-116260477D01*
X183927381Y-116165239D01*
X183927381Y-115879524D01*
X183879762Y-115784286D01*
X183832143Y-115736667D01*
X189007381Y-114831905D02*
X188007381Y-114831905D01*
X188007381Y-115070000D01*
X188055000Y-115212858D01*
X188150238Y-115308096D01*
X188245476Y-115355715D01*
X188435952Y-115403334D01*
X188578810Y-115403334D01*
X188769286Y-115355715D01*
X188864524Y-115308096D01*
X188959762Y-115212858D01*
X189007381Y-115070000D01*
X189007381Y-114831905D01*
X188340714Y-116260477D02*
X189007381Y-116260477D01*
X187959762Y-116022381D02*
X188674048Y-115784286D01*
X188674048Y-116403334D01*
X179562381Y-95146905D02*
X178562381Y-95146905D01*
X178562381Y-95385000D01*
X178610000Y-95527858D01*
X178705238Y-95623096D01*
X178800476Y-95670715D01*
X178990952Y-95718334D01*
X179133810Y-95718334D01*
X179324286Y-95670715D01*
X179419524Y-95623096D01*
X179514762Y-95527858D01*
X179562381Y-95385000D01*
X179562381Y-95146905D01*
X178562381Y-96623096D02*
X178562381Y-96146905D01*
X179038571Y-96099286D01*
X178990952Y-96146905D01*
X178943333Y-96242143D01*
X178943333Y-96480239D01*
X178990952Y-96575477D01*
X179038571Y-96623096D01*
X179133810Y-96670715D01*
X179371905Y-96670715D01*
X179467143Y-96623096D01*
X179514762Y-96575477D01*
X179562381Y-96480239D01*
X179562381Y-96242143D01*
X179514762Y-96146905D01*
X179467143Y-96099286D01*
X174482381Y-95146905D02*
X173482381Y-95146905D01*
X173482381Y-95385000D01*
X173530000Y-95527858D01*
X173625238Y-95623096D01*
X173720476Y-95670715D01*
X173910952Y-95718334D01*
X174053810Y-95718334D01*
X174244286Y-95670715D01*
X174339524Y-95623096D01*
X174434762Y-95527858D01*
X174482381Y-95385000D01*
X174482381Y-95146905D01*
X173482381Y-96575477D02*
X173482381Y-96385000D01*
X173530000Y-96289762D01*
X173577619Y-96242143D01*
X173720476Y-96146905D01*
X173910952Y-96099286D01*
X174291905Y-96099286D01*
X174387143Y-96146905D01*
X174434762Y-96194524D01*
X174482381Y-96289762D01*
X174482381Y-96480239D01*
X174434762Y-96575477D01*
X174387143Y-96623096D01*
X174291905Y-96670715D01*
X174053810Y-96670715D01*
X173958571Y-96623096D01*
X173910952Y-96575477D01*
X173863333Y-96480239D01*
X173863333Y-96289762D01*
X173910952Y-96194524D01*
X173958571Y-96146905D01*
X174053810Y-96099286D01*
X169402381Y-95146905D02*
X168402381Y-95146905D01*
X168402381Y-95385000D01*
X168450000Y-95527858D01*
X168545238Y-95623096D01*
X168640476Y-95670715D01*
X168830952Y-95718334D01*
X168973810Y-95718334D01*
X169164286Y-95670715D01*
X169259524Y-95623096D01*
X169354762Y-95527858D01*
X169402381Y-95385000D01*
X169402381Y-95146905D01*
X168402381Y-96051667D02*
X168402381Y-96718334D01*
X169402381Y-96289762D01*
X164322381Y-95146905D02*
X163322381Y-95146905D01*
X163322381Y-95385000D01*
X163370000Y-95527858D01*
X163465238Y-95623096D01*
X163560476Y-95670715D01*
X163750952Y-95718334D01*
X163893810Y-95718334D01*
X164084286Y-95670715D01*
X164179524Y-95623096D01*
X164274762Y-95527858D01*
X164322381Y-95385000D01*
X164322381Y-95146905D01*
X163750952Y-96289762D02*
X163703333Y-96194524D01*
X163655714Y-96146905D01*
X163560476Y-96099286D01*
X163512857Y-96099286D01*
X163417619Y-96146905D01*
X163370000Y-96194524D01*
X163322381Y-96289762D01*
X163322381Y-96480239D01*
X163370000Y-96575477D01*
X163417619Y-96623096D01*
X163512857Y-96670715D01*
X163560476Y-96670715D01*
X163655714Y-96623096D01*
X163703333Y-96575477D01*
X163750952Y-96480239D01*
X163750952Y-96289762D01*
X163798571Y-96194524D01*
X163846190Y-96146905D01*
X163941429Y-96099286D01*
X164131905Y-96099286D01*
X164227143Y-96146905D01*
X164274762Y-96194524D01*
X164322381Y-96289762D01*
X164322381Y-96480239D01*
X164274762Y-96575477D01*
X164227143Y-96623096D01*
X164131905Y-96670715D01*
X163941429Y-96670715D01*
X163846190Y-96623096D01*
X163798571Y-96575477D01*
X163750952Y-96480239D01*
X130155938Y-100191819D02*
X130251176Y-100144200D01*
X130346414Y-100048962D01*
X130489271Y-99906105D01*
X130584510Y-99858486D01*
X130679748Y-99858486D01*
X130632129Y-100096581D02*
X130727367Y-100048962D01*
X130822605Y-99953724D01*
X130870224Y-99763248D01*
X130870224Y-99429914D01*
X130822605Y-99239438D01*
X130727367Y-99144200D01*
X130632129Y-99096581D01*
X130441652Y-99096581D01*
X130346414Y-99144200D01*
X130251176Y-99239438D01*
X130203557Y-99429914D01*
X130203557Y-99763248D01*
X130251176Y-99953724D01*
X130346414Y-100048962D01*
X130441652Y-100096581D01*
X130632129Y-100096581D01*
X129251176Y-100096581D02*
X129822605Y-100096581D01*
X129536891Y-100096581D02*
X129536891Y-99096581D01*
X129632129Y-99239438D01*
X129727367Y-99334676D01*
X129822605Y-99382295D01*
X130346438Y-106440219D02*
X130441676Y-106392600D01*
X130536914Y-106297362D01*
X130679771Y-106154505D01*
X130775010Y-106106886D01*
X130870248Y-106106886D01*
X130822629Y-106344981D02*
X130917867Y-106297362D01*
X131013105Y-106202124D01*
X131060724Y-106011648D01*
X131060724Y-105678314D01*
X131013105Y-105487838D01*
X130917867Y-105392600D01*
X130822629Y-105344981D01*
X130632152Y-105344981D01*
X130536914Y-105392600D01*
X130441676Y-105487838D01*
X130394057Y-105678314D01*
X130394057Y-106011648D01*
X130441676Y-106202124D01*
X130536914Y-106297362D01*
X130632152Y-106344981D01*
X130822629Y-106344981D01*
X130013105Y-105440219D02*
X129965486Y-105392600D01*
X129870248Y-105344981D01*
X129632152Y-105344981D01*
X129536914Y-105392600D01*
X129489295Y-105440219D01*
X129441676Y-105535457D01*
X129441676Y-105630695D01*
X129489295Y-105773552D01*
X130060724Y-106344981D01*
X129441676Y-106344981D01*
X132175238Y-111712619D02*
X132270476Y-111665000D01*
X132365714Y-111569762D01*
X132508571Y-111426905D01*
X132603810Y-111379286D01*
X132699048Y-111379286D01*
X132651429Y-111617381D02*
X132746667Y-111569762D01*
X132841905Y-111474524D01*
X132889524Y-111284048D01*
X132889524Y-110950714D01*
X132841905Y-110760238D01*
X132746667Y-110665000D01*
X132651429Y-110617381D01*
X132460952Y-110617381D01*
X132365714Y-110665000D01*
X132270476Y-110760238D01*
X132222857Y-110950714D01*
X132222857Y-111284048D01*
X132270476Y-111474524D01*
X132365714Y-111569762D01*
X132460952Y-111617381D01*
X132651429Y-111617381D01*
X131889524Y-110617381D02*
X131270476Y-110617381D01*
X131603810Y-110998333D01*
X131460952Y-110998333D01*
X131365714Y-111045952D01*
X131318095Y-111093571D01*
X131270476Y-111188810D01*
X131270476Y-111426905D01*
X131318095Y-111522143D01*
X131365714Y-111569762D01*
X131460952Y-111617381D01*
X131746667Y-111617381D01*
X131841905Y-111569762D01*
X131889524Y-111522143D01*
X130422638Y-120473719D02*
X130517876Y-120426100D01*
X130613114Y-120330862D01*
X130755971Y-120188005D01*
X130851210Y-120140386D01*
X130946448Y-120140386D01*
X130898829Y-120378481D02*
X130994067Y-120330862D01*
X131089305Y-120235624D01*
X131136924Y-120045148D01*
X131136924Y-119711814D01*
X131089305Y-119521338D01*
X130994067Y-119426100D01*
X130898829Y-119378481D01*
X130708352Y-119378481D01*
X130613114Y-119426100D01*
X130517876Y-119521338D01*
X130470257Y-119711814D01*
X130470257Y-120045148D01*
X130517876Y-120235624D01*
X130613114Y-120330862D01*
X130708352Y-120378481D01*
X130898829Y-120378481D01*
X129613114Y-119711814D02*
X129613114Y-120378481D01*
X129851210Y-119330862D02*
X130089305Y-120045148D01*
X129470257Y-120045148D01*
X214712538Y-113869719D02*
X214807776Y-113822100D01*
X214903014Y-113726862D01*
X215045871Y-113584005D01*
X215141110Y-113536386D01*
X215236348Y-113536386D01*
X215188729Y-113774481D02*
X215283967Y-113726862D01*
X215379205Y-113631624D01*
X215426824Y-113441148D01*
X215426824Y-113107814D01*
X215379205Y-112917338D01*
X215283967Y-112822100D01*
X215188729Y-112774481D01*
X214998252Y-112774481D01*
X214903014Y-112822100D01*
X214807776Y-112917338D01*
X214760157Y-113107814D01*
X214760157Y-113441148D01*
X214807776Y-113631624D01*
X214903014Y-113726862D01*
X214998252Y-113774481D01*
X215188729Y-113774481D01*
X213855395Y-112774481D02*
X214331586Y-112774481D01*
X214379205Y-113250671D01*
X214331586Y-113203052D01*
X214236348Y-113155433D01*
X213998252Y-113155433D01*
X213903014Y-113203052D01*
X213855395Y-113250671D01*
X213807776Y-113345910D01*
X213807776Y-113584005D01*
X213855395Y-113679243D01*
X213903014Y-113726862D01*
X213998252Y-113774481D01*
X214236348Y-113774481D01*
X214331586Y-113726862D01*
X214379205Y-113679243D01*
X214598238Y-109945419D02*
X214693476Y-109897800D01*
X214788714Y-109802562D01*
X214931571Y-109659705D01*
X215026810Y-109612086D01*
X215122048Y-109612086D01*
X215074429Y-109850181D02*
X215169667Y-109802562D01*
X215264905Y-109707324D01*
X215312524Y-109516848D01*
X215312524Y-109183514D01*
X215264905Y-108993038D01*
X215169667Y-108897800D01*
X215074429Y-108850181D01*
X214883952Y-108850181D01*
X214788714Y-108897800D01*
X214693476Y-108993038D01*
X214645857Y-109183514D01*
X214645857Y-109516848D01*
X214693476Y-109707324D01*
X214788714Y-109802562D01*
X214883952Y-109850181D01*
X215074429Y-109850181D01*
X213788714Y-108850181D02*
X213979191Y-108850181D01*
X214074429Y-108897800D01*
X214122048Y-108945419D01*
X214217286Y-109088276D01*
X214264905Y-109278752D01*
X214264905Y-109659705D01*
X214217286Y-109754943D01*
X214169667Y-109802562D01*
X214074429Y-109850181D01*
X213883952Y-109850181D01*
X213788714Y-109802562D01*
X213741095Y-109754943D01*
X213693476Y-109659705D01*
X213693476Y-109421610D01*
X213741095Y-109326371D01*
X213788714Y-109278752D01*
X213883952Y-109231133D01*
X214074429Y-109231133D01*
X214169667Y-109278752D01*
X214217286Y-109326371D01*
X214264905Y-109421610D01*
X214649038Y-106275119D02*
X214744276Y-106227500D01*
X214839514Y-106132262D01*
X214982371Y-105989405D01*
X215077610Y-105941786D01*
X215172848Y-105941786D01*
X215125229Y-106179881D02*
X215220467Y-106132262D01*
X215315705Y-106037024D01*
X215363324Y-105846548D01*
X215363324Y-105513214D01*
X215315705Y-105322738D01*
X215220467Y-105227500D01*
X215125229Y-105179881D01*
X214934752Y-105179881D01*
X214839514Y-105227500D01*
X214744276Y-105322738D01*
X214696657Y-105513214D01*
X214696657Y-105846548D01*
X214744276Y-106037024D01*
X214839514Y-106132262D01*
X214934752Y-106179881D01*
X215125229Y-106179881D01*
X214363324Y-105179881D02*
X213696657Y-105179881D01*
X214125229Y-106179881D01*
X214750638Y-102452419D02*
X214845876Y-102404800D01*
X214941114Y-102309562D01*
X215083971Y-102166705D01*
X215179210Y-102119086D01*
X215274448Y-102119086D01*
X215226829Y-102357181D02*
X215322067Y-102309562D01*
X215417305Y-102214324D01*
X215464924Y-102023848D01*
X215464924Y-101690514D01*
X215417305Y-101500038D01*
X215322067Y-101404800D01*
X215226829Y-101357181D01*
X215036352Y-101357181D01*
X214941114Y-101404800D01*
X214845876Y-101500038D01*
X214798257Y-101690514D01*
X214798257Y-102023848D01*
X214845876Y-102214324D01*
X214941114Y-102309562D01*
X215036352Y-102357181D01*
X215226829Y-102357181D01*
X214226829Y-101785752D02*
X214322067Y-101738133D01*
X214369686Y-101690514D01*
X214417305Y-101595276D01*
X214417305Y-101547657D01*
X214369686Y-101452419D01*
X214322067Y-101404800D01*
X214226829Y-101357181D01*
X214036352Y-101357181D01*
X213941114Y-101404800D01*
X213893495Y-101452419D01*
X213845876Y-101547657D01*
X213845876Y-101595276D01*
X213893495Y-101690514D01*
X213941114Y-101738133D01*
X214036352Y-101785752D01*
X214226829Y-101785752D01*
X214322067Y-101833371D01*
X214369686Y-101880990D01*
X214417305Y-101976229D01*
X214417305Y-102166705D01*
X214369686Y-102261943D01*
X214322067Y-102309562D01*
X214226829Y-102357181D01*
X214036352Y-102357181D01*
X213941114Y-102309562D01*
X213893495Y-102261943D01*
X213845876Y-102166705D01*
X213845876Y-101976229D01*
X213893495Y-101880990D01*
X213941114Y-101833371D01*
X214036352Y-101785752D01*
X136086838Y-87021919D02*
X136182076Y-86974300D01*
X136277314Y-86879062D01*
X136420171Y-86736205D01*
X136515410Y-86688586D01*
X136610648Y-86688586D01*
X136563029Y-86926681D02*
X136658267Y-86879062D01*
X136753505Y-86783824D01*
X136801124Y-86593348D01*
X136801124Y-86260014D01*
X136753505Y-86069538D01*
X136658267Y-85974300D01*
X136563029Y-85926681D01*
X136372552Y-85926681D01*
X136277314Y-85974300D01*
X136182076Y-86069538D01*
X136134457Y-86260014D01*
X136134457Y-86593348D01*
X136182076Y-86783824D01*
X136277314Y-86879062D01*
X136372552Y-86926681D01*
X136563029Y-86926681D01*
X135658267Y-86926681D02*
X135467791Y-86926681D01*
X135372552Y-86879062D01*
X135324933Y-86831443D01*
X135229695Y-86688586D01*
X135182076Y-86498110D01*
X135182076Y-86117157D01*
X135229695Y-86021919D01*
X135277314Y-85974300D01*
X135372552Y-85926681D01*
X135563029Y-85926681D01*
X135658267Y-85974300D01*
X135705886Y-86021919D01*
X135753505Y-86117157D01*
X135753505Y-86355252D01*
X135705886Y-86450490D01*
X135658267Y-86498110D01*
X135563029Y-86545729D01*
X135372552Y-86545729D01*
X135277314Y-86498110D01*
X135229695Y-86450490D01*
X135182076Y-86355252D01*
X136296328Y-93321119D02*
X136391566Y-93273500D01*
X136486804Y-93178262D01*
X136629661Y-93035405D01*
X136724900Y-92987786D01*
X136820138Y-92987786D01*
X136772519Y-93225881D02*
X136867757Y-93178262D01*
X136962995Y-93083024D01*
X137010614Y-92892548D01*
X137010614Y-92559214D01*
X136962995Y-92368738D01*
X136867757Y-92273500D01*
X136772519Y-92225881D01*
X136582042Y-92225881D01*
X136486804Y-92273500D01*
X136391566Y-92368738D01*
X136343947Y-92559214D01*
X136343947Y-92892548D01*
X136391566Y-93083024D01*
X136486804Y-93178262D01*
X136582042Y-93225881D01*
X136772519Y-93225881D01*
X135391566Y-93225881D02*
X135962995Y-93225881D01*
X135677281Y-93225881D02*
X135677281Y-92225881D01*
X135772519Y-92368738D01*
X135867757Y-92463976D01*
X135962995Y-92511595D01*
X134772519Y-92225881D02*
X134677280Y-92225881D01*
X134582042Y-92273500D01*
X134534423Y-92321119D01*
X134486804Y-92416357D01*
X134439185Y-92606833D01*
X134439185Y-92844929D01*
X134486804Y-93035405D01*
X134534423Y-93130643D01*
X134582042Y-93178262D01*
X134677280Y-93225881D01*
X134772519Y-93225881D01*
X134867757Y-93178262D01*
X134915376Y-93130643D01*
X134962995Y-93035405D01*
X135010614Y-92844929D01*
X135010614Y-92606833D01*
X134962995Y-92416357D01*
X134915376Y-92321119D01*
X134867757Y-92273500D01*
X134772519Y-92225881D01*
X136309028Y-99760019D02*
X136404266Y-99712400D01*
X136499504Y-99617162D01*
X136642361Y-99474305D01*
X136737600Y-99426686D01*
X136832838Y-99426686D01*
X136785219Y-99664781D02*
X136880457Y-99617162D01*
X136975695Y-99521924D01*
X137023314Y-99331448D01*
X137023314Y-98998114D01*
X136975695Y-98807638D01*
X136880457Y-98712400D01*
X136785219Y-98664781D01*
X136594742Y-98664781D01*
X136499504Y-98712400D01*
X136404266Y-98807638D01*
X136356647Y-98998114D01*
X136356647Y-99331448D01*
X136404266Y-99521924D01*
X136499504Y-99617162D01*
X136594742Y-99664781D01*
X136785219Y-99664781D01*
X135404266Y-99664781D02*
X135975695Y-99664781D01*
X135689981Y-99664781D02*
X135689981Y-98664781D01*
X135785219Y-98807638D01*
X135880457Y-98902876D01*
X135975695Y-98950495D01*
X134451885Y-99664781D02*
X135023314Y-99664781D01*
X134737600Y-99664781D02*
X134737600Y-98664781D01*
X134832838Y-98807638D01*
X134928076Y-98902876D01*
X135023314Y-98950495D01*
X136651928Y-105868719D02*
X136747166Y-105821100D01*
X136842404Y-105725862D01*
X136985261Y-105583005D01*
X137080500Y-105535386D01*
X137175738Y-105535386D01*
X137128119Y-105773481D02*
X137223357Y-105725862D01*
X137318595Y-105630624D01*
X137366214Y-105440148D01*
X137366214Y-105106814D01*
X137318595Y-104916338D01*
X137223357Y-104821100D01*
X137128119Y-104773481D01*
X136937642Y-104773481D01*
X136842404Y-104821100D01*
X136747166Y-104916338D01*
X136699547Y-105106814D01*
X136699547Y-105440148D01*
X136747166Y-105630624D01*
X136842404Y-105725862D01*
X136937642Y-105773481D01*
X137128119Y-105773481D01*
X135747166Y-105773481D02*
X136318595Y-105773481D01*
X136032881Y-105773481D02*
X136032881Y-104773481D01*
X136128119Y-104916338D01*
X136223357Y-105011576D01*
X136318595Y-105059195D01*
X135366214Y-104868719D02*
X135318595Y-104821100D01*
X135223357Y-104773481D01*
X134985261Y-104773481D01*
X134890023Y-104821100D01*
X134842404Y-104868719D01*
X134794785Y-104963957D01*
X134794785Y-105059195D01*
X134842404Y-105202052D01*
X135413833Y-105773481D01*
X134794785Y-105773481D01*
X215557028Y-98528119D02*
X215652266Y-98480500D01*
X215747504Y-98385262D01*
X215890361Y-98242405D01*
X215985600Y-98194786D01*
X216080838Y-98194786D01*
X216033219Y-98432881D02*
X216128457Y-98385262D01*
X216223695Y-98290024D01*
X216271314Y-98099548D01*
X216271314Y-97766214D01*
X216223695Y-97575738D01*
X216128457Y-97480500D01*
X216033219Y-97432881D01*
X215842742Y-97432881D01*
X215747504Y-97480500D01*
X215652266Y-97575738D01*
X215604647Y-97766214D01*
X215604647Y-98099548D01*
X215652266Y-98290024D01*
X215747504Y-98385262D01*
X215842742Y-98432881D01*
X216033219Y-98432881D01*
X214652266Y-98432881D02*
X215223695Y-98432881D01*
X214937981Y-98432881D02*
X214937981Y-97432881D01*
X215033219Y-97575738D01*
X215128457Y-97670976D01*
X215223695Y-97718595D01*
X214318933Y-97432881D02*
X213699885Y-97432881D01*
X214033219Y-97813833D01*
X213890361Y-97813833D01*
X213795123Y-97861452D01*
X213747504Y-97909071D01*
X213699885Y-98004310D01*
X213699885Y-98242405D01*
X213747504Y-98337643D01*
X213795123Y-98385262D01*
X213890361Y-98432881D01*
X214176076Y-98432881D01*
X214271314Y-98385262D01*
X214318933Y-98337643D01*
X215518928Y-94832419D02*
X215614166Y-94784800D01*
X215709404Y-94689562D01*
X215852261Y-94546705D01*
X215947500Y-94499086D01*
X216042738Y-94499086D01*
X215995119Y-94737181D02*
X216090357Y-94689562D01*
X216185595Y-94594324D01*
X216233214Y-94403848D01*
X216233214Y-94070514D01*
X216185595Y-93880038D01*
X216090357Y-93784800D01*
X215995119Y-93737181D01*
X215804642Y-93737181D01*
X215709404Y-93784800D01*
X215614166Y-93880038D01*
X215566547Y-94070514D01*
X215566547Y-94403848D01*
X215614166Y-94594324D01*
X215709404Y-94689562D01*
X215804642Y-94737181D01*
X215995119Y-94737181D01*
X214614166Y-94737181D02*
X215185595Y-94737181D01*
X214899881Y-94737181D02*
X214899881Y-93737181D01*
X214995119Y-93880038D01*
X215090357Y-93975276D01*
X215185595Y-94022895D01*
X213757023Y-94070514D02*
X213757023Y-94737181D01*
X213995119Y-93689562D02*
X214233214Y-94403848D01*
X213614166Y-94403848D01*
X215658628Y-91035119D02*
X215753866Y-90987500D01*
X215849104Y-90892262D01*
X215991961Y-90749405D01*
X216087200Y-90701786D01*
X216182438Y-90701786D01*
X216134819Y-90939881D02*
X216230057Y-90892262D01*
X216325295Y-90797024D01*
X216372914Y-90606548D01*
X216372914Y-90273214D01*
X216325295Y-90082738D01*
X216230057Y-89987500D01*
X216134819Y-89939881D01*
X215944342Y-89939881D01*
X215849104Y-89987500D01*
X215753866Y-90082738D01*
X215706247Y-90273214D01*
X215706247Y-90606548D01*
X215753866Y-90797024D01*
X215849104Y-90892262D01*
X215944342Y-90939881D01*
X216134819Y-90939881D01*
X214753866Y-90939881D02*
X215325295Y-90939881D01*
X215039581Y-90939881D02*
X215039581Y-89939881D01*
X215134819Y-90082738D01*
X215230057Y-90177976D01*
X215325295Y-90225595D01*
X213849104Y-89939881D02*
X214325295Y-89939881D01*
X214372914Y-90416071D01*
X214325295Y-90368452D01*
X214230057Y-90320833D01*
X213991961Y-90320833D01*
X213896723Y-90368452D01*
X213849104Y-90416071D01*
X213801485Y-90511310D01*
X213801485Y-90749405D01*
X213849104Y-90844643D01*
X213896723Y-90892262D01*
X213991961Y-90939881D01*
X214230057Y-90939881D01*
X214325295Y-90892262D01*
X214372914Y-90844643D01*
X215557028Y-87174319D02*
X215652266Y-87126700D01*
X215747504Y-87031462D01*
X215890361Y-86888605D01*
X215985600Y-86840986D01*
X216080838Y-86840986D01*
X216033219Y-87079081D02*
X216128457Y-87031462D01*
X216223695Y-86936224D01*
X216271314Y-86745748D01*
X216271314Y-86412414D01*
X216223695Y-86221938D01*
X216128457Y-86126700D01*
X216033219Y-86079081D01*
X215842742Y-86079081D01*
X215747504Y-86126700D01*
X215652266Y-86221938D01*
X215604647Y-86412414D01*
X215604647Y-86745748D01*
X215652266Y-86936224D01*
X215747504Y-87031462D01*
X215842742Y-87079081D01*
X216033219Y-87079081D01*
X214652266Y-87079081D02*
X215223695Y-87079081D01*
X214937981Y-87079081D02*
X214937981Y-86079081D01*
X215033219Y-86221938D01*
X215128457Y-86317176D01*
X215223695Y-86364795D01*
X213795123Y-86079081D02*
X213985600Y-86079081D01*
X214080838Y-86126700D01*
X214128457Y-86174319D01*
X214223695Y-86317176D01*
X214271314Y-86507652D01*
X214271314Y-86888605D01*
X214223695Y-86983843D01*
X214176076Y-87031462D01*
X214080838Y-87079081D01*
X213890361Y-87079081D01*
X213795123Y-87031462D01*
X213747504Y-86983843D01*
X213699885Y-86888605D01*
X213699885Y-86650510D01*
X213747504Y-86555271D01*
X213795123Y-86507652D01*
X213890361Y-86460033D01*
X214080838Y-86460033D01*
X214176076Y-86507652D01*
X214223695Y-86555271D01*
X214271314Y-86650510D01*
X140012381Y-112363334D02*
X139536190Y-112030000D01*
X140012381Y-111791905D02*
X139012381Y-111791905D01*
X139012381Y-112172858D01*
X139060000Y-112268096D01*
X139107619Y-112315715D01*
X139202857Y-112363334D01*
X139345714Y-112363334D01*
X139440952Y-112315715D01*
X139488571Y-112268096D01*
X139536190Y-112172858D01*
X139536190Y-111791905D01*
X140012381Y-112791905D02*
X139012381Y-112791905D01*
X139012381Y-113172858D01*
X139060000Y-113268096D01*
X139107619Y-113315715D01*
X139202857Y-113363334D01*
X139345714Y-113363334D01*
X139440952Y-113315715D01*
X139488571Y-113268096D01*
X139536190Y-113172858D01*
X139536190Y-112791905D01*
X140012381Y-114315715D02*
X140012381Y-113744286D01*
X140012381Y-114030000D02*
X139012381Y-114030000D01*
X139155238Y-113934762D01*
X139250476Y-113839524D01*
X139298095Y-113744286D01*
X134745714Y-112244286D02*
X135412381Y-112244286D01*
X134364762Y-112006190D02*
X135079048Y-111768095D01*
X135079048Y-112387143D01*
X135412381Y-112768095D02*
X134412381Y-112768095D01*
X135412381Y-113339524D02*
X134840952Y-112910952D01*
X134412381Y-113339524D02*
X134983810Y-112768095D01*
X134412381Y-113672857D02*
X134412381Y-114339524D01*
X135412381Y-113910952D01*
X203157381Y-98393334D02*
X202681190Y-98060000D01*
X203157381Y-97821905D02*
X202157381Y-97821905D01*
X202157381Y-98202858D01*
X202205000Y-98298096D01*
X202252619Y-98345715D01*
X202347857Y-98393334D01*
X202490714Y-98393334D01*
X202585952Y-98345715D01*
X202633571Y-98298096D01*
X202681190Y-98202858D01*
X202681190Y-97821905D01*
X203157381Y-98821905D02*
X202157381Y-98821905D01*
X202157381Y-99202858D01*
X202205000Y-99298096D01*
X202252619Y-99345715D01*
X202347857Y-99393334D01*
X202490714Y-99393334D01*
X202585952Y-99345715D01*
X202633571Y-99298096D01*
X202681190Y-99202858D01*
X202681190Y-98821905D01*
X202252619Y-99774286D02*
X202205000Y-99821905D01*
X202157381Y-99917143D01*
X202157381Y-100155239D01*
X202205000Y-100250477D01*
X202252619Y-100298096D01*
X202347857Y-100345715D01*
X202443095Y-100345715D01*
X202585952Y-100298096D01*
X203157381Y-99726667D01*
X203157381Y-100345715D01*
X204992314Y-94997686D02*
X205658981Y-94997686D01*
X204611362Y-94759590D02*
X205325648Y-94521495D01*
X205325648Y-95140543D01*
X205658981Y-95521495D02*
X204658981Y-95521495D01*
X205658981Y-96092924D02*
X205087552Y-95664352D01*
X204658981Y-96092924D02*
X205230410Y-95521495D01*
X204658981Y-96426257D02*
X204658981Y-97092924D01*
X205658981Y-96664352D01*
X164777381Y-114903334D02*
X164301190Y-114570000D01*
X164777381Y-114331905D02*
X163777381Y-114331905D01*
X163777381Y-114712858D01*
X163825000Y-114808096D01*
X163872619Y-114855715D01*
X163967857Y-114903334D01*
X164110714Y-114903334D01*
X164205952Y-114855715D01*
X164253571Y-114808096D01*
X164301190Y-114712858D01*
X164301190Y-114331905D01*
X164777381Y-115331905D02*
X163777381Y-115331905D01*
X163777381Y-115712858D01*
X163825000Y-115808096D01*
X163872619Y-115855715D01*
X163967857Y-115903334D01*
X164110714Y-115903334D01*
X164205952Y-115855715D01*
X164253571Y-115808096D01*
X164301190Y-115712858D01*
X164301190Y-115331905D01*
X163777381Y-116236667D02*
X163777381Y-116855715D01*
X164158333Y-116522381D01*
X164158333Y-116665239D01*
X164205952Y-116760477D01*
X164253571Y-116808096D01*
X164348810Y-116855715D01*
X164586905Y-116855715D01*
X164682143Y-116808096D01*
X164729762Y-116760477D01*
X164777381Y-116665239D01*
X164777381Y-116379524D01*
X164729762Y-116284286D01*
X164682143Y-116236667D01*
X159605952Y-114498571D02*
X159558333Y-114403333D01*
X159510714Y-114355714D01*
X159415476Y-114308095D01*
X159367857Y-114308095D01*
X159272619Y-114355714D01*
X159225000Y-114403333D01*
X159177381Y-114498571D01*
X159177381Y-114689048D01*
X159225000Y-114784286D01*
X159272619Y-114831905D01*
X159367857Y-114879524D01*
X159415476Y-114879524D01*
X159510714Y-114831905D01*
X159558333Y-114784286D01*
X159605952Y-114689048D01*
X159605952Y-114498571D01*
X159653571Y-114403333D01*
X159701190Y-114355714D01*
X159796429Y-114308095D01*
X159986905Y-114308095D01*
X160082143Y-114355714D01*
X160129762Y-114403333D01*
X160177381Y-114498571D01*
X160177381Y-114689048D01*
X160129762Y-114784286D01*
X160082143Y-114831905D01*
X159986905Y-114879524D01*
X159796429Y-114879524D01*
X159701190Y-114831905D01*
X159653571Y-114784286D01*
X159605952Y-114689048D01*
X159272619Y-115260476D02*
X159225000Y-115308095D01*
X159177381Y-115403333D01*
X159177381Y-115641429D01*
X159225000Y-115736667D01*
X159272619Y-115784286D01*
X159367857Y-115831905D01*
X159463095Y-115831905D01*
X159605952Y-115784286D01*
X160177381Y-115212857D01*
X160177381Y-115831905D01*
X160177381Y-116831905D02*
X159701190Y-116498571D01*
X160177381Y-116260476D02*
X159177381Y-116260476D01*
X159177381Y-116641429D01*
X159225000Y-116736667D01*
X159272619Y-116784286D01*
X159367857Y-116831905D01*
X159510714Y-116831905D01*
X159605952Y-116784286D01*
X159653571Y-116736667D01*
X159701190Y-116641429D01*
X159701190Y-116260476D01*
X190469781Y-114293734D02*
X189993590Y-113960400D01*
X190469781Y-113722305D02*
X189469781Y-113722305D01*
X189469781Y-114103258D01*
X189517400Y-114198496D01*
X189565019Y-114246115D01*
X189660257Y-114293734D01*
X189803114Y-114293734D01*
X189898352Y-114246115D01*
X189945971Y-114198496D01*
X189993590Y-114103258D01*
X189993590Y-113722305D01*
X190469781Y-114722305D02*
X189469781Y-114722305D01*
X189469781Y-115103258D01*
X189517400Y-115198496D01*
X189565019Y-115246115D01*
X189660257Y-115293734D01*
X189803114Y-115293734D01*
X189898352Y-115246115D01*
X189945971Y-115198496D01*
X189993590Y-115103258D01*
X189993590Y-114722305D01*
X189803114Y-116150877D02*
X190469781Y-116150877D01*
X189422162Y-115912781D02*
X190136448Y-115674686D01*
X190136448Y-116293734D01*
X193850952Y-113863571D02*
X193803333Y-113768333D01*
X193755714Y-113720714D01*
X193660476Y-113673095D01*
X193612857Y-113673095D01*
X193517619Y-113720714D01*
X193470000Y-113768333D01*
X193422381Y-113863571D01*
X193422381Y-114054048D01*
X193470000Y-114149286D01*
X193517619Y-114196905D01*
X193612857Y-114244524D01*
X193660476Y-114244524D01*
X193755714Y-114196905D01*
X193803333Y-114149286D01*
X193850952Y-114054048D01*
X193850952Y-113863571D01*
X193898571Y-113768333D01*
X193946190Y-113720714D01*
X194041429Y-113673095D01*
X194231905Y-113673095D01*
X194327143Y-113720714D01*
X194374762Y-113768333D01*
X194422381Y-113863571D01*
X194422381Y-114054048D01*
X194374762Y-114149286D01*
X194327143Y-114196905D01*
X194231905Y-114244524D01*
X194041429Y-114244524D01*
X193946190Y-114196905D01*
X193898571Y-114149286D01*
X193850952Y-114054048D01*
X193517619Y-114625476D02*
X193470000Y-114673095D01*
X193422381Y-114768333D01*
X193422381Y-115006429D01*
X193470000Y-115101667D01*
X193517619Y-115149286D01*
X193612857Y-115196905D01*
X193708095Y-115196905D01*
X193850952Y-115149286D01*
X194422381Y-114577857D01*
X194422381Y-115196905D01*
X194422381Y-116196905D02*
X193946190Y-115863571D01*
X194422381Y-115625476D02*
X193422381Y-115625476D01*
X193422381Y-116006429D01*
X193470000Y-116101667D01*
X193517619Y-116149286D01*
X193612857Y-116196905D01*
X193755714Y-116196905D01*
X193850952Y-116149286D01*
X193898571Y-116101667D01*
X193946190Y-116006429D01*
X193946190Y-115625476D01*
X181159066Y-124925081D02*
X181492400Y-124448890D01*
X181730495Y-124925081D02*
X181730495Y-123925081D01*
X181349542Y-123925081D01*
X181254304Y-123972700D01*
X181206685Y-124020319D01*
X181159066Y-124115557D01*
X181159066Y-124258414D01*
X181206685Y-124353652D01*
X181254304Y-124401271D01*
X181349542Y-124448890D01*
X181730495Y-124448890D01*
X180730495Y-124925081D02*
X180730495Y-123925081D01*
X180349542Y-123925081D01*
X180254304Y-123972700D01*
X180206685Y-124020319D01*
X180159066Y-124115557D01*
X180159066Y-124258414D01*
X180206685Y-124353652D01*
X180254304Y-124401271D01*
X180349542Y-124448890D01*
X180730495Y-124448890D01*
X179254304Y-123925081D02*
X179730495Y-123925081D01*
X179778114Y-124401271D01*
X179730495Y-124353652D01*
X179635257Y-124306033D01*
X179397161Y-124306033D01*
X179301923Y-124353652D01*
X179254304Y-124401271D01*
X179206685Y-124496510D01*
X179206685Y-124734605D01*
X179254304Y-124829843D01*
X179301923Y-124877462D01*
X179397161Y-124925081D01*
X179635257Y-124925081D01*
X179730495Y-124877462D01*
X179778114Y-124829843D01*
X175074057Y-124886981D02*
X174883581Y-124886981D01*
X174788342Y-124839362D01*
X174740723Y-124791743D01*
X174645485Y-124648886D01*
X174597866Y-124458410D01*
X174597866Y-124077457D01*
X174645485Y-123982219D01*
X174693104Y-123934600D01*
X174788342Y-123886981D01*
X174978819Y-123886981D01*
X175074057Y-123934600D01*
X175121676Y-123982219D01*
X175169295Y-124077457D01*
X175169295Y-124315552D01*
X175121676Y-124410790D01*
X175074057Y-124458410D01*
X174978819Y-124506029D01*
X174788342Y-124506029D01*
X174693104Y-124458410D01*
X174645485Y-124410790D01*
X174597866Y-124315552D01*
X173645485Y-124886981D02*
X174216914Y-124886981D01*
X173931200Y-124886981D02*
X173931200Y-123886981D01*
X174026438Y-124029838D01*
X174121676Y-124125076D01*
X174216914Y-124172695D01*
X173026438Y-123886981D02*
X172931199Y-123886981D01*
X172835961Y-123934600D01*
X172788342Y-123982219D01*
X172740723Y-124077457D01*
X172693104Y-124267933D01*
X172693104Y-124506029D01*
X172740723Y-124696505D01*
X172788342Y-124791743D01*
X172835961Y-124839362D01*
X172931199Y-124886981D01*
X173026438Y-124886981D01*
X173121676Y-124839362D01*
X173169295Y-124791743D01*
X173216914Y-124696505D01*
X173264533Y-124506029D01*
X173264533Y-124267933D01*
X173216914Y-124077457D01*
X173169295Y-123982219D01*
X173121676Y-123934600D01*
X173026438Y-123886981D01*
X171693104Y-124886981D02*
X172026438Y-124410790D01*
X172264533Y-124886981D02*
X172264533Y-123886981D01*
X171883580Y-123886981D01*
X171788342Y-123934600D01*
X171740723Y-123982219D01*
X171693104Y-124077457D01*
X171693104Y-124220314D01*
X171740723Y-124315552D01*
X171788342Y-124363171D01*
X171883580Y-124410790D01*
X172264533Y-124410790D01*
X177691966Y-84894681D02*
X178025300Y-84418490D01*
X178263395Y-84894681D02*
X178263395Y-83894681D01*
X177882442Y-83894681D01*
X177787204Y-83942300D01*
X177739585Y-83989919D01*
X177691966Y-84085157D01*
X177691966Y-84228014D01*
X177739585Y-84323252D01*
X177787204Y-84370871D01*
X177882442Y-84418490D01*
X178263395Y-84418490D01*
X177263395Y-84894681D02*
X177263395Y-83894681D01*
X176882442Y-83894681D01*
X176787204Y-83942300D01*
X176739585Y-83989919D01*
X176691966Y-84085157D01*
X176691966Y-84228014D01*
X176739585Y-84323252D01*
X176787204Y-84370871D01*
X176882442Y-84418490D01*
X177263395Y-84418490D01*
X175834823Y-83894681D02*
X176025300Y-83894681D01*
X176120538Y-83942300D01*
X176168157Y-83989919D01*
X176263395Y-84132776D01*
X176311014Y-84323252D01*
X176311014Y-84704205D01*
X176263395Y-84799443D01*
X176215776Y-84847062D01*
X176120538Y-84894681D01*
X175930061Y-84894681D01*
X175834823Y-84847062D01*
X175787204Y-84799443D01*
X175739585Y-84704205D01*
X175739585Y-84466110D01*
X175787204Y-84370871D01*
X175834823Y-84323252D01*
X175930061Y-84275633D01*
X176120538Y-84275633D01*
X176215776Y-84323252D01*
X176263395Y-84370871D01*
X176311014Y-84466110D01*
X184878505Y-84497919D02*
X184830886Y-84450300D01*
X184735648Y-84402681D01*
X184497552Y-84402681D01*
X184402314Y-84450300D01*
X184354695Y-84497919D01*
X184307076Y-84593157D01*
X184307076Y-84688395D01*
X184354695Y-84831252D01*
X184926124Y-85402681D01*
X184307076Y-85402681D01*
X183926124Y-84497919D02*
X183878505Y-84450300D01*
X183783267Y-84402681D01*
X183545171Y-84402681D01*
X183449933Y-84450300D01*
X183402314Y-84497919D01*
X183354695Y-84593157D01*
X183354695Y-84688395D01*
X183402314Y-84831252D01*
X183973743Y-85402681D01*
X183354695Y-85402681D01*
X182354695Y-85402681D02*
X182688029Y-84926490D01*
X182926124Y-85402681D02*
X182926124Y-84402681D01*
X182545171Y-84402681D01*
X182449933Y-84450300D01*
X182402314Y-84497919D01*
X182354695Y-84593157D01*
X182354695Y-84736014D01*
X182402314Y-84831252D01*
X182449933Y-84878871D01*
X182545171Y-84926490D01*
X182926124Y-84926490D01*
X147632381Y-92678334D02*
X147156190Y-92345000D01*
X147632381Y-92106905D02*
X146632381Y-92106905D01*
X146632381Y-92487858D01*
X146680000Y-92583096D01*
X146727619Y-92630715D01*
X146822857Y-92678334D01*
X146965714Y-92678334D01*
X147060952Y-92630715D01*
X147108571Y-92583096D01*
X147156190Y-92487858D01*
X147156190Y-92106905D01*
X147632381Y-93106905D02*
X146632381Y-93106905D01*
X146632381Y-93487858D01*
X146680000Y-93583096D01*
X146727619Y-93630715D01*
X146822857Y-93678334D01*
X146965714Y-93678334D01*
X147060952Y-93630715D01*
X147108571Y-93583096D01*
X147156190Y-93487858D01*
X147156190Y-93106905D01*
X146632381Y-94011667D02*
X146632381Y-94678334D01*
X147632381Y-94249762D01*
X142365714Y-92559286D02*
X143032381Y-92559286D01*
X141984762Y-92321190D02*
X142699048Y-92083095D01*
X142699048Y-92702143D01*
X143032381Y-93083095D02*
X142032381Y-93083095D01*
X143032381Y-93654524D02*
X142460952Y-93225952D01*
X142032381Y-93654524D02*
X142603810Y-93083095D01*
X142032381Y-93987857D02*
X142032381Y-94654524D01*
X143032381Y-94225952D01*
X203157381Y-90138334D02*
X202681190Y-89805000D01*
X203157381Y-89566905D02*
X202157381Y-89566905D01*
X202157381Y-89947858D01*
X202205000Y-90043096D01*
X202252619Y-90090715D01*
X202347857Y-90138334D01*
X202490714Y-90138334D01*
X202585952Y-90090715D01*
X202633571Y-90043096D01*
X202681190Y-89947858D01*
X202681190Y-89566905D01*
X203157381Y-90566905D02*
X202157381Y-90566905D01*
X202157381Y-90947858D01*
X202205000Y-91043096D01*
X202252619Y-91090715D01*
X202347857Y-91138334D01*
X202490714Y-91138334D01*
X202585952Y-91090715D01*
X202633571Y-91043096D01*
X202681190Y-90947858D01*
X202681190Y-90566905D01*
X202585952Y-91709762D02*
X202538333Y-91614524D01*
X202490714Y-91566905D01*
X202395476Y-91519286D01*
X202347857Y-91519286D01*
X202252619Y-91566905D01*
X202205000Y-91614524D01*
X202157381Y-91709762D01*
X202157381Y-91900239D01*
X202205000Y-91995477D01*
X202252619Y-92043096D01*
X202347857Y-92090715D01*
X202395476Y-92090715D01*
X202490714Y-92043096D01*
X202538333Y-91995477D01*
X202585952Y-91900239D01*
X202585952Y-91709762D01*
X202633571Y-91614524D01*
X202681190Y-91566905D01*
X202776429Y-91519286D01*
X202966905Y-91519286D01*
X203062143Y-91566905D01*
X203109762Y-91614524D01*
X203157381Y-91709762D01*
X203157381Y-91900239D01*
X203109762Y-91995477D01*
X203062143Y-92043096D01*
X202966905Y-92090715D01*
X202776429Y-92090715D01*
X202681190Y-92043096D01*
X202633571Y-91995477D01*
X202585952Y-91900239D01*
X204839914Y-86717286D02*
X205506581Y-86717286D01*
X204458962Y-86479190D02*
X205173248Y-86241095D01*
X205173248Y-86860143D01*
X205506581Y-87241095D02*
X204506581Y-87241095D01*
X205506581Y-87812524D02*
X204935152Y-87383952D01*
X204506581Y-87812524D02*
X205078010Y-87241095D01*
X204506581Y-88145857D02*
X204506581Y-88812524D01*
X205506581Y-88383952D01*
X177196666Y-92527381D02*
X177530000Y-92051190D01*
X177768095Y-92527381D02*
X177768095Y-91527381D01*
X177387142Y-91527381D01*
X177291904Y-91575000D01*
X177244285Y-91622619D01*
X177196666Y-91717857D01*
X177196666Y-91860714D01*
X177244285Y-91955952D01*
X177291904Y-92003571D01*
X177387142Y-92051190D01*
X177768095Y-92051190D01*
X176768095Y-92527381D02*
X176768095Y-91527381D01*
X176387142Y-91527381D01*
X176291904Y-91575000D01*
X176244285Y-91622619D01*
X176196666Y-91717857D01*
X176196666Y-91860714D01*
X176244285Y-91955952D01*
X176291904Y-92003571D01*
X176387142Y-92051190D01*
X176768095Y-92051190D01*
X175720476Y-92527381D02*
X175530000Y-92527381D01*
X175434761Y-92479762D01*
X175387142Y-92432143D01*
X175291904Y-92289286D01*
X175244285Y-92098810D01*
X175244285Y-91717857D01*
X175291904Y-91622619D01*
X175339523Y-91575000D01*
X175434761Y-91527381D01*
X175625238Y-91527381D01*
X175720476Y-91575000D01*
X175768095Y-91622619D01*
X175815714Y-91717857D01*
X175815714Y-91955952D01*
X175768095Y-92051190D01*
X175720476Y-92098810D01*
X175625238Y-92146429D01*
X175434761Y-92146429D01*
X175339523Y-92098810D01*
X175291904Y-92051190D01*
X175244285Y-91955952D01*
X181411429Y-89755952D02*
X181506667Y-89708333D01*
X181554286Y-89660714D01*
X181601905Y-89565476D01*
X181601905Y-89517857D01*
X181554286Y-89422619D01*
X181506667Y-89375000D01*
X181411429Y-89327381D01*
X181220952Y-89327381D01*
X181125714Y-89375000D01*
X181078095Y-89422619D01*
X181030476Y-89517857D01*
X181030476Y-89565476D01*
X181078095Y-89660714D01*
X181125714Y-89708333D01*
X181220952Y-89755952D01*
X181411429Y-89755952D01*
X181506667Y-89803571D01*
X181554286Y-89851190D01*
X181601905Y-89946429D01*
X181601905Y-90136905D01*
X181554286Y-90232143D01*
X181506667Y-90279762D01*
X181411429Y-90327381D01*
X181220952Y-90327381D01*
X181125714Y-90279762D01*
X181078095Y-90232143D01*
X181030476Y-90136905D01*
X181030476Y-89946429D01*
X181078095Y-89851190D01*
X181125714Y-89803571D01*
X181220952Y-89755952D01*
X180649524Y-89422619D02*
X180601905Y-89375000D01*
X180506667Y-89327381D01*
X180268571Y-89327381D01*
X180173333Y-89375000D01*
X180125714Y-89422619D01*
X180078095Y-89517857D01*
X180078095Y-89613095D01*
X180125714Y-89755952D01*
X180697143Y-90327381D01*
X180078095Y-90327381D01*
X179078095Y-90327381D02*
X179411429Y-89851190D01*
X179649524Y-90327381D02*
X179649524Y-89327381D01*
X179268571Y-89327381D01*
X179173333Y-89375000D01*
X179125714Y-89422619D01*
X179078095Y-89517857D01*
X179078095Y-89660714D01*
X179125714Y-89755952D01*
X179173333Y-89803571D01*
X179268571Y-89851190D01*
X179649524Y-89851190D01*
X166827057Y-92908381D02*
X167160391Y-92432190D01*
X167398486Y-92908381D02*
X167398486Y-91908381D01*
X167017533Y-91908381D01*
X166922295Y-91956000D01*
X166874676Y-92003619D01*
X166827057Y-92098857D01*
X166827057Y-92241714D01*
X166874676Y-92336952D01*
X166922295Y-92384571D01*
X167017533Y-92432190D01*
X167398486Y-92432190D01*
X166398486Y-92908381D02*
X166398486Y-91908381D01*
X166017533Y-91908381D01*
X165922295Y-91956000D01*
X165874676Y-92003619D01*
X165827057Y-92098857D01*
X165827057Y-92241714D01*
X165874676Y-92336952D01*
X165922295Y-92384571D01*
X166017533Y-92432190D01*
X166398486Y-92432190D01*
X164874676Y-92908381D02*
X165446105Y-92908381D01*
X165160391Y-92908381D02*
X165160391Y-91908381D01*
X165255629Y-92051238D01*
X165350867Y-92146476D01*
X165446105Y-92194095D01*
X164255629Y-91908381D02*
X164160390Y-91908381D01*
X164065152Y-91956000D01*
X164017533Y-92003619D01*
X163969914Y-92098857D01*
X163922295Y-92289333D01*
X163922295Y-92527429D01*
X163969914Y-92717905D01*
X164017533Y-92813143D01*
X164065152Y-92860762D01*
X164160390Y-92908381D01*
X164255629Y-92908381D01*
X164350867Y-92860762D01*
X164398486Y-92813143D01*
X164446105Y-92717905D01*
X164493724Y-92527429D01*
X164493724Y-92289333D01*
X164446105Y-92098857D01*
X164398486Y-92003619D01*
X164350867Y-91956000D01*
X164255629Y-91908381D01*
X170616429Y-89755952D02*
X170711667Y-89708333D01*
X170759286Y-89660714D01*
X170806905Y-89565476D01*
X170806905Y-89517857D01*
X170759286Y-89422619D01*
X170711667Y-89375000D01*
X170616429Y-89327381D01*
X170425952Y-89327381D01*
X170330714Y-89375000D01*
X170283095Y-89422619D01*
X170235476Y-89517857D01*
X170235476Y-89565476D01*
X170283095Y-89660714D01*
X170330714Y-89708333D01*
X170425952Y-89755952D01*
X170616429Y-89755952D01*
X170711667Y-89803571D01*
X170759286Y-89851190D01*
X170806905Y-89946429D01*
X170806905Y-90136905D01*
X170759286Y-90232143D01*
X170711667Y-90279762D01*
X170616429Y-90327381D01*
X170425952Y-90327381D01*
X170330714Y-90279762D01*
X170283095Y-90232143D01*
X170235476Y-90136905D01*
X170235476Y-89946429D01*
X170283095Y-89851190D01*
X170330714Y-89803571D01*
X170425952Y-89755952D01*
X169854524Y-89422619D02*
X169806905Y-89375000D01*
X169711667Y-89327381D01*
X169473571Y-89327381D01*
X169378333Y-89375000D01*
X169330714Y-89422619D01*
X169283095Y-89517857D01*
X169283095Y-89613095D01*
X169330714Y-89755952D01*
X169902143Y-90327381D01*
X169283095Y-90327381D01*
X168283095Y-90327381D02*
X168616429Y-89851190D01*
X168854524Y-90327381D02*
X168854524Y-89327381D01*
X168473571Y-89327381D01*
X168378333Y-89375000D01*
X168330714Y-89422619D01*
X168283095Y-89517857D01*
X168283095Y-89660714D01*
X168330714Y-89755952D01*
X168378333Y-89803571D01*
X168473571Y-89851190D01*
X168854524Y-89851190D01*
X175742457Y-86850481D02*
X176075791Y-86374290D01*
X176313886Y-86850481D02*
X176313886Y-85850481D01*
X175932933Y-85850481D01*
X175837695Y-85898100D01*
X175790076Y-85945719D01*
X175742457Y-86040957D01*
X175742457Y-86183814D01*
X175790076Y-86279052D01*
X175837695Y-86326671D01*
X175932933Y-86374290D01*
X176313886Y-86374290D01*
X175313886Y-86850481D02*
X175313886Y-85850481D01*
X174932933Y-85850481D01*
X174837695Y-85898100D01*
X174790076Y-85945719D01*
X174742457Y-86040957D01*
X174742457Y-86183814D01*
X174790076Y-86279052D01*
X174837695Y-86326671D01*
X174932933Y-86374290D01*
X175313886Y-86374290D01*
X173790076Y-86850481D02*
X174361505Y-86850481D01*
X174075791Y-86850481D02*
X174075791Y-85850481D01*
X174171029Y-85993338D01*
X174266267Y-86088576D01*
X174361505Y-86136195D01*
X172837695Y-86850481D02*
X173409124Y-86850481D01*
X173123410Y-86850481D02*
X173123410Y-85850481D01*
X173218648Y-85993338D01*
X173313886Y-86088576D01*
X173409124Y-86136195D01*
X176267857Y-90917381D02*
X176077381Y-90917381D01*
X175982142Y-90869762D01*
X175934523Y-90822143D01*
X175839285Y-90679286D01*
X175791666Y-90488810D01*
X175791666Y-90107857D01*
X175839285Y-90012619D01*
X175886904Y-89965000D01*
X175982142Y-89917381D01*
X176172619Y-89917381D01*
X176267857Y-89965000D01*
X176315476Y-90012619D01*
X176363095Y-90107857D01*
X176363095Y-90345952D01*
X176315476Y-90441190D01*
X176267857Y-90488810D01*
X176172619Y-90536429D01*
X175982142Y-90536429D01*
X175886904Y-90488810D01*
X175839285Y-90441190D01*
X175791666Y-90345952D01*
X174839285Y-90917381D02*
X175410714Y-90917381D01*
X175125000Y-90917381D02*
X175125000Y-89917381D01*
X175220238Y-90060238D01*
X175315476Y-90155476D01*
X175410714Y-90203095D01*
X174220238Y-89917381D02*
X174124999Y-89917381D01*
X174029761Y-89965000D01*
X173982142Y-90012619D01*
X173934523Y-90107857D01*
X173886904Y-90298333D01*
X173886904Y-90536429D01*
X173934523Y-90726905D01*
X173982142Y-90822143D01*
X174029761Y-90869762D01*
X174124999Y-90917381D01*
X174220238Y-90917381D01*
X174315476Y-90869762D01*
X174363095Y-90822143D01*
X174410714Y-90726905D01*
X174458333Y-90536429D01*
X174458333Y-90298333D01*
X174410714Y-90107857D01*
X174363095Y-90012619D01*
X174315476Y-89965000D01*
X174220238Y-89917381D01*
X172886904Y-90917381D02*
X173220238Y-90441190D01*
X173458333Y-90917381D02*
X173458333Y-89917381D01*
X173077380Y-89917381D01*
X172982142Y-89965000D01*
X172934523Y-90012619D01*
X172886904Y-90107857D01*
X172886904Y-90250714D01*
X172934523Y-90345952D01*
X172982142Y-90393571D01*
X173077380Y-90441190D01*
X173458333Y-90441190D01*
X175158257Y-98242381D02*
X175491591Y-97766190D01*
X175729686Y-98242381D02*
X175729686Y-97242381D01*
X175348733Y-97242381D01*
X175253495Y-97290000D01*
X175205876Y-97337619D01*
X175158257Y-97432857D01*
X175158257Y-97575714D01*
X175205876Y-97670952D01*
X175253495Y-97718571D01*
X175348733Y-97766190D01*
X175729686Y-97766190D01*
X174729686Y-98242381D02*
X174729686Y-97242381D01*
X174348733Y-97242381D01*
X174253495Y-97290000D01*
X174205876Y-97337619D01*
X174158257Y-97432857D01*
X174158257Y-97575714D01*
X174205876Y-97670952D01*
X174253495Y-97718571D01*
X174348733Y-97766190D01*
X174729686Y-97766190D01*
X173205876Y-98242381D02*
X173777305Y-98242381D01*
X173491591Y-98242381D02*
X173491591Y-97242381D01*
X173586829Y-97385238D01*
X173682067Y-97480476D01*
X173777305Y-97528095D01*
X172824924Y-97337619D02*
X172777305Y-97290000D01*
X172682067Y-97242381D01*
X172443971Y-97242381D01*
X172348733Y-97290000D01*
X172301114Y-97337619D01*
X172253495Y-97432857D01*
X172253495Y-97528095D01*
X172301114Y-97670952D01*
X172872543Y-98242381D01*
X172253495Y-98242381D01*
X175124905Y-101096819D02*
X175077286Y-101049200D01*
X174982048Y-101001581D01*
X174743952Y-101001581D01*
X174648714Y-101049200D01*
X174601095Y-101096819D01*
X174553476Y-101192057D01*
X174553476Y-101287295D01*
X174601095Y-101430152D01*
X175172524Y-102001581D01*
X174553476Y-102001581D01*
X174172524Y-101096819D02*
X174124905Y-101049200D01*
X174029667Y-101001581D01*
X173791571Y-101001581D01*
X173696333Y-101049200D01*
X173648714Y-101096819D01*
X173601095Y-101192057D01*
X173601095Y-101287295D01*
X173648714Y-101430152D01*
X174220143Y-102001581D01*
X173601095Y-102001581D01*
X172601095Y-102001581D02*
X172934429Y-101525390D01*
X173172524Y-102001581D02*
X173172524Y-101001581D01*
X172791571Y-101001581D01*
X172696333Y-101049200D01*
X172648714Y-101096819D01*
X172601095Y-101192057D01*
X172601095Y-101334914D01*
X172648714Y-101430152D01*
X172696333Y-101477771D01*
X172791571Y-101525390D01*
X173172524Y-101525390D01*
M02*
