M48
;DRILL file {KiCad 4.0.6} date 06/24/17 11:43:29
;FORMAT={-:-/ absolute / metric / decimal}
FMAT,2
METRIC,TZ
T1C0.400
T2C0.900
T3C1.000
T4C1.600
T5C3.200
%
G90
G05
M71
T1
X130.619Y-94.996
X130.81Y-84.201
X130.874Y-90.106
X131.742Y-109.421
X132.548Y-115.738
X133.667Y-93.218
X134.683Y-109.601
X134.747Y-103.822
X134.938Y-87.947
X135.382Y-83.058
X135.382Y-106.553
X137.143Y-101.345
X137.991Y-91.998
X138.176Y-79.947
X138.244Y-95.537
X141.16Y-106.011
X141.922Y-82.93
X144.438Y-90.512
X145.599Y-89.556
X145.661Y-119.724
X146.72Y-101.626
X147.525Y-90.768
X147.58Y-89.663
X148.145Y-79.057
X148.188Y-93.081
X150.432Y-93.254
X150.497Y-94.504
X150.558Y-90.551
X151.066Y-89.281
X151.666Y-93.228
X152.146Y-86.106
X152.161Y-97.139
X153.861Y-89.09
X154.368Y-84.328
X157.861Y-96.139
X159.784Y-101.774
X160.147Y-96.203
X162.052Y-91.63
X162.369Y-96.647
X162.892Y-88.982
X162.912Y-118.243
X163.539Y-113.796
X163.703Y-97.727
X163.949Y-113.042
X163.955Y-86.737
X164.401Y-91.63
X165.83Y-85.128
X166.475Y-95.885
X168.156Y-90.505
X169.154Y-97.702
X169.744Y-90.587
X170.829Y-95.91
X171.154Y-98.13
X171.338Y-88.169
X172.193Y-88.257
X172.426Y-115.823
X172.484Y-85.091
X172.491Y-93.531
X173.153Y-93.979
X173.48Y-101.28
X173.616Y-112.234
X173.77Y-90.008
X174.832Y-118.223
X174.911Y-90.628
X175.219Y-92.185
X177.691Y-92.31
X177.962Y-121.298
X178.009Y-96.583
X178.242Y-91.449
X179.812Y-93.655
X179.851Y-106.551
X179.995Y-87.731
X180.313Y-120.178
X181.045Y-87.62
X181.548Y-95.722
X181.633Y-106.412
X182.34Y-113.078
X182.377Y-92.218
X182.803Y-86.619
X183.212Y-105.475
X183.404Y-92.452
X185.011Y-91.11
X186.857Y-78.878
X187.548Y-84.893
X187.785Y-86.544
X189.386Y-118.118
X189.848Y-113.717
X190.397Y-116.167
X198.38Y-112.898
X206.393Y-104.204
X206.551Y-108.026
X207.456Y-109.472
X207.598Y-97.202
X207.751Y-102.128
X207.89Y-91.87
X208.19Y-95.415
X208.53Y-108.093
X208.563Y-87.607
X213.206Y-101.477
T2
X147.955Y-103.886
X147.955Y-110.49
X149.225Y-101.346
X149.225Y-107.95
X150.495Y-103.886
X150.495Y-110.49
X151.765Y-101.346
X151.765Y-107.95
X153.035Y-103.886
X153.035Y-110.49
X154.305Y-101.346
X154.305Y-107.95
X155.575Y-103.886
X155.575Y-110.49
X156.845Y-101.346
X156.845Y-107.95
X161.925Y-103.886
X161.925Y-110.49
X163.195Y-101.346
X163.195Y-107.95
X164.465Y-103.886
X164.465Y-110.49
X165.735Y-101.346
X165.735Y-107.95
X167.005Y-103.886
X167.005Y-110.49
X168.275Y-101.346
X168.275Y-107.95
X169.545Y-103.886
X169.545Y-110.49
X170.815Y-101.346
X170.815Y-107.95
X175.895Y-103.886
X175.895Y-110.49
X177.165Y-101.346
X177.165Y-107.95
X178.435Y-103.886
X178.435Y-110.49
X179.705Y-101.346
X179.705Y-107.95
X180.975Y-103.886
X180.975Y-110.49
X182.245Y-101.346
X182.245Y-107.95
X183.515Y-103.886
X183.515Y-110.49
X184.785Y-101.346
X184.785Y-107.95
X189.865Y-103.886
X189.865Y-110.49
X191.135Y-101.346
X191.135Y-107.95
X192.405Y-103.886
X192.405Y-110.49
X193.675Y-101.346
X193.675Y-107.95
X194.945Y-103.886
X194.945Y-110.49
X196.215Y-101.346
X196.215Y-107.95
X197.485Y-103.886
X197.485Y-110.49
X198.755Y-101.346
X198.755Y-107.95
T3
X157.48Y-80.01
X157.48Y-82.55
X160.02Y-80.01
X160.02Y-82.55
X162.56Y-80.01
X162.56Y-82.55
X165.1Y-80.01
X165.1Y-82.55
X167.64Y-80.01
X167.64Y-82.55
X170.18Y-80.01
X170.18Y-82.55
X172.72Y-80.01
X172.72Y-82.55
X175.26Y-80.01
X175.26Y-82.55
X177.8Y-80.01
X177.8Y-82.55
X180.34Y-80.01
X180.34Y-82.55
X182.88Y-80.01
X182.88Y-82.55
X185.42Y-80.01
X185.42Y-82.55
X187.96Y-80.01
X187.96Y-82.55
X190.5Y-80.01
X190.5Y-82.55
X193.04Y-80.01
X193.04Y-82.55
T4
X143.88Y-101.34
X143.88Y-121.415
X144.655Y-107.69
X202.075Y-110.99
X202.825Y-105.41
X202.83Y-121.415
T5
X137.795Y-119.38
X146.685Y-116.84
X147.32Y-83.185
X200.025Y-116.84
X200.66Y-83.185
X209.55Y-119.38
T0
M30
