M48
;DRILL file {KiCad 4.0.4-stable} date 03/16/17 08:37:10
;FORMAT={-:-/ absolute / inch / decimal}
FMAT,2
INCH,TZ
T1C0.016
T2C0.031
T3C0.039
T4C0.039
T5C0.047
T6C0.059
T7C0.075
T8C0.126
%
G90
G05
M72
T1
X4.7841Y-3.6519
X4.7861Y-2.8885
X4.7867Y-3.5848
X4.8135Y-3.5044
X4.8174Y-2.821
X5.15Y-2.56
X5.17Y-5.26
X5.3807Y-4.197
X5.7999Y-3.8297
X5.958Y-2.56
X5.982Y-5.26
X5.9837Y-3.9555
X6.1202Y-3.9362
X6.126Y-3.8953
X6.3314Y-4.2018
X6.3654Y-3.7223
X6.4193Y-3.7542
X6.4772Y-4.0297
X6.5667Y-4.0452
X6.5854Y-3.8065
X6.6549Y-3.6909
X6.6846Y-4.0965
X6.761Y-2.558
X6.775Y-5.26
X6.885Y-4.094
X7.1076Y-3.87
X7.1973Y-3.7329
X7.566Y-2.56
X7.575Y-5.26
T2
X4.4477Y-2.4951
X4.4477Y-3.1683
X4.4477Y-3.2651
X4.4477Y-3.9383
X4.8217Y-2.1847
X4.8251Y-5.6373
X4.9949Y-4.35
X4.9949Y-4.45
X4.9949Y-4.85
X4.9949Y-5.15
X5.0201Y-2.68
X5.0201Y-2.98
X5.0201Y-3.38
X5.0201Y-3.48
X5.2949Y-4.35
X5.2949Y-4.45
X5.2949Y-4.85
X5.2949Y-5.15
X5.3201Y-2.68
X5.3201Y-2.98
X5.3201Y-3.38
X5.3201Y-3.48
X5.4949Y-2.1847
X5.4983Y-5.6373
X5.6217Y-2.1847
X5.6251Y-5.6373
X5.7949Y-4.35
X5.7949Y-4.45
X5.7949Y-4.85
X5.7949Y-5.15
X5.8201Y-2.68
X5.8201Y-2.98
X5.8201Y-3.38
X5.8201Y-3.48
X6.0949Y-4.35
X6.0949Y-4.45
X6.0949Y-4.85
X6.0949Y-5.15
X6.1201Y-2.68
X6.1201Y-2.98
X6.1201Y-3.38
X6.1201Y-3.48
X6.2949Y-2.1847
X6.2983Y-5.6373
X6.4217Y-2.1847
X6.4251Y-5.6373
X6.5949Y-4.35
X6.5949Y-4.45
X6.5949Y-4.85
X6.5949Y-5.15
X6.6201Y-2.68
X6.6201Y-2.98
X6.6201Y-3.38
X6.6201Y-3.48
X6.8949Y-4.35
X6.8949Y-4.45
X6.8949Y-4.85
X6.8949Y-5.15
X6.9201Y-2.68
X6.9201Y-2.98
X6.9201Y-3.38
X6.9201Y-3.48
X7.0949Y-2.1847
X7.0983Y-5.6373
X7.2217Y-2.1847
X7.2251Y-5.6373
X7.3949Y-4.35
X7.3949Y-4.45
X7.3949Y-4.85
X7.3949Y-5.15
X7.4201Y-2.68
X7.4201Y-2.98
X7.4201Y-3.38
X7.4201Y-3.48
X7.6949Y-4.35
X7.6949Y-4.45
X7.6949Y-4.85
X7.6949Y-5.15
X7.7201Y-2.68
X7.7201Y-2.98
X7.7201Y-3.38
X7.7201Y-3.48
X7.8949Y-2.1847
X7.8983Y-5.6373
T3
X7.68Y-3.72
X7.68Y-3.82
X7.68Y-3.92
X7.68Y-4.02
X7.68Y-4.12
T5
X7.9696Y-2.93
X7.9696Y-3.13
T6
X4.415Y-4.42
X4.6513Y-4.42
T7
X4.7131Y-2.5974
X4.7131Y-3.0695
X4.7131Y-3.3674
X4.7131Y-3.8395
X4.9205Y-2.4501
X4.9274Y-5.3719
X5.3926Y-2.4501
X5.3995Y-5.3719
X5.7205Y-2.4501
X5.7274Y-5.3719
X6.1926Y-2.4501
X6.1995Y-5.3719
X6.5205Y-2.4501
X6.5274Y-5.3719
X6.9926Y-2.4501
X6.9995Y-5.3719
X7.3205Y-2.4501
X7.3274Y-5.3719
X7.7926Y-2.4501
X7.7995Y-5.3719
T8
X4.643Y-2.3
X4.643Y-5.5
X8.082Y-5.5
X8.084Y-2.3
T4
X7.8649Y-3.5894G85X7.8649Y-3.5107
G05
X8.0224Y-3.365G85X7.9437Y-3.365
G05
X8.1011Y-3.5894G85X8.1011Y-3.5107
G05
T0
M30
