G04 #@! TF.FileFunction,Soldermask,Top*
%FSLAX46Y46*%
G04 Gerber Fmt 4.6, Leading zero omitted, Abs format (unit mm)*
G04 Created by KiCad (PCBNEW 4.0.4-stable) date 06/11/17 19:28:35*
%MOMM*%
%LPD*%
G01*
G04 APERTURE LIST*
%ADD10C,0.100000*%
%ADD11R,1.200000X1.150000*%
%ADD12R,1.150000X1.200000*%
%ADD13R,1.900000X4.400000*%
%ADD14C,1.300000*%
%ADD15C,2.300000*%
%ADD16R,1.000000X2.500000*%
%ADD17O,5.401260X3.399740*%
%ADD18C,2.900000*%
%ADD19R,2.100000X2.100000*%
%ADD20O,2.100000X2.100000*%
%ADD21R,1.300000X0.900000*%
%ADD22R,1.050000X0.800000*%
%ADD23R,0.850000X0.800000*%
%ADD24R,1.400000X0.650000*%
%ADD25R,0.650000X1.400000*%
%ADD26C,1.900000*%
%ADD27C,2.400000*%
%ADD28R,2.600000X1.600000*%
%ADD29R,6.800000X6.200000*%
%ADD30R,2.000000X1.400000*%
%ADD31R,1.400000X3.400000*%
G04 APERTURE END LIST*
D10*
D11*
X26785000Y29210000D03*
X25285000Y29210000D03*
D12*
X15240000Y46240000D03*
X15240000Y47740000D03*
D11*
X26785000Y32385000D03*
X25285000Y32385000D03*
D12*
X15240000Y38620000D03*
X15240000Y40120000D03*
D13*
X23370000Y5835000D03*
D14*
X23370000Y5835000D03*
D15*
X25970000Y12575000D03*
X37960000Y12575000D03*
D16*
X35570000Y12815000D03*
X34550000Y12815000D03*
X33530000Y12815000D03*
X32510000Y12815000D03*
X31490000Y12815000D03*
X30470000Y12815000D03*
X29450000Y12815000D03*
X28430000Y12815000D03*
D14*
X40470000Y5835000D03*
D13*
X40470000Y5835000D03*
X3685000Y5835000D03*
D14*
X3685000Y5835000D03*
D15*
X6285000Y12575000D03*
X18275000Y12575000D03*
D16*
X15885000Y12815000D03*
X14865000Y12815000D03*
X13845000Y12815000D03*
X12825000Y12815000D03*
X11805000Y12815000D03*
X10785000Y12815000D03*
X9765000Y12815000D03*
X8745000Y12815000D03*
D14*
X20785000Y5835000D03*
D13*
X20785000Y5835000D03*
D17*
X5715000Y36045140D03*
X5715000Y40005000D03*
X5715000Y43964860D03*
X5715000Y47924720D03*
X5715000Y32085280D03*
X39370000Y43964860D03*
X39370000Y40005000D03*
X39370000Y36045140D03*
X39370000Y32085280D03*
X39370000Y47924720D03*
D18*
X11430000Y80050000D03*
X16510000Y80050000D03*
X21590000Y80050000D03*
X26670000Y80050000D03*
X31750000Y80010000D03*
D19*
X10160000Y27305000D03*
D20*
X12700000Y27305000D03*
X15240000Y27305000D03*
X17780000Y27305000D03*
X20320000Y27305000D03*
D21*
X26670000Y17030000D03*
X26670000Y18530000D03*
D22*
X11500000Y36160000D03*
X11500000Y34960000D03*
X13900000Y36160000D03*
X13900000Y34960000D03*
D23*
X12300000Y36160000D03*
X13100000Y36160000D03*
X13100000Y34960000D03*
X12300000Y34960000D03*
D22*
X32950000Y44485000D03*
X32950000Y45685000D03*
X30550000Y44485000D03*
X30550000Y45685000D03*
D23*
X32150000Y44485000D03*
X31350000Y44485000D03*
X31350000Y45685000D03*
X32150000Y45685000D03*
D22*
X13900000Y43850000D03*
X13900000Y45050000D03*
X11500000Y43850000D03*
X11500000Y45050000D03*
D23*
X13100000Y43850000D03*
X12300000Y43850000D03*
X12300000Y45050000D03*
X13100000Y45050000D03*
D22*
X32950000Y34960000D03*
X32950000Y36160000D03*
X30550000Y34960000D03*
X30550000Y36160000D03*
D23*
X32150000Y34960000D03*
X31350000Y34960000D03*
X31350000Y36160000D03*
X32150000Y36160000D03*
D24*
X17160000Y45025000D03*
X17160000Y44525000D03*
X17160000Y44025000D03*
X17160000Y43525000D03*
X17160000Y43025000D03*
X17160000Y42525000D03*
X17160000Y42025000D03*
X17160000Y41525000D03*
X17160000Y41025000D03*
X17160000Y40525000D03*
X17160000Y40025000D03*
X17160000Y39525000D03*
X17160000Y39025000D03*
X17160000Y38525000D03*
X17160000Y38025000D03*
X17160000Y37525000D03*
D25*
X19110000Y35575000D03*
X19610000Y35575000D03*
X20110000Y35575000D03*
X20610000Y35575000D03*
X21110000Y35575000D03*
X21610000Y35575000D03*
X22110000Y35575000D03*
X22610000Y35575000D03*
X23110000Y35575000D03*
X23610000Y35575000D03*
X24110000Y35575000D03*
X24610000Y35575000D03*
X25110000Y35575000D03*
X25610000Y35575000D03*
X26110000Y35575000D03*
X26610000Y35575000D03*
D24*
X28560000Y37525000D03*
X28560000Y38025000D03*
X28560000Y38525000D03*
X28560000Y39025000D03*
X28560000Y39525000D03*
X28560000Y40025000D03*
X28560000Y40525000D03*
X28560000Y41025000D03*
X28560000Y41525000D03*
X28560000Y42025000D03*
X28560000Y42525000D03*
X28560000Y43025000D03*
X28560000Y43525000D03*
X28560000Y44025000D03*
X28560000Y44525000D03*
X28560000Y45025000D03*
D25*
X26610000Y46975000D03*
X26110000Y46975000D03*
X25610000Y46975000D03*
X25110000Y46975000D03*
X24610000Y46975000D03*
X24110000Y46975000D03*
X23610000Y46975000D03*
X23110000Y46975000D03*
X22610000Y46975000D03*
X22110000Y46975000D03*
X21610000Y46975000D03*
X21110000Y46975000D03*
X20610000Y46975000D03*
X20110000Y46975000D03*
X19610000Y46975000D03*
X19110000Y46975000D03*
D26*
X13465000Y52705000D03*
X13465000Y55245000D03*
D27*
X13465000Y65405000D03*
X13465000Y73025000D03*
D26*
X19815000Y52705000D03*
X19815000Y55245000D03*
D27*
X19815000Y65405000D03*
X19815000Y73025000D03*
D26*
X26165000Y52705000D03*
X26165000Y55245000D03*
D27*
X26165000Y65405000D03*
X26165000Y73025000D03*
D26*
X32515000Y52705000D03*
X32515000Y55245000D03*
D27*
X32515000Y65405000D03*
X32515000Y73025000D03*
D28*
X11185000Y18040000D03*
X11185000Y22600000D03*
D29*
X4885000Y20320000D03*
D30*
X26035000Y21995000D03*
X26035000Y24995000D03*
D31*
X31750000Y19455000D03*
X31750000Y24995000D03*
X34290000Y19455000D03*
X34290000Y24995000D03*
X36830000Y19455000D03*
X36830000Y24995000D03*
X39370000Y19455000D03*
X39370000Y24995000D03*
X41910000Y19455000D03*
X41910000Y24995000D03*
M02*
