G04 #@! TF.FileFunction,Copper,L2,Bot,Signal*
%FSLAX46Y46*%
G04 Gerber Fmt 4.6, Leading zero omitted, Abs format (unit mm)*
G04 Created by KiCad (PCBNEW 4.0.4-stable) date 06/11/17 19:28:35*
%MOMM*%
%LPD*%
G01*
G04 APERTURE LIST*
%ADD10C,0.100000*%
%ADD11C,0.900000*%
%ADD12O,5.001260X2.999740*%
%ADD13C,2.500000*%
%ADD14R,1.700000X1.700000*%
%ADD15O,1.700000X1.700000*%
%ADD16C,1.500000*%
%ADD17C,2.000000*%
%ADD18C,0.600000*%
%ADD19C,1.000000*%
%ADD20C,0.250000*%
%ADD21C,3.000000*%
%ADD22C,0.254000*%
G04 APERTURE END LIST*
D10*
D11*
X23370000Y5835000D03*
X40470000Y5835000D03*
X3685000Y5835000D03*
X20785000Y5835000D03*
D12*
X5715000Y36045140D03*
X5715000Y40005000D03*
X5715000Y43964860D03*
X5715000Y47924720D03*
X5715000Y32085280D03*
X39370000Y43964860D03*
X39370000Y40005000D03*
X39370000Y36045140D03*
X39370000Y32085280D03*
X39370000Y47924720D03*
D13*
X11430000Y80050000D03*
X16510000Y80050000D03*
X21590000Y80050000D03*
X26670000Y80050000D03*
X31750000Y80010000D03*
D14*
X10160000Y27305000D03*
D15*
X12700000Y27305000D03*
X15240000Y27305000D03*
X17780000Y27305000D03*
X20320000Y27305000D03*
D16*
X13465000Y52705000D03*
X13465000Y55245000D03*
D17*
X13465000Y65405000D03*
X13465000Y73025000D03*
D16*
X19815000Y52705000D03*
X19815000Y55245000D03*
D17*
X19815000Y65405000D03*
X19815000Y73025000D03*
D16*
X26165000Y52705000D03*
X26165000Y55245000D03*
D17*
X26165000Y65405000D03*
X26165000Y73025000D03*
D16*
X32515000Y52705000D03*
X32515000Y55245000D03*
D17*
X32515000Y65405000D03*
X32515000Y73025000D03*
D18*
X15240000Y37465000D03*
X16510000Y46355000D03*
X19105100Y13965300D03*
X34550000Y11264100D03*
X31490000Y14613400D03*
X11805000Y14807300D03*
X18177600Y42792200D03*
X32950000Y42812300D03*
X32150000Y39864200D03*
X31350000Y37374400D03*
X13739700Y37562900D03*
X29679100Y35996900D03*
X20510800Y36580700D03*
X29691200Y34905200D03*
X24431500Y37873200D03*
X18077600Y49062700D03*
X17948800Y46148300D03*
X11906100Y46574000D03*
X23960000Y34037900D03*
X30302800Y33605000D03*
X25091100Y34425600D03*
X32910500Y34166400D03*
X22475200Y34567100D03*
X32176800Y33404700D03*
X36191400Y28060600D03*
X18190500Y39663400D03*
D19*
X32515000Y55245000D02*
X26165000Y55245000D01*
D20*
X20785000Y5835000D02*
X23370000Y5835000D01*
D19*
X5715000Y32085300D02*
X8916000Y32085300D01*
X12700000Y32085300D02*
X8916000Y32085300D01*
X12700000Y34925000D02*
X12700000Y32085300D01*
X15240000Y37465000D02*
X12700000Y34925000D01*
X12700000Y32085300D02*
X12700000Y27305000D01*
X15240000Y45085000D02*
X15240000Y43979300D01*
X16510000Y46355000D02*
X15240000Y45085000D01*
X15240000Y43979300D02*
X15240000Y37465000D01*
X21143200Y47924700D02*
X39370000Y47924700D01*
X17197800Y43979300D02*
X21143200Y47924700D01*
X15240000Y43979300D02*
X17197800Y43979300D01*
D20*
X21806300Y11264100D02*
X19105100Y13965300D01*
X34550000Y11264100D02*
X21806300Y11264100D01*
X10160000Y27305000D02*
X11335300Y27305000D01*
X16122900Y14613400D02*
X14039400Y16696900D01*
X31490000Y14613400D02*
X16122900Y14613400D01*
X13694600Y16696900D02*
X11805000Y14807300D01*
X14039400Y16696900D02*
X13694600Y16696900D01*
X14039500Y26129700D02*
X14039400Y26129700D01*
X14039500Y27821000D02*
X14039500Y26129700D01*
X17233100Y31014600D02*
X14039500Y27821000D01*
X17233100Y41847700D02*
X17233100Y31014600D01*
X18177600Y42792200D02*
X17233100Y41847700D01*
X14039400Y16696900D02*
X14039400Y26129700D01*
X11335300Y26937600D02*
X11335300Y27305000D01*
X12143200Y26129700D02*
X11335300Y26937600D01*
X14039400Y26129700D02*
X12143200Y26129700D01*
X39370000Y43964900D02*
X36544000Y43964900D01*
X35391400Y42812300D02*
X36544000Y43964900D01*
X32950000Y42812300D02*
X35391400Y42812300D01*
X39370000Y40005000D02*
X36544000Y40005000D01*
X36403200Y39864200D02*
X32150000Y39864200D01*
X36544000Y40005000D02*
X36403200Y39864200D01*
X39370000Y36045100D02*
X36544000Y36045100D01*
X35214700Y37374400D02*
X31350000Y37374400D01*
X36544000Y36045100D02*
X35214700Y37374400D01*
X10058800Y37562900D02*
X8541000Y36045100D01*
X13739700Y37562900D02*
X10058800Y37562900D01*
X5715000Y36045100D02*
X8541000Y36045100D01*
X39370000Y32085300D02*
X36544000Y32085300D01*
X32632400Y35996900D02*
X29679100Y35996900D01*
X36544000Y32085300D02*
X32632400Y35996900D01*
X28015700Y36580700D02*
X20510800Y36580700D01*
X29691200Y34905200D02*
X28015700Y36580700D01*
X18801600Y49786700D02*
X18077600Y49062700D01*
X41131600Y49786700D02*
X18801600Y49786700D01*
X42196100Y48722200D02*
X41131600Y49786700D01*
X42196100Y47120200D02*
X42196100Y48722200D01*
X40866100Y45790200D02*
X42196100Y47120200D01*
X32348500Y45790200D02*
X40866100Y45790200D01*
X24431500Y37873200D02*
X32348500Y45790200D01*
X12512500Y47180400D02*
X11906100Y46574000D01*
X16916700Y47180400D02*
X12512500Y47180400D01*
X17948800Y46148300D02*
X16916700Y47180400D01*
X24392900Y33605000D02*
X23960000Y34037900D01*
X30302800Y33605000D02*
X24392900Y33605000D01*
X32797000Y34279900D02*
X32910500Y34166400D01*
X25236800Y34279900D02*
X32797000Y34279900D01*
X25091100Y34425600D02*
X25236800Y34279900D01*
X24080000Y32962300D02*
X22475200Y34567100D01*
X31734400Y32962300D02*
X24080000Y32962300D01*
X32176800Y33404700D02*
X31734400Y32962300D01*
X18190500Y37867200D02*
X18190500Y39663400D01*
X27997100Y28060600D02*
X18190500Y37867200D01*
X36191400Y28060600D02*
X27997100Y28060600D01*
D21*
X25400000Y66040000D02*
X26165000Y65405000D01*
X26035000Y65405000D02*
X25400000Y66040000D01*
X26165000Y65405000D02*
X26035000Y65405000D01*
X19050000Y66040000D02*
X19815000Y65405000D01*
X19685000Y65405000D02*
X19050000Y66040000D01*
X19815000Y65405000D02*
X19685000Y65405000D01*
X14100000Y66040000D02*
X13465000Y65405000D01*
X31115000Y66040000D02*
X14100000Y66040000D01*
X31750000Y65405000D02*
X31115000Y66040000D01*
X32515000Y65405000D02*
X31750000Y65405000D01*
X8255000Y70615000D02*
X13465000Y65405000D01*
X8255000Y77470000D02*
X8255000Y70615000D01*
X10835000Y80050000D02*
X8255000Y77470000D01*
X11430000Y80050000D02*
X10835000Y80050000D01*
X13465000Y77005000D02*
X16510000Y80050000D01*
X13465000Y73025000D02*
X13465000Y77005000D01*
X19815000Y78275000D02*
X21590000Y80050000D01*
X19815000Y73025000D02*
X19815000Y78275000D01*
X26165000Y79545000D02*
X26670000Y80050000D01*
X26165000Y73025000D02*
X26165000Y79545000D01*
X32515000Y79245000D02*
X31750000Y80010000D01*
X32515000Y73025000D02*
X32515000Y79245000D01*
D22*
G36*
X45289400Y849700D02*
X39445000Y849700D01*
X39445000Y5081255D01*
X39895860Y5081255D01*
X39926803Y4871288D01*
X40336948Y4736774D01*
X40767349Y4769454D01*
X41013197Y4871288D01*
X41044140Y5081255D01*
X40470000Y5655395D01*
X39895860Y5081255D01*
X39445000Y5081255D01*
X39445000Y5439765D01*
X39506288Y5291803D01*
X39716255Y5260860D01*
X40290395Y5835000D01*
X40649605Y5835000D01*
X41223745Y5260860D01*
X41433712Y5291803D01*
X41568226Y5701948D01*
X41535546Y6132349D01*
X41433712Y6378197D01*
X41223745Y6409140D01*
X40649605Y5835000D01*
X40290395Y5835000D01*
X39716255Y6409140D01*
X39506288Y6378197D01*
X39445000Y6191325D01*
X39445000Y6588745D01*
X39895860Y6588745D01*
X40470000Y6014605D01*
X41044140Y6588745D01*
X41013197Y6798712D01*
X40603052Y6933226D01*
X40172651Y6900546D01*
X39926803Y6798712D01*
X39895860Y6588745D01*
X39445000Y6588745D01*
X39445000Y10566400D01*
X39390954Y10838105D01*
X39237046Y11068446D01*
X39006705Y11222354D01*
X38874768Y11248598D01*
X39302914Y11675997D01*
X39544724Y12258341D01*
X39545275Y12888893D01*
X39304481Y13471657D01*
X38859003Y13917914D01*
X38276659Y14159724D01*
X37646107Y14160275D01*
X37063343Y13919481D01*
X36617086Y13474003D01*
X36375276Y12891659D01*
X36374725Y12261107D01*
X36615519Y11678343D01*
X37016760Y11276400D01*
X35485011Y11276400D01*
X35485162Y11449267D01*
X35343117Y11793043D01*
X35080327Y12056292D01*
X34736799Y12198938D01*
X34364833Y12199262D01*
X34021057Y12057217D01*
X33987882Y12024100D01*
X27457459Y12024100D01*
X27554724Y12258341D01*
X27555275Y12888893D01*
X27314481Y13471657D01*
X26933404Y13853400D01*
X30927537Y13853400D01*
X30959673Y13821208D01*
X31303201Y13678562D01*
X31675167Y13678238D01*
X32018943Y13820283D01*
X32282192Y14083073D01*
X32424838Y14426601D01*
X32425162Y14798567D01*
X32283117Y15142343D01*
X32020327Y15405592D01*
X31676799Y15548238D01*
X31304833Y15548562D01*
X30961057Y15406517D01*
X30927882Y15373400D01*
X16437702Y15373400D01*
X14799400Y17011702D01*
X14799400Y25878548D01*
X15240000Y25790907D01*
X15808285Y25903946D01*
X16290054Y26225853D01*
X16510000Y26555026D01*
X16729946Y26225853D01*
X17211715Y25903946D01*
X17780000Y25790907D01*
X18348285Y25903946D01*
X18830054Y26225853D01*
X19057702Y26566553D01*
X19124817Y26423642D01*
X19553076Y26033355D01*
X19963110Y25863524D01*
X20193000Y25984845D01*
X20193000Y27178000D01*
X20447000Y27178000D01*
X20447000Y25984845D01*
X20676890Y25863524D01*
X21086924Y26033355D01*
X21515183Y26423642D01*
X21761486Y26948108D01*
X21640819Y27178000D01*
X20447000Y27178000D01*
X20193000Y27178000D01*
X20173000Y27178000D01*
X20173000Y27432000D01*
X20193000Y27432000D01*
X20193000Y28625155D01*
X20447000Y28625155D01*
X20447000Y27432000D01*
X21640819Y27432000D01*
X21761486Y27661892D01*
X21515183Y28186358D01*
X21086924Y28576645D01*
X20676890Y28746476D01*
X20447000Y28625155D01*
X20193000Y28625155D01*
X19963110Y28746476D01*
X19553076Y28576645D01*
X19124817Y28186358D01*
X19057702Y28043447D01*
X18830054Y28384147D01*
X18348285Y28706054D01*
X17780000Y28819093D01*
X17211715Y28706054D01*
X16729946Y28384147D01*
X16510000Y28054974D01*
X16290054Y28384147D01*
X15922824Y28629522D01*
X17770501Y30477199D01*
X17935248Y30723760D01*
X17944846Y30772014D01*
X17993100Y31014600D01*
X17993100Y36989798D01*
X27459699Y27523199D01*
X27706261Y27358452D01*
X27997100Y27300600D01*
X35628937Y27300600D01*
X35661073Y27268408D01*
X36004601Y27125762D01*
X36376567Y27125438D01*
X36720343Y27267483D01*
X36983592Y27530273D01*
X37126238Y27873801D01*
X37126562Y28245767D01*
X36984517Y28589543D01*
X36721727Y28852792D01*
X36378199Y28995438D01*
X36006233Y28995762D01*
X35662457Y28853717D01*
X35629282Y28820600D01*
X28311902Y28820600D01*
X24930202Y32202300D01*
X31734400Y32202300D01*
X32025239Y32260152D01*
X32271801Y32424899D01*
X32316480Y32469578D01*
X32361967Y32469538D01*
X32705743Y32611583D01*
X32968992Y32874373D01*
X33111638Y33217901D01*
X33111655Y33237844D01*
X33439443Y33373283D01*
X33702692Y33636073D01*
X33765989Y33788509D01*
X36006599Y31547899D01*
X36253161Y31383152D01*
X36315049Y31370842D01*
X36335446Y31268301D01*
X36798228Y30575699D01*
X37490830Y30112917D01*
X38307809Y29950410D01*
X40432191Y29950410D01*
X41249170Y30112917D01*
X41941772Y30575699D01*
X42404554Y31268301D01*
X42567061Y32085280D01*
X42404554Y32902259D01*
X41941772Y33594861D01*
X41249170Y34057643D01*
X41211128Y34065210D01*
X41249170Y34072777D01*
X41941772Y34535559D01*
X42404554Y35228161D01*
X42567061Y36045140D01*
X42404554Y36862119D01*
X41941772Y37554721D01*
X41249170Y38017503D01*
X41211128Y38025070D01*
X41249170Y38032637D01*
X41941772Y38495419D01*
X42404554Y39188021D01*
X42567061Y40005000D01*
X42404554Y40821979D01*
X41941772Y41514581D01*
X41249170Y41977363D01*
X41211128Y41984930D01*
X41249170Y41992497D01*
X41941772Y42455279D01*
X42404554Y43147881D01*
X42567061Y43964860D01*
X42404554Y44781839D01*
X41941772Y45474441D01*
X41751967Y45601265D01*
X42733501Y46582799D01*
X42898248Y46829361D01*
X42956100Y47120200D01*
X42956100Y48722200D01*
X42898248Y49013039D01*
X42898248Y49013040D01*
X42733501Y49259601D01*
X41669001Y50324101D01*
X41422439Y50488848D01*
X41131600Y50546700D01*
X18801600Y50546700D01*
X18510761Y50488848D01*
X18264199Y50324101D01*
X17937920Y49997822D01*
X17892433Y49997862D01*
X17548657Y49855817D01*
X17285408Y49593027D01*
X17142762Y49249499D01*
X17142438Y48877533D01*
X17284483Y48533757D01*
X17547273Y48270508D01*
X17890801Y48127862D01*
X18262767Y48127538D01*
X18606543Y48269583D01*
X18869792Y48532373D01*
X19012438Y48875901D01*
X19012479Y48922777D01*
X19116402Y49026700D01*
X20977298Y49026700D01*
X20708854Y48973303D01*
X20340634Y48727266D01*
X18516461Y46903093D01*
X18479127Y46940492D01*
X18135599Y47083138D01*
X18088723Y47083179D01*
X17454101Y47717801D01*
X17207539Y47882548D01*
X16916700Y47940400D01*
X12512500Y47940400D01*
X12221661Y47882548D01*
X11975099Y47717801D01*
X11766420Y47509122D01*
X11720933Y47509162D01*
X11377157Y47367117D01*
X11113908Y47104327D01*
X10971262Y46760799D01*
X10970938Y46388833D01*
X11112983Y46045057D01*
X11375773Y45781808D01*
X11719301Y45639162D01*
X12091267Y45638838D01*
X12435043Y45780883D01*
X12698292Y46043673D01*
X12840938Y46387201D01*
X12840967Y46420400D01*
X14970268Y46420400D01*
X14437434Y45887566D01*
X14191397Y45519346D01*
X14105000Y45085000D01*
X14105000Y38423618D01*
X13926499Y38497738D01*
X13554533Y38498062D01*
X13210757Y38356017D01*
X13177582Y38322900D01*
X10058800Y38322900D01*
X9767960Y38265048D01*
X9521399Y38100301D01*
X8562766Y37141668D01*
X8286772Y37554721D01*
X7594170Y38017503D01*
X7556128Y38025070D01*
X7594170Y38032637D01*
X8286772Y38495419D01*
X8749554Y39188021D01*
X8912061Y40005000D01*
X8749554Y40821979D01*
X8286772Y41514581D01*
X7594170Y41977363D01*
X7556128Y41984930D01*
X7594170Y41992497D01*
X8286772Y42455279D01*
X8749554Y43147881D01*
X8912061Y43964860D01*
X8749554Y44781839D01*
X8286772Y45474441D01*
X7594170Y45937223D01*
X7556128Y45944790D01*
X7594170Y45952357D01*
X8286772Y46415139D01*
X8749554Y47107741D01*
X8912061Y47924720D01*
X8749554Y48741699D01*
X8286772Y49434301D01*
X7594170Y49897083D01*
X6777191Y50059590D01*
X4652809Y50059590D01*
X3835830Y49897083D01*
X3143228Y49434301D01*
X2680446Y48741699D01*
X2517939Y47924720D01*
X2680446Y47107741D01*
X3143228Y46415139D01*
X3835830Y45952357D01*
X3873872Y45944790D01*
X3835830Y45937223D01*
X3143228Y45474441D01*
X2680446Y44781839D01*
X2517939Y43964860D01*
X2680446Y43147881D01*
X3143228Y42455279D01*
X3835830Y41992497D01*
X3873872Y41984930D01*
X3835830Y41977363D01*
X3143228Y41514581D01*
X2680446Y40821979D01*
X2517939Y40005000D01*
X2680446Y39188021D01*
X3143228Y38495419D01*
X3835830Y38032637D01*
X3873872Y38025070D01*
X3835830Y38017503D01*
X3143228Y37554721D01*
X2680446Y36862119D01*
X2517939Y36045140D01*
X2680446Y35228161D01*
X3143228Y34535559D01*
X3835830Y34072777D01*
X3873872Y34065210D01*
X3835830Y34057643D01*
X3143228Y33594861D01*
X2680446Y32902259D01*
X2517939Y32085280D01*
X2680446Y31268301D01*
X3143228Y30575699D01*
X3835830Y30112917D01*
X4652809Y29950410D01*
X6777191Y29950410D01*
X7594170Y30112917D01*
X8286772Y30575699D01*
X8537072Y30950300D01*
X11565000Y30950300D01*
X11565000Y28465163D01*
X11474090Y28606441D01*
X11261890Y28751431D01*
X11010000Y28802440D01*
X9310000Y28802440D01*
X9074683Y28758162D01*
X8858559Y28619090D01*
X8713569Y28406890D01*
X8662560Y28155000D01*
X8662560Y26455000D01*
X8706838Y26219683D01*
X8845910Y26003559D01*
X9058110Y25858569D01*
X9310000Y25807560D01*
X11010000Y25807560D01*
X11245317Y25851838D01*
X11306737Y25891361D01*
X11605799Y25592299D01*
X11852361Y25427552D01*
X12143200Y25369700D01*
X13279400Y25369700D01*
X13279400Y17315953D01*
X13157199Y17234301D01*
X11665320Y15742422D01*
X11619833Y15742462D01*
X11276057Y15600417D01*
X11012808Y15337627D01*
X10870162Y14994099D01*
X10869838Y14622133D01*
X11011883Y14278357D01*
X11274673Y14015108D01*
X11618201Y13872462D01*
X11990167Y13872138D01*
X12333943Y14014183D01*
X12597192Y14276973D01*
X12739838Y14620501D01*
X12739879Y14667377D01*
X13867000Y15794498D01*
X15585499Y14075999D01*
X15832061Y13911252D01*
X16122900Y13853400D01*
X17312146Y13853400D01*
X16932086Y13474003D01*
X16690276Y12891659D01*
X16689725Y12261107D01*
X16930519Y11678343D01*
X17331760Y11276400D01*
X7227618Y11276400D01*
X7627914Y11675997D01*
X7869724Y12258341D01*
X7870275Y12888893D01*
X7629481Y13471657D01*
X7184003Y13917914D01*
X6601659Y14159724D01*
X5971107Y14160275D01*
X5388343Y13919481D01*
X4942086Y13474003D01*
X4700276Y12891659D01*
X4699725Y12261107D01*
X4940519Y11678343D01*
X5384659Y11233426D01*
X5328995Y11222354D01*
X5098654Y11068446D01*
X4944746Y10838105D01*
X4890700Y10566400D01*
X4890700Y837000D01*
X684600Y837000D01*
X684600Y5081255D01*
X3110860Y5081255D01*
X3141803Y4871288D01*
X3551948Y4736774D01*
X3982349Y4769454D01*
X4228197Y4871288D01*
X4259140Y5081255D01*
X3685000Y5655395D01*
X3110860Y5081255D01*
X684600Y5081255D01*
X684600Y5968052D01*
X2586774Y5968052D01*
X2619454Y5537651D01*
X2721288Y5291803D01*
X2931255Y5260860D01*
X3505395Y5835000D01*
X3864605Y5835000D01*
X4438745Y5260860D01*
X4648712Y5291803D01*
X4783226Y5701948D01*
X4750546Y6132349D01*
X4648712Y6378197D01*
X4438745Y6409140D01*
X3864605Y5835000D01*
X3505395Y5835000D01*
X2931255Y6409140D01*
X2721288Y6378197D01*
X2586774Y5968052D01*
X684600Y5968052D01*
X684600Y6588745D01*
X3110860Y6588745D01*
X3685000Y6014605D01*
X4259140Y6588745D01*
X4228197Y6798712D01*
X3818052Y6933226D01*
X3387651Y6900546D01*
X3141803Y6798712D01*
X3110860Y6588745D01*
X684600Y6588745D01*
X684600Y54970715D01*
X12079760Y54970715D01*
X12290169Y54461485D01*
X12679436Y54071539D01*
X12911870Y53975024D01*
X12681485Y53879831D01*
X12291539Y53490564D01*
X12080241Y52981702D01*
X12079760Y52430715D01*
X12290169Y51921485D01*
X12679436Y51531539D01*
X13188298Y51320241D01*
X13739285Y51319760D01*
X14248515Y51530169D01*
X14638461Y51919436D01*
X14849759Y52428298D01*
X14850240Y52979285D01*
X14639831Y53488515D01*
X14250564Y53878461D01*
X14018130Y53974976D01*
X14248515Y54070169D01*
X14638461Y54459436D01*
X14849759Y54968298D01*
X14849761Y54970715D01*
X18429760Y54970715D01*
X18640169Y54461485D01*
X19029436Y54071539D01*
X19261870Y53975024D01*
X19031485Y53879831D01*
X18641539Y53490564D01*
X18430241Y52981702D01*
X18429760Y52430715D01*
X18640169Y51921485D01*
X19029436Y51531539D01*
X19538298Y51320241D01*
X20089285Y51319760D01*
X20598515Y51530169D01*
X20988461Y51919436D01*
X21199759Y52428298D01*
X21200240Y52979285D01*
X20989831Y53488515D01*
X20600564Y53878461D01*
X20368130Y53974976D01*
X20598515Y54070169D01*
X20988461Y54459436D01*
X21199759Y54968298D01*
X21199761Y54970715D01*
X24779760Y54970715D01*
X24990169Y54461485D01*
X25379436Y54071539D01*
X25611870Y53975024D01*
X25381485Y53879831D01*
X24991539Y53490564D01*
X24780241Y52981702D01*
X24779760Y52430715D01*
X24990169Y51921485D01*
X25379436Y51531539D01*
X25888298Y51320241D01*
X26439285Y51319760D01*
X26948515Y51530169D01*
X27338461Y51919436D01*
X27549759Y52428298D01*
X27550240Y52979285D01*
X27339831Y53488515D01*
X26950564Y53878461D01*
X26718130Y53974976D01*
X26948515Y54070169D01*
X26988415Y54110000D01*
X31691042Y54110000D01*
X31729436Y54071539D01*
X31961870Y53975024D01*
X31731485Y53879831D01*
X31341539Y53490564D01*
X31130241Y52981702D01*
X31129760Y52430715D01*
X31340169Y51921485D01*
X31729436Y51531539D01*
X32238298Y51320241D01*
X32789285Y51319760D01*
X33298515Y51530169D01*
X33688461Y51919436D01*
X33899759Y52428298D01*
X33900240Y52979285D01*
X33689831Y53488515D01*
X33300564Y53878461D01*
X33068130Y53974976D01*
X33298515Y54070169D01*
X33688461Y54459436D01*
X33899759Y54968298D01*
X33900240Y55519285D01*
X33689831Y56028515D01*
X33300564Y56418461D01*
X32791702Y56629759D01*
X32240715Y56630240D01*
X31731485Y56419831D01*
X31691585Y56380000D01*
X26988958Y56380000D01*
X26950564Y56418461D01*
X26441702Y56629759D01*
X25890715Y56630240D01*
X25381485Y56419831D01*
X24991539Y56030564D01*
X24780241Y55521702D01*
X24779760Y54970715D01*
X21199761Y54970715D01*
X21200240Y55519285D01*
X20989831Y56028515D01*
X20600564Y56418461D01*
X20091702Y56629759D01*
X19540715Y56630240D01*
X19031485Y56419831D01*
X18641539Y56030564D01*
X18430241Y55521702D01*
X18429760Y54970715D01*
X14849761Y54970715D01*
X14850240Y55519285D01*
X14639831Y56028515D01*
X14250564Y56418461D01*
X13741702Y56629759D01*
X13190715Y56630240D01*
X12681485Y56419831D01*
X12291539Y56030564D01*
X12080241Y55521702D01*
X12079760Y54970715D01*
X684600Y54970715D01*
X684600Y57658000D01*
X45289400Y57658000D01*
X45289400Y849700D01*
X45289400Y849700D01*
G37*
X45289400Y849700D02*
X39445000Y849700D01*
X39445000Y5081255D01*
X39895860Y5081255D01*
X39926803Y4871288D01*
X40336948Y4736774D01*
X40767349Y4769454D01*
X41013197Y4871288D01*
X41044140Y5081255D01*
X40470000Y5655395D01*
X39895860Y5081255D01*
X39445000Y5081255D01*
X39445000Y5439765D01*
X39506288Y5291803D01*
X39716255Y5260860D01*
X40290395Y5835000D01*
X40649605Y5835000D01*
X41223745Y5260860D01*
X41433712Y5291803D01*
X41568226Y5701948D01*
X41535546Y6132349D01*
X41433712Y6378197D01*
X41223745Y6409140D01*
X40649605Y5835000D01*
X40290395Y5835000D01*
X39716255Y6409140D01*
X39506288Y6378197D01*
X39445000Y6191325D01*
X39445000Y6588745D01*
X39895860Y6588745D01*
X40470000Y6014605D01*
X41044140Y6588745D01*
X41013197Y6798712D01*
X40603052Y6933226D01*
X40172651Y6900546D01*
X39926803Y6798712D01*
X39895860Y6588745D01*
X39445000Y6588745D01*
X39445000Y10566400D01*
X39390954Y10838105D01*
X39237046Y11068446D01*
X39006705Y11222354D01*
X38874768Y11248598D01*
X39302914Y11675997D01*
X39544724Y12258341D01*
X39545275Y12888893D01*
X39304481Y13471657D01*
X38859003Y13917914D01*
X38276659Y14159724D01*
X37646107Y14160275D01*
X37063343Y13919481D01*
X36617086Y13474003D01*
X36375276Y12891659D01*
X36374725Y12261107D01*
X36615519Y11678343D01*
X37016760Y11276400D01*
X35485011Y11276400D01*
X35485162Y11449267D01*
X35343117Y11793043D01*
X35080327Y12056292D01*
X34736799Y12198938D01*
X34364833Y12199262D01*
X34021057Y12057217D01*
X33987882Y12024100D01*
X27457459Y12024100D01*
X27554724Y12258341D01*
X27555275Y12888893D01*
X27314481Y13471657D01*
X26933404Y13853400D01*
X30927537Y13853400D01*
X30959673Y13821208D01*
X31303201Y13678562D01*
X31675167Y13678238D01*
X32018943Y13820283D01*
X32282192Y14083073D01*
X32424838Y14426601D01*
X32425162Y14798567D01*
X32283117Y15142343D01*
X32020327Y15405592D01*
X31676799Y15548238D01*
X31304833Y15548562D01*
X30961057Y15406517D01*
X30927882Y15373400D01*
X16437702Y15373400D01*
X14799400Y17011702D01*
X14799400Y25878548D01*
X15240000Y25790907D01*
X15808285Y25903946D01*
X16290054Y26225853D01*
X16510000Y26555026D01*
X16729946Y26225853D01*
X17211715Y25903946D01*
X17780000Y25790907D01*
X18348285Y25903946D01*
X18830054Y26225853D01*
X19057702Y26566553D01*
X19124817Y26423642D01*
X19553076Y26033355D01*
X19963110Y25863524D01*
X20193000Y25984845D01*
X20193000Y27178000D01*
X20447000Y27178000D01*
X20447000Y25984845D01*
X20676890Y25863524D01*
X21086924Y26033355D01*
X21515183Y26423642D01*
X21761486Y26948108D01*
X21640819Y27178000D01*
X20447000Y27178000D01*
X20193000Y27178000D01*
X20173000Y27178000D01*
X20173000Y27432000D01*
X20193000Y27432000D01*
X20193000Y28625155D01*
X20447000Y28625155D01*
X20447000Y27432000D01*
X21640819Y27432000D01*
X21761486Y27661892D01*
X21515183Y28186358D01*
X21086924Y28576645D01*
X20676890Y28746476D01*
X20447000Y28625155D01*
X20193000Y28625155D01*
X19963110Y28746476D01*
X19553076Y28576645D01*
X19124817Y28186358D01*
X19057702Y28043447D01*
X18830054Y28384147D01*
X18348285Y28706054D01*
X17780000Y28819093D01*
X17211715Y28706054D01*
X16729946Y28384147D01*
X16510000Y28054974D01*
X16290054Y28384147D01*
X15922824Y28629522D01*
X17770501Y30477199D01*
X17935248Y30723760D01*
X17944846Y30772014D01*
X17993100Y31014600D01*
X17993100Y36989798D01*
X27459699Y27523199D01*
X27706261Y27358452D01*
X27997100Y27300600D01*
X35628937Y27300600D01*
X35661073Y27268408D01*
X36004601Y27125762D01*
X36376567Y27125438D01*
X36720343Y27267483D01*
X36983592Y27530273D01*
X37126238Y27873801D01*
X37126562Y28245767D01*
X36984517Y28589543D01*
X36721727Y28852792D01*
X36378199Y28995438D01*
X36006233Y28995762D01*
X35662457Y28853717D01*
X35629282Y28820600D01*
X28311902Y28820600D01*
X24930202Y32202300D01*
X31734400Y32202300D01*
X32025239Y32260152D01*
X32271801Y32424899D01*
X32316480Y32469578D01*
X32361967Y32469538D01*
X32705743Y32611583D01*
X32968992Y32874373D01*
X33111638Y33217901D01*
X33111655Y33237844D01*
X33439443Y33373283D01*
X33702692Y33636073D01*
X33765989Y33788509D01*
X36006599Y31547899D01*
X36253161Y31383152D01*
X36315049Y31370842D01*
X36335446Y31268301D01*
X36798228Y30575699D01*
X37490830Y30112917D01*
X38307809Y29950410D01*
X40432191Y29950410D01*
X41249170Y30112917D01*
X41941772Y30575699D01*
X42404554Y31268301D01*
X42567061Y32085280D01*
X42404554Y32902259D01*
X41941772Y33594861D01*
X41249170Y34057643D01*
X41211128Y34065210D01*
X41249170Y34072777D01*
X41941772Y34535559D01*
X42404554Y35228161D01*
X42567061Y36045140D01*
X42404554Y36862119D01*
X41941772Y37554721D01*
X41249170Y38017503D01*
X41211128Y38025070D01*
X41249170Y38032637D01*
X41941772Y38495419D01*
X42404554Y39188021D01*
X42567061Y40005000D01*
X42404554Y40821979D01*
X41941772Y41514581D01*
X41249170Y41977363D01*
X41211128Y41984930D01*
X41249170Y41992497D01*
X41941772Y42455279D01*
X42404554Y43147881D01*
X42567061Y43964860D01*
X42404554Y44781839D01*
X41941772Y45474441D01*
X41751967Y45601265D01*
X42733501Y46582799D01*
X42898248Y46829361D01*
X42956100Y47120200D01*
X42956100Y48722200D01*
X42898248Y49013039D01*
X42898248Y49013040D01*
X42733501Y49259601D01*
X41669001Y50324101D01*
X41422439Y50488848D01*
X41131600Y50546700D01*
X18801600Y50546700D01*
X18510761Y50488848D01*
X18264199Y50324101D01*
X17937920Y49997822D01*
X17892433Y49997862D01*
X17548657Y49855817D01*
X17285408Y49593027D01*
X17142762Y49249499D01*
X17142438Y48877533D01*
X17284483Y48533757D01*
X17547273Y48270508D01*
X17890801Y48127862D01*
X18262767Y48127538D01*
X18606543Y48269583D01*
X18869792Y48532373D01*
X19012438Y48875901D01*
X19012479Y48922777D01*
X19116402Y49026700D01*
X20977298Y49026700D01*
X20708854Y48973303D01*
X20340634Y48727266D01*
X18516461Y46903093D01*
X18479127Y46940492D01*
X18135599Y47083138D01*
X18088723Y47083179D01*
X17454101Y47717801D01*
X17207539Y47882548D01*
X16916700Y47940400D01*
X12512500Y47940400D01*
X12221661Y47882548D01*
X11975099Y47717801D01*
X11766420Y47509122D01*
X11720933Y47509162D01*
X11377157Y47367117D01*
X11113908Y47104327D01*
X10971262Y46760799D01*
X10970938Y46388833D01*
X11112983Y46045057D01*
X11375773Y45781808D01*
X11719301Y45639162D01*
X12091267Y45638838D01*
X12435043Y45780883D01*
X12698292Y46043673D01*
X12840938Y46387201D01*
X12840967Y46420400D01*
X14970268Y46420400D01*
X14437434Y45887566D01*
X14191397Y45519346D01*
X14105000Y45085000D01*
X14105000Y38423618D01*
X13926499Y38497738D01*
X13554533Y38498062D01*
X13210757Y38356017D01*
X13177582Y38322900D01*
X10058800Y38322900D01*
X9767960Y38265048D01*
X9521399Y38100301D01*
X8562766Y37141668D01*
X8286772Y37554721D01*
X7594170Y38017503D01*
X7556128Y38025070D01*
X7594170Y38032637D01*
X8286772Y38495419D01*
X8749554Y39188021D01*
X8912061Y40005000D01*
X8749554Y40821979D01*
X8286772Y41514581D01*
X7594170Y41977363D01*
X7556128Y41984930D01*
X7594170Y41992497D01*
X8286772Y42455279D01*
X8749554Y43147881D01*
X8912061Y43964860D01*
X8749554Y44781839D01*
X8286772Y45474441D01*
X7594170Y45937223D01*
X7556128Y45944790D01*
X7594170Y45952357D01*
X8286772Y46415139D01*
X8749554Y47107741D01*
X8912061Y47924720D01*
X8749554Y48741699D01*
X8286772Y49434301D01*
X7594170Y49897083D01*
X6777191Y50059590D01*
X4652809Y50059590D01*
X3835830Y49897083D01*
X3143228Y49434301D01*
X2680446Y48741699D01*
X2517939Y47924720D01*
X2680446Y47107741D01*
X3143228Y46415139D01*
X3835830Y45952357D01*
X3873872Y45944790D01*
X3835830Y45937223D01*
X3143228Y45474441D01*
X2680446Y44781839D01*
X2517939Y43964860D01*
X2680446Y43147881D01*
X3143228Y42455279D01*
X3835830Y41992497D01*
X3873872Y41984930D01*
X3835830Y41977363D01*
X3143228Y41514581D01*
X2680446Y40821979D01*
X2517939Y40005000D01*
X2680446Y39188021D01*
X3143228Y38495419D01*
X3835830Y38032637D01*
X3873872Y38025070D01*
X3835830Y38017503D01*
X3143228Y37554721D01*
X2680446Y36862119D01*
X2517939Y36045140D01*
X2680446Y35228161D01*
X3143228Y34535559D01*
X3835830Y34072777D01*
X3873872Y34065210D01*
X3835830Y34057643D01*
X3143228Y33594861D01*
X2680446Y32902259D01*
X2517939Y32085280D01*
X2680446Y31268301D01*
X3143228Y30575699D01*
X3835830Y30112917D01*
X4652809Y29950410D01*
X6777191Y29950410D01*
X7594170Y30112917D01*
X8286772Y30575699D01*
X8537072Y30950300D01*
X11565000Y30950300D01*
X11565000Y28465163D01*
X11474090Y28606441D01*
X11261890Y28751431D01*
X11010000Y28802440D01*
X9310000Y28802440D01*
X9074683Y28758162D01*
X8858559Y28619090D01*
X8713569Y28406890D01*
X8662560Y28155000D01*
X8662560Y26455000D01*
X8706838Y26219683D01*
X8845910Y26003559D01*
X9058110Y25858569D01*
X9310000Y25807560D01*
X11010000Y25807560D01*
X11245317Y25851838D01*
X11306737Y25891361D01*
X11605799Y25592299D01*
X11852361Y25427552D01*
X12143200Y25369700D01*
X13279400Y25369700D01*
X13279400Y17315953D01*
X13157199Y17234301D01*
X11665320Y15742422D01*
X11619833Y15742462D01*
X11276057Y15600417D01*
X11012808Y15337627D01*
X10870162Y14994099D01*
X10869838Y14622133D01*
X11011883Y14278357D01*
X11274673Y14015108D01*
X11618201Y13872462D01*
X11990167Y13872138D01*
X12333943Y14014183D01*
X12597192Y14276973D01*
X12739838Y14620501D01*
X12739879Y14667377D01*
X13867000Y15794498D01*
X15585499Y14075999D01*
X15832061Y13911252D01*
X16122900Y13853400D01*
X17312146Y13853400D01*
X16932086Y13474003D01*
X16690276Y12891659D01*
X16689725Y12261107D01*
X16930519Y11678343D01*
X17331760Y11276400D01*
X7227618Y11276400D01*
X7627914Y11675997D01*
X7869724Y12258341D01*
X7870275Y12888893D01*
X7629481Y13471657D01*
X7184003Y13917914D01*
X6601659Y14159724D01*
X5971107Y14160275D01*
X5388343Y13919481D01*
X4942086Y13474003D01*
X4700276Y12891659D01*
X4699725Y12261107D01*
X4940519Y11678343D01*
X5384659Y11233426D01*
X5328995Y11222354D01*
X5098654Y11068446D01*
X4944746Y10838105D01*
X4890700Y10566400D01*
X4890700Y837000D01*
X684600Y837000D01*
X684600Y5081255D01*
X3110860Y5081255D01*
X3141803Y4871288D01*
X3551948Y4736774D01*
X3982349Y4769454D01*
X4228197Y4871288D01*
X4259140Y5081255D01*
X3685000Y5655395D01*
X3110860Y5081255D01*
X684600Y5081255D01*
X684600Y5968052D01*
X2586774Y5968052D01*
X2619454Y5537651D01*
X2721288Y5291803D01*
X2931255Y5260860D01*
X3505395Y5835000D01*
X3864605Y5835000D01*
X4438745Y5260860D01*
X4648712Y5291803D01*
X4783226Y5701948D01*
X4750546Y6132349D01*
X4648712Y6378197D01*
X4438745Y6409140D01*
X3864605Y5835000D01*
X3505395Y5835000D01*
X2931255Y6409140D01*
X2721288Y6378197D01*
X2586774Y5968052D01*
X684600Y5968052D01*
X684600Y6588745D01*
X3110860Y6588745D01*
X3685000Y6014605D01*
X4259140Y6588745D01*
X4228197Y6798712D01*
X3818052Y6933226D01*
X3387651Y6900546D01*
X3141803Y6798712D01*
X3110860Y6588745D01*
X684600Y6588745D01*
X684600Y54970715D01*
X12079760Y54970715D01*
X12290169Y54461485D01*
X12679436Y54071539D01*
X12911870Y53975024D01*
X12681485Y53879831D01*
X12291539Y53490564D01*
X12080241Y52981702D01*
X12079760Y52430715D01*
X12290169Y51921485D01*
X12679436Y51531539D01*
X13188298Y51320241D01*
X13739285Y51319760D01*
X14248515Y51530169D01*
X14638461Y51919436D01*
X14849759Y52428298D01*
X14850240Y52979285D01*
X14639831Y53488515D01*
X14250564Y53878461D01*
X14018130Y53974976D01*
X14248515Y54070169D01*
X14638461Y54459436D01*
X14849759Y54968298D01*
X14849761Y54970715D01*
X18429760Y54970715D01*
X18640169Y54461485D01*
X19029436Y54071539D01*
X19261870Y53975024D01*
X19031485Y53879831D01*
X18641539Y53490564D01*
X18430241Y52981702D01*
X18429760Y52430715D01*
X18640169Y51921485D01*
X19029436Y51531539D01*
X19538298Y51320241D01*
X20089285Y51319760D01*
X20598515Y51530169D01*
X20988461Y51919436D01*
X21199759Y52428298D01*
X21200240Y52979285D01*
X20989831Y53488515D01*
X20600564Y53878461D01*
X20368130Y53974976D01*
X20598515Y54070169D01*
X20988461Y54459436D01*
X21199759Y54968298D01*
X21199761Y54970715D01*
X24779760Y54970715D01*
X24990169Y54461485D01*
X25379436Y54071539D01*
X25611870Y53975024D01*
X25381485Y53879831D01*
X24991539Y53490564D01*
X24780241Y52981702D01*
X24779760Y52430715D01*
X24990169Y51921485D01*
X25379436Y51531539D01*
X25888298Y51320241D01*
X26439285Y51319760D01*
X26948515Y51530169D01*
X27338461Y51919436D01*
X27549759Y52428298D01*
X27550240Y52979285D01*
X27339831Y53488515D01*
X26950564Y53878461D01*
X26718130Y53974976D01*
X26948515Y54070169D01*
X26988415Y54110000D01*
X31691042Y54110000D01*
X31729436Y54071539D01*
X31961870Y53975024D01*
X31731485Y53879831D01*
X31341539Y53490564D01*
X31130241Y52981702D01*
X31129760Y52430715D01*
X31340169Y51921485D01*
X31729436Y51531539D01*
X32238298Y51320241D01*
X32789285Y51319760D01*
X33298515Y51530169D01*
X33688461Y51919436D01*
X33899759Y52428298D01*
X33900240Y52979285D01*
X33689831Y53488515D01*
X33300564Y53878461D01*
X33068130Y53974976D01*
X33298515Y54070169D01*
X33688461Y54459436D01*
X33899759Y54968298D01*
X33900240Y55519285D01*
X33689831Y56028515D01*
X33300564Y56418461D01*
X32791702Y56629759D01*
X32240715Y56630240D01*
X31731485Y56419831D01*
X31691585Y56380000D01*
X26988958Y56380000D01*
X26950564Y56418461D01*
X26441702Y56629759D01*
X25890715Y56630240D01*
X25381485Y56419831D01*
X24991539Y56030564D01*
X24780241Y55521702D01*
X24779760Y54970715D01*
X21199761Y54970715D01*
X21200240Y55519285D01*
X20989831Y56028515D01*
X20600564Y56418461D01*
X20091702Y56629759D01*
X19540715Y56630240D01*
X19031485Y56419831D01*
X18641539Y56030564D01*
X18430241Y55521702D01*
X18429760Y54970715D01*
X14849761Y54970715D01*
X14850240Y55519285D01*
X14639831Y56028515D01*
X14250564Y56418461D01*
X13741702Y56629759D01*
X13190715Y56630240D01*
X12681485Y56419831D01*
X12291539Y56030564D01*
X12080241Y55521702D01*
X12079760Y54970715D01*
X684600Y54970715D01*
X684600Y57658000D01*
X45289400Y57658000D01*
X45289400Y849700D01*
G36*
X21268899Y10726699D02*
X21515461Y10561952D01*
X21806300Y10504100D01*
X24575700Y10504100D01*
X24575700Y849700D01*
X19760000Y849700D01*
X19760000Y5081255D01*
X20210860Y5081255D01*
X20241803Y4871288D01*
X20651948Y4736774D01*
X21082349Y4769454D01*
X21328197Y4871288D01*
X21359140Y5081255D01*
X22795860Y5081255D01*
X22826803Y4871288D01*
X23236948Y4736774D01*
X23667349Y4769454D01*
X23913197Y4871288D01*
X23944140Y5081255D01*
X23370000Y5655395D01*
X22795860Y5081255D01*
X21359140Y5081255D01*
X20785000Y5655395D01*
X20210860Y5081255D01*
X19760000Y5081255D01*
X19760000Y5439765D01*
X19821288Y5291803D01*
X20031255Y5260860D01*
X20605395Y5835000D01*
X20964605Y5835000D01*
X21538745Y5260860D01*
X21748712Y5291803D01*
X21883226Y5701948D01*
X21863021Y5968052D01*
X22271774Y5968052D01*
X22304454Y5537651D01*
X22406288Y5291803D01*
X22616255Y5260860D01*
X23190395Y5835000D01*
X23549605Y5835000D01*
X24123745Y5260860D01*
X24333712Y5291803D01*
X24468226Y5701948D01*
X24435546Y6132349D01*
X24333712Y6378197D01*
X24123745Y6409140D01*
X23549605Y5835000D01*
X23190395Y5835000D01*
X22616255Y6409140D01*
X22406288Y6378197D01*
X22271774Y5968052D01*
X21863021Y5968052D01*
X21850546Y6132349D01*
X21748712Y6378197D01*
X21538745Y6409140D01*
X20964605Y5835000D01*
X20605395Y5835000D01*
X20031255Y6409140D01*
X19821288Y6378197D01*
X19760000Y6191325D01*
X19760000Y6588745D01*
X20210860Y6588745D01*
X20785000Y6014605D01*
X21359140Y6588745D01*
X22795860Y6588745D01*
X23370000Y6014605D01*
X23944140Y6588745D01*
X23913197Y6798712D01*
X23503052Y6933226D01*
X23072651Y6900546D01*
X22826803Y6798712D01*
X22795860Y6588745D01*
X21359140Y6588745D01*
X21328197Y6798712D01*
X20918052Y6933226D01*
X20487651Y6900546D01*
X20241803Y6798712D01*
X20210860Y6588745D01*
X19760000Y6588745D01*
X19760000Y10566400D01*
X19705954Y10838105D01*
X19552046Y11068446D01*
X19321705Y11222354D01*
X19189768Y11248598D01*
X19617914Y11675997D01*
X19823792Y12171806D01*
X21268899Y10726699D01*
X21268899Y10726699D01*
G37*
X21268899Y10726699D02*
X21515461Y10561952D01*
X21806300Y10504100D01*
X24575700Y10504100D01*
X24575700Y849700D01*
X19760000Y849700D01*
X19760000Y5081255D01*
X20210860Y5081255D01*
X20241803Y4871288D01*
X20651948Y4736774D01*
X21082349Y4769454D01*
X21328197Y4871288D01*
X21359140Y5081255D01*
X22795860Y5081255D01*
X22826803Y4871288D01*
X23236948Y4736774D01*
X23667349Y4769454D01*
X23913197Y4871288D01*
X23944140Y5081255D01*
X23370000Y5655395D01*
X22795860Y5081255D01*
X21359140Y5081255D01*
X20785000Y5655395D01*
X20210860Y5081255D01*
X19760000Y5081255D01*
X19760000Y5439765D01*
X19821288Y5291803D01*
X20031255Y5260860D01*
X20605395Y5835000D01*
X20964605Y5835000D01*
X21538745Y5260860D01*
X21748712Y5291803D01*
X21883226Y5701948D01*
X21863021Y5968052D01*
X22271774Y5968052D01*
X22304454Y5537651D01*
X22406288Y5291803D01*
X22616255Y5260860D01*
X23190395Y5835000D01*
X23549605Y5835000D01*
X24123745Y5260860D01*
X24333712Y5291803D01*
X24468226Y5701948D01*
X24435546Y6132349D01*
X24333712Y6378197D01*
X24123745Y6409140D01*
X23549605Y5835000D01*
X23190395Y5835000D01*
X22616255Y6409140D01*
X22406288Y6378197D01*
X22271774Y5968052D01*
X21863021Y5968052D01*
X21850546Y6132349D01*
X21748712Y6378197D01*
X21538745Y6409140D01*
X20964605Y5835000D01*
X20605395Y5835000D01*
X20031255Y6409140D01*
X19821288Y6378197D01*
X19760000Y6191325D01*
X19760000Y6588745D01*
X20210860Y6588745D01*
X20785000Y6014605D01*
X21359140Y6588745D01*
X22795860Y6588745D01*
X23370000Y6014605D01*
X23944140Y6588745D01*
X23913197Y6798712D01*
X23503052Y6933226D01*
X23072651Y6900546D01*
X22826803Y6798712D01*
X22795860Y6588745D01*
X21359140Y6588745D01*
X21328197Y6798712D01*
X20918052Y6933226D01*
X20487651Y6900546D01*
X20241803Y6798712D01*
X20210860Y6588745D01*
X19760000Y6588745D01*
X19760000Y10566400D01*
X19705954Y10838105D01*
X19552046Y11068446D01*
X19321705Y11222354D01*
X19189768Y11248598D01*
X19617914Y11675997D01*
X19823792Y12171806D01*
X21268899Y10726699D01*
M02*
