M48
;DRILL file {KiCad 4.0.4-stable} date 06/11/17 19:28:44
;FORMAT={-:-/ absolute / inch / decimal}
FMAT,2
INCH,TZ
T1C0.016
T2C0.031
T3C0.039
T4C0.047
T5C0.071
T6C0.075
%
G90
G05
M72
T1
X0.4648Y0.583
X0.4687Y1.8336
X0.5409Y1.4789
X0.6Y1.475
X0.65Y1.825
X0.7066Y1.8169
X0.7117Y1.9316
X0.7157Y1.6847
X0.7162Y1.5616
X0.7522Y0.5498
X0.8075Y1.4402
X0.8849Y1.3609
X0.9433Y1.3401
X0.9619Y1.4911
X0.9878Y1.3553
X1.1685Y1.4172
X1.1689Y1.3742
X1.193Y1.323
X1.2343Y1.4714
X1.2398Y0.5753
X1.2657Y1.5695
X1.2668Y1.3151
X1.2957Y1.3451
X1.2972Y1.6855
X1.3602Y0.4435
X1.4249Y1.1047
T2
X0.1451Y0.2297
X0.5301Y2.875
X0.5301Y2.575
X0.5301Y2.175
X0.5301Y2.075
X0.7801Y2.875
X0.7801Y2.575
X0.7801Y2.175
X0.7801Y2.075
X0.8183Y0.2297
X0.9201Y0.2297
X1.0301Y2.875
X1.0301Y2.575
X1.0301Y2.175
X1.0301Y2.075
X1.2801Y2.875
X1.2801Y2.575
X1.2801Y2.175
X1.2801Y2.075
X1.5933Y0.2297
T3
X0.4Y1.075
X0.5Y1.075
X0.6Y1.075
X0.7Y1.075
X0.8Y1.075
T4
X0.45Y3.1516
X0.65Y3.1516
X0.85Y3.1516
X1.05Y3.1516
X1.25Y3.15
T5
X0.225Y1.8868
X0.225Y1.7309
X0.225Y1.575
X0.225Y1.4191
X0.225Y1.2632
X1.55Y1.8868
X1.55Y1.7309
X1.55Y1.575
X1.55Y1.4191
X1.55Y1.2632
T6
X0.2474Y0.4951
X0.7195Y0.4951
X1.0224Y0.4951
X1.4945Y0.4951
T0
M30
