M48
;DRILL file {Pcbnew (2013-07-07 BZR 4022)-stable} date 13/04/2014 11:11:07 PM
;FORMAT={-:-/ absolute / inch / decimal}
FMAT,2
INCH,TZ
T1C0.032
T2C0.035
%
G90
G05
M72
T1
X4.4893Y-5.26
X4.56Y-5.1893
X4.6307Y-5.26
T2
X3.99Y-5.265
X3.99Y-5.365
X3.99Y-5.465
X3.99Y-5.565
X4.09Y-5.315
X4.09Y-5.415
X4.09Y-5.515
X4.09Y-5.615
X4.445Y-5.51
X4.495Y-5.41
X4.545Y-5.51
X4.595Y-5.41
X4.645Y-5.51
X4.695Y-5.41
X4.745Y-5.51
X4.795Y-5.41
X5.09Y-5.265
X5.09Y-5.365
X5.09Y-5.465
X5.09Y-5.565
X5.19Y-5.315
X5.19Y-5.415
X5.19Y-5.515
X5.19Y-5.615
T0
M30
