G04 #@! TF.FileFunction,Legend,Top*
%FSLAX46Y46*%
G04 Gerber Fmt 4.6, Leading zero omitted, Abs format (unit mm)*
G04 Created by KiCad (PCBNEW 4.0.4-stable) date 03/09/17 09:34:18*
%MOMM*%
%LPD*%
G01*
G04 APERTURE LIST*
%ADD10C,0.100000*%
%ADD11C,0.150000*%
%ADD12C,0.300000*%
%ADD13C,0.310000*%
%ADD14C,0.120000*%
G04 APERTURE END LIST*
D10*
D11*
X56705476Y-76034762D02*
X56848333Y-76082381D01*
X57086429Y-76082381D01*
X57181667Y-76034762D01*
X57229286Y-75987143D01*
X57276905Y-75891905D01*
X57276905Y-75796667D01*
X57229286Y-75701429D01*
X57181667Y-75653810D01*
X57086429Y-75606190D01*
X56895952Y-75558571D01*
X56800714Y-75510952D01*
X56753095Y-75463333D01*
X56705476Y-75368095D01*
X56705476Y-75272857D01*
X56753095Y-75177619D01*
X56800714Y-75130000D01*
X56895952Y-75082381D01*
X57134048Y-75082381D01*
X57276905Y-75130000D01*
X57610238Y-75415714D02*
X57800714Y-76082381D01*
X57991191Y-75606190D01*
X58181667Y-76082381D01*
X58372143Y-75415714D01*
X58753095Y-76082381D02*
X58753095Y-75415714D01*
X58753095Y-75082381D02*
X58705476Y-75130000D01*
X58753095Y-75177619D01*
X58800714Y-75130000D01*
X58753095Y-75082381D01*
X58753095Y-75177619D01*
X59086428Y-75415714D02*
X59467380Y-75415714D01*
X59229285Y-75082381D02*
X59229285Y-75939524D01*
X59276904Y-76034762D01*
X59372142Y-76082381D01*
X59467380Y-76082381D01*
X60229286Y-76034762D02*
X60134048Y-76082381D01*
X59943571Y-76082381D01*
X59848333Y-76034762D01*
X59800714Y-75987143D01*
X59753095Y-75891905D01*
X59753095Y-75606190D01*
X59800714Y-75510952D01*
X59848333Y-75463333D01*
X59943571Y-75415714D01*
X60134048Y-75415714D01*
X60229286Y-75463333D01*
X60657857Y-76082381D02*
X60657857Y-75082381D01*
X61086429Y-76082381D02*
X61086429Y-75558571D01*
X61038810Y-75463333D01*
X60943572Y-75415714D01*
X60800714Y-75415714D01*
X60705476Y-75463333D01*
X60657857Y-75510952D01*
X62324524Y-76082381D02*
X62324524Y-75082381D01*
X62705477Y-75082381D01*
X62800715Y-75130000D01*
X62848334Y-75177619D01*
X62895953Y-75272857D01*
X62895953Y-75415714D01*
X62848334Y-75510952D01*
X62800715Y-75558571D01*
X62705477Y-75606190D01*
X62324524Y-75606190D01*
X63324524Y-76082381D02*
X63324524Y-75415714D01*
X63324524Y-75082381D02*
X63276905Y-75130000D01*
X63324524Y-75177619D01*
X63372143Y-75130000D01*
X63324524Y-75082381D01*
X63324524Y-75177619D01*
X63800714Y-75415714D02*
X63800714Y-76082381D01*
X63800714Y-75510952D02*
X63848333Y-75463333D01*
X63943571Y-75415714D01*
X64086429Y-75415714D01*
X64181667Y-75463333D01*
X64229286Y-75558571D01*
X64229286Y-76082381D01*
X64848333Y-76082381D02*
X64753095Y-76034762D01*
X64705476Y-75987143D01*
X64657857Y-75891905D01*
X64657857Y-75606190D01*
X64705476Y-75510952D01*
X64753095Y-75463333D01*
X64848333Y-75415714D01*
X64991191Y-75415714D01*
X65086429Y-75463333D01*
X65134048Y-75510952D01*
X65181667Y-75606190D01*
X65181667Y-75891905D01*
X65134048Y-75987143D01*
X65086429Y-76034762D01*
X64991191Y-76082381D01*
X64848333Y-76082381D01*
X66038810Y-75415714D02*
X66038810Y-76082381D01*
X65610238Y-75415714D02*
X65610238Y-75939524D01*
X65657857Y-76034762D01*
X65753095Y-76082381D01*
X65895953Y-76082381D01*
X65991191Y-76034762D01*
X66038810Y-75987143D01*
X66372143Y-75415714D02*
X66753095Y-75415714D01*
X66515000Y-75082381D02*
X66515000Y-75939524D01*
X66562619Y-76034762D01*
X66657857Y-76082381D01*
X66753095Y-76082381D01*
X67086429Y-75987143D02*
X67134048Y-76034762D01*
X67086429Y-76082381D01*
X67038810Y-76034762D01*
X67086429Y-75987143D01*
X67086429Y-76082381D01*
X67086429Y-75463333D02*
X67134048Y-75510952D01*
X67086429Y-75558571D01*
X67038810Y-75510952D01*
X67086429Y-75463333D01*
X67086429Y-75558571D01*
X57276905Y-77732381D02*
X56705476Y-77732381D01*
X56991190Y-77732381D02*
X56991190Y-76732381D01*
X56895952Y-76875238D01*
X56800714Y-76970476D01*
X56705476Y-77018095D01*
X57705476Y-77637143D02*
X57753095Y-77684762D01*
X57705476Y-77732381D01*
X57657857Y-77684762D01*
X57705476Y-77637143D01*
X57705476Y-77732381D01*
X57705476Y-77113333D02*
X57753095Y-77160952D01*
X57705476Y-77208571D01*
X57657857Y-77160952D01*
X57705476Y-77113333D01*
X57705476Y-77208571D01*
X61753096Y-76780000D02*
X61657858Y-76732381D01*
X61515001Y-76732381D01*
X61372143Y-76780000D01*
X61276905Y-76875238D01*
X61229286Y-76970476D01*
X61181667Y-77160952D01*
X61181667Y-77303810D01*
X61229286Y-77494286D01*
X61276905Y-77589524D01*
X61372143Y-77684762D01*
X61515001Y-77732381D01*
X61610239Y-77732381D01*
X61753096Y-77684762D01*
X61800715Y-77637143D01*
X61800715Y-77303810D01*
X61610239Y-77303810D01*
X62229286Y-77065714D02*
X62229286Y-77732381D01*
X62229286Y-77160952D02*
X62276905Y-77113333D01*
X62372143Y-77065714D01*
X62515001Y-77065714D01*
X62610239Y-77113333D01*
X62657858Y-77208571D01*
X62657858Y-77732381D01*
X63562620Y-77732381D02*
X63562620Y-76732381D01*
X63562620Y-77684762D02*
X63467382Y-77732381D01*
X63276905Y-77732381D01*
X63181667Y-77684762D01*
X63134048Y-77637143D01*
X63086429Y-77541905D01*
X63086429Y-77256190D01*
X63134048Y-77160952D01*
X63181667Y-77113333D01*
X63276905Y-77065714D01*
X63467382Y-77065714D01*
X63562620Y-77113333D01*
X56705476Y-78477619D02*
X56753095Y-78430000D01*
X56848333Y-78382381D01*
X57086429Y-78382381D01*
X57181667Y-78430000D01*
X57229286Y-78477619D01*
X57276905Y-78572857D01*
X57276905Y-78668095D01*
X57229286Y-78810952D01*
X56657857Y-79382381D01*
X57276905Y-79382381D01*
X57705476Y-79001429D02*
X58467381Y-79001429D01*
X58848333Y-78382381D02*
X59515000Y-78382381D01*
X59086428Y-79382381D01*
X59895952Y-79287143D02*
X59943571Y-79334762D01*
X59895952Y-79382381D01*
X59848333Y-79334762D01*
X59895952Y-79287143D01*
X59895952Y-79382381D01*
X59895952Y-78763333D02*
X59943571Y-78810952D01*
X59895952Y-78858571D01*
X59848333Y-78810952D01*
X59895952Y-78763333D01*
X59895952Y-78858571D01*
X61086428Y-79334762D02*
X61229285Y-79382381D01*
X61467381Y-79382381D01*
X61562619Y-79334762D01*
X61610238Y-79287143D01*
X61657857Y-79191905D01*
X61657857Y-79096667D01*
X61610238Y-79001429D01*
X61562619Y-78953810D01*
X61467381Y-78906190D01*
X61276904Y-78858571D01*
X61181666Y-78810952D01*
X61134047Y-78763333D01*
X61086428Y-78668095D01*
X61086428Y-78572857D01*
X61134047Y-78477619D01*
X61181666Y-78430000D01*
X61276904Y-78382381D01*
X61515000Y-78382381D01*
X61657857Y-78430000D01*
X61991190Y-78715714D02*
X62181666Y-79382381D01*
X62372143Y-78906190D01*
X62562619Y-79382381D01*
X62753095Y-78715714D01*
X63134047Y-79382381D02*
X63134047Y-78715714D01*
X63134047Y-78382381D02*
X63086428Y-78430000D01*
X63134047Y-78477619D01*
X63181666Y-78430000D01*
X63134047Y-78382381D01*
X63134047Y-78477619D01*
X63467380Y-78715714D02*
X63848332Y-78715714D01*
X63610237Y-78382381D02*
X63610237Y-79239524D01*
X63657856Y-79334762D01*
X63753094Y-79382381D01*
X63848332Y-79382381D01*
X64610238Y-79334762D02*
X64515000Y-79382381D01*
X64324523Y-79382381D01*
X64229285Y-79334762D01*
X64181666Y-79287143D01*
X64134047Y-79191905D01*
X64134047Y-78906190D01*
X64181666Y-78810952D01*
X64229285Y-78763333D01*
X64324523Y-78715714D01*
X64515000Y-78715714D01*
X64610238Y-78763333D01*
X65038809Y-79382381D02*
X65038809Y-78382381D01*
X65467381Y-79382381D02*
X65467381Y-78858571D01*
X65419762Y-78763333D01*
X65324524Y-78715714D01*
X65181666Y-78715714D01*
X65086428Y-78763333D01*
X65038809Y-78810952D01*
X66895952Y-78382381D02*
X66991191Y-78382381D01*
X67086429Y-78430000D01*
X67134048Y-78477619D01*
X67181667Y-78572857D01*
X67229286Y-78763333D01*
X67229286Y-79001429D01*
X67181667Y-79191905D01*
X67134048Y-79287143D01*
X67086429Y-79334762D01*
X66991191Y-79382381D01*
X66895952Y-79382381D01*
X66800714Y-79334762D01*
X66753095Y-79287143D01*
X66705476Y-79191905D01*
X66657857Y-79001429D01*
X66657857Y-78763333D01*
X66705476Y-78572857D01*
X66753095Y-78477619D01*
X66800714Y-78430000D01*
X66895952Y-78382381D01*
X67657857Y-79001429D02*
X68419762Y-79001429D01*
X69372143Y-78382381D02*
X68895952Y-78382381D01*
X68848333Y-78858571D01*
X68895952Y-78810952D01*
X68991190Y-78763333D01*
X69229286Y-78763333D01*
X69324524Y-78810952D01*
X69372143Y-78858571D01*
X69419762Y-78953810D01*
X69419762Y-79191905D01*
X69372143Y-79287143D01*
X69324524Y-79334762D01*
X69229286Y-79382381D01*
X68991190Y-79382381D01*
X68895952Y-79334762D01*
X68848333Y-79287143D01*
X56895952Y-80460952D02*
X56800714Y-80413333D01*
X56753095Y-80365714D01*
X56705476Y-80270476D01*
X56705476Y-80222857D01*
X56753095Y-80127619D01*
X56800714Y-80080000D01*
X56895952Y-80032381D01*
X57086429Y-80032381D01*
X57181667Y-80080000D01*
X57229286Y-80127619D01*
X57276905Y-80222857D01*
X57276905Y-80270476D01*
X57229286Y-80365714D01*
X57181667Y-80413333D01*
X57086429Y-80460952D01*
X56895952Y-80460952D01*
X56800714Y-80508571D01*
X56753095Y-80556190D01*
X56705476Y-80651429D01*
X56705476Y-80841905D01*
X56753095Y-80937143D01*
X56800714Y-80984762D01*
X56895952Y-81032381D01*
X57086429Y-81032381D01*
X57181667Y-80984762D01*
X57229286Y-80937143D01*
X57276905Y-80841905D01*
X57276905Y-80651429D01*
X57229286Y-80556190D01*
X57181667Y-80508571D01*
X57086429Y-80460952D01*
X57705476Y-80937143D02*
X57753095Y-80984762D01*
X57705476Y-81032381D01*
X57657857Y-80984762D01*
X57705476Y-80937143D01*
X57705476Y-81032381D01*
X57705476Y-80413333D02*
X57753095Y-80460952D01*
X57705476Y-80508571D01*
X57657857Y-80460952D01*
X57705476Y-80413333D01*
X57705476Y-80508571D01*
X61229286Y-80651429D02*
X61991191Y-80651429D01*
X61610239Y-81032381D02*
X61610239Y-80270476D01*
X62943572Y-80032381D02*
X62467381Y-80032381D01*
X62419762Y-80508571D01*
X62467381Y-80460952D01*
X62562619Y-80413333D01*
X62800715Y-80413333D01*
X62895953Y-80460952D01*
X62943572Y-80508571D01*
X62991191Y-80603810D01*
X62991191Y-80841905D01*
X62943572Y-80937143D01*
X62895953Y-80984762D01*
X62800715Y-81032381D01*
X62562619Y-81032381D01*
X62467381Y-80984762D01*
X62419762Y-80937143D01*
X63276905Y-80032381D02*
X63610238Y-81032381D01*
X63943572Y-80032381D01*
D12*
X102882143Y-88308571D02*
X102025000Y-88308571D01*
X102453572Y-88308571D02*
X102453572Y-86808571D01*
X102310715Y-87022857D01*
X102167857Y-87165714D01*
X102025000Y-87237143D01*
X103382143Y-86808571D02*
X103739286Y-88308571D01*
X104025000Y-87237143D01*
X104310714Y-88308571D01*
X104667857Y-86808571D01*
X105239286Y-88308571D02*
X105239286Y-87308571D01*
X105239286Y-86808571D02*
X105167857Y-86880000D01*
X105239286Y-86951429D01*
X105310714Y-86880000D01*
X105239286Y-86808571D01*
X105239286Y-86951429D01*
X105953572Y-88308571D02*
X105953572Y-87308571D01*
X105953572Y-87594286D02*
X106025000Y-87451429D01*
X106096429Y-87380000D01*
X106239286Y-87308571D01*
X106382143Y-87308571D01*
X107453571Y-88237143D02*
X107310714Y-88308571D01*
X107025000Y-88308571D01*
X106882143Y-88237143D01*
X106810714Y-88094286D01*
X106810714Y-87522857D01*
X106882143Y-87380000D01*
X107025000Y-87308571D01*
X107310714Y-87308571D01*
X107453571Y-87380000D01*
X107525000Y-87522857D01*
X107525000Y-87665714D01*
X106810714Y-87808571D01*
X81292143Y-88308571D02*
X80435000Y-88308571D01*
X80863572Y-88308571D02*
X80863572Y-86808571D01*
X80720715Y-87022857D01*
X80577857Y-87165714D01*
X80435000Y-87237143D01*
X81792143Y-86808571D02*
X82149286Y-88308571D01*
X82435000Y-87237143D01*
X82720714Y-88308571D01*
X83077857Y-86808571D01*
X83649286Y-88308571D02*
X83649286Y-87308571D01*
X83649286Y-86808571D02*
X83577857Y-86880000D01*
X83649286Y-86951429D01*
X83720714Y-86880000D01*
X83649286Y-86808571D01*
X83649286Y-86951429D01*
X84363572Y-88308571D02*
X84363572Y-87308571D01*
X84363572Y-87594286D02*
X84435000Y-87451429D01*
X84506429Y-87380000D01*
X84649286Y-87308571D01*
X84792143Y-87308571D01*
X85863571Y-88237143D02*
X85720714Y-88308571D01*
X85435000Y-88308571D01*
X85292143Y-88237143D01*
X85220714Y-88094286D01*
X85220714Y-87522857D01*
X85292143Y-87380000D01*
X85435000Y-87308571D01*
X85720714Y-87308571D01*
X85863571Y-87380000D01*
X85935000Y-87522857D01*
X85935000Y-87665714D01*
X85220714Y-87808571D01*
X199950001Y-73068571D02*
X199950001Y-71568571D01*
X200521429Y-71568571D01*
X200664287Y-71640000D01*
X200735715Y-71711429D01*
X200807144Y-71854286D01*
X200807144Y-72068571D01*
X200735715Y-72211429D01*
X200664287Y-72282857D01*
X200521429Y-72354286D01*
X199950001Y-72354286D01*
X201664287Y-73068571D02*
X201521429Y-72997143D01*
X201450001Y-72925714D01*
X201378572Y-72782857D01*
X201378572Y-72354286D01*
X201450001Y-72211429D01*
X201521429Y-72140000D01*
X201664287Y-72068571D01*
X201878572Y-72068571D01*
X202021429Y-72140000D01*
X202092858Y-72211429D01*
X202164287Y-72354286D01*
X202164287Y-72782857D01*
X202092858Y-72925714D01*
X202021429Y-72997143D01*
X201878572Y-73068571D01*
X201664287Y-73068571D01*
X202807144Y-73068571D02*
X202807144Y-72068571D01*
X202807144Y-72354286D02*
X202878572Y-72211429D01*
X202950001Y-72140000D01*
X203092858Y-72068571D01*
X203235715Y-72068571D01*
X203521429Y-72068571D02*
X204092858Y-72068571D01*
X203735715Y-71568571D02*
X203735715Y-72854286D01*
X203807143Y-72997143D01*
X203950001Y-73068571D01*
X204092858Y-73068571D01*
X206021429Y-71568571D02*
X206164286Y-71568571D01*
X206307143Y-71640000D01*
X206378572Y-71711429D01*
X206450001Y-71854286D01*
X206521429Y-72140000D01*
X206521429Y-72497143D01*
X206450001Y-72782857D01*
X206378572Y-72925714D01*
X206307143Y-72997143D01*
X206164286Y-73068571D01*
X206021429Y-73068571D01*
X205878572Y-72997143D01*
X205807143Y-72925714D01*
X205735715Y-72782857D01*
X205664286Y-72497143D01*
X205664286Y-72140000D01*
X205735715Y-71854286D01*
X205807143Y-71711429D01*
X205878572Y-71640000D01*
X206021429Y-71568571D01*
X179630001Y-73068571D02*
X179630001Y-71568571D01*
X180201429Y-71568571D01*
X180344287Y-71640000D01*
X180415715Y-71711429D01*
X180487144Y-71854286D01*
X180487144Y-72068571D01*
X180415715Y-72211429D01*
X180344287Y-72282857D01*
X180201429Y-72354286D01*
X179630001Y-72354286D01*
X181344287Y-73068571D02*
X181201429Y-72997143D01*
X181130001Y-72925714D01*
X181058572Y-72782857D01*
X181058572Y-72354286D01*
X181130001Y-72211429D01*
X181201429Y-72140000D01*
X181344287Y-72068571D01*
X181558572Y-72068571D01*
X181701429Y-72140000D01*
X181772858Y-72211429D01*
X181844287Y-72354286D01*
X181844287Y-72782857D01*
X181772858Y-72925714D01*
X181701429Y-72997143D01*
X181558572Y-73068571D01*
X181344287Y-73068571D01*
X182487144Y-73068571D02*
X182487144Y-72068571D01*
X182487144Y-72354286D02*
X182558572Y-72211429D01*
X182630001Y-72140000D01*
X182772858Y-72068571D01*
X182915715Y-72068571D01*
X183201429Y-72068571D02*
X183772858Y-72068571D01*
X183415715Y-71568571D02*
X183415715Y-72854286D01*
X183487143Y-72997143D01*
X183630001Y-73068571D01*
X183772858Y-73068571D01*
X186201429Y-73068571D02*
X185344286Y-73068571D01*
X185772858Y-73068571D02*
X185772858Y-71568571D01*
X185630001Y-71782857D01*
X185487143Y-71925714D01*
X185344286Y-71997143D01*
X159310001Y-73068571D02*
X159310001Y-71568571D01*
X159881429Y-71568571D01*
X160024287Y-71640000D01*
X160095715Y-71711429D01*
X160167144Y-71854286D01*
X160167144Y-72068571D01*
X160095715Y-72211429D01*
X160024287Y-72282857D01*
X159881429Y-72354286D01*
X159310001Y-72354286D01*
X161024287Y-73068571D02*
X160881429Y-72997143D01*
X160810001Y-72925714D01*
X160738572Y-72782857D01*
X160738572Y-72354286D01*
X160810001Y-72211429D01*
X160881429Y-72140000D01*
X161024287Y-72068571D01*
X161238572Y-72068571D01*
X161381429Y-72140000D01*
X161452858Y-72211429D01*
X161524287Y-72354286D01*
X161524287Y-72782857D01*
X161452858Y-72925714D01*
X161381429Y-72997143D01*
X161238572Y-73068571D01*
X161024287Y-73068571D01*
X162167144Y-73068571D02*
X162167144Y-72068571D01*
X162167144Y-72354286D02*
X162238572Y-72211429D01*
X162310001Y-72140000D01*
X162452858Y-72068571D01*
X162595715Y-72068571D01*
X162881429Y-72068571D02*
X163452858Y-72068571D01*
X163095715Y-71568571D02*
X163095715Y-72854286D01*
X163167143Y-72997143D01*
X163310001Y-73068571D01*
X163452858Y-73068571D01*
X165024286Y-71711429D02*
X165095715Y-71640000D01*
X165238572Y-71568571D01*
X165595715Y-71568571D01*
X165738572Y-71640000D01*
X165810001Y-71711429D01*
X165881429Y-71854286D01*
X165881429Y-71997143D01*
X165810001Y-72211429D01*
X164952858Y-73068571D01*
X165881429Y-73068571D01*
X138990001Y-73068571D02*
X138990001Y-71568571D01*
X139561429Y-71568571D01*
X139704287Y-71640000D01*
X139775715Y-71711429D01*
X139847144Y-71854286D01*
X139847144Y-72068571D01*
X139775715Y-72211429D01*
X139704287Y-72282857D01*
X139561429Y-72354286D01*
X138990001Y-72354286D01*
X140704287Y-73068571D02*
X140561429Y-72997143D01*
X140490001Y-72925714D01*
X140418572Y-72782857D01*
X140418572Y-72354286D01*
X140490001Y-72211429D01*
X140561429Y-72140000D01*
X140704287Y-72068571D01*
X140918572Y-72068571D01*
X141061429Y-72140000D01*
X141132858Y-72211429D01*
X141204287Y-72354286D01*
X141204287Y-72782857D01*
X141132858Y-72925714D01*
X141061429Y-72997143D01*
X140918572Y-73068571D01*
X140704287Y-73068571D01*
X141847144Y-73068571D02*
X141847144Y-72068571D01*
X141847144Y-72354286D02*
X141918572Y-72211429D01*
X141990001Y-72140000D01*
X142132858Y-72068571D01*
X142275715Y-72068571D01*
X142561429Y-72068571D02*
X143132858Y-72068571D01*
X142775715Y-71568571D02*
X142775715Y-72854286D01*
X142847143Y-72997143D01*
X142990001Y-73068571D01*
X143132858Y-73068571D01*
X144632858Y-71568571D02*
X145561429Y-71568571D01*
X145061429Y-72140000D01*
X145275715Y-72140000D01*
X145418572Y-72211429D01*
X145490001Y-72282857D01*
X145561429Y-72425714D01*
X145561429Y-72782857D01*
X145490001Y-72925714D01*
X145418572Y-72997143D01*
X145275715Y-73068571D01*
X144847143Y-73068571D01*
X144704286Y-72997143D01*
X144632858Y-72925714D01*
X118670001Y-73068571D02*
X118670001Y-71568571D01*
X119241429Y-71568571D01*
X119384287Y-71640000D01*
X119455715Y-71711429D01*
X119527144Y-71854286D01*
X119527144Y-72068571D01*
X119455715Y-72211429D01*
X119384287Y-72282857D01*
X119241429Y-72354286D01*
X118670001Y-72354286D01*
X120384287Y-73068571D02*
X120241429Y-72997143D01*
X120170001Y-72925714D01*
X120098572Y-72782857D01*
X120098572Y-72354286D01*
X120170001Y-72211429D01*
X120241429Y-72140000D01*
X120384287Y-72068571D01*
X120598572Y-72068571D01*
X120741429Y-72140000D01*
X120812858Y-72211429D01*
X120884287Y-72354286D01*
X120884287Y-72782857D01*
X120812858Y-72925714D01*
X120741429Y-72997143D01*
X120598572Y-73068571D01*
X120384287Y-73068571D01*
X121527144Y-73068571D02*
X121527144Y-72068571D01*
X121527144Y-72354286D02*
X121598572Y-72211429D01*
X121670001Y-72140000D01*
X121812858Y-72068571D01*
X121955715Y-72068571D01*
X122241429Y-72068571D02*
X122812858Y-72068571D01*
X122455715Y-71568571D02*
X122455715Y-72854286D01*
X122527143Y-72997143D01*
X122670001Y-73068571D01*
X122812858Y-73068571D01*
X125098572Y-72068571D02*
X125098572Y-73068571D01*
X124741429Y-71497143D02*
X124384286Y-72568571D01*
X125312858Y-72568571D01*
X98350001Y-73068571D02*
X98350001Y-71568571D01*
X98921429Y-71568571D01*
X99064287Y-71640000D01*
X99135715Y-71711429D01*
X99207144Y-71854286D01*
X99207144Y-72068571D01*
X99135715Y-72211429D01*
X99064287Y-72282857D01*
X98921429Y-72354286D01*
X98350001Y-72354286D01*
X100064287Y-73068571D02*
X99921429Y-72997143D01*
X99850001Y-72925714D01*
X99778572Y-72782857D01*
X99778572Y-72354286D01*
X99850001Y-72211429D01*
X99921429Y-72140000D01*
X100064287Y-72068571D01*
X100278572Y-72068571D01*
X100421429Y-72140000D01*
X100492858Y-72211429D01*
X100564287Y-72354286D01*
X100564287Y-72782857D01*
X100492858Y-72925714D01*
X100421429Y-72997143D01*
X100278572Y-73068571D01*
X100064287Y-73068571D01*
X101207144Y-73068571D02*
X101207144Y-72068571D01*
X101207144Y-72354286D02*
X101278572Y-72211429D01*
X101350001Y-72140000D01*
X101492858Y-72068571D01*
X101635715Y-72068571D01*
X101921429Y-72068571D02*
X102492858Y-72068571D01*
X102135715Y-71568571D02*
X102135715Y-72854286D01*
X102207143Y-72997143D01*
X102350001Y-73068571D01*
X102492858Y-73068571D01*
X104850001Y-71568571D02*
X104135715Y-71568571D01*
X104064286Y-72282857D01*
X104135715Y-72211429D01*
X104278572Y-72140000D01*
X104635715Y-72140000D01*
X104778572Y-72211429D01*
X104850001Y-72282857D01*
X104921429Y-72425714D01*
X104921429Y-72782857D01*
X104850001Y-72925714D01*
X104778572Y-72997143D01*
X104635715Y-73068571D01*
X104278572Y-73068571D01*
X104135715Y-72997143D01*
X104064286Y-72925714D01*
X78030001Y-73068571D02*
X78030001Y-71568571D01*
X78601429Y-71568571D01*
X78744287Y-71640000D01*
X78815715Y-71711429D01*
X78887144Y-71854286D01*
X78887144Y-72068571D01*
X78815715Y-72211429D01*
X78744287Y-72282857D01*
X78601429Y-72354286D01*
X78030001Y-72354286D01*
X79744287Y-73068571D02*
X79601429Y-72997143D01*
X79530001Y-72925714D01*
X79458572Y-72782857D01*
X79458572Y-72354286D01*
X79530001Y-72211429D01*
X79601429Y-72140000D01*
X79744287Y-72068571D01*
X79958572Y-72068571D01*
X80101429Y-72140000D01*
X80172858Y-72211429D01*
X80244287Y-72354286D01*
X80244287Y-72782857D01*
X80172858Y-72925714D01*
X80101429Y-72997143D01*
X79958572Y-73068571D01*
X79744287Y-73068571D01*
X80887144Y-73068571D02*
X80887144Y-72068571D01*
X80887144Y-72354286D02*
X80958572Y-72211429D01*
X81030001Y-72140000D01*
X81172858Y-72068571D01*
X81315715Y-72068571D01*
X81601429Y-72068571D02*
X82172858Y-72068571D01*
X81815715Y-71568571D02*
X81815715Y-72854286D01*
X81887143Y-72997143D01*
X82030001Y-73068571D01*
X82172858Y-73068571D01*
X84458572Y-71568571D02*
X84172858Y-71568571D01*
X84030001Y-71640000D01*
X83958572Y-71711429D01*
X83815715Y-71925714D01*
X83744286Y-72211429D01*
X83744286Y-72782857D01*
X83815715Y-72925714D01*
X83887143Y-72997143D01*
X84030001Y-73068571D01*
X84315715Y-73068571D01*
X84458572Y-72997143D01*
X84530001Y-72925714D01*
X84601429Y-72782857D01*
X84601429Y-72425714D01*
X84530001Y-72282857D01*
X84458572Y-72211429D01*
X84315715Y-72140000D01*
X84030001Y-72140000D01*
X83887143Y-72211429D01*
X83815715Y-72282857D01*
X83744286Y-72425714D01*
X57710001Y-73068571D02*
X57710001Y-71568571D01*
X58281429Y-71568571D01*
X58424287Y-71640000D01*
X58495715Y-71711429D01*
X58567144Y-71854286D01*
X58567144Y-72068571D01*
X58495715Y-72211429D01*
X58424287Y-72282857D01*
X58281429Y-72354286D01*
X57710001Y-72354286D01*
X59424287Y-73068571D02*
X59281429Y-72997143D01*
X59210001Y-72925714D01*
X59138572Y-72782857D01*
X59138572Y-72354286D01*
X59210001Y-72211429D01*
X59281429Y-72140000D01*
X59424287Y-72068571D01*
X59638572Y-72068571D01*
X59781429Y-72140000D01*
X59852858Y-72211429D01*
X59924287Y-72354286D01*
X59924287Y-72782857D01*
X59852858Y-72925714D01*
X59781429Y-72997143D01*
X59638572Y-73068571D01*
X59424287Y-73068571D01*
X60567144Y-73068571D02*
X60567144Y-72068571D01*
X60567144Y-72354286D02*
X60638572Y-72211429D01*
X60710001Y-72140000D01*
X60852858Y-72068571D01*
X60995715Y-72068571D01*
X61281429Y-72068571D02*
X61852858Y-72068571D01*
X61495715Y-71568571D02*
X61495715Y-72854286D01*
X61567143Y-72997143D01*
X61710001Y-73068571D01*
X61852858Y-73068571D01*
X63352858Y-71568571D02*
X64352858Y-71568571D01*
X63710001Y-73068571D01*
D10*
X122245381Y-96892904D02*
X122245381Y-97464333D01*
X122245381Y-97178619D02*
X121245381Y-97178619D01*
X121388238Y-97273857D01*
X121483476Y-97369095D01*
X121531095Y-97464333D01*
X121245381Y-96559571D02*
X122245381Y-96321476D01*
X121531095Y-96130999D01*
X122245381Y-95940523D01*
X121245381Y-95702428D01*
X122245381Y-95321476D02*
X121578714Y-95321476D01*
X121245381Y-95321476D02*
X121293000Y-95369095D01*
X121340619Y-95321476D01*
X121293000Y-95273857D01*
X121245381Y-95321476D01*
X121340619Y-95321476D01*
X122245381Y-94845286D02*
X121578714Y-94845286D01*
X121769190Y-94845286D02*
X121673952Y-94797667D01*
X121626333Y-94750048D01*
X121578714Y-94654810D01*
X121578714Y-94559571D01*
X122197762Y-93845285D02*
X122245381Y-93940523D01*
X122245381Y-94131000D01*
X122197762Y-94226238D01*
X122102524Y-94273857D01*
X121721571Y-94273857D01*
X121626333Y-94226238D01*
X121578714Y-94131000D01*
X121578714Y-93940523D01*
X121626333Y-93845285D01*
X121721571Y-93797666D01*
X121816810Y-93797666D01*
X121912048Y-94273857D01*
X39115905Y-74570381D02*
X38544476Y-74570381D01*
X38830190Y-74570381D02*
X38830190Y-73570381D01*
X38734952Y-73713238D01*
X38639714Y-73808476D01*
X38544476Y-73856095D01*
X39449238Y-73570381D02*
X39687333Y-74570381D01*
X39877810Y-73856095D01*
X40068286Y-74570381D01*
X40306381Y-73570381D01*
X40687333Y-74570381D02*
X40687333Y-73903714D01*
X40687333Y-73570381D02*
X40639714Y-73618000D01*
X40687333Y-73665619D01*
X40734952Y-73618000D01*
X40687333Y-73570381D01*
X40687333Y-73665619D01*
X41163523Y-74570381D02*
X41163523Y-73903714D01*
X41163523Y-74094190D02*
X41211142Y-73998952D01*
X41258761Y-73951333D01*
X41353999Y-73903714D01*
X41449238Y-73903714D01*
X42163524Y-74522762D02*
X42068286Y-74570381D01*
X41877809Y-74570381D01*
X41782571Y-74522762D01*
X41734952Y-74427524D01*
X41734952Y-74046571D01*
X41782571Y-73951333D01*
X41877809Y-73903714D01*
X42068286Y-73903714D01*
X42163524Y-73951333D01*
X42211143Y-74046571D01*
X42211143Y-74141810D01*
X41734952Y-74237048D01*
X43401619Y-74570381D02*
X43401619Y-73570381D01*
X43782572Y-73570381D01*
X43877810Y-73618000D01*
X43925429Y-73665619D01*
X43973048Y-73760857D01*
X43973048Y-73903714D01*
X43925429Y-73998952D01*
X43877810Y-74046571D01*
X43782572Y-74094190D01*
X43401619Y-74094190D01*
X44401619Y-74570381D02*
X44401619Y-73903714D01*
X44401619Y-73570381D02*
X44354000Y-73618000D01*
X44401619Y-73665619D01*
X44449238Y-73618000D01*
X44401619Y-73570381D01*
X44401619Y-73665619D01*
X44877809Y-73903714D02*
X44877809Y-74570381D01*
X44877809Y-73998952D02*
X44925428Y-73951333D01*
X45020666Y-73903714D01*
X45163524Y-73903714D01*
X45258762Y-73951333D01*
X45306381Y-74046571D01*
X45306381Y-74570381D01*
X45925428Y-74570381D02*
X45830190Y-74522762D01*
X45782571Y-74475143D01*
X45734952Y-74379905D01*
X45734952Y-74094190D01*
X45782571Y-73998952D01*
X45830190Y-73951333D01*
X45925428Y-73903714D01*
X46068286Y-73903714D01*
X46163524Y-73951333D01*
X46211143Y-73998952D01*
X46258762Y-74094190D01*
X46258762Y-74379905D01*
X46211143Y-74475143D01*
X46163524Y-74522762D01*
X46068286Y-74570381D01*
X45925428Y-74570381D01*
X47115905Y-73903714D02*
X47115905Y-74570381D01*
X46687333Y-73903714D02*
X46687333Y-74427524D01*
X46734952Y-74522762D01*
X46830190Y-74570381D01*
X46973048Y-74570381D01*
X47068286Y-74522762D01*
X47115905Y-74475143D01*
X47449238Y-73903714D02*
X47830190Y-73903714D01*
X47592095Y-73570381D02*
X47592095Y-74427524D01*
X47639714Y-74522762D01*
X47734952Y-74570381D01*
X47830190Y-74570381D01*
X48163524Y-74475143D02*
X48211143Y-74522762D01*
X48163524Y-74570381D01*
X48115905Y-74522762D01*
X48163524Y-74475143D01*
X48163524Y-74570381D01*
X48163524Y-73951333D02*
X48211143Y-73998952D01*
X48163524Y-74046571D01*
X48115905Y-73998952D01*
X48163524Y-73951333D01*
X48163524Y-74046571D01*
X39115905Y-76170381D02*
X38544476Y-76170381D01*
X38830190Y-76170381D02*
X38830190Y-75170381D01*
X38734952Y-75313238D01*
X38639714Y-75408476D01*
X38544476Y-75456095D01*
X39544476Y-76075143D02*
X39592095Y-76122762D01*
X39544476Y-76170381D01*
X39496857Y-76122762D01*
X39544476Y-76075143D01*
X39544476Y-76170381D01*
X39544476Y-75551333D02*
X39592095Y-75598952D01*
X39544476Y-75646571D01*
X39496857Y-75598952D01*
X39544476Y-75551333D01*
X39544476Y-75646571D01*
X41306381Y-75218000D02*
X41211143Y-75170381D01*
X41068286Y-75170381D01*
X40925428Y-75218000D01*
X40830190Y-75313238D01*
X40782571Y-75408476D01*
X40734952Y-75598952D01*
X40734952Y-75741810D01*
X40782571Y-75932286D01*
X40830190Y-76027524D01*
X40925428Y-76122762D01*
X41068286Y-76170381D01*
X41163524Y-76170381D01*
X41306381Y-76122762D01*
X41354000Y-76075143D01*
X41354000Y-75741810D01*
X41163524Y-75741810D01*
X41782571Y-75503714D02*
X41782571Y-76170381D01*
X41782571Y-75598952D02*
X41830190Y-75551333D01*
X41925428Y-75503714D01*
X42068286Y-75503714D01*
X42163524Y-75551333D01*
X42211143Y-75646571D01*
X42211143Y-76170381D01*
X43115905Y-76170381D02*
X43115905Y-75170381D01*
X43115905Y-76122762D02*
X43020667Y-76170381D01*
X42830190Y-76170381D01*
X42734952Y-76122762D01*
X42687333Y-76075143D01*
X42639714Y-75979905D01*
X42639714Y-75694190D01*
X42687333Y-75598952D01*
X42734952Y-75551333D01*
X42830190Y-75503714D01*
X43020667Y-75503714D01*
X43115905Y-75551333D01*
X38544476Y-76865619D02*
X38592095Y-76818000D01*
X38687333Y-76770381D01*
X38925429Y-76770381D01*
X39020667Y-76818000D01*
X39068286Y-76865619D01*
X39115905Y-76960857D01*
X39115905Y-77056095D01*
X39068286Y-77198952D01*
X38496857Y-77770381D01*
X39115905Y-77770381D01*
X39544476Y-77675143D02*
X39592095Y-77722762D01*
X39544476Y-77770381D01*
X39496857Y-77722762D01*
X39544476Y-77675143D01*
X39544476Y-77770381D01*
X39544476Y-77151333D02*
X39592095Y-77198952D01*
X39544476Y-77246571D01*
X39496857Y-77198952D01*
X39544476Y-77151333D01*
X39544476Y-77246571D01*
X40782571Y-77389429D02*
X41544476Y-77389429D01*
X41163524Y-77770381D02*
X41163524Y-77008476D01*
X42496857Y-76770381D02*
X42020666Y-76770381D01*
X41973047Y-77246571D01*
X42020666Y-77198952D01*
X42115904Y-77151333D01*
X42354000Y-77151333D01*
X42449238Y-77198952D01*
X42496857Y-77246571D01*
X42544476Y-77341810D01*
X42544476Y-77579905D01*
X42496857Y-77675143D01*
X42449238Y-77722762D01*
X42354000Y-77770381D01*
X42115904Y-77770381D01*
X42020666Y-77722762D01*
X41973047Y-77675143D01*
X42830190Y-76770381D02*
X43163523Y-77770381D01*
X43496857Y-76770381D01*
X38496857Y-78370381D02*
X39115905Y-78370381D01*
X38782571Y-78751333D01*
X38925429Y-78751333D01*
X39020667Y-78798952D01*
X39068286Y-78846571D01*
X39115905Y-78941810D01*
X39115905Y-79179905D01*
X39068286Y-79275143D01*
X39020667Y-79322762D01*
X38925429Y-79370381D01*
X38639714Y-79370381D01*
X38544476Y-79322762D01*
X38496857Y-79275143D01*
X39544476Y-79275143D02*
X39592095Y-79322762D01*
X39544476Y-79370381D01*
X39496857Y-79322762D01*
X39544476Y-79275143D01*
X39544476Y-79370381D01*
X39544476Y-78751333D02*
X39592095Y-78798952D01*
X39544476Y-78846571D01*
X39496857Y-78798952D01*
X39544476Y-78751333D01*
X39544476Y-78846571D01*
X41306381Y-78418000D02*
X41211143Y-78370381D01*
X41068286Y-78370381D01*
X40925428Y-78418000D01*
X40830190Y-78513238D01*
X40782571Y-78608476D01*
X40734952Y-78798952D01*
X40734952Y-78941810D01*
X40782571Y-79132286D01*
X40830190Y-79227524D01*
X40925428Y-79322762D01*
X41068286Y-79370381D01*
X41163524Y-79370381D01*
X41306381Y-79322762D01*
X41354000Y-79275143D01*
X41354000Y-78941810D01*
X41163524Y-78941810D01*
X41782571Y-78703714D02*
X41782571Y-79370381D01*
X41782571Y-78798952D02*
X41830190Y-78751333D01*
X41925428Y-78703714D01*
X42068286Y-78703714D01*
X42163524Y-78751333D01*
X42211143Y-78846571D01*
X42211143Y-79370381D01*
X43115905Y-79370381D02*
X43115905Y-78370381D01*
X43115905Y-79322762D02*
X43020667Y-79370381D01*
X42830190Y-79370381D01*
X42734952Y-79322762D01*
X42687333Y-79275143D01*
X42639714Y-79179905D01*
X42639714Y-78894190D01*
X42687333Y-78798952D01*
X42734952Y-78751333D01*
X42830190Y-78703714D01*
X43020667Y-78703714D01*
X43115905Y-78751333D01*
X39020667Y-80303714D02*
X39020667Y-80970381D01*
X38782571Y-79922762D02*
X38544476Y-80637048D01*
X39163524Y-80637048D01*
X39544476Y-80875143D02*
X39592095Y-80922762D01*
X39544476Y-80970381D01*
X39496857Y-80922762D01*
X39544476Y-80875143D01*
X39544476Y-80970381D01*
X39544476Y-80351333D02*
X39592095Y-80398952D01*
X39544476Y-80446571D01*
X39496857Y-80398952D01*
X39544476Y-80351333D01*
X39544476Y-80446571D01*
X41306381Y-80970381D02*
X40734952Y-80970381D01*
X41020666Y-80970381D02*
X41020666Y-79970381D01*
X40925428Y-80113238D01*
X40830190Y-80208476D01*
X40734952Y-80256095D01*
X42401619Y-79970381D02*
X42639714Y-80970381D01*
X42830191Y-80256095D01*
X43020667Y-80970381D01*
X43258762Y-79970381D01*
X43639714Y-80970381D02*
X43639714Y-80303714D01*
X43639714Y-79970381D02*
X43592095Y-80018000D01*
X43639714Y-80065619D01*
X43687333Y-80018000D01*
X43639714Y-79970381D01*
X43639714Y-80065619D01*
X44115904Y-80970381D02*
X44115904Y-80303714D01*
X44115904Y-80494190D02*
X44163523Y-80398952D01*
X44211142Y-80351333D01*
X44306380Y-80303714D01*
X44401619Y-80303714D01*
X45115905Y-80922762D02*
X45020667Y-80970381D01*
X44830190Y-80970381D01*
X44734952Y-80922762D01*
X44687333Y-80827524D01*
X44687333Y-80446571D01*
X44734952Y-80351333D01*
X44830190Y-80303714D01*
X45020667Y-80303714D01*
X45115905Y-80351333D01*
X45163524Y-80446571D01*
X45163524Y-80541810D01*
X44687333Y-80637048D01*
X39068286Y-81570381D02*
X38592095Y-81570381D01*
X38544476Y-82046571D01*
X38592095Y-81998952D01*
X38687333Y-81951333D01*
X38925429Y-81951333D01*
X39020667Y-81998952D01*
X39068286Y-82046571D01*
X39115905Y-82141810D01*
X39115905Y-82379905D01*
X39068286Y-82475143D01*
X39020667Y-82522762D01*
X38925429Y-82570381D01*
X38687333Y-82570381D01*
X38592095Y-82522762D01*
X38544476Y-82475143D01*
X39544476Y-82475143D02*
X39592095Y-82522762D01*
X39544476Y-82570381D01*
X39496857Y-82522762D01*
X39544476Y-82475143D01*
X39544476Y-82570381D01*
X39544476Y-81951333D02*
X39592095Y-81998952D01*
X39544476Y-82046571D01*
X39496857Y-81998952D01*
X39544476Y-81951333D01*
X39544476Y-82046571D01*
X41306381Y-81618000D02*
X41211143Y-81570381D01*
X41068286Y-81570381D01*
X40925428Y-81618000D01*
X40830190Y-81713238D01*
X40782571Y-81808476D01*
X40734952Y-81998952D01*
X40734952Y-82141810D01*
X40782571Y-82332286D01*
X40830190Y-82427524D01*
X40925428Y-82522762D01*
X41068286Y-82570381D01*
X41163524Y-82570381D01*
X41306381Y-82522762D01*
X41354000Y-82475143D01*
X41354000Y-82141810D01*
X41163524Y-82141810D01*
X41782571Y-81903714D02*
X41782571Y-82570381D01*
X41782571Y-81998952D02*
X41830190Y-81951333D01*
X41925428Y-81903714D01*
X42068286Y-81903714D01*
X42163524Y-81951333D01*
X42211143Y-82046571D01*
X42211143Y-82570381D01*
X43115905Y-82570381D02*
X43115905Y-81570381D01*
X43115905Y-82522762D02*
X43020667Y-82570381D01*
X42830190Y-82570381D01*
X42734952Y-82522762D01*
X42687333Y-82475143D01*
X42639714Y-82379905D01*
X42639714Y-82094190D01*
X42687333Y-81998952D01*
X42734952Y-81951333D01*
X42830190Y-81903714D01*
X43020667Y-81903714D01*
X43115905Y-81951333D01*
X39020667Y-83170381D02*
X38830190Y-83170381D01*
X38734952Y-83218000D01*
X38687333Y-83265619D01*
X38592095Y-83408476D01*
X38544476Y-83598952D01*
X38544476Y-83979905D01*
X38592095Y-84075143D01*
X38639714Y-84122762D01*
X38734952Y-84170381D01*
X38925429Y-84170381D01*
X39020667Y-84122762D01*
X39068286Y-84075143D01*
X39115905Y-83979905D01*
X39115905Y-83741810D01*
X39068286Y-83646571D01*
X39020667Y-83598952D01*
X38925429Y-83551333D01*
X38734952Y-83551333D01*
X38639714Y-83598952D01*
X38592095Y-83646571D01*
X38544476Y-83741810D01*
X39544476Y-84075143D02*
X39592095Y-84122762D01*
X39544476Y-84170381D01*
X39496857Y-84122762D01*
X39544476Y-84075143D01*
X39544476Y-84170381D01*
X39544476Y-83551333D02*
X39592095Y-83598952D01*
X39544476Y-83646571D01*
X39496857Y-83598952D01*
X39544476Y-83551333D01*
X39544476Y-83646571D01*
X40782571Y-84170381D02*
X40782571Y-83170381D01*
X41354000Y-84170381D01*
X41354000Y-83170381D01*
X42544476Y-83122762D02*
X41687333Y-84408476D01*
X43449238Y-84075143D02*
X43401619Y-84122762D01*
X43258762Y-84170381D01*
X43163524Y-84170381D01*
X43020666Y-84122762D01*
X42925428Y-84027524D01*
X42877809Y-83932286D01*
X42830190Y-83741810D01*
X42830190Y-83598952D01*
X42877809Y-83408476D01*
X42925428Y-83313238D01*
X43020666Y-83218000D01*
X43163524Y-83170381D01*
X43258762Y-83170381D01*
X43401619Y-83218000D01*
X43449238Y-83265619D01*
X38496857Y-84770381D02*
X39163524Y-84770381D01*
X38734952Y-85770381D01*
X39544476Y-85675143D02*
X39592095Y-85722762D01*
X39544476Y-85770381D01*
X39496857Y-85722762D01*
X39544476Y-85675143D01*
X39544476Y-85770381D01*
X39544476Y-85151333D02*
X39592095Y-85198952D01*
X39544476Y-85246571D01*
X39496857Y-85198952D01*
X39544476Y-85151333D01*
X39544476Y-85246571D01*
X40782571Y-85770381D02*
X40782571Y-84770381D01*
X41354000Y-85770381D01*
X41354000Y-84770381D01*
X42544476Y-84722762D02*
X41687333Y-86008476D01*
X43449238Y-85675143D02*
X43401619Y-85722762D01*
X43258762Y-85770381D01*
X43163524Y-85770381D01*
X43020666Y-85722762D01*
X42925428Y-85627524D01*
X42877809Y-85532286D01*
X42830190Y-85341810D01*
X42830190Y-85198952D01*
X42877809Y-85008476D01*
X42925428Y-84913238D01*
X43020666Y-84818000D01*
X43163524Y-84770381D01*
X43258762Y-84770381D01*
X43401619Y-84818000D01*
X43449238Y-84865619D01*
X38734952Y-86798952D02*
X38639714Y-86751333D01*
X38592095Y-86703714D01*
X38544476Y-86608476D01*
X38544476Y-86560857D01*
X38592095Y-86465619D01*
X38639714Y-86418000D01*
X38734952Y-86370381D01*
X38925429Y-86370381D01*
X39020667Y-86418000D01*
X39068286Y-86465619D01*
X39115905Y-86560857D01*
X39115905Y-86608476D01*
X39068286Y-86703714D01*
X39020667Y-86751333D01*
X38925429Y-86798952D01*
X38734952Y-86798952D01*
X38639714Y-86846571D01*
X38592095Y-86894190D01*
X38544476Y-86989429D01*
X38544476Y-87179905D01*
X38592095Y-87275143D01*
X38639714Y-87322762D01*
X38734952Y-87370381D01*
X38925429Y-87370381D01*
X39020667Y-87322762D01*
X39068286Y-87275143D01*
X39115905Y-87179905D01*
X39115905Y-86989429D01*
X39068286Y-86894190D01*
X39020667Y-86846571D01*
X38925429Y-86798952D01*
X39544476Y-87275143D02*
X39592095Y-87322762D01*
X39544476Y-87370381D01*
X39496857Y-87322762D01*
X39544476Y-87275143D01*
X39544476Y-87370381D01*
X39544476Y-86751333D02*
X39592095Y-86798952D01*
X39544476Y-86846571D01*
X39496857Y-86798952D01*
X39544476Y-86751333D01*
X39544476Y-86846571D01*
X41306381Y-86418000D02*
X41211143Y-86370381D01*
X41068286Y-86370381D01*
X40925428Y-86418000D01*
X40830190Y-86513238D01*
X40782571Y-86608476D01*
X40734952Y-86798952D01*
X40734952Y-86941810D01*
X40782571Y-87132286D01*
X40830190Y-87227524D01*
X40925428Y-87322762D01*
X41068286Y-87370381D01*
X41163524Y-87370381D01*
X41306381Y-87322762D01*
X41354000Y-87275143D01*
X41354000Y-86941810D01*
X41163524Y-86941810D01*
X41782571Y-86703714D02*
X41782571Y-87370381D01*
X41782571Y-86798952D02*
X41830190Y-86751333D01*
X41925428Y-86703714D01*
X42068286Y-86703714D01*
X42163524Y-86751333D01*
X42211143Y-86846571D01*
X42211143Y-87370381D01*
X43115905Y-87370381D02*
X43115905Y-86370381D01*
X43115905Y-87322762D02*
X43020667Y-87370381D01*
X42830190Y-87370381D01*
X42734952Y-87322762D01*
X42687333Y-87275143D01*
X42639714Y-87179905D01*
X42639714Y-86894190D01*
X42687333Y-86798952D01*
X42734952Y-86751333D01*
X42830190Y-86703714D01*
X43020667Y-86703714D01*
X43115905Y-86751333D01*
D13*
X184330787Y-81387071D02*
X183473644Y-81387071D01*
X183902216Y-81387071D02*
X183902216Y-79887071D01*
X183759359Y-80101357D01*
X183616501Y-80244214D01*
X183473644Y-80315643D01*
X184830787Y-79887071D02*
X185187930Y-81387071D01*
X185473644Y-80315643D01*
X185759358Y-81387071D01*
X186116501Y-79887071D01*
X186687930Y-81387071D02*
X186687930Y-80387071D01*
X186687930Y-79887071D02*
X186616501Y-79958500D01*
X186687930Y-80029929D01*
X186759358Y-79958500D01*
X186687930Y-79887071D01*
X186687930Y-80029929D01*
X187402216Y-81387071D02*
X187402216Y-80387071D01*
X187402216Y-80672786D02*
X187473644Y-80529929D01*
X187545073Y-80458500D01*
X187687930Y-80387071D01*
X187830787Y-80387071D01*
X188902215Y-81315643D02*
X188759358Y-81387071D01*
X188473644Y-81387071D01*
X188330787Y-81315643D01*
X188259358Y-81172786D01*
X188259358Y-80601357D01*
X188330787Y-80458500D01*
X188473644Y-80387071D01*
X188759358Y-80387071D01*
X188902215Y-80458500D01*
X188973644Y-80601357D01*
X188973644Y-80744214D01*
X188259358Y-80887071D01*
X190687929Y-81315643D02*
X190902215Y-81387071D01*
X191259358Y-81387071D01*
X191402215Y-81315643D01*
X191473644Y-81244214D01*
X191545072Y-81101357D01*
X191545072Y-80958500D01*
X191473644Y-80815643D01*
X191402215Y-80744214D01*
X191259358Y-80672786D01*
X190973644Y-80601357D01*
X190830786Y-80529929D01*
X190759358Y-80458500D01*
X190687929Y-80315643D01*
X190687929Y-80172786D01*
X190759358Y-80029929D01*
X190830786Y-79958500D01*
X190973644Y-79887071D01*
X191330786Y-79887071D01*
X191545072Y-79958500D01*
X192402215Y-81387071D02*
X192259357Y-81315643D01*
X192187929Y-81244214D01*
X192116500Y-81101357D01*
X192116500Y-80672786D01*
X192187929Y-80529929D01*
X192259357Y-80458500D01*
X192402215Y-80387071D01*
X192616500Y-80387071D01*
X192759357Y-80458500D01*
X192830786Y-80529929D01*
X192902215Y-80672786D01*
X192902215Y-81101357D01*
X192830786Y-81244214D01*
X192759357Y-81315643D01*
X192616500Y-81387071D01*
X192402215Y-81387071D01*
X194687929Y-81387071D02*
X194687929Y-79887071D01*
X195187929Y-80958500D01*
X195687929Y-79887071D01*
X195687929Y-81387071D01*
X197045072Y-81387071D02*
X197045072Y-80601357D01*
X196973643Y-80458500D01*
X196830786Y-80387071D01*
X196545072Y-80387071D01*
X196402215Y-80458500D01*
X197045072Y-81315643D02*
X196902215Y-81387071D01*
X196545072Y-81387071D01*
X196402215Y-81315643D01*
X196330786Y-81172786D01*
X196330786Y-81029929D01*
X196402215Y-80887071D01*
X196545072Y-80815643D01*
X196902215Y-80815643D01*
X197045072Y-80744214D01*
X197759358Y-80387071D02*
X197759358Y-81387071D01*
X197759358Y-80529929D02*
X197830786Y-80458500D01*
X197973644Y-80387071D01*
X198187929Y-80387071D01*
X198330786Y-80458500D01*
X198402215Y-80601357D01*
X198402215Y-81387071D01*
X198973644Y-80387071D02*
X199330787Y-81387071D01*
X199687929Y-80387071D02*
X199330787Y-81387071D01*
X199187929Y-81744214D01*
X199116501Y-81815643D01*
X198973644Y-81887071D01*
X201330786Y-81315643D02*
X201545072Y-81387071D01*
X201902215Y-81387071D01*
X202045072Y-81315643D01*
X202116501Y-81244214D01*
X202187929Y-81101357D01*
X202187929Y-80958500D01*
X202116501Y-80815643D01*
X202045072Y-80744214D01*
X201902215Y-80672786D01*
X201616501Y-80601357D01*
X201473643Y-80529929D01*
X201402215Y-80458500D01*
X201330786Y-80315643D01*
X201330786Y-80172786D01*
X201402215Y-80029929D01*
X201473643Y-79958500D01*
X201616501Y-79887071D01*
X201973643Y-79887071D01*
X202187929Y-79958500D01*
X202687929Y-80387071D02*
X202973643Y-81387071D01*
X203259357Y-80672786D01*
X203545072Y-81387071D01*
X203830786Y-80387071D01*
X204402215Y-81387071D02*
X204402215Y-80387071D01*
X204402215Y-79887071D02*
X204330786Y-79958500D01*
X204402215Y-80029929D01*
X204473643Y-79958500D01*
X204402215Y-79887071D01*
X204402215Y-80029929D01*
X204902215Y-80387071D02*
X205473644Y-80387071D01*
X205116501Y-79887071D02*
X205116501Y-81172786D01*
X205187929Y-81315643D01*
X205330787Y-81387071D01*
X205473644Y-81387071D01*
X206616501Y-81315643D02*
X206473644Y-81387071D01*
X206187930Y-81387071D01*
X206045072Y-81315643D01*
X205973644Y-81244214D01*
X205902215Y-81101357D01*
X205902215Y-80672786D01*
X205973644Y-80529929D01*
X206045072Y-80458500D01*
X206187930Y-80387071D01*
X206473644Y-80387071D01*
X206616501Y-80458500D01*
X207259358Y-81387071D02*
X207259358Y-79887071D01*
X207902215Y-81387071D02*
X207902215Y-80601357D01*
X207830786Y-80458500D01*
X207687929Y-80387071D01*
X207473644Y-80387071D01*
X207330786Y-80458500D01*
X207259358Y-80529929D01*
X209187929Y-81315643D02*
X209045072Y-81387071D01*
X208759358Y-81387071D01*
X208616501Y-81315643D01*
X208545072Y-81172786D01*
X208545072Y-80601357D01*
X208616501Y-80458500D01*
X208759358Y-80387071D01*
X209045072Y-80387071D01*
X209187929Y-80458500D01*
X209259358Y-80601357D01*
X209259358Y-80744214D01*
X208545072Y-80887071D01*
X209830786Y-81315643D02*
X209973643Y-81387071D01*
X210259358Y-81387071D01*
X210402215Y-81315643D01*
X210473643Y-81172786D01*
X210473643Y-81101357D01*
X210402215Y-80958500D01*
X210259358Y-80887071D01*
X210045072Y-80887071D01*
X209902215Y-80815643D01*
X209830786Y-80672786D01*
X209830786Y-80601357D01*
X209902215Y-80458500D01*
X210045072Y-80387071D01*
X210259358Y-80387071D01*
X210402215Y-80458500D01*
X213116501Y-81387071D02*
X212616501Y-80672786D01*
X212259358Y-81387071D02*
X212259358Y-79887071D01*
X212830786Y-79887071D01*
X212973644Y-79958500D01*
X213045072Y-80029929D01*
X213116501Y-80172786D01*
X213116501Y-80387071D01*
X213045072Y-80529929D01*
X212973644Y-80601357D01*
X212830786Y-80672786D01*
X212259358Y-80672786D01*
X214330786Y-81315643D02*
X214187929Y-81387071D01*
X213902215Y-81387071D01*
X213759358Y-81315643D01*
X213687929Y-81172786D01*
X213687929Y-80601357D01*
X213759358Y-80458500D01*
X213902215Y-80387071D01*
X214187929Y-80387071D01*
X214330786Y-80458500D01*
X214402215Y-80601357D01*
X214402215Y-80744214D01*
X213687929Y-80887071D01*
X214902215Y-80387071D02*
X215259358Y-81387071D01*
X215616500Y-80387071D01*
X218116500Y-81387071D02*
X217259357Y-81387071D01*
X217687929Y-81387071D02*
X217687929Y-79887071D01*
X217545072Y-80101357D01*
X217402214Y-80244214D01*
X217259357Y-80315643D01*
X218759357Y-81244214D02*
X218830785Y-81315643D01*
X218759357Y-81387071D01*
X218687928Y-81315643D01*
X218759357Y-81244214D01*
X218759357Y-81387071D01*
X219759357Y-79887071D02*
X219902214Y-79887071D01*
X220045071Y-79958500D01*
X220116500Y-80029929D01*
X220187929Y-80172786D01*
X220259357Y-80458500D01*
X220259357Y-80815643D01*
X220187929Y-81101357D01*
X220116500Y-81244214D01*
X220045071Y-81315643D01*
X219902214Y-81387071D01*
X219759357Y-81387071D01*
X219616500Y-81315643D01*
X219545071Y-81244214D01*
X219473643Y-81101357D01*
X219402214Y-80815643D01*
X219402214Y-80458500D01*
X219473643Y-80172786D01*
X219545071Y-80029929D01*
X219616500Y-79958500D01*
X219759357Y-79887071D01*
D10*
X191404786Y-83866381D02*
X190928595Y-83866381D01*
X190928595Y-82866381D01*
X191738119Y-83866381D02*
X191738119Y-83199714D01*
X191738119Y-82866381D02*
X191690500Y-82914000D01*
X191738119Y-82961619D01*
X191785738Y-82914000D01*
X191738119Y-82866381D01*
X191738119Y-82961619D01*
X192642881Y-83818762D02*
X192547643Y-83866381D01*
X192357166Y-83866381D01*
X192261928Y-83818762D01*
X192214309Y-83771143D01*
X192166690Y-83675905D01*
X192166690Y-83390190D01*
X192214309Y-83294952D01*
X192261928Y-83247333D01*
X192357166Y-83199714D01*
X192547643Y-83199714D01*
X192642881Y-83247333D01*
X193452405Y-83818762D02*
X193357167Y-83866381D01*
X193166690Y-83866381D01*
X193071452Y-83818762D01*
X193023833Y-83723524D01*
X193023833Y-83342571D01*
X193071452Y-83247333D01*
X193166690Y-83199714D01*
X193357167Y-83199714D01*
X193452405Y-83247333D01*
X193500024Y-83342571D01*
X193500024Y-83437810D01*
X193023833Y-83533048D01*
X193928595Y-83199714D02*
X193928595Y-83866381D01*
X193928595Y-83294952D02*
X193976214Y-83247333D01*
X194071452Y-83199714D01*
X194214310Y-83199714D01*
X194309548Y-83247333D01*
X194357167Y-83342571D01*
X194357167Y-83866381D01*
X194785738Y-83818762D02*
X194880976Y-83866381D01*
X195071452Y-83866381D01*
X195166691Y-83818762D01*
X195214310Y-83723524D01*
X195214310Y-83675905D01*
X195166691Y-83580667D01*
X195071452Y-83533048D01*
X194928595Y-83533048D01*
X194833357Y-83485429D01*
X194785738Y-83390190D01*
X194785738Y-83342571D01*
X194833357Y-83247333D01*
X194928595Y-83199714D01*
X195071452Y-83199714D01*
X195166691Y-83247333D01*
X196023834Y-83818762D02*
X195928596Y-83866381D01*
X195738119Y-83866381D01*
X195642881Y-83818762D01*
X195595262Y-83723524D01*
X195595262Y-83342571D01*
X195642881Y-83247333D01*
X195738119Y-83199714D01*
X195928596Y-83199714D01*
X196023834Y-83247333D01*
X196071453Y-83342571D01*
X196071453Y-83437810D01*
X195595262Y-83533048D01*
X196928596Y-83866381D02*
X196928596Y-82866381D01*
X196928596Y-83818762D02*
X196833358Y-83866381D01*
X196642881Y-83866381D01*
X196547643Y-83818762D01*
X196500024Y-83771143D01*
X196452405Y-83675905D01*
X196452405Y-83390190D01*
X196500024Y-83294952D01*
X196547643Y-83247333D01*
X196642881Y-83199714D01*
X196833358Y-83199714D01*
X196928596Y-83247333D01*
X198595263Y-83199714D02*
X198595263Y-83866381D01*
X198166691Y-83199714D02*
X198166691Y-83723524D01*
X198214310Y-83818762D01*
X198309548Y-83866381D01*
X198452406Y-83866381D01*
X198547644Y-83818762D01*
X198595263Y-83771143D01*
X199071453Y-83199714D02*
X199071453Y-83866381D01*
X199071453Y-83294952D02*
X199119072Y-83247333D01*
X199214310Y-83199714D01*
X199357168Y-83199714D01*
X199452406Y-83247333D01*
X199500025Y-83342571D01*
X199500025Y-83866381D01*
X200404787Y-83866381D02*
X200404787Y-82866381D01*
X200404787Y-83818762D02*
X200309549Y-83866381D01*
X200119072Y-83866381D01*
X200023834Y-83818762D01*
X199976215Y-83771143D01*
X199928596Y-83675905D01*
X199928596Y-83390190D01*
X199976215Y-83294952D01*
X200023834Y-83247333D01*
X200119072Y-83199714D01*
X200309549Y-83199714D01*
X200404787Y-83247333D01*
X201261930Y-83818762D02*
X201166692Y-83866381D01*
X200976215Y-83866381D01*
X200880977Y-83818762D01*
X200833358Y-83723524D01*
X200833358Y-83342571D01*
X200880977Y-83247333D01*
X200976215Y-83199714D01*
X201166692Y-83199714D01*
X201261930Y-83247333D01*
X201309549Y-83342571D01*
X201309549Y-83437810D01*
X200833358Y-83533048D01*
X201738120Y-83866381D02*
X201738120Y-83199714D01*
X201738120Y-83390190D02*
X201785739Y-83294952D01*
X201833358Y-83247333D01*
X201928596Y-83199714D01*
X202023835Y-83199714D01*
X202976216Y-83199714D02*
X203357168Y-83199714D01*
X203119073Y-82866381D02*
X203119073Y-83723524D01*
X203166692Y-83818762D01*
X203261930Y-83866381D01*
X203357168Y-83866381D01*
X203690502Y-83866381D02*
X203690502Y-82866381D01*
X204119074Y-83866381D02*
X204119074Y-83342571D01*
X204071455Y-83247333D01*
X203976217Y-83199714D01*
X203833359Y-83199714D01*
X203738121Y-83247333D01*
X203690502Y-83294952D01*
X204976217Y-83818762D02*
X204880979Y-83866381D01*
X204690502Y-83866381D01*
X204595264Y-83818762D01*
X204547645Y-83723524D01*
X204547645Y-83342571D01*
X204595264Y-83247333D01*
X204690502Y-83199714D01*
X204880979Y-83199714D01*
X204976217Y-83247333D01*
X205023836Y-83342571D01*
X205023836Y-83437810D01*
X204547645Y-83533048D01*
X206071455Y-82866381D02*
X206642884Y-82866381D01*
X206357169Y-83866381D02*
X206357169Y-82866381D01*
X206928598Y-83580667D02*
X207404789Y-83580667D01*
X206833360Y-83866381D02*
X207166693Y-82866381D01*
X207500027Y-83866381D01*
X207833360Y-83866381D02*
X207833360Y-82866381D01*
X208214313Y-82866381D01*
X208309551Y-82914000D01*
X208357170Y-82961619D01*
X208404789Y-83056857D01*
X208404789Y-83199714D01*
X208357170Y-83294952D01*
X208309551Y-83342571D01*
X208214313Y-83390190D01*
X207833360Y-83390190D01*
X209404789Y-83866381D02*
X209071455Y-83390190D01*
X208833360Y-83866381D02*
X208833360Y-82866381D01*
X209214313Y-82866381D01*
X209309551Y-82914000D01*
X209357170Y-82961619D01*
X209404789Y-83056857D01*
X209404789Y-83199714D01*
X209357170Y-83294952D01*
X209309551Y-83342571D01*
X209214313Y-83390190D01*
X208833360Y-83390190D01*
X191119071Y-84466381D02*
X191309548Y-84466381D01*
X191404786Y-84514000D01*
X191500024Y-84609238D01*
X191547643Y-84799714D01*
X191547643Y-85133048D01*
X191500024Y-85323524D01*
X191404786Y-85418762D01*
X191309548Y-85466381D01*
X191119071Y-85466381D01*
X191023833Y-85418762D01*
X190928595Y-85323524D01*
X190880976Y-85133048D01*
X190880976Y-84799714D01*
X190928595Y-84609238D01*
X191023833Y-84514000D01*
X191119071Y-84466381D01*
X191976214Y-84799714D02*
X191976214Y-85799714D01*
X191976214Y-84847333D02*
X192071452Y-84799714D01*
X192261929Y-84799714D01*
X192357167Y-84847333D01*
X192404786Y-84894952D01*
X192452405Y-84990190D01*
X192452405Y-85275905D01*
X192404786Y-85371143D01*
X192357167Y-85418762D01*
X192261929Y-85466381D01*
X192071452Y-85466381D01*
X191976214Y-85418762D01*
X193261929Y-85418762D02*
X193166691Y-85466381D01*
X192976214Y-85466381D01*
X192880976Y-85418762D01*
X192833357Y-85323524D01*
X192833357Y-84942571D01*
X192880976Y-84847333D01*
X192976214Y-84799714D01*
X193166691Y-84799714D01*
X193261929Y-84847333D01*
X193309548Y-84942571D01*
X193309548Y-85037810D01*
X192833357Y-85133048D01*
X193738119Y-84799714D02*
X193738119Y-85466381D01*
X193738119Y-84894952D02*
X193785738Y-84847333D01*
X193880976Y-84799714D01*
X194023834Y-84799714D01*
X194119072Y-84847333D01*
X194166691Y-84942571D01*
X194166691Y-85466381D01*
X195404786Y-85466381D02*
X195404786Y-84466381D01*
X195404786Y-84942571D02*
X195976215Y-84942571D01*
X195976215Y-85466381D02*
X195976215Y-84466381D01*
X196880977Y-85466381D02*
X196880977Y-84942571D01*
X196833358Y-84847333D01*
X196738120Y-84799714D01*
X196547643Y-84799714D01*
X196452405Y-84847333D01*
X196880977Y-85418762D02*
X196785739Y-85466381D01*
X196547643Y-85466381D01*
X196452405Y-85418762D01*
X196404786Y-85323524D01*
X196404786Y-85228286D01*
X196452405Y-85133048D01*
X196547643Y-85085429D01*
X196785739Y-85085429D01*
X196880977Y-85037810D01*
X197357167Y-85466381D02*
X197357167Y-84799714D01*
X197357167Y-84990190D02*
X197404786Y-84894952D01*
X197452405Y-84847333D01*
X197547643Y-84799714D01*
X197642882Y-84799714D01*
X198404787Y-85466381D02*
X198404787Y-84466381D01*
X198404787Y-85418762D02*
X198309549Y-85466381D01*
X198119072Y-85466381D01*
X198023834Y-85418762D01*
X197976215Y-85371143D01*
X197928596Y-85275905D01*
X197928596Y-84990190D01*
X197976215Y-84894952D01*
X198023834Y-84847333D01*
X198119072Y-84799714D01*
X198309549Y-84799714D01*
X198404787Y-84847333D01*
X198785739Y-84799714D02*
X198976215Y-85466381D01*
X199166692Y-84990190D01*
X199357168Y-85466381D01*
X199547644Y-84799714D01*
X200357168Y-85466381D02*
X200357168Y-84942571D01*
X200309549Y-84847333D01*
X200214311Y-84799714D01*
X200023834Y-84799714D01*
X199928596Y-84847333D01*
X200357168Y-85418762D02*
X200261930Y-85466381D01*
X200023834Y-85466381D01*
X199928596Y-85418762D01*
X199880977Y-85323524D01*
X199880977Y-85228286D01*
X199928596Y-85133048D01*
X200023834Y-85085429D01*
X200261930Y-85085429D01*
X200357168Y-85037810D01*
X200833358Y-85466381D02*
X200833358Y-84799714D01*
X200833358Y-84990190D02*
X200880977Y-84894952D01*
X200928596Y-84847333D01*
X201023834Y-84799714D01*
X201119073Y-84799714D01*
X201833359Y-85418762D02*
X201738121Y-85466381D01*
X201547644Y-85466381D01*
X201452406Y-85418762D01*
X201404787Y-85323524D01*
X201404787Y-84942571D01*
X201452406Y-84847333D01*
X201547644Y-84799714D01*
X201738121Y-84799714D01*
X201833359Y-84847333D01*
X201880978Y-84942571D01*
X201880978Y-85037810D01*
X201404787Y-85133048D01*
X203547645Y-85466381D02*
X203071454Y-85466381D01*
X203071454Y-84466381D01*
X203880978Y-85466381D02*
X203880978Y-84799714D01*
X203880978Y-84466381D02*
X203833359Y-84514000D01*
X203880978Y-84561619D01*
X203928597Y-84514000D01*
X203880978Y-84466381D01*
X203880978Y-84561619D01*
X204785740Y-85418762D02*
X204690502Y-85466381D01*
X204500025Y-85466381D01*
X204404787Y-85418762D01*
X204357168Y-85371143D01*
X204309549Y-85275905D01*
X204309549Y-84990190D01*
X204357168Y-84894952D01*
X204404787Y-84847333D01*
X204500025Y-84799714D01*
X204690502Y-84799714D01*
X204785740Y-84847333D01*
X205595264Y-85418762D02*
X205500026Y-85466381D01*
X205309549Y-85466381D01*
X205214311Y-85418762D01*
X205166692Y-85323524D01*
X205166692Y-84942571D01*
X205214311Y-84847333D01*
X205309549Y-84799714D01*
X205500026Y-84799714D01*
X205595264Y-84847333D01*
X205642883Y-84942571D01*
X205642883Y-85037810D01*
X205166692Y-85133048D01*
X206071454Y-84799714D02*
X206071454Y-85466381D01*
X206071454Y-84894952D02*
X206119073Y-84847333D01*
X206214311Y-84799714D01*
X206357169Y-84799714D01*
X206452407Y-84847333D01*
X206500026Y-84942571D01*
X206500026Y-85466381D01*
X206928597Y-85418762D02*
X207023835Y-85466381D01*
X207214311Y-85466381D01*
X207309550Y-85418762D01*
X207357169Y-85323524D01*
X207357169Y-85275905D01*
X207309550Y-85180667D01*
X207214311Y-85133048D01*
X207071454Y-85133048D01*
X206976216Y-85085429D01*
X206928597Y-84990190D01*
X206928597Y-84942571D01*
X206976216Y-84847333D01*
X207071454Y-84799714D01*
X207214311Y-84799714D01*
X207309550Y-84847333D01*
X208166693Y-85418762D02*
X208071455Y-85466381D01*
X207880978Y-85466381D01*
X207785740Y-85418762D01*
X207738121Y-85323524D01*
X207738121Y-84942571D01*
X207785740Y-84847333D01*
X207880978Y-84799714D01*
X208071455Y-84799714D01*
X208166693Y-84847333D01*
X208214312Y-84942571D01*
X208214312Y-85037810D01*
X207738121Y-85133048D01*
X191214310Y-87447333D02*
X191166690Y-87399714D01*
X191071452Y-87256857D01*
X191023833Y-87161619D01*
X190976214Y-87018762D01*
X190928595Y-86780667D01*
X190928595Y-86590190D01*
X190976214Y-86352095D01*
X191023833Y-86209238D01*
X191071452Y-86114000D01*
X191166690Y-85971143D01*
X191214310Y-85923524D01*
X191500024Y-86399714D02*
X191690500Y-87066381D01*
X191880977Y-86590190D01*
X192071453Y-87066381D01*
X192261929Y-86399714D01*
X192547643Y-86399714D02*
X192738119Y-87066381D01*
X192928596Y-86590190D01*
X193119072Y-87066381D01*
X193309548Y-86399714D01*
X193595262Y-86399714D02*
X193785738Y-87066381D01*
X193976215Y-86590190D01*
X194166691Y-87066381D01*
X194357167Y-86399714D01*
X194738119Y-86971143D02*
X194785738Y-87018762D01*
X194738119Y-87066381D01*
X194690500Y-87018762D01*
X194738119Y-86971143D01*
X194738119Y-87066381D01*
X195071452Y-86399714D02*
X195452404Y-86399714D01*
X195214309Y-86066381D02*
X195214309Y-86923524D01*
X195261928Y-87018762D01*
X195357166Y-87066381D01*
X195452404Y-87066381D01*
X196214310Y-87066381D02*
X196214310Y-86542571D01*
X196166691Y-86447333D01*
X196071453Y-86399714D01*
X195880976Y-86399714D01*
X195785738Y-86447333D01*
X196214310Y-87018762D02*
X196119072Y-87066381D01*
X195880976Y-87066381D01*
X195785738Y-87018762D01*
X195738119Y-86923524D01*
X195738119Y-86828286D01*
X195785738Y-86733048D01*
X195880976Y-86685429D01*
X196119072Y-86685429D01*
X196214310Y-86637810D01*
X196690500Y-86399714D02*
X196690500Y-87399714D01*
X196690500Y-86447333D02*
X196785738Y-86399714D01*
X196976215Y-86399714D01*
X197071453Y-86447333D01*
X197119072Y-86494952D01*
X197166691Y-86590190D01*
X197166691Y-86875905D01*
X197119072Y-86971143D01*
X197071453Y-87018762D01*
X196976215Y-87066381D01*
X196785738Y-87066381D01*
X196690500Y-87018762D01*
X197595262Y-87066381D02*
X197595262Y-86399714D01*
X197595262Y-86590190D02*
X197642881Y-86494952D01*
X197690500Y-86447333D01*
X197785738Y-86399714D01*
X197880977Y-86399714D01*
X198214310Y-86971143D02*
X198261929Y-87018762D01*
X198214310Y-87066381D01*
X198166691Y-87018762D01*
X198214310Y-86971143D01*
X198214310Y-87066381D01*
X198833357Y-87066381D02*
X198738119Y-87018762D01*
X198690500Y-86971143D01*
X198642881Y-86875905D01*
X198642881Y-86590190D01*
X198690500Y-86494952D01*
X198738119Y-86447333D01*
X198833357Y-86399714D01*
X198976215Y-86399714D01*
X199071453Y-86447333D01*
X199119072Y-86494952D01*
X199166691Y-86590190D01*
X199166691Y-86875905D01*
X199119072Y-86971143D01*
X199071453Y-87018762D01*
X198976215Y-87066381D01*
X198833357Y-87066381D01*
X199595262Y-87066381D02*
X199595262Y-86399714D01*
X199595262Y-86590190D02*
X199642881Y-86494952D01*
X199690500Y-86447333D01*
X199785738Y-86399714D01*
X199880977Y-86399714D01*
X200642882Y-86399714D02*
X200642882Y-87209238D01*
X200595263Y-87304476D01*
X200547644Y-87352095D01*
X200452405Y-87399714D01*
X200309548Y-87399714D01*
X200214310Y-87352095D01*
X200642882Y-87018762D02*
X200547644Y-87066381D01*
X200357167Y-87066381D01*
X200261929Y-87018762D01*
X200214310Y-86971143D01*
X200166691Y-86875905D01*
X200166691Y-86590190D01*
X200214310Y-86494952D01*
X200261929Y-86447333D01*
X200357167Y-86399714D01*
X200547644Y-86399714D01*
X200642882Y-86447333D01*
X201833358Y-86018762D02*
X200976215Y-87304476D01*
X202357167Y-86066381D02*
X202547644Y-86066381D01*
X202642882Y-86114000D01*
X202738120Y-86209238D01*
X202785739Y-86399714D01*
X202785739Y-86733048D01*
X202738120Y-86923524D01*
X202642882Y-87018762D01*
X202547644Y-87066381D01*
X202357167Y-87066381D01*
X202261929Y-87018762D01*
X202166691Y-86923524D01*
X202119072Y-86733048D01*
X202119072Y-86399714D01*
X202166691Y-86209238D01*
X202261929Y-86114000D01*
X202357167Y-86066381D01*
X203214310Y-87066381D02*
X203214310Y-86066381D01*
X203214310Y-86542571D02*
X203785739Y-86542571D01*
X203785739Y-87066381D02*
X203785739Y-86066381D01*
X204738120Y-87066381D02*
X204261929Y-87066381D01*
X204261929Y-86066381D01*
X204976215Y-87447333D02*
X205023834Y-87399714D01*
X205119072Y-87256857D01*
X205166691Y-87161619D01*
X205214310Y-87018762D01*
X205261929Y-86780667D01*
X205261929Y-86590190D01*
X205214310Y-86352095D01*
X205166691Y-86209238D01*
X205119072Y-86114000D01*
X205023834Y-85971143D01*
X204976215Y-85923524D01*
X191500024Y-88571143D02*
X191452405Y-88618762D01*
X191309548Y-88666381D01*
X191214310Y-88666381D01*
X191071452Y-88618762D01*
X190976214Y-88523524D01*
X190928595Y-88428286D01*
X190880976Y-88237810D01*
X190880976Y-88094952D01*
X190928595Y-87904476D01*
X190976214Y-87809238D01*
X191071452Y-87714000D01*
X191214310Y-87666381D01*
X191309548Y-87666381D01*
X191452405Y-87714000D01*
X191500024Y-87761619D01*
X192071452Y-88666381D02*
X191976214Y-88618762D01*
X191928595Y-88571143D01*
X191880976Y-88475905D01*
X191880976Y-88190190D01*
X191928595Y-88094952D01*
X191976214Y-88047333D01*
X192071452Y-87999714D01*
X192214310Y-87999714D01*
X192309548Y-88047333D01*
X192357167Y-88094952D01*
X192404786Y-88190190D01*
X192404786Y-88475905D01*
X192357167Y-88571143D01*
X192309548Y-88618762D01*
X192214310Y-88666381D01*
X192071452Y-88666381D01*
X192833357Y-87999714D02*
X192833357Y-88999714D01*
X192833357Y-88047333D02*
X192928595Y-87999714D01*
X193119072Y-87999714D01*
X193214310Y-88047333D01*
X193261929Y-88094952D01*
X193309548Y-88190190D01*
X193309548Y-88475905D01*
X193261929Y-88571143D01*
X193214310Y-88618762D01*
X193119072Y-88666381D01*
X192928595Y-88666381D01*
X192833357Y-88618762D01*
X193642881Y-87999714D02*
X193880976Y-88666381D01*
X194119072Y-87999714D02*
X193880976Y-88666381D01*
X193785738Y-88904476D01*
X193738119Y-88952095D01*
X193642881Y-88999714D01*
X194500024Y-88666381D02*
X194500024Y-87999714D01*
X194500024Y-88190190D02*
X194547643Y-88094952D01*
X194595262Y-88047333D01*
X194690500Y-87999714D01*
X194785739Y-87999714D01*
X195119072Y-88666381D02*
X195119072Y-87999714D01*
X195119072Y-87666381D02*
X195071453Y-87714000D01*
X195119072Y-87761619D01*
X195166691Y-87714000D01*
X195119072Y-87666381D01*
X195119072Y-87761619D01*
X196023834Y-87999714D02*
X196023834Y-88809238D01*
X195976215Y-88904476D01*
X195928596Y-88952095D01*
X195833357Y-88999714D01*
X195690500Y-88999714D01*
X195595262Y-88952095D01*
X196023834Y-88618762D02*
X195928596Y-88666381D01*
X195738119Y-88666381D01*
X195642881Y-88618762D01*
X195595262Y-88571143D01*
X195547643Y-88475905D01*
X195547643Y-88190190D01*
X195595262Y-88094952D01*
X195642881Y-88047333D01*
X195738119Y-87999714D01*
X195928596Y-87999714D01*
X196023834Y-88047333D01*
X196500024Y-88666381D02*
X196500024Y-87666381D01*
X196928596Y-88666381D02*
X196928596Y-88142571D01*
X196880977Y-88047333D01*
X196785739Y-87999714D01*
X196642881Y-87999714D01*
X196547643Y-88047333D01*
X196500024Y-88094952D01*
X197261929Y-87999714D02*
X197642881Y-87999714D01*
X197404786Y-87666381D02*
X197404786Y-88523524D01*
X197452405Y-88618762D01*
X197547643Y-88666381D01*
X197642881Y-88666381D01*
X199547644Y-87904476D02*
X199452406Y-87856857D01*
X199261930Y-87856857D01*
X199166692Y-87904476D01*
X199071454Y-87999714D01*
X199023835Y-88094952D01*
X199023835Y-88285429D01*
X199071454Y-88380667D01*
X199166692Y-88475905D01*
X199261930Y-88523524D01*
X199452406Y-88523524D01*
X199547644Y-88475905D01*
X199357168Y-87523524D02*
X199119073Y-87571143D01*
X198880977Y-87714000D01*
X198738120Y-87952095D01*
X198690501Y-88190190D01*
X198738120Y-88428286D01*
X198880977Y-88666381D01*
X199119073Y-88809238D01*
X199357168Y-88856857D01*
X199595263Y-88809238D01*
X199833358Y-88666381D01*
X199976215Y-88428286D01*
X200023835Y-88190190D01*
X199976215Y-87952095D01*
X199833358Y-87714000D01*
X199595263Y-87571143D01*
X199357168Y-87523524D01*
X201166692Y-87761619D02*
X201214311Y-87714000D01*
X201309549Y-87666381D01*
X201547645Y-87666381D01*
X201642883Y-87714000D01*
X201690502Y-87761619D01*
X201738121Y-87856857D01*
X201738121Y-87952095D01*
X201690502Y-88094952D01*
X201119073Y-88666381D01*
X201738121Y-88666381D01*
X202357168Y-87666381D02*
X202452407Y-87666381D01*
X202547645Y-87714000D01*
X202595264Y-87761619D01*
X202642883Y-87856857D01*
X202690502Y-88047333D01*
X202690502Y-88285429D01*
X202642883Y-88475905D01*
X202595264Y-88571143D01*
X202547645Y-88618762D01*
X202452407Y-88666381D01*
X202357168Y-88666381D01*
X202261930Y-88618762D01*
X202214311Y-88571143D01*
X202166692Y-88475905D01*
X202119073Y-88285429D01*
X202119073Y-88047333D01*
X202166692Y-87856857D01*
X202214311Y-87761619D01*
X202261930Y-87714000D01*
X202357168Y-87666381D01*
X203642883Y-88666381D02*
X203071454Y-88666381D01*
X203357168Y-88666381D02*
X203357168Y-87666381D01*
X203261930Y-87809238D01*
X203166692Y-87904476D01*
X203071454Y-87952095D01*
X203976216Y-87666381D02*
X204642883Y-87666381D01*
X204214311Y-88666381D01*
X190928595Y-90266381D02*
X190928595Y-89266381D01*
X191404785Y-89599714D02*
X191404785Y-90266381D01*
X191404785Y-89694952D02*
X191452404Y-89647333D01*
X191547642Y-89599714D01*
X191690500Y-89599714D01*
X191785738Y-89647333D01*
X191833357Y-89742571D01*
X191833357Y-90266381D01*
X192166690Y-89599714D02*
X192547642Y-89599714D01*
X192309547Y-90266381D02*
X192309547Y-89409238D01*
X192357166Y-89314000D01*
X192452404Y-89266381D01*
X192547642Y-89266381D01*
X193261929Y-90218762D02*
X193166691Y-90266381D01*
X192976214Y-90266381D01*
X192880976Y-90218762D01*
X192833357Y-90123524D01*
X192833357Y-89742571D01*
X192880976Y-89647333D01*
X192976214Y-89599714D01*
X193166691Y-89599714D01*
X193261929Y-89647333D01*
X193309548Y-89742571D01*
X193309548Y-89837810D01*
X192833357Y-89933048D01*
X193738119Y-90266381D02*
X193738119Y-89599714D01*
X193738119Y-89790190D02*
X193785738Y-89694952D01*
X193833357Y-89647333D01*
X193928595Y-89599714D01*
X194023834Y-89599714D01*
X194357167Y-89599714D02*
X194357167Y-90266381D01*
X194357167Y-89694952D02*
X194404786Y-89647333D01*
X194500024Y-89599714D01*
X194642882Y-89599714D01*
X194738120Y-89647333D01*
X194785739Y-89742571D01*
X194785739Y-90266381D01*
X195404786Y-90266381D02*
X195309548Y-90218762D01*
X195261929Y-90171143D01*
X195214310Y-90075905D01*
X195214310Y-89790190D01*
X195261929Y-89694952D01*
X195309548Y-89647333D01*
X195404786Y-89599714D01*
X195547644Y-89599714D01*
X195642882Y-89647333D01*
X195690501Y-89694952D01*
X195738120Y-89790190D01*
X195738120Y-90075905D01*
X195690501Y-90171143D01*
X195642882Y-90218762D01*
X195547644Y-90266381D01*
X195404786Y-90266381D01*
X196928596Y-89742571D02*
X197261930Y-89742571D01*
X197404787Y-90266381D02*
X196928596Y-90266381D01*
X196928596Y-89266381D01*
X197404787Y-89266381D01*
X197833358Y-90266381D02*
X197833358Y-89599714D01*
X197833358Y-89694952D02*
X197880977Y-89647333D01*
X197976215Y-89599714D01*
X198119073Y-89599714D01*
X198214311Y-89647333D01*
X198261930Y-89742571D01*
X198261930Y-90266381D01*
X198261930Y-89742571D02*
X198309549Y-89647333D01*
X198404787Y-89599714D01*
X198547644Y-89599714D01*
X198642882Y-89647333D01*
X198690501Y-89742571D01*
X198690501Y-90266381D01*
X199166691Y-90266381D02*
X199166691Y-89266381D01*
X199166691Y-89647333D02*
X199261929Y-89599714D01*
X199452406Y-89599714D01*
X199547644Y-89647333D01*
X199595263Y-89694952D01*
X199642882Y-89790190D01*
X199642882Y-90075905D01*
X199595263Y-90171143D01*
X199547644Y-90218762D01*
X199452406Y-90266381D01*
X199261929Y-90266381D01*
X199166691Y-90218762D01*
X200452406Y-90218762D02*
X200357168Y-90266381D01*
X200166691Y-90266381D01*
X200071453Y-90218762D01*
X200023834Y-90123524D01*
X200023834Y-89742571D01*
X200071453Y-89647333D01*
X200166691Y-89599714D01*
X200357168Y-89599714D01*
X200452406Y-89647333D01*
X200500025Y-89742571D01*
X200500025Y-89837810D01*
X200023834Y-89933048D01*
X201357168Y-90266381D02*
X201357168Y-89266381D01*
X201357168Y-90218762D02*
X201261930Y-90266381D01*
X201071453Y-90266381D01*
X200976215Y-90218762D01*
X200928596Y-90171143D01*
X200880977Y-90075905D01*
X200880977Y-89790190D01*
X200928596Y-89694952D01*
X200976215Y-89647333D01*
X201071453Y-89599714D01*
X201261930Y-89599714D01*
X201357168Y-89647333D01*
X202261930Y-90266381D02*
X202261930Y-89266381D01*
X202261930Y-90218762D02*
X202166692Y-90266381D01*
X201976215Y-90266381D01*
X201880977Y-90218762D01*
X201833358Y-90171143D01*
X201785739Y-90075905D01*
X201785739Y-89790190D01*
X201833358Y-89694952D01*
X201880977Y-89647333D01*
X201976215Y-89599714D01*
X202166692Y-89599714D01*
X202261930Y-89647333D01*
X203119073Y-90218762D02*
X203023835Y-90266381D01*
X202833358Y-90266381D01*
X202738120Y-90218762D01*
X202690501Y-90123524D01*
X202690501Y-89742571D01*
X202738120Y-89647333D01*
X202833358Y-89599714D01*
X203023835Y-89599714D01*
X203119073Y-89647333D01*
X203166692Y-89742571D01*
X203166692Y-89837810D01*
X202690501Y-89933048D01*
X204023835Y-90266381D02*
X204023835Y-89266381D01*
X204023835Y-90218762D02*
X203928597Y-90266381D01*
X203738120Y-90266381D01*
X203642882Y-90218762D01*
X203595263Y-90171143D01*
X203547644Y-90075905D01*
X203547644Y-89790190D01*
X203595263Y-89694952D01*
X203642882Y-89647333D01*
X203738120Y-89599714D01*
X203928597Y-89599714D01*
X204023835Y-89647333D01*
X129865381Y-96615238D02*
X129389190Y-96948572D01*
X129865381Y-97186667D02*
X128865381Y-97186667D01*
X128865381Y-96805714D01*
X128913000Y-96710476D01*
X128960619Y-96662857D01*
X129055857Y-96615238D01*
X129198714Y-96615238D01*
X129293952Y-96662857D01*
X129341571Y-96710476D01*
X129389190Y-96805714D01*
X129389190Y-97186667D01*
X129865381Y-96281905D02*
X129198714Y-95758095D01*
X129198714Y-96281905D02*
X129865381Y-95758095D01*
X126452381Y-97210476D02*
X126452381Y-96639047D01*
X127452381Y-96924762D02*
X126452381Y-96924762D01*
X127452381Y-96400952D02*
X126785714Y-95877142D01*
X126785714Y-96400952D02*
X127452381Y-95877142D01*
X131580000Y-96527857D02*
X131532381Y-96623095D01*
X131532381Y-96765952D01*
X131580000Y-96908810D01*
X131675238Y-97004048D01*
X131770476Y-97051667D01*
X131960952Y-97099286D01*
X132103810Y-97099286D01*
X132294286Y-97051667D01*
X132389524Y-97004048D01*
X132484762Y-96908810D01*
X132532381Y-96765952D01*
X132532381Y-96670714D01*
X132484762Y-96527857D01*
X132437143Y-96480238D01*
X132103810Y-96480238D01*
X132103810Y-96670714D01*
X131865714Y-96051667D02*
X132532381Y-96051667D01*
X131960952Y-96051667D02*
X131913333Y-96004048D01*
X131865714Y-95908810D01*
X131865714Y-95765952D01*
X131913333Y-95670714D01*
X132008571Y-95623095D01*
X132532381Y-95623095D01*
X132532381Y-94718333D02*
X131532381Y-94718333D01*
X132484762Y-94718333D02*
X132532381Y-94813571D01*
X132532381Y-95004048D01*
X132484762Y-95099286D01*
X132437143Y-95146905D01*
X132341905Y-95194524D01*
X132056190Y-95194524D01*
X131960952Y-95146905D01*
X131913333Y-95099286D01*
X131865714Y-95004048D01*
X131865714Y-94813571D01*
X131913333Y-94718333D01*
X123785381Y-97234190D02*
X123785381Y-96615142D01*
X124166333Y-96948476D01*
X124166333Y-96805618D01*
X124213952Y-96710380D01*
X124261571Y-96662761D01*
X124356810Y-96615142D01*
X124594905Y-96615142D01*
X124690143Y-96662761D01*
X124737762Y-96710380D01*
X124785381Y-96805618D01*
X124785381Y-97091333D01*
X124737762Y-97186571D01*
X124690143Y-97234190D01*
X124690143Y-96186571D02*
X124737762Y-96138952D01*
X124785381Y-96186571D01*
X124737762Y-96234190D01*
X124690143Y-96186571D01*
X124785381Y-96186571D01*
X123785381Y-95805619D02*
X123785381Y-95186571D01*
X124166333Y-95519905D01*
X124166333Y-95377047D01*
X124213952Y-95281809D01*
X124261571Y-95234190D01*
X124356810Y-95186571D01*
X124594905Y-95186571D01*
X124690143Y-95234190D01*
X124737762Y-95281809D01*
X124785381Y-95377047D01*
X124785381Y-95662762D01*
X124737762Y-95758000D01*
X124690143Y-95805619D01*
X123785381Y-94900857D02*
X124785381Y-94567524D01*
X123785381Y-94234190D01*
X69667643Y-97353381D02*
X69667643Y-96353381D01*
X70239072Y-97353381D01*
X70239072Y-96353381D01*
X71286691Y-97353381D02*
X70953357Y-96877190D01*
X70715262Y-97353381D02*
X70715262Y-96353381D01*
X71096215Y-96353381D01*
X71191453Y-96401000D01*
X71239072Y-96448619D01*
X71286691Y-96543857D01*
X71286691Y-96686714D01*
X71239072Y-96781952D01*
X71191453Y-96829571D01*
X71096215Y-96877190D01*
X70715262Y-96877190D01*
X71667643Y-97305762D02*
X71810500Y-97353381D01*
X72048596Y-97353381D01*
X72143834Y-97305762D01*
X72191453Y-97258143D01*
X72239072Y-97162905D01*
X72239072Y-97067667D01*
X72191453Y-96972429D01*
X72143834Y-96924810D01*
X72048596Y-96877190D01*
X71858119Y-96829571D01*
X71762881Y-96781952D01*
X71715262Y-96734333D01*
X71667643Y-96639095D01*
X71667643Y-96543857D01*
X71715262Y-96448619D01*
X71762881Y-96401000D01*
X71858119Y-96353381D01*
X72096215Y-96353381D01*
X72239072Y-96401000D01*
X72524786Y-96353381D02*
X73096215Y-96353381D01*
X72810500Y-97353381D02*
X72810500Y-96353381D01*
X68858095Y-89685762D02*
X69000952Y-89733381D01*
X69239048Y-89733381D01*
X69334286Y-89685762D01*
X69381905Y-89638143D01*
X69429524Y-89542905D01*
X69429524Y-89447667D01*
X69381905Y-89352429D01*
X69334286Y-89304810D01*
X69239048Y-89257190D01*
X69048571Y-89209571D01*
X68953333Y-89161952D01*
X68905714Y-89114333D01*
X68858095Y-89019095D01*
X68858095Y-88923857D01*
X68905714Y-88828619D01*
X68953333Y-88781000D01*
X69048571Y-88733381D01*
X69286667Y-88733381D01*
X69429524Y-88781000D01*
X69762857Y-88733381D02*
X70000952Y-89733381D01*
X70191429Y-89019095D01*
X70381905Y-89733381D01*
X70620000Y-88733381D01*
X71572381Y-89638143D02*
X71524762Y-89685762D01*
X71381905Y-89733381D01*
X71286667Y-89733381D01*
X71143809Y-89685762D01*
X71048571Y-89590524D01*
X71000952Y-89495286D01*
X70953333Y-89304810D01*
X70953333Y-89161952D01*
X71000952Y-88971476D01*
X71048571Y-88876238D01*
X71143809Y-88781000D01*
X71286667Y-88733381D01*
X71381905Y-88733381D01*
X71524762Y-88781000D01*
X71572381Y-88828619D01*
X72477143Y-89733381D02*
X72000952Y-89733381D01*
X72000952Y-88733381D01*
X72810476Y-89733381D02*
X72810476Y-88733381D01*
X73381905Y-89733381D02*
X72953333Y-89161952D01*
X73381905Y-88733381D02*
X72810476Y-89304810D01*
X69016833Y-87145762D02*
X69159690Y-87193381D01*
X69397786Y-87193381D01*
X69493024Y-87145762D01*
X69540643Y-87098143D01*
X69588262Y-87002905D01*
X69588262Y-86907667D01*
X69540643Y-86812429D01*
X69493024Y-86764810D01*
X69397786Y-86717190D01*
X69207309Y-86669571D01*
X69112071Y-86621952D01*
X69064452Y-86574333D01*
X69016833Y-86479095D01*
X69016833Y-86383857D01*
X69064452Y-86288619D01*
X69112071Y-86241000D01*
X69207309Y-86193381D01*
X69445405Y-86193381D01*
X69588262Y-86241000D01*
X69921595Y-86193381D02*
X70159690Y-87193381D01*
X70350167Y-86479095D01*
X70540643Y-87193381D01*
X70778738Y-86193381D01*
X71159690Y-87193381D02*
X71159690Y-86193381D01*
X71397785Y-86193381D01*
X71540643Y-86241000D01*
X71635881Y-86336238D01*
X71683500Y-86431476D01*
X71731119Y-86621952D01*
X71731119Y-86764810D01*
X71683500Y-86955286D01*
X71635881Y-87050524D01*
X71540643Y-87145762D01*
X71397785Y-87193381D01*
X71159690Y-87193381D01*
X72112071Y-86907667D02*
X72588262Y-86907667D01*
X72016833Y-87193381D02*
X72350166Y-86193381D01*
X72683500Y-87193381D01*
X72873976Y-86193381D02*
X73445405Y-86193381D01*
X73159690Y-87193381D02*
X73159690Y-86193381D01*
X54919643Y-96464500D02*
X54824405Y-96416881D01*
X54681548Y-96416881D01*
X54538690Y-96464500D01*
X54443452Y-96559738D01*
X54395833Y-96654976D01*
X54348214Y-96845452D01*
X54348214Y-96988310D01*
X54395833Y-97178786D01*
X54443452Y-97274024D01*
X54538690Y-97369262D01*
X54681548Y-97416881D01*
X54776786Y-97416881D01*
X54919643Y-97369262D01*
X54967262Y-97321643D01*
X54967262Y-96988310D01*
X54776786Y-96988310D01*
X55395833Y-96750214D02*
X55395833Y-97416881D01*
X55395833Y-96845452D02*
X55443452Y-96797833D01*
X55538690Y-96750214D01*
X55681548Y-96750214D01*
X55776786Y-96797833D01*
X55824405Y-96893071D01*
X55824405Y-97416881D01*
X56729167Y-97416881D02*
X56729167Y-96416881D01*
X56729167Y-97369262D02*
X56633929Y-97416881D01*
X56443452Y-97416881D01*
X56348214Y-97369262D01*
X56300595Y-97321643D01*
X56252976Y-97226405D01*
X56252976Y-96940690D01*
X56300595Y-96845452D01*
X56348214Y-96797833D01*
X56443452Y-96750214D01*
X56633929Y-96750214D01*
X56729167Y-96797833D01*
X54919643Y-91321000D02*
X54824405Y-91273381D01*
X54681548Y-91273381D01*
X54538690Y-91321000D01*
X54443452Y-91416238D01*
X54395833Y-91511476D01*
X54348214Y-91701952D01*
X54348214Y-91844810D01*
X54395833Y-92035286D01*
X54443452Y-92130524D01*
X54538690Y-92225762D01*
X54681548Y-92273381D01*
X54776786Y-92273381D01*
X54919643Y-92225762D01*
X54967262Y-92178143D01*
X54967262Y-91844810D01*
X54776786Y-91844810D01*
X55395833Y-91606714D02*
X55395833Y-92273381D01*
X55395833Y-91701952D02*
X55443452Y-91654333D01*
X55538690Y-91606714D01*
X55681548Y-91606714D01*
X55776786Y-91654333D01*
X55824405Y-91749571D01*
X55824405Y-92273381D01*
X56729167Y-92273381D02*
X56729167Y-91273381D01*
X56729167Y-92225762D02*
X56633929Y-92273381D01*
X56443452Y-92273381D01*
X56348214Y-92225762D01*
X56300595Y-92178143D01*
X56252976Y-92082905D01*
X56252976Y-91797190D01*
X56300595Y-91701952D01*
X56348214Y-91654333D01*
X56443452Y-91606714D01*
X56633929Y-91606714D01*
X56729167Y-91654333D01*
X54919643Y-88844500D02*
X54824405Y-88796881D01*
X54681548Y-88796881D01*
X54538690Y-88844500D01*
X54443452Y-88939738D01*
X54395833Y-89034976D01*
X54348214Y-89225452D01*
X54348214Y-89368310D01*
X54395833Y-89558786D01*
X54443452Y-89654024D01*
X54538690Y-89749262D01*
X54681548Y-89796881D01*
X54776786Y-89796881D01*
X54919643Y-89749262D01*
X54967262Y-89701643D01*
X54967262Y-89368310D01*
X54776786Y-89368310D01*
X55395833Y-89130214D02*
X55395833Y-89796881D01*
X55395833Y-89225452D02*
X55443452Y-89177833D01*
X55538690Y-89130214D01*
X55681548Y-89130214D01*
X55776786Y-89177833D01*
X55824405Y-89273071D01*
X55824405Y-89796881D01*
X56729167Y-89796881D02*
X56729167Y-88796881D01*
X56729167Y-89749262D02*
X56633929Y-89796881D01*
X56443452Y-89796881D01*
X56348214Y-89749262D01*
X56300595Y-89701643D01*
X56252976Y-89606405D01*
X56252976Y-89320690D01*
X56300595Y-89225452D01*
X56348214Y-89177833D01*
X56443452Y-89130214D01*
X56633929Y-89130214D01*
X56729167Y-89177833D01*
X53832310Y-86383881D02*
X54451358Y-86383881D01*
X54118024Y-86764833D01*
X54260882Y-86764833D01*
X54356120Y-86812452D01*
X54403739Y-86860071D01*
X54451358Y-86955310D01*
X54451358Y-87193405D01*
X54403739Y-87288643D01*
X54356120Y-87336262D01*
X54260882Y-87383881D01*
X53975167Y-87383881D01*
X53879929Y-87336262D01*
X53832310Y-87288643D01*
X54879929Y-87288643D02*
X54927548Y-87336262D01*
X54879929Y-87383881D01*
X54832310Y-87336262D01*
X54879929Y-87288643D01*
X54879929Y-87383881D01*
X55260881Y-86383881D02*
X55879929Y-86383881D01*
X55546595Y-86764833D01*
X55689453Y-86764833D01*
X55784691Y-86812452D01*
X55832310Y-86860071D01*
X55879929Y-86955310D01*
X55879929Y-87193405D01*
X55832310Y-87288643D01*
X55784691Y-87336262D01*
X55689453Y-87383881D01*
X55403738Y-87383881D01*
X55308500Y-87336262D01*
X55260881Y-87288643D01*
X56165643Y-86383881D02*
X56498976Y-87383881D01*
X56832310Y-86383881D01*
X53414929Y-57286521D02*
X67979375Y-57286521D01*
X67979375Y-57286521D02*
X67979375Y-70578448D01*
X67979375Y-70578448D02*
X53414929Y-70578448D01*
X53414929Y-70578448D02*
X53414929Y-57286521D01*
X52243084Y-59579475D02*
X53351814Y-59579475D01*
X53351814Y-59579475D02*
X53351814Y-67441380D01*
X53351814Y-67441380D02*
X52243084Y-67441380D01*
X52243084Y-67441380D02*
X52243084Y-59579475D01*
X68067688Y-59579698D02*
X69176418Y-59579698D01*
X69176418Y-59579698D02*
X69176418Y-67441603D01*
X69176418Y-67441603D02*
X68067688Y-67441603D01*
X68067688Y-67441603D02*
X68067688Y-59579698D01*
D11*
X60365000Y-85771000D02*
X57940000Y-85771000D01*
X60615000Y-95631000D02*
X65115000Y-95631000D01*
X60365000Y-95885000D02*
X60619000Y-95631000D01*
X60619000Y-95631000D02*
X60365000Y-95377000D01*
X60365000Y-95377000D02*
X60365000Y-95250000D01*
X60365000Y-96012000D02*
X60365000Y-95885000D01*
X65365000Y-95377000D02*
X65111000Y-95631000D01*
X65365000Y-95885000D02*
X65365000Y-96012000D01*
X65111000Y-95631000D02*
X65365000Y-95885000D01*
X65365000Y-95250000D02*
X65365000Y-95377000D01*
X60615000Y-88011000D02*
X65115000Y-88011000D01*
X65365000Y-98171000D02*
X65365000Y-97891000D01*
X65365000Y-98171000D02*
X60365000Y-98171000D01*
X60365000Y-98171000D02*
X60365000Y-97891000D01*
X60365000Y-85471000D02*
X60365000Y-85751000D01*
X65365000Y-85471000D02*
X60365000Y-85471000D01*
X65365000Y-87630000D02*
X65365000Y-87757000D01*
X65365000Y-87757000D02*
X65111000Y-88011000D01*
X65111000Y-88011000D02*
X65365000Y-88265000D01*
X65365000Y-88265000D02*
X65365000Y-88392000D01*
X65365000Y-85471000D02*
X65365000Y-85751000D01*
X65365000Y-90170000D02*
X65365000Y-90297000D01*
X65365000Y-92710000D02*
X65365000Y-92837000D01*
X60365000Y-88392000D02*
X60365000Y-88265000D01*
X65111000Y-90551000D02*
X65365000Y-90805000D01*
X65111000Y-93091000D02*
X65365000Y-93345000D01*
X60619000Y-88011000D02*
X60365000Y-87757000D01*
X65365000Y-90805000D02*
X65365000Y-90932000D01*
X65365000Y-93345000D02*
X65365000Y-93472000D01*
X60365000Y-87757000D02*
X60365000Y-87630000D01*
X65365000Y-90297000D02*
X65111000Y-90551000D01*
X65365000Y-92837000D02*
X65111000Y-93091000D01*
X60365000Y-88265000D02*
X60619000Y-88011000D01*
X60365000Y-90932000D02*
X60365000Y-90805000D01*
X60365000Y-93472000D02*
X60365000Y-93345000D01*
X60365000Y-90297000D02*
X60365000Y-90170000D01*
X60365000Y-92837000D02*
X60365000Y-92710000D01*
X60619000Y-90551000D02*
X60365000Y-90297000D01*
X60619000Y-93091000D02*
X60365000Y-92837000D01*
X60365000Y-90805000D02*
X60619000Y-90551000D01*
X60365000Y-93345000D02*
X60619000Y-93091000D01*
X60615000Y-90551000D02*
X65115000Y-90551000D01*
X60615000Y-93091000D02*
X65115000Y-93091000D01*
X126270000Y-76105000D02*
X126270000Y-77105000D01*
X136620000Y-76105000D02*
X136620000Y-77180000D01*
X136620000Y-86455000D02*
X136620000Y-85380000D01*
X126270000Y-86455000D02*
X126270000Y-85380000D01*
X126270000Y-76105000D02*
X127345000Y-76105000D01*
X126270000Y-86455000D02*
X127345000Y-86455000D01*
X136620000Y-86455000D02*
X135545000Y-86455000D01*
X136620000Y-76105000D02*
X135545000Y-76105000D01*
X126270000Y-77105000D02*
X125245000Y-77105000D01*
D10*
X93651071Y-103114479D02*
X79086625Y-103114479D01*
X79086625Y-103114479D02*
X79086625Y-89822552D01*
X79086625Y-89822552D02*
X93651071Y-89822552D01*
X93651071Y-89822552D02*
X93651071Y-103114479D01*
X94822916Y-100821525D02*
X93714186Y-100821525D01*
X93714186Y-100821525D02*
X93714186Y-92959620D01*
X93714186Y-92959620D02*
X94822916Y-92959620D01*
X94822916Y-92959620D02*
X94822916Y-100821525D01*
X78998312Y-100821302D02*
X77889582Y-100821302D01*
X77889582Y-100821302D02*
X77889582Y-92959397D01*
X77889582Y-92959397D02*
X78998312Y-92959397D01*
X78998312Y-92959397D02*
X78998312Y-100821302D01*
D11*
X161290000Y-89662000D02*
X158661100Y-89662000D01*
X152908000Y-89662000D02*
X155536900Y-89662000D01*
X153670000Y-98044000D02*
X155536900Y-98044000D01*
X160528000Y-98044000D02*
X158661100Y-98044000D01*
X158661100Y-97459800D02*
G75*
G03X158661100Y-90246200I-1562100J3606800D01*
G01*
X155536900Y-90246200D02*
G75*
G03X155536900Y-97459800I1562100J-3606800D01*
G01*
X161290000Y-89662000D02*
X161290000Y-97282000D01*
X161290000Y-97282000D02*
X160528000Y-98044000D01*
X153670000Y-98044000D02*
X152908000Y-97282000D01*
X152908000Y-97282000D02*
X152908000Y-89662000D01*
X142078000Y-86772000D02*
X142078000Y-87472000D01*
X140878000Y-87472000D02*
X140878000Y-86772000D01*
X122590000Y-75915000D02*
X122590000Y-75215000D01*
X123790000Y-75215000D02*
X123790000Y-75915000D01*
X139919000Y-86772000D02*
X139919000Y-87472000D01*
X138719000Y-87472000D02*
X138719000Y-86772000D01*
X120558000Y-84551000D02*
X120558000Y-83851000D01*
X121758000Y-83851000D02*
X121758000Y-84551000D01*
D10*
X113971071Y-103114479D02*
X99406625Y-103114479D01*
X99406625Y-103114479D02*
X99406625Y-89822552D01*
X99406625Y-89822552D02*
X113971071Y-89822552D01*
X113971071Y-89822552D02*
X113971071Y-103114479D01*
X115142916Y-100821525D02*
X114034186Y-100821525D01*
X114034186Y-100821525D02*
X114034186Y-92959620D01*
X114034186Y-92959620D02*
X115142916Y-92959620D01*
X115142916Y-92959620D02*
X115142916Y-100821525D01*
X99318312Y-100821302D02*
X98209582Y-100821302D01*
X98209582Y-100821302D02*
X98209582Y-92959397D01*
X98209582Y-92959397D02*
X99318312Y-92959397D01*
X99318312Y-92959397D02*
X99318312Y-100821302D01*
X73734929Y-57286521D02*
X88299375Y-57286521D01*
X88299375Y-57286521D02*
X88299375Y-70578448D01*
X88299375Y-70578448D02*
X73734929Y-70578448D01*
X73734929Y-70578448D02*
X73734929Y-57286521D01*
X72563084Y-59579475D02*
X73671814Y-59579475D01*
X73671814Y-59579475D02*
X73671814Y-67441380D01*
X73671814Y-67441380D02*
X72563084Y-67441380D01*
X72563084Y-67441380D02*
X72563084Y-59579475D01*
X88387688Y-59579698D02*
X89496418Y-59579698D01*
X89496418Y-59579698D02*
X89496418Y-67441603D01*
X89496418Y-67441603D02*
X88387688Y-67441603D01*
X88387688Y-67441603D02*
X88387688Y-59579698D01*
X94054929Y-57286521D02*
X108619375Y-57286521D01*
X108619375Y-57286521D02*
X108619375Y-70578448D01*
X108619375Y-70578448D02*
X94054929Y-70578448D01*
X94054929Y-70578448D02*
X94054929Y-57286521D01*
X92883084Y-59579475D02*
X93991814Y-59579475D01*
X93991814Y-59579475D02*
X93991814Y-67441380D01*
X93991814Y-67441380D02*
X92883084Y-67441380D01*
X92883084Y-67441380D02*
X92883084Y-59579475D01*
X108707688Y-59579698D02*
X109816418Y-59579698D01*
X109816418Y-59579698D02*
X109816418Y-67441603D01*
X109816418Y-67441603D02*
X108707688Y-67441603D01*
X108707688Y-67441603D02*
X108707688Y-59579698D01*
X114374929Y-57286521D02*
X128939375Y-57286521D01*
X128939375Y-57286521D02*
X128939375Y-70578448D01*
X128939375Y-70578448D02*
X114374929Y-70578448D01*
X114374929Y-70578448D02*
X114374929Y-57286521D01*
X113203084Y-59579475D02*
X114311814Y-59579475D01*
X114311814Y-59579475D02*
X114311814Y-67441380D01*
X114311814Y-67441380D02*
X113203084Y-67441380D01*
X113203084Y-67441380D02*
X113203084Y-59579475D01*
X129027688Y-59579698D02*
X130136418Y-59579698D01*
X130136418Y-59579698D02*
X130136418Y-67441603D01*
X130136418Y-67441603D02*
X129027688Y-67441603D01*
X129027688Y-67441603D02*
X129027688Y-59579698D01*
X134694929Y-57286521D02*
X149259375Y-57286521D01*
X149259375Y-57286521D02*
X149259375Y-70578448D01*
X149259375Y-70578448D02*
X134694929Y-70578448D01*
X134694929Y-70578448D02*
X134694929Y-57286521D01*
X133523084Y-59579475D02*
X134631814Y-59579475D01*
X134631814Y-59579475D02*
X134631814Y-67441380D01*
X134631814Y-67441380D02*
X133523084Y-67441380D01*
X133523084Y-67441380D02*
X133523084Y-59579475D01*
X149347688Y-59579698D02*
X150456418Y-59579698D01*
X150456418Y-59579698D02*
X150456418Y-67441603D01*
X150456418Y-67441603D02*
X149347688Y-67441603D01*
X149347688Y-67441603D02*
X149347688Y-59579698D01*
X155014929Y-57286521D02*
X169579375Y-57286521D01*
X169579375Y-57286521D02*
X169579375Y-70578448D01*
X169579375Y-70578448D02*
X155014929Y-70578448D01*
X155014929Y-70578448D02*
X155014929Y-57286521D01*
X153843084Y-59579475D02*
X154951814Y-59579475D01*
X154951814Y-59579475D02*
X154951814Y-67441380D01*
X154951814Y-67441380D02*
X153843084Y-67441380D01*
X153843084Y-67441380D02*
X153843084Y-59579475D01*
X169667688Y-59579698D02*
X170776418Y-59579698D01*
X170776418Y-59579698D02*
X170776418Y-67441603D01*
X170776418Y-67441603D02*
X169667688Y-67441603D01*
X169667688Y-67441603D02*
X169667688Y-59579698D01*
X175334929Y-57286521D02*
X189899375Y-57286521D01*
X189899375Y-57286521D02*
X189899375Y-70578448D01*
X189899375Y-70578448D02*
X175334929Y-70578448D01*
X175334929Y-70578448D02*
X175334929Y-57286521D01*
X174163084Y-59579475D02*
X175271814Y-59579475D01*
X175271814Y-59579475D02*
X175271814Y-67441380D01*
X175271814Y-67441380D02*
X174163084Y-67441380D01*
X174163084Y-67441380D02*
X174163084Y-59579475D01*
X189987688Y-59579698D02*
X191096418Y-59579698D01*
X191096418Y-59579698D02*
X191096418Y-67441603D01*
X191096418Y-67441603D02*
X189987688Y-67441603D01*
X189987688Y-67441603D02*
X189987688Y-59579698D01*
X195654929Y-57286521D02*
X210219375Y-57286521D01*
X210219375Y-57286521D02*
X210219375Y-70578448D01*
X210219375Y-70578448D02*
X195654929Y-70578448D01*
X195654929Y-70578448D02*
X195654929Y-57286521D01*
X194483084Y-59579475D02*
X195591814Y-59579475D01*
X195591814Y-59579475D02*
X195591814Y-67441380D01*
X195591814Y-67441380D02*
X194483084Y-67441380D01*
X194483084Y-67441380D02*
X194483084Y-59579475D01*
X210307688Y-59579698D02*
X211416418Y-59579698D01*
X211416418Y-59579698D02*
X211416418Y-67441603D01*
X211416418Y-67441603D02*
X210307688Y-67441603D01*
X210307688Y-67441603D02*
X210307688Y-59579698D01*
D14*
X149090000Y-97835000D02*
X148090000Y-97835000D01*
X148090000Y-96475000D02*
X149090000Y-96475000D01*
X123063000Y-100323000D02*
X133343000Y-100323000D01*
X133343000Y-100323000D02*
X133343000Y-97543000D01*
X133343000Y-97543000D02*
X123063000Y-97543000D01*
X123063000Y-97543000D02*
X123063000Y-100323000D01*
X121793000Y-100323000D02*
X120403000Y-100323000D01*
X120403000Y-100323000D02*
X120403000Y-98933000D01*
X166886000Y-94999000D02*
X166536000Y-94999000D01*
X166536000Y-94999000D02*
X166536000Y-93499000D01*
X171536000Y-94999000D02*
X168336000Y-94999000D01*
X173336000Y-93499000D02*
X173336000Y-94999000D01*
X173336000Y-94999000D02*
X172936000Y-94999000D01*
D11*
X51609667Y-69175381D02*
X51609667Y-69889667D01*
X51562047Y-70032524D01*
X51466809Y-70127762D01*
X51323952Y-70175381D01*
X51228714Y-70175381D01*
X51990619Y-69175381D02*
X52609667Y-69175381D01*
X52276333Y-69556333D01*
X52419191Y-69556333D01*
X52514429Y-69603952D01*
X52562048Y-69651571D01*
X52609667Y-69746810D01*
X52609667Y-69984905D01*
X52562048Y-70080143D01*
X52514429Y-70127762D01*
X52419191Y-70175381D01*
X52133476Y-70175381D01*
X52038238Y-70127762D01*
X51990619Y-70080143D01*
X55395905Y-84907381D02*
X55395905Y-83907381D01*
X55776858Y-83907381D01*
X55872096Y-83955000D01*
X55919715Y-84002619D01*
X55967334Y-84097857D01*
X55967334Y-84240714D01*
X55919715Y-84335952D01*
X55872096Y-84383571D01*
X55776858Y-84431190D01*
X55395905Y-84431190D01*
X56919715Y-84907381D02*
X56348286Y-84907381D01*
X56634000Y-84907381D02*
X56634000Y-83907381D01*
X56538762Y-84050238D01*
X56443524Y-84145476D01*
X56348286Y-84193095D01*
X63476143Y-95463809D02*
X63523762Y-95511428D01*
X63571381Y-95654285D01*
X63571381Y-95749523D01*
X63523762Y-95892381D01*
X63428524Y-95987619D01*
X63333286Y-96035238D01*
X63142810Y-96082857D01*
X62999952Y-96082857D01*
X62809476Y-96035238D01*
X62714238Y-95987619D01*
X62619000Y-95892381D01*
X62571381Y-95749523D01*
X62571381Y-95654285D01*
X62619000Y-95511428D01*
X62666619Y-95463809D01*
X62571381Y-94844762D02*
X62571381Y-94654285D01*
X62619000Y-94559047D01*
X62714238Y-94463809D01*
X62904714Y-94416190D01*
X63238048Y-94416190D01*
X63428524Y-94463809D01*
X63523762Y-94559047D01*
X63571381Y-94654285D01*
X63571381Y-94844762D01*
X63523762Y-94940000D01*
X63428524Y-95035238D01*
X63238048Y-95082857D01*
X62904714Y-95082857D01*
X62714238Y-95035238D01*
X62619000Y-94940000D01*
X62571381Y-94844762D01*
X63571381Y-93987619D02*
X62571381Y-93987619D01*
X63571381Y-93416190D01*
X62571381Y-93416190D01*
X63571381Y-92940000D02*
X62571381Y-92940000D01*
X63571381Y-92368571D01*
X62571381Y-92368571D01*
X63666619Y-92130476D02*
X63666619Y-91368571D01*
X62571381Y-90940000D02*
X62571381Y-90844761D01*
X62619000Y-90749523D01*
X62666619Y-90701904D01*
X62761857Y-90654285D01*
X62952333Y-90606666D01*
X63190429Y-90606666D01*
X63380905Y-90654285D01*
X63476143Y-90701904D01*
X63523762Y-90749523D01*
X63571381Y-90844761D01*
X63571381Y-90940000D01*
X63523762Y-91035238D01*
X63476143Y-91082857D01*
X63380905Y-91130476D01*
X63190429Y-91178095D01*
X62952333Y-91178095D01*
X62761857Y-91130476D01*
X62666619Y-91082857D01*
X62619000Y-91035238D01*
X62571381Y-90940000D01*
X62666619Y-90225714D02*
X62619000Y-90178095D01*
X62571381Y-90082857D01*
X62571381Y-89844761D01*
X62619000Y-89749523D01*
X62666619Y-89701904D01*
X62761857Y-89654285D01*
X62857095Y-89654285D01*
X62999952Y-89701904D01*
X63571381Y-90273333D01*
X63571381Y-89654285D01*
X62571381Y-89320952D02*
X63571381Y-88654285D01*
X62571381Y-88654285D02*
X63571381Y-89320952D01*
X62571381Y-88082857D02*
X62571381Y-87987618D01*
X62619000Y-87892380D01*
X62666619Y-87844761D01*
X62761857Y-87797142D01*
X62952333Y-87749523D01*
X63190429Y-87749523D01*
X63380905Y-87797142D01*
X63476143Y-87844761D01*
X63523762Y-87892380D01*
X63571381Y-87987618D01*
X63571381Y-88082857D01*
X63523762Y-88178095D01*
X63476143Y-88225714D01*
X63380905Y-88273333D01*
X63190429Y-88320952D01*
X62952333Y-88320952D01*
X62761857Y-88273333D01*
X62666619Y-88225714D01*
X62619000Y-88178095D01*
X62571381Y-88082857D01*
X62571381Y-86844761D02*
X62571381Y-87320952D01*
X63047571Y-87368571D01*
X62999952Y-87320952D01*
X62952333Y-87225714D01*
X62952333Y-86987618D01*
X62999952Y-86892380D01*
X63047571Y-86844761D01*
X63142810Y-86797142D01*
X63380905Y-86797142D01*
X63476143Y-86844761D01*
X63523762Y-86892380D01*
X63571381Y-86987618D01*
X63571381Y-87225714D01*
X63523762Y-87320952D01*
X63476143Y-87368571D01*
X130683095Y-73532381D02*
X130683095Y-74341905D01*
X130730714Y-74437143D01*
X130778333Y-74484762D01*
X130873571Y-74532381D01*
X131064048Y-74532381D01*
X131159286Y-74484762D01*
X131206905Y-74437143D01*
X131254524Y-74341905D01*
X131254524Y-73532381D01*
X131683095Y-73627619D02*
X131730714Y-73580000D01*
X131825952Y-73532381D01*
X132064048Y-73532381D01*
X132159286Y-73580000D01*
X132206905Y-73627619D01*
X132254524Y-73722857D01*
X132254524Y-73818095D01*
X132206905Y-73960952D01*
X131635476Y-74532381D01*
X132254524Y-74532381D01*
X126421190Y-88884762D02*
X126564047Y-88932381D01*
X126802143Y-88932381D01*
X126897381Y-88884762D01*
X126945000Y-88837143D01*
X126992619Y-88741905D01*
X126992619Y-88646667D01*
X126945000Y-88551429D01*
X126897381Y-88503810D01*
X126802143Y-88456190D01*
X126611666Y-88408571D01*
X126516428Y-88360952D01*
X126468809Y-88313333D01*
X126421190Y-88218095D01*
X126421190Y-88122857D01*
X126468809Y-88027619D01*
X126516428Y-87980000D01*
X126611666Y-87932381D01*
X126849762Y-87932381D01*
X126992619Y-87980000D01*
X127278333Y-87932381D02*
X127849762Y-87932381D01*
X127564047Y-88932381D02*
X127564047Y-87932381D01*
X128183095Y-88932381D02*
X128183095Y-87932381D01*
X128516429Y-88646667D01*
X128849762Y-87932381D01*
X128849762Y-88932381D01*
X129230714Y-87932381D02*
X129849762Y-87932381D01*
X129516428Y-88313333D01*
X129659286Y-88313333D01*
X129754524Y-88360952D01*
X129802143Y-88408571D01*
X129849762Y-88503810D01*
X129849762Y-88741905D01*
X129802143Y-88837143D01*
X129754524Y-88884762D01*
X129659286Y-88932381D01*
X129373571Y-88932381D01*
X129278333Y-88884762D01*
X129230714Y-88837143D01*
X130230714Y-88027619D02*
X130278333Y-87980000D01*
X130373571Y-87932381D01*
X130611667Y-87932381D01*
X130706905Y-87980000D01*
X130754524Y-88027619D01*
X130802143Y-88122857D01*
X130802143Y-88218095D01*
X130754524Y-88360952D01*
X130183095Y-88932381D01*
X130802143Y-88932381D01*
X131564048Y-88408571D02*
X131230714Y-88408571D01*
X131230714Y-88932381D02*
X131230714Y-87932381D01*
X131706905Y-87932381D01*
X132278333Y-87932381D02*
X132373572Y-87932381D01*
X132468810Y-87980000D01*
X132516429Y-88027619D01*
X132564048Y-88122857D01*
X132611667Y-88313333D01*
X132611667Y-88551429D01*
X132564048Y-88741905D01*
X132516429Y-88837143D01*
X132468810Y-88884762D01*
X132373572Y-88932381D01*
X132278333Y-88932381D01*
X132183095Y-88884762D01*
X132135476Y-88837143D01*
X132087857Y-88741905D01*
X132040238Y-88551429D01*
X132040238Y-88313333D01*
X132087857Y-88122857D01*
X132135476Y-88027619D01*
X132183095Y-87980000D01*
X132278333Y-87932381D01*
X132945000Y-87932381D02*
X133564048Y-87932381D01*
X133230714Y-88313333D01*
X133373572Y-88313333D01*
X133468810Y-88360952D01*
X133516429Y-88408571D01*
X133564048Y-88503810D01*
X133564048Y-88741905D01*
X133516429Y-88837143D01*
X133468810Y-88884762D01*
X133373572Y-88932381D01*
X133087857Y-88932381D01*
X132992619Y-88884762D01*
X132945000Y-88837143D01*
X134183095Y-87932381D02*
X134278334Y-87932381D01*
X134373572Y-87980000D01*
X134421191Y-88027619D01*
X134468810Y-88122857D01*
X134516429Y-88313333D01*
X134516429Y-88551429D01*
X134468810Y-88741905D01*
X134421191Y-88837143D01*
X134373572Y-88884762D01*
X134278334Y-88932381D01*
X134183095Y-88932381D01*
X134087857Y-88884762D01*
X134040238Y-88837143D01*
X133992619Y-88741905D01*
X133945000Y-88551429D01*
X133945000Y-88313333D01*
X133992619Y-88122857D01*
X134040238Y-88027619D01*
X134087857Y-87980000D01*
X134183095Y-87932381D01*
X135516429Y-88932381D02*
X135183095Y-88456190D01*
X134945000Y-88932381D02*
X134945000Y-87932381D01*
X135325953Y-87932381D01*
X135421191Y-87980000D01*
X135468810Y-88027619D01*
X135516429Y-88122857D01*
X135516429Y-88265714D01*
X135468810Y-88360952D01*
X135421191Y-88408571D01*
X135325953Y-88456190D01*
X134945000Y-88456190D01*
X136087857Y-88360952D02*
X135992619Y-88313333D01*
X135945000Y-88265714D01*
X135897381Y-88170476D01*
X135897381Y-88122857D01*
X135945000Y-88027619D01*
X135992619Y-87980000D01*
X136087857Y-87932381D01*
X136278334Y-87932381D01*
X136373572Y-87980000D01*
X136421191Y-88027619D01*
X136468810Y-88122857D01*
X136468810Y-88170476D01*
X136421191Y-88265714D01*
X136373572Y-88313333D01*
X136278334Y-88360952D01*
X136087857Y-88360952D01*
X135992619Y-88408571D01*
X135945000Y-88456190D01*
X135897381Y-88551429D01*
X135897381Y-88741905D01*
X135945000Y-88837143D01*
X135992619Y-88884762D01*
X136087857Y-88932381D01*
X136278334Y-88932381D01*
X136373572Y-88884762D01*
X136421191Y-88837143D01*
X136468810Y-88741905D01*
X136468810Y-88551429D01*
X136421191Y-88456190D01*
X136373572Y-88408571D01*
X136278334Y-88360952D01*
X92503667Y-87717381D02*
X92503667Y-88431667D01*
X92456047Y-88574524D01*
X92360809Y-88669762D01*
X92217952Y-88717381D01*
X92122714Y-88717381D01*
X92932238Y-87812619D02*
X92979857Y-87765000D01*
X93075095Y-87717381D01*
X93313191Y-87717381D01*
X93408429Y-87765000D01*
X93456048Y-87812619D01*
X93503667Y-87907857D01*
X93503667Y-88003095D01*
X93456048Y-88145952D01*
X92884619Y-88717381D01*
X93503667Y-88717381D01*
X162904443Y-94019666D02*
X162952062Y-94067285D01*
X162999681Y-94210142D01*
X162999681Y-94305380D01*
X162952062Y-94448238D01*
X162856824Y-94543476D01*
X162761586Y-94591095D01*
X162571110Y-94638714D01*
X162428252Y-94638714D01*
X162237776Y-94591095D01*
X162142538Y-94543476D01*
X162047300Y-94448238D01*
X161999681Y-94305380D01*
X161999681Y-94210142D01*
X162047300Y-94067285D01*
X162094919Y-94019666D01*
X162999681Y-93067285D02*
X162999681Y-93638714D01*
X162999681Y-93353000D02*
X161999681Y-93353000D01*
X162142538Y-93448238D01*
X162237776Y-93543476D01*
X162285395Y-93638714D01*
X152103081Y-95400619D02*
X152103081Y-95972048D01*
X152103081Y-95686334D02*
X151103081Y-95686334D01*
X151245938Y-95781572D01*
X151341176Y-95876810D01*
X151388795Y-95972048D01*
X151103081Y-94781572D02*
X151103081Y-94686333D01*
X151150700Y-94591095D01*
X151198319Y-94543476D01*
X151293557Y-94495857D01*
X151484033Y-94448238D01*
X151722129Y-94448238D01*
X151912605Y-94495857D01*
X152007843Y-94543476D01*
X152055462Y-94591095D01*
X152103081Y-94686333D01*
X152103081Y-94781572D01*
X152055462Y-94876810D01*
X152007843Y-94924429D01*
X151912605Y-94972048D01*
X151722129Y-95019667D01*
X151484033Y-95019667D01*
X151293557Y-94972048D01*
X151198319Y-94924429D01*
X151150700Y-94876810D01*
X151103081Y-94781572D01*
X151103081Y-93829191D02*
X151103081Y-93733952D01*
X151150700Y-93638714D01*
X151198319Y-93591095D01*
X151293557Y-93543476D01*
X151484033Y-93495857D01*
X151722129Y-93495857D01*
X151912605Y-93543476D01*
X152007843Y-93591095D01*
X152055462Y-93638714D01*
X152103081Y-93733952D01*
X152103081Y-93829191D01*
X152055462Y-93924429D01*
X152007843Y-93972048D01*
X151912605Y-94019667D01*
X151722129Y-94067286D01*
X151484033Y-94067286D01*
X151293557Y-94019667D01*
X151198319Y-93972048D01*
X151150700Y-93924429D01*
X151103081Y-93829191D01*
X151436414Y-92638714D02*
X152103081Y-92638714D01*
X151436414Y-93067286D02*
X151960224Y-93067286D01*
X152055462Y-93019667D01*
X152103081Y-92924429D01*
X152103081Y-92781571D01*
X152055462Y-92686333D01*
X152007843Y-92638714D01*
X151579271Y-91829190D02*
X151579271Y-92162524D01*
X152103081Y-92162524D02*
X151103081Y-92162524D01*
X151103081Y-91686333D01*
X161082029Y-99009152D02*
X161082029Y-98247247D01*
X161462981Y-98628199D02*
X160701076Y-98628199D01*
X141835143Y-90463666D02*
X141882762Y-90511285D01*
X141930381Y-90654142D01*
X141930381Y-90749380D01*
X141882762Y-90892238D01*
X141787524Y-90987476D01*
X141692286Y-91035095D01*
X141501810Y-91082714D01*
X141358952Y-91082714D01*
X141168476Y-91035095D01*
X141073238Y-90987476D01*
X140978000Y-90892238D01*
X140930381Y-90749380D01*
X140930381Y-90654142D01*
X140978000Y-90511285D01*
X141025619Y-90463666D01*
X141025619Y-90082714D02*
X140978000Y-90035095D01*
X140930381Y-89939857D01*
X140930381Y-89701761D01*
X140978000Y-89606523D01*
X141025619Y-89558904D01*
X141120857Y-89511285D01*
X141216095Y-89511285D01*
X141358952Y-89558904D01*
X141930381Y-90130333D01*
X141930381Y-89511285D01*
X141263714Y-84970761D02*
X141930381Y-84970761D01*
X140882762Y-85208857D02*
X141597048Y-85446952D01*
X141597048Y-84827904D01*
X141835143Y-84446952D02*
X141882762Y-84399333D01*
X141930381Y-84446952D01*
X141882762Y-84494571D01*
X141835143Y-84446952D01*
X141930381Y-84446952D01*
X140930381Y-84066000D02*
X140930381Y-83399333D01*
X141930381Y-83827905D01*
X141263714Y-82589809D02*
X141930381Y-82589809D01*
X141263714Y-83018381D02*
X141787524Y-83018381D01*
X141882762Y-82970762D01*
X141930381Y-82875524D01*
X141930381Y-82732666D01*
X141882762Y-82637428D01*
X141835143Y-82589809D01*
X141406571Y-81780285D02*
X141406571Y-82113619D01*
X141930381Y-82113619D02*
X140930381Y-82113619D01*
X140930381Y-81637428D01*
X121647143Y-75731666D02*
X121694762Y-75779285D01*
X121742381Y-75922142D01*
X121742381Y-76017380D01*
X121694762Y-76160238D01*
X121599524Y-76255476D01*
X121504286Y-76303095D01*
X121313810Y-76350714D01*
X121170952Y-76350714D01*
X120980476Y-76303095D01*
X120885238Y-76255476D01*
X120790000Y-76160238D01*
X120742381Y-76017380D01*
X120742381Y-75922142D01*
X120790000Y-75779285D01*
X120837619Y-75731666D01*
X120742381Y-75398333D02*
X120742381Y-74779285D01*
X121123333Y-75112619D01*
X121123333Y-74969761D01*
X121170952Y-74874523D01*
X121218571Y-74826904D01*
X121313810Y-74779285D01*
X121551905Y-74779285D01*
X121647143Y-74826904D01*
X121694762Y-74874523D01*
X121742381Y-74969761D01*
X121742381Y-75255476D01*
X121694762Y-75350714D01*
X121647143Y-75398333D01*
X123896381Y-80922619D02*
X123896381Y-81494048D01*
X123896381Y-81208334D02*
X122896381Y-81208334D01*
X123039238Y-81303572D01*
X123134476Y-81398810D01*
X123182095Y-81494048D01*
X122896381Y-80303572D02*
X122896381Y-80208333D01*
X122944000Y-80113095D01*
X122991619Y-80065476D01*
X123086857Y-80017857D01*
X123277333Y-79970238D01*
X123515429Y-79970238D01*
X123705905Y-80017857D01*
X123801143Y-80065476D01*
X123848762Y-80113095D01*
X123896381Y-80208333D01*
X123896381Y-80303572D01*
X123848762Y-80398810D01*
X123801143Y-80446429D01*
X123705905Y-80494048D01*
X123515429Y-80541667D01*
X123277333Y-80541667D01*
X123086857Y-80494048D01*
X122991619Y-80446429D01*
X122944000Y-80398810D01*
X122896381Y-80303572D01*
X122896381Y-79351191D02*
X122896381Y-79255952D01*
X122944000Y-79160714D01*
X122991619Y-79113095D01*
X123086857Y-79065476D01*
X123277333Y-79017857D01*
X123515429Y-79017857D01*
X123705905Y-79065476D01*
X123801143Y-79113095D01*
X123848762Y-79160714D01*
X123896381Y-79255952D01*
X123896381Y-79351191D01*
X123848762Y-79446429D01*
X123801143Y-79494048D01*
X123705905Y-79541667D01*
X123515429Y-79589286D01*
X123277333Y-79589286D01*
X123086857Y-79541667D01*
X122991619Y-79494048D01*
X122944000Y-79446429D01*
X122896381Y-79351191D01*
X123229714Y-78589286D02*
X123896381Y-78589286D01*
X123324952Y-78589286D02*
X123277333Y-78541667D01*
X123229714Y-78446429D01*
X123229714Y-78303571D01*
X123277333Y-78208333D01*
X123372571Y-78160714D01*
X123896381Y-78160714D01*
X123372571Y-77351190D02*
X123372571Y-77684524D01*
X123896381Y-77684524D02*
X122896381Y-77684524D01*
X122896381Y-77208333D01*
X139676143Y-90463666D02*
X139723762Y-90511285D01*
X139771381Y-90654142D01*
X139771381Y-90749380D01*
X139723762Y-90892238D01*
X139628524Y-90987476D01*
X139533286Y-91035095D01*
X139342810Y-91082714D01*
X139199952Y-91082714D01*
X139009476Y-91035095D01*
X138914238Y-90987476D01*
X138819000Y-90892238D01*
X138771381Y-90749380D01*
X138771381Y-90654142D01*
X138819000Y-90511285D01*
X138866619Y-90463666D01*
X139104714Y-89606523D02*
X139771381Y-89606523D01*
X138723762Y-89844619D02*
X139438048Y-90082714D01*
X139438048Y-89463666D01*
X139771381Y-84796119D02*
X139771381Y-85367548D01*
X139771381Y-85081834D02*
X138771381Y-85081834D01*
X138914238Y-85177072D01*
X139009476Y-85272310D01*
X139057095Y-85367548D01*
X138771381Y-84177072D02*
X138771381Y-84081833D01*
X138819000Y-83986595D01*
X138866619Y-83938976D01*
X138961857Y-83891357D01*
X139152333Y-83843738D01*
X139390429Y-83843738D01*
X139580905Y-83891357D01*
X139676143Y-83938976D01*
X139723762Y-83986595D01*
X139771381Y-84081833D01*
X139771381Y-84177072D01*
X139723762Y-84272310D01*
X139676143Y-84319929D01*
X139580905Y-84367548D01*
X139390429Y-84415167D01*
X139152333Y-84415167D01*
X138961857Y-84367548D01*
X138866619Y-84319929D01*
X138819000Y-84272310D01*
X138771381Y-84177072D01*
X138771381Y-83224691D02*
X138771381Y-83129452D01*
X138819000Y-83034214D01*
X138866619Y-82986595D01*
X138961857Y-82938976D01*
X139152333Y-82891357D01*
X139390429Y-82891357D01*
X139580905Y-82938976D01*
X139676143Y-82986595D01*
X139723762Y-83034214D01*
X139771381Y-83129452D01*
X139771381Y-83224691D01*
X139723762Y-83319929D01*
X139676143Y-83367548D01*
X139580905Y-83415167D01*
X139390429Y-83462786D01*
X139152333Y-83462786D01*
X138961857Y-83415167D01*
X138866619Y-83367548D01*
X138819000Y-83319929D01*
X138771381Y-83224691D01*
X139104714Y-82462786D02*
X139771381Y-82462786D01*
X139199952Y-82462786D02*
X139152333Y-82415167D01*
X139104714Y-82319929D01*
X139104714Y-82177071D01*
X139152333Y-82081833D01*
X139247571Y-82034214D01*
X139771381Y-82034214D01*
X139247571Y-81224690D02*
X139247571Y-81558024D01*
X139771381Y-81558024D02*
X138771381Y-81558024D01*
X138771381Y-81081833D01*
X119615143Y-84367666D02*
X119662762Y-84415285D01*
X119710381Y-84558142D01*
X119710381Y-84653380D01*
X119662762Y-84796238D01*
X119567524Y-84891476D01*
X119472286Y-84939095D01*
X119281810Y-84986714D01*
X119138952Y-84986714D01*
X118948476Y-84939095D01*
X118853238Y-84891476D01*
X118758000Y-84796238D01*
X118710381Y-84653380D01*
X118710381Y-84558142D01*
X118758000Y-84415285D01*
X118805619Y-84367666D01*
X118710381Y-83462904D02*
X118710381Y-83939095D01*
X119186571Y-83986714D01*
X119138952Y-83939095D01*
X119091333Y-83843857D01*
X119091333Y-83605761D01*
X119138952Y-83510523D01*
X119186571Y-83462904D01*
X119281810Y-83415285D01*
X119519905Y-83415285D01*
X119615143Y-83462904D01*
X119662762Y-83510523D01*
X119710381Y-83605761D01*
X119710381Y-83843857D01*
X119662762Y-83939095D01*
X119615143Y-83986714D01*
X121610381Y-81938619D02*
X121610381Y-82510048D01*
X121610381Y-82224334D02*
X120610381Y-82224334D01*
X120753238Y-82319572D01*
X120848476Y-82414810D01*
X120896095Y-82510048D01*
X120610381Y-81319572D02*
X120610381Y-81224333D01*
X120658000Y-81129095D01*
X120705619Y-81081476D01*
X120800857Y-81033857D01*
X120991333Y-80986238D01*
X121229429Y-80986238D01*
X121419905Y-81033857D01*
X121515143Y-81081476D01*
X121562762Y-81129095D01*
X121610381Y-81224333D01*
X121610381Y-81319572D01*
X121562762Y-81414810D01*
X121515143Y-81462429D01*
X121419905Y-81510048D01*
X121229429Y-81557667D01*
X120991333Y-81557667D01*
X120800857Y-81510048D01*
X120705619Y-81462429D01*
X120658000Y-81414810D01*
X120610381Y-81319572D01*
X120610381Y-80367191D02*
X120610381Y-80271952D01*
X120658000Y-80176714D01*
X120705619Y-80129095D01*
X120800857Y-80081476D01*
X120991333Y-80033857D01*
X121229429Y-80033857D01*
X121419905Y-80081476D01*
X121515143Y-80129095D01*
X121562762Y-80176714D01*
X121610381Y-80271952D01*
X121610381Y-80367191D01*
X121562762Y-80462429D01*
X121515143Y-80510048D01*
X121419905Y-80557667D01*
X121229429Y-80605286D01*
X120991333Y-80605286D01*
X120800857Y-80557667D01*
X120705619Y-80510048D01*
X120658000Y-80462429D01*
X120610381Y-80367191D01*
X120943714Y-79605286D02*
X121610381Y-79605286D01*
X121038952Y-79605286D02*
X120991333Y-79557667D01*
X120943714Y-79462429D01*
X120943714Y-79319571D01*
X120991333Y-79224333D01*
X121086571Y-79176714D01*
X121610381Y-79176714D01*
X121086571Y-78367190D02*
X121086571Y-78700524D01*
X121610381Y-78700524D02*
X120610381Y-78700524D01*
X120610381Y-78224333D01*
X113077667Y-88098381D02*
X113077667Y-88812667D01*
X113030047Y-88955524D01*
X112934809Y-89050762D01*
X112791952Y-89098381D01*
X112696714Y-89098381D01*
X114077667Y-89098381D02*
X113506238Y-89098381D01*
X113791952Y-89098381D02*
X113791952Y-88098381D01*
X113696714Y-88241238D01*
X113601476Y-88336476D01*
X113506238Y-88384095D01*
X72056667Y-69302381D02*
X72056667Y-70016667D01*
X72009047Y-70159524D01*
X71913809Y-70254762D01*
X71770952Y-70302381D01*
X71675714Y-70302381D01*
X72961429Y-69635714D02*
X72961429Y-70302381D01*
X72723333Y-69254762D02*
X72485238Y-69969048D01*
X73104286Y-69969048D01*
X92376667Y-69429381D02*
X92376667Y-70143667D01*
X92329047Y-70286524D01*
X92233809Y-70381762D01*
X92090952Y-70429381D01*
X91995714Y-70429381D01*
X93329048Y-69429381D02*
X92852857Y-69429381D01*
X92805238Y-69905571D01*
X92852857Y-69857952D01*
X92948095Y-69810333D01*
X93186191Y-69810333D01*
X93281429Y-69857952D01*
X93329048Y-69905571D01*
X93376667Y-70000810D01*
X93376667Y-70238905D01*
X93329048Y-70334143D01*
X93281429Y-70381762D01*
X93186191Y-70429381D01*
X92948095Y-70429381D01*
X92852857Y-70381762D01*
X92805238Y-70334143D01*
X112696667Y-69175381D02*
X112696667Y-69889667D01*
X112649047Y-70032524D01*
X112553809Y-70127762D01*
X112410952Y-70175381D01*
X112315714Y-70175381D01*
X113601429Y-69175381D02*
X113410952Y-69175381D01*
X113315714Y-69223000D01*
X113268095Y-69270619D01*
X113172857Y-69413476D01*
X113125238Y-69603952D01*
X113125238Y-69984905D01*
X113172857Y-70080143D01*
X113220476Y-70127762D01*
X113315714Y-70175381D01*
X113506191Y-70175381D01*
X113601429Y-70127762D01*
X113649048Y-70080143D01*
X113696667Y-69984905D01*
X113696667Y-69746810D01*
X113649048Y-69651571D01*
X113601429Y-69603952D01*
X113506191Y-69556333D01*
X113315714Y-69556333D01*
X113220476Y-69603952D01*
X113172857Y-69651571D01*
X113125238Y-69746810D01*
X133143667Y-69302381D02*
X133143667Y-70016667D01*
X133096047Y-70159524D01*
X133000809Y-70254762D01*
X132857952Y-70302381D01*
X132762714Y-70302381D01*
X133524619Y-69302381D02*
X134191286Y-69302381D01*
X133762714Y-70302381D01*
X153463667Y-69048381D02*
X153463667Y-69762667D01*
X153416047Y-69905524D01*
X153320809Y-70000762D01*
X153177952Y-70048381D01*
X153082714Y-70048381D01*
X154082714Y-69476952D02*
X153987476Y-69429333D01*
X153939857Y-69381714D01*
X153892238Y-69286476D01*
X153892238Y-69238857D01*
X153939857Y-69143619D01*
X153987476Y-69096000D01*
X154082714Y-69048381D01*
X154273191Y-69048381D01*
X154368429Y-69096000D01*
X154416048Y-69143619D01*
X154463667Y-69238857D01*
X154463667Y-69286476D01*
X154416048Y-69381714D01*
X154368429Y-69429333D01*
X154273191Y-69476952D01*
X154082714Y-69476952D01*
X153987476Y-69524571D01*
X153939857Y-69572190D01*
X153892238Y-69667429D01*
X153892238Y-69857905D01*
X153939857Y-69953143D01*
X153987476Y-70000762D01*
X154082714Y-70048381D01*
X154273191Y-70048381D01*
X154368429Y-70000762D01*
X154416048Y-69953143D01*
X154463667Y-69857905D01*
X154463667Y-69667429D01*
X154416048Y-69572190D01*
X154368429Y-69524571D01*
X154273191Y-69476952D01*
X173783667Y-69048381D02*
X173783667Y-69762667D01*
X173736047Y-69905524D01*
X173640809Y-70000762D01*
X173497952Y-70048381D01*
X173402714Y-70048381D01*
X174307476Y-70048381D02*
X174497952Y-70048381D01*
X174593191Y-70000762D01*
X174640810Y-69953143D01*
X174736048Y-69810286D01*
X174783667Y-69619810D01*
X174783667Y-69238857D01*
X174736048Y-69143619D01*
X174688429Y-69096000D01*
X174593191Y-69048381D01*
X174402714Y-69048381D01*
X174307476Y-69096000D01*
X174259857Y-69143619D01*
X174212238Y-69238857D01*
X174212238Y-69476952D01*
X174259857Y-69572190D01*
X174307476Y-69619810D01*
X174402714Y-69667429D01*
X174593191Y-69667429D01*
X174688429Y-69619810D01*
X174736048Y-69572190D01*
X174783667Y-69476952D01*
X193373477Y-69175381D02*
X193373477Y-69889667D01*
X193325857Y-70032524D01*
X193230619Y-70127762D01*
X193087762Y-70175381D01*
X192992524Y-70175381D01*
X194373477Y-70175381D02*
X193802048Y-70175381D01*
X194087762Y-70175381D02*
X194087762Y-69175381D01*
X193992524Y-69318238D01*
X193897286Y-69413476D01*
X193802048Y-69461095D01*
X194992524Y-69175381D02*
X195087763Y-69175381D01*
X195183001Y-69223000D01*
X195230620Y-69270619D01*
X195278239Y-69365857D01*
X195325858Y-69556333D01*
X195325858Y-69794429D01*
X195278239Y-69984905D01*
X195230620Y-70080143D01*
X195183001Y-70127762D01*
X195087763Y-70175381D01*
X194992524Y-70175381D01*
X194897286Y-70127762D01*
X194849667Y-70080143D01*
X194802048Y-69984905D01*
X194754429Y-69794429D01*
X194754429Y-69556333D01*
X194802048Y-69365857D01*
X194849667Y-69270619D01*
X194897286Y-69223000D01*
X194992524Y-69175381D01*
X148423334Y-96157381D02*
X148090000Y-95681190D01*
X147851905Y-96157381D02*
X147851905Y-95157381D01*
X148232858Y-95157381D01*
X148328096Y-95205000D01*
X148375715Y-95252619D01*
X148423334Y-95347857D01*
X148423334Y-95490714D01*
X148375715Y-95585952D01*
X148328096Y-95633571D01*
X148232858Y-95681190D01*
X147851905Y-95681190D01*
X149375715Y-96157381D02*
X148804286Y-96157381D01*
X149090000Y-96157381D02*
X149090000Y-95157381D01*
X148994762Y-95300238D01*
X148899524Y-95395476D01*
X148804286Y-95443095D01*
X147280476Y-98107381D02*
X147899524Y-98107381D01*
X147566190Y-98488333D01*
X147709048Y-98488333D01*
X147804286Y-98535952D01*
X147851905Y-98583571D01*
X147899524Y-98678810D01*
X147899524Y-98916905D01*
X147851905Y-99012143D01*
X147804286Y-99059762D01*
X147709048Y-99107381D01*
X147423333Y-99107381D01*
X147328095Y-99059762D01*
X147280476Y-99012143D01*
X148232857Y-98107381D02*
X148851905Y-98107381D01*
X148518571Y-98488333D01*
X148661429Y-98488333D01*
X148756667Y-98535952D01*
X148804286Y-98583571D01*
X148851905Y-98678810D01*
X148851905Y-98916905D01*
X148804286Y-99012143D01*
X148756667Y-99059762D01*
X148661429Y-99107381D01*
X148375714Y-99107381D01*
X148280476Y-99059762D01*
X148232857Y-99012143D01*
X149851905Y-99107381D02*
X149518571Y-98631190D01*
X149280476Y-99107381D02*
X149280476Y-98107381D01*
X149661429Y-98107381D01*
X149756667Y-98155000D01*
X149804286Y-98202619D01*
X149851905Y-98297857D01*
X149851905Y-98440714D01*
X149804286Y-98535952D01*
X149756667Y-98583571D01*
X149661429Y-98631190D01*
X149280476Y-98631190D01*
X119855381Y-99671095D02*
X118855381Y-99671095D01*
X118855381Y-99290142D01*
X118903000Y-99194904D01*
X118950619Y-99147285D01*
X119045857Y-99099666D01*
X119188714Y-99099666D01*
X119283952Y-99147285D01*
X119331571Y-99194904D01*
X119379190Y-99290142D01*
X119379190Y-99671095D01*
X118855381Y-98242523D02*
X118855381Y-98433000D01*
X118903000Y-98528238D01*
X118950619Y-98575857D01*
X119093476Y-98671095D01*
X119283952Y-98718714D01*
X119664905Y-98718714D01*
X119760143Y-98671095D01*
X119807762Y-98623476D01*
X119855381Y-98528238D01*
X119855381Y-98337761D01*
X119807762Y-98242523D01*
X119760143Y-98194904D01*
X119664905Y-98147285D01*
X119426810Y-98147285D01*
X119331571Y-98194904D01*
X119283952Y-98242523D01*
X119236333Y-98337761D01*
X119236333Y-98528238D01*
X119283952Y-98623476D01*
X119331571Y-98671095D01*
X119426810Y-98718714D01*
X164838381Y-94060905D02*
X165647905Y-94060905D01*
X165743143Y-94013286D01*
X165790762Y-93965667D01*
X165838381Y-93870429D01*
X165838381Y-93679952D01*
X165790762Y-93584714D01*
X165743143Y-93537095D01*
X165647905Y-93489476D01*
X164838381Y-93489476D01*
X165838381Y-92489476D02*
X165838381Y-93060905D01*
X165838381Y-92775191D02*
X164838381Y-92775191D01*
X164981238Y-92870429D01*
X165076476Y-92965667D01*
X165124095Y-93060905D01*
M02*
