M48
;DRILL file {KiCad 4.0.4-stable} date 03/09/17 09:34:24
;FORMAT={-:-/ absolute / inch / decimal}
FMAT,2
INCH,TZ
T1C0.075
T2C0.126
%
G90
G05
M72
T1
X2.1555Y-2.7451
X2.6276Y-2.7451
X2.9555Y-2.7451
X3.1624Y-3.5699
X3.4276Y-2.7451
X3.6345Y-3.5699
X3.7555Y-2.7451
X3.9624Y-3.5699
X4.2276Y-2.7451
X4.4345Y-3.5699
X4.5555Y-2.7451
X5.0276Y-2.7451
X5.3555Y-2.7451
X5.8276Y-2.7451
X6.1555Y-2.7451
X6.6276Y-2.7451
X6.9555Y-2.7451
X7.4276Y-2.7451
X7.7555Y-2.7451
X8.2276Y-2.7451
T2
X1.75Y-2.65
X1.75Y-3.665
X8.735Y-2.65
X8.735Y-3.665
T0
M30
