%
M48
METRIC,000.000
T01C0.41
T02C0.79
T03C0.99
T04C1.91
T05C0.50
%
T01
X009657Y009497
X009657Y039865
X009657Y070234
X032595Y009497
X055535Y009497
X078474Y009497
X032595Y039865
X032595Y070234
X055535Y039865
X078474Y039865
X055535Y070234
X078474Y070234
T02
X001313Y021661
X018412Y021661
X001313Y052029
X018412Y052029
X001313Y082398
X018412Y082398
X024252Y021661
X041351Y021661
X047191Y021661
X064290Y021661
X070130Y021661
X087229Y021661
X024252Y052029
X041351Y052029
X024252Y082398
X041351Y082398
X047191Y052029
X064290Y052029
X070130Y052029
X087229Y052029
X047191Y082398
X064290Y082398
X070130Y082398
X087229Y082398
T03
X003048Y004064
X003048Y001523
X005588Y004064
X005588Y001523
X008128Y004064
X008128Y001523
X010668Y004064
X010668Y001523
X013208Y004064
X013208Y001523
X015748Y004064
X015748Y001523
X003048Y034432
X003048Y031892
X005588Y034432
X005588Y031892
X008128Y034432
X008128Y031892
X010668Y034432
X010668Y031892
X013208Y034432
X013208Y031892
X015748Y034432
X015748Y031892
X003048Y064800
X003048Y062260
X005588Y064800
X005588Y062260
X008128Y064800
X008128Y062260
X010668Y064800
X010668Y062260
X013208Y064800
X013208Y062260
X015748Y064800
X015748Y062260
X025987Y004064
X025987Y001523
X028527Y004064
X028527Y001523
X031067Y004064
X031067Y001523
X033607Y004064
X033607Y001523
X036147Y004064
X036147Y001523
X038687Y004064
X038687Y001523
X048926Y004064
X048926Y001523
X051466Y004064
X051466Y001523
X054006Y004064
X054006Y001523
X056546Y004064
X056546Y001523
X059086Y004064
X059086Y001523
X061626Y004064
X061626Y001523
X071865Y004064
X071865Y001523
X074405Y004064
X074405Y001523
X076945Y004064
X076945Y001523
X079485Y004064
X079485Y001523
X082025Y004064
X082025Y001523
X084565Y004064
X084565Y001523
X025987Y034432
X025987Y031892
X028527Y034432
X028527Y031892
X031067Y034432
X031067Y031892
X033607Y034432
X033607Y031892
X036147Y034432
X036147Y031892
X038687Y034432
X038687Y031892
X025987Y064800
X025987Y062260
X028527Y064800
X028527Y062260
X031067Y064800
X031067Y062260
X033607Y064800
X033607Y062260
X036147Y064800
X036147Y062260
X038687Y064800
X038687Y062260
X048926Y034432
X048926Y031892
X051466Y034432
X051466Y031892
X054006Y034432
X054006Y031892
X056546Y034432
X056546Y031892
X059086Y034432
X059086Y031892
X061626Y034432
X061626Y031892
X071865Y034432
X071865Y031892
X074405Y034432
X074405Y031892
X076945Y034432
X076945Y031892
X079485Y034432
X079485Y031892
X082025Y034432
X082025Y031892
X084565Y034432
X084565Y031892
X048926Y064800
X048926Y062260
X051466Y064800
X051466Y062260
X054006Y064800
X054006Y062260
X056546Y064800
X056546Y062260
X059086Y064800
X059086Y062260
X061626Y064800
X061626Y062260
X071865Y064800
X071865Y062260
X074405Y064800
X074405Y062260
X076945Y064800
X076945Y062260
X079485Y064800
X079485Y062260
X082025Y064800
X082025Y062260
X084565Y064800
X084565Y062260
T04
X003822Y014919
X015814Y014919
X003822Y045288
X015814Y045288
X003822Y075656
X015814Y075656
X026761Y014919
X038753Y014919
X049700Y014919
X061692Y014919
X072639Y014919
X084631Y014919
X026761Y045288
X038753Y045288
X026761Y075656
X038753Y075656
X049700Y045288
X061692Y045288
X072639Y045288
X084631Y045288
X049700Y075656
X061692Y075656
X072639Y075656
X084631Y075656
T05
X020188Y011607
X020188Y012607
X020188Y013607
X020188Y014607
X020188Y015607
X020188Y016607
X022689Y016467
X022689Y015467
X022689Y014467
X022689Y013467
X022689Y012467
X022689Y011467
X020188Y026607
X020083Y027572
X019092Y027618
X020188Y030975
X019139Y030118
X023645Y027618
X022708Y027464
X022689Y026467
X022689Y031835
X022689Y030835
X023078Y030118
X024078Y030118
X020188Y041975
X020188Y042975
X020188Y043975
X020188Y044975
X020188Y045975
X020188Y046975
X022689Y046835
X022689Y045835
X022689Y044835
X022689Y043835
X022689Y042835
X022689Y041835
X020188Y056975
X020083Y057941
X019092Y057986
X020188Y061344
X019139Y060486
X023645Y057986
X022708Y057833
X022689Y056835
X022689Y062204
X022689Y061204
X023078Y060486
X024078Y060486
X020188Y072344
X020188Y073344
X020188Y074344
X020188Y075344
X020188Y076344
X020188Y077344
X022689Y077204
X022689Y076204
X022689Y075204
X022689Y074204
X022689Y073204
X022689Y072204
X043127Y041975
X043127Y042975
X043127Y043975
X043127Y044975
X043127Y045975
X043127Y046975
X045628Y046835
X045628Y045835
X045628Y044835
X045628Y043835
X045628Y042835
X045628Y041835
X043127Y056975
X043022Y057941
X042031Y057986
X043127Y061344
X042078Y060486
X046584Y057986
X045647Y057833
X045628Y056835
X045628Y062204
X045628Y061204
X046017Y060486
X047017Y060486
X043127Y011607
X043127Y012607
X043127Y013607
X043127Y014607
X043127Y015607
X043127Y016607
X045628Y016467
X045628Y015467
X045628Y014467
X045628Y013467
X045628Y012467
X045628Y011467
X043127Y026607
X043022Y027572
X042031Y027618
X046584Y027618
X045647Y027464
X045628Y026467
X043127Y030975
X042078Y030118
X045628Y031835
X045628Y030835
X046017Y030118
X047017Y030118
X066066Y011607
X066066Y012607
X066066Y013607
X066066Y014607
X066066Y015607
X066066Y016607
X068567Y016467
X068567Y015467
X068567Y014467
X068567Y013467
X068567Y012467
X068567Y011467
X066066Y026607
X065961Y027572
X064970Y027618
X069523Y027618
X068586Y027464
X068567Y026467
X066066Y030975
X065017Y030118
X068567Y031835
X068567Y030835
X068956Y030118
X069956Y030118
X066066Y041975
X066066Y042975
X066066Y043975
X066066Y044975
X066066Y045975
X066066Y046975
X068567Y046835
X068567Y045835
X068567Y044835
X068567Y043835
X068567Y042835
X068567Y041835
X066066Y056975
X065961Y057941
X064970Y057986
X069523Y057986
X068586Y057833
X068567Y056835
X066066Y061344
X065017Y060486
X068567Y062204
X068567Y061204
X068956Y060486
X069956Y060486
X066066Y072344
X066066Y073344
X066066Y074344
X066066Y075344
X066066Y076344
X066066Y077344
X068567Y077204
X068567Y076204
X068567Y075204
X068567Y074204
X068567Y073204
X068567Y072204
X043127Y072344
X043127Y073344
X043127Y074344
X043127Y075344
X043127Y076344
X043127Y077344
X045628Y077204
X045628Y076204
X045628Y075204
X045628Y074204
X045628Y073204
X045628Y072204
M30