%TF.GenerationSoftware,KiCad,Pcbnew,(5.0.1)-3*%
%TF.CreationDate,2018-12-23T12:05:20+11:00*%
%TF.ProjectId,1Wire-SoManySwitches,31576972652D536F4D616E7953776974,1.2*%
%TF.SameCoordinates,Original*%
%TF.FileFunction,Paste,Top*%
%TF.FilePolarity,Positive*%
%FSLAX46Y46*%
G04 Gerber Fmt 4.6, Leading zero omitted, Abs format (unit mm)*
G04 Created by KiCad (PCBNEW (5.0.1)-3) date 23/12/2018 12:05:20 PM*
%MOMM*%
%LPD*%
G01*
G04 APERTURE LIST*
%ADD10R,1.500000X4.000000*%
%ADD11R,0.600000X2.100000*%
%ADD12R,3.600000X1.270000*%
%ADD13R,1.000000X0.250000*%
%ADD14R,0.250000X1.000000*%
%ADD15R,2.500000X4.000000*%
%ADD16R,0.750000X0.800000*%
%ADD17R,0.900000X0.500000*%
%ADD18R,2.000000X3.500000*%
%ADD19R,7.000000X7.000000*%
G04 APERTURE END LIST*
D10*
%TO.C,J3*%
X69340000Y-62985000D03*
D11*
X57140000Y-69965000D03*
X58160000Y-69965000D03*
X59180000Y-69965000D03*
X60200000Y-69965000D03*
X61220000Y-69965000D03*
X62240000Y-69965000D03*
X63260000Y-69965000D03*
X64280000Y-69965000D03*
D10*
X52240000Y-62985000D03*
%TD*%
D12*
%TO.C,P1*%
X59665000Y-86741000D03*
X59665000Y-89281000D03*
X59665000Y-91821000D03*
X59665000Y-94361000D03*
X66065000Y-94361000D03*
X66065000Y-91821000D03*
X66065000Y-89281000D03*
X66065000Y-86741000D03*
X59665000Y-96901000D03*
X66065000Y-96901000D03*
%TD*%
D13*
%TO.C,U2*%
X125745000Y-77530000D03*
X125745000Y-78030000D03*
X125745000Y-78530000D03*
X125745000Y-79030000D03*
X125745000Y-79530000D03*
X125745000Y-80030000D03*
X125745000Y-80530000D03*
X125745000Y-81030000D03*
X125745000Y-81530000D03*
X125745000Y-82030000D03*
X125745000Y-82530000D03*
X125745000Y-83030000D03*
X125745000Y-83530000D03*
X125745000Y-84030000D03*
X125745000Y-84530000D03*
X125745000Y-85030000D03*
D14*
X127695000Y-86980000D03*
X128195000Y-86980000D03*
X128695000Y-86980000D03*
X129195000Y-86980000D03*
X129695000Y-86980000D03*
X130195000Y-86980000D03*
X130695000Y-86980000D03*
X131195000Y-86980000D03*
X131695000Y-86980000D03*
X132195000Y-86980000D03*
X132695000Y-86980000D03*
X133195000Y-86980000D03*
X133695000Y-86980000D03*
X134195000Y-86980000D03*
X134695000Y-86980000D03*
X135195000Y-86980000D03*
D13*
X137145000Y-85030000D03*
X137145000Y-84530000D03*
X137145000Y-84030000D03*
X137145000Y-83530000D03*
X137145000Y-83030000D03*
X137145000Y-82530000D03*
X137145000Y-82030000D03*
X137145000Y-81530000D03*
X137145000Y-81030000D03*
X137145000Y-80530000D03*
X137145000Y-80030000D03*
X137145000Y-79530000D03*
X137145000Y-79030000D03*
X137145000Y-78530000D03*
X137145000Y-78030000D03*
X137145000Y-77530000D03*
D14*
X135195000Y-75580000D03*
X134695000Y-75580000D03*
X134195000Y-75580000D03*
X133695000Y-75580000D03*
X133195000Y-75580000D03*
X132695000Y-75580000D03*
X132195000Y-75580000D03*
X131695000Y-75580000D03*
X131195000Y-75580000D03*
X130695000Y-75580000D03*
X130195000Y-75580000D03*
X129695000Y-75580000D03*
X129195000Y-75580000D03*
X128695000Y-75580000D03*
X128195000Y-75580000D03*
X127695000Y-75580000D03*
%TD*%
D10*
%TO.C,J2*%
X77726000Y-97416000D03*
D11*
X89926000Y-90436000D03*
X88906000Y-90436000D03*
X87886000Y-90436000D03*
X86866000Y-90436000D03*
X85846000Y-90436000D03*
X84826000Y-90436000D03*
X83806000Y-90436000D03*
X82786000Y-90436000D03*
D10*
X94826000Y-97416000D03*
%TD*%
D15*
%TO.C,C1*%
X157099000Y-96903000D03*
X157099000Y-90803000D03*
%TD*%
D16*
%TO.C,C2*%
X141478000Y-86372000D03*
X141478000Y-87872000D03*
%TD*%
%TO.C,C3*%
X123190000Y-76315000D03*
X123190000Y-74815000D03*
%TD*%
%TO.C,C4*%
X139319000Y-86372000D03*
X139319000Y-87872000D03*
%TD*%
%TO.C,C5*%
X121158000Y-84951000D03*
X121158000Y-83451000D03*
%TD*%
D10*
%TO.C,J1*%
X98046000Y-97416000D03*
D11*
X110246000Y-90436000D03*
X109226000Y-90436000D03*
X108206000Y-90436000D03*
X107186000Y-90436000D03*
X106166000Y-90436000D03*
X105146000Y-90436000D03*
X104126000Y-90436000D03*
X103106000Y-90436000D03*
D10*
X115146000Y-97416000D03*
%TD*%
%TO.C,J4*%
X89660000Y-62985000D03*
D11*
X77460000Y-69965000D03*
X78480000Y-69965000D03*
X79500000Y-69965000D03*
X80520000Y-69965000D03*
X81540000Y-69965000D03*
X82560000Y-69965000D03*
X83580000Y-69965000D03*
X84600000Y-69965000D03*
D10*
X72560000Y-62985000D03*
%TD*%
%TO.C,J5*%
X109980000Y-62985000D03*
D11*
X97780000Y-69965000D03*
X98800000Y-69965000D03*
X99820000Y-69965000D03*
X100840000Y-69965000D03*
X101860000Y-69965000D03*
X102880000Y-69965000D03*
X103900000Y-69965000D03*
X104920000Y-69965000D03*
D10*
X92880000Y-62985000D03*
%TD*%
%TO.C,J6*%
X130300000Y-62985000D03*
D11*
X118100000Y-69965000D03*
X119120000Y-69965000D03*
X120140000Y-69965000D03*
X121160000Y-69965000D03*
X122180000Y-69965000D03*
X123200000Y-69965000D03*
X124220000Y-69965000D03*
X125240000Y-69965000D03*
D10*
X113200000Y-62985000D03*
%TD*%
%TO.C,J7*%
X150620000Y-62985000D03*
D11*
X138420000Y-69965000D03*
X139440000Y-69965000D03*
X140460000Y-69965000D03*
X141480000Y-69965000D03*
X142500000Y-69965000D03*
X143520000Y-69965000D03*
X144540000Y-69965000D03*
X145560000Y-69965000D03*
D10*
X133520000Y-62985000D03*
%TD*%
%TO.C,J8*%
X170940000Y-62985000D03*
D11*
X158740000Y-69965000D03*
X159760000Y-69965000D03*
X160780000Y-69965000D03*
X161800000Y-69965000D03*
X162820000Y-69965000D03*
X163840000Y-69965000D03*
X164860000Y-69965000D03*
X165880000Y-69965000D03*
D10*
X153840000Y-62985000D03*
%TD*%
%TO.C,J9*%
X191260000Y-62985000D03*
D11*
X179060000Y-69965000D03*
X180080000Y-69965000D03*
X181100000Y-69965000D03*
X182120000Y-69965000D03*
X183140000Y-69965000D03*
X184160000Y-69965000D03*
X185180000Y-69965000D03*
X186200000Y-69965000D03*
D10*
X174160000Y-62985000D03*
%TD*%
%TO.C,J10*%
X211580000Y-62985000D03*
D11*
X199380000Y-69965000D03*
X200400000Y-69965000D03*
X201420000Y-69965000D03*
X202440000Y-69965000D03*
X203460000Y-69965000D03*
X204480000Y-69965000D03*
X205500000Y-69965000D03*
X206520000Y-69965000D03*
D10*
X194480000Y-62985000D03*
%TD*%
D17*
%TO.C,R1*%
X73406000Y-93750000D03*
X73406000Y-95250000D03*
%TD*%
D18*
%TO.C,U1*%
X167636000Y-97299000D03*
X172216000Y-97299000D03*
D19*
X169936000Y-89899000D03*
%TD*%
M02*
