%TF.GenerationSoftware,KiCad,Pcbnew,(5.0.1)-3*%
%TF.CreationDate,2018-12-23T12:05:20+11:00*%
%TF.ProjectId,1Wire-SoManySwitches,31576972652D536F4D616E7953776974,1.2*%
%TF.SameCoordinates,Original*%
%TF.FileFunction,Copper,L1,Top,Signal*%
%TF.FilePolarity,Positive*%
%FSLAX46Y46*%
G04 Gerber Fmt 4.6, Leading zero omitted, Abs format (unit mm)*
G04 Created by KiCad (PCBNEW (5.0.1)-3) date 23/12/2018 12:05:20 PM*
%MOMM*%
%LPD*%
G01*
G04 APERTURE LIST*
%TA.AperFunction,SMDPad,CuDef*%
%ADD10R,1.500000X4.000000*%
%TD*%
%TA.AperFunction,ComponentPad*%
%ADD11C,0.900000*%
%TD*%
%TA.AperFunction,SMDPad,CuDef*%
%ADD12R,0.600000X2.100000*%
%TD*%
%TA.AperFunction,SMDPad,CuDef*%
%ADD13R,3.600000X1.270000*%
%TD*%
%TA.AperFunction,SMDPad,CuDef*%
%ADD14R,1.000000X0.250000*%
%TD*%
%TA.AperFunction,SMDPad,CuDef*%
%ADD15R,0.250000X1.000000*%
%TD*%
%TA.AperFunction,SMDPad,CuDef*%
%ADD16R,2.500000X4.000000*%
%TD*%
%TA.AperFunction,SMDPad,CuDef*%
%ADD17R,0.750000X0.800000*%
%TD*%
%TA.AperFunction,SMDPad,CuDef*%
%ADD18R,0.900000X0.500000*%
%TD*%
%TA.AperFunction,ComponentPad*%
%ADD19R,1.700000X1.700000*%
%TD*%
%TA.AperFunction,ComponentPad*%
%ADD20O,1.700000X1.700000*%
%TD*%
%TA.AperFunction,SMDPad,CuDef*%
%ADD21R,2.000000X3.500000*%
%TD*%
%TA.AperFunction,SMDPad,CuDef*%
%ADD22R,7.000000X7.000000*%
%TD*%
%TA.AperFunction,ViaPad*%
%ADD23C,0.600000*%
%TD*%
%TA.AperFunction,Conductor*%
%ADD24C,1.000000*%
%TD*%
%TA.AperFunction,Conductor*%
%ADD25C,0.250000*%
%TD*%
%TA.AperFunction,Conductor*%
%ADD26C,0.254000*%
%TD*%
G04 APERTURE END LIST*
D10*
%TO.P,J3,9*%
%TO.N,GND*%
X69340000Y-62985000D03*
D11*
X69340000Y-62985000D03*
D12*
%TO.P,J3,8*%
%TO.N,+5V*%
X57140000Y-69965000D03*
%TO.P,J3,7*%
%TO.N,/J3_5*%
X58160000Y-69965000D03*
%TO.P,J3,6*%
%TO.N,/J3_4*%
X59180000Y-69965000D03*
%TO.P,J3,5*%
%TO.N,/J3_3*%
X60200000Y-69965000D03*
%TO.P,J3,4*%
%TO.N,/J3_2*%
X61220000Y-69965000D03*
%TO.P,J3,3*%
%TO.N,/J3_1*%
X62240000Y-69965000D03*
%TO.P,J3,2*%
%TO.N,/J3_0*%
X63260000Y-69965000D03*
%TO.P,J3,1*%
%TO.N,GND*%
X64280000Y-69965000D03*
D11*
%TO.P,J3,9*%
X52240000Y-62985000D03*
D10*
X52240000Y-62985000D03*
%TD*%
D13*
%TO.P,P1,1*%
%TO.N,+3V3*%
X59665000Y-86741000D03*
%TO.P,P1,3*%
%TO.N,GND*%
X59665000Y-89281000D03*
%TO.P,P1,5*%
X59665000Y-91821000D03*
%TO.P,P1,7*%
%TO.N,Net-(P1-Pad7)*%
X59665000Y-94361000D03*
%TO.P,P1,8*%
%TO.N,Net-(P1-Pad8)*%
X66065000Y-94361000D03*
%TO.P,P1,6*%
%TO.N,Net-(P1-Pad6)*%
X66065000Y-91821000D03*
%TO.P,P1,4*%
%TO.N,/J7_2*%
X66065000Y-89281000D03*
%TO.P,P1,2*%
%TO.N,/J8_5*%
X66065000Y-86741000D03*
%TO.P,P1,9*%
%TO.N,GND*%
X59665000Y-96901000D03*
%TO.P,P1,10*%
%TO.N,Net-(P1-Pad10)*%
X66065000Y-96901000D03*
%TD*%
D14*
%TO.P,U2,1*%
%TO.N,+3V3*%
X125745000Y-77530000D03*
%TO.P,U2,2*%
%TO.N,/J5_0*%
X125745000Y-78030000D03*
%TO.P,U2,3*%
%TO.N,/J5_1*%
X125745000Y-78530000D03*
%TO.P,U2,4*%
%TO.N,/J5_2*%
X125745000Y-79030000D03*
%TO.P,U2,5*%
%TO.N,/J5_3*%
X125745000Y-79530000D03*
%TO.P,U2,6*%
%TO.N,/J5_4*%
X125745000Y-80030000D03*
%TO.P,U2,7*%
%TO.N,Net-(P1-Pad10)*%
X125745000Y-80530000D03*
%TO.P,U2,8*%
%TO.N,/J5_5*%
X125745000Y-81030000D03*
%TO.P,U2,9*%
%TO.N,/J4_0*%
X125745000Y-81530000D03*
%TO.P,U2,10*%
%TO.N,/J4_1*%
X125745000Y-82030000D03*
%TO.P,U2,11*%
%TO.N,/J4_2*%
X125745000Y-82530000D03*
%TO.P,U2,12*%
%TO.N,GND*%
X125745000Y-83030000D03*
%TO.P,U2,13*%
%TO.N,+3V3*%
X125745000Y-83530000D03*
%TO.P,U2,14*%
%TO.N,/J4_3*%
X125745000Y-84030000D03*
%TO.P,U2,15*%
%TO.N,/J4_4*%
X125745000Y-84530000D03*
%TO.P,U2,16*%
%TO.N,/UART_TX*%
X125745000Y-85030000D03*
D15*
%TO.P,U2,17*%
%TO.N,/UART_RX*%
X127695000Y-86980000D03*
%TO.P,U2,18*%
%TO.N,/J4_5*%
X128195000Y-86980000D03*
%TO.P,U2,19*%
%TO.N,/J3_0*%
X128695000Y-86980000D03*
%TO.P,U2,20*%
%TO.N,/J3_1*%
X129195000Y-86980000D03*
%TO.P,U2,21*%
%TO.N,/J3_2*%
X129695000Y-86980000D03*
%TO.P,U2,22*%
%TO.N,/J3_3*%
X130195000Y-86980000D03*
%TO.P,U2,23*%
%TO.N,/J3_4*%
X130695000Y-86980000D03*
%TO.P,U2,24*%
%TO.N,Net-(U2-Pad24)*%
X131195000Y-86980000D03*
%TO.P,U2,25*%
%TO.N,/J3_5*%
X131695000Y-86980000D03*
%TO.P,U2,26*%
%TO.N,/1W-DATA*%
X132195000Y-86980000D03*
%TO.P,U2,27*%
%TO.N,/J10_0*%
X132695000Y-86980000D03*
%TO.P,U2,28*%
%TO.N,/J10_1*%
X133195000Y-86980000D03*
%TO.P,U2,29*%
%TO.N,/J10_2*%
X133695000Y-86980000D03*
%TO.P,U2,30*%
%TO.N,/J10_3*%
X134195000Y-86980000D03*
%TO.P,U2,31*%
%TO.N,GND*%
X134695000Y-86980000D03*
%TO.P,U2,32*%
%TO.N,+3V3*%
X135195000Y-86980000D03*
D14*
%TO.P,U2,33*%
%TO.N,/J10_4*%
X137145000Y-85030000D03*
%TO.P,U2,34*%
%TO.N,/J10_5*%
X137145000Y-84530000D03*
%TO.P,U2,35*%
%TO.N,/J9_0*%
X137145000Y-84030000D03*
%TO.P,U2,36*%
%TO.N,/J9_1*%
X137145000Y-83530000D03*
%TO.P,U2,37*%
%TO.N,/J9_2*%
X137145000Y-83030000D03*
%TO.P,U2,38*%
%TO.N,/J9_3*%
X137145000Y-82530000D03*
%TO.P,U2,39*%
%TO.N,/J9_4*%
X137145000Y-82030000D03*
%TO.P,U2,40*%
%TO.N,/J9_5*%
X137145000Y-81530000D03*
%TO.P,U2,41*%
%TO.N,/J8_0*%
X137145000Y-81030000D03*
%TO.P,U2,42*%
%TO.N,/J8_1*%
X137145000Y-80530000D03*
%TO.P,U2,43*%
%TO.N,/J8_2*%
X137145000Y-80030000D03*
%TO.P,U2,44*%
%TO.N,/J8_3*%
X137145000Y-79530000D03*
%TO.P,U2,45*%
%TO.N,/J8_4*%
X137145000Y-79030000D03*
%TO.P,U2,46*%
%TO.N,/J8_5*%
X137145000Y-78530000D03*
%TO.P,U2,47*%
%TO.N,/J7_0*%
X137145000Y-78030000D03*
%TO.P,U2,48*%
%TO.N,/J7_1*%
X137145000Y-77530000D03*
D15*
%TO.P,U2,49*%
%TO.N,/J7_2*%
X135195000Y-75580000D03*
%TO.P,U2,50*%
%TO.N,/J7_3*%
X134695000Y-75580000D03*
%TO.P,U2,51*%
%TO.N,/J7_4*%
X134195000Y-75580000D03*
%TO.P,U2,52*%
%TO.N,/J7_5*%
X133695000Y-75580000D03*
%TO.P,U2,53*%
%TO.N,/J6_0*%
X133195000Y-75580000D03*
%TO.P,U2,54*%
%TO.N,N/C*%
X132695000Y-75580000D03*
%TO.P,U2,55*%
%TO.N,/J6_1*%
X132195000Y-75580000D03*
%TO.P,U2,56*%
%TO.N,/J6_2*%
X131695000Y-75580000D03*
%TO.P,U2,57*%
%TO.N,/J6_3*%
X131195000Y-75580000D03*
%TO.P,U2,58*%
%TO.N,/J6_4*%
X130695000Y-75580000D03*
%TO.P,U2,59*%
%TO.N,/J6_5*%
X130195000Y-75580000D03*
%TO.P,U2,60*%
%TO.N,GND*%
X129695000Y-75580000D03*
%TO.P,U2,61*%
%TO.N,Net-(U2-Pad61)*%
X129195000Y-75580000D03*
%TO.P,U2,62*%
%TO.N,Net-(U2-Pad62)*%
X128695000Y-75580000D03*
%TO.P,U2,63*%
%TO.N,GND*%
X128195000Y-75580000D03*
%TO.P,U2,64*%
%TO.N,+3V3*%
X127695000Y-75580000D03*
%TD*%
D10*
%TO.P,J2,9*%
%TO.N,GND*%
X77726000Y-97416000D03*
D11*
X77726000Y-97416000D03*
D12*
%TO.P,J2,8*%
X89926000Y-90436000D03*
%TO.P,J2,7*%
%TO.N,Net-(J1-Pad7)*%
X88906000Y-90436000D03*
%TO.P,J2,6*%
%TO.N,Net-(J1-Pad6)*%
X87886000Y-90436000D03*
%TO.P,J2,5*%
%TO.N,GND*%
X86866000Y-90436000D03*
%TO.P,J2,4*%
%TO.N,/1W-DATA*%
X85846000Y-90436000D03*
%TO.P,J2,3*%
%TO.N,GND*%
X84826000Y-90436000D03*
%TO.P,J2,2*%
%TO.N,+5V*%
X83806000Y-90436000D03*
%TO.P,J2,1*%
%TO.N,GND*%
X82786000Y-90436000D03*
D11*
%TO.P,J2,9*%
X94826000Y-97416000D03*
D10*
X94826000Y-97416000D03*
%TD*%
D16*
%TO.P,C1,1*%
%TO.N,+5V*%
X157099000Y-96903000D03*
%TO.P,C1,2*%
%TO.N,GND*%
X157099000Y-90803000D03*
%TD*%
D17*
%TO.P,C2,1*%
%TO.N,+3V3*%
X141478000Y-86372000D03*
%TO.P,C2,2*%
%TO.N,GND*%
X141478000Y-87872000D03*
%TD*%
%TO.P,C3,1*%
%TO.N,+3V3*%
X123190000Y-76315000D03*
%TO.P,C3,2*%
%TO.N,GND*%
X123190000Y-74815000D03*
%TD*%
%TO.P,C4,1*%
%TO.N,+3V3*%
X139319000Y-86372000D03*
%TO.P,C4,2*%
%TO.N,GND*%
X139319000Y-87872000D03*
%TD*%
%TO.P,C5,1*%
%TO.N,+3V3*%
X121158000Y-84951000D03*
%TO.P,C5,2*%
%TO.N,GND*%
X121158000Y-83451000D03*
%TD*%
D10*
%TO.P,J1,9*%
%TO.N,GND*%
X98046000Y-97416000D03*
D11*
X98046000Y-97416000D03*
D12*
%TO.P,J1,8*%
X110246000Y-90436000D03*
%TO.P,J1,7*%
%TO.N,Net-(J1-Pad7)*%
X109226000Y-90436000D03*
%TO.P,J1,6*%
%TO.N,Net-(J1-Pad6)*%
X108206000Y-90436000D03*
%TO.P,J1,5*%
%TO.N,GND*%
X107186000Y-90436000D03*
%TO.P,J1,4*%
%TO.N,/1W-DATA*%
X106166000Y-90436000D03*
%TO.P,J1,3*%
%TO.N,GND*%
X105146000Y-90436000D03*
%TO.P,J1,2*%
%TO.N,+5V*%
X104126000Y-90436000D03*
%TO.P,J1,1*%
%TO.N,GND*%
X103106000Y-90436000D03*
D11*
%TO.P,J1,9*%
X115146000Y-97416000D03*
D10*
X115146000Y-97416000D03*
%TD*%
%TO.P,J4,9*%
%TO.N,GND*%
X89660000Y-62985000D03*
D11*
X89660000Y-62985000D03*
D12*
%TO.P,J4,8*%
%TO.N,+5V*%
X77460000Y-69965000D03*
%TO.P,J4,7*%
%TO.N,/J4_5*%
X78480000Y-69965000D03*
%TO.P,J4,6*%
%TO.N,/J4_4*%
X79500000Y-69965000D03*
%TO.P,J4,5*%
%TO.N,/J4_3*%
X80520000Y-69965000D03*
%TO.P,J4,4*%
%TO.N,/J4_2*%
X81540000Y-69965000D03*
%TO.P,J4,3*%
%TO.N,/J4_1*%
X82560000Y-69965000D03*
%TO.P,J4,2*%
%TO.N,/J4_0*%
X83580000Y-69965000D03*
%TO.P,J4,1*%
%TO.N,GND*%
X84600000Y-69965000D03*
D11*
%TO.P,J4,9*%
X72560000Y-62985000D03*
D10*
X72560000Y-62985000D03*
%TD*%
%TO.P,J5,9*%
%TO.N,GND*%
X109980000Y-62985000D03*
D11*
X109980000Y-62985000D03*
D12*
%TO.P,J5,8*%
%TO.N,+5V*%
X97780000Y-69965000D03*
%TO.P,J5,7*%
%TO.N,/J5_5*%
X98800000Y-69965000D03*
%TO.P,J5,6*%
%TO.N,/J5_4*%
X99820000Y-69965000D03*
%TO.P,J5,5*%
%TO.N,/J5_3*%
X100840000Y-69965000D03*
%TO.P,J5,4*%
%TO.N,/J5_2*%
X101860000Y-69965000D03*
%TO.P,J5,3*%
%TO.N,/J5_1*%
X102880000Y-69965000D03*
%TO.P,J5,2*%
%TO.N,/J5_0*%
X103900000Y-69965000D03*
%TO.P,J5,1*%
%TO.N,GND*%
X104920000Y-69965000D03*
D11*
%TO.P,J5,9*%
X92880000Y-62985000D03*
D10*
X92880000Y-62985000D03*
%TD*%
%TO.P,J6,9*%
%TO.N,GND*%
X130300000Y-62985000D03*
D11*
X130300000Y-62985000D03*
D12*
%TO.P,J6,8*%
%TO.N,+5V*%
X118100000Y-69965000D03*
%TO.P,J6,7*%
%TO.N,/J6_5*%
X119120000Y-69965000D03*
%TO.P,J6,6*%
%TO.N,/J6_4*%
X120140000Y-69965000D03*
%TO.P,J6,5*%
%TO.N,/J6_3*%
X121160000Y-69965000D03*
%TO.P,J6,4*%
%TO.N,/J6_2*%
X122180000Y-69965000D03*
%TO.P,J6,3*%
%TO.N,/J6_1*%
X123200000Y-69965000D03*
%TO.P,J6,2*%
%TO.N,/J6_0*%
X124220000Y-69965000D03*
%TO.P,J6,1*%
%TO.N,GND*%
X125240000Y-69965000D03*
D11*
%TO.P,J6,9*%
X113200000Y-62985000D03*
D10*
X113200000Y-62985000D03*
%TD*%
%TO.P,J7,9*%
%TO.N,GND*%
X150620000Y-62985000D03*
D11*
X150620000Y-62985000D03*
D12*
%TO.P,J7,8*%
%TO.N,Net-(J7-Pad8)*%
X138420000Y-69965000D03*
%TO.P,J7,7*%
%TO.N,/J7_5*%
X139440000Y-69965000D03*
%TO.P,J7,6*%
%TO.N,/J7_4*%
X140460000Y-69965000D03*
%TO.P,J7,5*%
%TO.N,/J7_3*%
X141480000Y-69965000D03*
%TO.P,J7,4*%
%TO.N,/J7_2*%
X142500000Y-69965000D03*
%TO.P,J7,3*%
%TO.N,/J7_1*%
X143520000Y-69965000D03*
%TO.P,J7,2*%
%TO.N,/J7_0*%
X144540000Y-69965000D03*
%TO.P,J7,1*%
%TO.N,GND*%
X145560000Y-69965000D03*
D11*
%TO.P,J7,9*%
X133520000Y-62985000D03*
D10*
X133520000Y-62985000D03*
%TD*%
%TO.P,J8,9*%
%TO.N,GND*%
X170940000Y-62985000D03*
D11*
X170940000Y-62985000D03*
D12*
%TO.P,J8,8*%
%TO.N,Net-(J7-Pad8)*%
X158740000Y-69965000D03*
%TO.P,J8,7*%
%TO.N,/J8_5*%
X159760000Y-69965000D03*
%TO.P,J8,6*%
%TO.N,/J8_4*%
X160780000Y-69965000D03*
%TO.P,J8,5*%
%TO.N,/J8_3*%
X161800000Y-69965000D03*
%TO.P,J8,4*%
%TO.N,/J8_2*%
X162820000Y-69965000D03*
%TO.P,J8,3*%
%TO.N,/J8_1*%
X163840000Y-69965000D03*
%TO.P,J8,2*%
%TO.N,/J8_0*%
X164860000Y-69965000D03*
%TO.P,J8,1*%
%TO.N,GND*%
X165880000Y-69965000D03*
D11*
%TO.P,J8,9*%
X153840000Y-62985000D03*
D10*
X153840000Y-62985000D03*
%TD*%
%TO.P,J9,9*%
%TO.N,GND*%
X191260000Y-62985000D03*
D11*
X191260000Y-62985000D03*
D12*
%TO.P,J9,8*%
%TO.N,+5V*%
X179060000Y-69965000D03*
%TO.P,J9,7*%
%TO.N,/J9_5*%
X180080000Y-69965000D03*
%TO.P,J9,6*%
%TO.N,/J9_4*%
X181100000Y-69965000D03*
%TO.P,J9,5*%
%TO.N,/J9_3*%
X182120000Y-69965000D03*
%TO.P,J9,4*%
%TO.N,/J9_2*%
X183140000Y-69965000D03*
%TO.P,J9,3*%
%TO.N,/J9_1*%
X184160000Y-69965000D03*
%TO.P,J9,2*%
%TO.N,/J9_0*%
X185180000Y-69965000D03*
%TO.P,J9,1*%
%TO.N,GND*%
X186200000Y-69965000D03*
D11*
%TO.P,J9,9*%
X174160000Y-62985000D03*
D10*
X174160000Y-62985000D03*
%TD*%
%TO.P,J10,9*%
%TO.N,GND*%
X211580000Y-62985000D03*
D11*
X211580000Y-62985000D03*
D12*
%TO.P,J10,8*%
%TO.N,+5V*%
X199380000Y-69965000D03*
%TO.P,J10,7*%
%TO.N,/J10_5*%
X200400000Y-69965000D03*
%TO.P,J10,6*%
%TO.N,/J10_4*%
X201420000Y-69965000D03*
%TO.P,J10,5*%
%TO.N,/J10_3*%
X202440000Y-69965000D03*
%TO.P,J10,4*%
%TO.N,/J10_2*%
X203460000Y-69965000D03*
%TO.P,J10,3*%
%TO.N,/J10_1*%
X204480000Y-69965000D03*
%TO.P,J10,2*%
%TO.N,/J10_0*%
X205500000Y-69965000D03*
%TO.P,J10,1*%
%TO.N,GND*%
X206520000Y-69965000D03*
D11*
%TO.P,J10,9*%
X194480000Y-62985000D03*
D10*
X194480000Y-62985000D03*
%TD*%
D18*
%TO.P,R1,1*%
%TO.N,+3V3*%
X73406000Y-93750000D03*
%TO.P,R1,2*%
%TO.N,Net-(P1-Pad10)*%
X73406000Y-95250000D03*
%TD*%
D19*
%TO.P,P6,1*%
%TO.N,/1W-DATA*%
X121793000Y-98933000D03*
D20*
%TO.P,P6,2*%
%TO.N,+3V3*%
X124333000Y-98933000D03*
%TO.P,P6,3*%
%TO.N,/UART_TX*%
X126873000Y-98933000D03*
%TO.P,P6,4*%
%TO.N,/UART_RX*%
X129413000Y-98933000D03*
%TO.P,P6,5*%
%TO.N,GND*%
X131953000Y-98933000D03*
%TD*%
D21*
%TO.P,U1,1*%
%TO.N,+5V*%
X167636000Y-97299000D03*
%TO.P,U1,3*%
%TO.N,+3V3*%
X172216000Y-97299000D03*
D22*
%TO.P,U1,2*%
%TO.N,GND*%
X169936000Y-89899000D03*
%TD*%
D23*
%TO.N,+5V*%
X121920000Y-92075000D03*
X177419000Y-71755000D03*
X104140004Y-84455000D03*
X77470000Y-72517000D03*
X97028000Y-72517000D03*
X117729000Y-72517000D03*
X136398000Y-72517000D03*
X156718000Y-72517000D03*
X197485000Y-72517000D03*
X57531000Y-72517000D03*
X104140000Y-87249000D03*
%TO.N,GND*%
X144399000Y-88519000D03*
X151765000Y-92075000D03*
X117348000Y-89408000D03*
X119634000Y-83566000D03*
%TO.N,+3V3*%
X125730000Y-76315000D03*
X121285000Y-93980000D03*
X62865000Y-86995000D03*
X137795000Y-86487000D03*
X170053000Y-97409000D03*
X133858000Y-84455000D03*
X131191000Y-84455000D03*
%TO.N,Net-(J1-Pad6)*%
X107950000Y-87630000D03*
X107950000Y-86359986D03*
%TO.N,/1W-DATA*%
X106045000Y-87630000D03*
X106151768Y-85929977D03*
%TO.N,+3V3*%
X73406000Y-90678000D03*
%TO.N,Net-(P1-Pad10)*%
X106045000Y-81788000D03*
X127381000Y-81025999D03*
%TO.N,/J7_2*%
X107569000Y-81026000D03*
X129539998Y-77978000D03*
%TO.N,/J8_5*%
X108712000Y-80645000D03*
X129413000Y-80137000D03*
%TO.N,/UART_TX*%
X127508000Y-85471000D03*
%TO.N,/UART_RX*%
X126746000Y-86995000D03*
%TD*%
D24*
%TO.N,+5V*%
X179060000Y-69965000D02*
X179060000Y-70114000D01*
X179060000Y-70114000D02*
X177419000Y-71755000D01*
X102951005Y-83266001D02*
X103840005Y-84155001D01*
X88925999Y-83266001D02*
X102951005Y-83266001D01*
X83806000Y-88386000D02*
X88925999Y-83266001D01*
X83806000Y-90436000D02*
X83806000Y-88386000D01*
X103840005Y-84155001D02*
X104140004Y-84455000D01*
X77460000Y-69965000D02*
X77460000Y-72507000D01*
X77460000Y-72507000D02*
X77470000Y-72517000D01*
X97780000Y-69965000D02*
X97780000Y-71765000D01*
X97780000Y-71765000D02*
X97028000Y-72517000D01*
X118100000Y-69965000D02*
X118100000Y-72146000D01*
X118100000Y-72146000D02*
X117729000Y-72517000D01*
X138420000Y-69965000D02*
X138420000Y-70495000D01*
X138420000Y-70495000D02*
X136398000Y-72517000D01*
X158740000Y-69965000D02*
X158740000Y-70495000D01*
X158740000Y-70495000D02*
X156718000Y-72517000D01*
X197485000Y-72517000D02*
X199380000Y-70622000D01*
X199380000Y-70622000D02*
X199380000Y-69965000D01*
X57140000Y-69965000D02*
X57140000Y-72126000D01*
X57140000Y-72126000D02*
X57531000Y-72517000D01*
X104140000Y-87249000D02*
X104140000Y-90422000D01*
X104140000Y-90422000D02*
X104126000Y-90436000D01*
D25*
%TO.N,GND*%
X94826000Y-97416000D02*
X98046000Y-97416000D01*
D24*
X144399000Y-88519000D02*
X142125000Y-88519000D01*
X142125000Y-88519000D02*
X141478000Y-87872000D01*
X157099000Y-90803000D02*
X153037000Y-90803000D01*
X153037000Y-90803000D02*
X151765000Y-92075000D01*
X157099000Y-90803000D02*
X169032000Y-90803000D01*
X169032000Y-90803000D02*
X169936000Y-89899000D01*
D25*
X114303001Y-91951001D02*
X114804999Y-91951001D01*
X117048001Y-89707999D02*
X117348000Y-89408000D01*
X114804999Y-91951001D02*
X117048001Y-89707999D01*
X155599000Y-90803000D02*
X157099000Y-90803000D01*
X59665000Y-91821000D02*
X59665000Y-90936000D01*
X59665000Y-90936000D02*
X59665000Y-89281000D01*
X59665000Y-96901000D02*
X58500000Y-96901000D01*
X57539999Y-92781001D02*
X58500000Y-91821000D01*
X58500000Y-96901000D02*
X57539999Y-95940999D01*
X57539999Y-95940999D02*
X57539999Y-92781001D01*
X58500000Y-91821000D02*
X59665000Y-91821000D01*
X59665000Y-96901000D02*
X59665000Y-97786000D01*
X59665000Y-97786000D02*
X59740001Y-97861001D01*
X76726000Y-97416000D02*
X77726000Y-97416000D01*
X59740001Y-97861001D02*
X76280999Y-97861001D01*
X76280999Y-97861001D02*
X76726000Y-97416000D01*
X119634000Y-83566000D02*
X121043000Y-83566000D01*
X121043000Y-83566000D02*
X121158000Y-83451000D01*
X118249000Y-74815000D02*
X113788999Y-70354999D01*
X113788999Y-70354999D02*
X113788999Y-68449999D01*
X123190000Y-74815000D02*
X118249000Y-74815000D01*
X129695000Y-76330000D02*
X128799001Y-77225999D01*
X128799001Y-77225999D02*
X128312001Y-77225999D01*
X128312001Y-77225999D02*
X128195000Y-77343000D01*
X129695000Y-75580000D02*
X129695000Y-76330000D01*
X78359000Y-92329000D02*
X81643000Y-92329000D01*
X81643000Y-92329000D02*
X82786000Y-91186000D01*
X82786000Y-91186000D02*
X82786000Y-90436000D01*
X78359000Y-94533000D02*
X78359000Y-92329000D01*
X77726000Y-97416000D02*
X77726000Y-95166000D01*
X77726000Y-95166000D02*
X78359000Y-94533000D01*
X93472000Y-92202000D02*
X90942000Y-92202000D01*
X90942000Y-92202000D02*
X89926000Y-91186000D01*
X89926000Y-91186000D02*
X89926000Y-90436000D01*
X94826000Y-93556000D02*
X93472000Y-92202000D01*
X94826000Y-97416000D02*
X94826000Y-93556000D01*
X98425000Y-92202000D02*
X102090000Y-92202000D01*
X102090000Y-92202000D02*
X103106000Y-91186000D01*
X103106000Y-91186000D02*
X103106000Y-90436000D01*
X98425000Y-94787000D02*
X98425000Y-92202000D01*
X98046000Y-97416000D02*
X98046000Y-95166000D01*
X98046000Y-95166000D02*
X98425000Y-94787000D01*
X115146000Y-97416000D02*
X115146000Y-92794000D01*
X115146000Y-92794000D02*
X114303001Y-91951001D01*
X114303001Y-91951001D02*
X111011001Y-91951001D01*
X111011001Y-91951001D02*
X110246000Y-91186000D01*
X110246000Y-91186000D02*
X110246000Y-90436000D01*
X134695000Y-86980000D02*
X134695000Y-86230000D01*
X134695000Y-86230000D02*
X130201000Y-81736000D01*
X130201000Y-81736000D02*
X128195000Y-81736000D01*
X128195000Y-81736000D02*
X128195000Y-77343000D01*
X128195000Y-77343000D02*
X128195000Y-75580000D01*
X126950999Y-82980001D02*
X128195000Y-81736000D01*
X125745000Y-83030000D02*
X126139000Y-83030000D01*
X126139000Y-83030000D02*
X126188999Y-82980001D01*
X126188999Y-82980001D02*
X126950999Y-82980001D01*
X73152000Y-68199000D02*
X73152000Y-63577000D01*
X73152000Y-63577000D02*
X72560000Y-62985000D01*
X84134000Y-68199000D02*
X73152000Y-68199000D01*
X84600000Y-69965000D02*
X84600000Y-68665000D01*
X84600000Y-68665000D02*
X84134000Y-68199000D01*
X88646000Y-68326000D02*
X85489000Y-68326000D01*
X85489000Y-68326000D02*
X84600000Y-69215000D01*
X84600000Y-69215000D02*
X84600000Y-69965000D01*
X89154000Y-67818000D02*
X88646000Y-68326000D01*
X89154000Y-65741000D02*
X89154000Y-67818000D01*
X89660000Y-62985000D02*
X89660000Y-65235000D01*
X89660000Y-65235000D02*
X89154000Y-65741000D01*
X92583000Y-66929000D02*
X92880000Y-66632000D01*
X92880000Y-66632000D02*
X92880000Y-62985000D01*
X93853000Y-68199000D02*
X92583000Y-66929000D01*
X104902000Y-68199000D02*
X93853000Y-68199000D01*
X104902000Y-68199000D02*
X104920000Y-68217000D01*
X104920000Y-68217000D02*
X104920000Y-69965000D01*
X108585000Y-68199000D02*
X104902000Y-68199000D01*
X108585000Y-67310000D02*
X108585000Y-68199000D01*
X108712000Y-67056000D02*
X108712000Y-67183000D01*
X108712000Y-67183000D02*
X108585000Y-67310000D01*
X108839000Y-66376000D02*
X108839000Y-66929000D01*
X108839000Y-66929000D02*
X108712000Y-67056000D01*
X109980000Y-62985000D02*
X109980000Y-65235000D01*
X109980000Y-65235000D02*
X108839000Y-66376000D01*
X113788999Y-68449999D02*
X113788999Y-63573999D01*
X113788999Y-63573999D02*
X113200000Y-62985000D01*
X124968000Y-68393000D02*
X124911001Y-68449999D01*
X124911001Y-68449999D02*
X113788999Y-68449999D01*
X125240000Y-69965000D02*
X125240000Y-68665000D01*
X125240000Y-68665000D02*
X124968000Y-68393000D01*
X125857000Y-68199000D02*
X125857000Y-68598000D01*
X125857000Y-68598000D02*
X125240000Y-69215000D01*
X125240000Y-69215000D02*
X125240000Y-69965000D01*
X128778000Y-68199000D02*
X125857000Y-68199000D01*
X129667000Y-67310000D02*
X128778000Y-68199000D01*
X129667000Y-65868000D02*
X129667000Y-67310000D01*
X130300000Y-62985000D02*
X130300000Y-65235000D01*
X130300000Y-65235000D02*
X129667000Y-65868000D01*
X145560000Y-68435000D02*
X145560000Y-68707000D01*
X145560000Y-68707000D02*
X145560000Y-69965000D01*
X134112000Y-68199000D02*
X145052000Y-68199000D01*
X145052000Y-68199000D02*
X145560000Y-68707000D01*
X133520000Y-67607000D02*
X134112000Y-68199000D01*
X133520000Y-62985000D02*
X133520000Y-67607000D01*
X145669000Y-68326000D02*
X145560000Y-68435000D01*
X149479000Y-68326000D02*
X145669000Y-68326000D01*
X149479000Y-66376000D02*
X149479000Y-68326000D01*
X150620000Y-62985000D02*
X150620000Y-65235000D01*
X150620000Y-65235000D02*
X149479000Y-66376000D01*
X154559000Y-68199000D02*
X154559000Y-63704000D01*
X154559000Y-63704000D02*
X153840000Y-62985000D01*
X165414000Y-68199000D02*
X154559000Y-68199000D01*
X165880000Y-69965000D02*
X165880000Y-68665000D01*
X165880000Y-68665000D02*
X165414000Y-68199000D01*
X170940000Y-62985000D02*
X170940000Y-67439000D01*
X170940000Y-67439000D02*
X170053000Y-68326000D01*
X170053000Y-68326000D02*
X166769000Y-68326000D01*
X165880000Y-69215000D02*
X165880000Y-69965000D01*
X166769000Y-68326000D02*
X165880000Y-69215000D01*
X186200000Y-69965000D02*
X186200000Y-68217000D01*
X186200000Y-68217000D02*
X186055000Y-68072000D01*
X186055000Y-68072000D02*
X174371000Y-68072000D01*
X174371000Y-68072000D02*
X174160000Y-67861000D01*
X174160000Y-67861000D02*
X174160000Y-62985000D01*
X189611000Y-68199000D02*
X187216000Y-68199000D01*
X187216000Y-68199000D02*
X186200000Y-69215000D01*
X186200000Y-69215000D02*
X186200000Y-69965000D01*
X189865000Y-67945000D02*
X189611000Y-68199000D01*
X189865000Y-66630000D02*
X189865000Y-67945000D01*
X191260000Y-62985000D02*
X191260000Y-65235000D01*
X191260000Y-65235000D02*
X189865000Y-66630000D01*
X194480000Y-62985000D02*
X191260000Y-62985000D01*
X195647000Y-68266000D02*
X195647000Y-64152000D01*
X195647000Y-64152000D02*
X194480000Y-62985000D01*
X206121000Y-68266000D02*
X195647000Y-68266000D01*
X206520000Y-69965000D02*
X206520000Y-68665000D01*
X206520000Y-68665000D02*
X206121000Y-68266000D01*
X210185000Y-68072000D02*
X207663000Y-68072000D01*
X207663000Y-68072000D02*
X206520000Y-69215000D01*
X206520000Y-69215000D02*
X206520000Y-69965000D01*
X210185000Y-65630000D02*
X210185000Y-68072000D01*
X211580000Y-62985000D02*
X211580000Y-64235000D01*
X211580000Y-64235000D02*
X210185000Y-65630000D01*
X174160000Y-62985000D02*
X170940000Y-62985000D01*
X153840000Y-62985000D02*
X150620000Y-62985000D01*
X133520000Y-62985000D02*
X130300000Y-62985000D01*
X113200000Y-62985000D02*
X109980000Y-62985000D01*
X89660000Y-62985000D02*
X92880000Y-62985000D01*
X72560000Y-62985000D02*
X69340000Y-62985000D01*
X69850000Y-68199000D02*
X69340000Y-67689000D01*
X69340000Y-67689000D02*
X69340000Y-62985000D01*
X65630000Y-68199000D02*
X69850000Y-68199000D01*
X64873000Y-68072000D02*
X65503000Y-68072000D01*
X65503000Y-68072000D02*
X65630000Y-68199000D01*
X64280000Y-68665000D02*
X64873000Y-68072000D01*
X64280000Y-69965000D02*
X64280000Y-68665000D01*
X64280000Y-68665000D02*
X64204999Y-68589999D01*
X64204999Y-68589999D02*
X55502001Y-68589999D01*
X55502001Y-68589999D02*
X54984002Y-68072000D01*
X54984002Y-68072000D02*
X52451000Y-68072000D01*
X52451000Y-68072000D02*
X52240000Y-67861000D01*
X52240000Y-67861000D02*
X52240000Y-62985000D01*
X69340000Y-62985000D02*
X69340000Y-64235000D01*
X64280000Y-69295000D02*
X64280000Y-69965000D01*
X89466001Y-91811001D02*
X86868000Y-91811001D01*
X86868000Y-91811001D02*
X84750999Y-91811001D01*
X86866000Y-90436000D02*
X86866000Y-91736000D01*
X86866000Y-91736000D02*
X86868000Y-91738000D01*
X86868000Y-91738000D02*
X86868000Y-91811001D01*
X89926000Y-90436000D02*
X89926000Y-91351002D01*
X89926000Y-91351002D02*
X89466001Y-91811001D01*
X82786000Y-90436000D02*
X82786000Y-91351002D01*
X84750999Y-91811001D02*
X84826000Y-91736000D01*
X82786000Y-91351002D02*
X83245999Y-91811001D01*
X83245999Y-91811001D02*
X84750999Y-91811001D01*
X84826000Y-91736000D02*
X84826000Y-90436000D01*
X110170999Y-91811001D02*
X107188000Y-91811001D01*
X107188000Y-91811001D02*
X105156000Y-91811001D01*
X107186000Y-90436000D02*
X107186000Y-91809001D01*
X107186000Y-91809001D02*
X107188000Y-91811001D01*
X105156000Y-91811001D02*
X103181001Y-91811001D01*
X105146000Y-91736000D02*
X105156000Y-91746000D01*
X105146000Y-90436000D02*
X105146000Y-91736000D01*
X105156000Y-91746000D02*
X105156000Y-91811001D01*
X110246000Y-90436000D02*
X110246000Y-91736000D01*
X110246000Y-91736000D02*
X110170999Y-91811001D01*
X103181001Y-91811001D02*
X103106000Y-91736000D01*
X103106000Y-91736000D02*
X103106000Y-90436000D01*
X128195000Y-75580000D02*
X128195000Y-74830000D01*
X123190000Y-74790000D02*
X123190000Y-74815000D01*
X128195000Y-74830000D02*
X127530000Y-74165000D01*
X127530000Y-74165000D02*
X123815000Y-74165000D01*
X123815000Y-74165000D02*
X123190000Y-74790000D01*
X139319000Y-87872000D02*
X134876998Y-87872000D01*
X134876998Y-87872000D02*
X134744999Y-87740001D01*
X134744999Y-87740001D02*
X134744999Y-87029999D01*
X134744999Y-87029999D02*
X134695000Y-86980000D01*
X141478000Y-87872000D02*
X139319000Y-87872000D01*
X125745000Y-83030000D02*
X121579000Y-83030000D01*
X121579000Y-83030000D02*
X121158000Y-83451000D01*
%TO.N,+3V3*%
X125730000Y-76315000D02*
X124905000Y-76315000D01*
X126585000Y-76315000D02*
X125730000Y-76315000D01*
D24*
X121285000Y-93980000D02*
X124333000Y-97028000D01*
X124333000Y-97028000D02*
X124333000Y-98933000D01*
X59665000Y-86741000D02*
X62611000Y-86741000D01*
X62611000Y-86741000D02*
X62865000Y-86995000D01*
X137795000Y-86487000D02*
X139204000Y-86487000D01*
X139204000Y-86487000D02*
X139319000Y-86372000D01*
X172216000Y-97299000D02*
X170163000Y-97299000D01*
X170163000Y-97299000D02*
X170053000Y-97409000D01*
D25*
X135195000Y-86980000D02*
X135195000Y-85792000D01*
X135195000Y-85792000D02*
X133858000Y-84455000D01*
X125745000Y-83530000D02*
X130266000Y-83530000D01*
X130266000Y-83530000D02*
X131191000Y-84455000D01*
X127695000Y-75580000D02*
X127320000Y-75580000D01*
X127320000Y-75580000D02*
X126585000Y-76315000D01*
X123190000Y-76315000D02*
X124905000Y-76315000D01*
X124905000Y-76315000D02*
X125745000Y-77155000D01*
X125745000Y-77155000D02*
X125745000Y-77530000D01*
D24*
X139319000Y-86372000D02*
X141478000Y-86372000D01*
D25*
X135195000Y-86980000D02*
X138711000Y-86980000D01*
X138711000Y-86980000D02*
X139319000Y-86372000D01*
X125745000Y-83530000D02*
X122554000Y-83530000D01*
X122554000Y-83530000D02*
X121158000Y-84926000D01*
X121158000Y-84926000D02*
X121158000Y-84951000D01*
%TO.N,Net-(J1-Pad7)*%
X101806530Y-87323033D02*
X102791162Y-86338401D01*
X88906000Y-90436000D02*
X88906000Y-89136000D01*
X104715988Y-86338401D02*
X105382586Y-87004999D01*
X105382586Y-87004999D02*
X108250001Y-87004999D01*
X109226000Y-87980998D02*
X109226000Y-89136000D01*
X90718967Y-87323033D02*
X101806530Y-87323033D01*
X102791162Y-86338401D02*
X104715988Y-86338401D01*
X108250001Y-87004999D02*
X109226000Y-87980998D01*
X109226000Y-89136000D02*
X109226000Y-90436000D01*
X88906000Y-89136000D02*
X90718967Y-87323033D01*
%TO.N,Net-(J1-Pad6)*%
X108206000Y-87886000D02*
X107950000Y-87630000D01*
X108206000Y-90436000D02*
X108206000Y-87886000D01*
X107330735Y-86554987D02*
X107525736Y-86359986D01*
X105568985Y-86554987D02*
X107330735Y-86554987D01*
X104871020Y-85857022D02*
X105568985Y-86554987D01*
X91164978Y-85857022D02*
X104871020Y-85857022D01*
X87886000Y-89136000D02*
X91164978Y-85857022D01*
X87886000Y-90436000D02*
X87886000Y-89136000D01*
X107525736Y-86359986D02*
X107950000Y-86359986D01*
%TO.N,/1W-DATA*%
X120032428Y-90955066D02*
X115007339Y-85929977D01*
X108444979Y-85929977D02*
X108144980Y-85629978D01*
X108144980Y-85629978D02*
X106451767Y-85629978D01*
X115007339Y-85929977D02*
X108444979Y-85929977D01*
X106451767Y-85629978D02*
X106151768Y-85929977D01*
X89683999Y-85298001D02*
X105519792Y-85298001D01*
X106166000Y-90436000D02*
X106166000Y-87751000D01*
X106166000Y-87751000D02*
X106045000Y-87630000D01*
X105519792Y-85298001D02*
X105851769Y-85629978D01*
X105851769Y-85629978D02*
X106151768Y-85929977D01*
X85846000Y-89136000D02*
X89683999Y-85298001D01*
X85846000Y-90436000D02*
X85846000Y-89136000D01*
X121793000Y-98933000D02*
X121793000Y-97833000D01*
X121793000Y-97833000D02*
X120032428Y-96072428D01*
X120032428Y-96072428D02*
X120032428Y-90955066D01*
X132195000Y-88144870D02*
X129413000Y-90926870D01*
X129384804Y-90955066D02*
X129413000Y-90926870D01*
X120032428Y-90955066D02*
X129384804Y-90955066D01*
X132195000Y-86980000D02*
X132195000Y-88144870D01*
X121793000Y-98546870D02*
X121793000Y-98933000D01*
%TO.N,+5V*%
X163195000Y-97299000D02*
X162687000Y-97299000D01*
D24*
X163195000Y-97299000D02*
X167636000Y-97299000D01*
X162687000Y-97299000D02*
X162291000Y-96903000D01*
X162291000Y-96903000D02*
X157099000Y-96903000D01*
X147588000Y-96903000D02*
X157099000Y-96903000D01*
X144665000Y-93980000D02*
X147588000Y-96903000D01*
X121920000Y-92075000D02*
X123825000Y-93980000D01*
X123825000Y-93980000D02*
X144665000Y-93980000D01*
%TO.N,+3V3*%
X73406000Y-93750000D02*
X73406000Y-90678000D01*
D25*
%TO.N,Net-(P1-Pad10)*%
X68115000Y-96901000D02*
X66065000Y-96901000D01*
X71555000Y-96901000D02*
X68115000Y-96901000D01*
X73206000Y-95250000D02*
X71555000Y-96901000D01*
X73406000Y-95250000D02*
X73206000Y-95250000D01*
X127081001Y-80726000D02*
X127381000Y-81025999D01*
X66065000Y-96901000D02*
X67230000Y-96901000D01*
X125745000Y-80530000D02*
X126885001Y-80530000D01*
X126885001Y-80530000D02*
X127081001Y-80726000D01*
X73606000Y-95250000D02*
X73406000Y-95250000D01*
X75692000Y-93164000D02*
X73606000Y-95250000D01*
X75692000Y-88439000D02*
X75692000Y-93164000D01*
X82343000Y-81788000D02*
X75692000Y-88439000D01*
X106045000Y-81788000D02*
X82343000Y-81788000D01*
%TO.N,/J3_5*%
X109284780Y-79571010D02*
X66466009Y-79571009D01*
X66466009Y-79571009D02*
X58160000Y-71265000D01*
X58160000Y-71265000D02*
X58160000Y-69965000D01*
X131695000Y-86980000D02*
X131695000Y-88008460D01*
X131695000Y-88008460D02*
X129198400Y-90505058D01*
X129198400Y-90505058D02*
X120218827Y-90505057D01*
X120218827Y-90505057D02*
X109284780Y-79571010D01*
%TO.N,/J3_4*%
X130695000Y-86980000D02*
X130695000Y-88372050D01*
X130695000Y-88372050D02*
X129012001Y-90055049D01*
X129012001Y-90055049D02*
X120405228Y-90055048D01*
X120405228Y-90055048D02*
X109471180Y-79121000D01*
X109471180Y-79121000D02*
X67036000Y-79121000D01*
X67036000Y-79121000D02*
X59180000Y-71265000D01*
X59180000Y-71265000D02*
X59180000Y-69965000D01*
%TO.N,/J3_3*%
X130195000Y-86980000D02*
X130195000Y-88235639D01*
X130195000Y-88235639D02*
X128825600Y-89605040D01*
X128825600Y-89605040D02*
X120591629Y-89605039D01*
X120591629Y-89605039D02*
X109472590Y-78486000D01*
X109472590Y-78486000D02*
X67421000Y-78486000D01*
X67421000Y-78486000D02*
X60200000Y-71265000D01*
X60200000Y-71265000D02*
X60200000Y-69965000D01*
%TO.N,/J3_2*%
X129695000Y-86980000D02*
X129695000Y-88099229D01*
X120778030Y-89155030D02*
X109601000Y-77978000D01*
X129695000Y-88099229D02*
X128639200Y-89155030D01*
X128639200Y-89155030D02*
X120778030Y-89155030D01*
X109601000Y-77978000D02*
X67933000Y-77978000D01*
X67933000Y-77978000D02*
X61220000Y-71265000D01*
X61220000Y-71265000D02*
X61220000Y-69965000D01*
%TO.N,/J3_1*%
X129195000Y-86980000D02*
X129195000Y-87962822D01*
X129195000Y-87962822D02*
X128452800Y-88705020D01*
X128452800Y-88705020D02*
X120979189Y-88705020D01*
X120979189Y-88705020D02*
X109744169Y-77470000D01*
X109744169Y-77470000D02*
X68445000Y-77470000D01*
X68445000Y-77470000D02*
X62240000Y-71265000D01*
X62240000Y-71265000D02*
X62240000Y-69965000D01*
%TO.N,/J3_0*%
X128695000Y-86980000D02*
X128695000Y-87730000D01*
X128266401Y-88255010D02*
X121165589Y-88255010D01*
X128695000Y-87730000D02*
X128741421Y-87776421D01*
X128741421Y-87776421D02*
X128744990Y-87776421D01*
X128744990Y-87776421D02*
X128266401Y-88255010D01*
X121165589Y-88255010D02*
X119963797Y-87053218D01*
X119963797Y-87053218D02*
X119963797Y-87026030D01*
X119963797Y-87026030D02*
X109899767Y-76962000D01*
X109899767Y-76962000D02*
X68957000Y-76962000D01*
X68957000Y-76962000D02*
X63260000Y-71265000D01*
X63260000Y-71265000D02*
X63260000Y-69965000D01*
%TO.N,/J4_5*%
X128195000Y-86980000D02*
X128195000Y-87578000D01*
X128195000Y-87578000D02*
X127967999Y-87805001D01*
X127967999Y-87805001D02*
X121379178Y-87805001D01*
X121379178Y-87805001D02*
X110028177Y-76454000D01*
X110028177Y-76454000D02*
X83669000Y-76454000D01*
X83669000Y-76454000D02*
X78480000Y-71265000D01*
X78480000Y-71265000D02*
X78480000Y-69965000D01*
%TO.N,/J4_4*%
X123575413Y-84530000D02*
X121979401Y-86126012D01*
X79500000Y-71265000D02*
X79500000Y-69965000D01*
X125745000Y-84530000D02*
X123575413Y-84530000D01*
X121979401Y-86126012D02*
X120336599Y-86126012D01*
X120336599Y-86126012D02*
X110156587Y-75946000D01*
X110156587Y-75946000D02*
X84181000Y-75946000D01*
X84181000Y-75946000D02*
X79500000Y-71265000D01*
%TO.N,/J4_3*%
X84729579Y-75495989D02*
X80520000Y-71286410D01*
X120522999Y-85676001D02*
X110342987Y-75495989D01*
X121793001Y-85676001D02*
X120522999Y-85676001D01*
X125745000Y-84030000D02*
X123439002Y-84030000D01*
X80520000Y-71265000D02*
X80520000Y-69965000D01*
X80520000Y-71286410D02*
X80520000Y-71265000D01*
X123439002Y-84030000D02*
X121793001Y-85676001D01*
X110342987Y-75495989D02*
X84729579Y-75495989D01*
%TO.N,/J4_2*%
X118013409Y-82530000D02*
X110529387Y-75045978D01*
X81540000Y-71265000D02*
X81540000Y-69965000D01*
X125745000Y-82530000D02*
X118013409Y-82530000D01*
X85320978Y-75045978D02*
X81540000Y-71265000D01*
X110529387Y-75045978D02*
X85320978Y-75045978D01*
%TO.N,/J4_1*%
X85890967Y-74595967D02*
X82560000Y-71265000D01*
X118149820Y-82030000D02*
X110715787Y-74595967D01*
X125745000Y-82030000D02*
X118149820Y-82030000D01*
X82560000Y-71265000D02*
X82560000Y-69965000D01*
X110715787Y-74595967D02*
X85890967Y-74595967D01*
%TO.N,/J4_0*%
X86460956Y-74145956D02*
X83580000Y-71265000D01*
X83580000Y-71265000D02*
X83580000Y-69965000D01*
X110902187Y-74145956D02*
X86460956Y-74145956D01*
X118286231Y-81530000D02*
X110902187Y-74145956D01*
X125745000Y-81530000D02*
X118286231Y-81530000D01*
%TO.N,/J5_5*%
X118422642Y-81030000D02*
X111088587Y-73695945D01*
X111088587Y-73695945D02*
X101230945Y-73695945D01*
X125745000Y-81030000D02*
X118422642Y-81030000D01*
X101230945Y-73695945D02*
X98800000Y-71265000D01*
X98800000Y-71265000D02*
X98800000Y-69965000D01*
%TO.N,/J5_4*%
X111274987Y-73245934D02*
X101800934Y-73245934D01*
X125745000Y-80030000D02*
X118059053Y-80030000D01*
X99820000Y-71265000D02*
X99820000Y-69965000D01*
X118059053Y-80030000D02*
X111274987Y-73245934D01*
X101800934Y-73245934D02*
X99820000Y-71265000D01*
%TO.N,/J5_3*%
X111461387Y-72795923D02*
X102370923Y-72795923D01*
X100840000Y-71265000D02*
X100840000Y-69965000D01*
X118195464Y-79530000D02*
X111461387Y-72795923D01*
X102370923Y-72795923D02*
X100840000Y-71265000D01*
X125745000Y-79530000D02*
X118195464Y-79530000D01*
%TO.N,/J5_2*%
X111647787Y-72345912D02*
X102940912Y-72345912D01*
X118331875Y-79030000D02*
X111647787Y-72345912D01*
X125745000Y-79030000D02*
X118331875Y-79030000D01*
X101860000Y-71265000D02*
X101860000Y-69965000D01*
X102940912Y-72345912D02*
X101860000Y-71265000D01*
%TO.N,/J5_1*%
X118468286Y-78530000D02*
X111834187Y-71895901D01*
X125745000Y-78530000D02*
X118468286Y-78530000D01*
X111834187Y-71895901D02*
X103510901Y-71895901D01*
X103510901Y-71895901D02*
X102880000Y-71265000D01*
X102880000Y-71265000D02*
X102880000Y-69965000D01*
%TO.N,/J5_0*%
X104080890Y-71445890D02*
X103900000Y-71265000D01*
X103900000Y-71265000D02*
X103900000Y-69965000D01*
X112020587Y-71445890D02*
X104080890Y-71445890D01*
X125745000Y-78030000D02*
X118604697Y-78030000D01*
X118604697Y-78030000D02*
X112020587Y-71445890D01*
%TO.N,/J6_5*%
X130195000Y-75580000D02*
X130195000Y-74830000D01*
X119120000Y-71265000D02*
X119120000Y-69965000D01*
X130195000Y-74830000D02*
X128978028Y-73613028D01*
X128978028Y-73613028D02*
X121468028Y-73613028D01*
X121468028Y-73613028D02*
X119120000Y-71265000D01*
%TO.N,/J6_4*%
X130683000Y-74818000D02*
X130683000Y-73279000D01*
X130683000Y-73279000D02*
X130567019Y-73163019D01*
X130567019Y-73163019D02*
X122038019Y-73163019D01*
X120140000Y-71265000D02*
X120140000Y-69965000D01*
X122038019Y-73163019D02*
X120140000Y-71265000D01*
X130695000Y-75580000D02*
X130695000Y-74830000D01*
X130695000Y-74830000D02*
X130683000Y-74818000D01*
%TO.N,/J6_3*%
X131195000Y-72903410D02*
X131004600Y-72713010D01*
X131004600Y-72713010D02*
X122608010Y-72713010D01*
X121160000Y-71265000D02*
X121160000Y-69965000D01*
X122608010Y-72713010D02*
X121160000Y-71265000D01*
X131195000Y-75580000D02*
X131195000Y-72903410D01*
%TO.N,/J6_2*%
X131695000Y-75580000D02*
X131695000Y-72767000D01*
X131695000Y-72767000D02*
X131191000Y-72263000D01*
X123317000Y-72263000D02*
X122180000Y-71126000D01*
X131191000Y-72263000D02*
X123317000Y-72263000D01*
X122180000Y-71126000D02*
X122180000Y-69965000D01*
%TO.N,/J6_1*%
X123200000Y-71265000D02*
X123200000Y-69965000D01*
X123747991Y-71812991D02*
X123200000Y-71265000D01*
X132195000Y-72630589D02*
X131377402Y-71812991D01*
X131377402Y-71812991D02*
X123747991Y-71812991D01*
X132195000Y-75580000D02*
X132195000Y-72630589D01*
%TO.N,/J6_0*%
X133195000Y-75580000D02*
X133195000Y-72994179D01*
X124220000Y-71265000D02*
X124220000Y-69965000D01*
X133195000Y-72994179D02*
X131563801Y-71362980D01*
X124317980Y-71362980D02*
X124220000Y-71265000D01*
X131563801Y-71362980D02*
X124317980Y-71362980D01*
%TO.N,/J7_5*%
X133695000Y-75580000D02*
X133695000Y-73569000D01*
X133695000Y-73569000D02*
X133858000Y-73406000D01*
X133858000Y-73406000D02*
X137299000Y-73406000D01*
X137299000Y-73406000D02*
X139440000Y-71265000D01*
X139440000Y-71265000D02*
X139440000Y-69965000D01*
%TO.N,/J7_4*%
X137868989Y-73856011D02*
X140460000Y-71265000D01*
X134195000Y-73898433D02*
X134237422Y-73856011D01*
X134195000Y-75580000D02*
X134195000Y-73898433D01*
X140460000Y-71265000D02*
X140460000Y-69965000D01*
X134237422Y-73856011D02*
X137868989Y-73856011D01*
%TO.N,/J7_3*%
X141480000Y-71265000D02*
X141480000Y-69965000D01*
X138438978Y-74306022D02*
X141480000Y-71265000D01*
X134695000Y-74830000D02*
X135218978Y-74306022D01*
X135218978Y-74306022D02*
X138438978Y-74306022D01*
X134695000Y-75580000D02*
X134695000Y-74830000D01*
%TO.N,/J7_2*%
X75485000Y-81026000D02*
X107144736Y-81026000D01*
X107144736Y-81026000D02*
X107569000Y-81026000D01*
X67230000Y-89281000D02*
X75485000Y-81026000D01*
X66065000Y-89281000D02*
X67230000Y-89281000D01*
X133547000Y-77978000D02*
X129964262Y-77978000D01*
X135195000Y-75580000D02*
X135195000Y-76330000D01*
X135195000Y-76330000D02*
X133547000Y-77978000D01*
X129964262Y-77978000D02*
X129539998Y-77978000D01*
X135195000Y-75580000D02*
X138185000Y-75580000D01*
X142500000Y-71265000D02*
X142500000Y-69965000D01*
X138185000Y-75580000D02*
X142500000Y-71265000D01*
%TO.N,/J7_1*%
X137145000Y-77530000D02*
X137895000Y-77530000D01*
X137895000Y-77530000D02*
X143520000Y-71905000D01*
X143520000Y-71905000D02*
X143520000Y-71265000D01*
X143520000Y-71265000D02*
X143520000Y-69965000D01*
%TO.N,/J7_0*%
X137145000Y-78030000D02*
X138124000Y-78030000D01*
X138124000Y-78030000D02*
X144540000Y-71614000D01*
X144540000Y-71614000D02*
X144540000Y-71265000D01*
X144540000Y-71265000D02*
X144540000Y-69965000D01*
%TO.N,/J8_5*%
X74510999Y-80345001D02*
X108412001Y-80345001D01*
X68115000Y-86741000D02*
X74510999Y-80345001D01*
X66065000Y-86741000D02*
X68115000Y-86741000D01*
X108412001Y-80345001D02*
X108712000Y-80645000D01*
X137145000Y-78530000D02*
X136100000Y-78530000D01*
X136100000Y-78530000D02*
X134620000Y-80010000D01*
X134620000Y-80010000D02*
X129540000Y-80010000D01*
X129540000Y-80010000D02*
X129413000Y-80137000D01*
X137145000Y-78530000D02*
X152495000Y-78530000D01*
X152495000Y-78530000D02*
X159760000Y-71265000D01*
X159760000Y-71265000D02*
X159760000Y-69965000D01*
%TO.N,/J8_4*%
X160780000Y-70976657D02*
X160780000Y-69965000D01*
X152726657Y-79030000D02*
X160780000Y-70976657D01*
X137145000Y-79030000D02*
X152726657Y-79030000D01*
%TO.N,/J8_3*%
X161800000Y-71265000D02*
X161800000Y-69965000D01*
X137145000Y-79530000D02*
X152863067Y-79530000D01*
X161038231Y-71354835D02*
X161710165Y-71354835D01*
X152863067Y-79530000D02*
X161038231Y-71354835D01*
X161710165Y-71354835D02*
X161800000Y-71265000D01*
%TO.N,/J8_2*%
X162820000Y-71265000D02*
X162820000Y-69965000D01*
X162280154Y-71804846D02*
X162820000Y-71265000D01*
X137145000Y-80030000D02*
X152999478Y-80030000D01*
X161224631Y-71804846D02*
X162280154Y-71804846D01*
X152999478Y-80030000D02*
X161224631Y-71804846D01*
%TO.N,/J8_1*%
X137145000Y-80530000D02*
X153135889Y-80530000D01*
X162850143Y-72254857D02*
X163840000Y-71265000D01*
X161411031Y-72254857D02*
X162850143Y-72254857D01*
X163840000Y-71265000D02*
X163840000Y-69965000D01*
X153135889Y-80530000D02*
X161411031Y-72254857D01*
%TO.N,/J8_0*%
X164860000Y-71265000D02*
X164860000Y-69965000D01*
X161597431Y-72704868D02*
X163420132Y-72704868D01*
X153272300Y-81030000D02*
X161597431Y-72704868D01*
X137145000Y-81030000D02*
X153272300Y-81030000D01*
X163420132Y-72704868D02*
X164860000Y-71265000D01*
%TO.N,/J9_5*%
X137145000Y-81530000D02*
X153408711Y-81530000D01*
X178190121Y-73154879D02*
X180080000Y-71265000D01*
X180080000Y-71265000D02*
X180080000Y-69965000D01*
X153408711Y-81530000D02*
X161783831Y-73154879D01*
X161783831Y-73154879D02*
X178190121Y-73154879D01*
%TO.N,/J9_4*%
X181100000Y-71265000D02*
X181100000Y-69965000D01*
X153545121Y-82030000D02*
X161970231Y-73604890D01*
X161970231Y-73604890D02*
X178760110Y-73604890D01*
X178760110Y-73604890D02*
X181100000Y-71265000D01*
X137145000Y-82030000D02*
X153545121Y-82030000D01*
%TO.N,/J9_3*%
X137145000Y-82530000D02*
X153681532Y-82530000D01*
X153681532Y-82530000D02*
X162156631Y-74054901D01*
X162156631Y-74054901D02*
X179330099Y-74054901D01*
X182120000Y-71265000D02*
X182120000Y-69965000D01*
X179330099Y-74054901D02*
X182120000Y-71265000D01*
%TO.N,/J9_2*%
X162343031Y-74504912D02*
X179900088Y-74504912D01*
X179900088Y-74504912D02*
X183140000Y-71265000D01*
X137145000Y-83030000D02*
X153817944Y-83030000D01*
X183140000Y-71265000D02*
X183140000Y-69965000D01*
X153817944Y-83030000D02*
X162343031Y-74504912D01*
%TO.N,/J9_1*%
X180470077Y-74954923D02*
X184160000Y-71265000D01*
X184160000Y-71265000D02*
X184160000Y-69965000D01*
X137145000Y-83530000D02*
X153954355Y-83530000D01*
X162529431Y-74954923D02*
X180470077Y-74954923D01*
X153954355Y-83530000D02*
X162529431Y-74954923D01*
%TO.N,/J9_0*%
X185180000Y-71265000D02*
X185180000Y-69965000D01*
X181040066Y-75404934D02*
X185180000Y-71265000D01*
X154090766Y-84030000D02*
X162715831Y-75404934D01*
X137145000Y-84030000D02*
X154090766Y-84030000D01*
X162715831Y-75404934D02*
X181040066Y-75404934D01*
%TO.N,/J10_5*%
X162902231Y-75854945D02*
X195810055Y-75854945D01*
X137145000Y-84530000D02*
X154227177Y-84530000D01*
X200400000Y-71265000D02*
X200400000Y-69965000D01*
X154227177Y-84530000D02*
X162902231Y-75854945D01*
X195810055Y-75854945D02*
X200400000Y-71265000D01*
%TO.N,/J10_4*%
X154363588Y-85030000D02*
X163088631Y-76304956D01*
X163088631Y-76304956D02*
X196380044Y-76304956D01*
X201420000Y-71265000D02*
X201420000Y-69965000D01*
X137145000Y-85030000D02*
X154363588Y-85030000D01*
X196380044Y-76304956D02*
X201420000Y-71265000D01*
%TO.N,/J10_3*%
X137540998Y-91312998D02*
X148717001Y-91312998D01*
X202440000Y-72007000D02*
X202440000Y-71265000D01*
X134195000Y-87967000D02*
X137540998Y-91312998D01*
X197692033Y-76754967D02*
X202440000Y-72007000D01*
X134195000Y-86980000D02*
X134195000Y-87967000D01*
X163275031Y-76754967D02*
X197692033Y-76754967D01*
X148717001Y-91312998D02*
X163275031Y-76754967D01*
X202440000Y-71265000D02*
X202440000Y-69965000D01*
%TO.N,/J10_2*%
X203460000Y-71623410D02*
X203460000Y-71265000D01*
X203460000Y-71265000D02*
X203460000Y-69965000D01*
X148903401Y-91763009D02*
X163461431Y-77204978D01*
X133695000Y-88103411D02*
X137354598Y-91763009D01*
X137354598Y-91763009D02*
X148903401Y-91763009D01*
X197878433Y-77204978D02*
X203460000Y-71623410D01*
X163461431Y-77204978D02*
X197878433Y-77204978D01*
X133695000Y-86980000D02*
X133695000Y-88103411D01*
%TO.N,/J10_1*%
X198090011Y-77654989D02*
X204480000Y-71265000D01*
X149089801Y-92213020D02*
X163647831Y-77654989D01*
X163647831Y-77654989D02*
X198090011Y-77654989D01*
X137168198Y-92213020D02*
X149089801Y-92213020D01*
X133195000Y-88239822D02*
X137168198Y-92213020D01*
X133195000Y-86980000D02*
X133195000Y-88239822D01*
X204480000Y-71265000D02*
X204480000Y-69965000D01*
%TO.N,/J10_0*%
X205500000Y-71265000D02*
X205500000Y-69965000D01*
X198660000Y-78105000D02*
X205500000Y-71265000D01*
X163834231Y-78105000D02*
X198660000Y-78105000D01*
X149276201Y-92663031D02*
X163834231Y-78105000D01*
X132695000Y-86980000D02*
X132695000Y-88376233D01*
X132695000Y-88376233D02*
X136981798Y-92663031D01*
X136981798Y-92663031D02*
X149276201Y-92663031D01*
%TO.N,/UART_TX*%
X125745000Y-85030000D02*
X127067000Y-85030000D01*
X127067000Y-85030000D02*
X127508000Y-85471000D01*
%TO.N,/UART_RX*%
X127695000Y-86980000D02*
X126761000Y-86980000D01*
X126761000Y-86980000D02*
X126746000Y-86995000D01*
%TD*%
D26*
%TO.N,GND*%
G36*
X119272429Y-91269869D02*
X119272428Y-95997581D01*
X119257540Y-96072428D01*
X119272428Y-96147275D01*
X119272428Y-96147279D01*
X119316524Y-96368964D01*
X119484499Y-96620357D01*
X119547958Y-96662759D01*
X120500296Y-97615098D01*
X120485191Y-97625191D01*
X120344843Y-97835235D01*
X120295560Y-98083000D01*
X120295560Y-99783000D01*
X120344843Y-100030765D01*
X120409814Y-100128000D01*
X114121000Y-100128000D01*
X114121000Y-99989410D01*
X114269691Y-100051000D01*
X114860250Y-100051000D01*
X115019000Y-99892250D01*
X115019000Y-98513766D01*
X115273000Y-98494480D01*
X115273000Y-99892250D01*
X115431750Y-100051000D01*
X116022309Y-100051000D01*
X116255698Y-99954327D01*
X116434327Y-99775699D01*
X116531000Y-99542310D01*
X116531000Y-97701750D01*
X116372250Y-97543000D01*
X116243766Y-97543000D01*
X116224480Y-97289000D01*
X116372250Y-97289000D01*
X116531000Y-97130250D01*
X116531000Y-95289690D01*
X116434327Y-95056301D01*
X116255698Y-94877673D01*
X116022309Y-94781000D01*
X115431750Y-94781000D01*
X115273000Y-94939750D01*
X115273000Y-96318234D01*
X115019000Y-96337520D01*
X115019000Y-94939750D01*
X114860250Y-94781000D01*
X114269691Y-94781000D01*
X114121000Y-94842590D01*
X114121000Y-92779926D01*
X114134909Y-92710000D01*
X114079805Y-92432972D01*
X113922881Y-92198119D01*
X113688028Y-92041195D01*
X113541483Y-92012045D01*
X113979698Y-91573830D01*
X114221000Y-90991276D01*
X114221000Y-90360724D01*
X113979698Y-89778170D01*
X113533830Y-89332302D01*
X112951276Y-89091000D01*
X112320724Y-89091000D01*
X111738170Y-89332302D01*
X111292302Y-89778170D01*
X111181000Y-90046877D01*
X111181000Y-89259690D01*
X111084327Y-89026301D01*
X110905698Y-88847673D01*
X110672309Y-88751000D01*
X110531750Y-88751000D01*
X110373000Y-88909750D01*
X110373000Y-90309000D01*
X110393000Y-90309000D01*
X110393000Y-90563000D01*
X110373000Y-90563000D01*
X110373000Y-90583000D01*
X110173440Y-90583000D01*
X110173440Y-89386000D01*
X110124157Y-89138235D01*
X110119000Y-89130517D01*
X110119000Y-88909750D01*
X109986000Y-88776750D01*
X109986000Y-88055844D01*
X110000888Y-87980997D01*
X109986000Y-87906150D01*
X109986000Y-87906146D01*
X109941904Y-87684461D01*
X109773929Y-87433069D01*
X109710473Y-87390669D01*
X109009780Y-86689977D01*
X114692538Y-86689977D01*
X119272429Y-91269869D01*
X119272429Y-91269869D01*
G37*
X119272429Y-91269869D02*
X119272428Y-95997581D01*
X119257540Y-96072428D01*
X119272428Y-96147275D01*
X119272428Y-96147279D01*
X119316524Y-96368964D01*
X119484499Y-96620357D01*
X119547958Y-96662759D01*
X120500296Y-97615098D01*
X120485191Y-97625191D01*
X120344843Y-97835235D01*
X120295560Y-98083000D01*
X120295560Y-99783000D01*
X120344843Y-100030765D01*
X120409814Y-100128000D01*
X114121000Y-100128000D01*
X114121000Y-99989410D01*
X114269691Y-100051000D01*
X114860250Y-100051000D01*
X115019000Y-99892250D01*
X115019000Y-98513766D01*
X115273000Y-98494480D01*
X115273000Y-99892250D01*
X115431750Y-100051000D01*
X116022309Y-100051000D01*
X116255698Y-99954327D01*
X116434327Y-99775699D01*
X116531000Y-99542310D01*
X116531000Y-97701750D01*
X116372250Y-97543000D01*
X116243766Y-97543000D01*
X116224480Y-97289000D01*
X116372250Y-97289000D01*
X116531000Y-97130250D01*
X116531000Y-95289690D01*
X116434327Y-95056301D01*
X116255698Y-94877673D01*
X116022309Y-94781000D01*
X115431750Y-94781000D01*
X115273000Y-94939750D01*
X115273000Y-96318234D01*
X115019000Y-96337520D01*
X115019000Y-94939750D01*
X114860250Y-94781000D01*
X114269691Y-94781000D01*
X114121000Y-94842590D01*
X114121000Y-92779926D01*
X114134909Y-92710000D01*
X114079805Y-92432972D01*
X113922881Y-92198119D01*
X113688028Y-92041195D01*
X113541483Y-92012045D01*
X113979698Y-91573830D01*
X114221000Y-90991276D01*
X114221000Y-90360724D01*
X113979698Y-89778170D01*
X113533830Y-89332302D01*
X112951276Y-89091000D01*
X112320724Y-89091000D01*
X111738170Y-89332302D01*
X111292302Y-89778170D01*
X111181000Y-90046877D01*
X111181000Y-89259690D01*
X111084327Y-89026301D01*
X110905698Y-88847673D01*
X110672309Y-88751000D01*
X110531750Y-88751000D01*
X110373000Y-88909750D01*
X110373000Y-90309000D01*
X110393000Y-90309000D01*
X110393000Y-90563000D01*
X110373000Y-90563000D01*
X110373000Y-90583000D01*
X110173440Y-90583000D01*
X110173440Y-89386000D01*
X110124157Y-89138235D01*
X110119000Y-89130517D01*
X110119000Y-88909750D01*
X109986000Y-88776750D01*
X109986000Y-88055844D01*
X110000888Y-87980997D01*
X109986000Y-87906150D01*
X109986000Y-87906146D01*
X109941904Y-87684461D01*
X109773929Y-87433069D01*
X109710473Y-87390669D01*
X109009780Y-86689977D01*
X114692538Y-86689977D01*
X119272429Y-91269869D01*
G36*
X228906000Y-100128000D02*
X132804026Y-100128000D01*
X133148183Y-99814358D01*
X133394486Y-99289892D01*
X133273819Y-99060000D01*
X132080000Y-99060000D01*
X132080000Y-99080000D01*
X131826000Y-99080000D01*
X131826000Y-99060000D01*
X131806000Y-99060000D01*
X131806000Y-98806000D01*
X131826000Y-98806000D01*
X131826000Y-97612845D01*
X132080000Y-97612845D01*
X132080000Y-98806000D01*
X133273819Y-98806000D01*
X133394486Y-98576108D01*
X133148183Y-98051642D01*
X132719924Y-97661355D01*
X132309890Y-97491524D01*
X132080000Y-97612845D01*
X131826000Y-97612845D01*
X131596110Y-97491524D01*
X131186076Y-97661355D01*
X130757817Y-98051642D01*
X130696843Y-98181478D01*
X130483625Y-97862375D01*
X129992418Y-97534161D01*
X129559256Y-97448000D01*
X129266744Y-97448000D01*
X128833582Y-97534161D01*
X128342375Y-97862375D01*
X128143000Y-98160761D01*
X127943625Y-97862375D01*
X127452418Y-97534161D01*
X127019256Y-97448000D01*
X126726744Y-97448000D01*
X126293582Y-97534161D01*
X125802375Y-97862375D01*
X125603000Y-98160761D01*
X125468000Y-97958719D01*
X125468000Y-97139783D01*
X125490235Y-97028000D01*
X125402146Y-96585145D01*
X125318624Y-96460146D01*
X125151289Y-96209711D01*
X125056521Y-96146390D01*
X124025132Y-95115000D01*
X144194869Y-95115000D01*
X146706389Y-97626521D01*
X146769711Y-97721289D01*
X147145145Y-97972146D01*
X147476217Y-98038000D01*
X147587999Y-98060235D01*
X147699781Y-98038000D01*
X155201560Y-98038000D01*
X155201560Y-98903000D01*
X155250843Y-99150765D01*
X155391191Y-99360809D01*
X155601235Y-99501157D01*
X155849000Y-99550440D01*
X158349000Y-99550440D01*
X158596765Y-99501157D01*
X158806809Y-99360809D01*
X158947157Y-99150765D01*
X158996440Y-98903000D01*
X158996440Y-98038000D01*
X161820868Y-98038000D01*
X161963477Y-98180609D01*
X162244146Y-98368146D01*
X162687000Y-98456235D01*
X162941000Y-98405711D01*
X163083217Y-98434000D01*
X165988560Y-98434000D01*
X165988560Y-99049000D01*
X166037843Y-99296765D01*
X166178191Y-99506809D01*
X166388235Y-99647157D01*
X166636000Y-99696440D01*
X168636000Y-99696440D01*
X168883765Y-99647157D01*
X169093809Y-99506809D01*
X169234157Y-99296765D01*
X169283440Y-99049000D01*
X169283440Y-98259847D01*
X169610146Y-98478146D01*
X170053000Y-98566235D01*
X170495854Y-98478146D01*
X170561923Y-98434000D01*
X170568560Y-98434000D01*
X170568560Y-99049000D01*
X170617843Y-99296765D01*
X170758191Y-99506809D01*
X170968235Y-99647157D01*
X171216000Y-99696440D01*
X173216000Y-99696440D01*
X173463765Y-99647157D01*
X173673809Y-99506809D01*
X173814157Y-99296765D01*
X173863440Y-99049000D01*
X173863440Y-95549000D01*
X173814157Y-95301235D01*
X173673809Y-95091191D01*
X173463765Y-94950843D01*
X173216000Y-94901560D01*
X171216000Y-94901560D01*
X170968235Y-94950843D01*
X170758191Y-95091191D01*
X170617843Y-95301235D01*
X170568560Y-95549000D01*
X170568560Y-96164000D01*
X170274781Y-96164000D01*
X170162999Y-96141765D01*
X170051217Y-96164000D01*
X169720145Y-96229854D01*
X169344711Y-96480711D01*
X169283440Y-96572410D01*
X169283440Y-95549000D01*
X169234157Y-95301235D01*
X169093809Y-95091191D01*
X168883765Y-94950843D01*
X168636000Y-94901560D01*
X166636000Y-94901560D01*
X166388235Y-94950843D01*
X166178191Y-95091191D01*
X166037843Y-95301235D01*
X165988560Y-95549000D01*
X165988560Y-96164000D01*
X163162268Y-96164000D01*
X163109289Y-96084711D01*
X162733855Y-95833854D01*
X162402783Y-95768000D01*
X162291000Y-95745765D01*
X162179217Y-95768000D01*
X158996440Y-95768000D01*
X158996440Y-94903000D01*
X158947157Y-94655235D01*
X158806809Y-94445191D01*
X158596765Y-94304843D01*
X158349000Y-94255560D01*
X155849000Y-94255560D01*
X155601235Y-94304843D01*
X155391191Y-94445191D01*
X155250843Y-94655235D01*
X155201560Y-94903000D01*
X155201560Y-95768000D01*
X148058132Y-95768000D01*
X145713162Y-93423031D01*
X149201354Y-93423031D01*
X149276201Y-93437919D01*
X149351048Y-93423031D01*
X149351053Y-93423031D01*
X149572738Y-93378935D01*
X149824130Y-93210960D01*
X149866532Y-93147501D01*
X151925283Y-91088750D01*
X155214000Y-91088750D01*
X155214000Y-92929309D01*
X155310673Y-93162698D01*
X155489301Y-93341327D01*
X155722690Y-93438000D01*
X156813250Y-93438000D01*
X156972000Y-93279250D01*
X156972000Y-90930000D01*
X157226000Y-90930000D01*
X157226000Y-93279250D01*
X157384750Y-93438000D01*
X158475310Y-93438000D01*
X158708699Y-93341327D01*
X158887327Y-93162698D01*
X158984000Y-92929309D01*
X158984000Y-91088750D01*
X158825250Y-90930000D01*
X157226000Y-90930000D01*
X156972000Y-90930000D01*
X155372750Y-90930000D01*
X155214000Y-91088750D01*
X151925283Y-91088750D01*
X154337342Y-88676691D01*
X155214000Y-88676691D01*
X155214000Y-90517250D01*
X155372750Y-90676000D01*
X156972000Y-90676000D01*
X156972000Y-88326750D01*
X157226000Y-88326750D01*
X157226000Y-90676000D01*
X158825250Y-90676000D01*
X158984000Y-90517250D01*
X158984000Y-90184750D01*
X165801000Y-90184750D01*
X165801000Y-93525310D01*
X165897673Y-93758699D01*
X166076302Y-93937327D01*
X166309691Y-94034000D01*
X169650250Y-94034000D01*
X169809000Y-93875250D01*
X169809000Y-90026000D01*
X170063000Y-90026000D01*
X170063000Y-93875250D01*
X170221750Y-94034000D01*
X173562309Y-94034000D01*
X173795698Y-93937327D01*
X173974327Y-93758699D01*
X174071000Y-93525310D01*
X174071000Y-90184750D01*
X173912250Y-90026000D01*
X170063000Y-90026000D01*
X169809000Y-90026000D01*
X165959750Y-90026000D01*
X165801000Y-90184750D01*
X158984000Y-90184750D01*
X158984000Y-88676691D01*
X158887327Y-88443302D01*
X158708699Y-88264673D01*
X158475310Y-88168000D01*
X157384750Y-88168000D01*
X157226000Y-88326750D01*
X156972000Y-88326750D01*
X156813250Y-88168000D01*
X155722690Y-88168000D01*
X155489301Y-88264673D01*
X155310673Y-88443302D01*
X155214000Y-88676691D01*
X154337342Y-88676691D01*
X156741343Y-86272690D01*
X165801000Y-86272690D01*
X165801000Y-89613250D01*
X165959750Y-89772000D01*
X169809000Y-89772000D01*
X169809000Y-85922750D01*
X170063000Y-85922750D01*
X170063000Y-89772000D01*
X173912250Y-89772000D01*
X174071000Y-89613250D01*
X174071000Y-86272690D01*
X173974327Y-86039301D01*
X173795698Y-85860673D01*
X173562309Y-85764000D01*
X170221750Y-85764000D01*
X170063000Y-85922750D01*
X169809000Y-85922750D01*
X169650250Y-85764000D01*
X166309691Y-85764000D01*
X166076302Y-85860673D01*
X165897673Y-86039301D01*
X165801000Y-86272690D01*
X156741343Y-86272690D01*
X164149033Y-78865000D01*
X198585153Y-78865000D01*
X198660000Y-78879888D01*
X198734847Y-78865000D01*
X198734852Y-78865000D01*
X198956537Y-78820904D01*
X199207929Y-78652929D01*
X199250331Y-78589470D01*
X205984473Y-71855329D01*
X206047929Y-71812929D01*
X206124548Y-71698261D01*
X206156795Y-71650000D01*
X206234250Y-71650000D01*
X206393000Y-71491250D01*
X206393000Y-71270483D01*
X206398157Y-71262765D01*
X206447440Y-71015000D01*
X206447440Y-69818000D01*
X206647000Y-69818000D01*
X206647000Y-69838000D01*
X206667000Y-69838000D01*
X206667000Y-70092000D01*
X206647000Y-70092000D01*
X206647000Y-71491250D01*
X206805750Y-71650000D01*
X206946309Y-71650000D01*
X207179698Y-71553327D01*
X207358327Y-71374699D01*
X207455000Y-71141310D01*
X207455000Y-70250750D01*
X207296252Y-70092002D01*
X207416426Y-70092002D01*
X207636302Y-70622830D01*
X208082170Y-71068698D01*
X208664724Y-71310000D01*
X209295276Y-71310000D01*
X209877830Y-71068698D01*
X210323698Y-70622830D01*
X210565000Y-70040276D01*
X210565000Y-69409724D01*
X210323698Y-68827170D01*
X209877830Y-68381302D01*
X209867489Y-68377019D01*
X209954028Y-68359805D01*
X210188881Y-68202881D01*
X210345805Y-67968028D01*
X210400909Y-67691000D01*
X210387000Y-67621074D01*
X210387000Y-65440025D01*
X210470302Y-65523327D01*
X210703691Y-65620000D01*
X211294250Y-65620000D01*
X211453000Y-65461250D01*
X211453000Y-64082766D01*
X211707000Y-64063480D01*
X211707000Y-65461250D01*
X211865750Y-65620000D01*
X212456309Y-65620000D01*
X212689698Y-65523327D01*
X212868327Y-65344699D01*
X212965000Y-65111310D01*
X212965000Y-63270750D01*
X212806250Y-63112000D01*
X212677766Y-63112000D01*
X212658480Y-62858000D01*
X212806250Y-62858000D01*
X212965000Y-62699250D01*
X212965000Y-60858690D01*
X212868327Y-60625301D01*
X212689698Y-60446673D01*
X212456309Y-60350000D01*
X211865750Y-60350000D01*
X211707000Y-60508750D01*
X211707000Y-61887234D01*
X211453000Y-61906520D01*
X211453000Y-60508750D01*
X211294250Y-60350000D01*
X210703691Y-60350000D01*
X210470302Y-60446673D01*
X210387000Y-60529975D01*
X210387000Y-60273000D01*
X228906001Y-60273000D01*
X228906000Y-100128000D01*
X228906000Y-100128000D01*
G37*
X228906000Y-100128000D02*
X132804026Y-100128000D01*
X133148183Y-99814358D01*
X133394486Y-99289892D01*
X133273819Y-99060000D01*
X132080000Y-99060000D01*
X132080000Y-99080000D01*
X131826000Y-99080000D01*
X131826000Y-99060000D01*
X131806000Y-99060000D01*
X131806000Y-98806000D01*
X131826000Y-98806000D01*
X131826000Y-97612845D01*
X132080000Y-97612845D01*
X132080000Y-98806000D01*
X133273819Y-98806000D01*
X133394486Y-98576108D01*
X133148183Y-98051642D01*
X132719924Y-97661355D01*
X132309890Y-97491524D01*
X132080000Y-97612845D01*
X131826000Y-97612845D01*
X131596110Y-97491524D01*
X131186076Y-97661355D01*
X130757817Y-98051642D01*
X130696843Y-98181478D01*
X130483625Y-97862375D01*
X129992418Y-97534161D01*
X129559256Y-97448000D01*
X129266744Y-97448000D01*
X128833582Y-97534161D01*
X128342375Y-97862375D01*
X128143000Y-98160761D01*
X127943625Y-97862375D01*
X127452418Y-97534161D01*
X127019256Y-97448000D01*
X126726744Y-97448000D01*
X126293582Y-97534161D01*
X125802375Y-97862375D01*
X125603000Y-98160761D01*
X125468000Y-97958719D01*
X125468000Y-97139783D01*
X125490235Y-97028000D01*
X125402146Y-96585145D01*
X125318624Y-96460146D01*
X125151289Y-96209711D01*
X125056521Y-96146390D01*
X124025132Y-95115000D01*
X144194869Y-95115000D01*
X146706389Y-97626521D01*
X146769711Y-97721289D01*
X147145145Y-97972146D01*
X147476217Y-98038000D01*
X147587999Y-98060235D01*
X147699781Y-98038000D01*
X155201560Y-98038000D01*
X155201560Y-98903000D01*
X155250843Y-99150765D01*
X155391191Y-99360809D01*
X155601235Y-99501157D01*
X155849000Y-99550440D01*
X158349000Y-99550440D01*
X158596765Y-99501157D01*
X158806809Y-99360809D01*
X158947157Y-99150765D01*
X158996440Y-98903000D01*
X158996440Y-98038000D01*
X161820868Y-98038000D01*
X161963477Y-98180609D01*
X162244146Y-98368146D01*
X162687000Y-98456235D01*
X162941000Y-98405711D01*
X163083217Y-98434000D01*
X165988560Y-98434000D01*
X165988560Y-99049000D01*
X166037843Y-99296765D01*
X166178191Y-99506809D01*
X166388235Y-99647157D01*
X166636000Y-99696440D01*
X168636000Y-99696440D01*
X168883765Y-99647157D01*
X169093809Y-99506809D01*
X169234157Y-99296765D01*
X169283440Y-99049000D01*
X169283440Y-98259847D01*
X169610146Y-98478146D01*
X170053000Y-98566235D01*
X170495854Y-98478146D01*
X170561923Y-98434000D01*
X170568560Y-98434000D01*
X170568560Y-99049000D01*
X170617843Y-99296765D01*
X170758191Y-99506809D01*
X170968235Y-99647157D01*
X171216000Y-99696440D01*
X173216000Y-99696440D01*
X173463765Y-99647157D01*
X173673809Y-99506809D01*
X173814157Y-99296765D01*
X173863440Y-99049000D01*
X173863440Y-95549000D01*
X173814157Y-95301235D01*
X173673809Y-95091191D01*
X173463765Y-94950843D01*
X173216000Y-94901560D01*
X171216000Y-94901560D01*
X170968235Y-94950843D01*
X170758191Y-95091191D01*
X170617843Y-95301235D01*
X170568560Y-95549000D01*
X170568560Y-96164000D01*
X170274781Y-96164000D01*
X170162999Y-96141765D01*
X170051217Y-96164000D01*
X169720145Y-96229854D01*
X169344711Y-96480711D01*
X169283440Y-96572410D01*
X169283440Y-95549000D01*
X169234157Y-95301235D01*
X169093809Y-95091191D01*
X168883765Y-94950843D01*
X168636000Y-94901560D01*
X166636000Y-94901560D01*
X166388235Y-94950843D01*
X166178191Y-95091191D01*
X166037843Y-95301235D01*
X165988560Y-95549000D01*
X165988560Y-96164000D01*
X163162268Y-96164000D01*
X163109289Y-96084711D01*
X162733855Y-95833854D01*
X162402783Y-95768000D01*
X162291000Y-95745765D01*
X162179217Y-95768000D01*
X158996440Y-95768000D01*
X158996440Y-94903000D01*
X158947157Y-94655235D01*
X158806809Y-94445191D01*
X158596765Y-94304843D01*
X158349000Y-94255560D01*
X155849000Y-94255560D01*
X155601235Y-94304843D01*
X155391191Y-94445191D01*
X155250843Y-94655235D01*
X155201560Y-94903000D01*
X155201560Y-95768000D01*
X148058132Y-95768000D01*
X145713162Y-93423031D01*
X149201354Y-93423031D01*
X149276201Y-93437919D01*
X149351048Y-93423031D01*
X149351053Y-93423031D01*
X149572738Y-93378935D01*
X149824130Y-93210960D01*
X149866532Y-93147501D01*
X151925283Y-91088750D01*
X155214000Y-91088750D01*
X155214000Y-92929309D01*
X155310673Y-93162698D01*
X155489301Y-93341327D01*
X155722690Y-93438000D01*
X156813250Y-93438000D01*
X156972000Y-93279250D01*
X156972000Y-90930000D01*
X157226000Y-90930000D01*
X157226000Y-93279250D01*
X157384750Y-93438000D01*
X158475310Y-93438000D01*
X158708699Y-93341327D01*
X158887327Y-93162698D01*
X158984000Y-92929309D01*
X158984000Y-91088750D01*
X158825250Y-90930000D01*
X157226000Y-90930000D01*
X156972000Y-90930000D01*
X155372750Y-90930000D01*
X155214000Y-91088750D01*
X151925283Y-91088750D01*
X154337342Y-88676691D01*
X155214000Y-88676691D01*
X155214000Y-90517250D01*
X155372750Y-90676000D01*
X156972000Y-90676000D01*
X156972000Y-88326750D01*
X157226000Y-88326750D01*
X157226000Y-90676000D01*
X158825250Y-90676000D01*
X158984000Y-90517250D01*
X158984000Y-90184750D01*
X165801000Y-90184750D01*
X165801000Y-93525310D01*
X165897673Y-93758699D01*
X166076302Y-93937327D01*
X166309691Y-94034000D01*
X169650250Y-94034000D01*
X169809000Y-93875250D01*
X169809000Y-90026000D01*
X170063000Y-90026000D01*
X170063000Y-93875250D01*
X170221750Y-94034000D01*
X173562309Y-94034000D01*
X173795698Y-93937327D01*
X173974327Y-93758699D01*
X174071000Y-93525310D01*
X174071000Y-90184750D01*
X173912250Y-90026000D01*
X170063000Y-90026000D01*
X169809000Y-90026000D01*
X165959750Y-90026000D01*
X165801000Y-90184750D01*
X158984000Y-90184750D01*
X158984000Y-88676691D01*
X158887327Y-88443302D01*
X158708699Y-88264673D01*
X158475310Y-88168000D01*
X157384750Y-88168000D01*
X157226000Y-88326750D01*
X156972000Y-88326750D01*
X156813250Y-88168000D01*
X155722690Y-88168000D01*
X155489301Y-88264673D01*
X155310673Y-88443302D01*
X155214000Y-88676691D01*
X154337342Y-88676691D01*
X156741343Y-86272690D01*
X165801000Y-86272690D01*
X165801000Y-89613250D01*
X165959750Y-89772000D01*
X169809000Y-89772000D01*
X169809000Y-85922750D01*
X170063000Y-85922750D01*
X170063000Y-89772000D01*
X173912250Y-89772000D01*
X174071000Y-89613250D01*
X174071000Y-86272690D01*
X173974327Y-86039301D01*
X173795698Y-85860673D01*
X173562309Y-85764000D01*
X170221750Y-85764000D01*
X170063000Y-85922750D01*
X169809000Y-85922750D01*
X169650250Y-85764000D01*
X166309691Y-85764000D01*
X166076302Y-85860673D01*
X165897673Y-86039301D01*
X165801000Y-86272690D01*
X156741343Y-86272690D01*
X164149033Y-78865000D01*
X198585153Y-78865000D01*
X198660000Y-78879888D01*
X198734847Y-78865000D01*
X198734852Y-78865000D01*
X198956537Y-78820904D01*
X199207929Y-78652929D01*
X199250331Y-78589470D01*
X205984473Y-71855329D01*
X206047929Y-71812929D01*
X206124548Y-71698261D01*
X206156795Y-71650000D01*
X206234250Y-71650000D01*
X206393000Y-71491250D01*
X206393000Y-71270483D01*
X206398157Y-71262765D01*
X206447440Y-71015000D01*
X206447440Y-69818000D01*
X206647000Y-69818000D01*
X206647000Y-69838000D01*
X206667000Y-69838000D01*
X206667000Y-70092000D01*
X206647000Y-70092000D01*
X206647000Y-71491250D01*
X206805750Y-71650000D01*
X206946309Y-71650000D01*
X207179698Y-71553327D01*
X207358327Y-71374699D01*
X207455000Y-71141310D01*
X207455000Y-70250750D01*
X207296252Y-70092002D01*
X207416426Y-70092002D01*
X207636302Y-70622830D01*
X208082170Y-71068698D01*
X208664724Y-71310000D01*
X209295276Y-71310000D01*
X209877830Y-71068698D01*
X210323698Y-70622830D01*
X210565000Y-70040276D01*
X210565000Y-69409724D01*
X210323698Y-68827170D01*
X209877830Y-68381302D01*
X209867489Y-68377019D01*
X209954028Y-68359805D01*
X210188881Y-68202881D01*
X210345805Y-67968028D01*
X210400909Y-67691000D01*
X210387000Y-67621074D01*
X210387000Y-65440025D01*
X210470302Y-65523327D01*
X210703691Y-65620000D01*
X211294250Y-65620000D01*
X211453000Y-65461250D01*
X211453000Y-64082766D01*
X211707000Y-64063480D01*
X211707000Y-65461250D01*
X211865750Y-65620000D01*
X212456309Y-65620000D01*
X212689698Y-65523327D01*
X212868327Y-65344699D01*
X212965000Y-65111310D01*
X212965000Y-63270750D01*
X212806250Y-63112000D01*
X212677766Y-63112000D01*
X212658480Y-62858000D01*
X212806250Y-62858000D01*
X212965000Y-62699250D01*
X212965000Y-60858690D01*
X212868327Y-60625301D01*
X212689698Y-60446673D01*
X212456309Y-60350000D01*
X211865750Y-60350000D01*
X211707000Y-60508750D01*
X211707000Y-61887234D01*
X211453000Y-61906520D01*
X211453000Y-60508750D01*
X211294250Y-60350000D01*
X210703691Y-60350000D01*
X210470302Y-60446673D01*
X210387000Y-60529975D01*
X210387000Y-60273000D01*
X228906001Y-60273000D01*
X228906000Y-100128000D01*
G36*
X53265000Y-60411590D02*
X53116309Y-60350000D01*
X52525750Y-60350000D01*
X52367000Y-60508750D01*
X52367000Y-61887234D01*
X52113000Y-61906520D01*
X52113000Y-60508750D01*
X51954250Y-60350000D01*
X51363691Y-60350000D01*
X51130302Y-60446673D01*
X50951673Y-60625301D01*
X50855000Y-60858690D01*
X50855000Y-62699250D01*
X51013750Y-62858000D01*
X51142234Y-62858000D01*
X51161520Y-63112000D01*
X51013750Y-63112000D01*
X50855000Y-63270750D01*
X50855000Y-65111310D01*
X50951673Y-65344699D01*
X51130302Y-65523327D01*
X51363691Y-65620000D01*
X51954250Y-65620000D01*
X52113000Y-65461250D01*
X52113000Y-64082766D01*
X52367000Y-64063480D01*
X52367000Y-65461250D01*
X52525750Y-65620000D01*
X53116309Y-65620000D01*
X53265001Y-65558410D01*
X53265001Y-67621069D01*
X53251091Y-67691000D01*
X53306195Y-67968028D01*
X53463119Y-68202881D01*
X53697972Y-68359805D01*
X53844517Y-68388955D01*
X53406302Y-68827170D01*
X53165000Y-69409724D01*
X53165000Y-70040276D01*
X53406302Y-70622830D01*
X53852170Y-71068698D01*
X54434724Y-71310000D01*
X55065276Y-71310000D01*
X55647830Y-71068698D01*
X56005000Y-70711528D01*
X56005001Y-72014212D01*
X55982765Y-72126000D01*
X56070854Y-72568854D01*
X56129017Y-72655901D01*
X56321712Y-72944289D01*
X56416479Y-73007610D01*
X56807477Y-73398609D01*
X57088146Y-73586146D01*
X57531000Y-73674235D01*
X57973854Y-73586146D01*
X58349289Y-73335289D01*
X58600146Y-72959854D01*
X58629994Y-72809796D01*
X65875682Y-80055484D01*
X65918080Y-80118937D01*
X65981533Y-80161335D01*
X65981536Y-80161338D01*
X66169472Y-80286913D01*
X66466009Y-80345897D01*
X66540862Y-80331008D01*
X73450190Y-80331008D01*
X68209032Y-85572167D01*
X68112765Y-85507843D01*
X67865000Y-85458560D01*
X64265000Y-85458560D01*
X64017235Y-85507843D01*
X63807191Y-85648191D01*
X63666843Y-85858235D01*
X63617560Y-86106000D01*
X63617560Y-86142429D01*
X63492613Y-86017482D01*
X63429289Y-85922711D01*
X63053855Y-85671854D01*
X62722783Y-85606000D01*
X62611000Y-85583765D01*
X62499217Y-85606000D01*
X61859666Y-85606000D01*
X61712765Y-85507843D01*
X61465000Y-85458560D01*
X57865000Y-85458560D01*
X57617235Y-85507843D01*
X57407191Y-85648191D01*
X57266843Y-85858235D01*
X57217560Y-86106000D01*
X57217560Y-87376000D01*
X57266843Y-87623765D01*
X57407191Y-87833809D01*
X57617235Y-87974157D01*
X57802459Y-88011000D01*
X57738690Y-88011000D01*
X57505301Y-88107673D01*
X57326673Y-88286302D01*
X57230000Y-88519691D01*
X57230000Y-88995250D01*
X57388750Y-89154000D01*
X59538000Y-89154000D01*
X59538000Y-89134000D01*
X59792000Y-89134000D01*
X59792000Y-89154000D01*
X61941250Y-89154000D01*
X62100000Y-88995250D01*
X62100000Y-88519691D01*
X62003327Y-88286302D01*
X61824699Y-88107673D01*
X61591310Y-88011000D01*
X61527541Y-88011000D01*
X61712765Y-87974157D01*
X61859666Y-87876000D01*
X62140869Y-87876000D01*
X62141477Y-87876608D01*
X62422146Y-88064145D01*
X62864999Y-88152235D01*
X63307854Y-88064145D01*
X63683288Y-87813288D01*
X63738383Y-87730832D01*
X63807191Y-87833809D01*
X64017235Y-87974157D01*
X64202459Y-88011000D01*
X64017235Y-88047843D01*
X63807191Y-88188191D01*
X63666843Y-88398235D01*
X63617560Y-88646000D01*
X63617560Y-89916000D01*
X63666843Y-90163765D01*
X63807191Y-90373809D01*
X64017235Y-90514157D01*
X64202459Y-90551000D01*
X64017235Y-90587843D01*
X63807191Y-90728191D01*
X63666843Y-90938235D01*
X63617560Y-91186000D01*
X63617560Y-92456000D01*
X63666843Y-92703765D01*
X63807191Y-92913809D01*
X64017235Y-93054157D01*
X64202459Y-93091000D01*
X64017235Y-93127843D01*
X63807191Y-93268191D01*
X63666843Y-93478235D01*
X63617560Y-93726000D01*
X63617560Y-94996000D01*
X63666843Y-95243765D01*
X63807191Y-95453809D01*
X64017235Y-95594157D01*
X64202459Y-95631000D01*
X64017235Y-95667843D01*
X63807191Y-95808191D01*
X63666843Y-96018235D01*
X63617560Y-96266000D01*
X63617560Y-97536000D01*
X63666843Y-97783765D01*
X63807191Y-97993809D01*
X64017235Y-98134157D01*
X64265000Y-98183440D01*
X67865000Y-98183440D01*
X68112765Y-98134157D01*
X68322809Y-97993809D01*
X68463157Y-97783765D01*
X68487576Y-97661000D01*
X71480153Y-97661000D01*
X71555000Y-97675888D01*
X71629847Y-97661000D01*
X71629852Y-97661000D01*
X71851537Y-97616904D01*
X72102929Y-97448929D01*
X72145331Y-97385470D01*
X73383362Y-96147440D01*
X73856000Y-96147440D01*
X74103765Y-96098157D01*
X74313809Y-95957809D01*
X74454157Y-95747765D01*
X74503440Y-95500000D01*
X74503440Y-95427361D01*
X76176476Y-93754327D01*
X76239929Y-93711929D01*
X76282327Y-93648476D01*
X76282329Y-93648474D01*
X76381536Y-93500000D01*
X76407904Y-93460537D01*
X76452000Y-93238852D01*
X76452000Y-93238848D01*
X76466888Y-93164001D01*
X76452000Y-93089154D01*
X76452000Y-88753801D01*
X82657803Y-82548000D01*
X88038868Y-82548000D01*
X83082480Y-87504389D01*
X82987712Y-87567711D01*
X82827486Y-87807506D01*
X82736854Y-87943146D01*
X82648765Y-88386000D01*
X82671001Y-88497788D01*
X82671001Y-88751000D01*
X82658998Y-88751000D01*
X82658998Y-88909748D01*
X82500250Y-88751000D01*
X82359691Y-88751000D01*
X82126302Y-88847673D01*
X81947673Y-89026301D01*
X81851000Y-89259690D01*
X81851000Y-90150250D01*
X82009748Y-90308998D01*
X81889574Y-90308998D01*
X81669698Y-89778170D01*
X81223830Y-89332302D01*
X80641276Y-89091000D01*
X80010724Y-89091000D01*
X79428170Y-89332302D01*
X78982302Y-89778170D01*
X78741000Y-90360724D01*
X78741000Y-90991276D01*
X78982302Y-91573830D01*
X79428170Y-92019698D01*
X79438511Y-92023981D01*
X79351972Y-92041195D01*
X79117119Y-92198119D01*
X78960195Y-92432972D01*
X78905091Y-92710000D01*
X78919001Y-92779931D01*
X78919001Y-94960975D01*
X78835698Y-94877673D01*
X78602309Y-94781000D01*
X78011750Y-94781000D01*
X77853000Y-94939750D01*
X77853000Y-96318234D01*
X77599000Y-96337520D01*
X77599000Y-94939750D01*
X77440250Y-94781000D01*
X76849691Y-94781000D01*
X76616302Y-94877673D01*
X76437673Y-95056301D01*
X76341000Y-95289690D01*
X76341000Y-97130250D01*
X76499750Y-97289000D01*
X76628234Y-97289000D01*
X76647520Y-97543000D01*
X76499750Y-97543000D01*
X76341000Y-97701750D01*
X76341000Y-99542310D01*
X76437673Y-99775699D01*
X76616302Y-99954327D01*
X76849691Y-100051000D01*
X77440250Y-100051000D01*
X77599000Y-99892250D01*
X77599000Y-98513766D01*
X77853000Y-98494480D01*
X77853000Y-99892250D01*
X78011750Y-100051000D01*
X78602309Y-100051000D01*
X78835698Y-99954327D01*
X78919000Y-99871025D01*
X78919000Y-100128000D01*
X37413000Y-100128000D01*
X37413000Y-97186750D01*
X57230000Y-97186750D01*
X57230000Y-97662309D01*
X57326673Y-97895698D01*
X57505301Y-98074327D01*
X57738690Y-98171000D01*
X59379250Y-98171000D01*
X59538000Y-98012250D01*
X59538000Y-97028000D01*
X59792000Y-97028000D01*
X59792000Y-98012250D01*
X59950750Y-98171000D01*
X61591310Y-98171000D01*
X61824699Y-98074327D01*
X62003327Y-97895698D01*
X62100000Y-97662309D01*
X62100000Y-97186750D01*
X61941250Y-97028000D01*
X59792000Y-97028000D01*
X59538000Y-97028000D01*
X57388750Y-97028000D01*
X57230000Y-97186750D01*
X37413000Y-97186750D01*
X37413000Y-93726000D01*
X57217560Y-93726000D01*
X57217560Y-94996000D01*
X57266843Y-95243765D01*
X57407191Y-95453809D01*
X57617235Y-95594157D01*
X57802459Y-95631000D01*
X57738690Y-95631000D01*
X57505301Y-95727673D01*
X57326673Y-95906302D01*
X57230000Y-96139691D01*
X57230000Y-96615250D01*
X57388750Y-96774000D01*
X59538000Y-96774000D01*
X59538000Y-96754000D01*
X59792000Y-96754000D01*
X59792000Y-96774000D01*
X61941250Y-96774000D01*
X62100000Y-96615250D01*
X62100000Y-96139691D01*
X62003327Y-95906302D01*
X61824699Y-95727673D01*
X61591310Y-95631000D01*
X61527541Y-95631000D01*
X61712765Y-95594157D01*
X61922809Y-95453809D01*
X62063157Y-95243765D01*
X62112440Y-94996000D01*
X62112440Y-93726000D01*
X62063157Y-93478235D01*
X61922809Y-93268191D01*
X61712765Y-93127843D01*
X61527541Y-93091000D01*
X61591310Y-93091000D01*
X61824699Y-92994327D01*
X62003327Y-92815698D01*
X62100000Y-92582309D01*
X62100000Y-92106750D01*
X61941250Y-91948000D01*
X59792000Y-91948000D01*
X59792000Y-91968000D01*
X59538000Y-91968000D01*
X59538000Y-91948000D01*
X57388750Y-91948000D01*
X57230000Y-92106750D01*
X57230000Y-92582309D01*
X57326673Y-92815698D01*
X57505301Y-92994327D01*
X57738690Y-93091000D01*
X57802459Y-93091000D01*
X57617235Y-93127843D01*
X57407191Y-93268191D01*
X57266843Y-93478235D01*
X57217560Y-93726000D01*
X37413000Y-93726000D01*
X37413000Y-89566750D01*
X57230000Y-89566750D01*
X57230000Y-90042309D01*
X57326673Y-90275698D01*
X57505301Y-90454327D01*
X57738690Y-90551000D01*
X57505301Y-90647673D01*
X57326673Y-90826302D01*
X57230000Y-91059691D01*
X57230000Y-91535250D01*
X57388750Y-91694000D01*
X59538000Y-91694000D01*
X59538000Y-90709750D01*
X59379250Y-90551000D01*
X59538000Y-90392250D01*
X59538000Y-89408000D01*
X59792000Y-89408000D01*
X59792000Y-90392250D01*
X59950750Y-90551000D01*
X59792000Y-90709750D01*
X59792000Y-91694000D01*
X61941250Y-91694000D01*
X62100000Y-91535250D01*
X62100000Y-91059691D01*
X62003327Y-90826302D01*
X61824699Y-90647673D01*
X61591310Y-90551000D01*
X61824699Y-90454327D01*
X62003327Y-90275698D01*
X62100000Y-90042309D01*
X62100000Y-89566750D01*
X61941250Y-89408000D01*
X59792000Y-89408000D01*
X59538000Y-89408000D01*
X57388750Y-89408000D01*
X57230000Y-89566750D01*
X37413000Y-89566750D01*
X37413000Y-60273000D01*
X53265000Y-60273000D01*
X53265000Y-60411590D01*
X53265000Y-60411590D01*
G37*
X53265000Y-60411590D02*
X53116309Y-60350000D01*
X52525750Y-60350000D01*
X52367000Y-60508750D01*
X52367000Y-61887234D01*
X52113000Y-61906520D01*
X52113000Y-60508750D01*
X51954250Y-60350000D01*
X51363691Y-60350000D01*
X51130302Y-60446673D01*
X50951673Y-60625301D01*
X50855000Y-60858690D01*
X50855000Y-62699250D01*
X51013750Y-62858000D01*
X51142234Y-62858000D01*
X51161520Y-63112000D01*
X51013750Y-63112000D01*
X50855000Y-63270750D01*
X50855000Y-65111310D01*
X50951673Y-65344699D01*
X51130302Y-65523327D01*
X51363691Y-65620000D01*
X51954250Y-65620000D01*
X52113000Y-65461250D01*
X52113000Y-64082766D01*
X52367000Y-64063480D01*
X52367000Y-65461250D01*
X52525750Y-65620000D01*
X53116309Y-65620000D01*
X53265001Y-65558410D01*
X53265001Y-67621069D01*
X53251091Y-67691000D01*
X53306195Y-67968028D01*
X53463119Y-68202881D01*
X53697972Y-68359805D01*
X53844517Y-68388955D01*
X53406302Y-68827170D01*
X53165000Y-69409724D01*
X53165000Y-70040276D01*
X53406302Y-70622830D01*
X53852170Y-71068698D01*
X54434724Y-71310000D01*
X55065276Y-71310000D01*
X55647830Y-71068698D01*
X56005000Y-70711528D01*
X56005001Y-72014212D01*
X55982765Y-72126000D01*
X56070854Y-72568854D01*
X56129017Y-72655901D01*
X56321712Y-72944289D01*
X56416479Y-73007610D01*
X56807477Y-73398609D01*
X57088146Y-73586146D01*
X57531000Y-73674235D01*
X57973854Y-73586146D01*
X58349289Y-73335289D01*
X58600146Y-72959854D01*
X58629994Y-72809796D01*
X65875682Y-80055484D01*
X65918080Y-80118937D01*
X65981533Y-80161335D01*
X65981536Y-80161338D01*
X66169472Y-80286913D01*
X66466009Y-80345897D01*
X66540862Y-80331008D01*
X73450190Y-80331008D01*
X68209032Y-85572167D01*
X68112765Y-85507843D01*
X67865000Y-85458560D01*
X64265000Y-85458560D01*
X64017235Y-85507843D01*
X63807191Y-85648191D01*
X63666843Y-85858235D01*
X63617560Y-86106000D01*
X63617560Y-86142429D01*
X63492613Y-86017482D01*
X63429289Y-85922711D01*
X63053855Y-85671854D01*
X62722783Y-85606000D01*
X62611000Y-85583765D01*
X62499217Y-85606000D01*
X61859666Y-85606000D01*
X61712765Y-85507843D01*
X61465000Y-85458560D01*
X57865000Y-85458560D01*
X57617235Y-85507843D01*
X57407191Y-85648191D01*
X57266843Y-85858235D01*
X57217560Y-86106000D01*
X57217560Y-87376000D01*
X57266843Y-87623765D01*
X57407191Y-87833809D01*
X57617235Y-87974157D01*
X57802459Y-88011000D01*
X57738690Y-88011000D01*
X57505301Y-88107673D01*
X57326673Y-88286302D01*
X57230000Y-88519691D01*
X57230000Y-88995250D01*
X57388750Y-89154000D01*
X59538000Y-89154000D01*
X59538000Y-89134000D01*
X59792000Y-89134000D01*
X59792000Y-89154000D01*
X61941250Y-89154000D01*
X62100000Y-88995250D01*
X62100000Y-88519691D01*
X62003327Y-88286302D01*
X61824699Y-88107673D01*
X61591310Y-88011000D01*
X61527541Y-88011000D01*
X61712765Y-87974157D01*
X61859666Y-87876000D01*
X62140869Y-87876000D01*
X62141477Y-87876608D01*
X62422146Y-88064145D01*
X62864999Y-88152235D01*
X63307854Y-88064145D01*
X63683288Y-87813288D01*
X63738383Y-87730832D01*
X63807191Y-87833809D01*
X64017235Y-87974157D01*
X64202459Y-88011000D01*
X64017235Y-88047843D01*
X63807191Y-88188191D01*
X63666843Y-88398235D01*
X63617560Y-88646000D01*
X63617560Y-89916000D01*
X63666843Y-90163765D01*
X63807191Y-90373809D01*
X64017235Y-90514157D01*
X64202459Y-90551000D01*
X64017235Y-90587843D01*
X63807191Y-90728191D01*
X63666843Y-90938235D01*
X63617560Y-91186000D01*
X63617560Y-92456000D01*
X63666843Y-92703765D01*
X63807191Y-92913809D01*
X64017235Y-93054157D01*
X64202459Y-93091000D01*
X64017235Y-93127843D01*
X63807191Y-93268191D01*
X63666843Y-93478235D01*
X63617560Y-93726000D01*
X63617560Y-94996000D01*
X63666843Y-95243765D01*
X63807191Y-95453809D01*
X64017235Y-95594157D01*
X64202459Y-95631000D01*
X64017235Y-95667843D01*
X63807191Y-95808191D01*
X63666843Y-96018235D01*
X63617560Y-96266000D01*
X63617560Y-97536000D01*
X63666843Y-97783765D01*
X63807191Y-97993809D01*
X64017235Y-98134157D01*
X64265000Y-98183440D01*
X67865000Y-98183440D01*
X68112765Y-98134157D01*
X68322809Y-97993809D01*
X68463157Y-97783765D01*
X68487576Y-97661000D01*
X71480153Y-97661000D01*
X71555000Y-97675888D01*
X71629847Y-97661000D01*
X71629852Y-97661000D01*
X71851537Y-97616904D01*
X72102929Y-97448929D01*
X72145331Y-97385470D01*
X73383362Y-96147440D01*
X73856000Y-96147440D01*
X74103765Y-96098157D01*
X74313809Y-95957809D01*
X74454157Y-95747765D01*
X74503440Y-95500000D01*
X74503440Y-95427361D01*
X76176476Y-93754327D01*
X76239929Y-93711929D01*
X76282327Y-93648476D01*
X76282329Y-93648474D01*
X76381536Y-93500000D01*
X76407904Y-93460537D01*
X76452000Y-93238852D01*
X76452000Y-93238848D01*
X76466888Y-93164001D01*
X76452000Y-93089154D01*
X76452000Y-88753801D01*
X82657803Y-82548000D01*
X88038868Y-82548000D01*
X83082480Y-87504389D01*
X82987712Y-87567711D01*
X82827486Y-87807506D01*
X82736854Y-87943146D01*
X82648765Y-88386000D01*
X82671001Y-88497788D01*
X82671001Y-88751000D01*
X82658998Y-88751000D01*
X82658998Y-88909748D01*
X82500250Y-88751000D01*
X82359691Y-88751000D01*
X82126302Y-88847673D01*
X81947673Y-89026301D01*
X81851000Y-89259690D01*
X81851000Y-90150250D01*
X82009748Y-90308998D01*
X81889574Y-90308998D01*
X81669698Y-89778170D01*
X81223830Y-89332302D01*
X80641276Y-89091000D01*
X80010724Y-89091000D01*
X79428170Y-89332302D01*
X78982302Y-89778170D01*
X78741000Y-90360724D01*
X78741000Y-90991276D01*
X78982302Y-91573830D01*
X79428170Y-92019698D01*
X79438511Y-92023981D01*
X79351972Y-92041195D01*
X79117119Y-92198119D01*
X78960195Y-92432972D01*
X78905091Y-92710000D01*
X78919001Y-92779931D01*
X78919001Y-94960975D01*
X78835698Y-94877673D01*
X78602309Y-94781000D01*
X78011750Y-94781000D01*
X77853000Y-94939750D01*
X77853000Y-96318234D01*
X77599000Y-96337520D01*
X77599000Y-94939750D01*
X77440250Y-94781000D01*
X76849691Y-94781000D01*
X76616302Y-94877673D01*
X76437673Y-95056301D01*
X76341000Y-95289690D01*
X76341000Y-97130250D01*
X76499750Y-97289000D01*
X76628234Y-97289000D01*
X76647520Y-97543000D01*
X76499750Y-97543000D01*
X76341000Y-97701750D01*
X76341000Y-99542310D01*
X76437673Y-99775699D01*
X76616302Y-99954327D01*
X76849691Y-100051000D01*
X77440250Y-100051000D01*
X77599000Y-99892250D01*
X77599000Y-98513766D01*
X77853000Y-98494480D01*
X77853000Y-99892250D01*
X78011750Y-100051000D01*
X78602309Y-100051000D01*
X78835698Y-99954327D01*
X78919000Y-99871025D01*
X78919000Y-100128000D01*
X37413000Y-100128000D01*
X37413000Y-97186750D01*
X57230000Y-97186750D01*
X57230000Y-97662309D01*
X57326673Y-97895698D01*
X57505301Y-98074327D01*
X57738690Y-98171000D01*
X59379250Y-98171000D01*
X59538000Y-98012250D01*
X59538000Y-97028000D01*
X59792000Y-97028000D01*
X59792000Y-98012250D01*
X59950750Y-98171000D01*
X61591310Y-98171000D01*
X61824699Y-98074327D01*
X62003327Y-97895698D01*
X62100000Y-97662309D01*
X62100000Y-97186750D01*
X61941250Y-97028000D01*
X59792000Y-97028000D01*
X59538000Y-97028000D01*
X57388750Y-97028000D01*
X57230000Y-97186750D01*
X37413000Y-97186750D01*
X37413000Y-93726000D01*
X57217560Y-93726000D01*
X57217560Y-94996000D01*
X57266843Y-95243765D01*
X57407191Y-95453809D01*
X57617235Y-95594157D01*
X57802459Y-95631000D01*
X57738690Y-95631000D01*
X57505301Y-95727673D01*
X57326673Y-95906302D01*
X57230000Y-96139691D01*
X57230000Y-96615250D01*
X57388750Y-96774000D01*
X59538000Y-96774000D01*
X59538000Y-96754000D01*
X59792000Y-96754000D01*
X59792000Y-96774000D01*
X61941250Y-96774000D01*
X62100000Y-96615250D01*
X62100000Y-96139691D01*
X62003327Y-95906302D01*
X61824699Y-95727673D01*
X61591310Y-95631000D01*
X61527541Y-95631000D01*
X61712765Y-95594157D01*
X61922809Y-95453809D01*
X62063157Y-95243765D01*
X62112440Y-94996000D01*
X62112440Y-93726000D01*
X62063157Y-93478235D01*
X61922809Y-93268191D01*
X61712765Y-93127843D01*
X61527541Y-93091000D01*
X61591310Y-93091000D01*
X61824699Y-92994327D01*
X62003327Y-92815698D01*
X62100000Y-92582309D01*
X62100000Y-92106750D01*
X61941250Y-91948000D01*
X59792000Y-91948000D01*
X59792000Y-91968000D01*
X59538000Y-91968000D01*
X59538000Y-91948000D01*
X57388750Y-91948000D01*
X57230000Y-92106750D01*
X57230000Y-92582309D01*
X57326673Y-92815698D01*
X57505301Y-92994327D01*
X57738690Y-93091000D01*
X57802459Y-93091000D01*
X57617235Y-93127843D01*
X57407191Y-93268191D01*
X57266843Y-93478235D01*
X57217560Y-93726000D01*
X37413000Y-93726000D01*
X37413000Y-89566750D01*
X57230000Y-89566750D01*
X57230000Y-90042309D01*
X57326673Y-90275698D01*
X57505301Y-90454327D01*
X57738690Y-90551000D01*
X57505301Y-90647673D01*
X57326673Y-90826302D01*
X57230000Y-91059691D01*
X57230000Y-91535250D01*
X57388750Y-91694000D01*
X59538000Y-91694000D01*
X59538000Y-90709750D01*
X59379250Y-90551000D01*
X59538000Y-90392250D01*
X59538000Y-89408000D01*
X59792000Y-89408000D01*
X59792000Y-90392250D01*
X59950750Y-90551000D01*
X59792000Y-90709750D01*
X59792000Y-91694000D01*
X61941250Y-91694000D01*
X62100000Y-91535250D01*
X62100000Y-91059691D01*
X62003327Y-90826302D01*
X61824699Y-90647673D01*
X61591310Y-90551000D01*
X61824699Y-90454327D01*
X62003327Y-90275698D01*
X62100000Y-90042309D01*
X62100000Y-89566750D01*
X61941250Y-89408000D01*
X59792000Y-89408000D01*
X59538000Y-89408000D01*
X57388750Y-89408000D01*
X57230000Y-89566750D01*
X37413000Y-89566750D01*
X37413000Y-60273000D01*
X53265000Y-60273000D01*
X53265000Y-60411590D01*
G36*
X103005001Y-88751000D02*
X102978998Y-88751000D01*
X102978998Y-88909748D01*
X102820250Y-88751000D01*
X102679691Y-88751000D01*
X102446302Y-88847673D01*
X102267673Y-89026301D01*
X102171000Y-89259690D01*
X102171000Y-90150250D01*
X102329748Y-90308998D01*
X102209574Y-90308998D01*
X101989698Y-89778170D01*
X101543830Y-89332302D01*
X100961276Y-89091000D01*
X100330724Y-89091000D01*
X99748170Y-89332302D01*
X99302302Y-89778170D01*
X99061000Y-90360724D01*
X99061000Y-90991276D01*
X99302302Y-91573830D01*
X99748170Y-92019698D01*
X99758511Y-92023981D01*
X99671972Y-92041195D01*
X99437119Y-92198119D01*
X99280195Y-92432972D01*
X99225091Y-92710000D01*
X99239001Y-92779931D01*
X99239001Y-94960975D01*
X99155698Y-94877673D01*
X98922309Y-94781000D01*
X98331750Y-94781000D01*
X98173000Y-94939750D01*
X98173000Y-96318234D01*
X97919000Y-96337520D01*
X97919000Y-94939750D01*
X97760250Y-94781000D01*
X97169691Y-94781000D01*
X96936302Y-94877673D01*
X96757673Y-95056301D01*
X96661000Y-95289690D01*
X96661000Y-97130250D01*
X96819750Y-97289000D01*
X96948234Y-97289000D01*
X96967520Y-97543000D01*
X96819750Y-97543000D01*
X96661000Y-97701750D01*
X96661000Y-99542310D01*
X96757673Y-99775699D01*
X96936302Y-99954327D01*
X97169691Y-100051000D01*
X97760250Y-100051000D01*
X97919000Y-99892250D01*
X97919000Y-98513766D01*
X98173000Y-98494480D01*
X98173000Y-99892250D01*
X98331750Y-100051000D01*
X98922309Y-100051000D01*
X99155698Y-99954327D01*
X99239000Y-99871025D01*
X99239000Y-100128000D01*
X93801000Y-100128000D01*
X93801000Y-99989410D01*
X93949691Y-100051000D01*
X94540250Y-100051000D01*
X94699000Y-99892250D01*
X94699000Y-98513766D01*
X94953000Y-98494480D01*
X94953000Y-99892250D01*
X95111750Y-100051000D01*
X95702309Y-100051000D01*
X95935698Y-99954327D01*
X96114327Y-99775699D01*
X96211000Y-99542310D01*
X96211000Y-97701750D01*
X96052250Y-97543000D01*
X95923766Y-97543000D01*
X95904480Y-97289000D01*
X96052250Y-97289000D01*
X96211000Y-97130250D01*
X96211000Y-95289690D01*
X96114327Y-95056301D01*
X95935698Y-94877673D01*
X95702309Y-94781000D01*
X95111750Y-94781000D01*
X94953000Y-94939750D01*
X94953000Y-96318234D01*
X94699000Y-96337520D01*
X94699000Y-94939750D01*
X94540250Y-94781000D01*
X93949691Y-94781000D01*
X93801000Y-94842590D01*
X93801000Y-92779926D01*
X93814909Y-92710000D01*
X93759805Y-92432972D01*
X93602881Y-92198119D01*
X93368028Y-92041195D01*
X93221483Y-92012045D01*
X93659698Y-91573830D01*
X93901000Y-90991276D01*
X93901000Y-90360724D01*
X93659698Y-89778170D01*
X93213830Y-89332302D01*
X92631276Y-89091000D01*
X92000724Y-89091000D01*
X91418170Y-89332302D01*
X90972302Y-89778170D01*
X90861000Y-90046877D01*
X90861000Y-89259690D01*
X90764327Y-89026301D01*
X90585698Y-88847673D01*
X90361850Y-88754952D01*
X91033769Y-88083033D01*
X101731683Y-88083033D01*
X101806530Y-88097921D01*
X101881377Y-88083033D01*
X101881382Y-88083033D01*
X102103067Y-88038937D01*
X102354459Y-87870962D01*
X102396861Y-87807503D01*
X103005000Y-87199365D01*
X103005001Y-88751000D01*
X103005001Y-88751000D01*
G37*
X103005001Y-88751000D02*
X102978998Y-88751000D01*
X102978998Y-88909748D01*
X102820250Y-88751000D01*
X102679691Y-88751000D01*
X102446302Y-88847673D01*
X102267673Y-89026301D01*
X102171000Y-89259690D01*
X102171000Y-90150250D01*
X102329748Y-90308998D01*
X102209574Y-90308998D01*
X101989698Y-89778170D01*
X101543830Y-89332302D01*
X100961276Y-89091000D01*
X100330724Y-89091000D01*
X99748170Y-89332302D01*
X99302302Y-89778170D01*
X99061000Y-90360724D01*
X99061000Y-90991276D01*
X99302302Y-91573830D01*
X99748170Y-92019698D01*
X99758511Y-92023981D01*
X99671972Y-92041195D01*
X99437119Y-92198119D01*
X99280195Y-92432972D01*
X99225091Y-92710000D01*
X99239001Y-92779931D01*
X99239001Y-94960975D01*
X99155698Y-94877673D01*
X98922309Y-94781000D01*
X98331750Y-94781000D01*
X98173000Y-94939750D01*
X98173000Y-96318234D01*
X97919000Y-96337520D01*
X97919000Y-94939750D01*
X97760250Y-94781000D01*
X97169691Y-94781000D01*
X96936302Y-94877673D01*
X96757673Y-95056301D01*
X96661000Y-95289690D01*
X96661000Y-97130250D01*
X96819750Y-97289000D01*
X96948234Y-97289000D01*
X96967520Y-97543000D01*
X96819750Y-97543000D01*
X96661000Y-97701750D01*
X96661000Y-99542310D01*
X96757673Y-99775699D01*
X96936302Y-99954327D01*
X97169691Y-100051000D01*
X97760250Y-100051000D01*
X97919000Y-99892250D01*
X97919000Y-98513766D01*
X98173000Y-98494480D01*
X98173000Y-99892250D01*
X98331750Y-100051000D01*
X98922309Y-100051000D01*
X99155698Y-99954327D01*
X99239000Y-99871025D01*
X99239000Y-100128000D01*
X93801000Y-100128000D01*
X93801000Y-99989410D01*
X93949691Y-100051000D01*
X94540250Y-100051000D01*
X94699000Y-99892250D01*
X94699000Y-98513766D01*
X94953000Y-98494480D01*
X94953000Y-99892250D01*
X95111750Y-100051000D01*
X95702309Y-100051000D01*
X95935698Y-99954327D01*
X96114327Y-99775699D01*
X96211000Y-99542310D01*
X96211000Y-97701750D01*
X96052250Y-97543000D01*
X95923766Y-97543000D01*
X95904480Y-97289000D01*
X96052250Y-97289000D01*
X96211000Y-97130250D01*
X96211000Y-95289690D01*
X96114327Y-95056301D01*
X95935698Y-94877673D01*
X95702309Y-94781000D01*
X95111750Y-94781000D01*
X94953000Y-94939750D01*
X94953000Y-96318234D01*
X94699000Y-96337520D01*
X94699000Y-94939750D01*
X94540250Y-94781000D01*
X93949691Y-94781000D01*
X93801000Y-94842590D01*
X93801000Y-92779926D01*
X93814909Y-92710000D01*
X93759805Y-92432972D01*
X93602881Y-92198119D01*
X93368028Y-92041195D01*
X93221483Y-92012045D01*
X93659698Y-91573830D01*
X93901000Y-90991276D01*
X93901000Y-90360724D01*
X93659698Y-89778170D01*
X93213830Y-89332302D01*
X92631276Y-89091000D01*
X92000724Y-89091000D01*
X91418170Y-89332302D01*
X90972302Y-89778170D01*
X90861000Y-90046877D01*
X90861000Y-89259690D01*
X90764327Y-89026301D01*
X90585698Y-88847673D01*
X90361850Y-88754952D01*
X91033769Y-88083033D01*
X101731683Y-88083033D01*
X101806530Y-88097921D01*
X101881377Y-88083033D01*
X101881382Y-88083033D01*
X102103067Y-88038937D01*
X102354459Y-87870962D01*
X102396861Y-87807503D01*
X103005000Y-87199365D01*
X103005001Y-88751000D01*
G36*
X95019748Y-97401858D02*
X95005605Y-97416000D01*
X95019748Y-97430143D01*
X94840143Y-97609748D01*
X94826000Y-97595605D01*
X94811858Y-97609748D01*
X94679000Y-97476890D01*
X94679000Y-97355110D01*
X94811858Y-97222253D01*
X94826000Y-97236395D01*
X94840143Y-97222253D01*
X95019748Y-97401858D01*
X95019748Y-97401858D01*
G37*
X95019748Y-97401858D02*
X95005605Y-97416000D01*
X95019748Y-97430143D01*
X94840143Y-97609748D01*
X94826000Y-97595605D01*
X94811858Y-97609748D01*
X94679000Y-97476890D01*
X94679000Y-97355110D01*
X94811858Y-97222253D01*
X94826000Y-97236395D01*
X94840143Y-97222253D01*
X95019748Y-97401858D01*
G36*
X115339748Y-97401858D02*
X115325605Y-97416000D01*
X115339748Y-97430143D01*
X115160143Y-97609748D01*
X115146000Y-97595605D01*
X115131858Y-97609748D01*
X114999000Y-97476890D01*
X114999000Y-97355110D01*
X115131858Y-97222253D01*
X115146000Y-97236395D01*
X115160143Y-97222253D01*
X115339748Y-97401858D01*
X115339748Y-97401858D01*
G37*
X115339748Y-97401858D02*
X115325605Y-97416000D01*
X115339748Y-97430143D01*
X115160143Y-97609748D01*
X115146000Y-97595605D01*
X115131858Y-97609748D01*
X114999000Y-97476890D01*
X114999000Y-97355110D01*
X115131858Y-97222253D01*
X115146000Y-97236395D01*
X115160143Y-97222253D01*
X115339748Y-97401858D01*
G36*
X98193000Y-97355110D02*
X98193000Y-97476890D01*
X98060143Y-97609748D01*
X98046000Y-97595605D01*
X98031858Y-97609748D01*
X97852253Y-97430143D01*
X97866395Y-97416000D01*
X97852253Y-97401858D01*
X98031858Y-97222253D01*
X98046000Y-97236395D01*
X98060143Y-97222253D01*
X98193000Y-97355110D01*
X98193000Y-97355110D01*
G37*
X98193000Y-97355110D02*
X98193000Y-97476890D01*
X98060143Y-97609748D01*
X98046000Y-97595605D01*
X98031858Y-97609748D01*
X97852253Y-97430143D01*
X97866395Y-97416000D01*
X97852253Y-97401858D01*
X98031858Y-97222253D01*
X98046000Y-97236395D01*
X98060143Y-97222253D01*
X98193000Y-97355110D01*
G36*
X77873000Y-97355110D02*
X77873000Y-97476890D01*
X77740143Y-97609748D01*
X77726000Y-97595605D01*
X77711858Y-97609748D01*
X77532253Y-97430143D01*
X77546395Y-97416000D01*
X77532253Y-97401858D01*
X77711858Y-97222253D01*
X77726000Y-97236395D01*
X77740143Y-97222253D01*
X77873000Y-97355110D01*
X77873000Y-97355110D01*
G37*
X77873000Y-97355110D02*
X77873000Y-97476890D01*
X77740143Y-97609748D01*
X77726000Y-97595605D01*
X77711858Y-97609748D01*
X77532253Y-97430143D01*
X77546395Y-97416000D01*
X77532253Y-97401858D01*
X77711858Y-97222253D01*
X77726000Y-97236395D01*
X77740143Y-97222253D01*
X77873000Y-97355110D01*
G36*
X105018998Y-92000000D02*
X104981250Y-92000000D01*
X105018998Y-91962252D01*
X105018998Y-92000000D01*
X105018998Y-92000000D01*
G37*
X105018998Y-92000000D02*
X104981250Y-92000000D01*
X105018998Y-91962252D01*
X105018998Y-92000000D01*
G36*
X107058998Y-92000000D02*
X107021250Y-92000000D01*
X107058998Y-91962252D01*
X107058998Y-92000000D01*
X107058998Y-92000000D01*
G37*
X107058998Y-92000000D02*
X107021250Y-92000000D01*
X107058998Y-91962252D01*
X107058998Y-92000000D01*
G36*
X102978998Y-92000000D02*
X102941250Y-92000000D01*
X102978998Y-91962252D01*
X102978998Y-92000000D01*
X102978998Y-92000000D01*
G37*
X102978998Y-92000000D02*
X102941250Y-92000000D01*
X102978998Y-91962252D01*
X102978998Y-92000000D01*
G36*
X110118998Y-92000000D02*
X110081250Y-92000000D01*
X110118998Y-91962252D01*
X110118998Y-92000000D01*
X110118998Y-92000000D01*
G37*
X110118998Y-92000000D02*
X110081250Y-92000000D01*
X110118998Y-91962252D01*
X110118998Y-92000000D01*
G36*
X110410750Y-92000000D02*
X110373002Y-92000000D01*
X110373002Y-91962252D01*
X110410750Y-92000000D01*
X110410750Y-92000000D01*
G37*
X110410750Y-92000000D02*
X110373002Y-92000000D01*
X110373002Y-91962252D01*
X110410750Y-92000000D01*
G36*
X103270750Y-92000000D02*
X103233002Y-92000000D01*
X103233002Y-91962252D01*
X103270750Y-92000000D01*
X103270750Y-92000000D01*
G37*
X103270750Y-92000000D02*
X103233002Y-92000000D01*
X103233002Y-91962252D01*
X103270750Y-92000000D01*
G36*
X107350750Y-92000000D02*
X107313002Y-92000000D01*
X107313002Y-91962252D01*
X107350750Y-92000000D01*
X107350750Y-92000000D01*
G37*
X107350750Y-92000000D02*
X107313002Y-92000000D01*
X107313002Y-91962252D01*
X107350750Y-92000000D01*
G36*
X105310750Y-92000000D02*
X105273002Y-92000000D01*
X105273002Y-91962252D01*
X105310750Y-92000000D01*
X105310750Y-92000000D01*
G37*
X105310750Y-92000000D02*
X105273002Y-92000000D01*
X105273002Y-91962252D01*
X105310750Y-92000000D01*
G36*
X87030750Y-92000000D02*
X86993002Y-92000000D01*
X86993002Y-91962252D01*
X87030750Y-92000000D01*
X87030750Y-92000000D01*
G37*
X87030750Y-92000000D02*
X86993002Y-92000000D01*
X86993002Y-91962252D01*
X87030750Y-92000000D01*
G36*
X84990750Y-92000000D02*
X84953002Y-92000000D01*
X84953002Y-91962252D01*
X84990750Y-92000000D01*
X84990750Y-92000000D01*
G37*
X84990750Y-92000000D02*
X84953002Y-92000000D01*
X84953002Y-91962252D01*
X84990750Y-92000000D01*
G36*
X86738998Y-92000000D02*
X86701250Y-92000000D01*
X86738998Y-91962252D01*
X86738998Y-92000000D01*
X86738998Y-92000000D01*
G37*
X86738998Y-92000000D02*
X86701250Y-92000000D01*
X86738998Y-91962252D01*
X86738998Y-92000000D01*
G36*
X111292302Y-91573830D02*
X111718472Y-92000000D01*
X110930025Y-92000000D01*
X111084327Y-91845699D01*
X111181000Y-91612310D01*
X111181000Y-91305123D01*
X111292302Y-91573830D01*
X111292302Y-91573830D01*
G37*
X111292302Y-91573830D02*
X111718472Y-92000000D01*
X110930025Y-92000000D01*
X111084327Y-91845699D01*
X111181000Y-91612310D01*
X111181000Y-91305123D01*
X111292302Y-91573830D01*
G36*
X84698998Y-92000000D02*
X84661250Y-92000000D01*
X84698998Y-91962252D01*
X84698998Y-92000000D01*
X84698998Y-92000000D01*
G37*
X84698998Y-92000000D02*
X84661250Y-92000000D01*
X84698998Y-91962252D01*
X84698998Y-92000000D01*
G36*
X107015000Y-87815983D02*
X107157345Y-88159635D01*
X107420365Y-88422655D01*
X107446001Y-88433274D01*
X107446001Y-88776749D01*
X107313000Y-88909750D01*
X107313000Y-89130517D01*
X107307843Y-89138235D01*
X107258560Y-89386000D01*
X107258560Y-90583000D01*
X107113440Y-90583000D01*
X107113440Y-89386000D01*
X107064157Y-89138235D01*
X107059000Y-89130517D01*
X107059000Y-88909750D01*
X106926000Y-88776750D01*
X106926000Y-87946351D01*
X106980000Y-87815983D01*
X106980000Y-87764999D01*
X107015000Y-87764999D01*
X107015000Y-87815983D01*
X107015000Y-87815983D01*
G37*
X107015000Y-87815983D02*
X107157345Y-88159635D01*
X107420365Y-88422655D01*
X107446001Y-88433274D01*
X107446001Y-88776749D01*
X107313000Y-88909750D01*
X107313000Y-89130517D01*
X107307843Y-89138235D01*
X107258560Y-89386000D01*
X107258560Y-90583000D01*
X107113440Y-90583000D01*
X107113440Y-89386000D01*
X107064157Y-89138235D01*
X107059000Y-89130517D01*
X107059000Y-88909750D01*
X106926000Y-88776750D01*
X106926000Y-87946351D01*
X106980000Y-87815983D01*
X106980000Y-87764999D01*
X107015000Y-87764999D01*
X107015000Y-87815983D01*
G36*
X102968765Y-90436000D02*
X102998005Y-90583000D01*
X102979000Y-90583000D01*
X102979000Y-90563000D01*
X102959000Y-90563000D01*
X102959000Y-90309000D01*
X102979000Y-90309000D01*
X102979000Y-90289000D01*
X102998005Y-90289000D01*
X102968765Y-90436000D01*
X102968765Y-90436000D01*
G37*
X102968765Y-90436000D02*
X102998005Y-90583000D01*
X102979000Y-90583000D01*
X102979000Y-90563000D01*
X102959000Y-90563000D01*
X102959000Y-90309000D01*
X102979000Y-90309000D01*
X102979000Y-90289000D01*
X102998005Y-90289000D01*
X102968765Y-90436000D01*
G36*
X90053000Y-90309000D02*
X90073000Y-90309000D01*
X90073000Y-90563000D01*
X90053000Y-90563000D01*
X90053000Y-90583000D01*
X89853440Y-90583000D01*
X89853440Y-90289000D01*
X90053000Y-90289000D01*
X90053000Y-90309000D01*
X90053000Y-90309000D01*
G37*
X90053000Y-90309000D02*
X90073000Y-90309000D01*
X90073000Y-90563000D01*
X90053000Y-90563000D01*
X90053000Y-90583000D01*
X89853440Y-90583000D01*
X89853440Y-90289000D01*
X90053000Y-90289000D01*
X90053000Y-90309000D01*
G36*
X86938560Y-90583000D02*
X86793440Y-90583000D01*
X86793440Y-90289000D01*
X86938560Y-90289000D01*
X86938560Y-90583000D01*
X86938560Y-90583000D01*
G37*
X86938560Y-90583000D02*
X86793440Y-90583000D01*
X86793440Y-90289000D01*
X86938560Y-90289000D01*
X86938560Y-90583000D01*
G36*
X82671000Y-90547782D02*
X82678005Y-90583000D01*
X82659000Y-90583000D01*
X82659000Y-90563000D01*
X82639000Y-90563000D01*
X82639000Y-90309000D01*
X82659000Y-90309000D01*
X82659000Y-90289000D01*
X82671000Y-90289000D01*
X82671000Y-90547782D01*
X82671000Y-90547782D01*
G37*
X82671000Y-90547782D02*
X82678005Y-90583000D01*
X82659000Y-90583000D01*
X82659000Y-90563000D01*
X82639000Y-90563000D01*
X82639000Y-90309000D01*
X82659000Y-90309000D01*
X82659000Y-90289000D01*
X82671000Y-90289000D01*
X82671000Y-90547782D01*
G36*
X148402200Y-90552998D02*
X137855800Y-90552998D01*
X135460552Y-88157750D01*
X138309000Y-88157750D01*
X138309000Y-88398309D01*
X138405673Y-88631698D01*
X138584301Y-88810327D01*
X138817690Y-88907000D01*
X139033250Y-88907000D01*
X139192000Y-88748250D01*
X139192000Y-87999000D01*
X139446000Y-87999000D01*
X139446000Y-88748250D01*
X139604750Y-88907000D01*
X139820310Y-88907000D01*
X140053699Y-88810327D01*
X140232327Y-88631698D01*
X140329000Y-88398309D01*
X140329000Y-88157750D01*
X140468000Y-88157750D01*
X140468000Y-88398309D01*
X140564673Y-88631698D01*
X140743301Y-88810327D01*
X140976690Y-88907000D01*
X141192250Y-88907000D01*
X141351000Y-88748250D01*
X141351000Y-87999000D01*
X141605000Y-87999000D01*
X141605000Y-88748250D01*
X141763750Y-88907000D01*
X141979310Y-88907000D01*
X142212699Y-88810327D01*
X142391327Y-88631698D01*
X142488000Y-88398309D01*
X142488000Y-88157750D01*
X142329250Y-87999000D01*
X141605000Y-87999000D01*
X141351000Y-87999000D01*
X140626750Y-87999000D01*
X140468000Y-88157750D01*
X140329000Y-88157750D01*
X140170250Y-87999000D01*
X139446000Y-87999000D01*
X139192000Y-87999000D01*
X138467750Y-87999000D01*
X138309000Y-88157750D01*
X135460552Y-88157750D01*
X135411951Y-88109150D01*
X135567765Y-88078157D01*
X135777809Y-87937809D01*
X135909982Y-87740000D01*
X138462750Y-87740000D01*
X138467750Y-87745000D01*
X138661290Y-87745000D01*
X138711000Y-87754888D01*
X138760710Y-87745000D01*
X139192000Y-87745000D01*
X139192000Y-87725000D01*
X139446000Y-87725000D01*
X139446000Y-87745000D01*
X140170250Y-87745000D01*
X140329000Y-87586250D01*
X140329000Y-87507000D01*
X140468000Y-87507000D01*
X140468000Y-87586250D01*
X140626750Y-87745000D01*
X141351000Y-87745000D01*
X141351000Y-87725000D01*
X141605000Y-87725000D01*
X141605000Y-87745000D01*
X142329250Y-87745000D01*
X142488000Y-87586250D01*
X142488000Y-87345691D01*
X142391327Y-87112302D01*
X142390127Y-87111102D01*
X142451157Y-87019765D01*
X142468505Y-86932549D01*
X142547146Y-86814855D01*
X142635235Y-86372000D01*
X142547146Y-85929145D01*
X142468505Y-85811451D01*
X142464238Y-85790000D01*
X153165197Y-85790000D01*
X148402200Y-90552998D01*
X148402200Y-90552998D01*
G37*
X148402200Y-90552998D02*
X137855800Y-90552998D01*
X135460552Y-88157750D01*
X138309000Y-88157750D01*
X138309000Y-88398309D01*
X138405673Y-88631698D01*
X138584301Y-88810327D01*
X138817690Y-88907000D01*
X139033250Y-88907000D01*
X139192000Y-88748250D01*
X139192000Y-87999000D01*
X139446000Y-87999000D01*
X139446000Y-88748250D01*
X139604750Y-88907000D01*
X139820310Y-88907000D01*
X140053699Y-88810327D01*
X140232327Y-88631698D01*
X140329000Y-88398309D01*
X140329000Y-88157750D01*
X140468000Y-88157750D01*
X140468000Y-88398309D01*
X140564673Y-88631698D01*
X140743301Y-88810327D01*
X140976690Y-88907000D01*
X141192250Y-88907000D01*
X141351000Y-88748250D01*
X141351000Y-87999000D01*
X141605000Y-87999000D01*
X141605000Y-88748250D01*
X141763750Y-88907000D01*
X141979310Y-88907000D01*
X142212699Y-88810327D01*
X142391327Y-88631698D01*
X142488000Y-88398309D01*
X142488000Y-88157750D01*
X142329250Y-87999000D01*
X141605000Y-87999000D01*
X141351000Y-87999000D01*
X140626750Y-87999000D01*
X140468000Y-88157750D01*
X140329000Y-88157750D01*
X140170250Y-87999000D01*
X139446000Y-87999000D01*
X139192000Y-87999000D01*
X138467750Y-87999000D01*
X138309000Y-88157750D01*
X135460552Y-88157750D01*
X135411951Y-88109150D01*
X135567765Y-88078157D01*
X135777809Y-87937809D01*
X135909982Y-87740000D01*
X138462750Y-87740000D01*
X138467750Y-87745000D01*
X138661290Y-87745000D01*
X138711000Y-87754888D01*
X138760710Y-87745000D01*
X139192000Y-87745000D01*
X139192000Y-87725000D01*
X139446000Y-87725000D01*
X139446000Y-87745000D01*
X140170250Y-87745000D01*
X140329000Y-87586250D01*
X140329000Y-87507000D01*
X140468000Y-87507000D01*
X140468000Y-87586250D01*
X140626750Y-87745000D01*
X141351000Y-87745000D01*
X141351000Y-87725000D01*
X141605000Y-87725000D01*
X141605000Y-87745000D01*
X142329250Y-87745000D01*
X142488000Y-87586250D01*
X142488000Y-87345691D01*
X142391327Y-87112302D01*
X142390127Y-87111102D01*
X142451157Y-87019765D01*
X142468505Y-86932549D01*
X142547146Y-86814855D01*
X142635235Y-86372000D01*
X142547146Y-85929145D01*
X142468505Y-85811451D01*
X142464238Y-85790000D01*
X153165197Y-85790000D01*
X148402200Y-90552998D01*
G36*
X137592639Y-76757560D02*
X136645000Y-76757560D01*
X136397235Y-76806843D01*
X136187191Y-76947191D01*
X136046843Y-77157235D01*
X135997560Y-77405000D01*
X135997560Y-77655000D01*
X136020614Y-77770902D01*
X135803463Y-77814096D01*
X135552071Y-77982071D01*
X135509671Y-78045527D01*
X134305199Y-79250000D01*
X129714866Y-79250000D01*
X129598983Y-79202000D01*
X129227017Y-79202000D01*
X128883365Y-79344345D01*
X128620345Y-79607365D01*
X128478000Y-79951017D01*
X128478000Y-80322983D01*
X128620345Y-80666635D01*
X128883365Y-80929655D01*
X129227017Y-81072000D01*
X129598983Y-81072000D01*
X129942635Y-80929655D01*
X130102290Y-80770000D01*
X134545153Y-80770000D01*
X134620000Y-80784888D01*
X134694847Y-80770000D01*
X134694852Y-80770000D01*
X134916537Y-80725904D01*
X135167929Y-80557929D01*
X135210331Y-80494470D01*
X136006227Y-79698574D01*
X136022424Y-79780000D01*
X135997560Y-79905000D01*
X135997560Y-80155000D01*
X136022424Y-80280000D01*
X135997560Y-80405000D01*
X135997560Y-80655000D01*
X136022424Y-80780000D01*
X135997560Y-80905000D01*
X135997560Y-81155000D01*
X136022424Y-81280000D01*
X135997560Y-81405000D01*
X135997560Y-81655000D01*
X136022424Y-81780000D01*
X135997560Y-81905000D01*
X135997560Y-82155000D01*
X136022424Y-82280000D01*
X135997560Y-82405000D01*
X135997560Y-82655000D01*
X136022424Y-82780000D01*
X135997560Y-82905000D01*
X135997560Y-83155000D01*
X136022424Y-83280000D01*
X135997560Y-83405000D01*
X135997560Y-83655000D01*
X136022424Y-83780000D01*
X135997560Y-83905000D01*
X135997560Y-84155000D01*
X136022424Y-84280000D01*
X135997560Y-84405000D01*
X135997560Y-84655000D01*
X136022424Y-84780000D01*
X135997560Y-84905000D01*
X135997560Y-85155000D01*
X136046843Y-85402765D01*
X136187191Y-85612809D01*
X136397235Y-85753157D01*
X136645000Y-85802440D01*
X136887356Y-85802440D01*
X136725854Y-86044145D01*
X136690874Y-86220000D01*
X135955000Y-86220000D01*
X135955000Y-85866848D01*
X135969888Y-85792000D01*
X135955000Y-85717152D01*
X135955000Y-85717148D01*
X135910904Y-85495463D01*
X135742929Y-85244071D01*
X135679473Y-85201671D01*
X134793000Y-84315199D01*
X134793000Y-84269017D01*
X134650655Y-83925365D01*
X134387635Y-83662345D01*
X134043983Y-83520000D01*
X133672017Y-83520000D01*
X133328365Y-83662345D01*
X133065345Y-83925365D01*
X132923000Y-84269017D01*
X132923000Y-84640983D01*
X133065345Y-84984635D01*
X133328365Y-85247655D01*
X133672017Y-85390000D01*
X133718199Y-85390000D01*
X134160758Y-85832560D01*
X134070000Y-85832560D01*
X133945000Y-85857424D01*
X133820000Y-85832560D01*
X133570000Y-85832560D01*
X133445000Y-85857424D01*
X133320000Y-85832560D01*
X133070000Y-85832560D01*
X132945000Y-85857424D01*
X132820000Y-85832560D01*
X132570000Y-85832560D01*
X132445000Y-85857424D01*
X132320000Y-85832560D01*
X132070000Y-85832560D01*
X131945000Y-85857424D01*
X131820000Y-85832560D01*
X131570000Y-85832560D01*
X131445000Y-85857424D01*
X131320000Y-85832560D01*
X131070000Y-85832560D01*
X130945000Y-85857424D01*
X130820000Y-85832560D01*
X130570000Y-85832560D01*
X130445000Y-85857424D01*
X130320000Y-85832560D01*
X130070000Y-85832560D01*
X129945000Y-85857424D01*
X129820000Y-85832560D01*
X129570000Y-85832560D01*
X129445000Y-85857424D01*
X129320000Y-85832560D01*
X129070000Y-85832560D01*
X128945000Y-85857424D01*
X128820000Y-85832560D01*
X128570000Y-85832560D01*
X128445000Y-85857424D01*
X128366447Y-85841799D01*
X128443000Y-85656983D01*
X128443000Y-85285017D01*
X128300655Y-84941365D01*
X128037635Y-84678345D01*
X127693983Y-84536000D01*
X127650963Y-84536000D01*
X127614929Y-84482071D01*
X127363537Y-84314096D01*
X127242399Y-84290000D01*
X129951199Y-84290000D01*
X130256000Y-84594802D01*
X130256000Y-84640983D01*
X130398345Y-84984635D01*
X130661365Y-85247655D01*
X131005017Y-85390000D01*
X131376983Y-85390000D01*
X131720635Y-85247655D01*
X131983655Y-84984635D01*
X132126000Y-84640983D01*
X132126000Y-84269017D01*
X131983655Y-83925365D01*
X131720635Y-83662345D01*
X131376983Y-83520000D01*
X131330802Y-83520000D01*
X130856331Y-83045530D01*
X130813929Y-82982071D01*
X130562537Y-82814096D01*
X130340852Y-82770000D01*
X130340847Y-82770000D01*
X130266000Y-82755112D01*
X130191153Y-82770000D01*
X126876400Y-82770000D01*
X126871783Y-82758852D01*
X126892440Y-82655000D01*
X126892440Y-82405000D01*
X126867576Y-82280000D01*
X126892440Y-82155000D01*
X126892440Y-81905000D01*
X126877411Y-81829443D01*
X127195017Y-81960999D01*
X127566983Y-81960999D01*
X127910635Y-81818654D01*
X128173655Y-81555634D01*
X128316000Y-81211982D01*
X128316000Y-80840016D01*
X128173655Y-80496364D01*
X127910635Y-80233344D01*
X127566983Y-80090999D01*
X127520801Y-80090999D01*
X127475332Y-80045530D01*
X127432930Y-79982071D01*
X127181538Y-79814096D01*
X126959853Y-79770000D01*
X126959848Y-79770000D01*
X126885001Y-79755112D01*
X126872013Y-79757696D01*
X126892440Y-79655000D01*
X126892440Y-79405000D01*
X126867576Y-79280000D01*
X126892440Y-79155000D01*
X126892440Y-78905000D01*
X126867576Y-78780000D01*
X126892440Y-78655000D01*
X126892440Y-78405000D01*
X126867576Y-78280000D01*
X126892440Y-78155000D01*
X126892440Y-77905000D01*
X126867576Y-77780000D01*
X126892440Y-77655000D01*
X126892440Y-77405000D01*
X126843157Y-77157235D01*
X126773150Y-77052463D01*
X126881537Y-77030904D01*
X127132929Y-76862929D01*
X127175331Y-76799470D01*
X127306895Y-76667907D01*
X127322235Y-76678157D01*
X127570000Y-76727440D01*
X127820000Y-76727440D01*
X127923852Y-76706783D01*
X127943690Y-76715000D01*
X127973750Y-76715000D01*
X127996397Y-76692353D01*
X128067765Y-76678157D01*
X128195000Y-76593141D01*
X128322235Y-76678157D01*
X128393603Y-76692353D01*
X128416250Y-76715000D01*
X128446310Y-76715000D01*
X128466148Y-76706783D01*
X128570000Y-76727440D01*
X128820000Y-76727440D01*
X128945000Y-76702576D01*
X129070000Y-76727440D01*
X129320000Y-76727440D01*
X129423852Y-76706783D01*
X129443690Y-76715000D01*
X129473750Y-76715000D01*
X129496397Y-76692353D01*
X129567765Y-76678157D01*
X129695000Y-76593141D01*
X129822235Y-76678157D01*
X129893603Y-76692353D01*
X129916250Y-76715000D01*
X129946310Y-76715000D01*
X129966148Y-76706783D01*
X130070000Y-76727440D01*
X130320000Y-76727440D01*
X130445000Y-76702576D01*
X130570000Y-76727440D01*
X130820000Y-76727440D01*
X130945000Y-76702576D01*
X131070000Y-76727440D01*
X131320000Y-76727440D01*
X131445000Y-76702576D01*
X131570000Y-76727440D01*
X131820000Y-76727440D01*
X131945000Y-76702576D01*
X132070000Y-76727440D01*
X132320000Y-76727440D01*
X132445000Y-76702576D01*
X132570000Y-76727440D01*
X132820000Y-76727440D01*
X132945000Y-76702576D01*
X133070000Y-76727440D01*
X133320000Y-76727440D01*
X133445000Y-76702576D01*
X133570000Y-76727440D01*
X133722759Y-76727440D01*
X133232199Y-77218000D01*
X130102288Y-77218000D01*
X130069633Y-77185345D01*
X129725981Y-77043000D01*
X129354015Y-77043000D01*
X129010363Y-77185345D01*
X128747343Y-77448365D01*
X128604998Y-77792017D01*
X128604998Y-78163983D01*
X128747343Y-78507635D01*
X129010363Y-78770655D01*
X129354015Y-78913000D01*
X129725981Y-78913000D01*
X130069633Y-78770655D01*
X130102288Y-78738000D01*
X133472153Y-78738000D01*
X133547000Y-78752888D01*
X133621847Y-78738000D01*
X133621852Y-78738000D01*
X133843537Y-78693904D01*
X134094929Y-78525929D01*
X134137331Y-78462470D01*
X135679473Y-76920329D01*
X135742929Y-76877929D01*
X135910904Y-76626537D01*
X135955000Y-76404852D01*
X135955000Y-76404847D01*
X135967899Y-76340000D01*
X138010199Y-76340000D01*
X137592639Y-76757560D01*
X137592639Y-76757560D01*
G37*
X137592639Y-76757560D02*
X136645000Y-76757560D01*
X136397235Y-76806843D01*
X136187191Y-76947191D01*
X136046843Y-77157235D01*
X135997560Y-77405000D01*
X135997560Y-77655000D01*
X136020614Y-77770902D01*
X135803463Y-77814096D01*
X135552071Y-77982071D01*
X135509671Y-78045527D01*
X134305199Y-79250000D01*
X129714866Y-79250000D01*
X129598983Y-79202000D01*
X129227017Y-79202000D01*
X128883365Y-79344345D01*
X128620345Y-79607365D01*
X128478000Y-79951017D01*
X128478000Y-80322983D01*
X128620345Y-80666635D01*
X128883365Y-80929655D01*
X129227017Y-81072000D01*
X129598983Y-81072000D01*
X129942635Y-80929655D01*
X130102290Y-80770000D01*
X134545153Y-80770000D01*
X134620000Y-80784888D01*
X134694847Y-80770000D01*
X134694852Y-80770000D01*
X134916537Y-80725904D01*
X135167929Y-80557929D01*
X135210331Y-80494470D01*
X136006227Y-79698574D01*
X136022424Y-79780000D01*
X135997560Y-79905000D01*
X135997560Y-80155000D01*
X136022424Y-80280000D01*
X135997560Y-80405000D01*
X135997560Y-80655000D01*
X136022424Y-80780000D01*
X135997560Y-80905000D01*
X135997560Y-81155000D01*
X136022424Y-81280000D01*
X135997560Y-81405000D01*
X135997560Y-81655000D01*
X136022424Y-81780000D01*
X135997560Y-81905000D01*
X135997560Y-82155000D01*
X136022424Y-82280000D01*
X135997560Y-82405000D01*
X135997560Y-82655000D01*
X136022424Y-82780000D01*
X135997560Y-82905000D01*
X135997560Y-83155000D01*
X136022424Y-83280000D01*
X135997560Y-83405000D01*
X135997560Y-83655000D01*
X136022424Y-83780000D01*
X135997560Y-83905000D01*
X135997560Y-84155000D01*
X136022424Y-84280000D01*
X135997560Y-84405000D01*
X135997560Y-84655000D01*
X136022424Y-84780000D01*
X135997560Y-84905000D01*
X135997560Y-85155000D01*
X136046843Y-85402765D01*
X136187191Y-85612809D01*
X136397235Y-85753157D01*
X136645000Y-85802440D01*
X136887356Y-85802440D01*
X136725854Y-86044145D01*
X136690874Y-86220000D01*
X135955000Y-86220000D01*
X135955000Y-85866848D01*
X135969888Y-85792000D01*
X135955000Y-85717152D01*
X135955000Y-85717148D01*
X135910904Y-85495463D01*
X135742929Y-85244071D01*
X135679473Y-85201671D01*
X134793000Y-84315199D01*
X134793000Y-84269017D01*
X134650655Y-83925365D01*
X134387635Y-83662345D01*
X134043983Y-83520000D01*
X133672017Y-83520000D01*
X133328365Y-83662345D01*
X133065345Y-83925365D01*
X132923000Y-84269017D01*
X132923000Y-84640983D01*
X133065345Y-84984635D01*
X133328365Y-85247655D01*
X133672017Y-85390000D01*
X133718199Y-85390000D01*
X134160758Y-85832560D01*
X134070000Y-85832560D01*
X133945000Y-85857424D01*
X133820000Y-85832560D01*
X133570000Y-85832560D01*
X133445000Y-85857424D01*
X133320000Y-85832560D01*
X133070000Y-85832560D01*
X132945000Y-85857424D01*
X132820000Y-85832560D01*
X132570000Y-85832560D01*
X132445000Y-85857424D01*
X132320000Y-85832560D01*
X132070000Y-85832560D01*
X131945000Y-85857424D01*
X131820000Y-85832560D01*
X131570000Y-85832560D01*
X131445000Y-85857424D01*
X131320000Y-85832560D01*
X131070000Y-85832560D01*
X130945000Y-85857424D01*
X130820000Y-85832560D01*
X130570000Y-85832560D01*
X130445000Y-85857424D01*
X130320000Y-85832560D01*
X130070000Y-85832560D01*
X129945000Y-85857424D01*
X129820000Y-85832560D01*
X129570000Y-85832560D01*
X129445000Y-85857424D01*
X129320000Y-85832560D01*
X129070000Y-85832560D01*
X128945000Y-85857424D01*
X128820000Y-85832560D01*
X128570000Y-85832560D01*
X128445000Y-85857424D01*
X128366447Y-85841799D01*
X128443000Y-85656983D01*
X128443000Y-85285017D01*
X128300655Y-84941365D01*
X128037635Y-84678345D01*
X127693983Y-84536000D01*
X127650963Y-84536000D01*
X127614929Y-84482071D01*
X127363537Y-84314096D01*
X127242399Y-84290000D01*
X129951199Y-84290000D01*
X130256000Y-84594802D01*
X130256000Y-84640983D01*
X130398345Y-84984635D01*
X130661365Y-85247655D01*
X131005017Y-85390000D01*
X131376983Y-85390000D01*
X131720635Y-85247655D01*
X131983655Y-84984635D01*
X132126000Y-84640983D01*
X132126000Y-84269017D01*
X131983655Y-83925365D01*
X131720635Y-83662345D01*
X131376983Y-83520000D01*
X131330802Y-83520000D01*
X130856331Y-83045530D01*
X130813929Y-82982071D01*
X130562537Y-82814096D01*
X130340852Y-82770000D01*
X130340847Y-82770000D01*
X130266000Y-82755112D01*
X130191153Y-82770000D01*
X126876400Y-82770000D01*
X126871783Y-82758852D01*
X126892440Y-82655000D01*
X126892440Y-82405000D01*
X126867576Y-82280000D01*
X126892440Y-82155000D01*
X126892440Y-81905000D01*
X126877411Y-81829443D01*
X127195017Y-81960999D01*
X127566983Y-81960999D01*
X127910635Y-81818654D01*
X128173655Y-81555634D01*
X128316000Y-81211982D01*
X128316000Y-80840016D01*
X128173655Y-80496364D01*
X127910635Y-80233344D01*
X127566983Y-80090999D01*
X127520801Y-80090999D01*
X127475332Y-80045530D01*
X127432930Y-79982071D01*
X127181538Y-79814096D01*
X126959853Y-79770000D01*
X126959848Y-79770000D01*
X126885001Y-79755112D01*
X126872013Y-79757696D01*
X126892440Y-79655000D01*
X126892440Y-79405000D01*
X126867576Y-79280000D01*
X126892440Y-79155000D01*
X126892440Y-78905000D01*
X126867576Y-78780000D01*
X126892440Y-78655000D01*
X126892440Y-78405000D01*
X126867576Y-78280000D01*
X126892440Y-78155000D01*
X126892440Y-77905000D01*
X126867576Y-77780000D01*
X126892440Y-77655000D01*
X126892440Y-77405000D01*
X126843157Y-77157235D01*
X126773150Y-77052463D01*
X126881537Y-77030904D01*
X127132929Y-76862929D01*
X127175331Y-76799470D01*
X127306895Y-76667907D01*
X127322235Y-76678157D01*
X127570000Y-76727440D01*
X127820000Y-76727440D01*
X127923852Y-76706783D01*
X127943690Y-76715000D01*
X127973750Y-76715000D01*
X127996397Y-76692353D01*
X128067765Y-76678157D01*
X128195000Y-76593141D01*
X128322235Y-76678157D01*
X128393603Y-76692353D01*
X128416250Y-76715000D01*
X128446310Y-76715000D01*
X128466148Y-76706783D01*
X128570000Y-76727440D01*
X128820000Y-76727440D01*
X128945000Y-76702576D01*
X129070000Y-76727440D01*
X129320000Y-76727440D01*
X129423852Y-76706783D01*
X129443690Y-76715000D01*
X129473750Y-76715000D01*
X129496397Y-76692353D01*
X129567765Y-76678157D01*
X129695000Y-76593141D01*
X129822235Y-76678157D01*
X129893603Y-76692353D01*
X129916250Y-76715000D01*
X129946310Y-76715000D01*
X129966148Y-76706783D01*
X130070000Y-76727440D01*
X130320000Y-76727440D01*
X130445000Y-76702576D01*
X130570000Y-76727440D01*
X130820000Y-76727440D01*
X130945000Y-76702576D01*
X131070000Y-76727440D01*
X131320000Y-76727440D01*
X131445000Y-76702576D01*
X131570000Y-76727440D01*
X131820000Y-76727440D01*
X131945000Y-76702576D01*
X132070000Y-76727440D01*
X132320000Y-76727440D01*
X132445000Y-76702576D01*
X132570000Y-76727440D01*
X132820000Y-76727440D01*
X132945000Y-76702576D01*
X133070000Y-76727440D01*
X133320000Y-76727440D01*
X133445000Y-76702576D01*
X133570000Y-76727440D01*
X133722759Y-76727440D01*
X133232199Y-77218000D01*
X130102288Y-77218000D01*
X130069633Y-77185345D01*
X129725981Y-77043000D01*
X129354015Y-77043000D01*
X129010363Y-77185345D01*
X128747343Y-77448365D01*
X128604998Y-77792017D01*
X128604998Y-78163983D01*
X128747343Y-78507635D01*
X129010363Y-78770655D01*
X129354015Y-78913000D01*
X129725981Y-78913000D01*
X130069633Y-78770655D01*
X130102288Y-78738000D01*
X133472153Y-78738000D01*
X133547000Y-78752888D01*
X133621847Y-78738000D01*
X133621852Y-78738000D01*
X133843537Y-78693904D01*
X134094929Y-78525929D01*
X134137331Y-78462470D01*
X135679473Y-76920329D01*
X135742929Y-76877929D01*
X135910904Y-76626537D01*
X135955000Y-76404852D01*
X135955000Y-76404847D01*
X135967899Y-76340000D01*
X138010199Y-76340000D01*
X137592639Y-76757560D01*
G36*
X120306750Y-83324000D02*
X121031000Y-83324000D01*
X121031000Y-83304000D01*
X121285000Y-83304000D01*
X121285000Y-83324000D01*
X121305000Y-83324000D01*
X121305000Y-83578000D01*
X121285000Y-83578000D01*
X121285000Y-83598000D01*
X121031000Y-83598000D01*
X121031000Y-83578000D01*
X120306750Y-83578000D01*
X120148000Y-83736750D01*
X120148000Y-83977309D01*
X120244673Y-84210698D01*
X120245873Y-84211898D01*
X120200942Y-84279142D01*
X119211800Y-83290000D01*
X120272750Y-83290000D01*
X120306750Y-83324000D01*
X120306750Y-83324000D01*
G37*
X120306750Y-83324000D02*
X121031000Y-83324000D01*
X121031000Y-83304000D01*
X121285000Y-83304000D01*
X121285000Y-83324000D01*
X121305000Y-83324000D01*
X121305000Y-83578000D01*
X121285000Y-83578000D01*
X121285000Y-83598000D01*
X121031000Y-83598000D01*
X121031000Y-83578000D01*
X120306750Y-83578000D01*
X120148000Y-83736750D01*
X120148000Y-83977309D01*
X120244673Y-84210698D01*
X120245873Y-84211898D01*
X120200942Y-84279142D01*
X119211800Y-83290000D01*
X120272750Y-83290000D01*
X120306750Y-83324000D01*
G36*
X154865000Y-60411590D02*
X154716309Y-60350000D01*
X154125750Y-60350000D01*
X153967000Y-60508750D01*
X153967000Y-61887234D01*
X153713000Y-61906520D01*
X153713000Y-60508750D01*
X153554250Y-60350000D01*
X152963691Y-60350000D01*
X152730302Y-60446673D01*
X152551673Y-60625301D01*
X152455000Y-60858690D01*
X152455000Y-62699250D01*
X152613750Y-62858000D01*
X152742234Y-62858000D01*
X152761520Y-63112000D01*
X152613750Y-63112000D01*
X152455000Y-63270750D01*
X152455000Y-65111310D01*
X152551673Y-65344699D01*
X152730302Y-65523327D01*
X152963691Y-65620000D01*
X153554250Y-65620000D01*
X153713000Y-65461250D01*
X153713000Y-64082766D01*
X153967000Y-64063480D01*
X153967000Y-65461250D01*
X154125750Y-65620000D01*
X154716309Y-65620000D01*
X154865001Y-65558410D01*
X154865001Y-67621069D01*
X154851091Y-67691000D01*
X154906195Y-67968028D01*
X155063119Y-68202881D01*
X155297972Y-68359805D01*
X155444517Y-68388955D01*
X155006302Y-68827170D01*
X154765000Y-69409724D01*
X154765000Y-70040276D01*
X155006302Y-70622830D01*
X155452170Y-71068698D01*
X156034724Y-71310000D01*
X156319869Y-71310000D01*
X155836392Y-71793477D01*
X155648854Y-72074146D01*
X155560765Y-72517000D01*
X155648854Y-72959854D01*
X155899712Y-73335288D01*
X156275146Y-73586146D01*
X156349302Y-73600897D01*
X152180199Y-77770000D01*
X139458801Y-77770000D01*
X145024473Y-72204329D01*
X145087929Y-72161929D01*
X145255904Y-71910537D01*
X145300000Y-71688852D01*
X145300000Y-71688848D01*
X145314888Y-71614001D01*
X145314118Y-71610132D01*
X145433000Y-71491250D01*
X145433000Y-71270483D01*
X145438157Y-71262765D01*
X145487440Y-71015000D01*
X145487440Y-69818000D01*
X145687000Y-69818000D01*
X145687000Y-69838000D01*
X145707000Y-69838000D01*
X145707000Y-70092000D01*
X145687000Y-70092000D01*
X145687000Y-71491250D01*
X145845750Y-71650000D01*
X145986309Y-71650000D01*
X146219698Y-71553327D01*
X146398327Y-71374699D01*
X146495000Y-71141310D01*
X146495000Y-70250750D01*
X146336252Y-70092002D01*
X146456426Y-70092002D01*
X146676302Y-70622830D01*
X147122170Y-71068698D01*
X147704724Y-71310000D01*
X148335276Y-71310000D01*
X148917830Y-71068698D01*
X149363698Y-70622830D01*
X149605000Y-70040276D01*
X149605000Y-69409724D01*
X149363698Y-68827170D01*
X148917830Y-68381302D01*
X148907489Y-68377019D01*
X148994028Y-68359805D01*
X149228881Y-68202881D01*
X149385805Y-67968028D01*
X149440909Y-67691000D01*
X149427000Y-67621074D01*
X149427000Y-65440025D01*
X149510302Y-65523327D01*
X149743691Y-65620000D01*
X150334250Y-65620000D01*
X150493000Y-65461250D01*
X150493000Y-64082766D01*
X150747000Y-64063480D01*
X150747000Y-65461250D01*
X150905750Y-65620000D01*
X151496309Y-65620000D01*
X151729698Y-65523327D01*
X151908327Y-65344699D01*
X152005000Y-65111310D01*
X152005000Y-63270750D01*
X151846250Y-63112000D01*
X151717766Y-63112000D01*
X151698480Y-62858000D01*
X151846250Y-62858000D01*
X152005000Y-62699250D01*
X152005000Y-60858690D01*
X151908327Y-60625301D01*
X151729698Y-60446673D01*
X151496309Y-60350000D01*
X150905750Y-60350000D01*
X150747000Y-60508750D01*
X150747000Y-61887234D01*
X150493000Y-61906520D01*
X150493000Y-60508750D01*
X150334250Y-60350000D01*
X149743691Y-60350000D01*
X149510302Y-60446673D01*
X149427000Y-60529975D01*
X149427000Y-60273000D01*
X154865000Y-60273000D01*
X154865000Y-60411590D01*
X154865000Y-60411590D01*
G37*
X154865000Y-60411590D02*
X154716309Y-60350000D01*
X154125750Y-60350000D01*
X153967000Y-60508750D01*
X153967000Y-61887234D01*
X153713000Y-61906520D01*
X153713000Y-60508750D01*
X153554250Y-60350000D01*
X152963691Y-60350000D01*
X152730302Y-60446673D01*
X152551673Y-60625301D01*
X152455000Y-60858690D01*
X152455000Y-62699250D01*
X152613750Y-62858000D01*
X152742234Y-62858000D01*
X152761520Y-63112000D01*
X152613750Y-63112000D01*
X152455000Y-63270750D01*
X152455000Y-65111310D01*
X152551673Y-65344699D01*
X152730302Y-65523327D01*
X152963691Y-65620000D01*
X153554250Y-65620000D01*
X153713000Y-65461250D01*
X153713000Y-64082766D01*
X153967000Y-64063480D01*
X153967000Y-65461250D01*
X154125750Y-65620000D01*
X154716309Y-65620000D01*
X154865001Y-65558410D01*
X154865001Y-67621069D01*
X154851091Y-67691000D01*
X154906195Y-67968028D01*
X155063119Y-68202881D01*
X155297972Y-68359805D01*
X155444517Y-68388955D01*
X155006302Y-68827170D01*
X154765000Y-69409724D01*
X154765000Y-70040276D01*
X155006302Y-70622830D01*
X155452170Y-71068698D01*
X156034724Y-71310000D01*
X156319869Y-71310000D01*
X155836392Y-71793477D01*
X155648854Y-72074146D01*
X155560765Y-72517000D01*
X155648854Y-72959854D01*
X155899712Y-73335288D01*
X156275146Y-73586146D01*
X156349302Y-73600897D01*
X152180199Y-77770000D01*
X139458801Y-77770000D01*
X145024473Y-72204329D01*
X145087929Y-72161929D01*
X145255904Y-71910537D01*
X145300000Y-71688852D01*
X145300000Y-71688848D01*
X145314888Y-71614001D01*
X145314118Y-71610132D01*
X145433000Y-71491250D01*
X145433000Y-71270483D01*
X145438157Y-71262765D01*
X145487440Y-71015000D01*
X145487440Y-69818000D01*
X145687000Y-69818000D01*
X145687000Y-69838000D01*
X145707000Y-69838000D01*
X145707000Y-70092000D01*
X145687000Y-70092000D01*
X145687000Y-71491250D01*
X145845750Y-71650000D01*
X145986309Y-71650000D01*
X146219698Y-71553327D01*
X146398327Y-71374699D01*
X146495000Y-71141310D01*
X146495000Y-70250750D01*
X146336252Y-70092002D01*
X146456426Y-70092002D01*
X146676302Y-70622830D01*
X147122170Y-71068698D01*
X147704724Y-71310000D01*
X148335276Y-71310000D01*
X148917830Y-71068698D01*
X149363698Y-70622830D01*
X149605000Y-70040276D01*
X149605000Y-69409724D01*
X149363698Y-68827170D01*
X148917830Y-68381302D01*
X148907489Y-68377019D01*
X148994028Y-68359805D01*
X149228881Y-68202881D01*
X149385805Y-67968028D01*
X149440909Y-67691000D01*
X149427000Y-67621074D01*
X149427000Y-65440025D01*
X149510302Y-65523327D01*
X149743691Y-65620000D01*
X150334250Y-65620000D01*
X150493000Y-65461250D01*
X150493000Y-64082766D01*
X150747000Y-64063480D01*
X150747000Y-65461250D01*
X150905750Y-65620000D01*
X151496309Y-65620000D01*
X151729698Y-65523327D01*
X151908327Y-65344699D01*
X152005000Y-65111310D01*
X152005000Y-63270750D01*
X151846250Y-63112000D01*
X151717766Y-63112000D01*
X151698480Y-62858000D01*
X151846250Y-62858000D01*
X152005000Y-62699250D01*
X152005000Y-60858690D01*
X151908327Y-60625301D01*
X151729698Y-60446673D01*
X151496309Y-60350000D01*
X150905750Y-60350000D01*
X150747000Y-60508750D01*
X150747000Y-61887234D01*
X150493000Y-61906520D01*
X150493000Y-60508750D01*
X150334250Y-60350000D01*
X149743691Y-60350000D01*
X149510302Y-60446673D01*
X149427000Y-60529975D01*
X149427000Y-60273000D01*
X154865000Y-60273000D01*
X154865000Y-60411590D01*
G36*
X114225000Y-60411590D02*
X114076309Y-60350000D01*
X113485750Y-60350000D01*
X113327000Y-60508750D01*
X113327000Y-61887234D01*
X113073000Y-61906520D01*
X113073000Y-60508750D01*
X112914250Y-60350000D01*
X112323691Y-60350000D01*
X112090302Y-60446673D01*
X111911673Y-60625301D01*
X111815000Y-60858690D01*
X111815000Y-62699250D01*
X111973750Y-62858000D01*
X112102234Y-62858000D01*
X112121520Y-63112000D01*
X111973750Y-63112000D01*
X111815000Y-63270750D01*
X111815000Y-65111310D01*
X111911673Y-65344699D01*
X112090302Y-65523327D01*
X112323691Y-65620000D01*
X112914250Y-65620000D01*
X113073000Y-65461250D01*
X113073000Y-64082766D01*
X113327000Y-64063480D01*
X113327000Y-65461250D01*
X113485750Y-65620000D01*
X114076309Y-65620000D01*
X114225001Y-65558410D01*
X114225001Y-67621069D01*
X114211091Y-67691000D01*
X114266195Y-67968028D01*
X114423119Y-68202881D01*
X114657972Y-68359805D01*
X114804517Y-68388955D01*
X114366302Y-68827170D01*
X114125000Y-69409724D01*
X114125000Y-70040276D01*
X114366302Y-70622830D01*
X114812170Y-71068698D01*
X115394724Y-71310000D01*
X116025276Y-71310000D01*
X116607830Y-71068698D01*
X116965000Y-70711528D01*
X116965001Y-71675868D01*
X116847392Y-71793477D01*
X116659854Y-72074146D01*
X116571765Y-72517000D01*
X116659854Y-72959854D01*
X116910712Y-73335288D01*
X117286146Y-73586146D01*
X117729000Y-73674235D01*
X118171854Y-73586146D01*
X118452523Y-73398608D01*
X118823518Y-73027613D01*
X118918289Y-72964289D01*
X119169146Y-72588855D01*
X119202313Y-72422114D01*
X120877698Y-74097500D01*
X120920099Y-74160957D01*
X121171491Y-74328932D01*
X121393176Y-74373028D01*
X121393180Y-74373028D01*
X121468027Y-74387916D01*
X121542874Y-74373028D01*
X122180000Y-74373028D01*
X122180000Y-74529250D01*
X122338750Y-74688000D01*
X123063000Y-74688000D01*
X123063000Y-74668000D01*
X123317000Y-74668000D01*
X123317000Y-74688000D01*
X124041250Y-74688000D01*
X124200000Y-74529250D01*
X124200000Y-74373028D01*
X128663227Y-74373028D01*
X128722758Y-74432560D01*
X128570000Y-74432560D01*
X128466148Y-74453217D01*
X128446310Y-74445000D01*
X128416250Y-74445000D01*
X128393603Y-74467647D01*
X128322235Y-74481843D01*
X128195000Y-74566859D01*
X128067765Y-74481843D01*
X127996397Y-74467647D01*
X127973750Y-74445000D01*
X127943690Y-74445000D01*
X127923852Y-74453217D01*
X127820000Y-74432560D01*
X127570000Y-74432560D01*
X127322235Y-74481843D01*
X127112191Y-74622191D01*
X126971843Y-74832235D01*
X126956622Y-74908758D01*
X126772071Y-75032071D01*
X126729671Y-75095527D01*
X126281244Y-75543954D01*
X126259635Y-75522345D01*
X125915983Y-75380000D01*
X125544017Y-75380000D01*
X125200365Y-75522345D01*
X125167710Y-75555000D01*
X124979847Y-75555000D01*
X124905000Y-75540112D01*
X124830153Y-75555000D01*
X124111486Y-75555000D01*
X124200000Y-75341309D01*
X124200000Y-75100750D01*
X124041250Y-74942000D01*
X123317000Y-74942000D01*
X123317000Y-74962000D01*
X123063000Y-74962000D01*
X123063000Y-74942000D01*
X122338750Y-74942000D01*
X122180000Y-75100750D01*
X122180000Y-75341309D01*
X122276673Y-75574698D01*
X122277873Y-75575898D01*
X122216843Y-75667235D01*
X122167560Y-75915000D01*
X122167560Y-76715000D01*
X122216843Y-76962765D01*
X122357191Y-77172809D01*
X122502646Y-77270000D01*
X118919499Y-77270000D01*
X112610918Y-70961420D01*
X112568516Y-70897961D01*
X112317124Y-70729986D01*
X112095439Y-70685890D01*
X112095434Y-70685890D01*
X112020587Y-70671002D01*
X111945740Y-70685890D01*
X108660638Y-70685890D01*
X108723698Y-70622830D01*
X108965000Y-70040276D01*
X108965000Y-69409724D01*
X108723698Y-68827170D01*
X108277830Y-68381302D01*
X108267489Y-68377019D01*
X108354028Y-68359805D01*
X108588881Y-68202881D01*
X108745805Y-67968028D01*
X108800909Y-67691000D01*
X108787000Y-67621074D01*
X108787000Y-65440025D01*
X108870302Y-65523327D01*
X109103691Y-65620000D01*
X109694250Y-65620000D01*
X109853000Y-65461250D01*
X109853000Y-64082766D01*
X110107000Y-64063480D01*
X110107000Y-65461250D01*
X110265750Y-65620000D01*
X110856309Y-65620000D01*
X111089698Y-65523327D01*
X111268327Y-65344699D01*
X111365000Y-65111310D01*
X111365000Y-63270750D01*
X111206250Y-63112000D01*
X111077766Y-63112000D01*
X111058480Y-62858000D01*
X111206250Y-62858000D01*
X111365000Y-62699250D01*
X111365000Y-60858690D01*
X111268327Y-60625301D01*
X111089698Y-60446673D01*
X110856309Y-60350000D01*
X110265750Y-60350000D01*
X110107000Y-60508750D01*
X110107000Y-61887234D01*
X109853000Y-61906520D01*
X109853000Y-60508750D01*
X109694250Y-60350000D01*
X109103691Y-60350000D01*
X108870302Y-60446673D01*
X108787000Y-60529975D01*
X108787000Y-60273000D01*
X114225000Y-60273000D01*
X114225000Y-60411590D01*
X114225000Y-60411590D01*
G37*
X114225000Y-60411590D02*
X114076309Y-60350000D01*
X113485750Y-60350000D01*
X113327000Y-60508750D01*
X113327000Y-61887234D01*
X113073000Y-61906520D01*
X113073000Y-60508750D01*
X112914250Y-60350000D01*
X112323691Y-60350000D01*
X112090302Y-60446673D01*
X111911673Y-60625301D01*
X111815000Y-60858690D01*
X111815000Y-62699250D01*
X111973750Y-62858000D01*
X112102234Y-62858000D01*
X112121520Y-63112000D01*
X111973750Y-63112000D01*
X111815000Y-63270750D01*
X111815000Y-65111310D01*
X111911673Y-65344699D01*
X112090302Y-65523327D01*
X112323691Y-65620000D01*
X112914250Y-65620000D01*
X113073000Y-65461250D01*
X113073000Y-64082766D01*
X113327000Y-64063480D01*
X113327000Y-65461250D01*
X113485750Y-65620000D01*
X114076309Y-65620000D01*
X114225001Y-65558410D01*
X114225001Y-67621069D01*
X114211091Y-67691000D01*
X114266195Y-67968028D01*
X114423119Y-68202881D01*
X114657972Y-68359805D01*
X114804517Y-68388955D01*
X114366302Y-68827170D01*
X114125000Y-69409724D01*
X114125000Y-70040276D01*
X114366302Y-70622830D01*
X114812170Y-71068698D01*
X115394724Y-71310000D01*
X116025276Y-71310000D01*
X116607830Y-71068698D01*
X116965000Y-70711528D01*
X116965001Y-71675868D01*
X116847392Y-71793477D01*
X116659854Y-72074146D01*
X116571765Y-72517000D01*
X116659854Y-72959854D01*
X116910712Y-73335288D01*
X117286146Y-73586146D01*
X117729000Y-73674235D01*
X118171854Y-73586146D01*
X118452523Y-73398608D01*
X118823518Y-73027613D01*
X118918289Y-72964289D01*
X119169146Y-72588855D01*
X119202313Y-72422114D01*
X120877698Y-74097500D01*
X120920099Y-74160957D01*
X121171491Y-74328932D01*
X121393176Y-74373028D01*
X121393180Y-74373028D01*
X121468027Y-74387916D01*
X121542874Y-74373028D01*
X122180000Y-74373028D01*
X122180000Y-74529250D01*
X122338750Y-74688000D01*
X123063000Y-74688000D01*
X123063000Y-74668000D01*
X123317000Y-74668000D01*
X123317000Y-74688000D01*
X124041250Y-74688000D01*
X124200000Y-74529250D01*
X124200000Y-74373028D01*
X128663227Y-74373028D01*
X128722758Y-74432560D01*
X128570000Y-74432560D01*
X128466148Y-74453217D01*
X128446310Y-74445000D01*
X128416250Y-74445000D01*
X128393603Y-74467647D01*
X128322235Y-74481843D01*
X128195000Y-74566859D01*
X128067765Y-74481843D01*
X127996397Y-74467647D01*
X127973750Y-74445000D01*
X127943690Y-74445000D01*
X127923852Y-74453217D01*
X127820000Y-74432560D01*
X127570000Y-74432560D01*
X127322235Y-74481843D01*
X127112191Y-74622191D01*
X126971843Y-74832235D01*
X126956622Y-74908758D01*
X126772071Y-75032071D01*
X126729671Y-75095527D01*
X126281244Y-75543954D01*
X126259635Y-75522345D01*
X125915983Y-75380000D01*
X125544017Y-75380000D01*
X125200365Y-75522345D01*
X125167710Y-75555000D01*
X124979847Y-75555000D01*
X124905000Y-75540112D01*
X124830153Y-75555000D01*
X124111486Y-75555000D01*
X124200000Y-75341309D01*
X124200000Y-75100750D01*
X124041250Y-74942000D01*
X123317000Y-74942000D01*
X123317000Y-74962000D01*
X123063000Y-74962000D01*
X123063000Y-74942000D01*
X122338750Y-74942000D01*
X122180000Y-75100750D01*
X122180000Y-75341309D01*
X122276673Y-75574698D01*
X122277873Y-75575898D01*
X122216843Y-75667235D01*
X122167560Y-75915000D01*
X122167560Y-76715000D01*
X122216843Y-76962765D01*
X122357191Y-77172809D01*
X122502646Y-77270000D01*
X118919499Y-77270000D01*
X112610918Y-70961420D01*
X112568516Y-70897961D01*
X112317124Y-70729986D01*
X112095439Y-70685890D01*
X112095434Y-70685890D01*
X112020587Y-70671002D01*
X111945740Y-70685890D01*
X108660638Y-70685890D01*
X108723698Y-70622830D01*
X108965000Y-70040276D01*
X108965000Y-69409724D01*
X108723698Y-68827170D01*
X108277830Y-68381302D01*
X108267489Y-68377019D01*
X108354028Y-68359805D01*
X108588881Y-68202881D01*
X108745805Y-67968028D01*
X108800909Y-67691000D01*
X108787000Y-67621074D01*
X108787000Y-65440025D01*
X108870302Y-65523327D01*
X109103691Y-65620000D01*
X109694250Y-65620000D01*
X109853000Y-65461250D01*
X109853000Y-64082766D01*
X110107000Y-64063480D01*
X110107000Y-65461250D01*
X110265750Y-65620000D01*
X110856309Y-65620000D01*
X111089698Y-65523327D01*
X111268327Y-65344699D01*
X111365000Y-65111310D01*
X111365000Y-63270750D01*
X111206250Y-63112000D01*
X111077766Y-63112000D01*
X111058480Y-62858000D01*
X111206250Y-62858000D01*
X111365000Y-62699250D01*
X111365000Y-60858690D01*
X111268327Y-60625301D01*
X111089698Y-60446673D01*
X110856309Y-60350000D01*
X110265750Y-60350000D01*
X110107000Y-60508750D01*
X110107000Y-61887234D01*
X109853000Y-61906520D01*
X109853000Y-60508750D01*
X109694250Y-60350000D01*
X109103691Y-60350000D01*
X108870302Y-60446673D01*
X108787000Y-60529975D01*
X108787000Y-60273000D01*
X114225000Y-60273000D01*
X114225000Y-60411590D01*
G36*
X73585000Y-60411590D02*
X73436309Y-60350000D01*
X72845750Y-60350000D01*
X72687000Y-60508750D01*
X72687000Y-61887234D01*
X72433000Y-61906520D01*
X72433000Y-60508750D01*
X72274250Y-60350000D01*
X71683691Y-60350000D01*
X71450302Y-60446673D01*
X71271673Y-60625301D01*
X71175000Y-60858690D01*
X71175000Y-62699250D01*
X71333750Y-62858000D01*
X71462234Y-62858000D01*
X71481520Y-63112000D01*
X71333750Y-63112000D01*
X71175000Y-63270750D01*
X71175000Y-65111310D01*
X71271673Y-65344699D01*
X71450302Y-65523327D01*
X71683691Y-65620000D01*
X72274250Y-65620000D01*
X72433000Y-65461250D01*
X72433000Y-64082766D01*
X72687000Y-64063480D01*
X72687000Y-65461250D01*
X72845750Y-65620000D01*
X73436309Y-65620000D01*
X73585001Y-65558410D01*
X73585001Y-67621069D01*
X73571091Y-67691000D01*
X73626195Y-67968028D01*
X73783119Y-68202881D01*
X74017972Y-68359805D01*
X74164517Y-68388955D01*
X73726302Y-68827170D01*
X73485000Y-69409724D01*
X73485000Y-70040276D01*
X73726302Y-70622830D01*
X74172170Y-71068698D01*
X74754724Y-71310000D01*
X75385276Y-71310000D01*
X75967830Y-71068698D01*
X76325000Y-70711528D01*
X76325001Y-72395212D01*
X76302765Y-72507000D01*
X76390854Y-72949854D01*
X76425300Y-73001406D01*
X76641712Y-73325289D01*
X76736480Y-73388611D01*
X76746477Y-73398608D01*
X77027146Y-73586146D01*
X77469999Y-73674235D01*
X77912854Y-73586146D01*
X78288288Y-73335288D01*
X78539146Y-72959854D01*
X78627235Y-72516999D01*
X78619795Y-72479596D01*
X82342198Y-76202000D01*
X69271802Y-76202000D01*
X64715849Y-71646048D01*
X64939698Y-71553327D01*
X65118327Y-71374699D01*
X65215000Y-71141310D01*
X65215000Y-70250750D01*
X65056252Y-70092002D01*
X65176426Y-70092002D01*
X65396302Y-70622830D01*
X65842170Y-71068698D01*
X66424724Y-71310000D01*
X67055276Y-71310000D01*
X67637830Y-71068698D01*
X68083698Y-70622830D01*
X68325000Y-70040276D01*
X68325000Y-69409724D01*
X68083698Y-68827170D01*
X67637830Y-68381302D01*
X67627489Y-68377019D01*
X67714028Y-68359805D01*
X67948881Y-68202881D01*
X68105805Y-67968028D01*
X68160909Y-67691000D01*
X68147000Y-67621074D01*
X68147000Y-65440025D01*
X68230302Y-65523327D01*
X68463691Y-65620000D01*
X69054250Y-65620000D01*
X69213000Y-65461250D01*
X69213000Y-64082766D01*
X69467000Y-64063480D01*
X69467000Y-65461250D01*
X69625750Y-65620000D01*
X70216309Y-65620000D01*
X70449698Y-65523327D01*
X70628327Y-65344699D01*
X70725000Y-65111310D01*
X70725000Y-63270750D01*
X70566250Y-63112000D01*
X70437766Y-63112000D01*
X70418480Y-62858000D01*
X70566250Y-62858000D01*
X70725000Y-62699250D01*
X70725000Y-60858690D01*
X70628327Y-60625301D01*
X70449698Y-60446673D01*
X70216309Y-60350000D01*
X69625750Y-60350000D01*
X69467000Y-60508750D01*
X69467000Y-61887234D01*
X69213000Y-61906520D01*
X69213000Y-60508750D01*
X69054250Y-60350000D01*
X68463691Y-60350000D01*
X68230302Y-60446673D01*
X68147000Y-60529975D01*
X68147000Y-60273000D01*
X73585000Y-60273000D01*
X73585000Y-60411590D01*
X73585000Y-60411590D01*
G37*
X73585000Y-60411590D02*
X73436309Y-60350000D01*
X72845750Y-60350000D01*
X72687000Y-60508750D01*
X72687000Y-61887234D01*
X72433000Y-61906520D01*
X72433000Y-60508750D01*
X72274250Y-60350000D01*
X71683691Y-60350000D01*
X71450302Y-60446673D01*
X71271673Y-60625301D01*
X71175000Y-60858690D01*
X71175000Y-62699250D01*
X71333750Y-62858000D01*
X71462234Y-62858000D01*
X71481520Y-63112000D01*
X71333750Y-63112000D01*
X71175000Y-63270750D01*
X71175000Y-65111310D01*
X71271673Y-65344699D01*
X71450302Y-65523327D01*
X71683691Y-65620000D01*
X72274250Y-65620000D01*
X72433000Y-65461250D01*
X72433000Y-64082766D01*
X72687000Y-64063480D01*
X72687000Y-65461250D01*
X72845750Y-65620000D01*
X73436309Y-65620000D01*
X73585001Y-65558410D01*
X73585001Y-67621069D01*
X73571091Y-67691000D01*
X73626195Y-67968028D01*
X73783119Y-68202881D01*
X74017972Y-68359805D01*
X74164517Y-68388955D01*
X73726302Y-68827170D01*
X73485000Y-69409724D01*
X73485000Y-70040276D01*
X73726302Y-70622830D01*
X74172170Y-71068698D01*
X74754724Y-71310000D01*
X75385276Y-71310000D01*
X75967830Y-71068698D01*
X76325000Y-70711528D01*
X76325001Y-72395212D01*
X76302765Y-72507000D01*
X76390854Y-72949854D01*
X76425300Y-73001406D01*
X76641712Y-73325289D01*
X76736480Y-73388611D01*
X76746477Y-73398608D01*
X77027146Y-73586146D01*
X77469999Y-73674235D01*
X77912854Y-73586146D01*
X78288288Y-73335288D01*
X78539146Y-72959854D01*
X78627235Y-72516999D01*
X78619795Y-72479596D01*
X82342198Y-76202000D01*
X69271802Y-76202000D01*
X64715849Y-71646048D01*
X64939698Y-71553327D01*
X65118327Y-71374699D01*
X65215000Y-71141310D01*
X65215000Y-70250750D01*
X65056252Y-70092002D01*
X65176426Y-70092002D01*
X65396302Y-70622830D01*
X65842170Y-71068698D01*
X66424724Y-71310000D01*
X67055276Y-71310000D01*
X67637830Y-71068698D01*
X68083698Y-70622830D01*
X68325000Y-70040276D01*
X68325000Y-69409724D01*
X68083698Y-68827170D01*
X67637830Y-68381302D01*
X67627489Y-68377019D01*
X67714028Y-68359805D01*
X67948881Y-68202881D01*
X68105805Y-67968028D01*
X68160909Y-67691000D01*
X68147000Y-67621074D01*
X68147000Y-65440025D01*
X68230302Y-65523327D01*
X68463691Y-65620000D01*
X69054250Y-65620000D01*
X69213000Y-65461250D01*
X69213000Y-64082766D01*
X69467000Y-64063480D01*
X69467000Y-65461250D01*
X69625750Y-65620000D01*
X70216309Y-65620000D01*
X70449698Y-65523327D01*
X70628327Y-65344699D01*
X70725000Y-65111310D01*
X70725000Y-63270750D01*
X70566250Y-63112000D01*
X70437766Y-63112000D01*
X70418480Y-62858000D01*
X70566250Y-62858000D01*
X70725000Y-62699250D01*
X70725000Y-60858690D01*
X70628327Y-60625301D01*
X70449698Y-60446673D01*
X70216309Y-60350000D01*
X69625750Y-60350000D01*
X69467000Y-60508750D01*
X69467000Y-61887234D01*
X69213000Y-61906520D01*
X69213000Y-60508750D01*
X69054250Y-60350000D01*
X68463691Y-60350000D01*
X68230302Y-60446673D01*
X68147000Y-60529975D01*
X68147000Y-60273000D01*
X73585000Y-60273000D01*
X73585000Y-60411590D01*
G36*
X195505000Y-60411590D02*
X195356309Y-60350000D01*
X194765750Y-60350000D01*
X194607000Y-60508750D01*
X194607000Y-61887234D01*
X194353000Y-61906520D01*
X194353000Y-60508750D01*
X194194250Y-60350000D01*
X193603691Y-60350000D01*
X193370302Y-60446673D01*
X193191673Y-60625301D01*
X193095000Y-60858690D01*
X193095000Y-62699250D01*
X193253750Y-62858000D01*
X193382234Y-62858000D01*
X193401520Y-63112000D01*
X193253750Y-63112000D01*
X193095000Y-63270750D01*
X193095000Y-65111310D01*
X193191673Y-65344699D01*
X193370302Y-65523327D01*
X193603691Y-65620000D01*
X194194250Y-65620000D01*
X194353000Y-65461250D01*
X194353000Y-64082766D01*
X194607000Y-64063480D01*
X194607000Y-65461250D01*
X194765750Y-65620000D01*
X195356309Y-65620000D01*
X195505001Y-65558410D01*
X195505001Y-67621069D01*
X195491091Y-67691000D01*
X195546195Y-67968028D01*
X195703119Y-68202881D01*
X195937972Y-68359805D01*
X196084517Y-68388955D01*
X195646302Y-68827170D01*
X195405000Y-69409724D01*
X195405000Y-70040276D01*
X195646302Y-70622830D01*
X196092170Y-71068698D01*
X196674724Y-71310000D01*
X197086869Y-71310000D01*
X196603392Y-71793477D01*
X196415854Y-72074146D01*
X196327765Y-72517000D01*
X196415854Y-72959854D01*
X196666712Y-73335288D01*
X197019310Y-73570888D01*
X195495254Y-75094945D01*
X182424856Y-75094945D01*
X185664473Y-71855329D01*
X185727929Y-71812929D01*
X185804548Y-71698261D01*
X185836795Y-71650000D01*
X185914250Y-71650000D01*
X186073000Y-71491250D01*
X186073000Y-71270483D01*
X186078157Y-71262765D01*
X186127440Y-71015000D01*
X186127440Y-69818000D01*
X186327000Y-69818000D01*
X186327000Y-69838000D01*
X186347000Y-69838000D01*
X186347000Y-70092000D01*
X186327000Y-70092000D01*
X186327000Y-71491250D01*
X186485750Y-71650000D01*
X186626309Y-71650000D01*
X186859698Y-71553327D01*
X187038327Y-71374699D01*
X187135000Y-71141310D01*
X187135000Y-70250750D01*
X186976252Y-70092002D01*
X187096426Y-70092002D01*
X187316302Y-70622830D01*
X187762170Y-71068698D01*
X188344724Y-71310000D01*
X188975276Y-71310000D01*
X189557830Y-71068698D01*
X190003698Y-70622830D01*
X190245000Y-70040276D01*
X190245000Y-69409724D01*
X190003698Y-68827170D01*
X189557830Y-68381302D01*
X189547489Y-68377019D01*
X189634028Y-68359805D01*
X189868881Y-68202881D01*
X190025805Y-67968028D01*
X190080909Y-67691000D01*
X190067000Y-67621074D01*
X190067000Y-65440025D01*
X190150302Y-65523327D01*
X190383691Y-65620000D01*
X190974250Y-65620000D01*
X191133000Y-65461250D01*
X191133000Y-64082766D01*
X191387000Y-64063480D01*
X191387000Y-65461250D01*
X191545750Y-65620000D01*
X192136309Y-65620000D01*
X192369698Y-65523327D01*
X192548327Y-65344699D01*
X192645000Y-65111310D01*
X192645000Y-63270750D01*
X192486250Y-63112000D01*
X192357766Y-63112000D01*
X192338480Y-62858000D01*
X192486250Y-62858000D01*
X192645000Y-62699250D01*
X192645000Y-60858690D01*
X192548327Y-60625301D01*
X192369698Y-60446673D01*
X192136309Y-60350000D01*
X191545750Y-60350000D01*
X191387000Y-60508750D01*
X191387000Y-61887234D01*
X191133000Y-61906520D01*
X191133000Y-60508750D01*
X190974250Y-60350000D01*
X190383691Y-60350000D01*
X190150302Y-60446673D01*
X190067000Y-60529975D01*
X190067000Y-60273000D01*
X195505000Y-60273000D01*
X195505000Y-60411590D01*
X195505000Y-60411590D01*
G37*
X195505000Y-60411590D02*
X195356309Y-60350000D01*
X194765750Y-60350000D01*
X194607000Y-60508750D01*
X194607000Y-61887234D01*
X194353000Y-61906520D01*
X194353000Y-60508750D01*
X194194250Y-60350000D01*
X193603691Y-60350000D01*
X193370302Y-60446673D01*
X193191673Y-60625301D01*
X193095000Y-60858690D01*
X193095000Y-62699250D01*
X193253750Y-62858000D01*
X193382234Y-62858000D01*
X193401520Y-63112000D01*
X193253750Y-63112000D01*
X193095000Y-63270750D01*
X193095000Y-65111310D01*
X193191673Y-65344699D01*
X193370302Y-65523327D01*
X193603691Y-65620000D01*
X194194250Y-65620000D01*
X194353000Y-65461250D01*
X194353000Y-64082766D01*
X194607000Y-64063480D01*
X194607000Y-65461250D01*
X194765750Y-65620000D01*
X195356309Y-65620000D01*
X195505001Y-65558410D01*
X195505001Y-67621069D01*
X195491091Y-67691000D01*
X195546195Y-67968028D01*
X195703119Y-68202881D01*
X195937972Y-68359805D01*
X196084517Y-68388955D01*
X195646302Y-68827170D01*
X195405000Y-69409724D01*
X195405000Y-70040276D01*
X195646302Y-70622830D01*
X196092170Y-71068698D01*
X196674724Y-71310000D01*
X197086869Y-71310000D01*
X196603392Y-71793477D01*
X196415854Y-72074146D01*
X196327765Y-72517000D01*
X196415854Y-72959854D01*
X196666712Y-73335288D01*
X197019310Y-73570888D01*
X195495254Y-75094945D01*
X182424856Y-75094945D01*
X185664473Y-71855329D01*
X185727929Y-71812929D01*
X185804548Y-71698261D01*
X185836795Y-71650000D01*
X185914250Y-71650000D01*
X186073000Y-71491250D01*
X186073000Y-71270483D01*
X186078157Y-71262765D01*
X186127440Y-71015000D01*
X186127440Y-69818000D01*
X186327000Y-69818000D01*
X186327000Y-69838000D01*
X186347000Y-69838000D01*
X186347000Y-70092000D01*
X186327000Y-70092000D01*
X186327000Y-71491250D01*
X186485750Y-71650000D01*
X186626309Y-71650000D01*
X186859698Y-71553327D01*
X187038327Y-71374699D01*
X187135000Y-71141310D01*
X187135000Y-70250750D01*
X186976252Y-70092002D01*
X187096426Y-70092002D01*
X187316302Y-70622830D01*
X187762170Y-71068698D01*
X188344724Y-71310000D01*
X188975276Y-71310000D01*
X189557830Y-71068698D01*
X190003698Y-70622830D01*
X190245000Y-70040276D01*
X190245000Y-69409724D01*
X190003698Y-68827170D01*
X189557830Y-68381302D01*
X189547489Y-68377019D01*
X189634028Y-68359805D01*
X189868881Y-68202881D01*
X190025805Y-67968028D01*
X190080909Y-67691000D01*
X190067000Y-67621074D01*
X190067000Y-65440025D01*
X190150302Y-65523327D01*
X190383691Y-65620000D01*
X190974250Y-65620000D01*
X191133000Y-65461250D01*
X191133000Y-64082766D01*
X191387000Y-64063480D01*
X191387000Y-65461250D01*
X191545750Y-65620000D01*
X192136309Y-65620000D01*
X192369698Y-65523327D01*
X192548327Y-65344699D01*
X192645000Y-65111310D01*
X192645000Y-63270750D01*
X192486250Y-63112000D01*
X192357766Y-63112000D01*
X192338480Y-62858000D01*
X192486250Y-62858000D01*
X192645000Y-62699250D01*
X192645000Y-60858690D01*
X192548327Y-60625301D01*
X192369698Y-60446673D01*
X192136309Y-60350000D01*
X191545750Y-60350000D01*
X191387000Y-60508750D01*
X191387000Y-61887234D01*
X191133000Y-61906520D01*
X191133000Y-60508750D01*
X190974250Y-60350000D01*
X190383691Y-60350000D01*
X190150302Y-60446673D01*
X190067000Y-60529975D01*
X190067000Y-60273000D01*
X195505000Y-60273000D01*
X195505000Y-60411590D01*
G36*
X93905000Y-60411590D02*
X93756309Y-60350000D01*
X93165750Y-60350000D01*
X93007000Y-60508750D01*
X93007000Y-61887234D01*
X92753000Y-61906520D01*
X92753000Y-60508750D01*
X92594250Y-60350000D01*
X92003691Y-60350000D01*
X91770302Y-60446673D01*
X91591673Y-60625301D01*
X91495000Y-60858690D01*
X91495000Y-62699250D01*
X91653750Y-62858000D01*
X91782234Y-62858000D01*
X91801520Y-63112000D01*
X91653750Y-63112000D01*
X91495000Y-63270750D01*
X91495000Y-65111310D01*
X91591673Y-65344699D01*
X91770302Y-65523327D01*
X92003691Y-65620000D01*
X92594250Y-65620000D01*
X92753000Y-65461250D01*
X92753000Y-64082766D01*
X93007000Y-64063480D01*
X93007000Y-65461250D01*
X93165750Y-65620000D01*
X93756309Y-65620000D01*
X93905001Y-65558410D01*
X93905001Y-67621069D01*
X93891091Y-67691000D01*
X93946195Y-67968028D01*
X94103119Y-68202881D01*
X94337972Y-68359805D01*
X94484517Y-68388955D01*
X94046302Y-68827170D01*
X93805000Y-69409724D01*
X93805000Y-70040276D01*
X94046302Y-70622830D01*
X94492170Y-71068698D01*
X95074724Y-71310000D01*
X95705276Y-71310000D01*
X96287830Y-71068698D01*
X96645000Y-70711528D01*
X96645001Y-71294868D01*
X96146392Y-71793477D01*
X95958854Y-72074146D01*
X95870765Y-72517000D01*
X95958854Y-72959854D01*
X96209712Y-73335288D01*
X96285542Y-73385956D01*
X86775758Y-73385956D01*
X85035850Y-71646048D01*
X85259698Y-71553327D01*
X85438327Y-71374699D01*
X85535000Y-71141310D01*
X85535000Y-70250750D01*
X85376252Y-70092002D01*
X85496426Y-70092002D01*
X85716302Y-70622830D01*
X86162170Y-71068698D01*
X86744724Y-71310000D01*
X87375276Y-71310000D01*
X87957830Y-71068698D01*
X88403698Y-70622830D01*
X88645000Y-70040276D01*
X88645000Y-69409724D01*
X88403698Y-68827170D01*
X87957830Y-68381302D01*
X87947489Y-68377019D01*
X88034028Y-68359805D01*
X88268881Y-68202881D01*
X88425805Y-67968028D01*
X88480909Y-67691000D01*
X88467000Y-67621074D01*
X88467000Y-65440025D01*
X88550302Y-65523327D01*
X88783691Y-65620000D01*
X89374250Y-65620000D01*
X89533000Y-65461250D01*
X89533000Y-64082766D01*
X89787000Y-64063480D01*
X89787000Y-65461250D01*
X89945750Y-65620000D01*
X90536309Y-65620000D01*
X90769698Y-65523327D01*
X90948327Y-65344699D01*
X91045000Y-65111310D01*
X91045000Y-63270750D01*
X90886250Y-63112000D01*
X90757766Y-63112000D01*
X90738480Y-62858000D01*
X90886250Y-62858000D01*
X91045000Y-62699250D01*
X91045000Y-60858690D01*
X90948327Y-60625301D01*
X90769698Y-60446673D01*
X90536309Y-60350000D01*
X89945750Y-60350000D01*
X89787000Y-60508750D01*
X89787000Y-61887234D01*
X89533000Y-61906520D01*
X89533000Y-60508750D01*
X89374250Y-60350000D01*
X88783691Y-60350000D01*
X88550302Y-60446673D01*
X88467000Y-60529975D01*
X88467000Y-60273000D01*
X93905000Y-60273000D01*
X93905000Y-60411590D01*
X93905000Y-60411590D01*
G37*
X93905000Y-60411590D02*
X93756309Y-60350000D01*
X93165750Y-60350000D01*
X93007000Y-60508750D01*
X93007000Y-61887234D01*
X92753000Y-61906520D01*
X92753000Y-60508750D01*
X92594250Y-60350000D01*
X92003691Y-60350000D01*
X91770302Y-60446673D01*
X91591673Y-60625301D01*
X91495000Y-60858690D01*
X91495000Y-62699250D01*
X91653750Y-62858000D01*
X91782234Y-62858000D01*
X91801520Y-63112000D01*
X91653750Y-63112000D01*
X91495000Y-63270750D01*
X91495000Y-65111310D01*
X91591673Y-65344699D01*
X91770302Y-65523327D01*
X92003691Y-65620000D01*
X92594250Y-65620000D01*
X92753000Y-65461250D01*
X92753000Y-64082766D01*
X93007000Y-64063480D01*
X93007000Y-65461250D01*
X93165750Y-65620000D01*
X93756309Y-65620000D01*
X93905001Y-65558410D01*
X93905001Y-67621069D01*
X93891091Y-67691000D01*
X93946195Y-67968028D01*
X94103119Y-68202881D01*
X94337972Y-68359805D01*
X94484517Y-68388955D01*
X94046302Y-68827170D01*
X93805000Y-69409724D01*
X93805000Y-70040276D01*
X94046302Y-70622830D01*
X94492170Y-71068698D01*
X95074724Y-71310000D01*
X95705276Y-71310000D01*
X96287830Y-71068698D01*
X96645000Y-70711528D01*
X96645001Y-71294868D01*
X96146392Y-71793477D01*
X95958854Y-72074146D01*
X95870765Y-72517000D01*
X95958854Y-72959854D01*
X96209712Y-73335288D01*
X96285542Y-73385956D01*
X86775758Y-73385956D01*
X85035850Y-71646048D01*
X85259698Y-71553327D01*
X85438327Y-71374699D01*
X85535000Y-71141310D01*
X85535000Y-70250750D01*
X85376252Y-70092002D01*
X85496426Y-70092002D01*
X85716302Y-70622830D01*
X86162170Y-71068698D01*
X86744724Y-71310000D01*
X87375276Y-71310000D01*
X87957830Y-71068698D01*
X88403698Y-70622830D01*
X88645000Y-70040276D01*
X88645000Y-69409724D01*
X88403698Y-68827170D01*
X87957830Y-68381302D01*
X87947489Y-68377019D01*
X88034028Y-68359805D01*
X88268881Y-68202881D01*
X88425805Y-67968028D01*
X88480909Y-67691000D01*
X88467000Y-67621074D01*
X88467000Y-65440025D01*
X88550302Y-65523327D01*
X88783691Y-65620000D01*
X89374250Y-65620000D01*
X89533000Y-65461250D01*
X89533000Y-64082766D01*
X89787000Y-64063480D01*
X89787000Y-65461250D01*
X89945750Y-65620000D01*
X90536309Y-65620000D01*
X90769698Y-65523327D01*
X90948327Y-65344699D01*
X91045000Y-65111310D01*
X91045000Y-63270750D01*
X90886250Y-63112000D01*
X90757766Y-63112000D01*
X90738480Y-62858000D01*
X90886250Y-62858000D01*
X91045000Y-62699250D01*
X91045000Y-60858690D01*
X90948327Y-60625301D01*
X90769698Y-60446673D01*
X90536309Y-60350000D01*
X89945750Y-60350000D01*
X89787000Y-60508750D01*
X89787000Y-61887234D01*
X89533000Y-61906520D01*
X89533000Y-60508750D01*
X89374250Y-60350000D01*
X88783691Y-60350000D01*
X88550302Y-60446673D01*
X88467000Y-60529975D01*
X88467000Y-60273000D01*
X93905000Y-60273000D01*
X93905000Y-60411590D01*
G36*
X134545000Y-60411590D02*
X134396309Y-60350000D01*
X133805750Y-60350000D01*
X133647000Y-60508750D01*
X133647000Y-61887234D01*
X133393000Y-61906520D01*
X133393000Y-60508750D01*
X133234250Y-60350000D01*
X132643691Y-60350000D01*
X132410302Y-60446673D01*
X132231673Y-60625301D01*
X132135000Y-60858690D01*
X132135000Y-62699250D01*
X132293750Y-62858000D01*
X132422234Y-62858000D01*
X132441520Y-63112000D01*
X132293750Y-63112000D01*
X132135000Y-63270750D01*
X132135000Y-65111310D01*
X132231673Y-65344699D01*
X132410302Y-65523327D01*
X132643691Y-65620000D01*
X133234250Y-65620000D01*
X133393000Y-65461250D01*
X133393000Y-64082766D01*
X133647000Y-64063480D01*
X133647000Y-65461250D01*
X133805750Y-65620000D01*
X134396309Y-65620000D01*
X134545001Y-65558410D01*
X134545001Y-67621069D01*
X134531091Y-67691000D01*
X134586195Y-67968028D01*
X134743119Y-68202881D01*
X134977972Y-68359805D01*
X135124517Y-68388955D01*
X134686302Y-68827170D01*
X134445000Y-69409724D01*
X134445000Y-70040276D01*
X134686302Y-70622830D01*
X135132170Y-71068698D01*
X135714724Y-71310000D01*
X135999869Y-71310000D01*
X135516392Y-71793477D01*
X135328854Y-72074146D01*
X135240765Y-72517000D01*
X135266425Y-72646000D01*
X133932848Y-72646000D01*
X133867746Y-72633051D01*
X133785329Y-72509706D01*
X133742929Y-72446250D01*
X133679473Y-72403850D01*
X132154132Y-70878510D01*
X132111730Y-70815051D01*
X131860338Y-70647076D01*
X131638653Y-70602980D01*
X131638648Y-70602980D01*
X131563801Y-70588092D01*
X131488954Y-70602980D01*
X129051920Y-70602980D01*
X129285000Y-70040276D01*
X129285000Y-69409724D01*
X129043698Y-68827170D01*
X128597830Y-68381302D01*
X128587489Y-68377019D01*
X128674028Y-68359805D01*
X128908881Y-68202881D01*
X129065805Y-67968028D01*
X129120909Y-67691000D01*
X129107000Y-67621074D01*
X129107000Y-65440025D01*
X129190302Y-65523327D01*
X129423691Y-65620000D01*
X130014250Y-65620000D01*
X130173000Y-65461250D01*
X130173000Y-64082766D01*
X130427000Y-64063480D01*
X130427000Y-65461250D01*
X130585750Y-65620000D01*
X131176309Y-65620000D01*
X131409698Y-65523327D01*
X131588327Y-65344699D01*
X131685000Y-65111310D01*
X131685000Y-63270750D01*
X131526250Y-63112000D01*
X131397766Y-63112000D01*
X131378480Y-62858000D01*
X131526250Y-62858000D01*
X131685000Y-62699250D01*
X131685000Y-60858690D01*
X131588327Y-60625301D01*
X131409698Y-60446673D01*
X131176309Y-60350000D01*
X130585750Y-60350000D01*
X130427000Y-60508750D01*
X130427000Y-61887234D01*
X130173000Y-61906520D01*
X130173000Y-60508750D01*
X130014250Y-60350000D01*
X129423691Y-60350000D01*
X129190302Y-60446673D01*
X129107000Y-60529975D01*
X129107000Y-60273000D01*
X134545000Y-60273000D01*
X134545000Y-60411590D01*
X134545000Y-60411590D01*
G37*
X134545000Y-60411590D02*
X134396309Y-60350000D01*
X133805750Y-60350000D01*
X133647000Y-60508750D01*
X133647000Y-61887234D01*
X133393000Y-61906520D01*
X133393000Y-60508750D01*
X133234250Y-60350000D01*
X132643691Y-60350000D01*
X132410302Y-60446673D01*
X132231673Y-60625301D01*
X132135000Y-60858690D01*
X132135000Y-62699250D01*
X132293750Y-62858000D01*
X132422234Y-62858000D01*
X132441520Y-63112000D01*
X132293750Y-63112000D01*
X132135000Y-63270750D01*
X132135000Y-65111310D01*
X132231673Y-65344699D01*
X132410302Y-65523327D01*
X132643691Y-65620000D01*
X133234250Y-65620000D01*
X133393000Y-65461250D01*
X133393000Y-64082766D01*
X133647000Y-64063480D01*
X133647000Y-65461250D01*
X133805750Y-65620000D01*
X134396309Y-65620000D01*
X134545001Y-65558410D01*
X134545001Y-67621069D01*
X134531091Y-67691000D01*
X134586195Y-67968028D01*
X134743119Y-68202881D01*
X134977972Y-68359805D01*
X135124517Y-68388955D01*
X134686302Y-68827170D01*
X134445000Y-69409724D01*
X134445000Y-70040276D01*
X134686302Y-70622830D01*
X135132170Y-71068698D01*
X135714724Y-71310000D01*
X135999869Y-71310000D01*
X135516392Y-71793477D01*
X135328854Y-72074146D01*
X135240765Y-72517000D01*
X135266425Y-72646000D01*
X133932848Y-72646000D01*
X133867746Y-72633051D01*
X133785329Y-72509706D01*
X133742929Y-72446250D01*
X133679473Y-72403850D01*
X132154132Y-70878510D01*
X132111730Y-70815051D01*
X131860338Y-70647076D01*
X131638653Y-70602980D01*
X131638648Y-70602980D01*
X131563801Y-70588092D01*
X131488954Y-70602980D01*
X129051920Y-70602980D01*
X129285000Y-70040276D01*
X129285000Y-69409724D01*
X129043698Y-68827170D01*
X128597830Y-68381302D01*
X128587489Y-68377019D01*
X128674028Y-68359805D01*
X128908881Y-68202881D01*
X129065805Y-67968028D01*
X129120909Y-67691000D01*
X129107000Y-67621074D01*
X129107000Y-65440025D01*
X129190302Y-65523327D01*
X129423691Y-65620000D01*
X130014250Y-65620000D01*
X130173000Y-65461250D01*
X130173000Y-64082766D01*
X130427000Y-64063480D01*
X130427000Y-65461250D01*
X130585750Y-65620000D01*
X131176309Y-65620000D01*
X131409698Y-65523327D01*
X131588327Y-65344699D01*
X131685000Y-65111310D01*
X131685000Y-63270750D01*
X131526250Y-63112000D01*
X131397766Y-63112000D01*
X131378480Y-62858000D01*
X131526250Y-62858000D01*
X131685000Y-62699250D01*
X131685000Y-60858690D01*
X131588327Y-60625301D01*
X131409698Y-60446673D01*
X131176309Y-60350000D01*
X130585750Y-60350000D01*
X130427000Y-60508750D01*
X130427000Y-61887234D01*
X130173000Y-61906520D01*
X130173000Y-60508750D01*
X130014250Y-60350000D01*
X129423691Y-60350000D01*
X129190302Y-60446673D01*
X129107000Y-60529975D01*
X129107000Y-60273000D01*
X134545000Y-60273000D01*
X134545000Y-60411590D01*
G36*
X175185000Y-60411590D02*
X175036309Y-60350000D01*
X174445750Y-60350000D01*
X174287000Y-60508750D01*
X174287000Y-61887234D01*
X174033000Y-61906520D01*
X174033000Y-60508750D01*
X173874250Y-60350000D01*
X173283691Y-60350000D01*
X173050302Y-60446673D01*
X172871673Y-60625301D01*
X172775000Y-60858690D01*
X172775000Y-62699250D01*
X172933750Y-62858000D01*
X173062234Y-62858000D01*
X173081520Y-63112000D01*
X172933750Y-63112000D01*
X172775000Y-63270750D01*
X172775000Y-65111310D01*
X172871673Y-65344699D01*
X173050302Y-65523327D01*
X173283691Y-65620000D01*
X173874250Y-65620000D01*
X174033000Y-65461250D01*
X174033000Y-64082766D01*
X174287000Y-64063480D01*
X174287000Y-65461250D01*
X174445750Y-65620000D01*
X175036309Y-65620000D01*
X175185001Y-65558410D01*
X175185001Y-67621069D01*
X175171091Y-67691000D01*
X175226195Y-67968028D01*
X175383119Y-68202881D01*
X175617972Y-68359805D01*
X175764517Y-68388955D01*
X175326302Y-68827170D01*
X175085000Y-69409724D01*
X175085000Y-70040276D01*
X175326302Y-70622830D01*
X175772170Y-71068698D01*
X176352033Y-71308885D01*
X176349854Y-71312146D01*
X176261765Y-71755000D01*
X176349854Y-72197854D01*
X176481502Y-72394879D01*
X164804923Y-72394879D01*
X165344473Y-71855329D01*
X165407929Y-71812929D01*
X165484548Y-71698261D01*
X165516795Y-71650000D01*
X165594250Y-71650000D01*
X165753000Y-71491250D01*
X165753000Y-71270483D01*
X165758157Y-71262765D01*
X165807440Y-71015000D01*
X165807440Y-69818000D01*
X166007000Y-69818000D01*
X166007000Y-69838000D01*
X166027000Y-69838000D01*
X166027000Y-70092000D01*
X166007000Y-70092000D01*
X166007000Y-71491250D01*
X166165750Y-71650000D01*
X166306309Y-71650000D01*
X166539698Y-71553327D01*
X166718327Y-71374699D01*
X166815000Y-71141310D01*
X166815000Y-70250750D01*
X166656252Y-70092002D01*
X166776426Y-70092002D01*
X166996302Y-70622830D01*
X167442170Y-71068698D01*
X168024724Y-71310000D01*
X168655276Y-71310000D01*
X169237830Y-71068698D01*
X169683698Y-70622830D01*
X169925000Y-70040276D01*
X169925000Y-69409724D01*
X169683698Y-68827170D01*
X169237830Y-68381302D01*
X169227489Y-68377019D01*
X169314028Y-68359805D01*
X169548881Y-68202881D01*
X169705805Y-67968028D01*
X169760909Y-67691000D01*
X169747000Y-67621074D01*
X169747000Y-65440025D01*
X169830302Y-65523327D01*
X170063691Y-65620000D01*
X170654250Y-65620000D01*
X170813000Y-65461250D01*
X170813000Y-64082766D01*
X171067000Y-64063480D01*
X171067000Y-65461250D01*
X171225750Y-65620000D01*
X171816309Y-65620000D01*
X172049698Y-65523327D01*
X172228327Y-65344699D01*
X172325000Y-65111310D01*
X172325000Y-63270750D01*
X172166250Y-63112000D01*
X172037766Y-63112000D01*
X172018480Y-62858000D01*
X172166250Y-62858000D01*
X172325000Y-62699250D01*
X172325000Y-60858690D01*
X172228327Y-60625301D01*
X172049698Y-60446673D01*
X171816309Y-60350000D01*
X171225750Y-60350000D01*
X171067000Y-60508750D01*
X171067000Y-61887234D01*
X170813000Y-61906520D01*
X170813000Y-60508750D01*
X170654250Y-60350000D01*
X170063691Y-60350000D01*
X169830302Y-60446673D01*
X169747000Y-60529975D01*
X169747000Y-60273000D01*
X175185000Y-60273000D01*
X175185000Y-60411590D01*
X175185000Y-60411590D01*
G37*
X175185000Y-60411590D02*
X175036309Y-60350000D01*
X174445750Y-60350000D01*
X174287000Y-60508750D01*
X174287000Y-61887234D01*
X174033000Y-61906520D01*
X174033000Y-60508750D01*
X173874250Y-60350000D01*
X173283691Y-60350000D01*
X173050302Y-60446673D01*
X172871673Y-60625301D01*
X172775000Y-60858690D01*
X172775000Y-62699250D01*
X172933750Y-62858000D01*
X173062234Y-62858000D01*
X173081520Y-63112000D01*
X172933750Y-63112000D01*
X172775000Y-63270750D01*
X172775000Y-65111310D01*
X172871673Y-65344699D01*
X173050302Y-65523327D01*
X173283691Y-65620000D01*
X173874250Y-65620000D01*
X174033000Y-65461250D01*
X174033000Y-64082766D01*
X174287000Y-64063480D01*
X174287000Y-65461250D01*
X174445750Y-65620000D01*
X175036309Y-65620000D01*
X175185001Y-65558410D01*
X175185001Y-67621069D01*
X175171091Y-67691000D01*
X175226195Y-67968028D01*
X175383119Y-68202881D01*
X175617972Y-68359805D01*
X175764517Y-68388955D01*
X175326302Y-68827170D01*
X175085000Y-69409724D01*
X175085000Y-70040276D01*
X175326302Y-70622830D01*
X175772170Y-71068698D01*
X176352033Y-71308885D01*
X176349854Y-71312146D01*
X176261765Y-71755000D01*
X176349854Y-72197854D01*
X176481502Y-72394879D01*
X164804923Y-72394879D01*
X165344473Y-71855329D01*
X165407929Y-71812929D01*
X165484548Y-71698261D01*
X165516795Y-71650000D01*
X165594250Y-71650000D01*
X165753000Y-71491250D01*
X165753000Y-71270483D01*
X165758157Y-71262765D01*
X165807440Y-71015000D01*
X165807440Y-69818000D01*
X166007000Y-69818000D01*
X166007000Y-69838000D01*
X166027000Y-69838000D01*
X166027000Y-70092000D01*
X166007000Y-70092000D01*
X166007000Y-71491250D01*
X166165750Y-71650000D01*
X166306309Y-71650000D01*
X166539698Y-71553327D01*
X166718327Y-71374699D01*
X166815000Y-71141310D01*
X166815000Y-70250750D01*
X166656252Y-70092002D01*
X166776426Y-70092002D01*
X166996302Y-70622830D01*
X167442170Y-71068698D01*
X168024724Y-71310000D01*
X168655276Y-71310000D01*
X169237830Y-71068698D01*
X169683698Y-70622830D01*
X169925000Y-70040276D01*
X169925000Y-69409724D01*
X169683698Y-68827170D01*
X169237830Y-68381302D01*
X169227489Y-68377019D01*
X169314028Y-68359805D01*
X169548881Y-68202881D01*
X169705805Y-67968028D01*
X169760909Y-67691000D01*
X169747000Y-67621074D01*
X169747000Y-65440025D01*
X169830302Y-65523327D01*
X170063691Y-65620000D01*
X170654250Y-65620000D01*
X170813000Y-65461250D01*
X170813000Y-64082766D01*
X171067000Y-64063480D01*
X171067000Y-65461250D01*
X171225750Y-65620000D01*
X171816309Y-65620000D01*
X172049698Y-65523327D01*
X172228327Y-65344699D01*
X172325000Y-65111310D01*
X172325000Y-63270750D01*
X172166250Y-63112000D01*
X172037766Y-63112000D01*
X172018480Y-62858000D01*
X172166250Y-62858000D01*
X172325000Y-62699250D01*
X172325000Y-60858690D01*
X172228327Y-60625301D01*
X172049698Y-60446673D01*
X171816309Y-60350000D01*
X171225750Y-60350000D01*
X171067000Y-60508750D01*
X171067000Y-61887234D01*
X170813000Y-61906520D01*
X170813000Y-60508750D01*
X170654250Y-60350000D01*
X170063691Y-60350000D01*
X169830302Y-60446673D01*
X169747000Y-60529975D01*
X169747000Y-60273000D01*
X175185000Y-60273000D01*
X175185000Y-60411590D01*
G36*
X64407000Y-69838000D02*
X64427000Y-69838000D01*
X64427000Y-70092000D01*
X64407000Y-70092000D01*
X64407000Y-70112000D01*
X64207440Y-70112000D01*
X64207440Y-69818000D01*
X64407000Y-69818000D01*
X64407000Y-69838000D01*
X64407000Y-69838000D01*
G37*
X64407000Y-69838000D02*
X64427000Y-69838000D01*
X64427000Y-70092000D01*
X64407000Y-70092000D01*
X64407000Y-70112000D01*
X64207440Y-70112000D01*
X64207440Y-69818000D01*
X64407000Y-69818000D01*
X64407000Y-69838000D01*
G36*
X84727000Y-69838000D02*
X84747000Y-69838000D01*
X84747000Y-70092000D01*
X84727000Y-70092000D01*
X84727000Y-70112000D01*
X84527440Y-70112000D01*
X84527440Y-69818000D01*
X84727000Y-69818000D01*
X84727000Y-69838000D01*
X84727000Y-69838000D01*
G37*
X84727000Y-69838000D02*
X84747000Y-69838000D01*
X84747000Y-70092000D01*
X84727000Y-70092000D01*
X84727000Y-70112000D01*
X84527440Y-70112000D01*
X84527440Y-69818000D01*
X84727000Y-69818000D01*
X84727000Y-69838000D01*
G36*
X105047000Y-69838000D02*
X105067000Y-69838000D01*
X105067000Y-70092000D01*
X105047000Y-70092000D01*
X105047000Y-70112000D01*
X104847440Y-70112000D01*
X104847440Y-69818000D01*
X105047000Y-69818000D01*
X105047000Y-69838000D01*
X105047000Y-69838000D01*
G37*
X105047000Y-69838000D02*
X105067000Y-69838000D01*
X105067000Y-70092000D01*
X105047000Y-70092000D01*
X105047000Y-70112000D01*
X104847440Y-70112000D01*
X104847440Y-69818000D01*
X105047000Y-69818000D01*
X105047000Y-69838000D01*
G36*
X125367000Y-69838000D02*
X125387000Y-69838000D01*
X125387000Y-70092000D01*
X125367000Y-70092000D01*
X125367000Y-70112000D01*
X125167440Y-70112000D01*
X125167440Y-69818000D01*
X125367000Y-69818000D01*
X125367000Y-69838000D01*
X125367000Y-69838000D01*
G37*
X125367000Y-69838000D02*
X125387000Y-69838000D01*
X125387000Y-70092000D01*
X125367000Y-70092000D01*
X125367000Y-70112000D01*
X125167440Y-70112000D01*
X125167440Y-69818000D01*
X125367000Y-69818000D01*
X125367000Y-69838000D01*
G36*
X166996302Y-68827170D02*
X166815000Y-69264871D01*
X166815000Y-68788690D01*
X166718327Y-68555301D01*
X166564025Y-68401000D01*
X167422472Y-68401000D01*
X166996302Y-68827170D01*
X166996302Y-68827170D01*
G37*
X166996302Y-68827170D02*
X166815000Y-69264871D01*
X166815000Y-68788690D01*
X166718327Y-68555301D01*
X166564025Y-68401000D01*
X167422472Y-68401000D01*
X166996302Y-68827170D01*
G36*
X85716302Y-68827170D02*
X85535000Y-69264871D01*
X85535000Y-68788690D01*
X85438327Y-68555301D01*
X85284025Y-68401000D01*
X86142472Y-68401000D01*
X85716302Y-68827170D01*
X85716302Y-68827170D01*
G37*
X85716302Y-68827170D02*
X85535000Y-69264871D01*
X85535000Y-68788690D01*
X85438327Y-68555301D01*
X85284025Y-68401000D01*
X86142472Y-68401000D01*
X85716302Y-68827170D01*
G36*
X126356302Y-68827170D02*
X126175000Y-69264871D01*
X126175000Y-68788690D01*
X126078327Y-68555301D01*
X125924025Y-68401000D01*
X126782472Y-68401000D01*
X126356302Y-68827170D01*
X126356302Y-68827170D01*
G37*
X126356302Y-68827170D02*
X126175000Y-69264871D01*
X126175000Y-68788690D01*
X126078327Y-68555301D01*
X125924025Y-68401000D01*
X126782472Y-68401000D01*
X126356302Y-68827170D01*
G36*
X56382191Y-68457191D02*
X56241843Y-68667235D01*
X56192560Y-68915000D01*
X56192560Y-69065844D01*
X56093698Y-68827170D01*
X55667528Y-68401000D01*
X56466286Y-68401000D01*
X56382191Y-68457191D01*
X56382191Y-68457191D01*
G37*
X56382191Y-68457191D02*
X56241843Y-68667235D01*
X56192560Y-68915000D01*
X56192560Y-69065844D01*
X56093698Y-68827170D01*
X55667528Y-68401000D01*
X56466286Y-68401000D01*
X56382191Y-68457191D01*
G36*
X64407002Y-68438748D02*
X64407002Y-68401000D01*
X64444750Y-68401000D01*
X64407002Y-68438748D01*
X64407002Y-68438748D01*
G37*
X64407002Y-68438748D02*
X64407002Y-68401000D01*
X64444750Y-68401000D01*
X64407002Y-68438748D01*
G36*
X186327002Y-68438748D02*
X186327002Y-68401000D01*
X186364750Y-68401000D01*
X186327002Y-68438748D01*
X186327002Y-68438748D01*
G37*
X186327002Y-68438748D02*
X186327002Y-68401000D01*
X186364750Y-68401000D01*
X186327002Y-68438748D01*
G36*
X186072998Y-68438748D02*
X186035250Y-68401000D01*
X186072998Y-68401000D01*
X186072998Y-68438748D01*
X186072998Y-68438748D01*
G37*
X186072998Y-68438748D02*
X186035250Y-68401000D01*
X186072998Y-68401000D01*
X186072998Y-68438748D01*
G36*
X145687002Y-68438748D02*
X145687002Y-68401000D01*
X145724750Y-68401000D01*
X145687002Y-68438748D01*
X145687002Y-68438748D01*
G37*
X145687002Y-68438748D02*
X145687002Y-68401000D01*
X145724750Y-68401000D01*
X145687002Y-68438748D01*
G36*
X145432998Y-68438748D02*
X145395250Y-68401000D01*
X145432998Y-68401000D01*
X145432998Y-68438748D01*
X145432998Y-68438748D01*
G37*
X145432998Y-68438748D02*
X145395250Y-68401000D01*
X145432998Y-68401000D01*
X145432998Y-68438748D01*
G36*
X125112998Y-68438748D02*
X125075250Y-68401000D01*
X125112998Y-68401000D01*
X125112998Y-68438748D01*
X125112998Y-68438748D01*
G37*
X125112998Y-68438748D02*
X125075250Y-68401000D01*
X125112998Y-68401000D01*
X125112998Y-68438748D01*
G36*
X105047002Y-68438748D02*
X105047002Y-68401000D01*
X105084750Y-68401000D01*
X105047002Y-68438748D01*
X105047002Y-68438748D01*
G37*
X105047002Y-68438748D02*
X105047002Y-68401000D01*
X105084750Y-68401000D01*
X105047002Y-68438748D01*
G36*
X104792998Y-68438748D02*
X104755250Y-68401000D01*
X104792998Y-68401000D01*
X104792998Y-68438748D01*
X104792998Y-68438748D01*
G37*
X104792998Y-68438748D02*
X104755250Y-68401000D01*
X104792998Y-68401000D01*
X104792998Y-68438748D01*
G36*
X64152998Y-68438748D02*
X64115250Y-68401000D01*
X64152998Y-68401000D01*
X64152998Y-68438748D01*
X64152998Y-68438748D01*
G37*
X64152998Y-68438748D02*
X64115250Y-68401000D01*
X64152998Y-68401000D01*
X64152998Y-68438748D01*
G36*
X89853748Y-62970858D02*
X89839605Y-62985000D01*
X89853748Y-62999143D01*
X89674143Y-63178748D01*
X89660000Y-63164605D01*
X89645858Y-63178748D01*
X89513000Y-63045890D01*
X89513000Y-62924110D01*
X89645858Y-62791253D01*
X89660000Y-62805395D01*
X89674143Y-62791253D01*
X89853748Y-62970858D01*
X89853748Y-62970858D01*
G37*
X89853748Y-62970858D02*
X89839605Y-62985000D01*
X89853748Y-62999143D01*
X89674143Y-63178748D01*
X89660000Y-63164605D01*
X89645858Y-63178748D01*
X89513000Y-63045890D01*
X89513000Y-62924110D01*
X89645858Y-62791253D01*
X89660000Y-62805395D01*
X89674143Y-62791253D01*
X89853748Y-62970858D01*
G36*
X93027000Y-62924110D02*
X93027000Y-63045890D01*
X92894143Y-63178748D01*
X92880000Y-63164605D01*
X92865858Y-63178748D01*
X92686253Y-62999143D01*
X92700395Y-62985000D01*
X92686253Y-62970858D01*
X92865858Y-62791253D01*
X92880000Y-62805395D01*
X92894143Y-62791253D01*
X93027000Y-62924110D01*
X93027000Y-62924110D01*
G37*
X93027000Y-62924110D02*
X93027000Y-63045890D01*
X92894143Y-63178748D01*
X92880000Y-63164605D01*
X92865858Y-63178748D01*
X92686253Y-62999143D01*
X92700395Y-62985000D01*
X92686253Y-62970858D01*
X92865858Y-62791253D01*
X92880000Y-62805395D01*
X92894143Y-62791253D01*
X93027000Y-62924110D01*
G36*
X72707000Y-62924110D02*
X72707000Y-63045890D01*
X72574143Y-63178748D01*
X72560000Y-63164605D01*
X72545858Y-63178748D01*
X72366253Y-62999143D01*
X72380395Y-62985000D01*
X72366253Y-62970858D01*
X72545858Y-62791253D01*
X72560000Y-62805395D01*
X72574143Y-62791253D01*
X72707000Y-62924110D01*
X72707000Y-62924110D01*
G37*
X72707000Y-62924110D02*
X72707000Y-63045890D01*
X72574143Y-63178748D01*
X72560000Y-63164605D01*
X72545858Y-63178748D01*
X72366253Y-62999143D01*
X72380395Y-62985000D01*
X72366253Y-62970858D01*
X72545858Y-62791253D01*
X72560000Y-62805395D01*
X72574143Y-62791253D01*
X72707000Y-62924110D01*
G36*
X110173748Y-62970858D02*
X110159605Y-62985000D01*
X110173748Y-62999143D01*
X109994143Y-63178748D01*
X109980000Y-63164605D01*
X109965858Y-63178748D01*
X109833000Y-63045890D01*
X109833000Y-62924110D01*
X109965858Y-62791253D01*
X109980000Y-62805395D01*
X109994143Y-62791253D01*
X110173748Y-62970858D01*
X110173748Y-62970858D01*
G37*
X110173748Y-62970858D02*
X110159605Y-62985000D01*
X110173748Y-62999143D01*
X109994143Y-63178748D01*
X109980000Y-63164605D01*
X109965858Y-63178748D01*
X109833000Y-63045890D01*
X109833000Y-62924110D01*
X109965858Y-62791253D01*
X109980000Y-62805395D01*
X109994143Y-62791253D01*
X110173748Y-62970858D01*
G36*
X113347000Y-62924110D02*
X113347000Y-63045890D01*
X113214143Y-63178748D01*
X113200000Y-63164605D01*
X113185858Y-63178748D01*
X113006253Y-62999143D01*
X113020395Y-62985000D01*
X113006253Y-62970858D01*
X113185858Y-62791253D01*
X113200000Y-62805395D01*
X113214143Y-62791253D01*
X113347000Y-62924110D01*
X113347000Y-62924110D01*
G37*
X113347000Y-62924110D02*
X113347000Y-63045890D01*
X113214143Y-63178748D01*
X113200000Y-63164605D01*
X113185858Y-63178748D01*
X113006253Y-62999143D01*
X113020395Y-62985000D01*
X113006253Y-62970858D01*
X113185858Y-62791253D01*
X113200000Y-62805395D01*
X113214143Y-62791253D01*
X113347000Y-62924110D01*
G36*
X52387000Y-62924110D02*
X52387000Y-63045890D01*
X52254143Y-63178748D01*
X52240000Y-63164605D01*
X52225858Y-63178748D01*
X52046253Y-62999143D01*
X52060395Y-62985000D01*
X52046253Y-62970858D01*
X52225858Y-62791253D01*
X52240000Y-62805395D01*
X52254143Y-62791253D01*
X52387000Y-62924110D01*
X52387000Y-62924110D01*
G37*
X52387000Y-62924110D02*
X52387000Y-63045890D01*
X52254143Y-63178748D01*
X52240000Y-63164605D01*
X52225858Y-63178748D01*
X52046253Y-62999143D01*
X52060395Y-62985000D01*
X52046253Y-62970858D01*
X52225858Y-62791253D01*
X52240000Y-62805395D01*
X52254143Y-62791253D01*
X52387000Y-62924110D01*
G36*
X69533748Y-62970858D02*
X69519605Y-62985000D01*
X69533748Y-62999143D01*
X69354143Y-63178748D01*
X69340000Y-63164605D01*
X69325858Y-63178748D01*
X69193000Y-63045890D01*
X69193000Y-62924110D01*
X69325858Y-62791253D01*
X69340000Y-62805395D01*
X69354143Y-62791253D01*
X69533748Y-62970858D01*
X69533748Y-62970858D01*
G37*
X69533748Y-62970858D02*
X69519605Y-62985000D01*
X69533748Y-62999143D01*
X69354143Y-63178748D01*
X69340000Y-63164605D01*
X69325858Y-63178748D01*
X69193000Y-63045890D01*
X69193000Y-62924110D01*
X69325858Y-62791253D01*
X69340000Y-62805395D01*
X69354143Y-62791253D01*
X69533748Y-62970858D01*
G36*
X171133748Y-62970858D02*
X171119605Y-62985000D01*
X171133748Y-62999143D01*
X170954143Y-63178748D01*
X170940000Y-63164605D01*
X170925858Y-63178748D01*
X170793000Y-63045890D01*
X170793000Y-62924110D01*
X170925858Y-62791253D01*
X170940000Y-62805395D01*
X170954143Y-62791253D01*
X171133748Y-62970858D01*
X171133748Y-62970858D01*
G37*
X171133748Y-62970858D02*
X171119605Y-62985000D01*
X171133748Y-62999143D01*
X170954143Y-63178748D01*
X170940000Y-63164605D01*
X170925858Y-63178748D01*
X170793000Y-63045890D01*
X170793000Y-62924110D01*
X170925858Y-62791253D01*
X170940000Y-62805395D01*
X170954143Y-62791253D01*
X171133748Y-62970858D01*
G36*
X194627000Y-62924110D02*
X194627000Y-63045890D01*
X194494143Y-63178748D01*
X194480000Y-63164605D01*
X194465858Y-63178748D01*
X194286253Y-62999143D01*
X194300395Y-62985000D01*
X194286253Y-62970858D01*
X194465858Y-62791253D01*
X194480000Y-62805395D01*
X194494143Y-62791253D01*
X194627000Y-62924110D01*
X194627000Y-62924110D01*
G37*
X194627000Y-62924110D02*
X194627000Y-63045890D01*
X194494143Y-63178748D01*
X194480000Y-63164605D01*
X194465858Y-63178748D01*
X194286253Y-62999143D01*
X194300395Y-62985000D01*
X194286253Y-62970858D01*
X194465858Y-62791253D01*
X194480000Y-62805395D01*
X194494143Y-62791253D01*
X194627000Y-62924110D01*
G36*
X211773748Y-62970858D02*
X211759605Y-62985000D01*
X211773748Y-62999143D01*
X211594143Y-63178748D01*
X211580000Y-63164605D01*
X211565858Y-63178748D01*
X211433000Y-63045890D01*
X211433000Y-62924110D01*
X211565858Y-62791253D01*
X211580000Y-62805395D01*
X211594143Y-62791253D01*
X211773748Y-62970858D01*
X211773748Y-62970858D01*
G37*
X211773748Y-62970858D02*
X211759605Y-62985000D01*
X211773748Y-62999143D01*
X211594143Y-63178748D01*
X211580000Y-63164605D01*
X211565858Y-63178748D01*
X211433000Y-63045890D01*
X211433000Y-62924110D01*
X211565858Y-62791253D01*
X211580000Y-62805395D01*
X211594143Y-62791253D01*
X211773748Y-62970858D01*
G36*
X191453748Y-62970858D02*
X191439605Y-62985000D01*
X191453748Y-62999143D01*
X191274143Y-63178748D01*
X191260000Y-63164605D01*
X191245858Y-63178748D01*
X191113000Y-63045890D01*
X191113000Y-62924110D01*
X191245858Y-62791253D01*
X191260000Y-62805395D01*
X191274143Y-62791253D01*
X191453748Y-62970858D01*
X191453748Y-62970858D01*
G37*
X191453748Y-62970858D02*
X191439605Y-62985000D01*
X191453748Y-62999143D01*
X191274143Y-63178748D01*
X191260000Y-63164605D01*
X191245858Y-63178748D01*
X191113000Y-63045890D01*
X191113000Y-62924110D01*
X191245858Y-62791253D01*
X191260000Y-62805395D01*
X191274143Y-62791253D01*
X191453748Y-62970858D01*
G36*
X174307000Y-62924110D02*
X174307000Y-63045890D01*
X174174143Y-63178748D01*
X174160000Y-63164605D01*
X174145858Y-63178748D01*
X173966253Y-62999143D01*
X173980395Y-62985000D01*
X173966253Y-62970858D01*
X174145858Y-62791253D01*
X174160000Y-62805395D01*
X174174143Y-62791253D01*
X174307000Y-62924110D01*
X174307000Y-62924110D01*
G37*
X174307000Y-62924110D02*
X174307000Y-63045890D01*
X174174143Y-63178748D01*
X174160000Y-63164605D01*
X174145858Y-63178748D01*
X173966253Y-62999143D01*
X173980395Y-62985000D01*
X173966253Y-62970858D01*
X174145858Y-62791253D01*
X174160000Y-62805395D01*
X174174143Y-62791253D01*
X174307000Y-62924110D01*
G36*
X133667000Y-62924110D02*
X133667000Y-63045890D01*
X133534143Y-63178748D01*
X133520000Y-63164605D01*
X133505858Y-63178748D01*
X133326253Y-62999143D01*
X133340395Y-62985000D01*
X133326253Y-62970858D01*
X133505858Y-62791253D01*
X133520000Y-62805395D01*
X133534143Y-62791253D01*
X133667000Y-62924110D01*
X133667000Y-62924110D01*
G37*
X133667000Y-62924110D02*
X133667000Y-63045890D01*
X133534143Y-63178748D01*
X133520000Y-63164605D01*
X133505858Y-63178748D01*
X133326253Y-62999143D01*
X133340395Y-62985000D01*
X133326253Y-62970858D01*
X133505858Y-62791253D01*
X133520000Y-62805395D01*
X133534143Y-62791253D01*
X133667000Y-62924110D01*
G36*
X153987000Y-62924110D02*
X153987000Y-63045890D01*
X153854143Y-63178748D01*
X153840000Y-63164605D01*
X153825858Y-63178748D01*
X153646253Y-62999143D01*
X153660395Y-62985000D01*
X153646253Y-62970858D01*
X153825858Y-62791253D01*
X153840000Y-62805395D01*
X153854143Y-62791253D01*
X153987000Y-62924110D01*
X153987000Y-62924110D01*
G37*
X153987000Y-62924110D02*
X153987000Y-63045890D01*
X153854143Y-63178748D01*
X153840000Y-63164605D01*
X153825858Y-63178748D01*
X153646253Y-62999143D01*
X153660395Y-62985000D01*
X153646253Y-62970858D01*
X153825858Y-62791253D01*
X153840000Y-62805395D01*
X153854143Y-62791253D01*
X153987000Y-62924110D01*
G36*
X150813748Y-62970858D02*
X150799605Y-62985000D01*
X150813748Y-62999143D01*
X150634143Y-63178748D01*
X150620000Y-63164605D01*
X150605858Y-63178748D01*
X150473000Y-63045890D01*
X150473000Y-62924110D01*
X150605858Y-62791253D01*
X150620000Y-62805395D01*
X150634143Y-62791253D01*
X150813748Y-62970858D01*
X150813748Y-62970858D01*
G37*
X150813748Y-62970858D02*
X150799605Y-62985000D01*
X150813748Y-62999143D01*
X150634143Y-63178748D01*
X150620000Y-63164605D01*
X150605858Y-63178748D01*
X150473000Y-63045890D01*
X150473000Y-62924110D01*
X150605858Y-62791253D01*
X150620000Y-62805395D01*
X150634143Y-62791253D01*
X150813748Y-62970858D01*
G36*
X130493748Y-62970858D02*
X130479605Y-62985000D01*
X130493748Y-62999143D01*
X130314143Y-63178748D01*
X130300000Y-63164605D01*
X130285858Y-63178748D01*
X130153000Y-63045890D01*
X130153000Y-62924110D01*
X130285858Y-62791253D01*
X130300000Y-62805395D01*
X130314143Y-62791253D01*
X130493748Y-62970858D01*
X130493748Y-62970858D01*
G37*
X130493748Y-62970858D02*
X130479605Y-62985000D01*
X130493748Y-62999143D01*
X130314143Y-63178748D01*
X130300000Y-63164605D01*
X130285858Y-63178748D01*
X130153000Y-63045890D01*
X130153000Y-62924110D01*
X130285858Y-62791253D01*
X130300000Y-62805395D01*
X130314143Y-62791253D01*
X130493748Y-62970858D01*
%TD*%
M02*
