M48
;DRILL file {KiCad (5.0.1)-3} date 23/12/2018 12:05:23 PM
;FORMAT={-:-/ absolute / inch / decimal}
FMAT,2
INCH,TZ
T1C0.0157
T2C0.0315
T3C0.0394
T4C0.0748
%
G90
G05
M72
T1
X2.265Y-2.855
X2.475Y-3.425
X2.89Y-3.57
X3.05Y-2.855
X3.82Y-2.855
X4.1Y-3.435
X4.1Y-3.325
X4.175Y-3.22
X4.175Y-3.45
X4.1792Y-3.3831
X4.235Y-3.19
X4.25Y-3.4
X4.25Y-3.45
X4.28Y-3.175
X4.62Y-3.52
X4.635Y-2.855
X4.71Y-3.29
X4.775Y-3.7
X4.8Y-3.625
X4.95Y-3.0045
X4.99Y-3.425
X5.015Y-3.19
X5.02Y-3.365
X5.095Y-3.155
X5.1Y-3.07
X5.165Y-3.325
X5.27Y-3.325
X5.37Y-2.855
X5.425Y-3.405
X5.685Y-3.485
X5.975Y-3.625
X6.17Y-2.855
X6.695Y-3.835
X6.985Y-2.825
X7.775Y-2.855
T2
X6.8567Y-2.4797
X7.5299Y-2.4797
X7.6567Y-2.4797
X8.3299Y-2.4797
X6.0567Y-2.4797
X6.7299Y-2.4797
X3.8601Y-3.8353
X4.5333Y-3.8353
X2.0567Y-2.4797
X2.7299Y-2.4797
X3.0601Y-3.8353
X3.7333Y-3.8353
X5.2567Y-2.4797
X5.9299Y-2.4797
X4.4567Y-2.4797
X5.1299Y-2.4797
X2.8567Y-2.4797
X3.5299Y-2.4797
X3.6567Y-2.4797
X4.3299Y-2.4797
T3
X4.795Y-3.895
X4.895Y-3.895
X4.995Y-3.895
X5.095Y-3.895
X5.195Y-3.895
T4
X6.9555Y-2.7451
X7.4276Y-2.7451
X7.7555Y-2.7451
X8.2276Y-2.7451
X6.1555Y-2.7451
X6.6276Y-2.7451
X3.9624Y-3.5699
X4.4345Y-3.5699
X2.1555Y-2.7451
X2.6276Y-2.7451
X3.1624Y-3.5699
X3.6345Y-3.5699
X5.3555Y-2.7451
X5.8276Y-2.7451
X4.5555Y-2.7451
X5.0276Y-2.7451
X2.9555Y-2.7451
X3.4276Y-2.7451
X3.7555Y-2.7451
X4.2276Y-2.7451
T0
M30
