G04 #@! TF.FileFunction,Profile,NP*
%FSLAX46Y46*%
G04 Gerber Fmt 4.6, Leading zero omitted, Abs format (unit mm)*
G04 Created by KiCad (PCBNEW 4.0.4-stable) date 11/13/16 23:18:12*
%MOMM*%
%LPD*%
G01*
G04 APERTURE LIST*
%ADD10C,0.100000*%
%ADD11C,0.001000*%
%ADD12C,0.150000*%
G04 APERTURE END LIST*
D10*
D11*
X225488500Y-115697000D02*
X225552000Y-115697000D01*
X225107500Y-146240500D02*
X209486500Y-146240500D01*
X207772000Y-144526000D02*
G75*
G03X209486500Y-146240500I1714500J0D01*
G01*
X225107500Y-146240500D02*
G75*
G03X226695000Y-144653000I0J1587500D01*
G01*
X226695000Y-144653000D02*
G75*
G03X225107500Y-143065500I-1587500J0D01*
G01*
X210820000Y-115824000D02*
X210820000Y-115697000D01*
X209296000Y-112776000D02*
G75*
G03X207772000Y-114300000I0J-1524000D01*
G01*
X225361500Y-115697000D02*
X225488500Y-115697000D01*
X225552000Y-115697000D02*
G75*
G03X226885500Y-114109500I-127000J1460500D01*
G01*
X226885500Y-114109500D02*
G75*
G03X225298000Y-112776000I-1460500J-127000D01*
G01*
X225298000Y-112776000D02*
X209296000Y-112776000D01*
X207772000Y-144526000D02*
X207772000Y-114300000D01*
X210820000Y-143065500D02*
X225107500Y-143065500D01*
X210820000Y-115824000D02*
X210820000Y-143065500D01*
X225361500Y-115697000D02*
X210820000Y-115697000D01*
D12*
X180721000Y-160528000D02*
X229616000Y-160528000D01*
X180721000Y-152400000D02*
X180721000Y-160528000D01*
X167322500Y-152400000D02*
X180721000Y-152400000D01*
X167322500Y-160528000D02*
X167322500Y-152400000D01*
X160401000Y-160528000D02*
X167322500Y-160528000D01*
X160401000Y-152400000D02*
X160401000Y-160528000D01*
X147002500Y-152400000D02*
X160401000Y-152400000D01*
X147002500Y-160528000D02*
X147002500Y-152400000D01*
X129794000Y-160528000D02*
X147002500Y-160528000D01*
X129794000Y-160528000D02*
X129794000Y-60706000D01*
X229616000Y-60706000D02*
X229616000Y-160528000D01*
X129794000Y-60706000D02*
X229616000Y-60706000D01*
M02*
