%TF.GenerationSoftware,KiCad,Pcbnew,(5.0.1)-3*%
%TF.CreationDate,2018-12-23T12:05:20+11:00*%
%TF.ProjectId,1Wire-SoManySwitches,31576972652D536F4D616E7953776974,1.2*%
%TF.SameCoordinates,Original*%
%TF.FileFunction,Soldermask,Top*%
%TF.FilePolarity,Negative*%
%FSLAX46Y46*%
G04 Gerber Fmt 4.6, Leading zero omitted, Abs format (unit mm)*
G04 Created by KiCad (PCBNEW (5.0.1)-3) date 23/12/2018 12:05:20 PM*
%MOMM*%
%LPD*%
G01*
G04 APERTURE LIST*
%ADD10C,0.100000*%
G04 APERTURE END LIST*
D10*
G36*
X132081707Y-97890596D02*
X132158836Y-97898193D01*
X132290787Y-97938220D01*
X132356763Y-97958233D01*
X132539172Y-98055733D01*
X132699054Y-98186946D01*
X132830267Y-98346828D01*
X132927767Y-98529237D01*
X132927767Y-98529238D01*
X132987807Y-98727164D01*
X133008080Y-98933000D01*
X132987807Y-99138836D01*
X132954389Y-99249000D01*
X132927767Y-99336763D01*
X132830267Y-99519172D01*
X132699054Y-99679054D01*
X132539172Y-99810267D01*
X132356763Y-99907767D01*
X132290787Y-99927780D01*
X132158836Y-99967807D01*
X132081707Y-99975404D01*
X132004580Y-99983000D01*
X131901420Y-99983000D01*
X131824293Y-99975403D01*
X131747164Y-99967807D01*
X131615213Y-99927780D01*
X131549237Y-99907767D01*
X131366828Y-99810267D01*
X131206946Y-99679054D01*
X131075733Y-99519172D01*
X130978233Y-99336763D01*
X130951611Y-99249000D01*
X130918193Y-99138836D01*
X130897920Y-98933000D01*
X130918193Y-98727164D01*
X130978233Y-98529238D01*
X130978233Y-98529237D01*
X131075733Y-98346828D01*
X131206946Y-98186946D01*
X131366828Y-98055733D01*
X131549237Y-97958233D01*
X131615213Y-97938220D01*
X131747164Y-97898193D01*
X131824293Y-97890597D01*
X131901420Y-97883000D01*
X132004580Y-97883000D01*
X132081707Y-97890596D01*
X132081707Y-97890596D01*
G37*
G36*
X129541707Y-97890596D02*
X129618836Y-97898193D01*
X129750787Y-97938220D01*
X129816763Y-97958233D01*
X129999172Y-98055733D01*
X130159054Y-98186946D01*
X130290267Y-98346828D01*
X130387767Y-98529237D01*
X130387767Y-98529238D01*
X130447807Y-98727164D01*
X130468080Y-98933000D01*
X130447807Y-99138836D01*
X130414389Y-99249000D01*
X130387767Y-99336763D01*
X130290267Y-99519172D01*
X130159054Y-99679054D01*
X129999172Y-99810267D01*
X129816763Y-99907767D01*
X129750787Y-99927780D01*
X129618836Y-99967807D01*
X129541707Y-99975404D01*
X129464580Y-99983000D01*
X129361420Y-99983000D01*
X129284293Y-99975403D01*
X129207164Y-99967807D01*
X129075213Y-99927780D01*
X129009237Y-99907767D01*
X128826828Y-99810267D01*
X128666946Y-99679054D01*
X128535733Y-99519172D01*
X128438233Y-99336763D01*
X128411611Y-99249000D01*
X128378193Y-99138836D01*
X128357920Y-98933000D01*
X128378193Y-98727164D01*
X128438233Y-98529238D01*
X128438233Y-98529237D01*
X128535733Y-98346828D01*
X128666946Y-98186946D01*
X128826828Y-98055733D01*
X129009237Y-97958233D01*
X129075213Y-97938220D01*
X129207164Y-97898193D01*
X129284293Y-97890597D01*
X129361420Y-97883000D01*
X129464580Y-97883000D01*
X129541707Y-97890596D01*
X129541707Y-97890596D01*
G37*
G36*
X122843000Y-99983000D02*
X120743000Y-99983000D01*
X120743000Y-97883000D01*
X122843000Y-97883000D01*
X122843000Y-99983000D01*
X122843000Y-99983000D01*
G37*
G36*
X127001707Y-97890596D02*
X127078836Y-97898193D01*
X127210787Y-97938220D01*
X127276763Y-97958233D01*
X127459172Y-98055733D01*
X127619054Y-98186946D01*
X127750267Y-98346828D01*
X127847767Y-98529237D01*
X127847767Y-98529238D01*
X127907807Y-98727164D01*
X127928080Y-98933000D01*
X127907807Y-99138836D01*
X127874389Y-99249000D01*
X127847767Y-99336763D01*
X127750267Y-99519172D01*
X127619054Y-99679054D01*
X127459172Y-99810267D01*
X127276763Y-99907767D01*
X127210787Y-99927780D01*
X127078836Y-99967807D01*
X127001707Y-99975404D01*
X126924580Y-99983000D01*
X126821420Y-99983000D01*
X126744293Y-99975403D01*
X126667164Y-99967807D01*
X126535213Y-99927780D01*
X126469237Y-99907767D01*
X126286828Y-99810267D01*
X126126946Y-99679054D01*
X125995733Y-99519172D01*
X125898233Y-99336763D01*
X125871611Y-99249000D01*
X125838193Y-99138836D01*
X125817920Y-98933000D01*
X125838193Y-98727164D01*
X125898233Y-98529238D01*
X125898233Y-98529237D01*
X125995733Y-98346828D01*
X126126946Y-98186946D01*
X126286828Y-98055733D01*
X126469237Y-97958233D01*
X126535213Y-97938220D01*
X126667164Y-97898193D01*
X126744293Y-97890597D01*
X126821420Y-97883000D01*
X126924580Y-97883000D01*
X127001707Y-97890596D01*
X127001707Y-97890596D01*
G37*
G36*
X124461707Y-97890596D02*
X124538836Y-97898193D01*
X124670787Y-97938220D01*
X124736763Y-97958233D01*
X124919172Y-98055733D01*
X125079054Y-98186946D01*
X125210267Y-98346828D01*
X125307767Y-98529237D01*
X125307767Y-98529238D01*
X125367807Y-98727164D01*
X125388080Y-98933000D01*
X125367807Y-99138836D01*
X125334389Y-99249000D01*
X125307767Y-99336763D01*
X125210267Y-99519172D01*
X125079054Y-99679054D01*
X124919172Y-99810267D01*
X124736763Y-99907767D01*
X124670787Y-99927780D01*
X124538836Y-99967807D01*
X124461707Y-99975404D01*
X124384580Y-99983000D01*
X124281420Y-99983000D01*
X124204293Y-99975403D01*
X124127164Y-99967807D01*
X123995213Y-99927780D01*
X123929237Y-99907767D01*
X123746828Y-99810267D01*
X123586946Y-99679054D01*
X123455733Y-99519172D01*
X123358233Y-99336763D01*
X123331611Y-99249000D01*
X123298193Y-99138836D01*
X123277920Y-98933000D01*
X123298193Y-98727164D01*
X123358233Y-98529238D01*
X123358233Y-98529237D01*
X123455733Y-98346828D01*
X123586946Y-98186946D01*
X123746828Y-98055733D01*
X123929237Y-97958233D01*
X123995213Y-97938220D01*
X124127164Y-97898193D01*
X124204293Y-97890597D01*
X124281420Y-97883000D01*
X124384580Y-97883000D01*
X124461707Y-97890596D01*
X124461707Y-97890596D01*
G37*
G36*
X78676000Y-99616000D02*
X76776000Y-99616000D01*
X76776000Y-95216000D01*
X78676000Y-95216000D01*
X78676000Y-99616000D01*
X78676000Y-99616000D01*
G37*
G36*
X98996000Y-99616000D02*
X97096000Y-99616000D01*
X97096000Y-95216000D01*
X98996000Y-95216000D01*
X98996000Y-99616000D01*
X98996000Y-99616000D01*
G37*
G36*
X116096000Y-99616000D02*
X114196000Y-99616000D01*
X114196000Y-95216000D01*
X116096000Y-95216000D01*
X116096000Y-99616000D01*
X116096000Y-99616000D01*
G37*
G36*
X95776000Y-99616000D02*
X93876000Y-99616000D01*
X93876000Y-95216000D01*
X95776000Y-95216000D01*
X95776000Y-99616000D01*
X95776000Y-99616000D01*
G37*
G36*
X168836000Y-99249000D02*
X166436000Y-99249000D01*
X166436000Y-95349000D01*
X168836000Y-95349000D01*
X168836000Y-99249000D01*
X168836000Y-99249000D01*
G37*
G36*
X173416000Y-99249000D02*
X171016000Y-99249000D01*
X171016000Y-95349000D01*
X173416000Y-95349000D01*
X173416000Y-99249000D01*
X173416000Y-99249000D01*
G37*
G36*
X158549000Y-99103000D02*
X155649000Y-99103000D01*
X155649000Y-94703000D01*
X158549000Y-94703000D01*
X158549000Y-99103000D01*
X158549000Y-99103000D01*
G37*
G36*
X61665000Y-97736000D02*
X57665000Y-97736000D01*
X57665000Y-96066000D01*
X61665000Y-96066000D01*
X61665000Y-97736000D01*
X61665000Y-97736000D01*
G37*
G36*
X68065000Y-97736000D02*
X64065000Y-97736000D01*
X64065000Y-96066000D01*
X68065000Y-96066000D01*
X68065000Y-97736000D01*
X68065000Y-97736000D01*
G37*
G36*
X74056000Y-95700000D02*
X72756000Y-95700000D01*
X72756000Y-94800000D01*
X74056000Y-94800000D01*
X74056000Y-95700000D01*
X74056000Y-95700000D01*
G37*
G36*
X68065000Y-95196000D02*
X64065000Y-95196000D01*
X64065000Y-93526000D01*
X68065000Y-93526000D01*
X68065000Y-95196000D01*
X68065000Y-95196000D01*
G37*
G36*
X61665000Y-95196000D02*
X57665000Y-95196000D01*
X57665000Y-93526000D01*
X61665000Y-93526000D01*
X61665000Y-95196000D01*
X61665000Y-95196000D01*
G37*
G36*
X74056000Y-94200000D02*
X72756000Y-94200000D01*
X72756000Y-93300000D01*
X74056000Y-93300000D01*
X74056000Y-94200000D01*
X74056000Y-94200000D01*
G37*
G36*
X173636000Y-93599000D02*
X166236000Y-93599000D01*
X166236000Y-86199000D01*
X173636000Y-86199000D01*
X173636000Y-93599000D01*
X173636000Y-93599000D01*
G37*
G36*
X158549000Y-93003000D02*
X155649000Y-93003000D01*
X155649000Y-88603000D01*
X158549000Y-88603000D01*
X158549000Y-93003000D01*
X158549000Y-93003000D01*
G37*
G36*
X61665000Y-92656000D02*
X57665000Y-92656000D01*
X57665000Y-90986000D01*
X61665000Y-90986000D01*
X61665000Y-92656000D01*
X61665000Y-92656000D01*
G37*
G36*
X68065000Y-92656000D02*
X64065000Y-92656000D01*
X64065000Y-90986000D01*
X68065000Y-90986000D01*
X68065000Y-92656000D01*
X68065000Y-92656000D01*
G37*
G36*
X112971443Y-89570194D02*
X113180728Y-89656883D01*
X113369085Y-89782739D01*
X113529261Y-89942915D01*
X113655117Y-90131272D01*
X113741806Y-90340557D01*
X113786000Y-90562734D01*
X113786000Y-90789266D01*
X113741806Y-91011443D01*
X113655117Y-91220728D01*
X113529261Y-91409085D01*
X113369085Y-91569261D01*
X113180728Y-91695117D01*
X112971443Y-91781806D01*
X112749266Y-91826000D01*
X112522734Y-91826000D01*
X112300557Y-91781806D01*
X112091272Y-91695117D01*
X111902915Y-91569261D01*
X111742739Y-91409085D01*
X111616883Y-91220728D01*
X111530194Y-91011443D01*
X111486000Y-90789266D01*
X111486000Y-90562734D01*
X111530194Y-90340557D01*
X111616883Y-90131272D01*
X111742739Y-89942915D01*
X111902915Y-89782739D01*
X112091272Y-89656883D01*
X112300557Y-89570194D01*
X112522734Y-89526000D01*
X112749266Y-89526000D01*
X112971443Y-89570194D01*
X112971443Y-89570194D01*
G37*
G36*
X80661443Y-89570194D02*
X80870728Y-89656883D01*
X81059085Y-89782739D01*
X81219261Y-89942915D01*
X81345117Y-90131272D01*
X81431806Y-90340557D01*
X81476000Y-90562734D01*
X81476000Y-90789266D01*
X81431806Y-91011443D01*
X81345117Y-91220728D01*
X81219261Y-91409085D01*
X81059085Y-91569261D01*
X80870728Y-91695117D01*
X80661443Y-91781806D01*
X80439266Y-91826000D01*
X80212734Y-91826000D01*
X79990557Y-91781806D01*
X79781272Y-91695117D01*
X79592915Y-91569261D01*
X79432739Y-91409085D01*
X79306883Y-91220728D01*
X79220194Y-91011443D01*
X79176000Y-90789266D01*
X79176000Y-90562734D01*
X79220194Y-90340557D01*
X79306883Y-90131272D01*
X79432739Y-89942915D01*
X79592915Y-89782739D01*
X79781272Y-89656883D01*
X79990557Y-89570194D01*
X80212734Y-89526000D01*
X80439266Y-89526000D01*
X80661443Y-89570194D01*
X80661443Y-89570194D01*
G37*
G36*
X100981443Y-89570194D02*
X101190728Y-89656883D01*
X101379085Y-89782739D01*
X101539261Y-89942915D01*
X101665117Y-90131272D01*
X101751806Y-90340557D01*
X101796000Y-90562734D01*
X101796000Y-90789266D01*
X101751806Y-91011443D01*
X101665117Y-91220728D01*
X101539261Y-91409085D01*
X101379085Y-91569261D01*
X101190728Y-91695117D01*
X100981443Y-91781806D01*
X100759266Y-91826000D01*
X100532734Y-91826000D01*
X100310557Y-91781806D01*
X100101272Y-91695117D01*
X99912915Y-91569261D01*
X99752739Y-91409085D01*
X99626883Y-91220728D01*
X99540194Y-91011443D01*
X99496000Y-90789266D01*
X99496000Y-90562734D01*
X99540194Y-90340557D01*
X99626883Y-90131272D01*
X99752739Y-89942915D01*
X99912915Y-89782739D01*
X100101272Y-89656883D01*
X100310557Y-89570194D01*
X100532734Y-89526000D01*
X100759266Y-89526000D01*
X100981443Y-89570194D01*
X100981443Y-89570194D01*
G37*
G36*
X92651443Y-89570194D02*
X92860728Y-89656883D01*
X93049085Y-89782739D01*
X93209261Y-89942915D01*
X93335117Y-90131272D01*
X93421806Y-90340557D01*
X93466000Y-90562734D01*
X93466000Y-90789266D01*
X93421806Y-91011443D01*
X93335117Y-91220728D01*
X93209261Y-91409085D01*
X93049085Y-91569261D01*
X92860728Y-91695117D01*
X92651443Y-91781806D01*
X92429266Y-91826000D01*
X92202734Y-91826000D01*
X91980557Y-91781806D01*
X91771272Y-91695117D01*
X91582915Y-91569261D01*
X91422739Y-91409085D01*
X91296883Y-91220728D01*
X91210194Y-91011443D01*
X91166000Y-90789266D01*
X91166000Y-90562734D01*
X91210194Y-90340557D01*
X91296883Y-90131272D01*
X91422739Y-89942915D01*
X91582915Y-89782739D01*
X91771272Y-89656883D01*
X91980557Y-89570194D01*
X92202734Y-89526000D01*
X92429266Y-89526000D01*
X92651443Y-89570194D01*
X92651443Y-89570194D01*
G37*
G36*
X90426000Y-91686000D02*
X82286000Y-91686000D01*
X82286000Y-89186000D01*
X90426000Y-89186000D01*
X90426000Y-91686000D01*
X90426000Y-91686000D01*
G37*
G36*
X110746000Y-91686000D02*
X102606000Y-91686000D01*
X102606000Y-89186000D01*
X110746000Y-89186000D01*
X110746000Y-91686000D01*
X110746000Y-91686000D01*
G37*
G36*
X68065000Y-90116000D02*
X64065000Y-90116000D01*
X64065000Y-88446000D01*
X68065000Y-88446000D01*
X68065000Y-90116000D01*
X68065000Y-90116000D01*
G37*
G36*
X61665000Y-90116000D02*
X57665000Y-90116000D01*
X57665000Y-88446000D01*
X61665000Y-88446000D01*
X61665000Y-90116000D01*
X61665000Y-90116000D01*
G37*
G36*
X139894000Y-88472000D02*
X138744000Y-88472000D01*
X138744000Y-87272000D01*
X139894000Y-87272000D01*
X139894000Y-88472000D01*
X139894000Y-88472000D01*
G37*
G36*
X142053000Y-88472000D02*
X140903000Y-88472000D01*
X140903000Y-87272000D01*
X142053000Y-87272000D01*
X142053000Y-88472000D01*
X142053000Y-88472000D01*
G37*
G36*
X135520000Y-87680000D02*
X127370000Y-87680000D01*
X127370000Y-86280000D01*
X135520000Y-86280000D01*
X135520000Y-87680000D01*
X135520000Y-87680000D01*
G37*
G36*
X61665000Y-87576000D02*
X57665000Y-87576000D01*
X57665000Y-85906000D01*
X61665000Y-85906000D01*
X61665000Y-87576000D01*
X61665000Y-87576000D01*
G37*
G36*
X68065000Y-87576000D02*
X64065000Y-87576000D01*
X64065000Y-85906000D01*
X68065000Y-85906000D01*
X68065000Y-87576000D01*
X68065000Y-87576000D01*
G37*
G36*
X139894000Y-86972000D02*
X138744000Y-86972000D01*
X138744000Y-85772000D01*
X139894000Y-85772000D01*
X139894000Y-86972000D01*
X139894000Y-86972000D01*
G37*
G36*
X142053000Y-86972000D02*
X140903000Y-86972000D01*
X140903000Y-85772000D01*
X142053000Y-85772000D01*
X142053000Y-86972000D01*
X142053000Y-86972000D01*
G37*
G36*
X121733000Y-85551000D02*
X120583000Y-85551000D01*
X120583000Y-84351000D01*
X121733000Y-84351000D01*
X121733000Y-85551000D01*
X121733000Y-85551000D01*
G37*
G36*
X126445000Y-85355000D02*
X125045000Y-85355000D01*
X125045000Y-77205000D01*
X126445000Y-77205000D01*
X126445000Y-85355000D01*
X126445000Y-85355000D01*
G37*
G36*
X137845000Y-85355000D02*
X136445000Y-85355000D01*
X136445000Y-77205000D01*
X137845000Y-77205000D01*
X137845000Y-85355000D01*
X137845000Y-85355000D01*
G37*
G36*
X121733000Y-84051000D02*
X120583000Y-84051000D01*
X120583000Y-82851000D01*
X121733000Y-82851000D01*
X121733000Y-84051000D01*
X121733000Y-84051000D01*
G37*
G36*
X123765000Y-76915000D02*
X122615000Y-76915000D01*
X122615000Y-75715000D01*
X123765000Y-75715000D01*
X123765000Y-76915000D01*
X123765000Y-76915000D01*
G37*
G36*
X135520000Y-76280000D02*
X127370000Y-76280000D01*
X127370000Y-74880000D01*
X135520000Y-74880000D01*
X135520000Y-76280000D01*
X135520000Y-76280000D01*
G37*
G36*
X123765000Y-75415000D02*
X122615000Y-75415000D01*
X122615000Y-74215000D01*
X123765000Y-74215000D01*
X123765000Y-75415000D01*
X123765000Y-75415000D01*
G37*
G36*
X105420000Y-71215000D02*
X97280000Y-71215000D01*
X97280000Y-68715000D01*
X105420000Y-68715000D01*
X105420000Y-71215000D01*
X105420000Y-71215000D01*
G37*
G36*
X64780000Y-71215000D02*
X56640000Y-71215000D01*
X56640000Y-68715000D01*
X64780000Y-68715000D01*
X64780000Y-71215000D01*
X64780000Y-71215000D01*
G37*
G36*
X207020000Y-71215000D02*
X198880000Y-71215000D01*
X198880000Y-68715000D01*
X207020000Y-68715000D01*
X207020000Y-71215000D01*
X207020000Y-71215000D01*
G37*
G36*
X146060000Y-71215000D02*
X137920000Y-71215000D01*
X137920000Y-68715000D01*
X146060000Y-68715000D01*
X146060000Y-71215000D01*
X146060000Y-71215000D01*
G37*
G36*
X166380000Y-71215000D02*
X158240000Y-71215000D01*
X158240000Y-68715000D01*
X166380000Y-68715000D01*
X166380000Y-71215000D01*
X166380000Y-71215000D01*
G37*
G36*
X85100000Y-71215000D02*
X76960000Y-71215000D01*
X76960000Y-68715000D01*
X85100000Y-68715000D01*
X85100000Y-71215000D01*
X85100000Y-71215000D01*
G37*
G36*
X186700000Y-71215000D02*
X178560000Y-71215000D01*
X178560000Y-68715000D01*
X186700000Y-68715000D01*
X186700000Y-71215000D01*
X186700000Y-71215000D01*
G37*
G36*
X125740000Y-71215000D02*
X117600000Y-71215000D01*
X117600000Y-68715000D01*
X125740000Y-68715000D01*
X125740000Y-71215000D01*
X125740000Y-71215000D01*
G37*
G36*
X116045443Y-68619194D02*
X116254728Y-68705883D01*
X116443085Y-68831739D01*
X116603261Y-68991915D01*
X116729117Y-69180272D01*
X116815806Y-69389557D01*
X116860000Y-69611734D01*
X116860000Y-69838266D01*
X116815806Y-70060443D01*
X116729117Y-70269728D01*
X116603261Y-70458085D01*
X116443085Y-70618261D01*
X116254728Y-70744117D01*
X116045443Y-70830806D01*
X115823266Y-70875000D01*
X115596734Y-70875000D01*
X115374557Y-70830806D01*
X115165272Y-70744117D01*
X114976915Y-70618261D01*
X114816739Y-70458085D01*
X114690883Y-70269728D01*
X114604194Y-70060443D01*
X114560000Y-69838266D01*
X114560000Y-69611734D01*
X114604194Y-69389557D01*
X114690883Y-69180272D01*
X114816739Y-68991915D01*
X114976915Y-68831739D01*
X115165272Y-68705883D01*
X115374557Y-68619194D01*
X115596734Y-68575000D01*
X115823266Y-68575000D01*
X116045443Y-68619194D01*
X116045443Y-68619194D01*
G37*
G36*
X128035443Y-68619194D02*
X128244728Y-68705883D01*
X128433085Y-68831739D01*
X128593261Y-68991915D01*
X128719117Y-69180272D01*
X128805806Y-69389557D01*
X128850000Y-69611734D01*
X128850000Y-69838266D01*
X128805806Y-70060443D01*
X128719117Y-70269728D01*
X128593261Y-70458085D01*
X128433085Y-70618261D01*
X128244728Y-70744117D01*
X128035443Y-70830806D01*
X127813266Y-70875000D01*
X127586734Y-70875000D01*
X127364557Y-70830806D01*
X127155272Y-70744117D01*
X126966915Y-70618261D01*
X126806739Y-70458085D01*
X126680883Y-70269728D01*
X126594194Y-70060443D01*
X126550000Y-69838266D01*
X126550000Y-69611734D01*
X126594194Y-69389557D01*
X126680883Y-69180272D01*
X126806739Y-68991915D01*
X126966915Y-68831739D01*
X127155272Y-68705883D01*
X127364557Y-68619194D01*
X127586734Y-68575000D01*
X127813266Y-68575000D01*
X128035443Y-68619194D01*
X128035443Y-68619194D01*
G37*
G36*
X95725443Y-68619194D02*
X95934728Y-68705883D01*
X96123085Y-68831739D01*
X96283261Y-68991915D01*
X96409117Y-69180272D01*
X96495806Y-69389557D01*
X96540000Y-69611734D01*
X96540000Y-69838266D01*
X96495806Y-70060443D01*
X96409117Y-70269728D01*
X96283261Y-70458085D01*
X96123085Y-70618261D01*
X95934728Y-70744117D01*
X95725443Y-70830806D01*
X95503266Y-70875000D01*
X95276734Y-70875000D01*
X95054557Y-70830806D01*
X94845272Y-70744117D01*
X94656915Y-70618261D01*
X94496739Y-70458085D01*
X94370883Y-70269728D01*
X94284194Y-70060443D01*
X94240000Y-69838266D01*
X94240000Y-69611734D01*
X94284194Y-69389557D01*
X94370883Y-69180272D01*
X94496739Y-68991915D01*
X94656915Y-68831739D01*
X94845272Y-68705883D01*
X95054557Y-68619194D01*
X95276734Y-68575000D01*
X95503266Y-68575000D01*
X95725443Y-68619194D01*
X95725443Y-68619194D01*
G37*
G36*
X107715443Y-68619194D02*
X107924728Y-68705883D01*
X108113085Y-68831739D01*
X108273261Y-68991915D01*
X108399117Y-69180272D01*
X108485806Y-69389557D01*
X108530000Y-69611734D01*
X108530000Y-69838266D01*
X108485806Y-70060443D01*
X108399117Y-70269728D01*
X108273261Y-70458085D01*
X108113085Y-70618261D01*
X107924728Y-70744117D01*
X107715443Y-70830806D01*
X107493266Y-70875000D01*
X107266734Y-70875000D01*
X107044557Y-70830806D01*
X106835272Y-70744117D01*
X106646915Y-70618261D01*
X106486739Y-70458085D01*
X106360883Y-70269728D01*
X106274194Y-70060443D01*
X106230000Y-69838266D01*
X106230000Y-69611734D01*
X106274194Y-69389557D01*
X106360883Y-69180272D01*
X106486739Y-68991915D01*
X106646915Y-68831739D01*
X106835272Y-68705883D01*
X107044557Y-68619194D01*
X107266734Y-68575000D01*
X107493266Y-68575000D01*
X107715443Y-68619194D01*
X107715443Y-68619194D01*
G37*
G36*
X197325443Y-68619194D02*
X197534728Y-68705883D01*
X197723085Y-68831739D01*
X197883261Y-68991915D01*
X198009117Y-69180272D01*
X198095806Y-69389557D01*
X198140000Y-69611734D01*
X198140000Y-69838266D01*
X198095806Y-70060443D01*
X198009117Y-70269728D01*
X197883261Y-70458085D01*
X197723085Y-70618261D01*
X197534728Y-70744117D01*
X197325443Y-70830806D01*
X197103266Y-70875000D01*
X196876734Y-70875000D01*
X196654557Y-70830806D01*
X196445272Y-70744117D01*
X196256915Y-70618261D01*
X196096739Y-70458085D01*
X195970883Y-70269728D01*
X195884194Y-70060443D01*
X195840000Y-69838266D01*
X195840000Y-69611734D01*
X195884194Y-69389557D01*
X195970883Y-69180272D01*
X196096739Y-68991915D01*
X196256915Y-68831739D01*
X196445272Y-68705883D01*
X196654557Y-68619194D01*
X196876734Y-68575000D01*
X197103266Y-68575000D01*
X197325443Y-68619194D01*
X197325443Y-68619194D01*
G37*
G36*
X209315443Y-68619194D02*
X209524728Y-68705883D01*
X209713085Y-68831739D01*
X209873261Y-68991915D01*
X209999117Y-69180272D01*
X210085806Y-69389557D01*
X210130000Y-69611734D01*
X210130000Y-69838266D01*
X210085806Y-70060443D01*
X209999117Y-70269728D01*
X209873261Y-70458085D01*
X209713085Y-70618261D01*
X209524728Y-70744117D01*
X209315443Y-70830806D01*
X209093266Y-70875000D01*
X208866734Y-70875000D01*
X208644557Y-70830806D01*
X208435272Y-70744117D01*
X208246915Y-70618261D01*
X208086739Y-70458085D01*
X207960883Y-70269728D01*
X207874194Y-70060443D01*
X207830000Y-69838266D01*
X207830000Y-69611734D01*
X207874194Y-69389557D01*
X207960883Y-69180272D01*
X208086739Y-68991915D01*
X208246915Y-68831739D01*
X208435272Y-68705883D01*
X208644557Y-68619194D01*
X208866734Y-68575000D01*
X209093266Y-68575000D01*
X209315443Y-68619194D01*
X209315443Y-68619194D01*
G37*
G36*
X87395443Y-68619194D02*
X87604728Y-68705883D01*
X87793085Y-68831739D01*
X87953261Y-68991915D01*
X88079117Y-69180272D01*
X88165806Y-69389557D01*
X88210000Y-69611734D01*
X88210000Y-69838266D01*
X88165806Y-70060443D01*
X88079117Y-70269728D01*
X87953261Y-70458085D01*
X87793085Y-70618261D01*
X87604728Y-70744117D01*
X87395443Y-70830806D01*
X87173266Y-70875000D01*
X86946734Y-70875000D01*
X86724557Y-70830806D01*
X86515272Y-70744117D01*
X86326915Y-70618261D01*
X86166739Y-70458085D01*
X86040883Y-70269728D01*
X85954194Y-70060443D01*
X85910000Y-69838266D01*
X85910000Y-69611734D01*
X85954194Y-69389557D01*
X86040883Y-69180272D01*
X86166739Y-68991915D01*
X86326915Y-68831739D01*
X86515272Y-68705883D01*
X86724557Y-68619194D01*
X86946734Y-68575000D01*
X87173266Y-68575000D01*
X87395443Y-68619194D01*
X87395443Y-68619194D01*
G37*
G36*
X75405443Y-68619194D02*
X75614728Y-68705883D01*
X75803085Y-68831739D01*
X75963261Y-68991915D01*
X76089117Y-69180272D01*
X76175806Y-69389557D01*
X76220000Y-69611734D01*
X76220000Y-69838266D01*
X76175806Y-70060443D01*
X76089117Y-70269728D01*
X75963261Y-70458085D01*
X75803085Y-70618261D01*
X75614728Y-70744117D01*
X75405443Y-70830806D01*
X75183266Y-70875000D01*
X74956734Y-70875000D01*
X74734557Y-70830806D01*
X74525272Y-70744117D01*
X74336915Y-70618261D01*
X74176739Y-70458085D01*
X74050883Y-70269728D01*
X73964194Y-70060443D01*
X73920000Y-69838266D01*
X73920000Y-69611734D01*
X73964194Y-69389557D01*
X74050883Y-69180272D01*
X74176739Y-68991915D01*
X74336915Y-68831739D01*
X74525272Y-68705883D01*
X74734557Y-68619194D01*
X74956734Y-68575000D01*
X75183266Y-68575000D01*
X75405443Y-68619194D01*
X75405443Y-68619194D01*
G37*
G36*
X188995443Y-68619194D02*
X189204728Y-68705883D01*
X189393085Y-68831739D01*
X189553261Y-68991915D01*
X189679117Y-69180272D01*
X189765806Y-69389557D01*
X189810000Y-69611734D01*
X189810000Y-69838266D01*
X189765806Y-70060443D01*
X189679117Y-70269728D01*
X189553261Y-70458085D01*
X189393085Y-70618261D01*
X189204728Y-70744117D01*
X188995443Y-70830806D01*
X188773266Y-70875000D01*
X188546734Y-70875000D01*
X188324557Y-70830806D01*
X188115272Y-70744117D01*
X187926915Y-70618261D01*
X187766739Y-70458085D01*
X187640883Y-70269728D01*
X187554194Y-70060443D01*
X187510000Y-69838266D01*
X187510000Y-69611734D01*
X187554194Y-69389557D01*
X187640883Y-69180272D01*
X187766739Y-68991915D01*
X187926915Y-68831739D01*
X188115272Y-68705883D01*
X188324557Y-68619194D01*
X188546734Y-68575000D01*
X188773266Y-68575000D01*
X188995443Y-68619194D01*
X188995443Y-68619194D01*
G37*
G36*
X148355443Y-68619194D02*
X148564728Y-68705883D01*
X148753085Y-68831739D01*
X148913261Y-68991915D01*
X149039117Y-69180272D01*
X149125806Y-69389557D01*
X149170000Y-69611734D01*
X149170000Y-69838266D01*
X149125806Y-70060443D01*
X149039117Y-70269728D01*
X148913261Y-70458085D01*
X148753085Y-70618261D01*
X148564728Y-70744117D01*
X148355443Y-70830806D01*
X148133266Y-70875000D01*
X147906734Y-70875000D01*
X147684557Y-70830806D01*
X147475272Y-70744117D01*
X147286915Y-70618261D01*
X147126739Y-70458085D01*
X147000883Y-70269728D01*
X146914194Y-70060443D01*
X146870000Y-69838266D01*
X146870000Y-69611734D01*
X146914194Y-69389557D01*
X147000883Y-69180272D01*
X147126739Y-68991915D01*
X147286915Y-68831739D01*
X147475272Y-68705883D01*
X147684557Y-68619194D01*
X147906734Y-68575000D01*
X148133266Y-68575000D01*
X148355443Y-68619194D01*
X148355443Y-68619194D01*
G37*
G36*
X136365443Y-68619194D02*
X136574728Y-68705883D01*
X136763085Y-68831739D01*
X136923261Y-68991915D01*
X137049117Y-69180272D01*
X137135806Y-69389557D01*
X137180000Y-69611734D01*
X137180000Y-69838266D01*
X137135806Y-70060443D01*
X137049117Y-70269728D01*
X136923261Y-70458085D01*
X136763085Y-70618261D01*
X136574728Y-70744117D01*
X136365443Y-70830806D01*
X136143266Y-70875000D01*
X135916734Y-70875000D01*
X135694557Y-70830806D01*
X135485272Y-70744117D01*
X135296915Y-70618261D01*
X135136739Y-70458085D01*
X135010883Y-70269728D01*
X134924194Y-70060443D01*
X134880000Y-69838266D01*
X134880000Y-69611734D01*
X134924194Y-69389557D01*
X135010883Y-69180272D01*
X135136739Y-68991915D01*
X135296915Y-68831739D01*
X135485272Y-68705883D01*
X135694557Y-68619194D01*
X135916734Y-68575000D01*
X136143266Y-68575000D01*
X136365443Y-68619194D01*
X136365443Y-68619194D01*
G37*
G36*
X55085443Y-68619194D02*
X55294728Y-68705883D01*
X55483085Y-68831739D01*
X55643261Y-68991915D01*
X55769117Y-69180272D01*
X55855806Y-69389557D01*
X55900000Y-69611734D01*
X55900000Y-69838266D01*
X55855806Y-70060443D01*
X55769117Y-70269728D01*
X55643261Y-70458085D01*
X55483085Y-70618261D01*
X55294728Y-70744117D01*
X55085443Y-70830806D01*
X54863266Y-70875000D01*
X54636734Y-70875000D01*
X54414557Y-70830806D01*
X54205272Y-70744117D01*
X54016915Y-70618261D01*
X53856739Y-70458085D01*
X53730883Y-70269728D01*
X53644194Y-70060443D01*
X53600000Y-69838266D01*
X53600000Y-69611734D01*
X53644194Y-69389557D01*
X53730883Y-69180272D01*
X53856739Y-68991915D01*
X54016915Y-68831739D01*
X54205272Y-68705883D01*
X54414557Y-68619194D01*
X54636734Y-68575000D01*
X54863266Y-68575000D01*
X55085443Y-68619194D01*
X55085443Y-68619194D01*
G37*
G36*
X67075443Y-68619194D02*
X67284728Y-68705883D01*
X67473085Y-68831739D01*
X67633261Y-68991915D01*
X67759117Y-69180272D01*
X67845806Y-69389557D01*
X67890000Y-69611734D01*
X67890000Y-69838266D01*
X67845806Y-70060443D01*
X67759117Y-70269728D01*
X67633261Y-70458085D01*
X67473085Y-70618261D01*
X67284728Y-70744117D01*
X67075443Y-70830806D01*
X66853266Y-70875000D01*
X66626734Y-70875000D01*
X66404557Y-70830806D01*
X66195272Y-70744117D01*
X66006915Y-70618261D01*
X65846739Y-70458085D01*
X65720883Y-70269728D01*
X65634194Y-70060443D01*
X65590000Y-69838266D01*
X65590000Y-69611734D01*
X65634194Y-69389557D01*
X65720883Y-69180272D01*
X65846739Y-68991915D01*
X66006915Y-68831739D01*
X66195272Y-68705883D01*
X66404557Y-68619194D01*
X66626734Y-68575000D01*
X66853266Y-68575000D01*
X67075443Y-68619194D01*
X67075443Y-68619194D01*
G37*
G36*
X168675443Y-68619194D02*
X168884728Y-68705883D01*
X169073085Y-68831739D01*
X169233261Y-68991915D01*
X169359117Y-69180272D01*
X169445806Y-69389557D01*
X169490000Y-69611734D01*
X169490000Y-69838266D01*
X169445806Y-70060443D01*
X169359117Y-70269728D01*
X169233261Y-70458085D01*
X169073085Y-70618261D01*
X168884728Y-70744117D01*
X168675443Y-70830806D01*
X168453266Y-70875000D01*
X168226734Y-70875000D01*
X168004557Y-70830806D01*
X167795272Y-70744117D01*
X167606915Y-70618261D01*
X167446739Y-70458085D01*
X167320883Y-70269728D01*
X167234194Y-70060443D01*
X167190000Y-69838266D01*
X167190000Y-69611734D01*
X167234194Y-69389557D01*
X167320883Y-69180272D01*
X167446739Y-68991915D01*
X167606915Y-68831739D01*
X167795272Y-68705883D01*
X168004557Y-68619194D01*
X168226734Y-68575000D01*
X168453266Y-68575000D01*
X168675443Y-68619194D01*
X168675443Y-68619194D01*
G37*
G36*
X156685443Y-68619194D02*
X156894728Y-68705883D01*
X157083085Y-68831739D01*
X157243261Y-68991915D01*
X157369117Y-69180272D01*
X157455806Y-69389557D01*
X157500000Y-69611734D01*
X157500000Y-69838266D01*
X157455806Y-70060443D01*
X157369117Y-70269728D01*
X157243261Y-70458085D01*
X157083085Y-70618261D01*
X156894728Y-70744117D01*
X156685443Y-70830806D01*
X156463266Y-70875000D01*
X156236734Y-70875000D01*
X156014557Y-70830806D01*
X155805272Y-70744117D01*
X155616915Y-70618261D01*
X155456739Y-70458085D01*
X155330883Y-70269728D01*
X155244194Y-70060443D01*
X155200000Y-69838266D01*
X155200000Y-69611734D01*
X155244194Y-69389557D01*
X155330883Y-69180272D01*
X155456739Y-68991915D01*
X155616915Y-68831739D01*
X155805272Y-68705883D01*
X156014557Y-68619194D01*
X156236734Y-68575000D01*
X156463266Y-68575000D01*
X156685443Y-68619194D01*
X156685443Y-68619194D01*
G37*
G36*
X177005443Y-68619194D02*
X177214728Y-68705883D01*
X177403085Y-68831739D01*
X177563261Y-68991915D01*
X177689117Y-69180272D01*
X177775806Y-69389557D01*
X177820000Y-69611734D01*
X177820000Y-69838266D01*
X177775806Y-70060443D01*
X177689117Y-70269728D01*
X177563261Y-70458085D01*
X177403085Y-70618261D01*
X177214728Y-70744117D01*
X177005443Y-70830806D01*
X176783266Y-70875000D01*
X176556734Y-70875000D01*
X176334557Y-70830806D01*
X176125272Y-70744117D01*
X175936915Y-70618261D01*
X175776739Y-70458085D01*
X175650883Y-70269728D01*
X175564194Y-70060443D01*
X175520000Y-69838266D01*
X175520000Y-69611734D01*
X175564194Y-69389557D01*
X175650883Y-69180272D01*
X175776739Y-68991915D01*
X175936915Y-68831739D01*
X176125272Y-68705883D01*
X176334557Y-68619194D01*
X176556734Y-68575000D01*
X176783266Y-68575000D01*
X177005443Y-68619194D01*
X177005443Y-68619194D01*
G37*
G36*
X171890000Y-65185000D02*
X169990000Y-65185000D01*
X169990000Y-60785000D01*
X171890000Y-60785000D01*
X171890000Y-65185000D01*
X171890000Y-65185000D01*
G37*
G36*
X70290000Y-65185000D02*
X68390000Y-65185000D01*
X68390000Y-60785000D01*
X70290000Y-60785000D01*
X70290000Y-65185000D01*
X70290000Y-65185000D01*
G37*
G36*
X73510000Y-65185000D02*
X71610000Y-65185000D01*
X71610000Y-60785000D01*
X73510000Y-60785000D01*
X73510000Y-65185000D01*
X73510000Y-65185000D01*
G37*
G36*
X90610000Y-65185000D02*
X88710000Y-65185000D01*
X88710000Y-60785000D01*
X90610000Y-60785000D01*
X90610000Y-65185000D01*
X90610000Y-65185000D01*
G37*
G36*
X93830000Y-65185000D02*
X91930000Y-65185000D01*
X91930000Y-60785000D01*
X93830000Y-60785000D01*
X93830000Y-65185000D01*
X93830000Y-65185000D01*
G37*
G36*
X110930000Y-65185000D02*
X109030000Y-65185000D01*
X109030000Y-60785000D01*
X110930000Y-60785000D01*
X110930000Y-65185000D01*
X110930000Y-65185000D01*
G37*
G36*
X114150000Y-65185000D02*
X112250000Y-65185000D01*
X112250000Y-60785000D01*
X114150000Y-60785000D01*
X114150000Y-65185000D01*
X114150000Y-65185000D01*
G37*
G36*
X131250000Y-65185000D02*
X129350000Y-65185000D01*
X129350000Y-60785000D01*
X131250000Y-60785000D01*
X131250000Y-65185000D01*
X131250000Y-65185000D01*
G37*
G36*
X134470000Y-65185000D02*
X132570000Y-65185000D01*
X132570000Y-60785000D01*
X134470000Y-60785000D01*
X134470000Y-65185000D01*
X134470000Y-65185000D01*
G37*
G36*
X53190000Y-65185000D02*
X51290000Y-65185000D01*
X51290000Y-60785000D01*
X53190000Y-60785000D01*
X53190000Y-65185000D01*
X53190000Y-65185000D01*
G37*
G36*
X151570000Y-65185000D02*
X149670000Y-65185000D01*
X149670000Y-60785000D01*
X151570000Y-60785000D01*
X151570000Y-65185000D01*
X151570000Y-65185000D01*
G37*
G36*
X195430000Y-65185000D02*
X193530000Y-65185000D01*
X193530000Y-60785000D01*
X195430000Y-60785000D01*
X195430000Y-65185000D01*
X195430000Y-65185000D01*
G37*
G36*
X212530000Y-65185000D02*
X210630000Y-65185000D01*
X210630000Y-60785000D01*
X212530000Y-60785000D01*
X212530000Y-65185000D01*
X212530000Y-65185000D01*
G37*
G36*
X175110000Y-65185000D02*
X173210000Y-65185000D01*
X173210000Y-60785000D01*
X175110000Y-60785000D01*
X175110000Y-65185000D01*
X175110000Y-65185000D01*
G37*
G36*
X154790000Y-65185000D02*
X152890000Y-65185000D01*
X152890000Y-60785000D01*
X154790000Y-60785000D01*
X154790000Y-65185000D01*
X154790000Y-65185000D01*
G37*
G36*
X192210000Y-65185000D02*
X190310000Y-65185000D01*
X190310000Y-60785000D01*
X192210000Y-60785000D01*
X192210000Y-65185000D01*
X192210000Y-65185000D01*
G37*
M02*
