%TF.GenerationSoftware,KiCad,Pcbnew,(5.0.1)-3*%
%TF.CreationDate,2018-12-23T12:05:20+11:00*%
%TF.ProjectId,1Wire-SoManySwitches,31576972652D536F4D616E7953776974,1.2*%
%TF.SameCoordinates,Original*%
%TF.FileFunction,Legend,Top*%
%TF.FilePolarity,Positive*%
%FSLAX46Y46*%
G04 Gerber Fmt 4.6, Leading zero omitted, Abs format (unit mm)*
G04 Created by KiCad (PCBNEW (5.0.1)-3) date 23/12/2018 12:05:20 PM*
%MOMM*%
%LPD*%
G01*
G04 APERTURE LIST*
%ADD10C,0.150000*%
%ADD11C,0.300000*%
%ADD12C,0.100000*%
%ADD13C,0.310000*%
%ADD14C,0.120000*%
G04 APERTURE END LIST*
D10*
X135084420Y-84074000D02*
G75*
G03X135084420Y-84074000I-718420J0D01*
G01*
X127867210Y-77470000D02*
G75*
G03X127867210Y-77470000I-359210J0D01*
G01*
X56802976Y-76034761D02*
X56945833Y-76082380D01*
X57183928Y-76082380D01*
X57279166Y-76034761D01*
X57326785Y-75987142D01*
X57374404Y-75891904D01*
X57374404Y-75796666D01*
X57326785Y-75701428D01*
X57279166Y-75653809D01*
X57183928Y-75606190D01*
X56993452Y-75558571D01*
X56898214Y-75510952D01*
X56850595Y-75463333D01*
X56802976Y-75368095D01*
X56802976Y-75272857D01*
X56850595Y-75177619D01*
X56898214Y-75130000D01*
X56993452Y-75082380D01*
X57231547Y-75082380D01*
X57374404Y-75130000D01*
X57707738Y-75415714D02*
X57898214Y-76082380D01*
X58088690Y-75606190D01*
X58279166Y-76082380D01*
X58469642Y-75415714D01*
X58850595Y-76082380D02*
X58850595Y-75415714D01*
X58850595Y-75082380D02*
X58802976Y-75130000D01*
X58850595Y-75177619D01*
X58898214Y-75130000D01*
X58850595Y-75082380D01*
X58850595Y-75177619D01*
X59183928Y-75415714D02*
X59564880Y-75415714D01*
X59326785Y-75082380D02*
X59326785Y-75939523D01*
X59374404Y-76034761D01*
X59469642Y-76082380D01*
X59564880Y-76082380D01*
X60326785Y-76034761D02*
X60231547Y-76082380D01*
X60041071Y-76082380D01*
X59945833Y-76034761D01*
X59898214Y-75987142D01*
X59850595Y-75891904D01*
X59850595Y-75606190D01*
X59898214Y-75510952D01*
X59945833Y-75463333D01*
X60041071Y-75415714D01*
X60231547Y-75415714D01*
X60326785Y-75463333D01*
X60755357Y-76082380D02*
X60755357Y-75082380D01*
X61183928Y-76082380D02*
X61183928Y-75558571D01*
X61136309Y-75463333D01*
X61041071Y-75415714D01*
X60898214Y-75415714D01*
X60802976Y-75463333D01*
X60755357Y-75510952D01*
X62422023Y-76082380D02*
X62422023Y-75082380D01*
X62802976Y-75082380D01*
X62898214Y-75130000D01*
X62945833Y-75177619D01*
X62993452Y-75272857D01*
X62993452Y-75415714D01*
X62945833Y-75510952D01*
X62898214Y-75558571D01*
X62802976Y-75606190D01*
X62422023Y-75606190D01*
X63422023Y-76082380D02*
X63422023Y-75415714D01*
X63422023Y-75082380D02*
X63374404Y-75130000D01*
X63422023Y-75177619D01*
X63469642Y-75130000D01*
X63422023Y-75082380D01*
X63422023Y-75177619D01*
X63898214Y-75415714D02*
X63898214Y-76082380D01*
X63898214Y-75510952D02*
X63945833Y-75463333D01*
X64041071Y-75415714D01*
X64183928Y-75415714D01*
X64279166Y-75463333D01*
X64326785Y-75558571D01*
X64326785Y-76082380D01*
X64945833Y-76082380D02*
X64850595Y-76034761D01*
X64802976Y-75987142D01*
X64755357Y-75891904D01*
X64755357Y-75606190D01*
X64802976Y-75510952D01*
X64850595Y-75463333D01*
X64945833Y-75415714D01*
X65088690Y-75415714D01*
X65183928Y-75463333D01*
X65231547Y-75510952D01*
X65279166Y-75606190D01*
X65279166Y-75891904D01*
X65231547Y-75987142D01*
X65183928Y-76034761D01*
X65088690Y-76082380D01*
X64945833Y-76082380D01*
X66136309Y-75415714D02*
X66136309Y-76082380D01*
X65707738Y-75415714D02*
X65707738Y-75939523D01*
X65755357Y-76034761D01*
X65850595Y-76082380D01*
X65993452Y-76082380D01*
X66088690Y-76034761D01*
X66136309Y-75987142D01*
X66469642Y-75415714D02*
X66850595Y-75415714D01*
X66612500Y-75082380D02*
X66612500Y-75939523D01*
X66660119Y-76034761D01*
X66755357Y-76082380D01*
X66850595Y-76082380D01*
X67183928Y-75987142D02*
X67231547Y-76034761D01*
X67183928Y-76082380D01*
X67136309Y-76034761D01*
X67183928Y-75987142D01*
X67183928Y-76082380D01*
X67183928Y-75463333D02*
X67231547Y-75510952D01*
X67183928Y-75558571D01*
X67136309Y-75510952D01*
X67183928Y-75463333D01*
X67183928Y-75558571D01*
X57374404Y-77732380D02*
X56802976Y-77732380D01*
X57088690Y-77732380D02*
X57088690Y-76732380D01*
X56993452Y-76875238D01*
X56898214Y-76970476D01*
X56802976Y-77018095D01*
X57802976Y-77637142D02*
X57850595Y-77684761D01*
X57802976Y-77732380D01*
X57755357Y-77684761D01*
X57802976Y-77637142D01*
X57802976Y-77732380D01*
X57802976Y-77113333D02*
X57850595Y-77160952D01*
X57802976Y-77208571D01*
X57755357Y-77160952D01*
X57802976Y-77113333D01*
X57802976Y-77208571D01*
X61850595Y-76780000D02*
X61755357Y-76732380D01*
X61612500Y-76732380D01*
X61469642Y-76780000D01*
X61374404Y-76875238D01*
X61326785Y-76970476D01*
X61279166Y-77160952D01*
X61279166Y-77303809D01*
X61326785Y-77494285D01*
X61374404Y-77589523D01*
X61469642Y-77684761D01*
X61612500Y-77732380D01*
X61707738Y-77732380D01*
X61850595Y-77684761D01*
X61898214Y-77637142D01*
X61898214Y-77303809D01*
X61707738Y-77303809D01*
X62326785Y-77065714D02*
X62326785Y-77732380D01*
X62326785Y-77160952D02*
X62374404Y-77113333D01*
X62469642Y-77065714D01*
X62612500Y-77065714D01*
X62707738Y-77113333D01*
X62755357Y-77208571D01*
X62755357Y-77732380D01*
X63660119Y-77732380D02*
X63660119Y-76732380D01*
X63660119Y-77684761D02*
X63564880Y-77732380D01*
X63374404Y-77732380D01*
X63279166Y-77684761D01*
X63231547Y-77637142D01*
X63183928Y-77541904D01*
X63183928Y-77256190D01*
X63231547Y-77160952D01*
X63279166Y-77113333D01*
X63374404Y-77065714D01*
X63564880Y-77065714D01*
X63660119Y-77113333D01*
X56802976Y-78477619D02*
X56850595Y-78430000D01*
X56945833Y-78382380D01*
X57183928Y-78382380D01*
X57279166Y-78430000D01*
X57326785Y-78477619D01*
X57374404Y-78572857D01*
X57374404Y-78668095D01*
X57326785Y-78810952D01*
X56755357Y-79382380D01*
X57374404Y-79382380D01*
X57802976Y-79001428D02*
X58564880Y-79001428D01*
X58945833Y-78382380D02*
X59612500Y-78382380D01*
X59183928Y-79382380D01*
X59993452Y-79287142D02*
X60041071Y-79334761D01*
X59993452Y-79382380D01*
X59945833Y-79334761D01*
X59993452Y-79287142D01*
X59993452Y-79382380D01*
X59993452Y-78763333D02*
X60041071Y-78810952D01*
X59993452Y-78858571D01*
X59945833Y-78810952D01*
X59993452Y-78763333D01*
X59993452Y-78858571D01*
X61183928Y-79334761D02*
X61326785Y-79382380D01*
X61564880Y-79382380D01*
X61660119Y-79334761D01*
X61707738Y-79287142D01*
X61755357Y-79191904D01*
X61755357Y-79096666D01*
X61707738Y-79001428D01*
X61660119Y-78953809D01*
X61564880Y-78906190D01*
X61374404Y-78858571D01*
X61279166Y-78810952D01*
X61231547Y-78763333D01*
X61183928Y-78668095D01*
X61183928Y-78572857D01*
X61231547Y-78477619D01*
X61279166Y-78430000D01*
X61374404Y-78382380D01*
X61612500Y-78382380D01*
X61755357Y-78430000D01*
X62088690Y-78715714D02*
X62279166Y-79382380D01*
X62469642Y-78906190D01*
X62660119Y-79382380D01*
X62850595Y-78715714D01*
X63231547Y-79382380D02*
X63231547Y-78715714D01*
X63231547Y-78382380D02*
X63183928Y-78430000D01*
X63231547Y-78477619D01*
X63279166Y-78430000D01*
X63231547Y-78382380D01*
X63231547Y-78477619D01*
X63564880Y-78715714D02*
X63945833Y-78715714D01*
X63707738Y-78382380D02*
X63707738Y-79239523D01*
X63755357Y-79334761D01*
X63850595Y-79382380D01*
X63945833Y-79382380D01*
X64707738Y-79334761D02*
X64612500Y-79382380D01*
X64422023Y-79382380D01*
X64326785Y-79334761D01*
X64279166Y-79287142D01*
X64231547Y-79191904D01*
X64231547Y-78906190D01*
X64279166Y-78810952D01*
X64326785Y-78763333D01*
X64422023Y-78715714D01*
X64612500Y-78715714D01*
X64707738Y-78763333D01*
X65136309Y-79382380D02*
X65136309Y-78382380D01*
X65564880Y-79382380D02*
X65564880Y-78858571D01*
X65517261Y-78763333D01*
X65422023Y-78715714D01*
X65279166Y-78715714D01*
X65183928Y-78763333D01*
X65136309Y-78810952D01*
X66993452Y-78382380D02*
X67088690Y-78382380D01*
X67183928Y-78430000D01*
X67231547Y-78477619D01*
X67279166Y-78572857D01*
X67326785Y-78763333D01*
X67326785Y-79001428D01*
X67279166Y-79191904D01*
X67231547Y-79287142D01*
X67183928Y-79334761D01*
X67088690Y-79382380D01*
X66993452Y-79382380D01*
X66898214Y-79334761D01*
X66850595Y-79287142D01*
X66802976Y-79191904D01*
X66755357Y-79001428D01*
X66755357Y-78763333D01*
X66802976Y-78572857D01*
X66850595Y-78477619D01*
X66898214Y-78430000D01*
X66993452Y-78382380D01*
X67755357Y-79001428D02*
X68517261Y-79001428D01*
X69469642Y-78382380D02*
X68993452Y-78382380D01*
X68945833Y-78858571D01*
X68993452Y-78810952D01*
X69088690Y-78763333D01*
X69326785Y-78763333D01*
X69422023Y-78810952D01*
X69469642Y-78858571D01*
X69517261Y-78953809D01*
X69517261Y-79191904D01*
X69469642Y-79287142D01*
X69422023Y-79334761D01*
X69326785Y-79382380D01*
X69088690Y-79382380D01*
X68993452Y-79334761D01*
X68945833Y-79287142D01*
X56993452Y-80460952D02*
X56898214Y-80413333D01*
X56850595Y-80365714D01*
X56802976Y-80270476D01*
X56802976Y-80222857D01*
X56850595Y-80127619D01*
X56898214Y-80080000D01*
X56993452Y-80032380D01*
X57183928Y-80032380D01*
X57279166Y-80080000D01*
X57326785Y-80127619D01*
X57374404Y-80222857D01*
X57374404Y-80270476D01*
X57326785Y-80365714D01*
X57279166Y-80413333D01*
X57183928Y-80460952D01*
X56993452Y-80460952D01*
X56898214Y-80508571D01*
X56850595Y-80556190D01*
X56802976Y-80651428D01*
X56802976Y-80841904D01*
X56850595Y-80937142D01*
X56898214Y-80984761D01*
X56993452Y-81032380D01*
X57183928Y-81032380D01*
X57279166Y-80984761D01*
X57326785Y-80937142D01*
X57374404Y-80841904D01*
X57374404Y-80651428D01*
X57326785Y-80556190D01*
X57279166Y-80508571D01*
X57183928Y-80460952D01*
X57802976Y-80937142D02*
X57850595Y-80984761D01*
X57802976Y-81032380D01*
X57755357Y-80984761D01*
X57802976Y-80937142D01*
X57802976Y-81032380D01*
X57802976Y-80413333D02*
X57850595Y-80460952D01*
X57802976Y-80508571D01*
X57755357Y-80460952D01*
X57802976Y-80413333D01*
X57802976Y-80508571D01*
X61326785Y-80651428D02*
X62088690Y-80651428D01*
X61707738Y-81032380D02*
X61707738Y-80270476D01*
X63041071Y-80032380D02*
X62564880Y-80032380D01*
X62517261Y-80508571D01*
X62564880Y-80460952D01*
X62660119Y-80413333D01*
X62898214Y-80413333D01*
X62993452Y-80460952D01*
X63041071Y-80508571D01*
X63088690Y-80603809D01*
X63088690Y-80841904D01*
X63041071Y-80937142D01*
X62993452Y-80984761D01*
X62898214Y-81032380D01*
X62660119Y-81032380D01*
X62564880Y-80984761D01*
X62517261Y-80937142D01*
X63374404Y-80032380D02*
X63707738Y-81032380D01*
X64041071Y-80032380D01*
D11*
X102882142Y-88308571D02*
X102025000Y-88308571D01*
X102453571Y-88308571D02*
X102453571Y-86808571D01*
X102310714Y-87022857D01*
X102167857Y-87165714D01*
X102025000Y-87237142D01*
X103382142Y-86808571D02*
X103739285Y-88308571D01*
X104025000Y-87237142D01*
X104310714Y-88308571D01*
X104667857Y-86808571D01*
X105239285Y-88308571D02*
X105239285Y-87308571D01*
X105239285Y-86808571D02*
X105167857Y-86880000D01*
X105239285Y-86951428D01*
X105310714Y-86880000D01*
X105239285Y-86808571D01*
X105239285Y-86951428D01*
X105953571Y-88308571D02*
X105953571Y-87308571D01*
X105953571Y-87594285D02*
X106025000Y-87451428D01*
X106096428Y-87380000D01*
X106239285Y-87308571D01*
X106382142Y-87308571D01*
X107453571Y-88237142D02*
X107310714Y-88308571D01*
X107025000Y-88308571D01*
X106882142Y-88237142D01*
X106810714Y-88094285D01*
X106810714Y-87522857D01*
X106882142Y-87380000D01*
X107025000Y-87308571D01*
X107310714Y-87308571D01*
X107453571Y-87380000D01*
X107525000Y-87522857D01*
X107525000Y-87665714D01*
X106810714Y-87808571D01*
X81292142Y-88308571D02*
X80435000Y-88308571D01*
X80863571Y-88308571D02*
X80863571Y-86808571D01*
X80720714Y-87022857D01*
X80577857Y-87165714D01*
X80435000Y-87237142D01*
X81792142Y-86808571D02*
X82149285Y-88308571D01*
X82435000Y-87237142D01*
X82720714Y-88308571D01*
X83077857Y-86808571D01*
X83649285Y-88308571D02*
X83649285Y-87308571D01*
X83649285Y-86808571D02*
X83577857Y-86880000D01*
X83649285Y-86951428D01*
X83720714Y-86880000D01*
X83649285Y-86808571D01*
X83649285Y-86951428D01*
X84363571Y-88308571D02*
X84363571Y-87308571D01*
X84363571Y-87594285D02*
X84435000Y-87451428D01*
X84506428Y-87380000D01*
X84649285Y-87308571D01*
X84792142Y-87308571D01*
X85863571Y-88237142D02*
X85720714Y-88308571D01*
X85435000Y-88308571D01*
X85292142Y-88237142D01*
X85220714Y-88094285D01*
X85220714Y-87522857D01*
X85292142Y-87380000D01*
X85435000Y-87308571D01*
X85720714Y-87308571D01*
X85863571Y-87380000D01*
X85935000Y-87522857D01*
X85935000Y-87665714D01*
X85220714Y-87808571D01*
X199950000Y-73068571D02*
X199950000Y-71568571D01*
X200521428Y-71568571D01*
X200664285Y-71640000D01*
X200735714Y-71711428D01*
X200807142Y-71854285D01*
X200807142Y-72068571D01*
X200735714Y-72211428D01*
X200664285Y-72282857D01*
X200521428Y-72354285D01*
X199950000Y-72354285D01*
X201664285Y-73068571D02*
X201521428Y-72997142D01*
X201450000Y-72925714D01*
X201378571Y-72782857D01*
X201378571Y-72354285D01*
X201450000Y-72211428D01*
X201521428Y-72140000D01*
X201664285Y-72068571D01*
X201878571Y-72068571D01*
X202021428Y-72140000D01*
X202092857Y-72211428D01*
X202164285Y-72354285D01*
X202164285Y-72782857D01*
X202092857Y-72925714D01*
X202021428Y-72997142D01*
X201878571Y-73068571D01*
X201664285Y-73068571D01*
X202807142Y-73068571D02*
X202807142Y-72068571D01*
X202807142Y-72354285D02*
X202878571Y-72211428D01*
X202950000Y-72140000D01*
X203092857Y-72068571D01*
X203235714Y-72068571D01*
X203521428Y-72068571D02*
X204092857Y-72068571D01*
X203735714Y-71568571D02*
X203735714Y-72854285D01*
X203807142Y-72997142D01*
X203950000Y-73068571D01*
X204092857Y-73068571D01*
X206021428Y-71568571D02*
X206164285Y-71568571D01*
X206307142Y-71640000D01*
X206378571Y-71711428D01*
X206450000Y-71854285D01*
X206521428Y-72140000D01*
X206521428Y-72497142D01*
X206450000Y-72782857D01*
X206378571Y-72925714D01*
X206307142Y-72997142D01*
X206164285Y-73068571D01*
X206021428Y-73068571D01*
X205878571Y-72997142D01*
X205807142Y-72925714D01*
X205735714Y-72782857D01*
X205664285Y-72497142D01*
X205664285Y-72140000D01*
X205735714Y-71854285D01*
X205807142Y-71711428D01*
X205878571Y-71640000D01*
X206021428Y-71568571D01*
X179630000Y-73068571D02*
X179630000Y-71568571D01*
X180201428Y-71568571D01*
X180344285Y-71640000D01*
X180415714Y-71711428D01*
X180487142Y-71854285D01*
X180487142Y-72068571D01*
X180415714Y-72211428D01*
X180344285Y-72282857D01*
X180201428Y-72354285D01*
X179630000Y-72354285D01*
X181344285Y-73068571D02*
X181201428Y-72997142D01*
X181130000Y-72925714D01*
X181058571Y-72782857D01*
X181058571Y-72354285D01*
X181130000Y-72211428D01*
X181201428Y-72140000D01*
X181344285Y-72068571D01*
X181558571Y-72068571D01*
X181701428Y-72140000D01*
X181772857Y-72211428D01*
X181844285Y-72354285D01*
X181844285Y-72782857D01*
X181772857Y-72925714D01*
X181701428Y-72997142D01*
X181558571Y-73068571D01*
X181344285Y-73068571D01*
X182487142Y-73068571D02*
X182487142Y-72068571D01*
X182487142Y-72354285D02*
X182558571Y-72211428D01*
X182630000Y-72140000D01*
X182772857Y-72068571D01*
X182915714Y-72068571D01*
X183201428Y-72068571D02*
X183772857Y-72068571D01*
X183415714Y-71568571D02*
X183415714Y-72854285D01*
X183487142Y-72997142D01*
X183630000Y-73068571D01*
X183772857Y-73068571D01*
X186201428Y-73068571D02*
X185344285Y-73068571D01*
X185772857Y-73068571D02*
X185772857Y-71568571D01*
X185630000Y-71782857D01*
X185487142Y-71925714D01*
X185344285Y-71997142D01*
X159310000Y-73068571D02*
X159310000Y-71568571D01*
X159881428Y-71568571D01*
X160024285Y-71640000D01*
X160095714Y-71711428D01*
X160167142Y-71854285D01*
X160167142Y-72068571D01*
X160095714Y-72211428D01*
X160024285Y-72282857D01*
X159881428Y-72354285D01*
X159310000Y-72354285D01*
X161024285Y-73068571D02*
X160881428Y-72997142D01*
X160810000Y-72925714D01*
X160738571Y-72782857D01*
X160738571Y-72354285D01*
X160810000Y-72211428D01*
X160881428Y-72140000D01*
X161024285Y-72068571D01*
X161238571Y-72068571D01*
X161381428Y-72140000D01*
X161452857Y-72211428D01*
X161524285Y-72354285D01*
X161524285Y-72782857D01*
X161452857Y-72925714D01*
X161381428Y-72997142D01*
X161238571Y-73068571D01*
X161024285Y-73068571D01*
X162167142Y-73068571D02*
X162167142Y-72068571D01*
X162167142Y-72354285D02*
X162238571Y-72211428D01*
X162310000Y-72140000D01*
X162452857Y-72068571D01*
X162595714Y-72068571D01*
X162881428Y-72068571D02*
X163452857Y-72068571D01*
X163095714Y-71568571D02*
X163095714Y-72854285D01*
X163167142Y-72997142D01*
X163310000Y-73068571D01*
X163452857Y-73068571D01*
X165024285Y-71711428D02*
X165095714Y-71640000D01*
X165238571Y-71568571D01*
X165595714Y-71568571D01*
X165738571Y-71640000D01*
X165810000Y-71711428D01*
X165881428Y-71854285D01*
X165881428Y-71997142D01*
X165810000Y-72211428D01*
X164952857Y-73068571D01*
X165881428Y-73068571D01*
X138990000Y-73068571D02*
X138990000Y-71568571D01*
X139561428Y-71568571D01*
X139704285Y-71640000D01*
X139775714Y-71711428D01*
X139847142Y-71854285D01*
X139847142Y-72068571D01*
X139775714Y-72211428D01*
X139704285Y-72282857D01*
X139561428Y-72354285D01*
X138990000Y-72354285D01*
X140704285Y-73068571D02*
X140561428Y-72997142D01*
X140490000Y-72925714D01*
X140418571Y-72782857D01*
X140418571Y-72354285D01*
X140490000Y-72211428D01*
X140561428Y-72140000D01*
X140704285Y-72068571D01*
X140918571Y-72068571D01*
X141061428Y-72140000D01*
X141132857Y-72211428D01*
X141204285Y-72354285D01*
X141204285Y-72782857D01*
X141132857Y-72925714D01*
X141061428Y-72997142D01*
X140918571Y-73068571D01*
X140704285Y-73068571D01*
X141847142Y-73068571D02*
X141847142Y-72068571D01*
X141847142Y-72354285D02*
X141918571Y-72211428D01*
X141990000Y-72140000D01*
X142132857Y-72068571D01*
X142275714Y-72068571D01*
X142561428Y-72068571D02*
X143132857Y-72068571D01*
X142775714Y-71568571D02*
X142775714Y-72854285D01*
X142847142Y-72997142D01*
X142990000Y-73068571D01*
X143132857Y-73068571D01*
X144632857Y-71568571D02*
X145561428Y-71568571D01*
X145061428Y-72140000D01*
X145275714Y-72140000D01*
X145418571Y-72211428D01*
X145490000Y-72282857D01*
X145561428Y-72425714D01*
X145561428Y-72782857D01*
X145490000Y-72925714D01*
X145418571Y-72997142D01*
X145275714Y-73068571D01*
X144847142Y-73068571D01*
X144704285Y-72997142D01*
X144632857Y-72925714D01*
X118670000Y-73068571D02*
X118670000Y-71568571D01*
X119241428Y-71568571D01*
X119384285Y-71640000D01*
X119455714Y-71711428D01*
X119527142Y-71854285D01*
X119527142Y-72068571D01*
X119455714Y-72211428D01*
X119384285Y-72282857D01*
X119241428Y-72354285D01*
X118670000Y-72354285D01*
X120384285Y-73068571D02*
X120241428Y-72997142D01*
X120170000Y-72925714D01*
X120098571Y-72782857D01*
X120098571Y-72354285D01*
X120170000Y-72211428D01*
X120241428Y-72140000D01*
X120384285Y-72068571D01*
X120598571Y-72068571D01*
X120741428Y-72140000D01*
X120812857Y-72211428D01*
X120884285Y-72354285D01*
X120884285Y-72782857D01*
X120812857Y-72925714D01*
X120741428Y-72997142D01*
X120598571Y-73068571D01*
X120384285Y-73068571D01*
X121527142Y-73068571D02*
X121527142Y-72068571D01*
X121527142Y-72354285D02*
X121598571Y-72211428D01*
X121670000Y-72140000D01*
X121812857Y-72068571D01*
X121955714Y-72068571D01*
X122241428Y-72068571D02*
X122812857Y-72068571D01*
X122455714Y-71568571D02*
X122455714Y-72854285D01*
X122527142Y-72997142D01*
X122670000Y-73068571D01*
X122812857Y-73068571D01*
X125098571Y-72068571D02*
X125098571Y-73068571D01*
X124741428Y-71497142D02*
X124384285Y-72568571D01*
X125312857Y-72568571D01*
X98350000Y-73068571D02*
X98350000Y-71568571D01*
X98921428Y-71568571D01*
X99064285Y-71640000D01*
X99135714Y-71711428D01*
X99207142Y-71854285D01*
X99207142Y-72068571D01*
X99135714Y-72211428D01*
X99064285Y-72282857D01*
X98921428Y-72354285D01*
X98350000Y-72354285D01*
X100064285Y-73068571D02*
X99921428Y-72997142D01*
X99850000Y-72925714D01*
X99778571Y-72782857D01*
X99778571Y-72354285D01*
X99850000Y-72211428D01*
X99921428Y-72140000D01*
X100064285Y-72068571D01*
X100278571Y-72068571D01*
X100421428Y-72140000D01*
X100492857Y-72211428D01*
X100564285Y-72354285D01*
X100564285Y-72782857D01*
X100492857Y-72925714D01*
X100421428Y-72997142D01*
X100278571Y-73068571D01*
X100064285Y-73068571D01*
X101207142Y-73068571D02*
X101207142Y-72068571D01*
X101207142Y-72354285D02*
X101278571Y-72211428D01*
X101350000Y-72140000D01*
X101492857Y-72068571D01*
X101635714Y-72068571D01*
X101921428Y-72068571D02*
X102492857Y-72068571D01*
X102135714Y-71568571D02*
X102135714Y-72854285D01*
X102207142Y-72997142D01*
X102350000Y-73068571D01*
X102492857Y-73068571D01*
X104850000Y-71568571D02*
X104135714Y-71568571D01*
X104064285Y-72282857D01*
X104135714Y-72211428D01*
X104278571Y-72140000D01*
X104635714Y-72140000D01*
X104778571Y-72211428D01*
X104850000Y-72282857D01*
X104921428Y-72425714D01*
X104921428Y-72782857D01*
X104850000Y-72925714D01*
X104778571Y-72997142D01*
X104635714Y-73068571D01*
X104278571Y-73068571D01*
X104135714Y-72997142D01*
X104064285Y-72925714D01*
X78030000Y-73068571D02*
X78030000Y-71568571D01*
X78601428Y-71568571D01*
X78744285Y-71640000D01*
X78815714Y-71711428D01*
X78887142Y-71854285D01*
X78887142Y-72068571D01*
X78815714Y-72211428D01*
X78744285Y-72282857D01*
X78601428Y-72354285D01*
X78030000Y-72354285D01*
X79744285Y-73068571D02*
X79601428Y-72997142D01*
X79530000Y-72925714D01*
X79458571Y-72782857D01*
X79458571Y-72354285D01*
X79530000Y-72211428D01*
X79601428Y-72140000D01*
X79744285Y-72068571D01*
X79958571Y-72068571D01*
X80101428Y-72140000D01*
X80172857Y-72211428D01*
X80244285Y-72354285D01*
X80244285Y-72782857D01*
X80172857Y-72925714D01*
X80101428Y-72997142D01*
X79958571Y-73068571D01*
X79744285Y-73068571D01*
X80887142Y-73068571D02*
X80887142Y-72068571D01*
X80887142Y-72354285D02*
X80958571Y-72211428D01*
X81030000Y-72140000D01*
X81172857Y-72068571D01*
X81315714Y-72068571D01*
X81601428Y-72068571D02*
X82172857Y-72068571D01*
X81815714Y-71568571D02*
X81815714Y-72854285D01*
X81887142Y-72997142D01*
X82030000Y-73068571D01*
X82172857Y-73068571D01*
X84458571Y-71568571D02*
X84172857Y-71568571D01*
X84030000Y-71640000D01*
X83958571Y-71711428D01*
X83815714Y-71925714D01*
X83744285Y-72211428D01*
X83744285Y-72782857D01*
X83815714Y-72925714D01*
X83887142Y-72997142D01*
X84030000Y-73068571D01*
X84315714Y-73068571D01*
X84458571Y-72997142D01*
X84530000Y-72925714D01*
X84601428Y-72782857D01*
X84601428Y-72425714D01*
X84530000Y-72282857D01*
X84458571Y-72211428D01*
X84315714Y-72140000D01*
X84030000Y-72140000D01*
X83887142Y-72211428D01*
X83815714Y-72282857D01*
X83744285Y-72425714D01*
X57710000Y-73068571D02*
X57710000Y-71568571D01*
X58281428Y-71568571D01*
X58424285Y-71640000D01*
X58495714Y-71711428D01*
X58567142Y-71854285D01*
X58567142Y-72068571D01*
X58495714Y-72211428D01*
X58424285Y-72282857D01*
X58281428Y-72354285D01*
X57710000Y-72354285D01*
X59424285Y-73068571D02*
X59281428Y-72997142D01*
X59210000Y-72925714D01*
X59138571Y-72782857D01*
X59138571Y-72354285D01*
X59210000Y-72211428D01*
X59281428Y-72140000D01*
X59424285Y-72068571D01*
X59638571Y-72068571D01*
X59781428Y-72140000D01*
X59852857Y-72211428D01*
X59924285Y-72354285D01*
X59924285Y-72782857D01*
X59852857Y-72925714D01*
X59781428Y-72997142D01*
X59638571Y-73068571D01*
X59424285Y-73068571D01*
X60567142Y-73068571D02*
X60567142Y-72068571D01*
X60567142Y-72354285D02*
X60638571Y-72211428D01*
X60710000Y-72140000D01*
X60852857Y-72068571D01*
X60995714Y-72068571D01*
X61281428Y-72068571D02*
X61852857Y-72068571D01*
X61495714Y-71568571D02*
X61495714Y-72854285D01*
X61567142Y-72997142D01*
X61710000Y-73068571D01*
X61852857Y-73068571D01*
X63352857Y-71568571D02*
X64352857Y-71568571D01*
X63710000Y-73068571D01*
D12*
X122245380Y-96892904D02*
X122245380Y-97464333D01*
X122245380Y-97178619D02*
X121245380Y-97178619D01*
X121388238Y-97273857D01*
X121483476Y-97369095D01*
X121531095Y-97464333D01*
X121245380Y-96559571D02*
X122245380Y-96321476D01*
X121531095Y-96131000D01*
X122245380Y-95940523D01*
X121245380Y-95702428D01*
X122245380Y-95321476D02*
X121578714Y-95321476D01*
X121245380Y-95321476D02*
X121293000Y-95369095D01*
X121340619Y-95321476D01*
X121293000Y-95273857D01*
X121245380Y-95321476D01*
X121340619Y-95321476D01*
X122245380Y-94845285D02*
X121578714Y-94845285D01*
X121769190Y-94845285D02*
X121673952Y-94797666D01*
X121626333Y-94750047D01*
X121578714Y-94654809D01*
X121578714Y-94559571D01*
X122197761Y-93845285D02*
X122245380Y-93940523D01*
X122245380Y-94131000D01*
X122197761Y-94226238D01*
X122102523Y-94273857D01*
X121721571Y-94273857D01*
X121626333Y-94226238D01*
X121578714Y-94131000D01*
X121578714Y-93940523D01*
X121626333Y-93845285D01*
X121721571Y-93797666D01*
X121816809Y-93797666D01*
X121912047Y-94273857D01*
X39180904Y-74570380D02*
X38609476Y-74570380D01*
X38895190Y-74570380D02*
X38895190Y-73570380D01*
X38799952Y-73713238D01*
X38704714Y-73808476D01*
X38609476Y-73856095D01*
X39514238Y-73570380D02*
X39752333Y-74570380D01*
X39942809Y-73856095D01*
X40133285Y-74570380D01*
X40371380Y-73570380D01*
X40752333Y-74570380D02*
X40752333Y-73903714D01*
X40752333Y-73570380D02*
X40704714Y-73618000D01*
X40752333Y-73665619D01*
X40799952Y-73618000D01*
X40752333Y-73570380D01*
X40752333Y-73665619D01*
X41228523Y-74570380D02*
X41228523Y-73903714D01*
X41228523Y-74094190D02*
X41276142Y-73998952D01*
X41323761Y-73951333D01*
X41419000Y-73903714D01*
X41514238Y-73903714D01*
X42228523Y-74522761D02*
X42133285Y-74570380D01*
X41942809Y-74570380D01*
X41847571Y-74522761D01*
X41799952Y-74427523D01*
X41799952Y-74046571D01*
X41847571Y-73951333D01*
X41942809Y-73903714D01*
X42133285Y-73903714D01*
X42228523Y-73951333D01*
X42276142Y-74046571D01*
X42276142Y-74141809D01*
X41799952Y-74237047D01*
X43466619Y-74570380D02*
X43466619Y-73570380D01*
X43847571Y-73570380D01*
X43942809Y-73618000D01*
X43990428Y-73665619D01*
X44038047Y-73760857D01*
X44038047Y-73903714D01*
X43990428Y-73998952D01*
X43942809Y-74046571D01*
X43847571Y-74094190D01*
X43466619Y-74094190D01*
X44466619Y-74570380D02*
X44466619Y-73903714D01*
X44466619Y-73570380D02*
X44419000Y-73618000D01*
X44466619Y-73665619D01*
X44514238Y-73618000D01*
X44466619Y-73570380D01*
X44466619Y-73665619D01*
X44942809Y-73903714D02*
X44942809Y-74570380D01*
X44942809Y-73998952D02*
X44990428Y-73951333D01*
X45085666Y-73903714D01*
X45228523Y-73903714D01*
X45323761Y-73951333D01*
X45371380Y-74046571D01*
X45371380Y-74570380D01*
X45990428Y-74570380D02*
X45895190Y-74522761D01*
X45847571Y-74475142D01*
X45799952Y-74379904D01*
X45799952Y-74094190D01*
X45847571Y-73998952D01*
X45895190Y-73951333D01*
X45990428Y-73903714D01*
X46133285Y-73903714D01*
X46228523Y-73951333D01*
X46276142Y-73998952D01*
X46323761Y-74094190D01*
X46323761Y-74379904D01*
X46276142Y-74475142D01*
X46228523Y-74522761D01*
X46133285Y-74570380D01*
X45990428Y-74570380D01*
X47180904Y-73903714D02*
X47180904Y-74570380D01*
X46752333Y-73903714D02*
X46752333Y-74427523D01*
X46799952Y-74522761D01*
X46895190Y-74570380D01*
X47038047Y-74570380D01*
X47133285Y-74522761D01*
X47180904Y-74475142D01*
X47514238Y-73903714D02*
X47895190Y-73903714D01*
X47657095Y-73570380D02*
X47657095Y-74427523D01*
X47704714Y-74522761D01*
X47799952Y-74570380D01*
X47895190Y-74570380D01*
X48228523Y-74475142D02*
X48276142Y-74522761D01*
X48228523Y-74570380D01*
X48180904Y-74522761D01*
X48228523Y-74475142D01*
X48228523Y-74570380D01*
X48228523Y-73951333D02*
X48276142Y-73998952D01*
X48228523Y-74046571D01*
X48180904Y-73998952D01*
X48228523Y-73951333D01*
X48228523Y-74046571D01*
X39180904Y-76170380D02*
X38609476Y-76170380D01*
X38895190Y-76170380D02*
X38895190Y-75170380D01*
X38799952Y-75313238D01*
X38704714Y-75408476D01*
X38609476Y-75456095D01*
X39609476Y-76075142D02*
X39657095Y-76122761D01*
X39609476Y-76170380D01*
X39561857Y-76122761D01*
X39609476Y-76075142D01*
X39609476Y-76170380D01*
X39609476Y-75551333D02*
X39657095Y-75598952D01*
X39609476Y-75646571D01*
X39561857Y-75598952D01*
X39609476Y-75551333D01*
X39609476Y-75646571D01*
X41371380Y-75218000D02*
X41276142Y-75170380D01*
X41133285Y-75170380D01*
X40990428Y-75218000D01*
X40895190Y-75313238D01*
X40847571Y-75408476D01*
X40799952Y-75598952D01*
X40799952Y-75741809D01*
X40847571Y-75932285D01*
X40895190Y-76027523D01*
X40990428Y-76122761D01*
X41133285Y-76170380D01*
X41228523Y-76170380D01*
X41371380Y-76122761D01*
X41419000Y-76075142D01*
X41419000Y-75741809D01*
X41228523Y-75741809D01*
X41847571Y-75503714D02*
X41847571Y-76170380D01*
X41847571Y-75598952D02*
X41895190Y-75551333D01*
X41990428Y-75503714D01*
X42133285Y-75503714D01*
X42228523Y-75551333D01*
X42276142Y-75646571D01*
X42276142Y-76170380D01*
X43180904Y-76170380D02*
X43180904Y-75170380D01*
X43180904Y-76122761D02*
X43085666Y-76170380D01*
X42895190Y-76170380D01*
X42799952Y-76122761D01*
X42752333Y-76075142D01*
X42704714Y-75979904D01*
X42704714Y-75694190D01*
X42752333Y-75598952D01*
X42799952Y-75551333D01*
X42895190Y-75503714D01*
X43085666Y-75503714D01*
X43180904Y-75551333D01*
X38609476Y-76865619D02*
X38657095Y-76818000D01*
X38752333Y-76770380D01*
X38990428Y-76770380D01*
X39085666Y-76818000D01*
X39133285Y-76865619D01*
X39180904Y-76960857D01*
X39180904Y-77056095D01*
X39133285Y-77198952D01*
X38561857Y-77770380D01*
X39180904Y-77770380D01*
X39609476Y-77675142D02*
X39657095Y-77722761D01*
X39609476Y-77770380D01*
X39561857Y-77722761D01*
X39609476Y-77675142D01*
X39609476Y-77770380D01*
X39609476Y-77151333D02*
X39657095Y-77198952D01*
X39609476Y-77246571D01*
X39561857Y-77198952D01*
X39609476Y-77151333D01*
X39609476Y-77246571D01*
X40847571Y-77389428D02*
X41609476Y-77389428D01*
X41228523Y-77770380D02*
X41228523Y-77008476D01*
X42561857Y-76770380D02*
X42085666Y-76770380D01*
X42038047Y-77246571D01*
X42085666Y-77198952D01*
X42180904Y-77151333D01*
X42419000Y-77151333D01*
X42514238Y-77198952D01*
X42561857Y-77246571D01*
X42609476Y-77341809D01*
X42609476Y-77579904D01*
X42561857Y-77675142D01*
X42514238Y-77722761D01*
X42419000Y-77770380D01*
X42180904Y-77770380D01*
X42085666Y-77722761D01*
X42038047Y-77675142D01*
X42895190Y-76770380D02*
X43228523Y-77770380D01*
X43561857Y-76770380D01*
X38561857Y-78370380D02*
X39180904Y-78370380D01*
X38847571Y-78751333D01*
X38990428Y-78751333D01*
X39085666Y-78798952D01*
X39133285Y-78846571D01*
X39180904Y-78941809D01*
X39180904Y-79179904D01*
X39133285Y-79275142D01*
X39085666Y-79322761D01*
X38990428Y-79370380D01*
X38704714Y-79370380D01*
X38609476Y-79322761D01*
X38561857Y-79275142D01*
X39609476Y-79275142D02*
X39657095Y-79322761D01*
X39609476Y-79370380D01*
X39561857Y-79322761D01*
X39609476Y-79275142D01*
X39609476Y-79370380D01*
X39609476Y-78751333D02*
X39657095Y-78798952D01*
X39609476Y-78846571D01*
X39561857Y-78798952D01*
X39609476Y-78751333D01*
X39609476Y-78846571D01*
X41371380Y-78418000D02*
X41276142Y-78370380D01*
X41133285Y-78370380D01*
X40990428Y-78418000D01*
X40895190Y-78513238D01*
X40847571Y-78608476D01*
X40799952Y-78798952D01*
X40799952Y-78941809D01*
X40847571Y-79132285D01*
X40895190Y-79227523D01*
X40990428Y-79322761D01*
X41133285Y-79370380D01*
X41228523Y-79370380D01*
X41371380Y-79322761D01*
X41419000Y-79275142D01*
X41419000Y-78941809D01*
X41228523Y-78941809D01*
X41847571Y-78703714D02*
X41847571Y-79370380D01*
X41847571Y-78798952D02*
X41895190Y-78751333D01*
X41990428Y-78703714D01*
X42133285Y-78703714D01*
X42228523Y-78751333D01*
X42276142Y-78846571D01*
X42276142Y-79370380D01*
X43180904Y-79370380D02*
X43180904Y-78370380D01*
X43180904Y-79322761D02*
X43085666Y-79370380D01*
X42895190Y-79370380D01*
X42799952Y-79322761D01*
X42752333Y-79275142D01*
X42704714Y-79179904D01*
X42704714Y-78894190D01*
X42752333Y-78798952D01*
X42799952Y-78751333D01*
X42895190Y-78703714D01*
X43085666Y-78703714D01*
X43180904Y-78751333D01*
X39085666Y-80303714D02*
X39085666Y-80970380D01*
X38847571Y-79922761D02*
X38609476Y-80637047D01*
X39228523Y-80637047D01*
X39609476Y-80875142D02*
X39657095Y-80922761D01*
X39609476Y-80970380D01*
X39561857Y-80922761D01*
X39609476Y-80875142D01*
X39609476Y-80970380D01*
X39609476Y-80351333D02*
X39657095Y-80398952D01*
X39609476Y-80446571D01*
X39561857Y-80398952D01*
X39609476Y-80351333D01*
X39609476Y-80446571D01*
X41371380Y-80970380D02*
X40799952Y-80970380D01*
X41085666Y-80970380D02*
X41085666Y-79970380D01*
X40990428Y-80113238D01*
X40895190Y-80208476D01*
X40799952Y-80256095D01*
X42466619Y-79970380D02*
X42704714Y-80970380D01*
X42895190Y-80256095D01*
X43085666Y-80970380D01*
X43323761Y-79970380D01*
X43704714Y-80970380D02*
X43704714Y-80303714D01*
X43704714Y-79970380D02*
X43657095Y-80018000D01*
X43704714Y-80065619D01*
X43752333Y-80018000D01*
X43704714Y-79970380D01*
X43704714Y-80065619D01*
X44180904Y-80970380D02*
X44180904Y-80303714D01*
X44180904Y-80494190D02*
X44228523Y-80398952D01*
X44276142Y-80351333D01*
X44371380Y-80303714D01*
X44466619Y-80303714D01*
X45180904Y-80922761D02*
X45085666Y-80970380D01*
X44895190Y-80970380D01*
X44799952Y-80922761D01*
X44752333Y-80827523D01*
X44752333Y-80446571D01*
X44799952Y-80351333D01*
X44895190Y-80303714D01*
X45085666Y-80303714D01*
X45180904Y-80351333D01*
X45228523Y-80446571D01*
X45228523Y-80541809D01*
X44752333Y-80637047D01*
X39133285Y-81570380D02*
X38657095Y-81570380D01*
X38609476Y-82046571D01*
X38657095Y-81998952D01*
X38752333Y-81951333D01*
X38990428Y-81951333D01*
X39085666Y-81998952D01*
X39133285Y-82046571D01*
X39180904Y-82141809D01*
X39180904Y-82379904D01*
X39133285Y-82475142D01*
X39085666Y-82522761D01*
X38990428Y-82570380D01*
X38752333Y-82570380D01*
X38657095Y-82522761D01*
X38609476Y-82475142D01*
X39609476Y-82475142D02*
X39657095Y-82522761D01*
X39609476Y-82570380D01*
X39561857Y-82522761D01*
X39609476Y-82475142D01*
X39609476Y-82570380D01*
X39609476Y-81951333D02*
X39657095Y-81998952D01*
X39609476Y-82046571D01*
X39561857Y-81998952D01*
X39609476Y-81951333D01*
X39609476Y-82046571D01*
X41371380Y-81618000D02*
X41276142Y-81570380D01*
X41133285Y-81570380D01*
X40990428Y-81618000D01*
X40895190Y-81713238D01*
X40847571Y-81808476D01*
X40799952Y-81998952D01*
X40799952Y-82141809D01*
X40847571Y-82332285D01*
X40895190Y-82427523D01*
X40990428Y-82522761D01*
X41133285Y-82570380D01*
X41228523Y-82570380D01*
X41371380Y-82522761D01*
X41419000Y-82475142D01*
X41419000Y-82141809D01*
X41228523Y-82141809D01*
X41847571Y-81903714D02*
X41847571Y-82570380D01*
X41847571Y-81998952D02*
X41895190Y-81951333D01*
X41990428Y-81903714D01*
X42133285Y-81903714D01*
X42228523Y-81951333D01*
X42276142Y-82046571D01*
X42276142Y-82570380D01*
X43180904Y-82570380D02*
X43180904Y-81570380D01*
X43180904Y-82522761D02*
X43085666Y-82570380D01*
X42895190Y-82570380D01*
X42799952Y-82522761D01*
X42752333Y-82475142D01*
X42704714Y-82379904D01*
X42704714Y-82094190D01*
X42752333Y-81998952D01*
X42799952Y-81951333D01*
X42895190Y-81903714D01*
X43085666Y-81903714D01*
X43180904Y-81951333D01*
X39085666Y-83170380D02*
X38895190Y-83170380D01*
X38799952Y-83218000D01*
X38752333Y-83265619D01*
X38657095Y-83408476D01*
X38609476Y-83598952D01*
X38609476Y-83979904D01*
X38657095Y-84075142D01*
X38704714Y-84122761D01*
X38799952Y-84170380D01*
X38990428Y-84170380D01*
X39085666Y-84122761D01*
X39133285Y-84075142D01*
X39180904Y-83979904D01*
X39180904Y-83741809D01*
X39133285Y-83646571D01*
X39085666Y-83598952D01*
X38990428Y-83551333D01*
X38799952Y-83551333D01*
X38704714Y-83598952D01*
X38657095Y-83646571D01*
X38609476Y-83741809D01*
X39609476Y-84075142D02*
X39657095Y-84122761D01*
X39609476Y-84170380D01*
X39561857Y-84122761D01*
X39609476Y-84075142D01*
X39609476Y-84170380D01*
X39609476Y-83551333D02*
X39657095Y-83598952D01*
X39609476Y-83646571D01*
X39561857Y-83598952D01*
X39609476Y-83551333D01*
X39609476Y-83646571D01*
X40847571Y-84170380D02*
X40847571Y-83170380D01*
X41419000Y-84170380D01*
X41419000Y-83170380D01*
X42609476Y-83122761D02*
X41752333Y-84408476D01*
X43514238Y-84075142D02*
X43466619Y-84122761D01*
X43323761Y-84170380D01*
X43228523Y-84170380D01*
X43085666Y-84122761D01*
X42990428Y-84027523D01*
X42942809Y-83932285D01*
X42895190Y-83741809D01*
X42895190Y-83598952D01*
X42942809Y-83408476D01*
X42990428Y-83313238D01*
X43085666Y-83218000D01*
X43228523Y-83170380D01*
X43323761Y-83170380D01*
X43466619Y-83218000D01*
X43514238Y-83265619D01*
X38561857Y-84770380D02*
X39228523Y-84770380D01*
X38799952Y-85770380D01*
X39609476Y-85675142D02*
X39657095Y-85722761D01*
X39609476Y-85770380D01*
X39561857Y-85722761D01*
X39609476Y-85675142D01*
X39609476Y-85770380D01*
X39609476Y-85151333D02*
X39657095Y-85198952D01*
X39609476Y-85246571D01*
X39561857Y-85198952D01*
X39609476Y-85151333D01*
X39609476Y-85246571D01*
X40847571Y-85770380D02*
X40847571Y-84770380D01*
X41419000Y-85770380D01*
X41419000Y-84770380D01*
X42609476Y-84722761D02*
X41752333Y-86008476D01*
X43514238Y-85675142D02*
X43466619Y-85722761D01*
X43323761Y-85770380D01*
X43228523Y-85770380D01*
X43085666Y-85722761D01*
X42990428Y-85627523D01*
X42942809Y-85532285D01*
X42895190Y-85341809D01*
X42895190Y-85198952D01*
X42942809Y-85008476D01*
X42990428Y-84913238D01*
X43085666Y-84818000D01*
X43228523Y-84770380D01*
X43323761Y-84770380D01*
X43466619Y-84818000D01*
X43514238Y-84865619D01*
X38799952Y-86798952D02*
X38704714Y-86751333D01*
X38657095Y-86703714D01*
X38609476Y-86608476D01*
X38609476Y-86560857D01*
X38657095Y-86465619D01*
X38704714Y-86418000D01*
X38799952Y-86370380D01*
X38990428Y-86370380D01*
X39085666Y-86418000D01*
X39133285Y-86465619D01*
X39180904Y-86560857D01*
X39180904Y-86608476D01*
X39133285Y-86703714D01*
X39085666Y-86751333D01*
X38990428Y-86798952D01*
X38799952Y-86798952D01*
X38704714Y-86846571D01*
X38657095Y-86894190D01*
X38609476Y-86989428D01*
X38609476Y-87179904D01*
X38657095Y-87275142D01*
X38704714Y-87322761D01*
X38799952Y-87370380D01*
X38990428Y-87370380D01*
X39085666Y-87322761D01*
X39133285Y-87275142D01*
X39180904Y-87179904D01*
X39180904Y-86989428D01*
X39133285Y-86894190D01*
X39085666Y-86846571D01*
X38990428Y-86798952D01*
X39609476Y-87275142D02*
X39657095Y-87322761D01*
X39609476Y-87370380D01*
X39561857Y-87322761D01*
X39609476Y-87275142D01*
X39609476Y-87370380D01*
X39609476Y-86751333D02*
X39657095Y-86798952D01*
X39609476Y-86846571D01*
X39561857Y-86798952D01*
X39609476Y-86751333D01*
X39609476Y-86846571D01*
X41371380Y-86418000D02*
X41276142Y-86370380D01*
X41133285Y-86370380D01*
X40990428Y-86418000D01*
X40895190Y-86513238D01*
X40847571Y-86608476D01*
X40799952Y-86798952D01*
X40799952Y-86941809D01*
X40847571Y-87132285D01*
X40895190Y-87227523D01*
X40990428Y-87322761D01*
X41133285Y-87370380D01*
X41228523Y-87370380D01*
X41371380Y-87322761D01*
X41419000Y-87275142D01*
X41419000Y-86941809D01*
X41228523Y-86941809D01*
X41847571Y-86703714D02*
X41847571Y-87370380D01*
X41847571Y-86798952D02*
X41895190Y-86751333D01*
X41990428Y-86703714D01*
X42133285Y-86703714D01*
X42228523Y-86751333D01*
X42276142Y-86846571D01*
X42276142Y-87370380D01*
X43180904Y-87370380D02*
X43180904Y-86370380D01*
X43180904Y-87322761D02*
X43085666Y-87370380D01*
X42895190Y-87370380D01*
X42799952Y-87322761D01*
X42752333Y-87275142D01*
X42704714Y-87179904D01*
X42704714Y-86894190D01*
X42752333Y-86798952D01*
X42799952Y-86751333D01*
X42895190Y-86703714D01*
X43085666Y-86703714D01*
X43180904Y-86751333D01*
D13*
X184330785Y-81387071D02*
X183473642Y-81387071D01*
X183902214Y-81387071D02*
X183902214Y-79887071D01*
X183759357Y-80101357D01*
X183616500Y-80244214D01*
X183473642Y-80315642D01*
X184830785Y-79887071D02*
X185187928Y-81387071D01*
X185473642Y-80315642D01*
X185759357Y-81387071D01*
X186116500Y-79887071D01*
X186687928Y-81387071D02*
X186687928Y-80387071D01*
X186687928Y-79887071D02*
X186616500Y-79958500D01*
X186687928Y-80029928D01*
X186759357Y-79958500D01*
X186687928Y-79887071D01*
X186687928Y-80029928D01*
X187402214Y-81387071D02*
X187402214Y-80387071D01*
X187402214Y-80672785D02*
X187473642Y-80529928D01*
X187545071Y-80458500D01*
X187687928Y-80387071D01*
X187830785Y-80387071D01*
X188902214Y-81315642D02*
X188759357Y-81387071D01*
X188473642Y-81387071D01*
X188330785Y-81315642D01*
X188259357Y-81172785D01*
X188259357Y-80601357D01*
X188330785Y-80458500D01*
X188473642Y-80387071D01*
X188759357Y-80387071D01*
X188902214Y-80458500D01*
X188973642Y-80601357D01*
X188973642Y-80744214D01*
X188259357Y-80887071D01*
X190687928Y-81315642D02*
X190902214Y-81387071D01*
X191259357Y-81387071D01*
X191402214Y-81315642D01*
X191473642Y-81244214D01*
X191545071Y-81101357D01*
X191545071Y-80958500D01*
X191473642Y-80815642D01*
X191402214Y-80744214D01*
X191259357Y-80672785D01*
X190973642Y-80601357D01*
X190830785Y-80529928D01*
X190759357Y-80458500D01*
X190687928Y-80315642D01*
X190687928Y-80172785D01*
X190759357Y-80029928D01*
X190830785Y-79958500D01*
X190973642Y-79887071D01*
X191330785Y-79887071D01*
X191545071Y-79958500D01*
X192402214Y-81387071D02*
X192259357Y-81315642D01*
X192187928Y-81244214D01*
X192116500Y-81101357D01*
X192116500Y-80672785D01*
X192187928Y-80529928D01*
X192259357Y-80458500D01*
X192402214Y-80387071D01*
X192616500Y-80387071D01*
X192759357Y-80458500D01*
X192830785Y-80529928D01*
X192902214Y-80672785D01*
X192902214Y-81101357D01*
X192830785Y-81244214D01*
X192759357Y-81315642D01*
X192616500Y-81387071D01*
X192402214Y-81387071D01*
X194687928Y-81387071D02*
X194687928Y-79887071D01*
X195187928Y-80958500D01*
X195687928Y-79887071D01*
X195687928Y-81387071D01*
X197045071Y-81387071D02*
X197045071Y-80601357D01*
X196973642Y-80458500D01*
X196830785Y-80387071D01*
X196545071Y-80387071D01*
X196402214Y-80458500D01*
X197045071Y-81315642D02*
X196902214Y-81387071D01*
X196545071Y-81387071D01*
X196402214Y-81315642D01*
X196330785Y-81172785D01*
X196330785Y-81029928D01*
X196402214Y-80887071D01*
X196545071Y-80815642D01*
X196902214Y-80815642D01*
X197045071Y-80744214D01*
X197759357Y-80387071D02*
X197759357Y-81387071D01*
X197759357Y-80529928D02*
X197830785Y-80458500D01*
X197973642Y-80387071D01*
X198187928Y-80387071D01*
X198330785Y-80458500D01*
X198402214Y-80601357D01*
X198402214Y-81387071D01*
X198973642Y-80387071D02*
X199330785Y-81387071D01*
X199687928Y-80387071D02*
X199330785Y-81387071D01*
X199187928Y-81744214D01*
X199116500Y-81815642D01*
X198973642Y-81887071D01*
X201330785Y-81315642D02*
X201545071Y-81387071D01*
X201902214Y-81387071D01*
X202045071Y-81315642D01*
X202116500Y-81244214D01*
X202187928Y-81101357D01*
X202187928Y-80958500D01*
X202116500Y-80815642D01*
X202045071Y-80744214D01*
X201902214Y-80672785D01*
X201616500Y-80601357D01*
X201473642Y-80529928D01*
X201402214Y-80458500D01*
X201330785Y-80315642D01*
X201330785Y-80172785D01*
X201402214Y-80029928D01*
X201473642Y-79958500D01*
X201616500Y-79887071D01*
X201973642Y-79887071D01*
X202187928Y-79958500D01*
X202687928Y-80387071D02*
X202973642Y-81387071D01*
X203259357Y-80672785D01*
X203545071Y-81387071D01*
X203830785Y-80387071D01*
X204402214Y-81387071D02*
X204402214Y-80387071D01*
X204402214Y-79887071D02*
X204330785Y-79958500D01*
X204402214Y-80029928D01*
X204473642Y-79958500D01*
X204402214Y-79887071D01*
X204402214Y-80029928D01*
X204902214Y-80387071D02*
X205473642Y-80387071D01*
X205116500Y-79887071D02*
X205116500Y-81172785D01*
X205187928Y-81315642D01*
X205330785Y-81387071D01*
X205473642Y-81387071D01*
X206616500Y-81315642D02*
X206473642Y-81387071D01*
X206187928Y-81387071D01*
X206045071Y-81315642D01*
X205973642Y-81244214D01*
X205902214Y-81101357D01*
X205902214Y-80672785D01*
X205973642Y-80529928D01*
X206045071Y-80458500D01*
X206187928Y-80387071D01*
X206473642Y-80387071D01*
X206616500Y-80458500D01*
X207259357Y-81387071D02*
X207259357Y-79887071D01*
X207902214Y-81387071D02*
X207902214Y-80601357D01*
X207830785Y-80458500D01*
X207687928Y-80387071D01*
X207473642Y-80387071D01*
X207330785Y-80458500D01*
X207259357Y-80529928D01*
X209187928Y-81315642D02*
X209045071Y-81387071D01*
X208759357Y-81387071D01*
X208616500Y-81315642D01*
X208545071Y-81172785D01*
X208545071Y-80601357D01*
X208616500Y-80458500D01*
X208759357Y-80387071D01*
X209045071Y-80387071D01*
X209187928Y-80458500D01*
X209259357Y-80601357D01*
X209259357Y-80744214D01*
X208545071Y-80887071D01*
X209830785Y-81315642D02*
X209973642Y-81387071D01*
X210259357Y-81387071D01*
X210402214Y-81315642D01*
X210473642Y-81172785D01*
X210473642Y-81101357D01*
X210402214Y-80958500D01*
X210259357Y-80887071D01*
X210045071Y-80887071D01*
X209902214Y-80815642D01*
X209830785Y-80672785D01*
X209830785Y-80601357D01*
X209902214Y-80458500D01*
X210045071Y-80387071D01*
X210259357Y-80387071D01*
X210402214Y-80458500D01*
X213116500Y-81387071D02*
X212616500Y-80672785D01*
X212259357Y-81387071D02*
X212259357Y-79887071D01*
X212830785Y-79887071D01*
X212973642Y-79958500D01*
X213045071Y-80029928D01*
X213116500Y-80172785D01*
X213116500Y-80387071D01*
X213045071Y-80529928D01*
X212973642Y-80601357D01*
X212830785Y-80672785D01*
X212259357Y-80672785D01*
X214330785Y-81315642D02*
X214187928Y-81387071D01*
X213902214Y-81387071D01*
X213759357Y-81315642D01*
X213687928Y-81172785D01*
X213687928Y-80601357D01*
X213759357Y-80458500D01*
X213902214Y-80387071D01*
X214187928Y-80387071D01*
X214330785Y-80458500D01*
X214402214Y-80601357D01*
X214402214Y-80744214D01*
X213687928Y-80887071D01*
X214902214Y-80387071D02*
X215259357Y-81387071D01*
X215616500Y-80387071D01*
X218116500Y-81387071D02*
X217259357Y-81387071D01*
X217687928Y-81387071D02*
X217687928Y-79887071D01*
X217545071Y-80101357D01*
X217402214Y-80244214D01*
X217259357Y-80315642D01*
X218759357Y-81244214D02*
X218830785Y-81315642D01*
X218759357Y-81387071D01*
X218687928Y-81315642D01*
X218759357Y-81244214D01*
X218759357Y-81387071D01*
X219402214Y-80029928D02*
X219473642Y-79958500D01*
X219616500Y-79887071D01*
X219973642Y-79887071D01*
X220116500Y-79958500D01*
X220187928Y-80029928D01*
X220259357Y-80172785D01*
X220259357Y-80315642D01*
X220187928Y-80529928D01*
X219330785Y-81387071D01*
X220259357Y-81387071D01*
D12*
X191469785Y-83866380D02*
X190993595Y-83866380D01*
X190993595Y-82866380D01*
X191803119Y-83866380D02*
X191803119Y-83199714D01*
X191803119Y-82866380D02*
X191755500Y-82914000D01*
X191803119Y-82961619D01*
X191850738Y-82914000D01*
X191803119Y-82866380D01*
X191803119Y-82961619D01*
X192707880Y-83818761D02*
X192612642Y-83866380D01*
X192422166Y-83866380D01*
X192326928Y-83818761D01*
X192279309Y-83771142D01*
X192231690Y-83675904D01*
X192231690Y-83390190D01*
X192279309Y-83294952D01*
X192326928Y-83247333D01*
X192422166Y-83199714D01*
X192612642Y-83199714D01*
X192707880Y-83247333D01*
X193517404Y-83818761D02*
X193422166Y-83866380D01*
X193231690Y-83866380D01*
X193136452Y-83818761D01*
X193088833Y-83723523D01*
X193088833Y-83342571D01*
X193136452Y-83247333D01*
X193231690Y-83199714D01*
X193422166Y-83199714D01*
X193517404Y-83247333D01*
X193565023Y-83342571D01*
X193565023Y-83437809D01*
X193088833Y-83533047D01*
X193993595Y-83199714D02*
X193993595Y-83866380D01*
X193993595Y-83294952D02*
X194041214Y-83247333D01*
X194136452Y-83199714D01*
X194279309Y-83199714D01*
X194374547Y-83247333D01*
X194422166Y-83342571D01*
X194422166Y-83866380D01*
X194850738Y-83818761D02*
X194945976Y-83866380D01*
X195136452Y-83866380D01*
X195231690Y-83818761D01*
X195279309Y-83723523D01*
X195279309Y-83675904D01*
X195231690Y-83580666D01*
X195136452Y-83533047D01*
X194993595Y-83533047D01*
X194898357Y-83485428D01*
X194850738Y-83390190D01*
X194850738Y-83342571D01*
X194898357Y-83247333D01*
X194993595Y-83199714D01*
X195136452Y-83199714D01*
X195231690Y-83247333D01*
X196088833Y-83818761D02*
X195993595Y-83866380D01*
X195803119Y-83866380D01*
X195707880Y-83818761D01*
X195660261Y-83723523D01*
X195660261Y-83342571D01*
X195707880Y-83247333D01*
X195803119Y-83199714D01*
X195993595Y-83199714D01*
X196088833Y-83247333D01*
X196136452Y-83342571D01*
X196136452Y-83437809D01*
X195660261Y-83533047D01*
X196993595Y-83866380D02*
X196993595Y-82866380D01*
X196993595Y-83818761D02*
X196898357Y-83866380D01*
X196707880Y-83866380D01*
X196612642Y-83818761D01*
X196565023Y-83771142D01*
X196517404Y-83675904D01*
X196517404Y-83390190D01*
X196565023Y-83294952D01*
X196612642Y-83247333D01*
X196707880Y-83199714D01*
X196898357Y-83199714D01*
X196993595Y-83247333D01*
X198660261Y-83199714D02*
X198660261Y-83866380D01*
X198231690Y-83199714D02*
X198231690Y-83723523D01*
X198279309Y-83818761D01*
X198374547Y-83866380D01*
X198517404Y-83866380D01*
X198612642Y-83818761D01*
X198660261Y-83771142D01*
X199136452Y-83199714D02*
X199136452Y-83866380D01*
X199136452Y-83294952D02*
X199184071Y-83247333D01*
X199279309Y-83199714D01*
X199422166Y-83199714D01*
X199517404Y-83247333D01*
X199565023Y-83342571D01*
X199565023Y-83866380D01*
X200469785Y-83866380D02*
X200469785Y-82866380D01*
X200469785Y-83818761D02*
X200374547Y-83866380D01*
X200184071Y-83866380D01*
X200088833Y-83818761D01*
X200041214Y-83771142D01*
X199993595Y-83675904D01*
X199993595Y-83390190D01*
X200041214Y-83294952D01*
X200088833Y-83247333D01*
X200184071Y-83199714D01*
X200374547Y-83199714D01*
X200469785Y-83247333D01*
X201326928Y-83818761D02*
X201231690Y-83866380D01*
X201041214Y-83866380D01*
X200945976Y-83818761D01*
X200898357Y-83723523D01*
X200898357Y-83342571D01*
X200945976Y-83247333D01*
X201041214Y-83199714D01*
X201231690Y-83199714D01*
X201326928Y-83247333D01*
X201374547Y-83342571D01*
X201374547Y-83437809D01*
X200898357Y-83533047D01*
X201803119Y-83866380D02*
X201803119Y-83199714D01*
X201803119Y-83390190D02*
X201850738Y-83294952D01*
X201898357Y-83247333D01*
X201993595Y-83199714D01*
X202088833Y-83199714D01*
X203041214Y-83199714D02*
X203422166Y-83199714D01*
X203184071Y-82866380D02*
X203184071Y-83723523D01*
X203231690Y-83818761D01*
X203326928Y-83866380D01*
X203422166Y-83866380D01*
X203755500Y-83866380D02*
X203755500Y-82866380D01*
X204184071Y-83866380D02*
X204184071Y-83342571D01*
X204136452Y-83247333D01*
X204041214Y-83199714D01*
X203898357Y-83199714D01*
X203803119Y-83247333D01*
X203755500Y-83294952D01*
X205041214Y-83818761D02*
X204945976Y-83866380D01*
X204755500Y-83866380D01*
X204660261Y-83818761D01*
X204612642Y-83723523D01*
X204612642Y-83342571D01*
X204660261Y-83247333D01*
X204755500Y-83199714D01*
X204945976Y-83199714D01*
X205041214Y-83247333D01*
X205088833Y-83342571D01*
X205088833Y-83437809D01*
X204612642Y-83533047D01*
X206136452Y-82866380D02*
X206707880Y-82866380D01*
X206422166Y-83866380D02*
X206422166Y-82866380D01*
X206993595Y-83580666D02*
X207469785Y-83580666D01*
X206898357Y-83866380D02*
X207231690Y-82866380D01*
X207565023Y-83866380D01*
X207898357Y-83866380D02*
X207898357Y-82866380D01*
X208279309Y-82866380D01*
X208374547Y-82914000D01*
X208422166Y-82961619D01*
X208469785Y-83056857D01*
X208469785Y-83199714D01*
X208422166Y-83294952D01*
X208374547Y-83342571D01*
X208279309Y-83390190D01*
X207898357Y-83390190D01*
X209469785Y-83866380D02*
X209136452Y-83390190D01*
X208898357Y-83866380D02*
X208898357Y-82866380D01*
X209279309Y-82866380D01*
X209374547Y-82914000D01*
X209422166Y-82961619D01*
X209469785Y-83056857D01*
X209469785Y-83199714D01*
X209422166Y-83294952D01*
X209374547Y-83342571D01*
X209279309Y-83390190D01*
X208898357Y-83390190D01*
X191184071Y-84466380D02*
X191374547Y-84466380D01*
X191469785Y-84514000D01*
X191565023Y-84609238D01*
X191612642Y-84799714D01*
X191612642Y-85133047D01*
X191565023Y-85323523D01*
X191469785Y-85418761D01*
X191374547Y-85466380D01*
X191184071Y-85466380D01*
X191088833Y-85418761D01*
X190993595Y-85323523D01*
X190945976Y-85133047D01*
X190945976Y-84799714D01*
X190993595Y-84609238D01*
X191088833Y-84514000D01*
X191184071Y-84466380D01*
X192041214Y-84799714D02*
X192041214Y-85799714D01*
X192041214Y-84847333D02*
X192136452Y-84799714D01*
X192326928Y-84799714D01*
X192422166Y-84847333D01*
X192469785Y-84894952D01*
X192517404Y-84990190D01*
X192517404Y-85275904D01*
X192469785Y-85371142D01*
X192422166Y-85418761D01*
X192326928Y-85466380D01*
X192136452Y-85466380D01*
X192041214Y-85418761D01*
X193326928Y-85418761D02*
X193231690Y-85466380D01*
X193041214Y-85466380D01*
X192945976Y-85418761D01*
X192898357Y-85323523D01*
X192898357Y-84942571D01*
X192945976Y-84847333D01*
X193041214Y-84799714D01*
X193231690Y-84799714D01*
X193326928Y-84847333D01*
X193374547Y-84942571D01*
X193374547Y-85037809D01*
X192898357Y-85133047D01*
X193803119Y-84799714D02*
X193803119Y-85466380D01*
X193803119Y-84894952D02*
X193850738Y-84847333D01*
X193945976Y-84799714D01*
X194088833Y-84799714D01*
X194184071Y-84847333D01*
X194231690Y-84942571D01*
X194231690Y-85466380D01*
X195469785Y-85466380D02*
X195469785Y-84466380D01*
X195469785Y-84942571D02*
X196041214Y-84942571D01*
X196041214Y-85466380D02*
X196041214Y-84466380D01*
X196945976Y-85466380D02*
X196945976Y-84942571D01*
X196898357Y-84847333D01*
X196803119Y-84799714D01*
X196612642Y-84799714D01*
X196517404Y-84847333D01*
X196945976Y-85418761D02*
X196850738Y-85466380D01*
X196612642Y-85466380D01*
X196517404Y-85418761D01*
X196469785Y-85323523D01*
X196469785Y-85228285D01*
X196517404Y-85133047D01*
X196612642Y-85085428D01*
X196850738Y-85085428D01*
X196945976Y-85037809D01*
X197422166Y-85466380D02*
X197422166Y-84799714D01*
X197422166Y-84990190D02*
X197469785Y-84894952D01*
X197517404Y-84847333D01*
X197612642Y-84799714D01*
X197707880Y-84799714D01*
X198469785Y-85466380D02*
X198469785Y-84466380D01*
X198469785Y-85418761D02*
X198374547Y-85466380D01*
X198184071Y-85466380D01*
X198088833Y-85418761D01*
X198041214Y-85371142D01*
X197993595Y-85275904D01*
X197993595Y-84990190D01*
X198041214Y-84894952D01*
X198088833Y-84847333D01*
X198184071Y-84799714D01*
X198374547Y-84799714D01*
X198469785Y-84847333D01*
X198850738Y-84799714D02*
X199041214Y-85466380D01*
X199231690Y-84990190D01*
X199422166Y-85466380D01*
X199612642Y-84799714D01*
X200422166Y-85466380D02*
X200422166Y-84942571D01*
X200374547Y-84847333D01*
X200279309Y-84799714D01*
X200088833Y-84799714D01*
X199993595Y-84847333D01*
X200422166Y-85418761D02*
X200326928Y-85466380D01*
X200088833Y-85466380D01*
X199993595Y-85418761D01*
X199945976Y-85323523D01*
X199945976Y-85228285D01*
X199993595Y-85133047D01*
X200088833Y-85085428D01*
X200326928Y-85085428D01*
X200422166Y-85037809D01*
X200898357Y-85466380D02*
X200898357Y-84799714D01*
X200898357Y-84990190D02*
X200945976Y-84894952D01*
X200993595Y-84847333D01*
X201088833Y-84799714D01*
X201184071Y-84799714D01*
X201898357Y-85418761D02*
X201803119Y-85466380D01*
X201612642Y-85466380D01*
X201517404Y-85418761D01*
X201469785Y-85323523D01*
X201469785Y-84942571D01*
X201517404Y-84847333D01*
X201612642Y-84799714D01*
X201803119Y-84799714D01*
X201898357Y-84847333D01*
X201945976Y-84942571D01*
X201945976Y-85037809D01*
X201469785Y-85133047D01*
X203612642Y-85466380D02*
X203136452Y-85466380D01*
X203136452Y-84466380D01*
X203945976Y-85466380D02*
X203945976Y-84799714D01*
X203945976Y-84466380D02*
X203898357Y-84514000D01*
X203945976Y-84561619D01*
X203993595Y-84514000D01*
X203945976Y-84466380D01*
X203945976Y-84561619D01*
X204850738Y-85418761D02*
X204755500Y-85466380D01*
X204565023Y-85466380D01*
X204469785Y-85418761D01*
X204422166Y-85371142D01*
X204374547Y-85275904D01*
X204374547Y-84990190D01*
X204422166Y-84894952D01*
X204469785Y-84847333D01*
X204565023Y-84799714D01*
X204755500Y-84799714D01*
X204850738Y-84847333D01*
X205660261Y-85418761D02*
X205565023Y-85466380D01*
X205374547Y-85466380D01*
X205279309Y-85418761D01*
X205231690Y-85323523D01*
X205231690Y-84942571D01*
X205279309Y-84847333D01*
X205374547Y-84799714D01*
X205565023Y-84799714D01*
X205660261Y-84847333D01*
X205707880Y-84942571D01*
X205707880Y-85037809D01*
X205231690Y-85133047D01*
X206136452Y-84799714D02*
X206136452Y-85466380D01*
X206136452Y-84894952D02*
X206184071Y-84847333D01*
X206279309Y-84799714D01*
X206422166Y-84799714D01*
X206517404Y-84847333D01*
X206565023Y-84942571D01*
X206565023Y-85466380D01*
X206993595Y-85418761D02*
X207088833Y-85466380D01*
X207279309Y-85466380D01*
X207374547Y-85418761D01*
X207422166Y-85323523D01*
X207422166Y-85275904D01*
X207374547Y-85180666D01*
X207279309Y-85133047D01*
X207136452Y-85133047D01*
X207041214Y-85085428D01*
X206993595Y-84990190D01*
X206993595Y-84942571D01*
X207041214Y-84847333D01*
X207136452Y-84799714D01*
X207279309Y-84799714D01*
X207374547Y-84847333D01*
X208231690Y-85418761D02*
X208136452Y-85466380D01*
X207945976Y-85466380D01*
X207850738Y-85418761D01*
X207803119Y-85323523D01*
X207803119Y-84942571D01*
X207850738Y-84847333D01*
X207945976Y-84799714D01*
X208136452Y-84799714D01*
X208231690Y-84847333D01*
X208279309Y-84942571D01*
X208279309Y-85037809D01*
X207803119Y-85133047D01*
X191279309Y-87447333D02*
X191231690Y-87399714D01*
X191136452Y-87256857D01*
X191088833Y-87161619D01*
X191041214Y-87018761D01*
X190993595Y-86780666D01*
X190993595Y-86590190D01*
X191041214Y-86352095D01*
X191088833Y-86209238D01*
X191136452Y-86114000D01*
X191231690Y-85971142D01*
X191279309Y-85923523D01*
X191565023Y-86399714D02*
X191755500Y-87066380D01*
X191945976Y-86590190D01*
X192136452Y-87066380D01*
X192326928Y-86399714D01*
X192612642Y-86399714D02*
X192803119Y-87066380D01*
X192993595Y-86590190D01*
X193184071Y-87066380D01*
X193374547Y-86399714D01*
X193660261Y-86399714D02*
X193850738Y-87066380D01*
X194041214Y-86590190D01*
X194231690Y-87066380D01*
X194422166Y-86399714D01*
X194803119Y-86971142D02*
X194850738Y-87018761D01*
X194803119Y-87066380D01*
X194755500Y-87018761D01*
X194803119Y-86971142D01*
X194803119Y-87066380D01*
X195136452Y-86399714D02*
X195517404Y-86399714D01*
X195279309Y-86066380D02*
X195279309Y-86923523D01*
X195326928Y-87018761D01*
X195422166Y-87066380D01*
X195517404Y-87066380D01*
X196279309Y-87066380D02*
X196279309Y-86542571D01*
X196231690Y-86447333D01*
X196136452Y-86399714D01*
X195945976Y-86399714D01*
X195850738Y-86447333D01*
X196279309Y-87018761D02*
X196184071Y-87066380D01*
X195945976Y-87066380D01*
X195850738Y-87018761D01*
X195803119Y-86923523D01*
X195803119Y-86828285D01*
X195850738Y-86733047D01*
X195945976Y-86685428D01*
X196184071Y-86685428D01*
X196279309Y-86637809D01*
X196755500Y-86399714D02*
X196755500Y-87399714D01*
X196755500Y-86447333D02*
X196850738Y-86399714D01*
X197041214Y-86399714D01*
X197136452Y-86447333D01*
X197184071Y-86494952D01*
X197231690Y-86590190D01*
X197231690Y-86875904D01*
X197184071Y-86971142D01*
X197136452Y-87018761D01*
X197041214Y-87066380D01*
X196850738Y-87066380D01*
X196755500Y-87018761D01*
X197660261Y-87066380D02*
X197660261Y-86399714D01*
X197660261Y-86590190D02*
X197707880Y-86494952D01*
X197755500Y-86447333D01*
X197850738Y-86399714D01*
X197945976Y-86399714D01*
X198279309Y-86971142D02*
X198326928Y-87018761D01*
X198279309Y-87066380D01*
X198231690Y-87018761D01*
X198279309Y-86971142D01*
X198279309Y-87066380D01*
X198898357Y-87066380D02*
X198803119Y-87018761D01*
X198755500Y-86971142D01*
X198707880Y-86875904D01*
X198707880Y-86590190D01*
X198755500Y-86494952D01*
X198803119Y-86447333D01*
X198898357Y-86399714D01*
X199041214Y-86399714D01*
X199136452Y-86447333D01*
X199184071Y-86494952D01*
X199231690Y-86590190D01*
X199231690Y-86875904D01*
X199184071Y-86971142D01*
X199136452Y-87018761D01*
X199041214Y-87066380D01*
X198898357Y-87066380D01*
X199660261Y-87066380D02*
X199660261Y-86399714D01*
X199660261Y-86590190D02*
X199707880Y-86494952D01*
X199755500Y-86447333D01*
X199850738Y-86399714D01*
X199945976Y-86399714D01*
X200707880Y-86399714D02*
X200707880Y-87209238D01*
X200660261Y-87304476D01*
X200612642Y-87352095D01*
X200517404Y-87399714D01*
X200374547Y-87399714D01*
X200279309Y-87352095D01*
X200707880Y-87018761D02*
X200612642Y-87066380D01*
X200422166Y-87066380D01*
X200326928Y-87018761D01*
X200279309Y-86971142D01*
X200231690Y-86875904D01*
X200231690Y-86590190D01*
X200279309Y-86494952D01*
X200326928Y-86447333D01*
X200422166Y-86399714D01*
X200612642Y-86399714D01*
X200707880Y-86447333D01*
X201898357Y-86018761D02*
X201041214Y-87304476D01*
X202422166Y-86066380D02*
X202612642Y-86066380D01*
X202707880Y-86114000D01*
X202803119Y-86209238D01*
X202850738Y-86399714D01*
X202850738Y-86733047D01*
X202803119Y-86923523D01*
X202707880Y-87018761D01*
X202612642Y-87066380D01*
X202422166Y-87066380D01*
X202326928Y-87018761D01*
X202231690Y-86923523D01*
X202184071Y-86733047D01*
X202184071Y-86399714D01*
X202231690Y-86209238D01*
X202326928Y-86114000D01*
X202422166Y-86066380D01*
X203279309Y-87066380D02*
X203279309Y-86066380D01*
X203279309Y-86542571D02*
X203850738Y-86542571D01*
X203850738Y-87066380D02*
X203850738Y-86066380D01*
X204803119Y-87066380D02*
X204326928Y-87066380D01*
X204326928Y-86066380D01*
X205041214Y-87447333D02*
X205088833Y-87399714D01*
X205184071Y-87256857D01*
X205231690Y-87161619D01*
X205279309Y-87018761D01*
X205326928Y-86780666D01*
X205326928Y-86590190D01*
X205279309Y-86352095D01*
X205231690Y-86209238D01*
X205184071Y-86114000D01*
X205088833Y-85971142D01*
X205041214Y-85923523D01*
X191565023Y-88571142D02*
X191517404Y-88618761D01*
X191374547Y-88666380D01*
X191279309Y-88666380D01*
X191136452Y-88618761D01*
X191041214Y-88523523D01*
X190993595Y-88428285D01*
X190945976Y-88237809D01*
X190945976Y-88094952D01*
X190993595Y-87904476D01*
X191041214Y-87809238D01*
X191136452Y-87714000D01*
X191279309Y-87666380D01*
X191374547Y-87666380D01*
X191517404Y-87714000D01*
X191565023Y-87761619D01*
X192136452Y-88666380D02*
X192041214Y-88618761D01*
X191993595Y-88571142D01*
X191945976Y-88475904D01*
X191945976Y-88190190D01*
X191993595Y-88094952D01*
X192041214Y-88047333D01*
X192136452Y-87999714D01*
X192279309Y-87999714D01*
X192374547Y-88047333D01*
X192422166Y-88094952D01*
X192469785Y-88190190D01*
X192469785Y-88475904D01*
X192422166Y-88571142D01*
X192374547Y-88618761D01*
X192279309Y-88666380D01*
X192136452Y-88666380D01*
X192898357Y-87999714D02*
X192898357Y-88999714D01*
X192898357Y-88047333D02*
X192993595Y-87999714D01*
X193184071Y-87999714D01*
X193279309Y-88047333D01*
X193326928Y-88094952D01*
X193374547Y-88190190D01*
X193374547Y-88475904D01*
X193326928Y-88571142D01*
X193279309Y-88618761D01*
X193184071Y-88666380D01*
X192993595Y-88666380D01*
X192898357Y-88618761D01*
X193707880Y-87999714D02*
X193945976Y-88666380D01*
X194184071Y-87999714D02*
X193945976Y-88666380D01*
X193850738Y-88904476D01*
X193803119Y-88952095D01*
X193707880Y-88999714D01*
X194565023Y-88666380D02*
X194565023Y-87999714D01*
X194565023Y-88190190D02*
X194612642Y-88094952D01*
X194660261Y-88047333D01*
X194755500Y-87999714D01*
X194850738Y-87999714D01*
X195184071Y-88666380D02*
X195184071Y-87999714D01*
X195184071Y-87666380D02*
X195136452Y-87714000D01*
X195184071Y-87761619D01*
X195231690Y-87714000D01*
X195184071Y-87666380D01*
X195184071Y-87761619D01*
X196088833Y-87999714D02*
X196088833Y-88809238D01*
X196041214Y-88904476D01*
X195993595Y-88952095D01*
X195898357Y-88999714D01*
X195755500Y-88999714D01*
X195660261Y-88952095D01*
X196088833Y-88618761D02*
X195993595Y-88666380D01*
X195803119Y-88666380D01*
X195707880Y-88618761D01*
X195660261Y-88571142D01*
X195612642Y-88475904D01*
X195612642Y-88190190D01*
X195660261Y-88094952D01*
X195707880Y-88047333D01*
X195803119Y-87999714D01*
X195993595Y-87999714D01*
X196088833Y-88047333D01*
X196565023Y-88666380D02*
X196565023Y-87666380D01*
X196993595Y-88666380D02*
X196993595Y-88142571D01*
X196945976Y-88047333D01*
X196850738Y-87999714D01*
X196707880Y-87999714D01*
X196612642Y-88047333D01*
X196565023Y-88094952D01*
X197326928Y-87999714D02*
X197707880Y-87999714D01*
X197469785Y-87666380D02*
X197469785Y-88523523D01*
X197517404Y-88618761D01*
X197612642Y-88666380D01*
X197707880Y-88666380D01*
X199612642Y-87904476D02*
X199517404Y-87856857D01*
X199326928Y-87856857D01*
X199231690Y-87904476D01*
X199136452Y-87999714D01*
X199088833Y-88094952D01*
X199088833Y-88285428D01*
X199136452Y-88380666D01*
X199231690Y-88475904D01*
X199326928Y-88523523D01*
X199517404Y-88523523D01*
X199612642Y-88475904D01*
X199422166Y-87523523D02*
X199184071Y-87571142D01*
X198945976Y-87714000D01*
X198803119Y-87952095D01*
X198755500Y-88190190D01*
X198803119Y-88428285D01*
X198945976Y-88666380D01*
X199184071Y-88809238D01*
X199422166Y-88856857D01*
X199660261Y-88809238D01*
X199898357Y-88666380D01*
X200041214Y-88428285D01*
X200088833Y-88190190D01*
X200041214Y-87952095D01*
X199898357Y-87714000D01*
X199660261Y-87571142D01*
X199422166Y-87523523D01*
X201231690Y-87761619D02*
X201279309Y-87714000D01*
X201374547Y-87666380D01*
X201612642Y-87666380D01*
X201707880Y-87714000D01*
X201755500Y-87761619D01*
X201803119Y-87856857D01*
X201803119Y-87952095D01*
X201755500Y-88094952D01*
X201184071Y-88666380D01*
X201803119Y-88666380D01*
X202422166Y-87666380D02*
X202517404Y-87666380D01*
X202612642Y-87714000D01*
X202660261Y-87761619D01*
X202707880Y-87856857D01*
X202755500Y-88047333D01*
X202755500Y-88285428D01*
X202707880Y-88475904D01*
X202660261Y-88571142D01*
X202612642Y-88618761D01*
X202517404Y-88666380D01*
X202422166Y-88666380D01*
X202326928Y-88618761D01*
X202279309Y-88571142D01*
X202231690Y-88475904D01*
X202184071Y-88285428D01*
X202184071Y-88047333D01*
X202231690Y-87856857D01*
X202279309Y-87761619D01*
X202326928Y-87714000D01*
X202422166Y-87666380D01*
X203707880Y-88666380D02*
X203136452Y-88666380D01*
X203422166Y-88666380D02*
X203422166Y-87666380D01*
X203326928Y-87809238D01*
X203231690Y-87904476D01*
X203136452Y-87952095D01*
X204279309Y-88094952D02*
X204184071Y-88047333D01*
X204136452Y-87999714D01*
X204088833Y-87904476D01*
X204088833Y-87856857D01*
X204136452Y-87761619D01*
X204184071Y-87714000D01*
X204279309Y-87666380D01*
X204469785Y-87666380D01*
X204565023Y-87714000D01*
X204612642Y-87761619D01*
X204660261Y-87856857D01*
X204660261Y-87904476D01*
X204612642Y-87999714D01*
X204565023Y-88047333D01*
X204469785Y-88094952D01*
X204279309Y-88094952D01*
X204184071Y-88142571D01*
X204136452Y-88190190D01*
X204088833Y-88285428D01*
X204088833Y-88475904D01*
X204136452Y-88571142D01*
X204184071Y-88618761D01*
X204279309Y-88666380D01*
X204469785Y-88666380D01*
X204565023Y-88618761D01*
X204612642Y-88571142D01*
X204660261Y-88475904D01*
X204660261Y-88285428D01*
X204612642Y-88190190D01*
X204565023Y-88142571D01*
X204469785Y-88094952D01*
X190993595Y-90266380D02*
X190993595Y-89266380D01*
X191469785Y-89599714D02*
X191469785Y-90266380D01*
X191469785Y-89694952D02*
X191517404Y-89647333D01*
X191612642Y-89599714D01*
X191755500Y-89599714D01*
X191850738Y-89647333D01*
X191898357Y-89742571D01*
X191898357Y-90266380D01*
X192231690Y-89599714D02*
X192612642Y-89599714D01*
X192374547Y-90266380D02*
X192374547Y-89409238D01*
X192422166Y-89314000D01*
X192517404Y-89266380D01*
X192612642Y-89266380D01*
X193326928Y-90218761D02*
X193231690Y-90266380D01*
X193041214Y-90266380D01*
X192945976Y-90218761D01*
X192898357Y-90123523D01*
X192898357Y-89742571D01*
X192945976Y-89647333D01*
X193041214Y-89599714D01*
X193231690Y-89599714D01*
X193326928Y-89647333D01*
X193374547Y-89742571D01*
X193374547Y-89837809D01*
X192898357Y-89933047D01*
X193803119Y-90266380D02*
X193803119Y-89599714D01*
X193803119Y-89790190D02*
X193850738Y-89694952D01*
X193898357Y-89647333D01*
X193993595Y-89599714D01*
X194088833Y-89599714D01*
X194422166Y-89599714D02*
X194422166Y-90266380D01*
X194422166Y-89694952D02*
X194469785Y-89647333D01*
X194565023Y-89599714D01*
X194707880Y-89599714D01*
X194803119Y-89647333D01*
X194850738Y-89742571D01*
X194850738Y-90266380D01*
X195469785Y-90266380D02*
X195374547Y-90218761D01*
X195326928Y-90171142D01*
X195279309Y-90075904D01*
X195279309Y-89790190D01*
X195326928Y-89694952D01*
X195374547Y-89647333D01*
X195469785Y-89599714D01*
X195612642Y-89599714D01*
X195707880Y-89647333D01*
X195755500Y-89694952D01*
X195803119Y-89790190D01*
X195803119Y-90075904D01*
X195755500Y-90171142D01*
X195707880Y-90218761D01*
X195612642Y-90266380D01*
X195469785Y-90266380D01*
X196993595Y-89742571D02*
X197326928Y-89742571D01*
X197469785Y-90266380D02*
X196993595Y-90266380D01*
X196993595Y-89266380D01*
X197469785Y-89266380D01*
X197898357Y-90266380D02*
X197898357Y-89599714D01*
X197898357Y-89694952D02*
X197945976Y-89647333D01*
X198041214Y-89599714D01*
X198184071Y-89599714D01*
X198279309Y-89647333D01*
X198326928Y-89742571D01*
X198326928Y-90266380D01*
X198326928Y-89742571D02*
X198374547Y-89647333D01*
X198469785Y-89599714D01*
X198612642Y-89599714D01*
X198707880Y-89647333D01*
X198755500Y-89742571D01*
X198755500Y-90266380D01*
X199231690Y-90266380D02*
X199231690Y-89266380D01*
X199231690Y-89647333D02*
X199326928Y-89599714D01*
X199517404Y-89599714D01*
X199612642Y-89647333D01*
X199660261Y-89694952D01*
X199707880Y-89790190D01*
X199707880Y-90075904D01*
X199660261Y-90171142D01*
X199612642Y-90218761D01*
X199517404Y-90266380D01*
X199326928Y-90266380D01*
X199231690Y-90218761D01*
X200517404Y-90218761D02*
X200422166Y-90266380D01*
X200231690Y-90266380D01*
X200136452Y-90218761D01*
X200088833Y-90123523D01*
X200088833Y-89742571D01*
X200136452Y-89647333D01*
X200231690Y-89599714D01*
X200422166Y-89599714D01*
X200517404Y-89647333D01*
X200565023Y-89742571D01*
X200565023Y-89837809D01*
X200088833Y-89933047D01*
X201422166Y-90266380D02*
X201422166Y-89266380D01*
X201422166Y-90218761D02*
X201326928Y-90266380D01*
X201136452Y-90266380D01*
X201041214Y-90218761D01*
X200993595Y-90171142D01*
X200945976Y-90075904D01*
X200945976Y-89790190D01*
X200993595Y-89694952D01*
X201041214Y-89647333D01*
X201136452Y-89599714D01*
X201326928Y-89599714D01*
X201422166Y-89647333D01*
X202326928Y-90266380D02*
X202326928Y-89266380D01*
X202326928Y-90218761D02*
X202231690Y-90266380D01*
X202041214Y-90266380D01*
X201945976Y-90218761D01*
X201898357Y-90171142D01*
X201850738Y-90075904D01*
X201850738Y-89790190D01*
X201898357Y-89694952D01*
X201945976Y-89647333D01*
X202041214Y-89599714D01*
X202231690Y-89599714D01*
X202326928Y-89647333D01*
X203184071Y-90218761D02*
X203088833Y-90266380D01*
X202898357Y-90266380D01*
X202803119Y-90218761D01*
X202755500Y-90123523D01*
X202755500Y-89742571D01*
X202803119Y-89647333D01*
X202898357Y-89599714D01*
X203088833Y-89599714D01*
X203184071Y-89647333D01*
X203231690Y-89742571D01*
X203231690Y-89837809D01*
X202755500Y-89933047D01*
X204088833Y-90266380D02*
X204088833Y-89266380D01*
X204088833Y-90218761D02*
X203993595Y-90266380D01*
X203803119Y-90266380D01*
X203707880Y-90218761D01*
X203660261Y-90171142D01*
X203612642Y-90075904D01*
X203612642Y-89790190D01*
X203660261Y-89694952D01*
X203707880Y-89647333D01*
X203803119Y-89599714D01*
X203993595Y-89599714D01*
X204088833Y-89647333D01*
X129865380Y-96615238D02*
X129389190Y-96948571D01*
X129865380Y-97186666D02*
X128865380Y-97186666D01*
X128865380Y-96805714D01*
X128913000Y-96710476D01*
X128960619Y-96662857D01*
X129055857Y-96615238D01*
X129198714Y-96615238D01*
X129293952Y-96662857D01*
X129341571Y-96710476D01*
X129389190Y-96805714D01*
X129389190Y-97186666D01*
X129865380Y-96281904D02*
X129198714Y-95758095D01*
X129198714Y-96281904D02*
X129865380Y-95758095D01*
X126452380Y-97210476D02*
X126452380Y-96639047D01*
X127452380Y-96924761D02*
X126452380Y-96924761D01*
X127452380Y-96400952D02*
X126785714Y-95877142D01*
X126785714Y-96400952D02*
X127452380Y-95877142D01*
X131580000Y-96527857D02*
X131532380Y-96623095D01*
X131532380Y-96765952D01*
X131580000Y-96908809D01*
X131675238Y-97004047D01*
X131770476Y-97051666D01*
X131960952Y-97099285D01*
X132103809Y-97099285D01*
X132294285Y-97051666D01*
X132389523Y-97004047D01*
X132484761Y-96908809D01*
X132532380Y-96765952D01*
X132532380Y-96670714D01*
X132484761Y-96527857D01*
X132437142Y-96480238D01*
X132103809Y-96480238D01*
X132103809Y-96670714D01*
X131865714Y-96051666D02*
X132532380Y-96051666D01*
X131960952Y-96051666D02*
X131913333Y-96004047D01*
X131865714Y-95908809D01*
X131865714Y-95765952D01*
X131913333Y-95670714D01*
X132008571Y-95623095D01*
X132532380Y-95623095D01*
X132532380Y-94718333D02*
X131532380Y-94718333D01*
X132484761Y-94718333D02*
X132532380Y-94813571D01*
X132532380Y-95004047D01*
X132484761Y-95099285D01*
X132437142Y-95146904D01*
X132341904Y-95194523D01*
X132056190Y-95194523D01*
X131960952Y-95146904D01*
X131913333Y-95099285D01*
X131865714Y-95004047D01*
X131865714Y-94813571D01*
X131913333Y-94718333D01*
X123785380Y-97234190D02*
X123785380Y-96615142D01*
X124166333Y-96948476D01*
X124166333Y-96805619D01*
X124213952Y-96710380D01*
X124261571Y-96662761D01*
X124356809Y-96615142D01*
X124594904Y-96615142D01*
X124690142Y-96662761D01*
X124737761Y-96710380D01*
X124785380Y-96805619D01*
X124785380Y-97091333D01*
X124737761Y-97186571D01*
X124690142Y-97234190D01*
X124690142Y-96186571D02*
X124737761Y-96138952D01*
X124785380Y-96186571D01*
X124737761Y-96234190D01*
X124690142Y-96186571D01*
X124785380Y-96186571D01*
X123785380Y-95805619D02*
X123785380Y-95186571D01*
X124166333Y-95519904D01*
X124166333Y-95377047D01*
X124213952Y-95281809D01*
X124261571Y-95234190D01*
X124356809Y-95186571D01*
X124594904Y-95186571D01*
X124690142Y-95234190D01*
X124737761Y-95281809D01*
X124785380Y-95377047D01*
X124785380Y-95662761D01*
X124737761Y-95758000D01*
X124690142Y-95805619D01*
X123785380Y-94900857D02*
X124785380Y-94567523D01*
X123785380Y-94234190D01*
X69667642Y-97353380D02*
X69667642Y-96353380D01*
X70239071Y-97353380D01*
X70239071Y-96353380D01*
X71286690Y-97353380D02*
X70953357Y-96877190D01*
X70715261Y-97353380D02*
X70715261Y-96353380D01*
X71096214Y-96353380D01*
X71191452Y-96401000D01*
X71239071Y-96448619D01*
X71286690Y-96543857D01*
X71286690Y-96686714D01*
X71239071Y-96781952D01*
X71191452Y-96829571D01*
X71096214Y-96877190D01*
X70715261Y-96877190D01*
X71667642Y-97305761D02*
X71810500Y-97353380D01*
X72048595Y-97353380D01*
X72143833Y-97305761D01*
X72191452Y-97258142D01*
X72239071Y-97162904D01*
X72239071Y-97067666D01*
X72191452Y-96972428D01*
X72143833Y-96924809D01*
X72048595Y-96877190D01*
X71858119Y-96829571D01*
X71762880Y-96781952D01*
X71715261Y-96734333D01*
X71667642Y-96639095D01*
X71667642Y-96543857D01*
X71715261Y-96448619D01*
X71762880Y-96401000D01*
X71858119Y-96353380D01*
X72096214Y-96353380D01*
X72239071Y-96401000D01*
X72524785Y-96353380D02*
X73096214Y-96353380D01*
X72810500Y-97353380D02*
X72810500Y-96353380D01*
X68858095Y-89685761D02*
X69000952Y-89733380D01*
X69239047Y-89733380D01*
X69334285Y-89685761D01*
X69381904Y-89638142D01*
X69429523Y-89542904D01*
X69429523Y-89447666D01*
X69381904Y-89352428D01*
X69334285Y-89304809D01*
X69239047Y-89257190D01*
X69048571Y-89209571D01*
X68953333Y-89161952D01*
X68905714Y-89114333D01*
X68858095Y-89019095D01*
X68858095Y-88923857D01*
X68905714Y-88828619D01*
X68953333Y-88781000D01*
X69048571Y-88733380D01*
X69286666Y-88733380D01*
X69429523Y-88781000D01*
X69762857Y-88733380D02*
X70000952Y-89733380D01*
X70191428Y-89019095D01*
X70381904Y-89733380D01*
X70620000Y-88733380D01*
X71572380Y-89638142D02*
X71524761Y-89685761D01*
X71381904Y-89733380D01*
X71286666Y-89733380D01*
X71143809Y-89685761D01*
X71048571Y-89590523D01*
X71000952Y-89495285D01*
X70953333Y-89304809D01*
X70953333Y-89161952D01*
X71000952Y-88971476D01*
X71048571Y-88876238D01*
X71143809Y-88781000D01*
X71286666Y-88733380D01*
X71381904Y-88733380D01*
X71524761Y-88781000D01*
X71572380Y-88828619D01*
X72477142Y-89733380D02*
X72000952Y-89733380D01*
X72000952Y-88733380D01*
X72810476Y-89733380D02*
X72810476Y-88733380D01*
X73381904Y-89733380D02*
X72953333Y-89161952D01*
X73381904Y-88733380D02*
X72810476Y-89304809D01*
X69016833Y-87145761D02*
X69159690Y-87193380D01*
X69397785Y-87193380D01*
X69493023Y-87145761D01*
X69540642Y-87098142D01*
X69588261Y-87002904D01*
X69588261Y-86907666D01*
X69540642Y-86812428D01*
X69493023Y-86764809D01*
X69397785Y-86717190D01*
X69207309Y-86669571D01*
X69112071Y-86621952D01*
X69064452Y-86574333D01*
X69016833Y-86479095D01*
X69016833Y-86383857D01*
X69064452Y-86288619D01*
X69112071Y-86241000D01*
X69207309Y-86193380D01*
X69445404Y-86193380D01*
X69588261Y-86241000D01*
X69921595Y-86193380D02*
X70159690Y-87193380D01*
X70350166Y-86479095D01*
X70540642Y-87193380D01*
X70778738Y-86193380D01*
X71159690Y-87193380D02*
X71159690Y-86193380D01*
X71397785Y-86193380D01*
X71540642Y-86241000D01*
X71635880Y-86336238D01*
X71683500Y-86431476D01*
X71731119Y-86621952D01*
X71731119Y-86764809D01*
X71683500Y-86955285D01*
X71635880Y-87050523D01*
X71540642Y-87145761D01*
X71397785Y-87193380D01*
X71159690Y-87193380D01*
X72112071Y-86907666D02*
X72588261Y-86907666D01*
X72016833Y-87193380D02*
X72350166Y-86193380D01*
X72683500Y-87193380D01*
X72873976Y-86193380D02*
X73445404Y-86193380D01*
X73159690Y-87193380D02*
X73159690Y-86193380D01*
X54919642Y-96464500D02*
X54824404Y-96416880D01*
X54681547Y-96416880D01*
X54538690Y-96464500D01*
X54443452Y-96559738D01*
X54395833Y-96654976D01*
X54348214Y-96845452D01*
X54348214Y-96988309D01*
X54395833Y-97178785D01*
X54443452Y-97274023D01*
X54538690Y-97369261D01*
X54681547Y-97416880D01*
X54776785Y-97416880D01*
X54919642Y-97369261D01*
X54967261Y-97321642D01*
X54967261Y-96988309D01*
X54776785Y-96988309D01*
X55395833Y-96750214D02*
X55395833Y-97416880D01*
X55395833Y-96845452D02*
X55443452Y-96797833D01*
X55538690Y-96750214D01*
X55681547Y-96750214D01*
X55776785Y-96797833D01*
X55824404Y-96893071D01*
X55824404Y-97416880D01*
X56729166Y-97416880D02*
X56729166Y-96416880D01*
X56729166Y-97369261D02*
X56633928Y-97416880D01*
X56443452Y-97416880D01*
X56348214Y-97369261D01*
X56300595Y-97321642D01*
X56252976Y-97226404D01*
X56252976Y-96940690D01*
X56300595Y-96845452D01*
X56348214Y-96797833D01*
X56443452Y-96750214D01*
X56633928Y-96750214D01*
X56729166Y-96797833D01*
X54919642Y-91321000D02*
X54824404Y-91273380D01*
X54681547Y-91273380D01*
X54538690Y-91321000D01*
X54443452Y-91416238D01*
X54395833Y-91511476D01*
X54348214Y-91701952D01*
X54348214Y-91844809D01*
X54395833Y-92035285D01*
X54443452Y-92130523D01*
X54538690Y-92225761D01*
X54681547Y-92273380D01*
X54776785Y-92273380D01*
X54919642Y-92225761D01*
X54967261Y-92178142D01*
X54967261Y-91844809D01*
X54776785Y-91844809D01*
X55395833Y-91606714D02*
X55395833Y-92273380D01*
X55395833Y-91701952D02*
X55443452Y-91654333D01*
X55538690Y-91606714D01*
X55681547Y-91606714D01*
X55776785Y-91654333D01*
X55824404Y-91749571D01*
X55824404Y-92273380D01*
X56729166Y-92273380D02*
X56729166Y-91273380D01*
X56729166Y-92225761D02*
X56633928Y-92273380D01*
X56443452Y-92273380D01*
X56348214Y-92225761D01*
X56300595Y-92178142D01*
X56252976Y-92082904D01*
X56252976Y-91797190D01*
X56300595Y-91701952D01*
X56348214Y-91654333D01*
X56443452Y-91606714D01*
X56633928Y-91606714D01*
X56729166Y-91654333D01*
X54919642Y-88844500D02*
X54824404Y-88796880D01*
X54681547Y-88796880D01*
X54538690Y-88844500D01*
X54443452Y-88939738D01*
X54395833Y-89034976D01*
X54348214Y-89225452D01*
X54348214Y-89368309D01*
X54395833Y-89558785D01*
X54443452Y-89654023D01*
X54538690Y-89749261D01*
X54681547Y-89796880D01*
X54776785Y-89796880D01*
X54919642Y-89749261D01*
X54967261Y-89701642D01*
X54967261Y-89368309D01*
X54776785Y-89368309D01*
X55395833Y-89130214D02*
X55395833Y-89796880D01*
X55395833Y-89225452D02*
X55443452Y-89177833D01*
X55538690Y-89130214D01*
X55681547Y-89130214D01*
X55776785Y-89177833D01*
X55824404Y-89273071D01*
X55824404Y-89796880D01*
X56729166Y-89796880D02*
X56729166Y-88796880D01*
X56729166Y-89749261D02*
X56633928Y-89796880D01*
X56443452Y-89796880D01*
X56348214Y-89749261D01*
X56300595Y-89701642D01*
X56252976Y-89606404D01*
X56252976Y-89320690D01*
X56300595Y-89225452D01*
X56348214Y-89177833D01*
X56443452Y-89130214D01*
X56633928Y-89130214D01*
X56729166Y-89177833D01*
X53832309Y-86383880D02*
X54451357Y-86383880D01*
X54118023Y-86764833D01*
X54260880Y-86764833D01*
X54356119Y-86812452D01*
X54403738Y-86860071D01*
X54451357Y-86955309D01*
X54451357Y-87193404D01*
X54403738Y-87288642D01*
X54356119Y-87336261D01*
X54260880Y-87383880D01*
X53975166Y-87383880D01*
X53879928Y-87336261D01*
X53832309Y-87288642D01*
X54879928Y-87288642D02*
X54927547Y-87336261D01*
X54879928Y-87383880D01*
X54832309Y-87336261D01*
X54879928Y-87288642D01*
X54879928Y-87383880D01*
X55260880Y-86383880D02*
X55879928Y-86383880D01*
X55546595Y-86764833D01*
X55689452Y-86764833D01*
X55784690Y-86812452D01*
X55832309Y-86860071D01*
X55879928Y-86955309D01*
X55879928Y-87193404D01*
X55832309Y-87288642D01*
X55784690Y-87336261D01*
X55689452Y-87383880D01*
X55403738Y-87383880D01*
X55308500Y-87336261D01*
X55260880Y-87288642D01*
X56165642Y-86383880D02*
X56498976Y-87383880D01*
X56832309Y-86383880D01*
%TO.C,J3*%
X53414929Y-57286521D02*
X67979375Y-57286521D01*
X67979375Y-57286521D02*
X67979375Y-70578448D01*
X67979375Y-70578448D02*
X53414929Y-70578448D01*
X53414929Y-70578448D02*
X53414929Y-57286521D01*
X52243084Y-59579475D02*
X53351814Y-59579475D01*
X53351814Y-59579475D02*
X53351814Y-67441380D01*
X53351814Y-67441380D02*
X52243084Y-67441380D01*
X52243084Y-67441380D02*
X52243084Y-59579475D01*
X68067688Y-59579698D02*
X69176418Y-59579698D01*
X69176418Y-59579698D02*
X69176418Y-67441603D01*
X69176418Y-67441603D02*
X68067688Y-67441603D01*
X68067688Y-67441603D02*
X68067688Y-59579698D01*
D10*
%TO.C,P1*%
X60365000Y-85771000D02*
X57940000Y-85771000D01*
X60615000Y-95631000D02*
X65115000Y-95631000D01*
X60365000Y-95885000D02*
X60619000Y-95631000D01*
X60619000Y-95631000D02*
X60365000Y-95377000D01*
X60365000Y-95377000D02*
X60365000Y-95250000D01*
X60365000Y-96012000D02*
X60365000Y-95885000D01*
X65365000Y-95377000D02*
X65111000Y-95631000D01*
X65365000Y-95885000D02*
X65365000Y-96012000D01*
X65111000Y-95631000D02*
X65365000Y-95885000D01*
X65365000Y-95250000D02*
X65365000Y-95377000D01*
X60615000Y-88011000D02*
X65115000Y-88011000D01*
X65365000Y-98171000D02*
X65365000Y-97891000D01*
X65365000Y-98171000D02*
X60365000Y-98171000D01*
X60365000Y-98171000D02*
X60365000Y-97891000D01*
X60365000Y-85471000D02*
X60365000Y-85751000D01*
X65365000Y-85471000D02*
X60365000Y-85471000D01*
X65365000Y-87630000D02*
X65365000Y-87757000D01*
X65365000Y-87757000D02*
X65111000Y-88011000D01*
X65111000Y-88011000D02*
X65365000Y-88265000D01*
X65365000Y-88265000D02*
X65365000Y-88392000D01*
X65365000Y-85471000D02*
X65365000Y-85751000D01*
X65365000Y-90170000D02*
X65365000Y-90297000D01*
X65365000Y-92710000D02*
X65365000Y-92837000D01*
X60365000Y-88392000D02*
X60365000Y-88265000D01*
X65111000Y-90551000D02*
X65365000Y-90805000D01*
X65111000Y-93091000D02*
X65365000Y-93345000D01*
X60619000Y-88011000D02*
X60365000Y-87757000D01*
X65365000Y-90805000D02*
X65365000Y-90932000D01*
X65365000Y-93345000D02*
X65365000Y-93472000D01*
X60365000Y-87757000D02*
X60365000Y-87630000D01*
X65365000Y-90297000D02*
X65111000Y-90551000D01*
X65365000Y-92837000D02*
X65111000Y-93091000D01*
X60365000Y-88265000D02*
X60619000Y-88011000D01*
X60365000Y-90932000D02*
X60365000Y-90805000D01*
X60365000Y-93472000D02*
X60365000Y-93345000D01*
X60365000Y-90297000D02*
X60365000Y-90170000D01*
X60365000Y-92837000D02*
X60365000Y-92710000D01*
X60619000Y-90551000D02*
X60365000Y-90297000D01*
X60619000Y-93091000D02*
X60365000Y-92837000D01*
X60365000Y-90805000D02*
X60619000Y-90551000D01*
X60365000Y-93345000D02*
X60619000Y-93091000D01*
X60615000Y-90551000D02*
X65115000Y-90551000D01*
X60615000Y-93091000D02*
X65115000Y-93091000D01*
%TO.C,U2*%
X126270000Y-76105000D02*
X126270000Y-77105000D01*
X136620000Y-76105000D02*
X136620000Y-77180000D01*
X136620000Y-86455000D02*
X136620000Y-85380000D01*
X126270000Y-86455000D02*
X126270000Y-85380000D01*
X126270000Y-76105000D02*
X127345000Y-76105000D01*
X126270000Y-86455000D02*
X127345000Y-86455000D01*
X136620000Y-86455000D02*
X135545000Y-86455000D01*
X136620000Y-76105000D02*
X135545000Y-76105000D01*
X126270000Y-77105000D02*
X125245000Y-77105000D01*
D12*
%TO.C,J2*%
X93651071Y-103114479D02*
X79086625Y-103114479D01*
X79086625Y-103114479D02*
X79086625Y-89822552D01*
X79086625Y-89822552D02*
X93651071Y-89822552D01*
X93651071Y-89822552D02*
X93651071Y-103114479D01*
X94822916Y-100821525D02*
X93714186Y-100821525D01*
X93714186Y-100821525D02*
X93714186Y-92959620D01*
X93714186Y-92959620D02*
X94822916Y-92959620D01*
X94822916Y-92959620D02*
X94822916Y-100821525D01*
X78998312Y-100821302D02*
X77889582Y-100821302D01*
X77889582Y-100821302D02*
X77889582Y-92959397D01*
X77889582Y-92959397D02*
X78998312Y-92959397D01*
X78998312Y-92959397D02*
X78998312Y-100821302D01*
D10*
%TO.C,C1*%
X161290000Y-89662000D02*
X158661100Y-89662000D01*
X152908000Y-89662000D02*
X155536900Y-89662000D01*
X153670000Y-98044000D02*
X155536900Y-98044000D01*
X160528000Y-98044000D02*
X158661100Y-98044000D01*
X158661100Y-97459800D02*
G75*
G03X158661100Y-90246200I-1562100J3606800D01*
G01*
X155536900Y-90246200D02*
G75*
G03X155536900Y-97459800I1562100J-3606800D01*
G01*
X161290000Y-89662000D02*
X161290000Y-97282000D01*
X161290000Y-97282000D02*
X160528000Y-98044000D01*
X153670000Y-98044000D02*
X152908000Y-97282000D01*
X152908000Y-97282000D02*
X152908000Y-89662000D01*
%TO.C,C2*%
X142078000Y-86772000D02*
X142078000Y-87472000D01*
X140878000Y-87472000D02*
X140878000Y-86772000D01*
%TO.C,C3*%
X122590000Y-75915000D02*
X122590000Y-75215000D01*
X123790000Y-75215000D02*
X123790000Y-75915000D01*
%TO.C,C4*%
X139919000Y-86772000D02*
X139919000Y-87472000D01*
X138719000Y-87472000D02*
X138719000Y-86772000D01*
%TO.C,C5*%
X120558000Y-84551000D02*
X120558000Y-83851000D01*
X121758000Y-83851000D02*
X121758000Y-84551000D01*
D12*
%TO.C,J1*%
X113971071Y-103114479D02*
X99406625Y-103114479D01*
X99406625Y-103114479D02*
X99406625Y-89822552D01*
X99406625Y-89822552D02*
X113971071Y-89822552D01*
X113971071Y-89822552D02*
X113971071Y-103114479D01*
X115142916Y-100821525D02*
X114034186Y-100821525D01*
X114034186Y-100821525D02*
X114034186Y-92959620D01*
X114034186Y-92959620D02*
X115142916Y-92959620D01*
X115142916Y-92959620D02*
X115142916Y-100821525D01*
X99318312Y-100821302D02*
X98209582Y-100821302D01*
X98209582Y-100821302D02*
X98209582Y-92959397D01*
X98209582Y-92959397D02*
X99318312Y-92959397D01*
X99318312Y-92959397D02*
X99318312Y-100821302D01*
%TO.C,J4*%
X73734929Y-57286521D02*
X88299375Y-57286521D01*
X88299375Y-57286521D02*
X88299375Y-70578448D01*
X88299375Y-70578448D02*
X73734929Y-70578448D01*
X73734929Y-70578448D02*
X73734929Y-57286521D01*
X72563084Y-59579475D02*
X73671814Y-59579475D01*
X73671814Y-59579475D02*
X73671814Y-67441380D01*
X73671814Y-67441380D02*
X72563084Y-67441380D01*
X72563084Y-67441380D02*
X72563084Y-59579475D01*
X88387688Y-59579698D02*
X89496418Y-59579698D01*
X89496418Y-59579698D02*
X89496418Y-67441603D01*
X89496418Y-67441603D02*
X88387688Y-67441603D01*
X88387688Y-67441603D02*
X88387688Y-59579698D01*
%TO.C,J5*%
X94054929Y-57286521D02*
X108619375Y-57286521D01*
X108619375Y-57286521D02*
X108619375Y-70578448D01*
X108619375Y-70578448D02*
X94054929Y-70578448D01*
X94054929Y-70578448D02*
X94054929Y-57286521D01*
X92883084Y-59579475D02*
X93991814Y-59579475D01*
X93991814Y-59579475D02*
X93991814Y-67441380D01*
X93991814Y-67441380D02*
X92883084Y-67441380D01*
X92883084Y-67441380D02*
X92883084Y-59579475D01*
X108707688Y-59579698D02*
X109816418Y-59579698D01*
X109816418Y-59579698D02*
X109816418Y-67441603D01*
X109816418Y-67441603D02*
X108707688Y-67441603D01*
X108707688Y-67441603D02*
X108707688Y-59579698D01*
%TO.C,J6*%
X114374929Y-57286521D02*
X128939375Y-57286521D01*
X128939375Y-57286521D02*
X128939375Y-70578448D01*
X128939375Y-70578448D02*
X114374929Y-70578448D01*
X114374929Y-70578448D02*
X114374929Y-57286521D01*
X113203084Y-59579475D02*
X114311814Y-59579475D01*
X114311814Y-59579475D02*
X114311814Y-67441380D01*
X114311814Y-67441380D02*
X113203084Y-67441380D01*
X113203084Y-67441380D02*
X113203084Y-59579475D01*
X129027688Y-59579698D02*
X130136418Y-59579698D01*
X130136418Y-59579698D02*
X130136418Y-67441603D01*
X130136418Y-67441603D02*
X129027688Y-67441603D01*
X129027688Y-67441603D02*
X129027688Y-59579698D01*
%TO.C,J7*%
X134694929Y-57286521D02*
X149259375Y-57286521D01*
X149259375Y-57286521D02*
X149259375Y-70578448D01*
X149259375Y-70578448D02*
X134694929Y-70578448D01*
X134694929Y-70578448D02*
X134694929Y-57286521D01*
X133523084Y-59579475D02*
X134631814Y-59579475D01*
X134631814Y-59579475D02*
X134631814Y-67441380D01*
X134631814Y-67441380D02*
X133523084Y-67441380D01*
X133523084Y-67441380D02*
X133523084Y-59579475D01*
X149347688Y-59579698D02*
X150456418Y-59579698D01*
X150456418Y-59579698D02*
X150456418Y-67441603D01*
X150456418Y-67441603D02*
X149347688Y-67441603D01*
X149347688Y-67441603D02*
X149347688Y-59579698D01*
%TO.C,J8*%
X155014929Y-57286521D02*
X169579375Y-57286521D01*
X169579375Y-57286521D02*
X169579375Y-70578448D01*
X169579375Y-70578448D02*
X155014929Y-70578448D01*
X155014929Y-70578448D02*
X155014929Y-57286521D01*
X153843084Y-59579475D02*
X154951814Y-59579475D01*
X154951814Y-59579475D02*
X154951814Y-67441380D01*
X154951814Y-67441380D02*
X153843084Y-67441380D01*
X153843084Y-67441380D02*
X153843084Y-59579475D01*
X169667688Y-59579698D02*
X170776418Y-59579698D01*
X170776418Y-59579698D02*
X170776418Y-67441603D01*
X170776418Y-67441603D02*
X169667688Y-67441603D01*
X169667688Y-67441603D02*
X169667688Y-59579698D01*
%TO.C,J9*%
X175334929Y-57286521D02*
X189899375Y-57286521D01*
X189899375Y-57286521D02*
X189899375Y-70578448D01*
X189899375Y-70578448D02*
X175334929Y-70578448D01*
X175334929Y-70578448D02*
X175334929Y-57286521D01*
X174163084Y-59579475D02*
X175271814Y-59579475D01*
X175271814Y-59579475D02*
X175271814Y-67441380D01*
X175271814Y-67441380D02*
X174163084Y-67441380D01*
X174163084Y-67441380D02*
X174163084Y-59579475D01*
X189987688Y-59579698D02*
X191096418Y-59579698D01*
X191096418Y-59579698D02*
X191096418Y-67441603D01*
X191096418Y-67441603D02*
X189987688Y-67441603D01*
X189987688Y-67441603D02*
X189987688Y-59579698D01*
%TO.C,J10*%
X195654929Y-57286521D02*
X210219375Y-57286521D01*
X210219375Y-57286521D02*
X210219375Y-70578448D01*
X210219375Y-70578448D02*
X195654929Y-70578448D01*
X195654929Y-70578448D02*
X195654929Y-57286521D01*
X194483084Y-59579475D02*
X195591814Y-59579475D01*
X195591814Y-59579475D02*
X195591814Y-67441380D01*
X195591814Y-67441380D02*
X194483084Y-67441380D01*
X194483084Y-67441380D02*
X194483084Y-59579475D01*
X210307688Y-59579698D02*
X211416418Y-59579698D01*
X211416418Y-59579698D02*
X211416418Y-67441603D01*
X211416418Y-67441603D02*
X210307688Y-67441603D01*
X210307688Y-67441603D02*
X210307688Y-59579698D01*
D14*
%TO.C,R1*%
X72726000Y-95000000D02*
X72726000Y-94000000D01*
X74086000Y-94000000D02*
X74086000Y-95000000D01*
%TO.C,P6*%
X123063000Y-100323000D02*
X133343000Y-100323000D01*
X133343000Y-100323000D02*
X133343000Y-97543000D01*
X133343000Y-97543000D02*
X123063000Y-97543000D01*
X123063000Y-97543000D02*
X123063000Y-100323000D01*
X121793000Y-100323000D02*
X120403000Y-100323000D01*
X120403000Y-100323000D02*
X120403000Y-98933000D01*
%TO.C,U1*%
X166886000Y-94999000D02*
X166536000Y-94999000D01*
X166536000Y-94999000D02*
X166536000Y-93499000D01*
X171536000Y-94999000D02*
X168336000Y-94999000D01*
X173336000Y-93499000D02*
X173336000Y-94999000D01*
X173336000Y-94999000D02*
X172936000Y-94999000D01*
%TO.C,J3*%
D10*
X51609666Y-69175380D02*
X51609666Y-69889666D01*
X51562047Y-70032523D01*
X51466809Y-70127761D01*
X51323952Y-70175380D01*
X51228714Y-70175380D01*
X51990619Y-69175380D02*
X52609666Y-69175380D01*
X52276333Y-69556333D01*
X52419190Y-69556333D01*
X52514428Y-69603952D01*
X52562047Y-69651571D01*
X52609666Y-69746809D01*
X52609666Y-69984904D01*
X52562047Y-70080142D01*
X52514428Y-70127761D01*
X52419190Y-70175380D01*
X52133476Y-70175380D01*
X52038238Y-70127761D01*
X51990619Y-70080142D01*
%TO.C,P1*%
X55395904Y-84907380D02*
X55395904Y-83907380D01*
X55776857Y-83907380D01*
X55872095Y-83955000D01*
X55919714Y-84002619D01*
X55967333Y-84097857D01*
X55967333Y-84240714D01*
X55919714Y-84335952D01*
X55872095Y-84383571D01*
X55776857Y-84431190D01*
X55395904Y-84431190D01*
X56919714Y-84907380D02*
X56348285Y-84907380D01*
X56634000Y-84907380D02*
X56634000Y-83907380D01*
X56538761Y-84050238D01*
X56443523Y-84145476D01*
X56348285Y-84193095D01*
X63476142Y-95463809D02*
X63523761Y-95511428D01*
X63571380Y-95654285D01*
X63571380Y-95749523D01*
X63523761Y-95892380D01*
X63428523Y-95987619D01*
X63333285Y-96035238D01*
X63142809Y-96082857D01*
X62999952Y-96082857D01*
X62809476Y-96035238D01*
X62714238Y-95987619D01*
X62619000Y-95892380D01*
X62571380Y-95749523D01*
X62571380Y-95654285D01*
X62619000Y-95511428D01*
X62666619Y-95463809D01*
X62571380Y-94844761D02*
X62571380Y-94654285D01*
X62619000Y-94559047D01*
X62714238Y-94463809D01*
X62904714Y-94416190D01*
X63238047Y-94416190D01*
X63428523Y-94463809D01*
X63523761Y-94559047D01*
X63571380Y-94654285D01*
X63571380Y-94844761D01*
X63523761Y-94940000D01*
X63428523Y-95035238D01*
X63238047Y-95082857D01*
X62904714Y-95082857D01*
X62714238Y-95035238D01*
X62619000Y-94940000D01*
X62571380Y-94844761D01*
X63571380Y-93987619D02*
X62571380Y-93987619D01*
X63571380Y-93416190D01*
X62571380Y-93416190D01*
X63571380Y-92940000D02*
X62571380Y-92940000D01*
X63571380Y-92368571D01*
X62571380Y-92368571D01*
X63666619Y-92130476D02*
X63666619Y-91368571D01*
X62571380Y-90940000D02*
X62571380Y-90844761D01*
X62619000Y-90749523D01*
X62666619Y-90701904D01*
X62761857Y-90654285D01*
X62952333Y-90606666D01*
X63190428Y-90606666D01*
X63380904Y-90654285D01*
X63476142Y-90701904D01*
X63523761Y-90749523D01*
X63571380Y-90844761D01*
X63571380Y-90940000D01*
X63523761Y-91035238D01*
X63476142Y-91082857D01*
X63380904Y-91130476D01*
X63190428Y-91178095D01*
X62952333Y-91178095D01*
X62761857Y-91130476D01*
X62666619Y-91082857D01*
X62619000Y-91035238D01*
X62571380Y-90940000D01*
X62666619Y-90225714D02*
X62619000Y-90178095D01*
X62571380Y-90082857D01*
X62571380Y-89844761D01*
X62619000Y-89749523D01*
X62666619Y-89701904D01*
X62761857Y-89654285D01*
X62857095Y-89654285D01*
X62999952Y-89701904D01*
X63571380Y-90273333D01*
X63571380Y-89654285D01*
X62571380Y-89320952D02*
X63571380Y-88654285D01*
X62571380Y-88654285D02*
X63571380Y-89320952D01*
X62571380Y-88082857D02*
X62571380Y-87987619D01*
X62619000Y-87892380D01*
X62666619Y-87844761D01*
X62761857Y-87797142D01*
X62952333Y-87749523D01*
X63190428Y-87749523D01*
X63380904Y-87797142D01*
X63476142Y-87844761D01*
X63523761Y-87892380D01*
X63571380Y-87987619D01*
X63571380Y-88082857D01*
X63523761Y-88178095D01*
X63476142Y-88225714D01*
X63380904Y-88273333D01*
X63190428Y-88320952D01*
X62952333Y-88320952D01*
X62761857Y-88273333D01*
X62666619Y-88225714D01*
X62619000Y-88178095D01*
X62571380Y-88082857D01*
X62571380Y-86844761D02*
X62571380Y-87320952D01*
X63047571Y-87368571D01*
X62999952Y-87320952D01*
X62952333Y-87225714D01*
X62952333Y-86987619D01*
X62999952Y-86892380D01*
X63047571Y-86844761D01*
X63142809Y-86797142D01*
X63380904Y-86797142D01*
X63476142Y-86844761D01*
X63523761Y-86892380D01*
X63571380Y-86987619D01*
X63571380Y-87225714D01*
X63523761Y-87320952D01*
X63476142Y-87368571D01*
%TO.C,U2*%
X130683095Y-73532380D02*
X130683095Y-74341904D01*
X130730714Y-74437142D01*
X130778333Y-74484761D01*
X130873571Y-74532380D01*
X131064047Y-74532380D01*
X131159285Y-74484761D01*
X131206904Y-74437142D01*
X131254523Y-74341904D01*
X131254523Y-73532380D01*
X131683095Y-73627619D02*
X131730714Y-73580000D01*
X131825952Y-73532380D01*
X132064047Y-73532380D01*
X132159285Y-73580000D01*
X132206904Y-73627619D01*
X132254523Y-73722857D01*
X132254523Y-73818095D01*
X132206904Y-73960952D01*
X131635476Y-74532380D01*
X132254523Y-74532380D01*
D12*
X131248190Y-77260952D02*
X131210095Y-77375238D01*
X131210095Y-77565714D01*
X131248190Y-77641904D01*
X131286285Y-77680000D01*
X131362476Y-77718095D01*
X131438666Y-77718095D01*
X131514857Y-77680000D01*
X131552952Y-77641904D01*
X131591047Y-77565714D01*
X131629142Y-77413333D01*
X131667238Y-77337142D01*
X131705333Y-77299047D01*
X131781523Y-77260952D01*
X131857714Y-77260952D01*
X131933904Y-77299047D01*
X131972000Y-77337142D01*
X132010095Y-77413333D01*
X132010095Y-77603809D01*
X131972000Y-77718095D01*
X132010095Y-77946666D02*
X132010095Y-78403809D01*
X131210095Y-78175238D02*
X132010095Y-78175238D01*
X131210095Y-78670476D02*
X132010095Y-78670476D01*
X131438666Y-78937142D01*
X132010095Y-79203809D01*
X131210095Y-79203809D01*
X132010095Y-79508571D02*
X132010095Y-80003809D01*
X131705333Y-79737142D01*
X131705333Y-79851428D01*
X131667238Y-79927619D01*
X131629142Y-79965714D01*
X131552952Y-80003809D01*
X131362476Y-80003809D01*
X131286285Y-79965714D01*
X131248190Y-79927619D01*
X131210095Y-79851428D01*
X131210095Y-79622857D01*
X131248190Y-79546666D01*
X131286285Y-79508571D01*
X131933904Y-80308571D02*
X131972000Y-80346666D01*
X132010095Y-80422857D01*
X132010095Y-80613333D01*
X131972000Y-80689523D01*
X131933904Y-80727619D01*
X131857714Y-80765714D01*
X131781523Y-80765714D01*
X131667238Y-80727619D01*
X131210095Y-80270476D01*
X131210095Y-80765714D01*
X131629142Y-81375238D02*
X131629142Y-81108571D01*
X131210095Y-81108571D02*
X132010095Y-81108571D01*
X132010095Y-81489523D01*
X132010095Y-81946666D02*
X132010095Y-82022857D01*
X131972000Y-82099047D01*
X131933904Y-82137142D01*
X131857714Y-82175238D01*
X131705333Y-82213333D01*
X131514857Y-82213333D01*
X131362476Y-82175238D01*
X131286285Y-82137142D01*
X131248190Y-82099047D01*
X131210095Y-82022857D01*
X131210095Y-81946666D01*
X131248190Y-81870476D01*
X131286285Y-81832380D01*
X131362476Y-81794285D01*
X131514857Y-81756190D01*
X131705333Y-81756190D01*
X131857714Y-81794285D01*
X131933904Y-81832380D01*
X131972000Y-81870476D01*
X132010095Y-81946666D01*
X132010095Y-82480000D02*
X132010095Y-82975238D01*
X131705333Y-82708571D01*
X131705333Y-82822857D01*
X131667238Y-82899047D01*
X131629142Y-82937142D01*
X131552952Y-82975238D01*
X131362476Y-82975238D01*
X131286285Y-82937142D01*
X131248190Y-82899047D01*
X131210095Y-82822857D01*
X131210095Y-82594285D01*
X131248190Y-82518095D01*
X131286285Y-82480000D01*
X132010095Y-83470476D02*
X132010095Y-83546666D01*
X131972000Y-83622857D01*
X131933904Y-83660952D01*
X131857714Y-83699047D01*
X131705333Y-83737142D01*
X131514857Y-83737142D01*
X131362476Y-83699047D01*
X131286285Y-83660952D01*
X131248190Y-83622857D01*
X131210095Y-83546666D01*
X131210095Y-83470476D01*
X131248190Y-83394285D01*
X131286285Y-83356190D01*
X131362476Y-83318095D01*
X131514857Y-83280000D01*
X131705333Y-83280000D01*
X131857714Y-83318095D01*
X131933904Y-83356190D01*
X131972000Y-83394285D01*
X132010095Y-83470476D01*
X131210095Y-84537142D02*
X131591047Y-84270476D01*
X131210095Y-84080000D02*
X132010095Y-84080000D01*
X132010095Y-84384761D01*
X131972000Y-84460952D01*
X131933904Y-84499047D01*
X131857714Y-84537142D01*
X131743428Y-84537142D01*
X131667238Y-84499047D01*
X131629142Y-84460952D01*
X131591047Y-84384761D01*
X131591047Y-84080000D01*
X131667238Y-84994285D02*
X131705333Y-84918095D01*
X131743428Y-84880000D01*
X131819619Y-84841904D01*
X131857714Y-84841904D01*
X131933904Y-84880000D01*
X131972000Y-84918095D01*
X132010095Y-84994285D01*
X132010095Y-85146666D01*
X131972000Y-85222857D01*
X131933904Y-85260952D01*
X131857714Y-85299047D01*
X131819619Y-85299047D01*
X131743428Y-85260952D01*
X131705333Y-85222857D01*
X131667238Y-85146666D01*
X131667238Y-84994285D01*
X131629142Y-84918095D01*
X131591047Y-84880000D01*
X131514857Y-84841904D01*
X131362476Y-84841904D01*
X131286285Y-84880000D01*
X131248190Y-84918095D01*
X131210095Y-84994285D01*
X131210095Y-85146666D01*
X131248190Y-85222857D01*
X131286285Y-85260952D01*
X131362476Y-85299047D01*
X131514857Y-85299047D01*
X131591047Y-85260952D01*
X131629142Y-85222857D01*
X131667238Y-85146666D01*
%TO.C,J2*%
D10*
X92503666Y-87717380D02*
X92503666Y-88431666D01*
X92456047Y-88574523D01*
X92360809Y-88669761D01*
X92217952Y-88717380D01*
X92122714Y-88717380D01*
X92932238Y-87812619D02*
X92979857Y-87765000D01*
X93075095Y-87717380D01*
X93313190Y-87717380D01*
X93408428Y-87765000D01*
X93456047Y-87812619D01*
X93503666Y-87907857D01*
X93503666Y-88003095D01*
X93456047Y-88145952D01*
X92884619Y-88717380D01*
X93503666Y-88717380D01*
%TO.C,C1*%
X162904442Y-94019666D02*
X162952061Y-94067285D01*
X162999680Y-94210142D01*
X162999680Y-94305380D01*
X162952061Y-94448238D01*
X162856823Y-94543476D01*
X162761585Y-94591095D01*
X162571109Y-94638714D01*
X162428252Y-94638714D01*
X162237776Y-94591095D01*
X162142538Y-94543476D01*
X162047300Y-94448238D01*
X161999680Y-94305380D01*
X161999680Y-94210142D01*
X162047300Y-94067285D01*
X162094919Y-94019666D01*
X162999680Y-93067285D02*
X162999680Y-93638714D01*
X162999680Y-93353000D02*
X161999680Y-93353000D01*
X162142538Y-93448238D01*
X162237776Y-93543476D01*
X162285395Y-93638714D01*
X152103080Y-95400619D02*
X152103080Y-95972047D01*
X152103080Y-95686333D02*
X151103080Y-95686333D01*
X151245938Y-95781571D01*
X151341176Y-95876809D01*
X151388795Y-95972047D01*
X151103080Y-94781571D02*
X151103080Y-94686333D01*
X151150700Y-94591095D01*
X151198319Y-94543476D01*
X151293557Y-94495857D01*
X151484033Y-94448238D01*
X151722128Y-94448238D01*
X151912604Y-94495857D01*
X152007842Y-94543476D01*
X152055461Y-94591095D01*
X152103080Y-94686333D01*
X152103080Y-94781571D01*
X152055461Y-94876809D01*
X152007842Y-94924428D01*
X151912604Y-94972047D01*
X151722128Y-95019666D01*
X151484033Y-95019666D01*
X151293557Y-94972047D01*
X151198319Y-94924428D01*
X151150700Y-94876809D01*
X151103080Y-94781571D01*
X151103080Y-93829190D02*
X151103080Y-93733952D01*
X151150700Y-93638714D01*
X151198319Y-93591095D01*
X151293557Y-93543476D01*
X151484033Y-93495857D01*
X151722128Y-93495857D01*
X151912604Y-93543476D01*
X152007842Y-93591095D01*
X152055461Y-93638714D01*
X152103080Y-93733952D01*
X152103080Y-93829190D01*
X152055461Y-93924428D01*
X152007842Y-93972047D01*
X151912604Y-94019666D01*
X151722128Y-94067285D01*
X151484033Y-94067285D01*
X151293557Y-94019666D01*
X151198319Y-93972047D01*
X151150700Y-93924428D01*
X151103080Y-93829190D01*
X151436414Y-92638714D02*
X152103080Y-92638714D01*
X151436414Y-93067285D02*
X151960223Y-93067285D01*
X152055461Y-93019666D01*
X152103080Y-92924428D01*
X152103080Y-92781571D01*
X152055461Y-92686333D01*
X152007842Y-92638714D01*
X151579271Y-91829190D02*
X151579271Y-92162523D01*
X152103080Y-92162523D02*
X151103080Y-92162523D01*
X151103080Y-91686333D01*
X161082028Y-99009152D02*
X161082028Y-98247247D01*
X161462980Y-98628200D02*
X160701076Y-98628200D01*
%TO.C,C2*%
X141835142Y-90463666D02*
X141882761Y-90511285D01*
X141930380Y-90654142D01*
X141930380Y-90749380D01*
X141882761Y-90892238D01*
X141787523Y-90987476D01*
X141692285Y-91035095D01*
X141501809Y-91082714D01*
X141358952Y-91082714D01*
X141168476Y-91035095D01*
X141073238Y-90987476D01*
X140978000Y-90892238D01*
X140930380Y-90749380D01*
X140930380Y-90654142D01*
X140978000Y-90511285D01*
X141025619Y-90463666D01*
X141025619Y-90082714D02*
X140978000Y-90035095D01*
X140930380Y-89939857D01*
X140930380Y-89701761D01*
X140978000Y-89606523D01*
X141025619Y-89558904D01*
X141120857Y-89511285D01*
X141216095Y-89511285D01*
X141358952Y-89558904D01*
X141930380Y-90130333D01*
X141930380Y-89511285D01*
X141263714Y-84970761D02*
X141930380Y-84970761D01*
X140882761Y-85208857D02*
X141597047Y-85446952D01*
X141597047Y-84827904D01*
X141835142Y-84446952D02*
X141882761Y-84399333D01*
X141930380Y-84446952D01*
X141882761Y-84494571D01*
X141835142Y-84446952D01*
X141930380Y-84446952D01*
X140930380Y-84066000D02*
X140930380Y-83399333D01*
X141930380Y-83827904D01*
X141263714Y-82589809D02*
X141930380Y-82589809D01*
X141263714Y-83018380D02*
X141787523Y-83018380D01*
X141882761Y-82970761D01*
X141930380Y-82875523D01*
X141930380Y-82732666D01*
X141882761Y-82637428D01*
X141835142Y-82589809D01*
X141406571Y-81780285D02*
X141406571Y-82113619D01*
X141930380Y-82113619D02*
X140930380Y-82113619D01*
X140930380Y-81637428D01*
%TO.C,C3*%
X121647142Y-75731666D02*
X121694761Y-75779285D01*
X121742380Y-75922142D01*
X121742380Y-76017380D01*
X121694761Y-76160238D01*
X121599523Y-76255476D01*
X121504285Y-76303095D01*
X121313809Y-76350714D01*
X121170952Y-76350714D01*
X120980476Y-76303095D01*
X120885238Y-76255476D01*
X120790000Y-76160238D01*
X120742380Y-76017380D01*
X120742380Y-75922142D01*
X120790000Y-75779285D01*
X120837619Y-75731666D01*
X120742380Y-75398333D02*
X120742380Y-74779285D01*
X121123333Y-75112619D01*
X121123333Y-74969761D01*
X121170952Y-74874523D01*
X121218571Y-74826904D01*
X121313809Y-74779285D01*
X121551904Y-74779285D01*
X121647142Y-74826904D01*
X121694761Y-74874523D01*
X121742380Y-74969761D01*
X121742380Y-75255476D01*
X121694761Y-75350714D01*
X121647142Y-75398333D01*
X123896380Y-80922619D02*
X123896380Y-81494047D01*
X123896380Y-81208333D02*
X122896380Y-81208333D01*
X123039238Y-81303571D01*
X123134476Y-81398809D01*
X123182095Y-81494047D01*
X122896380Y-80303571D02*
X122896380Y-80208333D01*
X122944000Y-80113095D01*
X122991619Y-80065476D01*
X123086857Y-80017857D01*
X123277333Y-79970238D01*
X123515428Y-79970238D01*
X123705904Y-80017857D01*
X123801142Y-80065476D01*
X123848761Y-80113095D01*
X123896380Y-80208333D01*
X123896380Y-80303571D01*
X123848761Y-80398809D01*
X123801142Y-80446428D01*
X123705904Y-80494047D01*
X123515428Y-80541666D01*
X123277333Y-80541666D01*
X123086857Y-80494047D01*
X122991619Y-80446428D01*
X122944000Y-80398809D01*
X122896380Y-80303571D01*
X122896380Y-79351190D02*
X122896380Y-79255952D01*
X122944000Y-79160714D01*
X122991619Y-79113095D01*
X123086857Y-79065476D01*
X123277333Y-79017857D01*
X123515428Y-79017857D01*
X123705904Y-79065476D01*
X123801142Y-79113095D01*
X123848761Y-79160714D01*
X123896380Y-79255952D01*
X123896380Y-79351190D01*
X123848761Y-79446428D01*
X123801142Y-79494047D01*
X123705904Y-79541666D01*
X123515428Y-79589285D01*
X123277333Y-79589285D01*
X123086857Y-79541666D01*
X122991619Y-79494047D01*
X122944000Y-79446428D01*
X122896380Y-79351190D01*
X123229714Y-78589285D02*
X123896380Y-78589285D01*
X123324952Y-78589285D02*
X123277333Y-78541666D01*
X123229714Y-78446428D01*
X123229714Y-78303571D01*
X123277333Y-78208333D01*
X123372571Y-78160714D01*
X123896380Y-78160714D01*
X123372571Y-77351190D02*
X123372571Y-77684523D01*
X123896380Y-77684523D02*
X122896380Y-77684523D01*
X122896380Y-77208333D01*
%TO.C,C4*%
X139676142Y-90463666D02*
X139723761Y-90511285D01*
X139771380Y-90654142D01*
X139771380Y-90749380D01*
X139723761Y-90892238D01*
X139628523Y-90987476D01*
X139533285Y-91035095D01*
X139342809Y-91082714D01*
X139199952Y-91082714D01*
X139009476Y-91035095D01*
X138914238Y-90987476D01*
X138819000Y-90892238D01*
X138771380Y-90749380D01*
X138771380Y-90654142D01*
X138819000Y-90511285D01*
X138866619Y-90463666D01*
X139104714Y-89606523D02*
X139771380Y-89606523D01*
X138723761Y-89844619D02*
X139438047Y-90082714D01*
X139438047Y-89463666D01*
X139771380Y-84796119D02*
X139771380Y-85367547D01*
X139771380Y-85081833D02*
X138771380Y-85081833D01*
X138914238Y-85177071D01*
X139009476Y-85272309D01*
X139057095Y-85367547D01*
X138771380Y-84177071D02*
X138771380Y-84081833D01*
X138819000Y-83986595D01*
X138866619Y-83938976D01*
X138961857Y-83891357D01*
X139152333Y-83843738D01*
X139390428Y-83843738D01*
X139580904Y-83891357D01*
X139676142Y-83938976D01*
X139723761Y-83986595D01*
X139771380Y-84081833D01*
X139771380Y-84177071D01*
X139723761Y-84272309D01*
X139676142Y-84319928D01*
X139580904Y-84367547D01*
X139390428Y-84415166D01*
X139152333Y-84415166D01*
X138961857Y-84367547D01*
X138866619Y-84319928D01*
X138819000Y-84272309D01*
X138771380Y-84177071D01*
X138771380Y-83224690D02*
X138771380Y-83129452D01*
X138819000Y-83034214D01*
X138866619Y-82986595D01*
X138961857Y-82938976D01*
X139152333Y-82891357D01*
X139390428Y-82891357D01*
X139580904Y-82938976D01*
X139676142Y-82986595D01*
X139723761Y-83034214D01*
X139771380Y-83129452D01*
X139771380Y-83224690D01*
X139723761Y-83319928D01*
X139676142Y-83367547D01*
X139580904Y-83415166D01*
X139390428Y-83462785D01*
X139152333Y-83462785D01*
X138961857Y-83415166D01*
X138866619Y-83367547D01*
X138819000Y-83319928D01*
X138771380Y-83224690D01*
X139104714Y-82462785D02*
X139771380Y-82462785D01*
X139199952Y-82462785D02*
X139152333Y-82415166D01*
X139104714Y-82319928D01*
X139104714Y-82177071D01*
X139152333Y-82081833D01*
X139247571Y-82034214D01*
X139771380Y-82034214D01*
X139247571Y-81224690D02*
X139247571Y-81558023D01*
X139771380Y-81558023D02*
X138771380Y-81558023D01*
X138771380Y-81081833D01*
%TO.C,C5*%
X119615142Y-84367666D02*
X119662761Y-84415285D01*
X119710380Y-84558142D01*
X119710380Y-84653380D01*
X119662761Y-84796238D01*
X119567523Y-84891476D01*
X119472285Y-84939095D01*
X119281809Y-84986714D01*
X119138952Y-84986714D01*
X118948476Y-84939095D01*
X118853238Y-84891476D01*
X118758000Y-84796238D01*
X118710380Y-84653380D01*
X118710380Y-84558142D01*
X118758000Y-84415285D01*
X118805619Y-84367666D01*
X118710380Y-83462904D02*
X118710380Y-83939095D01*
X119186571Y-83986714D01*
X119138952Y-83939095D01*
X119091333Y-83843857D01*
X119091333Y-83605761D01*
X119138952Y-83510523D01*
X119186571Y-83462904D01*
X119281809Y-83415285D01*
X119519904Y-83415285D01*
X119615142Y-83462904D01*
X119662761Y-83510523D01*
X119710380Y-83605761D01*
X119710380Y-83843857D01*
X119662761Y-83939095D01*
X119615142Y-83986714D01*
X121610380Y-81938619D02*
X121610380Y-82510047D01*
X121610380Y-82224333D02*
X120610380Y-82224333D01*
X120753238Y-82319571D01*
X120848476Y-82414809D01*
X120896095Y-82510047D01*
X120610380Y-81319571D02*
X120610380Y-81224333D01*
X120658000Y-81129095D01*
X120705619Y-81081476D01*
X120800857Y-81033857D01*
X120991333Y-80986238D01*
X121229428Y-80986238D01*
X121419904Y-81033857D01*
X121515142Y-81081476D01*
X121562761Y-81129095D01*
X121610380Y-81224333D01*
X121610380Y-81319571D01*
X121562761Y-81414809D01*
X121515142Y-81462428D01*
X121419904Y-81510047D01*
X121229428Y-81557666D01*
X120991333Y-81557666D01*
X120800857Y-81510047D01*
X120705619Y-81462428D01*
X120658000Y-81414809D01*
X120610380Y-81319571D01*
X120610380Y-80367190D02*
X120610380Y-80271952D01*
X120658000Y-80176714D01*
X120705619Y-80129095D01*
X120800857Y-80081476D01*
X120991333Y-80033857D01*
X121229428Y-80033857D01*
X121419904Y-80081476D01*
X121515142Y-80129095D01*
X121562761Y-80176714D01*
X121610380Y-80271952D01*
X121610380Y-80367190D01*
X121562761Y-80462428D01*
X121515142Y-80510047D01*
X121419904Y-80557666D01*
X121229428Y-80605285D01*
X120991333Y-80605285D01*
X120800857Y-80557666D01*
X120705619Y-80510047D01*
X120658000Y-80462428D01*
X120610380Y-80367190D01*
X120943714Y-79605285D02*
X121610380Y-79605285D01*
X121038952Y-79605285D02*
X120991333Y-79557666D01*
X120943714Y-79462428D01*
X120943714Y-79319571D01*
X120991333Y-79224333D01*
X121086571Y-79176714D01*
X121610380Y-79176714D01*
X121086571Y-78367190D02*
X121086571Y-78700523D01*
X121610380Y-78700523D02*
X120610380Y-78700523D01*
X120610380Y-78224333D01*
%TO.C,J1*%
X113077666Y-88098380D02*
X113077666Y-88812666D01*
X113030047Y-88955523D01*
X112934809Y-89050761D01*
X112791952Y-89098380D01*
X112696714Y-89098380D01*
X114077666Y-89098380D02*
X113506238Y-89098380D01*
X113791952Y-89098380D02*
X113791952Y-88098380D01*
X113696714Y-88241238D01*
X113601476Y-88336476D01*
X113506238Y-88384095D01*
%TO.C,J4*%
X72056666Y-69302380D02*
X72056666Y-70016666D01*
X72009047Y-70159523D01*
X71913809Y-70254761D01*
X71770952Y-70302380D01*
X71675714Y-70302380D01*
X72961428Y-69635714D02*
X72961428Y-70302380D01*
X72723333Y-69254761D02*
X72485238Y-69969047D01*
X73104285Y-69969047D01*
%TO.C,J5*%
X92376666Y-69429380D02*
X92376666Y-70143666D01*
X92329047Y-70286523D01*
X92233809Y-70381761D01*
X92090952Y-70429380D01*
X91995714Y-70429380D01*
X93329047Y-69429380D02*
X92852857Y-69429380D01*
X92805238Y-69905571D01*
X92852857Y-69857952D01*
X92948095Y-69810333D01*
X93186190Y-69810333D01*
X93281428Y-69857952D01*
X93329047Y-69905571D01*
X93376666Y-70000809D01*
X93376666Y-70238904D01*
X93329047Y-70334142D01*
X93281428Y-70381761D01*
X93186190Y-70429380D01*
X92948095Y-70429380D01*
X92852857Y-70381761D01*
X92805238Y-70334142D01*
%TO.C,J6*%
X112696666Y-69175380D02*
X112696666Y-69889666D01*
X112649047Y-70032523D01*
X112553809Y-70127761D01*
X112410952Y-70175380D01*
X112315714Y-70175380D01*
X113601428Y-69175380D02*
X113410952Y-69175380D01*
X113315714Y-69223000D01*
X113268095Y-69270619D01*
X113172857Y-69413476D01*
X113125238Y-69603952D01*
X113125238Y-69984904D01*
X113172857Y-70080142D01*
X113220476Y-70127761D01*
X113315714Y-70175380D01*
X113506190Y-70175380D01*
X113601428Y-70127761D01*
X113649047Y-70080142D01*
X113696666Y-69984904D01*
X113696666Y-69746809D01*
X113649047Y-69651571D01*
X113601428Y-69603952D01*
X113506190Y-69556333D01*
X113315714Y-69556333D01*
X113220476Y-69603952D01*
X113172857Y-69651571D01*
X113125238Y-69746809D01*
%TO.C,J7*%
X133143666Y-69302380D02*
X133143666Y-70016666D01*
X133096047Y-70159523D01*
X133000809Y-70254761D01*
X132857952Y-70302380D01*
X132762714Y-70302380D01*
X133524619Y-69302380D02*
X134191285Y-69302380D01*
X133762714Y-70302380D01*
%TO.C,J8*%
X153463666Y-69048380D02*
X153463666Y-69762666D01*
X153416047Y-69905523D01*
X153320809Y-70000761D01*
X153177952Y-70048380D01*
X153082714Y-70048380D01*
X154082714Y-69476952D02*
X153987476Y-69429333D01*
X153939857Y-69381714D01*
X153892238Y-69286476D01*
X153892238Y-69238857D01*
X153939857Y-69143619D01*
X153987476Y-69096000D01*
X154082714Y-69048380D01*
X154273190Y-69048380D01*
X154368428Y-69096000D01*
X154416047Y-69143619D01*
X154463666Y-69238857D01*
X154463666Y-69286476D01*
X154416047Y-69381714D01*
X154368428Y-69429333D01*
X154273190Y-69476952D01*
X154082714Y-69476952D01*
X153987476Y-69524571D01*
X153939857Y-69572190D01*
X153892238Y-69667428D01*
X153892238Y-69857904D01*
X153939857Y-69953142D01*
X153987476Y-70000761D01*
X154082714Y-70048380D01*
X154273190Y-70048380D01*
X154368428Y-70000761D01*
X154416047Y-69953142D01*
X154463666Y-69857904D01*
X154463666Y-69667428D01*
X154416047Y-69572190D01*
X154368428Y-69524571D01*
X154273190Y-69476952D01*
%TO.C,J9*%
X173783666Y-69048380D02*
X173783666Y-69762666D01*
X173736047Y-69905523D01*
X173640809Y-70000761D01*
X173497952Y-70048380D01*
X173402714Y-70048380D01*
X174307476Y-70048380D02*
X174497952Y-70048380D01*
X174593190Y-70000761D01*
X174640809Y-69953142D01*
X174736047Y-69810285D01*
X174783666Y-69619809D01*
X174783666Y-69238857D01*
X174736047Y-69143619D01*
X174688428Y-69096000D01*
X174593190Y-69048380D01*
X174402714Y-69048380D01*
X174307476Y-69096000D01*
X174259857Y-69143619D01*
X174212238Y-69238857D01*
X174212238Y-69476952D01*
X174259857Y-69572190D01*
X174307476Y-69619809D01*
X174402714Y-69667428D01*
X174593190Y-69667428D01*
X174688428Y-69619809D01*
X174736047Y-69572190D01*
X174783666Y-69476952D01*
%TO.C,J10*%
X193373476Y-69175380D02*
X193373476Y-69889666D01*
X193325857Y-70032523D01*
X193230619Y-70127761D01*
X193087761Y-70175380D01*
X192992523Y-70175380D01*
X194373476Y-70175380D02*
X193802047Y-70175380D01*
X194087761Y-70175380D02*
X194087761Y-69175380D01*
X193992523Y-69318238D01*
X193897285Y-69413476D01*
X193802047Y-69461095D01*
X194992523Y-69175380D02*
X195087761Y-69175380D01*
X195183000Y-69223000D01*
X195230619Y-69270619D01*
X195278238Y-69365857D01*
X195325857Y-69556333D01*
X195325857Y-69794428D01*
X195278238Y-69984904D01*
X195230619Y-70080142D01*
X195183000Y-70127761D01*
X195087761Y-70175380D01*
X194992523Y-70175380D01*
X194897285Y-70127761D01*
X194849666Y-70080142D01*
X194802047Y-69984904D01*
X194754428Y-69794428D01*
X194754428Y-69556333D01*
X194802047Y-69365857D01*
X194849666Y-69270619D01*
X194897285Y-69223000D01*
X194992523Y-69175380D01*
%TO.C,R1*%
X75308380Y-94666666D02*
X74832190Y-95000000D01*
X75308380Y-95238095D02*
X74308380Y-95238095D01*
X74308380Y-94857142D01*
X74356000Y-94761904D01*
X74403619Y-94714285D01*
X74498857Y-94666666D01*
X74641714Y-94666666D01*
X74736952Y-94714285D01*
X74784571Y-94761904D01*
X74832190Y-94857142D01*
X74832190Y-95238095D01*
X75308380Y-93714285D02*
X75308380Y-94285714D01*
X75308380Y-94000000D02*
X74308380Y-94000000D01*
X74451238Y-94095238D01*
X74546476Y-94190476D01*
X74594095Y-94285714D01*
X72358380Y-95190476D02*
X72358380Y-95761904D01*
X72358380Y-95476190D02*
X71358380Y-95476190D01*
X71501238Y-95571428D01*
X71596476Y-95666666D01*
X71644095Y-95761904D01*
X71358380Y-94571428D02*
X71358380Y-94476190D01*
X71406000Y-94380952D01*
X71453619Y-94333333D01*
X71548857Y-94285714D01*
X71739333Y-94238095D01*
X71977428Y-94238095D01*
X72167904Y-94285714D01*
X72263142Y-94333333D01*
X72310761Y-94380952D01*
X72358380Y-94476190D01*
X72358380Y-94571428D01*
X72310761Y-94666666D01*
X72263142Y-94714285D01*
X72167904Y-94761904D01*
X71977428Y-94809523D01*
X71739333Y-94809523D01*
X71548857Y-94761904D01*
X71453619Y-94714285D01*
X71406000Y-94666666D01*
X71358380Y-94571428D01*
X72358380Y-93809523D02*
X71358380Y-93809523D01*
X72358380Y-93238095D02*
X71786952Y-93666666D01*
X71358380Y-93238095D02*
X71929809Y-93809523D01*
%TO.C,P6*%
X119855380Y-99671095D02*
X118855380Y-99671095D01*
X118855380Y-99290142D01*
X118903000Y-99194904D01*
X118950619Y-99147285D01*
X119045857Y-99099666D01*
X119188714Y-99099666D01*
X119283952Y-99147285D01*
X119331571Y-99194904D01*
X119379190Y-99290142D01*
X119379190Y-99671095D01*
X118855380Y-98242523D02*
X118855380Y-98433000D01*
X118903000Y-98528238D01*
X118950619Y-98575857D01*
X119093476Y-98671095D01*
X119283952Y-98718714D01*
X119664904Y-98718714D01*
X119760142Y-98671095D01*
X119807761Y-98623476D01*
X119855380Y-98528238D01*
X119855380Y-98337761D01*
X119807761Y-98242523D01*
X119760142Y-98194904D01*
X119664904Y-98147285D01*
X119426809Y-98147285D01*
X119331571Y-98194904D01*
X119283952Y-98242523D01*
X119236333Y-98337761D01*
X119236333Y-98528238D01*
X119283952Y-98623476D01*
X119331571Y-98671095D01*
X119426809Y-98718714D01*
%TO.C,U1*%
X164838380Y-94060904D02*
X165647904Y-94060904D01*
X165743142Y-94013285D01*
X165790761Y-93965666D01*
X165838380Y-93870428D01*
X165838380Y-93679952D01*
X165790761Y-93584714D01*
X165743142Y-93537095D01*
X165647904Y-93489476D01*
X164838380Y-93489476D01*
X165838380Y-92489476D02*
X165838380Y-93060904D01*
X165838380Y-92775190D02*
X164838380Y-92775190D01*
X164981238Y-92870428D01*
X165076476Y-92965666D01*
X165124095Y-93060904D01*
%TD*%
M02*
