%TF.GenerationSoftware,KiCad,Pcbnew,(5.0.1)-3*%
%TF.CreationDate,2018-12-23T12:05:20+11:00*%
%TF.ProjectId,1Wire-SoManySwitches,31576972652D536F4D616E7953776974,1.2*%
%TF.SameCoordinates,Original*%
%TF.FileFunction,Profile,NP*%
%FSLAX46Y46*%
G04 Gerber Fmt 4.6, Leading zero omitted, Abs format (unit mm)*
G04 Created by KiCad (PCBNEW (5.0.1)-3) date 23/12/2018 12:05:20 PM*
%MOMM*%
%LPD*%
G01*
G04 APERTURE LIST*
%ADD10C,0.150000*%
G04 APERTURE END LIST*
D10*
X79629000Y-92710000D02*
X93091000Y-92710000D01*
X79629000Y-100838000D02*
X79629000Y-92710000D01*
X36703000Y-100838000D02*
X79629000Y-100838000D01*
X99949000Y-92710000D02*
X113411000Y-92710000D01*
X229616000Y-100838000D02*
X229616000Y-59563000D01*
X113411000Y-100838000D02*
X229616000Y-100838000D01*
X99949000Y-100838000D02*
X99949000Y-92710000D01*
X93091000Y-100838000D02*
X99949000Y-100838000D01*
X36703000Y-59563000D02*
X36703000Y-100838000D01*
X53975000Y-59563000D02*
X36703000Y-59563000D01*
X53975000Y-59690000D02*
X53975000Y-59563000D01*
X209677000Y-59563000D02*
X229616000Y-59563000D01*
X209677000Y-67691000D02*
X209677000Y-59563000D01*
X196215000Y-67691000D02*
X209677000Y-67691000D01*
X196215000Y-59563000D02*
X196215000Y-67691000D01*
X189357000Y-59563000D02*
X196215000Y-59563000D01*
X189357000Y-67691000D02*
X189357000Y-59563000D01*
X175895000Y-67691000D02*
X189357000Y-67691000D01*
X175895000Y-59563000D02*
X175895000Y-67691000D01*
X169037000Y-59563000D02*
X175895000Y-59563000D01*
X169037000Y-67691000D02*
X169037000Y-59563000D01*
X155575000Y-67691000D02*
X169037000Y-67691000D01*
X155575000Y-59563000D02*
X155575000Y-67691000D01*
X148717000Y-59563000D02*
X155575000Y-59563000D01*
X148717000Y-67691000D02*
X148717000Y-59563000D01*
X135255000Y-67691000D02*
X148717000Y-67691000D01*
X135255000Y-59563000D02*
X135255000Y-67691000D01*
X128397000Y-59563000D02*
X135255000Y-59563000D01*
X128397000Y-67691000D02*
X128397000Y-59563000D01*
X114935000Y-67691000D02*
X128397000Y-67691000D01*
X114935000Y-59563000D02*
X114935000Y-67691000D01*
X108077000Y-59563000D02*
X114935000Y-59563000D01*
X108077000Y-67691000D02*
X108077000Y-59563000D01*
X94615000Y-67691000D02*
X108077000Y-67691000D01*
X94615000Y-59563000D02*
X94615000Y-67691000D01*
X94107000Y-59563000D02*
X94615000Y-59563000D01*
X87757000Y-59563000D02*
X94107000Y-59563000D01*
X87757000Y-67691000D02*
X87757000Y-59563000D01*
X74295000Y-67691000D02*
X87757000Y-67691000D01*
X74295000Y-59563000D02*
X74295000Y-67691000D01*
X67437000Y-59563000D02*
X74295000Y-59563000D01*
X67437000Y-67691000D02*
X67437000Y-59563000D01*
X53975000Y-67691000D02*
X67437000Y-67691000D01*
X53975000Y-59690000D02*
X53975000Y-67691000D01*
X113411000Y-92710000D02*
X113411000Y-100838000D01*
X93091000Y-92710000D02*
X93091000Y-100838000D01*
M02*
