G04 #@! TF.FileFunction,Legend,Top*
%FSLAX46Y46*%
G04 Gerber Fmt 4.6, Leading zero omitted, Abs format (unit mm)*
G04 Created by KiCad (PCBNEW 4.0.4-stable) date 03/10/17 08:23:15*
%MOMM*%
%LPD*%
G01*
G04 APERTURE LIST*
%ADD10C,0.100000*%
%ADD11C,0.300000*%
%ADD12C,0.310000*%
%ADD13C,0.150000*%
%ADD14C,0.002540*%
%ADD15C,0.120000*%
%ADD16C,0.304800*%
%ADD17C,0.125000*%
%ADD18C,0.198120*%
G04 APERTURE END LIST*
D10*
D11*
X138473643Y-97702356D02*
X138473643Y-96559499D01*
X139045071Y-97130928D02*
X137902214Y-97130928D01*
X138045071Y-95202356D02*
X139045071Y-95202356D01*
X137473643Y-95559499D02*
X138545071Y-95916642D01*
X138545071Y-94988070D01*
X138187929Y-94202356D02*
X138116500Y-94345214D01*
X138045071Y-94416642D01*
X137902214Y-94488071D01*
X137830786Y-94488071D01*
X137687929Y-94416642D01*
X137616500Y-94345214D01*
X137545071Y-94202356D01*
X137545071Y-93916642D01*
X137616500Y-93773785D01*
X137687929Y-93702356D01*
X137830786Y-93630928D01*
X137902214Y-93630928D01*
X138045071Y-93702356D01*
X138116500Y-93773785D01*
X138187929Y-93916642D01*
X138187929Y-94202356D01*
X138259357Y-94345214D01*
X138330786Y-94416642D01*
X138473643Y-94488071D01*
X138759357Y-94488071D01*
X138902214Y-94416642D01*
X138973643Y-94345214D01*
X139045071Y-94202356D01*
X139045071Y-93916642D01*
X138973643Y-93773785D01*
X138902214Y-93702356D01*
X138759357Y-93630928D01*
X138473643Y-93630928D01*
X138330786Y-93702356D01*
X138259357Y-93773785D01*
X138187929Y-93916642D01*
X137545071Y-93202357D02*
X139045071Y-92702357D01*
X137545071Y-92202357D01*
X139045071Y-113842713D02*
X138330786Y-114342713D01*
X139045071Y-114699856D02*
X137545071Y-114699856D01*
X137545071Y-114128428D01*
X137616500Y-113985570D01*
X137687929Y-113914142D01*
X137830786Y-113842713D01*
X138045071Y-113842713D01*
X138187929Y-113914142D01*
X138259357Y-113985570D01*
X138330786Y-114128428D01*
X138330786Y-114699856D01*
X137616500Y-108985571D02*
X137545071Y-109128428D01*
X137545071Y-109342714D01*
X137616500Y-109556999D01*
X137759357Y-109699857D01*
X137902214Y-109771285D01*
X138187929Y-109842714D01*
X138402214Y-109842714D01*
X138687929Y-109771285D01*
X138830786Y-109699857D01*
X138973643Y-109556999D01*
X139045071Y-109342714D01*
X139045071Y-109199857D01*
X138973643Y-108985571D01*
X138902214Y-108914142D01*
X138402214Y-108914142D01*
X138402214Y-109199857D01*
X138259357Y-104342714D02*
X138330786Y-104128428D01*
X138402214Y-104057000D01*
X138545071Y-103985571D01*
X138759357Y-103985571D01*
X138902214Y-104057000D01*
X138973643Y-104128428D01*
X139045071Y-104271286D01*
X139045071Y-104842714D01*
X137545071Y-104842714D01*
X137545071Y-104342714D01*
X137616500Y-104199857D01*
X137687929Y-104128428D01*
X137830786Y-104057000D01*
X137973643Y-104057000D01*
X138116500Y-104128428D01*
X138187929Y-104199857D01*
X138259357Y-104342714D01*
X138259357Y-104842714D01*
X137545071Y-100057000D02*
X139045071Y-99699857D01*
X137973643Y-99414143D01*
X139045071Y-99128429D01*
X137545071Y-98771286D01*
D10*
X214765096Y-145232381D02*
X214193667Y-145232381D01*
X214479381Y-145232381D02*
X214479381Y-144232381D01*
X214384143Y-144375238D01*
X214288905Y-144470476D01*
X214193667Y-144518095D01*
X215098429Y-144232381D02*
X215336524Y-145232381D01*
X215527001Y-144518095D01*
X215717477Y-145232381D01*
X215955572Y-144232381D01*
X216336524Y-145232381D02*
X216336524Y-144565714D01*
X216336524Y-144232381D02*
X216288905Y-144280000D01*
X216336524Y-144327619D01*
X216384143Y-144280000D01*
X216336524Y-144232381D01*
X216336524Y-144327619D01*
X216812714Y-145232381D02*
X216812714Y-144565714D01*
X216812714Y-144756190D02*
X216860333Y-144660952D01*
X216907952Y-144613333D01*
X217003190Y-144565714D01*
X217098429Y-144565714D01*
X217812715Y-145184762D02*
X217717477Y-145232381D01*
X217527000Y-145232381D01*
X217431762Y-145184762D01*
X217384143Y-145089524D01*
X217384143Y-144708571D01*
X217431762Y-144613333D01*
X217527000Y-144565714D01*
X217717477Y-144565714D01*
X217812715Y-144613333D01*
X217860334Y-144708571D01*
X217860334Y-144803810D01*
X217384143Y-144899048D01*
X132460905Y-123592381D02*
X131889476Y-123592381D01*
X132175190Y-123592381D02*
X132175190Y-122592381D01*
X132079952Y-122735238D01*
X131984714Y-122830476D01*
X131889476Y-122878095D01*
X132794238Y-122925714D02*
X132984714Y-123592381D01*
X133175191Y-123116190D01*
X133365667Y-123592381D01*
X133556143Y-122925714D01*
X133937095Y-123592381D02*
X133937095Y-122925714D01*
X133937095Y-122592381D02*
X133889476Y-122640000D01*
X133937095Y-122687619D01*
X133984714Y-122640000D01*
X133937095Y-122592381D01*
X133937095Y-122687619D01*
X134413285Y-123592381D02*
X134413285Y-122925714D01*
X134413285Y-123116190D02*
X134460904Y-123020952D01*
X134508523Y-122973333D01*
X134603761Y-122925714D01*
X134699000Y-122925714D01*
X135413286Y-123544762D02*
X135318048Y-123592381D01*
X135127571Y-123592381D01*
X135032333Y-123544762D01*
X134984714Y-123449524D01*
X134984714Y-123068571D01*
X135032333Y-122973333D01*
X135127571Y-122925714D01*
X135318048Y-122925714D01*
X135413286Y-122973333D01*
X135460905Y-123068571D01*
X135460905Y-123163810D01*
X134984714Y-123259048D01*
X136651381Y-123592381D02*
X136651381Y-122592381D01*
X137032334Y-122592381D01*
X137127572Y-122640000D01*
X137175191Y-122687619D01*
X137222810Y-122782857D01*
X137222810Y-122925714D01*
X137175191Y-123020952D01*
X137127572Y-123068571D01*
X137032334Y-123116190D01*
X136651381Y-123116190D01*
X137651381Y-123592381D02*
X137651381Y-122925714D01*
X137651381Y-122592381D02*
X137603762Y-122640000D01*
X137651381Y-122687619D01*
X137699000Y-122640000D01*
X137651381Y-122592381D01*
X137651381Y-122687619D01*
X138127571Y-122925714D02*
X138127571Y-123592381D01*
X138127571Y-123020952D02*
X138175190Y-122973333D01*
X138270428Y-122925714D01*
X138413286Y-122925714D01*
X138508524Y-122973333D01*
X138556143Y-123068571D01*
X138556143Y-123592381D01*
X139175190Y-123592381D02*
X139079952Y-123544762D01*
X139032333Y-123497143D01*
X138984714Y-123401905D01*
X138984714Y-123116190D01*
X139032333Y-123020952D01*
X139079952Y-122973333D01*
X139175190Y-122925714D01*
X139318048Y-122925714D01*
X139413286Y-122973333D01*
X139460905Y-123020952D01*
X139508524Y-123116190D01*
X139508524Y-123401905D01*
X139460905Y-123497143D01*
X139413286Y-123544762D01*
X139318048Y-123592381D01*
X139175190Y-123592381D01*
X140365667Y-122925714D02*
X140365667Y-123592381D01*
X139937095Y-122925714D02*
X139937095Y-123449524D01*
X139984714Y-123544762D01*
X140079952Y-123592381D01*
X140222810Y-123592381D01*
X140318048Y-123544762D01*
X140365667Y-123497143D01*
X140699000Y-122925714D02*
X141079952Y-122925714D01*
X140841857Y-122592381D02*
X140841857Y-123449524D01*
X140889476Y-123544762D01*
X140984714Y-123592381D01*
X141079952Y-123592381D01*
X141413286Y-123497143D02*
X141460905Y-123544762D01*
X141413286Y-123592381D01*
X141365667Y-123544762D01*
X141413286Y-123497143D01*
X141413286Y-123592381D01*
X141413286Y-122973333D02*
X141460905Y-123020952D01*
X141413286Y-123068571D01*
X141365667Y-123020952D01*
X141413286Y-122973333D01*
X141413286Y-123068571D01*
X132460905Y-125192381D02*
X131889476Y-125192381D01*
X132175190Y-125192381D02*
X132175190Y-124192381D01*
X132079952Y-124335238D01*
X131984714Y-124430476D01*
X131889476Y-124478095D01*
X132889476Y-125097143D02*
X132937095Y-125144762D01*
X132889476Y-125192381D01*
X132841857Y-125144762D01*
X132889476Y-125097143D01*
X132889476Y-125192381D01*
X132889476Y-124573333D02*
X132937095Y-124620952D01*
X132889476Y-124668571D01*
X132841857Y-124620952D01*
X132889476Y-124573333D01*
X132889476Y-124668571D01*
X134651381Y-124240000D02*
X134556143Y-124192381D01*
X134413286Y-124192381D01*
X134270428Y-124240000D01*
X134175190Y-124335238D01*
X134127571Y-124430476D01*
X134079952Y-124620952D01*
X134079952Y-124763810D01*
X134127571Y-124954286D01*
X134175190Y-125049524D01*
X134270428Y-125144762D01*
X134413286Y-125192381D01*
X134508524Y-125192381D01*
X134651381Y-125144762D01*
X134699000Y-125097143D01*
X134699000Y-124763810D01*
X134508524Y-124763810D01*
X135127571Y-124525714D02*
X135127571Y-125192381D01*
X135127571Y-124620952D02*
X135175190Y-124573333D01*
X135270428Y-124525714D01*
X135413286Y-124525714D01*
X135508524Y-124573333D01*
X135556143Y-124668571D01*
X135556143Y-125192381D01*
X136460905Y-125192381D02*
X136460905Y-124192381D01*
X136460905Y-125144762D02*
X136365667Y-125192381D01*
X136175190Y-125192381D01*
X136079952Y-125144762D01*
X136032333Y-125097143D01*
X135984714Y-125001905D01*
X135984714Y-124716190D01*
X136032333Y-124620952D01*
X136079952Y-124573333D01*
X136175190Y-124525714D01*
X136365667Y-124525714D01*
X136460905Y-124573333D01*
X131889476Y-125887619D02*
X131937095Y-125840000D01*
X132032333Y-125792381D01*
X132270429Y-125792381D01*
X132365667Y-125840000D01*
X132413286Y-125887619D01*
X132460905Y-125982857D01*
X132460905Y-126078095D01*
X132413286Y-126220952D01*
X131841857Y-126792381D01*
X132460905Y-126792381D01*
X132889476Y-126697143D02*
X132937095Y-126744762D01*
X132889476Y-126792381D01*
X132841857Y-126744762D01*
X132889476Y-126697143D01*
X132889476Y-126792381D01*
X132889476Y-126173333D02*
X132937095Y-126220952D01*
X132889476Y-126268571D01*
X132841857Y-126220952D01*
X132889476Y-126173333D01*
X132889476Y-126268571D01*
X134127571Y-126411429D02*
X134889476Y-126411429D01*
X134508524Y-126792381D02*
X134508524Y-126030476D01*
X135841857Y-125792381D02*
X135365666Y-125792381D01*
X135318047Y-126268571D01*
X135365666Y-126220952D01*
X135460904Y-126173333D01*
X135699000Y-126173333D01*
X135794238Y-126220952D01*
X135841857Y-126268571D01*
X135889476Y-126363810D01*
X135889476Y-126601905D01*
X135841857Y-126697143D01*
X135794238Y-126744762D01*
X135699000Y-126792381D01*
X135460904Y-126792381D01*
X135365666Y-126744762D01*
X135318047Y-126697143D01*
X136175190Y-125792381D02*
X136508523Y-126792381D01*
X136841857Y-125792381D01*
X131841857Y-127392381D02*
X132460905Y-127392381D01*
X132127571Y-127773333D01*
X132270429Y-127773333D01*
X132365667Y-127820952D01*
X132413286Y-127868571D01*
X132460905Y-127963810D01*
X132460905Y-128201905D01*
X132413286Y-128297143D01*
X132365667Y-128344762D01*
X132270429Y-128392381D01*
X131984714Y-128392381D01*
X131889476Y-128344762D01*
X131841857Y-128297143D01*
X132889476Y-128297143D02*
X132937095Y-128344762D01*
X132889476Y-128392381D01*
X132841857Y-128344762D01*
X132889476Y-128297143D01*
X132889476Y-128392381D01*
X132889476Y-127773333D02*
X132937095Y-127820952D01*
X132889476Y-127868571D01*
X132841857Y-127820952D01*
X132889476Y-127773333D01*
X132889476Y-127868571D01*
X134651381Y-127440000D02*
X134556143Y-127392381D01*
X134413286Y-127392381D01*
X134270428Y-127440000D01*
X134175190Y-127535238D01*
X134127571Y-127630476D01*
X134079952Y-127820952D01*
X134079952Y-127963810D01*
X134127571Y-128154286D01*
X134175190Y-128249524D01*
X134270428Y-128344762D01*
X134413286Y-128392381D01*
X134508524Y-128392381D01*
X134651381Y-128344762D01*
X134699000Y-128297143D01*
X134699000Y-127963810D01*
X134508524Y-127963810D01*
X135127571Y-127725714D02*
X135127571Y-128392381D01*
X135127571Y-127820952D02*
X135175190Y-127773333D01*
X135270428Y-127725714D01*
X135413286Y-127725714D01*
X135508524Y-127773333D01*
X135556143Y-127868571D01*
X135556143Y-128392381D01*
X136460905Y-128392381D02*
X136460905Y-127392381D01*
X136460905Y-128344762D02*
X136365667Y-128392381D01*
X136175190Y-128392381D01*
X136079952Y-128344762D01*
X136032333Y-128297143D01*
X135984714Y-128201905D01*
X135984714Y-127916190D01*
X136032333Y-127820952D01*
X136079952Y-127773333D01*
X136175190Y-127725714D01*
X136365667Y-127725714D01*
X136460905Y-127773333D01*
X132365667Y-129325714D02*
X132365667Y-129992381D01*
X132127571Y-128944762D02*
X131889476Y-129659048D01*
X132508524Y-129659048D01*
X132889476Y-129897143D02*
X132937095Y-129944762D01*
X132889476Y-129992381D01*
X132841857Y-129944762D01*
X132889476Y-129897143D01*
X132889476Y-129992381D01*
X132889476Y-129373333D02*
X132937095Y-129420952D01*
X132889476Y-129468571D01*
X132841857Y-129420952D01*
X132889476Y-129373333D01*
X132889476Y-129468571D01*
X134651381Y-129992381D02*
X134079952Y-129992381D01*
X134365666Y-129992381D02*
X134365666Y-128992381D01*
X134270428Y-129135238D01*
X134175190Y-129230476D01*
X134079952Y-129278095D01*
X135746619Y-128992381D02*
X135984714Y-129992381D01*
X136175191Y-129278095D01*
X136365667Y-129992381D01*
X136603762Y-128992381D01*
X136984714Y-129992381D02*
X136984714Y-129325714D01*
X136984714Y-128992381D02*
X136937095Y-129040000D01*
X136984714Y-129087619D01*
X137032333Y-129040000D01*
X136984714Y-128992381D01*
X136984714Y-129087619D01*
X137460904Y-129992381D02*
X137460904Y-129325714D01*
X137460904Y-129516190D02*
X137508523Y-129420952D01*
X137556142Y-129373333D01*
X137651380Y-129325714D01*
X137746619Y-129325714D01*
X138460905Y-129944762D02*
X138365667Y-129992381D01*
X138175190Y-129992381D01*
X138079952Y-129944762D01*
X138032333Y-129849524D01*
X138032333Y-129468571D01*
X138079952Y-129373333D01*
X138175190Y-129325714D01*
X138365667Y-129325714D01*
X138460905Y-129373333D01*
X138508524Y-129468571D01*
X138508524Y-129563810D01*
X138032333Y-129659048D01*
X132413286Y-130592381D02*
X131937095Y-130592381D01*
X131889476Y-131068571D01*
X131937095Y-131020952D01*
X132032333Y-130973333D01*
X132270429Y-130973333D01*
X132365667Y-131020952D01*
X132413286Y-131068571D01*
X132460905Y-131163810D01*
X132460905Y-131401905D01*
X132413286Y-131497143D01*
X132365667Y-131544762D01*
X132270429Y-131592381D01*
X132032333Y-131592381D01*
X131937095Y-131544762D01*
X131889476Y-131497143D01*
X132889476Y-131497143D02*
X132937095Y-131544762D01*
X132889476Y-131592381D01*
X132841857Y-131544762D01*
X132889476Y-131497143D01*
X132889476Y-131592381D01*
X132889476Y-130973333D02*
X132937095Y-131020952D01*
X132889476Y-131068571D01*
X132841857Y-131020952D01*
X132889476Y-130973333D01*
X132889476Y-131068571D01*
X134651381Y-130640000D02*
X134556143Y-130592381D01*
X134413286Y-130592381D01*
X134270428Y-130640000D01*
X134175190Y-130735238D01*
X134127571Y-130830476D01*
X134079952Y-131020952D01*
X134079952Y-131163810D01*
X134127571Y-131354286D01*
X134175190Y-131449524D01*
X134270428Y-131544762D01*
X134413286Y-131592381D01*
X134508524Y-131592381D01*
X134651381Y-131544762D01*
X134699000Y-131497143D01*
X134699000Y-131163810D01*
X134508524Y-131163810D01*
X135127571Y-130925714D02*
X135127571Y-131592381D01*
X135127571Y-131020952D02*
X135175190Y-130973333D01*
X135270428Y-130925714D01*
X135413286Y-130925714D01*
X135508524Y-130973333D01*
X135556143Y-131068571D01*
X135556143Y-131592381D01*
X136460905Y-131592381D02*
X136460905Y-130592381D01*
X136460905Y-131544762D02*
X136365667Y-131592381D01*
X136175190Y-131592381D01*
X136079952Y-131544762D01*
X136032333Y-131497143D01*
X135984714Y-131401905D01*
X135984714Y-131116190D01*
X136032333Y-131020952D01*
X136079952Y-130973333D01*
X136175190Y-130925714D01*
X136365667Y-130925714D01*
X136460905Y-130973333D01*
X132365667Y-132192381D02*
X132175190Y-132192381D01*
X132079952Y-132240000D01*
X132032333Y-132287619D01*
X131937095Y-132430476D01*
X131889476Y-132620952D01*
X131889476Y-133001905D01*
X131937095Y-133097143D01*
X131984714Y-133144762D01*
X132079952Y-133192381D01*
X132270429Y-133192381D01*
X132365667Y-133144762D01*
X132413286Y-133097143D01*
X132460905Y-133001905D01*
X132460905Y-132763810D01*
X132413286Y-132668571D01*
X132365667Y-132620952D01*
X132270429Y-132573333D01*
X132079952Y-132573333D01*
X131984714Y-132620952D01*
X131937095Y-132668571D01*
X131889476Y-132763810D01*
X132889476Y-133097143D02*
X132937095Y-133144762D01*
X132889476Y-133192381D01*
X132841857Y-133144762D01*
X132889476Y-133097143D01*
X132889476Y-133192381D01*
X132889476Y-132573333D02*
X132937095Y-132620952D01*
X132889476Y-132668571D01*
X132841857Y-132620952D01*
X132889476Y-132573333D01*
X132889476Y-132668571D01*
X134127571Y-133192381D02*
X134127571Y-132192381D01*
X134699000Y-133192381D01*
X134699000Y-132192381D01*
X135889476Y-132144762D02*
X135032333Y-133430476D01*
X136794238Y-133097143D02*
X136746619Y-133144762D01*
X136603762Y-133192381D01*
X136508524Y-133192381D01*
X136365666Y-133144762D01*
X136270428Y-133049524D01*
X136222809Y-132954286D01*
X136175190Y-132763810D01*
X136175190Y-132620952D01*
X136222809Y-132430476D01*
X136270428Y-132335238D01*
X136365666Y-132240000D01*
X136508524Y-132192381D01*
X136603762Y-132192381D01*
X136746619Y-132240000D01*
X136794238Y-132287619D01*
X131841857Y-133792381D02*
X132508524Y-133792381D01*
X132079952Y-134792381D01*
X132889476Y-134697143D02*
X132937095Y-134744762D01*
X132889476Y-134792381D01*
X132841857Y-134744762D01*
X132889476Y-134697143D01*
X132889476Y-134792381D01*
X132889476Y-134173333D02*
X132937095Y-134220952D01*
X132889476Y-134268571D01*
X132841857Y-134220952D01*
X132889476Y-134173333D01*
X132889476Y-134268571D01*
X134127571Y-134792381D02*
X134127571Y-133792381D01*
X134699000Y-134792381D01*
X134699000Y-133792381D01*
X135889476Y-133744762D02*
X135032333Y-135030476D01*
X136794238Y-134697143D02*
X136746619Y-134744762D01*
X136603762Y-134792381D01*
X136508524Y-134792381D01*
X136365666Y-134744762D01*
X136270428Y-134649524D01*
X136222809Y-134554286D01*
X136175190Y-134363810D01*
X136175190Y-134220952D01*
X136222809Y-134030476D01*
X136270428Y-133935238D01*
X136365666Y-133840000D01*
X136508524Y-133792381D01*
X136603762Y-133792381D01*
X136746619Y-133840000D01*
X136794238Y-133887619D01*
X132079952Y-135820952D02*
X131984714Y-135773333D01*
X131937095Y-135725714D01*
X131889476Y-135630476D01*
X131889476Y-135582857D01*
X131937095Y-135487619D01*
X131984714Y-135440000D01*
X132079952Y-135392381D01*
X132270429Y-135392381D01*
X132365667Y-135440000D01*
X132413286Y-135487619D01*
X132460905Y-135582857D01*
X132460905Y-135630476D01*
X132413286Y-135725714D01*
X132365667Y-135773333D01*
X132270429Y-135820952D01*
X132079952Y-135820952D01*
X131984714Y-135868571D01*
X131937095Y-135916190D01*
X131889476Y-136011429D01*
X131889476Y-136201905D01*
X131937095Y-136297143D01*
X131984714Y-136344762D01*
X132079952Y-136392381D01*
X132270429Y-136392381D01*
X132365667Y-136344762D01*
X132413286Y-136297143D01*
X132460905Y-136201905D01*
X132460905Y-136011429D01*
X132413286Y-135916190D01*
X132365667Y-135868571D01*
X132270429Y-135820952D01*
X132889476Y-136297143D02*
X132937095Y-136344762D01*
X132889476Y-136392381D01*
X132841857Y-136344762D01*
X132889476Y-136297143D01*
X132889476Y-136392381D01*
X132889476Y-135773333D02*
X132937095Y-135820952D01*
X132889476Y-135868571D01*
X132841857Y-135820952D01*
X132889476Y-135773333D01*
X132889476Y-135868571D01*
X134651381Y-135440000D02*
X134556143Y-135392381D01*
X134413286Y-135392381D01*
X134270428Y-135440000D01*
X134175190Y-135535238D01*
X134127571Y-135630476D01*
X134079952Y-135820952D01*
X134079952Y-135963810D01*
X134127571Y-136154286D01*
X134175190Y-136249524D01*
X134270428Y-136344762D01*
X134413286Y-136392381D01*
X134508524Y-136392381D01*
X134651381Y-136344762D01*
X134699000Y-136297143D01*
X134699000Y-135963810D01*
X134508524Y-135963810D01*
X135127571Y-135725714D02*
X135127571Y-136392381D01*
X135127571Y-135820952D02*
X135175190Y-135773333D01*
X135270428Y-135725714D01*
X135413286Y-135725714D01*
X135508524Y-135773333D01*
X135556143Y-135868571D01*
X135556143Y-136392381D01*
X136460905Y-136392381D02*
X136460905Y-135392381D01*
X136460905Y-136344762D02*
X136365667Y-136392381D01*
X136175190Y-136392381D01*
X136079952Y-136344762D01*
X136032333Y-136297143D01*
X135984714Y-136201905D01*
X135984714Y-135916190D01*
X136032333Y-135820952D01*
X136079952Y-135773333D01*
X136175190Y-135725714D01*
X136365667Y-135725714D01*
X136460905Y-135773333D01*
D12*
X194458787Y-127996071D02*
X193601644Y-127996071D01*
X194030216Y-127996071D02*
X194030216Y-126496071D01*
X193887359Y-126710357D01*
X193744501Y-126853214D01*
X193601644Y-126924643D01*
X194958787Y-126496071D02*
X195315930Y-127996071D01*
X195601644Y-126924643D01*
X195887358Y-127996071D01*
X196244501Y-126496071D01*
X196815930Y-127996071D02*
X196815930Y-126996071D01*
X196815930Y-126496071D02*
X196744501Y-126567500D01*
X196815930Y-126638929D01*
X196887358Y-126567500D01*
X196815930Y-126496071D01*
X196815930Y-126638929D01*
X197530216Y-127996071D02*
X197530216Y-126996071D01*
X197530216Y-127281786D02*
X197601644Y-127138929D01*
X197673073Y-127067500D01*
X197815930Y-126996071D01*
X197958787Y-126996071D01*
X199030215Y-127924643D02*
X198887358Y-127996071D01*
X198601644Y-127996071D01*
X198458787Y-127924643D01*
X198387358Y-127781786D01*
X198387358Y-127210357D01*
X198458787Y-127067500D01*
X198601644Y-126996071D01*
X198887358Y-126996071D01*
X199030215Y-127067500D01*
X199101644Y-127210357D01*
X199101644Y-127353214D01*
X198387358Y-127496071D01*
X201601644Y-127996071D02*
X200887358Y-127996071D01*
X200887358Y-126496071D01*
X202101644Y-127210357D02*
X202601644Y-127210357D01*
X202815930Y-127996071D02*
X202101644Y-127996071D01*
X202101644Y-126496071D01*
X202815930Y-126496071D01*
X203458787Y-127996071D02*
X203458787Y-126496071D01*
X203815930Y-126496071D01*
X204030215Y-126567500D01*
X204173073Y-126710357D01*
X204244501Y-126853214D01*
X204315930Y-127138929D01*
X204315930Y-127353214D01*
X204244501Y-127638929D01*
X204173073Y-127781786D01*
X204030215Y-127924643D01*
X203815930Y-127996071D01*
X203458787Y-127996071D01*
X206958787Y-127853214D02*
X206887358Y-127924643D01*
X206673072Y-127996071D01*
X206530215Y-127996071D01*
X206315930Y-127924643D01*
X206173072Y-127781786D01*
X206101644Y-127638929D01*
X206030215Y-127353214D01*
X206030215Y-127138929D01*
X206101644Y-126853214D01*
X206173072Y-126710357D01*
X206315930Y-126567500D01*
X206530215Y-126496071D01*
X206673072Y-126496071D01*
X206887358Y-126567500D01*
X206958787Y-126638929D01*
X207815930Y-127996071D02*
X207673072Y-127924643D01*
X207601644Y-127853214D01*
X207530215Y-127710357D01*
X207530215Y-127281786D01*
X207601644Y-127138929D01*
X207673072Y-127067500D01*
X207815930Y-126996071D01*
X208030215Y-126996071D01*
X208173072Y-127067500D01*
X208244501Y-127138929D01*
X208315930Y-127281786D01*
X208315930Y-127710357D01*
X208244501Y-127853214D01*
X208173072Y-127924643D01*
X208030215Y-127996071D01*
X207815930Y-127996071D01*
X208958787Y-126996071D02*
X208958787Y-127996071D01*
X208958787Y-127138929D02*
X209030215Y-127067500D01*
X209173073Y-126996071D01*
X209387358Y-126996071D01*
X209530215Y-127067500D01*
X209601644Y-127210357D01*
X209601644Y-127996071D01*
X210101644Y-126996071D02*
X210673073Y-126996071D01*
X210315930Y-126496071D02*
X210315930Y-127781786D01*
X210387358Y-127924643D01*
X210530216Y-127996071D01*
X210673073Y-127996071D01*
X211173073Y-127996071D02*
X211173073Y-126996071D01*
X211173073Y-127281786D02*
X211244501Y-127138929D01*
X211315930Y-127067500D01*
X211458787Y-126996071D01*
X211601644Y-126996071D01*
X212315930Y-127996071D02*
X212173072Y-127924643D01*
X212101644Y-127853214D01*
X212030215Y-127710357D01*
X212030215Y-127281786D01*
X212101644Y-127138929D01*
X212173072Y-127067500D01*
X212315930Y-126996071D01*
X212530215Y-126996071D01*
X212673072Y-127067500D01*
X212744501Y-127138929D01*
X212815930Y-127281786D01*
X212815930Y-127710357D01*
X212744501Y-127853214D01*
X212673072Y-127924643D01*
X212530215Y-127996071D01*
X212315930Y-127996071D01*
X213673073Y-127996071D02*
X213530215Y-127924643D01*
X213458787Y-127781786D01*
X213458787Y-126496071D01*
X214458787Y-127996071D02*
X214315929Y-127924643D01*
X214244501Y-127781786D01*
X214244501Y-126496071D01*
X215601643Y-127924643D02*
X215458786Y-127996071D01*
X215173072Y-127996071D01*
X215030215Y-127924643D01*
X214958786Y-127781786D01*
X214958786Y-127210357D01*
X215030215Y-127067500D01*
X215173072Y-126996071D01*
X215458786Y-126996071D01*
X215601643Y-127067500D01*
X215673072Y-127210357D01*
X215673072Y-127353214D01*
X214958786Y-127496071D01*
X216315929Y-127996071D02*
X216315929Y-126996071D01*
X216315929Y-127281786D02*
X216387357Y-127138929D01*
X216458786Y-127067500D01*
X216601643Y-126996071D01*
X216744500Y-126996071D01*
X219244500Y-127996071D02*
X218744500Y-127281786D01*
X218387357Y-127996071D02*
X218387357Y-126496071D01*
X218958785Y-126496071D01*
X219101643Y-126567500D01*
X219173071Y-126638929D01*
X219244500Y-126781786D01*
X219244500Y-126996071D01*
X219173071Y-127138929D01*
X219101643Y-127210357D01*
X218958785Y-127281786D01*
X218387357Y-127281786D01*
X220458785Y-127924643D02*
X220315928Y-127996071D01*
X220030214Y-127996071D01*
X219887357Y-127924643D01*
X219815928Y-127781786D01*
X219815928Y-127210357D01*
X219887357Y-127067500D01*
X220030214Y-126996071D01*
X220315928Y-126996071D01*
X220458785Y-127067500D01*
X220530214Y-127210357D01*
X220530214Y-127353214D01*
X219815928Y-127496071D01*
X221030214Y-126996071D02*
X221387357Y-127996071D01*
X221744499Y-126996071D01*
X223387356Y-126638929D02*
X223458785Y-126567500D01*
X223601642Y-126496071D01*
X223958785Y-126496071D01*
X224101642Y-126567500D01*
X224173071Y-126638929D01*
X224244499Y-126781786D01*
X224244499Y-126924643D01*
X224173071Y-127138929D01*
X223315928Y-127996071D01*
X224244499Y-127996071D01*
X224887356Y-127853214D02*
X224958784Y-127924643D01*
X224887356Y-127996071D01*
X224815927Y-127924643D01*
X224887356Y-127853214D01*
X224887356Y-127996071D01*
X225887356Y-126496071D02*
X226030213Y-126496071D01*
X226173070Y-126567500D01*
X226244499Y-126638929D01*
X226315928Y-126781786D01*
X226387356Y-127067500D01*
X226387356Y-127424643D01*
X226315928Y-127710357D01*
X226244499Y-127853214D01*
X226173070Y-127924643D01*
X226030213Y-127996071D01*
X225887356Y-127996071D01*
X225744499Y-127924643D01*
X225673070Y-127853214D01*
X225601642Y-127710357D01*
X225530213Y-127424643D01*
X225530213Y-127067500D01*
X225601642Y-126781786D01*
X225673070Y-126638929D01*
X225744499Y-126567500D01*
X225887356Y-126496071D01*
D10*
X136540786Y-140254381D02*
X136064595Y-140254381D01*
X136064595Y-139254381D01*
X136874119Y-140254381D02*
X136874119Y-139587714D01*
X136874119Y-139254381D02*
X136826500Y-139302000D01*
X136874119Y-139349619D01*
X136921738Y-139302000D01*
X136874119Y-139254381D01*
X136874119Y-139349619D01*
X137778881Y-140206762D02*
X137683643Y-140254381D01*
X137493166Y-140254381D01*
X137397928Y-140206762D01*
X137350309Y-140159143D01*
X137302690Y-140063905D01*
X137302690Y-139778190D01*
X137350309Y-139682952D01*
X137397928Y-139635333D01*
X137493166Y-139587714D01*
X137683643Y-139587714D01*
X137778881Y-139635333D01*
X138588405Y-140206762D02*
X138493167Y-140254381D01*
X138302690Y-140254381D01*
X138207452Y-140206762D01*
X138159833Y-140111524D01*
X138159833Y-139730571D01*
X138207452Y-139635333D01*
X138302690Y-139587714D01*
X138493167Y-139587714D01*
X138588405Y-139635333D01*
X138636024Y-139730571D01*
X138636024Y-139825810D01*
X138159833Y-139921048D01*
X139064595Y-139587714D02*
X139064595Y-140254381D01*
X139064595Y-139682952D02*
X139112214Y-139635333D01*
X139207452Y-139587714D01*
X139350310Y-139587714D01*
X139445548Y-139635333D01*
X139493167Y-139730571D01*
X139493167Y-140254381D01*
X139921738Y-140206762D02*
X140016976Y-140254381D01*
X140207452Y-140254381D01*
X140302691Y-140206762D01*
X140350310Y-140111524D01*
X140350310Y-140063905D01*
X140302691Y-139968667D01*
X140207452Y-139921048D01*
X140064595Y-139921048D01*
X139969357Y-139873429D01*
X139921738Y-139778190D01*
X139921738Y-139730571D01*
X139969357Y-139635333D01*
X140064595Y-139587714D01*
X140207452Y-139587714D01*
X140302691Y-139635333D01*
X141159834Y-140206762D02*
X141064596Y-140254381D01*
X140874119Y-140254381D01*
X140778881Y-140206762D01*
X140731262Y-140111524D01*
X140731262Y-139730571D01*
X140778881Y-139635333D01*
X140874119Y-139587714D01*
X141064596Y-139587714D01*
X141159834Y-139635333D01*
X141207453Y-139730571D01*
X141207453Y-139825810D01*
X140731262Y-139921048D01*
X142064596Y-140254381D02*
X142064596Y-139254381D01*
X142064596Y-140206762D02*
X141969358Y-140254381D01*
X141778881Y-140254381D01*
X141683643Y-140206762D01*
X141636024Y-140159143D01*
X141588405Y-140063905D01*
X141588405Y-139778190D01*
X141636024Y-139682952D01*
X141683643Y-139635333D01*
X141778881Y-139587714D01*
X141969358Y-139587714D01*
X142064596Y-139635333D01*
X143731263Y-139587714D02*
X143731263Y-140254381D01*
X143302691Y-139587714D02*
X143302691Y-140111524D01*
X143350310Y-140206762D01*
X143445548Y-140254381D01*
X143588406Y-140254381D01*
X143683644Y-140206762D01*
X143731263Y-140159143D01*
X144207453Y-139587714D02*
X144207453Y-140254381D01*
X144207453Y-139682952D02*
X144255072Y-139635333D01*
X144350310Y-139587714D01*
X144493168Y-139587714D01*
X144588406Y-139635333D01*
X144636025Y-139730571D01*
X144636025Y-140254381D01*
X145540787Y-140254381D02*
X145540787Y-139254381D01*
X145540787Y-140206762D02*
X145445549Y-140254381D01*
X145255072Y-140254381D01*
X145159834Y-140206762D01*
X145112215Y-140159143D01*
X145064596Y-140063905D01*
X145064596Y-139778190D01*
X145112215Y-139682952D01*
X145159834Y-139635333D01*
X145255072Y-139587714D01*
X145445549Y-139587714D01*
X145540787Y-139635333D01*
X146397930Y-140206762D02*
X146302692Y-140254381D01*
X146112215Y-140254381D01*
X146016977Y-140206762D01*
X145969358Y-140111524D01*
X145969358Y-139730571D01*
X146016977Y-139635333D01*
X146112215Y-139587714D01*
X146302692Y-139587714D01*
X146397930Y-139635333D01*
X146445549Y-139730571D01*
X146445549Y-139825810D01*
X145969358Y-139921048D01*
X146874120Y-140254381D02*
X146874120Y-139587714D01*
X146874120Y-139778190D02*
X146921739Y-139682952D01*
X146969358Y-139635333D01*
X147064596Y-139587714D01*
X147159835Y-139587714D01*
X148112216Y-139587714D02*
X148493168Y-139587714D01*
X148255073Y-139254381D02*
X148255073Y-140111524D01*
X148302692Y-140206762D01*
X148397930Y-140254381D01*
X148493168Y-140254381D01*
X148826502Y-140254381D02*
X148826502Y-139254381D01*
X149255074Y-140254381D02*
X149255074Y-139730571D01*
X149207455Y-139635333D01*
X149112217Y-139587714D01*
X148969359Y-139587714D01*
X148874121Y-139635333D01*
X148826502Y-139682952D01*
X150112217Y-140206762D02*
X150016979Y-140254381D01*
X149826502Y-140254381D01*
X149731264Y-140206762D01*
X149683645Y-140111524D01*
X149683645Y-139730571D01*
X149731264Y-139635333D01*
X149826502Y-139587714D01*
X150016979Y-139587714D01*
X150112217Y-139635333D01*
X150159836Y-139730571D01*
X150159836Y-139825810D01*
X149683645Y-139921048D01*
X151207455Y-139254381D02*
X151778884Y-139254381D01*
X151493169Y-140254381D02*
X151493169Y-139254381D01*
X152064598Y-139968667D02*
X152540789Y-139968667D01*
X151969360Y-140254381D02*
X152302693Y-139254381D01*
X152636027Y-140254381D01*
X152969360Y-140254381D02*
X152969360Y-139254381D01*
X153350313Y-139254381D01*
X153445551Y-139302000D01*
X153493170Y-139349619D01*
X153540789Y-139444857D01*
X153540789Y-139587714D01*
X153493170Y-139682952D01*
X153445551Y-139730571D01*
X153350313Y-139778190D01*
X152969360Y-139778190D01*
X154540789Y-140254381D02*
X154207455Y-139778190D01*
X153969360Y-140254381D02*
X153969360Y-139254381D01*
X154350313Y-139254381D01*
X154445551Y-139302000D01*
X154493170Y-139349619D01*
X154540789Y-139444857D01*
X154540789Y-139587714D01*
X154493170Y-139682952D01*
X154445551Y-139730571D01*
X154350313Y-139778190D01*
X153969360Y-139778190D01*
X136255071Y-140854381D02*
X136445548Y-140854381D01*
X136540786Y-140902000D01*
X136636024Y-140997238D01*
X136683643Y-141187714D01*
X136683643Y-141521048D01*
X136636024Y-141711524D01*
X136540786Y-141806762D01*
X136445548Y-141854381D01*
X136255071Y-141854381D01*
X136159833Y-141806762D01*
X136064595Y-141711524D01*
X136016976Y-141521048D01*
X136016976Y-141187714D01*
X136064595Y-140997238D01*
X136159833Y-140902000D01*
X136255071Y-140854381D01*
X137112214Y-141187714D02*
X137112214Y-142187714D01*
X137112214Y-141235333D02*
X137207452Y-141187714D01*
X137397929Y-141187714D01*
X137493167Y-141235333D01*
X137540786Y-141282952D01*
X137588405Y-141378190D01*
X137588405Y-141663905D01*
X137540786Y-141759143D01*
X137493167Y-141806762D01*
X137397929Y-141854381D01*
X137207452Y-141854381D01*
X137112214Y-141806762D01*
X138397929Y-141806762D02*
X138302691Y-141854381D01*
X138112214Y-141854381D01*
X138016976Y-141806762D01*
X137969357Y-141711524D01*
X137969357Y-141330571D01*
X138016976Y-141235333D01*
X138112214Y-141187714D01*
X138302691Y-141187714D01*
X138397929Y-141235333D01*
X138445548Y-141330571D01*
X138445548Y-141425810D01*
X137969357Y-141521048D01*
X138874119Y-141187714D02*
X138874119Y-141854381D01*
X138874119Y-141282952D02*
X138921738Y-141235333D01*
X139016976Y-141187714D01*
X139159834Y-141187714D01*
X139255072Y-141235333D01*
X139302691Y-141330571D01*
X139302691Y-141854381D01*
X140540786Y-141854381D02*
X140540786Y-140854381D01*
X140540786Y-141330571D02*
X141112215Y-141330571D01*
X141112215Y-141854381D02*
X141112215Y-140854381D01*
X142016977Y-141854381D02*
X142016977Y-141330571D01*
X141969358Y-141235333D01*
X141874120Y-141187714D01*
X141683643Y-141187714D01*
X141588405Y-141235333D01*
X142016977Y-141806762D02*
X141921739Y-141854381D01*
X141683643Y-141854381D01*
X141588405Y-141806762D01*
X141540786Y-141711524D01*
X141540786Y-141616286D01*
X141588405Y-141521048D01*
X141683643Y-141473429D01*
X141921739Y-141473429D01*
X142016977Y-141425810D01*
X142493167Y-141854381D02*
X142493167Y-141187714D01*
X142493167Y-141378190D02*
X142540786Y-141282952D01*
X142588405Y-141235333D01*
X142683643Y-141187714D01*
X142778882Y-141187714D01*
X143540787Y-141854381D02*
X143540787Y-140854381D01*
X143540787Y-141806762D02*
X143445549Y-141854381D01*
X143255072Y-141854381D01*
X143159834Y-141806762D01*
X143112215Y-141759143D01*
X143064596Y-141663905D01*
X143064596Y-141378190D01*
X143112215Y-141282952D01*
X143159834Y-141235333D01*
X143255072Y-141187714D01*
X143445549Y-141187714D01*
X143540787Y-141235333D01*
X143921739Y-141187714D02*
X144112215Y-141854381D01*
X144302692Y-141378190D01*
X144493168Y-141854381D01*
X144683644Y-141187714D01*
X145493168Y-141854381D02*
X145493168Y-141330571D01*
X145445549Y-141235333D01*
X145350311Y-141187714D01*
X145159834Y-141187714D01*
X145064596Y-141235333D01*
X145493168Y-141806762D02*
X145397930Y-141854381D01*
X145159834Y-141854381D01*
X145064596Y-141806762D01*
X145016977Y-141711524D01*
X145016977Y-141616286D01*
X145064596Y-141521048D01*
X145159834Y-141473429D01*
X145397930Y-141473429D01*
X145493168Y-141425810D01*
X145969358Y-141854381D02*
X145969358Y-141187714D01*
X145969358Y-141378190D02*
X146016977Y-141282952D01*
X146064596Y-141235333D01*
X146159834Y-141187714D01*
X146255073Y-141187714D01*
X146969359Y-141806762D02*
X146874121Y-141854381D01*
X146683644Y-141854381D01*
X146588406Y-141806762D01*
X146540787Y-141711524D01*
X146540787Y-141330571D01*
X146588406Y-141235333D01*
X146683644Y-141187714D01*
X146874121Y-141187714D01*
X146969359Y-141235333D01*
X147016978Y-141330571D01*
X147016978Y-141425810D01*
X146540787Y-141521048D01*
X148683645Y-141854381D02*
X148207454Y-141854381D01*
X148207454Y-140854381D01*
X149016978Y-141854381D02*
X149016978Y-141187714D01*
X149016978Y-140854381D02*
X148969359Y-140902000D01*
X149016978Y-140949619D01*
X149064597Y-140902000D01*
X149016978Y-140854381D01*
X149016978Y-140949619D01*
X149921740Y-141806762D02*
X149826502Y-141854381D01*
X149636025Y-141854381D01*
X149540787Y-141806762D01*
X149493168Y-141759143D01*
X149445549Y-141663905D01*
X149445549Y-141378190D01*
X149493168Y-141282952D01*
X149540787Y-141235333D01*
X149636025Y-141187714D01*
X149826502Y-141187714D01*
X149921740Y-141235333D01*
X150731264Y-141806762D02*
X150636026Y-141854381D01*
X150445549Y-141854381D01*
X150350311Y-141806762D01*
X150302692Y-141711524D01*
X150302692Y-141330571D01*
X150350311Y-141235333D01*
X150445549Y-141187714D01*
X150636026Y-141187714D01*
X150731264Y-141235333D01*
X150778883Y-141330571D01*
X150778883Y-141425810D01*
X150302692Y-141521048D01*
X151207454Y-141187714D02*
X151207454Y-141854381D01*
X151207454Y-141282952D02*
X151255073Y-141235333D01*
X151350311Y-141187714D01*
X151493169Y-141187714D01*
X151588407Y-141235333D01*
X151636026Y-141330571D01*
X151636026Y-141854381D01*
X152064597Y-141806762D02*
X152159835Y-141854381D01*
X152350311Y-141854381D01*
X152445550Y-141806762D01*
X152493169Y-141711524D01*
X152493169Y-141663905D01*
X152445550Y-141568667D01*
X152350311Y-141521048D01*
X152207454Y-141521048D01*
X152112216Y-141473429D01*
X152064597Y-141378190D01*
X152064597Y-141330571D01*
X152112216Y-141235333D01*
X152207454Y-141187714D01*
X152350311Y-141187714D01*
X152445550Y-141235333D01*
X153302693Y-141806762D02*
X153207455Y-141854381D01*
X153016978Y-141854381D01*
X152921740Y-141806762D01*
X152874121Y-141711524D01*
X152874121Y-141330571D01*
X152921740Y-141235333D01*
X153016978Y-141187714D01*
X153207455Y-141187714D01*
X153302693Y-141235333D01*
X153350312Y-141330571D01*
X153350312Y-141425810D01*
X152874121Y-141521048D01*
X136350310Y-143835333D02*
X136302690Y-143787714D01*
X136207452Y-143644857D01*
X136159833Y-143549619D01*
X136112214Y-143406762D01*
X136064595Y-143168667D01*
X136064595Y-142978190D01*
X136112214Y-142740095D01*
X136159833Y-142597238D01*
X136207452Y-142502000D01*
X136302690Y-142359143D01*
X136350310Y-142311524D01*
X136636024Y-142787714D02*
X136826500Y-143454381D01*
X137016977Y-142978190D01*
X137207453Y-143454381D01*
X137397929Y-142787714D01*
X137683643Y-142787714D02*
X137874119Y-143454381D01*
X138064596Y-142978190D01*
X138255072Y-143454381D01*
X138445548Y-142787714D01*
X138731262Y-142787714D02*
X138921738Y-143454381D01*
X139112215Y-142978190D01*
X139302691Y-143454381D01*
X139493167Y-142787714D01*
X139874119Y-143359143D02*
X139921738Y-143406762D01*
X139874119Y-143454381D01*
X139826500Y-143406762D01*
X139874119Y-143359143D01*
X139874119Y-143454381D01*
X140207452Y-142787714D02*
X140588404Y-142787714D01*
X140350309Y-142454381D02*
X140350309Y-143311524D01*
X140397928Y-143406762D01*
X140493166Y-143454381D01*
X140588404Y-143454381D01*
X141350310Y-143454381D02*
X141350310Y-142930571D01*
X141302691Y-142835333D01*
X141207453Y-142787714D01*
X141016976Y-142787714D01*
X140921738Y-142835333D01*
X141350310Y-143406762D02*
X141255072Y-143454381D01*
X141016976Y-143454381D01*
X140921738Y-143406762D01*
X140874119Y-143311524D01*
X140874119Y-143216286D01*
X140921738Y-143121048D01*
X141016976Y-143073429D01*
X141255072Y-143073429D01*
X141350310Y-143025810D01*
X141826500Y-142787714D02*
X141826500Y-143787714D01*
X141826500Y-142835333D02*
X141921738Y-142787714D01*
X142112215Y-142787714D01*
X142207453Y-142835333D01*
X142255072Y-142882952D01*
X142302691Y-142978190D01*
X142302691Y-143263905D01*
X142255072Y-143359143D01*
X142207453Y-143406762D01*
X142112215Y-143454381D01*
X141921738Y-143454381D01*
X141826500Y-143406762D01*
X142731262Y-143454381D02*
X142731262Y-142787714D01*
X142731262Y-142978190D02*
X142778881Y-142882952D01*
X142826500Y-142835333D01*
X142921738Y-142787714D01*
X143016977Y-142787714D01*
X143350310Y-143359143D02*
X143397929Y-143406762D01*
X143350310Y-143454381D01*
X143302691Y-143406762D01*
X143350310Y-143359143D01*
X143350310Y-143454381D01*
X143969357Y-143454381D02*
X143874119Y-143406762D01*
X143826500Y-143359143D01*
X143778881Y-143263905D01*
X143778881Y-142978190D01*
X143826500Y-142882952D01*
X143874119Y-142835333D01*
X143969357Y-142787714D01*
X144112215Y-142787714D01*
X144207453Y-142835333D01*
X144255072Y-142882952D01*
X144302691Y-142978190D01*
X144302691Y-143263905D01*
X144255072Y-143359143D01*
X144207453Y-143406762D01*
X144112215Y-143454381D01*
X143969357Y-143454381D01*
X144731262Y-143454381D02*
X144731262Y-142787714D01*
X144731262Y-142978190D02*
X144778881Y-142882952D01*
X144826500Y-142835333D01*
X144921738Y-142787714D01*
X145016977Y-142787714D01*
X145778882Y-142787714D02*
X145778882Y-143597238D01*
X145731263Y-143692476D01*
X145683644Y-143740095D01*
X145588405Y-143787714D01*
X145445548Y-143787714D01*
X145350310Y-143740095D01*
X145778882Y-143406762D02*
X145683644Y-143454381D01*
X145493167Y-143454381D01*
X145397929Y-143406762D01*
X145350310Y-143359143D01*
X145302691Y-143263905D01*
X145302691Y-142978190D01*
X145350310Y-142882952D01*
X145397929Y-142835333D01*
X145493167Y-142787714D01*
X145683644Y-142787714D01*
X145778882Y-142835333D01*
X146969358Y-142406762D02*
X146112215Y-143692476D01*
X147493167Y-142454381D02*
X147683644Y-142454381D01*
X147778882Y-142502000D01*
X147874120Y-142597238D01*
X147921739Y-142787714D01*
X147921739Y-143121048D01*
X147874120Y-143311524D01*
X147778882Y-143406762D01*
X147683644Y-143454381D01*
X147493167Y-143454381D01*
X147397929Y-143406762D01*
X147302691Y-143311524D01*
X147255072Y-143121048D01*
X147255072Y-142787714D01*
X147302691Y-142597238D01*
X147397929Y-142502000D01*
X147493167Y-142454381D01*
X148350310Y-143454381D02*
X148350310Y-142454381D01*
X148350310Y-142930571D02*
X148921739Y-142930571D01*
X148921739Y-143454381D02*
X148921739Y-142454381D01*
X149874120Y-143454381D02*
X149397929Y-143454381D01*
X149397929Y-142454381D01*
X150112215Y-143835333D02*
X150159834Y-143787714D01*
X150255072Y-143644857D01*
X150302691Y-143549619D01*
X150350310Y-143406762D01*
X150397929Y-143168667D01*
X150397929Y-142978190D01*
X150350310Y-142740095D01*
X150302691Y-142597238D01*
X150255072Y-142502000D01*
X150159834Y-142359143D01*
X150112215Y-142311524D01*
X136636024Y-144959143D02*
X136588405Y-145006762D01*
X136445548Y-145054381D01*
X136350310Y-145054381D01*
X136207452Y-145006762D01*
X136112214Y-144911524D01*
X136064595Y-144816286D01*
X136016976Y-144625810D01*
X136016976Y-144482952D01*
X136064595Y-144292476D01*
X136112214Y-144197238D01*
X136207452Y-144102000D01*
X136350310Y-144054381D01*
X136445548Y-144054381D01*
X136588405Y-144102000D01*
X136636024Y-144149619D01*
X137207452Y-145054381D02*
X137112214Y-145006762D01*
X137064595Y-144959143D01*
X137016976Y-144863905D01*
X137016976Y-144578190D01*
X137064595Y-144482952D01*
X137112214Y-144435333D01*
X137207452Y-144387714D01*
X137350310Y-144387714D01*
X137445548Y-144435333D01*
X137493167Y-144482952D01*
X137540786Y-144578190D01*
X137540786Y-144863905D01*
X137493167Y-144959143D01*
X137445548Y-145006762D01*
X137350310Y-145054381D01*
X137207452Y-145054381D01*
X137969357Y-144387714D02*
X137969357Y-145387714D01*
X137969357Y-144435333D02*
X138064595Y-144387714D01*
X138255072Y-144387714D01*
X138350310Y-144435333D01*
X138397929Y-144482952D01*
X138445548Y-144578190D01*
X138445548Y-144863905D01*
X138397929Y-144959143D01*
X138350310Y-145006762D01*
X138255072Y-145054381D01*
X138064595Y-145054381D01*
X137969357Y-145006762D01*
X138778881Y-144387714D02*
X139016976Y-145054381D01*
X139255072Y-144387714D02*
X139016976Y-145054381D01*
X138921738Y-145292476D01*
X138874119Y-145340095D01*
X138778881Y-145387714D01*
X139636024Y-145054381D02*
X139636024Y-144387714D01*
X139636024Y-144578190D02*
X139683643Y-144482952D01*
X139731262Y-144435333D01*
X139826500Y-144387714D01*
X139921739Y-144387714D01*
X140255072Y-145054381D02*
X140255072Y-144387714D01*
X140255072Y-144054381D02*
X140207453Y-144102000D01*
X140255072Y-144149619D01*
X140302691Y-144102000D01*
X140255072Y-144054381D01*
X140255072Y-144149619D01*
X141159834Y-144387714D02*
X141159834Y-145197238D01*
X141112215Y-145292476D01*
X141064596Y-145340095D01*
X140969357Y-145387714D01*
X140826500Y-145387714D01*
X140731262Y-145340095D01*
X141159834Y-145006762D02*
X141064596Y-145054381D01*
X140874119Y-145054381D01*
X140778881Y-145006762D01*
X140731262Y-144959143D01*
X140683643Y-144863905D01*
X140683643Y-144578190D01*
X140731262Y-144482952D01*
X140778881Y-144435333D01*
X140874119Y-144387714D01*
X141064596Y-144387714D01*
X141159834Y-144435333D01*
X141636024Y-145054381D02*
X141636024Y-144054381D01*
X142064596Y-145054381D02*
X142064596Y-144530571D01*
X142016977Y-144435333D01*
X141921739Y-144387714D01*
X141778881Y-144387714D01*
X141683643Y-144435333D01*
X141636024Y-144482952D01*
X142397929Y-144387714D02*
X142778881Y-144387714D01*
X142540786Y-144054381D02*
X142540786Y-144911524D01*
X142588405Y-145006762D01*
X142683643Y-145054381D01*
X142778881Y-145054381D01*
X144683644Y-144292476D02*
X144588406Y-144244857D01*
X144397930Y-144244857D01*
X144302692Y-144292476D01*
X144207454Y-144387714D01*
X144159835Y-144482952D01*
X144159835Y-144673429D01*
X144207454Y-144768667D01*
X144302692Y-144863905D01*
X144397930Y-144911524D01*
X144588406Y-144911524D01*
X144683644Y-144863905D01*
X144493168Y-143911524D02*
X144255073Y-143959143D01*
X144016977Y-144102000D01*
X143874120Y-144340095D01*
X143826501Y-144578190D01*
X143874120Y-144816286D01*
X144016977Y-145054381D01*
X144255073Y-145197238D01*
X144493168Y-145244857D01*
X144731263Y-145197238D01*
X144969358Y-145054381D01*
X145112215Y-144816286D01*
X145159835Y-144578190D01*
X145112215Y-144340095D01*
X144969358Y-144102000D01*
X144731263Y-143959143D01*
X144493168Y-143911524D01*
X146302692Y-144149619D02*
X146350311Y-144102000D01*
X146445549Y-144054381D01*
X146683645Y-144054381D01*
X146778883Y-144102000D01*
X146826502Y-144149619D01*
X146874121Y-144244857D01*
X146874121Y-144340095D01*
X146826502Y-144482952D01*
X146255073Y-145054381D01*
X146874121Y-145054381D01*
X147493168Y-144054381D02*
X147588407Y-144054381D01*
X147683645Y-144102000D01*
X147731264Y-144149619D01*
X147778883Y-144244857D01*
X147826502Y-144435333D01*
X147826502Y-144673429D01*
X147778883Y-144863905D01*
X147731264Y-144959143D01*
X147683645Y-145006762D01*
X147588407Y-145054381D01*
X147493168Y-145054381D01*
X147397930Y-145006762D01*
X147350311Y-144959143D01*
X147302692Y-144863905D01*
X147255073Y-144673429D01*
X147255073Y-144435333D01*
X147302692Y-144244857D01*
X147350311Y-144149619D01*
X147397930Y-144102000D01*
X147493168Y-144054381D01*
X148778883Y-145054381D02*
X148207454Y-145054381D01*
X148493168Y-145054381D02*
X148493168Y-144054381D01*
X148397930Y-144197238D01*
X148302692Y-144292476D01*
X148207454Y-144340095D01*
X149112216Y-144054381D02*
X149778883Y-144054381D01*
X149350311Y-145054381D01*
X136064595Y-146654381D02*
X136064595Y-145654381D01*
X136540785Y-145987714D02*
X136540785Y-146654381D01*
X136540785Y-146082952D02*
X136588404Y-146035333D01*
X136683642Y-145987714D01*
X136826500Y-145987714D01*
X136921738Y-146035333D01*
X136969357Y-146130571D01*
X136969357Y-146654381D01*
X137302690Y-145987714D02*
X137683642Y-145987714D01*
X137445547Y-146654381D02*
X137445547Y-145797238D01*
X137493166Y-145702000D01*
X137588404Y-145654381D01*
X137683642Y-145654381D01*
X138397929Y-146606762D02*
X138302691Y-146654381D01*
X138112214Y-146654381D01*
X138016976Y-146606762D01*
X137969357Y-146511524D01*
X137969357Y-146130571D01*
X138016976Y-146035333D01*
X138112214Y-145987714D01*
X138302691Y-145987714D01*
X138397929Y-146035333D01*
X138445548Y-146130571D01*
X138445548Y-146225810D01*
X137969357Y-146321048D01*
X138874119Y-146654381D02*
X138874119Y-145987714D01*
X138874119Y-146178190D02*
X138921738Y-146082952D01*
X138969357Y-146035333D01*
X139064595Y-145987714D01*
X139159834Y-145987714D01*
X139493167Y-145987714D02*
X139493167Y-146654381D01*
X139493167Y-146082952D02*
X139540786Y-146035333D01*
X139636024Y-145987714D01*
X139778882Y-145987714D01*
X139874120Y-146035333D01*
X139921739Y-146130571D01*
X139921739Y-146654381D01*
X140540786Y-146654381D02*
X140445548Y-146606762D01*
X140397929Y-146559143D01*
X140350310Y-146463905D01*
X140350310Y-146178190D01*
X140397929Y-146082952D01*
X140445548Y-146035333D01*
X140540786Y-145987714D01*
X140683644Y-145987714D01*
X140778882Y-146035333D01*
X140826501Y-146082952D01*
X140874120Y-146178190D01*
X140874120Y-146463905D01*
X140826501Y-146559143D01*
X140778882Y-146606762D01*
X140683644Y-146654381D01*
X140540786Y-146654381D01*
X142064596Y-146130571D02*
X142397930Y-146130571D01*
X142540787Y-146654381D02*
X142064596Y-146654381D01*
X142064596Y-145654381D01*
X142540787Y-145654381D01*
X142969358Y-146654381D02*
X142969358Y-145987714D01*
X142969358Y-146082952D02*
X143016977Y-146035333D01*
X143112215Y-145987714D01*
X143255073Y-145987714D01*
X143350311Y-146035333D01*
X143397930Y-146130571D01*
X143397930Y-146654381D01*
X143397930Y-146130571D02*
X143445549Y-146035333D01*
X143540787Y-145987714D01*
X143683644Y-145987714D01*
X143778882Y-146035333D01*
X143826501Y-146130571D01*
X143826501Y-146654381D01*
X144302691Y-146654381D02*
X144302691Y-145654381D01*
X144302691Y-146035333D02*
X144397929Y-145987714D01*
X144588406Y-145987714D01*
X144683644Y-146035333D01*
X144731263Y-146082952D01*
X144778882Y-146178190D01*
X144778882Y-146463905D01*
X144731263Y-146559143D01*
X144683644Y-146606762D01*
X144588406Y-146654381D01*
X144397929Y-146654381D01*
X144302691Y-146606762D01*
X145588406Y-146606762D02*
X145493168Y-146654381D01*
X145302691Y-146654381D01*
X145207453Y-146606762D01*
X145159834Y-146511524D01*
X145159834Y-146130571D01*
X145207453Y-146035333D01*
X145302691Y-145987714D01*
X145493168Y-145987714D01*
X145588406Y-146035333D01*
X145636025Y-146130571D01*
X145636025Y-146225810D01*
X145159834Y-146321048D01*
X146493168Y-146654381D02*
X146493168Y-145654381D01*
X146493168Y-146606762D02*
X146397930Y-146654381D01*
X146207453Y-146654381D01*
X146112215Y-146606762D01*
X146064596Y-146559143D01*
X146016977Y-146463905D01*
X146016977Y-146178190D01*
X146064596Y-146082952D01*
X146112215Y-146035333D01*
X146207453Y-145987714D01*
X146397930Y-145987714D01*
X146493168Y-146035333D01*
X147397930Y-146654381D02*
X147397930Y-145654381D01*
X147397930Y-146606762D02*
X147302692Y-146654381D01*
X147112215Y-146654381D01*
X147016977Y-146606762D01*
X146969358Y-146559143D01*
X146921739Y-146463905D01*
X146921739Y-146178190D01*
X146969358Y-146082952D01*
X147016977Y-146035333D01*
X147112215Y-145987714D01*
X147302692Y-145987714D01*
X147397930Y-146035333D01*
X148255073Y-146606762D02*
X148159835Y-146654381D01*
X147969358Y-146654381D01*
X147874120Y-146606762D01*
X147826501Y-146511524D01*
X147826501Y-146130571D01*
X147874120Y-146035333D01*
X147969358Y-145987714D01*
X148159835Y-145987714D01*
X148255073Y-146035333D01*
X148302692Y-146130571D01*
X148302692Y-146225810D01*
X147826501Y-146321048D01*
X149159835Y-146654381D02*
X149159835Y-145654381D01*
X149159835Y-146606762D02*
X149064597Y-146654381D01*
X148874120Y-146654381D01*
X148778882Y-146606762D01*
X148731263Y-146559143D01*
X148683644Y-146463905D01*
X148683644Y-146178190D01*
X148731263Y-146082952D01*
X148778882Y-146035333D01*
X148874120Y-145987714D01*
X149064597Y-145987714D01*
X149159835Y-146035333D01*
X215169762Y-137358381D02*
X214836428Y-136882190D01*
X214598333Y-137358381D02*
X214598333Y-136358381D01*
X214979286Y-136358381D01*
X215074524Y-136406000D01*
X215122143Y-136453619D01*
X215169762Y-136548857D01*
X215169762Y-136691714D01*
X215122143Y-136786952D01*
X215074524Y-136834571D01*
X214979286Y-136882190D01*
X214598333Y-136882190D01*
X215503095Y-137358381D02*
X216026905Y-136691714D01*
X215503095Y-136691714D02*
X216026905Y-137358381D01*
X214511024Y-139025381D02*
X215082453Y-139025381D01*
X214796738Y-140025381D02*
X214796738Y-139025381D01*
X215320548Y-140025381D02*
X215844358Y-139358714D01*
X215320548Y-139358714D02*
X215844358Y-140025381D01*
X215003143Y-133675500D02*
X214907905Y-133627881D01*
X214765048Y-133627881D01*
X214622190Y-133675500D01*
X214526952Y-133770738D01*
X214479333Y-133865976D01*
X214431714Y-134056452D01*
X214431714Y-134199310D01*
X214479333Y-134389786D01*
X214526952Y-134485024D01*
X214622190Y-134580262D01*
X214765048Y-134627881D01*
X214860286Y-134627881D01*
X215003143Y-134580262D01*
X215050762Y-134532643D01*
X215050762Y-134199310D01*
X214860286Y-134199310D01*
X215479333Y-133961214D02*
X215479333Y-134627881D01*
X215479333Y-134056452D02*
X215526952Y-134008833D01*
X215622190Y-133961214D01*
X215765048Y-133961214D01*
X215860286Y-134008833D01*
X215907905Y-134104071D01*
X215907905Y-134627881D01*
X216812667Y-134627881D02*
X216812667Y-133627881D01*
X216812667Y-134580262D02*
X216717429Y-134627881D01*
X216526952Y-134627881D01*
X216431714Y-134580262D01*
X216384095Y-134532643D01*
X216336476Y-134437405D01*
X216336476Y-134151690D01*
X216384095Y-134056452D01*
X216431714Y-134008833D01*
X216526952Y-133961214D01*
X216717429Y-133961214D01*
X216812667Y-134008833D01*
X214677810Y-141628881D02*
X215296858Y-141628881D01*
X214963524Y-142009833D01*
X215106382Y-142009833D01*
X215201620Y-142057452D01*
X215249239Y-142105071D01*
X215296858Y-142200310D01*
X215296858Y-142438405D01*
X215249239Y-142533643D01*
X215201620Y-142581262D01*
X215106382Y-142628881D01*
X214820667Y-142628881D01*
X214725429Y-142581262D01*
X214677810Y-142533643D01*
X215725429Y-142533643D02*
X215773048Y-142581262D01*
X215725429Y-142628881D01*
X215677810Y-142581262D01*
X215725429Y-142533643D01*
X215725429Y-142628881D01*
X216106381Y-141628881D02*
X216725429Y-141628881D01*
X216392095Y-142009833D01*
X216534953Y-142009833D01*
X216630191Y-142057452D01*
X216677810Y-142105071D01*
X216725429Y-142200310D01*
X216725429Y-142438405D01*
X216677810Y-142533643D01*
X216630191Y-142581262D01*
X216534953Y-142628881D01*
X216249238Y-142628881D01*
X216154000Y-142581262D01*
X216106381Y-142533643D01*
X217011143Y-141628881D02*
X217344476Y-142628881D01*
X217677810Y-141628881D01*
X168854381Y-125975857D02*
X167854381Y-125975857D01*
X168854381Y-125404428D01*
X167854381Y-125404428D01*
X168854381Y-124356809D02*
X168378190Y-124690143D01*
X168854381Y-124928238D02*
X167854381Y-124928238D01*
X167854381Y-124547285D01*
X167902000Y-124452047D01*
X167949619Y-124404428D01*
X168044857Y-124356809D01*
X168187714Y-124356809D01*
X168282952Y-124404428D01*
X168330571Y-124452047D01*
X168378190Y-124547285D01*
X168378190Y-124928238D01*
X168806762Y-123975857D02*
X168854381Y-123833000D01*
X168854381Y-123594904D01*
X168806762Y-123499666D01*
X168759143Y-123452047D01*
X168663905Y-123404428D01*
X168568667Y-123404428D01*
X168473429Y-123452047D01*
X168425810Y-123499666D01*
X168378190Y-123594904D01*
X168330571Y-123785381D01*
X168282952Y-123880619D01*
X168235333Y-123928238D01*
X168140095Y-123975857D01*
X168044857Y-123975857D01*
X167949619Y-123928238D01*
X167902000Y-123880619D01*
X167854381Y-123785381D01*
X167854381Y-123547285D01*
X167902000Y-123404428D01*
X167854381Y-123118714D02*
X167854381Y-122547285D01*
X168854381Y-122833000D02*
X167854381Y-122833000D01*
X161186762Y-126785405D02*
X161234381Y-126642548D01*
X161234381Y-126404452D01*
X161186762Y-126309214D01*
X161139143Y-126261595D01*
X161043905Y-126213976D01*
X160948667Y-126213976D01*
X160853429Y-126261595D01*
X160805810Y-126309214D01*
X160758190Y-126404452D01*
X160710571Y-126594929D01*
X160662952Y-126690167D01*
X160615333Y-126737786D01*
X160520095Y-126785405D01*
X160424857Y-126785405D01*
X160329619Y-126737786D01*
X160282000Y-126690167D01*
X160234381Y-126594929D01*
X160234381Y-126356833D01*
X160282000Y-126213976D01*
X160234381Y-125880643D02*
X161234381Y-125642548D01*
X160520095Y-125452071D01*
X161234381Y-125261595D01*
X160234381Y-125023500D01*
X161139143Y-124071119D02*
X161186762Y-124118738D01*
X161234381Y-124261595D01*
X161234381Y-124356833D01*
X161186762Y-124499691D01*
X161091524Y-124594929D01*
X160996286Y-124642548D01*
X160805810Y-124690167D01*
X160662952Y-124690167D01*
X160472476Y-124642548D01*
X160377238Y-124594929D01*
X160282000Y-124499691D01*
X160234381Y-124356833D01*
X160234381Y-124261595D01*
X160282000Y-124118738D01*
X160329619Y-124071119D01*
X161234381Y-123166357D02*
X161234381Y-123642548D01*
X160234381Y-123642548D01*
X161234381Y-122833024D02*
X160234381Y-122833024D01*
X161234381Y-122261595D02*
X160662952Y-122690167D01*
X160234381Y-122261595D02*
X160805810Y-122833024D01*
X158646762Y-126626667D02*
X158694381Y-126483810D01*
X158694381Y-126245714D01*
X158646762Y-126150476D01*
X158599143Y-126102857D01*
X158503905Y-126055238D01*
X158408667Y-126055238D01*
X158313429Y-126102857D01*
X158265810Y-126150476D01*
X158218190Y-126245714D01*
X158170571Y-126436191D01*
X158122952Y-126531429D01*
X158075333Y-126579048D01*
X157980095Y-126626667D01*
X157884857Y-126626667D01*
X157789619Y-126579048D01*
X157742000Y-126531429D01*
X157694381Y-126436191D01*
X157694381Y-126198095D01*
X157742000Y-126055238D01*
X157694381Y-125721905D02*
X158694381Y-125483810D01*
X157980095Y-125293333D01*
X158694381Y-125102857D01*
X157694381Y-124864762D01*
X158694381Y-124483810D02*
X157694381Y-124483810D01*
X157694381Y-124245715D01*
X157742000Y-124102857D01*
X157837238Y-124007619D01*
X157932476Y-123960000D01*
X158122952Y-123912381D01*
X158265810Y-123912381D01*
X158456286Y-123960000D01*
X158551524Y-124007619D01*
X158646762Y-124102857D01*
X158694381Y-124245715D01*
X158694381Y-124483810D01*
X158408667Y-123531429D02*
X158408667Y-123055238D01*
X158694381Y-123626667D02*
X157694381Y-123293334D01*
X158694381Y-122960000D01*
X157694381Y-122769524D02*
X157694381Y-122198095D01*
X158694381Y-122483810D02*
X157694381Y-122483810D01*
X167965500Y-140723857D02*
X167917881Y-140819095D01*
X167917881Y-140961952D01*
X167965500Y-141104810D01*
X168060738Y-141200048D01*
X168155976Y-141247667D01*
X168346452Y-141295286D01*
X168489310Y-141295286D01*
X168679786Y-141247667D01*
X168775024Y-141200048D01*
X168870262Y-141104810D01*
X168917881Y-140961952D01*
X168917881Y-140866714D01*
X168870262Y-140723857D01*
X168822643Y-140676238D01*
X168489310Y-140676238D01*
X168489310Y-140866714D01*
X168251214Y-140247667D02*
X168917881Y-140247667D01*
X168346452Y-140247667D02*
X168298833Y-140200048D01*
X168251214Y-140104810D01*
X168251214Y-139961952D01*
X168298833Y-139866714D01*
X168394071Y-139819095D01*
X168917881Y-139819095D01*
X168917881Y-138914333D02*
X167917881Y-138914333D01*
X168870262Y-138914333D02*
X168917881Y-139009571D01*
X168917881Y-139200048D01*
X168870262Y-139295286D01*
X168822643Y-139342905D01*
X168727405Y-139390524D01*
X168441690Y-139390524D01*
X168346452Y-139342905D01*
X168298833Y-139295286D01*
X168251214Y-139200048D01*
X168251214Y-139009571D01*
X168298833Y-138914333D01*
X162822000Y-140723857D02*
X162774381Y-140819095D01*
X162774381Y-140961952D01*
X162822000Y-141104810D01*
X162917238Y-141200048D01*
X163012476Y-141247667D01*
X163202952Y-141295286D01*
X163345810Y-141295286D01*
X163536286Y-141247667D01*
X163631524Y-141200048D01*
X163726762Y-141104810D01*
X163774381Y-140961952D01*
X163774381Y-140866714D01*
X163726762Y-140723857D01*
X163679143Y-140676238D01*
X163345810Y-140676238D01*
X163345810Y-140866714D01*
X163107714Y-140247667D02*
X163774381Y-140247667D01*
X163202952Y-140247667D02*
X163155333Y-140200048D01*
X163107714Y-140104810D01*
X163107714Y-139961952D01*
X163155333Y-139866714D01*
X163250571Y-139819095D01*
X163774381Y-139819095D01*
X163774381Y-138914333D02*
X162774381Y-138914333D01*
X163726762Y-138914333D02*
X163774381Y-139009571D01*
X163774381Y-139200048D01*
X163726762Y-139295286D01*
X163679143Y-139342905D01*
X163583905Y-139390524D01*
X163298190Y-139390524D01*
X163202952Y-139342905D01*
X163155333Y-139295286D01*
X163107714Y-139200048D01*
X163107714Y-139009571D01*
X163155333Y-138914333D01*
X160345500Y-140723857D02*
X160297881Y-140819095D01*
X160297881Y-140961952D01*
X160345500Y-141104810D01*
X160440738Y-141200048D01*
X160535976Y-141247667D01*
X160726452Y-141295286D01*
X160869310Y-141295286D01*
X161059786Y-141247667D01*
X161155024Y-141200048D01*
X161250262Y-141104810D01*
X161297881Y-140961952D01*
X161297881Y-140866714D01*
X161250262Y-140723857D01*
X161202643Y-140676238D01*
X160869310Y-140676238D01*
X160869310Y-140866714D01*
X160631214Y-140247667D02*
X161297881Y-140247667D01*
X160726452Y-140247667D02*
X160678833Y-140200048D01*
X160631214Y-140104810D01*
X160631214Y-139961952D01*
X160678833Y-139866714D01*
X160774071Y-139819095D01*
X161297881Y-139819095D01*
X161297881Y-138914333D02*
X160297881Y-138914333D01*
X161250262Y-138914333D02*
X161297881Y-139009571D01*
X161297881Y-139200048D01*
X161250262Y-139295286D01*
X161202643Y-139342905D01*
X161107405Y-139390524D01*
X160821690Y-139390524D01*
X160726452Y-139342905D01*
X160678833Y-139295286D01*
X160631214Y-139200048D01*
X160631214Y-139009571D01*
X160678833Y-138914333D01*
X157884881Y-141811190D02*
X157884881Y-141192142D01*
X158265833Y-141525476D01*
X158265833Y-141382618D01*
X158313452Y-141287380D01*
X158361071Y-141239761D01*
X158456310Y-141192142D01*
X158694405Y-141192142D01*
X158789643Y-141239761D01*
X158837262Y-141287380D01*
X158884881Y-141382618D01*
X158884881Y-141668333D01*
X158837262Y-141763571D01*
X158789643Y-141811190D01*
X158789643Y-140763571D02*
X158837262Y-140715952D01*
X158884881Y-140763571D01*
X158837262Y-140811190D01*
X158789643Y-140763571D01*
X158884881Y-140763571D01*
X157884881Y-140382619D02*
X157884881Y-139763571D01*
X158265833Y-140096905D01*
X158265833Y-139954047D01*
X158313452Y-139858809D01*
X158361071Y-139811190D01*
X158456310Y-139763571D01*
X158694405Y-139763571D01*
X158789643Y-139811190D01*
X158837262Y-139858809D01*
X158884881Y-139954047D01*
X158884881Y-140239762D01*
X158837262Y-140335000D01*
X158789643Y-140382619D01*
X157884881Y-139477857D02*
X158884881Y-139144524D01*
X157884881Y-138811190D01*
D11*
X148360215Y-71544643D02*
X149503072Y-71544643D01*
X153645929Y-71544643D02*
X154788786Y-71544643D01*
X154217357Y-72116071D02*
X154217357Y-70973214D01*
X191274787Y-72497071D02*
X190774787Y-71782786D01*
X190417644Y-72497071D02*
X190417644Y-70997071D01*
X190989072Y-70997071D01*
X191131930Y-71068500D01*
X191203358Y-71139929D01*
X191274787Y-71282786D01*
X191274787Y-71497071D01*
X191203358Y-71639929D01*
X191131930Y-71711357D01*
X190989072Y-71782786D01*
X190417644Y-71782786D01*
X196131929Y-71068500D02*
X195989072Y-70997071D01*
X195774786Y-70997071D01*
X195560501Y-71068500D01*
X195417643Y-71211357D01*
X195346215Y-71354214D01*
X195274786Y-71639929D01*
X195274786Y-71854214D01*
X195346215Y-72139929D01*
X195417643Y-72282786D01*
X195560501Y-72425643D01*
X195774786Y-72497071D01*
X195917643Y-72497071D01*
X196131929Y-72425643D01*
X196203358Y-72354214D01*
X196203358Y-71854214D01*
X195917643Y-71854214D01*
X200774786Y-71711357D02*
X200989072Y-71782786D01*
X201060500Y-71854214D01*
X201131929Y-71997071D01*
X201131929Y-72211357D01*
X201060500Y-72354214D01*
X200989072Y-72425643D01*
X200846214Y-72497071D01*
X200274786Y-72497071D01*
X200274786Y-70997071D01*
X200774786Y-70997071D01*
X200917643Y-71068500D01*
X200989072Y-71139929D01*
X201060500Y-71282786D01*
X201060500Y-71425643D01*
X200989072Y-71568500D01*
X200917643Y-71639929D01*
X200774786Y-71711357D01*
X200274786Y-71711357D01*
X205060500Y-70997071D02*
X205417643Y-72497071D01*
X205703357Y-71425643D01*
X205989071Y-72497071D01*
X206346214Y-70997071D01*
X218967929Y-94119787D02*
X219682214Y-93619787D01*
X218967929Y-93262644D02*
X220467929Y-93262644D01*
X220467929Y-93834072D01*
X220396500Y-93976930D01*
X220325071Y-94048358D01*
X220182214Y-94119787D01*
X219967929Y-94119787D01*
X219825071Y-94048358D01*
X219753643Y-93976930D01*
X219682214Y-93834072D01*
X219682214Y-93262644D01*
X220396500Y-98976929D02*
X220467929Y-98834072D01*
X220467929Y-98619786D01*
X220396500Y-98405501D01*
X220253643Y-98262643D01*
X220110786Y-98191215D01*
X219825071Y-98119786D01*
X219610786Y-98119786D01*
X219325071Y-98191215D01*
X219182214Y-98262643D01*
X219039357Y-98405501D01*
X218967929Y-98619786D01*
X218967929Y-98762643D01*
X219039357Y-98976929D01*
X219110786Y-99048358D01*
X219610786Y-99048358D01*
X219610786Y-98762643D01*
X219753643Y-103619786D02*
X219682214Y-103834072D01*
X219610786Y-103905500D01*
X219467929Y-103976929D01*
X219253643Y-103976929D01*
X219110786Y-103905500D01*
X219039357Y-103834072D01*
X218967929Y-103691214D01*
X218967929Y-103119786D01*
X220467929Y-103119786D01*
X220467929Y-103619786D01*
X220396500Y-103762643D01*
X220325071Y-103834072D01*
X220182214Y-103905500D01*
X220039357Y-103905500D01*
X219896500Y-103834072D01*
X219825071Y-103762643D01*
X219753643Y-103619786D01*
X219753643Y-103119786D01*
X220467929Y-107905500D02*
X218967929Y-108262643D01*
X220039357Y-108548357D01*
X218967929Y-108834071D01*
X220467929Y-109191214D01*
X219539357Y-110260144D02*
X219539357Y-111403001D01*
X218967929Y-110831572D02*
X220110786Y-110831572D01*
X219967929Y-112760144D02*
X218967929Y-112760144D01*
X220539357Y-112403001D02*
X219467929Y-112045858D01*
X219467929Y-112974430D01*
X219825071Y-113760144D02*
X219896500Y-113617286D01*
X219967929Y-113545858D01*
X220110786Y-113474429D01*
X220182214Y-113474429D01*
X220325071Y-113545858D01*
X220396500Y-113617286D01*
X220467929Y-113760144D01*
X220467929Y-114045858D01*
X220396500Y-114188715D01*
X220325071Y-114260144D01*
X220182214Y-114331572D01*
X220110786Y-114331572D01*
X219967929Y-114260144D01*
X219896500Y-114188715D01*
X219825071Y-114045858D01*
X219825071Y-113760144D01*
X219753643Y-113617286D01*
X219682214Y-113545858D01*
X219539357Y-113474429D01*
X219253643Y-113474429D01*
X219110786Y-113545858D01*
X219039357Y-113617286D01*
X218967929Y-113760144D01*
X218967929Y-114045858D01*
X219039357Y-114188715D01*
X219110786Y-114260144D01*
X219253643Y-114331572D01*
X219539357Y-114331572D01*
X219682214Y-114260144D01*
X219753643Y-114188715D01*
X219825071Y-114045858D01*
X220467929Y-114760143D02*
X218967929Y-115260143D01*
X220467929Y-115760143D01*
X207415144Y-71925643D02*
X208558001Y-71925643D01*
X207986572Y-72497071D02*
X207986572Y-71354214D01*
X209915144Y-71497071D02*
X209915144Y-72497071D01*
X209558001Y-70925643D02*
X209200858Y-71997071D01*
X210129430Y-71997071D01*
X210915144Y-71639929D02*
X210772286Y-71568500D01*
X210700858Y-71497071D01*
X210629429Y-71354214D01*
X210629429Y-71282786D01*
X210700858Y-71139929D01*
X210772286Y-71068500D01*
X210915144Y-70997071D01*
X211200858Y-70997071D01*
X211343715Y-71068500D01*
X211415144Y-71139929D01*
X211486572Y-71282786D01*
X211486572Y-71354214D01*
X211415144Y-71497071D01*
X211343715Y-71568500D01*
X211200858Y-71639929D01*
X210915144Y-71639929D01*
X210772286Y-71711357D01*
X210700858Y-71782786D01*
X210629429Y-71925643D01*
X210629429Y-72211357D01*
X210700858Y-72354214D01*
X210772286Y-72425643D01*
X210915144Y-72497071D01*
X211200858Y-72497071D01*
X211343715Y-72425643D01*
X211415144Y-72354214D01*
X211486572Y-72211357D01*
X211486572Y-71925643D01*
X211415144Y-71782786D01*
X211343715Y-71711357D01*
X211200858Y-71639929D01*
X211915143Y-70997071D02*
X212415143Y-72497071D01*
X212915143Y-70997071D01*
D13*
X175165000Y-109315000D02*
X176165000Y-109315000D01*
X175165000Y-98965000D02*
X176240000Y-98965000D01*
X185515000Y-98965000D02*
X184440000Y-98965000D01*
X185515000Y-109315000D02*
X184440000Y-109315000D01*
X175165000Y-109315000D02*
X175165000Y-108240000D01*
X185515000Y-109315000D02*
X185515000Y-108240000D01*
X185515000Y-98965000D02*
X185515000Y-100040000D01*
X175165000Y-98965000D02*
X175165000Y-100040000D01*
X176165000Y-109315000D02*
X176165000Y-110340000D01*
X157208000Y-135278000D02*
X157208000Y-137703000D01*
X167068000Y-135028000D02*
X167068000Y-130528000D01*
X167322000Y-135278000D02*
X167068000Y-135024000D01*
X167068000Y-135024000D02*
X166814000Y-135278000D01*
X166814000Y-135278000D02*
X166687000Y-135278000D01*
X167449000Y-135278000D02*
X167322000Y-135278000D01*
X166814000Y-130278000D02*
X167068000Y-130532000D01*
X167322000Y-130278000D02*
X167449000Y-130278000D01*
X167068000Y-130532000D02*
X167322000Y-130278000D01*
X166687000Y-130278000D02*
X166814000Y-130278000D01*
X159448000Y-135028000D02*
X159448000Y-130528000D01*
X169608000Y-130278000D02*
X169328000Y-130278000D01*
X169608000Y-130278000D02*
X169608000Y-135278000D01*
X169608000Y-135278000D02*
X169328000Y-135278000D01*
X156908000Y-135278000D02*
X157188000Y-135278000D01*
X156908000Y-130278000D02*
X156908000Y-135278000D01*
X159067000Y-130278000D02*
X159194000Y-130278000D01*
X159194000Y-130278000D02*
X159448000Y-130532000D01*
X159448000Y-130532000D02*
X159702000Y-130278000D01*
X159702000Y-130278000D02*
X159829000Y-130278000D01*
X156908000Y-130278000D02*
X157188000Y-130278000D01*
X161607000Y-130278000D02*
X161734000Y-130278000D01*
X164147000Y-130278000D02*
X164274000Y-130278000D01*
X159829000Y-135278000D02*
X159702000Y-135278000D01*
X161988000Y-130532000D02*
X162242000Y-130278000D01*
X164528000Y-130532000D02*
X164782000Y-130278000D01*
X159448000Y-135024000D02*
X159194000Y-135278000D01*
X162242000Y-130278000D02*
X162369000Y-130278000D01*
X164782000Y-130278000D02*
X164909000Y-130278000D01*
X159194000Y-135278000D02*
X159067000Y-135278000D01*
X161734000Y-130278000D02*
X161988000Y-130532000D01*
X164274000Y-130278000D02*
X164528000Y-130532000D01*
X159702000Y-135278000D02*
X159448000Y-135024000D01*
X162369000Y-135278000D02*
X162242000Y-135278000D01*
X164909000Y-135278000D02*
X164782000Y-135278000D01*
X161734000Y-135278000D02*
X161607000Y-135278000D01*
X164274000Y-135278000D02*
X164147000Y-135278000D01*
X161988000Y-135024000D02*
X161734000Y-135278000D01*
X164528000Y-135024000D02*
X164274000Y-135278000D01*
X162242000Y-135278000D02*
X161988000Y-135024000D01*
X164782000Y-135278000D02*
X164528000Y-135024000D01*
X161988000Y-135028000D02*
X161988000Y-130528000D01*
X164528000Y-135028000D02*
X164528000Y-130528000D01*
D10*
X160961071Y-162804479D02*
X146396625Y-162804479D01*
X146396625Y-162804479D02*
X146396625Y-149512552D01*
X146396625Y-149512552D02*
X160961071Y-149512552D01*
X160961071Y-149512552D02*
X160961071Y-162804479D01*
X162132916Y-160511525D02*
X161024186Y-160511525D01*
X161024186Y-160511525D02*
X161024186Y-152649620D01*
X161024186Y-152649620D02*
X162132916Y-152649620D01*
X162132916Y-152649620D02*
X162132916Y-160511525D01*
X146308312Y-160511302D02*
X145199582Y-160511302D01*
X145199582Y-160511302D02*
X145199582Y-152649397D01*
X145199582Y-152649397D02*
X146308312Y-152649397D01*
X146308312Y-152649397D02*
X146308312Y-160511302D01*
D13*
X129730500Y-78811120D02*
X129730500Y-87812880D01*
X126230380Y-78811120D02*
X126230380Y-87812880D01*
X126230380Y-87812880D02*
X140731240Y-87812880D01*
X140731240Y-87812880D02*
X140731240Y-78811120D01*
X140731240Y-78811120D02*
X126230380Y-78811120D01*
X179261000Y-126175000D02*
X179261000Y-128803900D01*
X179261000Y-134557000D02*
X179261000Y-131928100D01*
X187643000Y-133795000D02*
X187643000Y-131928100D01*
X187643000Y-126937000D02*
X187643000Y-128803900D01*
X187058800Y-128803900D02*
G75*
G03X179845200Y-128803900I-3606800J-1562100D01*
G01*
X179845200Y-131928100D02*
G75*
G03X187058800Y-131928100I3606800J1562100D01*
G01*
X179261000Y-126175000D02*
X186881000Y-126175000D01*
X186881000Y-126175000D02*
X187643000Y-126937000D01*
X187643000Y-133795000D02*
X186881000Y-134557000D01*
X186881000Y-134557000D02*
X179261000Y-134557000D01*
X183103000Y-115852000D02*
X182403000Y-115852000D01*
X182403000Y-114652000D02*
X183103000Y-114652000D01*
X183103000Y-114328000D02*
X182403000Y-114328000D01*
X182403000Y-113128000D02*
X183103000Y-113128000D01*
X190719000Y-100170000D02*
X190719000Y-100870000D01*
X189519000Y-100870000D02*
X189519000Y-100170000D01*
X170914000Y-108490000D02*
X170914000Y-107790000D01*
X172114000Y-107790000D02*
X172114000Y-108490000D01*
D10*
X181281071Y-162804479D02*
X166716625Y-162804479D01*
X166716625Y-162804479D02*
X166716625Y-149512552D01*
X166716625Y-149512552D02*
X181281071Y-149512552D01*
X181281071Y-149512552D02*
X181281071Y-162804479D01*
X182452916Y-160511525D02*
X181344186Y-160511525D01*
X181344186Y-160511525D02*
X181344186Y-152649620D01*
X181344186Y-152649620D02*
X182452916Y-152649620D01*
X182452916Y-152649620D02*
X182452916Y-160511525D01*
X166628312Y-160511302D02*
X165519582Y-160511302D01*
X165519582Y-160511302D02*
X165519582Y-152649397D01*
X165519582Y-152649397D02*
X166628312Y-152649397D01*
X166628312Y-152649397D02*
X166628312Y-160511302D01*
D13*
X187960000Y-65071000D02*
X187960000Y-57571000D01*
X187960000Y-57571000D02*
X213360000Y-57571000D01*
X213360000Y-57571000D02*
X213360000Y-65071000D01*
X187960000Y-72771000D02*
X213360000Y-72771000D01*
X213360000Y-72771000D02*
X213360000Y-65071000D01*
X213360000Y-65071000D02*
X187960000Y-65071000D01*
X187960000Y-65071000D02*
X187960000Y-72771000D01*
X146812000Y-65071000D02*
X146812000Y-57571000D01*
X146812000Y-57571000D02*
X156972000Y-57571000D01*
X156972000Y-57571000D02*
X156972000Y-65071000D01*
X146812000Y-72771000D02*
X156972000Y-72771000D01*
X156972000Y-72771000D02*
X156972000Y-65071000D01*
X156972000Y-65071000D02*
X146812000Y-65071000D01*
X146812000Y-65071000D02*
X146812000Y-72771000D01*
X160782000Y-65071000D02*
X160782000Y-57571000D01*
X160782000Y-57571000D02*
X186182000Y-57571000D01*
X186182000Y-57571000D02*
X186182000Y-65071000D01*
X160782000Y-72771000D02*
X186182000Y-72771000D01*
X186182000Y-72771000D02*
X186182000Y-65071000D01*
X186182000Y-65071000D02*
X160782000Y-65071000D01*
X160782000Y-65071000D02*
X160782000Y-72771000D01*
D14*
G36*
X131503420Y-142829280D02*
X131523740Y-142819120D01*
X131572000Y-142788640D01*
X131638040Y-142745460D01*
X131716780Y-142692120D01*
X131795520Y-142638780D01*
X131861560Y-142595600D01*
X131907280Y-142565120D01*
X131925060Y-142554960D01*
X131935220Y-142557500D01*
X131973320Y-142577820D01*
X132029200Y-142605760D01*
X132059680Y-142621000D01*
X132110480Y-142643860D01*
X132135880Y-142648940D01*
X132138420Y-142641320D01*
X132158740Y-142603220D01*
X132186680Y-142537180D01*
X132224780Y-142450820D01*
X132267960Y-142349220D01*
X132313680Y-142240000D01*
X132359400Y-142128240D01*
X132405120Y-142021560D01*
X132443220Y-141925040D01*
X132476240Y-141848840D01*
X132496560Y-141792960D01*
X132504180Y-141770100D01*
X132501640Y-141765020D01*
X132476240Y-141742160D01*
X132433060Y-141709140D01*
X132336540Y-141630400D01*
X132245100Y-141513560D01*
X132186680Y-141381480D01*
X132168900Y-141234160D01*
X132184140Y-141099540D01*
X132237480Y-140970000D01*
X132328920Y-140850620D01*
X132440680Y-140764260D01*
X132570220Y-140708380D01*
X132715000Y-140690600D01*
X132854700Y-140705840D01*
X132986780Y-140759180D01*
X133106160Y-140848080D01*
X133154420Y-140906500D01*
X133223000Y-141025880D01*
X133263640Y-141152880D01*
X133266180Y-141183360D01*
X133261100Y-141325600D01*
X133220460Y-141460220D01*
X133146800Y-141579600D01*
X133042660Y-141678660D01*
X133029960Y-141688820D01*
X132981700Y-141724380D01*
X132951220Y-141747240D01*
X132925820Y-141767560D01*
X133103620Y-142199360D01*
X133131560Y-142267940D01*
X133182360Y-142384780D01*
X133225540Y-142486380D01*
X133258560Y-142567660D01*
X133283960Y-142621000D01*
X133294120Y-142643860D01*
X133294120Y-142643860D01*
X133309360Y-142646400D01*
X133342380Y-142633700D01*
X133403340Y-142605760D01*
X133443980Y-142585440D01*
X133489700Y-142562580D01*
X133510020Y-142554960D01*
X133527800Y-142565120D01*
X133570980Y-142593060D01*
X133634480Y-142636240D01*
X133710680Y-142687040D01*
X133784340Y-142737840D01*
X133852920Y-142783560D01*
X133901180Y-142814040D01*
X133926580Y-142826740D01*
X133929120Y-142826740D01*
X133949440Y-142814040D01*
X133990080Y-142783560D01*
X134048500Y-142727680D01*
X134129780Y-142646400D01*
X134142480Y-142633700D01*
X134211060Y-142562580D01*
X134266940Y-142504160D01*
X134305040Y-142463520D01*
X134317740Y-142445740D01*
X134317740Y-142445740D01*
X134305040Y-142420340D01*
X134274560Y-142372080D01*
X134228840Y-142303500D01*
X134175500Y-142224760D01*
X134033260Y-142016480D01*
X134112000Y-141820900D01*
X134134860Y-141762480D01*
X134165340Y-141688820D01*
X134188200Y-141638020D01*
X134200900Y-141615160D01*
X134221220Y-141607540D01*
X134274560Y-141594840D01*
X134353300Y-141577060D01*
X134444740Y-141561820D01*
X134533640Y-141544040D01*
X134612380Y-141528800D01*
X134670800Y-141518640D01*
X134696200Y-141513560D01*
X134701280Y-141508480D01*
X134706360Y-141495780D01*
X134711440Y-141470380D01*
X134711440Y-141422120D01*
X134713980Y-141345920D01*
X134713980Y-141234160D01*
X134713980Y-141224000D01*
X134711440Y-141117320D01*
X134711440Y-141033500D01*
X134708900Y-140980160D01*
X134703820Y-140959840D01*
X134703820Y-140959840D01*
X134678420Y-140952220D01*
X134622540Y-140942060D01*
X134543800Y-140924280D01*
X134447280Y-140906500D01*
X134442200Y-140906500D01*
X134348220Y-140888720D01*
X134269480Y-140870940D01*
X134213600Y-140858240D01*
X134190740Y-140850620D01*
X134185660Y-140845540D01*
X134165340Y-140807440D01*
X134137400Y-140749020D01*
X134106920Y-140677900D01*
X134076440Y-140604240D01*
X134048500Y-140535660D01*
X134030720Y-140487400D01*
X134025640Y-140464540D01*
X134025640Y-140464540D01*
X134040880Y-140441680D01*
X134073900Y-140390880D01*
X134119620Y-140324840D01*
X134175500Y-140243560D01*
X134178040Y-140235940D01*
X134233920Y-140157200D01*
X134277100Y-140088620D01*
X134307580Y-140040360D01*
X134317740Y-140020040D01*
X134317740Y-140017500D01*
X134299960Y-139994640D01*
X134259320Y-139948920D01*
X134200900Y-139887960D01*
X134129780Y-139816840D01*
X134106920Y-139796520D01*
X134030720Y-139720320D01*
X133977380Y-139669520D01*
X133941820Y-139644120D01*
X133926580Y-139636500D01*
X133926580Y-139639040D01*
X133901180Y-139651740D01*
X133850380Y-139684760D01*
X133781800Y-139733020D01*
X133700520Y-139786360D01*
X133695440Y-139791440D01*
X133616700Y-139844780D01*
X133550660Y-139890500D01*
X133502400Y-139920980D01*
X133482080Y-139933680D01*
X133477000Y-139933680D01*
X133446520Y-139923520D01*
X133388100Y-139905740D01*
X133319520Y-139877800D01*
X133245860Y-139847320D01*
X133177280Y-139819380D01*
X133126480Y-139796520D01*
X133103620Y-139783820D01*
X133103620Y-139781280D01*
X133093460Y-139753340D01*
X133080760Y-139692380D01*
X133062980Y-139611100D01*
X133045200Y-139512040D01*
X133042660Y-139496800D01*
X133024880Y-139402820D01*
X133009640Y-139324080D01*
X132996940Y-139268200D01*
X132991860Y-139245340D01*
X132979160Y-139242800D01*
X132930900Y-139240260D01*
X132859780Y-139237720D01*
X132773420Y-139237720D01*
X132684520Y-139237720D01*
X132598160Y-139240260D01*
X132521960Y-139242800D01*
X132468620Y-139245340D01*
X132445760Y-139250420D01*
X132443220Y-139252960D01*
X132435600Y-139280900D01*
X132422900Y-139341860D01*
X132405120Y-139423140D01*
X132387340Y-139522200D01*
X132384800Y-139539980D01*
X132367020Y-139633960D01*
X132349240Y-139712700D01*
X132339080Y-139766040D01*
X132331460Y-139786360D01*
X132323840Y-139791440D01*
X132285740Y-139809220D01*
X132222240Y-139834620D01*
X132140960Y-139867640D01*
X131958080Y-139941300D01*
X131734560Y-139786360D01*
X131714240Y-139773660D01*
X131632960Y-139717780D01*
X131566920Y-139674600D01*
X131521200Y-139644120D01*
X131500880Y-139633960D01*
X131500880Y-139633960D01*
X131478020Y-139654280D01*
X131432300Y-139694920D01*
X131371340Y-139755880D01*
X131302760Y-139824460D01*
X131249420Y-139877800D01*
X131188460Y-139941300D01*
X131147820Y-139981940D01*
X131127500Y-140009880D01*
X131119880Y-140027660D01*
X131122420Y-140037820D01*
X131135120Y-140060680D01*
X131168140Y-140108940D01*
X131213860Y-140177520D01*
X131269740Y-140256260D01*
X131315460Y-140324840D01*
X131363720Y-140398500D01*
X131394200Y-140451840D01*
X131406900Y-140479780D01*
X131404360Y-140489940D01*
X131386580Y-140533120D01*
X131361180Y-140601700D01*
X131328160Y-140680440D01*
X131249420Y-140858240D01*
X131132580Y-140878560D01*
X131061460Y-140893800D01*
X130962400Y-140911580D01*
X130868420Y-140929360D01*
X130721100Y-140959840D01*
X130716020Y-141498320D01*
X130738880Y-141508480D01*
X130761740Y-141516100D01*
X130815080Y-141526260D01*
X130893820Y-141541500D01*
X130985260Y-141559280D01*
X131064000Y-141574520D01*
X131142740Y-141589760D01*
X131198620Y-141599920D01*
X131224020Y-141605000D01*
X131231640Y-141615160D01*
X131251960Y-141653260D01*
X131279900Y-141714220D01*
X131310380Y-141787880D01*
X131340860Y-141861540D01*
X131368800Y-141932660D01*
X131389120Y-141986000D01*
X131396740Y-142013940D01*
X131386580Y-142034260D01*
X131356100Y-142079980D01*
X131312920Y-142146020D01*
X131259580Y-142224760D01*
X131203700Y-142303500D01*
X131160520Y-142372080D01*
X131127500Y-142420340D01*
X131114800Y-142440660D01*
X131122420Y-142455900D01*
X131152900Y-142494000D01*
X131211320Y-142554960D01*
X131300220Y-142643860D01*
X131315460Y-142656560D01*
X131384040Y-142725140D01*
X131445000Y-142778480D01*
X131485640Y-142816580D01*
X131503420Y-142829280D01*
X131503420Y-142829280D01*
G37*
X131503420Y-142829280D02*
X131523740Y-142819120D01*
X131572000Y-142788640D01*
X131638040Y-142745460D01*
X131716780Y-142692120D01*
X131795520Y-142638780D01*
X131861560Y-142595600D01*
X131907280Y-142565120D01*
X131925060Y-142554960D01*
X131935220Y-142557500D01*
X131973320Y-142577820D01*
X132029200Y-142605760D01*
X132059680Y-142621000D01*
X132110480Y-142643860D01*
X132135880Y-142648940D01*
X132138420Y-142641320D01*
X132158740Y-142603220D01*
X132186680Y-142537180D01*
X132224780Y-142450820D01*
X132267960Y-142349220D01*
X132313680Y-142240000D01*
X132359400Y-142128240D01*
X132405120Y-142021560D01*
X132443220Y-141925040D01*
X132476240Y-141848840D01*
X132496560Y-141792960D01*
X132504180Y-141770100D01*
X132501640Y-141765020D01*
X132476240Y-141742160D01*
X132433060Y-141709140D01*
X132336540Y-141630400D01*
X132245100Y-141513560D01*
X132186680Y-141381480D01*
X132168900Y-141234160D01*
X132184140Y-141099540D01*
X132237480Y-140970000D01*
X132328920Y-140850620D01*
X132440680Y-140764260D01*
X132570220Y-140708380D01*
X132715000Y-140690600D01*
X132854700Y-140705840D01*
X132986780Y-140759180D01*
X133106160Y-140848080D01*
X133154420Y-140906500D01*
X133223000Y-141025880D01*
X133263640Y-141152880D01*
X133266180Y-141183360D01*
X133261100Y-141325600D01*
X133220460Y-141460220D01*
X133146800Y-141579600D01*
X133042660Y-141678660D01*
X133029960Y-141688820D01*
X132981700Y-141724380D01*
X132951220Y-141747240D01*
X132925820Y-141767560D01*
X133103620Y-142199360D01*
X133131560Y-142267940D01*
X133182360Y-142384780D01*
X133225540Y-142486380D01*
X133258560Y-142567660D01*
X133283960Y-142621000D01*
X133294120Y-142643860D01*
X133294120Y-142643860D01*
X133309360Y-142646400D01*
X133342380Y-142633700D01*
X133403340Y-142605760D01*
X133443980Y-142585440D01*
X133489700Y-142562580D01*
X133510020Y-142554960D01*
X133527800Y-142565120D01*
X133570980Y-142593060D01*
X133634480Y-142636240D01*
X133710680Y-142687040D01*
X133784340Y-142737840D01*
X133852920Y-142783560D01*
X133901180Y-142814040D01*
X133926580Y-142826740D01*
X133929120Y-142826740D01*
X133949440Y-142814040D01*
X133990080Y-142783560D01*
X134048500Y-142727680D01*
X134129780Y-142646400D01*
X134142480Y-142633700D01*
X134211060Y-142562580D01*
X134266940Y-142504160D01*
X134305040Y-142463520D01*
X134317740Y-142445740D01*
X134317740Y-142445740D01*
X134305040Y-142420340D01*
X134274560Y-142372080D01*
X134228840Y-142303500D01*
X134175500Y-142224760D01*
X134033260Y-142016480D01*
X134112000Y-141820900D01*
X134134860Y-141762480D01*
X134165340Y-141688820D01*
X134188200Y-141638020D01*
X134200900Y-141615160D01*
X134221220Y-141607540D01*
X134274560Y-141594840D01*
X134353300Y-141577060D01*
X134444740Y-141561820D01*
X134533640Y-141544040D01*
X134612380Y-141528800D01*
X134670800Y-141518640D01*
X134696200Y-141513560D01*
X134701280Y-141508480D01*
X134706360Y-141495780D01*
X134711440Y-141470380D01*
X134711440Y-141422120D01*
X134713980Y-141345920D01*
X134713980Y-141234160D01*
X134713980Y-141224000D01*
X134711440Y-141117320D01*
X134711440Y-141033500D01*
X134708900Y-140980160D01*
X134703820Y-140959840D01*
X134703820Y-140959840D01*
X134678420Y-140952220D01*
X134622540Y-140942060D01*
X134543800Y-140924280D01*
X134447280Y-140906500D01*
X134442200Y-140906500D01*
X134348220Y-140888720D01*
X134269480Y-140870940D01*
X134213600Y-140858240D01*
X134190740Y-140850620D01*
X134185660Y-140845540D01*
X134165340Y-140807440D01*
X134137400Y-140749020D01*
X134106920Y-140677900D01*
X134076440Y-140604240D01*
X134048500Y-140535660D01*
X134030720Y-140487400D01*
X134025640Y-140464540D01*
X134025640Y-140464540D01*
X134040880Y-140441680D01*
X134073900Y-140390880D01*
X134119620Y-140324840D01*
X134175500Y-140243560D01*
X134178040Y-140235940D01*
X134233920Y-140157200D01*
X134277100Y-140088620D01*
X134307580Y-140040360D01*
X134317740Y-140020040D01*
X134317740Y-140017500D01*
X134299960Y-139994640D01*
X134259320Y-139948920D01*
X134200900Y-139887960D01*
X134129780Y-139816840D01*
X134106920Y-139796520D01*
X134030720Y-139720320D01*
X133977380Y-139669520D01*
X133941820Y-139644120D01*
X133926580Y-139636500D01*
X133926580Y-139639040D01*
X133901180Y-139651740D01*
X133850380Y-139684760D01*
X133781800Y-139733020D01*
X133700520Y-139786360D01*
X133695440Y-139791440D01*
X133616700Y-139844780D01*
X133550660Y-139890500D01*
X133502400Y-139920980D01*
X133482080Y-139933680D01*
X133477000Y-139933680D01*
X133446520Y-139923520D01*
X133388100Y-139905740D01*
X133319520Y-139877800D01*
X133245860Y-139847320D01*
X133177280Y-139819380D01*
X133126480Y-139796520D01*
X133103620Y-139783820D01*
X133103620Y-139781280D01*
X133093460Y-139753340D01*
X133080760Y-139692380D01*
X133062980Y-139611100D01*
X133045200Y-139512040D01*
X133042660Y-139496800D01*
X133024880Y-139402820D01*
X133009640Y-139324080D01*
X132996940Y-139268200D01*
X132991860Y-139245340D01*
X132979160Y-139242800D01*
X132930900Y-139240260D01*
X132859780Y-139237720D01*
X132773420Y-139237720D01*
X132684520Y-139237720D01*
X132598160Y-139240260D01*
X132521960Y-139242800D01*
X132468620Y-139245340D01*
X132445760Y-139250420D01*
X132443220Y-139252960D01*
X132435600Y-139280900D01*
X132422900Y-139341860D01*
X132405120Y-139423140D01*
X132387340Y-139522200D01*
X132384800Y-139539980D01*
X132367020Y-139633960D01*
X132349240Y-139712700D01*
X132339080Y-139766040D01*
X132331460Y-139786360D01*
X132323840Y-139791440D01*
X132285740Y-139809220D01*
X132222240Y-139834620D01*
X132140960Y-139867640D01*
X131958080Y-139941300D01*
X131734560Y-139786360D01*
X131714240Y-139773660D01*
X131632960Y-139717780D01*
X131566920Y-139674600D01*
X131521200Y-139644120D01*
X131500880Y-139633960D01*
X131500880Y-139633960D01*
X131478020Y-139654280D01*
X131432300Y-139694920D01*
X131371340Y-139755880D01*
X131302760Y-139824460D01*
X131249420Y-139877800D01*
X131188460Y-139941300D01*
X131147820Y-139981940D01*
X131127500Y-140009880D01*
X131119880Y-140027660D01*
X131122420Y-140037820D01*
X131135120Y-140060680D01*
X131168140Y-140108940D01*
X131213860Y-140177520D01*
X131269740Y-140256260D01*
X131315460Y-140324840D01*
X131363720Y-140398500D01*
X131394200Y-140451840D01*
X131406900Y-140479780D01*
X131404360Y-140489940D01*
X131386580Y-140533120D01*
X131361180Y-140601700D01*
X131328160Y-140680440D01*
X131249420Y-140858240D01*
X131132580Y-140878560D01*
X131061460Y-140893800D01*
X130962400Y-140911580D01*
X130868420Y-140929360D01*
X130721100Y-140959840D01*
X130716020Y-141498320D01*
X130738880Y-141508480D01*
X130761740Y-141516100D01*
X130815080Y-141526260D01*
X130893820Y-141541500D01*
X130985260Y-141559280D01*
X131064000Y-141574520D01*
X131142740Y-141589760D01*
X131198620Y-141599920D01*
X131224020Y-141605000D01*
X131231640Y-141615160D01*
X131251960Y-141653260D01*
X131279900Y-141714220D01*
X131310380Y-141787880D01*
X131340860Y-141861540D01*
X131368800Y-141932660D01*
X131389120Y-141986000D01*
X131396740Y-142013940D01*
X131386580Y-142034260D01*
X131356100Y-142079980D01*
X131312920Y-142146020D01*
X131259580Y-142224760D01*
X131203700Y-142303500D01*
X131160520Y-142372080D01*
X131127500Y-142420340D01*
X131114800Y-142440660D01*
X131122420Y-142455900D01*
X131152900Y-142494000D01*
X131211320Y-142554960D01*
X131300220Y-142643860D01*
X131315460Y-142656560D01*
X131384040Y-142725140D01*
X131445000Y-142778480D01*
X131485640Y-142816580D01*
X131503420Y-142829280D01*
D13*
X226140000Y-91440000D02*
X233640000Y-91440000D01*
X233640000Y-91440000D02*
X233640000Y-116840000D01*
X233640000Y-116840000D02*
X226140000Y-116840000D01*
X218440000Y-91440000D02*
X218440000Y-116840000D01*
X218440000Y-116840000D02*
X226140000Y-116840000D01*
X226140000Y-116840000D02*
X226140000Y-91440000D01*
X226140000Y-91440000D02*
X218440000Y-91440000D01*
D15*
X213353000Y-143320000D02*
X213353000Y-133040000D01*
X213353000Y-133040000D02*
X210573000Y-133040000D01*
X210573000Y-133040000D02*
X210573000Y-143320000D01*
X210573000Y-143320000D02*
X213353000Y-143320000D01*
X213353000Y-144590000D02*
X213353000Y-145980000D01*
X213353000Y-145980000D02*
X211963000Y-145980000D01*
D13*
X132000000Y-116840000D02*
X124500000Y-116840000D01*
X124500000Y-116840000D02*
X124500000Y-91440000D01*
X124500000Y-91440000D02*
X132000000Y-91440000D01*
X139700000Y-116840000D02*
X139700000Y-91440000D01*
X139700000Y-91440000D02*
X132000000Y-91440000D01*
X132000000Y-91440000D02*
X132000000Y-116840000D01*
X132000000Y-116840000D02*
X139700000Y-116840000D01*
D15*
X185793000Y-138729000D02*
X184793000Y-138729000D01*
X184793000Y-137369000D02*
X185793000Y-137369000D01*
X194307000Y-129866000D02*
X194307000Y-129516000D01*
X194307000Y-129516000D02*
X195807000Y-129516000D01*
X194307000Y-134516000D02*
X194307000Y-131316000D01*
X195807000Y-136316000D02*
X194307000Y-136316000D01*
X194307000Y-136316000D02*
X194307000Y-135916000D01*
D16*
X190540000Y-160740000D02*
X190540000Y-163240000D01*
X190540000Y-163240000D02*
X195540000Y-163240000D01*
X195540000Y-160740000D02*
X195540000Y-163240000D01*
X190040000Y-149140000D02*
X190040000Y-160740000D01*
X190040000Y-149140000D02*
X196040000Y-149140000D01*
X196040000Y-149140000D02*
X196040000Y-160740000D01*
X190040000Y-160740000D02*
X196040000Y-160740000D01*
D13*
X172592381Y-104901905D02*
X173401905Y-104901905D01*
X173497143Y-104854286D01*
X173544762Y-104806667D01*
X173592381Y-104711429D01*
X173592381Y-104520952D01*
X173544762Y-104425714D01*
X173497143Y-104378095D01*
X173401905Y-104330476D01*
X172592381Y-104330476D01*
X172687619Y-103901905D02*
X172640000Y-103854286D01*
X172592381Y-103759048D01*
X172592381Y-103520952D01*
X172640000Y-103425714D01*
X172687619Y-103378095D01*
X172782857Y-103330476D01*
X172878095Y-103330476D01*
X173020952Y-103378095D01*
X173592381Y-103949524D01*
X173592381Y-103330476D01*
X187944762Y-109163810D02*
X187992381Y-109020953D01*
X187992381Y-108782857D01*
X187944762Y-108687619D01*
X187897143Y-108640000D01*
X187801905Y-108592381D01*
X187706667Y-108592381D01*
X187611429Y-108640000D01*
X187563810Y-108687619D01*
X187516190Y-108782857D01*
X187468571Y-108973334D01*
X187420952Y-109068572D01*
X187373333Y-109116191D01*
X187278095Y-109163810D01*
X187182857Y-109163810D01*
X187087619Y-109116191D01*
X187040000Y-109068572D01*
X186992381Y-108973334D01*
X186992381Y-108735238D01*
X187040000Y-108592381D01*
X186992381Y-108306667D02*
X186992381Y-107735238D01*
X187992381Y-108020953D02*
X186992381Y-108020953D01*
X187992381Y-107401905D02*
X186992381Y-107401905D01*
X187706667Y-107068571D01*
X186992381Y-106735238D01*
X187992381Y-106735238D01*
X186992381Y-106354286D02*
X186992381Y-105735238D01*
X187373333Y-106068572D01*
X187373333Y-105925714D01*
X187420952Y-105830476D01*
X187468571Y-105782857D01*
X187563810Y-105735238D01*
X187801905Y-105735238D01*
X187897143Y-105782857D01*
X187944762Y-105830476D01*
X187992381Y-105925714D01*
X187992381Y-106211429D01*
X187944762Y-106306667D01*
X187897143Y-106354286D01*
X187087619Y-105354286D02*
X187040000Y-105306667D01*
X186992381Y-105211429D01*
X186992381Y-104973333D01*
X187040000Y-104878095D01*
X187087619Y-104830476D01*
X187182857Y-104782857D01*
X187278095Y-104782857D01*
X187420952Y-104830476D01*
X187992381Y-105401905D01*
X187992381Y-104782857D01*
X187468571Y-104020952D02*
X187468571Y-104354286D01*
X187992381Y-104354286D02*
X186992381Y-104354286D01*
X186992381Y-103878095D01*
X186992381Y-103306667D02*
X186992381Y-103211428D01*
X187040000Y-103116190D01*
X187087619Y-103068571D01*
X187182857Y-103020952D01*
X187373333Y-102973333D01*
X187611429Y-102973333D01*
X187801905Y-103020952D01*
X187897143Y-103068571D01*
X187944762Y-103116190D01*
X187992381Y-103211428D01*
X187992381Y-103306667D01*
X187944762Y-103401905D01*
X187897143Y-103449524D01*
X187801905Y-103497143D01*
X187611429Y-103544762D01*
X187373333Y-103544762D01*
X187182857Y-103497143D01*
X187087619Y-103449524D01*
X187040000Y-103401905D01*
X186992381Y-103306667D01*
X186992381Y-102640000D02*
X186992381Y-102020952D01*
X187373333Y-102354286D01*
X187373333Y-102211428D01*
X187420952Y-102116190D01*
X187468571Y-102068571D01*
X187563810Y-102020952D01*
X187801905Y-102020952D01*
X187897143Y-102068571D01*
X187944762Y-102116190D01*
X187992381Y-102211428D01*
X187992381Y-102497143D01*
X187944762Y-102592381D01*
X187897143Y-102640000D01*
X186992381Y-101401905D02*
X186992381Y-101306666D01*
X187040000Y-101211428D01*
X187087619Y-101163809D01*
X187182857Y-101116190D01*
X187373333Y-101068571D01*
X187611429Y-101068571D01*
X187801905Y-101116190D01*
X187897143Y-101163809D01*
X187944762Y-101211428D01*
X187992381Y-101306666D01*
X187992381Y-101401905D01*
X187944762Y-101497143D01*
X187897143Y-101544762D01*
X187801905Y-101592381D01*
X187611429Y-101640000D01*
X187373333Y-101640000D01*
X187182857Y-101592381D01*
X187087619Y-101544762D01*
X187040000Y-101497143D01*
X186992381Y-101401905D01*
X187992381Y-100068571D02*
X187516190Y-100401905D01*
X187992381Y-100640000D02*
X186992381Y-100640000D01*
X186992381Y-100259047D01*
X187040000Y-100163809D01*
X187087619Y-100116190D01*
X187182857Y-100068571D01*
X187325714Y-100068571D01*
X187420952Y-100116190D01*
X187468571Y-100163809D01*
X187516190Y-100259047D01*
X187516190Y-100640000D01*
X187420952Y-99497143D02*
X187373333Y-99592381D01*
X187325714Y-99640000D01*
X187230476Y-99687619D01*
X187182857Y-99687619D01*
X187087619Y-99640000D01*
X187040000Y-99592381D01*
X186992381Y-99497143D01*
X186992381Y-99306666D01*
X187040000Y-99211428D01*
X187087619Y-99163809D01*
X187182857Y-99116190D01*
X187230476Y-99116190D01*
X187325714Y-99163809D01*
X187373333Y-99211428D01*
X187420952Y-99306666D01*
X187420952Y-99497143D01*
X187468571Y-99592381D01*
X187516190Y-99640000D01*
X187611429Y-99687619D01*
X187801905Y-99687619D01*
X187897143Y-99640000D01*
X187944762Y-99592381D01*
X187992381Y-99497143D01*
X187992381Y-99306666D01*
X187944762Y-99211428D01*
X187897143Y-99163809D01*
X187801905Y-99116190D01*
X187611429Y-99116190D01*
X187516190Y-99163809D01*
X187468571Y-99211428D01*
X187420952Y-99306666D01*
D17*
X199405230Y-88259279D02*
X199381420Y-88306898D01*
X199333801Y-88354517D01*
X199262372Y-88425946D01*
X199238563Y-88473565D01*
X199238563Y-88521184D01*
X199357610Y-88497374D02*
X199333801Y-88544993D01*
X199286182Y-88592612D01*
X199190944Y-88616422D01*
X199024277Y-88616422D01*
X198929039Y-88592612D01*
X198881420Y-88544993D01*
X198857610Y-88497374D01*
X198857610Y-88402136D01*
X198881420Y-88354517D01*
X198929039Y-88306898D01*
X199024277Y-88283089D01*
X199190944Y-88283089D01*
X199286182Y-88306898D01*
X199333801Y-88354517D01*
X199357610Y-88402136D01*
X199357610Y-88497374D01*
X199024277Y-87854517D02*
X199357610Y-87854517D01*
X198833801Y-87973564D02*
X199190944Y-88092612D01*
X199190944Y-87783088D01*
X201345875Y-73322310D02*
X201345875Y-72822310D01*
X201869684Y-73322310D02*
X201703017Y-73084215D01*
X201583970Y-73322310D02*
X201583970Y-72822310D01*
X201774446Y-72822310D01*
X201822065Y-72846120D01*
X201845874Y-72869930D01*
X201869684Y-72917549D01*
X201869684Y-72988977D01*
X201845874Y-73036596D01*
X201822065Y-73060406D01*
X201774446Y-73084215D01*
X201583970Y-73084215D01*
X202322065Y-73322310D02*
X202083970Y-73322310D01*
X202083970Y-72822310D01*
X202441113Y-72822310D02*
X202774446Y-72822310D01*
X202441113Y-73322310D01*
X202774446Y-73322310D01*
X203179207Y-72988977D02*
X203179207Y-73322310D01*
X203060160Y-72798501D02*
X202941112Y-73155644D01*
X203250636Y-73155644D01*
X203655397Y-72988977D02*
X203655397Y-73322310D01*
X203536350Y-72798501D02*
X203417302Y-73155644D01*
X203726826Y-73155644D01*
X203917302Y-73322310D02*
X203917302Y-72822310D01*
X204203016Y-73322310D01*
X204203016Y-72822310D01*
X204417302Y-73298501D02*
X204488731Y-73322310D01*
X204607778Y-73322310D01*
X204655397Y-73298501D01*
X204679207Y-73274691D01*
X204703016Y-73227072D01*
X204703016Y-73179453D01*
X204679207Y-73131834D01*
X204655397Y-73108025D01*
X204607778Y-73084215D01*
X204512540Y-73060406D01*
X204464921Y-73036596D01*
X204441112Y-73012787D01*
X204417302Y-72965168D01*
X204417302Y-72917549D01*
X204441112Y-72869930D01*
X204464921Y-72846120D01*
X204512540Y-72822310D01*
X204631588Y-72822310D01*
X204703016Y-72846120D01*
D13*
X156153881Y-137135595D02*
X155153881Y-137135595D01*
X155153881Y-136754642D01*
X155201500Y-136659404D01*
X155249119Y-136611785D01*
X155344357Y-136564166D01*
X155487214Y-136564166D01*
X155582452Y-136611785D01*
X155630071Y-136659404D01*
X155677690Y-136754642D01*
X155677690Y-137135595D01*
X156153881Y-135611785D02*
X156153881Y-136183214D01*
X156153881Y-135897500D02*
X155153881Y-135897500D01*
X155296738Y-135992738D01*
X155391976Y-136087976D01*
X155439595Y-136183214D01*
X156122143Y-136865309D02*
X156169762Y-136912928D01*
X156217381Y-137055785D01*
X156217381Y-137151023D01*
X156169762Y-137293881D01*
X156074524Y-137389119D01*
X155979286Y-137436738D01*
X155788810Y-137484357D01*
X155645952Y-137484357D01*
X155455476Y-137436738D01*
X155360238Y-137389119D01*
X155265000Y-137293881D01*
X155217381Y-137151023D01*
X155217381Y-137055785D01*
X155265000Y-136912928D01*
X155312619Y-136865309D01*
X155217381Y-136246262D02*
X155217381Y-136055785D01*
X155265000Y-135960547D01*
X155360238Y-135865309D01*
X155550714Y-135817690D01*
X155884048Y-135817690D01*
X156074524Y-135865309D01*
X156169762Y-135960547D01*
X156217381Y-136055785D01*
X156217381Y-136246262D01*
X156169762Y-136341500D01*
X156074524Y-136436738D01*
X155884048Y-136484357D01*
X155550714Y-136484357D01*
X155360238Y-136436738D01*
X155265000Y-136341500D01*
X155217381Y-136246262D01*
X156217381Y-135389119D02*
X155217381Y-135389119D01*
X156217381Y-134817690D01*
X155217381Y-134817690D01*
X156217381Y-134341500D02*
X155217381Y-134341500D01*
X156217381Y-133770071D01*
X155217381Y-133770071D01*
X156312619Y-133531976D02*
X156312619Y-132770071D01*
X155217381Y-132341500D02*
X155217381Y-132246261D01*
X155265000Y-132151023D01*
X155312619Y-132103404D01*
X155407857Y-132055785D01*
X155598333Y-132008166D01*
X155836429Y-132008166D01*
X156026905Y-132055785D01*
X156122143Y-132103404D01*
X156169762Y-132151023D01*
X156217381Y-132246261D01*
X156217381Y-132341500D01*
X156169762Y-132436738D01*
X156122143Y-132484357D01*
X156026905Y-132531976D01*
X155836429Y-132579595D01*
X155598333Y-132579595D01*
X155407857Y-132531976D01*
X155312619Y-132484357D01*
X155265000Y-132436738D01*
X155217381Y-132341500D01*
X155312619Y-131627214D02*
X155265000Y-131579595D01*
X155217381Y-131484357D01*
X155217381Y-131246261D01*
X155265000Y-131151023D01*
X155312619Y-131103404D01*
X155407857Y-131055785D01*
X155503095Y-131055785D01*
X155645952Y-131103404D01*
X156217381Y-131674833D01*
X156217381Y-131055785D01*
X155217381Y-130722452D02*
X156217381Y-130055785D01*
X155217381Y-130055785D02*
X156217381Y-130722452D01*
X155217381Y-129484357D02*
X155217381Y-129389118D01*
X155265000Y-129293880D01*
X155312619Y-129246261D01*
X155407857Y-129198642D01*
X155598333Y-129151023D01*
X155836429Y-129151023D01*
X156026905Y-129198642D01*
X156122143Y-129246261D01*
X156169762Y-129293880D01*
X156217381Y-129389118D01*
X156217381Y-129484357D01*
X156169762Y-129579595D01*
X156122143Y-129627214D01*
X156026905Y-129674833D01*
X155836429Y-129722452D01*
X155598333Y-129722452D01*
X155407857Y-129674833D01*
X155312619Y-129627214D01*
X155265000Y-129579595D01*
X155217381Y-129484357D01*
X155217381Y-128246261D02*
X155217381Y-128722452D01*
X155693571Y-128770071D01*
X155645952Y-128722452D01*
X155598333Y-128627214D01*
X155598333Y-128389118D01*
X155645952Y-128293880D01*
X155693571Y-128246261D01*
X155788810Y-128198642D01*
X156026905Y-128198642D01*
X156122143Y-128246261D01*
X156169762Y-128293880D01*
X156217381Y-128389118D01*
X156217381Y-128627214D01*
X156169762Y-128722452D01*
X156122143Y-128770071D01*
X153092667Y-154138381D02*
X153092667Y-154852667D01*
X153045047Y-154995524D01*
X152949809Y-155090762D01*
X152806952Y-155138381D01*
X152711714Y-155138381D01*
X153521238Y-154233619D02*
X153568857Y-154186000D01*
X153664095Y-154138381D01*
X153902191Y-154138381D01*
X153997429Y-154186000D01*
X154045048Y-154233619D01*
X154092667Y-154328857D01*
X154092667Y-154424095D01*
X154045048Y-154566952D01*
X153473619Y-155138381D01*
X154092667Y-155138381D01*
X144187183Y-84526285D02*
X144234802Y-84573904D01*
X144282421Y-84716761D01*
X144282421Y-84811999D01*
X144234802Y-84954857D01*
X144139564Y-85050095D01*
X144044326Y-85097714D01*
X143853850Y-85145333D01*
X143710992Y-85145333D01*
X143520516Y-85097714D01*
X143425278Y-85050095D01*
X143330040Y-84954857D01*
X143282421Y-84811999D01*
X143282421Y-84716761D01*
X143330040Y-84573904D01*
X143377659Y-84526285D01*
X143282421Y-83907238D02*
X143282421Y-83716761D01*
X143330040Y-83621523D01*
X143425278Y-83526285D01*
X143615754Y-83478666D01*
X143949088Y-83478666D01*
X144139564Y-83526285D01*
X144234802Y-83621523D01*
X144282421Y-83716761D01*
X144282421Y-83907238D01*
X144234802Y-84002476D01*
X144139564Y-84097714D01*
X143949088Y-84145333D01*
X143615754Y-84145333D01*
X143425278Y-84097714D01*
X143330040Y-84002476D01*
X143282421Y-83907238D01*
X144282421Y-83050095D02*
X143282421Y-83050095D01*
X144282421Y-82478666D01*
X143282421Y-82478666D01*
X144282421Y-81478666D02*
X144282421Y-82050095D01*
X144282421Y-81764381D02*
X143282421Y-81764381D01*
X143425278Y-81859619D01*
X143520516Y-81954857D01*
X143568135Y-82050095D01*
X129326238Y-77241091D02*
X129469095Y-77288710D01*
X129516714Y-77336330D01*
X129564333Y-77431568D01*
X129564333Y-77574425D01*
X129516714Y-77669663D01*
X129469095Y-77717282D01*
X129373857Y-77764901D01*
X128992904Y-77764901D01*
X128992904Y-76764901D01*
X129326238Y-76764901D01*
X129421476Y-76812520D01*
X129469095Y-76860139D01*
X129516714Y-76955377D01*
X129516714Y-77050615D01*
X129469095Y-77145853D01*
X129421476Y-77193472D01*
X129326238Y-77241091D01*
X128992904Y-77241091D01*
X129945285Y-77479187D02*
X130421476Y-77479187D01*
X129850047Y-77764901D02*
X130183380Y-76764901D01*
X130516714Y-77764901D01*
X131421476Y-77764901D02*
X131088142Y-77288710D01*
X130850047Y-77764901D02*
X130850047Y-76764901D01*
X131231000Y-76764901D01*
X131326238Y-76812520D01*
X131373857Y-76860139D01*
X131421476Y-76955377D01*
X131421476Y-77098234D01*
X131373857Y-77193472D01*
X131326238Y-77241091D01*
X131231000Y-77288710D01*
X130850047Y-77288710D01*
X132421476Y-77764901D02*
X132088142Y-77288710D01*
X131850047Y-77764901D02*
X131850047Y-76764901D01*
X132231000Y-76764901D01*
X132326238Y-76812520D01*
X132373857Y-76860139D01*
X132421476Y-76955377D01*
X132421476Y-77098234D01*
X132373857Y-77193472D01*
X132326238Y-77241091D01*
X132231000Y-77288710D01*
X131850047Y-77288710D01*
X132850047Y-77241091D02*
X133183381Y-77241091D01*
X133326238Y-77764901D02*
X132850047Y-77764901D01*
X132850047Y-76764901D01*
X133326238Y-76764901D01*
X134231000Y-77764901D02*
X133754809Y-77764901D01*
X133754809Y-76764901D01*
X134326238Y-77860139D02*
X135088143Y-77860139D01*
X135611953Y-76764901D02*
X135611953Y-77479187D01*
X135564333Y-77622044D01*
X135469095Y-77717282D01*
X135326238Y-77764901D01*
X135231000Y-77764901D01*
X136040524Y-77479187D02*
X136516715Y-77479187D01*
X135945286Y-77764901D02*
X136278619Y-76764901D01*
X136611953Y-77764901D01*
X137516715Y-77669663D02*
X137469096Y-77717282D01*
X137326239Y-77764901D01*
X137231001Y-77764901D01*
X137088143Y-77717282D01*
X136992905Y-77622044D01*
X136945286Y-77526806D01*
X136897667Y-77336330D01*
X136897667Y-77193472D01*
X136945286Y-77002996D01*
X136992905Y-76907758D01*
X137088143Y-76812520D01*
X137231001Y-76764901D01*
X137326239Y-76764901D01*
X137469096Y-76812520D01*
X137516715Y-76860139D01*
X137945286Y-77764901D02*
X137945286Y-76764901D01*
X138516715Y-77764901D02*
X138088143Y-77193472D01*
X138516715Y-76764901D02*
X137945286Y-77336330D01*
X177316334Y-127103643D02*
X177268715Y-127151262D01*
X177125858Y-127198881D01*
X177030620Y-127198881D01*
X176887762Y-127151262D01*
X176792524Y-127056024D01*
X176744905Y-126960786D01*
X176697286Y-126770310D01*
X176697286Y-126627452D01*
X176744905Y-126436976D01*
X176792524Y-126341738D01*
X176887762Y-126246500D01*
X177030620Y-126198881D01*
X177125858Y-126198881D01*
X177268715Y-126246500D01*
X177316334Y-126294119D01*
X178268715Y-127198881D02*
X177697286Y-127198881D01*
X177983000Y-127198881D02*
X177983000Y-126198881D01*
X177887762Y-126341738D01*
X177792524Y-126436976D01*
X177697286Y-126484595D01*
X181904381Y-136266681D02*
X181332952Y-136266681D01*
X181618666Y-136266681D02*
X181618666Y-135266681D01*
X181523428Y-135409538D01*
X181428190Y-135504776D01*
X181332952Y-135552395D01*
X182523428Y-135266681D02*
X182618667Y-135266681D01*
X182713905Y-135314300D01*
X182761524Y-135361919D01*
X182809143Y-135457157D01*
X182856762Y-135647633D01*
X182856762Y-135885729D01*
X182809143Y-136076205D01*
X182761524Y-136171443D01*
X182713905Y-136219062D01*
X182618667Y-136266681D01*
X182523428Y-136266681D01*
X182428190Y-136219062D01*
X182380571Y-136171443D01*
X182332952Y-136076205D01*
X182285333Y-135885729D01*
X182285333Y-135647633D01*
X182332952Y-135457157D01*
X182380571Y-135361919D01*
X182428190Y-135314300D01*
X182523428Y-135266681D01*
X183475809Y-135266681D02*
X183571048Y-135266681D01*
X183666286Y-135314300D01*
X183713905Y-135361919D01*
X183761524Y-135457157D01*
X183809143Y-135647633D01*
X183809143Y-135885729D01*
X183761524Y-136076205D01*
X183713905Y-136171443D01*
X183666286Y-136219062D01*
X183571048Y-136266681D01*
X183475809Y-136266681D01*
X183380571Y-136219062D01*
X183332952Y-136171443D01*
X183285333Y-136076205D01*
X183237714Y-135885729D01*
X183237714Y-135647633D01*
X183285333Y-135457157D01*
X183332952Y-135361919D01*
X183380571Y-135314300D01*
X183475809Y-135266681D01*
X184666286Y-135600014D02*
X184666286Y-136266681D01*
X184237714Y-135600014D02*
X184237714Y-136123824D01*
X184285333Y-136219062D01*
X184380571Y-136266681D01*
X184523429Y-136266681D01*
X184618667Y-136219062D01*
X184666286Y-136171443D01*
X185475810Y-135742871D02*
X185142476Y-135742871D01*
X185142476Y-136266681D02*
X185142476Y-135266681D01*
X185618667Y-135266681D01*
X187846248Y-126525829D02*
X188608153Y-126525829D01*
X188227201Y-126906781D02*
X188227201Y-126144876D01*
X179855834Y-115799643D02*
X179808215Y-115847262D01*
X179665358Y-115894881D01*
X179570120Y-115894881D01*
X179427262Y-115847262D01*
X179332024Y-115752024D01*
X179284405Y-115656786D01*
X179236786Y-115466310D01*
X179236786Y-115323452D01*
X179284405Y-115132976D01*
X179332024Y-115037738D01*
X179427262Y-114942500D01*
X179570120Y-114894881D01*
X179665358Y-114894881D01*
X179808215Y-114942500D01*
X179855834Y-114990119D01*
X180236786Y-114990119D02*
X180284405Y-114942500D01*
X180379643Y-114894881D01*
X180617739Y-114894881D01*
X180712977Y-114942500D01*
X180760596Y-114990119D01*
X180808215Y-115085357D01*
X180808215Y-115180595D01*
X180760596Y-115323452D01*
X180189167Y-115894881D01*
X180808215Y-115894881D01*
X184904239Y-115037714D02*
X184904239Y-115704381D01*
X184666143Y-114656762D02*
X184428048Y-115371048D01*
X185047096Y-115371048D01*
X185428048Y-115609143D02*
X185475667Y-115656762D01*
X185428048Y-115704381D01*
X185380429Y-115656762D01*
X185428048Y-115609143D01*
X185428048Y-115704381D01*
X185809000Y-114704381D02*
X186475667Y-114704381D01*
X186047095Y-115704381D01*
X187285191Y-115037714D02*
X187285191Y-115704381D01*
X186856619Y-115037714D02*
X186856619Y-115561524D01*
X186904238Y-115656762D01*
X186999476Y-115704381D01*
X187142334Y-115704381D01*
X187237572Y-115656762D01*
X187285191Y-115609143D01*
X188094715Y-115180571D02*
X187761381Y-115180571D01*
X187761381Y-115704381D02*
X187761381Y-114704381D01*
X188237572Y-114704381D01*
X179601834Y-114085143D02*
X179554215Y-114132762D01*
X179411358Y-114180381D01*
X179316120Y-114180381D01*
X179173262Y-114132762D01*
X179078024Y-114037524D01*
X179030405Y-113942286D01*
X178982786Y-113751810D01*
X178982786Y-113608952D01*
X179030405Y-113418476D01*
X179078024Y-113323238D01*
X179173262Y-113228000D01*
X179316120Y-113180381D01*
X179411358Y-113180381D01*
X179554215Y-113228000D01*
X179601834Y-113275619D01*
X179935167Y-113180381D02*
X180554215Y-113180381D01*
X180220881Y-113561333D01*
X180363739Y-113561333D01*
X180458977Y-113608952D01*
X180506596Y-113656571D01*
X180554215Y-113751810D01*
X180554215Y-113989905D01*
X180506596Y-114085143D01*
X180458977Y-114132762D01*
X180363739Y-114180381D01*
X180078024Y-114180381D01*
X179982786Y-114132762D01*
X179935167Y-114085143D01*
X185015381Y-113926381D02*
X184443952Y-113926381D01*
X184729666Y-113926381D02*
X184729666Y-112926381D01*
X184634428Y-113069238D01*
X184539190Y-113164476D01*
X184443952Y-113212095D01*
X185634428Y-112926381D02*
X185729667Y-112926381D01*
X185824905Y-112974000D01*
X185872524Y-113021619D01*
X185920143Y-113116857D01*
X185967762Y-113307333D01*
X185967762Y-113545429D01*
X185920143Y-113735905D01*
X185872524Y-113831143D01*
X185824905Y-113878762D01*
X185729667Y-113926381D01*
X185634428Y-113926381D01*
X185539190Y-113878762D01*
X185491571Y-113831143D01*
X185443952Y-113735905D01*
X185396333Y-113545429D01*
X185396333Y-113307333D01*
X185443952Y-113116857D01*
X185491571Y-113021619D01*
X185539190Y-112974000D01*
X185634428Y-112926381D01*
X186586809Y-112926381D02*
X186682048Y-112926381D01*
X186777286Y-112974000D01*
X186824905Y-113021619D01*
X186872524Y-113116857D01*
X186920143Y-113307333D01*
X186920143Y-113545429D01*
X186872524Y-113735905D01*
X186824905Y-113831143D01*
X186777286Y-113878762D01*
X186682048Y-113926381D01*
X186586809Y-113926381D01*
X186491571Y-113878762D01*
X186443952Y-113831143D01*
X186396333Y-113735905D01*
X186348714Y-113545429D01*
X186348714Y-113307333D01*
X186396333Y-113116857D01*
X186443952Y-113021619D01*
X186491571Y-112974000D01*
X186586809Y-112926381D01*
X187348714Y-113259714D02*
X187348714Y-113926381D01*
X187348714Y-113354952D02*
X187396333Y-113307333D01*
X187491571Y-113259714D01*
X187634429Y-113259714D01*
X187729667Y-113307333D01*
X187777286Y-113402571D01*
X187777286Y-113926381D01*
X188586810Y-113402571D02*
X188253476Y-113402571D01*
X188253476Y-113926381D02*
X188253476Y-112926381D01*
X188729667Y-112926381D01*
X192376143Y-100686666D02*
X192423762Y-100734285D01*
X192471381Y-100877142D01*
X192471381Y-100972380D01*
X192423762Y-101115238D01*
X192328524Y-101210476D01*
X192233286Y-101258095D01*
X192042810Y-101305714D01*
X191899952Y-101305714D01*
X191709476Y-101258095D01*
X191614238Y-101210476D01*
X191519000Y-101115238D01*
X191471381Y-100972380D01*
X191471381Y-100877142D01*
X191519000Y-100734285D01*
X191566619Y-100686666D01*
X191804714Y-99829523D02*
X192471381Y-99829523D01*
X191423762Y-100067619D02*
X192138048Y-100305714D01*
X192138048Y-99686666D01*
X190571381Y-98194119D02*
X190571381Y-98765548D01*
X190571381Y-98479834D02*
X189571381Y-98479834D01*
X189714238Y-98575072D01*
X189809476Y-98670310D01*
X189857095Y-98765548D01*
X189571381Y-97575072D02*
X189571381Y-97479833D01*
X189619000Y-97384595D01*
X189666619Y-97336976D01*
X189761857Y-97289357D01*
X189952333Y-97241738D01*
X190190429Y-97241738D01*
X190380905Y-97289357D01*
X190476143Y-97336976D01*
X190523762Y-97384595D01*
X190571381Y-97479833D01*
X190571381Y-97575072D01*
X190523762Y-97670310D01*
X190476143Y-97717929D01*
X190380905Y-97765548D01*
X190190429Y-97813167D01*
X189952333Y-97813167D01*
X189761857Y-97765548D01*
X189666619Y-97717929D01*
X189619000Y-97670310D01*
X189571381Y-97575072D01*
X189571381Y-96622691D02*
X189571381Y-96527452D01*
X189619000Y-96432214D01*
X189666619Y-96384595D01*
X189761857Y-96336976D01*
X189952333Y-96289357D01*
X190190429Y-96289357D01*
X190380905Y-96336976D01*
X190476143Y-96384595D01*
X190523762Y-96432214D01*
X190571381Y-96527452D01*
X190571381Y-96622691D01*
X190523762Y-96717929D01*
X190476143Y-96765548D01*
X190380905Y-96813167D01*
X190190429Y-96860786D01*
X189952333Y-96860786D01*
X189761857Y-96813167D01*
X189666619Y-96765548D01*
X189619000Y-96717929D01*
X189571381Y-96622691D01*
X189904714Y-95860786D02*
X190571381Y-95860786D01*
X189999952Y-95860786D02*
X189952333Y-95813167D01*
X189904714Y-95717929D01*
X189904714Y-95575071D01*
X189952333Y-95479833D01*
X190047571Y-95432214D01*
X190571381Y-95432214D01*
X190047571Y-94622690D02*
X190047571Y-94956024D01*
X190571381Y-94956024D02*
X189571381Y-94956024D01*
X189571381Y-94479833D01*
X169971143Y-108306666D02*
X170018762Y-108354285D01*
X170066381Y-108497142D01*
X170066381Y-108592380D01*
X170018762Y-108735238D01*
X169923524Y-108830476D01*
X169828286Y-108878095D01*
X169637810Y-108925714D01*
X169494952Y-108925714D01*
X169304476Y-108878095D01*
X169209238Y-108830476D01*
X169114000Y-108735238D01*
X169066381Y-108592380D01*
X169066381Y-108497142D01*
X169114000Y-108354285D01*
X169161619Y-108306666D01*
X169066381Y-107401904D02*
X169066381Y-107878095D01*
X169542571Y-107925714D01*
X169494952Y-107878095D01*
X169447333Y-107782857D01*
X169447333Y-107544761D01*
X169494952Y-107449523D01*
X169542571Y-107401904D01*
X169637810Y-107354285D01*
X169875905Y-107354285D01*
X169971143Y-107401904D01*
X170018762Y-107449523D01*
X170066381Y-107544761D01*
X170066381Y-107782857D01*
X170018762Y-107878095D01*
X169971143Y-107925714D01*
X171966381Y-105877619D02*
X171966381Y-106449048D01*
X171966381Y-106163334D02*
X170966381Y-106163334D01*
X171109238Y-106258572D01*
X171204476Y-106353810D01*
X171252095Y-106449048D01*
X170966381Y-105258572D02*
X170966381Y-105163333D01*
X171014000Y-105068095D01*
X171061619Y-105020476D01*
X171156857Y-104972857D01*
X171347333Y-104925238D01*
X171585429Y-104925238D01*
X171775905Y-104972857D01*
X171871143Y-105020476D01*
X171918762Y-105068095D01*
X171966381Y-105163333D01*
X171966381Y-105258572D01*
X171918762Y-105353810D01*
X171871143Y-105401429D01*
X171775905Y-105449048D01*
X171585429Y-105496667D01*
X171347333Y-105496667D01*
X171156857Y-105449048D01*
X171061619Y-105401429D01*
X171014000Y-105353810D01*
X170966381Y-105258572D01*
X170966381Y-104306191D02*
X170966381Y-104210952D01*
X171014000Y-104115714D01*
X171061619Y-104068095D01*
X171156857Y-104020476D01*
X171347333Y-103972857D01*
X171585429Y-103972857D01*
X171775905Y-104020476D01*
X171871143Y-104068095D01*
X171918762Y-104115714D01*
X171966381Y-104210952D01*
X171966381Y-104306191D01*
X171918762Y-104401429D01*
X171871143Y-104449048D01*
X171775905Y-104496667D01*
X171585429Y-104544286D01*
X171347333Y-104544286D01*
X171156857Y-104496667D01*
X171061619Y-104449048D01*
X171014000Y-104401429D01*
X170966381Y-104306191D01*
X171299714Y-103544286D02*
X171966381Y-103544286D01*
X171394952Y-103544286D02*
X171347333Y-103496667D01*
X171299714Y-103401429D01*
X171299714Y-103258571D01*
X171347333Y-103163333D01*
X171442571Y-103115714D01*
X171966381Y-103115714D01*
X171442571Y-102306190D02*
X171442571Y-102639524D01*
X171966381Y-102639524D02*
X170966381Y-102639524D01*
X170966381Y-102163333D01*
X173412667Y-154138381D02*
X173412667Y-154852667D01*
X173365047Y-154995524D01*
X173269809Y-155090762D01*
X173126952Y-155138381D01*
X173031714Y-155138381D01*
X174412667Y-155138381D02*
X173841238Y-155138381D01*
X174126952Y-155138381D02*
X174126952Y-154138381D01*
X174031714Y-154281238D01*
X173936476Y-154376476D01*
X173841238Y-154424095D01*
X214145905Y-66111381D02*
X214145905Y-65111381D01*
X214526858Y-65111381D01*
X214622096Y-65159000D01*
X214669715Y-65206619D01*
X214717334Y-65301857D01*
X214717334Y-65444714D01*
X214669715Y-65539952D01*
X214622096Y-65587571D01*
X214526858Y-65635190D01*
X214145905Y-65635190D01*
X215050667Y-65111381D02*
X215669715Y-65111381D01*
X215336381Y-65492333D01*
X215479239Y-65492333D01*
X215574477Y-65539952D01*
X215622096Y-65587571D01*
X215669715Y-65682810D01*
X215669715Y-65920905D01*
X215622096Y-66016143D01*
X215574477Y-66063762D01*
X215479239Y-66111381D01*
X215193524Y-66111381D01*
X215098286Y-66063762D01*
X215050667Y-66016143D01*
X202922691Y-63539643D02*
X202875072Y-63587262D01*
X202732215Y-63634881D01*
X202636977Y-63634881D01*
X202494119Y-63587262D01*
X202398881Y-63492024D01*
X202351262Y-63396786D01*
X202303643Y-63206310D01*
X202303643Y-63063452D01*
X202351262Y-62872976D01*
X202398881Y-62777738D01*
X202494119Y-62682500D01*
X202636977Y-62634881D01*
X202732215Y-62634881D01*
X202875072Y-62682500D01*
X202922691Y-62730119D01*
X203541738Y-62634881D02*
X203732215Y-62634881D01*
X203827453Y-62682500D01*
X203922691Y-62777738D01*
X203970310Y-62968214D01*
X203970310Y-63301548D01*
X203922691Y-63492024D01*
X203827453Y-63587262D01*
X203732215Y-63634881D01*
X203541738Y-63634881D01*
X203446500Y-63587262D01*
X203351262Y-63492024D01*
X203303643Y-63301548D01*
X203303643Y-62968214D01*
X203351262Y-62777738D01*
X203446500Y-62682500D01*
X203541738Y-62634881D01*
X204398881Y-63634881D02*
X204398881Y-62634881D01*
X204970310Y-63634881D01*
X204970310Y-62634881D01*
X205446500Y-63634881D02*
X205446500Y-62634881D01*
X206017929Y-63634881D01*
X206017929Y-62634881D01*
X206256024Y-63730119D02*
X207017929Y-63730119D01*
X207446500Y-62634881D02*
X207541739Y-62634881D01*
X207636977Y-62682500D01*
X207684596Y-62730119D01*
X207732215Y-62825357D01*
X207779834Y-63015833D01*
X207779834Y-63253929D01*
X207732215Y-63444405D01*
X207684596Y-63539643D01*
X207636977Y-63587262D01*
X207541739Y-63634881D01*
X207446500Y-63634881D01*
X207351262Y-63587262D01*
X207303643Y-63539643D01*
X207256024Y-63444405D01*
X207208405Y-63253929D01*
X207208405Y-63015833D01*
X207256024Y-62825357D01*
X207303643Y-62730119D01*
X207351262Y-62682500D01*
X207446500Y-62634881D01*
X208732215Y-63634881D02*
X208160786Y-63634881D01*
X208446500Y-63634881D02*
X208446500Y-62634881D01*
X208351262Y-62777738D01*
X208256024Y-62872976D01*
X208160786Y-62920595D01*
X209065548Y-62634881D02*
X209732215Y-63634881D01*
X209732215Y-62634881D02*
X209065548Y-63634881D01*
X210303643Y-62634881D02*
X210398882Y-62634881D01*
X210494120Y-62682500D01*
X210541739Y-62730119D01*
X210589358Y-62825357D01*
X210636977Y-63015833D01*
X210636977Y-63253929D01*
X210589358Y-63444405D01*
X210541739Y-63539643D01*
X210494120Y-63587262D01*
X210398882Y-63634881D01*
X210303643Y-63634881D01*
X210208405Y-63587262D01*
X210160786Y-63539643D01*
X210113167Y-63444405D01*
X210065548Y-63253929D01*
X210065548Y-63015833D01*
X210113167Y-62825357D01*
X210160786Y-62730119D01*
X210208405Y-62682500D01*
X210303643Y-62634881D01*
X211541739Y-62634881D02*
X211065548Y-62634881D01*
X211017929Y-63111071D01*
X211065548Y-63063452D01*
X211160786Y-63015833D01*
X211398882Y-63015833D01*
X211494120Y-63063452D01*
X211541739Y-63111071D01*
X211589358Y-63206310D01*
X211589358Y-63444405D01*
X211541739Y-63539643D01*
X211494120Y-63587262D01*
X211398882Y-63634881D01*
X211160786Y-63634881D01*
X211065548Y-63587262D01*
X211017929Y-63539643D01*
X154963905Y-66873381D02*
X154963905Y-65873381D01*
X155344858Y-65873381D01*
X155440096Y-65921000D01*
X155487715Y-65968619D01*
X155535334Y-66063857D01*
X155535334Y-66206714D01*
X155487715Y-66301952D01*
X155440096Y-66349571D01*
X155344858Y-66397190D01*
X154963905Y-66397190D01*
X156392477Y-66206714D02*
X156392477Y-66873381D01*
X156154381Y-65825762D02*
X155916286Y-66540048D01*
X156535334Y-66540048D01*
X142113238Y-71635881D02*
X142113238Y-70635881D01*
X142351333Y-70635881D01*
X142494191Y-70683500D01*
X142589429Y-70778738D01*
X142637048Y-70873976D01*
X142684667Y-71064452D01*
X142684667Y-71207310D01*
X142637048Y-71397786D01*
X142589429Y-71493024D01*
X142494191Y-71588262D01*
X142351333Y-71635881D01*
X142113238Y-71635881D01*
X143684667Y-71540643D02*
X143637048Y-71588262D01*
X143494191Y-71635881D01*
X143398953Y-71635881D01*
X143256095Y-71588262D01*
X143160857Y-71493024D01*
X143113238Y-71397786D01*
X143065619Y-71207310D01*
X143065619Y-71064452D01*
X143113238Y-70873976D01*
X143160857Y-70778738D01*
X143256095Y-70683500D01*
X143398953Y-70635881D01*
X143494191Y-70635881D01*
X143637048Y-70683500D01*
X143684667Y-70731119D01*
X143875143Y-71731119D02*
X144637048Y-71731119D01*
X144875143Y-71635881D02*
X144875143Y-70635881D01*
X145351333Y-71635881D02*
X145351333Y-70635881D01*
X145922762Y-71635881D01*
X145922762Y-70635881D01*
X158710405Y-66174881D02*
X158710405Y-65174881D01*
X159091358Y-65174881D01*
X159186596Y-65222500D01*
X159234215Y-65270119D01*
X159281834Y-65365357D01*
X159281834Y-65508214D01*
X159234215Y-65603452D01*
X159186596Y-65651071D01*
X159091358Y-65698690D01*
X158710405Y-65698690D01*
X160186596Y-65174881D02*
X159710405Y-65174881D01*
X159662786Y-65651071D01*
X159710405Y-65603452D01*
X159805643Y-65555833D01*
X160043739Y-65555833D01*
X160138977Y-65603452D01*
X160186596Y-65651071D01*
X160234215Y-65746310D01*
X160234215Y-65984405D01*
X160186596Y-66079643D01*
X160138977Y-66127262D01*
X160043739Y-66174881D01*
X159805643Y-66174881D01*
X159710405Y-66127262D01*
X159662786Y-66079643D01*
X175998691Y-63285643D02*
X175951072Y-63333262D01*
X175808215Y-63380881D01*
X175712977Y-63380881D01*
X175570119Y-63333262D01*
X175474881Y-63238024D01*
X175427262Y-63142786D01*
X175379643Y-62952310D01*
X175379643Y-62809452D01*
X175427262Y-62618976D01*
X175474881Y-62523738D01*
X175570119Y-62428500D01*
X175712977Y-62380881D01*
X175808215Y-62380881D01*
X175951072Y-62428500D01*
X175998691Y-62476119D01*
X176617738Y-62380881D02*
X176808215Y-62380881D01*
X176903453Y-62428500D01*
X176998691Y-62523738D01*
X177046310Y-62714214D01*
X177046310Y-63047548D01*
X176998691Y-63238024D01*
X176903453Y-63333262D01*
X176808215Y-63380881D01*
X176617738Y-63380881D01*
X176522500Y-63333262D01*
X176427262Y-63238024D01*
X176379643Y-63047548D01*
X176379643Y-62714214D01*
X176427262Y-62523738D01*
X176522500Y-62428500D01*
X176617738Y-62380881D01*
X177474881Y-63380881D02*
X177474881Y-62380881D01*
X178046310Y-63380881D01*
X178046310Y-62380881D01*
X178522500Y-63380881D02*
X178522500Y-62380881D01*
X179093929Y-63380881D01*
X179093929Y-62380881D01*
X179332024Y-63476119D02*
X180093929Y-63476119D01*
X180522500Y-62380881D02*
X180617739Y-62380881D01*
X180712977Y-62428500D01*
X180760596Y-62476119D01*
X180808215Y-62571357D01*
X180855834Y-62761833D01*
X180855834Y-62999929D01*
X180808215Y-63190405D01*
X180760596Y-63285643D01*
X180712977Y-63333262D01*
X180617739Y-63380881D01*
X180522500Y-63380881D01*
X180427262Y-63333262D01*
X180379643Y-63285643D01*
X180332024Y-63190405D01*
X180284405Y-62999929D01*
X180284405Y-62761833D01*
X180332024Y-62571357D01*
X180379643Y-62476119D01*
X180427262Y-62428500D01*
X180522500Y-62380881D01*
X181808215Y-63380881D02*
X181236786Y-63380881D01*
X181522500Y-63380881D02*
X181522500Y-62380881D01*
X181427262Y-62523738D01*
X181332024Y-62618976D01*
X181236786Y-62666595D01*
X182141548Y-62380881D02*
X182808215Y-63380881D01*
X182808215Y-62380881D02*
X182141548Y-63380881D01*
X183379643Y-62380881D02*
X183474882Y-62380881D01*
X183570120Y-62428500D01*
X183617739Y-62476119D01*
X183665358Y-62571357D01*
X183712977Y-62761833D01*
X183712977Y-62999929D01*
X183665358Y-63190405D01*
X183617739Y-63285643D01*
X183570120Y-63333262D01*
X183474882Y-63380881D01*
X183379643Y-63380881D01*
X183284405Y-63333262D01*
X183236786Y-63285643D01*
X183189167Y-63190405D01*
X183141548Y-62999929D01*
X183141548Y-62761833D01*
X183189167Y-62571357D01*
X183236786Y-62476119D01*
X183284405Y-62428500D01*
X183379643Y-62380881D01*
X184617739Y-62380881D02*
X184141548Y-62380881D01*
X184093929Y-62857071D01*
X184141548Y-62809452D01*
X184236786Y-62761833D01*
X184474882Y-62761833D01*
X184570120Y-62809452D01*
X184617739Y-62857071D01*
X184665358Y-62952310D01*
X184665358Y-63190405D01*
X184617739Y-63285643D01*
X184570120Y-63333262D01*
X184474882Y-63380881D01*
X184236786Y-63380881D01*
X184141548Y-63333262D01*
X184093929Y-63285643D01*
D17*
X187911230Y-88259279D02*
X187887420Y-88306898D01*
X187839801Y-88354517D01*
X187768372Y-88425946D01*
X187744563Y-88473565D01*
X187744563Y-88521184D01*
X187863610Y-88497374D02*
X187839801Y-88544993D01*
X187792182Y-88592612D01*
X187696944Y-88616422D01*
X187530277Y-88616422D01*
X187435039Y-88592612D01*
X187387420Y-88544993D01*
X187363610Y-88497374D01*
X187363610Y-88402136D01*
X187387420Y-88354517D01*
X187435039Y-88306898D01*
X187530277Y-88283089D01*
X187696944Y-88283089D01*
X187792182Y-88306898D01*
X187839801Y-88354517D01*
X187863610Y-88402136D01*
X187863610Y-88497374D01*
X187863610Y-87806898D02*
X187863610Y-88092612D01*
X187863610Y-87949755D02*
X187363610Y-87949755D01*
X187435039Y-87997374D01*
X187482658Y-88044993D01*
X187506468Y-88092612D01*
X189851875Y-73322310D02*
X189851875Y-72822310D01*
X190375684Y-73322310D02*
X190209017Y-73084215D01*
X190089970Y-73322310D02*
X190089970Y-72822310D01*
X190280446Y-72822310D01*
X190328065Y-72846120D01*
X190351874Y-72869930D01*
X190375684Y-72917549D01*
X190375684Y-72988977D01*
X190351874Y-73036596D01*
X190328065Y-73060406D01*
X190280446Y-73084215D01*
X190089970Y-73084215D01*
X190828065Y-73322310D02*
X190589970Y-73322310D01*
X190589970Y-72822310D01*
X190947113Y-72822310D02*
X191280446Y-72822310D01*
X190947113Y-73322310D01*
X191280446Y-73322310D01*
X191685207Y-72988977D02*
X191685207Y-73322310D01*
X191566160Y-72798501D02*
X191447112Y-73155644D01*
X191756636Y-73155644D01*
X192161397Y-72988977D02*
X192161397Y-73322310D01*
X192042350Y-72798501D02*
X191923302Y-73155644D01*
X192232826Y-73155644D01*
X192423302Y-73322310D02*
X192423302Y-72822310D01*
X192709016Y-73322310D01*
X192709016Y-72822310D01*
X192923302Y-73298501D02*
X192994731Y-73322310D01*
X193113778Y-73322310D01*
X193161397Y-73298501D01*
X193185207Y-73274691D01*
X193209016Y-73227072D01*
X193209016Y-73179453D01*
X193185207Y-73131834D01*
X193161397Y-73108025D01*
X193113778Y-73084215D01*
X193018540Y-73060406D01*
X192970921Y-73036596D01*
X192947112Y-73012787D01*
X192923302Y-72965168D01*
X192923302Y-72917549D01*
X192947112Y-72869930D01*
X192970921Y-72846120D01*
X193018540Y-72822310D01*
X193137588Y-72822310D01*
X193209016Y-72846120D01*
X158193230Y-87941779D02*
X158169420Y-87989398D01*
X158121801Y-88037017D01*
X158050372Y-88108446D01*
X158026563Y-88156065D01*
X158026563Y-88203684D01*
X158145610Y-88179874D02*
X158121801Y-88227493D01*
X158074182Y-88275112D01*
X157978944Y-88298922D01*
X157812277Y-88298922D01*
X157717039Y-88275112D01*
X157669420Y-88227493D01*
X157645610Y-88179874D01*
X157645610Y-88084636D01*
X157669420Y-88037017D01*
X157717039Y-87989398D01*
X157812277Y-87965589D01*
X157978944Y-87965589D01*
X158074182Y-87989398D01*
X158121801Y-88037017D01*
X158145610Y-88084636D01*
X158145610Y-88179874D01*
X157645610Y-87798921D02*
X157645610Y-87489398D01*
X157836087Y-87656064D01*
X157836087Y-87584636D01*
X157859896Y-87537017D01*
X157883706Y-87513207D01*
X157931325Y-87489398D01*
X158050372Y-87489398D01*
X158097991Y-87513207D01*
X158121801Y-87537017D01*
X158145610Y-87584636D01*
X158145610Y-87727493D01*
X158121801Y-87775112D01*
X158097991Y-87798921D01*
X160133875Y-73004810D02*
X160133875Y-72504810D01*
X160657684Y-73004810D02*
X160491017Y-72766715D01*
X160371970Y-73004810D02*
X160371970Y-72504810D01*
X160562446Y-72504810D01*
X160610065Y-72528620D01*
X160633874Y-72552430D01*
X160657684Y-72600049D01*
X160657684Y-72671477D01*
X160633874Y-72719096D01*
X160610065Y-72742906D01*
X160562446Y-72766715D01*
X160371970Y-72766715D01*
X161110065Y-73004810D02*
X160871970Y-73004810D01*
X160871970Y-72504810D01*
X161229113Y-72504810D02*
X161562446Y-72504810D01*
X161229113Y-73004810D01*
X161562446Y-73004810D01*
X161967207Y-72671477D02*
X161967207Y-73004810D01*
X161848160Y-72481001D02*
X161729112Y-72838144D01*
X162038636Y-72838144D01*
X162443397Y-72671477D02*
X162443397Y-73004810D01*
X162324350Y-72481001D02*
X162205302Y-72838144D01*
X162514826Y-72838144D01*
X162705302Y-73004810D02*
X162705302Y-72504810D01*
X162991016Y-73004810D01*
X162991016Y-72504810D01*
X163205302Y-72981001D02*
X163276731Y-73004810D01*
X163395778Y-73004810D01*
X163443397Y-72981001D01*
X163467207Y-72957191D01*
X163491016Y-72909572D01*
X163491016Y-72861953D01*
X163467207Y-72814334D01*
X163443397Y-72790525D01*
X163395778Y-72766715D01*
X163300540Y-72742906D01*
X163252921Y-72719096D01*
X163229112Y-72695287D01*
X163205302Y-72647668D01*
X163205302Y-72600049D01*
X163229112Y-72552430D01*
X163252921Y-72528620D01*
X163300540Y-72504810D01*
X163419588Y-72504810D01*
X163491016Y-72528620D01*
X169813230Y-87941779D02*
X169789420Y-87989398D01*
X169741801Y-88037017D01*
X169670372Y-88108446D01*
X169646563Y-88156065D01*
X169646563Y-88203684D01*
X169765610Y-88179874D02*
X169741801Y-88227493D01*
X169694182Y-88275112D01*
X169598944Y-88298922D01*
X169432277Y-88298922D01*
X169337039Y-88275112D01*
X169289420Y-88227493D01*
X169265610Y-88179874D01*
X169265610Y-88084636D01*
X169289420Y-88037017D01*
X169337039Y-87989398D01*
X169432277Y-87965589D01*
X169598944Y-87965589D01*
X169694182Y-87989398D01*
X169741801Y-88037017D01*
X169765610Y-88084636D01*
X169765610Y-88179874D01*
X169265610Y-87798921D02*
X169265610Y-87465588D01*
X169765610Y-87679874D01*
X171753875Y-73004810D02*
X171753875Y-72504810D01*
X172277684Y-73004810D02*
X172111017Y-72766715D01*
X171991970Y-73004810D02*
X171991970Y-72504810D01*
X172182446Y-72504810D01*
X172230065Y-72528620D01*
X172253874Y-72552430D01*
X172277684Y-72600049D01*
X172277684Y-72671477D01*
X172253874Y-72719096D01*
X172230065Y-72742906D01*
X172182446Y-72766715D01*
X171991970Y-72766715D01*
X172730065Y-73004810D02*
X172491970Y-73004810D01*
X172491970Y-72504810D01*
X172849113Y-72504810D02*
X173182446Y-72504810D01*
X172849113Y-73004810D01*
X173182446Y-73004810D01*
X173587207Y-72671477D02*
X173587207Y-73004810D01*
X173468160Y-72481001D02*
X173349112Y-72838144D01*
X173658636Y-72838144D01*
X174063397Y-72671477D02*
X174063397Y-73004810D01*
X173944350Y-72481001D02*
X173825302Y-72838144D01*
X174134826Y-72838144D01*
X174325302Y-73004810D02*
X174325302Y-72504810D01*
X174611016Y-73004810D01*
X174611016Y-72504810D01*
X174825302Y-72981001D02*
X174896731Y-73004810D01*
X175015778Y-73004810D01*
X175063397Y-72981001D01*
X175087207Y-72957191D01*
X175111016Y-72909572D01*
X175111016Y-72861953D01*
X175087207Y-72814334D01*
X175063397Y-72790525D01*
X175015778Y-72766715D01*
X174920540Y-72742906D01*
X174872921Y-72719096D01*
X174849112Y-72695287D01*
X174825302Y-72647668D01*
X174825302Y-72600049D01*
X174849112Y-72552430D01*
X174872921Y-72528620D01*
X174920540Y-72504810D01*
X175039588Y-72504810D01*
X175111016Y-72528620D01*
D13*
X226004381Y-119102095D02*
X225004381Y-119102095D01*
X225004381Y-118721142D01*
X225052000Y-118625904D01*
X225099619Y-118578285D01*
X225194857Y-118530666D01*
X225337714Y-118530666D01*
X225432952Y-118578285D01*
X225480571Y-118625904D01*
X225528190Y-118721142D01*
X225528190Y-119102095D01*
X225099619Y-118149714D02*
X225052000Y-118102095D01*
X225004381Y-118006857D01*
X225004381Y-117768761D01*
X225052000Y-117673523D01*
X225099619Y-117625904D01*
X225194857Y-117578285D01*
X225290095Y-117578285D01*
X225432952Y-117625904D01*
X226004381Y-118197333D01*
X226004381Y-117578285D01*
X225274143Y-115529809D02*
X225321762Y-115577428D01*
X225369381Y-115720285D01*
X225369381Y-115815523D01*
X225321762Y-115958381D01*
X225226524Y-116053619D01*
X225131286Y-116101238D01*
X224940810Y-116148857D01*
X224797952Y-116148857D01*
X224607476Y-116101238D01*
X224512238Y-116053619D01*
X224417000Y-115958381D01*
X224369381Y-115815523D01*
X224369381Y-115720285D01*
X224417000Y-115577428D01*
X224464619Y-115529809D01*
X224369381Y-114910762D02*
X224369381Y-114720285D01*
X224417000Y-114625047D01*
X224512238Y-114529809D01*
X224702714Y-114482190D01*
X225036048Y-114482190D01*
X225226524Y-114529809D01*
X225321762Y-114625047D01*
X225369381Y-114720285D01*
X225369381Y-114910762D01*
X225321762Y-115006000D01*
X225226524Y-115101238D01*
X225036048Y-115148857D01*
X224702714Y-115148857D01*
X224512238Y-115101238D01*
X224417000Y-115006000D01*
X224369381Y-114910762D01*
X225369381Y-114053619D02*
X224369381Y-114053619D01*
X225369381Y-113482190D01*
X224369381Y-113482190D01*
X225369381Y-113006000D02*
X224369381Y-113006000D01*
X225369381Y-112434571D01*
X224369381Y-112434571D01*
X225464619Y-112196476D02*
X225464619Y-111434571D01*
X224369381Y-111006000D02*
X224369381Y-110910761D01*
X224417000Y-110815523D01*
X224464619Y-110767904D01*
X224559857Y-110720285D01*
X224750333Y-110672666D01*
X224988429Y-110672666D01*
X225178905Y-110720285D01*
X225274143Y-110767904D01*
X225321762Y-110815523D01*
X225369381Y-110910761D01*
X225369381Y-111006000D01*
X225321762Y-111101238D01*
X225274143Y-111148857D01*
X225178905Y-111196476D01*
X224988429Y-111244095D01*
X224750333Y-111244095D01*
X224559857Y-111196476D01*
X224464619Y-111148857D01*
X224417000Y-111101238D01*
X224369381Y-111006000D01*
X225369381Y-109720285D02*
X225369381Y-110291714D01*
X225369381Y-110006000D02*
X224369381Y-110006000D01*
X224512238Y-110101238D01*
X224607476Y-110196476D01*
X224655095Y-110291714D01*
X224369381Y-109386952D02*
X225369381Y-108720285D01*
X224369381Y-108720285D02*
X225369381Y-109386952D01*
X224369381Y-108148857D02*
X224369381Y-108053618D01*
X224417000Y-107958380D01*
X224464619Y-107910761D01*
X224559857Y-107863142D01*
X224750333Y-107815523D01*
X224988429Y-107815523D01*
X225178905Y-107863142D01*
X225274143Y-107910761D01*
X225321762Y-107958380D01*
X225369381Y-108053618D01*
X225369381Y-108148857D01*
X225321762Y-108244095D01*
X225274143Y-108291714D01*
X225178905Y-108339333D01*
X224988429Y-108386952D01*
X224750333Y-108386952D01*
X224559857Y-108339333D01*
X224464619Y-108291714D01*
X224417000Y-108244095D01*
X224369381Y-108148857D01*
X224369381Y-106910761D02*
X224369381Y-107386952D01*
X224845571Y-107434571D01*
X224797952Y-107386952D01*
X224750333Y-107291714D01*
X224750333Y-107053618D01*
X224797952Y-106958380D01*
X224845571Y-106910761D01*
X224940810Y-106863142D01*
X225178905Y-106863142D01*
X225274143Y-106910761D01*
X225321762Y-106958380D01*
X225369381Y-107053618D01*
X225369381Y-107291714D01*
X225321762Y-107386952D01*
X225274143Y-107434571D01*
X211224905Y-147432381D02*
X211224905Y-146432381D01*
X211605858Y-146432381D01*
X211701096Y-146480000D01*
X211748715Y-146527619D01*
X211796334Y-146622857D01*
X211796334Y-146765714D01*
X211748715Y-146860952D01*
X211701096Y-146908571D01*
X211605858Y-146956190D01*
X211224905Y-146956190D01*
X212653477Y-146432381D02*
X212463000Y-146432381D01*
X212367762Y-146480000D01*
X212320143Y-146527619D01*
X212224905Y-146670476D01*
X212177286Y-146860952D01*
X212177286Y-147241905D01*
X212224905Y-147337143D01*
X212272524Y-147384762D01*
X212367762Y-147432381D01*
X212558239Y-147432381D01*
X212653477Y-147384762D01*
X212701096Y-147337143D01*
X212748715Y-147241905D01*
X212748715Y-147003810D01*
X212701096Y-146908571D01*
X212653477Y-146860952D01*
X212558239Y-146813333D01*
X212367762Y-146813333D01*
X212272524Y-146860952D01*
X212224905Y-146908571D01*
X212177286Y-147003810D01*
X133040381Y-90654095D02*
X132040381Y-90654095D01*
X132040381Y-90273142D01*
X132088000Y-90177904D01*
X132135619Y-90130285D01*
X132230857Y-90082666D01*
X132373714Y-90082666D01*
X132468952Y-90130285D01*
X132516571Y-90177904D01*
X132564190Y-90273142D01*
X132564190Y-90654095D01*
X132040381Y-89749333D02*
X132040381Y-89082666D01*
X133040381Y-89511238D01*
X131675143Y-100861309D02*
X131722762Y-100908928D01*
X131770381Y-101051785D01*
X131770381Y-101147023D01*
X131722762Y-101289881D01*
X131627524Y-101385119D01*
X131532286Y-101432738D01*
X131341810Y-101480357D01*
X131198952Y-101480357D01*
X131008476Y-101432738D01*
X130913238Y-101385119D01*
X130818000Y-101289881D01*
X130770381Y-101147023D01*
X130770381Y-101051785D01*
X130818000Y-100908928D01*
X130865619Y-100861309D01*
X130770381Y-100242262D02*
X130770381Y-100051785D01*
X130818000Y-99956547D01*
X130913238Y-99861309D01*
X131103714Y-99813690D01*
X131437048Y-99813690D01*
X131627524Y-99861309D01*
X131722762Y-99956547D01*
X131770381Y-100051785D01*
X131770381Y-100242262D01*
X131722762Y-100337500D01*
X131627524Y-100432738D01*
X131437048Y-100480357D01*
X131103714Y-100480357D01*
X130913238Y-100432738D01*
X130818000Y-100337500D01*
X130770381Y-100242262D01*
X131770381Y-99385119D02*
X130770381Y-99385119D01*
X131770381Y-98813690D01*
X130770381Y-98813690D01*
X131770381Y-98337500D02*
X130770381Y-98337500D01*
X131770381Y-97766071D01*
X130770381Y-97766071D01*
X131865619Y-97527976D02*
X131865619Y-96766071D01*
X130770381Y-96337500D02*
X130770381Y-96242261D01*
X130818000Y-96147023D01*
X130865619Y-96099404D01*
X130960857Y-96051785D01*
X131151333Y-96004166D01*
X131389429Y-96004166D01*
X131579905Y-96051785D01*
X131675143Y-96099404D01*
X131722762Y-96147023D01*
X131770381Y-96242261D01*
X131770381Y-96337500D01*
X131722762Y-96432738D01*
X131675143Y-96480357D01*
X131579905Y-96527976D01*
X131389429Y-96575595D01*
X131151333Y-96575595D01*
X130960857Y-96527976D01*
X130865619Y-96480357D01*
X130818000Y-96432738D01*
X130770381Y-96337500D01*
X131770381Y-95051785D02*
X131770381Y-95623214D01*
X131770381Y-95337500D02*
X130770381Y-95337500D01*
X130913238Y-95432738D01*
X131008476Y-95527976D01*
X131056095Y-95623214D01*
X130770381Y-94718452D02*
X131770381Y-94051785D01*
X130770381Y-94051785D02*
X131770381Y-94718452D01*
X130770381Y-93480357D02*
X130770381Y-93385118D01*
X130818000Y-93289880D01*
X130865619Y-93242261D01*
X130960857Y-93194642D01*
X131151333Y-93147023D01*
X131389429Y-93147023D01*
X131579905Y-93194642D01*
X131675143Y-93242261D01*
X131722762Y-93289880D01*
X131770381Y-93385118D01*
X131770381Y-93480357D01*
X131722762Y-93575595D01*
X131675143Y-93623214D01*
X131579905Y-93670833D01*
X131389429Y-93718452D01*
X131151333Y-93718452D01*
X130960857Y-93670833D01*
X130865619Y-93623214D01*
X130818000Y-93575595D01*
X130770381Y-93480357D01*
X130770381Y-92242261D02*
X130770381Y-92718452D01*
X131246571Y-92766071D01*
X131198952Y-92718452D01*
X131151333Y-92623214D01*
X131151333Y-92385118D01*
X131198952Y-92289880D01*
X131246571Y-92242261D01*
X131341810Y-92194642D01*
X131579905Y-92194642D01*
X131675143Y-92242261D01*
X131722762Y-92289880D01*
X131770381Y-92385118D01*
X131770381Y-92623214D01*
X131722762Y-92718452D01*
X131675143Y-92766071D01*
D17*
X203078721Y-95455230D02*
X203031102Y-95431420D01*
X202983483Y-95383801D01*
X202912054Y-95312372D01*
X202864435Y-95288563D01*
X202816816Y-95288563D01*
X202840626Y-95407610D02*
X202793007Y-95383801D01*
X202745388Y-95336182D01*
X202721578Y-95240944D01*
X202721578Y-95074277D01*
X202745388Y-94979039D01*
X202793007Y-94931420D01*
X202840626Y-94907610D01*
X202935864Y-94907610D01*
X202983483Y-94931420D01*
X203031102Y-94979039D01*
X203054911Y-95074277D01*
X203054911Y-95240944D01*
X203031102Y-95336182D01*
X202983483Y-95383801D01*
X202935864Y-95407610D01*
X202840626Y-95407610D01*
X203293007Y-95407610D02*
X203388245Y-95407610D01*
X203435864Y-95383801D01*
X203459674Y-95359991D01*
X203507293Y-95288563D01*
X203531102Y-95193325D01*
X203531102Y-95002849D01*
X203507293Y-94955230D01*
X203483483Y-94931420D01*
X203435864Y-94907610D01*
X203340626Y-94907610D01*
X203293007Y-94931420D01*
X203269198Y-94955230D01*
X203245388Y-95002849D01*
X203245388Y-95121896D01*
X203269198Y-95169515D01*
X203293007Y-95193325D01*
X203340626Y-95217134D01*
X203435864Y-95217134D01*
X203483483Y-95193325D01*
X203507293Y-95169515D01*
X203531102Y-95121896D01*
X218468070Y-100729205D02*
X217968070Y-100729205D01*
X218468070Y-100205396D02*
X218229975Y-100372063D01*
X218468070Y-100491110D02*
X217968070Y-100491110D01*
X217968070Y-100300634D01*
X217991880Y-100253015D01*
X218015690Y-100229206D01*
X218063309Y-100205396D01*
X218134737Y-100205396D01*
X218182356Y-100229206D01*
X218206166Y-100253015D01*
X218229975Y-100300634D01*
X218229975Y-100491110D01*
X218468070Y-99753015D02*
X218468070Y-99991110D01*
X217968070Y-99991110D01*
X217968070Y-99633967D02*
X217968070Y-99300634D01*
X218468070Y-99633967D01*
X218468070Y-99300634D01*
X218134737Y-98895873D02*
X218468070Y-98895873D01*
X217944261Y-99014920D02*
X218301404Y-99133968D01*
X218301404Y-98824444D01*
X218134737Y-98419683D02*
X218468070Y-98419683D01*
X217944261Y-98538730D02*
X218301404Y-98657778D01*
X218301404Y-98348254D01*
X218468070Y-98157778D02*
X217968070Y-98157778D01*
X218468070Y-97872064D01*
X217968070Y-97872064D01*
X218444261Y-97657778D02*
X218468070Y-97586349D01*
X218468070Y-97467302D01*
X218444261Y-97419683D01*
X218420451Y-97395873D01*
X218372832Y-97372064D01*
X218325213Y-97372064D01*
X218277594Y-97395873D01*
X218253785Y-97419683D01*
X218229975Y-97467302D01*
X218206166Y-97562540D01*
X218182356Y-97610159D01*
X218158547Y-97633968D01*
X218110928Y-97657778D01*
X218063309Y-97657778D01*
X218015690Y-97633968D01*
X217991880Y-97610159D01*
X217968070Y-97562540D01*
X217968070Y-97443492D01*
X217991880Y-97372064D01*
X156441946Y-119976390D02*
X156394327Y-119952580D01*
X156346708Y-119904961D01*
X156275279Y-119833532D01*
X156227660Y-119809723D01*
X156180041Y-119809723D01*
X156203851Y-119928770D02*
X156156232Y-119904961D01*
X156108613Y-119857342D01*
X156084803Y-119762104D01*
X156084803Y-119595437D01*
X156108613Y-119500199D01*
X156156232Y-119452580D01*
X156203851Y-119428770D01*
X156299089Y-119428770D01*
X156346708Y-119452580D01*
X156394327Y-119500199D01*
X156418136Y-119595437D01*
X156418136Y-119762104D01*
X156394327Y-119857342D01*
X156346708Y-119904961D01*
X156299089Y-119928770D01*
X156203851Y-119928770D01*
X156894327Y-119928770D02*
X156608613Y-119928770D01*
X156751470Y-119928770D02*
X156751470Y-119428770D01*
X156703851Y-119500199D01*
X156656232Y-119547818D01*
X156608613Y-119571628D01*
X157203851Y-119428770D02*
X157251470Y-119428770D01*
X157299089Y-119452580D01*
X157322898Y-119476390D01*
X157346708Y-119524009D01*
X157370517Y-119619247D01*
X157370517Y-119738294D01*
X157346708Y-119833532D01*
X157322898Y-119881151D01*
X157299089Y-119904961D01*
X157251470Y-119928770D01*
X157203851Y-119928770D01*
X157156232Y-119904961D01*
X157132422Y-119881151D01*
X157108613Y-119833532D01*
X157084803Y-119738294D01*
X157084803Y-119619247D01*
X157108613Y-119524009D01*
X157132422Y-119476390D01*
X157156232Y-119452580D01*
X157203851Y-119428770D01*
X141838310Y-117488125D02*
X141338310Y-117488125D01*
X141838310Y-116964316D02*
X141600215Y-117130983D01*
X141838310Y-117250030D02*
X141338310Y-117250030D01*
X141338310Y-117059554D01*
X141362120Y-117011935D01*
X141385930Y-116988126D01*
X141433549Y-116964316D01*
X141504977Y-116964316D01*
X141552596Y-116988126D01*
X141576406Y-117011935D01*
X141600215Y-117059554D01*
X141600215Y-117250030D01*
X141838310Y-116511935D02*
X141838310Y-116750030D01*
X141338310Y-116750030D01*
X141338310Y-116392887D02*
X141338310Y-116059554D01*
X141838310Y-116392887D01*
X141838310Y-116059554D01*
X141504977Y-115654793D02*
X141838310Y-115654793D01*
X141314501Y-115773840D02*
X141671644Y-115892888D01*
X141671644Y-115583364D01*
X141504977Y-115178603D02*
X141838310Y-115178603D01*
X141314501Y-115297650D02*
X141671644Y-115416698D01*
X141671644Y-115107174D01*
X141838310Y-114916698D02*
X141338310Y-114916698D01*
X141838310Y-114630984D01*
X141338310Y-114630984D01*
X141814501Y-114416698D02*
X141838310Y-114345269D01*
X141838310Y-114226222D01*
X141814501Y-114178603D01*
X141790691Y-114154793D01*
X141743072Y-114130984D01*
X141695453Y-114130984D01*
X141647834Y-114154793D01*
X141624025Y-114178603D01*
X141600215Y-114226222D01*
X141576406Y-114321460D01*
X141552596Y-114369079D01*
X141528787Y-114392888D01*
X141481168Y-114416698D01*
X141433549Y-114416698D01*
X141385930Y-114392888D01*
X141362120Y-114369079D01*
X141338310Y-114321460D01*
X141338310Y-114202412D01*
X141362120Y-114130984D01*
X202776626Y-106821230D02*
X202729007Y-106797420D01*
X202681388Y-106749801D01*
X202609959Y-106678372D01*
X202562340Y-106654563D01*
X202514721Y-106654563D01*
X202538531Y-106773610D02*
X202490912Y-106749801D01*
X202443293Y-106702182D01*
X202419483Y-106606944D01*
X202419483Y-106440277D01*
X202443293Y-106345039D01*
X202490912Y-106297420D01*
X202538531Y-106273610D01*
X202633769Y-106273610D01*
X202681388Y-106297420D01*
X202729007Y-106345039D01*
X202752816Y-106440277D01*
X202752816Y-106606944D01*
X202729007Y-106702182D01*
X202681388Y-106749801D01*
X202633769Y-106773610D01*
X202538531Y-106773610D01*
X203229007Y-106773610D02*
X202943293Y-106773610D01*
X203086150Y-106773610D02*
X203086150Y-106273610D01*
X203038531Y-106345039D01*
X202990912Y-106392658D01*
X202943293Y-106416468D01*
X203395674Y-106273610D02*
X203705197Y-106273610D01*
X203538531Y-106464087D01*
X203609959Y-106464087D01*
X203657578Y-106487896D01*
X203681388Y-106511706D01*
X203705197Y-106559325D01*
X203705197Y-106678372D01*
X203681388Y-106725991D01*
X203657578Y-106749801D01*
X203609959Y-106773610D01*
X203467102Y-106773610D01*
X203419483Y-106749801D01*
X203395674Y-106725991D01*
X218404070Y-112095205D02*
X217904070Y-112095205D01*
X218404070Y-111571396D02*
X218165975Y-111738063D01*
X218404070Y-111857110D02*
X217904070Y-111857110D01*
X217904070Y-111666634D01*
X217927880Y-111619015D01*
X217951690Y-111595206D01*
X217999309Y-111571396D01*
X218070737Y-111571396D01*
X218118356Y-111595206D01*
X218142166Y-111619015D01*
X218165975Y-111666634D01*
X218165975Y-111857110D01*
X218404070Y-111119015D02*
X218404070Y-111357110D01*
X217904070Y-111357110D01*
X217904070Y-110999967D02*
X217904070Y-110666634D01*
X218404070Y-110999967D01*
X218404070Y-110666634D01*
X218070737Y-110261873D02*
X218404070Y-110261873D01*
X217880261Y-110380920D02*
X218237404Y-110499968D01*
X218237404Y-110190444D01*
X218070737Y-109785683D02*
X218404070Y-109785683D01*
X217880261Y-109904730D02*
X218237404Y-110023778D01*
X218237404Y-109714254D01*
X218404070Y-109523778D02*
X217904070Y-109523778D01*
X218404070Y-109238064D01*
X217904070Y-109238064D01*
X218380261Y-109023778D02*
X218404070Y-108952349D01*
X218404070Y-108833302D01*
X218380261Y-108785683D01*
X218356451Y-108761873D01*
X218308832Y-108738064D01*
X218261213Y-108738064D01*
X218213594Y-108761873D01*
X218189785Y-108785683D01*
X218165975Y-108833302D01*
X218142166Y-108928540D01*
X218118356Y-108976159D01*
X218094547Y-108999968D01*
X218046928Y-109023778D01*
X217999309Y-109023778D01*
X217951690Y-108999968D01*
X217927880Y-108976159D01*
X217904070Y-108928540D01*
X217904070Y-108809492D01*
X217927880Y-108738064D01*
X156441946Y-108102390D02*
X156394327Y-108078580D01*
X156346708Y-108030961D01*
X156275279Y-107959532D01*
X156227660Y-107935723D01*
X156180041Y-107935723D01*
X156203851Y-108054770D02*
X156156232Y-108030961D01*
X156108613Y-107983342D01*
X156084803Y-107888104D01*
X156084803Y-107721437D01*
X156108613Y-107626199D01*
X156156232Y-107578580D01*
X156203851Y-107554770D01*
X156299089Y-107554770D01*
X156346708Y-107578580D01*
X156394327Y-107626199D01*
X156418136Y-107721437D01*
X156418136Y-107888104D01*
X156394327Y-107983342D01*
X156346708Y-108030961D01*
X156299089Y-108054770D01*
X156203851Y-108054770D01*
X156894327Y-108054770D02*
X156608613Y-108054770D01*
X156751470Y-108054770D02*
X156751470Y-107554770D01*
X156703851Y-107626199D01*
X156656232Y-107673818D01*
X156608613Y-107697628D01*
X157322898Y-107721437D02*
X157322898Y-108054770D01*
X157203851Y-107530961D02*
X157084803Y-107888104D01*
X157394327Y-107888104D01*
X141838310Y-105614125D02*
X141338310Y-105614125D01*
X141838310Y-105090316D02*
X141600215Y-105256983D01*
X141838310Y-105376030D02*
X141338310Y-105376030D01*
X141338310Y-105185554D01*
X141362120Y-105137935D01*
X141385930Y-105114126D01*
X141433549Y-105090316D01*
X141504977Y-105090316D01*
X141552596Y-105114126D01*
X141576406Y-105137935D01*
X141600215Y-105185554D01*
X141600215Y-105376030D01*
X141838310Y-104637935D02*
X141838310Y-104876030D01*
X141338310Y-104876030D01*
X141338310Y-104518887D02*
X141338310Y-104185554D01*
X141838310Y-104518887D01*
X141838310Y-104185554D01*
X141504977Y-103780793D02*
X141838310Y-103780793D01*
X141314501Y-103899840D02*
X141671644Y-104018888D01*
X141671644Y-103709364D01*
X141504977Y-103304603D02*
X141838310Y-103304603D01*
X141314501Y-103423650D02*
X141671644Y-103542698D01*
X141671644Y-103233174D01*
X141838310Y-103042698D02*
X141338310Y-103042698D01*
X141838310Y-102756984D01*
X141338310Y-102756984D01*
X141814501Y-102542698D02*
X141838310Y-102471269D01*
X141838310Y-102352222D01*
X141814501Y-102304603D01*
X141790691Y-102280793D01*
X141743072Y-102256984D01*
X141695453Y-102256984D01*
X141647834Y-102280793D01*
X141624025Y-102304603D01*
X141600215Y-102352222D01*
X141576406Y-102447460D01*
X141552596Y-102495079D01*
X141528787Y-102518888D01*
X141481168Y-102542698D01*
X141433549Y-102542698D01*
X141385930Y-102518888D01*
X141362120Y-102495079D01*
X141338310Y-102447460D01*
X141338310Y-102328412D01*
X141362120Y-102256984D01*
D13*
X185126334Y-137051381D02*
X184793000Y-136575190D01*
X184554905Y-137051381D02*
X184554905Y-136051381D01*
X184935858Y-136051381D01*
X185031096Y-136099000D01*
X185078715Y-136146619D01*
X185126334Y-136241857D01*
X185126334Y-136384714D01*
X185078715Y-136479952D01*
X185031096Y-136527571D01*
X184935858Y-136575190D01*
X184554905Y-136575190D01*
X186078715Y-137051381D02*
X185507286Y-137051381D01*
X185793000Y-137051381D02*
X185793000Y-136051381D01*
X185697762Y-136194238D01*
X185602524Y-136289476D01*
X185507286Y-136337095D01*
X195245095Y-127818381D02*
X195245095Y-128627905D01*
X195292714Y-128723143D01*
X195340333Y-128770762D01*
X195435571Y-128818381D01*
X195626048Y-128818381D01*
X195721286Y-128770762D01*
X195768905Y-128723143D01*
X195816524Y-128627905D01*
X195816524Y-127818381D01*
X196816524Y-128818381D02*
X196245095Y-128818381D01*
X196530809Y-128818381D02*
X196530809Y-127818381D01*
X196435571Y-127961238D01*
X196340333Y-128056476D01*
X196245095Y-128104095D01*
D18*
X192807260Y-147693356D02*
X192807260Y-148406370D01*
X192759726Y-148548973D01*
X192664657Y-148644041D01*
X192522054Y-148691576D01*
X192426986Y-148691576D01*
X193187535Y-147693356D02*
X193805481Y-147693356D01*
X193472741Y-148073630D01*
X193615343Y-148073630D01*
X193710412Y-148121164D01*
X193757946Y-148168699D01*
X193805481Y-148263767D01*
X193805481Y-148501439D01*
X193757946Y-148596507D01*
X193710412Y-148644041D01*
X193615343Y-148691576D01*
X193330138Y-148691576D01*
X193235069Y-148644041D01*
X193187535Y-148596507D01*
X188595544Y-163893356D02*
X188595544Y-164606370D01*
X188548010Y-164748973D01*
X188452941Y-164844041D01*
X188310338Y-164891576D01*
X188215270Y-164891576D01*
X189023353Y-164606370D02*
X189498696Y-164606370D01*
X188928285Y-164891576D02*
X189261025Y-163893356D01*
X189593765Y-164891576D01*
X190496916Y-164796507D02*
X190449382Y-164844041D01*
X190306779Y-164891576D01*
X190211710Y-164891576D01*
X190069107Y-164844041D01*
X189974039Y-164748973D01*
X189926504Y-164653904D01*
X189878970Y-164463767D01*
X189878970Y-164321164D01*
X189926504Y-164131027D01*
X189974039Y-164035959D01*
X190069107Y-163940890D01*
X190211710Y-163893356D01*
X190306779Y-163893356D01*
X190449382Y-163940890D01*
X190496916Y-163988424D01*
X190924724Y-164891576D02*
X190924724Y-163893356D01*
X191495136Y-164891576D02*
X191067327Y-164321164D01*
X191495136Y-163893356D02*
X190924724Y-164463767D01*
X191685273Y-164986644D02*
X192445822Y-164986644D01*
X192635959Y-164844041D02*
X192778562Y-164891576D01*
X193016233Y-164891576D01*
X193111302Y-164844041D01*
X193158836Y-164796507D01*
X193206371Y-164701439D01*
X193206371Y-164606370D01*
X193158836Y-164511301D01*
X193111302Y-164463767D01*
X193016233Y-164416233D01*
X192826096Y-164368699D01*
X192731028Y-164321164D01*
X192683493Y-164273630D01*
X192635959Y-164178561D01*
X192635959Y-164083493D01*
X192683493Y-163988424D01*
X192731028Y-163940890D01*
X192826096Y-163893356D01*
X193063768Y-163893356D01*
X193206371Y-163940890D01*
X193491577Y-163893356D02*
X194061988Y-163893356D01*
X193776782Y-164891576D02*
X193776782Y-163893356D01*
X194394728Y-164368699D02*
X194727468Y-164368699D01*
X194870071Y-164891576D02*
X194394728Y-164891576D01*
X194394728Y-163893356D01*
X194870071Y-163893356D01*
X195868291Y-164891576D02*
X195535551Y-164416233D01*
X195297879Y-164891576D02*
X195297879Y-163893356D01*
X195678154Y-163893356D01*
X195773222Y-163940890D01*
X195820757Y-163988424D01*
X195868291Y-164083493D01*
X195868291Y-164226096D01*
X195820757Y-164321164D01*
X195773222Y-164368699D01*
X195678154Y-164416233D01*
X195297879Y-164416233D01*
X196296099Y-164368699D02*
X196628839Y-164368699D01*
X196771442Y-164891576D02*
X196296099Y-164891576D01*
X196296099Y-163893356D01*
X196771442Y-163893356D01*
X197389388Y-163893356D02*
X197579525Y-163893356D01*
X197674593Y-163940890D01*
X197769662Y-164035959D01*
X197817196Y-164226096D01*
X197817196Y-164558836D01*
X197769662Y-164748973D01*
X197674593Y-164844041D01*
X197579525Y-164891576D01*
X197389388Y-164891576D01*
X197294319Y-164844041D01*
X197199250Y-164748973D01*
X197151716Y-164558836D01*
X197151716Y-164226096D01*
X197199250Y-164035959D01*
X197294319Y-163940890D01*
X197389388Y-163893356D01*
M02*
