%TF.GenerationSoftware,KiCad,Pcbnew,(5.0.1)-3*%
%TF.CreationDate,2018-12-23T11:37:47+11:00*%
%TF.ProjectId,1Wire-LEDController,31576972652D4C4544436F6E74726F6C,1.2*%
%TF.SameCoordinates,Original*%
%TF.FileFunction,Legend,Top*%
%TF.FilePolarity,Positive*%
%FSLAX46Y46*%
G04 Gerber Fmt 4.6, Leading zero omitted, Abs format (unit mm)*
G04 Created by KiCad (PCBNEW (5.0.1)-3) date 23/12/2018 11:37:47 AM*
%MOMM*%
%LPD*%
G01*
G04 APERTURE LIST*
%ADD10C,0.150000*%
%ADD11C,0.300000*%
%ADD12C,0.100000*%
%ADD13C,0.310000*%
%ADD14C,0.120000*%
%ADD15C,0.304800*%
%ADD16C,0.125000*%
%ADD17C,0.198120*%
G04 APERTURE END LIST*
D10*
X184191219Y-100838000D02*
G75*
G03X184191219Y-100838000I-803219J0D01*
G01*
X176889210Y-107950000D02*
G75*
G03X176889210Y-107950000I-359210J0D01*
G01*
D11*
X180237142Y-71862142D02*
X181380000Y-71862142D01*
X180808571Y-72433571D02*
X180808571Y-71290714D01*
X182737142Y-71433571D02*
X182737142Y-72433571D01*
X182380000Y-70862142D02*
X182022857Y-71933571D01*
X182951428Y-71933571D01*
X183737142Y-71576428D02*
X183594285Y-71505000D01*
X183522857Y-71433571D01*
X183451428Y-71290714D01*
X183451428Y-71219285D01*
X183522857Y-71076428D01*
X183594285Y-71005000D01*
X183737142Y-70933571D01*
X184022857Y-70933571D01*
X184165714Y-71005000D01*
X184237142Y-71076428D01*
X184308571Y-71219285D01*
X184308571Y-71290714D01*
X184237142Y-71433571D01*
X184165714Y-71505000D01*
X184022857Y-71576428D01*
X183737142Y-71576428D01*
X183594285Y-71647857D01*
X183522857Y-71719285D01*
X183451428Y-71862142D01*
X183451428Y-72147857D01*
X183522857Y-72290714D01*
X183594285Y-72362142D01*
X183737142Y-72433571D01*
X184022857Y-72433571D01*
X184165714Y-72362142D01*
X184237142Y-72290714D01*
X184308571Y-72147857D01*
X184308571Y-71862142D01*
X184237142Y-71719285D01*
X184165714Y-71647857D01*
X184022857Y-71576428D01*
X184737142Y-70933571D02*
X185237142Y-72433571D01*
X185737142Y-70933571D01*
X162779285Y-70933571D02*
X163136428Y-72433571D01*
X163422142Y-71362142D01*
X163707857Y-72433571D01*
X164065000Y-70933571D01*
X168565000Y-71647857D02*
X168779285Y-71719285D01*
X168850714Y-71790714D01*
X168922142Y-71933571D01*
X168922142Y-72147857D01*
X168850714Y-72290714D01*
X168779285Y-72362142D01*
X168636428Y-72433571D01*
X168065000Y-72433571D01*
X168065000Y-70933571D01*
X168565000Y-70933571D01*
X168707857Y-71005000D01*
X168779285Y-71076428D01*
X168850714Y-71219285D01*
X168850714Y-71362142D01*
X168779285Y-71505000D01*
X168707857Y-71576428D01*
X168565000Y-71647857D01*
X168065000Y-71647857D01*
X173850714Y-72433571D02*
X173350714Y-71719285D01*
X172993571Y-72433571D02*
X172993571Y-70933571D01*
X173565000Y-70933571D01*
X173707857Y-71005000D01*
X173779285Y-71076428D01*
X173850714Y-71219285D01*
X173850714Y-71433571D01*
X173779285Y-71576428D01*
X173707857Y-71647857D01*
X173565000Y-71719285D01*
X172993571Y-71719285D01*
X178707857Y-71005000D02*
X178565000Y-70933571D01*
X178350714Y-70933571D01*
X178136428Y-71005000D01*
X177993571Y-71147857D01*
X177922142Y-71290714D01*
X177850714Y-71576428D01*
X177850714Y-71790714D01*
X177922142Y-72076428D01*
X177993571Y-72219285D01*
X178136428Y-72362142D01*
X178350714Y-72433571D01*
X178493571Y-72433571D01*
X178707857Y-72362142D01*
X178779285Y-72290714D01*
X178779285Y-71790714D01*
X178493571Y-71790714D01*
X138473642Y-97702357D02*
X138473642Y-96559500D01*
X139045071Y-97130928D02*
X137902214Y-97130928D01*
X138045071Y-95202357D02*
X139045071Y-95202357D01*
X137473642Y-95559500D02*
X138545071Y-95916642D01*
X138545071Y-94988071D01*
X138187928Y-94202357D02*
X138116500Y-94345214D01*
X138045071Y-94416642D01*
X137902214Y-94488071D01*
X137830785Y-94488071D01*
X137687928Y-94416642D01*
X137616500Y-94345214D01*
X137545071Y-94202357D01*
X137545071Y-93916642D01*
X137616500Y-93773785D01*
X137687928Y-93702357D01*
X137830785Y-93630928D01*
X137902214Y-93630928D01*
X138045071Y-93702357D01*
X138116500Y-93773785D01*
X138187928Y-93916642D01*
X138187928Y-94202357D01*
X138259357Y-94345214D01*
X138330785Y-94416642D01*
X138473642Y-94488071D01*
X138759357Y-94488071D01*
X138902214Y-94416642D01*
X138973642Y-94345214D01*
X139045071Y-94202357D01*
X139045071Y-93916642D01*
X138973642Y-93773785D01*
X138902214Y-93702357D01*
X138759357Y-93630928D01*
X138473642Y-93630928D01*
X138330785Y-93702357D01*
X138259357Y-93773785D01*
X138187928Y-93916642D01*
X137545071Y-93202357D02*
X139045071Y-92702357D01*
X137545071Y-92202357D01*
X137545071Y-114842714D02*
X139045071Y-114485571D01*
X137973642Y-114199857D01*
X139045071Y-113914142D01*
X137545071Y-113557000D01*
X138259357Y-109057000D02*
X138330785Y-108842714D01*
X138402214Y-108771285D01*
X138545071Y-108699857D01*
X138759357Y-108699857D01*
X138902214Y-108771285D01*
X138973642Y-108842714D01*
X139045071Y-108985571D01*
X139045071Y-109557000D01*
X137545071Y-109557000D01*
X137545071Y-109057000D01*
X137616500Y-108914142D01*
X137687928Y-108842714D01*
X137830785Y-108771285D01*
X137973642Y-108771285D01*
X138116500Y-108842714D01*
X138187928Y-108914142D01*
X138259357Y-109057000D01*
X138259357Y-109557000D01*
X139045071Y-103771285D02*
X138330785Y-104271285D01*
X139045071Y-104628428D02*
X137545071Y-104628428D01*
X137545071Y-104057000D01*
X137616500Y-103914142D01*
X137687928Y-103842714D01*
X137830785Y-103771285D01*
X138045071Y-103771285D01*
X138187928Y-103842714D01*
X138259357Y-103914142D01*
X138330785Y-104057000D01*
X138330785Y-104628428D01*
X137616500Y-98914142D02*
X137545071Y-99057000D01*
X137545071Y-99271285D01*
X137616500Y-99485571D01*
X137759357Y-99628428D01*
X137902214Y-99699857D01*
X138187928Y-99771285D01*
X138402214Y-99771285D01*
X138687928Y-99699857D01*
X138830785Y-99628428D01*
X138973642Y-99485571D01*
X139045071Y-99271285D01*
X139045071Y-99128428D01*
X138973642Y-98914142D01*
X138902214Y-98842714D01*
X138402214Y-98842714D01*
X138402214Y-99128428D01*
D12*
X214765095Y-145232380D02*
X214193666Y-145232380D01*
X214479380Y-145232380D02*
X214479380Y-144232380D01*
X214384142Y-144375238D01*
X214288904Y-144470476D01*
X214193666Y-144518095D01*
X215098428Y-144232380D02*
X215336523Y-145232380D01*
X215527000Y-144518095D01*
X215717476Y-145232380D01*
X215955571Y-144232380D01*
X216336523Y-145232380D02*
X216336523Y-144565714D01*
X216336523Y-144232380D02*
X216288904Y-144280000D01*
X216336523Y-144327619D01*
X216384142Y-144280000D01*
X216336523Y-144232380D01*
X216336523Y-144327619D01*
X216812714Y-145232380D02*
X216812714Y-144565714D01*
X216812714Y-144756190D02*
X216860333Y-144660952D01*
X216907952Y-144613333D01*
X217003190Y-144565714D01*
X217098428Y-144565714D01*
X217812714Y-145184761D02*
X217717476Y-145232380D01*
X217527000Y-145232380D01*
X217431761Y-145184761D01*
X217384142Y-145089523D01*
X217384142Y-144708571D01*
X217431761Y-144613333D01*
X217527000Y-144565714D01*
X217717476Y-144565714D01*
X217812714Y-144613333D01*
X217860333Y-144708571D01*
X217860333Y-144803809D01*
X217384142Y-144899047D01*
X132525904Y-123592380D02*
X131954476Y-123592380D01*
X132240190Y-123592380D02*
X132240190Y-122592380D01*
X132144952Y-122735238D01*
X132049714Y-122830476D01*
X131954476Y-122878095D01*
X132859238Y-122925714D02*
X133049714Y-123592380D01*
X133240190Y-123116190D01*
X133430666Y-123592380D01*
X133621142Y-122925714D01*
X134002095Y-123592380D02*
X134002095Y-122925714D01*
X134002095Y-122592380D02*
X133954476Y-122640000D01*
X134002095Y-122687619D01*
X134049714Y-122640000D01*
X134002095Y-122592380D01*
X134002095Y-122687619D01*
X134478285Y-123592380D02*
X134478285Y-122925714D01*
X134478285Y-123116190D02*
X134525904Y-123020952D01*
X134573523Y-122973333D01*
X134668761Y-122925714D01*
X134764000Y-122925714D01*
X135478285Y-123544761D02*
X135383047Y-123592380D01*
X135192571Y-123592380D01*
X135097333Y-123544761D01*
X135049714Y-123449523D01*
X135049714Y-123068571D01*
X135097333Y-122973333D01*
X135192571Y-122925714D01*
X135383047Y-122925714D01*
X135478285Y-122973333D01*
X135525904Y-123068571D01*
X135525904Y-123163809D01*
X135049714Y-123259047D01*
X136716380Y-123592380D02*
X136716380Y-122592380D01*
X137097333Y-122592380D01*
X137192571Y-122640000D01*
X137240190Y-122687619D01*
X137287809Y-122782857D01*
X137287809Y-122925714D01*
X137240190Y-123020952D01*
X137192571Y-123068571D01*
X137097333Y-123116190D01*
X136716380Y-123116190D01*
X137716380Y-123592380D02*
X137716380Y-122925714D01*
X137716380Y-122592380D02*
X137668761Y-122640000D01*
X137716380Y-122687619D01*
X137764000Y-122640000D01*
X137716380Y-122592380D01*
X137716380Y-122687619D01*
X138192571Y-122925714D02*
X138192571Y-123592380D01*
X138192571Y-123020952D02*
X138240190Y-122973333D01*
X138335428Y-122925714D01*
X138478285Y-122925714D01*
X138573523Y-122973333D01*
X138621142Y-123068571D01*
X138621142Y-123592380D01*
X139240190Y-123592380D02*
X139144952Y-123544761D01*
X139097333Y-123497142D01*
X139049714Y-123401904D01*
X139049714Y-123116190D01*
X139097333Y-123020952D01*
X139144952Y-122973333D01*
X139240190Y-122925714D01*
X139383047Y-122925714D01*
X139478285Y-122973333D01*
X139525904Y-123020952D01*
X139573523Y-123116190D01*
X139573523Y-123401904D01*
X139525904Y-123497142D01*
X139478285Y-123544761D01*
X139383047Y-123592380D01*
X139240190Y-123592380D01*
X140430666Y-122925714D02*
X140430666Y-123592380D01*
X140002095Y-122925714D02*
X140002095Y-123449523D01*
X140049714Y-123544761D01*
X140144952Y-123592380D01*
X140287809Y-123592380D01*
X140383047Y-123544761D01*
X140430666Y-123497142D01*
X140764000Y-122925714D02*
X141144952Y-122925714D01*
X140906857Y-122592380D02*
X140906857Y-123449523D01*
X140954476Y-123544761D01*
X141049714Y-123592380D01*
X141144952Y-123592380D01*
X141478285Y-123497142D02*
X141525904Y-123544761D01*
X141478285Y-123592380D01*
X141430666Y-123544761D01*
X141478285Y-123497142D01*
X141478285Y-123592380D01*
X141478285Y-122973333D02*
X141525904Y-123020952D01*
X141478285Y-123068571D01*
X141430666Y-123020952D01*
X141478285Y-122973333D01*
X141478285Y-123068571D01*
X132525904Y-125192380D02*
X131954476Y-125192380D01*
X132240190Y-125192380D02*
X132240190Y-124192380D01*
X132144952Y-124335238D01*
X132049714Y-124430476D01*
X131954476Y-124478095D01*
X132954476Y-125097142D02*
X133002095Y-125144761D01*
X132954476Y-125192380D01*
X132906857Y-125144761D01*
X132954476Y-125097142D01*
X132954476Y-125192380D01*
X132954476Y-124573333D02*
X133002095Y-124620952D01*
X132954476Y-124668571D01*
X132906857Y-124620952D01*
X132954476Y-124573333D01*
X132954476Y-124668571D01*
X134716380Y-124240000D02*
X134621142Y-124192380D01*
X134478285Y-124192380D01*
X134335428Y-124240000D01*
X134240190Y-124335238D01*
X134192571Y-124430476D01*
X134144952Y-124620952D01*
X134144952Y-124763809D01*
X134192571Y-124954285D01*
X134240190Y-125049523D01*
X134335428Y-125144761D01*
X134478285Y-125192380D01*
X134573523Y-125192380D01*
X134716380Y-125144761D01*
X134764000Y-125097142D01*
X134764000Y-124763809D01*
X134573523Y-124763809D01*
X135192571Y-124525714D02*
X135192571Y-125192380D01*
X135192571Y-124620952D02*
X135240190Y-124573333D01*
X135335428Y-124525714D01*
X135478285Y-124525714D01*
X135573523Y-124573333D01*
X135621142Y-124668571D01*
X135621142Y-125192380D01*
X136525904Y-125192380D02*
X136525904Y-124192380D01*
X136525904Y-125144761D02*
X136430666Y-125192380D01*
X136240190Y-125192380D01*
X136144952Y-125144761D01*
X136097333Y-125097142D01*
X136049714Y-125001904D01*
X136049714Y-124716190D01*
X136097333Y-124620952D01*
X136144952Y-124573333D01*
X136240190Y-124525714D01*
X136430666Y-124525714D01*
X136525904Y-124573333D01*
X131954476Y-125887619D02*
X132002095Y-125840000D01*
X132097333Y-125792380D01*
X132335428Y-125792380D01*
X132430666Y-125840000D01*
X132478285Y-125887619D01*
X132525904Y-125982857D01*
X132525904Y-126078095D01*
X132478285Y-126220952D01*
X131906857Y-126792380D01*
X132525904Y-126792380D01*
X132954476Y-126697142D02*
X133002095Y-126744761D01*
X132954476Y-126792380D01*
X132906857Y-126744761D01*
X132954476Y-126697142D01*
X132954476Y-126792380D01*
X132954476Y-126173333D02*
X133002095Y-126220952D01*
X132954476Y-126268571D01*
X132906857Y-126220952D01*
X132954476Y-126173333D01*
X132954476Y-126268571D01*
X134192571Y-126411428D02*
X134954476Y-126411428D01*
X134573523Y-126792380D02*
X134573523Y-126030476D01*
X135906857Y-125792380D02*
X135430666Y-125792380D01*
X135383047Y-126268571D01*
X135430666Y-126220952D01*
X135525904Y-126173333D01*
X135764000Y-126173333D01*
X135859238Y-126220952D01*
X135906857Y-126268571D01*
X135954476Y-126363809D01*
X135954476Y-126601904D01*
X135906857Y-126697142D01*
X135859238Y-126744761D01*
X135764000Y-126792380D01*
X135525904Y-126792380D01*
X135430666Y-126744761D01*
X135383047Y-126697142D01*
X136240190Y-125792380D02*
X136573523Y-126792380D01*
X136906857Y-125792380D01*
X131906857Y-127392380D02*
X132525904Y-127392380D01*
X132192571Y-127773333D01*
X132335428Y-127773333D01*
X132430666Y-127820952D01*
X132478285Y-127868571D01*
X132525904Y-127963809D01*
X132525904Y-128201904D01*
X132478285Y-128297142D01*
X132430666Y-128344761D01*
X132335428Y-128392380D01*
X132049714Y-128392380D01*
X131954476Y-128344761D01*
X131906857Y-128297142D01*
X132954476Y-128297142D02*
X133002095Y-128344761D01*
X132954476Y-128392380D01*
X132906857Y-128344761D01*
X132954476Y-128297142D01*
X132954476Y-128392380D01*
X132954476Y-127773333D02*
X133002095Y-127820952D01*
X132954476Y-127868571D01*
X132906857Y-127820952D01*
X132954476Y-127773333D01*
X132954476Y-127868571D01*
X134716380Y-127440000D02*
X134621142Y-127392380D01*
X134478285Y-127392380D01*
X134335428Y-127440000D01*
X134240190Y-127535238D01*
X134192571Y-127630476D01*
X134144952Y-127820952D01*
X134144952Y-127963809D01*
X134192571Y-128154285D01*
X134240190Y-128249523D01*
X134335428Y-128344761D01*
X134478285Y-128392380D01*
X134573523Y-128392380D01*
X134716380Y-128344761D01*
X134764000Y-128297142D01*
X134764000Y-127963809D01*
X134573523Y-127963809D01*
X135192571Y-127725714D02*
X135192571Y-128392380D01*
X135192571Y-127820952D02*
X135240190Y-127773333D01*
X135335428Y-127725714D01*
X135478285Y-127725714D01*
X135573523Y-127773333D01*
X135621142Y-127868571D01*
X135621142Y-128392380D01*
X136525904Y-128392380D02*
X136525904Y-127392380D01*
X136525904Y-128344761D02*
X136430666Y-128392380D01*
X136240190Y-128392380D01*
X136144952Y-128344761D01*
X136097333Y-128297142D01*
X136049714Y-128201904D01*
X136049714Y-127916190D01*
X136097333Y-127820952D01*
X136144952Y-127773333D01*
X136240190Y-127725714D01*
X136430666Y-127725714D01*
X136525904Y-127773333D01*
X132430666Y-129325714D02*
X132430666Y-129992380D01*
X132192571Y-128944761D02*
X131954476Y-129659047D01*
X132573523Y-129659047D01*
X132954476Y-129897142D02*
X133002095Y-129944761D01*
X132954476Y-129992380D01*
X132906857Y-129944761D01*
X132954476Y-129897142D01*
X132954476Y-129992380D01*
X132954476Y-129373333D02*
X133002095Y-129420952D01*
X132954476Y-129468571D01*
X132906857Y-129420952D01*
X132954476Y-129373333D01*
X132954476Y-129468571D01*
X134716380Y-129992380D02*
X134144952Y-129992380D01*
X134430666Y-129992380D02*
X134430666Y-128992380D01*
X134335428Y-129135238D01*
X134240190Y-129230476D01*
X134144952Y-129278095D01*
X135811619Y-128992380D02*
X136049714Y-129992380D01*
X136240190Y-129278095D01*
X136430666Y-129992380D01*
X136668761Y-128992380D01*
X137049714Y-129992380D02*
X137049714Y-129325714D01*
X137049714Y-128992380D02*
X137002095Y-129040000D01*
X137049714Y-129087619D01*
X137097333Y-129040000D01*
X137049714Y-128992380D01*
X137049714Y-129087619D01*
X137525904Y-129992380D02*
X137525904Y-129325714D01*
X137525904Y-129516190D02*
X137573523Y-129420952D01*
X137621142Y-129373333D01*
X137716380Y-129325714D01*
X137811619Y-129325714D01*
X138525904Y-129944761D02*
X138430666Y-129992380D01*
X138240190Y-129992380D01*
X138144952Y-129944761D01*
X138097333Y-129849523D01*
X138097333Y-129468571D01*
X138144952Y-129373333D01*
X138240190Y-129325714D01*
X138430666Y-129325714D01*
X138525904Y-129373333D01*
X138573523Y-129468571D01*
X138573523Y-129563809D01*
X138097333Y-129659047D01*
X132478285Y-130592380D02*
X132002095Y-130592380D01*
X131954476Y-131068571D01*
X132002095Y-131020952D01*
X132097333Y-130973333D01*
X132335428Y-130973333D01*
X132430666Y-131020952D01*
X132478285Y-131068571D01*
X132525904Y-131163809D01*
X132525904Y-131401904D01*
X132478285Y-131497142D01*
X132430666Y-131544761D01*
X132335428Y-131592380D01*
X132097333Y-131592380D01*
X132002095Y-131544761D01*
X131954476Y-131497142D01*
X132954476Y-131497142D02*
X133002095Y-131544761D01*
X132954476Y-131592380D01*
X132906857Y-131544761D01*
X132954476Y-131497142D01*
X132954476Y-131592380D01*
X132954476Y-130973333D02*
X133002095Y-131020952D01*
X132954476Y-131068571D01*
X132906857Y-131020952D01*
X132954476Y-130973333D01*
X132954476Y-131068571D01*
X134716380Y-130640000D02*
X134621142Y-130592380D01*
X134478285Y-130592380D01*
X134335428Y-130640000D01*
X134240190Y-130735238D01*
X134192571Y-130830476D01*
X134144952Y-131020952D01*
X134144952Y-131163809D01*
X134192571Y-131354285D01*
X134240190Y-131449523D01*
X134335428Y-131544761D01*
X134478285Y-131592380D01*
X134573523Y-131592380D01*
X134716380Y-131544761D01*
X134764000Y-131497142D01*
X134764000Y-131163809D01*
X134573523Y-131163809D01*
X135192571Y-130925714D02*
X135192571Y-131592380D01*
X135192571Y-131020952D02*
X135240190Y-130973333D01*
X135335428Y-130925714D01*
X135478285Y-130925714D01*
X135573523Y-130973333D01*
X135621142Y-131068571D01*
X135621142Y-131592380D01*
X136525904Y-131592380D02*
X136525904Y-130592380D01*
X136525904Y-131544761D02*
X136430666Y-131592380D01*
X136240190Y-131592380D01*
X136144952Y-131544761D01*
X136097333Y-131497142D01*
X136049714Y-131401904D01*
X136049714Y-131116190D01*
X136097333Y-131020952D01*
X136144952Y-130973333D01*
X136240190Y-130925714D01*
X136430666Y-130925714D01*
X136525904Y-130973333D01*
X132430666Y-132192380D02*
X132240190Y-132192380D01*
X132144952Y-132240000D01*
X132097333Y-132287619D01*
X132002095Y-132430476D01*
X131954476Y-132620952D01*
X131954476Y-133001904D01*
X132002095Y-133097142D01*
X132049714Y-133144761D01*
X132144952Y-133192380D01*
X132335428Y-133192380D01*
X132430666Y-133144761D01*
X132478285Y-133097142D01*
X132525904Y-133001904D01*
X132525904Y-132763809D01*
X132478285Y-132668571D01*
X132430666Y-132620952D01*
X132335428Y-132573333D01*
X132144952Y-132573333D01*
X132049714Y-132620952D01*
X132002095Y-132668571D01*
X131954476Y-132763809D01*
X132954476Y-133097142D02*
X133002095Y-133144761D01*
X132954476Y-133192380D01*
X132906857Y-133144761D01*
X132954476Y-133097142D01*
X132954476Y-133192380D01*
X132954476Y-132573333D02*
X133002095Y-132620952D01*
X132954476Y-132668571D01*
X132906857Y-132620952D01*
X132954476Y-132573333D01*
X132954476Y-132668571D01*
X134192571Y-133192380D02*
X134192571Y-132192380D01*
X134764000Y-133192380D01*
X134764000Y-132192380D01*
X135954476Y-132144761D02*
X135097333Y-133430476D01*
X136859238Y-133097142D02*
X136811619Y-133144761D01*
X136668761Y-133192380D01*
X136573523Y-133192380D01*
X136430666Y-133144761D01*
X136335428Y-133049523D01*
X136287809Y-132954285D01*
X136240190Y-132763809D01*
X136240190Y-132620952D01*
X136287809Y-132430476D01*
X136335428Y-132335238D01*
X136430666Y-132240000D01*
X136573523Y-132192380D01*
X136668761Y-132192380D01*
X136811619Y-132240000D01*
X136859238Y-132287619D01*
X131906857Y-133792380D02*
X132573523Y-133792380D01*
X132144952Y-134792380D01*
X132954476Y-134697142D02*
X133002095Y-134744761D01*
X132954476Y-134792380D01*
X132906857Y-134744761D01*
X132954476Y-134697142D01*
X132954476Y-134792380D01*
X132954476Y-134173333D02*
X133002095Y-134220952D01*
X132954476Y-134268571D01*
X132906857Y-134220952D01*
X132954476Y-134173333D01*
X132954476Y-134268571D01*
X134192571Y-134792380D02*
X134192571Y-133792380D01*
X134764000Y-134792380D01*
X134764000Y-133792380D01*
X135954476Y-133744761D02*
X135097333Y-135030476D01*
X136859238Y-134697142D02*
X136811619Y-134744761D01*
X136668761Y-134792380D01*
X136573523Y-134792380D01*
X136430666Y-134744761D01*
X136335428Y-134649523D01*
X136287809Y-134554285D01*
X136240190Y-134363809D01*
X136240190Y-134220952D01*
X136287809Y-134030476D01*
X136335428Y-133935238D01*
X136430666Y-133840000D01*
X136573523Y-133792380D01*
X136668761Y-133792380D01*
X136811619Y-133840000D01*
X136859238Y-133887619D01*
X132144952Y-135820952D02*
X132049714Y-135773333D01*
X132002095Y-135725714D01*
X131954476Y-135630476D01*
X131954476Y-135582857D01*
X132002095Y-135487619D01*
X132049714Y-135440000D01*
X132144952Y-135392380D01*
X132335428Y-135392380D01*
X132430666Y-135440000D01*
X132478285Y-135487619D01*
X132525904Y-135582857D01*
X132525904Y-135630476D01*
X132478285Y-135725714D01*
X132430666Y-135773333D01*
X132335428Y-135820952D01*
X132144952Y-135820952D01*
X132049714Y-135868571D01*
X132002095Y-135916190D01*
X131954476Y-136011428D01*
X131954476Y-136201904D01*
X132002095Y-136297142D01*
X132049714Y-136344761D01*
X132144952Y-136392380D01*
X132335428Y-136392380D01*
X132430666Y-136344761D01*
X132478285Y-136297142D01*
X132525904Y-136201904D01*
X132525904Y-136011428D01*
X132478285Y-135916190D01*
X132430666Y-135868571D01*
X132335428Y-135820952D01*
X132954476Y-136297142D02*
X133002095Y-136344761D01*
X132954476Y-136392380D01*
X132906857Y-136344761D01*
X132954476Y-136297142D01*
X132954476Y-136392380D01*
X132954476Y-135773333D02*
X133002095Y-135820952D01*
X132954476Y-135868571D01*
X132906857Y-135820952D01*
X132954476Y-135773333D01*
X132954476Y-135868571D01*
X134716380Y-135440000D02*
X134621142Y-135392380D01*
X134478285Y-135392380D01*
X134335428Y-135440000D01*
X134240190Y-135535238D01*
X134192571Y-135630476D01*
X134144952Y-135820952D01*
X134144952Y-135963809D01*
X134192571Y-136154285D01*
X134240190Y-136249523D01*
X134335428Y-136344761D01*
X134478285Y-136392380D01*
X134573523Y-136392380D01*
X134716380Y-136344761D01*
X134764000Y-136297142D01*
X134764000Y-135963809D01*
X134573523Y-135963809D01*
X135192571Y-135725714D02*
X135192571Y-136392380D01*
X135192571Y-135820952D02*
X135240190Y-135773333D01*
X135335428Y-135725714D01*
X135478285Y-135725714D01*
X135573523Y-135773333D01*
X135621142Y-135868571D01*
X135621142Y-136392380D01*
X136525904Y-136392380D02*
X136525904Y-135392380D01*
X136525904Y-136344761D02*
X136430666Y-136392380D01*
X136240190Y-136392380D01*
X136144952Y-136344761D01*
X136097333Y-136297142D01*
X136049714Y-136201904D01*
X136049714Y-135916190D01*
X136097333Y-135820952D01*
X136144952Y-135773333D01*
X136240190Y-135725714D01*
X136430666Y-135725714D01*
X136525904Y-135773333D01*
D13*
X194458785Y-127996071D02*
X193601642Y-127996071D01*
X194030214Y-127996071D02*
X194030214Y-126496071D01*
X193887357Y-126710357D01*
X193744500Y-126853214D01*
X193601642Y-126924642D01*
X194958785Y-126496071D02*
X195315928Y-127996071D01*
X195601642Y-126924642D01*
X195887357Y-127996071D01*
X196244500Y-126496071D01*
X196815928Y-127996071D02*
X196815928Y-126996071D01*
X196815928Y-126496071D02*
X196744500Y-126567500D01*
X196815928Y-126638928D01*
X196887357Y-126567500D01*
X196815928Y-126496071D01*
X196815928Y-126638928D01*
X197530214Y-127996071D02*
X197530214Y-126996071D01*
X197530214Y-127281785D02*
X197601642Y-127138928D01*
X197673071Y-127067500D01*
X197815928Y-126996071D01*
X197958785Y-126996071D01*
X199030214Y-127924642D02*
X198887357Y-127996071D01*
X198601642Y-127996071D01*
X198458785Y-127924642D01*
X198387357Y-127781785D01*
X198387357Y-127210357D01*
X198458785Y-127067500D01*
X198601642Y-126996071D01*
X198887357Y-126996071D01*
X199030214Y-127067500D01*
X199101642Y-127210357D01*
X199101642Y-127353214D01*
X198387357Y-127496071D01*
X201601642Y-127996071D02*
X200887357Y-127996071D01*
X200887357Y-126496071D01*
X202101642Y-127210357D02*
X202601642Y-127210357D01*
X202815928Y-127996071D02*
X202101642Y-127996071D01*
X202101642Y-126496071D01*
X202815928Y-126496071D01*
X203458785Y-127996071D02*
X203458785Y-126496071D01*
X203815928Y-126496071D01*
X204030214Y-126567500D01*
X204173071Y-126710357D01*
X204244500Y-126853214D01*
X204315928Y-127138928D01*
X204315928Y-127353214D01*
X204244500Y-127638928D01*
X204173071Y-127781785D01*
X204030214Y-127924642D01*
X203815928Y-127996071D01*
X203458785Y-127996071D01*
X206958785Y-127853214D02*
X206887357Y-127924642D01*
X206673071Y-127996071D01*
X206530214Y-127996071D01*
X206315928Y-127924642D01*
X206173071Y-127781785D01*
X206101642Y-127638928D01*
X206030214Y-127353214D01*
X206030214Y-127138928D01*
X206101642Y-126853214D01*
X206173071Y-126710357D01*
X206315928Y-126567500D01*
X206530214Y-126496071D01*
X206673071Y-126496071D01*
X206887357Y-126567500D01*
X206958785Y-126638928D01*
X207815928Y-127996071D02*
X207673071Y-127924642D01*
X207601642Y-127853214D01*
X207530214Y-127710357D01*
X207530214Y-127281785D01*
X207601642Y-127138928D01*
X207673071Y-127067500D01*
X207815928Y-126996071D01*
X208030214Y-126996071D01*
X208173071Y-127067500D01*
X208244500Y-127138928D01*
X208315928Y-127281785D01*
X208315928Y-127710357D01*
X208244500Y-127853214D01*
X208173071Y-127924642D01*
X208030214Y-127996071D01*
X207815928Y-127996071D01*
X208958785Y-126996071D02*
X208958785Y-127996071D01*
X208958785Y-127138928D02*
X209030214Y-127067500D01*
X209173071Y-126996071D01*
X209387357Y-126996071D01*
X209530214Y-127067500D01*
X209601642Y-127210357D01*
X209601642Y-127996071D01*
X210101642Y-126996071D02*
X210673071Y-126996071D01*
X210315928Y-126496071D02*
X210315928Y-127781785D01*
X210387357Y-127924642D01*
X210530214Y-127996071D01*
X210673071Y-127996071D01*
X211173071Y-127996071D02*
X211173071Y-126996071D01*
X211173071Y-127281785D02*
X211244500Y-127138928D01*
X211315928Y-127067500D01*
X211458785Y-126996071D01*
X211601642Y-126996071D01*
X212315928Y-127996071D02*
X212173071Y-127924642D01*
X212101642Y-127853214D01*
X212030214Y-127710357D01*
X212030214Y-127281785D01*
X212101642Y-127138928D01*
X212173071Y-127067500D01*
X212315928Y-126996071D01*
X212530214Y-126996071D01*
X212673071Y-127067500D01*
X212744500Y-127138928D01*
X212815928Y-127281785D01*
X212815928Y-127710357D01*
X212744500Y-127853214D01*
X212673071Y-127924642D01*
X212530214Y-127996071D01*
X212315928Y-127996071D01*
X213673071Y-127996071D02*
X213530214Y-127924642D01*
X213458785Y-127781785D01*
X213458785Y-126496071D01*
X214458785Y-127996071D02*
X214315928Y-127924642D01*
X214244500Y-127781785D01*
X214244500Y-126496071D01*
X215601642Y-127924642D02*
X215458785Y-127996071D01*
X215173071Y-127996071D01*
X215030214Y-127924642D01*
X214958785Y-127781785D01*
X214958785Y-127210357D01*
X215030214Y-127067500D01*
X215173071Y-126996071D01*
X215458785Y-126996071D01*
X215601642Y-127067500D01*
X215673071Y-127210357D01*
X215673071Y-127353214D01*
X214958785Y-127496071D01*
X216315928Y-127996071D02*
X216315928Y-126996071D01*
X216315928Y-127281785D02*
X216387357Y-127138928D01*
X216458785Y-127067500D01*
X216601642Y-126996071D01*
X216744500Y-126996071D01*
X219244500Y-127996071D02*
X218744500Y-127281785D01*
X218387357Y-127996071D02*
X218387357Y-126496071D01*
X218958785Y-126496071D01*
X219101642Y-126567500D01*
X219173071Y-126638928D01*
X219244500Y-126781785D01*
X219244500Y-126996071D01*
X219173071Y-127138928D01*
X219101642Y-127210357D01*
X218958785Y-127281785D01*
X218387357Y-127281785D01*
X220458785Y-127924642D02*
X220315928Y-127996071D01*
X220030214Y-127996071D01*
X219887357Y-127924642D01*
X219815928Y-127781785D01*
X219815928Y-127210357D01*
X219887357Y-127067500D01*
X220030214Y-126996071D01*
X220315928Y-126996071D01*
X220458785Y-127067500D01*
X220530214Y-127210357D01*
X220530214Y-127353214D01*
X219815928Y-127496071D01*
X221030214Y-126996071D02*
X221387357Y-127996071D01*
X221744500Y-126996071D01*
X224244500Y-127996071D02*
X223387357Y-127996071D01*
X223815928Y-127996071D02*
X223815928Y-126496071D01*
X223673071Y-126710357D01*
X223530214Y-126853214D01*
X223387357Y-126924642D01*
X224887357Y-127853214D02*
X224958785Y-127924642D01*
X224887357Y-127996071D01*
X224815928Y-127924642D01*
X224887357Y-127853214D01*
X224887357Y-127996071D01*
X225530214Y-126638928D02*
X225601642Y-126567500D01*
X225744500Y-126496071D01*
X226101642Y-126496071D01*
X226244500Y-126567500D01*
X226315928Y-126638928D01*
X226387357Y-126781785D01*
X226387357Y-126924642D01*
X226315928Y-127138928D01*
X225458785Y-127996071D01*
X226387357Y-127996071D01*
D12*
X136605785Y-140254380D02*
X136129595Y-140254380D01*
X136129595Y-139254380D01*
X136939119Y-140254380D02*
X136939119Y-139587714D01*
X136939119Y-139254380D02*
X136891500Y-139302000D01*
X136939119Y-139349619D01*
X136986738Y-139302000D01*
X136939119Y-139254380D01*
X136939119Y-139349619D01*
X137843880Y-140206761D02*
X137748642Y-140254380D01*
X137558166Y-140254380D01*
X137462928Y-140206761D01*
X137415309Y-140159142D01*
X137367690Y-140063904D01*
X137367690Y-139778190D01*
X137415309Y-139682952D01*
X137462928Y-139635333D01*
X137558166Y-139587714D01*
X137748642Y-139587714D01*
X137843880Y-139635333D01*
X138653404Y-140206761D02*
X138558166Y-140254380D01*
X138367690Y-140254380D01*
X138272452Y-140206761D01*
X138224833Y-140111523D01*
X138224833Y-139730571D01*
X138272452Y-139635333D01*
X138367690Y-139587714D01*
X138558166Y-139587714D01*
X138653404Y-139635333D01*
X138701023Y-139730571D01*
X138701023Y-139825809D01*
X138224833Y-139921047D01*
X139129595Y-139587714D02*
X139129595Y-140254380D01*
X139129595Y-139682952D02*
X139177214Y-139635333D01*
X139272452Y-139587714D01*
X139415309Y-139587714D01*
X139510547Y-139635333D01*
X139558166Y-139730571D01*
X139558166Y-140254380D01*
X139986738Y-140206761D02*
X140081976Y-140254380D01*
X140272452Y-140254380D01*
X140367690Y-140206761D01*
X140415309Y-140111523D01*
X140415309Y-140063904D01*
X140367690Y-139968666D01*
X140272452Y-139921047D01*
X140129595Y-139921047D01*
X140034357Y-139873428D01*
X139986738Y-139778190D01*
X139986738Y-139730571D01*
X140034357Y-139635333D01*
X140129595Y-139587714D01*
X140272452Y-139587714D01*
X140367690Y-139635333D01*
X141224833Y-140206761D02*
X141129595Y-140254380D01*
X140939119Y-140254380D01*
X140843880Y-140206761D01*
X140796261Y-140111523D01*
X140796261Y-139730571D01*
X140843880Y-139635333D01*
X140939119Y-139587714D01*
X141129595Y-139587714D01*
X141224833Y-139635333D01*
X141272452Y-139730571D01*
X141272452Y-139825809D01*
X140796261Y-139921047D01*
X142129595Y-140254380D02*
X142129595Y-139254380D01*
X142129595Y-140206761D02*
X142034357Y-140254380D01*
X141843880Y-140254380D01*
X141748642Y-140206761D01*
X141701023Y-140159142D01*
X141653404Y-140063904D01*
X141653404Y-139778190D01*
X141701023Y-139682952D01*
X141748642Y-139635333D01*
X141843880Y-139587714D01*
X142034357Y-139587714D01*
X142129595Y-139635333D01*
X143796261Y-139587714D02*
X143796261Y-140254380D01*
X143367690Y-139587714D02*
X143367690Y-140111523D01*
X143415309Y-140206761D01*
X143510547Y-140254380D01*
X143653404Y-140254380D01*
X143748642Y-140206761D01*
X143796261Y-140159142D01*
X144272452Y-139587714D02*
X144272452Y-140254380D01*
X144272452Y-139682952D02*
X144320071Y-139635333D01*
X144415309Y-139587714D01*
X144558166Y-139587714D01*
X144653404Y-139635333D01*
X144701023Y-139730571D01*
X144701023Y-140254380D01*
X145605785Y-140254380D02*
X145605785Y-139254380D01*
X145605785Y-140206761D02*
X145510547Y-140254380D01*
X145320071Y-140254380D01*
X145224833Y-140206761D01*
X145177214Y-140159142D01*
X145129595Y-140063904D01*
X145129595Y-139778190D01*
X145177214Y-139682952D01*
X145224833Y-139635333D01*
X145320071Y-139587714D01*
X145510547Y-139587714D01*
X145605785Y-139635333D01*
X146462928Y-140206761D02*
X146367690Y-140254380D01*
X146177214Y-140254380D01*
X146081976Y-140206761D01*
X146034357Y-140111523D01*
X146034357Y-139730571D01*
X146081976Y-139635333D01*
X146177214Y-139587714D01*
X146367690Y-139587714D01*
X146462928Y-139635333D01*
X146510547Y-139730571D01*
X146510547Y-139825809D01*
X146034357Y-139921047D01*
X146939119Y-140254380D02*
X146939119Y-139587714D01*
X146939119Y-139778190D02*
X146986738Y-139682952D01*
X147034357Y-139635333D01*
X147129595Y-139587714D01*
X147224833Y-139587714D01*
X148177214Y-139587714D02*
X148558166Y-139587714D01*
X148320071Y-139254380D02*
X148320071Y-140111523D01*
X148367690Y-140206761D01*
X148462928Y-140254380D01*
X148558166Y-140254380D01*
X148891500Y-140254380D02*
X148891500Y-139254380D01*
X149320071Y-140254380D02*
X149320071Y-139730571D01*
X149272452Y-139635333D01*
X149177214Y-139587714D01*
X149034357Y-139587714D01*
X148939119Y-139635333D01*
X148891500Y-139682952D01*
X150177214Y-140206761D02*
X150081976Y-140254380D01*
X149891500Y-140254380D01*
X149796261Y-140206761D01*
X149748642Y-140111523D01*
X149748642Y-139730571D01*
X149796261Y-139635333D01*
X149891500Y-139587714D01*
X150081976Y-139587714D01*
X150177214Y-139635333D01*
X150224833Y-139730571D01*
X150224833Y-139825809D01*
X149748642Y-139921047D01*
X151272452Y-139254380D02*
X151843880Y-139254380D01*
X151558166Y-140254380D02*
X151558166Y-139254380D01*
X152129595Y-139968666D02*
X152605785Y-139968666D01*
X152034357Y-140254380D02*
X152367690Y-139254380D01*
X152701023Y-140254380D01*
X153034357Y-140254380D02*
X153034357Y-139254380D01*
X153415309Y-139254380D01*
X153510547Y-139302000D01*
X153558166Y-139349619D01*
X153605785Y-139444857D01*
X153605785Y-139587714D01*
X153558166Y-139682952D01*
X153510547Y-139730571D01*
X153415309Y-139778190D01*
X153034357Y-139778190D01*
X154605785Y-140254380D02*
X154272452Y-139778190D01*
X154034357Y-140254380D02*
X154034357Y-139254380D01*
X154415309Y-139254380D01*
X154510547Y-139302000D01*
X154558166Y-139349619D01*
X154605785Y-139444857D01*
X154605785Y-139587714D01*
X154558166Y-139682952D01*
X154510547Y-139730571D01*
X154415309Y-139778190D01*
X154034357Y-139778190D01*
X136320071Y-140854380D02*
X136510547Y-140854380D01*
X136605785Y-140902000D01*
X136701023Y-140997238D01*
X136748642Y-141187714D01*
X136748642Y-141521047D01*
X136701023Y-141711523D01*
X136605785Y-141806761D01*
X136510547Y-141854380D01*
X136320071Y-141854380D01*
X136224833Y-141806761D01*
X136129595Y-141711523D01*
X136081976Y-141521047D01*
X136081976Y-141187714D01*
X136129595Y-140997238D01*
X136224833Y-140902000D01*
X136320071Y-140854380D01*
X137177214Y-141187714D02*
X137177214Y-142187714D01*
X137177214Y-141235333D02*
X137272452Y-141187714D01*
X137462928Y-141187714D01*
X137558166Y-141235333D01*
X137605785Y-141282952D01*
X137653404Y-141378190D01*
X137653404Y-141663904D01*
X137605785Y-141759142D01*
X137558166Y-141806761D01*
X137462928Y-141854380D01*
X137272452Y-141854380D01*
X137177214Y-141806761D01*
X138462928Y-141806761D02*
X138367690Y-141854380D01*
X138177214Y-141854380D01*
X138081976Y-141806761D01*
X138034357Y-141711523D01*
X138034357Y-141330571D01*
X138081976Y-141235333D01*
X138177214Y-141187714D01*
X138367690Y-141187714D01*
X138462928Y-141235333D01*
X138510547Y-141330571D01*
X138510547Y-141425809D01*
X138034357Y-141521047D01*
X138939119Y-141187714D02*
X138939119Y-141854380D01*
X138939119Y-141282952D02*
X138986738Y-141235333D01*
X139081976Y-141187714D01*
X139224833Y-141187714D01*
X139320071Y-141235333D01*
X139367690Y-141330571D01*
X139367690Y-141854380D01*
X140605785Y-141854380D02*
X140605785Y-140854380D01*
X140605785Y-141330571D02*
X141177214Y-141330571D01*
X141177214Y-141854380D02*
X141177214Y-140854380D01*
X142081976Y-141854380D02*
X142081976Y-141330571D01*
X142034357Y-141235333D01*
X141939119Y-141187714D01*
X141748642Y-141187714D01*
X141653404Y-141235333D01*
X142081976Y-141806761D02*
X141986738Y-141854380D01*
X141748642Y-141854380D01*
X141653404Y-141806761D01*
X141605785Y-141711523D01*
X141605785Y-141616285D01*
X141653404Y-141521047D01*
X141748642Y-141473428D01*
X141986738Y-141473428D01*
X142081976Y-141425809D01*
X142558166Y-141854380D02*
X142558166Y-141187714D01*
X142558166Y-141378190D02*
X142605785Y-141282952D01*
X142653404Y-141235333D01*
X142748642Y-141187714D01*
X142843880Y-141187714D01*
X143605785Y-141854380D02*
X143605785Y-140854380D01*
X143605785Y-141806761D02*
X143510547Y-141854380D01*
X143320071Y-141854380D01*
X143224833Y-141806761D01*
X143177214Y-141759142D01*
X143129595Y-141663904D01*
X143129595Y-141378190D01*
X143177214Y-141282952D01*
X143224833Y-141235333D01*
X143320071Y-141187714D01*
X143510547Y-141187714D01*
X143605785Y-141235333D01*
X143986738Y-141187714D02*
X144177214Y-141854380D01*
X144367690Y-141378190D01*
X144558166Y-141854380D01*
X144748642Y-141187714D01*
X145558166Y-141854380D02*
X145558166Y-141330571D01*
X145510547Y-141235333D01*
X145415309Y-141187714D01*
X145224833Y-141187714D01*
X145129595Y-141235333D01*
X145558166Y-141806761D02*
X145462928Y-141854380D01*
X145224833Y-141854380D01*
X145129595Y-141806761D01*
X145081976Y-141711523D01*
X145081976Y-141616285D01*
X145129595Y-141521047D01*
X145224833Y-141473428D01*
X145462928Y-141473428D01*
X145558166Y-141425809D01*
X146034357Y-141854380D02*
X146034357Y-141187714D01*
X146034357Y-141378190D02*
X146081976Y-141282952D01*
X146129595Y-141235333D01*
X146224833Y-141187714D01*
X146320071Y-141187714D01*
X147034357Y-141806761D02*
X146939119Y-141854380D01*
X146748642Y-141854380D01*
X146653404Y-141806761D01*
X146605785Y-141711523D01*
X146605785Y-141330571D01*
X146653404Y-141235333D01*
X146748642Y-141187714D01*
X146939119Y-141187714D01*
X147034357Y-141235333D01*
X147081976Y-141330571D01*
X147081976Y-141425809D01*
X146605785Y-141521047D01*
X148748642Y-141854380D02*
X148272452Y-141854380D01*
X148272452Y-140854380D01*
X149081976Y-141854380D02*
X149081976Y-141187714D01*
X149081976Y-140854380D02*
X149034357Y-140902000D01*
X149081976Y-140949619D01*
X149129595Y-140902000D01*
X149081976Y-140854380D01*
X149081976Y-140949619D01*
X149986738Y-141806761D02*
X149891500Y-141854380D01*
X149701023Y-141854380D01*
X149605785Y-141806761D01*
X149558166Y-141759142D01*
X149510547Y-141663904D01*
X149510547Y-141378190D01*
X149558166Y-141282952D01*
X149605785Y-141235333D01*
X149701023Y-141187714D01*
X149891500Y-141187714D01*
X149986738Y-141235333D01*
X150796261Y-141806761D02*
X150701023Y-141854380D01*
X150510547Y-141854380D01*
X150415309Y-141806761D01*
X150367690Y-141711523D01*
X150367690Y-141330571D01*
X150415309Y-141235333D01*
X150510547Y-141187714D01*
X150701023Y-141187714D01*
X150796261Y-141235333D01*
X150843880Y-141330571D01*
X150843880Y-141425809D01*
X150367690Y-141521047D01*
X151272452Y-141187714D02*
X151272452Y-141854380D01*
X151272452Y-141282952D02*
X151320071Y-141235333D01*
X151415309Y-141187714D01*
X151558166Y-141187714D01*
X151653404Y-141235333D01*
X151701023Y-141330571D01*
X151701023Y-141854380D01*
X152129595Y-141806761D02*
X152224833Y-141854380D01*
X152415309Y-141854380D01*
X152510547Y-141806761D01*
X152558166Y-141711523D01*
X152558166Y-141663904D01*
X152510547Y-141568666D01*
X152415309Y-141521047D01*
X152272452Y-141521047D01*
X152177214Y-141473428D01*
X152129595Y-141378190D01*
X152129595Y-141330571D01*
X152177214Y-141235333D01*
X152272452Y-141187714D01*
X152415309Y-141187714D01*
X152510547Y-141235333D01*
X153367690Y-141806761D02*
X153272452Y-141854380D01*
X153081976Y-141854380D01*
X152986738Y-141806761D01*
X152939119Y-141711523D01*
X152939119Y-141330571D01*
X152986738Y-141235333D01*
X153081976Y-141187714D01*
X153272452Y-141187714D01*
X153367690Y-141235333D01*
X153415309Y-141330571D01*
X153415309Y-141425809D01*
X152939119Y-141521047D01*
X136415309Y-143835333D02*
X136367690Y-143787714D01*
X136272452Y-143644857D01*
X136224833Y-143549619D01*
X136177214Y-143406761D01*
X136129595Y-143168666D01*
X136129595Y-142978190D01*
X136177214Y-142740095D01*
X136224833Y-142597238D01*
X136272452Y-142502000D01*
X136367690Y-142359142D01*
X136415309Y-142311523D01*
X136701023Y-142787714D02*
X136891500Y-143454380D01*
X137081976Y-142978190D01*
X137272452Y-143454380D01*
X137462928Y-142787714D01*
X137748642Y-142787714D02*
X137939119Y-143454380D01*
X138129595Y-142978190D01*
X138320071Y-143454380D01*
X138510547Y-142787714D01*
X138796261Y-142787714D02*
X138986738Y-143454380D01*
X139177214Y-142978190D01*
X139367690Y-143454380D01*
X139558166Y-142787714D01*
X139939119Y-143359142D02*
X139986738Y-143406761D01*
X139939119Y-143454380D01*
X139891500Y-143406761D01*
X139939119Y-143359142D01*
X139939119Y-143454380D01*
X140272452Y-142787714D02*
X140653404Y-142787714D01*
X140415309Y-142454380D02*
X140415309Y-143311523D01*
X140462928Y-143406761D01*
X140558166Y-143454380D01*
X140653404Y-143454380D01*
X141415309Y-143454380D02*
X141415309Y-142930571D01*
X141367690Y-142835333D01*
X141272452Y-142787714D01*
X141081976Y-142787714D01*
X140986738Y-142835333D01*
X141415309Y-143406761D02*
X141320071Y-143454380D01*
X141081976Y-143454380D01*
X140986738Y-143406761D01*
X140939119Y-143311523D01*
X140939119Y-143216285D01*
X140986738Y-143121047D01*
X141081976Y-143073428D01*
X141320071Y-143073428D01*
X141415309Y-143025809D01*
X141891500Y-142787714D02*
X141891500Y-143787714D01*
X141891500Y-142835333D02*
X141986738Y-142787714D01*
X142177214Y-142787714D01*
X142272452Y-142835333D01*
X142320071Y-142882952D01*
X142367690Y-142978190D01*
X142367690Y-143263904D01*
X142320071Y-143359142D01*
X142272452Y-143406761D01*
X142177214Y-143454380D01*
X141986738Y-143454380D01*
X141891500Y-143406761D01*
X142796261Y-143454380D02*
X142796261Y-142787714D01*
X142796261Y-142978190D02*
X142843880Y-142882952D01*
X142891500Y-142835333D01*
X142986738Y-142787714D01*
X143081976Y-142787714D01*
X143415309Y-143359142D02*
X143462928Y-143406761D01*
X143415309Y-143454380D01*
X143367690Y-143406761D01*
X143415309Y-143359142D01*
X143415309Y-143454380D01*
X144034357Y-143454380D02*
X143939119Y-143406761D01*
X143891500Y-143359142D01*
X143843880Y-143263904D01*
X143843880Y-142978190D01*
X143891500Y-142882952D01*
X143939119Y-142835333D01*
X144034357Y-142787714D01*
X144177214Y-142787714D01*
X144272452Y-142835333D01*
X144320071Y-142882952D01*
X144367690Y-142978190D01*
X144367690Y-143263904D01*
X144320071Y-143359142D01*
X144272452Y-143406761D01*
X144177214Y-143454380D01*
X144034357Y-143454380D01*
X144796261Y-143454380D02*
X144796261Y-142787714D01*
X144796261Y-142978190D02*
X144843880Y-142882952D01*
X144891500Y-142835333D01*
X144986738Y-142787714D01*
X145081976Y-142787714D01*
X145843880Y-142787714D02*
X145843880Y-143597238D01*
X145796261Y-143692476D01*
X145748642Y-143740095D01*
X145653404Y-143787714D01*
X145510547Y-143787714D01*
X145415309Y-143740095D01*
X145843880Y-143406761D02*
X145748642Y-143454380D01*
X145558166Y-143454380D01*
X145462928Y-143406761D01*
X145415309Y-143359142D01*
X145367690Y-143263904D01*
X145367690Y-142978190D01*
X145415309Y-142882952D01*
X145462928Y-142835333D01*
X145558166Y-142787714D01*
X145748642Y-142787714D01*
X145843880Y-142835333D01*
X147034357Y-142406761D02*
X146177214Y-143692476D01*
X147558166Y-142454380D02*
X147748642Y-142454380D01*
X147843880Y-142502000D01*
X147939119Y-142597238D01*
X147986738Y-142787714D01*
X147986738Y-143121047D01*
X147939119Y-143311523D01*
X147843880Y-143406761D01*
X147748642Y-143454380D01*
X147558166Y-143454380D01*
X147462928Y-143406761D01*
X147367690Y-143311523D01*
X147320071Y-143121047D01*
X147320071Y-142787714D01*
X147367690Y-142597238D01*
X147462928Y-142502000D01*
X147558166Y-142454380D01*
X148415309Y-143454380D02*
X148415309Y-142454380D01*
X148415309Y-142930571D02*
X148986738Y-142930571D01*
X148986738Y-143454380D02*
X148986738Y-142454380D01*
X149939119Y-143454380D02*
X149462928Y-143454380D01*
X149462928Y-142454380D01*
X150177214Y-143835333D02*
X150224833Y-143787714D01*
X150320071Y-143644857D01*
X150367690Y-143549619D01*
X150415309Y-143406761D01*
X150462928Y-143168666D01*
X150462928Y-142978190D01*
X150415309Y-142740095D01*
X150367690Y-142597238D01*
X150320071Y-142502000D01*
X150224833Y-142359142D01*
X150177214Y-142311523D01*
X136701023Y-144959142D02*
X136653404Y-145006761D01*
X136510547Y-145054380D01*
X136415309Y-145054380D01*
X136272452Y-145006761D01*
X136177214Y-144911523D01*
X136129595Y-144816285D01*
X136081976Y-144625809D01*
X136081976Y-144482952D01*
X136129595Y-144292476D01*
X136177214Y-144197238D01*
X136272452Y-144102000D01*
X136415309Y-144054380D01*
X136510547Y-144054380D01*
X136653404Y-144102000D01*
X136701023Y-144149619D01*
X137272452Y-145054380D02*
X137177214Y-145006761D01*
X137129595Y-144959142D01*
X137081976Y-144863904D01*
X137081976Y-144578190D01*
X137129595Y-144482952D01*
X137177214Y-144435333D01*
X137272452Y-144387714D01*
X137415309Y-144387714D01*
X137510547Y-144435333D01*
X137558166Y-144482952D01*
X137605785Y-144578190D01*
X137605785Y-144863904D01*
X137558166Y-144959142D01*
X137510547Y-145006761D01*
X137415309Y-145054380D01*
X137272452Y-145054380D01*
X138034357Y-144387714D02*
X138034357Y-145387714D01*
X138034357Y-144435333D02*
X138129595Y-144387714D01*
X138320071Y-144387714D01*
X138415309Y-144435333D01*
X138462928Y-144482952D01*
X138510547Y-144578190D01*
X138510547Y-144863904D01*
X138462928Y-144959142D01*
X138415309Y-145006761D01*
X138320071Y-145054380D01*
X138129595Y-145054380D01*
X138034357Y-145006761D01*
X138843880Y-144387714D02*
X139081976Y-145054380D01*
X139320071Y-144387714D02*
X139081976Y-145054380D01*
X138986738Y-145292476D01*
X138939119Y-145340095D01*
X138843880Y-145387714D01*
X139701023Y-145054380D02*
X139701023Y-144387714D01*
X139701023Y-144578190D02*
X139748642Y-144482952D01*
X139796261Y-144435333D01*
X139891500Y-144387714D01*
X139986738Y-144387714D01*
X140320071Y-145054380D02*
X140320071Y-144387714D01*
X140320071Y-144054380D02*
X140272452Y-144102000D01*
X140320071Y-144149619D01*
X140367690Y-144102000D01*
X140320071Y-144054380D01*
X140320071Y-144149619D01*
X141224833Y-144387714D02*
X141224833Y-145197238D01*
X141177214Y-145292476D01*
X141129595Y-145340095D01*
X141034357Y-145387714D01*
X140891500Y-145387714D01*
X140796261Y-145340095D01*
X141224833Y-145006761D02*
X141129595Y-145054380D01*
X140939119Y-145054380D01*
X140843880Y-145006761D01*
X140796261Y-144959142D01*
X140748642Y-144863904D01*
X140748642Y-144578190D01*
X140796261Y-144482952D01*
X140843880Y-144435333D01*
X140939119Y-144387714D01*
X141129595Y-144387714D01*
X141224833Y-144435333D01*
X141701023Y-145054380D02*
X141701023Y-144054380D01*
X142129595Y-145054380D02*
X142129595Y-144530571D01*
X142081976Y-144435333D01*
X141986738Y-144387714D01*
X141843880Y-144387714D01*
X141748642Y-144435333D01*
X141701023Y-144482952D01*
X142462928Y-144387714D02*
X142843880Y-144387714D01*
X142605785Y-144054380D02*
X142605785Y-144911523D01*
X142653404Y-145006761D01*
X142748642Y-145054380D01*
X142843880Y-145054380D01*
X144748642Y-144292476D02*
X144653404Y-144244857D01*
X144462928Y-144244857D01*
X144367690Y-144292476D01*
X144272452Y-144387714D01*
X144224833Y-144482952D01*
X144224833Y-144673428D01*
X144272452Y-144768666D01*
X144367690Y-144863904D01*
X144462928Y-144911523D01*
X144653404Y-144911523D01*
X144748642Y-144863904D01*
X144558166Y-143911523D02*
X144320071Y-143959142D01*
X144081976Y-144102000D01*
X143939119Y-144340095D01*
X143891500Y-144578190D01*
X143939119Y-144816285D01*
X144081976Y-145054380D01*
X144320071Y-145197238D01*
X144558166Y-145244857D01*
X144796261Y-145197238D01*
X145034357Y-145054380D01*
X145177214Y-144816285D01*
X145224833Y-144578190D01*
X145177214Y-144340095D01*
X145034357Y-144102000D01*
X144796261Y-143959142D01*
X144558166Y-143911523D01*
X146367690Y-144149619D02*
X146415309Y-144102000D01*
X146510547Y-144054380D01*
X146748642Y-144054380D01*
X146843880Y-144102000D01*
X146891500Y-144149619D01*
X146939119Y-144244857D01*
X146939119Y-144340095D01*
X146891500Y-144482952D01*
X146320071Y-145054380D01*
X146939119Y-145054380D01*
X147558166Y-144054380D02*
X147653404Y-144054380D01*
X147748642Y-144102000D01*
X147796261Y-144149619D01*
X147843880Y-144244857D01*
X147891500Y-144435333D01*
X147891500Y-144673428D01*
X147843880Y-144863904D01*
X147796261Y-144959142D01*
X147748642Y-145006761D01*
X147653404Y-145054380D01*
X147558166Y-145054380D01*
X147462928Y-145006761D01*
X147415309Y-144959142D01*
X147367690Y-144863904D01*
X147320071Y-144673428D01*
X147320071Y-144435333D01*
X147367690Y-144244857D01*
X147415309Y-144149619D01*
X147462928Y-144102000D01*
X147558166Y-144054380D01*
X148843880Y-145054380D02*
X148272452Y-145054380D01*
X148558166Y-145054380D02*
X148558166Y-144054380D01*
X148462928Y-144197238D01*
X148367690Y-144292476D01*
X148272452Y-144340095D01*
X149415309Y-144482952D02*
X149320071Y-144435333D01*
X149272452Y-144387714D01*
X149224833Y-144292476D01*
X149224833Y-144244857D01*
X149272452Y-144149619D01*
X149320071Y-144102000D01*
X149415309Y-144054380D01*
X149605785Y-144054380D01*
X149701023Y-144102000D01*
X149748642Y-144149619D01*
X149796261Y-144244857D01*
X149796261Y-144292476D01*
X149748642Y-144387714D01*
X149701023Y-144435333D01*
X149605785Y-144482952D01*
X149415309Y-144482952D01*
X149320071Y-144530571D01*
X149272452Y-144578190D01*
X149224833Y-144673428D01*
X149224833Y-144863904D01*
X149272452Y-144959142D01*
X149320071Y-145006761D01*
X149415309Y-145054380D01*
X149605785Y-145054380D01*
X149701023Y-145006761D01*
X149748642Y-144959142D01*
X149796261Y-144863904D01*
X149796261Y-144673428D01*
X149748642Y-144578190D01*
X149701023Y-144530571D01*
X149605785Y-144482952D01*
X136129595Y-146654380D02*
X136129595Y-145654380D01*
X136605785Y-145987714D02*
X136605785Y-146654380D01*
X136605785Y-146082952D02*
X136653404Y-146035333D01*
X136748642Y-145987714D01*
X136891500Y-145987714D01*
X136986738Y-146035333D01*
X137034357Y-146130571D01*
X137034357Y-146654380D01*
X137367690Y-145987714D02*
X137748642Y-145987714D01*
X137510547Y-146654380D02*
X137510547Y-145797238D01*
X137558166Y-145702000D01*
X137653404Y-145654380D01*
X137748642Y-145654380D01*
X138462928Y-146606761D02*
X138367690Y-146654380D01*
X138177214Y-146654380D01*
X138081976Y-146606761D01*
X138034357Y-146511523D01*
X138034357Y-146130571D01*
X138081976Y-146035333D01*
X138177214Y-145987714D01*
X138367690Y-145987714D01*
X138462928Y-146035333D01*
X138510547Y-146130571D01*
X138510547Y-146225809D01*
X138034357Y-146321047D01*
X138939119Y-146654380D02*
X138939119Y-145987714D01*
X138939119Y-146178190D02*
X138986738Y-146082952D01*
X139034357Y-146035333D01*
X139129595Y-145987714D01*
X139224833Y-145987714D01*
X139558166Y-145987714D02*
X139558166Y-146654380D01*
X139558166Y-146082952D02*
X139605785Y-146035333D01*
X139701023Y-145987714D01*
X139843880Y-145987714D01*
X139939119Y-146035333D01*
X139986738Y-146130571D01*
X139986738Y-146654380D01*
X140605785Y-146654380D02*
X140510547Y-146606761D01*
X140462928Y-146559142D01*
X140415309Y-146463904D01*
X140415309Y-146178190D01*
X140462928Y-146082952D01*
X140510547Y-146035333D01*
X140605785Y-145987714D01*
X140748642Y-145987714D01*
X140843880Y-146035333D01*
X140891500Y-146082952D01*
X140939119Y-146178190D01*
X140939119Y-146463904D01*
X140891500Y-146559142D01*
X140843880Y-146606761D01*
X140748642Y-146654380D01*
X140605785Y-146654380D01*
X142129595Y-146130571D02*
X142462928Y-146130571D01*
X142605785Y-146654380D02*
X142129595Y-146654380D01*
X142129595Y-145654380D01*
X142605785Y-145654380D01*
X143034357Y-146654380D02*
X143034357Y-145987714D01*
X143034357Y-146082952D02*
X143081976Y-146035333D01*
X143177214Y-145987714D01*
X143320071Y-145987714D01*
X143415309Y-146035333D01*
X143462928Y-146130571D01*
X143462928Y-146654380D01*
X143462928Y-146130571D02*
X143510547Y-146035333D01*
X143605785Y-145987714D01*
X143748642Y-145987714D01*
X143843880Y-146035333D01*
X143891500Y-146130571D01*
X143891500Y-146654380D01*
X144367690Y-146654380D02*
X144367690Y-145654380D01*
X144367690Y-146035333D02*
X144462928Y-145987714D01*
X144653404Y-145987714D01*
X144748642Y-146035333D01*
X144796261Y-146082952D01*
X144843880Y-146178190D01*
X144843880Y-146463904D01*
X144796261Y-146559142D01*
X144748642Y-146606761D01*
X144653404Y-146654380D01*
X144462928Y-146654380D01*
X144367690Y-146606761D01*
X145653404Y-146606761D02*
X145558166Y-146654380D01*
X145367690Y-146654380D01*
X145272452Y-146606761D01*
X145224833Y-146511523D01*
X145224833Y-146130571D01*
X145272452Y-146035333D01*
X145367690Y-145987714D01*
X145558166Y-145987714D01*
X145653404Y-146035333D01*
X145701023Y-146130571D01*
X145701023Y-146225809D01*
X145224833Y-146321047D01*
X146558166Y-146654380D02*
X146558166Y-145654380D01*
X146558166Y-146606761D02*
X146462928Y-146654380D01*
X146272452Y-146654380D01*
X146177214Y-146606761D01*
X146129595Y-146559142D01*
X146081976Y-146463904D01*
X146081976Y-146178190D01*
X146129595Y-146082952D01*
X146177214Y-146035333D01*
X146272452Y-145987714D01*
X146462928Y-145987714D01*
X146558166Y-146035333D01*
X147462928Y-146654380D02*
X147462928Y-145654380D01*
X147462928Y-146606761D02*
X147367690Y-146654380D01*
X147177214Y-146654380D01*
X147081976Y-146606761D01*
X147034357Y-146559142D01*
X146986738Y-146463904D01*
X146986738Y-146178190D01*
X147034357Y-146082952D01*
X147081976Y-146035333D01*
X147177214Y-145987714D01*
X147367690Y-145987714D01*
X147462928Y-146035333D01*
X148320071Y-146606761D02*
X148224833Y-146654380D01*
X148034357Y-146654380D01*
X147939119Y-146606761D01*
X147891500Y-146511523D01*
X147891500Y-146130571D01*
X147939119Y-146035333D01*
X148034357Y-145987714D01*
X148224833Y-145987714D01*
X148320071Y-146035333D01*
X148367690Y-146130571D01*
X148367690Y-146225809D01*
X147891500Y-146321047D01*
X149224833Y-146654380D02*
X149224833Y-145654380D01*
X149224833Y-146606761D02*
X149129595Y-146654380D01*
X148939119Y-146654380D01*
X148843880Y-146606761D01*
X148796261Y-146559142D01*
X148748642Y-146463904D01*
X148748642Y-146178190D01*
X148796261Y-146082952D01*
X148843880Y-146035333D01*
X148939119Y-145987714D01*
X149129595Y-145987714D01*
X149224833Y-146035333D01*
X215169761Y-137358380D02*
X214836428Y-136882190D01*
X214598333Y-137358380D02*
X214598333Y-136358380D01*
X214979285Y-136358380D01*
X215074523Y-136406000D01*
X215122142Y-136453619D01*
X215169761Y-136548857D01*
X215169761Y-136691714D01*
X215122142Y-136786952D01*
X215074523Y-136834571D01*
X214979285Y-136882190D01*
X214598333Y-136882190D01*
X215503095Y-137358380D02*
X216026904Y-136691714D01*
X215503095Y-136691714D02*
X216026904Y-137358380D01*
X214511023Y-139025380D02*
X215082452Y-139025380D01*
X214796738Y-140025380D02*
X214796738Y-139025380D01*
X215320547Y-140025380D02*
X215844357Y-139358714D01*
X215320547Y-139358714D02*
X215844357Y-140025380D01*
X215003142Y-133675500D02*
X214907904Y-133627880D01*
X214765047Y-133627880D01*
X214622190Y-133675500D01*
X214526952Y-133770738D01*
X214479333Y-133865976D01*
X214431714Y-134056452D01*
X214431714Y-134199309D01*
X214479333Y-134389785D01*
X214526952Y-134485023D01*
X214622190Y-134580261D01*
X214765047Y-134627880D01*
X214860285Y-134627880D01*
X215003142Y-134580261D01*
X215050761Y-134532642D01*
X215050761Y-134199309D01*
X214860285Y-134199309D01*
X215479333Y-133961214D02*
X215479333Y-134627880D01*
X215479333Y-134056452D02*
X215526952Y-134008833D01*
X215622190Y-133961214D01*
X215765047Y-133961214D01*
X215860285Y-134008833D01*
X215907904Y-134104071D01*
X215907904Y-134627880D01*
X216812666Y-134627880D02*
X216812666Y-133627880D01*
X216812666Y-134580261D02*
X216717428Y-134627880D01*
X216526952Y-134627880D01*
X216431714Y-134580261D01*
X216384095Y-134532642D01*
X216336476Y-134437404D01*
X216336476Y-134151690D01*
X216384095Y-134056452D01*
X216431714Y-134008833D01*
X216526952Y-133961214D01*
X216717428Y-133961214D01*
X216812666Y-134008833D01*
X214677809Y-141628880D02*
X215296857Y-141628880D01*
X214963523Y-142009833D01*
X215106380Y-142009833D01*
X215201619Y-142057452D01*
X215249238Y-142105071D01*
X215296857Y-142200309D01*
X215296857Y-142438404D01*
X215249238Y-142533642D01*
X215201619Y-142581261D01*
X215106380Y-142628880D01*
X214820666Y-142628880D01*
X214725428Y-142581261D01*
X214677809Y-142533642D01*
X215725428Y-142533642D02*
X215773047Y-142581261D01*
X215725428Y-142628880D01*
X215677809Y-142581261D01*
X215725428Y-142533642D01*
X215725428Y-142628880D01*
X216106380Y-141628880D02*
X216725428Y-141628880D01*
X216392095Y-142009833D01*
X216534952Y-142009833D01*
X216630190Y-142057452D01*
X216677809Y-142105071D01*
X216725428Y-142200309D01*
X216725428Y-142438404D01*
X216677809Y-142533642D01*
X216630190Y-142581261D01*
X216534952Y-142628880D01*
X216249238Y-142628880D01*
X216154000Y-142581261D01*
X216106380Y-142533642D01*
X217011142Y-141628880D02*
X217344476Y-142628880D01*
X217677809Y-141628880D01*
X168854380Y-125975857D02*
X167854380Y-125975857D01*
X168854380Y-125404428D01*
X167854380Y-125404428D01*
X168854380Y-124356809D02*
X168378190Y-124690142D01*
X168854380Y-124928238D02*
X167854380Y-124928238D01*
X167854380Y-124547285D01*
X167902000Y-124452047D01*
X167949619Y-124404428D01*
X168044857Y-124356809D01*
X168187714Y-124356809D01*
X168282952Y-124404428D01*
X168330571Y-124452047D01*
X168378190Y-124547285D01*
X168378190Y-124928238D01*
X168806761Y-123975857D02*
X168854380Y-123833000D01*
X168854380Y-123594904D01*
X168806761Y-123499666D01*
X168759142Y-123452047D01*
X168663904Y-123404428D01*
X168568666Y-123404428D01*
X168473428Y-123452047D01*
X168425809Y-123499666D01*
X168378190Y-123594904D01*
X168330571Y-123785380D01*
X168282952Y-123880619D01*
X168235333Y-123928238D01*
X168140095Y-123975857D01*
X168044857Y-123975857D01*
X167949619Y-123928238D01*
X167902000Y-123880619D01*
X167854380Y-123785380D01*
X167854380Y-123547285D01*
X167902000Y-123404428D01*
X167854380Y-123118714D02*
X167854380Y-122547285D01*
X168854380Y-122833000D02*
X167854380Y-122833000D01*
X161186761Y-126785404D02*
X161234380Y-126642547D01*
X161234380Y-126404452D01*
X161186761Y-126309214D01*
X161139142Y-126261595D01*
X161043904Y-126213976D01*
X160948666Y-126213976D01*
X160853428Y-126261595D01*
X160805809Y-126309214D01*
X160758190Y-126404452D01*
X160710571Y-126594928D01*
X160662952Y-126690166D01*
X160615333Y-126737785D01*
X160520095Y-126785404D01*
X160424857Y-126785404D01*
X160329619Y-126737785D01*
X160282000Y-126690166D01*
X160234380Y-126594928D01*
X160234380Y-126356833D01*
X160282000Y-126213976D01*
X160234380Y-125880642D02*
X161234380Y-125642547D01*
X160520095Y-125452071D01*
X161234380Y-125261595D01*
X160234380Y-125023500D01*
X161139142Y-124071119D02*
X161186761Y-124118738D01*
X161234380Y-124261595D01*
X161234380Y-124356833D01*
X161186761Y-124499690D01*
X161091523Y-124594928D01*
X160996285Y-124642547D01*
X160805809Y-124690166D01*
X160662952Y-124690166D01*
X160472476Y-124642547D01*
X160377238Y-124594928D01*
X160282000Y-124499690D01*
X160234380Y-124356833D01*
X160234380Y-124261595D01*
X160282000Y-124118738D01*
X160329619Y-124071119D01*
X161234380Y-123166357D02*
X161234380Y-123642547D01*
X160234380Y-123642547D01*
X161234380Y-122833023D02*
X160234380Y-122833023D01*
X161234380Y-122261595D02*
X160662952Y-122690166D01*
X160234380Y-122261595D02*
X160805809Y-122833023D01*
X158646761Y-126626666D02*
X158694380Y-126483809D01*
X158694380Y-126245714D01*
X158646761Y-126150476D01*
X158599142Y-126102857D01*
X158503904Y-126055238D01*
X158408666Y-126055238D01*
X158313428Y-126102857D01*
X158265809Y-126150476D01*
X158218190Y-126245714D01*
X158170571Y-126436190D01*
X158122952Y-126531428D01*
X158075333Y-126579047D01*
X157980095Y-126626666D01*
X157884857Y-126626666D01*
X157789619Y-126579047D01*
X157742000Y-126531428D01*
X157694380Y-126436190D01*
X157694380Y-126198095D01*
X157742000Y-126055238D01*
X157694380Y-125721904D02*
X158694380Y-125483809D01*
X157980095Y-125293333D01*
X158694380Y-125102857D01*
X157694380Y-124864761D01*
X158694380Y-124483809D02*
X157694380Y-124483809D01*
X157694380Y-124245714D01*
X157742000Y-124102857D01*
X157837238Y-124007619D01*
X157932476Y-123960000D01*
X158122952Y-123912380D01*
X158265809Y-123912380D01*
X158456285Y-123960000D01*
X158551523Y-124007619D01*
X158646761Y-124102857D01*
X158694380Y-124245714D01*
X158694380Y-124483809D01*
X158408666Y-123531428D02*
X158408666Y-123055238D01*
X158694380Y-123626666D02*
X157694380Y-123293333D01*
X158694380Y-122960000D01*
X157694380Y-122769523D02*
X157694380Y-122198095D01*
X158694380Y-122483809D02*
X157694380Y-122483809D01*
X167965500Y-140723857D02*
X167917880Y-140819095D01*
X167917880Y-140961952D01*
X167965500Y-141104809D01*
X168060738Y-141200047D01*
X168155976Y-141247666D01*
X168346452Y-141295285D01*
X168489309Y-141295285D01*
X168679785Y-141247666D01*
X168775023Y-141200047D01*
X168870261Y-141104809D01*
X168917880Y-140961952D01*
X168917880Y-140866714D01*
X168870261Y-140723857D01*
X168822642Y-140676238D01*
X168489309Y-140676238D01*
X168489309Y-140866714D01*
X168251214Y-140247666D02*
X168917880Y-140247666D01*
X168346452Y-140247666D02*
X168298833Y-140200047D01*
X168251214Y-140104809D01*
X168251214Y-139961952D01*
X168298833Y-139866714D01*
X168394071Y-139819095D01*
X168917880Y-139819095D01*
X168917880Y-138914333D02*
X167917880Y-138914333D01*
X168870261Y-138914333D02*
X168917880Y-139009571D01*
X168917880Y-139200047D01*
X168870261Y-139295285D01*
X168822642Y-139342904D01*
X168727404Y-139390523D01*
X168441690Y-139390523D01*
X168346452Y-139342904D01*
X168298833Y-139295285D01*
X168251214Y-139200047D01*
X168251214Y-139009571D01*
X168298833Y-138914333D01*
X162822000Y-140723857D02*
X162774380Y-140819095D01*
X162774380Y-140961952D01*
X162822000Y-141104809D01*
X162917238Y-141200047D01*
X163012476Y-141247666D01*
X163202952Y-141295285D01*
X163345809Y-141295285D01*
X163536285Y-141247666D01*
X163631523Y-141200047D01*
X163726761Y-141104809D01*
X163774380Y-140961952D01*
X163774380Y-140866714D01*
X163726761Y-140723857D01*
X163679142Y-140676238D01*
X163345809Y-140676238D01*
X163345809Y-140866714D01*
X163107714Y-140247666D02*
X163774380Y-140247666D01*
X163202952Y-140247666D02*
X163155333Y-140200047D01*
X163107714Y-140104809D01*
X163107714Y-139961952D01*
X163155333Y-139866714D01*
X163250571Y-139819095D01*
X163774380Y-139819095D01*
X163774380Y-138914333D02*
X162774380Y-138914333D01*
X163726761Y-138914333D02*
X163774380Y-139009571D01*
X163774380Y-139200047D01*
X163726761Y-139295285D01*
X163679142Y-139342904D01*
X163583904Y-139390523D01*
X163298190Y-139390523D01*
X163202952Y-139342904D01*
X163155333Y-139295285D01*
X163107714Y-139200047D01*
X163107714Y-139009571D01*
X163155333Y-138914333D01*
X160345500Y-140723857D02*
X160297880Y-140819095D01*
X160297880Y-140961952D01*
X160345500Y-141104809D01*
X160440738Y-141200047D01*
X160535976Y-141247666D01*
X160726452Y-141295285D01*
X160869309Y-141295285D01*
X161059785Y-141247666D01*
X161155023Y-141200047D01*
X161250261Y-141104809D01*
X161297880Y-140961952D01*
X161297880Y-140866714D01*
X161250261Y-140723857D01*
X161202642Y-140676238D01*
X160869309Y-140676238D01*
X160869309Y-140866714D01*
X160631214Y-140247666D02*
X161297880Y-140247666D01*
X160726452Y-140247666D02*
X160678833Y-140200047D01*
X160631214Y-140104809D01*
X160631214Y-139961952D01*
X160678833Y-139866714D01*
X160774071Y-139819095D01*
X161297880Y-139819095D01*
X161297880Y-138914333D02*
X160297880Y-138914333D01*
X161250261Y-138914333D02*
X161297880Y-139009571D01*
X161297880Y-139200047D01*
X161250261Y-139295285D01*
X161202642Y-139342904D01*
X161107404Y-139390523D01*
X160821690Y-139390523D01*
X160726452Y-139342904D01*
X160678833Y-139295285D01*
X160631214Y-139200047D01*
X160631214Y-139009571D01*
X160678833Y-138914333D01*
X157884880Y-141811190D02*
X157884880Y-141192142D01*
X158265833Y-141525476D01*
X158265833Y-141382619D01*
X158313452Y-141287380D01*
X158361071Y-141239761D01*
X158456309Y-141192142D01*
X158694404Y-141192142D01*
X158789642Y-141239761D01*
X158837261Y-141287380D01*
X158884880Y-141382619D01*
X158884880Y-141668333D01*
X158837261Y-141763571D01*
X158789642Y-141811190D01*
X158789642Y-140763571D02*
X158837261Y-140715952D01*
X158884880Y-140763571D01*
X158837261Y-140811190D01*
X158789642Y-140763571D01*
X158884880Y-140763571D01*
X157884880Y-140382619D02*
X157884880Y-139763571D01*
X158265833Y-140096904D01*
X158265833Y-139954047D01*
X158313452Y-139858809D01*
X158361071Y-139811190D01*
X158456309Y-139763571D01*
X158694404Y-139763571D01*
X158789642Y-139811190D01*
X158837261Y-139858809D01*
X158884880Y-139954047D01*
X158884880Y-140239761D01*
X158837261Y-140335000D01*
X158789642Y-140382619D01*
X157884880Y-139477857D02*
X158884880Y-139144523D01*
X157884880Y-138811190D01*
D11*
X148360214Y-71544642D02*
X149503071Y-71544642D01*
X153645928Y-71544642D02*
X154788785Y-71544642D01*
X154217357Y-72116071D02*
X154217357Y-70973214D01*
X190274785Y-70997071D02*
X190631928Y-72497071D01*
X190917642Y-71425642D01*
X191203357Y-72497071D01*
X191560500Y-70997071D01*
X196060500Y-71711357D02*
X196274785Y-71782785D01*
X196346214Y-71854214D01*
X196417642Y-71997071D01*
X196417642Y-72211357D01*
X196346214Y-72354214D01*
X196274785Y-72425642D01*
X196131928Y-72497071D01*
X195560500Y-72497071D01*
X195560500Y-70997071D01*
X196060500Y-70997071D01*
X196203357Y-71068500D01*
X196274785Y-71139928D01*
X196346214Y-71282785D01*
X196346214Y-71425642D01*
X196274785Y-71568500D01*
X196203357Y-71639928D01*
X196060500Y-71711357D01*
X195560500Y-71711357D01*
X201346214Y-72497071D02*
X200846214Y-71782785D01*
X200489071Y-72497071D02*
X200489071Y-70997071D01*
X201060500Y-70997071D01*
X201203357Y-71068500D01*
X201274785Y-71139928D01*
X201346214Y-71282785D01*
X201346214Y-71497071D01*
X201274785Y-71639928D01*
X201203357Y-71711357D01*
X201060500Y-71782785D01*
X200489071Y-71782785D01*
X206203357Y-71068500D02*
X206060500Y-70997071D01*
X205846214Y-70997071D01*
X205631928Y-71068500D01*
X205489071Y-71211357D01*
X205417642Y-71354214D01*
X205346214Y-71639928D01*
X205346214Y-71854214D01*
X205417642Y-72139928D01*
X205489071Y-72282785D01*
X205631928Y-72425642D01*
X205846214Y-72497071D01*
X205989071Y-72497071D01*
X206203357Y-72425642D01*
X206274785Y-72354214D01*
X206274785Y-71854214D01*
X205989071Y-71854214D01*
X220467928Y-93119785D02*
X218967928Y-93476928D01*
X220039357Y-93762642D01*
X218967928Y-94048357D01*
X220467928Y-94405500D01*
X219753642Y-98905500D02*
X219682214Y-99119785D01*
X219610785Y-99191214D01*
X219467928Y-99262642D01*
X219253642Y-99262642D01*
X219110785Y-99191214D01*
X219039357Y-99119785D01*
X218967928Y-98976928D01*
X218967928Y-98405500D01*
X220467928Y-98405500D01*
X220467928Y-98905500D01*
X220396500Y-99048357D01*
X220325071Y-99119785D01*
X220182214Y-99191214D01*
X220039357Y-99191214D01*
X219896500Y-99119785D01*
X219825071Y-99048357D01*
X219753642Y-98905500D01*
X219753642Y-98405500D01*
X218967928Y-104191214D02*
X219682214Y-103691214D01*
X218967928Y-103334071D02*
X220467928Y-103334071D01*
X220467928Y-103905500D01*
X220396500Y-104048357D01*
X220325071Y-104119785D01*
X220182214Y-104191214D01*
X219967928Y-104191214D01*
X219825071Y-104119785D01*
X219753642Y-104048357D01*
X219682214Y-103905500D01*
X219682214Y-103334071D01*
X220396500Y-109048357D02*
X220467928Y-108905500D01*
X220467928Y-108691214D01*
X220396500Y-108476928D01*
X220253642Y-108334071D01*
X220110785Y-108262642D01*
X219825071Y-108191214D01*
X219610785Y-108191214D01*
X219325071Y-108262642D01*
X219182214Y-108334071D01*
X219039357Y-108476928D01*
X218967928Y-108691214D01*
X218967928Y-108834071D01*
X219039357Y-109048357D01*
X219110785Y-109119785D01*
X219610785Y-109119785D01*
X219610785Y-108834071D01*
X219539357Y-110260142D02*
X219539357Y-111403000D01*
X218967928Y-110831571D02*
X220110785Y-110831571D01*
X219967928Y-112760142D02*
X218967928Y-112760142D01*
X220539357Y-112403000D02*
X219467928Y-112045857D01*
X219467928Y-112974428D01*
X219825071Y-113760142D02*
X219896500Y-113617285D01*
X219967928Y-113545857D01*
X220110785Y-113474428D01*
X220182214Y-113474428D01*
X220325071Y-113545857D01*
X220396500Y-113617285D01*
X220467928Y-113760142D01*
X220467928Y-114045857D01*
X220396500Y-114188714D01*
X220325071Y-114260142D01*
X220182214Y-114331571D01*
X220110785Y-114331571D01*
X219967928Y-114260142D01*
X219896500Y-114188714D01*
X219825071Y-114045857D01*
X219825071Y-113760142D01*
X219753642Y-113617285D01*
X219682214Y-113545857D01*
X219539357Y-113474428D01*
X219253642Y-113474428D01*
X219110785Y-113545857D01*
X219039357Y-113617285D01*
X218967928Y-113760142D01*
X218967928Y-114045857D01*
X219039357Y-114188714D01*
X219110785Y-114260142D01*
X219253642Y-114331571D01*
X219539357Y-114331571D01*
X219682214Y-114260142D01*
X219753642Y-114188714D01*
X219825071Y-114045857D01*
X220467928Y-114760142D02*
X218967928Y-115260142D01*
X220467928Y-115760142D01*
X207415142Y-71925642D02*
X208558000Y-71925642D01*
X207986571Y-72497071D02*
X207986571Y-71354214D01*
X209915142Y-71497071D02*
X209915142Y-72497071D01*
X209558000Y-70925642D02*
X209200857Y-71997071D01*
X210129428Y-71997071D01*
X210915142Y-71639928D02*
X210772285Y-71568500D01*
X210700857Y-71497071D01*
X210629428Y-71354214D01*
X210629428Y-71282785D01*
X210700857Y-71139928D01*
X210772285Y-71068500D01*
X210915142Y-70997071D01*
X211200857Y-70997071D01*
X211343714Y-71068500D01*
X211415142Y-71139928D01*
X211486571Y-71282785D01*
X211486571Y-71354214D01*
X211415142Y-71497071D01*
X211343714Y-71568500D01*
X211200857Y-71639928D01*
X210915142Y-71639928D01*
X210772285Y-71711357D01*
X210700857Y-71782785D01*
X210629428Y-71925642D01*
X210629428Y-72211357D01*
X210700857Y-72354214D01*
X210772285Y-72425642D01*
X210915142Y-72497071D01*
X211200857Y-72497071D01*
X211343714Y-72425642D01*
X211415142Y-72354214D01*
X211486571Y-72211357D01*
X211486571Y-71925642D01*
X211415142Y-71782785D01*
X211343714Y-71711357D01*
X211200857Y-71639928D01*
X211915142Y-70997071D02*
X212415142Y-72497071D01*
X212915142Y-70997071D01*
D10*
%TO.C,U2*%
X175165000Y-109315000D02*
X176165000Y-109315000D01*
X175165000Y-98965000D02*
X176240000Y-98965000D01*
X185515000Y-98965000D02*
X184440000Y-98965000D01*
X185515000Y-109315000D02*
X184440000Y-109315000D01*
X175165000Y-109315000D02*
X175165000Y-108240000D01*
X185515000Y-109315000D02*
X185515000Y-108240000D01*
X185515000Y-98965000D02*
X185515000Y-100040000D01*
X175165000Y-98965000D02*
X175165000Y-100040000D01*
X176165000Y-109315000D02*
X176165000Y-110340000D01*
%TO.C,P1*%
X157208000Y-135278000D02*
X157208000Y-137703000D01*
X167068000Y-135028000D02*
X167068000Y-130528000D01*
X167322000Y-135278000D02*
X167068000Y-135024000D01*
X167068000Y-135024000D02*
X166814000Y-135278000D01*
X166814000Y-135278000D02*
X166687000Y-135278000D01*
X167449000Y-135278000D02*
X167322000Y-135278000D01*
X166814000Y-130278000D02*
X167068000Y-130532000D01*
X167322000Y-130278000D02*
X167449000Y-130278000D01*
X167068000Y-130532000D02*
X167322000Y-130278000D01*
X166687000Y-130278000D02*
X166814000Y-130278000D01*
X159448000Y-135028000D02*
X159448000Y-130528000D01*
X169608000Y-130278000D02*
X169328000Y-130278000D01*
X169608000Y-130278000D02*
X169608000Y-135278000D01*
X169608000Y-135278000D02*
X169328000Y-135278000D01*
X156908000Y-135278000D02*
X157188000Y-135278000D01*
X156908000Y-130278000D02*
X156908000Y-135278000D01*
X159067000Y-130278000D02*
X159194000Y-130278000D01*
X159194000Y-130278000D02*
X159448000Y-130532000D01*
X159448000Y-130532000D02*
X159702000Y-130278000D01*
X159702000Y-130278000D02*
X159829000Y-130278000D01*
X156908000Y-130278000D02*
X157188000Y-130278000D01*
X161607000Y-130278000D02*
X161734000Y-130278000D01*
X164147000Y-130278000D02*
X164274000Y-130278000D01*
X159829000Y-135278000D02*
X159702000Y-135278000D01*
X161988000Y-130532000D02*
X162242000Y-130278000D01*
X164528000Y-130532000D02*
X164782000Y-130278000D01*
X159448000Y-135024000D02*
X159194000Y-135278000D01*
X162242000Y-130278000D02*
X162369000Y-130278000D01*
X164782000Y-130278000D02*
X164909000Y-130278000D01*
X159194000Y-135278000D02*
X159067000Y-135278000D01*
X161734000Y-130278000D02*
X161988000Y-130532000D01*
X164274000Y-130278000D02*
X164528000Y-130532000D01*
X159702000Y-135278000D02*
X159448000Y-135024000D01*
X162369000Y-135278000D02*
X162242000Y-135278000D01*
X164909000Y-135278000D02*
X164782000Y-135278000D01*
X161734000Y-135278000D02*
X161607000Y-135278000D01*
X164274000Y-135278000D02*
X164147000Y-135278000D01*
X161988000Y-135024000D02*
X161734000Y-135278000D01*
X164528000Y-135024000D02*
X164274000Y-135278000D01*
X162242000Y-135278000D02*
X161988000Y-135024000D01*
X164782000Y-135278000D02*
X164528000Y-135024000D01*
X161988000Y-135028000D02*
X161988000Y-130528000D01*
X164528000Y-135028000D02*
X164528000Y-130528000D01*
D12*
%TO.C,J2*%
X160961071Y-162804479D02*
X146396625Y-162804479D01*
X146396625Y-162804479D02*
X146396625Y-149512552D01*
X146396625Y-149512552D02*
X160961071Y-149512552D01*
X160961071Y-149512552D02*
X160961071Y-162804479D01*
X162132916Y-160511525D02*
X161024186Y-160511525D01*
X161024186Y-160511525D02*
X161024186Y-152649620D01*
X161024186Y-152649620D02*
X162132916Y-152649620D01*
X162132916Y-152649620D02*
X162132916Y-160511525D01*
X146308312Y-160511302D02*
X145199582Y-160511302D01*
X145199582Y-160511302D02*
X145199582Y-152649397D01*
X145199582Y-152649397D02*
X146308312Y-152649397D01*
X146308312Y-152649397D02*
X146308312Y-160511302D01*
D10*
%TO.C,CON1*%
X129730500Y-78811120D02*
X129730500Y-87812880D01*
X126230380Y-78811120D02*
X126230380Y-87812880D01*
X126230380Y-87812880D02*
X140731240Y-87812880D01*
X140731240Y-87812880D02*
X140731240Y-78811120D01*
X140731240Y-78811120D02*
X126230380Y-78811120D01*
%TO.C,C1*%
X179261000Y-126175000D02*
X179261000Y-128803900D01*
X179261000Y-134557000D02*
X179261000Y-131928100D01*
X187643000Y-133795000D02*
X187643000Y-131928100D01*
X187643000Y-126937000D02*
X187643000Y-128803900D01*
X187058800Y-128803900D02*
G75*
G03X179845200Y-128803900I-3606800J-1562100D01*
G01*
X179845200Y-131928100D02*
G75*
G03X187058800Y-131928100I3606800J1562100D01*
G01*
X179261000Y-126175000D02*
X186881000Y-126175000D01*
X186881000Y-126175000D02*
X187643000Y-126937000D01*
X187643000Y-133795000D02*
X186881000Y-134557000D01*
X186881000Y-134557000D02*
X179261000Y-134557000D01*
%TO.C,C2*%
X183103000Y-115852000D02*
X182403000Y-115852000D01*
X182403000Y-114652000D02*
X183103000Y-114652000D01*
%TO.C,C3*%
X183103000Y-114328000D02*
X182403000Y-114328000D01*
X182403000Y-113128000D02*
X183103000Y-113128000D01*
%TO.C,C4*%
X190719000Y-100170000D02*
X190719000Y-100870000D01*
X189519000Y-100870000D02*
X189519000Y-100170000D01*
%TO.C,C5*%
X170914000Y-108490000D02*
X170914000Y-107790000D01*
X172114000Y-107790000D02*
X172114000Y-108490000D01*
D12*
%TO.C,J1*%
X181281071Y-162804479D02*
X166716625Y-162804479D01*
X166716625Y-162804479D02*
X166716625Y-149512552D01*
X166716625Y-149512552D02*
X181281071Y-149512552D01*
X181281071Y-149512552D02*
X181281071Y-162804479D01*
X182452916Y-160511525D02*
X181344186Y-160511525D01*
X181344186Y-160511525D02*
X181344186Y-152649620D01*
X181344186Y-152649620D02*
X182452916Y-152649620D01*
X182452916Y-152649620D02*
X182452916Y-160511525D01*
X166628312Y-160511302D02*
X165519582Y-160511302D01*
X165519582Y-160511302D02*
X165519582Y-152649397D01*
X165519582Y-152649397D02*
X166628312Y-152649397D01*
X166628312Y-152649397D02*
X166628312Y-160511302D01*
D10*
%TO.C,P3*%
X187960000Y-65071000D02*
X187960000Y-57571000D01*
X187960000Y-57571000D02*
X213360000Y-57571000D01*
X213360000Y-57571000D02*
X213360000Y-65071000D01*
X187960000Y-72771000D02*
X213360000Y-72771000D01*
X213360000Y-72771000D02*
X213360000Y-65071000D01*
X213360000Y-65071000D02*
X187960000Y-65071000D01*
X187960000Y-65071000D02*
X187960000Y-72771000D01*
%TO.C,P4*%
X146812000Y-65071000D02*
X146812000Y-57571000D01*
X146812000Y-57571000D02*
X156972000Y-57571000D01*
X156972000Y-57571000D02*
X156972000Y-65071000D01*
X146812000Y-72771000D02*
X156972000Y-72771000D01*
X156972000Y-72771000D02*
X156972000Y-65071000D01*
X156972000Y-65071000D02*
X146812000Y-65071000D01*
X146812000Y-65071000D02*
X146812000Y-72771000D01*
%TO.C,P5*%
X160782000Y-65071000D02*
X160782000Y-57571000D01*
X160782000Y-57571000D02*
X186182000Y-57571000D01*
X186182000Y-57571000D02*
X186182000Y-65071000D01*
X160782000Y-72771000D02*
X186182000Y-72771000D01*
X186182000Y-72771000D02*
X186182000Y-65071000D01*
X186182000Y-65071000D02*
X160782000Y-65071000D01*
X160782000Y-65071000D02*
X160782000Y-72771000D01*
%TO.C,P2*%
X226140000Y-91440000D02*
X233640000Y-91440000D01*
X233640000Y-91440000D02*
X233640000Y-116840000D01*
X233640000Y-116840000D02*
X226140000Y-116840000D01*
X218440000Y-91440000D02*
X218440000Y-116840000D01*
X218440000Y-116840000D02*
X226140000Y-116840000D01*
X226140000Y-116840000D02*
X226140000Y-91440000D01*
X226140000Y-91440000D02*
X218440000Y-91440000D01*
D14*
%TO.C,P6*%
X213353000Y-143320000D02*
X213353000Y-133040000D01*
X213353000Y-133040000D02*
X210573000Y-133040000D01*
X210573000Y-133040000D02*
X210573000Y-143320000D01*
X210573000Y-143320000D02*
X213353000Y-143320000D01*
X213353000Y-144590000D02*
X213353000Y-145980000D01*
X213353000Y-145980000D02*
X211963000Y-145980000D01*
D10*
%TO.C,P7*%
X132000000Y-116840000D02*
X124500000Y-116840000D01*
X124500000Y-116840000D02*
X124500000Y-91440000D01*
X124500000Y-91440000D02*
X132000000Y-91440000D01*
X139700000Y-116840000D02*
X139700000Y-91440000D01*
X139700000Y-91440000D02*
X132000000Y-91440000D01*
X132000000Y-91440000D02*
X132000000Y-116840000D01*
X132000000Y-116840000D02*
X139700000Y-116840000D01*
D14*
%TO.C,R1*%
X171446000Y-125812000D02*
X172446000Y-125812000D01*
X172446000Y-127172000D02*
X171446000Y-127172000D01*
%TO.C,U1*%
X194307000Y-129866000D02*
X194307000Y-129516000D01*
X194307000Y-129516000D02*
X195807000Y-129516000D01*
X194307000Y-134516000D02*
X194307000Y-131316000D01*
X195807000Y-136316000D02*
X194307000Y-136316000D01*
X194307000Y-136316000D02*
X194307000Y-135916000D01*
D15*
%TO.C,J3*%
X190540000Y-160740000D02*
X190540000Y-163240000D01*
X190540000Y-163240000D02*
X195540000Y-163240000D01*
X195540000Y-160740000D02*
X195540000Y-163240000D01*
X190040000Y-149140000D02*
X190040000Y-160740000D01*
X190040000Y-149140000D02*
X196040000Y-149140000D01*
X196040000Y-149140000D02*
X196040000Y-160740000D01*
X190040000Y-160740000D02*
X196040000Y-160740000D01*
%TO.C,U2*%
D10*
X172592380Y-104901904D02*
X173401904Y-104901904D01*
X173497142Y-104854285D01*
X173544761Y-104806666D01*
X173592380Y-104711428D01*
X173592380Y-104520952D01*
X173544761Y-104425714D01*
X173497142Y-104378095D01*
X173401904Y-104330476D01*
X172592380Y-104330476D01*
X172687619Y-103901904D02*
X172640000Y-103854285D01*
X172592380Y-103759047D01*
X172592380Y-103520952D01*
X172640000Y-103425714D01*
X172687619Y-103378095D01*
X172782857Y-103330476D01*
X172878095Y-103330476D01*
X173020952Y-103378095D01*
X173592380Y-103949523D01*
X173592380Y-103330476D01*
D12*
X176320952Y-103955809D02*
X176435238Y-103993904D01*
X176625714Y-103993904D01*
X176701904Y-103955809D01*
X176740000Y-103917714D01*
X176778095Y-103841523D01*
X176778095Y-103765333D01*
X176740000Y-103689142D01*
X176701904Y-103651047D01*
X176625714Y-103612952D01*
X176473333Y-103574857D01*
X176397142Y-103536761D01*
X176359047Y-103498666D01*
X176320952Y-103422476D01*
X176320952Y-103346285D01*
X176359047Y-103270095D01*
X176397142Y-103232000D01*
X176473333Y-103193904D01*
X176663809Y-103193904D01*
X176778095Y-103232000D01*
X177006666Y-103193904D02*
X177463809Y-103193904D01*
X177235238Y-103993904D02*
X177235238Y-103193904D01*
X177730476Y-103993904D02*
X177730476Y-103193904D01*
X177997142Y-103765333D01*
X178263809Y-103193904D01*
X178263809Y-103993904D01*
X178568571Y-103193904D02*
X179063809Y-103193904D01*
X178797142Y-103498666D01*
X178911428Y-103498666D01*
X178987619Y-103536761D01*
X179025714Y-103574857D01*
X179063809Y-103651047D01*
X179063809Y-103841523D01*
X179025714Y-103917714D01*
X178987619Y-103955809D01*
X178911428Y-103993904D01*
X178682857Y-103993904D01*
X178606666Y-103955809D01*
X178568571Y-103917714D01*
X179368571Y-103270095D02*
X179406666Y-103232000D01*
X179482857Y-103193904D01*
X179673333Y-103193904D01*
X179749523Y-103232000D01*
X179787619Y-103270095D01*
X179825714Y-103346285D01*
X179825714Y-103422476D01*
X179787619Y-103536761D01*
X179330476Y-103993904D01*
X179825714Y-103993904D01*
X180435238Y-103574857D02*
X180168571Y-103574857D01*
X180168571Y-103993904D02*
X180168571Y-103193904D01*
X180549523Y-103193904D01*
X181006666Y-103193904D02*
X181082857Y-103193904D01*
X181159047Y-103232000D01*
X181197142Y-103270095D01*
X181235238Y-103346285D01*
X181273333Y-103498666D01*
X181273333Y-103689142D01*
X181235238Y-103841523D01*
X181197142Y-103917714D01*
X181159047Y-103955809D01*
X181082857Y-103993904D01*
X181006666Y-103993904D01*
X180930476Y-103955809D01*
X180892380Y-103917714D01*
X180854285Y-103841523D01*
X180816190Y-103689142D01*
X180816190Y-103498666D01*
X180854285Y-103346285D01*
X180892380Y-103270095D01*
X180930476Y-103232000D01*
X181006666Y-103193904D01*
X181540000Y-103193904D02*
X182035238Y-103193904D01*
X181768571Y-103498666D01*
X181882857Y-103498666D01*
X181959047Y-103536761D01*
X181997142Y-103574857D01*
X182035238Y-103651047D01*
X182035238Y-103841523D01*
X181997142Y-103917714D01*
X181959047Y-103955809D01*
X181882857Y-103993904D01*
X181654285Y-103993904D01*
X181578095Y-103955809D01*
X181540000Y-103917714D01*
X182530476Y-103193904D02*
X182606666Y-103193904D01*
X182682857Y-103232000D01*
X182720952Y-103270095D01*
X182759047Y-103346285D01*
X182797142Y-103498666D01*
X182797142Y-103689142D01*
X182759047Y-103841523D01*
X182720952Y-103917714D01*
X182682857Y-103955809D01*
X182606666Y-103993904D01*
X182530476Y-103993904D01*
X182454285Y-103955809D01*
X182416190Y-103917714D01*
X182378095Y-103841523D01*
X182340000Y-103689142D01*
X182340000Y-103498666D01*
X182378095Y-103346285D01*
X182416190Y-103270095D01*
X182454285Y-103232000D01*
X182530476Y-103193904D01*
X183597142Y-103993904D02*
X183330476Y-103612952D01*
X183140000Y-103993904D02*
X183140000Y-103193904D01*
X183444761Y-103193904D01*
X183520952Y-103232000D01*
X183559047Y-103270095D01*
X183597142Y-103346285D01*
X183597142Y-103460571D01*
X183559047Y-103536761D01*
X183520952Y-103574857D01*
X183444761Y-103612952D01*
X183140000Y-103612952D01*
X184054285Y-103536761D02*
X183978095Y-103498666D01*
X183940000Y-103460571D01*
X183901904Y-103384380D01*
X183901904Y-103346285D01*
X183940000Y-103270095D01*
X183978095Y-103232000D01*
X184054285Y-103193904D01*
X184206666Y-103193904D01*
X184282857Y-103232000D01*
X184320952Y-103270095D01*
X184359047Y-103346285D01*
X184359047Y-103384380D01*
X184320952Y-103460571D01*
X184282857Y-103498666D01*
X184206666Y-103536761D01*
X184054285Y-103536761D01*
X183978095Y-103574857D01*
X183940000Y-103612952D01*
X183901904Y-103689142D01*
X183901904Y-103841523D01*
X183940000Y-103917714D01*
X183978095Y-103955809D01*
X184054285Y-103993904D01*
X184206666Y-103993904D01*
X184282857Y-103955809D01*
X184320952Y-103917714D01*
X184359047Y-103841523D01*
X184359047Y-103689142D01*
X184320952Y-103612952D01*
X184282857Y-103574857D01*
X184206666Y-103536761D01*
%TO.C,Q4*%
D16*
X199405229Y-88259279D02*
X199381420Y-88306898D01*
X199333800Y-88354517D01*
X199262372Y-88425945D01*
X199238562Y-88473564D01*
X199238562Y-88521183D01*
X199357610Y-88497374D02*
X199333800Y-88544993D01*
X199286181Y-88592612D01*
X199190943Y-88616421D01*
X199024277Y-88616421D01*
X198929039Y-88592612D01*
X198881420Y-88544993D01*
X198857610Y-88497374D01*
X198857610Y-88402136D01*
X198881420Y-88354517D01*
X198929039Y-88306898D01*
X199024277Y-88283088D01*
X199190943Y-88283088D01*
X199286181Y-88306898D01*
X199333800Y-88354517D01*
X199357610Y-88402136D01*
X199357610Y-88497374D01*
X199024277Y-87854517D02*
X199357610Y-87854517D01*
X198833800Y-87973564D02*
X199190943Y-88092612D01*
X199190943Y-87783088D01*
X201345873Y-73322310D02*
X201345873Y-72822310D01*
X201869682Y-73322310D02*
X201703016Y-73084215D01*
X201583968Y-73322310D02*
X201583968Y-72822310D01*
X201774444Y-72822310D01*
X201822063Y-72846120D01*
X201845873Y-72869929D01*
X201869682Y-72917548D01*
X201869682Y-72988977D01*
X201845873Y-73036596D01*
X201822063Y-73060405D01*
X201774444Y-73084215D01*
X201583968Y-73084215D01*
X202322063Y-73322310D02*
X202083968Y-73322310D01*
X202083968Y-72822310D01*
X202441111Y-72822310D02*
X202774444Y-72822310D01*
X202441111Y-73322310D01*
X202774444Y-73322310D01*
X203179206Y-72988977D02*
X203179206Y-73322310D01*
X203060159Y-72798500D02*
X202941111Y-73155643D01*
X203250635Y-73155643D01*
X203655397Y-72988977D02*
X203655397Y-73322310D01*
X203536349Y-72798500D02*
X203417301Y-73155643D01*
X203726825Y-73155643D01*
X203917301Y-73322310D02*
X203917301Y-72822310D01*
X204203016Y-73322310D01*
X204203016Y-72822310D01*
X204417301Y-73298500D02*
X204488730Y-73322310D01*
X204607778Y-73322310D01*
X204655397Y-73298500D01*
X204679206Y-73274691D01*
X204703016Y-73227072D01*
X204703016Y-73179453D01*
X204679206Y-73131834D01*
X204655397Y-73108024D01*
X204607778Y-73084215D01*
X204512540Y-73060405D01*
X204464920Y-73036596D01*
X204441111Y-73012786D01*
X204417301Y-72965167D01*
X204417301Y-72917548D01*
X204441111Y-72869929D01*
X204464920Y-72846120D01*
X204512540Y-72822310D01*
X204631587Y-72822310D01*
X204703016Y-72846120D01*
%TO.C,P1*%
D10*
X156153880Y-137135595D02*
X155153880Y-137135595D01*
X155153880Y-136754642D01*
X155201500Y-136659404D01*
X155249119Y-136611785D01*
X155344357Y-136564166D01*
X155487214Y-136564166D01*
X155582452Y-136611785D01*
X155630071Y-136659404D01*
X155677690Y-136754642D01*
X155677690Y-137135595D01*
X156153880Y-135611785D02*
X156153880Y-136183214D01*
X156153880Y-135897500D02*
X155153880Y-135897500D01*
X155296738Y-135992738D01*
X155391976Y-136087976D01*
X155439595Y-136183214D01*
X156122142Y-136865309D02*
X156169761Y-136912928D01*
X156217380Y-137055785D01*
X156217380Y-137151023D01*
X156169761Y-137293880D01*
X156074523Y-137389119D01*
X155979285Y-137436738D01*
X155788809Y-137484357D01*
X155645952Y-137484357D01*
X155455476Y-137436738D01*
X155360238Y-137389119D01*
X155265000Y-137293880D01*
X155217380Y-137151023D01*
X155217380Y-137055785D01*
X155265000Y-136912928D01*
X155312619Y-136865309D01*
X155217380Y-136246261D02*
X155217380Y-136055785D01*
X155265000Y-135960547D01*
X155360238Y-135865309D01*
X155550714Y-135817690D01*
X155884047Y-135817690D01*
X156074523Y-135865309D01*
X156169761Y-135960547D01*
X156217380Y-136055785D01*
X156217380Y-136246261D01*
X156169761Y-136341500D01*
X156074523Y-136436738D01*
X155884047Y-136484357D01*
X155550714Y-136484357D01*
X155360238Y-136436738D01*
X155265000Y-136341500D01*
X155217380Y-136246261D01*
X156217380Y-135389119D02*
X155217380Y-135389119D01*
X156217380Y-134817690D01*
X155217380Y-134817690D01*
X156217380Y-134341500D02*
X155217380Y-134341500D01*
X156217380Y-133770071D01*
X155217380Y-133770071D01*
X156312619Y-133531976D02*
X156312619Y-132770071D01*
X155217380Y-132341500D02*
X155217380Y-132246261D01*
X155265000Y-132151023D01*
X155312619Y-132103404D01*
X155407857Y-132055785D01*
X155598333Y-132008166D01*
X155836428Y-132008166D01*
X156026904Y-132055785D01*
X156122142Y-132103404D01*
X156169761Y-132151023D01*
X156217380Y-132246261D01*
X156217380Y-132341500D01*
X156169761Y-132436738D01*
X156122142Y-132484357D01*
X156026904Y-132531976D01*
X155836428Y-132579595D01*
X155598333Y-132579595D01*
X155407857Y-132531976D01*
X155312619Y-132484357D01*
X155265000Y-132436738D01*
X155217380Y-132341500D01*
X155312619Y-131627214D02*
X155265000Y-131579595D01*
X155217380Y-131484357D01*
X155217380Y-131246261D01*
X155265000Y-131151023D01*
X155312619Y-131103404D01*
X155407857Y-131055785D01*
X155503095Y-131055785D01*
X155645952Y-131103404D01*
X156217380Y-131674833D01*
X156217380Y-131055785D01*
X155217380Y-130722452D02*
X156217380Y-130055785D01*
X155217380Y-130055785D02*
X156217380Y-130722452D01*
X155217380Y-129484357D02*
X155217380Y-129389119D01*
X155265000Y-129293880D01*
X155312619Y-129246261D01*
X155407857Y-129198642D01*
X155598333Y-129151023D01*
X155836428Y-129151023D01*
X156026904Y-129198642D01*
X156122142Y-129246261D01*
X156169761Y-129293880D01*
X156217380Y-129389119D01*
X156217380Y-129484357D01*
X156169761Y-129579595D01*
X156122142Y-129627214D01*
X156026904Y-129674833D01*
X155836428Y-129722452D01*
X155598333Y-129722452D01*
X155407857Y-129674833D01*
X155312619Y-129627214D01*
X155265000Y-129579595D01*
X155217380Y-129484357D01*
X155217380Y-128246261D02*
X155217380Y-128722452D01*
X155693571Y-128770071D01*
X155645952Y-128722452D01*
X155598333Y-128627214D01*
X155598333Y-128389119D01*
X155645952Y-128293880D01*
X155693571Y-128246261D01*
X155788809Y-128198642D01*
X156026904Y-128198642D01*
X156122142Y-128246261D01*
X156169761Y-128293880D01*
X156217380Y-128389119D01*
X156217380Y-128627214D01*
X156169761Y-128722452D01*
X156122142Y-128770071D01*
%TO.C,J2*%
X153092666Y-154138380D02*
X153092666Y-154852666D01*
X153045047Y-154995523D01*
X152949809Y-155090761D01*
X152806952Y-155138380D01*
X152711714Y-155138380D01*
X153521238Y-154233619D02*
X153568857Y-154186000D01*
X153664095Y-154138380D01*
X153902190Y-154138380D01*
X153997428Y-154186000D01*
X154045047Y-154233619D01*
X154092666Y-154328857D01*
X154092666Y-154424095D01*
X154045047Y-154566952D01*
X153473619Y-155138380D01*
X154092666Y-155138380D01*
%TO.C,CON1*%
X144187182Y-84526285D02*
X144234801Y-84573904D01*
X144282420Y-84716761D01*
X144282420Y-84812000D01*
X144234801Y-84954857D01*
X144139563Y-85050095D01*
X144044325Y-85097714D01*
X143853849Y-85145333D01*
X143710992Y-85145333D01*
X143520516Y-85097714D01*
X143425278Y-85050095D01*
X143330040Y-84954857D01*
X143282420Y-84812000D01*
X143282420Y-84716761D01*
X143330040Y-84573904D01*
X143377659Y-84526285D01*
X143282420Y-83907238D02*
X143282420Y-83716761D01*
X143330040Y-83621523D01*
X143425278Y-83526285D01*
X143615754Y-83478666D01*
X143949087Y-83478666D01*
X144139563Y-83526285D01*
X144234801Y-83621523D01*
X144282420Y-83716761D01*
X144282420Y-83907238D01*
X144234801Y-84002476D01*
X144139563Y-84097714D01*
X143949087Y-84145333D01*
X143615754Y-84145333D01*
X143425278Y-84097714D01*
X143330040Y-84002476D01*
X143282420Y-83907238D01*
X144282420Y-83050095D02*
X143282420Y-83050095D01*
X144282420Y-82478666D01*
X143282420Y-82478666D01*
X144282420Y-81478666D02*
X144282420Y-82050095D01*
X144282420Y-81764380D02*
X143282420Y-81764380D01*
X143425278Y-81859619D01*
X143520516Y-81954857D01*
X143568135Y-82050095D01*
X129326238Y-77241091D02*
X129469095Y-77288710D01*
X129516714Y-77336329D01*
X129564333Y-77431567D01*
X129564333Y-77574424D01*
X129516714Y-77669662D01*
X129469095Y-77717281D01*
X129373857Y-77764900D01*
X128992904Y-77764900D01*
X128992904Y-76764900D01*
X129326238Y-76764900D01*
X129421476Y-76812520D01*
X129469095Y-76860139D01*
X129516714Y-76955377D01*
X129516714Y-77050615D01*
X129469095Y-77145853D01*
X129421476Y-77193472D01*
X129326238Y-77241091D01*
X128992904Y-77241091D01*
X129945285Y-77479186D02*
X130421476Y-77479186D01*
X129850047Y-77764900D02*
X130183380Y-76764900D01*
X130516714Y-77764900D01*
X131421476Y-77764900D02*
X131088142Y-77288710D01*
X130850047Y-77764900D02*
X130850047Y-76764900D01*
X131231000Y-76764900D01*
X131326238Y-76812520D01*
X131373857Y-76860139D01*
X131421476Y-76955377D01*
X131421476Y-77098234D01*
X131373857Y-77193472D01*
X131326238Y-77241091D01*
X131231000Y-77288710D01*
X130850047Y-77288710D01*
X132421476Y-77764900D02*
X132088142Y-77288710D01*
X131850047Y-77764900D02*
X131850047Y-76764900D01*
X132231000Y-76764900D01*
X132326238Y-76812520D01*
X132373857Y-76860139D01*
X132421476Y-76955377D01*
X132421476Y-77098234D01*
X132373857Y-77193472D01*
X132326238Y-77241091D01*
X132231000Y-77288710D01*
X131850047Y-77288710D01*
X132850047Y-77241091D02*
X133183380Y-77241091D01*
X133326238Y-77764900D02*
X132850047Y-77764900D01*
X132850047Y-76764900D01*
X133326238Y-76764900D01*
X134231000Y-77764900D02*
X133754809Y-77764900D01*
X133754809Y-76764900D01*
X134326238Y-77860139D02*
X135088142Y-77860139D01*
X135611952Y-76764900D02*
X135611952Y-77479186D01*
X135564333Y-77622043D01*
X135469095Y-77717281D01*
X135326238Y-77764900D01*
X135231000Y-77764900D01*
X136040523Y-77479186D02*
X136516714Y-77479186D01*
X135945285Y-77764900D02*
X136278619Y-76764900D01*
X136611952Y-77764900D01*
X137516714Y-77669662D02*
X137469095Y-77717281D01*
X137326238Y-77764900D01*
X137231000Y-77764900D01*
X137088142Y-77717281D01*
X136992904Y-77622043D01*
X136945285Y-77526805D01*
X136897666Y-77336329D01*
X136897666Y-77193472D01*
X136945285Y-77002996D01*
X136992904Y-76907758D01*
X137088142Y-76812520D01*
X137231000Y-76764900D01*
X137326238Y-76764900D01*
X137469095Y-76812520D01*
X137516714Y-76860139D01*
X137945285Y-77764900D02*
X137945285Y-76764900D01*
X138516714Y-77764900D02*
X138088142Y-77193472D01*
X138516714Y-76764900D02*
X137945285Y-77336329D01*
%TO.C,C1*%
X177316333Y-127103642D02*
X177268714Y-127151261D01*
X177125857Y-127198880D01*
X177030619Y-127198880D01*
X176887761Y-127151261D01*
X176792523Y-127056023D01*
X176744904Y-126960785D01*
X176697285Y-126770309D01*
X176697285Y-126627452D01*
X176744904Y-126436976D01*
X176792523Y-126341738D01*
X176887761Y-126246500D01*
X177030619Y-126198880D01*
X177125857Y-126198880D01*
X177268714Y-126246500D01*
X177316333Y-126294119D01*
X178268714Y-127198880D02*
X177697285Y-127198880D01*
X177983000Y-127198880D02*
X177983000Y-126198880D01*
X177887761Y-126341738D01*
X177792523Y-126436976D01*
X177697285Y-126484595D01*
X181904380Y-136266680D02*
X181332952Y-136266680D01*
X181618666Y-136266680D02*
X181618666Y-135266680D01*
X181523428Y-135409538D01*
X181428190Y-135504776D01*
X181332952Y-135552395D01*
X182523428Y-135266680D02*
X182618666Y-135266680D01*
X182713904Y-135314300D01*
X182761523Y-135361919D01*
X182809142Y-135457157D01*
X182856761Y-135647633D01*
X182856761Y-135885728D01*
X182809142Y-136076204D01*
X182761523Y-136171442D01*
X182713904Y-136219061D01*
X182618666Y-136266680D01*
X182523428Y-136266680D01*
X182428190Y-136219061D01*
X182380571Y-136171442D01*
X182332952Y-136076204D01*
X182285333Y-135885728D01*
X182285333Y-135647633D01*
X182332952Y-135457157D01*
X182380571Y-135361919D01*
X182428190Y-135314300D01*
X182523428Y-135266680D01*
X183475809Y-135266680D02*
X183571047Y-135266680D01*
X183666285Y-135314300D01*
X183713904Y-135361919D01*
X183761523Y-135457157D01*
X183809142Y-135647633D01*
X183809142Y-135885728D01*
X183761523Y-136076204D01*
X183713904Y-136171442D01*
X183666285Y-136219061D01*
X183571047Y-136266680D01*
X183475809Y-136266680D01*
X183380571Y-136219061D01*
X183332952Y-136171442D01*
X183285333Y-136076204D01*
X183237714Y-135885728D01*
X183237714Y-135647633D01*
X183285333Y-135457157D01*
X183332952Y-135361919D01*
X183380571Y-135314300D01*
X183475809Y-135266680D01*
X184666285Y-135600014D02*
X184666285Y-136266680D01*
X184237714Y-135600014D02*
X184237714Y-136123823D01*
X184285333Y-136219061D01*
X184380571Y-136266680D01*
X184523428Y-136266680D01*
X184618666Y-136219061D01*
X184666285Y-136171442D01*
X185475809Y-135742871D02*
X185142476Y-135742871D01*
X185142476Y-136266680D02*
X185142476Y-135266680D01*
X185618666Y-135266680D01*
X187846247Y-126525828D02*
X188608152Y-126525828D01*
X188227200Y-126906780D02*
X188227200Y-126144876D01*
%TO.C,C2*%
X179855833Y-115799642D02*
X179808214Y-115847261D01*
X179665357Y-115894880D01*
X179570119Y-115894880D01*
X179427261Y-115847261D01*
X179332023Y-115752023D01*
X179284404Y-115656785D01*
X179236785Y-115466309D01*
X179236785Y-115323452D01*
X179284404Y-115132976D01*
X179332023Y-115037738D01*
X179427261Y-114942500D01*
X179570119Y-114894880D01*
X179665357Y-114894880D01*
X179808214Y-114942500D01*
X179855833Y-114990119D01*
X180236785Y-114990119D02*
X180284404Y-114942500D01*
X180379642Y-114894880D01*
X180617738Y-114894880D01*
X180712976Y-114942500D01*
X180760595Y-114990119D01*
X180808214Y-115085357D01*
X180808214Y-115180595D01*
X180760595Y-115323452D01*
X180189166Y-115894880D01*
X180808214Y-115894880D01*
X184904238Y-115037714D02*
X184904238Y-115704380D01*
X184666142Y-114656761D02*
X184428047Y-115371047D01*
X185047095Y-115371047D01*
X185428047Y-115609142D02*
X185475666Y-115656761D01*
X185428047Y-115704380D01*
X185380428Y-115656761D01*
X185428047Y-115609142D01*
X185428047Y-115704380D01*
X185809000Y-114704380D02*
X186475666Y-114704380D01*
X186047095Y-115704380D01*
X187285190Y-115037714D02*
X187285190Y-115704380D01*
X186856619Y-115037714D02*
X186856619Y-115561523D01*
X186904238Y-115656761D01*
X186999476Y-115704380D01*
X187142333Y-115704380D01*
X187237571Y-115656761D01*
X187285190Y-115609142D01*
X188094714Y-115180571D02*
X187761380Y-115180571D01*
X187761380Y-115704380D02*
X187761380Y-114704380D01*
X188237571Y-114704380D01*
%TO.C,C3*%
X179601833Y-114085142D02*
X179554214Y-114132761D01*
X179411357Y-114180380D01*
X179316119Y-114180380D01*
X179173261Y-114132761D01*
X179078023Y-114037523D01*
X179030404Y-113942285D01*
X178982785Y-113751809D01*
X178982785Y-113608952D01*
X179030404Y-113418476D01*
X179078023Y-113323238D01*
X179173261Y-113228000D01*
X179316119Y-113180380D01*
X179411357Y-113180380D01*
X179554214Y-113228000D01*
X179601833Y-113275619D01*
X179935166Y-113180380D02*
X180554214Y-113180380D01*
X180220880Y-113561333D01*
X180363738Y-113561333D01*
X180458976Y-113608952D01*
X180506595Y-113656571D01*
X180554214Y-113751809D01*
X180554214Y-113989904D01*
X180506595Y-114085142D01*
X180458976Y-114132761D01*
X180363738Y-114180380D01*
X180078023Y-114180380D01*
X179982785Y-114132761D01*
X179935166Y-114085142D01*
X185015380Y-113926380D02*
X184443952Y-113926380D01*
X184729666Y-113926380D02*
X184729666Y-112926380D01*
X184634428Y-113069238D01*
X184539190Y-113164476D01*
X184443952Y-113212095D01*
X185634428Y-112926380D02*
X185729666Y-112926380D01*
X185824904Y-112974000D01*
X185872523Y-113021619D01*
X185920142Y-113116857D01*
X185967761Y-113307333D01*
X185967761Y-113545428D01*
X185920142Y-113735904D01*
X185872523Y-113831142D01*
X185824904Y-113878761D01*
X185729666Y-113926380D01*
X185634428Y-113926380D01*
X185539190Y-113878761D01*
X185491571Y-113831142D01*
X185443952Y-113735904D01*
X185396333Y-113545428D01*
X185396333Y-113307333D01*
X185443952Y-113116857D01*
X185491571Y-113021619D01*
X185539190Y-112974000D01*
X185634428Y-112926380D01*
X186586809Y-112926380D02*
X186682047Y-112926380D01*
X186777285Y-112974000D01*
X186824904Y-113021619D01*
X186872523Y-113116857D01*
X186920142Y-113307333D01*
X186920142Y-113545428D01*
X186872523Y-113735904D01*
X186824904Y-113831142D01*
X186777285Y-113878761D01*
X186682047Y-113926380D01*
X186586809Y-113926380D01*
X186491571Y-113878761D01*
X186443952Y-113831142D01*
X186396333Y-113735904D01*
X186348714Y-113545428D01*
X186348714Y-113307333D01*
X186396333Y-113116857D01*
X186443952Y-113021619D01*
X186491571Y-112974000D01*
X186586809Y-112926380D01*
X187348714Y-113259714D02*
X187348714Y-113926380D01*
X187348714Y-113354952D02*
X187396333Y-113307333D01*
X187491571Y-113259714D01*
X187634428Y-113259714D01*
X187729666Y-113307333D01*
X187777285Y-113402571D01*
X187777285Y-113926380D01*
X188586809Y-113402571D02*
X188253476Y-113402571D01*
X188253476Y-113926380D02*
X188253476Y-112926380D01*
X188729666Y-112926380D01*
%TO.C,C4*%
X192376142Y-100686666D02*
X192423761Y-100734285D01*
X192471380Y-100877142D01*
X192471380Y-100972380D01*
X192423761Y-101115238D01*
X192328523Y-101210476D01*
X192233285Y-101258095D01*
X192042809Y-101305714D01*
X191899952Y-101305714D01*
X191709476Y-101258095D01*
X191614238Y-101210476D01*
X191519000Y-101115238D01*
X191471380Y-100972380D01*
X191471380Y-100877142D01*
X191519000Y-100734285D01*
X191566619Y-100686666D01*
X191804714Y-99829523D02*
X192471380Y-99829523D01*
X191423761Y-100067619D02*
X192138047Y-100305714D01*
X192138047Y-99686666D01*
X190571380Y-98194119D02*
X190571380Y-98765547D01*
X190571380Y-98479833D02*
X189571380Y-98479833D01*
X189714238Y-98575071D01*
X189809476Y-98670309D01*
X189857095Y-98765547D01*
X189571380Y-97575071D02*
X189571380Y-97479833D01*
X189619000Y-97384595D01*
X189666619Y-97336976D01*
X189761857Y-97289357D01*
X189952333Y-97241738D01*
X190190428Y-97241738D01*
X190380904Y-97289357D01*
X190476142Y-97336976D01*
X190523761Y-97384595D01*
X190571380Y-97479833D01*
X190571380Y-97575071D01*
X190523761Y-97670309D01*
X190476142Y-97717928D01*
X190380904Y-97765547D01*
X190190428Y-97813166D01*
X189952333Y-97813166D01*
X189761857Y-97765547D01*
X189666619Y-97717928D01*
X189619000Y-97670309D01*
X189571380Y-97575071D01*
X189571380Y-96622690D02*
X189571380Y-96527452D01*
X189619000Y-96432214D01*
X189666619Y-96384595D01*
X189761857Y-96336976D01*
X189952333Y-96289357D01*
X190190428Y-96289357D01*
X190380904Y-96336976D01*
X190476142Y-96384595D01*
X190523761Y-96432214D01*
X190571380Y-96527452D01*
X190571380Y-96622690D01*
X190523761Y-96717928D01*
X190476142Y-96765547D01*
X190380904Y-96813166D01*
X190190428Y-96860785D01*
X189952333Y-96860785D01*
X189761857Y-96813166D01*
X189666619Y-96765547D01*
X189619000Y-96717928D01*
X189571380Y-96622690D01*
X189904714Y-95860785D02*
X190571380Y-95860785D01*
X189999952Y-95860785D02*
X189952333Y-95813166D01*
X189904714Y-95717928D01*
X189904714Y-95575071D01*
X189952333Y-95479833D01*
X190047571Y-95432214D01*
X190571380Y-95432214D01*
X190047571Y-94622690D02*
X190047571Y-94956023D01*
X190571380Y-94956023D02*
X189571380Y-94956023D01*
X189571380Y-94479833D01*
%TO.C,C5*%
X169971142Y-108306666D02*
X170018761Y-108354285D01*
X170066380Y-108497142D01*
X170066380Y-108592380D01*
X170018761Y-108735238D01*
X169923523Y-108830476D01*
X169828285Y-108878095D01*
X169637809Y-108925714D01*
X169494952Y-108925714D01*
X169304476Y-108878095D01*
X169209238Y-108830476D01*
X169114000Y-108735238D01*
X169066380Y-108592380D01*
X169066380Y-108497142D01*
X169114000Y-108354285D01*
X169161619Y-108306666D01*
X169066380Y-107401904D02*
X169066380Y-107878095D01*
X169542571Y-107925714D01*
X169494952Y-107878095D01*
X169447333Y-107782857D01*
X169447333Y-107544761D01*
X169494952Y-107449523D01*
X169542571Y-107401904D01*
X169637809Y-107354285D01*
X169875904Y-107354285D01*
X169971142Y-107401904D01*
X170018761Y-107449523D01*
X170066380Y-107544761D01*
X170066380Y-107782857D01*
X170018761Y-107878095D01*
X169971142Y-107925714D01*
X171966380Y-105877619D02*
X171966380Y-106449047D01*
X171966380Y-106163333D02*
X170966380Y-106163333D01*
X171109238Y-106258571D01*
X171204476Y-106353809D01*
X171252095Y-106449047D01*
X170966380Y-105258571D02*
X170966380Y-105163333D01*
X171014000Y-105068095D01*
X171061619Y-105020476D01*
X171156857Y-104972857D01*
X171347333Y-104925238D01*
X171585428Y-104925238D01*
X171775904Y-104972857D01*
X171871142Y-105020476D01*
X171918761Y-105068095D01*
X171966380Y-105163333D01*
X171966380Y-105258571D01*
X171918761Y-105353809D01*
X171871142Y-105401428D01*
X171775904Y-105449047D01*
X171585428Y-105496666D01*
X171347333Y-105496666D01*
X171156857Y-105449047D01*
X171061619Y-105401428D01*
X171014000Y-105353809D01*
X170966380Y-105258571D01*
X170966380Y-104306190D02*
X170966380Y-104210952D01*
X171014000Y-104115714D01*
X171061619Y-104068095D01*
X171156857Y-104020476D01*
X171347333Y-103972857D01*
X171585428Y-103972857D01*
X171775904Y-104020476D01*
X171871142Y-104068095D01*
X171918761Y-104115714D01*
X171966380Y-104210952D01*
X171966380Y-104306190D01*
X171918761Y-104401428D01*
X171871142Y-104449047D01*
X171775904Y-104496666D01*
X171585428Y-104544285D01*
X171347333Y-104544285D01*
X171156857Y-104496666D01*
X171061619Y-104449047D01*
X171014000Y-104401428D01*
X170966380Y-104306190D01*
X171299714Y-103544285D02*
X171966380Y-103544285D01*
X171394952Y-103544285D02*
X171347333Y-103496666D01*
X171299714Y-103401428D01*
X171299714Y-103258571D01*
X171347333Y-103163333D01*
X171442571Y-103115714D01*
X171966380Y-103115714D01*
X171442571Y-102306190D02*
X171442571Y-102639523D01*
X171966380Y-102639523D02*
X170966380Y-102639523D01*
X170966380Y-102163333D01*
%TO.C,J1*%
X173412666Y-154138380D02*
X173412666Y-154852666D01*
X173365047Y-154995523D01*
X173269809Y-155090761D01*
X173126952Y-155138380D01*
X173031714Y-155138380D01*
X174412666Y-155138380D02*
X173841238Y-155138380D01*
X174126952Y-155138380D02*
X174126952Y-154138380D01*
X174031714Y-154281238D01*
X173936476Y-154376476D01*
X173841238Y-154424095D01*
%TO.C,P3*%
X214145904Y-66111380D02*
X214145904Y-65111380D01*
X214526857Y-65111380D01*
X214622095Y-65159000D01*
X214669714Y-65206619D01*
X214717333Y-65301857D01*
X214717333Y-65444714D01*
X214669714Y-65539952D01*
X214622095Y-65587571D01*
X214526857Y-65635190D01*
X214145904Y-65635190D01*
X215050666Y-65111380D02*
X215669714Y-65111380D01*
X215336380Y-65492333D01*
X215479238Y-65492333D01*
X215574476Y-65539952D01*
X215622095Y-65587571D01*
X215669714Y-65682809D01*
X215669714Y-65920904D01*
X215622095Y-66016142D01*
X215574476Y-66063761D01*
X215479238Y-66111380D01*
X215193523Y-66111380D01*
X215098285Y-66063761D01*
X215050666Y-66016142D01*
X202922690Y-63539642D02*
X202875071Y-63587261D01*
X202732214Y-63634880D01*
X202636976Y-63634880D01*
X202494119Y-63587261D01*
X202398880Y-63492023D01*
X202351261Y-63396785D01*
X202303642Y-63206309D01*
X202303642Y-63063452D01*
X202351261Y-62872976D01*
X202398880Y-62777738D01*
X202494119Y-62682500D01*
X202636976Y-62634880D01*
X202732214Y-62634880D01*
X202875071Y-62682500D01*
X202922690Y-62730119D01*
X203541738Y-62634880D02*
X203732214Y-62634880D01*
X203827452Y-62682500D01*
X203922690Y-62777738D01*
X203970309Y-62968214D01*
X203970309Y-63301547D01*
X203922690Y-63492023D01*
X203827452Y-63587261D01*
X203732214Y-63634880D01*
X203541738Y-63634880D01*
X203446500Y-63587261D01*
X203351261Y-63492023D01*
X203303642Y-63301547D01*
X203303642Y-62968214D01*
X203351261Y-62777738D01*
X203446500Y-62682500D01*
X203541738Y-62634880D01*
X204398880Y-63634880D02*
X204398880Y-62634880D01*
X204970309Y-63634880D01*
X204970309Y-62634880D01*
X205446500Y-63634880D02*
X205446500Y-62634880D01*
X206017928Y-63634880D01*
X206017928Y-62634880D01*
X206256023Y-63730119D02*
X207017928Y-63730119D01*
X207446500Y-62634880D02*
X207541738Y-62634880D01*
X207636976Y-62682500D01*
X207684595Y-62730119D01*
X207732214Y-62825357D01*
X207779833Y-63015833D01*
X207779833Y-63253928D01*
X207732214Y-63444404D01*
X207684595Y-63539642D01*
X207636976Y-63587261D01*
X207541738Y-63634880D01*
X207446500Y-63634880D01*
X207351261Y-63587261D01*
X207303642Y-63539642D01*
X207256023Y-63444404D01*
X207208404Y-63253928D01*
X207208404Y-63015833D01*
X207256023Y-62825357D01*
X207303642Y-62730119D01*
X207351261Y-62682500D01*
X207446500Y-62634880D01*
X208732214Y-63634880D02*
X208160785Y-63634880D01*
X208446500Y-63634880D02*
X208446500Y-62634880D01*
X208351261Y-62777738D01*
X208256023Y-62872976D01*
X208160785Y-62920595D01*
X209065547Y-62634880D02*
X209732214Y-63634880D01*
X209732214Y-62634880D02*
X209065547Y-63634880D01*
X210303642Y-62634880D02*
X210398880Y-62634880D01*
X210494119Y-62682500D01*
X210541738Y-62730119D01*
X210589357Y-62825357D01*
X210636976Y-63015833D01*
X210636976Y-63253928D01*
X210589357Y-63444404D01*
X210541738Y-63539642D01*
X210494119Y-63587261D01*
X210398880Y-63634880D01*
X210303642Y-63634880D01*
X210208404Y-63587261D01*
X210160785Y-63539642D01*
X210113166Y-63444404D01*
X210065547Y-63253928D01*
X210065547Y-63015833D01*
X210113166Y-62825357D01*
X210160785Y-62730119D01*
X210208404Y-62682500D01*
X210303642Y-62634880D01*
X211541738Y-62634880D02*
X211065547Y-62634880D01*
X211017928Y-63111071D01*
X211065547Y-63063452D01*
X211160785Y-63015833D01*
X211398880Y-63015833D01*
X211494119Y-63063452D01*
X211541738Y-63111071D01*
X211589357Y-63206309D01*
X211589357Y-63444404D01*
X211541738Y-63539642D01*
X211494119Y-63587261D01*
X211398880Y-63634880D01*
X211160785Y-63634880D01*
X211065547Y-63587261D01*
X211017928Y-63539642D01*
%TO.C,P4*%
X154963904Y-66873380D02*
X154963904Y-65873380D01*
X155344857Y-65873380D01*
X155440095Y-65921000D01*
X155487714Y-65968619D01*
X155535333Y-66063857D01*
X155535333Y-66206714D01*
X155487714Y-66301952D01*
X155440095Y-66349571D01*
X155344857Y-66397190D01*
X154963904Y-66397190D01*
X156392476Y-66206714D02*
X156392476Y-66873380D01*
X156154380Y-65825761D02*
X155916285Y-66540047D01*
X156535333Y-66540047D01*
X142113238Y-71635880D02*
X142113238Y-70635880D01*
X142351333Y-70635880D01*
X142494190Y-70683500D01*
X142589428Y-70778738D01*
X142637047Y-70873976D01*
X142684666Y-71064452D01*
X142684666Y-71207309D01*
X142637047Y-71397785D01*
X142589428Y-71493023D01*
X142494190Y-71588261D01*
X142351333Y-71635880D01*
X142113238Y-71635880D01*
X143684666Y-71540642D02*
X143637047Y-71588261D01*
X143494190Y-71635880D01*
X143398952Y-71635880D01*
X143256095Y-71588261D01*
X143160857Y-71493023D01*
X143113238Y-71397785D01*
X143065619Y-71207309D01*
X143065619Y-71064452D01*
X143113238Y-70873976D01*
X143160857Y-70778738D01*
X143256095Y-70683500D01*
X143398952Y-70635880D01*
X143494190Y-70635880D01*
X143637047Y-70683500D01*
X143684666Y-70731119D01*
X143875142Y-71731119D02*
X144637047Y-71731119D01*
X144875142Y-71635880D02*
X144875142Y-70635880D01*
X145351333Y-71635880D02*
X145351333Y-70635880D01*
X145922761Y-71635880D01*
X145922761Y-70635880D01*
%TO.C,P5*%
X158710404Y-66174880D02*
X158710404Y-65174880D01*
X159091357Y-65174880D01*
X159186595Y-65222500D01*
X159234214Y-65270119D01*
X159281833Y-65365357D01*
X159281833Y-65508214D01*
X159234214Y-65603452D01*
X159186595Y-65651071D01*
X159091357Y-65698690D01*
X158710404Y-65698690D01*
X160186595Y-65174880D02*
X159710404Y-65174880D01*
X159662785Y-65651071D01*
X159710404Y-65603452D01*
X159805642Y-65555833D01*
X160043738Y-65555833D01*
X160138976Y-65603452D01*
X160186595Y-65651071D01*
X160234214Y-65746309D01*
X160234214Y-65984404D01*
X160186595Y-66079642D01*
X160138976Y-66127261D01*
X160043738Y-66174880D01*
X159805642Y-66174880D01*
X159710404Y-66127261D01*
X159662785Y-66079642D01*
X175998690Y-63285642D02*
X175951071Y-63333261D01*
X175808214Y-63380880D01*
X175712976Y-63380880D01*
X175570119Y-63333261D01*
X175474880Y-63238023D01*
X175427261Y-63142785D01*
X175379642Y-62952309D01*
X175379642Y-62809452D01*
X175427261Y-62618976D01*
X175474880Y-62523738D01*
X175570119Y-62428500D01*
X175712976Y-62380880D01*
X175808214Y-62380880D01*
X175951071Y-62428500D01*
X175998690Y-62476119D01*
X176617738Y-62380880D02*
X176808214Y-62380880D01*
X176903452Y-62428500D01*
X176998690Y-62523738D01*
X177046309Y-62714214D01*
X177046309Y-63047547D01*
X176998690Y-63238023D01*
X176903452Y-63333261D01*
X176808214Y-63380880D01*
X176617738Y-63380880D01*
X176522500Y-63333261D01*
X176427261Y-63238023D01*
X176379642Y-63047547D01*
X176379642Y-62714214D01*
X176427261Y-62523738D01*
X176522500Y-62428500D01*
X176617738Y-62380880D01*
X177474880Y-63380880D02*
X177474880Y-62380880D01*
X178046309Y-63380880D01*
X178046309Y-62380880D01*
X178522500Y-63380880D02*
X178522500Y-62380880D01*
X179093928Y-63380880D01*
X179093928Y-62380880D01*
X179332023Y-63476119D02*
X180093928Y-63476119D01*
X180522500Y-62380880D02*
X180617738Y-62380880D01*
X180712976Y-62428500D01*
X180760595Y-62476119D01*
X180808214Y-62571357D01*
X180855833Y-62761833D01*
X180855833Y-62999928D01*
X180808214Y-63190404D01*
X180760595Y-63285642D01*
X180712976Y-63333261D01*
X180617738Y-63380880D01*
X180522500Y-63380880D01*
X180427261Y-63333261D01*
X180379642Y-63285642D01*
X180332023Y-63190404D01*
X180284404Y-62999928D01*
X180284404Y-62761833D01*
X180332023Y-62571357D01*
X180379642Y-62476119D01*
X180427261Y-62428500D01*
X180522500Y-62380880D01*
X181808214Y-63380880D02*
X181236785Y-63380880D01*
X181522500Y-63380880D02*
X181522500Y-62380880D01*
X181427261Y-62523738D01*
X181332023Y-62618976D01*
X181236785Y-62666595D01*
X182141547Y-62380880D02*
X182808214Y-63380880D01*
X182808214Y-62380880D02*
X182141547Y-63380880D01*
X183379642Y-62380880D02*
X183474880Y-62380880D01*
X183570119Y-62428500D01*
X183617738Y-62476119D01*
X183665357Y-62571357D01*
X183712976Y-62761833D01*
X183712976Y-62999928D01*
X183665357Y-63190404D01*
X183617738Y-63285642D01*
X183570119Y-63333261D01*
X183474880Y-63380880D01*
X183379642Y-63380880D01*
X183284404Y-63333261D01*
X183236785Y-63285642D01*
X183189166Y-63190404D01*
X183141547Y-62999928D01*
X183141547Y-62761833D01*
X183189166Y-62571357D01*
X183236785Y-62476119D01*
X183284404Y-62428500D01*
X183379642Y-62380880D01*
X184617738Y-62380880D02*
X184141547Y-62380880D01*
X184093928Y-62857071D01*
X184141547Y-62809452D01*
X184236785Y-62761833D01*
X184474880Y-62761833D01*
X184570119Y-62809452D01*
X184617738Y-62857071D01*
X184665357Y-62952309D01*
X184665357Y-63190404D01*
X184617738Y-63285642D01*
X184570119Y-63333261D01*
X184474880Y-63380880D01*
X184236785Y-63380880D01*
X184141547Y-63333261D01*
X184093928Y-63285642D01*
%TO.C,Q1*%
D16*
X187911229Y-88259279D02*
X187887420Y-88306898D01*
X187839800Y-88354517D01*
X187768372Y-88425945D01*
X187744562Y-88473564D01*
X187744562Y-88521183D01*
X187863610Y-88497374D02*
X187839800Y-88544993D01*
X187792181Y-88592612D01*
X187696943Y-88616421D01*
X187530277Y-88616421D01*
X187435039Y-88592612D01*
X187387420Y-88544993D01*
X187363610Y-88497374D01*
X187363610Y-88402136D01*
X187387420Y-88354517D01*
X187435039Y-88306898D01*
X187530277Y-88283088D01*
X187696943Y-88283088D01*
X187792181Y-88306898D01*
X187839800Y-88354517D01*
X187863610Y-88402136D01*
X187863610Y-88497374D01*
X187863610Y-87806898D02*
X187863610Y-88092612D01*
X187863610Y-87949755D02*
X187363610Y-87949755D01*
X187435039Y-87997374D01*
X187482658Y-88044993D01*
X187506467Y-88092612D01*
X189851873Y-73322310D02*
X189851873Y-72822310D01*
X190375682Y-73322310D02*
X190209016Y-73084215D01*
X190089968Y-73322310D02*
X190089968Y-72822310D01*
X190280444Y-72822310D01*
X190328063Y-72846120D01*
X190351873Y-72869929D01*
X190375682Y-72917548D01*
X190375682Y-72988977D01*
X190351873Y-73036596D01*
X190328063Y-73060405D01*
X190280444Y-73084215D01*
X190089968Y-73084215D01*
X190828063Y-73322310D02*
X190589968Y-73322310D01*
X190589968Y-72822310D01*
X190947111Y-72822310D02*
X191280444Y-72822310D01*
X190947111Y-73322310D01*
X191280444Y-73322310D01*
X191685206Y-72988977D02*
X191685206Y-73322310D01*
X191566159Y-72798500D02*
X191447111Y-73155643D01*
X191756635Y-73155643D01*
X192161397Y-72988977D02*
X192161397Y-73322310D01*
X192042349Y-72798500D02*
X191923301Y-73155643D01*
X192232825Y-73155643D01*
X192423301Y-73322310D02*
X192423301Y-72822310D01*
X192709016Y-73322310D01*
X192709016Y-72822310D01*
X192923301Y-73298500D02*
X192994730Y-73322310D01*
X193113778Y-73322310D01*
X193161397Y-73298500D01*
X193185206Y-73274691D01*
X193209016Y-73227072D01*
X193209016Y-73179453D01*
X193185206Y-73131834D01*
X193161397Y-73108024D01*
X193113778Y-73084215D01*
X193018540Y-73060405D01*
X192970920Y-73036596D01*
X192947111Y-73012786D01*
X192923301Y-72965167D01*
X192923301Y-72917548D01*
X192947111Y-72869929D01*
X192970920Y-72846120D01*
X193018540Y-72822310D01*
X193137587Y-72822310D01*
X193209016Y-72846120D01*
%TO.C,Q3*%
X158193229Y-87941779D02*
X158169420Y-87989398D01*
X158121800Y-88037017D01*
X158050372Y-88108445D01*
X158026562Y-88156064D01*
X158026562Y-88203683D01*
X158145610Y-88179874D02*
X158121800Y-88227493D01*
X158074181Y-88275112D01*
X157978943Y-88298921D01*
X157812277Y-88298921D01*
X157717039Y-88275112D01*
X157669420Y-88227493D01*
X157645610Y-88179874D01*
X157645610Y-88084636D01*
X157669420Y-88037017D01*
X157717039Y-87989398D01*
X157812277Y-87965588D01*
X157978943Y-87965588D01*
X158074181Y-87989398D01*
X158121800Y-88037017D01*
X158145610Y-88084636D01*
X158145610Y-88179874D01*
X157645610Y-87798921D02*
X157645610Y-87489398D01*
X157836086Y-87656064D01*
X157836086Y-87584636D01*
X157859896Y-87537017D01*
X157883705Y-87513207D01*
X157931324Y-87489398D01*
X158050372Y-87489398D01*
X158097991Y-87513207D01*
X158121800Y-87537017D01*
X158145610Y-87584636D01*
X158145610Y-87727493D01*
X158121800Y-87775112D01*
X158097991Y-87798921D01*
X160133873Y-73004810D02*
X160133873Y-72504810D01*
X160657682Y-73004810D02*
X160491016Y-72766715D01*
X160371968Y-73004810D02*
X160371968Y-72504810D01*
X160562444Y-72504810D01*
X160610063Y-72528620D01*
X160633873Y-72552429D01*
X160657682Y-72600048D01*
X160657682Y-72671477D01*
X160633873Y-72719096D01*
X160610063Y-72742905D01*
X160562444Y-72766715D01*
X160371968Y-72766715D01*
X161110063Y-73004810D02*
X160871968Y-73004810D01*
X160871968Y-72504810D01*
X161229111Y-72504810D02*
X161562444Y-72504810D01*
X161229111Y-73004810D01*
X161562444Y-73004810D01*
X161967206Y-72671477D02*
X161967206Y-73004810D01*
X161848159Y-72481000D02*
X161729111Y-72838143D01*
X162038635Y-72838143D01*
X162443397Y-72671477D02*
X162443397Y-73004810D01*
X162324349Y-72481000D02*
X162205301Y-72838143D01*
X162514825Y-72838143D01*
X162705301Y-73004810D02*
X162705301Y-72504810D01*
X162991016Y-73004810D01*
X162991016Y-72504810D01*
X163205301Y-72981000D02*
X163276730Y-73004810D01*
X163395778Y-73004810D01*
X163443397Y-72981000D01*
X163467206Y-72957191D01*
X163491016Y-72909572D01*
X163491016Y-72861953D01*
X163467206Y-72814334D01*
X163443397Y-72790524D01*
X163395778Y-72766715D01*
X163300540Y-72742905D01*
X163252920Y-72719096D01*
X163229111Y-72695286D01*
X163205301Y-72647667D01*
X163205301Y-72600048D01*
X163229111Y-72552429D01*
X163252920Y-72528620D01*
X163300540Y-72504810D01*
X163419587Y-72504810D01*
X163491016Y-72528620D01*
%TO.C,Q7*%
X169813229Y-87941779D02*
X169789420Y-87989398D01*
X169741800Y-88037017D01*
X169670372Y-88108445D01*
X169646562Y-88156064D01*
X169646562Y-88203683D01*
X169765610Y-88179874D02*
X169741800Y-88227493D01*
X169694181Y-88275112D01*
X169598943Y-88298921D01*
X169432277Y-88298921D01*
X169337039Y-88275112D01*
X169289420Y-88227493D01*
X169265610Y-88179874D01*
X169265610Y-88084636D01*
X169289420Y-88037017D01*
X169337039Y-87989398D01*
X169432277Y-87965588D01*
X169598943Y-87965588D01*
X169694181Y-87989398D01*
X169741800Y-88037017D01*
X169765610Y-88084636D01*
X169765610Y-88179874D01*
X169265610Y-87798921D02*
X169265610Y-87465588D01*
X169765610Y-87679874D01*
X171753873Y-73004810D02*
X171753873Y-72504810D01*
X172277682Y-73004810D02*
X172111016Y-72766715D01*
X171991968Y-73004810D02*
X171991968Y-72504810D01*
X172182444Y-72504810D01*
X172230063Y-72528620D01*
X172253873Y-72552429D01*
X172277682Y-72600048D01*
X172277682Y-72671477D01*
X172253873Y-72719096D01*
X172230063Y-72742905D01*
X172182444Y-72766715D01*
X171991968Y-72766715D01*
X172730063Y-73004810D02*
X172491968Y-73004810D01*
X172491968Y-72504810D01*
X172849111Y-72504810D02*
X173182444Y-72504810D01*
X172849111Y-73004810D01*
X173182444Y-73004810D01*
X173587206Y-72671477D02*
X173587206Y-73004810D01*
X173468159Y-72481000D02*
X173349111Y-72838143D01*
X173658635Y-72838143D01*
X174063397Y-72671477D02*
X174063397Y-73004810D01*
X173944349Y-72481000D02*
X173825301Y-72838143D01*
X174134825Y-72838143D01*
X174325301Y-73004810D02*
X174325301Y-72504810D01*
X174611016Y-73004810D01*
X174611016Y-72504810D01*
X174825301Y-72981000D02*
X174896730Y-73004810D01*
X175015778Y-73004810D01*
X175063397Y-72981000D01*
X175087206Y-72957191D01*
X175111016Y-72909572D01*
X175111016Y-72861953D01*
X175087206Y-72814334D01*
X175063397Y-72790524D01*
X175015778Y-72766715D01*
X174920540Y-72742905D01*
X174872920Y-72719096D01*
X174849111Y-72695286D01*
X174825301Y-72647667D01*
X174825301Y-72600048D01*
X174849111Y-72552429D01*
X174872920Y-72528620D01*
X174920540Y-72504810D01*
X175039587Y-72504810D01*
X175111016Y-72528620D01*
%TO.C,P2*%
D10*
X226004380Y-119102095D02*
X225004380Y-119102095D01*
X225004380Y-118721142D01*
X225052000Y-118625904D01*
X225099619Y-118578285D01*
X225194857Y-118530666D01*
X225337714Y-118530666D01*
X225432952Y-118578285D01*
X225480571Y-118625904D01*
X225528190Y-118721142D01*
X225528190Y-119102095D01*
X225099619Y-118149714D02*
X225052000Y-118102095D01*
X225004380Y-118006857D01*
X225004380Y-117768761D01*
X225052000Y-117673523D01*
X225099619Y-117625904D01*
X225194857Y-117578285D01*
X225290095Y-117578285D01*
X225432952Y-117625904D01*
X226004380Y-118197333D01*
X226004380Y-117578285D01*
X225274142Y-115529809D02*
X225321761Y-115577428D01*
X225369380Y-115720285D01*
X225369380Y-115815523D01*
X225321761Y-115958380D01*
X225226523Y-116053619D01*
X225131285Y-116101238D01*
X224940809Y-116148857D01*
X224797952Y-116148857D01*
X224607476Y-116101238D01*
X224512238Y-116053619D01*
X224417000Y-115958380D01*
X224369380Y-115815523D01*
X224369380Y-115720285D01*
X224417000Y-115577428D01*
X224464619Y-115529809D01*
X224369380Y-114910761D02*
X224369380Y-114720285D01*
X224417000Y-114625047D01*
X224512238Y-114529809D01*
X224702714Y-114482190D01*
X225036047Y-114482190D01*
X225226523Y-114529809D01*
X225321761Y-114625047D01*
X225369380Y-114720285D01*
X225369380Y-114910761D01*
X225321761Y-115006000D01*
X225226523Y-115101238D01*
X225036047Y-115148857D01*
X224702714Y-115148857D01*
X224512238Y-115101238D01*
X224417000Y-115006000D01*
X224369380Y-114910761D01*
X225369380Y-114053619D02*
X224369380Y-114053619D01*
X225369380Y-113482190D01*
X224369380Y-113482190D01*
X225369380Y-113006000D02*
X224369380Y-113006000D01*
X225369380Y-112434571D01*
X224369380Y-112434571D01*
X225464619Y-112196476D02*
X225464619Y-111434571D01*
X224369380Y-111006000D02*
X224369380Y-110910761D01*
X224417000Y-110815523D01*
X224464619Y-110767904D01*
X224559857Y-110720285D01*
X224750333Y-110672666D01*
X224988428Y-110672666D01*
X225178904Y-110720285D01*
X225274142Y-110767904D01*
X225321761Y-110815523D01*
X225369380Y-110910761D01*
X225369380Y-111006000D01*
X225321761Y-111101238D01*
X225274142Y-111148857D01*
X225178904Y-111196476D01*
X224988428Y-111244095D01*
X224750333Y-111244095D01*
X224559857Y-111196476D01*
X224464619Y-111148857D01*
X224417000Y-111101238D01*
X224369380Y-111006000D01*
X225369380Y-109720285D02*
X225369380Y-110291714D01*
X225369380Y-110006000D02*
X224369380Y-110006000D01*
X224512238Y-110101238D01*
X224607476Y-110196476D01*
X224655095Y-110291714D01*
X224369380Y-109386952D02*
X225369380Y-108720285D01*
X224369380Y-108720285D02*
X225369380Y-109386952D01*
X224369380Y-108148857D02*
X224369380Y-108053619D01*
X224417000Y-107958380D01*
X224464619Y-107910761D01*
X224559857Y-107863142D01*
X224750333Y-107815523D01*
X224988428Y-107815523D01*
X225178904Y-107863142D01*
X225274142Y-107910761D01*
X225321761Y-107958380D01*
X225369380Y-108053619D01*
X225369380Y-108148857D01*
X225321761Y-108244095D01*
X225274142Y-108291714D01*
X225178904Y-108339333D01*
X224988428Y-108386952D01*
X224750333Y-108386952D01*
X224559857Y-108339333D01*
X224464619Y-108291714D01*
X224417000Y-108244095D01*
X224369380Y-108148857D01*
X224369380Y-106910761D02*
X224369380Y-107386952D01*
X224845571Y-107434571D01*
X224797952Y-107386952D01*
X224750333Y-107291714D01*
X224750333Y-107053619D01*
X224797952Y-106958380D01*
X224845571Y-106910761D01*
X224940809Y-106863142D01*
X225178904Y-106863142D01*
X225274142Y-106910761D01*
X225321761Y-106958380D01*
X225369380Y-107053619D01*
X225369380Y-107291714D01*
X225321761Y-107386952D01*
X225274142Y-107434571D01*
%TO.C,P6*%
X211224904Y-147432380D02*
X211224904Y-146432380D01*
X211605857Y-146432380D01*
X211701095Y-146480000D01*
X211748714Y-146527619D01*
X211796333Y-146622857D01*
X211796333Y-146765714D01*
X211748714Y-146860952D01*
X211701095Y-146908571D01*
X211605857Y-146956190D01*
X211224904Y-146956190D01*
X212653476Y-146432380D02*
X212463000Y-146432380D01*
X212367761Y-146480000D01*
X212320142Y-146527619D01*
X212224904Y-146670476D01*
X212177285Y-146860952D01*
X212177285Y-147241904D01*
X212224904Y-147337142D01*
X212272523Y-147384761D01*
X212367761Y-147432380D01*
X212558238Y-147432380D01*
X212653476Y-147384761D01*
X212701095Y-147337142D01*
X212748714Y-147241904D01*
X212748714Y-147003809D01*
X212701095Y-146908571D01*
X212653476Y-146860952D01*
X212558238Y-146813333D01*
X212367761Y-146813333D01*
X212272523Y-146860952D01*
X212224904Y-146908571D01*
X212177285Y-147003809D01*
%TO.C,P7*%
X133040380Y-90654095D02*
X132040380Y-90654095D01*
X132040380Y-90273142D01*
X132088000Y-90177904D01*
X132135619Y-90130285D01*
X132230857Y-90082666D01*
X132373714Y-90082666D01*
X132468952Y-90130285D01*
X132516571Y-90177904D01*
X132564190Y-90273142D01*
X132564190Y-90654095D01*
X132040380Y-89749333D02*
X132040380Y-89082666D01*
X133040380Y-89511238D01*
X131675142Y-100861309D02*
X131722761Y-100908928D01*
X131770380Y-101051785D01*
X131770380Y-101147023D01*
X131722761Y-101289880D01*
X131627523Y-101385119D01*
X131532285Y-101432738D01*
X131341809Y-101480357D01*
X131198952Y-101480357D01*
X131008476Y-101432738D01*
X130913238Y-101385119D01*
X130818000Y-101289880D01*
X130770380Y-101147023D01*
X130770380Y-101051785D01*
X130818000Y-100908928D01*
X130865619Y-100861309D01*
X130770380Y-100242261D02*
X130770380Y-100051785D01*
X130818000Y-99956547D01*
X130913238Y-99861309D01*
X131103714Y-99813690D01*
X131437047Y-99813690D01*
X131627523Y-99861309D01*
X131722761Y-99956547D01*
X131770380Y-100051785D01*
X131770380Y-100242261D01*
X131722761Y-100337500D01*
X131627523Y-100432738D01*
X131437047Y-100480357D01*
X131103714Y-100480357D01*
X130913238Y-100432738D01*
X130818000Y-100337500D01*
X130770380Y-100242261D01*
X131770380Y-99385119D02*
X130770380Y-99385119D01*
X131770380Y-98813690D01*
X130770380Y-98813690D01*
X131770380Y-98337500D02*
X130770380Y-98337500D01*
X131770380Y-97766071D01*
X130770380Y-97766071D01*
X131865619Y-97527976D02*
X131865619Y-96766071D01*
X130770380Y-96337500D02*
X130770380Y-96242261D01*
X130818000Y-96147023D01*
X130865619Y-96099404D01*
X130960857Y-96051785D01*
X131151333Y-96004166D01*
X131389428Y-96004166D01*
X131579904Y-96051785D01*
X131675142Y-96099404D01*
X131722761Y-96147023D01*
X131770380Y-96242261D01*
X131770380Y-96337500D01*
X131722761Y-96432738D01*
X131675142Y-96480357D01*
X131579904Y-96527976D01*
X131389428Y-96575595D01*
X131151333Y-96575595D01*
X130960857Y-96527976D01*
X130865619Y-96480357D01*
X130818000Y-96432738D01*
X130770380Y-96337500D01*
X131770380Y-95051785D02*
X131770380Y-95623214D01*
X131770380Y-95337500D02*
X130770380Y-95337500D01*
X130913238Y-95432738D01*
X131008476Y-95527976D01*
X131056095Y-95623214D01*
X130770380Y-94718452D02*
X131770380Y-94051785D01*
X130770380Y-94051785D02*
X131770380Y-94718452D01*
X130770380Y-93480357D02*
X130770380Y-93385119D01*
X130818000Y-93289880D01*
X130865619Y-93242261D01*
X130960857Y-93194642D01*
X131151333Y-93147023D01*
X131389428Y-93147023D01*
X131579904Y-93194642D01*
X131675142Y-93242261D01*
X131722761Y-93289880D01*
X131770380Y-93385119D01*
X131770380Y-93480357D01*
X131722761Y-93575595D01*
X131675142Y-93623214D01*
X131579904Y-93670833D01*
X131389428Y-93718452D01*
X131151333Y-93718452D01*
X130960857Y-93670833D01*
X130865619Y-93623214D01*
X130818000Y-93575595D01*
X130770380Y-93480357D01*
X130770380Y-92242261D02*
X130770380Y-92718452D01*
X131246571Y-92766071D01*
X131198952Y-92718452D01*
X131151333Y-92623214D01*
X131151333Y-92385119D01*
X131198952Y-92289880D01*
X131246571Y-92242261D01*
X131341809Y-92194642D01*
X131579904Y-92194642D01*
X131675142Y-92242261D01*
X131722761Y-92289880D01*
X131770380Y-92385119D01*
X131770380Y-92623214D01*
X131722761Y-92718452D01*
X131675142Y-92766071D01*
%TO.C,Q9*%
D16*
X203078720Y-95455229D02*
X203031101Y-95431420D01*
X202983482Y-95383800D01*
X202912054Y-95312372D01*
X202864435Y-95288562D01*
X202816816Y-95288562D01*
X202840625Y-95407610D02*
X202793006Y-95383800D01*
X202745387Y-95336181D01*
X202721578Y-95240943D01*
X202721578Y-95074277D01*
X202745387Y-94979039D01*
X202793006Y-94931420D01*
X202840625Y-94907610D01*
X202935863Y-94907610D01*
X202983482Y-94931420D01*
X203031101Y-94979039D01*
X203054911Y-95074277D01*
X203054911Y-95240943D01*
X203031101Y-95336181D01*
X202983482Y-95383800D01*
X202935863Y-95407610D01*
X202840625Y-95407610D01*
X203293006Y-95407610D02*
X203388244Y-95407610D01*
X203435863Y-95383800D01*
X203459673Y-95359991D01*
X203507292Y-95288562D01*
X203531101Y-95193324D01*
X203531101Y-95002848D01*
X203507292Y-94955229D01*
X203483482Y-94931420D01*
X203435863Y-94907610D01*
X203340625Y-94907610D01*
X203293006Y-94931420D01*
X203269197Y-94955229D01*
X203245387Y-95002848D01*
X203245387Y-95121896D01*
X203269197Y-95169515D01*
X203293006Y-95193324D01*
X203340625Y-95217134D01*
X203435863Y-95217134D01*
X203483482Y-95193324D01*
X203507292Y-95169515D01*
X203531101Y-95121896D01*
X218468070Y-100729206D02*
X217968070Y-100729206D01*
X218468070Y-100205397D02*
X218229975Y-100372063D01*
X218468070Y-100491111D02*
X217968070Y-100491111D01*
X217968070Y-100300635D01*
X217991880Y-100253016D01*
X218015689Y-100229206D01*
X218063308Y-100205397D01*
X218134737Y-100205397D01*
X218182356Y-100229206D01*
X218206165Y-100253016D01*
X218229975Y-100300635D01*
X218229975Y-100491111D01*
X218468070Y-99753016D02*
X218468070Y-99991111D01*
X217968070Y-99991111D01*
X217968070Y-99633968D02*
X217968070Y-99300635D01*
X218468070Y-99633968D01*
X218468070Y-99300635D01*
X218134737Y-98895873D02*
X218468070Y-98895873D01*
X217944260Y-99014920D02*
X218301403Y-99133968D01*
X218301403Y-98824444D01*
X218134737Y-98419682D02*
X218468070Y-98419682D01*
X217944260Y-98538730D02*
X218301403Y-98657778D01*
X218301403Y-98348254D01*
X218468070Y-98157778D02*
X217968070Y-98157778D01*
X218468070Y-97872063D01*
X217968070Y-97872063D01*
X218444260Y-97657778D02*
X218468070Y-97586349D01*
X218468070Y-97467301D01*
X218444260Y-97419682D01*
X218420451Y-97395873D01*
X218372832Y-97372063D01*
X218325213Y-97372063D01*
X218277594Y-97395873D01*
X218253784Y-97419682D01*
X218229975Y-97467301D01*
X218206165Y-97562540D01*
X218182356Y-97610159D01*
X218158546Y-97633968D01*
X218110927Y-97657778D01*
X218063308Y-97657778D01*
X218015689Y-97633968D01*
X217991880Y-97610159D01*
X217968070Y-97562540D01*
X217968070Y-97443492D01*
X217991880Y-97372063D01*
%TO.C,Q10*%
X156441945Y-119976389D02*
X156394326Y-119952580D01*
X156346707Y-119904960D01*
X156275279Y-119833532D01*
X156227660Y-119809722D01*
X156180040Y-119809722D01*
X156203850Y-119928770D02*
X156156231Y-119904960D01*
X156108612Y-119857341D01*
X156084802Y-119762103D01*
X156084802Y-119595437D01*
X156108612Y-119500199D01*
X156156231Y-119452580D01*
X156203850Y-119428770D01*
X156299088Y-119428770D01*
X156346707Y-119452580D01*
X156394326Y-119500199D01*
X156418136Y-119595437D01*
X156418136Y-119762103D01*
X156394326Y-119857341D01*
X156346707Y-119904960D01*
X156299088Y-119928770D01*
X156203850Y-119928770D01*
X156894326Y-119928770D02*
X156608612Y-119928770D01*
X156751469Y-119928770D02*
X156751469Y-119428770D01*
X156703850Y-119500199D01*
X156656231Y-119547818D01*
X156608612Y-119571627D01*
X157203850Y-119428770D02*
X157251469Y-119428770D01*
X157299088Y-119452580D01*
X157322898Y-119476389D01*
X157346707Y-119524008D01*
X157370517Y-119619246D01*
X157370517Y-119738294D01*
X157346707Y-119833532D01*
X157322898Y-119881151D01*
X157299088Y-119904960D01*
X157251469Y-119928770D01*
X157203850Y-119928770D01*
X157156231Y-119904960D01*
X157132421Y-119881151D01*
X157108612Y-119833532D01*
X157084802Y-119738294D01*
X157084802Y-119619246D01*
X157108612Y-119524008D01*
X157132421Y-119476389D01*
X157156231Y-119452580D01*
X157203850Y-119428770D01*
X141838310Y-117488126D02*
X141338310Y-117488126D01*
X141838310Y-116964317D02*
X141600215Y-117130983D01*
X141838310Y-117250031D02*
X141338310Y-117250031D01*
X141338310Y-117059555D01*
X141362120Y-117011936D01*
X141385929Y-116988126D01*
X141433548Y-116964317D01*
X141504977Y-116964317D01*
X141552596Y-116988126D01*
X141576405Y-117011936D01*
X141600215Y-117059555D01*
X141600215Y-117250031D01*
X141838310Y-116511936D02*
X141838310Y-116750031D01*
X141338310Y-116750031D01*
X141338310Y-116392888D02*
X141338310Y-116059555D01*
X141838310Y-116392888D01*
X141838310Y-116059555D01*
X141504977Y-115654793D02*
X141838310Y-115654793D01*
X141314500Y-115773840D02*
X141671643Y-115892888D01*
X141671643Y-115583364D01*
X141504977Y-115178602D02*
X141838310Y-115178602D01*
X141314500Y-115297650D02*
X141671643Y-115416698D01*
X141671643Y-115107174D01*
X141838310Y-114916698D02*
X141338310Y-114916698D01*
X141838310Y-114630983D01*
X141338310Y-114630983D01*
X141814500Y-114416698D02*
X141838310Y-114345269D01*
X141838310Y-114226221D01*
X141814500Y-114178602D01*
X141790691Y-114154793D01*
X141743072Y-114130983D01*
X141695453Y-114130983D01*
X141647834Y-114154793D01*
X141624024Y-114178602D01*
X141600215Y-114226221D01*
X141576405Y-114321460D01*
X141552596Y-114369079D01*
X141528786Y-114392888D01*
X141481167Y-114416698D01*
X141433548Y-114416698D01*
X141385929Y-114392888D01*
X141362120Y-114369079D01*
X141338310Y-114321460D01*
X141338310Y-114202412D01*
X141362120Y-114130983D01*
%TO.C,Q13*%
X202776625Y-106821229D02*
X202729006Y-106797420D01*
X202681387Y-106749800D01*
X202609959Y-106678372D01*
X202562340Y-106654562D01*
X202514720Y-106654562D01*
X202538530Y-106773610D02*
X202490911Y-106749800D01*
X202443292Y-106702181D01*
X202419482Y-106606943D01*
X202419482Y-106440277D01*
X202443292Y-106345039D01*
X202490911Y-106297420D01*
X202538530Y-106273610D01*
X202633768Y-106273610D01*
X202681387Y-106297420D01*
X202729006Y-106345039D01*
X202752816Y-106440277D01*
X202752816Y-106606943D01*
X202729006Y-106702181D01*
X202681387Y-106749800D01*
X202633768Y-106773610D01*
X202538530Y-106773610D01*
X203229006Y-106773610D02*
X202943292Y-106773610D01*
X203086149Y-106773610D02*
X203086149Y-106273610D01*
X203038530Y-106345039D01*
X202990911Y-106392658D01*
X202943292Y-106416467D01*
X203395673Y-106273610D02*
X203705197Y-106273610D01*
X203538530Y-106464086D01*
X203609959Y-106464086D01*
X203657578Y-106487896D01*
X203681387Y-106511705D01*
X203705197Y-106559324D01*
X203705197Y-106678372D01*
X203681387Y-106725991D01*
X203657578Y-106749800D01*
X203609959Y-106773610D01*
X203467101Y-106773610D01*
X203419482Y-106749800D01*
X203395673Y-106725991D01*
X218404070Y-112095206D02*
X217904070Y-112095206D01*
X218404070Y-111571397D02*
X218165975Y-111738063D01*
X218404070Y-111857111D02*
X217904070Y-111857111D01*
X217904070Y-111666635D01*
X217927880Y-111619016D01*
X217951689Y-111595206D01*
X217999308Y-111571397D01*
X218070737Y-111571397D01*
X218118356Y-111595206D01*
X218142165Y-111619016D01*
X218165975Y-111666635D01*
X218165975Y-111857111D01*
X218404070Y-111119016D02*
X218404070Y-111357111D01*
X217904070Y-111357111D01*
X217904070Y-110999968D02*
X217904070Y-110666635D01*
X218404070Y-110999968D01*
X218404070Y-110666635D01*
X218070737Y-110261873D02*
X218404070Y-110261873D01*
X217880260Y-110380920D02*
X218237403Y-110499968D01*
X218237403Y-110190444D01*
X218070737Y-109785682D02*
X218404070Y-109785682D01*
X217880260Y-109904730D02*
X218237403Y-110023778D01*
X218237403Y-109714254D01*
X218404070Y-109523778D02*
X217904070Y-109523778D01*
X218404070Y-109238063D01*
X217904070Y-109238063D01*
X218380260Y-109023778D02*
X218404070Y-108952349D01*
X218404070Y-108833301D01*
X218380260Y-108785682D01*
X218356451Y-108761873D01*
X218308832Y-108738063D01*
X218261213Y-108738063D01*
X218213594Y-108761873D01*
X218189784Y-108785682D01*
X218165975Y-108833301D01*
X218142165Y-108928540D01*
X218118356Y-108976159D01*
X218094546Y-108999968D01*
X218046927Y-109023778D01*
X217999308Y-109023778D01*
X217951689Y-108999968D01*
X217927880Y-108976159D01*
X217904070Y-108928540D01*
X217904070Y-108809492D01*
X217927880Y-108738063D01*
%TO.C,Q14*%
X156441945Y-108102389D02*
X156394326Y-108078580D01*
X156346707Y-108030960D01*
X156275279Y-107959532D01*
X156227660Y-107935722D01*
X156180040Y-107935722D01*
X156203850Y-108054770D02*
X156156231Y-108030960D01*
X156108612Y-107983341D01*
X156084802Y-107888103D01*
X156084802Y-107721437D01*
X156108612Y-107626199D01*
X156156231Y-107578580D01*
X156203850Y-107554770D01*
X156299088Y-107554770D01*
X156346707Y-107578580D01*
X156394326Y-107626199D01*
X156418136Y-107721437D01*
X156418136Y-107888103D01*
X156394326Y-107983341D01*
X156346707Y-108030960D01*
X156299088Y-108054770D01*
X156203850Y-108054770D01*
X156894326Y-108054770D02*
X156608612Y-108054770D01*
X156751469Y-108054770D02*
X156751469Y-107554770D01*
X156703850Y-107626199D01*
X156656231Y-107673818D01*
X156608612Y-107697627D01*
X157322898Y-107721437D02*
X157322898Y-108054770D01*
X157203850Y-107530960D02*
X157084802Y-107888103D01*
X157394326Y-107888103D01*
X141838310Y-105614126D02*
X141338310Y-105614126D01*
X141838310Y-105090317D02*
X141600215Y-105256983D01*
X141838310Y-105376031D02*
X141338310Y-105376031D01*
X141338310Y-105185555D01*
X141362120Y-105137936D01*
X141385929Y-105114126D01*
X141433548Y-105090317D01*
X141504977Y-105090317D01*
X141552596Y-105114126D01*
X141576405Y-105137936D01*
X141600215Y-105185555D01*
X141600215Y-105376031D01*
X141838310Y-104637936D02*
X141838310Y-104876031D01*
X141338310Y-104876031D01*
X141338310Y-104518888D02*
X141338310Y-104185555D01*
X141838310Y-104518888D01*
X141838310Y-104185555D01*
X141504977Y-103780793D02*
X141838310Y-103780793D01*
X141314500Y-103899840D02*
X141671643Y-104018888D01*
X141671643Y-103709364D01*
X141504977Y-103304602D02*
X141838310Y-103304602D01*
X141314500Y-103423650D02*
X141671643Y-103542698D01*
X141671643Y-103233174D01*
X141838310Y-103042698D02*
X141338310Y-103042698D01*
X141838310Y-102756983D01*
X141338310Y-102756983D01*
X141814500Y-102542698D02*
X141838310Y-102471269D01*
X141838310Y-102352221D01*
X141814500Y-102304602D01*
X141790691Y-102280793D01*
X141743072Y-102256983D01*
X141695453Y-102256983D01*
X141647834Y-102280793D01*
X141624024Y-102304602D01*
X141600215Y-102352221D01*
X141576405Y-102447460D01*
X141552596Y-102495079D01*
X141528786Y-102518888D01*
X141481167Y-102542698D01*
X141433548Y-102542698D01*
X141385929Y-102518888D01*
X141362120Y-102495079D01*
X141338310Y-102447460D01*
X141338310Y-102328412D01*
X141362120Y-102256983D01*
%TO.C,R1*%
D10*
X171779333Y-128394380D02*
X171446000Y-127918190D01*
X171207904Y-128394380D02*
X171207904Y-127394380D01*
X171588857Y-127394380D01*
X171684095Y-127442000D01*
X171731714Y-127489619D01*
X171779333Y-127584857D01*
X171779333Y-127727714D01*
X171731714Y-127822952D01*
X171684095Y-127870571D01*
X171588857Y-127918190D01*
X171207904Y-127918190D01*
X172731714Y-128394380D02*
X172160285Y-128394380D01*
X172446000Y-128394380D02*
X172446000Y-127394380D01*
X172350761Y-127537238D01*
X172255523Y-127632476D01*
X172160285Y-127680095D01*
%TO.C,U1*%
X195245095Y-127818380D02*
X195245095Y-128627904D01*
X195292714Y-128723142D01*
X195340333Y-128770761D01*
X195435571Y-128818380D01*
X195626047Y-128818380D01*
X195721285Y-128770761D01*
X195768904Y-128723142D01*
X195816523Y-128627904D01*
X195816523Y-127818380D01*
X196816523Y-128818380D02*
X196245095Y-128818380D01*
X196530809Y-128818380D02*
X196530809Y-127818380D01*
X196435571Y-127961238D01*
X196340333Y-128056476D01*
X196245095Y-128104095D01*
%TO.C,J3*%
D17*
X192807260Y-147693355D02*
X192807260Y-148406370D01*
X192759725Y-148548972D01*
X192664657Y-148644041D01*
X192522054Y-148691575D01*
X192426985Y-148691575D01*
X193187534Y-147693355D02*
X193805480Y-147693355D01*
X193472740Y-148073630D01*
X193615342Y-148073630D01*
X193710411Y-148121164D01*
X193757945Y-148168698D01*
X193805480Y-148263767D01*
X193805480Y-148501438D01*
X193757945Y-148596507D01*
X193710411Y-148644041D01*
X193615342Y-148691575D01*
X193330137Y-148691575D01*
X193235068Y-148644041D01*
X193187534Y-148596507D01*
X188595544Y-163893355D02*
X188595544Y-164606370D01*
X188548010Y-164748972D01*
X188452941Y-164844041D01*
X188310338Y-164891575D01*
X188215270Y-164891575D01*
X189023352Y-164606370D02*
X189498695Y-164606370D01*
X188928284Y-164891575D02*
X189261024Y-163893355D01*
X189593764Y-164891575D01*
X190496915Y-164796507D02*
X190449381Y-164844041D01*
X190306778Y-164891575D01*
X190211710Y-164891575D01*
X190069107Y-164844041D01*
X189974038Y-164748972D01*
X189926504Y-164653904D01*
X189878970Y-164463767D01*
X189878970Y-164321164D01*
X189926504Y-164131027D01*
X189974038Y-164035958D01*
X190069107Y-163940890D01*
X190211710Y-163893355D01*
X190306778Y-163893355D01*
X190449381Y-163940890D01*
X190496915Y-163988424D01*
X190924724Y-164891575D02*
X190924724Y-163893355D01*
X191495135Y-164891575D02*
X191067327Y-164321164D01*
X191495135Y-163893355D02*
X190924724Y-164463767D01*
X191685272Y-164986644D02*
X192445821Y-164986644D01*
X192635958Y-164844041D02*
X192778561Y-164891575D01*
X193016232Y-164891575D01*
X193111301Y-164844041D01*
X193158835Y-164796507D01*
X193206370Y-164701438D01*
X193206370Y-164606370D01*
X193158835Y-164511301D01*
X193111301Y-164463767D01*
X193016232Y-164416232D01*
X192826095Y-164368698D01*
X192731027Y-164321164D01*
X192683492Y-164273630D01*
X192635958Y-164178561D01*
X192635958Y-164083492D01*
X192683492Y-163988424D01*
X192731027Y-163940890D01*
X192826095Y-163893355D01*
X193063767Y-163893355D01*
X193206370Y-163940890D01*
X193491575Y-163893355D02*
X194061987Y-163893355D01*
X193776781Y-164891575D02*
X193776781Y-163893355D01*
X194394727Y-164368698D02*
X194727467Y-164368698D01*
X194870070Y-164891575D02*
X194394727Y-164891575D01*
X194394727Y-163893355D01*
X194870070Y-163893355D01*
X195868290Y-164891575D02*
X195535550Y-164416232D01*
X195297878Y-164891575D02*
X195297878Y-163893355D01*
X195678152Y-163893355D01*
X195773221Y-163940890D01*
X195820755Y-163988424D01*
X195868290Y-164083492D01*
X195868290Y-164226095D01*
X195820755Y-164321164D01*
X195773221Y-164368698D01*
X195678152Y-164416232D01*
X195297878Y-164416232D01*
X196296098Y-164368698D02*
X196628838Y-164368698D01*
X196771441Y-164891575D02*
X196296098Y-164891575D01*
X196296098Y-163893355D01*
X196771441Y-163893355D01*
X197389387Y-163893355D02*
X197579524Y-163893355D01*
X197674592Y-163940890D01*
X197769661Y-164035958D01*
X197817195Y-164226095D01*
X197817195Y-164558835D01*
X197769661Y-164748972D01*
X197674592Y-164844041D01*
X197579524Y-164891575D01*
X197389387Y-164891575D01*
X197294318Y-164844041D01*
X197199250Y-164748972D01*
X197151715Y-164558835D01*
X197151715Y-164226095D01*
X197199250Y-164035958D01*
X197294318Y-163940890D01*
X197389387Y-163893355D01*
%TD*%
M02*
