G04 #@! TF.FileFunction,Soldermask,Top*
%FSLAX46Y46*%
G04 Gerber Fmt 4.6, Leading zero omitted, Abs format (unit mm)*
G04 Created by KiCad (PCBNEW 4.0.4-stable) date 03/10/17 08:23:15*
%MOMM*%
%LPD*%
G01*
G04 APERTURE LIST*
%ADD10C,0.100000*%
%ADD11R,0.410000X1.160000*%
%ADD12R,1.160000X0.410000*%
%ADD13R,1.360000X3.960000*%
%ADD14R,10.650000X8.540000*%
%ADD15R,1.430000X3.760000*%
%ADD16R,1.660000X4.160000*%
%ADD17C,1.060000*%
%ADD18C,2.060000*%
%ADD19R,0.760000X2.260000*%
%ADD20R,3.660120X3.660120*%
%ADD21C,3.360000*%
%ADD22R,4.160000X2.660000*%
%ADD23R,0.960000X0.910000*%
%ADD24R,0.910000X0.960000*%
%ADD25C,2.660000*%
%ADD26R,1.860000X1.860000*%
%ADD27O,1.860000X1.860000*%
%ADD28R,3.960000X1.360000*%
%ADD29R,8.540000X10.650000*%
%ADD30R,0.660000X1.060000*%
%ADD31R,3.660000X2.160000*%
%ADD32R,7.160000X7.160000*%
%ADD33C,1.660000*%
%ADD34R,1.660000X1.660000*%
G04 APERTURE END LIST*
D10*
D11*
X176590000Y-109840000D03*
X177090000Y-109840000D03*
X177590000Y-109840000D03*
X178090000Y-109840000D03*
X178590000Y-109840000D03*
X179090000Y-109840000D03*
X179590000Y-109840000D03*
X180090000Y-109840000D03*
X180590000Y-109840000D03*
X181090000Y-109840000D03*
X181590000Y-109840000D03*
X182090000Y-109840000D03*
X182590000Y-109840000D03*
X183090000Y-109840000D03*
X183590000Y-109840000D03*
X184090000Y-109840000D03*
D12*
X186040000Y-107890000D03*
X186040000Y-107390000D03*
X186040000Y-106890000D03*
X186040000Y-106390000D03*
X186040000Y-105890000D03*
X186040000Y-105390000D03*
X186040000Y-104890000D03*
X186040000Y-104390000D03*
X186040000Y-103890000D03*
X186040000Y-103390000D03*
X186040000Y-102890000D03*
X186040000Y-102390000D03*
X186040000Y-101890000D03*
X186040000Y-101390000D03*
X186040000Y-100890000D03*
X186040000Y-100390000D03*
D11*
X184090000Y-98440000D03*
X183590000Y-98440000D03*
X183090000Y-98440000D03*
X182590000Y-98440000D03*
X182090000Y-98440000D03*
X181590000Y-98440000D03*
X181090000Y-98440000D03*
X180590000Y-98440000D03*
X180090000Y-98440000D03*
X179590000Y-98440000D03*
X179090000Y-98440000D03*
X178590000Y-98440000D03*
X178090000Y-98440000D03*
X177590000Y-98440000D03*
X177090000Y-98440000D03*
X176590000Y-98440000D03*
D12*
X174640000Y-100390000D03*
X174640000Y-100890000D03*
X174640000Y-101390000D03*
X174640000Y-101890000D03*
X174640000Y-102390000D03*
X174640000Y-102890000D03*
X174640000Y-103390000D03*
X174640000Y-103890000D03*
X174640000Y-104390000D03*
X174640000Y-104890000D03*
X174640000Y-105390000D03*
X174640000Y-105890000D03*
X174640000Y-106390000D03*
X174640000Y-106890000D03*
X174640000Y-107390000D03*
X174640000Y-107890000D03*
D13*
X205550000Y-88191000D03*
X200470000Y-88191000D03*
D14*
X203010000Y-77978000D03*
D15*
X158178000Y-135978000D03*
X160718000Y-135978000D03*
X163258000Y-135978000D03*
X165798000Y-135978000D03*
X165798000Y-129578000D03*
X163258000Y-129578000D03*
X160718000Y-129578000D03*
X158178000Y-129578000D03*
X168338000Y-135978000D03*
X168338000Y-129578000D03*
D16*
X145036000Y-157106000D03*
D17*
X145036000Y-157106000D03*
D18*
X147636000Y-150366000D03*
X159626000Y-150366000D03*
D19*
X157236000Y-150126000D03*
X156216000Y-150126000D03*
X155196000Y-150126000D03*
X154176000Y-150126000D03*
X153156000Y-150126000D03*
X152136000Y-150126000D03*
X151116000Y-150126000D03*
X150096000Y-150126000D03*
D17*
X162136000Y-157106000D03*
D16*
X162136000Y-157106000D03*
D20*
X139931140Y-83312000D03*
X133931660Y-83312000D03*
X136931400Y-88011000D03*
D21*
X138000000Y-155000000D03*
X222000000Y-155000000D03*
X222000000Y-69500000D03*
D22*
X186502000Y-130366000D03*
X180402000Y-130366000D03*
D23*
X183503000Y-115252000D03*
X182003000Y-115252000D03*
X183503000Y-113728000D03*
X182003000Y-113728000D03*
D24*
X190119000Y-99770000D03*
X190119000Y-101270000D03*
X171514000Y-108890000D03*
X171514000Y-107390000D03*
D16*
X165356000Y-157106000D03*
D17*
X165356000Y-157106000D03*
D18*
X167956000Y-150366000D03*
X179946000Y-150366000D03*
D19*
X177556000Y-150126000D03*
X176536000Y-150126000D03*
X175516000Y-150126000D03*
X174496000Y-150126000D03*
X173476000Y-150126000D03*
X172456000Y-150126000D03*
X171436000Y-150126000D03*
X170416000Y-150126000D03*
D17*
X182456000Y-157106000D03*
D16*
X182456000Y-157106000D03*
D25*
X190500000Y-68921000D03*
X195580000Y-68921000D03*
X200660000Y-68921000D03*
X205740000Y-68921000D03*
X210820000Y-68961000D03*
X149352000Y-68921000D03*
X154432000Y-68921000D03*
X163322000Y-68921000D03*
X168402000Y-68921000D03*
X173482000Y-68921000D03*
X178562000Y-68921000D03*
X183642000Y-68961000D03*
D13*
X194056000Y-88191000D03*
X188976000Y-88191000D03*
D14*
X191516000Y-77978000D03*
D13*
X164338000Y-87873500D03*
X159258000Y-87873500D03*
D14*
X161798000Y-77660500D03*
D13*
X175958000Y-87873500D03*
X170878000Y-87873500D03*
D14*
X173418000Y-77660500D03*
D21*
X138000000Y-69500000D03*
D25*
X222290000Y-93980000D03*
X222290000Y-99060000D03*
X222290000Y-104140000D03*
X222290000Y-109220000D03*
X222250000Y-114300000D03*
D26*
X211963000Y-144590000D03*
D27*
X211963000Y-142050000D03*
X211963000Y-139510000D03*
X211963000Y-136970000D03*
X211963000Y-134430000D03*
D25*
X135850000Y-114300000D03*
X135850000Y-109220000D03*
X135850000Y-104140000D03*
X135850000Y-99060000D03*
X135890000Y-93980000D03*
D28*
X203147000Y-101600000D03*
X203147000Y-96520000D03*
D29*
X213360000Y-99060000D03*
D28*
X156707000Y-113284000D03*
X156707000Y-118364000D03*
D29*
X146494000Y-115824000D03*
D28*
X203083000Y-112966000D03*
X203083000Y-107886000D03*
D29*
X213296000Y-110426000D03*
D28*
X156707000Y-101410000D03*
X156707000Y-106490000D03*
D29*
X146494000Y-103950000D03*
D30*
X184543000Y-138049000D03*
X186043000Y-138049000D03*
D31*
X192007000Y-130616000D03*
X192007000Y-135196000D03*
D32*
X199407000Y-132916000D03*
D33*
X193040000Y-158190000D03*
X193040000Y-152190000D03*
D34*
X189740000Y-158890000D03*
X189740000Y-152190000D03*
X189740000Y-155690000D03*
X196340000Y-158890000D03*
X196340000Y-155690000D03*
X196340000Y-152190000D03*
M02*
