%TF.GenerationSoftware,KiCad,Pcbnew,(5.0.1)-3*%
%TF.CreationDate,2018-12-23T11:37:47+11:00*%
%TF.ProjectId,1Wire-LEDController,31576972652D4C4544436F6E74726F6C,1.2*%
%TF.SameCoordinates,Original*%
%TF.FileFunction,Legend,Bot*%
%TF.FilePolarity,Positive*%
%FSLAX46Y46*%
G04 Gerber Fmt 4.6, Leading zero omitted, Abs format (unit mm)*
G04 Created by KiCad (PCBNEW (5.0.1)-3) date 23/12/2018 11:37:47 AM*
%MOMM*%
%LPD*%
G01*
G04 APERTURE LIST*
%ADD10C,0.125000*%
G04 APERTURE END LIST*
%TO.C,Q8*%
D10*
X184428389Y-87910040D02*
X184404580Y-87862421D01*
X184356960Y-87814802D01*
X184285532Y-87743374D01*
X184261722Y-87695755D01*
X184261722Y-87648136D01*
X184380770Y-87671945D02*
X184356960Y-87624326D01*
X184309341Y-87576707D01*
X184214103Y-87552898D01*
X184047437Y-87552898D01*
X183952199Y-87576707D01*
X183904580Y-87624326D01*
X183880770Y-87671945D01*
X183880770Y-87767183D01*
X183904580Y-87814802D01*
X183952199Y-87862421D01*
X184047437Y-87886231D01*
X184214103Y-87886231D01*
X184309341Y-87862421D01*
X184356960Y-87814802D01*
X184380770Y-87767183D01*
X184380770Y-87671945D01*
X184095056Y-88171945D02*
X184071246Y-88124326D01*
X184047437Y-88100517D01*
X183999818Y-88076707D01*
X183976008Y-88076707D01*
X183928389Y-88100517D01*
X183904580Y-88124326D01*
X183880770Y-88171945D01*
X183880770Y-88267183D01*
X183904580Y-88314802D01*
X183928389Y-88338612D01*
X183976008Y-88362421D01*
X183999818Y-88362421D01*
X184047437Y-88338612D01*
X184071246Y-88314802D01*
X184095056Y-88267183D01*
X184095056Y-88171945D01*
X184118865Y-88124326D01*
X184142675Y-88100517D01*
X184190294Y-88076707D01*
X184285532Y-88076707D01*
X184333151Y-88100517D01*
X184356960Y-88124326D01*
X184380770Y-88171945D01*
X184380770Y-88267183D01*
X184356960Y-88314802D01*
X184333151Y-88338612D01*
X184285532Y-88362421D01*
X184190294Y-88362421D01*
X184142675Y-88338612D01*
X184118865Y-88314802D01*
X184095056Y-88267183D01*
X181940126Y-73068310D02*
X181940126Y-72568310D01*
X181416317Y-73068310D02*
X181582983Y-72830215D01*
X181702031Y-73068310D02*
X181702031Y-72568310D01*
X181511555Y-72568310D01*
X181463936Y-72592120D01*
X181440126Y-72615929D01*
X181416317Y-72663548D01*
X181416317Y-72734977D01*
X181440126Y-72782596D01*
X181463936Y-72806405D01*
X181511555Y-72830215D01*
X181702031Y-72830215D01*
X180963936Y-73068310D02*
X181202031Y-73068310D01*
X181202031Y-72568310D01*
X180844888Y-72568310D02*
X180511555Y-72568310D01*
X180844888Y-73068310D01*
X180511555Y-73068310D01*
X180106793Y-72734977D02*
X180106793Y-73068310D01*
X180225840Y-72544500D02*
X180344888Y-72901643D01*
X180035364Y-72901643D01*
X179630602Y-72734977D02*
X179630602Y-73068310D01*
X179749650Y-72544500D02*
X179868698Y-72901643D01*
X179559174Y-72901643D01*
X179368698Y-73068310D02*
X179368698Y-72568310D01*
X179082983Y-73068310D01*
X179082983Y-72568310D01*
X178868698Y-73044500D02*
X178797269Y-73068310D01*
X178678221Y-73068310D01*
X178630602Y-73044500D01*
X178606793Y-73020691D01*
X178582983Y-72973072D01*
X178582983Y-72925453D01*
X178606793Y-72877834D01*
X178630602Y-72854024D01*
X178678221Y-72830215D01*
X178773460Y-72806405D01*
X178821079Y-72782596D01*
X178844888Y-72758786D01*
X178868698Y-72711167D01*
X178868698Y-72663548D01*
X178844888Y-72615929D01*
X178821079Y-72592120D01*
X178773460Y-72568310D01*
X178654412Y-72568310D01*
X178582983Y-72592120D01*
%TO.C,Q2*%
X199034389Y-88164040D02*
X199010580Y-88116421D01*
X198962960Y-88068802D01*
X198891532Y-87997374D01*
X198867722Y-87949755D01*
X198867722Y-87902136D01*
X198986770Y-87925945D02*
X198962960Y-87878326D01*
X198915341Y-87830707D01*
X198820103Y-87806898D01*
X198653437Y-87806898D01*
X198558199Y-87830707D01*
X198510580Y-87878326D01*
X198486770Y-87925945D01*
X198486770Y-88021183D01*
X198510580Y-88068802D01*
X198558199Y-88116421D01*
X198653437Y-88140231D01*
X198820103Y-88140231D01*
X198915341Y-88116421D01*
X198962960Y-88068802D01*
X198986770Y-88021183D01*
X198986770Y-87925945D01*
X198534389Y-88330707D02*
X198510580Y-88354517D01*
X198486770Y-88402136D01*
X198486770Y-88521183D01*
X198510580Y-88568802D01*
X198534389Y-88592612D01*
X198582008Y-88616421D01*
X198629627Y-88616421D01*
X198701056Y-88592612D01*
X198986770Y-88306898D01*
X198986770Y-88616421D01*
X196546126Y-73322310D02*
X196546126Y-72822310D01*
X196022317Y-73322310D02*
X196188983Y-73084215D01*
X196308031Y-73322310D02*
X196308031Y-72822310D01*
X196117555Y-72822310D01*
X196069936Y-72846120D01*
X196046126Y-72869929D01*
X196022317Y-72917548D01*
X196022317Y-72988977D01*
X196046126Y-73036596D01*
X196069936Y-73060405D01*
X196117555Y-73084215D01*
X196308031Y-73084215D01*
X195569936Y-73322310D02*
X195808031Y-73322310D01*
X195808031Y-72822310D01*
X195450888Y-72822310D02*
X195117555Y-72822310D01*
X195450888Y-73322310D01*
X195117555Y-73322310D01*
X194712793Y-72988977D02*
X194712793Y-73322310D01*
X194831840Y-72798500D02*
X194950888Y-73155643D01*
X194641364Y-73155643D01*
X194236602Y-72988977D02*
X194236602Y-73322310D01*
X194355650Y-72798500D02*
X194474698Y-73155643D01*
X194165174Y-73155643D01*
X193974698Y-73322310D02*
X193974698Y-72822310D01*
X193688983Y-73322310D01*
X193688983Y-72822310D01*
X193474698Y-73298500D02*
X193403269Y-73322310D01*
X193284221Y-73322310D01*
X193236602Y-73298500D01*
X193212793Y-73274691D01*
X193188983Y-73227072D01*
X193188983Y-73179453D01*
X193212793Y-73131834D01*
X193236602Y-73108024D01*
X193284221Y-73084215D01*
X193379460Y-73060405D01*
X193427079Y-73036596D01*
X193450888Y-73012786D01*
X193474698Y-72965167D01*
X193474698Y-72917548D01*
X193450888Y-72869929D01*
X193427079Y-72846120D01*
X193379460Y-72822310D01*
X193260412Y-72822310D01*
X193188983Y-72846120D01*
%TO.C,Q5*%
X172554389Y-87846540D02*
X172530580Y-87798921D01*
X172482960Y-87751302D01*
X172411532Y-87679874D01*
X172387722Y-87632255D01*
X172387722Y-87584636D01*
X172506770Y-87608445D02*
X172482960Y-87560826D01*
X172435341Y-87513207D01*
X172340103Y-87489398D01*
X172173437Y-87489398D01*
X172078199Y-87513207D01*
X172030580Y-87560826D01*
X172006770Y-87608445D01*
X172006770Y-87703683D01*
X172030580Y-87751302D01*
X172078199Y-87798921D01*
X172173437Y-87822731D01*
X172340103Y-87822731D01*
X172435341Y-87798921D01*
X172482960Y-87751302D01*
X172506770Y-87703683D01*
X172506770Y-87608445D01*
X172006770Y-88275112D02*
X172006770Y-88037017D01*
X172244865Y-88013207D01*
X172221056Y-88037017D01*
X172197246Y-88084636D01*
X172197246Y-88203683D01*
X172221056Y-88251302D01*
X172244865Y-88275112D01*
X172292484Y-88298921D01*
X172411532Y-88298921D01*
X172459151Y-88275112D01*
X172482960Y-88251302D01*
X172506770Y-88203683D01*
X172506770Y-88084636D01*
X172482960Y-88037017D01*
X172459151Y-88013207D01*
X170066126Y-73004810D02*
X170066126Y-72504810D01*
X169542317Y-73004810D02*
X169708983Y-72766715D01*
X169828031Y-73004810D02*
X169828031Y-72504810D01*
X169637555Y-72504810D01*
X169589936Y-72528620D01*
X169566126Y-72552429D01*
X169542317Y-72600048D01*
X169542317Y-72671477D01*
X169566126Y-72719096D01*
X169589936Y-72742905D01*
X169637555Y-72766715D01*
X169828031Y-72766715D01*
X169089936Y-73004810D02*
X169328031Y-73004810D01*
X169328031Y-72504810D01*
X168970888Y-72504810D02*
X168637555Y-72504810D01*
X168970888Y-73004810D01*
X168637555Y-73004810D01*
X168232793Y-72671477D02*
X168232793Y-73004810D01*
X168351840Y-72481000D02*
X168470888Y-72838143D01*
X168161364Y-72838143D01*
X167756602Y-72671477D02*
X167756602Y-73004810D01*
X167875650Y-72481000D02*
X167994698Y-72838143D01*
X167685174Y-72838143D01*
X167494698Y-73004810D02*
X167494698Y-72504810D01*
X167208983Y-73004810D01*
X167208983Y-72504810D01*
X166994698Y-72981000D02*
X166923269Y-73004810D01*
X166804221Y-73004810D01*
X166756602Y-72981000D01*
X166732793Y-72957191D01*
X166708983Y-72909572D01*
X166708983Y-72861953D01*
X166732793Y-72814334D01*
X166756602Y-72790524D01*
X166804221Y-72766715D01*
X166899460Y-72742905D01*
X166947079Y-72719096D01*
X166970888Y-72695286D01*
X166994698Y-72647667D01*
X166994698Y-72600048D01*
X166970888Y-72552429D01*
X166947079Y-72528620D01*
X166899460Y-72504810D01*
X166780412Y-72504810D01*
X166708983Y-72528620D01*
%TO.C,Q6*%
X210718389Y-88164040D02*
X210694580Y-88116421D01*
X210646960Y-88068802D01*
X210575532Y-87997374D01*
X210551722Y-87949755D01*
X210551722Y-87902136D01*
X210670770Y-87925945D02*
X210646960Y-87878326D01*
X210599341Y-87830707D01*
X210504103Y-87806898D01*
X210337437Y-87806898D01*
X210242199Y-87830707D01*
X210194580Y-87878326D01*
X210170770Y-87925945D01*
X210170770Y-88021183D01*
X210194580Y-88068802D01*
X210242199Y-88116421D01*
X210337437Y-88140231D01*
X210504103Y-88140231D01*
X210599341Y-88116421D01*
X210646960Y-88068802D01*
X210670770Y-88021183D01*
X210670770Y-87925945D01*
X210170770Y-88568802D02*
X210170770Y-88473564D01*
X210194580Y-88425945D01*
X210218389Y-88402136D01*
X210289818Y-88354517D01*
X210385056Y-88330707D01*
X210575532Y-88330707D01*
X210623151Y-88354517D01*
X210646960Y-88378326D01*
X210670770Y-88425945D01*
X210670770Y-88521183D01*
X210646960Y-88568802D01*
X210623151Y-88592612D01*
X210575532Y-88616421D01*
X210456484Y-88616421D01*
X210408865Y-88592612D01*
X210385056Y-88568802D01*
X210361246Y-88521183D01*
X210361246Y-88425945D01*
X210385056Y-88378326D01*
X210408865Y-88354517D01*
X210456484Y-88330707D01*
X208230126Y-73322310D02*
X208230126Y-72822310D01*
X207706317Y-73322310D02*
X207872983Y-73084215D01*
X207992031Y-73322310D02*
X207992031Y-72822310D01*
X207801555Y-72822310D01*
X207753936Y-72846120D01*
X207730126Y-72869929D01*
X207706317Y-72917548D01*
X207706317Y-72988977D01*
X207730126Y-73036596D01*
X207753936Y-73060405D01*
X207801555Y-73084215D01*
X207992031Y-73084215D01*
X207253936Y-73322310D02*
X207492031Y-73322310D01*
X207492031Y-72822310D01*
X207134888Y-72822310D02*
X206801555Y-72822310D01*
X207134888Y-73322310D01*
X206801555Y-73322310D01*
X206396793Y-72988977D02*
X206396793Y-73322310D01*
X206515840Y-72798500D02*
X206634888Y-73155643D01*
X206325364Y-73155643D01*
X205920602Y-72988977D02*
X205920602Y-73322310D01*
X206039650Y-72798500D02*
X206158698Y-73155643D01*
X205849174Y-73155643D01*
X205658698Y-73322310D02*
X205658698Y-72822310D01*
X205372983Y-73322310D01*
X205372983Y-72822310D01*
X205158698Y-73298500D02*
X205087269Y-73322310D01*
X204968221Y-73322310D01*
X204920602Y-73298500D01*
X204896793Y-73274691D01*
X204872983Y-73227072D01*
X204872983Y-73179453D01*
X204896793Y-73131834D01*
X204920602Y-73108024D01*
X204968221Y-73084215D01*
X205063460Y-73060405D01*
X205111079Y-73036596D01*
X205134888Y-73012786D01*
X205158698Y-72965167D01*
X205158698Y-72917548D01*
X205134888Y-72869929D01*
X205111079Y-72846120D01*
X205063460Y-72822310D01*
X204944412Y-72822310D01*
X204872983Y-72846120D01*
%TO.C,Q11*%
X203412054Y-108292389D02*
X203459673Y-108268580D01*
X203507292Y-108220960D01*
X203578720Y-108149532D01*
X203626340Y-108125722D01*
X203673959Y-108125722D01*
X203650149Y-108244770D02*
X203697768Y-108220960D01*
X203745387Y-108173341D01*
X203769197Y-108078103D01*
X203769197Y-107911437D01*
X203745387Y-107816199D01*
X203697768Y-107768580D01*
X203650149Y-107744770D01*
X203554911Y-107744770D01*
X203507292Y-107768580D01*
X203459673Y-107816199D01*
X203435863Y-107911437D01*
X203435863Y-108078103D01*
X203459673Y-108173341D01*
X203507292Y-108220960D01*
X203554911Y-108244770D01*
X203650149Y-108244770D01*
X202959673Y-108244770D02*
X203245387Y-108244770D01*
X203102530Y-108244770D02*
X203102530Y-107744770D01*
X203150149Y-107816199D01*
X203197768Y-107863818D01*
X203245387Y-107887627D01*
X202483482Y-108244770D02*
X202769197Y-108244770D01*
X202626340Y-108244770D02*
X202626340Y-107744770D01*
X202673959Y-107816199D01*
X202721578Y-107863818D01*
X202769197Y-107887627D01*
X218468070Y-102470793D02*
X217968070Y-102470793D01*
X218468070Y-102994602D02*
X218229975Y-102827936D01*
X218468070Y-102708888D02*
X217968070Y-102708888D01*
X217968070Y-102899364D01*
X217991880Y-102946983D01*
X218015689Y-102970793D01*
X218063308Y-102994602D01*
X218134737Y-102994602D01*
X218182356Y-102970793D01*
X218206165Y-102946983D01*
X218229975Y-102899364D01*
X218229975Y-102708888D01*
X218468070Y-103446983D02*
X218468070Y-103208888D01*
X217968070Y-103208888D01*
X217968070Y-103566031D02*
X217968070Y-103899364D01*
X218468070Y-103566031D01*
X218468070Y-103899364D01*
X218134737Y-104304126D02*
X218468070Y-104304126D01*
X217944260Y-104185079D02*
X218301403Y-104066031D01*
X218301403Y-104375555D01*
X218134737Y-104780317D02*
X218468070Y-104780317D01*
X217944260Y-104661269D02*
X218301403Y-104542221D01*
X218301403Y-104851745D01*
X218468070Y-105042221D02*
X217968070Y-105042221D01*
X218468070Y-105327936D01*
X217968070Y-105327936D01*
X218444260Y-105542221D02*
X218468070Y-105613650D01*
X218468070Y-105732698D01*
X218444260Y-105780317D01*
X218420451Y-105804126D01*
X218372832Y-105827936D01*
X218325213Y-105827936D01*
X218277594Y-105804126D01*
X218253784Y-105780317D01*
X218229975Y-105732698D01*
X218206165Y-105637460D01*
X218182356Y-105589840D01*
X218158546Y-105566031D01*
X218110927Y-105542221D01*
X218063308Y-105542221D01*
X218015689Y-105566031D01*
X217991880Y-105589840D01*
X217968070Y-105637460D01*
X217968070Y-105756507D01*
X217991880Y-105827936D01*
%TO.C,Q12*%
X157013374Y-107075229D02*
X157060993Y-107051420D01*
X157108612Y-107003800D01*
X157180040Y-106932372D01*
X157227660Y-106908562D01*
X157275279Y-106908562D01*
X157251469Y-107027610D02*
X157299088Y-107003800D01*
X157346707Y-106956181D01*
X157370517Y-106860943D01*
X157370517Y-106694277D01*
X157346707Y-106599039D01*
X157299088Y-106551420D01*
X157251469Y-106527610D01*
X157156231Y-106527610D01*
X157108612Y-106551420D01*
X157060993Y-106599039D01*
X157037183Y-106694277D01*
X157037183Y-106860943D01*
X157060993Y-106956181D01*
X157108612Y-107003800D01*
X157156231Y-107027610D01*
X157251469Y-107027610D01*
X156560993Y-107027610D02*
X156846707Y-107027610D01*
X156703850Y-107027610D02*
X156703850Y-106527610D01*
X156751469Y-106599039D01*
X156799088Y-106646658D01*
X156846707Y-106670467D01*
X156370517Y-106575229D02*
X156346707Y-106551420D01*
X156299088Y-106527610D01*
X156180040Y-106527610D01*
X156132421Y-106551420D01*
X156108612Y-106575229D01*
X156084802Y-106622848D01*
X156084802Y-106670467D01*
X156108612Y-106741896D01*
X156394326Y-107027610D01*
X156084802Y-107027610D01*
X141838310Y-109015873D02*
X141338310Y-109015873D01*
X141838310Y-109539682D02*
X141600215Y-109373016D01*
X141838310Y-109253968D02*
X141338310Y-109253968D01*
X141338310Y-109444444D01*
X141362120Y-109492063D01*
X141385929Y-109515873D01*
X141433548Y-109539682D01*
X141504977Y-109539682D01*
X141552596Y-109515873D01*
X141576405Y-109492063D01*
X141600215Y-109444444D01*
X141600215Y-109253968D01*
X141838310Y-109992063D02*
X141838310Y-109753968D01*
X141338310Y-109753968D01*
X141338310Y-110111111D02*
X141338310Y-110444444D01*
X141838310Y-110111111D01*
X141838310Y-110444444D01*
X141504977Y-110849206D02*
X141838310Y-110849206D01*
X141314500Y-110730159D02*
X141671643Y-110611111D01*
X141671643Y-110920635D01*
X141504977Y-111325397D02*
X141838310Y-111325397D01*
X141314500Y-111206349D02*
X141671643Y-111087301D01*
X141671643Y-111396825D01*
X141838310Y-111587301D02*
X141338310Y-111587301D01*
X141838310Y-111873016D01*
X141338310Y-111873016D01*
X141814500Y-112087301D02*
X141838310Y-112158730D01*
X141838310Y-112277778D01*
X141814500Y-112325397D01*
X141790691Y-112349206D01*
X141743072Y-112373016D01*
X141695453Y-112373016D01*
X141647834Y-112349206D01*
X141624024Y-112325397D01*
X141600215Y-112277778D01*
X141576405Y-112182540D01*
X141552596Y-112134920D01*
X141528786Y-112111111D01*
X141481167Y-112087301D01*
X141433548Y-112087301D01*
X141385929Y-112111111D01*
X141362120Y-112134920D01*
X141338310Y-112182540D01*
X141338310Y-112301587D01*
X141362120Y-112373016D01*
%TO.C,Q15*%
X203348054Y-119849389D02*
X203395673Y-119825580D01*
X203443292Y-119777960D01*
X203514720Y-119706532D01*
X203562340Y-119682722D01*
X203609959Y-119682722D01*
X203586149Y-119801770D02*
X203633768Y-119777960D01*
X203681387Y-119730341D01*
X203705197Y-119635103D01*
X203705197Y-119468437D01*
X203681387Y-119373199D01*
X203633768Y-119325580D01*
X203586149Y-119301770D01*
X203490911Y-119301770D01*
X203443292Y-119325580D01*
X203395673Y-119373199D01*
X203371863Y-119468437D01*
X203371863Y-119635103D01*
X203395673Y-119730341D01*
X203443292Y-119777960D01*
X203490911Y-119801770D01*
X203586149Y-119801770D01*
X202895673Y-119801770D02*
X203181387Y-119801770D01*
X203038530Y-119801770D02*
X203038530Y-119301770D01*
X203086149Y-119373199D01*
X203133768Y-119420818D01*
X203181387Y-119444627D01*
X202443292Y-119301770D02*
X202681387Y-119301770D01*
X202705197Y-119539865D01*
X202681387Y-119516056D01*
X202633768Y-119492246D01*
X202514720Y-119492246D01*
X202467101Y-119516056D01*
X202443292Y-119539865D01*
X202419482Y-119587484D01*
X202419482Y-119706532D01*
X202443292Y-119754151D01*
X202467101Y-119777960D01*
X202514720Y-119801770D01*
X202633768Y-119801770D01*
X202681387Y-119777960D01*
X202705197Y-119754151D01*
X218404070Y-114027793D02*
X217904070Y-114027793D01*
X218404070Y-114551602D02*
X218165975Y-114384936D01*
X218404070Y-114265888D02*
X217904070Y-114265888D01*
X217904070Y-114456364D01*
X217927880Y-114503983D01*
X217951689Y-114527793D01*
X217999308Y-114551602D01*
X218070737Y-114551602D01*
X218118356Y-114527793D01*
X218142165Y-114503983D01*
X218165975Y-114456364D01*
X218165975Y-114265888D01*
X218404070Y-115003983D02*
X218404070Y-114765888D01*
X217904070Y-114765888D01*
X217904070Y-115123031D02*
X217904070Y-115456364D01*
X218404070Y-115123031D01*
X218404070Y-115456364D01*
X218070737Y-115861126D02*
X218404070Y-115861126D01*
X217880260Y-115742079D02*
X218237403Y-115623031D01*
X218237403Y-115932555D01*
X218070737Y-116337317D02*
X218404070Y-116337317D01*
X217880260Y-116218269D02*
X218237403Y-116099221D01*
X218237403Y-116408745D01*
X218404070Y-116599221D02*
X217904070Y-116599221D01*
X218404070Y-116884936D01*
X217904070Y-116884936D01*
X218380260Y-117099221D02*
X218404070Y-117170650D01*
X218404070Y-117289698D01*
X218380260Y-117337317D01*
X218356451Y-117361126D01*
X218308832Y-117384936D01*
X218261213Y-117384936D01*
X218213594Y-117361126D01*
X218189784Y-117337317D01*
X218165975Y-117289698D01*
X218142165Y-117194460D01*
X218118356Y-117146840D01*
X218094546Y-117123031D01*
X218046927Y-117099221D01*
X217999308Y-117099221D01*
X217951689Y-117123031D01*
X217927880Y-117146840D01*
X217904070Y-117194460D01*
X217904070Y-117313507D01*
X217927880Y-117384936D01*
%TO.C,Q16*%
X156950374Y-94439229D02*
X156997993Y-94415420D01*
X157045612Y-94367800D01*
X157117040Y-94296372D01*
X157164660Y-94272562D01*
X157212279Y-94272562D01*
X157188469Y-94391610D02*
X157236088Y-94367800D01*
X157283707Y-94320181D01*
X157307517Y-94224943D01*
X157307517Y-94058277D01*
X157283707Y-93963039D01*
X157236088Y-93915420D01*
X157188469Y-93891610D01*
X157093231Y-93891610D01*
X157045612Y-93915420D01*
X156997993Y-93963039D01*
X156974183Y-94058277D01*
X156974183Y-94224943D01*
X156997993Y-94320181D01*
X157045612Y-94367800D01*
X157093231Y-94391610D01*
X157188469Y-94391610D01*
X156497993Y-94391610D02*
X156783707Y-94391610D01*
X156640850Y-94391610D02*
X156640850Y-93891610D01*
X156688469Y-93963039D01*
X156736088Y-94010658D01*
X156783707Y-94034467D01*
X156069421Y-93891610D02*
X156164660Y-93891610D01*
X156212279Y-93915420D01*
X156236088Y-93939229D01*
X156283707Y-94010658D01*
X156307517Y-94105896D01*
X156307517Y-94296372D01*
X156283707Y-94343991D01*
X156259898Y-94367800D01*
X156212279Y-94391610D01*
X156117040Y-94391610D01*
X156069421Y-94367800D01*
X156045612Y-94343991D01*
X156021802Y-94296372D01*
X156021802Y-94177324D01*
X156045612Y-94129705D01*
X156069421Y-94105896D01*
X156117040Y-94082086D01*
X156212279Y-94082086D01*
X156259898Y-94105896D01*
X156283707Y-94129705D01*
X156307517Y-94177324D01*
X141775310Y-96379873D02*
X141275310Y-96379873D01*
X141775310Y-96903682D02*
X141537215Y-96737016D01*
X141775310Y-96617968D02*
X141275310Y-96617968D01*
X141275310Y-96808444D01*
X141299120Y-96856063D01*
X141322929Y-96879873D01*
X141370548Y-96903682D01*
X141441977Y-96903682D01*
X141489596Y-96879873D01*
X141513405Y-96856063D01*
X141537215Y-96808444D01*
X141537215Y-96617968D01*
X141775310Y-97356063D02*
X141775310Y-97117968D01*
X141275310Y-97117968D01*
X141275310Y-97475111D02*
X141275310Y-97808444D01*
X141775310Y-97475111D01*
X141775310Y-97808444D01*
X141441977Y-98213206D02*
X141775310Y-98213206D01*
X141251500Y-98094159D02*
X141608643Y-97975111D01*
X141608643Y-98284635D01*
X141441977Y-98689397D02*
X141775310Y-98689397D01*
X141251500Y-98570349D02*
X141608643Y-98451301D01*
X141608643Y-98760825D01*
X141775310Y-98951301D02*
X141275310Y-98951301D01*
X141775310Y-99237016D01*
X141275310Y-99237016D01*
X141751500Y-99451301D02*
X141775310Y-99522730D01*
X141775310Y-99641778D01*
X141751500Y-99689397D01*
X141727691Y-99713206D01*
X141680072Y-99737016D01*
X141632453Y-99737016D01*
X141584834Y-99713206D01*
X141561024Y-99689397D01*
X141537215Y-99641778D01*
X141513405Y-99546540D01*
X141489596Y-99498920D01*
X141465786Y-99475111D01*
X141418167Y-99451301D01*
X141370548Y-99451301D01*
X141322929Y-99475111D01*
X141299120Y-99498920D01*
X141275310Y-99546540D01*
X141275310Y-99665587D01*
X141299120Y-99737016D01*
%TD*%
M02*
