G04 #@! TF.FileFunction,Copper,L1,Top,Signal*
%FSLAX46Y46*%
G04 Gerber Fmt 4.6, Leading zero omitted, Abs format (unit mm)*
G04 Created by KiCad (PCBNEW 4.0.4-stable) date 03/10/17 08:23:14*
%MOMM*%
%LPD*%
G01*
G04 APERTURE LIST*
%ADD10C,0.100000*%
%ADD11R,0.250000X1.000000*%
%ADD12R,1.000000X0.250000*%
%ADD13R,1.200000X3.800000*%
%ADD14R,10.490000X8.380000*%
%ADD15R,1.270000X3.600000*%
%ADD16R,1.500000X4.000000*%
%ADD17C,0.900000*%
%ADD18R,0.600000X2.100000*%
%ADD19R,3.500120X3.500120*%
%ADD20R,4.000000X2.500000*%
%ADD21R,0.800000X0.750000*%
%ADD22R,0.750000X0.800000*%
%ADD23C,2.500000*%
%ADD24R,1.700000X1.700000*%
%ADD25O,1.700000X1.700000*%
%ADD26R,3.800000X1.200000*%
%ADD27R,8.380000X10.490000*%
%ADD28R,0.500000X0.900000*%
%ADD29R,3.500000X2.000000*%
%ADD30R,7.000000X7.000000*%
%ADD31R,1.500000X1.500000*%
%ADD32C,0.600000*%
%ADD33C,0.250000*%
%ADD34C,1.000000*%
%ADD35C,0.599800*%
%ADD36C,0.800000*%
%ADD37C,3.000000*%
%ADD38C,0.249800*%
%ADD39C,0.254000*%
G04 APERTURE END LIST*
D10*
D11*
X176590000Y-109840000D03*
X177090000Y-109840000D03*
X177590000Y-109840000D03*
X178090000Y-109840000D03*
X178590000Y-109840000D03*
X179090000Y-109840000D03*
X179590000Y-109840000D03*
X180090000Y-109840000D03*
X180590000Y-109840000D03*
X181090000Y-109840000D03*
X181590000Y-109840000D03*
X182090000Y-109840000D03*
X182590000Y-109840000D03*
X183090000Y-109840000D03*
X183590000Y-109840000D03*
X184090000Y-109840000D03*
D12*
X186040000Y-107890000D03*
X186040000Y-107390000D03*
X186040000Y-106890000D03*
X186040000Y-106390000D03*
X186040000Y-105890000D03*
X186040000Y-105390000D03*
X186040000Y-104890000D03*
X186040000Y-104390000D03*
X186040000Y-103890000D03*
X186040000Y-103390000D03*
X186040000Y-102890000D03*
X186040000Y-102390000D03*
X186040000Y-101890000D03*
X186040000Y-101390000D03*
X186040000Y-100890000D03*
X186040000Y-100390000D03*
D11*
X184090000Y-98440000D03*
X183590000Y-98440000D03*
X183090000Y-98440000D03*
X182590000Y-98440000D03*
X182090000Y-98440000D03*
X181590000Y-98440000D03*
X181090000Y-98440000D03*
X180590000Y-98440000D03*
X180090000Y-98440000D03*
X179590000Y-98440000D03*
X179090000Y-98440000D03*
X178590000Y-98440000D03*
X178090000Y-98440000D03*
X177590000Y-98440000D03*
X177090000Y-98440000D03*
X176590000Y-98440000D03*
D12*
X174640000Y-100390000D03*
X174640000Y-100890000D03*
X174640000Y-101390000D03*
X174640000Y-101890000D03*
X174640000Y-102390000D03*
X174640000Y-102890000D03*
X174640000Y-103390000D03*
X174640000Y-103890000D03*
X174640000Y-104390000D03*
X174640000Y-104890000D03*
X174640000Y-105390000D03*
X174640000Y-105890000D03*
X174640000Y-106390000D03*
X174640000Y-106890000D03*
X174640000Y-107390000D03*
X174640000Y-107890000D03*
D13*
X205550000Y-88191000D03*
X200470000Y-88191000D03*
D14*
X203010000Y-77978000D03*
D15*
X158178000Y-135978000D03*
X160718000Y-135978000D03*
X163258000Y-135978000D03*
X165798000Y-135978000D03*
X165798000Y-129578000D03*
X163258000Y-129578000D03*
X160718000Y-129578000D03*
X158178000Y-129578000D03*
X168338000Y-135978000D03*
X168338000Y-129578000D03*
D16*
X145036000Y-157106000D03*
D17*
X145036000Y-157106000D03*
D18*
X157236000Y-150126000D03*
X156216000Y-150126000D03*
X155196000Y-150126000D03*
X154176000Y-150126000D03*
X153156000Y-150126000D03*
X152136000Y-150126000D03*
X151116000Y-150126000D03*
X150096000Y-150126000D03*
D17*
X162136000Y-157106000D03*
D16*
X162136000Y-157106000D03*
D19*
X139931140Y-83312000D03*
X133931660Y-83312000D03*
X136931400Y-88011000D03*
D20*
X186502000Y-130366000D03*
X180402000Y-130366000D03*
D21*
X183503000Y-115252000D03*
X182003000Y-115252000D03*
X183503000Y-113728000D03*
X182003000Y-113728000D03*
D22*
X190119000Y-99770000D03*
X190119000Y-101270000D03*
X171514000Y-108890000D03*
X171514000Y-107390000D03*
D16*
X165356000Y-157106000D03*
D17*
X165356000Y-157106000D03*
D18*
X177556000Y-150126000D03*
X176536000Y-150126000D03*
X175516000Y-150126000D03*
X174496000Y-150126000D03*
X173476000Y-150126000D03*
X172456000Y-150126000D03*
X171436000Y-150126000D03*
X170416000Y-150126000D03*
D17*
X182456000Y-157106000D03*
D16*
X182456000Y-157106000D03*
D23*
X190500000Y-68921000D03*
X195580000Y-68921000D03*
X200660000Y-68921000D03*
X205740000Y-68921000D03*
X210820000Y-68961000D03*
X149352000Y-68921000D03*
X154432000Y-68921000D03*
X163322000Y-68921000D03*
X168402000Y-68921000D03*
X173482000Y-68921000D03*
X178562000Y-68921000D03*
X183642000Y-68961000D03*
D13*
X194056000Y-88191000D03*
X188976000Y-88191000D03*
D14*
X191516000Y-77978000D03*
D13*
X164338000Y-87873500D03*
X159258000Y-87873500D03*
D14*
X161798000Y-77660500D03*
D13*
X175958000Y-87873500D03*
X170878000Y-87873500D03*
D14*
X173418000Y-77660500D03*
D23*
X222290000Y-93980000D03*
X222290000Y-99060000D03*
X222290000Y-104140000D03*
X222290000Y-109220000D03*
X222250000Y-114300000D03*
D24*
X211963000Y-144590000D03*
D25*
X211963000Y-142050000D03*
X211963000Y-139510000D03*
X211963000Y-136970000D03*
X211963000Y-134430000D03*
D23*
X135850000Y-114300000D03*
X135850000Y-109220000D03*
X135850000Y-104140000D03*
X135850000Y-99060000D03*
X135890000Y-93980000D03*
D26*
X203147000Y-101600000D03*
X203147000Y-96520000D03*
D27*
X213360000Y-99060000D03*
D26*
X156707000Y-113284000D03*
X156707000Y-118364000D03*
D27*
X146494000Y-115824000D03*
D26*
X203083000Y-112966000D03*
X203083000Y-107886000D03*
D27*
X213296000Y-110426000D03*
D26*
X156707000Y-101410000D03*
X156707000Y-106490000D03*
D27*
X146494000Y-103950000D03*
D28*
X184543000Y-138049000D03*
X186043000Y-138049000D03*
D29*
X192007000Y-130616000D03*
X192007000Y-135196000D03*
D30*
X199407000Y-132916000D03*
D31*
X189740000Y-158890000D03*
X189740000Y-152190000D03*
X189740000Y-155690000D03*
X196340000Y-158890000D03*
X196340000Y-155690000D03*
X196340000Y-152190000D03*
D32*
X174561500Y-123571000D03*
X174244000Y-129794000D03*
X173926500Y-135953500D03*
X171958000Y-140906500D03*
X165544500Y-143192500D03*
X158940500Y-142430500D03*
X212153500Y-154178000D03*
X207073500Y-157099000D03*
X202311000Y-154051000D03*
X199072500Y-147447000D03*
X207010000Y-150114000D03*
X216725500Y-148653500D03*
X224790000Y-147383500D03*
X223901000Y-140525500D03*
X224663000Y-131572000D03*
X225298000Y-124079000D03*
X216979500Y-124396500D03*
X209740500Y-124841000D03*
X215074500Y-129476500D03*
X216090500Y-134366000D03*
X213487000Y-90932000D03*
X219646500Y-89154000D03*
X216471500Y-83820000D03*
X208788000Y-84455000D03*
X199263000Y-83883500D03*
X186245500Y-83693000D03*
X171386500Y-83883500D03*
X156781500Y-84074000D03*
X169100500Y-97345500D03*
X162242500Y-94615000D03*
X156591000Y-91567000D03*
X154432000Y-86868000D03*
X152082500Y-78613000D03*
X146812000Y-82486500D03*
X147891500Y-88582500D03*
X152336500Y-92011500D03*
X132016500Y-87185500D03*
X132461000Y-94805500D03*
X132016500Y-103060500D03*
X132461000Y-112268000D03*
X133858000Y-119507000D03*
X134048500Y-126428500D03*
X133477000Y-134620000D03*
X133413500Y-141795500D03*
X132651500Y-148590000D03*
X140398500Y-148780500D03*
X141033500Y-145288000D03*
X140970000Y-141224000D03*
X141732000Y-135699500D03*
X142684500Y-129921000D03*
X142748000Y-123571000D03*
X148272500Y-124650000D03*
X148336000Y-128587500D03*
X148653500Y-135255000D03*
X148399500Y-139446000D03*
X153162000Y-138811000D03*
X152908000Y-132461000D03*
X152527000Y-126365000D03*
X153098500Y-121094500D03*
X152844000Y-116649500D03*
X152908000Y-112776000D03*
X154559000Y-111696000D03*
X153670000Y-100838000D03*
X165100000Y-85090000D03*
X177546000Y-84899500D03*
X193294000Y-85407500D03*
X205994000Y-88392000D03*
X204534000Y-111760000D03*
X204152000Y-102997000D03*
X184213500Y-117094000D03*
X191326400Y-100064500D03*
X170041100Y-148375600D03*
X176530000Y-147320000D03*
X172449300Y-146848800D03*
X155038900Y-148273200D03*
X154193700Y-148546700D03*
X173623300Y-147933700D03*
X178400800Y-110905300D03*
X167820900Y-126551600D03*
X177520100Y-112381000D03*
X180340000Y-112268000D03*
X181356000Y-146812000D03*
X161116900Y-127053800D03*
X172351600Y-102027500D03*
X161648400Y-126039800D03*
X175952200Y-105086800D03*
X194007700Y-94071500D03*
X178333400Y-97399700D03*
X202861800Y-94435200D03*
X180590000Y-97397100D03*
X201770600Y-105405900D03*
X159226600Y-108434300D03*
X199013200Y-117785900D03*
X158869300Y-97476000D03*
D33*
X174561500Y-129476500D02*
X174561500Y-123571000D01*
X174244000Y-129794000D02*
X174561500Y-129476500D01*
X173926500Y-138938000D02*
X173926500Y-135953500D01*
X171958000Y-140906500D02*
X173926500Y-138938000D01*
X159702500Y-143192500D02*
X165544500Y-143192500D01*
X158940500Y-142430500D02*
X159702500Y-143192500D01*
D34*
X189740000Y-152190000D02*
X189740000Y-145036000D01*
X184543000Y-139839000D02*
X184543000Y-138049000D01*
X189740000Y-145036000D02*
X184543000Y-139839000D01*
X196340000Y-152190000D02*
X196340000Y-152144000D01*
X196340000Y-152144000D02*
X194564000Y-150368000D01*
X194564000Y-150368000D02*
X191562000Y-150368000D01*
X191562000Y-150368000D02*
X189740000Y-152190000D01*
X184543000Y-138049000D02*
X184543000Y-139199300D01*
X184543000Y-139199300D02*
X178485400Y-139199300D01*
X178485400Y-139199300D02*
X171436000Y-146248700D01*
D35*
X151116000Y-149179600D02*
X151116000Y-150126000D01*
X171436000Y-149179600D02*
X171436000Y-150126000D01*
D34*
X151116000Y-148727000D02*
X151116000Y-149179600D01*
X153594300Y-146248700D02*
X151116000Y-148727000D01*
X171436000Y-146248700D02*
X153594300Y-146248700D01*
X171436000Y-146248700D02*
X171436000Y-149179600D01*
X189740000Y-158890000D02*
X184240000Y-158890000D01*
X184240000Y-158890000D02*
X182456000Y-157106000D01*
X191976900Y-159676600D02*
X191190300Y-158890000D01*
X194103100Y-159676600D02*
X191976900Y-159676600D01*
X194889700Y-158890000D02*
X194103100Y-159676600D01*
X189740000Y-158890000D02*
X191190300Y-158890000D01*
X195915000Y-158890000D02*
X194889700Y-158890000D01*
X195915000Y-158890000D02*
X196340000Y-158890000D01*
D33*
X182090000Y-109840000D02*
X182090000Y-108689600D01*
X182090000Y-108689600D02*
X182140000Y-108639600D01*
X209994500Y-154178000D02*
X212153500Y-154178000D01*
X207073500Y-157099000D02*
X209994500Y-154178000D01*
X202311000Y-150685500D02*
X202311000Y-154051000D01*
X199072500Y-147447000D02*
X202311000Y-150685500D01*
X215265000Y-150114000D02*
X207010000Y-150114000D01*
X216725500Y-148653500D02*
X215265000Y-150114000D01*
X224790000Y-141414500D02*
X224790000Y-147383500D01*
X223901000Y-140525500D02*
X224790000Y-141414500D01*
X224663000Y-124714000D02*
X224663000Y-131572000D01*
X225298000Y-124079000D02*
X224663000Y-124714000D01*
X210185000Y-124396500D02*
X216979500Y-124396500D01*
X209740500Y-124841000D02*
X210185000Y-124396500D01*
X215074500Y-133350000D02*
X215074500Y-129476500D01*
X216090500Y-134366000D02*
X215074500Y-133350000D01*
X217868500Y-90932000D02*
X213487000Y-90932000D01*
X219646500Y-89154000D02*
X217868500Y-90932000D01*
X209423000Y-83820000D02*
X216471500Y-83820000D01*
X208788000Y-84455000D02*
X209423000Y-83820000D01*
X186436000Y-83883500D02*
X199263000Y-83883500D01*
X186245500Y-83693000D02*
X186436000Y-83883500D01*
X156972000Y-83883500D02*
X171386500Y-83883500D01*
X156781500Y-84074000D02*
X156972000Y-83883500D01*
X164973000Y-97345500D02*
X169100500Y-97345500D01*
X162242500Y-94615000D02*
X164973000Y-97345500D01*
X156591000Y-89027000D02*
X156591000Y-91567000D01*
X154432000Y-86868000D02*
X156591000Y-89027000D01*
X150685500Y-78613000D02*
X152082500Y-78613000D01*
X146812000Y-82486500D02*
X150685500Y-78613000D01*
X148907500Y-88582500D02*
X147891500Y-88582500D01*
X152336500Y-92011500D02*
X148907500Y-88582500D01*
X154559000Y-111887000D02*
X153797000Y-111887000D01*
X132016500Y-94361000D02*
X132016500Y-87185500D01*
X132461000Y-94805500D02*
X132016500Y-94361000D01*
X132016500Y-111823500D02*
X132016500Y-103060500D01*
X132461000Y-112268000D02*
X132016500Y-111823500D01*
X133858000Y-126238000D02*
X133858000Y-119507000D01*
X134048500Y-126428500D02*
X133858000Y-126238000D01*
X133477000Y-141732000D02*
X133477000Y-134620000D01*
X133413500Y-141795500D02*
X133477000Y-141732000D01*
X140208000Y-148590000D02*
X132651500Y-148590000D01*
X140398500Y-148780500D02*
X140208000Y-148590000D01*
X141033500Y-141287500D02*
X141033500Y-145288000D01*
X140970000Y-141224000D02*
X141033500Y-141287500D01*
X141732000Y-130873500D02*
X141732000Y-135699500D01*
X142684500Y-129921000D02*
X141732000Y-130873500D01*
X147193500Y-123571000D02*
X142748000Y-123571000D01*
X148272500Y-124650000D02*
X147193500Y-123571000D01*
X148336000Y-134937500D02*
X148336000Y-128587500D01*
X148653500Y-135255000D02*
X148336000Y-134937500D01*
X152527000Y-139446000D02*
X148399500Y-139446000D01*
X153162000Y-138811000D02*
X152527000Y-139446000D01*
X152908000Y-126746000D02*
X152908000Y-132461000D01*
X152527000Y-126365000D02*
X152908000Y-126746000D01*
X153098500Y-116904000D02*
X153098500Y-121094500D01*
X152844000Y-116649500D02*
X153098500Y-116904000D01*
X153797000Y-111887000D02*
X152908000Y-112776000D01*
X176883000Y-105890000D02*
X178383000Y-107390000D01*
X174640000Y-105890000D02*
X176883000Y-105890000D01*
D36*
X150096000Y-150126000D02*
X150096000Y-151956000D01*
X152210000Y-152019000D02*
X152210000Y-151956000D01*
X152200000Y-152019000D02*
X152210000Y-152019000D01*
X152136000Y-151956000D02*
X152200000Y-152019000D01*
X154176000Y-151382000D02*
X154750000Y-151956000D01*
X154176000Y-150126000D02*
X154176000Y-151382000D01*
X157236000Y-151204000D02*
X157988000Y-151956000D01*
X157236000Y-150126000D02*
X157236000Y-151204000D01*
X165356000Y-152910000D02*
X164402000Y-151956000D01*
X165356000Y-157106000D02*
X165356000Y-152910000D01*
X162136000Y-152611000D02*
X161480000Y-151956000D01*
X162136000Y-157106000D02*
X162136000Y-152611000D01*
X165356000Y-157106000D02*
X162136000Y-157106000D01*
X170416000Y-151810000D02*
X170561000Y-151956000D01*
X170416000Y-150126000D02*
X170416000Y-151810000D01*
X172456000Y-151438000D02*
X172974000Y-151956000D01*
X172456000Y-150126000D02*
X172456000Y-151438000D01*
X177556000Y-151013000D02*
X178498000Y-151956000D01*
X177556000Y-150126000D02*
X177556000Y-151013000D01*
D37*
X154559000Y-111696000D02*
X154559000Y-111887000D01*
X154559000Y-111887000D02*
X154559000Y-111136000D01*
X165100000Y-85153500D02*
X164338000Y-85915500D01*
X165100000Y-85090000D02*
X165100000Y-85153500D01*
X177546000Y-84899500D02*
X177546000Y-83883500D01*
X193675000Y-85407500D02*
X194056000Y-85788500D01*
X193294000Y-85407500D02*
X193675000Y-85407500D01*
X205750000Y-88392000D02*
X205550000Y-88191000D01*
X205994000Y-88392000D02*
X205750000Y-88392000D01*
X204152000Y-102606000D02*
X203909000Y-102362000D01*
X204152000Y-102997000D02*
X204152000Y-102606000D01*
X152781000Y-85852000D02*
X152781000Y-101727000D01*
X154750000Y-83883500D02*
X152781000Y-85852000D01*
X175958000Y-85661500D02*
X174180000Y-83883500D01*
X175958000Y-87873500D02*
X175958000Y-85661500D01*
D33*
X174640000Y-107390000D02*
X171514000Y-107390000D01*
D37*
X152781000Y-109358000D02*
X154559000Y-111136000D01*
X152781000Y-101727000D02*
X152781000Y-109358000D01*
X153670000Y-101727000D02*
X152781000Y-101727000D01*
X153670000Y-100838000D02*
X153670000Y-101727000D01*
X153670000Y-101727000D02*
X152781000Y-101727000D01*
X207010000Y-89651500D02*
X207010000Y-102362000D01*
X205550000Y-88191000D02*
X207010000Y-89651500D01*
X177546000Y-83883500D02*
X174180000Y-83883500D01*
X174180000Y-83883500D02*
X162306000Y-83883500D01*
X162306000Y-83883500D02*
X154750000Y-83883500D01*
X154750000Y-83883500D02*
X154178000Y-83883500D01*
X203518000Y-83883500D02*
X195961000Y-83883500D01*
X205550000Y-85915500D02*
X203518000Y-83883500D01*
X205550000Y-88191000D02*
X205550000Y-85915500D01*
X195961000Y-83883500D02*
X177546000Y-83883500D01*
D33*
X182090000Y-113642000D02*
X182003000Y-113728000D01*
X182090000Y-109840000D02*
X182090000Y-113642000D01*
X182003000Y-113728000D02*
X182003000Y-115252000D01*
D37*
X194056000Y-88191000D02*
X194056000Y-85788500D01*
X194056000Y-85788500D02*
X195961000Y-83883500D01*
X164338000Y-87873500D02*
X164338000Y-85915500D01*
X164338000Y-85915500D02*
X162306000Y-83883500D01*
X203909000Y-102362000D02*
X207010000Y-102362000D01*
D36*
X174496000Y-150126000D02*
X174496000Y-151956000D01*
X174496000Y-151956000D02*
X174625000Y-151956000D01*
X172974000Y-151956000D02*
X174496000Y-151956000D01*
X170561000Y-151956000D02*
X172974000Y-151956000D01*
X161480000Y-151956000D02*
X164402000Y-151956000D01*
X164402000Y-151956000D02*
X170561000Y-151956000D01*
X174496000Y-151956000D02*
X174625000Y-151956000D01*
X174625000Y-151956000D02*
X178498000Y-151956000D01*
X157988000Y-151956000D02*
X161480000Y-151956000D01*
X154750000Y-151956000D02*
X157988000Y-151956000D01*
X146050000Y-151956000D02*
X150096000Y-151956000D01*
X145036000Y-152970000D02*
X146050000Y-151956000D01*
X145036000Y-157106000D02*
X145036000Y-152970000D01*
X150096000Y-151956000D02*
X152136000Y-151956000D01*
X152136000Y-151956000D02*
X152210000Y-151956000D01*
X152210000Y-151956000D02*
X154750000Y-151956000D01*
D33*
X182140000Y-103229000D02*
X182140000Y-107390000D01*
X184479000Y-100890000D02*
X182140000Y-103229000D01*
X186040000Y-100890000D02*
X184479000Y-100890000D01*
X182140000Y-107390000D02*
X182140000Y-107442000D01*
X182088000Y-107442000D02*
X182140000Y-107442000D01*
X182140000Y-107390000D02*
X182088000Y-107442000D01*
X174640000Y-107390000D02*
X178383000Y-107390000D01*
X178383000Y-107390000D02*
X182140000Y-107390000D01*
D36*
X182456000Y-153246000D02*
X182456000Y-155176000D01*
X181166000Y-151956000D02*
X182456000Y-153246000D01*
X178498000Y-151956000D02*
X181166000Y-151956000D01*
X182456000Y-155176000D02*
X182456000Y-157106000D01*
D37*
X133932000Y-85011300D02*
X133932000Y-83312000D01*
X136931000Y-88011000D02*
X133932000Y-85011300D01*
D36*
X152136000Y-150126000D02*
X152136000Y-151956000D01*
D34*
X136931400Y-88011000D02*
X136931000Y-88011000D01*
X156707000Y-101410000D02*
X156707500Y-101410500D01*
D37*
X156708000Y-101410000D02*
X156707500Y-101410500D01*
X156390000Y-101727000D02*
X153670000Y-101727000D01*
X156707500Y-101410500D02*
X156390000Y-101727000D01*
D34*
X203084000Y-112966000D02*
X204290000Y-111760000D01*
X203083000Y-112966000D02*
X203084000Y-112966000D01*
D37*
X207010000Y-109040000D02*
X204290000Y-111760000D01*
X207010000Y-102362000D02*
X207010000Y-109040000D01*
X204290000Y-111760000D02*
X204534000Y-111760000D01*
D34*
X156707000Y-113284000D02*
X156707500Y-113283500D01*
D37*
X154559000Y-111136000D02*
X156707500Y-113283500D01*
X156707500Y-113283500D02*
X156708000Y-113284000D01*
D33*
X189738000Y-100890000D02*
X190119000Y-101270000D01*
X186040000Y-100890000D02*
X189738000Y-100890000D01*
D37*
X203147000Y-101600000D02*
X203909000Y-102362000D01*
D34*
X133931700Y-83312000D02*
X133932000Y-83312000D01*
X160718000Y-135978000D02*
X160718000Y-137228100D01*
X160718000Y-137228100D02*
X160718000Y-138478300D01*
X163258000Y-135978000D02*
X163258000Y-138178200D01*
X163558100Y-138478300D02*
X168338000Y-138478300D01*
X163258000Y-138178200D02*
X163558100Y-138478300D01*
X168338000Y-135978000D02*
X168338000Y-138478300D01*
X161668100Y-138178200D02*
X163258000Y-138178200D01*
X160718000Y-137228100D02*
X161668100Y-138178200D01*
X169499400Y-132316300D02*
X168338000Y-133477700D01*
X180402000Y-132316300D02*
X169499400Y-132316300D01*
X180402000Y-130366000D02*
X180402000Y-132316300D01*
X168338000Y-135978000D02*
X168338000Y-133477700D01*
X149893600Y-149923600D02*
X150096000Y-150126000D01*
X149893600Y-147935500D02*
X149893600Y-149923600D01*
X159350800Y-138478300D02*
X149893600Y-147935500D01*
X160718000Y-138478300D02*
X159350800Y-138478300D01*
X205121300Y-134430000D02*
X203607300Y-132916000D01*
X211963000Y-134430000D02*
X205121300Y-134430000D01*
X199407000Y-132916000D02*
X201507200Y-132916000D01*
X201507200Y-132916000D02*
X203607300Y-132916000D01*
X184510000Y-108639600D02*
X182140000Y-108639600D01*
X201507200Y-132916000D02*
X201507200Y-125636800D01*
X201507200Y-125636800D02*
X184510000Y-108639600D01*
D33*
X182140000Y-107442000D02*
X182140000Y-108639600D01*
D34*
X184721500Y-117602000D02*
X184721500Y-117545800D01*
X184241600Y-117122100D02*
X184721500Y-117602000D01*
X184241600Y-117065900D02*
X184241600Y-117122100D01*
X184213500Y-117094000D02*
X184241600Y-117065900D01*
D33*
X189500000Y-100390000D02*
X190119000Y-99770500D01*
X186040000Y-100390000D02*
X189500000Y-100390000D01*
X182590000Y-112190000D02*
X182590000Y-109840000D01*
X183503000Y-113104000D02*
X182590000Y-112190000D01*
X183503000Y-113728000D02*
X183503000Y-113104000D01*
D34*
X183503000Y-113728000D02*
X183503000Y-115252000D01*
X190119000Y-99770000D02*
X190119000Y-99770500D01*
X158178000Y-135978000D02*
X158178000Y-133477700D01*
D33*
X171514000Y-108866000D02*
X171514000Y-108878000D01*
X172489000Y-107890000D02*
X171514000Y-108866000D01*
X174640000Y-107890000D02*
X172489000Y-107890000D01*
X171514000Y-108878000D02*
X171514000Y-108890000D01*
D34*
X174244300Y-111608300D02*
X171514000Y-108878000D01*
X175454800Y-110397800D02*
X176032200Y-110397800D01*
X174244300Y-111608300D02*
X175454800Y-110397800D01*
D38*
X176299600Y-110665200D02*
X176590000Y-110665200D01*
X176032200Y-110397800D02*
X176299600Y-110665200D01*
X176590000Y-109840000D02*
X176590000Y-110665200D01*
D34*
X183503000Y-115252000D02*
X183503000Y-116327300D01*
X192007000Y-135196000D02*
X192007000Y-133495700D01*
X184721500Y-117545800D02*
X194457400Y-127281700D01*
X194457400Y-127281700D02*
X194457400Y-132001700D01*
X194457400Y-132001700D02*
X192963400Y-133495700D01*
X192963400Y-133495700D02*
X192007000Y-133495700D01*
X183503000Y-116327300D02*
X184721500Y-117545800D01*
X197160700Y-142050000D02*
X192007000Y-136896300D01*
X211963000Y-142050000D02*
X197160700Y-142050000D01*
X192007000Y-135196000D02*
X192007000Y-136896300D01*
X190413000Y-100064500D02*
X190119000Y-99770500D01*
X191326400Y-100064500D02*
X190413000Y-100064500D01*
X177439800Y-116327300D02*
X183503000Y-116327300D01*
X174244300Y-113131800D02*
X177439800Y-116327300D01*
X171161600Y-113131800D02*
X174244300Y-113131800D01*
X156842600Y-127450800D02*
X171161600Y-113131800D01*
X156842600Y-132142300D02*
X156842600Y-127450800D01*
X158178000Y-133477700D02*
X156842600Y-132142300D01*
X174244300Y-113131800D02*
X174244300Y-111608300D01*
D37*
X225679000Y-110871000D02*
X222250000Y-114300000D01*
X225679000Y-84010500D02*
X225679000Y-110871000D01*
X210820000Y-69151500D02*
X225679000Y-84010500D01*
X210820000Y-68961000D02*
X210820000Y-69151500D01*
X183642000Y-66738500D02*
X181991000Y-65087500D01*
X183642000Y-68961000D02*
X183642000Y-66738500D01*
X156972000Y-65087500D02*
X181991000Y-65087500D01*
X154432000Y-67627500D02*
X156972000Y-65087500D01*
X154432000Y-68921000D02*
X154432000Y-67627500D01*
X206946000Y-65087500D02*
X210820000Y-68961000D01*
X181991000Y-65087500D02*
X206946000Y-65087500D01*
X137732000Y-93980000D02*
X135890000Y-93980000D01*
X143002000Y-88709500D02*
X137732000Y-93980000D01*
X143002000Y-86423500D02*
X143002000Y-88709500D01*
X139931000Y-83352600D02*
X143002000Y-86423500D01*
X139931000Y-83312000D02*
X139931000Y-83352600D01*
X139931100Y-83311900D02*
X139931000Y-83312000D01*
X154322000Y-68921000D02*
X139931100Y-83311900D01*
X139931100Y-83311900D02*
X139931100Y-83312000D01*
D36*
X176536000Y-147326000D02*
X176530000Y-147320000D01*
X176536000Y-150126000D02*
X176536000Y-147326000D01*
X156216000Y-150126000D02*
X156216000Y-148375600D01*
X156216000Y-147390000D02*
X156210000Y-147384000D01*
X156216000Y-148375600D02*
X156216000Y-147390000D01*
D34*
X156216000Y-148375600D02*
X170041100Y-148375600D01*
D33*
X155038900Y-148593600D02*
X155196000Y-148750700D01*
X155038900Y-148273200D02*
X155038900Y-148593600D01*
X155196000Y-150126000D02*
X155196000Y-148750700D01*
X173614100Y-146848800D02*
X172449300Y-146848800D01*
X175516000Y-148750700D02*
X173614100Y-146848800D01*
X175516000Y-150126000D02*
X175516000Y-148750700D01*
X153989700Y-148750700D02*
X154193700Y-148546700D01*
X153156000Y-148750700D02*
X153989700Y-148750700D01*
X153156000Y-150126000D02*
X153156000Y-148750700D01*
X173476000Y-148081000D02*
X173623300Y-147933700D01*
X173476000Y-150126000D02*
X173476000Y-148081000D01*
X178590000Y-109840000D02*
X178590000Y-110665300D01*
X178590000Y-110716100D02*
X178400800Y-110905300D01*
X178590000Y-110665300D02*
X178590000Y-110716100D01*
X168338000Y-127068700D02*
X167820900Y-126551600D01*
X168338000Y-129578000D02*
X168338000Y-127068700D01*
X177874300Y-112381000D02*
X179590000Y-110665300D01*
X177520100Y-112381000D02*
X177874300Y-112381000D01*
X179590000Y-109840000D02*
X179590000Y-110665300D01*
D37*
X217210000Y-99060000D02*
X222290000Y-93980000D01*
X213360000Y-99060000D02*
X217210000Y-99060000D01*
X190500000Y-76962000D02*
X191516000Y-77978000D01*
X190500000Y-68921000D02*
X190500000Y-76962000D01*
X200660000Y-75628500D02*
X203010000Y-77978000D01*
X200660000Y-68921000D02*
X200660000Y-75628500D01*
X200660000Y-75628500D02*
X203010000Y-77978000D01*
X163322000Y-76136500D02*
X161798000Y-77660500D01*
X163322000Y-68921000D02*
X163322000Y-76136500D01*
X173482000Y-77597000D02*
X173418000Y-77660500D01*
X173482000Y-68921000D02*
X173482000Y-77597000D01*
D34*
X186502000Y-130366000D02*
X189202300Y-130366000D01*
X186043000Y-138049000D02*
X186043000Y-136898700D01*
X189452300Y-133489400D02*
X189452300Y-130616000D01*
X186043000Y-136898700D02*
X189452300Y-133489400D01*
X192007000Y-130616000D02*
X189452300Y-130616000D01*
X189452300Y-130616000D02*
X189202300Y-130366000D01*
D37*
X215392000Y-110426000D02*
X213296000Y-110426000D01*
X221678000Y-104140000D02*
X215392000Y-110426000D01*
X222290000Y-104140000D02*
X221678000Y-104140000D01*
X137374000Y-115824000D02*
X135850000Y-114300000D01*
X146494000Y-115824000D02*
X137374000Y-115824000D01*
X136040000Y-103950000D02*
X135850000Y-104140000D01*
X146494000Y-103950000D02*
X136040000Y-103950000D01*
D33*
X189740000Y-155690000D02*
X189740000Y-155196000D01*
X189740000Y-155196000D02*
X181356000Y-146812000D01*
X181090000Y-111518000D02*
X181090000Y-109840000D01*
X180340000Y-112268000D02*
X181090000Y-111518000D01*
D34*
X196340000Y-155690000D02*
X189740000Y-155690000D01*
D33*
X173814700Y-100564400D02*
X173814700Y-100390000D01*
X172351600Y-102027500D02*
X173814700Y-100564400D01*
X174640000Y-100390000D02*
X173814700Y-100390000D01*
X160718000Y-129578000D02*
X160718000Y-127452700D01*
X160718000Y-127452700D02*
X161116900Y-127053800D01*
X159590900Y-126039800D02*
X161648400Y-126039800D01*
X158178000Y-127452700D02*
X159590900Y-126039800D01*
X177590000Y-103449000D02*
X177590000Y-98440000D01*
X175952200Y-105086800D02*
X177590000Y-103449000D01*
X158178000Y-129578000D02*
X158178000Y-127452700D01*
X198537300Y-139510000D02*
X211963000Y-139510000D01*
X195300400Y-136273100D02*
X198537300Y-139510000D01*
X195300400Y-121875700D02*
X195300400Y-136273100D01*
X184090000Y-110665300D02*
X195300400Y-121875700D01*
X184090000Y-109840000D02*
X184090000Y-110665300D01*
X212330400Y-135794700D02*
X211963000Y-135794700D01*
X213138300Y-134986800D02*
X212330400Y-135794700D01*
X213138300Y-133922800D02*
X213138300Y-134986800D01*
X187105500Y-107890000D02*
X213138300Y-133922800D01*
X186040000Y-107890000D02*
X187105500Y-107890000D01*
X211963000Y-136970000D02*
X211963000Y-135794700D01*
X181777600Y-97614700D02*
X181590000Y-97614700D01*
X188976000Y-90416300D02*
X181777600Y-97614700D01*
X188976000Y-88191000D02*
X188976000Y-90416300D01*
X181590000Y-98440000D02*
X181590000Y-97614700D01*
X182590000Y-98440000D02*
X182590000Y-97614700D01*
X186133200Y-94071500D02*
X194007700Y-94071500D01*
X182590000Y-97614700D02*
X186133200Y-94071500D01*
X159258000Y-87873500D02*
X159258000Y-90098800D01*
X176590000Y-98440000D02*
X176590000Y-97614700D01*
X169074100Y-90098800D02*
X176590000Y-97614700D01*
X159258000Y-90098800D02*
X169074100Y-90098800D01*
X200470000Y-88191000D02*
X200470000Y-90416300D01*
X183590000Y-97474400D02*
X183590000Y-98440000D01*
X183974600Y-97089800D02*
X183590000Y-97474400D01*
X193796500Y-97089800D02*
X183974600Y-97089800D01*
X200470000Y-90416300D02*
X193796500Y-97089800D01*
X178548400Y-97614700D02*
X178333400Y-97399700D01*
X178590000Y-97614700D02*
X178548400Y-97614700D01*
X178590000Y-98440000D02*
X178590000Y-97614700D01*
X184090000Y-98440000D02*
X184090000Y-97614700D01*
X199438800Y-94435200D02*
X202861800Y-94435200D01*
X196259300Y-97614700D02*
X199438800Y-94435200D01*
X184090000Y-97614700D02*
X196259300Y-97614700D01*
X172074100Y-90098800D02*
X179590000Y-97614700D01*
X170878000Y-90098800D02*
X172074100Y-90098800D01*
X170878000Y-87873500D02*
X170878000Y-90098800D01*
X179590000Y-98440000D02*
X179590000Y-97614700D01*
X180590000Y-97397100D02*
X180590000Y-98440000D01*
X188141800Y-101890000D02*
X186040000Y-101890000D01*
X188268600Y-102016800D02*
X188141800Y-101890000D01*
X195424900Y-102016800D02*
X188268600Y-102016800D01*
X200921700Y-96520000D02*
X195424900Y-102016800D01*
X203147000Y-96520000D02*
X200921700Y-96520000D01*
X171906300Y-105390000D02*
X174640000Y-105390000D01*
X158932300Y-118364000D02*
X171906300Y-105390000D01*
X156707000Y-118364000D02*
X158932300Y-118364000D01*
X199254700Y-102890000D02*
X186865300Y-102890000D01*
X201770600Y-105405900D02*
X199254700Y-102890000D01*
X186040000Y-102890000D02*
X186865300Y-102890000D01*
X163270900Y-104390000D02*
X159226600Y-108434300D01*
X174640000Y-104390000D02*
X163270900Y-104390000D01*
X203083000Y-107886000D02*
X200857700Y-107886000D01*
X196861700Y-103890000D02*
X200857700Y-107886000D01*
X186040000Y-103890000D02*
X196861700Y-103890000D01*
X162032300Y-103390000D02*
X174640000Y-103390000D01*
X158932300Y-106490000D02*
X162032300Y-103390000D01*
X156707000Y-106490000D02*
X158932300Y-106490000D01*
X199013200Y-117037900D02*
X186865300Y-104890000D01*
X199013200Y-117785900D02*
X199013200Y-117037900D01*
X186040000Y-104890000D02*
X186865300Y-104890000D01*
X172873500Y-102390000D02*
X174640000Y-102390000D01*
X172610700Y-102652800D02*
X172873500Y-102390000D01*
X164046100Y-102652800D02*
X172610700Y-102652800D01*
X158869300Y-97476000D02*
X164046100Y-102652800D01*
D39*
G36*
X228906000Y-159818000D02*
X197703589Y-159818000D01*
X197725000Y-159766310D01*
X197725000Y-159175750D01*
X197566250Y-159017000D01*
X196467000Y-159017000D01*
X196467000Y-159037000D01*
X196213000Y-159037000D01*
X196213000Y-159017000D01*
X195113750Y-159017000D01*
X194955000Y-159175750D01*
X194955000Y-159766310D01*
X194976411Y-159818000D01*
X191103589Y-159818000D01*
X191125000Y-159766310D01*
X191125000Y-159175750D01*
X190966250Y-159017000D01*
X189867000Y-159017000D01*
X189867000Y-159037000D01*
X189613000Y-159037000D01*
X189613000Y-159017000D01*
X188513750Y-159017000D01*
X188355000Y-159175750D01*
X188355000Y-159766310D01*
X188376411Y-159818000D01*
X181431000Y-159818000D01*
X181431000Y-159679410D01*
X181579691Y-159741000D01*
X182170250Y-159741000D01*
X182329000Y-159582250D01*
X182329000Y-158203766D01*
X182583000Y-158184480D01*
X182583000Y-159582250D01*
X182741750Y-159741000D01*
X183332309Y-159741000D01*
X183565698Y-159644327D01*
X183744327Y-159465699D01*
X183841000Y-159232310D01*
X183841000Y-158013690D01*
X188355000Y-158013690D01*
X188355000Y-158604250D01*
X188513750Y-158763000D01*
X189613000Y-158763000D01*
X189613000Y-157663750D01*
X189867000Y-157663750D01*
X189867000Y-158763000D01*
X190966250Y-158763000D01*
X191125000Y-158604250D01*
X191125000Y-158013690D01*
X191028327Y-157780301D01*
X190849698Y-157601673D01*
X190616309Y-157505000D01*
X190025750Y-157505000D01*
X189867000Y-157663750D01*
X189613000Y-157663750D01*
X189454250Y-157505000D01*
X188863691Y-157505000D01*
X188630302Y-157601673D01*
X188451673Y-157780301D01*
X188355000Y-158013690D01*
X183841000Y-158013690D01*
X183841000Y-157391750D01*
X183682250Y-157233000D01*
X183553766Y-157233000D01*
X183534480Y-156979000D01*
X183682250Y-156979000D01*
X183841000Y-156820250D01*
X183841000Y-154979690D01*
X183744327Y-154746301D01*
X183565698Y-154567673D01*
X183332309Y-154471000D01*
X182741750Y-154471000D01*
X182583000Y-154629750D01*
X182583000Y-156008234D01*
X182329000Y-156027520D01*
X182329000Y-154629750D01*
X182170250Y-154471000D01*
X181579691Y-154471000D01*
X181431000Y-154532590D01*
X181431000Y-152400000D01*
X181376954Y-152128295D01*
X181223046Y-151897954D01*
X180992705Y-151744046D01*
X180836582Y-151712991D01*
X180842657Y-151710481D01*
X181288914Y-151265003D01*
X181530724Y-150682659D01*
X181531275Y-150052107D01*
X181290481Y-149469343D01*
X180845003Y-149023086D01*
X180262659Y-148781276D01*
X179632107Y-148780725D01*
X179049343Y-149021519D01*
X178603086Y-149466997D01*
X178491000Y-149736930D01*
X178491000Y-148949690D01*
X178394327Y-148716301D01*
X178215698Y-148537673D01*
X177982309Y-148441000D01*
X177841750Y-148441000D01*
X177683002Y-148599748D01*
X177683002Y-148441000D01*
X177571000Y-148441000D01*
X177571000Y-147326000D01*
X177552213Y-147231552D01*
X177492215Y-146929922D01*
X177399428Y-146791057D01*
X177267856Y-146594144D01*
X177267853Y-146594142D01*
X177261856Y-146588144D01*
X176926077Y-146363785D01*
X176530000Y-146284999D01*
X176133923Y-146363785D01*
X175798144Y-146588144D01*
X175573785Y-146923923D01*
X175494999Y-147320000D01*
X175501000Y-147350169D01*
X175501000Y-147660898D01*
X174151501Y-146311399D01*
X173904939Y-146146652D01*
X173614100Y-146088800D01*
X173201032Y-146088800D01*
X178955532Y-140334300D01*
X183535125Y-140334300D01*
X183689274Y-140565000D01*
X183740434Y-140641566D01*
X188605000Y-145506132D01*
X188605000Y-150933156D01*
X188538559Y-150975910D01*
X188393569Y-151188110D01*
X188342560Y-151440000D01*
X188342560Y-152723757D01*
X182291122Y-146672320D01*
X182291162Y-146626833D01*
X182149117Y-146283057D01*
X181886327Y-146019808D01*
X181542799Y-145877162D01*
X181170833Y-145876838D01*
X180827057Y-146018883D01*
X180563808Y-146281673D01*
X180421162Y-146625201D01*
X180420838Y-146997167D01*
X180562883Y-147340943D01*
X180825673Y-147604192D01*
X181169201Y-147746838D01*
X181216077Y-147746879D01*
X188353782Y-154884585D01*
X188342560Y-154940000D01*
X188342560Y-156440000D01*
X188386838Y-156675317D01*
X188525910Y-156891441D01*
X188738110Y-157036431D01*
X188990000Y-157087440D01*
X190490000Y-157087440D01*
X190725317Y-157043162D01*
X190941441Y-156904090D01*
X190995481Y-156825000D01*
X192716730Y-156825000D01*
X192256485Y-157015169D01*
X191866539Y-157404436D01*
X191655241Y-157913298D01*
X191654760Y-158464285D01*
X191865169Y-158973515D01*
X192254436Y-159363461D01*
X192763298Y-159574759D01*
X193314285Y-159575240D01*
X193823515Y-159364831D01*
X194213461Y-158975564D01*
X194424759Y-158466702D01*
X194425154Y-158013690D01*
X194955000Y-158013690D01*
X194955000Y-158604250D01*
X195113750Y-158763000D01*
X196213000Y-158763000D01*
X196213000Y-157663750D01*
X196467000Y-157663750D01*
X196467000Y-158763000D01*
X197566250Y-158763000D01*
X197725000Y-158604250D01*
X197725000Y-158013690D01*
X197628327Y-157780301D01*
X197449698Y-157601673D01*
X197216309Y-157505000D01*
X196625750Y-157505000D01*
X196467000Y-157663750D01*
X196213000Y-157663750D01*
X196054250Y-157505000D01*
X195463691Y-157505000D01*
X195230302Y-157601673D01*
X195051673Y-157780301D01*
X194955000Y-158013690D01*
X194425154Y-158013690D01*
X194425240Y-157915715D01*
X194214831Y-157406485D01*
X193825564Y-157016539D01*
X193364287Y-156825000D01*
X195083156Y-156825000D01*
X195125910Y-156891441D01*
X195338110Y-157036431D01*
X195590000Y-157087440D01*
X197090000Y-157087440D01*
X197325317Y-157043162D01*
X197541441Y-156904090D01*
X197686431Y-156691890D01*
X197737440Y-156440000D01*
X197737440Y-155442619D01*
X219764613Y-155442619D01*
X220104155Y-156264372D01*
X220732321Y-156893636D01*
X221553481Y-157234611D01*
X222442619Y-157235387D01*
X223264372Y-156895845D01*
X223893636Y-156267679D01*
X224234611Y-155446519D01*
X224235387Y-154557381D01*
X223895845Y-153735628D01*
X223267679Y-153106364D01*
X222446519Y-152765389D01*
X221557381Y-152764613D01*
X220735628Y-153104155D01*
X220106364Y-153732321D01*
X219765389Y-154553481D01*
X219764613Y-155442619D01*
X197737440Y-155442619D01*
X197737440Y-154940000D01*
X197693162Y-154704683D01*
X197554090Y-154488559D01*
X197341890Y-154343569D01*
X197090000Y-154292560D01*
X195590000Y-154292560D01*
X195354683Y-154336838D01*
X195138559Y-154475910D01*
X195084519Y-154555000D01*
X190996844Y-154555000D01*
X190954090Y-154488559D01*
X190741890Y-154343569D01*
X190490000Y-154292560D01*
X189911363Y-154292560D01*
X189206243Y-153587440D01*
X190490000Y-153587440D01*
X190725317Y-153543162D01*
X190941441Y-153404090D01*
X191086431Y-153191890D01*
X191137440Y-152940000D01*
X191137440Y-152397692D01*
X191678963Y-151856169D01*
X191655241Y-151913298D01*
X191654760Y-152464285D01*
X191865169Y-152973515D01*
X192254436Y-153363461D01*
X192763298Y-153574759D01*
X193314285Y-153575240D01*
X193823515Y-153364831D01*
X194213461Y-152975564D01*
X194424759Y-152466702D01*
X194425240Y-151915715D01*
X194367964Y-151777096D01*
X194942560Y-152351692D01*
X194942560Y-152940000D01*
X194986838Y-153175317D01*
X195125910Y-153391441D01*
X195338110Y-153536431D01*
X195590000Y-153587440D01*
X197090000Y-153587440D01*
X197325317Y-153543162D01*
X197541441Y-153404090D01*
X197686431Y-153191890D01*
X197737440Y-152940000D01*
X197737440Y-151440000D01*
X197693162Y-151204683D01*
X197554090Y-150988559D01*
X197341890Y-150843569D01*
X197090000Y-150792560D01*
X196593692Y-150792560D01*
X195366566Y-149565434D01*
X195284501Y-149510600D01*
X194998346Y-149319397D01*
X194564000Y-149233000D01*
X191562000Y-149233000D01*
X191127654Y-149319397D01*
X190875000Y-149488215D01*
X190875000Y-145036000D01*
X190788603Y-144601654D01*
X190542566Y-144233434D01*
X185678000Y-139368868D01*
X185678000Y-139123152D01*
X185793000Y-139146440D01*
X185854174Y-139146440D01*
X186043000Y-139184000D01*
X186231826Y-139146440D01*
X186293000Y-139146440D01*
X186528317Y-139102162D01*
X186744441Y-138963090D01*
X186799704Y-138882210D01*
X186845566Y-138851566D01*
X187091603Y-138483346D01*
X187178000Y-138049000D01*
X187178000Y-137368832D01*
X189609560Y-134937272D01*
X189609560Y-136196000D01*
X189653838Y-136431317D01*
X189792910Y-136647441D01*
X190005110Y-136792431D01*
X190257000Y-136843440D01*
X190872000Y-136843440D01*
X190872000Y-136896300D01*
X190958397Y-137330646D01*
X190980472Y-137363683D01*
X191204434Y-137698866D01*
X196358133Y-142852566D01*
X196587316Y-143005701D01*
X196726354Y-143098603D01*
X197160700Y-143185000D01*
X210802837Y-143185000D01*
X210661559Y-143275910D01*
X210516569Y-143488110D01*
X210465560Y-143740000D01*
X210465560Y-145440000D01*
X210509838Y-145675317D01*
X210648910Y-145891441D01*
X210861110Y-146036431D01*
X211113000Y-146087440D01*
X212813000Y-146087440D01*
X213048317Y-146043162D01*
X213264441Y-145904090D01*
X213409431Y-145691890D01*
X213460440Y-145440000D01*
X213460440Y-143740000D01*
X213416162Y-143504683D01*
X213277090Y-143288559D01*
X213064890Y-143143569D01*
X212997459Y-143129914D01*
X213042147Y-143100054D01*
X213364054Y-142618285D01*
X213477093Y-142050000D01*
X213364054Y-141481715D01*
X213042147Y-140999946D01*
X212712974Y-140780000D01*
X213042147Y-140560054D01*
X213364054Y-140078285D01*
X213477093Y-139510000D01*
X213364054Y-138941715D01*
X213042147Y-138459946D01*
X212712974Y-138240000D01*
X213042147Y-138020054D01*
X213364054Y-137538285D01*
X213477093Y-136970000D01*
X213364054Y-136401715D01*
X213137400Y-136062502D01*
X213675701Y-135524201D01*
X213840448Y-135277639D01*
X213898300Y-134986800D01*
X213898300Y-133922800D01*
X213840448Y-133631961D01*
X213675701Y-133385399D01*
X199011201Y-118720899D01*
X199198367Y-118721062D01*
X199542143Y-118579017D01*
X199805392Y-118316227D01*
X199948038Y-117972699D01*
X199948362Y-117600733D01*
X199806317Y-117256957D01*
X199773200Y-117223782D01*
X199773200Y-117037900D01*
X199715348Y-116747061D01*
X199550601Y-116500499D01*
X196301852Y-113251750D01*
X200548000Y-113251750D01*
X200548000Y-113692309D01*
X200644673Y-113925698D01*
X200823301Y-114104327D01*
X201056690Y-114201000D01*
X202797250Y-114201000D01*
X202956000Y-114042250D01*
X202956000Y-113093000D01*
X203210000Y-113093000D01*
X203210000Y-114042250D01*
X203368750Y-114201000D01*
X205109310Y-114201000D01*
X205342699Y-114104327D01*
X205521327Y-113925698D01*
X205618000Y-113692309D01*
X205618000Y-113251750D01*
X205459250Y-113093000D01*
X203210000Y-113093000D01*
X202956000Y-113093000D01*
X200706750Y-113093000D01*
X200548000Y-113251750D01*
X196301852Y-113251750D01*
X195289793Y-112239691D01*
X200548000Y-112239691D01*
X200548000Y-112680250D01*
X200706750Y-112839000D01*
X202956000Y-112839000D01*
X202956000Y-111889750D01*
X203210000Y-111889750D01*
X203210000Y-112839000D01*
X205459250Y-112839000D01*
X205618000Y-112680250D01*
X205618000Y-112239691D01*
X205521327Y-112006302D01*
X205342699Y-111827673D01*
X205109310Y-111731000D01*
X203368750Y-111731000D01*
X203210000Y-111889750D01*
X202956000Y-111889750D01*
X202797250Y-111731000D01*
X201056690Y-111731000D01*
X200823301Y-111827673D01*
X200644673Y-112006302D01*
X200548000Y-112239691D01*
X195289793Y-112239691D01*
X187700102Y-104650000D01*
X196546898Y-104650000D01*
X200320299Y-108423401D01*
X200553043Y-108578916D01*
X200579838Y-108721317D01*
X200718910Y-108937441D01*
X200931110Y-109082431D01*
X201183000Y-109133440D01*
X204983000Y-109133440D01*
X205218317Y-109089162D01*
X205434441Y-108950090D01*
X205579431Y-108737890D01*
X205630440Y-108486000D01*
X205630440Y-107286000D01*
X205586162Y-107050683D01*
X205447090Y-106834559D01*
X205234890Y-106689569D01*
X204983000Y-106638560D01*
X201183000Y-106638560D01*
X200947683Y-106682838D01*
X200814829Y-106768327D01*
X197696502Y-103650000D01*
X198939898Y-103650000D01*
X200835478Y-105545580D01*
X200835438Y-105591067D01*
X200977483Y-105934843D01*
X201240273Y-106198092D01*
X201583801Y-106340738D01*
X201955767Y-106341062D01*
X202299543Y-106199017D01*
X202562792Y-105936227D01*
X202705438Y-105592699D01*
X202705762Y-105220733D01*
X202563717Y-104876957D01*
X202300927Y-104613708D01*
X201957399Y-104471062D01*
X201910523Y-104471021D01*
X199792101Y-102352599D01*
X199545539Y-102187852D01*
X199254700Y-102130000D01*
X196386502Y-102130000D01*
X196630752Y-101885750D01*
X200612000Y-101885750D01*
X200612000Y-102326309D01*
X200708673Y-102559698D01*
X200887301Y-102738327D01*
X201120690Y-102835000D01*
X202861250Y-102835000D01*
X203020000Y-102676250D01*
X203020000Y-101727000D01*
X203274000Y-101727000D01*
X203274000Y-102676250D01*
X203432750Y-102835000D01*
X205173310Y-102835000D01*
X205406699Y-102738327D01*
X205585327Y-102559698D01*
X205682000Y-102326309D01*
X205682000Y-101885750D01*
X205523250Y-101727000D01*
X203274000Y-101727000D01*
X203020000Y-101727000D01*
X200770750Y-101727000D01*
X200612000Y-101885750D01*
X196630752Y-101885750D01*
X197642811Y-100873691D01*
X200612000Y-100873691D01*
X200612000Y-101314250D01*
X200770750Y-101473000D01*
X203020000Y-101473000D01*
X203020000Y-100523750D01*
X203274000Y-100523750D01*
X203274000Y-101473000D01*
X205523250Y-101473000D01*
X205682000Y-101314250D01*
X205682000Y-100873691D01*
X205585327Y-100640302D01*
X205406699Y-100461673D01*
X205173310Y-100365000D01*
X203432750Y-100365000D01*
X203274000Y-100523750D01*
X203020000Y-100523750D01*
X202861250Y-100365000D01*
X201120690Y-100365000D01*
X200887301Y-100461673D01*
X200708673Y-100640302D01*
X200612000Y-100873691D01*
X197642811Y-100873691D01*
X200879241Y-97637261D01*
X200995110Y-97716431D01*
X201247000Y-97767440D01*
X205047000Y-97767440D01*
X205282317Y-97723162D01*
X205498441Y-97584090D01*
X205643431Y-97371890D01*
X205694440Y-97120000D01*
X205694440Y-95920000D01*
X205650162Y-95684683D01*
X205511090Y-95468559D01*
X205298890Y-95323569D01*
X205047000Y-95272560D01*
X203283666Y-95272560D01*
X203390743Y-95228317D01*
X203653992Y-94965527D01*
X203796638Y-94621999D01*
X203796962Y-94250033D01*
X203654917Y-93906257D01*
X203392127Y-93643008D01*
X203048599Y-93500362D01*
X202676633Y-93500038D01*
X202332857Y-93642083D01*
X202299682Y-93675200D01*
X199438800Y-93675200D01*
X199147961Y-93733052D01*
X198901399Y-93897799D01*
X195944498Y-96854700D01*
X195106402Y-96854700D01*
X201007401Y-90953701D01*
X201162916Y-90720957D01*
X201305317Y-90694162D01*
X201521441Y-90555090D01*
X201666431Y-90342890D01*
X201717440Y-90091000D01*
X201717440Y-88476750D01*
X204315000Y-88476750D01*
X204315000Y-90217310D01*
X204411673Y-90450699D01*
X204590302Y-90629327D01*
X204823691Y-90726000D01*
X205264250Y-90726000D01*
X205423000Y-90567250D01*
X205423000Y-88318000D01*
X205677000Y-88318000D01*
X205677000Y-90567250D01*
X205835750Y-90726000D01*
X206276309Y-90726000D01*
X206509698Y-90629327D01*
X206688327Y-90450699D01*
X206785000Y-90217310D01*
X206785000Y-88476750D01*
X206626250Y-88318000D01*
X205677000Y-88318000D01*
X205423000Y-88318000D01*
X204473750Y-88318000D01*
X204315000Y-88476750D01*
X201717440Y-88476750D01*
X201717440Y-86291000D01*
X201693674Y-86164690D01*
X204315000Y-86164690D01*
X204315000Y-87905250D01*
X204473750Y-88064000D01*
X205423000Y-88064000D01*
X205423000Y-85814750D01*
X205677000Y-85814750D01*
X205677000Y-88064000D01*
X206626250Y-88064000D01*
X206785000Y-87905250D01*
X206785000Y-86164690D01*
X206688327Y-85931301D01*
X206509698Y-85752673D01*
X206276309Y-85656000D01*
X205835750Y-85656000D01*
X205677000Y-85814750D01*
X205423000Y-85814750D01*
X205264250Y-85656000D01*
X204823691Y-85656000D01*
X204590302Y-85752673D01*
X204411673Y-85931301D01*
X204315000Y-86164690D01*
X201693674Y-86164690D01*
X201673162Y-86055683D01*
X201534090Y-85839559D01*
X201321890Y-85694569D01*
X201070000Y-85643560D01*
X199870000Y-85643560D01*
X199634683Y-85687838D01*
X199418559Y-85826910D01*
X199273569Y-86039110D01*
X199222560Y-86291000D01*
X199222560Y-90091000D01*
X199266838Y-90326317D01*
X199352327Y-90459171D01*
X193481698Y-96329800D01*
X184949703Y-96329800D01*
X186448003Y-94831500D01*
X193445237Y-94831500D01*
X193477373Y-94863692D01*
X193820901Y-95006338D01*
X194192867Y-95006662D01*
X194536643Y-94864617D01*
X194799892Y-94601827D01*
X194942538Y-94258299D01*
X194942862Y-93886333D01*
X194800817Y-93542557D01*
X194538027Y-93279308D01*
X194194499Y-93136662D01*
X193822533Y-93136338D01*
X193478757Y-93278383D01*
X193445582Y-93311500D01*
X187155602Y-93311500D01*
X189513401Y-90953701D01*
X189668915Y-90720957D01*
X189811317Y-90694162D01*
X190027441Y-90555090D01*
X190172431Y-90342890D01*
X190223440Y-90091000D01*
X190223440Y-88476750D01*
X192821000Y-88476750D01*
X192821000Y-90217310D01*
X192917673Y-90450699D01*
X193096302Y-90629327D01*
X193329691Y-90726000D01*
X193770250Y-90726000D01*
X193929000Y-90567250D01*
X193929000Y-88318000D01*
X194183000Y-88318000D01*
X194183000Y-90567250D01*
X194341750Y-90726000D01*
X194782309Y-90726000D01*
X195015698Y-90629327D01*
X195194327Y-90450699D01*
X195291000Y-90217310D01*
X195291000Y-88476750D01*
X195132250Y-88318000D01*
X194183000Y-88318000D01*
X193929000Y-88318000D01*
X192979750Y-88318000D01*
X192821000Y-88476750D01*
X190223440Y-88476750D01*
X190223440Y-86291000D01*
X190199674Y-86164690D01*
X192821000Y-86164690D01*
X192821000Y-87905250D01*
X192979750Y-88064000D01*
X193929000Y-88064000D01*
X193929000Y-85814750D01*
X194183000Y-85814750D01*
X194183000Y-88064000D01*
X195132250Y-88064000D01*
X195291000Y-87905250D01*
X195291000Y-86164690D01*
X195194327Y-85931301D01*
X195015698Y-85752673D01*
X194782309Y-85656000D01*
X194341750Y-85656000D01*
X194183000Y-85814750D01*
X193929000Y-85814750D01*
X193770250Y-85656000D01*
X193329691Y-85656000D01*
X193096302Y-85752673D01*
X192917673Y-85931301D01*
X192821000Y-86164690D01*
X190199674Y-86164690D01*
X190179162Y-86055683D01*
X190040090Y-85839559D01*
X189827890Y-85694569D01*
X189576000Y-85643560D01*
X188376000Y-85643560D01*
X188140683Y-85687838D01*
X187924559Y-85826910D01*
X187779569Y-86039110D01*
X187728560Y-86291000D01*
X187728560Y-90091000D01*
X187772838Y-90326317D01*
X187858327Y-90459171D01*
X181431213Y-96886285D01*
X181393691Y-96893749D01*
X181383117Y-96868157D01*
X181120327Y-96604908D01*
X180776799Y-96462262D01*
X180404833Y-96461938D01*
X180061057Y-96603983D01*
X179857393Y-96807291D01*
X172611501Y-89561399D01*
X172364939Y-89396652D01*
X172125440Y-89349012D01*
X172125440Y-88159250D01*
X174723000Y-88159250D01*
X174723000Y-89899810D01*
X174819673Y-90133199D01*
X174998302Y-90311827D01*
X175231691Y-90408500D01*
X175672250Y-90408500D01*
X175831000Y-90249750D01*
X175831000Y-88000500D01*
X176085000Y-88000500D01*
X176085000Y-90249750D01*
X176243750Y-90408500D01*
X176684309Y-90408500D01*
X176917698Y-90311827D01*
X177096327Y-90133199D01*
X177193000Y-89899810D01*
X177193000Y-88159250D01*
X177034250Y-88000500D01*
X176085000Y-88000500D01*
X175831000Y-88000500D01*
X174881750Y-88000500D01*
X174723000Y-88159250D01*
X172125440Y-88159250D01*
X172125440Y-85973500D01*
X172101674Y-85847190D01*
X174723000Y-85847190D01*
X174723000Y-87587750D01*
X174881750Y-87746500D01*
X175831000Y-87746500D01*
X175831000Y-85497250D01*
X176085000Y-85497250D01*
X176085000Y-87746500D01*
X177034250Y-87746500D01*
X177193000Y-87587750D01*
X177193000Y-85847190D01*
X177096327Y-85613801D01*
X176917698Y-85435173D01*
X176684309Y-85338500D01*
X176243750Y-85338500D01*
X176085000Y-85497250D01*
X175831000Y-85497250D01*
X175672250Y-85338500D01*
X175231691Y-85338500D01*
X174998302Y-85435173D01*
X174819673Y-85613801D01*
X174723000Y-85847190D01*
X172101674Y-85847190D01*
X172081162Y-85738183D01*
X171942090Y-85522059D01*
X171729890Y-85377069D01*
X171478000Y-85326060D01*
X170278000Y-85326060D01*
X170042683Y-85370338D01*
X169826559Y-85509410D01*
X169681569Y-85721610D01*
X169630560Y-85973500D01*
X169630560Y-89580458D01*
X169611501Y-89561399D01*
X169364939Y-89396652D01*
X169074100Y-89338800D01*
X165573000Y-89338800D01*
X165573000Y-88159250D01*
X165414250Y-88000500D01*
X164465000Y-88000500D01*
X164465000Y-88020500D01*
X164211000Y-88020500D01*
X164211000Y-88000500D01*
X163261750Y-88000500D01*
X163103000Y-88159250D01*
X163103000Y-89338800D01*
X160505440Y-89338800D01*
X160505440Y-85973500D01*
X160481674Y-85847190D01*
X163103000Y-85847190D01*
X163103000Y-87587750D01*
X163261750Y-87746500D01*
X164211000Y-87746500D01*
X164211000Y-85497250D01*
X164465000Y-85497250D01*
X164465000Y-87746500D01*
X165414250Y-87746500D01*
X165573000Y-87587750D01*
X165573000Y-85847190D01*
X165476327Y-85613801D01*
X165297698Y-85435173D01*
X165064309Y-85338500D01*
X164623750Y-85338500D01*
X164465000Y-85497250D01*
X164211000Y-85497250D01*
X164052250Y-85338500D01*
X163611691Y-85338500D01*
X163378302Y-85435173D01*
X163199673Y-85613801D01*
X163103000Y-85847190D01*
X160481674Y-85847190D01*
X160461162Y-85738183D01*
X160322090Y-85522059D01*
X160109890Y-85377069D01*
X159858000Y-85326060D01*
X158658000Y-85326060D01*
X158422683Y-85370338D01*
X158206559Y-85509410D01*
X158061569Y-85721610D01*
X158010560Y-85973500D01*
X158010560Y-89773500D01*
X158054838Y-90008817D01*
X158193910Y-90224941D01*
X158406110Y-90369931D01*
X158564055Y-90401916D01*
X158720599Y-90636201D01*
X158967161Y-90800948D01*
X159258000Y-90858800D01*
X168759298Y-90858800D01*
X175821423Y-97920925D01*
X175817560Y-97940000D01*
X175817560Y-98940000D01*
X175861838Y-99175317D01*
X176000910Y-99391441D01*
X176213110Y-99536431D01*
X176465000Y-99587440D01*
X176715000Y-99587440D01*
X176830000Y-99565801D01*
X176830000Y-103134198D01*
X175812520Y-104151678D01*
X175767033Y-104151638D01*
X175766176Y-104151992D01*
X175763056Y-104135411D01*
X175787440Y-104015000D01*
X175787440Y-103765000D01*
X175763056Y-103635411D01*
X175787440Y-103515000D01*
X175787440Y-103265000D01*
X175763056Y-103135411D01*
X175787440Y-103015000D01*
X175787440Y-102765000D01*
X175763056Y-102635411D01*
X175787440Y-102515000D01*
X175787440Y-102265000D01*
X175763056Y-102135411D01*
X175787440Y-102015000D01*
X175787440Y-101765000D01*
X175763056Y-101635411D01*
X175787440Y-101515000D01*
X175787440Y-101265000D01*
X175763056Y-101135411D01*
X175787440Y-101015000D01*
X175787440Y-100765000D01*
X175763056Y-100635411D01*
X175787440Y-100515000D01*
X175787440Y-100265000D01*
X175743162Y-100029683D01*
X175604090Y-99813559D01*
X175391890Y-99668569D01*
X175140000Y-99617560D01*
X174140000Y-99617560D01*
X174073887Y-99630000D01*
X173814700Y-99630000D01*
X173523861Y-99687852D01*
X173277299Y-99852599D01*
X173112552Y-100099161D01*
X173089563Y-100214735D01*
X172211920Y-101092378D01*
X172166433Y-101092338D01*
X171822657Y-101234383D01*
X171559408Y-101497173D01*
X171416762Y-101840701D01*
X171416717Y-101892800D01*
X164360902Y-101892800D01*
X159804422Y-97336320D01*
X159804462Y-97290833D01*
X159662417Y-96947057D01*
X159399627Y-96683808D01*
X159056099Y-96541162D01*
X158684133Y-96540838D01*
X158340357Y-96682883D01*
X158077108Y-96945673D01*
X157934462Y-97289201D01*
X157934138Y-97661167D01*
X158076183Y-98004943D01*
X158338973Y-98268192D01*
X158682501Y-98410838D01*
X158729377Y-98410879D01*
X162948498Y-102630000D01*
X162032300Y-102630000D01*
X161741461Y-102687852D01*
X161494899Y-102852599D01*
X158974759Y-105372739D01*
X158858890Y-105293569D01*
X158607000Y-105242560D01*
X154807000Y-105242560D01*
X154571683Y-105286838D01*
X154355559Y-105425910D01*
X154210569Y-105638110D01*
X154159560Y-105890000D01*
X154159560Y-107090000D01*
X154203838Y-107325317D01*
X154342910Y-107541441D01*
X154555110Y-107686431D01*
X154807000Y-107737440D01*
X158601232Y-107737440D01*
X158434408Y-107903973D01*
X158291762Y-108247501D01*
X158291438Y-108619467D01*
X158433483Y-108963243D01*
X158696273Y-109226492D01*
X159039801Y-109369138D01*
X159411767Y-109369462D01*
X159755543Y-109227417D01*
X160018792Y-108964627D01*
X160161438Y-108621099D01*
X160161479Y-108574223D01*
X163585702Y-105150000D01*
X171071498Y-105150000D01*
X158974759Y-117246739D01*
X158858890Y-117167569D01*
X158607000Y-117116560D01*
X154807000Y-117116560D01*
X154571683Y-117160838D01*
X154355559Y-117299910D01*
X154210569Y-117512110D01*
X154159560Y-117764000D01*
X154159560Y-118964000D01*
X154203838Y-119199317D01*
X154342910Y-119415441D01*
X154555110Y-119560431D01*
X154807000Y-119611440D01*
X158607000Y-119611440D01*
X158842317Y-119567162D01*
X159058441Y-119428090D01*
X159203431Y-119215890D01*
X159235416Y-119057945D01*
X159469701Y-118901401D01*
X170504000Y-107867102D01*
X170504000Y-107916309D01*
X170600673Y-108149698D01*
X170602043Y-108151068D01*
X170542569Y-108238110D01*
X170516404Y-108367318D01*
X170465397Y-108443655D01*
X170379000Y-108878000D01*
X170465397Y-109312345D01*
X170507668Y-109375609D01*
X170535838Y-109525317D01*
X170674910Y-109741441D01*
X170887110Y-109886431D01*
X170924965Y-109894097D01*
X173027668Y-111996800D01*
X171161600Y-111996800D01*
X170727254Y-112083197D01*
X170450677Y-112268000D01*
X170359034Y-112329234D01*
X156040034Y-126648234D01*
X155793997Y-127016454D01*
X155707600Y-127450800D01*
X155707600Y-132142300D01*
X155793997Y-132576646D01*
X155871832Y-132693134D01*
X156040034Y-132944866D01*
X156976895Y-133881727D01*
X156946569Y-133926110D01*
X156895560Y-134178000D01*
X156895560Y-137778000D01*
X156939838Y-138013317D01*
X157078910Y-138229441D01*
X157291110Y-138374431D01*
X157543000Y-138425440D01*
X158813000Y-138425440D01*
X159048317Y-138381162D01*
X159264441Y-138242090D01*
X159409431Y-138029890D01*
X159448000Y-137839431D01*
X159448000Y-137904310D01*
X159544673Y-138137699D01*
X159723302Y-138316327D01*
X159956691Y-138413000D01*
X160432250Y-138413000D01*
X160591000Y-138254250D01*
X160591000Y-136105000D01*
X160845000Y-136105000D01*
X160845000Y-138254250D01*
X161003750Y-138413000D01*
X161479309Y-138413000D01*
X161712698Y-138316327D01*
X161891327Y-138137699D01*
X161988000Y-137904310D01*
X162084673Y-138137699D01*
X162263302Y-138316327D01*
X162496691Y-138413000D01*
X162972250Y-138413000D01*
X163131000Y-138254250D01*
X163131000Y-136105000D01*
X162146750Y-136105000D01*
X161988000Y-136263750D01*
X161829250Y-136105000D01*
X160845000Y-136105000D01*
X160591000Y-136105000D01*
X160571000Y-136105000D01*
X160571000Y-135851000D01*
X160591000Y-135851000D01*
X160591000Y-133701750D01*
X160845000Y-133701750D01*
X160845000Y-135851000D01*
X161829250Y-135851000D01*
X161988000Y-135692250D01*
X162146750Y-135851000D01*
X163131000Y-135851000D01*
X163131000Y-133701750D01*
X163385000Y-133701750D01*
X163385000Y-135851000D01*
X163405000Y-135851000D01*
X163405000Y-136105000D01*
X163385000Y-136105000D01*
X163385000Y-138254250D01*
X163543750Y-138413000D01*
X164019309Y-138413000D01*
X164252698Y-138316327D01*
X164431327Y-138137699D01*
X164528000Y-137904310D01*
X164528000Y-137844113D01*
X164559838Y-138013317D01*
X164698910Y-138229441D01*
X164911110Y-138374431D01*
X165163000Y-138425440D01*
X166433000Y-138425440D01*
X166668317Y-138381162D01*
X166884441Y-138242090D01*
X167029431Y-138029890D01*
X167068000Y-137839431D01*
X167068000Y-137904310D01*
X167164673Y-138137699D01*
X167343302Y-138316327D01*
X167576691Y-138413000D01*
X168052250Y-138413000D01*
X168211000Y-138254250D01*
X168211000Y-136105000D01*
X168465000Y-136105000D01*
X168465000Y-138254250D01*
X168623750Y-138413000D01*
X169099309Y-138413000D01*
X169332698Y-138316327D01*
X169511327Y-138137699D01*
X169608000Y-137904310D01*
X169608000Y-136263750D01*
X169449250Y-136105000D01*
X168465000Y-136105000D01*
X168211000Y-136105000D01*
X168191000Y-136105000D01*
X168191000Y-135851000D01*
X168211000Y-135851000D01*
X168211000Y-133701750D01*
X168465000Y-133701750D01*
X168465000Y-135851000D01*
X169449250Y-135851000D01*
X169608000Y-135692250D01*
X169608000Y-134051690D01*
X169511327Y-133818301D01*
X169332698Y-133639673D01*
X169099309Y-133543000D01*
X168623750Y-133543000D01*
X168465000Y-133701750D01*
X168211000Y-133701750D01*
X168052250Y-133543000D01*
X167576691Y-133543000D01*
X167343302Y-133639673D01*
X167164673Y-133818301D01*
X167068000Y-134051690D01*
X167068000Y-134111887D01*
X167036162Y-133942683D01*
X166897090Y-133726559D01*
X166684890Y-133581569D01*
X166433000Y-133530560D01*
X165163000Y-133530560D01*
X164927683Y-133574838D01*
X164711559Y-133713910D01*
X164566569Y-133926110D01*
X164528000Y-134116569D01*
X164528000Y-134051690D01*
X164431327Y-133818301D01*
X164252698Y-133639673D01*
X164019309Y-133543000D01*
X163543750Y-133543000D01*
X163385000Y-133701750D01*
X163131000Y-133701750D01*
X162972250Y-133543000D01*
X162496691Y-133543000D01*
X162263302Y-133639673D01*
X162084673Y-133818301D01*
X161988000Y-134051690D01*
X161891327Y-133818301D01*
X161712698Y-133639673D01*
X161479309Y-133543000D01*
X161003750Y-133543000D01*
X160845000Y-133701750D01*
X160591000Y-133701750D01*
X160432250Y-133543000D01*
X159956691Y-133543000D01*
X159723302Y-133639673D01*
X159544673Y-133818301D01*
X159448000Y-134051690D01*
X159448000Y-134111887D01*
X159416162Y-133942683D01*
X159313000Y-133782365D01*
X159313000Y-133477700D01*
X159226603Y-133043354D01*
X158980566Y-132675134D01*
X158330872Y-132025440D01*
X158813000Y-132025440D01*
X159048317Y-131981162D01*
X159264441Y-131842090D01*
X159409431Y-131629890D01*
X159447543Y-131441686D01*
X159479838Y-131613317D01*
X159618910Y-131829441D01*
X159831110Y-131974431D01*
X160083000Y-132025440D01*
X161353000Y-132025440D01*
X161588317Y-131981162D01*
X161804441Y-131842090D01*
X161949431Y-131629890D01*
X161987543Y-131441686D01*
X162019838Y-131613317D01*
X162158910Y-131829441D01*
X162371110Y-131974431D01*
X162623000Y-132025440D01*
X163893000Y-132025440D01*
X164128317Y-131981162D01*
X164344441Y-131842090D01*
X164489431Y-131629890D01*
X164527543Y-131441686D01*
X164559838Y-131613317D01*
X164698910Y-131829441D01*
X164911110Y-131974431D01*
X165163000Y-132025440D01*
X166433000Y-132025440D01*
X166668317Y-131981162D01*
X166884441Y-131842090D01*
X167029431Y-131629890D01*
X167067543Y-131441686D01*
X167099838Y-131613317D01*
X167238910Y-131829441D01*
X167451110Y-131974431D01*
X167703000Y-132025440D01*
X168973000Y-132025440D01*
X169208317Y-131981162D01*
X169424441Y-131842090D01*
X169569431Y-131629890D01*
X169620440Y-131378000D01*
X169620440Y-129979167D01*
X173308838Y-129979167D01*
X173450883Y-130322943D01*
X173713673Y-130586192D01*
X174057201Y-130728838D01*
X174429167Y-130729162D01*
X174616518Y-130651750D01*
X177767000Y-130651750D01*
X177767000Y-131742310D01*
X177863673Y-131975699D01*
X178042302Y-132154327D01*
X178275691Y-132251000D01*
X180116250Y-132251000D01*
X180275000Y-132092250D01*
X180275000Y-130493000D01*
X180529000Y-130493000D01*
X180529000Y-132092250D01*
X180687750Y-132251000D01*
X182528309Y-132251000D01*
X182761698Y-132154327D01*
X182940327Y-131975699D01*
X183037000Y-131742310D01*
X183037000Y-130651750D01*
X182878250Y-130493000D01*
X180529000Y-130493000D01*
X180275000Y-130493000D01*
X177925750Y-130493000D01*
X177767000Y-130651750D01*
X174616518Y-130651750D01*
X174772943Y-130587117D01*
X175036192Y-130324327D01*
X175178838Y-129980799D01*
X175178913Y-129894154D01*
X175263648Y-129767339D01*
X175321500Y-129476500D01*
X175321500Y-128989690D01*
X177767000Y-128989690D01*
X177767000Y-130080250D01*
X177925750Y-130239000D01*
X180275000Y-130239000D01*
X180275000Y-128639750D01*
X180529000Y-128639750D01*
X180529000Y-130239000D01*
X182878250Y-130239000D01*
X183037000Y-130080250D01*
X183037000Y-128989690D01*
X182940327Y-128756301D01*
X182761698Y-128577673D01*
X182528309Y-128481000D01*
X180687750Y-128481000D01*
X180529000Y-128639750D01*
X180275000Y-128639750D01*
X180116250Y-128481000D01*
X178275691Y-128481000D01*
X178042302Y-128577673D01*
X177863673Y-128756301D01*
X177767000Y-128989690D01*
X175321500Y-128989690D01*
X175321500Y-124133463D01*
X175353692Y-124101327D01*
X175496338Y-123757799D01*
X175496662Y-123385833D01*
X175354617Y-123042057D01*
X175091827Y-122778808D01*
X174748299Y-122636162D01*
X174376333Y-122635838D01*
X174032557Y-122777883D01*
X173769308Y-123040673D01*
X173626662Y-123384201D01*
X173626338Y-123756167D01*
X173768383Y-124099943D01*
X173801500Y-124133118D01*
X173801500Y-128965166D01*
X173715057Y-129000883D01*
X173451808Y-129263673D01*
X173309162Y-129607201D01*
X173308838Y-129979167D01*
X169620440Y-129979167D01*
X169620440Y-127778000D01*
X169576162Y-127542683D01*
X169437090Y-127326559D01*
X169224890Y-127181569D01*
X169098000Y-127155873D01*
X169098000Y-127068700D01*
X169040148Y-126777861D01*
X168875401Y-126531299D01*
X168756022Y-126411920D01*
X168756062Y-126366433D01*
X168614017Y-126022657D01*
X168351227Y-125759408D01*
X168007699Y-125616762D01*
X167635733Y-125616438D01*
X167291957Y-125758483D01*
X167028708Y-126021273D01*
X166886062Y-126364801D01*
X166885738Y-126736767D01*
X167027783Y-127080543D01*
X167257151Y-127310312D01*
X167251559Y-127313910D01*
X167106569Y-127526110D01*
X167068457Y-127714314D01*
X167036162Y-127542683D01*
X166897090Y-127326559D01*
X166684890Y-127181569D01*
X166433000Y-127130560D01*
X165163000Y-127130560D01*
X164927683Y-127174838D01*
X164711559Y-127313910D01*
X164566569Y-127526110D01*
X164528457Y-127714314D01*
X164496162Y-127542683D01*
X164357090Y-127326559D01*
X164144890Y-127181569D01*
X163893000Y-127130560D01*
X162623000Y-127130560D01*
X162387683Y-127174838D01*
X162171559Y-127313910D01*
X162026569Y-127526110D01*
X161988457Y-127714314D01*
X161956162Y-127542683D01*
X161938013Y-127514478D01*
X162051738Y-127240599D01*
X162052048Y-126884688D01*
X162177343Y-126832917D01*
X162440592Y-126570127D01*
X162583238Y-126226599D01*
X162583562Y-125854633D01*
X162441517Y-125510857D01*
X162178727Y-125247608D01*
X161835199Y-125104962D01*
X161463233Y-125104638D01*
X161119457Y-125246683D01*
X161086282Y-125279800D01*
X160618732Y-125279800D01*
X171631732Y-114266800D01*
X173774168Y-114266800D01*
X176637233Y-117129866D01*
X176910653Y-117312559D01*
X177005454Y-117375903D01*
X177439800Y-117462300D01*
X183032868Y-117462300D01*
X183297766Y-117727198D01*
X183410934Y-117896566D01*
X183427779Y-117907821D01*
X183439034Y-117924666D01*
X183918934Y-118404566D01*
X184088303Y-118517735D01*
X193322400Y-127751832D01*
X193322400Y-128968560D01*
X190257000Y-128968560D01*
X190021683Y-129012838D01*
X189805559Y-129151910D01*
X189674984Y-129343013D01*
X189636646Y-129317397D01*
X189202300Y-129231000D01*
X189149440Y-129231000D01*
X189149440Y-129116000D01*
X189105162Y-128880683D01*
X188966090Y-128664559D01*
X188753890Y-128519569D01*
X188502000Y-128468560D01*
X184502000Y-128468560D01*
X184266683Y-128512838D01*
X184050559Y-128651910D01*
X183905569Y-128864110D01*
X183854560Y-129116000D01*
X183854560Y-131616000D01*
X183898838Y-131851317D01*
X184037910Y-132067441D01*
X184250110Y-132212431D01*
X184502000Y-132263440D01*
X188317300Y-132263440D01*
X188317300Y-133019268D01*
X185240434Y-136096134D01*
X184994397Y-136464354D01*
X184908000Y-136898700D01*
X184908000Y-136974848D01*
X184793000Y-136951560D01*
X184731826Y-136951560D01*
X184543000Y-136914000D01*
X184354174Y-136951560D01*
X184293000Y-136951560D01*
X184057683Y-136995838D01*
X183841559Y-137134910D01*
X183786296Y-137215790D01*
X183740434Y-137246434D01*
X183494397Y-137614654D01*
X183408000Y-138049000D01*
X183408000Y-138064300D01*
X178485400Y-138064300D01*
X178051054Y-138150697D01*
X177764808Y-138341961D01*
X177682834Y-138396734D01*
X170965868Y-145113700D01*
X153594300Y-145113700D01*
X153159954Y-145200097D01*
X152791733Y-145446134D01*
X150313434Y-147924434D01*
X150067397Y-148292654D01*
X150037889Y-148441000D01*
X149968998Y-148441000D01*
X149968998Y-148599748D01*
X149810250Y-148441000D01*
X149669691Y-148441000D01*
X149436302Y-148537673D01*
X149257673Y-148716301D01*
X149161000Y-148949690D01*
X149161000Y-149840250D01*
X149319748Y-149998998D01*
X149199331Y-149998998D01*
X148980481Y-149469343D01*
X148535003Y-149023086D01*
X147952659Y-148781276D01*
X147322107Y-148780725D01*
X146739343Y-149021519D01*
X146293086Y-149466997D01*
X146051276Y-150049341D01*
X146050725Y-150679893D01*
X146291519Y-151262657D01*
X146736997Y-151708914D01*
X146792193Y-151731833D01*
X146730795Y-151744046D01*
X146500454Y-151897954D01*
X146346546Y-152128295D01*
X146292500Y-152400000D01*
X146292500Y-154714474D01*
X146145698Y-154567673D01*
X145912309Y-154471000D01*
X145321750Y-154471000D01*
X145163000Y-154629750D01*
X145163000Y-156008234D01*
X144909000Y-156027520D01*
X144909000Y-154629750D01*
X144750250Y-154471000D01*
X144159691Y-154471000D01*
X143926302Y-154567673D01*
X143747673Y-154746301D01*
X143651000Y-154979690D01*
X143651000Y-156820250D01*
X143809750Y-156979000D01*
X143938234Y-156979000D01*
X143957520Y-157233000D01*
X143809750Y-157233000D01*
X143651000Y-157391750D01*
X143651000Y-159232310D01*
X143747673Y-159465699D01*
X143926302Y-159644327D01*
X144159691Y-159741000D01*
X144750250Y-159741000D01*
X144909000Y-159582250D01*
X144909000Y-158203766D01*
X145163000Y-158184480D01*
X145163000Y-159582250D01*
X145321750Y-159741000D01*
X145912309Y-159741000D01*
X146145698Y-159644327D01*
X146292500Y-159497526D01*
X146292500Y-159818000D01*
X130504000Y-159818000D01*
X130504000Y-155442619D01*
X135764613Y-155442619D01*
X136104155Y-156264372D01*
X136732321Y-156893636D01*
X137553481Y-157234611D01*
X138442619Y-157235387D01*
X139264372Y-156895845D01*
X139893636Y-156267679D01*
X140234611Y-155446519D01*
X140235387Y-154557381D01*
X139895845Y-153735628D01*
X139267679Y-153106364D01*
X138446519Y-152765389D01*
X137557381Y-152764613D01*
X136735628Y-153104155D01*
X136106364Y-153732321D01*
X135765389Y-154553481D01*
X135764613Y-155442619D01*
X130504000Y-155442619D01*
X130504000Y-142615667D01*
X158005338Y-142615667D01*
X158147383Y-142959443D01*
X158410173Y-143222692D01*
X158753701Y-143365338D01*
X158800577Y-143365379D01*
X159165099Y-143729901D01*
X159411661Y-143894648D01*
X159702500Y-143952500D01*
X164982037Y-143952500D01*
X165014173Y-143984692D01*
X165357701Y-144127338D01*
X165729667Y-144127662D01*
X166073443Y-143985617D01*
X166336692Y-143722827D01*
X166479338Y-143379299D01*
X166479662Y-143007333D01*
X166337617Y-142663557D01*
X166074827Y-142400308D01*
X165731299Y-142257662D01*
X165359333Y-142257338D01*
X165015557Y-142399383D01*
X164982382Y-142432500D01*
X160017302Y-142432500D01*
X159875622Y-142290820D01*
X159875662Y-142245333D01*
X159733617Y-141901557D01*
X159470827Y-141638308D01*
X159127299Y-141495662D01*
X158755333Y-141495338D01*
X158411557Y-141637383D01*
X158148308Y-141900173D01*
X158005662Y-142243701D01*
X158005338Y-142615667D01*
X130504000Y-142615667D01*
X130504000Y-141091667D01*
X171022838Y-141091667D01*
X171164883Y-141435443D01*
X171427673Y-141698692D01*
X171771201Y-141841338D01*
X172143167Y-141841662D01*
X172486943Y-141699617D01*
X172750192Y-141436827D01*
X172892838Y-141093299D01*
X172892879Y-141046423D01*
X174463901Y-139475401D01*
X174628648Y-139228840D01*
X174686500Y-138938000D01*
X174686500Y-136515963D01*
X174718692Y-136483827D01*
X174861338Y-136140299D01*
X174861662Y-135768333D01*
X174719617Y-135424557D01*
X174456827Y-135161308D01*
X174113299Y-135018662D01*
X173741333Y-135018338D01*
X173397557Y-135160383D01*
X173134308Y-135423173D01*
X172991662Y-135766701D01*
X172991338Y-136138667D01*
X173133383Y-136482443D01*
X173166500Y-136515618D01*
X173166500Y-138623198D01*
X171818320Y-139971378D01*
X171772833Y-139971338D01*
X171429057Y-140113383D01*
X171165808Y-140376173D01*
X171023162Y-140719701D01*
X171022838Y-141091667D01*
X130504000Y-141091667D01*
X130504000Y-114300000D01*
X133715000Y-114300000D01*
X133877517Y-115117029D01*
X134340327Y-115809673D01*
X135864327Y-117333673D01*
X136556970Y-117796483D01*
X137374000Y-117959000D01*
X141656560Y-117959000D01*
X141656560Y-121069000D01*
X141700838Y-121304317D01*
X141839910Y-121520441D01*
X142052110Y-121665431D01*
X142304000Y-121716440D01*
X150684000Y-121716440D01*
X150919317Y-121672162D01*
X151135441Y-121533090D01*
X151280431Y-121320890D01*
X151331440Y-121069000D01*
X151331440Y-113569750D01*
X154172000Y-113569750D01*
X154172000Y-114010309D01*
X154268673Y-114243698D01*
X154447301Y-114422327D01*
X154680690Y-114519000D01*
X156421250Y-114519000D01*
X156580000Y-114360250D01*
X156580000Y-113411000D01*
X156834000Y-113411000D01*
X156834000Y-114360250D01*
X156992750Y-114519000D01*
X158733310Y-114519000D01*
X158966699Y-114422327D01*
X159145327Y-114243698D01*
X159242000Y-114010309D01*
X159242000Y-113569750D01*
X159083250Y-113411000D01*
X156834000Y-113411000D01*
X156580000Y-113411000D01*
X154330750Y-113411000D01*
X154172000Y-113569750D01*
X151331440Y-113569750D01*
X151331440Y-112557691D01*
X154172000Y-112557691D01*
X154172000Y-112998250D01*
X154330750Y-113157000D01*
X156580000Y-113157000D01*
X156580000Y-112207750D01*
X156834000Y-112207750D01*
X156834000Y-113157000D01*
X159083250Y-113157000D01*
X159242000Y-112998250D01*
X159242000Y-112557691D01*
X159145327Y-112324302D01*
X158966699Y-112145673D01*
X158733310Y-112049000D01*
X156992750Y-112049000D01*
X156834000Y-112207750D01*
X156580000Y-112207750D01*
X156421250Y-112049000D01*
X154680690Y-112049000D01*
X154447301Y-112145673D01*
X154268673Y-112324302D01*
X154172000Y-112557691D01*
X151331440Y-112557691D01*
X151331440Y-110579000D01*
X151287162Y-110343683D01*
X151148090Y-110127559D01*
X150935890Y-109982569D01*
X150684000Y-109931560D01*
X142304000Y-109931560D01*
X142068683Y-109975838D01*
X141852559Y-110114910D01*
X141707569Y-110327110D01*
X141656560Y-110579000D01*
X141656560Y-113689000D01*
X138258346Y-113689000D01*
X137359673Y-112790327D01*
X136667029Y-112327517D01*
X135850000Y-112165000D01*
X135032971Y-112327517D01*
X134340327Y-112790327D01*
X133877517Y-113482971D01*
X133715000Y-114300000D01*
X130504000Y-114300000D01*
X130504000Y-109593305D01*
X133964674Y-109593305D01*
X134251043Y-110286372D01*
X134780839Y-110817093D01*
X135473405Y-111104672D01*
X136223305Y-111105326D01*
X136916372Y-110818957D01*
X137447093Y-110289161D01*
X137734672Y-109596595D01*
X137735326Y-108846695D01*
X137448957Y-108153628D01*
X136919161Y-107622907D01*
X136226595Y-107335328D01*
X135476695Y-107334674D01*
X134783628Y-107621043D01*
X134252907Y-108150839D01*
X133965328Y-108843405D01*
X133964674Y-109593305D01*
X130504000Y-109593305D01*
X130504000Y-104140000D01*
X133715000Y-104140000D01*
X133877517Y-104957029D01*
X134340327Y-105649673D01*
X135032971Y-106112483D01*
X135850000Y-106275000D01*
X136667029Y-106112483D01*
X136708160Y-106085000D01*
X141656560Y-106085000D01*
X141656560Y-109195000D01*
X141700838Y-109430317D01*
X141839910Y-109646441D01*
X142052110Y-109791431D01*
X142304000Y-109842440D01*
X150684000Y-109842440D01*
X150919317Y-109798162D01*
X151135441Y-109659090D01*
X151280431Y-109446890D01*
X151331440Y-109195000D01*
X151331440Y-101695750D01*
X154172000Y-101695750D01*
X154172000Y-102136309D01*
X154268673Y-102369698D01*
X154447301Y-102548327D01*
X154680690Y-102645000D01*
X156421250Y-102645000D01*
X156580000Y-102486250D01*
X156580000Y-101537000D01*
X156834000Y-101537000D01*
X156834000Y-102486250D01*
X156992750Y-102645000D01*
X158733310Y-102645000D01*
X158966699Y-102548327D01*
X159145327Y-102369698D01*
X159242000Y-102136309D01*
X159242000Y-101695750D01*
X159083250Y-101537000D01*
X156834000Y-101537000D01*
X156580000Y-101537000D01*
X154330750Y-101537000D01*
X154172000Y-101695750D01*
X151331440Y-101695750D01*
X151331440Y-100683691D01*
X154172000Y-100683691D01*
X154172000Y-101124250D01*
X154330750Y-101283000D01*
X156580000Y-101283000D01*
X156580000Y-100333750D01*
X156834000Y-100333750D01*
X156834000Y-101283000D01*
X159083250Y-101283000D01*
X159242000Y-101124250D01*
X159242000Y-100683691D01*
X159145327Y-100450302D01*
X158966699Y-100271673D01*
X158733310Y-100175000D01*
X156992750Y-100175000D01*
X156834000Y-100333750D01*
X156580000Y-100333750D01*
X156421250Y-100175000D01*
X154680690Y-100175000D01*
X154447301Y-100271673D01*
X154268673Y-100450302D01*
X154172000Y-100683691D01*
X151331440Y-100683691D01*
X151331440Y-98705000D01*
X151287162Y-98469683D01*
X151148090Y-98253559D01*
X150935890Y-98108569D01*
X150684000Y-98057560D01*
X142304000Y-98057560D01*
X142068683Y-98101838D01*
X141852559Y-98240910D01*
X141707569Y-98453110D01*
X141656560Y-98705000D01*
X141656560Y-101815000D01*
X136040000Y-101815000D01*
X135222971Y-101977517D01*
X134530327Y-102440327D01*
X134340327Y-102630327D01*
X133877517Y-103322971D01*
X133715000Y-104140000D01*
X130504000Y-104140000D01*
X130504000Y-99433305D01*
X133964674Y-99433305D01*
X134251043Y-100126372D01*
X134780839Y-100657093D01*
X135473405Y-100944672D01*
X136223305Y-100945326D01*
X136916372Y-100658957D01*
X137447093Y-100129161D01*
X137734672Y-99436595D01*
X137735326Y-98686695D01*
X137448957Y-97993628D01*
X136919161Y-97462907D01*
X136226595Y-97175328D01*
X135476695Y-97174674D01*
X134783628Y-97461043D01*
X134252907Y-97990839D01*
X133965328Y-98683405D01*
X133964674Y-99433305D01*
X130504000Y-99433305D01*
X130504000Y-93980000D01*
X133755000Y-93980000D01*
X133917517Y-94797029D01*
X134380327Y-95489673D01*
X135072971Y-95952483D01*
X135890000Y-96115000D01*
X137732000Y-96115000D01*
X137732050Y-96114990D01*
X137732101Y-96115000D01*
X138138467Y-96034149D01*
X138549029Y-95952483D01*
X138549072Y-95952454D01*
X138549123Y-95952444D01*
X138894836Y-95721422D01*
X139241673Y-95489673D01*
X139241702Y-95489630D01*
X139241745Y-95489601D01*
X144511745Y-90219101D01*
X144746826Y-89867242D01*
X144974483Y-89526529D01*
X144974493Y-89526480D01*
X144974522Y-89526436D01*
X145056584Y-89113781D01*
X145137000Y-88709500D01*
X145137000Y-86423500D01*
X145136997Y-86423483D01*
X145137000Y-86423465D01*
X145058410Y-86028400D01*
X144974483Y-85606471D01*
X144974472Y-85606455D01*
X144974469Y-85606438D01*
X144746536Y-85265324D01*
X144511673Y-84913827D01*
X144511658Y-84913817D01*
X144511648Y-84913802D01*
X142930070Y-83332276D01*
X155610169Y-70652177D01*
X155941673Y-70430673D01*
X156404483Y-69738029D01*
X156567000Y-68921000D01*
X156567000Y-68511846D01*
X157856346Y-67222500D01*
X162094927Y-67222500D01*
X161812327Y-67411327D01*
X161349517Y-68103971D01*
X161187000Y-68921000D01*
X161187000Y-72823060D01*
X156553000Y-72823060D01*
X156317683Y-72867338D01*
X156101559Y-73006410D01*
X155956569Y-73218610D01*
X155905560Y-73470500D01*
X155905560Y-81850500D01*
X155949838Y-82085817D01*
X156088910Y-82301941D01*
X156301110Y-82446931D01*
X156553000Y-82497940D01*
X167043000Y-82497940D01*
X167278317Y-82453662D01*
X167494441Y-82314590D01*
X167609083Y-82146806D01*
X167708910Y-82301941D01*
X167921110Y-82446931D01*
X168173000Y-82497940D01*
X178663000Y-82497940D01*
X178898317Y-82453662D01*
X179114441Y-82314590D01*
X179259431Y-82102390D01*
X179310440Y-81850500D01*
X179310440Y-73470500D01*
X179266162Y-73235183D01*
X179127090Y-73019059D01*
X178914890Y-72874069D01*
X178663000Y-72823060D01*
X175617000Y-72823060D01*
X175617000Y-68921000D01*
X175454483Y-68103971D01*
X174991673Y-67411327D01*
X174709073Y-67222500D01*
X177736541Y-67222500D01*
X177495628Y-67322043D01*
X176964907Y-67851839D01*
X176677328Y-68544405D01*
X176676674Y-69294305D01*
X176963043Y-69987372D01*
X177492839Y-70518093D01*
X178185405Y-70805672D01*
X178935305Y-70806326D01*
X179628372Y-70519957D01*
X180159093Y-69990161D01*
X180446672Y-69297595D01*
X180447326Y-68547695D01*
X180160957Y-67854628D01*
X179631161Y-67323907D01*
X179386946Y-67222500D01*
X181106654Y-67222500D01*
X181507000Y-67622846D01*
X181507000Y-68961000D01*
X181669517Y-69778029D01*
X182132327Y-70470673D01*
X182824971Y-70933483D01*
X183642000Y-71096000D01*
X184459029Y-70933483D01*
X185151673Y-70470673D01*
X185614483Y-69778029D01*
X185777000Y-68961000D01*
X185777000Y-67222500D01*
X189272927Y-67222500D01*
X188990327Y-67411327D01*
X188527517Y-68103971D01*
X188365000Y-68921000D01*
X188365000Y-73140560D01*
X186271000Y-73140560D01*
X186035683Y-73184838D01*
X185819559Y-73323910D01*
X185674569Y-73536110D01*
X185623560Y-73788000D01*
X185623560Y-82168000D01*
X185667838Y-82403317D01*
X185806910Y-82619441D01*
X186019110Y-82764431D01*
X186271000Y-82815440D01*
X196761000Y-82815440D01*
X196996317Y-82771162D01*
X197212441Y-82632090D01*
X197262194Y-82559274D01*
X197300910Y-82619441D01*
X197513110Y-82764431D01*
X197765000Y-82815440D01*
X208255000Y-82815440D01*
X208490317Y-82771162D01*
X208706441Y-82632090D01*
X208851431Y-82419890D01*
X208902440Y-82168000D01*
X208902440Y-73788000D01*
X208858162Y-73552683D01*
X208719090Y-73336559D01*
X208506890Y-73191569D01*
X208255000Y-73140560D01*
X202795000Y-73140560D01*
X202795000Y-68921000D01*
X202632483Y-68103971D01*
X202169673Y-67411327D01*
X201887073Y-67222500D01*
X204914541Y-67222500D01*
X204673628Y-67322043D01*
X204142907Y-67851839D01*
X203855328Y-68544405D01*
X203854674Y-69294305D01*
X204141043Y-69987372D01*
X204670839Y-70518093D01*
X205363405Y-70805672D01*
X206113305Y-70806326D01*
X206806372Y-70519957D01*
X207337093Y-69990161D01*
X207624672Y-69297595D01*
X207625118Y-68785682D01*
X208926822Y-70087218D01*
X209310327Y-70661173D01*
X223544000Y-84894846D01*
X223544000Y-92299492D01*
X223107029Y-92007517D01*
X222290000Y-91845000D01*
X221472971Y-92007517D01*
X220780327Y-92470327D01*
X218197440Y-95053214D01*
X218197440Y-93815000D01*
X218153162Y-93579683D01*
X218014090Y-93363559D01*
X217801890Y-93218569D01*
X217550000Y-93167560D01*
X209170000Y-93167560D01*
X208934683Y-93211838D01*
X208718559Y-93350910D01*
X208573569Y-93563110D01*
X208522560Y-93815000D01*
X208522560Y-104305000D01*
X208566838Y-104540317D01*
X208672884Y-104705118D01*
X208654559Y-104716910D01*
X208509569Y-104929110D01*
X208458560Y-105181000D01*
X208458560Y-115671000D01*
X208502838Y-115906317D01*
X208641910Y-116122441D01*
X208854110Y-116267431D01*
X209106000Y-116318440D01*
X217486000Y-116318440D01*
X217721317Y-116274162D01*
X217937441Y-116135090D01*
X218082431Y-115922890D01*
X218133440Y-115671000D01*
X218133440Y-110703906D01*
X222629970Y-106207376D01*
X223107029Y-106112483D01*
X223544000Y-105820508D01*
X223544000Y-107808069D01*
X223359161Y-107622907D01*
X222666595Y-107335328D01*
X221916695Y-107334674D01*
X221223628Y-107621043D01*
X220692907Y-108150839D01*
X220405328Y-108843405D01*
X220404674Y-109593305D01*
X220691043Y-110286372D01*
X221220839Y-110817093D01*
X221913405Y-111104672D01*
X222425535Y-111105119D01*
X220740327Y-112790327D01*
X220277517Y-113482971D01*
X220115000Y-114300000D01*
X220277517Y-115117029D01*
X220740327Y-115809673D01*
X221432971Y-116272483D01*
X222250000Y-116435000D01*
X223067029Y-116272483D01*
X223759673Y-115809673D01*
X227188673Y-112380673D01*
X227651483Y-111688030D01*
X227814000Y-110871000D01*
X227814000Y-84010500D01*
X227651483Y-83193471D01*
X227651483Y-83193470D01*
X227188673Y-82500827D01*
X214630465Y-69942619D01*
X219764613Y-69942619D01*
X220104155Y-70764372D01*
X220732321Y-71393636D01*
X221553481Y-71734611D01*
X222442619Y-71735387D01*
X223264372Y-71395845D01*
X223893636Y-70767679D01*
X224234611Y-69946519D01*
X224235387Y-69057381D01*
X223895845Y-68235628D01*
X223267679Y-67606364D01*
X222446519Y-67265389D01*
X221557381Y-67264613D01*
X220735628Y-67604155D01*
X220106364Y-68232321D01*
X219765389Y-69053481D01*
X219764613Y-69942619D01*
X214630465Y-69942619D01*
X212713342Y-68025496D01*
X212559786Y-67795716D01*
X212329673Y-67451327D01*
X212329615Y-67451288D01*
X212329576Y-67451230D01*
X208455576Y-63577730D01*
X208107465Y-63345162D01*
X207763029Y-63115017D01*
X207762961Y-63115003D01*
X207762902Y-63114964D01*
X207352248Y-63033308D01*
X206946000Y-62952500D01*
X156972000Y-62952500D01*
X156154970Y-63115017D01*
X155462327Y-63577827D01*
X152922327Y-66117827D01*
X152459517Y-66810471D01*
X152297000Y-67627500D01*
X152297000Y-67926654D01*
X151239379Y-68984275D01*
X151226250Y-68495565D01*
X150978123Y-67896533D01*
X150685320Y-67767285D01*
X149531605Y-68921000D01*
X149545748Y-68935143D01*
X149366143Y-69114748D01*
X149352000Y-69100605D01*
X148198285Y-70254320D01*
X148327533Y-70547123D01*
X149027806Y-70815388D01*
X149418769Y-70804885D01*
X139309154Y-80914500D01*
X138181080Y-80914500D01*
X137945763Y-80958778D01*
X137729639Y-81097850D01*
X137584649Y-81310050D01*
X137533640Y-81561940D01*
X137533640Y-85062060D01*
X137577918Y-85297377D01*
X137716990Y-85513501D01*
X137881550Y-85625940D01*
X137217150Y-85625940D01*
X137058400Y-85784690D01*
X137058400Y-87884000D01*
X139157710Y-87884000D01*
X139316460Y-87725250D01*
X139316460Y-86134630D01*
X139219787Y-85901241D01*
X139041158Y-85722613D01*
X139009500Y-85709500D01*
X139268582Y-85709500D01*
X140867000Y-87307866D01*
X140867000Y-87825213D01*
X139316460Y-89375900D01*
X139316460Y-88296750D01*
X139157710Y-88138000D01*
X137058400Y-88138000D01*
X137058400Y-90237310D01*
X137217150Y-90396060D01*
X138296397Y-90396060D01*
X136847595Y-91845000D01*
X135890000Y-91845000D01*
X135072971Y-92007517D01*
X134380327Y-92470327D01*
X133917517Y-93162971D01*
X133755000Y-93980000D01*
X130504000Y-93980000D01*
X130504000Y-88296750D01*
X134546340Y-88296750D01*
X134546340Y-89887370D01*
X134643013Y-90120759D01*
X134821642Y-90299387D01*
X135055031Y-90396060D01*
X136645650Y-90396060D01*
X136804400Y-90237310D01*
X136804400Y-88138000D01*
X134705090Y-88138000D01*
X134546340Y-88296750D01*
X130504000Y-88296750D01*
X130504000Y-83597750D01*
X131546600Y-83597750D01*
X131546600Y-85188370D01*
X131643273Y-85421759D01*
X131821902Y-85600387D01*
X132055291Y-85697060D01*
X133645910Y-85697060D01*
X133804660Y-85538310D01*
X133804660Y-83439000D01*
X134058660Y-83439000D01*
X134058660Y-85538310D01*
X134217410Y-85697060D01*
X134883332Y-85697060D01*
X134821642Y-85722613D01*
X134643013Y-85901241D01*
X134546340Y-86134630D01*
X134546340Y-87725250D01*
X134705090Y-87884000D01*
X136804400Y-87884000D01*
X136804400Y-85784690D01*
X136645650Y-85625940D01*
X135979728Y-85625940D01*
X136041418Y-85600387D01*
X136220047Y-85421759D01*
X136316720Y-85188370D01*
X136316720Y-83597750D01*
X136157970Y-83439000D01*
X134058660Y-83439000D01*
X133804660Y-83439000D01*
X131705350Y-83439000D01*
X131546600Y-83597750D01*
X130504000Y-83597750D01*
X130504000Y-81435630D01*
X131546600Y-81435630D01*
X131546600Y-83026250D01*
X131705350Y-83185000D01*
X133804660Y-83185000D01*
X133804660Y-81085690D01*
X134058660Y-81085690D01*
X134058660Y-83185000D01*
X136157970Y-83185000D01*
X136316720Y-83026250D01*
X136316720Y-81435630D01*
X136220047Y-81202241D01*
X136041418Y-81023613D01*
X135808029Y-80926940D01*
X134217410Y-80926940D01*
X134058660Y-81085690D01*
X133804660Y-81085690D01*
X133645910Y-80926940D01*
X132055291Y-80926940D01*
X131821902Y-81023613D01*
X131643273Y-81202241D01*
X131546600Y-81435630D01*
X130504000Y-81435630D01*
X130504000Y-69942619D01*
X135764613Y-69942619D01*
X136104155Y-70764372D01*
X136732321Y-71393636D01*
X137553481Y-71734611D01*
X138442619Y-71735387D01*
X139264372Y-71395845D01*
X139893636Y-70767679D01*
X140234611Y-69946519D01*
X140235387Y-69057381D01*
X140045081Y-68596806D01*
X147457612Y-68596806D01*
X147477750Y-69346435D01*
X147725877Y-69945467D01*
X148018680Y-70074715D01*
X149172395Y-68921000D01*
X148018680Y-67767285D01*
X147725877Y-67896533D01*
X147457612Y-68596806D01*
X140045081Y-68596806D01*
X139895845Y-68235628D01*
X139267679Y-67606364D01*
X139222683Y-67587680D01*
X148198285Y-67587680D01*
X149352000Y-68741395D01*
X150505715Y-67587680D01*
X150376467Y-67294877D01*
X149676194Y-67026612D01*
X148926565Y-67046750D01*
X148327533Y-67294877D01*
X148198285Y-67587680D01*
X139222683Y-67587680D01*
X138446519Y-67265389D01*
X137557381Y-67264613D01*
X136735628Y-67604155D01*
X136106364Y-68232321D01*
X135765389Y-69053481D01*
X135764613Y-69942619D01*
X130504000Y-69942619D01*
X130504000Y-61416000D01*
X228906000Y-61416000D01*
X228906000Y-159818000D01*
X228906000Y-159818000D01*
G37*
X228906000Y-159818000D02*
X197703589Y-159818000D01*
X197725000Y-159766310D01*
X197725000Y-159175750D01*
X197566250Y-159017000D01*
X196467000Y-159017000D01*
X196467000Y-159037000D01*
X196213000Y-159037000D01*
X196213000Y-159017000D01*
X195113750Y-159017000D01*
X194955000Y-159175750D01*
X194955000Y-159766310D01*
X194976411Y-159818000D01*
X191103589Y-159818000D01*
X191125000Y-159766310D01*
X191125000Y-159175750D01*
X190966250Y-159017000D01*
X189867000Y-159017000D01*
X189867000Y-159037000D01*
X189613000Y-159037000D01*
X189613000Y-159017000D01*
X188513750Y-159017000D01*
X188355000Y-159175750D01*
X188355000Y-159766310D01*
X188376411Y-159818000D01*
X181431000Y-159818000D01*
X181431000Y-159679410D01*
X181579691Y-159741000D01*
X182170250Y-159741000D01*
X182329000Y-159582250D01*
X182329000Y-158203766D01*
X182583000Y-158184480D01*
X182583000Y-159582250D01*
X182741750Y-159741000D01*
X183332309Y-159741000D01*
X183565698Y-159644327D01*
X183744327Y-159465699D01*
X183841000Y-159232310D01*
X183841000Y-158013690D01*
X188355000Y-158013690D01*
X188355000Y-158604250D01*
X188513750Y-158763000D01*
X189613000Y-158763000D01*
X189613000Y-157663750D01*
X189867000Y-157663750D01*
X189867000Y-158763000D01*
X190966250Y-158763000D01*
X191125000Y-158604250D01*
X191125000Y-158013690D01*
X191028327Y-157780301D01*
X190849698Y-157601673D01*
X190616309Y-157505000D01*
X190025750Y-157505000D01*
X189867000Y-157663750D01*
X189613000Y-157663750D01*
X189454250Y-157505000D01*
X188863691Y-157505000D01*
X188630302Y-157601673D01*
X188451673Y-157780301D01*
X188355000Y-158013690D01*
X183841000Y-158013690D01*
X183841000Y-157391750D01*
X183682250Y-157233000D01*
X183553766Y-157233000D01*
X183534480Y-156979000D01*
X183682250Y-156979000D01*
X183841000Y-156820250D01*
X183841000Y-154979690D01*
X183744327Y-154746301D01*
X183565698Y-154567673D01*
X183332309Y-154471000D01*
X182741750Y-154471000D01*
X182583000Y-154629750D01*
X182583000Y-156008234D01*
X182329000Y-156027520D01*
X182329000Y-154629750D01*
X182170250Y-154471000D01*
X181579691Y-154471000D01*
X181431000Y-154532590D01*
X181431000Y-152400000D01*
X181376954Y-152128295D01*
X181223046Y-151897954D01*
X180992705Y-151744046D01*
X180836582Y-151712991D01*
X180842657Y-151710481D01*
X181288914Y-151265003D01*
X181530724Y-150682659D01*
X181531275Y-150052107D01*
X181290481Y-149469343D01*
X180845003Y-149023086D01*
X180262659Y-148781276D01*
X179632107Y-148780725D01*
X179049343Y-149021519D01*
X178603086Y-149466997D01*
X178491000Y-149736930D01*
X178491000Y-148949690D01*
X178394327Y-148716301D01*
X178215698Y-148537673D01*
X177982309Y-148441000D01*
X177841750Y-148441000D01*
X177683002Y-148599748D01*
X177683002Y-148441000D01*
X177571000Y-148441000D01*
X177571000Y-147326000D01*
X177552213Y-147231552D01*
X177492215Y-146929922D01*
X177399428Y-146791057D01*
X177267856Y-146594144D01*
X177267853Y-146594142D01*
X177261856Y-146588144D01*
X176926077Y-146363785D01*
X176530000Y-146284999D01*
X176133923Y-146363785D01*
X175798144Y-146588144D01*
X175573785Y-146923923D01*
X175494999Y-147320000D01*
X175501000Y-147350169D01*
X175501000Y-147660898D01*
X174151501Y-146311399D01*
X173904939Y-146146652D01*
X173614100Y-146088800D01*
X173201032Y-146088800D01*
X178955532Y-140334300D01*
X183535125Y-140334300D01*
X183689274Y-140565000D01*
X183740434Y-140641566D01*
X188605000Y-145506132D01*
X188605000Y-150933156D01*
X188538559Y-150975910D01*
X188393569Y-151188110D01*
X188342560Y-151440000D01*
X188342560Y-152723757D01*
X182291122Y-146672320D01*
X182291162Y-146626833D01*
X182149117Y-146283057D01*
X181886327Y-146019808D01*
X181542799Y-145877162D01*
X181170833Y-145876838D01*
X180827057Y-146018883D01*
X180563808Y-146281673D01*
X180421162Y-146625201D01*
X180420838Y-146997167D01*
X180562883Y-147340943D01*
X180825673Y-147604192D01*
X181169201Y-147746838D01*
X181216077Y-147746879D01*
X188353782Y-154884585D01*
X188342560Y-154940000D01*
X188342560Y-156440000D01*
X188386838Y-156675317D01*
X188525910Y-156891441D01*
X188738110Y-157036431D01*
X188990000Y-157087440D01*
X190490000Y-157087440D01*
X190725317Y-157043162D01*
X190941441Y-156904090D01*
X190995481Y-156825000D01*
X192716730Y-156825000D01*
X192256485Y-157015169D01*
X191866539Y-157404436D01*
X191655241Y-157913298D01*
X191654760Y-158464285D01*
X191865169Y-158973515D01*
X192254436Y-159363461D01*
X192763298Y-159574759D01*
X193314285Y-159575240D01*
X193823515Y-159364831D01*
X194213461Y-158975564D01*
X194424759Y-158466702D01*
X194425154Y-158013690D01*
X194955000Y-158013690D01*
X194955000Y-158604250D01*
X195113750Y-158763000D01*
X196213000Y-158763000D01*
X196213000Y-157663750D01*
X196467000Y-157663750D01*
X196467000Y-158763000D01*
X197566250Y-158763000D01*
X197725000Y-158604250D01*
X197725000Y-158013690D01*
X197628327Y-157780301D01*
X197449698Y-157601673D01*
X197216309Y-157505000D01*
X196625750Y-157505000D01*
X196467000Y-157663750D01*
X196213000Y-157663750D01*
X196054250Y-157505000D01*
X195463691Y-157505000D01*
X195230302Y-157601673D01*
X195051673Y-157780301D01*
X194955000Y-158013690D01*
X194425154Y-158013690D01*
X194425240Y-157915715D01*
X194214831Y-157406485D01*
X193825564Y-157016539D01*
X193364287Y-156825000D01*
X195083156Y-156825000D01*
X195125910Y-156891441D01*
X195338110Y-157036431D01*
X195590000Y-157087440D01*
X197090000Y-157087440D01*
X197325317Y-157043162D01*
X197541441Y-156904090D01*
X197686431Y-156691890D01*
X197737440Y-156440000D01*
X197737440Y-155442619D01*
X219764613Y-155442619D01*
X220104155Y-156264372D01*
X220732321Y-156893636D01*
X221553481Y-157234611D01*
X222442619Y-157235387D01*
X223264372Y-156895845D01*
X223893636Y-156267679D01*
X224234611Y-155446519D01*
X224235387Y-154557381D01*
X223895845Y-153735628D01*
X223267679Y-153106364D01*
X222446519Y-152765389D01*
X221557381Y-152764613D01*
X220735628Y-153104155D01*
X220106364Y-153732321D01*
X219765389Y-154553481D01*
X219764613Y-155442619D01*
X197737440Y-155442619D01*
X197737440Y-154940000D01*
X197693162Y-154704683D01*
X197554090Y-154488559D01*
X197341890Y-154343569D01*
X197090000Y-154292560D01*
X195590000Y-154292560D01*
X195354683Y-154336838D01*
X195138559Y-154475910D01*
X195084519Y-154555000D01*
X190996844Y-154555000D01*
X190954090Y-154488559D01*
X190741890Y-154343569D01*
X190490000Y-154292560D01*
X189911363Y-154292560D01*
X189206243Y-153587440D01*
X190490000Y-153587440D01*
X190725317Y-153543162D01*
X190941441Y-153404090D01*
X191086431Y-153191890D01*
X191137440Y-152940000D01*
X191137440Y-152397692D01*
X191678963Y-151856169D01*
X191655241Y-151913298D01*
X191654760Y-152464285D01*
X191865169Y-152973515D01*
X192254436Y-153363461D01*
X192763298Y-153574759D01*
X193314285Y-153575240D01*
X193823515Y-153364831D01*
X194213461Y-152975564D01*
X194424759Y-152466702D01*
X194425240Y-151915715D01*
X194367964Y-151777096D01*
X194942560Y-152351692D01*
X194942560Y-152940000D01*
X194986838Y-153175317D01*
X195125910Y-153391441D01*
X195338110Y-153536431D01*
X195590000Y-153587440D01*
X197090000Y-153587440D01*
X197325317Y-153543162D01*
X197541441Y-153404090D01*
X197686431Y-153191890D01*
X197737440Y-152940000D01*
X197737440Y-151440000D01*
X197693162Y-151204683D01*
X197554090Y-150988559D01*
X197341890Y-150843569D01*
X197090000Y-150792560D01*
X196593692Y-150792560D01*
X195366566Y-149565434D01*
X195284501Y-149510600D01*
X194998346Y-149319397D01*
X194564000Y-149233000D01*
X191562000Y-149233000D01*
X191127654Y-149319397D01*
X190875000Y-149488215D01*
X190875000Y-145036000D01*
X190788603Y-144601654D01*
X190542566Y-144233434D01*
X185678000Y-139368868D01*
X185678000Y-139123152D01*
X185793000Y-139146440D01*
X185854174Y-139146440D01*
X186043000Y-139184000D01*
X186231826Y-139146440D01*
X186293000Y-139146440D01*
X186528317Y-139102162D01*
X186744441Y-138963090D01*
X186799704Y-138882210D01*
X186845566Y-138851566D01*
X187091603Y-138483346D01*
X187178000Y-138049000D01*
X187178000Y-137368832D01*
X189609560Y-134937272D01*
X189609560Y-136196000D01*
X189653838Y-136431317D01*
X189792910Y-136647441D01*
X190005110Y-136792431D01*
X190257000Y-136843440D01*
X190872000Y-136843440D01*
X190872000Y-136896300D01*
X190958397Y-137330646D01*
X190980472Y-137363683D01*
X191204434Y-137698866D01*
X196358133Y-142852566D01*
X196587316Y-143005701D01*
X196726354Y-143098603D01*
X197160700Y-143185000D01*
X210802837Y-143185000D01*
X210661559Y-143275910D01*
X210516569Y-143488110D01*
X210465560Y-143740000D01*
X210465560Y-145440000D01*
X210509838Y-145675317D01*
X210648910Y-145891441D01*
X210861110Y-146036431D01*
X211113000Y-146087440D01*
X212813000Y-146087440D01*
X213048317Y-146043162D01*
X213264441Y-145904090D01*
X213409431Y-145691890D01*
X213460440Y-145440000D01*
X213460440Y-143740000D01*
X213416162Y-143504683D01*
X213277090Y-143288559D01*
X213064890Y-143143569D01*
X212997459Y-143129914D01*
X213042147Y-143100054D01*
X213364054Y-142618285D01*
X213477093Y-142050000D01*
X213364054Y-141481715D01*
X213042147Y-140999946D01*
X212712974Y-140780000D01*
X213042147Y-140560054D01*
X213364054Y-140078285D01*
X213477093Y-139510000D01*
X213364054Y-138941715D01*
X213042147Y-138459946D01*
X212712974Y-138240000D01*
X213042147Y-138020054D01*
X213364054Y-137538285D01*
X213477093Y-136970000D01*
X213364054Y-136401715D01*
X213137400Y-136062502D01*
X213675701Y-135524201D01*
X213840448Y-135277639D01*
X213898300Y-134986800D01*
X213898300Y-133922800D01*
X213840448Y-133631961D01*
X213675701Y-133385399D01*
X199011201Y-118720899D01*
X199198367Y-118721062D01*
X199542143Y-118579017D01*
X199805392Y-118316227D01*
X199948038Y-117972699D01*
X199948362Y-117600733D01*
X199806317Y-117256957D01*
X199773200Y-117223782D01*
X199773200Y-117037900D01*
X199715348Y-116747061D01*
X199550601Y-116500499D01*
X196301852Y-113251750D01*
X200548000Y-113251750D01*
X200548000Y-113692309D01*
X200644673Y-113925698D01*
X200823301Y-114104327D01*
X201056690Y-114201000D01*
X202797250Y-114201000D01*
X202956000Y-114042250D01*
X202956000Y-113093000D01*
X203210000Y-113093000D01*
X203210000Y-114042250D01*
X203368750Y-114201000D01*
X205109310Y-114201000D01*
X205342699Y-114104327D01*
X205521327Y-113925698D01*
X205618000Y-113692309D01*
X205618000Y-113251750D01*
X205459250Y-113093000D01*
X203210000Y-113093000D01*
X202956000Y-113093000D01*
X200706750Y-113093000D01*
X200548000Y-113251750D01*
X196301852Y-113251750D01*
X195289793Y-112239691D01*
X200548000Y-112239691D01*
X200548000Y-112680250D01*
X200706750Y-112839000D01*
X202956000Y-112839000D01*
X202956000Y-111889750D01*
X203210000Y-111889750D01*
X203210000Y-112839000D01*
X205459250Y-112839000D01*
X205618000Y-112680250D01*
X205618000Y-112239691D01*
X205521327Y-112006302D01*
X205342699Y-111827673D01*
X205109310Y-111731000D01*
X203368750Y-111731000D01*
X203210000Y-111889750D01*
X202956000Y-111889750D01*
X202797250Y-111731000D01*
X201056690Y-111731000D01*
X200823301Y-111827673D01*
X200644673Y-112006302D01*
X200548000Y-112239691D01*
X195289793Y-112239691D01*
X187700102Y-104650000D01*
X196546898Y-104650000D01*
X200320299Y-108423401D01*
X200553043Y-108578916D01*
X200579838Y-108721317D01*
X200718910Y-108937441D01*
X200931110Y-109082431D01*
X201183000Y-109133440D01*
X204983000Y-109133440D01*
X205218317Y-109089162D01*
X205434441Y-108950090D01*
X205579431Y-108737890D01*
X205630440Y-108486000D01*
X205630440Y-107286000D01*
X205586162Y-107050683D01*
X205447090Y-106834559D01*
X205234890Y-106689569D01*
X204983000Y-106638560D01*
X201183000Y-106638560D01*
X200947683Y-106682838D01*
X200814829Y-106768327D01*
X197696502Y-103650000D01*
X198939898Y-103650000D01*
X200835478Y-105545580D01*
X200835438Y-105591067D01*
X200977483Y-105934843D01*
X201240273Y-106198092D01*
X201583801Y-106340738D01*
X201955767Y-106341062D01*
X202299543Y-106199017D01*
X202562792Y-105936227D01*
X202705438Y-105592699D01*
X202705762Y-105220733D01*
X202563717Y-104876957D01*
X202300927Y-104613708D01*
X201957399Y-104471062D01*
X201910523Y-104471021D01*
X199792101Y-102352599D01*
X199545539Y-102187852D01*
X199254700Y-102130000D01*
X196386502Y-102130000D01*
X196630752Y-101885750D01*
X200612000Y-101885750D01*
X200612000Y-102326309D01*
X200708673Y-102559698D01*
X200887301Y-102738327D01*
X201120690Y-102835000D01*
X202861250Y-102835000D01*
X203020000Y-102676250D01*
X203020000Y-101727000D01*
X203274000Y-101727000D01*
X203274000Y-102676250D01*
X203432750Y-102835000D01*
X205173310Y-102835000D01*
X205406699Y-102738327D01*
X205585327Y-102559698D01*
X205682000Y-102326309D01*
X205682000Y-101885750D01*
X205523250Y-101727000D01*
X203274000Y-101727000D01*
X203020000Y-101727000D01*
X200770750Y-101727000D01*
X200612000Y-101885750D01*
X196630752Y-101885750D01*
X197642811Y-100873691D01*
X200612000Y-100873691D01*
X200612000Y-101314250D01*
X200770750Y-101473000D01*
X203020000Y-101473000D01*
X203020000Y-100523750D01*
X203274000Y-100523750D01*
X203274000Y-101473000D01*
X205523250Y-101473000D01*
X205682000Y-101314250D01*
X205682000Y-100873691D01*
X205585327Y-100640302D01*
X205406699Y-100461673D01*
X205173310Y-100365000D01*
X203432750Y-100365000D01*
X203274000Y-100523750D01*
X203020000Y-100523750D01*
X202861250Y-100365000D01*
X201120690Y-100365000D01*
X200887301Y-100461673D01*
X200708673Y-100640302D01*
X200612000Y-100873691D01*
X197642811Y-100873691D01*
X200879241Y-97637261D01*
X200995110Y-97716431D01*
X201247000Y-97767440D01*
X205047000Y-97767440D01*
X205282317Y-97723162D01*
X205498441Y-97584090D01*
X205643431Y-97371890D01*
X205694440Y-97120000D01*
X205694440Y-95920000D01*
X205650162Y-95684683D01*
X205511090Y-95468559D01*
X205298890Y-95323569D01*
X205047000Y-95272560D01*
X203283666Y-95272560D01*
X203390743Y-95228317D01*
X203653992Y-94965527D01*
X203796638Y-94621999D01*
X203796962Y-94250033D01*
X203654917Y-93906257D01*
X203392127Y-93643008D01*
X203048599Y-93500362D01*
X202676633Y-93500038D01*
X202332857Y-93642083D01*
X202299682Y-93675200D01*
X199438800Y-93675200D01*
X199147961Y-93733052D01*
X198901399Y-93897799D01*
X195944498Y-96854700D01*
X195106402Y-96854700D01*
X201007401Y-90953701D01*
X201162916Y-90720957D01*
X201305317Y-90694162D01*
X201521441Y-90555090D01*
X201666431Y-90342890D01*
X201717440Y-90091000D01*
X201717440Y-88476750D01*
X204315000Y-88476750D01*
X204315000Y-90217310D01*
X204411673Y-90450699D01*
X204590302Y-90629327D01*
X204823691Y-90726000D01*
X205264250Y-90726000D01*
X205423000Y-90567250D01*
X205423000Y-88318000D01*
X205677000Y-88318000D01*
X205677000Y-90567250D01*
X205835750Y-90726000D01*
X206276309Y-90726000D01*
X206509698Y-90629327D01*
X206688327Y-90450699D01*
X206785000Y-90217310D01*
X206785000Y-88476750D01*
X206626250Y-88318000D01*
X205677000Y-88318000D01*
X205423000Y-88318000D01*
X204473750Y-88318000D01*
X204315000Y-88476750D01*
X201717440Y-88476750D01*
X201717440Y-86291000D01*
X201693674Y-86164690D01*
X204315000Y-86164690D01*
X204315000Y-87905250D01*
X204473750Y-88064000D01*
X205423000Y-88064000D01*
X205423000Y-85814750D01*
X205677000Y-85814750D01*
X205677000Y-88064000D01*
X206626250Y-88064000D01*
X206785000Y-87905250D01*
X206785000Y-86164690D01*
X206688327Y-85931301D01*
X206509698Y-85752673D01*
X206276309Y-85656000D01*
X205835750Y-85656000D01*
X205677000Y-85814750D01*
X205423000Y-85814750D01*
X205264250Y-85656000D01*
X204823691Y-85656000D01*
X204590302Y-85752673D01*
X204411673Y-85931301D01*
X204315000Y-86164690D01*
X201693674Y-86164690D01*
X201673162Y-86055683D01*
X201534090Y-85839559D01*
X201321890Y-85694569D01*
X201070000Y-85643560D01*
X199870000Y-85643560D01*
X199634683Y-85687838D01*
X199418559Y-85826910D01*
X199273569Y-86039110D01*
X199222560Y-86291000D01*
X199222560Y-90091000D01*
X199266838Y-90326317D01*
X199352327Y-90459171D01*
X193481698Y-96329800D01*
X184949703Y-96329800D01*
X186448003Y-94831500D01*
X193445237Y-94831500D01*
X193477373Y-94863692D01*
X193820901Y-95006338D01*
X194192867Y-95006662D01*
X194536643Y-94864617D01*
X194799892Y-94601827D01*
X194942538Y-94258299D01*
X194942862Y-93886333D01*
X194800817Y-93542557D01*
X194538027Y-93279308D01*
X194194499Y-93136662D01*
X193822533Y-93136338D01*
X193478757Y-93278383D01*
X193445582Y-93311500D01*
X187155602Y-93311500D01*
X189513401Y-90953701D01*
X189668915Y-90720957D01*
X189811317Y-90694162D01*
X190027441Y-90555090D01*
X190172431Y-90342890D01*
X190223440Y-90091000D01*
X190223440Y-88476750D01*
X192821000Y-88476750D01*
X192821000Y-90217310D01*
X192917673Y-90450699D01*
X193096302Y-90629327D01*
X193329691Y-90726000D01*
X193770250Y-90726000D01*
X193929000Y-90567250D01*
X193929000Y-88318000D01*
X194183000Y-88318000D01*
X194183000Y-90567250D01*
X194341750Y-90726000D01*
X194782309Y-90726000D01*
X195015698Y-90629327D01*
X195194327Y-90450699D01*
X195291000Y-90217310D01*
X195291000Y-88476750D01*
X195132250Y-88318000D01*
X194183000Y-88318000D01*
X193929000Y-88318000D01*
X192979750Y-88318000D01*
X192821000Y-88476750D01*
X190223440Y-88476750D01*
X190223440Y-86291000D01*
X190199674Y-86164690D01*
X192821000Y-86164690D01*
X192821000Y-87905250D01*
X192979750Y-88064000D01*
X193929000Y-88064000D01*
X193929000Y-85814750D01*
X194183000Y-85814750D01*
X194183000Y-88064000D01*
X195132250Y-88064000D01*
X195291000Y-87905250D01*
X195291000Y-86164690D01*
X195194327Y-85931301D01*
X195015698Y-85752673D01*
X194782309Y-85656000D01*
X194341750Y-85656000D01*
X194183000Y-85814750D01*
X193929000Y-85814750D01*
X193770250Y-85656000D01*
X193329691Y-85656000D01*
X193096302Y-85752673D01*
X192917673Y-85931301D01*
X192821000Y-86164690D01*
X190199674Y-86164690D01*
X190179162Y-86055683D01*
X190040090Y-85839559D01*
X189827890Y-85694569D01*
X189576000Y-85643560D01*
X188376000Y-85643560D01*
X188140683Y-85687838D01*
X187924559Y-85826910D01*
X187779569Y-86039110D01*
X187728560Y-86291000D01*
X187728560Y-90091000D01*
X187772838Y-90326317D01*
X187858327Y-90459171D01*
X181431213Y-96886285D01*
X181393691Y-96893749D01*
X181383117Y-96868157D01*
X181120327Y-96604908D01*
X180776799Y-96462262D01*
X180404833Y-96461938D01*
X180061057Y-96603983D01*
X179857393Y-96807291D01*
X172611501Y-89561399D01*
X172364939Y-89396652D01*
X172125440Y-89349012D01*
X172125440Y-88159250D01*
X174723000Y-88159250D01*
X174723000Y-89899810D01*
X174819673Y-90133199D01*
X174998302Y-90311827D01*
X175231691Y-90408500D01*
X175672250Y-90408500D01*
X175831000Y-90249750D01*
X175831000Y-88000500D01*
X176085000Y-88000500D01*
X176085000Y-90249750D01*
X176243750Y-90408500D01*
X176684309Y-90408500D01*
X176917698Y-90311827D01*
X177096327Y-90133199D01*
X177193000Y-89899810D01*
X177193000Y-88159250D01*
X177034250Y-88000500D01*
X176085000Y-88000500D01*
X175831000Y-88000500D01*
X174881750Y-88000500D01*
X174723000Y-88159250D01*
X172125440Y-88159250D01*
X172125440Y-85973500D01*
X172101674Y-85847190D01*
X174723000Y-85847190D01*
X174723000Y-87587750D01*
X174881750Y-87746500D01*
X175831000Y-87746500D01*
X175831000Y-85497250D01*
X176085000Y-85497250D01*
X176085000Y-87746500D01*
X177034250Y-87746500D01*
X177193000Y-87587750D01*
X177193000Y-85847190D01*
X177096327Y-85613801D01*
X176917698Y-85435173D01*
X176684309Y-85338500D01*
X176243750Y-85338500D01*
X176085000Y-85497250D01*
X175831000Y-85497250D01*
X175672250Y-85338500D01*
X175231691Y-85338500D01*
X174998302Y-85435173D01*
X174819673Y-85613801D01*
X174723000Y-85847190D01*
X172101674Y-85847190D01*
X172081162Y-85738183D01*
X171942090Y-85522059D01*
X171729890Y-85377069D01*
X171478000Y-85326060D01*
X170278000Y-85326060D01*
X170042683Y-85370338D01*
X169826559Y-85509410D01*
X169681569Y-85721610D01*
X169630560Y-85973500D01*
X169630560Y-89580458D01*
X169611501Y-89561399D01*
X169364939Y-89396652D01*
X169074100Y-89338800D01*
X165573000Y-89338800D01*
X165573000Y-88159250D01*
X165414250Y-88000500D01*
X164465000Y-88000500D01*
X164465000Y-88020500D01*
X164211000Y-88020500D01*
X164211000Y-88000500D01*
X163261750Y-88000500D01*
X163103000Y-88159250D01*
X163103000Y-89338800D01*
X160505440Y-89338800D01*
X160505440Y-85973500D01*
X160481674Y-85847190D01*
X163103000Y-85847190D01*
X163103000Y-87587750D01*
X163261750Y-87746500D01*
X164211000Y-87746500D01*
X164211000Y-85497250D01*
X164465000Y-85497250D01*
X164465000Y-87746500D01*
X165414250Y-87746500D01*
X165573000Y-87587750D01*
X165573000Y-85847190D01*
X165476327Y-85613801D01*
X165297698Y-85435173D01*
X165064309Y-85338500D01*
X164623750Y-85338500D01*
X164465000Y-85497250D01*
X164211000Y-85497250D01*
X164052250Y-85338500D01*
X163611691Y-85338500D01*
X163378302Y-85435173D01*
X163199673Y-85613801D01*
X163103000Y-85847190D01*
X160481674Y-85847190D01*
X160461162Y-85738183D01*
X160322090Y-85522059D01*
X160109890Y-85377069D01*
X159858000Y-85326060D01*
X158658000Y-85326060D01*
X158422683Y-85370338D01*
X158206559Y-85509410D01*
X158061569Y-85721610D01*
X158010560Y-85973500D01*
X158010560Y-89773500D01*
X158054838Y-90008817D01*
X158193910Y-90224941D01*
X158406110Y-90369931D01*
X158564055Y-90401916D01*
X158720599Y-90636201D01*
X158967161Y-90800948D01*
X159258000Y-90858800D01*
X168759298Y-90858800D01*
X175821423Y-97920925D01*
X175817560Y-97940000D01*
X175817560Y-98940000D01*
X175861838Y-99175317D01*
X176000910Y-99391441D01*
X176213110Y-99536431D01*
X176465000Y-99587440D01*
X176715000Y-99587440D01*
X176830000Y-99565801D01*
X176830000Y-103134198D01*
X175812520Y-104151678D01*
X175767033Y-104151638D01*
X175766176Y-104151992D01*
X175763056Y-104135411D01*
X175787440Y-104015000D01*
X175787440Y-103765000D01*
X175763056Y-103635411D01*
X175787440Y-103515000D01*
X175787440Y-103265000D01*
X175763056Y-103135411D01*
X175787440Y-103015000D01*
X175787440Y-102765000D01*
X175763056Y-102635411D01*
X175787440Y-102515000D01*
X175787440Y-102265000D01*
X175763056Y-102135411D01*
X175787440Y-102015000D01*
X175787440Y-101765000D01*
X175763056Y-101635411D01*
X175787440Y-101515000D01*
X175787440Y-101265000D01*
X175763056Y-101135411D01*
X175787440Y-101015000D01*
X175787440Y-100765000D01*
X175763056Y-100635411D01*
X175787440Y-100515000D01*
X175787440Y-100265000D01*
X175743162Y-100029683D01*
X175604090Y-99813559D01*
X175391890Y-99668569D01*
X175140000Y-99617560D01*
X174140000Y-99617560D01*
X174073887Y-99630000D01*
X173814700Y-99630000D01*
X173523861Y-99687852D01*
X173277299Y-99852599D01*
X173112552Y-100099161D01*
X173089563Y-100214735D01*
X172211920Y-101092378D01*
X172166433Y-101092338D01*
X171822657Y-101234383D01*
X171559408Y-101497173D01*
X171416762Y-101840701D01*
X171416717Y-101892800D01*
X164360902Y-101892800D01*
X159804422Y-97336320D01*
X159804462Y-97290833D01*
X159662417Y-96947057D01*
X159399627Y-96683808D01*
X159056099Y-96541162D01*
X158684133Y-96540838D01*
X158340357Y-96682883D01*
X158077108Y-96945673D01*
X157934462Y-97289201D01*
X157934138Y-97661167D01*
X158076183Y-98004943D01*
X158338973Y-98268192D01*
X158682501Y-98410838D01*
X158729377Y-98410879D01*
X162948498Y-102630000D01*
X162032300Y-102630000D01*
X161741461Y-102687852D01*
X161494899Y-102852599D01*
X158974759Y-105372739D01*
X158858890Y-105293569D01*
X158607000Y-105242560D01*
X154807000Y-105242560D01*
X154571683Y-105286838D01*
X154355559Y-105425910D01*
X154210569Y-105638110D01*
X154159560Y-105890000D01*
X154159560Y-107090000D01*
X154203838Y-107325317D01*
X154342910Y-107541441D01*
X154555110Y-107686431D01*
X154807000Y-107737440D01*
X158601232Y-107737440D01*
X158434408Y-107903973D01*
X158291762Y-108247501D01*
X158291438Y-108619467D01*
X158433483Y-108963243D01*
X158696273Y-109226492D01*
X159039801Y-109369138D01*
X159411767Y-109369462D01*
X159755543Y-109227417D01*
X160018792Y-108964627D01*
X160161438Y-108621099D01*
X160161479Y-108574223D01*
X163585702Y-105150000D01*
X171071498Y-105150000D01*
X158974759Y-117246739D01*
X158858890Y-117167569D01*
X158607000Y-117116560D01*
X154807000Y-117116560D01*
X154571683Y-117160838D01*
X154355559Y-117299910D01*
X154210569Y-117512110D01*
X154159560Y-117764000D01*
X154159560Y-118964000D01*
X154203838Y-119199317D01*
X154342910Y-119415441D01*
X154555110Y-119560431D01*
X154807000Y-119611440D01*
X158607000Y-119611440D01*
X158842317Y-119567162D01*
X159058441Y-119428090D01*
X159203431Y-119215890D01*
X159235416Y-119057945D01*
X159469701Y-118901401D01*
X170504000Y-107867102D01*
X170504000Y-107916309D01*
X170600673Y-108149698D01*
X170602043Y-108151068D01*
X170542569Y-108238110D01*
X170516404Y-108367318D01*
X170465397Y-108443655D01*
X170379000Y-108878000D01*
X170465397Y-109312345D01*
X170507668Y-109375609D01*
X170535838Y-109525317D01*
X170674910Y-109741441D01*
X170887110Y-109886431D01*
X170924965Y-109894097D01*
X173027668Y-111996800D01*
X171161600Y-111996800D01*
X170727254Y-112083197D01*
X170450677Y-112268000D01*
X170359034Y-112329234D01*
X156040034Y-126648234D01*
X155793997Y-127016454D01*
X155707600Y-127450800D01*
X155707600Y-132142300D01*
X155793997Y-132576646D01*
X155871832Y-132693134D01*
X156040034Y-132944866D01*
X156976895Y-133881727D01*
X156946569Y-133926110D01*
X156895560Y-134178000D01*
X156895560Y-137778000D01*
X156939838Y-138013317D01*
X157078910Y-138229441D01*
X157291110Y-138374431D01*
X157543000Y-138425440D01*
X158813000Y-138425440D01*
X159048317Y-138381162D01*
X159264441Y-138242090D01*
X159409431Y-138029890D01*
X159448000Y-137839431D01*
X159448000Y-137904310D01*
X159544673Y-138137699D01*
X159723302Y-138316327D01*
X159956691Y-138413000D01*
X160432250Y-138413000D01*
X160591000Y-138254250D01*
X160591000Y-136105000D01*
X160845000Y-136105000D01*
X160845000Y-138254250D01*
X161003750Y-138413000D01*
X161479309Y-138413000D01*
X161712698Y-138316327D01*
X161891327Y-138137699D01*
X161988000Y-137904310D01*
X162084673Y-138137699D01*
X162263302Y-138316327D01*
X162496691Y-138413000D01*
X162972250Y-138413000D01*
X163131000Y-138254250D01*
X163131000Y-136105000D01*
X162146750Y-136105000D01*
X161988000Y-136263750D01*
X161829250Y-136105000D01*
X160845000Y-136105000D01*
X160591000Y-136105000D01*
X160571000Y-136105000D01*
X160571000Y-135851000D01*
X160591000Y-135851000D01*
X160591000Y-133701750D01*
X160845000Y-133701750D01*
X160845000Y-135851000D01*
X161829250Y-135851000D01*
X161988000Y-135692250D01*
X162146750Y-135851000D01*
X163131000Y-135851000D01*
X163131000Y-133701750D01*
X163385000Y-133701750D01*
X163385000Y-135851000D01*
X163405000Y-135851000D01*
X163405000Y-136105000D01*
X163385000Y-136105000D01*
X163385000Y-138254250D01*
X163543750Y-138413000D01*
X164019309Y-138413000D01*
X164252698Y-138316327D01*
X164431327Y-138137699D01*
X164528000Y-137904310D01*
X164528000Y-137844113D01*
X164559838Y-138013317D01*
X164698910Y-138229441D01*
X164911110Y-138374431D01*
X165163000Y-138425440D01*
X166433000Y-138425440D01*
X166668317Y-138381162D01*
X166884441Y-138242090D01*
X167029431Y-138029890D01*
X167068000Y-137839431D01*
X167068000Y-137904310D01*
X167164673Y-138137699D01*
X167343302Y-138316327D01*
X167576691Y-138413000D01*
X168052250Y-138413000D01*
X168211000Y-138254250D01*
X168211000Y-136105000D01*
X168465000Y-136105000D01*
X168465000Y-138254250D01*
X168623750Y-138413000D01*
X169099309Y-138413000D01*
X169332698Y-138316327D01*
X169511327Y-138137699D01*
X169608000Y-137904310D01*
X169608000Y-136263750D01*
X169449250Y-136105000D01*
X168465000Y-136105000D01*
X168211000Y-136105000D01*
X168191000Y-136105000D01*
X168191000Y-135851000D01*
X168211000Y-135851000D01*
X168211000Y-133701750D01*
X168465000Y-133701750D01*
X168465000Y-135851000D01*
X169449250Y-135851000D01*
X169608000Y-135692250D01*
X169608000Y-134051690D01*
X169511327Y-133818301D01*
X169332698Y-133639673D01*
X169099309Y-133543000D01*
X168623750Y-133543000D01*
X168465000Y-133701750D01*
X168211000Y-133701750D01*
X168052250Y-133543000D01*
X167576691Y-133543000D01*
X167343302Y-133639673D01*
X167164673Y-133818301D01*
X167068000Y-134051690D01*
X167068000Y-134111887D01*
X167036162Y-133942683D01*
X166897090Y-133726559D01*
X166684890Y-133581569D01*
X166433000Y-133530560D01*
X165163000Y-133530560D01*
X164927683Y-133574838D01*
X164711559Y-133713910D01*
X164566569Y-133926110D01*
X164528000Y-134116569D01*
X164528000Y-134051690D01*
X164431327Y-133818301D01*
X164252698Y-133639673D01*
X164019309Y-133543000D01*
X163543750Y-133543000D01*
X163385000Y-133701750D01*
X163131000Y-133701750D01*
X162972250Y-133543000D01*
X162496691Y-133543000D01*
X162263302Y-133639673D01*
X162084673Y-133818301D01*
X161988000Y-134051690D01*
X161891327Y-133818301D01*
X161712698Y-133639673D01*
X161479309Y-133543000D01*
X161003750Y-133543000D01*
X160845000Y-133701750D01*
X160591000Y-133701750D01*
X160432250Y-133543000D01*
X159956691Y-133543000D01*
X159723302Y-133639673D01*
X159544673Y-133818301D01*
X159448000Y-134051690D01*
X159448000Y-134111887D01*
X159416162Y-133942683D01*
X159313000Y-133782365D01*
X159313000Y-133477700D01*
X159226603Y-133043354D01*
X158980566Y-132675134D01*
X158330872Y-132025440D01*
X158813000Y-132025440D01*
X159048317Y-131981162D01*
X159264441Y-131842090D01*
X159409431Y-131629890D01*
X159447543Y-131441686D01*
X159479838Y-131613317D01*
X159618910Y-131829441D01*
X159831110Y-131974431D01*
X160083000Y-132025440D01*
X161353000Y-132025440D01*
X161588317Y-131981162D01*
X161804441Y-131842090D01*
X161949431Y-131629890D01*
X161987543Y-131441686D01*
X162019838Y-131613317D01*
X162158910Y-131829441D01*
X162371110Y-131974431D01*
X162623000Y-132025440D01*
X163893000Y-132025440D01*
X164128317Y-131981162D01*
X164344441Y-131842090D01*
X164489431Y-131629890D01*
X164527543Y-131441686D01*
X164559838Y-131613317D01*
X164698910Y-131829441D01*
X164911110Y-131974431D01*
X165163000Y-132025440D01*
X166433000Y-132025440D01*
X166668317Y-131981162D01*
X166884441Y-131842090D01*
X167029431Y-131629890D01*
X167067543Y-131441686D01*
X167099838Y-131613317D01*
X167238910Y-131829441D01*
X167451110Y-131974431D01*
X167703000Y-132025440D01*
X168973000Y-132025440D01*
X169208317Y-131981162D01*
X169424441Y-131842090D01*
X169569431Y-131629890D01*
X169620440Y-131378000D01*
X169620440Y-129979167D01*
X173308838Y-129979167D01*
X173450883Y-130322943D01*
X173713673Y-130586192D01*
X174057201Y-130728838D01*
X174429167Y-130729162D01*
X174616518Y-130651750D01*
X177767000Y-130651750D01*
X177767000Y-131742310D01*
X177863673Y-131975699D01*
X178042302Y-132154327D01*
X178275691Y-132251000D01*
X180116250Y-132251000D01*
X180275000Y-132092250D01*
X180275000Y-130493000D01*
X180529000Y-130493000D01*
X180529000Y-132092250D01*
X180687750Y-132251000D01*
X182528309Y-132251000D01*
X182761698Y-132154327D01*
X182940327Y-131975699D01*
X183037000Y-131742310D01*
X183037000Y-130651750D01*
X182878250Y-130493000D01*
X180529000Y-130493000D01*
X180275000Y-130493000D01*
X177925750Y-130493000D01*
X177767000Y-130651750D01*
X174616518Y-130651750D01*
X174772943Y-130587117D01*
X175036192Y-130324327D01*
X175178838Y-129980799D01*
X175178913Y-129894154D01*
X175263648Y-129767339D01*
X175321500Y-129476500D01*
X175321500Y-128989690D01*
X177767000Y-128989690D01*
X177767000Y-130080250D01*
X177925750Y-130239000D01*
X180275000Y-130239000D01*
X180275000Y-128639750D01*
X180529000Y-128639750D01*
X180529000Y-130239000D01*
X182878250Y-130239000D01*
X183037000Y-130080250D01*
X183037000Y-128989690D01*
X182940327Y-128756301D01*
X182761698Y-128577673D01*
X182528309Y-128481000D01*
X180687750Y-128481000D01*
X180529000Y-128639750D01*
X180275000Y-128639750D01*
X180116250Y-128481000D01*
X178275691Y-128481000D01*
X178042302Y-128577673D01*
X177863673Y-128756301D01*
X177767000Y-128989690D01*
X175321500Y-128989690D01*
X175321500Y-124133463D01*
X175353692Y-124101327D01*
X175496338Y-123757799D01*
X175496662Y-123385833D01*
X175354617Y-123042057D01*
X175091827Y-122778808D01*
X174748299Y-122636162D01*
X174376333Y-122635838D01*
X174032557Y-122777883D01*
X173769308Y-123040673D01*
X173626662Y-123384201D01*
X173626338Y-123756167D01*
X173768383Y-124099943D01*
X173801500Y-124133118D01*
X173801500Y-128965166D01*
X173715057Y-129000883D01*
X173451808Y-129263673D01*
X173309162Y-129607201D01*
X173308838Y-129979167D01*
X169620440Y-129979167D01*
X169620440Y-127778000D01*
X169576162Y-127542683D01*
X169437090Y-127326559D01*
X169224890Y-127181569D01*
X169098000Y-127155873D01*
X169098000Y-127068700D01*
X169040148Y-126777861D01*
X168875401Y-126531299D01*
X168756022Y-126411920D01*
X168756062Y-126366433D01*
X168614017Y-126022657D01*
X168351227Y-125759408D01*
X168007699Y-125616762D01*
X167635733Y-125616438D01*
X167291957Y-125758483D01*
X167028708Y-126021273D01*
X166886062Y-126364801D01*
X166885738Y-126736767D01*
X167027783Y-127080543D01*
X167257151Y-127310312D01*
X167251559Y-127313910D01*
X167106569Y-127526110D01*
X167068457Y-127714314D01*
X167036162Y-127542683D01*
X166897090Y-127326559D01*
X166684890Y-127181569D01*
X166433000Y-127130560D01*
X165163000Y-127130560D01*
X164927683Y-127174838D01*
X164711559Y-127313910D01*
X164566569Y-127526110D01*
X164528457Y-127714314D01*
X164496162Y-127542683D01*
X164357090Y-127326559D01*
X164144890Y-127181569D01*
X163893000Y-127130560D01*
X162623000Y-127130560D01*
X162387683Y-127174838D01*
X162171559Y-127313910D01*
X162026569Y-127526110D01*
X161988457Y-127714314D01*
X161956162Y-127542683D01*
X161938013Y-127514478D01*
X162051738Y-127240599D01*
X162052048Y-126884688D01*
X162177343Y-126832917D01*
X162440592Y-126570127D01*
X162583238Y-126226599D01*
X162583562Y-125854633D01*
X162441517Y-125510857D01*
X162178727Y-125247608D01*
X161835199Y-125104962D01*
X161463233Y-125104638D01*
X161119457Y-125246683D01*
X161086282Y-125279800D01*
X160618732Y-125279800D01*
X171631732Y-114266800D01*
X173774168Y-114266800D01*
X176637233Y-117129866D01*
X176910653Y-117312559D01*
X177005454Y-117375903D01*
X177439800Y-117462300D01*
X183032868Y-117462300D01*
X183297766Y-117727198D01*
X183410934Y-117896566D01*
X183427779Y-117907821D01*
X183439034Y-117924666D01*
X183918934Y-118404566D01*
X184088303Y-118517735D01*
X193322400Y-127751832D01*
X193322400Y-128968560D01*
X190257000Y-128968560D01*
X190021683Y-129012838D01*
X189805559Y-129151910D01*
X189674984Y-129343013D01*
X189636646Y-129317397D01*
X189202300Y-129231000D01*
X189149440Y-129231000D01*
X189149440Y-129116000D01*
X189105162Y-128880683D01*
X188966090Y-128664559D01*
X188753890Y-128519569D01*
X188502000Y-128468560D01*
X184502000Y-128468560D01*
X184266683Y-128512838D01*
X184050559Y-128651910D01*
X183905569Y-128864110D01*
X183854560Y-129116000D01*
X183854560Y-131616000D01*
X183898838Y-131851317D01*
X184037910Y-132067441D01*
X184250110Y-132212431D01*
X184502000Y-132263440D01*
X188317300Y-132263440D01*
X188317300Y-133019268D01*
X185240434Y-136096134D01*
X184994397Y-136464354D01*
X184908000Y-136898700D01*
X184908000Y-136974848D01*
X184793000Y-136951560D01*
X184731826Y-136951560D01*
X184543000Y-136914000D01*
X184354174Y-136951560D01*
X184293000Y-136951560D01*
X184057683Y-136995838D01*
X183841559Y-137134910D01*
X183786296Y-137215790D01*
X183740434Y-137246434D01*
X183494397Y-137614654D01*
X183408000Y-138049000D01*
X183408000Y-138064300D01*
X178485400Y-138064300D01*
X178051054Y-138150697D01*
X177764808Y-138341961D01*
X177682834Y-138396734D01*
X170965868Y-145113700D01*
X153594300Y-145113700D01*
X153159954Y-145200097D01*
X152791733Y-145446134D01*
X150313434Y-147924434D01*
X150067397Y-148292654D01*
X150037889Y-148441000D01*
X149968998Y-148441000D01*
X149968998Y-148599748D01*
X149810250Y-148441000D01*
X149669691Y-148441000D01*
X149436302Y-148537673D01*
X149257673Y-148716301D01*
X149161000Y-148949690D01*
X149161000Y-149840250D01*
X149319748Y-149998998D01*
X149199331Y-149998998D01*
X148980481Y-149469343D01*
X148535003Y-149023086D01*
X147952659Y-148781276D01*
X147322107Y-148780725D01*
X146739343Y-149021519D01*
X146293086Y-149466997D01*
X146051276Y-150049341D01*
X146050725Y-150679893D01*
X146291519Y-151262657D01*
X146736997Y-151708914D01*
X146792193Y-151731833D01*
X146730795Y-151744046D01*
X146500454Y-151897954D01*
X146346546Y-152128295D01*
X146292500Y-152400000D01*
X146292500Y-154714474D01*
X146145698Y-154567673D01*
X145912309Y-154471000D01*
X145321750Y-154471000D01*
X145163000Y-154629750D01*
X145163000Y-156008234D01*
X144909000Y-156027520D01*
X144909000Y-154629750D01*
X144750250Y-154471000D01*
X144159691Y-154471000D01*
X143926302Y-154567673D01*
X143747673Y-154746301D01*
X143651000Y-154979690D01*
X143651000Y-156820250D01*
X143809750Y-156979000D01*
X143938234Y-156979000D01*
X143957520Y-157233000D01*
X143809750Y-157233000D01*
X143651000Y-157391750D01*
X143651000Y-159232310D01*
X143747673Y-159465699D01*
X143926302Y-159644327D01*
X144159691Y-159741000D01*
X144750250Y-159741000D01*
X144909000Y-159582250D01*
X144909000Y-158203766D01*
X145163000Y-158184480D01*
X145163000Y-159582250D01*
X145321750Y-159741000D01*
X145912309Y-159741000D01*
X146145698Y-159644327D01*
X146292500Y-159497526D01*
X146292500Y-159818000D01*
X130504000Y-159818000D01*
X130504000Y-155442619D01*
X135764613Y-155442619D01*
X136104155Y-156264372D01*
X136732321Y-156893636D01*
X137553481Y-157234611D01*
X138442619Y-157235387D01*
X139264372Y-156895845D01*
X139893636Y-156267679D01*
X140234611Y-155446519D01*
X140235387Y-154557381D01*
X139895845Y-153735628D01*
X139267679Y-153106364D01*
X138446519Y-152765389D01*
X137557381Y-152764613D01*
X136735628Y-153104155D01*
X136106364Y-153732321D01*
X135765389Y-154553481D01*
X135764613Y-155442619D01*
X130504000Y-155442619D01*
X130504000Y-142615667D01*
X158005338Y-142615667D01*
X158147383Y-142959443D01*
X158410173Y-143222692D01*
X158753701Y-143365338D01*
X158800577Y-143365379D01*
X159165099Y-143729901D01*
X159411661Y-143894648D01*
X159702500Y-143952500D01*
X164982037Y-143952500D01*
X165014173Y-143984692D01*
X165357701Y-144127338D01*
X165729667Y-144127662D01*
X166073443Y-143985617D01*
X166336692Y-143722827D01*
X166479338Y-143379299D01*
X166479662Y-143007333D01*
X166337617Y-142663557D01*
X166074827Y-142400308D01*
X165731299Y-142257662D01*
X165359333Y-142257338D01*
X165015557Y-142399383D01*
X164982382Y-142432500D01*
X160017302Y-142432500D01*
X159875622Y-142290820D01*
X159875662Y-142245333D01*
X159733617Y-141901557D01*
X159470827Y-141638308D01*
X159127299Y-141495662D01*
X158755333Y-141495338D01*
X158411557Y-141637383D01*
X158148308Y-141900173D01*
X158005662Y-142243701D01*
X158005338Y-142615667D01*
X130504000Y-142615667D01*
X130504000Y-141091667D01*
X171022838Y-141091667D01*
X171164883Y-141435443D01*
X171427673Y-141698692D01*
X171771201Y-141841338D01*
X172143167Y-141841662D01*
X172486943Y-141699617D01*
X172750192Y-141436827D01*
X172892838Y-141093299D01*
X172892879Y-141046423D01*
X174463901Y-139475401D01*
X174628648Y-139228840D01*
X174686500Y-138938000D01*
X174686500Y-136515963D01*
X174718692Y-136483827D01*
X174861338Y-136140299D01*
X174861662Y-135768333D01*
X174719617Y-135424557D01*
X174456827Y-135161308D01*
X174113299Y-135018662D01*
X173741333Y-135018338D01*
X173397557Y-135160383D01*
X173134308Y-135423173D01*
X172991662Y-135766701D01*
X172991338Y-136138667D01*
X173133383Y-136482443D01*
X173166500Y-136515618D01*
X173166500Y-138623198D01*
X171818320Y-139971378D01*
X171772833Y-139971338D01*
X171429057Y-140113383D01*
X171165808Y-140376173D01*
X171023162Y-140719701D01*
X171022838Y-141091667D01*
X130504000Y-141091667D01*
X130504000Y-114300000D01*
X133715000Y-114300000D01*
X133877517Y-115117029D01*
X134340327Y-115809673D01*
X135864327Y-117333673D01*
X136556970Y-117796483D01*
X137374000Y-117959000D01*
X141656560Y-117959000D01*
X141656560Y-121069000D01*
X141700838Y-121304317D01*
X141839910Y-121520441D01*
X142052110Y-121665431D01*
X142304000Y-121716440D01*
X150684000Y-121716440D01*
X150919317Y-121672162D01*
X151135441Y-121533090D01*
X151280431Y-121320890D01*
X151331440Y-121069000D01*
X151331440Y-113569750D01*
X154172000Y-113569750D01*
X154172000Y-114010309D01*
X154268673Y-114243698D01*
X154447301Y-114422327D01*
X154680690Y-114519000D01*
X156421250Y-114519000D01*
X156580000Y-114360250D01*
X156580000Y-113411000D01*
X156834000Y-113411000D01*
X156834000Y-114360250D01*
X156992750Y-114519000D01*
X158733310Y-114519000D01*
X158966699Y-114422327D01*
X159145327Y-114243698D01*
X159242000Y-114010309D01*
X159242000Y-113569750D01*
X159083250Y-113411000D01*
X156834000Y-113411000D01*
X156580000Y-113411000D01*
X154330750Y-113411000D01*
X154172000Y-113569750D01*
X151331440Y-113569750D01*
X151331440Y-112557691D01*
X154172000Y-112557691D01*
X154172000Y-112998250D01*
X154330750Y-113157000D01*
X156580000Y-113157000D01*
X156580000Y-112207750D01*
X156834000Y-112207750D01*
X156834000Y-113157000D01*
X159083250Y-113157000D01*
X159242000Y-112998250D01*
X159242000Y-112557691D01*
X159145327Y-112324302D01*
X158966699Y-112145673D01*
X158733310Y-112049000D01*
X156992750Y-112049000D01*
X156834000Y-112207750D01*
X156580000Y-112207750D01*
X156421250Y-112049000D01*
X154680690Y-112049000D01*
X154447301Y-112145673D01*
X154268673Y-112324302D01*
X154172000Y-112557691D01*
X151331440Y-112557691D01*
X151331440Y-110579000D01*
X151287162Y-110343683D01*
X151148090Y-110127559D01*
X150935890Y-109982569D01*
X150684000Y-109931560D01*
X142304000Y-109931560D01*
X142068683Y-109975838D01*
X141852559Y-110114910D01*
X141707569Y-110327110D01*
X141656560Y-110579000D01*
X141656560Y-113689000D01*
X138258346Y-113689000D01*
X137359673Y-112790327D01*
X136667029Y-112327517D01*
X135850000Y-112165000D01*
X135032971Y-112327517D01*
X134340327Y-112790327D01*
X133877517Y-113482971D01*
X133715000Y-114300000D01*
X130504000Y-114300000D01*
X130504000Y-109593305D01*
X133964674Y-109593305D01*
X134251043Y-110286372D01*
X134780839Y-110817093D01*
X135473405Y-111104672D01*
X136223305Y-111105326D01*
X136916372Y-110818957D01*
X137447093Y-110289161D01*
X137734672Y-109596595D01*
X137735326Y-108846695D01*
X137448957Y-108153628D01*
X136919161Y-107622907D01*
X136226595Y-107335328D01*
X135476695Y-107334674D01*
X134783628Y-107621043D01*
X134252907Y-108150839D01*
X133965328Y-108843405D01*
X133964674Y-109593305D01*
X130504000Y-109593305D01*
X130504000Y-104140000D01*
X133715000Y-104140000D01*
X133877517Y-104957029D01*
X134340327Y-105649673D01*
X135032971Y-106112483D01*
X135850000Y-106275000D01*
X136667029Y-106112483D01*
X136708160Y-106085000D01*
X141656560Y-106085000D01*
X141656560Y-109195000D01*
X141700838Y-109430317D01*
X141839910Y-109646441D01*
X142052110Y-109791431D01*
X142304000Y-109842440D01*
X150684000Y-109842440D01*
X150919317Y-109798162D01*
X151135441Y-109659090D01*
X151280431Y-109446890D01*
X151331440Y-109195000D01*
X151331440Y-101695750D01*
X154172000Y-101695750D01*
X154172000Y-102136309D01*
X154268673Y-102369698D01*
X154447301Y-102548327D01*
X154680690Y-102645000D01*
X156421250Y-102645000D01*
X156580000Y-102486250D01*
X156580000Y-101537000D01*
X156834000Y-101537000D01*
X156834000Y-102486250D01*
X156992750Y-102645000D01*
X158733310Y-102645000D01*
X158966699Y-102548327D01*
X159145327Y-102369698D01*
X159242000Y-102136309D01*
X159242000Y-101695750D01*
X159083250Y-101537000D01*
X156834000Y-101537000D01*
X156580000Y-101537000D01*
X154330750Y-101537000D01*
X154172000Y-101695750D01*
X151331440Y-101695750D01*
X151331440Y-100683691D01*
X154172000Y-100683691D01*
X154172000Y-101124250D01*
X154330750Y-101283000D01*
X156580000Y-101283000D01*
X156580000Y-100333750D01*
X156834000Y-100333750D01*
X156834000Y-101283000D01*
X159083250Y-101283000D01*
X159242000Y-101124250D01*
X159242000Y-100683691D01*
X159145327Y-100450302D01*
X158966699Y-100271673D01*
X158733310Y-100175000D01*
X156992750Y-100175000D01*
X156834000Y-100333750D01*
X156580000Y-100333750D01*
X156421250Y-100175000D01*
X154680690Y-100175000D01*
X154447301Y-100271673D01*
X154268673Y-100450302D01*
X154172000Y-100683691D01*
X151331440Y-100683691D01*
X151331440Y-98705000D01*
X151287162Y-98469683D01*
X151148090Y-98253559D01*
X150935890Y-98108569D01*
X150684000Y-98057560D01*
X142304000Y-98057560D01*
X142068683Y-98101838D01*
X141852559Y-98240910D01*
X141707569Y-98453110D01*
X141656560Y-98705000D01*
X141656560Y-101815000D01*
X136040000Y-101815000D01*
X135222971Y-101977517D01*
X134530327Y-102440327D01*
X134340327Y-102630327D01*
X133877517Y-103322971D01*
X133715000Y-104140000D01*
X130504000Y-104140000D01*
X130504000Y-99433305D01*
X133964674Y-99433305D01*
X134251043Y-100126372D01*
X134780839Y-100657093D01*
X135473405Y-100944672D01*
X136223305Y-100945326D01*
X136916372Y-100658957D01*
X137447093Y-100129161D01*
X137734672Y-99436595D01*
X137735326Y-98686695D01*
X137448957Y-97993628D01*
X136919161Y-97462907D01*
X136226595Y-97175328D01*
X135476695Y-97174674D01*
X134783628Y-97461043D01*
X134252907Y-97990839D01*
X133965328Y-98683405D01*
X133964674Y-99433305D01*
X130504000Y-99433305D01*
X130504000Y-93980000D01*
X133755000Y-93980000D01*
X133917517Y-94797029D01*
X134380327Y-95489673D01*
X135072971Y-95952483D01*
X135890000Y-96115000D01*
X137732000Y-96115000D01*
X137732050Y-96114990D01*
X137732101Y-96115000D01*
X138138467Y-96034149D01*
X138549029Y-95952483D01*
X138549072Y-95952454D01*
X138549123Y-95952444D01*
X138894836Y-95721422D01*
X139241673Y-95489673D01*
X139241702Y-95489630D01*
X139241745Y-95489601D01*
X144511745Y-90219101D01*
X144746826Y-89867242D01*
X144974483Y-89526529D01*
X144974493Y-89526480D01*
X144974522Y-89526436D01*
X145056584Y-89113781D01*
X145137000Y-88709500D01*
X145137000Y-86423500D01*
X145136997Y-86423483D01*
X145137000Y-86423465D01*
X145058410Y-86028400D01*
X144974483Y-85606471D01*
X144974472Y-85606455D01*
X144974469Y-85606438D01*
X144746536Y-85265324D01*
X144511673Y-84913827D01*
X144511658Y-84913817D01*
X144511648Y-84913802D01*
X142930070Y-83332276D01*
X155610169Y-70652177D01*
X155941673Y-70430673D01*
X156404483Y-69738029D01*
X156567000Y-68921000D01*
X156567000Y-68511846D01*
X157856346Y-67222500D01*
X162094927Y-67222500D01*
X161812327Y-67411327D01*
X161349517Y-68103971D01*
X161187000Y-68921000D01*
X161187000Y-72823060D01*
X156553000Y-72823060D01*
X156317683Y-72867338D01*
X156101559Y-73006410D01*
X155956569Y-73218610D01*
X155905560Y-73470500D01*
X155905560Y-81850500D01*
X155949838Y-82085817D01*
X156088910Y-82301941D01*
X156301110Y-82446931D01*
X156553000Y-82497940D01*
X167043000Y-82497940D01*
X167278317Y-82453662D01*
X167494441Y-82314590D01*
X167609083Y-82146806D01*
X167708910Y-82301941D01*
X167921110Y-82446931D01*
X168173000Y-82497940D01*
X178663000Y-82497940D01*
X178898317Y-82453662D01*
X179114441Y-82314590D01*
X179259431Y-82102390D01*
X179310440Y-81850500D01*
X179310440Y-73470500D01*
X179266162Y-73235183D01*
X179127090Y-73019059D01*
X178914890Y-72874069D01*
X178663000Y-72823060D01*
X175617000Y-72823060D01*
X175617000Y-68921000D01*
X175454483Y-68103971D01*
X174991673Y-67411327D01*
X174709073Y-67222500D01*
X177736541Y-67222500D01*
X177495628Y-67322043D01*
X176964907Y-67851839D01*
X176677328Y-68544405D01*
X176676674Y-69294305D01*
X176963043Y-69987372D01*
X177492839Y-70518093D01*
X178185405Y-70805672D01*
X178935305Y-70806326D01*
X179628372Y-70519957D01*
X180159093Y-69990161D01*
X180446672Y-69297595D01*
X180447326Y-68547695D01*
X180160957Y-67854628D01*
X179631161Y-67323907D01*
X179386946Y-67222500D01*
X181106654Y-67222500D01*
X181507000Y-67622846D01*
X181507000Y-68961000D01*
X181669517Y-69778029D01*
X182132327Y-70470673D01*
X182824971Y-70933483D01*
X183642000Y-71096000D01*
X184459029Y-70933483D01*
X185151673Y-70470673D01*
X185614483Y-69778029D01*
X185777000Y-68961000D01*
X185777000Y-67222500D01*
X189272927Y-67222500D01*
X188990327Y-67411327D01*
X188527517Y-68103971D01*
X188365000Y-68921000D01*
X188365000Y-73140560D01*
X186271000Y-73140560D01*
X186035683Y-73184838D01*
X185819559Y-73323910D01*
X185674569Y-73536110D01*
X185623560Y-73788000D01*
X185623560Y-82168000D01*
X185667838Y-82403317D01*
X185806910Y-82619441D01*
X186019110Y-82764431D01*
X186271000Y-82815440D01*
X196761000Y-82815440D01*
X196996317Y-82771162D01*
X197212441Y-82632090D01*
X197262194Y-82559274D01*
X197300910Y-82619441D01*
X197513110Y-82764431D01*
X197765000Y-82815440D01*
X208255000Y-82815440D01*
X208490317Y-82771162D01*
X208706441Y-82632090D01*
X208851431Y-82419890D01*
X208902440Y-82168000D01*
X208902440Y-73788000D01*
X208858162Y-73552683D01*
X208719090Y-73336559D01*
X208506890Y-73191569D01*
X208255000Y-73140560D01*
X202795000Y-73140560D01*
X202795000Y-68921000D01*
X202632483Y-68103971D01*
X202169673Y-67411327D01*
X201887073Y-67222500D01*
X204914541Y-67222500D01*
X204673628Y-67322043D01*
X204142907Y-67851839D01*
X203855328Y-68544405D01*
X203854674Y-69294305D01*
X204141043Y-69987372D01*
X204670839Y-70518093D01*
X205363405Y-70805672D01*
X206113305Y-70806326D01*
X206806372Y-70519957D01*
X207337093Y-69990161D01*
X207624672Y-69297595D01*
X207625118Y-68785682D01*
X208926822Y-70087218D01*
X209310327Y-70661173D01*
X223544000Y-84894846D01*
X223544000Y-92299492D01*
X223107029Y-92007517D01*
X222290000Y-91845000D01*
X221472971Y-92007517D01*
X220780327Y-92470327D01*
X218197440Y-95053214D01*
X218197440Y-93815000D01*
X218153162Y-93579683D01*
X218014090Y-93363559D01*
X217801890Y-93218569D01*
X217550000Y-93167560D01*
X209170000Y-93167560D01*
X208934683Y-93211838D01*
X208718559Y-93350910D01*
X208573569Y-93563110D01*
X208522560Y-93815000D01*
X208522560Y-104305000D01*
X208566838Y-104540317D01*
X208672884Y-104705118D01*
X208654559Y-104716910D01*
X208509569Y-104929110D01*
X208458560Y-105181000D01*
X208458560Y-115671000D01*
X208502838Y-115906317D01*
X208641910Y-116122441D01*
X208854110Y-116267431D01*
X209106000Y-116318440D01*
X217486000Y-116318440D01*
X217721317Y-116274162D01*
X217937441Y-116135090D01*
X218082431Y-115922890D01*
X218133440Y-115671000D01*
X218133440Y-110703906D01*
X222629970Y-106207376D01*
X223107029Y-106112483D01*
X223544000Y-105820508D01*
X223544000Y-107808069D01*
X223359161Y-107622907D01*
X222666595Y-107335328D01*
X221916695Y-107334674D01*
X221223628Y-107621043D01*
X220692907Y-108150839D01*
X220405328Y-108843405D01*
X220404674Y-109593305D01*
X220691043Y-110286372D01*
X221220839Y-110817093D01*
X221913405Y-111104672D01*
X222425535Y-111105119D01*
X220740327Y-112790327D01*
X220277517Y-113482971D01*
X220115000Y-114300000D01*
X220277517Y-115117029D01*
X220740327Y-115809673D01*
X221432971Y-116272483D01*
X222250000Y-116435000D01*
X223067029Y-116272483D01*
X223759673Y-115809673D01*
X227188673Y-112380673D01*
X227651483Y-111688030D01*
X227814000Y-110871000D01*
X227814000Y-84010500D01*
X227651483Y-83193471D01*
X227651483Y-83193470D01*
X227188673Y-82500827D01*
X214630465Y-69942619D01*
X219764613Y-69942619D01*
X220104155Y-70764372D01*
X220732321Y-71393636D01*
X221553481Y-71734611D01*
X222442619Y-71735387D01*
X223264372Y-71395845D01*
X223893636Y-70767679D01*
X224234611Y-69946519D01*
X224235387Y-69057381D01*
X223895845Y-68235628D01*
X223267679Y-67606364D01*
X222446519Y-67265389D01*
X221557381Y-67264613D01*
X220735628Y-67604155D01*
X220106364Y-68232321D01*
X219765389Y-69053481D01*
X219764613Y-69942619D01*
X214630465Y-69942619D01*
X212713342Y-68025496D01*
X212559786Y-67795716D01*
X212329673Y-67451327D01*
X212329615Y-67451288D01*
X212329576Y-67451230D01*
X208455576Y-63577730D01*
X208107465Y-63345162D01*
X207763029Y-63115017D01*
X207762961Y-63115003D01*
X207762902Y-63114964D01*
X207352248Y-63033308D01*
X206946000Y-62952500D01*
X156972000Y-62952500D01*
X156154970Y-63115017D01*
X155462327Y-63577827D01*
X152922327Y-66117827D01*
X152459517Y-66810471D01*
X152297000Y-67627500D01*
X152297000Y-67926654D01*
X151239379Y-68984275D01*
X151226250Y-68495565D01*
X150978123Y-67896533D01*
X150685320Y-67767285D01*
X149531605Y-68921000D01*
X149545748Y-68935143D01*
X149366143Y-69114748D01*
X149352000Y-69100605D01*
X148198285Y-70254320D01*
X148327533Y-70547123D01*
X149027806Y-70815388D01*
X149418769Y-70804885D01*
X139309154Y-80914500D01*
X138181080Y-80914500D01*
X137945763Y-80958778D01*
X137729639Y-81097850D01*
X137584649Y-81310050D01*
X137533640Y-81561940D01*
X137533640Y-85062060D01*
X137577918Y-85297377D01*
X137716990Y-85513501D01*
X137881550Y-85625940D01*
X137217150Y-85625940D01*
X137058400Y-85784690D01*
X137058400Y-87884000D01*
X139157710Y-87884000D01*
X139316460Y-87725250D01*
X139316460Y-86134630D01*
X139219787Y-85901241D01*
X139041158Y-85722613D01*
X139009500Y-85709500D01*
X139268582Y-85709500D01*
X140867000Y-87307866D01*
X140867000Y-87825213D01*
X139316460Y-89375900D01*
X139316460Y-88296750D01*
X139157710Y-88138000D01*
X137058400Y-88138000D01*
X137058400Y-90237310D01*
X137217150Y-90396060D01*
X138296397Y-90396060D01*
X136847595Y-91845000D01*
X135890000Y-91845000D01*
X135072971Y-92007517D01*
X134380327Y-92470327D01*
X133917517Y-93162971D01*
X133755000Y-93980000D01*
X130504000Y-93980000D01*
X130504000Y-88296750D01*
X134546340Y-88296750D01*
X134546340Y-89887370D01*
X134643013Y-90120759D01*
X134821642Y-90299387D01*
X135055031Y-90396060D01*
X136645650Y-90396060D01*
X136804400Y-90237310D01*
X136804400Y-88138000D01*
X134705090Y-88138000D01*
X134546340Y-88296750D01*
X130504000Y-88296750D01*
X130504000Y-83597750D01*
X131546600Y-83597750D01*
X131546600Y-85188370D01*
X131643273Y-85421759D01*
X131821902Y-85600387D01*
X132055291Y-85697060D01*
X133645910Y-85697060D01*
X133804660Y-85538310D01*
X133804660Y-83439000D01*
X134058660Y-83439000D01*
X134058660Y-85538310D01*
X134217410Y-85697060D01*
X134883332Y-85697060D01*
X134821642Y-85722613D01*
X134643013Y-85901241D01*
X134546340Y-86134630D01*
X134546340Y-87725250D01*
X134705090Y-87884000D01*
X136804400Y-87884000D01*
X136804400Y-85784690D01*
X136645650Y-85625940D01*
X135979728Y-85625940D01*
X136041418Y-85600387D01*
X136220047Y-85421759D01*
X136316720Y-85188370D01*
X136316720Y-83597750D01*
X136157970Y-83439000D01*
X134058660Y-83439000D01*
X133804660Y-83439000D01*
X131705350Y-83439000D01*
X131546600Y-83597750D01*
X130504000Y-83597750D01*
X130504000Y-81435630D01*
X131546600Y-81435630D01*
X131546600Y-83026250D01*
X131705350Y-83185000D01*
X133804660Y-83185000D01*
X133804660Y-81085690D01*
X134058660Y-81085690D01*
X134058660Y-83185000D01*
X136157970Y-83185000D01*
X136316720Y-83026250D01*
X136316720Y-81435630D01*
X136220047Y-81202241D01*
X136041418Y-81023613D01*
X135808029Y-80926940D01*
X134217410Y-80926940D01*
X134058660Y-81085690D01*
X133804660Y-81085690D01*
X133645910Y-80926940D01*
X132055291Y-80926940D01*
X131821902Y-81023613D01*
X131643273Y-81202241D01*
X131546600Y-81435630D01*
X130504000Y-81435630D01*
X130504000Y-69942619D01*
X135764613Y-69942619D01*
X136104155Y-70764372D01*
X136732321Y-71393636D01*
X137553481Y-71734611D01*
X138442619Y-71735387D01*
X139264372Y-71395845D01*
X139893636Y-70767679D01*
X140234611Y-69946519D01*
X140235387Y-69057381D01*
X140045081Y-68596806D01*
X147457612Y-68596806D01*
X147477750Y-69346435D01*
X147725877Y-69945467D01*
X148018680Y-70074715D01*
X149172395Y-68921000D01*
X148018680Y-67767285D01*
X147725877Y-67896533D01*
X147457612Y-68596806D01*
X140045081Y-68596806D01*
X139895845Y-68235628D01*
X139267679Y-67606364D01*
X139222683Y-67587680D01*
X148198285Y-67587680D01*
X149352000Y-68741395D01*
X150505715Y-67587680D01*
X150376467Y-67294877D01*
X149676194Y-67026612D01*
X148926565Y-67046750D01*
X148327533Y-67294877D01*
X148198285Y-67587680D01*
X139222683Y-67587680D01*
X138446519Y-67265389D01*
X137557381Y-67264613D01*
X136735628Y-67604155D01*
X136106364Y-68232321D01*
X135765389Y-69053481D01*
X135764613Y-69942619D01*
X130504000Y-69942619D01*
X130504000Y-61416000D01*
X228906000Y-61416000D01*
X228906000Y-159818000D01*
G36*
X166371276Y-150049341D02*
X166370725Y-150679893D01*
X166611519Y-151262657D01*
X167056997Y-151708914D01*
X167112193Y-151731833D01*
X167050795Y-151744046D01*
X166820454Y-151897954D01*
X166666546Y-152128295D01*
X166612500Y-152400000D01*
X166612500Y-154714474D01*
X166465698Y-154567673D01*
X166232309Y-154471000D01*
X165641750Y-154471000D01*
X165483000Y-154629750D01*
X165483000Y-156008234D01*
X165229000Y-156027520D01*
X165229000Y-154629750D01*
X165070250Y-154471000D01*
X164479691Y-154471000D01*
X164246302Y-154567673D01*
X164067673Y-154746301D01*
X163971000Y-154979690D01*
X163971000Y-156820250D01*
X164129750Y-156979000D01*
X164258234Y-156979000D01*
X164277520Y-157233000D01*
X164129750Y-157233000D01*
X163971000Y-157391750D01*
X163971000Y-159232310D01*
X164067673Y-159465699D01*
X164246302Y-159644327D01*
X164479691Y-159741000D01*
X165070250Y-159741000D01*
X165229000Y-159582250D01*
X165229000Y-158203766D01*
X165483000Y-158184480D01*
X165483000Y-159582250D01*
X165641750Y-159741000D01*
X166232309Y-159741000D01*
X166465698Y-159644327D01*
X166612500Y-159497526D01*
X166612500Y-159818000D01*
X161111000Y-159818000D01*
X161111000Y-159679410D01*
X161259691Y-159741000D01*
X161850250Y-159741000D01*
X162009000Y-159582250D01*
X162009000Y-158203766D01*
X162263000Y-158184480D01*
X162263000Y-159582250D01*
X162421750Y-159741000D01*
X163012309Y-159741000D01*
X163245698Y-159644327D01*
X163424327Y-159465699D01*
X163521000Y-159232310D01*
X163521000Y-157391750D01*
X163362250Y-157233000D01*
X163233766Y-157233000D01*
X163214480Y-156979000D01*
X163362250Y-156979000D01*
X163521000Y-156820250D01*
X163521000Y-154979690D01*
X163424327Y-154746301D01*
X163245698Y-154567673D01*
X163012309Y-154471000D01*
X162421750Y-154471000D01*
X162263000Y-154629750D01*
X162263000Y-156008234D01*
X162009000Y-156027520D01*
X162009000Y-154629750D01*
X161850250Y-154471000D01*
X161259691Y-154471000D01*
X161111000Y-154532590D01*
X161111000Y-152400000D01*
X161056954Y-152128295D01*
X160903046Y-151897954D01*
X160672705Y-151744046D01*
X160516582Y-151712991D01*
X160522657Y-151710481D01*
X160968914Y-151265003D01*
X161210724Y-150682659D01*
X161211275Y-150052107D01*
X160987528Y-149510600D01*
X166594980Y-149510600D01*
X166371276Y-150049341D01*
X166371276Y-150049341D01*
G37*
X166371276Y-150049341D02*
X166370725Y-150679893D01*
X166611519Y-151262657D01*
X167056997Y-151708914D01*
X167112193Y-151731833D01*
X167050795Y-151744046D01*
X166820454Y-151897954D01*
X166666546Y-152128295D01*
X166612500Y-152400000D01*
X166612500Y-154714474D01*
X166465698Y-154567673D01*
X166232309Y-154471000D01*
X165641750Y-154471000D01*
X165483000Y-154629750D01*
X165483000Y-156008234D01*
X165229000Y-156027520D01*
X165229000Y-154629750D01*
X165070250Y-154471000D01*
X164479691Y-154471000D01*
X164246302Y-154567673D01*
X164067673Y-154746301D01*
X163971000Y-154979690D01*
X163971000Y-156820250D01*
X164129750Y-156979000D01*
X164258234Y-156979000D01*
X164277520Y-157233000D01*
X164129750Y-157233000D01*
X163971000Y-157391750D01*
X163971000Y-159232310D01*
X164067673Y-159465699D01*
X164246302Y-159644327D01*
X164479691Y-159741000D01*
X165070250Y-159741000D01*
X165229000Y-159582250D01*
X165229000Y-158203766D01*
X165483000Y-158184480D01*
X165483000Y-159582250D01*
X165641750Y-159741000D01*
X166232309Y-159741000D01*
X166465698Y-159644327D01*
X166612500Y-159497526D01*
X166612500Y-159818000D01*
X161111000Y-159818000D01*
X161111000Y-159679410D01*
X161259691Y-159741000D01*
X161850250Y-159741000D01*
X162009000Y-159582250D01*
X162009000Y-158203766D01*
X162263000Y-158184480D01*
X162263000Y-159582250D01*
X162421750Y-159741000D01*
X163012309Y-159741000D01*
X163245698Y-159644327D01*
X163424327Y-159465699D01*
X163521000Y-159232310D01*
X163521000Y-157391750D01*
X163362250Y-157233000D01*
X163233766Y-157233000D01*
X163214480Y-156979000D01*
X163362250Y-156979000D01*
X163521000Y-156820250D01*
X163521000Y-154979690D01*
X163424327Y-154746301D01*
X163245698Y-154567673D01*
X163012309Y-154471000D01*
X162421750Y-154471000D01*
X162263000Y-154629750D01*
X162263000Y-156008234D01*
X162009000Y-156027520D01*
X162009000Y-154629750D01*
X161850250Y-154471000D01*
X161259691Y-154471000D01*
X161111000Y-154532590D01*
X161111000Y-152400000D01*
X161056954Y-152128295D01*
X160903046Y-151897954D01*
X160672705Y-151744046D01*
X160516582Y-151712991D01*
X160522657Y-151710481D01*
X160968914Y-151265003D01*
X161210724Y-150682659D01*
X161211275Y-150052107D01*
X160987528Y-149510600D01*
X166594980Y-149510600D01*
X166371276Y-150049341D01*
G36*
X182649748Y-157091858D02*
X182635605Y-157106000D01*
X182649748Y-157120143D01*
X182470143Y-157299748D01*
X182456000Y-157285605D01*
X182441858Y-157299748D01*
X182309000Y-157166890D01*
X182309000Y-157045110D01*
X182441858Y-156912253D01*
X182456000Y-156926395D01*
X182470143Y-156912253D01*
X182649748Y-157091858D01*
X182649748Y-157091858D01*
G37*
X182649748Y-157091858D02*
X182635605Y-157106000D01*
X182649748Y-157120143D01*
X182470143Y-157299748D01*
X182456000Y-157285605D01*
X182441858Y-157299748D01*
X182309000Y-157166890D01*
X182309000Y-157045110D01*
X182441858Y-156912253D01*
X182456000Y-156926395D01*
X182470143Y-156912253D01*
X182649748Y-157091858D01*
G36*
X145183000Y-157045110D02*
X145183000Y-157166890D01*
X145050143Y-157299748D01*
X145036000Y-157285605D01*
X145021858Y-157299748D01*
X144842253Y-157120143D01*
X144856395Y-157106000D01*
X144842253Y-157091858D01*
X145021858Y-156912253D01*
X145036000Y-156926395D01*
X145050143Y-156912253D01*
X145183000Y-157045110D01*
X145183000Y-157045110D01*
G37*
X145183000Y-157045110D02*
X145183000Y-157166890D01*
X145050143Y-157299748D01*
X145036000Y-157285605D01*
X145021858Y-157299748D01*
X144842253Y-157120143D01*
X144856395Y-157106000D01*
X144842253Y-157091858D01*
X145021858Y-156912253D01*
X145036000Y-156926395D01*
X145050143Y-156912253D01*
X145183000Y-157045110D01*
G36*
X165503000Y-157045110D02*
X165503000Y-157166890D01*
X165370143Y-157299748D01*
X165356000Y-157285605D01*
X165341858Y-157299748D01*
X165162253Y-157120143D01*
X165176395Y-157106000D01*
X165162253Y-157091858D01*
X165341858Y-156912253D01*
X165356000Y-156926395D01*
X165370143Y-156912253D01*
X165503000Y-157045110D01*
X165503000Y-157045110D01*
G37*
X165503000Y-157045110D02*
X165503000Y-157166890D01*
X165370143Y-157299748D01*
X165356000Y-157285605D01*
X165341858Y-157299748D01*
X165162253Y-157120143D01*
X165176395Y-157106000D01*
X165162253Y-157091858D01*
X165341858Y-156912253D01*
X165356000Y-156926395D01*
X165370143Y-156912253D01*
X165503000Y-157045110D01*
G36*
X162329748Y-157091858D02*
X162315605Y-157106000D01*
X162329748Y-157120143D01*
X162150143Y-157299748D01*
X162136000Y-157285605D01*
X162121858Y-157299748D01*
X161989000Y-157166890D01*
X161989000Y-157045110D01*
X162121858Y-156912253D01*
X162136000Y-156926395D01*
X162150143Y-156912253D01*
X162329748Y-157091858D01*
X162329748Y-157091858D01*
G37*
X162329748Y-157091858D02*
X162315605Y-157106000D01*
X162329748Y-157120143D01*
X162150143Y-157299748D01*
X162136000Y-157285605D01*
X162121858Y-157299748D01*
X161989000Y-157166890D01*
X161989000Y-157045110D01*
X162121858Y-156912253D01*
X162136000Y-156926395D01*
X162150143Y-156912253D01*
X162329748Y-157091858D01*
G36*
X152208560Y-150273000D02*
X152063440Y-150273000D01*
X152063440Y-149979000D01*
X152208560Y-149979000D01*
X152208560Y-150273000D01*
X152208560Y-150273000D01*
G37*
X152208560Y-150273000D02*
X152063440Y-150273000D01*
X152063440Y-149979000D01*
X152208560Y-149979000D01*
X152208560Y-150273000D01*
G36*
X174568560Y-150273000D02*
X174423440Y-150273000D01*
X174423440Y-149979000D01*
X174568560Y-149979000D01*
X174568560Y-150273000D01*
X174568560Y-150273000D01*
G37*
X174568560Y-150273000D02*
X174423440Y-150273000D01*
X174423440Y-149979000D01*
X174568560Y-149979000D01*
X174568560Y-150273000D01*
G36*
X154248560Y-150273000D02*
X154103440Y-150273000D01*
X154103440Y-149979000D01*
X154248560Y-149979000D01*
X154248560Y-150273000D01*
X154248560Y-150273000D01*
G37*
X154248560Y-150273000D02*
X154103440Y-150273000D01*
X154103440Y-149979000D01*
X154248560Y-149979000D01*
X154248560Y-150273000D01*
G36*
X150168560Y-150273000D02*
X149969000Y-150273000D01*
X149969000Y-150253000D01*
X149949000Y-150253000D01*
X149949000Y-149999000D01*
X149969000Y-149999000D01*
X149969000Y-149979000D01*
X150168560Y-149979000D01*
X150168560Y-150273000D01*
X150168560Y-150273000D01*
G37*
X150168560Y-150273000D02*
X149969000Y-150273000D01*
X149969000Y-150253000D01*
X149949000Y-150253000D01*
X149949000Y-149999000D01*
X149969000Y-149999000D01*
X149969000Y-149979000D01*
X150168560Y-149979000D01*
X150168560Y-150273000D01*
G36*
X172528560Y-150273000D02*
X172383440Y-150273000D01*
X172383440Y-149979000D01*
X172528560Y-149979000D01*
X172528560Y-150273000D01*
X172528560Y-150273000D01*
G37*
X172528560Y-150273000D02*
X172383440Y-150273000D01*
X172383440Y-149979000D01*
X172528560Y-149979000D01*
X172528560Y-150273000D01*
G36*
X170488560Y-150273000D02*
X170289000Y-150273000D01*
X170289000Y-150253000D01*
X170269000Y-150253000D01*
X170269000Y-149999000D01*
X170289000Y-149999000D01*
X170289000Y-149979000D01*
X170488560Y-149979000D01*
X170488560Y-150273000D01*
X170488560Y-150273000D01*
G37*
X170488560Y-150273000D02*
X170289000Y-150273000D01*
X170289000Y-150253000D01*
X170269000Y-150253000D01*
X170269000Y-149999000D01*
X170289000Y-149999000D01*
X170289000Y-149979000D01*
X170488560Y-149979000D01*
X170488560Y-150273000D01*
G36*
X202331473Y-95227392D02*
X202440249Y-95272560D01*
X201247000Y-95272560D01*
X201011683Y-95316838D01*
X200795559Y-95455910D01*
X200650569Y-95668110D01*
X200618584Y-95826055D01*
X200384299Y-95982599D01*
X195110098Y-101256800D01*
X191129000Y-101256800D01*
X191129000Y-101199500D01*
X191326400Y-101199500D01*
X191760746Y-101113103D01*
X192128966Y-100867066D01*
X192375003Y-100498846D01*
X192461400Y-100064500D01*
X192375003Y-99630154D01*
X192128966Y-99261934D01*
X191760746Y-99015897D01*
X191326400Y-98929500D01*
X190965130Y-98929500D01*
X190958090Y-98918559D01*
X190745890Y-98773569D01*
X190581651Y-98740310D01*
X190553346Y-98721397D01*
X190119000Y-98635000D01*
X189684654Y-98721397D01*
X189658968Y-98738560D01*
X189508683Y-98766838D01*
X189292559Y-98905910D01*
X189147569Y-99118110D01*
X189117917Y-99264535D01*
X189070397Y-99335654D01*
X189011848Y-99630000D01*
X186601431Y-99630000D01*
X186540000Y-99617560D01*
X185540000Y-99617560D01*
X185304683Y-99661838D01*
X185088559Y-99800910D01*
X184943569Y-100013110D01*
X184892560Y-100265000D01*
X184892560Y-100515000D01*
X184912450Y-100620705D01*
X184905000Y-100638690D01*
X184905000Y-100668750D01*
X184925312Y-100689062D01*
X184936838Y-100750317D01*
X185027190Y-100890727D01*
X184943569Y-101013110D01*
X184928442Y-101087808D01*
X184905000Y-101111250D01*
X184905000Y-101141310D01*
X184913468Y-101161753D01*
X184892560Y-101265000D01*
X184892560Y-101515000D01*
X184916944Y-101644589D01*
X184892560Y-101765000D01*
X184892560Y-102015000D01*
X184916944Y-102144589D01*
X184892560Y-102265000D01*
X184892560Y-102515000D01*
X184916944Y-102644589D01*
X184892560Y-102765000D01*
X184892560Y-103015000D01*
X184916944Y-103144589D01*
X184892560Y-103265000D01*
X184892560Y-103515000D01*
X184916944Y-103644589D01*
X184892560Y-103765000D01*
X184892560Y-104015000D01*
X184916944Y-104144589D01*
X184892560Y-104265000D01*
X184892560Y-104515000D01*
X184916944Y-104644589D01*
X184892560Y-104765000D01*
X184892560Y-105015000D01*
X184916944Y-105144589D01*
X184892560Y-105265000D01*
X184892560Y-105515000D01*
X184916944Y-105644589D01*
X184892560Y-105765000D01*
X184892560Y-106015000D01*
X184916944Y-106144589D01*
X184892560Y-106265000D01*
X184892560Y-106515000D01*
X184916944Y-106644589D01*
X184892560Y-106765000D01*
X184892560Y-107015000D01*
X184916944Y-107144589D01*
X184892560Y-107265000D01*
X184892560Y-107515000D01*
X184916944Y-107644589D01*
X184892560Y-107765000D01*
X184892560Y-108015000D01*
X184936838Y-108250317D01*
X185075910Y-108466441D01*
X185288110Y-108611431D01*
X185540000Y-108662440D01*
X186540000Y-108662440D01*
X186606113Y-108650000D01*
X186790698Y-108650000D01*
X211281606Y-133140908D01*
X211081642Y-133234817D01*
X210691355Y-133663076D01*
X210521524Y-134073110D01*
X210642845Y-134303000D01*
X211836000Y-134303000D01*
X211836000Y-134283000D01*
X212090000Y-134283000D01*
X212090000Y-134303000D01*
X212110000Y-134303000D01*
X212110000Y-134557000D01*
X212090000Y-134557000D01*
X212090000Y-134577000D01*
X211836000Y-134577000D01*
X211836000Y-134557000D01*
X210642845Y-134557000D01*
X210521524Y-134786890D01*
X210691355Y-135196924D01*
X211081642Y-135625183D01*
X211223470Y-135691789D01*
X211223188Y-135693210D01*
X210883853Y-135919946D01*
X210561946Y-136401715D01*
X210448907Y-136970000D01*
X210561946Y-137538285D01*
X210883853Y-138020054D01*
X211213026Y-138240000D01*
X210883853Y-138459946D01*
X210690046Y-138750000D01*
X198852102Y-138750000D01*
X197153102Y-137051000D01*
X199121250Y-137051000D01*
X199280000Y-136892250D01*
X199280000Y-133043000D01*
X199534000Y-133043000D01*
X199534000Y-136892250D01*
X199692750Y-137051000D01*
X203033310Y-137051000D01*
X203266699Y-136954327D01*
X203445327Y-136775698D01*
X203542000Y-136542309D01*
X203542000Y-133201750D01*
X203383250Y-133043000D01*
X199534000Y-133043000D01*
X199280000Y-133043000D01*
X199260000Y-133043000D01*
X199260000Y-132789000D01*
X199280000Y-132789000D01*
X199280000Y-128939750D01*
X199534000Y-128939750D01*
X199534000Y-132789000D01*
X203383250Y-132789000D01*
X203542000Y-132630250D01*
X203542000Y-129289691D01*
X203445327Y-129056302D01*
X203266699Y-128877673D01*
X203033310Y-128781000D01*
X199692750Y-128781000D01*
X199534000Y-128939750D01*
X199280000Y-128939750D01*
X199121250Y-128781000D01*
X196060400Y-128781000D01*
X196060400Y-121875700D01*
X196002548Y-121584861D01*
X195837801Y-121338299D01*
X184858577Y-110359075D01*
X184862440Y-110340000D01*
X184862440Y-109340000D01*
X184818162Y-109104683D01*
X184679090Y-108888559D01*
X184466890Y-108743569D01*
X184215000Y-108692560D01*
X183965000Y-108692560D01*
X183835411Y-108716944D01*
X183715000Y-108692560D01*
X183465000Y-108692560D01*
X183335411Y-108716944D01*
X183215000Y-108692560D01*
X182965000Y-108692560D01*
X182835411Y-108716944D01*
X182715000Y-108692560D01*
X182465000Y-108692560D01*
X182359295Y-108712450D01*
X182341310Y-108705000D01*
X182311250Y-108705000D01*
X182290938Y-108725312D01*
X182229683Y-108736838D01*
X182089273Y-108827190D01*
X181966890Y-108743569D01*
X181892192Y-108728442D01*
X181868750Y-108705000D01*
X181838690Y-108705000D01*
X181818247Y-108713468D01*
X181715000Y-108692560D01*
X181465000Y-108692560D01*
X181335411Y-108716944D01*
X181215000Y-108692560D01*
X180965000Y-108692560D01*
X180835411Y-108716944D01*
X180715000Y-108692560D01*
X180465000Y-108692560D01*
X180335411Y-108716944D01*
X180215000Y-108692560D01*
X179965000Y-108692560D01*
X179835411Y-108716944D01*
X179715000Y-108692560D01*
X179465000Y-108692560D01*
X179335411Y-108716944D01*
X179215000Y-108692560D01*
X178965000Y-108692560D01*
X178835411Y-108716944D01*
X178715000Y-108692560D01*
X178465000Y-108692560D01*
X178335411Y-108716944D01*
X178215000Y-108692560D01*
X177965000Y-108692560D01*
X177835411Y-108716944D01*
X177715000Y-108692560D01*
X177465000Y-108692560D01*
X177335411Y-108716944D01*
X177215000Y-108692560D01*
X176965000Y-108692560D01*
X176835411Y-108716944D01*
X176715000Y-108692560D01*
X176465000Y-108692560D01*
X176229683Y-108736838D01*
X176013559Y-108875910D01*
X175868569Y-109088110D01*
X175833193Y-109262800D01*
X175454800Y-109262800D01*
X175020455Y-109349196D01*
X174652234Y-109595233D01*
X174244300Y-110003168D01*
X172891132Y-108650000D01*
X174078569Y-108650000D01*
X174140000Y-108662440D01*
X175140000Y-108662440D01*
X175375317Y-108618162D01*
X175591441Y-108479090D01*
X175736431Y-108266890D01*
X175787440Y-108015000D01*
X175787440Y-107765000D01*
X175767550Y-107659295D01*
X175775000Y-107641310D01*
X175775000Y-107611250D01*
X175754688Y-107590938D01*
X175743162Y-107529683D01*
X175652810Y-107389273D01*
X175736431Y-107266890D01*
X175751558Y-107192192D01*
X175775000Y-107168750D01*
X175775000Y-107138690D01*
X175766532Y-107118247D01*
X175787440Y-107015000D01*
X175787440Y-106765000D01*
X175763056Y-106635411D01*
X175787440Y-106515000D01*
X175787440Y-106265000D01*
X175767550Y-106159295D01*
X175775000Y-106141310D01*
X175775000Y-106111250D01*
X175754688Y-106090938D01*
X175743162Y-106029683D01*
X175735002Y-106017002D01*
X175754236Y-106017002D01*
X175765401Y-106021638D01*
X176137367Y-106021962D01*
X176481143Y-105879917D01*
X176744392Y-105617127D01*
X176887038Y-105273599D01*
X176887079Y-105226723D01*
X178127401Y-103986401D01*
X178292148Y-103739839D01*
X178350000Y-103449000D01*
X178350000Y-99564152D01*
X178465000Y-99587440D01*
X178715000Y-99587440D01*
X178844589Y-99563056D01*
X178965000Y-99587440D01*
X179215000Y-99587440D01*
X179344589Y-99563056D01*
X179465000Y-99587440D01*
X179715000Y-99587440D01*
X179844589Y-99563056D01*
X179965000Y-99587440D01*
X180215000Y-99587440D01*
X180344589Y-99563056D01*
X180465000Y-99587440D01*
X180715000Y-99587440D01*
X180844589Y-99563056D01*
X180965000Y-99587440D01*
X181215000Y-99587440D01*
X181344589Y-99563056D01*
X181465000Y-99587440D01*
X181715000Y-99587440D01*
X181844589Y-99563056D01*
X181965000Y-99587440D01*
X182215000Y-99587440D01*
X182344589Y-99563056D01*
X182465000Y-99587440D01*
X182715000Y-99587440D01*
X182844589Y-99563056D01*
X182965000Y-99587440D01*
X183215000Y-99587440D01*
X183344589Y-99563056D01*
X183465000Y-99587440D01*
X183715000Y-99587440D01*
X183844589Y-99563056D01*
X183965000Y-99587440D01*
X184215000Y-99587440D01*
X184450317Y-99543162D01*
X184666441Y-99404090D01*
X184811431Y-99191890D01*
X184862440Y-98940000D01*
X184862440Y-98374700D01*
X196259300Y-98374700D01*
X196550139Y-98316848D01*
X196796701Y-98152101D01*
X199753602Y-95195200D01*
X202299337Y-95195200D01*
X202331473Y-95227392D01*
X202331473Y-95227392D01*
G37*
X202331473Y-95227392D02*
X202440249Y-95272560D01*
X201247000Y-95272560D01*
X201011683Y-95316838D01*
X200795559Y-95455910D01*
X200650569Y-95668110D01*
X200618584Y-95826055D01*
X200384299Y-95982599D01*
X195110098Y-101256800D01*
X191129000Y-101256800D01*
X191129000Y-101199500D01*
X191326400Y-101199500D01*
X191760746Y-101113103D01*
X192128966Y-100867066D01*
X192375003Y-100498846D01*
X192461400Y-100064500D01*
X192375003Y-99630154D01*
X192128966Y-99261934D01*
X191760746Y-99015897D01*
X191326400Y-98929500D01*
X190965130Y-98929500D01*
X190958090Y-98918559D01*
X190745890Y-98773569D01*
X190581651Y-98740310D01*
X190553346Y-98721397D01*
X190119000Y-98635000D01*
X189684654Y-98721397D01*
X189658968Y-98738560D01*
X189508683Y-98766838D01*
X189292559Y-98905910D01*
X189147569Y-99118110D01*
X189117917Y-99264535D01*
X189070397Y-99335654D01*
X189011848Y-99630000D01*
X186601431Y-99630000D01*
X186540000Y-99617560D01*
X185540000Y-99617560D01*
X185304683Y-99661838D01*
X185088559Y-99800910D01*
X184943569Y-100013110D01*
X184892560Y-100265000D01*
X184892560Y-100515000D01*
X184912450Y-100620705D01*
X184905000Y-100638690D01*
X184905000Y-100668750D01*
X184925312Y-100689062D01*
X184936838Y-100750317D01*
X185027190Y-100890727D01*
X184943569Y-101013110D01*
X184928442Y-101087808D01*
X184905000Y-101111250D01*
X184905000Y-101141310D01*
X184913468Y-101161753D01*
X184892560Y-101265000D01*
X184892560Y-101515000D01*
X184916944Y-101644589D01*
X184892560Y-101765000D01*
X184892560Y-102015000D01*
X184916944Y-102144589D01*
X184892560Y-102265000D01*
X184892560Y-102515000D01*
X184916944Y-102644589D01*
X184892560Y-102765000D01*
X184892560Y-103015000D01*
X184916944Y-103144589D01*
X184892560Y-103265000D01*
X184892560Y-103515000D01*
X184916944Y-103644589D01*
X184892560Y-103765000D01*
X184892560Y-104015000D01*
X184916944Y-104144589D01*
X184892560Y-104265000D01*
X184892560Y-104515000D01*
X184916944Y-104644589D01*
X184892560Y-104765000D01*
X184892560Y-105015000D01*
X184916944Y-105144589D01*
X184892560Y-105265000D01*
X184892560Y-105515000D01*
X184916944Y-105644589D01*
X184892560Y-105765000D01*
X184892560Y-106015000D01*
X184916944Y-106144589D01*
X184892560Y-106265000D01*
X184892560Y-106515000D01*
X184916944Y-106644589D01*
X184892560Y-106765000D01*
X184892560Y-107015000D01*
X184916944Y-107144589D01*
X184892560Y-107265000D01*
X184892560Y-107515000D01*
X184916944Y-107644589D01*
X184892560Y-107765000D01*
X184892560Y-108015000D01*
X184936838Y-108250317D01*
X185075910Y-108466441D01*
X185288110Y-108611431D01*
X185540000Y-108662440D01*
X186540000Y-108662440D01*
X186606113Y-108650000D01*
X186790698Y-108650000D01*
X211281606Y-133140908D01*
X211081642Y-133234817D01*
X210691355Y-133663076D01*
X210521524Y-134073110D01*
X210642845Y-134303000D01*
X211836000Y-134303000D01*
X211836000Y-134283000D01*
X212090000Y-134283000D01*
X212090000Y-134303000D01*
X212110000Y-134303000D01*
X212110000Y-134557000D01*
X212090000Y-134557000D01*
X212090000Y-134577000D01*
X211836000Y-134577000D01*
X211836000Y-134557000D01*
X210642845Y-134557000D01*
X210521524Y-134786890D01*
X210691355Y-135196924D01*
X211081642Y-135625183D01*
X211223470Y-135691789D01*
X211223188Y-135693210D01*
X210883853Y-135919946D01*
X210561946Y-136401715D01*
X210448907Y-136970000D01*
X210561946Y-137538285D01*
X210883853Y-138020054D01*
X211213026Y-138240000D01*
X210883853Y-138459946D01*
X210690046Y-138750000D01*
X198852102Y-138750000D01*
X197153102Y-137051000D01*
X199121250Y-137051000D01*
X199280000Y-136892250D01*
X199280000Y-133043000D01*
X199534000Y-133043000D01*
X199534000Y-136892250D01*
X199692750Y-137051000D01*
X203033310Y-137051000D01*
X203266699Y-136954327D01*
X203445327Y-136775698D01*
X203542000Y-136542309D01*
X203542000Y-133201750D01*
X203383250Y-133043000D01*
X199534000Y-133043000D01*
X199280000Y-133043000D01*
X199260000Y-133043000D01*
X199260000Y-132789000D01*
X199280000Y-132789000D01*
X199280000Y-128939750D01*
X199534000Y-128939750D01*
X199534000Y-132789000D01*
X203383250Y-132789000D01*
X203542000Y-132630250D01*
X203542000Y-129289691D01*
X203445327Y-129056302D01*
X203266699Y-128877673D01*
X203033310Y-128781000D01*
X199692750Y-128781000D01*
X199534000Y-128939750D01*
X199280000Y-128939750D01*
X199121250Y-128781000D01*
X196060400Y-128781000D01*
X196060400Y-121875700D01*
X196002548Y-121584861D01*
X195837801Y-121338299D01*
X184858577Y-110359075D01*
X184862440Y-110340000D01*
X184862440Y-109340000D01*
X184818162Y-109104683D01*
X184679090Y-108888559D01*
X184466890Y-108743569D01*
X184215000Y-108692560D01*
X183965000Y-108692560D01*
X183835411Y-108716944D01*
X183715000Y-108692560D01*
X183465000Y-108692560D01*
X183335411Y-108716944D01*
X183215000Y-108692560D01*
X182965000Y-108692560D01*
X182835411Y-108716944D01*
X182715000Y-108692560D01*
X182465000Y-108692560D01*
X182359295Y-108712450D01*
X182341310Y-108705000D01*
X182311250Y-108705000D01*
X182290938Y-108725312D01*
X182229683Y-108736838D01*
X182089273Y-108827190D01*
X181966890Y-108743569D01*
X181892192Y-108728442D01*
X181868750Y-108705000D01*
X181838690Y-108705000D01*
X181818247Y-108713468D01*
X181715000Y-108692560D01*
X181465000Y-108692560D01*
X181335411Y-108716944D01*
X181215000Y-108692560D01*
X180965000Y-108692560D01*
X180835411Y-108716944D01*
X180715000Y-108692560D01*
X180465000Y-108692560D01*
X180335411Y-108716944D01*
X180215000Y-108692560D01*
X179965000Y-108692560D01*
X179835411Y-108716944D01*
X179715000Y-108692560D01*
X179465000Y-108692560D01*
X179335411Y-108716944D01*
X179215000Y-108692560D01*
X178965000Y-108692560D01*
X178835411Y-108716944D01*
X178715000Y-108692560D01*
X178465000Y-108692560D01*
X178335411Y-108716944D01*
X178215000Y-108692560D01*
X177965000Y-108692560D01*
X177835411Y-108716944D01*
X177715000Y-108692560D01*
X177465000Y-108692560D01*
X177335411Y-108716944D01*
X177215000Y-108692560D01*
X176965000Y-108692560D01*
X176835411Y-108716944D01*
X176715000Y-108692560D01*
X176465000Y-108692560D01*
X176229683Y-108736838D01*
X176013559Y-108875910D01*
X175868569Y-109088110D01*
X175833193Y-109262800D01*
X175454800Y-109262800D01*
X175020455Y-109349196D01*
X174652234Y-109595233D01*
X174244300Y-110003168D01*
X172891132Y-108650000D01*
X174078569Y-108650000D01*
X174140000Y-108662440D01*
X175140000Y-108662440D01*
X175375317Y-108618162D01*
X175591441Y-108479090D01*
X175736431Y-108266890D01*
X175787440Y-108015000D01*
X175787440Y-107765000D01*
X175767550Y-107659295D01*
X175775000Y-107641310D01*
X175775000Y-107611250D01*
X175754688Y-107590938D01*
X175743162Y-107529683D01*
X175652810Y-107389273D01*
X175736431Y-107266890D01*
X175751558Y-107192192D01*
X175775000Y-107168750D01*
X175775000Y-107138690D01*
X175766532Y-107118247D01*
X175787440Y-107015000D01*
X175787440Y-106765000D01*
X175763056Y-106635411D01*
X175787440Y-106515000D01*
X175787440Y-106265000D01*
X175767550Y-106159295D01*
X175775000Y-106141310D01*
X175775000Y-106111250D01*
X175754688Y-106090938D01*
X175743162Y-106029683D01*
X175735002Y-106017002D01*
X175754236Y-106017002D01*
X175765401Y-106021638D01*
X176137367Y-106021962D01*
X176481143Y-105879917D01*
X176744392Y-105617127D01*
X176887038Y-105273599D01*
X176887079Y-105226723D01*
X178127401Y-103986401D01*
X178292148Y-103739839D01*
X178350000Y-103449000D01*
X178350000Y-99564152D01*
X178465000Y-99587440D01*
X178715000Y-99587440D01*
X178844589Y-99563056D01*
X178965000Y-99587440D01*
X179215000Y-99587440D01*
X179344589Y-99563056D01*
X179465000Y-99587440D01*
X179715000Y-99587440D01*
X179844589Y-99563056D01*
X179965000Y-99587440D01*
X180215000Y-99587440D01*
X180344589Y-99563056D01*
X180465000Y-99587440D01*
X180715000Y-99587440D01*
X180844589Y-99563056D01*
X180965000Y-99587440D01*
X181215000Y-99587440D01*
X181344589Y-99563056D01*
X181465000Y-99587440D01*
X181715000Y-99587440D01*
X181844589Y-99563056D01*
X181965000Y-99587440D01*
X182215000Y-99587440D01*
X182344589Y-99563056D01*
X182465000Y-99587440D01*
X182715000Y-99587440D01*
X182844589Y-99563056D01*
X182965000Y-99587440D01*
X183215000Y-99587440D01*
X183344589Y-99563056D01*
X183465000Y-99587440D01*
X183715000Y-99587440D01*
X183844589Y-99563056D01*
X183965000Y-99587440D01*
X184215000Y-99587440D01*
X184450317Y-99543162D01*
X184666441Y-99404090D01*
X184811431Y-99191890D01*
X184862440Y-98940000D01*
X184862440Y-98374700D01*
X196259300Y-98374700D01*
X196550139Y-98316848D01*
X196796701Y-98152101D01*
X199753602Y-95195200D01*
X202299337Y-95195200D01*
X202331473Y-95227392D01*
G36*
X177465000Y-110987440D02*
X177465728Y-110987440D01*
X177465638Y-111090467D01*
X177607683Y-111434243D01*
X177619505Y-111446086D01*
X177334933Y-111445838D01*
X176991157Y-111587883D01*
X176727908Y-111850673D01*
X176585262Y-112194201D01*
X176584938Y-112566167D01*
X176726983Y-112909943D01*
X176989773Y-113173192D01*
X177333301Y-113315838D01*
X177705267Y-113316162D01*
X177921806Y-113226690D01*
X180968000Y-113226690D01*
X180968000Y-113442250D01*
X181126750Y-113601000D01*
X181876000Y-113601000D01*
X181876000Y-112876750D01*
X181717250Y-112718000D01*
X181476691Y-112718000D01*
X181243302Y-112814673D01*
X181064673Y-112993301D01*
X180968000Y-113226690D01*
X177921806Y-113226690D01*
X178049043Y-113174117D01*
X178133958Y-113089350D01*
X178165139Y-113083148D01*
X178411701Y-112918401D01*
X179516123Y-111813979D01*
X179405162Y-112081201D01*
X179404838Y-112453167D01*
X179546883Y-112796943D01*
X179809673Y-113060192D01*
X180153201Y-113202838D01*
X180525167Y-113203162D01*
X180868943Y-113061117D01*
X181132192Y-112798327D01*
X181274838Y-112454799D01*
X181274879Y-112407923D01*
X181627401Y-112055401D01*
X181792148Y-111808840D01*
X181830000Y-111618546D01*
X181830000Y-112190000D01*
X181858869Y-112335135D01*
X181887693Y-112480455D01*
X181887811Y-112480631D01*
X181887852Y-112480839D01*
X181970009Y-112603796D01*
X182052305Y-112727107D01*
X182165912Y-112840838D01*
X182130000Y-112876750D01*
X182130000Y-113601000D01*
X182150000Y-113601000D01*
X182150000Y-113855000D01*
X182130000Y-113855000D01*
X182130000Y-115125000D01*
X182150000Y-115125000D01*
X182150000Y-115192300D01*
X181856000Y-115192300D01*
X181856000Y-115125000D01*
X181876000Y-115125000D01*
X181876000Y-113855000D01*
X181126750Y-113855000D01*
X180968000Y-114013750D01*
X180968000Y-114229310D01*
X181064673Y-114462699D01*
X181091974Y-114490000D01*
X181064673Y-114517301D01*
X180968000Y-114750690D01*
X180968000Y-114966250D01*
X181126748Y-115124998D01*
X180968000Y-115124998D01*
X180968000Y-115192300D01*
X177909933Y-115192300D01*
X175379300Y-112661668D01*
X175379300Y-112078432D01*
X175924933Y-111532800D01*
X176032200Y-111532800D01*
X176466546Y-111446403D01*
X176498428Y-111425100D01*
X176590000Y-111425100D01*
X176880801Y-111367256D01*
X177127330Y-111202530D01*
X177279109Y-110975377D01*
X177344589Y-110963056D01*
X177465000Y-110987440D01*
X177465000Y-110987440D01*
G37*
X177465000Y-110987440D02*
X177465728Y-110987440D01*
X177465638Y-111090467D01*
X177607683Y-111434243D01*
X177619505Y-111446086D01*
X177334933Y-111445838D01*
X176991157Y-111587883D01*
X176727908Y-111850673D01*
X176585262Y-112194201D01*
X176584938Y-112566167D01*
X176726983Y-112909943D01*
X176989773Y-113173192D01*
X177333301Y-113315838D01*
X177705267Y-113316162D01*
X177921806Y-113226690D01*
X180968000Y-113226690D01*
X180968000Y-113442250D01*
X181126750Y-113601000D01*
X181876000Y-113601000D01*
X181876000Y-112876750D01*
X181717250Y-112718000D01*
X181476691Y-112718000D01*
X181243302Y-112814673D01*
X181064673Y-112993301D01*
X180968000Y-113226690D01*
X177921806Y-113226690D01*
X178049043Y-113174117D01*
X178133958Y-113089350D01*
X178165139Y-113083148D01*
X178411701Y-112918401D01*
X179516123Y-111813979D01*
X179405162Y-112081201D01*
X179404838Y-112453167D01*
X179546883Y-112796943D01*
X179809673Y-113060192D01*
X180153201Y-113202838D01*
X180525167Y-113203162D01*
X180868943Y-113061117D01*
X181132192Y-112798327D01*
X181274838Y-112454799D01*
X181274879Y-112407923D01*
X181627401Y-112055401D01*
X181792148Y-111808840D01*
X181830000Y-111618546D01*
X181830000Y-112190000D01*
X181858869Y-112335135D01*
X181887693Y-112480455D01*
X181887811Y-112480631D01*
X181887852Y-112480839D01*
X181970009Y-112603796D01*
X182052305Y-112727107D01*
X182165912Y-112840838D01*
X182130000Y-112876750D01*
X182130000Y-113601000D01*
X182150000Y-113601000D01*
X182150000Y-113855000D01*
X182130000Y-113855000D01*
X182130000Y-115125000D01*
X182150000Y-115125000D01*
X182150000Y-115192300D01*
X181856000Y-115192300D01*
X181856000Y-115125000D01*
X181876000Y-115125000D01*
X181876000Y-113855000D01*
X181126750Y-113855000D01*
X180968000Y-114013750D01*
X180968000Y-114229310D01*
X181064673Y-114462699D01*
X181091974Y-114490000D01*
X181064673Y-114517301D01*
X180968000Y-114750690D01*
X180968000Y-114966250D01*
X181126748Y-115124998D01*
X180968000Y-115124998D01*
X180968000Y-115192300D01*
X177909933Y-115192300D01*
X175379300Y-112661668D01*
X175379300Y-112078432D01*
X175924933Y-111532800D01*
X176032200Y-111532800D01*
X176466546Y-111446403D01*
X176498428Y-111425100D01*
X176590000Y-111425100D01*
X176880801Y-111367256D01*
X177127330Y-111202530D01*
X177279109Y-110975377D01*
X177344589Y-110963056D01*
X177465000Y-110987440D01*
G36*
X171641000Y-107263000D02*
X171661000Y-107263000D01*
X171661000Y-107517000D01*
X171641000Y-107517000D01*
X171641000Y-107537000D01*
X171387000Y-107537000D01*
X171387000Y-107517000D01*
X171367000Y-107517000D01*
X171367000Y-107263000D01*
X171387000Y-107263000D01*
X171387000Y-107243000D01*
X171641000Y-107243000D01*
X171641000Y-107263000D01*
X171641000Y-107263000D01*
G37*
X171641000Y-107263000D02*
X171661000Y-107263000D01*
X171661000Y-107517000D01*
X171641000Y-107517000D01*
X171641000Y-107537000D01*
X171387000Y-107537000D01*
X171387000Y-107517000D01*
X171367000Y-107517000D01*
X171367000Y-107263000D01*
X171387000Y-107263000D01*
X171387000Y-107243000D01*
X171641000Y-107243000D01*
X171641000Y-107263000D01*
M02*
