%TF.GenerationSoftware,KiCad,Pcbnew,(5.0.1)-3*%
%TF.CreationDate,2018-12-23T11:37:47+11:00*%
%TF.ProjectId,1Wire-LEDController,31576972652D4C4544436F6E74726F6C,1.2*%
%TF.SameCoordinates,Original*%
%TF.FileFunction,Copper,L1,Top,Signal*%
%TF.FilePolarity,Positive*%
%FSLAX46Y46*%
G04 Gerber Fmt 4.6, Leading zero omitted, Abs format (unit mm)*
G04 Created by KiCad (PCBNEW (5.0.1)-3) date 23/12/2018 11:37:47 AM*
%MOMM*%
%LPD*%
G01*
G04 APERTURE LIST*
%TA.AperFunction,SMDPad,CuDef*%
%ADD10R,0.250000X1.000000*%
%TD*%
%TA.AperFunction,SMDPad,CuDef*%
%ADD11R,1.000000X0.250000*%
%TD*%
%TA.AperFunction,SMDPad,CuDef*%
%ADD12R,1.200000X3.800000*%
%TD*%
%TA.AperFunction,SMDPad,CuDef*%
%ADD13R,10.490000X8.380000*%
%TD*%
%TA.AperFunction,SMDPad,CuDef*%
%ADD14R,1.270000X3.600000*%
%TD*%
%TA.AperFunction,SMDPad,CuDef*%
%ADD15R,1.500000X4.000000*%
%TD*%
%TA.AperFunction,ComponentPad*%
%ADD16C,0.900000*%
%TD*%
%TA.AperFunction,SMDPad,CuDef*%
%ADD17R,0.600000X2.100000*%
%TD*%
%TA.AperFunction,ComponentPad*%
%ADD18R,3.500120X3.500120*%
%TD*%
%TA.AperFunction,SMDPad,CuDef*%
%ADD19R,4.000000X2.500000*%
%TD*%
%TA.AperFunction,SMDPad,CuDef*%
%ADD20R,0.800000X0.750000*%
%TD*%
%TA.AperFunction,SMDPad,CuDef*%
%ADD21R,0.750000X0.800000*%
%TD*%
%TA.AperFunction,ComponentPad*%
%ADD22C,2.500000*%
%TD*%
%TA.AperFunction,ComponentPad*%
%ADD23R,1.700000X1.700000*%
%TD*%
%TA.AperFunction,ComponentPad*%
%ADD24O,1.700000X1.700000*%
%TD*%
%TA.AperFunction,SMDPad,CuDef*%
%ADD25R,3.800000X1.200000*%
%TD*%
%TA.AperFunction,SMDPad,CuDef*%
%ADD26R,8.380000X10.490000*%
%TD*%
%TA.AperFunction,SMDPad,CuDef*%
%ADD27R,0.500000X0.900000*%
%TD*%
%TA.AperFunction,SMDPad,CuDef*%
%ADD28R,3.500000X2.000000*%
%TD*%
%TA.AperFunction,SMDPad,CuDef*%
%ADD29R,7.000000X7.000000*%
%TD*%
%TA.AperFunction,SMDPad,CuDef*%
%ADD30R,1.500000X1.500000*%
%TD*%
%TA.AperFunction,ViaPad*%
%ADD31C,0.600000*%
%TD*%
%TA.AperFunction,Conductor*%
%ADD32C,0.250000*%
%TD*%
%TA.AperFunction,Conductor*%
%ADD33C,1.000000*%
%TD*%
%TA.AperFunction,Conductor*%
%ADD34C,0.599800*%
%TD*%
%TA.AperFunction,Conductor*%
%ADD35C,0.800000*%
%TD*%
%TA.AperFunction,Conductor*%
%ADD36C,3.000000*%
%TD*%
%TA.AperFunction,Conductor*%
%ADD37C,0.249800*%
%TD*%
%TA.AperFunction,Conductor*%
%ADD38C,0.254000*%
%TD*%
G04 APERTURE END LIST*
D10*
%TO.P,U2,1*%
%TO.N,+3V3*%
X176590000Y-109840000D03*
%TO.P,U2,2*%
%TO.N,Net-(U2-Pad2)*%
X177090000Y-109840000D03*
%TO.P,U2,3*%
%TO.N,Net-(U2-Pad3)*%
X177590000Y-109840000D03*
%TO.P,U2,4*%
%TO.N,Net-(U2-Pad4)*%
X178090000Y-109840000D03*
%TO.P,U2,5*%
%TO.N,/1W-DATA*%
X178590000Y-109840000D03*
%TO.P,U2,6*%
%TO.N,Net-(U2-Pad6)*%
X179090000Y-109840000D03*
%TO.P,U2,7*%
%TO.N,Net-(P1-Pad10)*%
X179590000Y-109840000D03*
%TO.P,U2,8*%
%TO.N,Net-(U2-Pad8)*%
X180090000Y-109840000D03*
%TO.P,U2,9*%
%TO.N,Net-(U2-Pad9)*%
X180590000Y-109840000D03*
%TO.P,U2,10*%
%TO.N,/MAINS_ENABLE*%
X181090000Y-109840000D03*
%TO.P,U2,11*%
%TO.N,Net-(U2-Pad11)*%
X181590000Y-109840000D03*
%TO.P,U2,12*%
%TO.N,GND*%
X182090000Y-109840000D03*
%TO.P,U2,13*%
%TO.N,+3V3*%
X182590000Y-109840000D03*
%TO.P,U2,14*%
%TO.N,Net-(U2-Pad14)*%
X183090000Y-109840000D03*
%TO.P,U2,15*%
%TO.N,Net-(U2-Pad15)*%
X183590000Y-109840000D03*
%TO.P,U2,16*%
%TO.N,/UART_TX*%
X184090000Y-109840000D03*
D11*
%TO.P,U2,17*%
%TO.N,/UART_RX*%
X186040000Y-107890000D03*
%TO.P,U2,18*%
%TO.N,Net-(U2-Pad18)*%
X186040000Y-107390000D03*
%TO.P,U2,19*%
%TO.N,Net-(U2-Pad19)*%
X186040000Y-106890000D03*
%TO.P,U2,20*%
%TO.N,Net-(U2-Pad20)*%
X186040000Y-106390000D03*
%TO.P,U2,21*%
%TO.N,Net-(U2-Pad21)*%
X186040000Y-105890000D03*
%TO.P,U2,22*%
%TO.N,Net-(U2-Pad22)*%
X186040000Y-105390000D03*
%TO.P,U2,23*%
%TO.N,/CHAN3_G*%
X186040000Y-104890000D03*
%TO.P,U2,24*%
%TO.N,Net-(U2-Pad24)*%
X186040000Y-104390000D03*
%TO.P,U2,25*%
%TO.N,/CHAN3_R*%
X186040000Y-103890000D03*
%TO.P,U2,26*%
%TO.N,Net-(U2-Pad26)*%
X186040000Y-103390000D03*
%TO.P,U2,27*%
%TO.N,/CHAN3_B*%
X186040000Y-102890000D03*
%TO.P,U2,28*%
%TO.N,Net-(U2-Pad28)*%
X186040000Y-102390000D03*
%TO.P,U2,29*%
%TO.N,/CHAN3_W*%
X186040000Y-101890000D03*
%TO.P,U2,30*%
%TO.N,Net-(U2-Pad30)*%
X186040000Y-101390000D03*
%TO.P,U2,31*%
%TO.N,GND*%
X186040000Y-100890000D03*
%TO.P,U2,32*%
%TO.N,+3V3*%
X186040000Y-100390000D03*
D10*
%TO.P,U2,33*%
%TO.N,/CHAN2_G*%
X184090000Y-98440000D03*
%TO.P,U2,34*%
%TO.N,/CHAN2_R*%
X183590000Y-98440000D03*
%TO.P,U2,35*%
%TO.N,Net-(U2-Pad35)*%
X183090000Y-98440000D03*
%TO.P,U2,36*%
%TO.N,/CHAN2_B*%
X182590000Y-98440000D03*
%TO.P,U2,37*%
%TO.N,Net-(U2-Pad37)*%
X182090000Y-98440000D03*
%TO.P,U2,38*%
%TO.N,/CHAN2_W*%
X181590000Y-98440000D03*
%TO.P,U2,39*%
%TO.N,Net-(U2-Pad39)*%
X181090000Y-98440000D03*
%TO.P,U2,40*%
%TO.N,/CHAN1_G*%
X180590000Y-98440000D03*
%TO.P,U2,41*%
%TO.N,Net-(U2-Pad41)*%
X180090000Y-98440000D03*
%TO.P,U2,42*%
%TO.N,/CHAN1_R*%
X179590000Y-98440000D03*
%TO.P,U2,43*%
%TO.N,Net-(U2-Pad43)*%
X179090000Y-98440000D03*
%TO.P,U2,44*%
%TO.N,/CHAN1_B*%
X178590000Y-98440000D03*
%TO.P,U2,45*%
%TO.N,Net-(U2-Pad45)*%
X178090000Y-98440000D03*
%TO.P,U2,46*%
%TO.N,/SWDAT*%
X177590000Y-98440000D03*
%TO.P,U2,47*%
%TO.N,Net-(U2-Pad47)*%
X177090000Y-98440000D03*
%TO.P,U2,48*%
%TO.N,/CHAN1_W*%
X176590000Y-98440000D03*
D11*
%TO.P,U2,49*%
%TO.N,/SWCLK*%
X174640000Y-100390000D03*
%TO.P,U2,50*%
%TO.N,Net-(U2-Pad50)*%
X174640000Y-100890000D03*
%TO.P,U2,51*%
%TO.N,Net-(U2-Pad51)*%
X174640000Y-101390000D03*
%TO.P,U2,52*%
%TO.N,Net-(U2-Pad52)*%
X174640000Y-101890000D03*
%TO.P,U2,53*%
%TO.N,/CHAN0_G*%
X174640000Y-102390000D03*
%TO.P,U2,54*%
%TO.N,N/C*%
X174640000Y-102890000D03*
%TO.P,U2,55*%
%TO.N,/CHAN0_R*%
X174640000Y-103390000D03*
%TO.P,U2,56*%
%TO.N,Net-(U2-Pad56)*%
X174640000Y-103890000D03*
%TO.P,U2,57*%
%TO.N,/CHAN0_B*%
X174640000Y-104390000D03*
%TO.P,U2,58*%
%TO.N,Net-(U2-Pad58)*%
X174640000Y-104890000D03*
%TO.P,U2,59*%
%TO.N,/CHAN0_W*%
X174640000Y-105390000D03*
%TO.P,U2,60*%
%TO.N,GND*%
X174640000Y-105890000D03*
%TO.P,U2,61*%
%TO.N,Net-(U2-Pad61)*%
X174640000Y-106390000D03*
%TO.P,U2,62*%
%TO.N,Net-(U2-Pad62)*%
X174640000Y-106890000D03*
%TO.P,U2,63*%
%TO.N,GND*%
X174640000Y-107390000D03*
%TO.P,U2,64*%
%TO.N,+3V3*%
X174640000Y-107890000D03*
%TD*%
D12*
%TO.P,Q4,3*%
%TO.N,GND*%
X205550000Y-88191000D03*
%TO.P,Q4,1*%
%TO.N,/CHAN2_R*%
X200470000Y-88191000D03*
D13*
%TO.P,Q4,2*%
%TO.N,Net-(P3-Pad3)*%
X203010000Y-77978000D03*
%TD*%
D14*
%TO.P,P1,1*%
%TO.N,+3V3*%
X158178000Y-135978000D03*
%TO.P,P1,3*%
%TO.N,GND*%
X160718000Y-135978000D03*
%TO.P,P1,5*%
X163258000Y-135978000D03*
%TO.P,P1,7*%
%TO.N,Net-(P1-Pad7)*%
X165798000Y-135978000D03*
%TO.P,P1,8*%
%TO.N,Net-(P1-Pad8)*%
X165798000Y-129578000D03*
%TO.P,P1,6*%
%TO.N,Net-(P1-Pad6)*%
X163258000Y-129578000D03*
%TO.P,P1,4*%
%TO.N,/SWCLK*%
X160718000Y-129578000D03*
%TO.P,P1,2*%
%TO.N,/SWDAT*%
X158178000Y-129578000D03*
%TO.P,P1,9*%
%TO.N,GND*%
X168338000Y-135978000D03*
%TO.P,P1,10*%
%TO.N,Net-(P1-Pad10)*%
X168338000Y-129578000D03*
%TD*%
D15*
%TO.P,J2,9*%
%TO.N,GND*%
X145036000Y-157106000D03*
D16*
X145036000Y-157106000D03*
D17*
%TO.P,J2,8*%
X157236000Y-150126000D03*
%TO.P,J2,7*%
%TO.N,Net-(J1-Pad7)*%
X156216000Y-150126000D03*
%TO.P,J2,6*%
%TO.N,Net-(J1-Pad6)*%
X155196000Y-150126000D03*
%TO.P,J2,5*%
%TO.N,GND*%
X154176000Y-150126000D03*
%TO.P,J2,4*%
%TO.N,/1W-DATA*%
X153156000Y-150126000D03*
%TO.P,J2,3*%
%TO.N,GND*%
X152136000Y-150126000D03*
%TO.P,J2,2*%
%TO.N,+5V*%
X151116000Y-150126000D03*
%TO.P,J2,1*%
%TO.N,GND*%
X150096000Y-150126000D03*
D16*
%TO.P,J2,9*%
X162136000Y-157106000D03*
D15*
X162136000Y-157106000D03*
%TD*%
D18*
%TO.P,CON1,1*%
%TO.N,+48V*%
X139931140Y-83312000D03*
%TO.P,CON1,2*%
%TO.N,GND*%
X133931660Y-83312000D03*
%TO.P,CON1,3*%
X136931400Y-88011000D03*
%TD*%
D19*
%TO.P,C1,1*%
%TO.N,+5V*%
X186502000Y-130366000D03*
%TO.P,C1,2*%
%TO.N,GND*%
X180402000Y-130366000D03*
%TD*%
D20*
%TO.P,C2,1*%
%TO.N,+3V3*%
X183503000Y-115252000D03*
%TO.P,C2,2*%
%TO.N,GND*%
X182003000Y-115252000D03*
%TD*%
%TO.P,C3,1*%
%TO.N,+3V3*%
X183503000Y-113728000D03*
%TO.P,C3,2*%
%TO.N,GND*%
X182003000Y-113728000D03*
%TD*%
D21*
%TO.P,C4,1*%
%TO.N,+3V3*%
X190119000Y-99770000D03*
%TO.P,C4,2*%
%TO.N,GND*%
X190119000Y-101270000D03*
%TD*%
%TO.P,C5,1*%
%TO.N,+3V3*%
X171514000Y-108890000D03*
%TO.P,C5,2*%
%TO.N,GND*%
X171514000Y-107390000D03*
%TD*%
D15*
%TO.P,J1,9*%
%TO.N,GND*%
X165356000Y-157106000D03*
D16*
X165356000Y-157106000D03*
D17*
%TO.P,J1,8*%
X177556000Y-150126000D03*
%TO.P,J1,7*%
%TO.N,Net-(J1-Pad7)*%
X176536000Y-150126000D03*
%TO.P,J1,6*%
%TO.N,Net-(J1-Pad6)*%
X175516000Y-150126000D03*
%TO.P,J1,5*%
%TO.N,GND*%
X174496000Y-150126000D03*
%TO.P,J1,4*%
%TO.N,/1W-DATA*%
X173476000Y-150126000D03*
%TO.P,J1,3*%
%TO.N,GND*%
X172456000Y-150126000D03*
%TO.P,J1,2*%
%TO.N,+5V*%
X171436000Y-150126000D03*
%TO.P,J1,1*%
%TO.N,GND*%
X170416000Y-150126000D03*
D16*
%TO.P,J1,9*%
X182456000Y-157106000D03*
D15*
X182456000Y-157106000D03*
%TD*%
D22*
%TO.P,P3,1*%
%TO.N,Net-(P3-Pad1)*%
X190500000Y-68921000D03*
%TO.P,P3,2*%
%TO.N,Net-(P3-Pad2)*%
X195580000Y-68921000D03*
%TO.P,P3,3*%
%TO.N,Net-(P3-Pad3)*%
X200660000Y-68921000D03*
%TO.P,P3,4*%
%TO.N,Net-(P3-Pad4)*%
X205740000Y-68921000D03*
%TO.P,P3,5*%
%TO.N,+48V*%
X210820000Y-68961000D03*
%TD*%
%TO.P,P4,1*%
%TO.N,GND*%
X149352000Y-68921000D03*
%TO.P,P4,2*%
%TO.N,+48V*%
X154432000Y-68921000D03*
%TD*%
%TO.P,P5,1*%
%TO.N,Net-(P5-Pad1)*%
X163322000Y-68921000D03*
%TO.P,P5,2*%
%TO.N,Net-(P5-Pad2)*%
X168402000Y-68921000D03*
%TO.P,P5,3*%
%TO.N,Net-(P5-Pad3)*%
X173482000Y-68921000D03*
%TO.P,P5,4*%
%TO.N,Net-(P5-Pad4)*%
X178562000Y-68921000D03*
%TO.P,P5,5*%
%TO.N,+48V*%
X183642000Y-68961000D03*
%TD*%
D12*
%TO.P,Q1,3*%
%TO.N,GND*%
X194056000Y-88191000D03*
%TO.P,Q1,1*%
%TO.N,/CHAN2_W*%
X188976000Y-88191000D03*
D13*
%TO.P,Q1,2*%
%TO.N,Net-(P3-Pad1)*%
X191516000Y-77978000D03*
%TD*%
D12*
%TO.P,Q3,3*%
%TO.N,GND*%
X164338000Y-87873500D03*
%TO.P,Q3,1*%
%TO.N,/CHAN1_W*%
X159258000Y-87873500D03*
D13*
%TO.P,Q3,2*%
%TO.N,Net-(P5-Pad1)*%
X161798000Y-77660500D03*
%TD*%
D12*
%TO.P,Q7,3*%
%TO.N,GND*%
X175958000Y-87873500D03*
%TO.P,Q7,1*%
%TO.N,/CHAN1_R*%
X170878000Y-87873500D03*
D13*
%TO.P,Q7,2*%
%TO.N,Net-(P5-Pad3)*%
X173418000Y-77660500D03*
%TD*%
D22*
%TO.P,P2,1*%
%TO.N,Net-(P2-Pad1)*%
X222290000Y-93980000D03*
%TO.P,P2,2*%
%TO.N,Net-(P2-Pad2)*%
X222290000Y-99060000D03*
%TO.P,P2,3*%
%TO.N,Net-(P2-Pad3)*%
X222290000Y-104140000D03*
%TO.P,P2,4*%
%TO.N,Net-(P2-Pad4)*%
X222290000Y-109220000D03*
%TO.P,P2,5*%
%TO.N,+48V*%
X222250000Y-114300000D03*
%TD*%
D23*
%TO.P,P6,1*%
%TO.N,/1W-DATA*%
X211963000Y-144590000D03*
D24*
%TO.P,P6,2*%
%TO.N,+3V3*%
X211963000Y-142050000D03*
%TO.P,P6,3*%
%TO.N,/UART_TX*%
X211963000Y-139510000D03*
%TO.P,P6,4*%
%TO.N,/UART_RX*%
X211963000Y-136970000D03*
%TO.P,P6,5*%
%TO.N,GND*%
X211963000Y-134430000D03*
%TD*%
D22*
%TO.P,P7,1*%
%TO.N,Net-(P7-Pad1)*%
X135850000Y-114300000D03*
%TO.P,P7,2*%
%TO.N,Net-(P7-Pad2)*%
X135850000Y-109220000D03*
%TO.P,P7,3*%
%TO.N,Net-(P7-Pad3)*%
X135850000Y-104140000D03*
%TO.P,P7,4*%
%TO.N,Net-(P7-Pad4)*%
X135850000Y-99060000D03*
%TO.P,P7,5*%
%TO.N,+48V*%
X135890000Y-93980000D03*
%TD*%
D25*
%TO.P,Q9,3*%
%TO.N,GND*%
X203147000Y-101600000D03*
%TO.P,Q9,1*%
%TO.N,/CHAN3_W*%
X203147000Y-96520000D03*
D26*
%TO.P,Q9,2*%
%TO.N,Net-(P2-Pad1)*%
X213360000Y-99060000D03*
%TD*%
D25*
%TO.P,Q10,3*%
%TO.N,GND*%
X156707000Y-113284000D03*
%TO.P,Q10,1*%
%TO.N,/CHAN0_W*%
X156707000Y-118364000D03*
D26*
%TO.P,Q10,2*%
%TO.N,Net-(P7-Pad1)*%
X146494000Y-115824000D03*
%TD*%
D25*
%TO.P,Q13,3*%
%TO.N,GND*%
X203083000Y-112966000D03*
%TO.P,Q13,1*%
%TO.N,/CHAN3_R*%
X203083000Y-107886000D03*
D26*
%TO.P,Q13,2*%
%TO.N,Net-(P2-Pad3)*%
X213296000Y-110426000D03*
%TD*%
D25*
%TO.P,Q14,3*%
%TO.N,GND*%
X156707000Y-101410000D03*
%TO.P,Q14,1*%
%TO.N,/CHAN0_R*%
X156707000Y-106490000D03*
D26*
%TO.P,Q14,2*%
%TO.N,Net-(P7-Pad3)*%
X146494000Y-103950000D03*
%TD*%
D27*
%TO.P,R1,1*%
%TO.N,+3V3*%
X172696000Y-126492000D03*
%TO.P,R1,2*%
%TO.N,Net-(P1-Pad10)*%
X171196000Y-126492000D03*
%TD*%
D28*
%TO.P,U1,1*%
%TO.N,+5V*%
X192007000Y-130616000D03*
%TO.P,U1,3*%
%TO.N,+3V3*%
X192007000Y-135196000D03*
D29*
%TO.P,U1,2*%
%TO.N,GND*%
X199407000Y-132916000D03*
%TD*%
D30*
%TO.P,J3,3*%
%TO.N,GND*%
X189740000Y-158890000D03*
%TO.P,J3,1*%
%TO.N,+5V*%
X189740000Y-152190000D03*
%TO.P,J3,2*%
%TO.N,/MAINS_ENABLE*%
X189740000Y-155690000D03*
%TO.P,J3,3*%
%TO.N,GND*%
X196340000Y-158890000D03*
%TO.P,J3,2*%
%TO.N,/MAINS_ENABLE*%
X196340000Y-155690000D03*
%TO.P,J3,1*%
%TO.N,+5V*%
X196340000Y-152190000D03*
%TD*%
D31*
%TO.N,*%
X174561500Y-123571000D03*
X174244000Y-129794000D03*
X173926500Y-135953500D03*
X171958000Y-140906500D03*
X165544500Y-143192500D03*
X158940500Y-142430500D03*
%TO.N,GND*%
X212153500Y-154178000D03*
X207073500Y-157099000D03*
X202311000Y-154051000D03*
X199072500Y-147447000D03*
X207010000Y-150114000D03*
X216725500Y-148653500D03*
X224790000Y-147383500D03*
X223901000Y-140525500D03*
X224663000Y-131572000D03*
X225298000Y-124079000D03*
X216979500Y-124396500D03*
X209740500Y-124841000D03*
X215074500Y-129476500D03*
X216090500Y-134366000D03*
X213487000Y-90932000D03*
X219646500Y-89154000D03*
X216471500Y-83820000D03*
X208788000Y-84455000D03*
X199263000Y-83883500D03*
X186245500Y-83693000D03*
X171386500Y-83883500D03*
X156781500Y-84074000D03*
X169100500Y-97345500D03*
X162242500Y-94615000D03*
X156591000Y-91567000D03*
X154432000Y-86868000D03*
X152082500Y-78613000D03*
X146812000Y-82486500D03*
X147891500Y-88582500D03*
X152336500Y-92011500D03*
X132016500Y-87185500D03*
X132461000Y-94805500D03*
X132016500Y-103060500D03*
X132461000Y-112268000D03*
X133858000Y-119507000D03*
X134048500Y-126428500D03*
X133477000Y-134620000D03*
X133413500Y-141795500D03*
X132651500Y-148590000D03*
X140398500Y-148780500D03*
X141033500Y-145288000D03*
X140970000Y-141224000D03*
X141732000Y-135699500D03*
X142684500Y-129921000D03*
X142748000Y-123571000D03*
X148272500Y-124650000D03*
X148336000Y-128587500D03*
X148653500Y-135255000D03*
X148399500Y-139446000D03*
X153162000Y-138811000D03*
X152908000Y-132461000D03*
X152527000Y-126365000D03*
X153098500Y-121094500D03*
X152844000Y-116649500D03*
X152908000Y-112776000D03*
X154559000Y-111696000D03*
X153670000Y-100838000D03*
X165100000Y-85090000D03*
X177546000Y-84899500D03*
X193294000Y-85407500D03*
X205994000Y-88392000D03*
X204534000Y-111760000D03*
X204152000Y-102997000D03*
%TO.N,+3V3*%
X184213500Y-117094000D03*
X191326400Y-100064500D03*
%TO.N,Net-(J1-Pad7)*%
X170041100Y-148375600D03*
X176530000Y-147320000D03*
%TO.N,Net-(J1-Pad6)*%
X172449300Y-146848800D03*
X155038900Y-148273200D03*
%TO.N,/1W-DATA*%
X154193700Y-148546700D03*
X173623300Y-147933700D03*
X178400800Y-110905300D03*
%TO.N,Net-(P1-Pad10)*%
X167820900Y-126551600D03*
X177520100Y-112381000D03*
%TO.N,/MAINS_ENABLE*%
X180340000Y-112268000D03*
X181356000Y-146812000D03*
%TO.N,/SWCLK*%
X161116900Y-127053800D03*
X172351600Y-102027500D03*
%TO.N,/SWDAT*%
X161648400Y-126039800D03*
X175952200Y-105086800D03*
%TO.N,/CHAN2_G*%
X202861800Y-94435200D03*
%TO.N,/CHAN2_B*%
X194007700Y-94071500D03*
%TO.N,/CHAN1_G*%
X180590000Y-97397100D03*
%TO.N,/CHAN1_B*%
X178333400Y-97399700D03*
%TO.N,/CHAN3_G*%
X199013200Y-117785900D03*
%TO.N,/CHAN0_G*%
X158869300Y-97476000D03*
%TO.N,/CHAN3_B*%
X201770600Y-105405900D03*
%TO.N,/CHAN0_B*%
X159226600Y-108434300D03*
%TD*%
D32*
%TO.N,*%
X174561500Y-129476500D02*
X174561500Y-123571000D01*
X174244000Y-129794000D02*
X174561500Y-129476500D01*
X173926500Y-138938000D02*
X173926500Y-135953500D01*
X171958000Y-140906500D02*
X173926500Y-138938000D01*
X159702500Y-143192500D02*
X165544500Y-143192500D01*
X158940500Y-142430500D02*
X159702500Y-143192500D01*
D33*
%TO.N,+5V*%
X189740000Y-152190000D02*
X189740000Y-145036000D01*
X189740000Y-145036000D02*
X184543000Y-139839000D01*
X196340000Y-152190000D02*
X196340000Y-152144000D01*
X196340000Y-152144000D02*
X194564000Y-150368000D01*
X194564000Y-150368000D02*
X191562000Y-150368000D01*
X191562000Y-150368000D02*
X189740000Y-152190000D01*
X184543000Y-139199300D02*
X178485400Y-139199300D01*
X178485400Y-139199300D02*
X171436000Y-146248700D01*
D34*
X151116000Y-149179600D02*
X151116000Y-150126000D01*
X171436000Y-149179600D02*
X171436000Y-150126000D01*
D33*
X151116000Y-148727000D02*
X151116000Y-149179600D01*
X153594300Y-146248700D02*
X151116000Y-148727000D01*
X171436000Y-146248700D02*
X153594300Y-146248700D01*
X171436000Y-146248700D02*
X171436000Y-149179600D01*
X186502000Y-130366000D02*
X189202300Y-130366000D01*
X192007000Y-130616000D02*
X189452300Y-130616000D01*
X189452300Y-130616000D02*
X189202300Y-130366000D01*
X184543000Y-139839000D02*
X184543000Y-139199300D01*
X186502000Y-137240300D02*
X186502000Y-130366000D01*
X184543000Y-139199300D02*
X186502000Y-137240300D01*
%TO.N,GND*%
X189740000Y-158890000D02*
X184240000Y-158890000D01*
X184240000Y-158890000D02*
X182456000Y-157106000D01*
X191976900Y-159676600D02*
X191190300Y-158890000D01*
X194103100Y-159676600D02*
X191976900Y-159676600D01*
X194889700Y-158890000D02*
X194103100Y-159676600D01*
X189740000Y-158890000D02*
X191190300Y-158890000D01*
X195915000Y-158890000D02*
X194889700Y-158890000D01*
X195915000Y-158890000D02*
X196340000Y-158890000D01*
D32*
X182090000Y-109840000D02*
X182090000Y-108689600D01*
X182090000Y-108689600D02*
X182140000Y-108639600D01*
X209994500Y-154178000D02*
X212153500Y-154178000D01*
X207073500Y-157099000D02*
X209994500Y-154178000D01*
X202311000Y-150685500D02*
X202311000Y-154051000D01*
X199072500Y-147447000D02*
X202311000Y-150685500D01*
X215265000Y-150114000D02*
X207010000Y-150114000D01*
X216725500Y-148653500D02*
X215265000Y-150114000D01*
X224790000Y-141414500D02*
X224790000Y-147383500D01*
X223901000Y-140525500D02*
X224790000Y-141414500D01*
X224663000Y-124714000D02*
X224663000Y-131572000D01*
X225298000Y-124079000D02*
X224663000Y-124714000D01*
X210185000Y-124396500D02*
X216979500Y-124396500D01*
X209740500Y-124841000D02*
X210185000Y-124396500D01*
X215074500Y-133350000D02*
X215074500Y-129476500D01*
X216090500Y-134366000D02*
X215074500Y-133350000D01*
X217868500Y-90932000D02*
X213487000Y-90932000D01*
X219646500Y-89154000D02*
X217868500Y-90932000D01*
X209423000Y-83820000D02*
X216471500Y-83820000D01*
X208788000Y-84455000D02*
X209423000Y-83820000D01*
X186436000Y-83883500D02*
X199263000Y-83883500D01*
X186245500Y-83693000D02*
X186436000Y-83883500D01*
X156972000Y-83883500D02*
X171386500Y-83883500D01*
X156781500Y-84074000D02*
X156972000Y-83883500D01*
X164973000Y-97345500D02*
X169100500Y-97345500D01*
X162242500Y-94615000D02*
X164973000Y-97345500D01*
X156591000Y-89027000D02*
X156591000Y-91567000D01*
X154432000Y-86868000D02*
X156591000Y-89027000D01*
X150685500Y-78613000D02*
X152082500Y-78613000D01*
X146812000Y-82486500D02*
X150685500Y-78613000D01*
X148907500Y-88582500D02*
X147891500Y-88582500D01*
X152336500Y-92011500D02*
X148907500Y-88582500D01*
X154559000Y-111887000D02*
X153797000Y-111887000D01*
X132016500Y-94361000D02*
X132016500Y-87185500D01*
X132461000Y-94805500D02*
X132016500Y-94361000D01*
X132016500Y-111823500D02*
X132016500Y-103060500D01*
X132461000Y-112268000D02*
X132016500Y-111823500D01*
X133858000Y-126238000D02*
X133858000Y-119507000D01*
X134048500Y-126428500D02*
X133858000Y-126238000D01*
X133477000Y-141732000D02*
X133477000Y-134620000D01*
X133413500Y-141795500D02*
X133477000Y-141732000D01*
X140208000Y-148590000D02*
X132651500Y-148590000D01*
X140398500Y-148780500D02*
X140208000Y-148590000D01*
X141033500Y-141287500D02*
X141033500Y-145288000D01*
X140970000Y-141224000D02*
X141033500Y-141287500D01*
X141732000Y-130873500D02*
X141732000Y-135699500D01*
X142684500Y-129921000D02*
X141732000Y-130873500D01*
X147193500Y-123571000D02*
X142748000Y-123571000D01*
X148272500Y-124650000D02*
X147193500Y-123571000D01*
X148336000Y-134937500D02*
X148336000Y-128587500D01*
X148653500Y-135255000D02*
X148336000Y-134937500D01*
X152527000Y-139446000D02*
X148399500Y-139446000D01*
X153162000Y-138811000D02*
X152527000Y-139446000D01*
X152908000Y-126746000D02*
X152908000Y-132461000D01*
X152527000Y-126365000D02*
X152908000Y-126746000D01*
X153098500Y-116904000D02*
X153098500Y-121094500D01*
X152844000Y-116649500D02*
X153098500Y-116904000D01*
X153797000Y-111887000D02*
X152908000Y-112776000D01*
X176883000Y-105890000D02*
X178383000Y-107390000D01*
X174640000Y-105890000D02*
X176883000Y-105890000D01*
D35*
X150096000Y-150126000D02*
X150096000Y-151956000D01*
X152210000Y-152019000D02*
X152210000Y-151956000D01*
X152200000Y-152019000D02*
X152210000Y-152019000D01*
X152136000Y-151956000D02*
X152200000Y-152019000D01*
X154176000Y-151382000D02*
X154750000Y-151956000D01*
X154176000Y-150126000D02*
X154176000Y-151382000D01*
X157236000Y-151204000D02*
X157988000Y-151956000D01*
X157236000Y-150126000D02*
X157236000Y-151204000D01*
X165356000Y-152910000D02*
X164402000Y-151956000D01*
X165356000Y-157106000D02*
X165356000Y-152910000D01*
X162136000Y-152611000D02*
X161480000Y-151956000D01*
X162136000Y-157106000D02*
X162136000Y-152611000D01*
X165356000Y-157106000D02*
X162136000Y-157106000D01*
X170416000Y-151810000D02*
X170561000Y-151956000D01*
X170416000Y-150126000D02*
X170416000Y-151810000D01*
X172456000Y-151438000D02*
X172974000Y-151956000D01*
X172456000Y-150126000D02*
X172456000Y-151438000D01*
X177556000Y-151013000D02*
X178498000Y-151956000D01*
X177556000Y-150126000D02*
X177556000Y-151013000D01*
D36*
X154559000Y-111696000D02*
X154559000Y-111887000D01*
X154559000Y-111887000D02*
X154559000Y-111136000D01*
X165100000Y-85153500D02*
X164338000Y-85915500D01*
X165100000Y-85090000D02*
X165100000Y-85153500D01*
X177546000Y-84899500D02*
X177546000Y-83883500D01*
X193675000Y-85407500D02*
X194056000Y-85788500D01*
X193294000Y-85407500D02*
X193675000Y-85407500D01*
X205750000Y-88392000D02*
X205550000Y-88191000D01*
X205994000Y-88392000D02*
X205750000Y-88392000D01*
X204152000Y-102606000D02*
X203909000Y-102362000D01*
X204152000Y-102997000D02*
X204152000Y-102606000D01*
X152781000Y-85852000D02*
X152781000Y-101727000D01*
X154750000Y-83883500D02*
X152781000Y-85852000D01*
X175958000Y-85661500D02*
X174180000Y-83883500D01*
X175958000Y-87873500D02*
X175958000Y-85661500D01*
D32*
X174640000Y-107390000D02*
X171514000Y-107390000D01*
D36*
X152781000Y-109358000D02*
X154559000Y-111136000D01*
X152781000Y-101727000D02*
X152781000Y-109358000D01*
X153670000Y-101727000D02*
X152781000Y-101727000D01*
X153670000Y-100838000D02*
X153670000Y-101727000D01*
X153670000Y-101727000D02*
X152781000Y-101727000D01*
X207010000Y-89651500D02*
X207010000Y-102362000D01*
X205550000Y-88191000D02*
X207010000Y-89651500D01*
X177546000Y-83883500D02*
X174180000Y-83883500D01*
X174180000Y-83883500D02*
X162306000Y-83883500D01*
X162306000Y-83883500D02*
X154750000Y-83883500D01*
X154750000Y-83883500D02*
X154178000Y-83883500D01*
X203518000Y-83883500D02*
X195961000Y-83883500D01*
X205550000Y-85915500D02*
X203518000Y-83883500D01*
X205550000Y-88191000D02*
X205550000Y-85915500D01*
X195961000Y-83883500D02*
X177546000Y-83883500D01*
D32*
X182090000Y-113642000D02*
X182003000Y-113728000D01*
X182090000Y-109840000D02*
X182090000Y-113642000D01*
X182003000Y-113728000D02*
X182003000Y-115252000D01*
D36*
X194056000Y-88191000D02*
X194056000Y-85788500D01*
X194056000Y-85788500D02*
X195961000Y-83883500D01*
X164338000Y-87873500D02*
X164338000Y-85915500D01*
X164338000Y-85915500D02*
X162306000Y-83883500D01*
X203909000Y-102362000D02*
X207010000Y-102362000D01*
D35*
X174496000Y-150126000D02*
X174496000Y-151956000D01*
X174496000Y-151956000D02*
X174625000Y-151956000D01*
X172974000Y-151956000D02*
X174496000Y-151956000D01*
X170561000Y-151956000D02*
X172974000Y-151956000D01*
X161480000Y-151956000D02*
X164402000Y-151956000D01*
X164402000Y-151956000D02*
X170561000Y-151956000D01*
X174496000Y-151956000D02*
X174625000Y-151956000D01*
X174625000Y-151956000D02*
X178498000Y-151956000D01*
X157988000Y-151956000D02*
X161480000Y-151956000D01*
X154750000Y-151956000D02*
X157988000Y-151956000D01*
X146050000Y-151956000D02*
X150096000Y-151956000D01*
X145036000Y-152970000D02*
X146050000Y-151956000D01*
X145036000Y-157106000D02*
X145036000Y-152970000D01*
X150096000Y-151956000D02*
X152136000Y-151956000D01*
X152136000Y-151956000D02*
X152210000Y-151956000D01*
X152210000Y-151956000D02*
X154750000Y-151956000D01*
D32*
X182140000Y-103229000D02*
X182140000Y-107390000D01*
X184479000Y-100890000D02*
X182140000Y-103229000D01*
X186040000Y-100890000D02*
X184479000Y-100890000D01*
X182140000Y-107390000D02*
X182140000Y-107442000D01*
X182088000Y-107442000D02*
X182140000Y-107442000D01*
X182140000Y-107390000D02*
X182088000Y-107442000D01*
X174640000Y-107390000D02*
X178383000Y-107390000D01*
X178383000Y-107390000D02*
X182140000Y-107390000D01*
D35*
X182456000Y-153246000D02*
X182456000Y-155176000D01*
X181166000Y-151956000D02*
X182456000Y-153246000D01*
X178498000Y-151956000D02*
X181166000Y-151956000D01*
X182456000Y-155176000D02*
X182456000Y-157106000D01*
D36*
X133932000Y-85011300D02*
X133932000Y-83312000D01*
X136931000Y-88011000D02*
X133932000Y-85011300D01*
D35*
X152136000Y-150126000D02*
X152136000Y-151956000D01*
D33*
X136931400Y-88011000D02*
X136931000Y-88011000D01*
X156707000Y-101410000D02*
X156707500Y-101410500D01*
D36*
X156708000Y-101410000D02*
X156707500Y-101410500D01*
X156390000Y-101727000D02*
X153670000Y-101727000D01*
X156707500Y-101410500D02*
X156390000Y-101727000D01*
D33*
X203084000Y-112966000D02*
X204290000Y-111760000D01*
X203083000Y-112966000D02*
X203084000Y-112966000D01*
D36*
X207010000Y-109040000D02*
X204290000Y-111760000D01*
X207010000Y-102362000D02*
X207010000Y-109040000D01*
X204290000Y-111760000D02*
X204534000Y-111760000D01*
D33*
X156707000Y-113284000D02*
X156707500Y-113283500D01*
D36*
X154559000Y-111136000D02*
X156707500Y-113283500D01*
X156707500Y-113283500D02*
X156708000Y-113284000D01*
D32*
X189738000Y-100890000D02*
X190119000Y-101270000D01*
X186040000Y-100890000D02*
X189738000Y-100890000D01*
D36*
X203147000Y-101600000D02*
X203909000Y-102362000D01*
D33*
X133931700Y-83312000D02*
X133932000Y-83312000D01*
X160718000Y-135978000D02*
X160718000Y-137228100D01*
X160718000Y-137228100D02*
X160718000Y-138478300D01*
X163258000Y-135978000D02*
X163258000Y-138178200D01*
X163558100Y-138478300D02*
X168338000Y-138478300D01*
X163258000Y-138178200D02*
X163558100Y-138478300D01*
X168338000Y-135978000D02*
X168338000Y-138478300D01*
X161668100Y-138178200D02*
X163258000Y-138178200D01*
X160718000Y-137228100D02*
X161668100Y-138178200D01*
X169499400Y-132316300D02*
X168338000Y-133477700D01*
X180402000Y-132316300D02*
X169499400Y-132316300D01*
X180402000Y-130366000D02*
X180402000Y-132316300D01*
X168338000Y-135978000D02*
X168338000Y-133477700D01*
X149893600Y-149923600D02*
X150096000Y-150126000D01*
X149893600Y-147935500D02*
X149893600Y-149923600D01*
X159350800Y-138478300D02*
X149893600Y-147935500D01*
X160718000Y-138478300D02*
X159350800Y-138478300D01*
X205121300Y-134430000D02*
X203607300Y-132916000D01*
X211963000Y-134430000D02*
X205121300Y-134430000D01*
X199407000Y-132916000D02*
X201507200Y-132916000D01*
X201507200Y-132916000D02*
X203607300Y-132916000D01*
X184510000Y-108639600D02*
X182140000Y-108639600D01*
X201507200Y-132916000D02*
X201507200Y-125636800D01*
X201507200Y-125636800D02*
X184510000Y-108639600D01*
D32*
X182140000Y-107442000D02*
X182140000Y-108639600D01*
D33*
%TO.N,+3V3*%
X184721500Y-117602000D02*
X184721500Y-117545800D01*
X184241600Y-117122100D02*
X184721500Y-117602000D01*
X184241600Y-117065900D02*
X184241600Y-117122100D01*
X184213500Y-117094000D02*
X184241600Y-117065900D01*
D32*
X189500000Y-100390000D02*
X190119000Y-99770500D01*
X186040000Y-100390000D02*
X189500000Y-100390000D01*
X182590000Y-112190000D02*
X182590000Y-109840000D01*
X183503000Y-113104000D02*
X182590000Y-112190000D01*
X183503000Y-113728000D02*
X183503000Y-113104000D01*
D33*
X183503000Y-113728000D02*
X183503000Y-115252000D01*
X190119000Y-99770000D02*
X190119000Y-99770500D01*
X158178000Y-135978000D02*
X158178000Y-133477700D01*
D32*
X171514000Y-108866000D02*
X171514000Y-108878000D01*
X172489000Y-107890000D02*
X171514000Y-108866000D01*
X174640000Y-107890000D02*
X172489000Y-107890000D01*
X171514000Y-108878000D02*
X171514000Y-108890000D01*
D33*
X174244300Y-111608300D02*
X171514000Y-108878000D01*
X175454800Y-110397800D02*
X176032200Y-110397800D01*
X174244300Y-111608300D02*
X175454800Y-110397800D01*
D37*
X176299600Y-110665200D02*
X176590000Y-110665200D01*
X176032200Y-110397800D02*
X176299600Y-110665200D01*
X176590000Y-109840000D02*
X176590000Y-110665200D01*
D33*
X183503000Y-115252000D02*
X183503000Y-116327300D01*
X192007000Y-135196000D02*
X192007000Y-133495700D01*
X184721500Y-117545800D02*
X194457400Y-127281700D01*
X194457400Y-127281700D02*
X194457400Y-132001700D01*
X194457400Y-132001700D02*
X192963400Y-133495700D01*
X192963400Y-133495700D02*
X192007000Y-133495700D01*
X183503000Y-116327300D02*
X184721500Y-117545800D01*
X197160700Y-142050000D02*
X192007000Y-136896300D01*
X211963000Y-142050000D02*
X197160700Y-142050000D01*
X192007000Y-135196000D02*
X192007000Y-136896300D01*
X190413000Y-100064500D02*
X190119000Y-99770500D01*
X191326400Y-100064500D02*
X190413000Y-100064500D01*
X177439800Y-116327300D02*
X183503000Y-116327300D01*
X174244300Y-113131800D02*
X177439800Y-116327300D01*
X171161600Y-113131800D02*
X174244300Y-113131800D01*
X156842600Y-127450800D02*
X171161600Y-113131800D01*
X156842600Y-132142300D02*
X156842600Y-127450800D01*
X158178000Y-133477700D02*
X156842600Y-132142300D01*
X174244300Y-113131800D02*
X174244300Y-111608300D01*
X172696000Y-121071100D02*
X177439800Y-116327300D01*
X172696000Y-126492000D02*
X172696000Y-121071100D01*
D36*
%TO.N,+48V*%
X225679000Y-110871000D02*
X222250000Y-114300000D01*
X225679000Y-84010500D02*
X225679000Y-110871000D01*
X210820000Y-69151500D02*
X225679000Y-84010500D01*
X210820000Y-68961000D02*
X210820000Y-69151500D01*
X183642000Y-66738500D02*
X181991000Y-65087500D01*
X183642000Y-68961000D02*
X183642000Y-66738500D01*
X156972000Y-65087500D02*
X181991000Y-65087500D01*
X154432000Y-67627500D02*
X156972000Y-65087500D01*
X154432000Y-68921000D02*
X154432000Y-67627500D01*
X206946000Y-65087500D02*
X210820000Y-68961000D01*
X181991000Y-65087500D02*
X206946000Y-65087500D01*
X137732000Y-93980000D02*
X135890000Y-93980000D01*
X143002000Y-88709500D02*
X137732000Y-93980000D01*
X143002000Y-86423500D02*
X143002000Y-88709500D01*
X139931000Y-83352600D02*
X143002000Y-86423500D01*
X139931000Y-83312000D02*
X139931000Y-83352600D01*
X139931100Y-83311900D02*
X139931000Y-83312000D01*
X154322000Y-68921000D02*
X139931100Y-83311900D01*
X139931100Y-83311900D02*
X139931100Y-83312000D01*
D35*
%TO.N,Net-(J1-Pad7)*%
X176536000Y-147326000D02*
X176530000Y-147320000D01*
X176536000Y-150126000D02*
X176536000Y-147326000D01*
X156216000Y-150126000D02*
X156216000Y-148375600D01*
X156216000Y-147390000D02*
X156210000Y-147384000D01*
X156216000Y-148375600D02*
X156216000Y-147390000D01*
D33*
X156216000Y-148375600D02*
X170041100Y-148375600D01*
D32*
%TO.N,Net-(J1-Pad6)*%
X155038900Y-148593600D02*
X155196000Y-148750700D01*
X155038900Y-148273200D02*
X155038900Y-148593600D01*
X155196000Y-150126000D02*
X155196000Y-148750700D01*
X173614100Y-146848800D02*
X172449300Y-146848800D01*
X175516000Y-148750700D02*
X173614100Y-146848800D01*
X175516000Y-150126000D02*
X175516000Y-148750700D01*
%TO.N,/1W-DATA*%
X153989700Y-148750700D02*
X154193700Y-148546700D01*
X153156000Y-148750700D02*
X153989700Y-148750700D01*
X153156000Y-150126000D02*
X153156000Y-148750700D01*
X173476000Y-148081000D02*
X173623300Y-147933700D01*
X173476000Y-150126000D02*
X173476000Y-148081000D01*
X178590000Y-109840000D02*
X178590000Y-110665300D01*
X178590000Y-110716100D02*
X178400800Y-110905300D01*
X178590000Y-110665300D02*
X178590000Y-110716100D01*
%TO.N,Net-(P1-Pad10)*%
X168338000Y-127068700D02*
X167820900Y-126551600D01*
X168338000Y-129578000D02*
X168338000Y-127068700D01*
X177874300Y-112381000D02*
X179590000Y-110665300D01*
X177520100Y-112381000D02*
X177874300Y-112381000D01*
X179590000Y-109840000D02*
X179590000Y-110665300D01*
X167880500Y-126492000D02*
X167820900Y-126551600D01*
X171196000Y-126492000D02*
X167880500Y-126492000D01*
D36*
%TO.N,Net-(P2-Pad1)*%
X217210000Y-99060000D02*
X222290000Y-93980000D01*
X213360000Y-99060000D02*
X217210000Y-99060000D01*
%TO.N,Net-(P3-Pad1)*%
X190500000Y-76962000D02*
X191516000Y-77978000D01*
X190500000Y-68921000D02*
X190500000Y-76962000D01*
%TO.N,Net-(P3-Pad3)*%
X200660000Y-75628500D02*
X203010000Y-77978000D01*
X200660000Y-68921000D02*
X200660000Y-75628500D01*
X200660000Y-75628500D02*
X203010000Y-77978000D01*
%TO.N,Net-(P5-Pad1)*%
X163322000Y-76136500D02*
X161798000Y-77660500D01*
X163322000Y-68921000D02*
X163322000Y-76136500D01*
%TO.N,Net-(P5-Pad3)*%
X173482000Y-77597000D02*
X173418000Y-77660500D01*
X173482000Y-68921000D02*
X173482000Y-77597000D01*
%TO.N,Net-(P2-Pad3)*%
X215392000Y-110426000D02*
X213296000Y-110426000D01*
X221678000Y-104140000D02*
X215392000Y-110426000D01*
X222290000Y-104140000D02*
X221678000Y-104140000D01*
%TO.N,Net-(P7-Pad1)*%
X137374000Y-115824000D02*
X135850000Y-114300000D01*
X146494000Y-115824000D02*
X137374000Y-115824000D01*
%TO.N,Net-(P7-Pad3)*%
X136040000Y-103950000D02*
X135850000Y-104140000D01*
X146494000Y-103950000D02*
X136040000Y-103950000D01*
D32*
%TO.N,/MAINS_ENABLE*%
X189740000Y-155690000D02*
X189740000Y-155196000D01*
X189740000Y-155196000D02*
X181356000Y-146812000D01*
X181090000Y-111518000D02*
X181090000Y-109840000D01*
X180340000Y-112268000D02*
X181090000Y-111518000D01*
D33*
X196340000Y-155690000D02*
X189740000Y-155690000D01*
D32*
%TO.N,/SWCLK*%
X173814700Y-100564400D02*
X173814700Y-100390000D01*
X172351600Y-102027500D02*
X173814700Y-100564400D01*
X174640000Y-100390000D02*
X173814700Y-100390000D01*
X160718000Y-129578000D02*
X160718000Y-127452700D01*
X160718000Y-127452700D02*
X161116900Y-127053800D01*
%TO.N,/SWDAT*%
X159590900Y-126039800D02*
X161648400Y-126039800D01*
X158178000Y-127452700D02*
X159590900Y-126039800D01*
X177590000Y-103449000D02*
X177590000Y-98440000D01*
X175952200Y-105086800D02*
X177590000Y-103449000D01*
X158178000Y-129578000D02*
X158178000Y-127452700D01*
%TO.N,/UART_TX*%
X198537300Y-139510000D02*
X211963000Y-139510000D01*
X195300400Y-136273100D02*
X198537300Y-139510000D01*
X195300400Y-121875700D02*
X195300400Y-136273100D01*
X184090000Y-110665300D02*
X195300400Y-121875700D01*
X184090000Y-109840000D02*
X184090000Y-110665300D01*
%TO.N,/UART_RX*%
X212330400Y-135794700D02*
X211963000Y-135794700D01*
X213138300Y-134986800D02*
X212330400Y-135794700D01*
X213138300Y-133922800D02*
X213138300Y-134986800D01*
X187105500Y-107890000D02*
X213138300Y-133922800D01*
X186040000Y-107890000D02*
X187105500Y-107890000D01*
X211963000Y-136970000D02*
X211963000Y-135794700D01*
%TO.N,/CHAN2_R*%
X200470000Y-88191000D02*
X200470000Y-90416300D01*
X183590000Y-97474400D02*
X183590000Y-98440000D01*
X183974600Y-97089800D02*
X183590000Y-97474400D01*
X193796500Y-97089800D02*
X183974600Y-97089800D01*
X200470000Y-90416300D02*
X193796500Y-97089800D01*
%TO.N,/CHAN2_G*%
X184090000Y-98440000D02*
X184090000Y-97614700D01*
X199438800Y-94435200D02*
X202861800Y-94435200D01*
X196259300Y-97614700D02*
X199438800Y-94435200D01*
X184090000Y-97614700D02*
X196259300Y-97614700D01*
%TO.N,/CHAN1_R*%
X172074100Y-90098800D02*
X179590000Y-97614700D01*
X170878000Y-90098800D02*
X172074100Y-90098800D01*
X170878000Y-87873500D02*
X170878000Y-90098800D01*
X179590000Y-98440000D02*
X179590000Y-97614700D01*
%TO.N,/CHAN2_B*%
X182590000Y-98440000D02*
X182590000Y-97614700D01*
X186133200Y-94071500D02*
X194007700Y-94071500D01*
X182590000Y-97614700D02*
X186133200Y-94071500D01*
%TO.N,/CHAN1_G*%
X180590000Y-97397100D02*
X180590000Y-98440000D01*
%TO.N,/CHAN2_W*%
X181777600Y-97614700D02*
X181590000Y-97614700D01*
X188976000Y-90416300D02*
X181777600Y-97614700D01*
X188976000Y-88191000D02*
X188976000Y-90416300D01*
X181590000Y-98440000D02*
X181590000Y-97614700D01*
%TO.N,/CHAN1_B*%
X178548400Y-97614700D02*
X178333400Y-97399700D01*
X178590000Y-97614700D02*
X178548400Y-97614700D01*
X178590000Y-98440000D02*
X178590000Y-97614700D01*
%TO.N,/CHAN1_W*%
X159258000Y-87873500D02*
X159258000Y-90098800D01*
X176590000Y-98440000D02*
X176590000Y-97614700D01*
X169074100Y-90098800D02*
X176590000Y-97614700D01*
X159258000Y-90098800D02*
X169074100Y-90098800D01*
%TO.N,/CHAN3_R*%
X203083000Y-107886000D02*
X200857700Y-107886000D01*
X196861700Y-103890000D02*
X200857700Y-107886000D01*
X186040000Y-103890000D02*
X196861700Y-103890000D01*
%TO.N,/CHAN0_R*%
X162032300Y-103390000D02*
X174640000Y-103390000D01*
X158932300Y-106490000D02*
X162032300Y-103390000D01*
X156707000Y-106490000D02*
X158932300Y-106490000D01*
%TO.N,/CHAN3_G*%
X199013200Y-117037900D02*
X186865300Y-104890000D01*
X199013200Y-117785900D02*
X199013200Y-117037900D01*
X186040000Y-104890000D02*
X186865300Y-104890000D01*
%TO.N,/CHAN0_G*%
X172873500Y-102390000D02*
X174640000Y-102390000D01*
X172610700Y-102652800D02*
X172873500Y-102390000D01*
X164046100Y-102652800D02*
X172610700Y-102652800D01*
X158869300Y-97476000D02*
X164046100Y-102652800D01*
%TO.N,/CHAN3_B*%
X199254700Y-102890000D02*
X186865300Y-102890000D01*
X201770600Y-105405900D02*
X199254700Y-102890000D01*
X186040000Y-102890000D02*
X186865300Y-102890000D01*
%TO.N,/CHAN0_B*%
X163270900Y-104390000D02*
X159226600Y-108434300D01*
X174640000Y-104390000D02*
X163270900Y-104390000D01*
%TO.N,/CHAN3_W*%
X188141800Y-101890000D02*
X186040000Y-101890000D01*
X188268600Y-102016800D02*
X188141800Y-101890000D01*
X195424900Y-102016800D02*
X188268600Y-102016800D01*
X200921700Y-96520000D02*
X195424900Y-102016800D01*
X203147000Y-96520000D02*
X200921700Y-96520000D01*
%TO.N,/CHAN0_W*%
X171906300Y-105390000D02*
X174640000Y-105390000D01*
X158932300Y-118364000D02*
X171906300Y-105390000D01*
X156707000Y-118364000D02*
X158932300Y-118364000D01*
%TD*%
D38*
%TO.N,GND*%
G36*
X228906001Y-159818000D02*
X197703589Y-159818000D01*
X197725000Y-159766310D01*
X197725000Y-159175750D01*
X197566250Y-159017000D01*
X196467000Y-159017000D01*
X196467000Y-159037000D01*
X196213000Y-159037000D01*
X196213000Y-159017000D01*
X195113750Y-159017000D01*
X194955000Y-159175750D01*
X194955000Y-159766310D01*
X194976411Y-159818000D01*
X191103589Y-159818000D01*
X191125000Y-159766310D01*
X191125000Y-159175750D01*
X190966250Y-159017000D01*
X189867000Y-159017000D01*
X189867000Y-159037000D01*
X189613000Y-159037000D01*
X189613000Y-159017000D01*
X188513750Y-159017000D01*
X188355000Y-159175750D01*
X188355000Y-159766310D01*
X188376411Y-159818000D01*
X181431000Y-159818000D01*
X181431000Y-159679410D01*
X181579691Y-159741000D01*
X182170250Y-159741000D01*
X182329000Y-159582250D01*
X182329000Y-158203766D01*
X182583000Y-158184480D01*
X182583000Y-159582250D01*
X182741750Y-159741000D01*
X183332309Y-159741000D01*
X183565698Y-159644327D01*
X183744327Y-159465699D01*
X183841000Y-159232310D01*
X183841000Y-158013690D01*
X188355000Y-158013690D01*
X188355000Y-158604250D01*
X188513750Y-158763000D01*
X189613000Y-158763000D01*
X189613000Y-157663750D01*
X189867000Y-157663750D01*
X189867000Y-158763000D01*
X190966250Y-158763000D01*
X191125000Y-158604250D01*
X191125000Y-158013690D01*
X191028327Y-157780301D01*
X190849698Y-157601673D01*
X190616309Y-157505000D01*
X190025750Y-157505000D01*
X189867000Y-157663750D01*
X189613000Y-157663750D01*
X189454250Y-157505000D01*
X188863691Y-157505000D01*
X188630302Y-157601673D01*
X188451673Y-157780301D01*
X188355000Y-158013690D01*
X183841000Y-158013690D01*
X183841000Y-157391750D01*
X183682250Y-157233000D01*
X183553766Y-157233000D01*
X183534480Y-156979000D01*
X183682250Y-156979000D01*
X183841000Y-156820250D01*
X183841000Y-154979690D01*
X183744327Y-154746301D01*
X183565698Y-154567673D01*
X183332309Y-154471000D01*
X182741750Y-154471000D01*
X182583000Y-154629750D01*
X182583000Y-156008234D01*
X182329000Y-156027520D01*
X182329000Y-154629750D01*
X182170250Y-154471000D01*
X181579691Y-154471000D01*
X181431000Y-154532590D01*
X181431000Y-152469926D01*
X181444909Y-152400000D01*
X181389805Y-152122972D01*
X181232881Y-151888119D01*
X180998028Y-151731195D01*
X180851483Y-151702045D01*
X181289698Y-151263830D01*
X181531000Y-150681276D01*
X181531000Y-150050724D01*
X181289698Y-149468170D01*
X180843830Y-149022302D01*
X180261276Y-148781000D01*
X179630724Y-148781000D01*
X179048170Y-149022302D01*
X178602302Y-149468170D01*
X178491000Y-149736877D01*
X178491000Y-148949690D01*
X178394327Y-148716301D01*
X178215698Y-148537673D01*
X177982309Y-148441000D01*
X177841750Y-148441000D01*
X177683002Y-148599748D01*
X177683002Y-148441000D01*
X177571000Y-148441000D01*
X177571000Y-147427934D01*
X177591276Y-147325999D01*
X177526172Y-146998700D01*
X177510948Y-146922163D01*
X177282193Y-146579807D01*
X177195773Y-146522063D01*
X177189776Y-146516066D01*
X176933836Y-146345052D01*
X176530000Y-146264724D01*
X176126164Y-146345052D01*
X175783808Y-146573808D01*
X175555052Y-146916164D01*
X175474724Y-147320000D01*
X175501001Y-147452103D01*
X175501001Y-147660899D01*
X174204431Y-146364330D01*
X174162029Y-146300871D01*
X173910637Y-146132896D01*
X173688952Y-146088800D01*
X173688947Y-146088800D01*
X173614100Y-146073912D01*
X173539253Y-146088800D01*
X173201031Y-146088800D01*
X178955532Y-140334300D01*
X183508897Y-140334300D01*
X183724711Y-140657289D01*
X183819482Y-140720613D01*
X188605001Y-145506133D01*
X188605000Y-150933541D01*
X188532191Y-150982191D01*
X188391843Y-151192235D01*
X188342560Y-151440000D01*
X188342560Y-152723758D01*
X182291000Y-146672199D01*
X182291000Y-146626017D01*
X182148655Y-146282365D01*
X181885635Y-146019345D01*
X181541983Y-145877000D01*
X181170017Y-145877000D01*
X180826365Y-146019345D01*
X180563345Y-146282365D01*
X180421000Y-146626017D01*
X180421000Y-146997983D01*
X180563345Y-147341635D01*
X180826365Y-147604655D01*
X181170017Y-147747000D01*
X181216199Y-147747000D01*
X188353616Y-154884418D01*
X188342560Y-154940000D01*
X188342560Y-156440000D01*
X188391843Y-156687765D01*
X188532191Y-156897809D01*
X188742235Y-157038157D01*
X188990000Y-157087440D01*
X190490000Y-157087440D01*
X190737765Y-157038157D01*
X190947809Y-156897809D01*
X190996459Y-156825000D01*
X192716222Y-156825000D01*
X192255460Y-157015853D01*
X191865853Y-157405460D01*
X191655000Y-157914506D01*
X191655000Y-158465494D01*
X191865853Y-158974540D01*
X192255460Y-159364147D01*
X192764506Y-159575000D01*
X193315494Y-159575000D01*
X193824540Y-159364147D01*
X194214147Y-158974540D01*
X194425000Y-158465494D01*
X194425000Y-158013690D01*
X194955000Y-158013690D01*
X194955000Y-158604250D01*
X195113750Y-158763000D01*
X196213000Y-158763000D01*
X196213000Y-157663750D01*
X196467000Y-157663750D01*
X196467000Y-158763000D01*
X197566250Y-158763000D01*
X197725000Y-158604250D01*
X197725000Y-158013690D01*
X197628327Y-157780301D01*
X197449698Y-157601673D01*
X197216309Y-157505000D01*
X196625750Y-157505000D01*
X196467000Y-157663750D01*
X196213000Y-157663750D01*
X196054250Y-157505000D01*
X195463691Y-157505000D01*
X195230302Y-157601673D01*
X195051673Y-157780301D01*
X194955000Y-158013690D01*
X194425000Y-158013690D01*
X194425000Y-157914506D01*
X194214147Y-157405460D01*
X193824540Y-157015853D01*
X193363778Y-156825000D01*
X195083541Y-156825000D01*
X195132191Y-156897809D01*
X195342235Y-157038157D01*
X195590000Y-157087440D01*
X197090000Y-157087440D01*
X197337765Y-157038157D01*
X197547809Y-156897809D01*
X197688157Y-156687765D01*
X197737440Y-156440000D01*
X197737440Y-154940000D01*
X197688157Y-154692235D01*
X197547809Y-154482191D01*
X197337765Y-154341843D01*
X197090000Y-154292560D01*
X195590000Y-154292560D01*
X195342235Y-154341843D01*
X195132191Y-154482191D01*
X195083541Y-154555000D01*
X190996459Y-154555000D01*
X190947809Y-154482191D01*
X190737765Y-154341843D01*
X190490000Y-154292560D01*
X189911362Y-154292560D01*
X189206242Y-153587440D01*
X190490000Y-153587440D01*
X190737765Y-153538157D01*
X190947809Y-153397809D01*
X191088157Y-153187765D01*
X191137440Y-152940000D01*
X191137440Y-152397691D01*
X191679306Y-151855825D01*
X191655000Y-151914506D01*
X191655000Y-152465494D01*
X191865853Y-152974540D01*
X192255460Y-153364147D01*
X192764506Y-153575000D01*
X193315494Y-153575000D01*
X193824540Y-153364147D01*
X194214147Y-152974540D01*
X194425000Y-152465494D01*
X194425000Y-151914506D01*
X194368167Y-151777298D01*
X194942560Y-152351692D01*
X194942560Y-152940000D01*
X194991843Y-153187765D01*
X195132191Y-153397809D01*
X195342235Y-153538157D01*
X195590000Y-153587440D01*
X197090000Y-153587440D01*
X197337765Y-153538157D01*
X197547809Y-153397809D01*
X197688157Y-153187765D01*
X197737440Y-152940000D01*
X197737440Y-151440000D01*
X197688157Y-151192235D01*
X197547809Y-150982191D01*
X197337765Y-150841843D01*
X197090000Y-150792560D01*
X196593692Y-150792560D01*
X195445613Y-149644482D01*
X195382289Y-149549711D01*
X195006855Y-149298854D01*
X194675783Y-149233000D01*
X194564000Y-149210765D01*
X194452217Y-149233000D01*
X191673782Y-149233000D01*
X191561999Y-149210765D01*
X191156709Y-149291382D01*
X191119145Y-149298854D01*
X190875000Y-149461986D01*
X190875000Y-145147783D01*
X190897235Y-145036000D01*
X190809146Y-144593145D01*
X190558289Y-144217711D01*
X190463521Y-144154389D01*
X185828281Y-139519150D01*
X187225521Y-138121911D01*
X187320289Y-138058589D01*
X187571146Y-137683155D01*
X187637000Y-137352083D01*
X187637000Y-137352082D01*
X187659235Y-137240301D01*
X187637000Y-137128519D01*
X187637000Y-132263440D01*
X188502000Y-132263440D01*
X188749765Y-132214157D01*
X188959809Y-132073809D01*
X189100157Y-131863765D01*
X189130881Y-131709301D01*
X189340517Y-131751000D01*
X189452299Y-131773235D01*
X189564081Y-131751000D01*
X189636413Y-131751000D01*
X189658843Y-131863765D01*
X189799191Y-132073809D01*
X190009235Y-132214157D01*
X190257000Y-132263440D01*
X192590529Y-132263440D01*
X192493269Y-132360700D01*
X192118783Y-132360700D01*
X192007000Y-132338465D01*
X191895217Y-132360700D01*
X191564145Y-132426554D01*
X191188711Y-132677411D01*
X190937854Y-133052845D01*
X190849765Y-133495700D01*
X190860279Y-133548560D01*
X190257000Y-133548560D01*
X190009235Y-133597843D01*
X189799191Y-133738191D01*
X189658843Y-133948235D01*
X189609560Y-134196000D01*
X189609560Y-136196000D01*
X189658843Y-136443765D01*
X189799191Y-136653809D01*
X190009235Y-136794157D01*
X190257000Y-136843440D01*
X190860279Y-136843440D01*
X190849765Y-136896300D01*
X190937854Y-137339154D01*
X190946493Y-137352083D01*
X191188712Y-137714589D01*
X191283480Y-137777911D01*
X196279089Y-142773521D01*
X196342411Y-142868289D01*
X196717845Y-143119146D01*
X197048917Y-143185000D01*
X197160699Y-143207235D01*
X197272481Y-143185000D01*
X210800646Y-143185000D01*
X210655191Y-143282191D01*
X210514843Y-143492235D01*
X210465560Y-143740000D01*
X210465560Y-145440000D01*
X210514843Y-145687765D01*
X210655191Y-145897809D01*
X210865235Y-146038157D01*
X211113000Y-146087440D01*
X212813000Y-146087440D01*
X213060765Y-146038157D01*
X213270809Y-145897809D01*
X213411157Y-145687765D01*
X213460440Y-145440000D01*
X213460440Y-143740000D01*
X213411157Y-143492235D01*
X213270809Y-143282191D01*
X213060765Y-143141843D01*
X213015381Y-143132816D01*
X213033625Y-143120625D01*
X213361839Y-142629418D01*
X213477092Y-142050000D01*
X213361839Y-141470582D01*
X213033625Y-140979375D01*
X212735239Y-140780000D01*
X213033625Y-140580625D01*
X213361839Y-140089418D01*
X213477092Y-139510000D01*
X213361839Y-138930582D01*
X213033625Y-138439375D01*
X212735239Y-138240000D01*
X213033625Y-138040625D01*
X213361839Y-137549418D01*
X213477092Y-136970000D01*
X213361839Y-136390582D01*
X213140531Y-136059371D01*
X213622773Y-135577129D01*
X213686229Y-135534729D01*
X213854204Y-135283337D01*
X213898300Y-135061652D01*
X213898300Y-135061648D01*
X213913188Y-134986801D01*
X213898300Y-134911954D01*
X213898300Y-133997648D01*
X213913188Y-133922800D01*
X213898300Y-133847952D01*
X213898300Y-133847948D01*
X213861527Y-133663076D01*
X213854204Y-133626262D01*
X213728629Y-133438327D01*
X213686229Y-133374871D01*
X213622773Y-133332471D01*
X199011201Y-118720900D01*
X199199183Y-118720900D01*
X199542835Y-118578555D01*
X199805855Y-118315535D01*
X199948200Y-117971883D01*
X199948200Y-117599917D01*
X199805855Y-117256265D01*
X199773200Y-117223610D01*
X199773200Y-117112747D01*
X199788088Y-117037900D01*
X199773200Y-116963053D01*
X199773200Y-116963048D01*
X199729104Y-116741363D01*
X199561129Y-116489971D01*
X199497673Y-116447571D01*
X196301852Y-113251750D01*
X200548000Y-113251750D01*
X200548000Y-113692309D01*
X200644673Y-113925698D01*
X200823301Y-114104327D01*
X201056690Y-114201000D01*
X202797250Y-114201000D01*
X202956000Y-114042250D01*
X202956000Y-113093000D01*
X203210000Y-113093000D01*
X203210000Y-114042250D01*
X203368750Y-114201000D01*
X205109310Y-114201000D01*
X205342699Y-114104327D01*
X205521327Y-113925698D01*
X205618000Y-113692309D01*
X205618000Y-113251750D01*
X205459250Y-113093000D01*
X203210000Y-113093000D01*
X202956000Y-113093000D01*
X200706750Y-113093000D01*
X200548000Y-113251750D01*
X196301852Y-113251750D01*
X195289793Y-112239691D01*
X200548000Y-112239691D01*
X200548000Y-112680250D01*
X200706750Y-112839000D01*
X202956000Y-112839000D01*
X202956000Y-111889750D01*
X203210000Y-111889750D01*
X203210000Y-112839000D01*
X205459250Y-112839000D01*
X205618000Y-112680250D01*
X205618000Y-112239691D01*
X205521327Y-112006302D01*
X205342699Y-111827673D01*
X205109310Y-111731000D01*
X203368750Y-111731000D01*
X203210000Y-111889750D01*
X202956000Y-111889750D01*
X202797250Y-111731000D01*
X201056690Y-111731000D01*
X200823301Y-111827673D01*
X200644673Y-112006302D01*
X200548000Y-112239691D01*
X195289793Y-112239691D01*
X187700101Y-104650000D01*
X196546899Y-104650000D01*
X200267373Y-108370476D01*
X200309771Y-108433929D01*
X200373224Y-108476327D01*
X200373226Y-108476329D01*
X200498602Y-108560102D01*
X200558224Y-108599940D01*
X200584843Y-108733765D01*
X200725191Y-108943809D01*
X200935235Y-109084157D01*
X201183000Y-109133440D01*
X204983000Y-109133440D01*
X205230765Y-109084157D01*
X205440809Y-108943809D01*
X205581157Y-108733765D01*
X205630440Y-108486000D01*
X205630440Y-107286000D01*
X205581157Y-107038235D01*
X205440809Y-106828191D01*
X205230765Y-106687843D01*
X204983000Y-106638560D01*
X201183000Y-106638560D01*
X200935235Y-106687843D01*
X200814811Y-106768308D01*
X197696501Y-103650000D01*
X198939899Y-103650000D01*
X200835600Y-105545702D01*
X200835600Y-105591883D01*
X200977945Y-105935535D01*
X201240965Y-106198555D01*
X201584617Y-106340900D01*
X201956583Y-106340900D01*
X202300235Y-106198555D01*
X202563255Y-105935535D01*
X202705600Y-105591883D01*
X202705600Y-105219917D01*
X202563255Y-104876265D01*
X202300235Y-104613245D01*
X201956583Y-104470900D01*
X201910402Y-104470900D01*
X199845031Y-102405530D01*
X199802629Y-102342071D01*
X199551237Y-102174096D01*
X199329552Y-102130000D01*
X199329547Y-102130000D01*
X199254700Y-102115112D01*
X199179853Y-102130000D01*
X196386501Y-102130000D01*
X196630751Y-101885750D01*
X200612000Y-101885750D01*
X200612000Y-102326309D01*
X200708673Y-102559698D01*
X200887301Y-102738327D01*
X201120690Y-102835000D01*
X202861250Y-102835000D01*
X203020000Y-102676250D01*
X203020000Y-101727000D01*
X203274000Y-101727000D01*
X203274000Y-102676250D01*
X203432750Y-102835000D01*
X205173310Y-102835000D01*
X205406699Y-102738327D01*
X205585327Y-102559698D01*
X205682000Y-102326309D01*
X205682000Y-101885750D01*
X205523250Y-101727000D01*
X203274000Y-101727000D01*
X203020000Y-101727000D01*
X200770750Y-101727000D01*
X200612000Y-101885750D01*
X196630751Y-101885750D01*
X197642810Y-100873691D01*
X200612000Y-100873691D01*
X200612000Y-101314250D01*
X200770750Y-101473000D01*
X203020000Y-101473000D01*
X203020000Y-100523750D01*
X203274000Y-100523750D01*
X203274000Y-101473000D01*
X205523250Y-101473000D01*
X205682000Y-101314250D01*
X205682000Y-100873691D01*
X205585327Y-100640302D01*
X205406699Y-100461673D01*
X205173310Y-100365000D01*
X203432750Y-100365000D01*
X203274000Y-100523750D01*
X203020000Y-100523750D01*
X202861250Y-100365000D01*
X201120690Y-100365000D01*
X200887301Y-100461673D01*
X200708673Y-100640302D01*
X200612000Y-100873691D01*
X197642810Y-100873691D01*
X200878811Y-97637691D01*
X200999235Y-97718157D01*
X201247000Y-97767440D01*
X205047000Y-97767440D01*
X205294765Y-97718157D01*
X205504809Y-97577809D01*
X205645157Y-97367765D01*
X205694440Y-97120000D01*
X205694440Y-95920000D01*
X205645157Y-95672235D01*
X205504809Y-95462191D01*
X205294765Y-95321843D01*
X205047000Y-95272560D01*
X203283507Y-95272560D01*
X203391435Y-95227855D01*
X203654455Y-94964835D01*
X203796800Y-94621183D01*
X203796800Y-94249217D01*
X203654455Y-93905565D01*
X203391435Y-93642545D01*
X203047783Y-93500200D01*
X202675817Y-93500200D01*
X202332165Y-93642545D01*
X202299510Y-93675200D01*
X199513646Y-93675200D01*
X199438799Y-93660312D01*
X199363952Y-93675200D01*
X199363948Y-93675200D01*
X199142263Y-93719296D01*
X198890871Y-93887271D01*
X198848471Y-93950727D01*
X195944499Y-96854700D01*
X195106401Y-96854700D01*
X200954473Y-91006629D01*
X201017929Y-90964229D01*
X201183940Y-90715776D01*
X201317765Y-90689157D01*
X201527809Y-90548809D01*
X201668157Y-90338765D01*
X201717440Y-90091000D01*
X201717440Y-88476750D01*
X204315000Y-88476750D01*
X204315000Y-90217310D01*
X204411673Y-90450699D01*
X204590302Y-90629327D01*
X204823691Y-90726000D01*
X205264250Y-90726000D01*
X205423000Y-90567250D01*
X205423000Y-88318000D01*
X205677000Y-88318000D01*
X205677000Y-90567250D01*
X205835750Y-90726000D01*
X206276309Y-90726000D01*
X206509698Y-90629327D01*
X206688327Y-90450699D01*
X206785000Y-90217310D01*
X206785000Y-88476750D01*
X206626250Y-88318000D01*
X205677000Y-88318000D01*
X205423000Y-88318000D01*
X204473750Y-88318000D01*
X204315000Y-88476750D01*
X201717440Y-88476750D01*
X201717440Y-86291000D01*
X201692316Y-86164690D01*
X204315000Y-86164690D01*
X204315000Y-87905250D01*
X204473750Y-88064000D01*
X205423000Y-88064000D01*
X205423000Y-85814750D01*
X205677000Y-85814750D01*
X205677000Y-88064000D01*
X206626250Y-88064000D01*
X206785000Y-87905250D01*
X206785000Y-86164690D01*
X206688327Y-85931301D01*
X206509698Y-85752673D01*
X206276309Y-85656000D01*
X205835750Y-85656000D01*
X205677000Y-85814750D01*
X205423000Y-85814750D01*
X205264250Y-85656000D01*
X204823691Y-85656000D01*
X204590302Y-85752673D01*
X204411673Y-85931301D01*
X204315000Y-86164690D01*
X201692316Y-86164690D01*
X201668157Y-86043235D01*
X201527809Y-85833191D01*
X201317765Y-85692843D01*
X201070000Y-85643560D01*
X199870000Y-85643560D01*
X199622235Y-85692843D01*
X199412191Y-85833191D01*
X199271843Y-86043235D01*
X199222560Y-86291000D01*
X199222560Y-90091000D01*
X199271843Y-90338765D01*
X199352309Y-90459189D01*
X193481699Y-96329800D01*
X184949702Y-96329800D01*
X186448003Y-94831500D01*
X193445410Y-94831500D01*
X193478065Y-94864155D01*
X193821717Y-95006500D01*
X194193683Y-95006500D01*
X194537335Y-94864155D01*
X194800355Y-94601135D01*
X194942700Y-94257483D01*
X194942700Y-93885517D01*
X194800355Y-93541865D01*
X194537335Y-93278845D01*
X194193683Y-93136500D01*
X193821717Y-93136500D01*
X193478065Y-93278845D01*
X193445410Y-93311500D01*
X187155602Y-93311500D01*
X189460473Y-91006629D01*
X189523929Y-90964229D01*
X189689940Y-90715776D01*
X189823765Y-90689157D01*
X190033809Y-90548809D01*
X190174157Y-90338765D01*
X190223440Y-90091000D01*
X190223440Y-88476750D01*
X192821000Y-88476750D01*
X192821000Y-90217310D01*
X192917673Y-90450699D01*
X193096302Y-90629327D01*
X193329691Y-90726000D01*
X193770250Y-90726000D01*
X193929000Y-90567250D01*
X193929000Y-88318000D01*
X194183000Y-88318000D01*
X194183000Y-90567250D01*
X194341750Y-90726000D01*
X194782309Y-90726000D01*
X195015698Y-90629327D01*
X195194327Y-90450699D01*
X195291000Y-90217310D01*
X195291000Y-88476750D01*
X195132250Y-88318000D01*
X194183000Y-88318000D01*
X193929000Y-88318000D01*
X192979750Y-88318000D01*
X192821000Y-88476750D01*
X190223440Y-88476750D01*
X190223440Y-86291000D01*
X190198316Y-86164690D01*
X192821000Y-86164690D01*
X192821000Y-87905250D01*
X192979750Y-88064000D01*
X193929000Y-88064000D01*
X193929000Y-85814750D01*
X194183000Y-85814750D01*
X194183000Y-88064000D01*
X195132250Y-88064000D01*
X195291000Y-87905250D01*
X195291000Y-86164690D01*
X195194327Y-85931301D01*
X195015698Y-85752673D01*
X194782309Y-85656000D01*
X194341750Y-85656000D01*
X194183000Y-85814750D01*
X193929000Y-85814750D01*
X193770250Y-85656000D01*
X193329691Y-85656000D01*
X193096302Y-85752673D01*
X192917673Y-85931301D01*
X192821000Y-86164690D01*
X190198316Y-86164690D01*
X190174157Y-86043235D01*
X190033809Y-85833191D01*
X189823765Y-85692843D01*
X189576000Y-85643560D01*
X188376000Y-85643560D01*
X188128235Y-85692843D01*
X187918191Y-85833191D01*
X187777843Y-86043235D01*
X187728560Y-86291000D01*
X187728560Y-90091000D01*
X187777843Y-90338765D01*
X187858309Y-90459189D01*
X181449801Y-96867698D01*
X181387855Y-96880020D01*
X181382655Y-96867465D01*
X181119635Y-96604445D01*
X180775983Y-96462100D01*
X180404017Y-96462100D01*
X180060365Y-96604445D01*
X179857456Y-96807354D01*
X172664431Y-89614330D01*
X172622029Y-89550871D01*
X172370637Y-89382896D01*
X172148952Y-89338800D01*
X172148947Y-89338800D01*
X172125440Y-89334124D01*
X172125440Y-88159250D01*
X174723000Y-88159250D01*
X174723000Y-89899810D01*
X174819673Y-90133199D01*
X174998302Y-90311827D01*
X175231691Y-90408500D01*
X175672250Y-90408500D01*
X175831000Y-90249750D01*
X175831000Y-88000500D01*
X176085000Y-88000500D01*
X176085000Y-90249750D01*
X176243750Y-90408500D01*
X176684309Y-90408500D01*
X176917698Y-90311827D01*
X177096327Y-90133199D01*
X177193000Y-89899810D01*
X177193000Y-88159250D01*
X177034250Y-88000500D01*
X176085000Y-88000500D01*
X175831000Y-88000500D01*
X174881750Y-88000500D01*
X174723000Y-88159250D01*
X172125440Y-88159250D01*
X172125440Y-85973500D01*
X172100316Y-85847190D01*
X174723000Y-85847190D01*
X174723000Y-87587750D01*
X174881750Y-87746500D01*
X175831000Y-87746500D01*
X175831000Y-85497250D01*
X176085000Y-85497250D01*
X176085000Y-87746500D01*
X177034250Y-87746500D01*
X177193000Y-87587750D01*
X177193000Y-85847190D01*
X177096327Y-85613801D01*
X176917698Y-85435173D01*
X176684309Y-85338500D01*
X176243750Y-85338500D01*
X176085000Y-85497250D01*
X175831000Y-85497250D01*
X175672250Y-85338500D01*
X175231691Y-85338500D01*
X174998302Y-85435173D01*
X174819673Y-85613801D01*
X174723000Y-85847190D01*
X172100316Y-85847190D01*
X172076157Y-85725735D01*
X171935809Y-85515691D01*
X171725765Y-85375343D01*
X171478000Y-85326060D01*
X170278000Y-85326060D01*
X170030235Y-85375343D01*
X169820191Y-85515691D01*
X169679843Y-85725735D01*
X169630560Y-85973500D01*
X169630560Y-89563639D01*
X169622029Y-89550871D01*
X169370637Y-89382896D01*
X169148952Y-89338800D01*
X169148947Y-89338800D01*
X169074100Y-89323912D01*
X168999253Y-89338800D01*
X165573000Y-89338800D01*
X165573000Y-88159250D01*
X165414250Y-88000500D01*
X164465000Y-88000500D01*
X164465000Y-88020500D01*
X164211000Y-88020500D01*
X164211000Y-88000500D01*
X163261750Y-88000500D01*
X163103000Y-88159250D01*
X163103000Y-89338800D01*
X160505440Y-89338800D01*
X160505440Y-85973500D01*
X160480316Y-85847190D01*
X163103000Y-85847190D01*
X163103000Y-87587750D01*
X163261750Y-87746500D01*
X164211000Y-87746500D01*
X164211000Y-85497250D01*
X164465000Y-85497250D01*
X164465000Y-87746500D01*
X165414250Y-87746500D01*
X165573000Y-87587750D01*
X165573000Y-85847190D01*
X165476327Y-85613801D01*
X165297698Y-85435173D01*
X165064309Y-85338500D01*
X164623750Y-85338500D01*
X164465000Y-85497250D01*
X164211000Y-85497250D01*
X164052250Y-85338500D01*
X163611691Y-85338500D01*
X163378302Y-85435173D01*
X163199673Y-85613801D01*
X163103000Y-85847190D01*
X160480316Y-85847190D01*
X160456157Y-85725735D01*
X160315809Y-85515691D01*
X160105765Y-85375343D01*
X159858000Y-85326060D01*
X158658000Y-85326060D01*
X158410235Y-85375343D01*
X158200191Y-85515691D01*
X158059843Y-85725735D01*
X158010560Y-85973500D01*
X158010560Y-89773500D01*
X158059843Y-90021265D01*
X158200191Y-90231309D01*
X158410235Y-90371657D01*
X158544060Y-90398276D01*
X158710071Y-90646729D01*
X158961463Y-90814704D01*
X159183148Y-90858800D01*
X159258000Y-90873689D01*
X159332852Y-90858800D01*
X168759299Y-90858800D01*
X175821366Y-97920868D01*
X175817560Y-97940000D01*
X175817560Y-98940000D01*
X175866843Y-99187765D01*
X176007191Y-99397809D01*
X176217235Y-99538157D01*
X176465000Y-99587440D01*
X176715000Y-99587440D01*
X176830001Y-99564565D01*
X176830000Y-103134198D01*
X175812399Y-104151800D01*
X175766217Y-104151800D01*
X175765022Y-104152295D01*
X175762576Y-104140000D01*
X175787440Y-104015000D01*
X175787440Y-103765000D01*
X175762576Y-103640000D01*
X175787440Y-103515000D01*
X175787440Y-103265000D01*
X175762576Y-103140000D01*
X175787440Y-103015000D01*
X175787440Y-102765000D01*
X175762576Y-102640000D01*
X175787440Y-102515000D01*
X175787440Y-102265000D01*
X175762576Y-102140000D01*
X175787440Y-102015000D01*
X175787440Y-101765000D01*
X175762576Y-101640000D01*
X175787440Y-101515000D01*
X175787440Y-101265000D01*
X175762576Y-101140000D01*
X175787440Y-101015000D01*
X175787440Y-100765000D01*
X175762576Y-100640000D01*
X175787440Y-100515000D01*
X175787440Y-100265000D01*
X175738157Y-100017235D01*
X175597809Y-99807191D01*
X175387765Y-99666843D01*
X175140000Y-99617560D01*
X174140000Y-99617560D01*
X174077459Y-99630000D01*
X173889552Y-99630000D01*
X173814700Y-99615111D01*
X173739848Y-99630000D01*
X173518163Y-99674096D01*
X173266771Y-99842071D01*
X173098796Y-100093463D01*
X173070976Y-100233322D01*
X172211799Y-101092500D01*
X172165617Y-101092500D01*
X171821965Y-101234845D01*
X171558945Y-101497865D01*
X171416600Y-101841517D01*
X171416600Y-101892800D01*
X164360902Y-101892800D01*
X159804300Y-97336199D01*
X159804300Y-97290017D01*
X159661955Y-96946365D01*
X159398935Y-96683345D01*
X159055283Y-96541000D01*
X158683317Y-96541000D01*
X158339665Y-96683345D01*
X158076645Y-96946365D01*
X157934300Y-97290017D01*
X157934300Y-97661983D01*
X158076645Y-98005635D01*
X158339665Y-98268655D01*
X158683317Y-98411000D01*
X158729499Y-98411000D01*
X162948498Y-102630000D01*
X162107146Y-102630000D01*
X162032299Y-102615112D01*
X161957452Y-102630000D01*
X161957448Y-102630000D01*
X161735763Y-102674096D01*
X161484371Y-102842071D01*
X161441971Y-102905527D01*
X158975190Y-105372309D01*
X158854765Y-105291843D01*
X158607000Y-105242560D01*
X154807000Y-105242560D01*
X154559235Y-105291843D01*
X154349191Y-105432191D01*
X154208843Y-105642235D01*
X154159560Y-105890000D01*
X154159560Y-107090000D01*
X154208843Y-107337765D01*
X154349191Y-107547809D01*
X154559235Y-107688157D01*
X154807000Y-107737440D01*
X158601170Y-107737440D01*
X158433945Y-107904665D01*
X158291600Y-108248317D01*
X158291600Y-108620283D01*
X158433945Y-108963935D01*
X158696965Y-109226955D01*
X159040617Y-109369300D01*
X159412583Y-109369300D01*
X159756235Y-109226955D01*
X160019255Y-108963935D01*
X160161600Y-108620283D01*
X160161600Y-108574101D01*
X163585702Y-105150000D01*
X171071498Y-105150000D01*
X158975190Y-117246309D01*
X158854765Y-117165843D01*
X158607000Y-117116560D01*
X154807000Y-117116560D01*
X154559235Y-117165843D01*
X154349191Y-117306191D01*
X154208843Y-117516235D01*
X154159560Y-117764000D01*
X154159560Y-118964000D01*
X154208843Y-119211765D01*
X154349191Y-119421809D01*
X154559235Y-119562157D01*
X154807000Y-119611440D01*
X158607000Y-119611440D01*
X158854765Y-119562157D01*
X159064809Y-119421809D01*
X159205157Y-119211765D01*
X159231776Y-119077940D01*
X159480229Y-118911929D01*
X159522631Y-118848470D01*
X170504000Y-107867102D01*
X170504000Y-107916309D01*
X170600673Y-108149698D01*
X170601873Y-108150898D01*
X170540843Y-108242235D01*
X170526893Y-108312366D01*
X170444854Y-108435146D01*
X170356765Y-108878000D01*
X170444854Y-109320854D01*
X170520096Y-109433461D01*
X170540843Y-109537765D01*
X170681191Y-109747809D01*
X170891235Y-109888157D01*
X170925926Y-109895057D01*
X173027668Y-111996800D01*
X171273383Y-111996800D01*
X171161600Y-111974565D01*
X171002047Y-112006302D01*
X170718745Y-112062654D01*
X170343311Y-112313511D01*
X170279989Y-112408279D01*
X156119080Y-126569189D01*
X156024312Y-126632511D01*
X155867086Y-126867817D01*
X155773454Y-127007946D01*
X155685365Y-127450800D01*
X155707601Y-127562588D01*
X155707600Y-132030517D01*
X155685365Y-132142300D01*
X155738326Y-132408554D01*
X155773454Y-132585154D01*
X156024311Y-132960589D01*
X156119082Y-133023913D01*
X156977111Y-133881943D01*
X156944843Y-133930235D01*
X156895560Y-134178000D01*
X156895560Y-137778000D01*
X156944843Y-138025765D01*
X157085191Y-138235809D01*
X157295235Y-138376157D01*
X157543000Y-138425440D01*
X158813000Y-138425440D01*
X159060765Y-138376157D01*
X159270809Y-138235809D01*
X159411157Y-138025765D01*
X159448000Y-137840541D01*
X159448000Y-137904310D01*
X159544673Y-138137699D01*
X159723302Y-138316327D01*
X159956691Y-138413000D01*
X160432250Y-138413000D01*
X160591000Y-138254250D01*
X160591000Y-136105000D01*
X160845000Y-136105000D01*
X160845000Y-138254250D01*
X161003750Y-138413000D01*
X161479309Y-138413000D01*
X161712698Y-138316327D01*
X161891327Y-138137699D01*
X161988000Y-137904310D01*
X162084673Y-138137699D01*
X162263302Y-138316327D01*
X162496691Y-138413000D01*
X162972250Y-138413000D01*
X163131000Y-138254250D01*
X163131000Y-136105000D01*
X162146750Y-136105000D01*
X161988000Y-136263750D01*
X161829250Y-136105000D01*
X160845000Y-136105000D01*
X160591000Y-136105000D01*
X160571000Y-136105000D01*
X160571000Y-135851000D01*
X160591000Y-135851000D01*
X160591000Y-133701750D01*
X160845000Y-133701750D01*
X160845000Y-135851000D01*
X161829250Y-135851000D01*
X161988000Y-135692250D01*
X162146750Y-135851000D01*
X163131000Y-135851000D01*
X163131000Y-133701750D01*
X163385000Y-133701750D01*
X163385000Y-135851000D01*
X163405000Y-135851000D01*
X163405000Y-136105000D01*
X163385000Y-136105000D01*
X163385000Y-138254250D01*
X163543750Y-138413000D01*
X164019309Y-138413000D01*
X164252698Y-138316327D01*
X164431327Y-138137699D01*
X164528000Y-137904310D01*
X164528000Y-137840541D01*
X164564843Y-138025765D01*
X164705191Y-138235809D01*
X164915235Y-138376157D01*
X165163000Y-138425440D01*
X166433000Y-138425440D01*
X166680765Y-138376157D01*
X166890809Y-138235809D01*
X167031157Y-138025765D01*
X167068000Y-137840541D01*
X167068000Y-137904310D01*
X167164673Y-138137699D01*
X167343302Y-138316327D01*
X167576691Y-138413000D01*
X168052250Y-138413000D01*
X168211000Y-138254250D01*
X168211000Y-136105000D01*
X168465000Y-136105000D01*
X168465000Y-138254250D01*
X168623750Y-138413000D01*
X169099309Y-138413000D01*
X169332698Y-138316327D01*
X169511327Y-138137699D01*
X169608000Y-137904310D01*
X169608000Y-136263750D01*
X169449250Y-136105000D01*
X168465000Y-136105000D01*
X168211000Y-136105000D01*
X168191000Y-136105000D01*
X168191000Y-135851000D01*
X168211000Y-135851000D01*
X168211000Y-133701750D01*
X168465000Y-133701750D01*
X168465000Y-135851000D01*
X169449250Y-135851000D01*
X169608000Y-135692250D01*
X169608000Y-134051690D01*
X169511327Y-133818301D01*
X169332698Y-133639673D01*
X169099309Y-133543000D01*
X168623750Y-133543000D01*
X168465000Y-133701750D01*
X168211000Y-133701750D01*
X168052250Y-133543000D01*
X167576691Y-133543000D01*
X167343302Y-133639673D01*
X167164673Y-133818301D01*
X167068000Y-134051690D01*
X167068000Y-134115459D01*
X167031157Y-133930235D01*
X166890809Y-133720191D01*
X166680765Y-133579843D01*
X166433000Y-133530560D01*
X165163000Y-133530560D01*
X164915235Y-133579843D01*
X164705191Y-133720191D01*
X164564843Y-133930235D01*
X164528000Y-134115459D01*
X164528000Y-134051690D01*
X164431327Y-133818301D01*
X164252698Y-133639673D01*
X164019309Y-133543000D01*
X163543750Y-133543000D01*
X163385000Y-133701750D01*
X163131000Y-133701750D01*
X162972250Y-133543000D01*
X162496691Y-133543000D01*
X162263302Y-133639673D01*
X162084673Y-133818301D01*
X161988000Y-134051690D01*
X161891327Y-133818301D01*
X161712698Y-133639673D01*
X161479309Y-133543000D01*
X161003750Y-133543000D01*
X160845000Y-133701750D01*
X160591000Y-133701750D01*
X160432250Y-133543000D01*
X159956691Y-133543000D01*
X159723302Y-133639673D01*
X159544673Y-133818301D01*
X159448000Y-134051690D01*
X159448000Y-134115459D01*
X159411157Y-133930235D01*
X159313000Y-133783334D01*
X159313000Y-133589483D01*
X159335235Y-133477700D01*
X159247146Y-133034845D01*
X158996289Y-132659411D01*
X158901521Y-132596089D01*
X158330872Y-132025440D01*
X158813000Y-132025440D01*
X159060765Y-131976157D01*
X159270809Y-131835809D01*
X159411157Y-131625765D01*
X159448000Y-131440541D01*
X159484843Y-131625765D01*
X159625191Y-131835809D01*
X159835235Y-131976157D01*
X160083000Y-132025440D01*
X161353000Y-132025440D01*
X161600765Y-131976157D01*
X161810809Y-131835809D01*
X161951157Y-131625765D01*
X161988000Y-131440541D01*
X162024843Y-131625765D01*
X162165191Y-131835809D01*
X162375235Y-131976157D01*
X162623000Y-132025440D01*
X163893000Y-132025440D01*
X164140765Y-131976157D01*
X164350809Y-131835809D01*
X164491157Y-131625765D01*
X164528000Y-131440541D01*
X164564843Y-131625765D01*
X164705191Y-131835809D01*
X164915235Y-131976157D01*
X165163000Y-132025440D01*
X166433000Y-132025440D01*
X166680765Y-131976157D01*
X166890809Y-131835809D01*
X167031157Y-131625765D01*
X167068000Y-131440541D01*
X167104843Y-131625765D01*
X167245191Y-131835809D01*
X167455235Y-131976157D01*
X167703000Y-132025440D01*
X168973000Y-132025440D01*
X169220765Y-131976157D01*
X169430809Y-131835809D01*
X169571157Y-131625765D01*
X169620440Y-131378000D01*
X169620440Y-127778000D01*
X169571157Y-127530235D01*
X169430809Y-127320191D01*
X169328755Y-127252000D01*
X170389427Y-127252000D01*
X170488191Y-127399809D01*
X170698235Y-127540157D01*
X170946000Y-127589440D01*
X171446000Y-127589440D01*
X171693765Y-127540157D01*
X171903809Y-127399809D01*
X171937107Y-127349976D01*
X171969240Y-127371446D01*
X171988191Y-127399809D01*
X172198235Y-127540157D01*
X172231693Y-127546812D01*
X172253145Y-127561146D01*
X172696000Y-127649235D01*
X173138854Y-127561146D01*
X173160306Y-127546812D01*
X173193765Y-127540157D01*
X173403809Y-127399809D01*
X173422761Y-127371446D01*
X173514289Y-127310289D01*
X173765146Y-126934855D01*
X173801500Y-126752088D01*
X173801500Y-128965253D01*
X173714365Y-129001345D01*
X173451345Y-129264365D01*
X173309000Y-129608017D01*
X173309000Y-129979983D01*
X173451345Y-130323635D01*
X173714365Y-130586655D01*
X174058017Y-130729000D01*
X174429983Y-130729000D01*
X174616481Y-130651750D01*
X177767000Y-130651750D01*
X177767000Y-131742310D01*
X177863673Y-131975699D01*
X178042302Y-132154327D01*
X178275691Y-132251000D01*
X180116250Y-132251000D01*
X180275000Y-132092250D01*
X180275000Y-130493000D01*
X180529000Y-130493000D01*
X180529000Y-132092250D01*
X180687750Y-132251000D01*
X182528309Y-132251000D01*
X182761698Y-132154327D01*
X182940327Y-131975699D01*
X183037000Y-131742310D01*
X183037000Y-130651750D01*
X182878250Y-130493000D01*
X180529000Y-130493000D01*
X180275000Y-130493000D01*
X177925750Y-130493000D01*
X177767000Y-130651750D01*
X174616481Y-130651750D01*
X174773635Y-130586655D01*
X175036655Y-130323635D01*
X175179000Y-129979983D01*
X175179000Y-129920309D01*
X175214766Y-129866782D01*
X175277404Y-129773038D01*
X175301310Y-129652852D01*
X175321500Y-129551352D01*
X175321500Y-129551348D01*
X175336388Y-129476500D01*
X175321500Y-129401652D01*
X175321500Y-128989690D01*
X177767000Y-128989690D01*
X177767000Y-130080250D01*
X177925750Y-130239000D01*
X180275000Y-130239000D01*
X180275000Y-128639750D01*
X180529000Y-128639750D01*
X180529000Y-130239000D01*
X182878250Y-130239000D01*
X183037000Y-130080250D01*
X183037000Y-128989690D01*
X182940327Y-128756301D01*
X182761698Y-128577673D01*
X182528309Y-128481000D01*
X180687750Y-128481000D01*
X180529000Y-128639750D01*
X180275000Y-128639750D01*
X180116250Y-128481000D01*
X178275691Y-128481000D01*
X178042302Y-128577673D01*
X177863673Y-128756301D01*
X177767000Y-128989690D01*
X175321500Y-128989690D01*
X175321500Y-124133290D01*
X175354155Y-124100635D01*
X175496500Y-123756983D01*
X175496500Y-123385017D01*
X175354155Y-123041365D01*
X175091135Y-122778345D01*
X174747483Y-122636000D01*
X174375517Y-122636000D01*
X174031865Y-122778345D01*
X173831000Y-122979210D01*
X173831000Y-121541231D01*
X177909932Y-117462300D01*
X183032869Y-117462300D01*
X183218723Y-117648154D01*
X183395212Y-117912288D01*
X183412054Y-117923541D01*
X183423311Y-117940389D01*
X183518081Y-118003712D01*
X183839888Y-118325519D01*
X183903211Y-118420289D01*
X184167350Y-118596781D01*
X193322400Y-127751832D01*
X193322400Y-128968560D01*
X190257000Y-128968560D01*
X190009235Y-129017843D01*
X189799191Y-129158191D01*
X189687592Y-129325209D01*
X189645155Y-129296854D01*
X189314083Y-129231000D01*
X189202300Y-129208765D01*
X189149440Y-129219279D01*
X189149440Y-129116000D01*
X189100157Y-128868235D01*
X188959809Y-128658191D01*
X188749765Y-128517843D01*
X188502000Y-128468560D01*
X184502000Y-128468560D01*
X184254235Y-128517843D01*
X184044191Y-128658191D01*
X183903843Y-128868235D01*
X183854560Y-129116000D01*
X183854560Y-131616000D01*
X183903843Y-131863765D01*
X184044191Y-132073809D01*
X184254235Y-132214157D01*
X184502000Y-132263440D01*
X185367001Y-132263440D01*
X185367000Y-136770168D01*
X184072869Y-138064300D01*
X178597182Y-138064300D01*
X178485399Y-138042065D01*
X178042545Y-138130154D01*
X177667111Y-138381011D01*
X177603789Y-138475779D01*
X170965869Y-145113700D01*
X153706081Y-145113700D01*
X153594299Y-145091465D01*
X153482517Y-145113700D01*
X153151445Y-145179554D01*
X152776011Y-145430411D01*
X152712691Y-145525176D01*
X150392482Y-147845387D01*
X150297711Y-147908711D01*
X150104182Y-148198349D01*
X150046854Y-148284146D01*
X150015654Y-148441000D01*
X149968998Y-148441000D01*
X149968998Y-148599748D01*
X149810250Y-148441000D01*
X149669691Y-148441000D01*
X149436302Y-148537673D01*
X149257673Y-148716301D01*
X149161000Y-148949690D01*
X149161000Y-149840250D01*
X149319748Y-149998998D01*
X149199574Y-149998998D01*
X148979698Y-149468170D01*
X148533830Y-149022302D01*
X147951276Y-148781000D01*
X147320724Y-148781000D01*
X146738170Y-149022302D01*
X146292302Y-149468170D01*
X146051000Y-150050724D01*
X146051000Y-150681276D01*
X146292302Y-151263830D01*
X146738170Y-151709698D01*
X146769112Y-151722515D01*
X146725472Y-151731195D01*
X146490619Y-151888119D01*
X146333695Y-152122972D01*
X146278591Y-152400000D01*
X146292501Y-152469931D01*
X146292501Y-154714475D01*
X146145698Y-154567673D01*
X145912309Y-154471000D01*
X145321750Y-154471000D01*
X145163000Y-154629750D01*
X145163000Y-156008234D01*
X144909000Y-156027520D01*
X144909000Y-154629750D01*
X144750250Y-154471000D01*
X144159691Y-154471000D01*
X143926302Y-154567673D01*
X143747673Y-154746301D01*
X143651000Y-154979690D01*
X143651000Y-156820250D01*
X143809750Y-156979000D01*
X143938234Y-156979000D01*
X143957520Y-157233000D01*
X143809750Y-157233000D01*
X143651000Y-157391750D01*
X143651000Y-159232310D01*
X143747673Y-159465699D01*
X143926302Y-159644327D01*
X144159691Y-159741000D01*
X144750250Y-159741000D01*
X144909000Y-159582250D01*
X144909000Y-158203766D01*
X145163000Y-158184480D01*
X145163000Y-159582250D01*
X145321750Y-159741000D01*
X145912309Y-159741000D01*
X146145698Y-159644327D01*
X146292500Y-159497526D01*
X146292500Y-159818000D01*
X130504000Y-159818000D01*
X130504000Y-142244517D01*
X158005500Y-142244517D01*
X158005500Y-142616483D01*
X158147845Y-142960135D01*
X158410865Y-143223155D01*
X158754517Y-143365500D01*
X158800698Y-143365500D01*
X159112171Y-143676973D01*
X159154571Y-143740429D01*
X159218027Y-143782829D01*
X159405962Y-143908404D01*
X159454105Y-143917980D01*
X159627648Y-143952500D01*
X159627652Y-143952500D01*
X159702500Y-143967388D01*
X159777348Y-143952500D01*
X164982210Y-143952500D01*
X165014865Y-143985155D01*
X165358517Y-144127500D01*
X165730483Y-144127500D01*
X166074135Y-143985155D01*
X166337155Y-143722135D01*
X166479500Y-143378483D01*
X166479500Y-143006517D01*
X166337155Y-142662865D01*
X166074135Y-142399845D01*
X165730483Y-142257500D01*
X165358517Y-142257500D01*
X165014865Y-142399845D01*
X164982210Y-142432500D01*
X160017302Y-142432500D01*
X159875500Y-142290698D01*
X159875500Y-142244517D01*
X159733155Y-141900865D01*
X159470135Y-141637845D01*
X159126483Y-141495500D01*
X158754517Y-141495500D01*
X158410865Y-141637845D01*
X158147845Y-141900865D01*
X158005500Y-142244517D01*
X130504000Y-142244517D01*
X130504000Y-140720517D01*
X171023000Y-140720517D01*
X171023000Y-141092483D01*
X171165345Y-141436135D01*
X171428365Y-141699155D01*
X171772017Y-141841500D01*
X172143983Y-141841500D01*
X172487635Y-141699155D01*
X172750655Y-141436135D01*
X172893000Y-141092483D01*
X172893000Y-141046301D01*
X174410976Y-139528327D01*
X174474429Y-139485929D01*
X174516827Y-139422476D01*
X174516829Y-139422474D01*
X174642403Y-139234538D01*
X174642404Y-139234537D01*
X174686500Y-139012852D01*
X174686500Y-139012848D01*
X174701388Y-138938001D01*
X174686500Y-138863154D01*
X174686500Y-136515790D01*
X174719155Y-136483135D01*
X174861500Y-136139483D01*
X174861500Y-135767517D01*
X174719155Y-135423865D01*
X174456135Y-135160845D01*
X174112483Y-135018500D01*
X173740517Y-135018500D01*
X173396865Y-135160845D01*
X173133845Y-135423865D01*
X172991500Y-135767517D01*
X172991500Y-136139483D01*
X173133845Y-136483135D01*
X173166501Y-136515791D01*
X173166500Y-138623197D01*
X171818199Y-139971500D01*
X171772017Y-139971500D01*
X171428365Y-140113845D01*
X171165345Y-140376865D01*
X171023000Y-140720517D01*
X130504000Y-140720517D01*
X130504000Y-114300000D01*
X133673174Y-114300000D01*
X133838874Y-115133035D01*
X134191638Y-115660983D01*
X135715638Y-117184983D01*
X135834751Y-117363249D01*
X136540964Y-117835126D01*
X137163721Y-117959000D01*
X137163726Y-117959000D01*
X137373999Y-118000826D01*
X137584273Y-117959000D01*
X141656560Y-117959000D01*
X141656560Y-121069000D01*
X141705843Y-121316765D01*
X141846191Y-121526809D01*
X142056235Y-121667157D01*
X142304000Y-121716440D01*
X150684000Y-121716440D01*
X150931765Y-121667157D01*
X151141809Y-121526809D01*
X151282157Y-121316765D01*
X151331440Y-121069000D01*
X151331440Y-113569750D01*
X154172000Y-113569750D01*
X154172000Y-114010309D01*
X154268673Y-114243698D01*
X154447301Y-114422327D01*
X154680690Y-114519000D01*
X156421250Y-114519000D01*
X156580000Y-114360250D01*
X156580000Y-113411000D01*
X156834000Y-113411000D01*
X156834000Y-114360250D01*
X156992750Y-114519000D01*
X158733310Y-114519000D01*
X158966699Y-114422327D01*
X159145327Y-114243698D01*
X159242000Y-114010309D01*
X159242000Y-113569750D01*
X159083250Y-113411000D01*
X156834000Y-113411000D01*
X156580000Y-113411000D01*
X154330750Y-113411000D01*
X154172000Y-113569750D01*
X151331440Y-113569750D01*
X151331440Y-112557691D01*
X154172000Y-112557691D01*
X154172000Y-112998250D01*
X154330750Y-113157000D01*
X156580000Y-113157000D01*
X156580000Y-112207750D01*
X156834000Y-112207750D01*
X156834000Y-113157000D01*
X159083250Y-113157000D01*
X159242000Y-112998250D01*
X159242000Y-112557691D01*
X159145327Y-112324302D01*
X158966699Y-112145673D01*
X158733310Y-112049000D01*
X156992750Y-112049000D01*
X156834000Y-112207750D01*
X156580000Y-112207750D01*
X156421250Y-112049000D01*
X154680690Y-112049000D01*
X154447301Y-112145673D01*
X154268673Y-112324302D01*
X154172000Y-112557691D01*
X151331440Y-112557691D01*
X151331440Y-110579000D01*
X151282157Y-110331235D01*
X151141809Y-110121191D01*
X150931765Y-109980843D01*
X150684000Y-109931560D01*
X142304000Y-109931560D01*
X142056235Y-109980843D01*
X141846191Y-110121191D01*
X141705843Y-110331235D01*
X141656560Y-110579000D01*
X141656560Y-113689000D01*
X138258346Y-113689000D01*
X137210983Y-112641638D01*
X136683035Y-112288874D01*
X135850000Y-112123174D01*
X135016965Y-112288874D01*
X134310751Y-112760751D01*
X133838874Y-113466965D01*
X133673174Y-114300000D01*
X130504000Y-114300000D01*
X130504000Y-108845050D01*
X133965000Y-108845050D01*
X133965000Y-109594950D01*
X134251974Y-110287767D01*
X134782233Y-110818026D01*
X135475050Y-111105000D01*
X136224950Y-111105000D01*
X136917767Y-110818026D01*
X137448026Y-110287767D01*
X137735000Y-109594950D01*
X137735000Y-108845050D01*
X137448026Y-108152233D01*
X136917767Y-107621974D01*
X136224950Y-107335000D01*
X135475050Y-107335000D01*
X134782233Y-107621974D01*
X134251974Y-108152233D01*
X133965000Y-108845050D01*
X130504000Y-108845050D01*
X130504000Y-104140000D01*
X133673174Y-104140000D01*
X133838874Y-104973035D01*
X134310751Y-105679249D01*
X135016965Y-106151126D01*
X135850000Y-106316826D01*
X136683035Y-106151126D01*
X136781999Y-106085000D01*
X141656560Y-106085000D01*
X141656560Y-109195000D01*
X141705843Y-109442765D01*
X141846191Y-109652809D01*
X142056235Y-109793157D01*
X142304000Y-109842440D01*
X150684000Y-109842440D01*
X150931765Y-109793157D01*
X151141809Y-109652809D01*
X151282157Y-109442765D01*
X151331440Y-109195000D01*
X151331440Y-101695750D01*
X154172000Y-101695750D01*
X154172000Y-102136309D01*
X154268673Y-102369698D01*
X154447301Y-102548327D01*
X154680690Y-102645000D01*
X156421250Y-102645000D01*
X156580000Y-102486250D01*
X156580000Y-101537000D01*
X156834000Y-101537000D01*
X156834000Y-102486250D01*
X156992750Y-102645000D01*
X158733310Y-102645000D01*
X158966699Y-102548327D01*
X159145327Y-102369698D01*
X159242000Y-102136309D01*
X159242000Y-101695750D01*
X159083250Y-101537000D01*
X156834000Y-101537000D01*
X156580000Y-101537000D01*
X154330750Y-101537000D01*
X154172000Y-101695750D01*
X151331440Y-101695750D01*
X151331440Y-100683691D01*
X154172000Y-100683691D01*
X154172000Y-101124250D01*
X154330750Y-101283000D01*
X156580000Y-101283000D01*
X156580000Y-100333750D01*
X156834000Y-100333750D01*
X156834000Y-101283000D01*
X159083250Y-101283000D01*
X159242000Y-101124250D01*
X159242000Y-100683691D01*
X159145327Y-100450302D01*
X158966699Y-100271673D01*
X158733310Y-100175000D01*
X156992750Y-100175000D01*
X156834000Y-100333750D01*
X156580000Y-100333750D01*
X156421250Y-100175000D01*
X154680690Y-100175000D01*
X154447301Y-100271673D01*
X154268673Y-100450302D01*
X154172000Y-100683691D01*
X151331440Y-100683691D01*
X151331440Y-98705000D01*
X151282157Y-98457235D01*
X151141809Y-98247191D01*
X150931765Y-98106843D01*
X150684000Y-98057560D01*
X142304000Y-98057560D01*
X142056235Y-98106843D01*
X141846191Y-98247191D01*
X141705843Y-98457235D01*
X141656560Y-98705000D01*
X141656560Y-101815000D01*
X136250278Y-101815000D01*
X136040000Y-101773173D01*
X135829722Y-101815000D01*
X135829721Y-101815000D01*
X135206964Y-101938874D01*
X134500751Y-102410751D01*
X134381635Y-102589020D01*
X134191638Y-102779017D01*
X133838874Y-103306965D01*
X133673174Y-104140000D01*
X130504000Y-104140000D01*
X130504000Y-98685050D01*
X133965000Y-98685050D01*
X133965000Y-99434950D01*
X134251974Y-100127767D01*
X134782233Y-100658026D01*
X135475050Y-100945000D01*
X136224950Y-100945000D01*
X136917767Y-100658026D01*
X137448026Y-100127767D01*
X137735000Y-99434950D01*
X137735000Y-98685050D01*
X137448026Y-97992233D01*
X136917767Y-97461974D01*
X136224950Y-97175000D01*
X135475050Y-97175000D01*
X134782233Y-97461974D01*
X134251974Y-97992233D01*
X133965000Y-98685050D01*
X130504000Y-98685050D01*
X130504000Y-93980000D01*
X133713173Y-93980000D01*
X133878874Y-94813036D01*
X134350751Y-95519249D01*
X135056964Y-95991126D01*
X135679721Y-96115000D01*
X137521777Y-96115000D01*
X137732103Y-96156826D01*
X138129339Y-96077791D01*
X138565036Y-95991126D01*
X138565081Y-95991096D01*
X138565130Y-95991086D01*
X138910940Y-95760000D01*
X139271249Y-95519249D01*
X139390393Y-95340938D01*
X144363027Y-90367834D01*
X144541249Y-90248749D01*
X144660390Y-90070442D01*
X144660427Y-90070405D01*
X144782715Y-89887370D01*
X145013126Y-89542536D01*
X145013136Y-89542484D01*
X145013165Y-89542441D01*
X145093103Y-89140465D01*
X145137000Y-88919779D01*
X145137000Y-88919724D01*
X145178826Y-88709397D01*
X145137000Y-88499175D01*
X145137000Y-86633756D01*
X145178826Y-86423464D01*
X145098889Y-86021626D01*
X145013126Y-85590464D01*
X145013115Y-85590448D01*
X145013112Y-85590431D01*
X144776763Y-85236722D01*
X144541249Y-84884251D01*
X144362970Y-84765129D01*
X142930070Y-83332276D01*
X155461481Y-70800865D01*
X155971249Y-70460249D01*
X156443126Y-69754036D01*
X156567000Y-69131279D01*
X156567000Y-68511845D01*
X157856346Y-67222500D01*
X162021087Y-67222500D01*
X161782751Y-67381751D01*
X161310874Y-68087965D01*
X161187000Y-68710722D01*
X161187001Y-72823060D01*
X156553000Y-72823060D01*
X156305235Y-72872343D01*
X156095191Y-73012691D01*
X155954843Y-73222735D01*
X155905560Y-73470500D01*
X155905560Y-81850500D01*
X155954843Y-82098265D01*
X156095191Y-82308309D01*
X156305235Y-82448657D01*
X156553000Y-82497940D01*
X167043000Y-82497940D01*
X167290765Y-82448657D01*
X167500809Y-82308309D01*
X167608000Y-82147888D01*
X167715191Y-82308309D01*
X167925235Y-82448657D01*
X168173000Y-82497940D01*
X178663000Y-82497940D01*
X178910765Y-82448657D01*
X179120809Y-82308309D01*
X179261157Y-82098265D01*
X179310440Y-81850500D01*
X179310440Y-73470500D01*
X179261157Y-73222735D01*
X179120809Y-73012691D01*
X178910765Y-72872343D01*
X178663000Y-72823060D01*
X175617000Y-72823060D01*
X175617000Y-68710721D01*
X175493126Y-68087964D01*
X175021249Y-67381751D01*
X174782913Y-67222500D01*
X177736799Y-67222500D01*
X177494233Y-67322974D01*
X176963974Y-67853233D01*
X176677000Y-68546050D01*
X176677000Y-69295950D01*
X176963974Y-69988767D01*
X177494233Y-70519026D01*
X178187050Y-70806000D01*
X178936950Y-70806000D01*
X179629767Y-70519026D01*
X180160026Y-69988767D01*
X180447000Y-69295950D01*
X180447000Y-68546050D01*
X180160026Y-67853233D01*
X179629767Y-67322974D01*
X179387201Y-67222500D01*
X181106655Y-67222500D01*
X181507000Y-67622845D01*
X181507000Y-69171278D01*
X181630874Y-69794035D01*
X182102751Y-70500249D01*
X182808964Y-70972126D01*
X183642000Y-71137827D01*
X184475035Y-70972126D01*
X185181249Y-70500249D01*
X185653126Y-69794036D01*
X185777000Y-69171279D01*
X185777000Y-67222500D01*
X189199087Y-67222500D01*
X188960751Y-67381751D01*
X188488874Y-68087965D01*
X188365000Y-68710722D01*
X188365001Y-73140560D01*
X186271000Y-73140560D01*
X186023235Y-73189843D01*
X185813191Y-73330191D01*
X185672843Y-73540235D01*
X185623560Y-73788000D01*
X185623560Y-82168000D01*
X185672843Y-82415765D01*
X185813191Y-82625809D01*
X186023235Y-82766157D01*
X186271000Y-82815440D01*
X196761000Y-82815440D01*
X197008765Y-82766157D01*
X197218809Y-82625809D01*
X197263000Y-82559673D01*
X197307191Y-82625809D01*
X197517235Y-82766157D01*
X197765000Y-82815440D01*
X208255000Y-82815440D01*
X208502765Y-82766157D01*
X208712809Y-82625809D01*
X208853157Y-82415765D01*
X208902440Y-82168000D01*
X208902440Y-73788000D01*
X208853157Y-73540235D01*
X208712809Y-73330191D01*
X208502765Y-73189843D01*
X208255000Y-73140560D01*
X202795000Y-73140560D01*
X202795000Y-68710721D01*
X202671126Y-68087964D01*
X202199249Y-67381751D01*
X201960913Y-67222500D01*
X204914799Y-67222500D01*
X204672233Y-67322974D01*
X204141974Y-67853233D01*
X203855000Y-68546050D01*
X203855000Y-69295950D01*
X204141974Y-69988767D01*
X204672233Y-70519026D01*
X205365050Y-70806000D01*
X206114950Y-70806000D01*
X206807767Y-70519026D01*
X207338026Y-69988767D01*
X207625000Y-69295950D01*
X207625000Y-68785563D01*
X208805087Y-69965498D01*
X208808874Y-69984536D01*
X209280751Y-70690749D01*
X209459018Y-70809863D01*
X223544000Y-84894846D01*
X223544000Y-92250154D01*
X223123035Y-91968874D01*
X222290000Y-91803174D01*
X221456964Y-91968874D01*
X220929016Y-92321638D01*
X218197440Y-95053215D01*
X218197440Y-93815000D01*
X218148157Y-93567235D01*
X218007809Y-93357191D01*
X217797765Y-93216843D01*
X217550000Y-93167560D01*
X209170000Y-93167560D01*
X208922235Y-93216843D01*
X208712191Y-93357191D01*
X208571843Y-93567235D01*
X208522560Y-93815000D01*
X208522560Y-104305000D01*
X208571843Y-104552765D01*
X208674135Y-104705855D01*
X208648191Y-104723191D01*
X208507843Y-104933235D01*
X208458560Y-105181000D01*
X208458560Y-115671000D01*
X208507843Y-115918765D01*
X208648191Y-116128809D01*
X208858235Y-116269157D01*
X209106000Y-116318440D01*
X217486000Y-116318440D01*
X217733765Y-116269157D01*
X217943809Y-116128809D01*
X218084157Y-115918765D01*
X218133440Y-115671000D01*
X218133440Y-110703905D01*
X222577757Y-106259589D01*
X223123036Y-106151126D01*
X223544001Y-105869846D01*
X223544001Y-107808208D01*
X223357767Y-107621974D01*
X222664950Y-107335000D01*
X221915050Y-107335000D01*
X221222233Y-107621974D01*
X220691974Y-108152233D01*
X220405000Y-108845050D01*
X220405000Y-109594950D01*
X220691974Y-110287767D01*
X221222233Y-110818026D01*
X221915050Y-111105000D01*
X222425655Y-111105000D01*
X220591638Y-112939017D01*
X220238874Y-113466965D01*
X220073174Y-114300000D01*
X220238874Y-115133035D01*
X220710751Y-115839249D01*
X221416965Y-116311126D01*
X222250000Y-116476826D01*
X223083035Y-116311126D01*
X223610983Y-115958362D01*
X227039984Y-112529362D01*
X227218249Y-112410249D01*
X227690126Y-111704036D01*
X227814000Y-111081279D01*
X227814000Y-111081276D01*
X227855826Y-110871001D01*
X227814000Y-110660726D01*
X227814000Y-84220774D01*
X227855826Y-84010499D01*
X227814000Y-83800222D01*
X227814000Y-83800221D01*
X227690126Y-83177464D01*
X227218249Y-82471251D01*
X227039984Y-82352138D01*
X212834929Y-68147084D01*
X212831126Y-68127964D01*
X212831086Y-68127904D01*
X212831072Y-68127834D01*
X212596251Y-67776449D01*
X212359249Y-67421751D01*
X212180926Y-67302599D01*
X208604325Y-63726460D01*
X208485249Y-63548251D01*
X208306924Y-63429098D01*
X208306876Y-63429050D01*
X208140917Y-63318175D01*
X207779036Y-63076374D01*
X207778962Y-63076359D01*
X207778905Y-63076321D01*
X207377113Y-62996427D01*
X207156279Y-62952500D01*
X207156205Y-62952500D01*
X206945860Y-62910674D01*
X206735656Y-62952500D01*
X182201275Y-62952500D01*
X181991000Y-62910674D01*
X181780725Y-62952500D01*
X157182273Y-62952500D01*
X156971999Y-62910674D01*
X156761726Y-62952500D01*
X156761721Y-62952500D01*
X156138964Y-63076374D01*
X155432751Y-63548251D01*
X155313638Y-63726516D01*
X153071017Y-65969138D01*
X152892752Y-66088251D01*
X152773639Y-66266516D01*
X152773638Y-66266517D01*
X152420874Y-66794465D01*
X152372830Y-67036000D01*
X152297000Y-67417221D01*
X152297000Y-67417225D01*
X152255174Y-67627500D01*
X152297000Y-67837775D01*
X152297000Y-67926654D01*
X151239379Y-68984275D01*
X151226250Y-68495565D01*
X150978123Y-67896533D01*
X150685320Y-67767285D01*
X149531605Y-68921000D01*
X149545748Y-68935143D01*
X149366143Y-69114748D01*
X149352000Y-69100605D01*
X148198285Y-70254320D01*
X148327533Y-70547123D01*
X149027806Y-70815388D01*
X149418769Y-70804885D01*
X139309155Y-80914500D01*
X138181080Y-80914500D01*
X137933315Y-80963783D01*
X137723271Y-81104131D01*
X137582923Y-81314175D01*
X137533640Y-81561940D01*
X137533640Y-85062060D01*
X137582923Y-85309825D01*
X137723271Y-85519869D01*
X137882016Y-85625940D01*
X137217150Y-85625940D01*
X137058400Y-85784690D01*
X137058400Y-87884000D01*
X139157710Y-87884000D01*
X139316460Y-87725250D01*
X139316460Y-86134630D01*
X139219787Y-85901241D01*
X139041158Y-85722613D01*
X139009500Y-85709500D01*
X139268582Y-85709500D01*
X140867000Y-87307866D01*
X140867000Y-87825214D01*
X139316460Y-89375901D01*
X139316460Y-88296750D01*
X139157710Y-88138000D01*
X137058400Y-88138000D01*
X137058400Y-90237310D01*
X137217150Y-90396060D01*
X138296398Y-90396060D01*
X136847595Y-91845000D01*
X135679721Y-91845000D01*
X135056964Y-91968874D01*
X134350751Y-92440751D01*
X133878874Y-93146964D01*
X133713173Y-93980000D01*
X130504000Y-93980000D01*
X130504000Y-88296750D01*
X134546340Y-88296750D01*
X134546340Y-89887370D01*
X134643013Y-90120759D01*
X134821642Y-90299387D01*
X135055031Y-90396060D01*
X136645650Y-90396060D01*
X136804400Y-90237310D01*
X136804400Y-88138000D01*
X134705090Y-88138000D01*
X134546340Y-88296750D01*
X130504000Y-88296750D01*
X130504000Y-83597750D01*
X131546600Y-83597750D01*
X131546600Y-85188370D01*
X131643273Y-85421759D01*
X131821902Y-85600387D01*
X132055291Y-85697060D01*
X133645910Y-85697060D01*
X133804660Y-85538310D01*
X133804660Y-83439000D01*
X134058660Y-83439000D01*
X134058660Y-85538310D01*
X134217410Y-85697060D01*
X134883332Y-85697060D01*
X134821642Y-85722613D01*
X134643013Y-85901241D01*
X134546340Y-86134630D01*
X134546340Y-87725250D01*
X134705090Y-87884000D01*
X136804400Y-87884000D01*
X136804400Y-85784690D01*
X136645650Y-85625940D01*
X135979728Y-85625940D01*
X136041418Y-85600387D01*
X136220047Y-85421759D01*
X136316720Y-85188370D01*
X136316720Y-83597750D01*
X136157970Y-83439000D01*
X134058660Y-83439000D01*
X133804660Y-83439000D01*
X131705350Y-83439000D01*
X131546600Y-83597750D01*
X130504000Y-83597750D01*
X130504000Y-81435630D01*
X131546600Y-81435630D01*
X131546600Y-83026250D01*
X131705350Y-83185000D01*
X133804660Y-83185000D01*
X133804660Y-81085690D01*
X134058660Y-81085690D01*
X134058660Y-83185000D01*
X136157970Y-83185000D01*
X136316720Y-83026250D01*
X136316720Y-81435630D01*
X136220047Y-81202241D01*
X136041418Y-81023613D01*
X135808029Y-80926940D01*
X134217410Y-80926940D01*
X134058660Y-81085690D01*
X133804660Y-81085690D01*
X133645910Y-80926940D01*
X132055291Y-80926940D01*
X131821902Y-81023613D01*
X131643273Y-81202241D01*
X131546600Y-81435630D01*
X130504000Y-81435630D01*
X130504000Y-68596806D01*
X147457612Y-68596806D01*
X147477750Y-69346435D01*
X147725877Y-69945467D01*
X148018680Y-70074715D01*
X149172395Y-68921000D01*
X148018680Y-67767285D01*
X147725877Y-67896533D01*
X147457612Y-68596806D01*
X130504000Y-68596806D01*
X130504000Y-67587680D01*
X148198285Y-67587680D01*
X149352000Y-68741395D01*
X150505715Y-67587680D01*
X150376467Y-67294877D01*
X149676194Y-67026612D01*
X148926565Y-67046750D01*
X148327533Y-67294877D01*
X148198285Y-67587680D01*
X130504000Y-67587680D01*
X130504000Y-61416000D01*
X228906000Y-61416000D01*
X228906001Y-159818000D01*
X228906001Y-159818000D01*
G37*
X228906001Y-159818000D02*
X197703589Y-159818000D01*
X197725000Y-159766310D01*
X197725000Y-159175750D01*
X197566250Y-159017000D01*
X196467000Y-159017000D01*
X196467000Y-159037000D01*
X196213000Y-159037000D01*
X196213000Y-159017000D01*
X195113750Y-159017000D01*
X194955000Y-159175750D01*
X194955000Y-159766310D01*
X194976411Y-159818000D01*
X191103589Y-159818000D01*
X191125000Y-159766310D01*
X191125000Y-159175750D01*
X190966250Y-159017000D01*
X189867000Y-159017000D01*
X189867000Y-159037000D01*
X189613000Y-159037000D01*
X189613000Y-159017000D01*
X188513750Y-159017000D01*
X188355000Y-159175750D01*
X188355000Y-159766310D01*
X188376411Y-159818000D01*
X181431000Y-159818000D01*
X181431000Y-159679410D01*
X181579691Y-159741000D01*
X182170250Y-159741000D01*
X182329000Y-159582250D01*
X182329000Y-158203766D01*
X182583000Y-158184480D01*
X182583000Y-159582250D01*
X182741750Y-159741000D01*
X183332309Y-159741000D01*
X183565698Y-159644327D01*
X183744327Y-159465699D01*
X183841000Y-159232310D01*
X183841000Y-158013690D01*
X188355000Y-158013690D01*
X188355000Y-158604250D01*
X188513750Y-158763000D01*
X189613000Y-158763000D01*
X189613000Y-157663750D01*
X189867000Y-157663750D01*
X189867000Y-158763000D01*
X190966250Y-158763000D01*
X191125000Y-158604250D01*
X191125000Y-158013690D01*
X191028327Y-157780301D01*
X190849698Y-157601673D01*
X190616309Y-157505000D01*
X190025750Y-157505000D01*
X189867000Y-157663750D01*
X189613000Y-157663750D01*
X189454250Y-157505000D01*
X188863691Y-157505000D01*
X188630302Y-157601673D01*
X188451673Y-157780301D01*
X188355000Y-158013690D01*
X183841000Y-158013690D01*
X183841000Y-157391750D01*
X183682250Y-157233000D01*
X183553766Y-157233000D01*
X183534480Y-156979000D01*
X183682250Y-156979000D01*
X183841000Y-156820250D01*
X183841000Y-154979690D01*
X183744327Y-154746301D01*
X183565698Y-154567673D01*
X183332309Y-154471000D01*
X182741750Y-154471000D01*
X182583000Y-154629750D01*
X182583000Y-156008234D01*
X182329000Y-156027520D01*
X182329000Y-154629750D01*
X182170250Y-154471000D01*
X181579691Y-154471000D01*
X181431000Y-154532590D01*
X181431000Y-152469926D01*
X181444909Y-152400000D01*
X181389805Y-152122972D01*
X181232881Y-151888119D01*
X180998028Y-151731195D01*
X180851483Y-151702045D01*
X181289698Y-151263830D01*
X181531000Y-150681276D01*
X181531000Y-150050724D01*
X181289698Y-149468170D01*
X180843830Y-149022302D01*
X180261276Y-148781000D01*
X179630724Y-148781000D01*
X179048170Y-149022302D01*
X178602302Y-149468170D01*
X178491000Y-149736877D01*
X178491000Y-148949690D01*
X178394327Y-148716301D01*
X178215698Y-148537673D01*
X177982309Y-148441000D01*
X177841750Y-148441000D01*
X177683002Y-148599748D01*
X177683002Y-148441000D01*
X177571000Y-148441000D01*
X177571000Y-147427934D01*
X177591276Y-147325999D01*
X177526172Y-146998700D01*
X177510948Y-146922163D01*
X177282193Y-146579807D01*
X177195773Y-146522063D01*
X177189776Y-146516066D01*
X176933836Y-146345052D01*
X176530000Y-146264724D01*
X176126164Y-146345052D01*
X175783808Y-146573808D01*
X175555052Y-146916164D01*
X175474724Y-147320000D01*
X175501001Y-147452103D01*
X175501001Y-147660899D01*
X174204431Y-146364330D01*
X174162029Y-146300871D01*
X173910637Y-146132896D01*
X173688952Y-146088800D01*
X173688947Y-146088800D01*
X173614100Y-146073912D01*
X173539253Y-146088800D01*
X173201031Y-146088800D01*
X178955532Y-140334300D01*
X183508897Y-140334300D01*
X183724711Y-140657289D01*
X183819482Y-140720613D01*
X188605001Y-145506133D01*
X188605000Y-150933541D01*
X188532191Y-150982191D01*
X188391843Y-151192235D01*
X188342560Y-151440000D01*
X188342560Y-152723758D01*
X182291000Y-146672199D01*
X182291000Y-146626017D01*
X182148655Y-146282365D01*
X181885635Y-146019345D01*
X181541983Y-145877000D01*
X181170017Y-145877000D01*
X180826365Y-146019345D01*
X180563345Y-146282365D01*
X180421000Y-146626017D01*
X180421000Y-146997983D01*
X180563345Y-147341635D01*
X180826365Y-147604655D01*
X181170017Y-147747000D01*
X181216199Y-147747000D01*
X188353616Y-154884418D01*
X188342560Y-154940000D01*
X188342560Y-156440000D01*
X188391843Y-156687765D01*
X188532191Y-156897809D01*
X188742235Y-157038157D01*
X188990000Y-157087440D01*
X190490000Y-157087440D01*
X190737765Y-157038157D01*
X190947809Y-156897809D01*
X190996459Y-156825000D01*
X192716222Y-156825000D01*
X192255460Y-157015853D01*
X191865853Y-157405460D01*
X191655000Y-157914506D01*
X191655000Y-158465494D01*
X191865853Y-158974540D01*
X192255460Y-159364147D01*
X192764506Y-159575000D01*
X193315494Y-159575000D01*
X193824540Y-159364147D01*
X194214147Y-158974540D01*
X194425000Y-158465494D01*
X194425000Y-158013690D01*
X194955000Y-158013690D01*
X194955000Y-158604250D01*
X195113750Y-158763000D01*
X196213000Y-158763000D01*
X196213000Y-157663750D01*
X196467000Y-157663750D01*
X196467000Y-158763000D01*
X197566250Y-158763000D01*
X197725000Y-158604250D01*
X197725000Y-158013690D01*
X197628327Y-157780301D01*
X197449698Y-157601673D01*
X197216309Y-157505000D01*
X196625750Y-157505000D01*
X196467000Y-157663750D01*
X196213000Y-157663750D01*
X196054250Y-157505000D01*
X195463691Y-157505000D01*
X195230302Y-157601673D01*
X195051673Y-157780301D01*
X194955000Y-158013690D01*
X194425000Y-158013690D01*
X194425000Y-157914506D01*
X194214147Y-157405460D01*
X193824540Y-157015853D01*
X193363778Y-156825000D01*
X195083541Y-156825000D01*
X195132191Y-156897809D01*
X195342235Y-157038157D01*
X195590000Y-157087440D01*
X197090000Y-157087440D01*
X197337765Y-157038157D01*
X197547809Y-156897809D01*
X197688157Y-156687765D01*
X197737440Y-156440000D01*
X197737440Y-154940000D01*
X197688157Y-154692235D01*
X197547809Y-154482191D01*
X197337765Y-154341843D01*
X197090000Y-154292560D01*
X195590000Y-154292560D01*
X195342235Y-154341843D01*
X195132191Y-154482191D01*
X195083541Y-154555000D01*
X190996459Y-154555000D01*
X190947809Y-154482191D01*
X190737765Y-154341843D01*
X190490000Y-154292560D01*
X189911362Y-154292560D01*
X189206242Y-153587440D01*
X190490000Y-153587440D01*
X190737765Y-153538157D01*
X190947809Y-153397809D01*
X191088157Y-153187765D01*
X191137440Y-152940000D01*
X191137440Y-152397691D01*
X191679306Y-151855825D01*
X191655000Y-151914506D01*
X191655000Y-152465494D01*
X191865853Y-152974540D01*
X192255460Y-153364147D01*
X192764506Y-153575000D01*
X193315494Y-153575000D01*
X193824540Y-153364147D01*
X194214147Y-152974540D01*
X194425000Y-152465494D01*
X194425000Y-151914506D01*
X194368167Y-151777298D01*
X194942560Y-152351692D01*
X194942560Y-152940000D01*
X194991843Y-153187765D01*
X195132191Y-153397809D01*
X195342235Y-153538157D01*
X195590000Y-153587440D01*
X197090000Y-153587440D01*
X197337765Y-153538157D01*
X197547809Y-153397809D01*
X197688157Y-153187765D01*
X197737440Y-152940000D01*
X197737440Y-151440000D01*
X197688157Y-151192235D01*
X197547809Y-150982191D01*
X197337765Y-150841843D01*
X197090000Y-150792560D01*
X196593692Y-150792560D01*
X195445613Y-149644482D01*
X195382289Y-149549711D01*
X195006855Y-149298854D01*
X194675783Y-149233000D01*
X194564000Y-149210765D01*
X194452217Y-149233000D01*
X191673782Y-149233000D01*
X191561999Y-149210765D01*
X191156709Y-149291382D01*
X191119145Y-149298854D01*
X190875000Y-149461986D01*
X190875000Y-145147783D01*
X190897235Y-145036000D01*
X190809146Y-144593145D01*
X190558289Y-144217711D01*
X190463521Y-144154389D01*
X185828281Y-139519150D01*
X187225521Y-138121911D01*
X187320289Y-138058589D01*
X187571146Y-137683155D01*
X187637000Y-137352083D01*
X187637000Y-137352082D01*
X187659235Y-137240301D01*
X187637000Y-137128519D01*
X187637000Y-132263440D01*
X188502000Y-132263440D01*
X188749765Y-132214157D01*
X188959809Y-132073809D01*
X189100157Y-131863765D01*
X189130881Y-131709301D01*
X189340517Y-131751000D01*
X189452299Y-131773235D01*
X189564081Y-131751000D01*
X189636413Y-131751000D01*
X189658843Y-131863765D01*
X189799191Y-132073809D01*
X190009235Y-132214157D01*
X190257000Y-132263440D01*
X192590529Y-132263440D01*
X192493269Y-132360700D01*
X192118783Y-132360700D01*
X192007000Y-132338465D01*
X191895217Y-132360700D01*
X191564145Y-132426554D01*
X191188711Y-132677411D01*
X190937854Y-133052845D01*
X190849765Y-133495700D01*
X190860279Y-133548560D01*
X190257000Y-133548560D01*
X190009235Y-133597843D01*
X189799191Y-133738191D01*
X189658843Y-133948235D01*
X189609560Y-134196000D01*
X189609560Y-136196000D01*
X189658843Y-136443765D01*
X189799191Y-136653809D01*
X190009235Y-136794157D01*
X190257000Y-136843440D01*
X190860279Y-136843440D01*
X190849765Y-136896300D01*
X190937854Y-137339154D01*
X190946493Y-137352083D01*
X191188712Y-137714589D01*
X191283480Y-137777911D01*
X196279089Y-142773521D01*
X196342411Y-142868289D01*
X196717845Y-143119146D01*
X197048917Y-143185000D01*
X197160699Y-143207235D01*
X197272481Y-143185000D01*
X210800646Y-143185000D01*
X210655191Y-143282191D01*
X210514843Y-143492235D01*
X210465560Y-143740000D01*
X210465560Y-145440000D01*
X210514843Y-145687765D01*
X210655191Y-145897809D01*
X210865235Y-146038157D01*
X211113000Y-146087440D01*
X212813000Y-146087440D01*
X213060765Y-146038157D01*
X213270809Y-145897809D01*
X213411157Y-145687765D01*
X213460440Y-145440000D01*
X213460440Y-143740000D01*
X213411157Y-143492235D01*
X213270809Y-143282191D01*
X213060765Y-143141843D01*
X213015381Y-143132816D01*
X213033625Y-143120625D01*
X213361839Y-142629418D01*
X213477092Y-142050000D01*
X213361839Y-141470582D01*
X213033625Y-140979375D01*
X212735239Y-140780000D01*
X213033625Y-140580625D01*
X213361839Y-140089418D01*
X213477092Y-139510000D01*
X213361839Y-138930582D01*
X213033625Y-138439375D01*
X212735239Y-138240000D01*
X213033625Y-138040625D01*
X213361839Y-137549418D01*
X213477092Y-136970000D01*
X213361839Y-136390582D01*
X213140531Y-136059371D01*
X213622773Y-135577129D01*
X213686229Y-135534729D01*
X213854204Y-135283337D01*
X213898300Y-135061652D01*
X213898300Y-135061648D01*
X213913188Y-134986801D01*
X213898300Y-134911954D01*
X213898300Y-133997648D01*
X213913188Y-133922800D01*
X213898300Y-133847952D01*
X213898300Y-133847948D01*
X213861527Y-133663076D01*
X213854204Y-133626262D01*
X213728629Y-133438327D01*
X213686229Y-133374871D01*
X213622773Y-133332471D01*
X199011201Y-118720900D01*
X199199183Y-118720900D01*
X199542835Y-118578555D01*
X199805855Y-118315535D01*
X199948200Y-117971883D01*
X199948200Y-117599917D01*
X199805855Y-117256265D01*
X199773200Y-117223610D01*
X199773200Y-117112747D01*
X199788088Y-117037900D01*
X199773200Y-116963053D01*
X199773200Y-116963048D01*
X199729104Y-116741363D01*
X199561129Y-116489971D01*
X199497673Y-116447571D01*
X196301852Y-113251750D01*
X200548000Y-113251750D01*
X200548000Y-113692309D01*
X200644673Y-113925698D01*
X200823301Y-114104327D01*
X201056690Y-114201000D01*
X202797250Y-114201000D01*
X202956000Y-114042250D01*
X202956000Y-113093000D01*
X203210000Y-113093000D01*
X203210000Y-114042250D01*
X203368750Y-114201000D01*
X205109310Y-114201000D01*
X205342699Y-114104327D01*
X205521327Y-113925698D01*
X205618000Y-113692309D01*
X205618000Y-113251750D01*
X205459250Y-113093000D01*
X203210000Y-113093000D01*
X202956000Y-113093000D01*
X200706750Y-113093000D01*
X200548000Y-113251750D01*
X196301852Y-113251750D01*
X195289793Y-112239691D01*
X200548000Y-112239691D01*
X200548000Y-112680250D01*
X200706750Y-112839000D01*
X202956000Y-112839000D01*
X202956000Y-111889750D01*
X203210000Y-111889750D01*
X203210000Y-112839000D01*
X205459250Y-112839000D01*
X205618000Y-112680250D01*
X205618000Y-112239691D01*
X205521327Y-112006302D01*
X205342699Y-111827673D01*
X205109310Y-111731000D01*
X203368750Y-111731000D01*
X203210000Y-111889750D01*
X202956000Y-111889750D01*
X202797250Y-111731000D01*
X201056690Y-111731000D01*
X200823301Y-111827673D01*
X200644673Y-112006302D01*
X200548000Y-112239691D01*
X195289793Y-112239691D01*
X187700101Y-104650000D01*
X196546899Y-104650000D01*
X200267373Y-108370476D01*
X200309771Y-108433929D01*
X200373224Y-108476327D01*
X200373226Y-108476329D01*
X200498602Y-108560102D01*
X200558224Y-108599940D01*
X200584843Y-108733765D01*
X200725191Y-108943809D01*
X200935235Y-109084157D01*
X201183000Y-109133440D01*
X204983000Y-109133440D01*
X205230765Y-109084157D01*
X205440809Y-108943809D01*
X205581157Y-108733765D01*
X205630440Y-108486000D01*
X205630440Y-107286000D01*
X205581157Y-107038235D01*
X205440809Y-106828191D01*
X205230765Y-106687843D01*
X204983000Y-106638560D01*
X201183000Y-106638560D01*
X200935235Y-106687843D01*
X200814811Y-106768308D01*
X197696501Y-103650000D01*
X198939899Y-103650000D01*
X200835600Y-105545702D01*
X200835600Y-105591883D01*
X200977945Y-105935535D01*
X201240965Y-106198555D01*
X201584617Y-106340900D01*
X201956583Y-106340900D01*
X202300235Y-106198555D01*
X202563255Y-105935535D01*
X202705600Y-105591883D01*
X202705600Y-105219917D01*
X202563255Y-104876265D01*
X202300235Y-104613245D01*
X201956583Y-104470900D01*
X201910402Y-104470900D01*
X199845031Y-102405530D01*
X199802629Y-102342071D01*
X199551237Y-102174096D01*
X199329552Y-102130000D01*
X199329547Y-102130000D01*
X199254700Y-102115112D01*
X199179853Y-102130000D01*
X196386501Y-102130000D01*
X196630751Y-101885750D01*
X200612000Y-101885750D01*
X200612000Y-102326309D01*
X200708673Y-102559698D01*
X200887301Y-102738327D01*
X201120690Y-102835000D01*
X202861250Y-102835000D01*
X203020000Y-102676250D01*
X203020000Y-101727000D01*
X203274000Y-101727000D01*
X203274000Y-102676250D01*
X203432750Y-102835000D01*
X205173310Y-102835000D01*
X205406699Y-102738327D01*
X205585327Y-102559698D01*
X205682000Y-102326309D01*
X205682000Y-101885750D01*
X205523250Y-101727000D01*
X203274000Y-101727000D01*
X203020000Y-101727000D01*
X200770750Y-101727000D01*
X200612000Y-101885750D01*
X196630751Y-101885750D01*
X197642810Y-100873691D01*
X200612000Y-100873691D01*
X200612000Y-101314250D01*
X200770750Y-101473000D01*
X203020000Y-101473000D01*
X203020000Y-100523750D01*
X203274000Y-100523750D01*
X203274000Y-101473000D01*
X205523250Y-101473000D01*
X205682000Y-101314250D01*
X205682000Y-100873691D01*
X205585327Y-100640302D01*
X205406699Y-100461673D01*
X205173310Y-100365000D01*
X203432750Y-100365000D01*
X203274000Y-100523750D01*
X203020000Y-100523750D01*
X202861250Y-100365000D01*
X201120690Y-100365000D01*
X200887301Y-100461673D01*
X200708673Y-100640302D01*
X200612000Y-100873691D01*
X197642810Y-100873691D01*
X200878811Y-97637691D01*
X200999235Y-97718157D01*
X201247000Y-97767440D01*
X205047000Y-97767440D01*
X205294765Y-97718157D01*
X205504809Y-97577809D01*
X205645157Y-97367765D01*
X205694440Y-97120000D01*
X205694440Y-95920000D01*
X205645157Y-95672235D01*
X205504809Y-95462191D01*
X205294765Y-95321843D01*
X205047000Y-95272560D01*
X203283507Y-95272560D01*
X203391435Y-95227855D01*
X203654455Y-94964835D01*
X203796800Y-94621183D01*
X203796800Y-94249217D01*
X203654455Y-93905565D01*
X203391435Y-93642545D01*
X203047783Y-93500200D01*
X202675817Y-93500200D01*
X202332165Y-93642545D01*
X202299510Y-93675200D01*
X199513646Y-93675200D01*
X199438799Y-93660312D01*
X199363952Y-93675200D01*
X199363948Y-93675200D01*
X199142263Y-93719296D01*
X198890871Y-93887271D01*
X198848471Y-93950727D01*
X195944499Y-96854700D01*
X195106401Y-96854700D01*
X200954473Y-91006629D01*
X201017929Y-90964229D01*
X201183940Y-90715776D01*
X201317765Y-90689157D01*
X201527809Y-90548809D01*
X201668157Y-90338765D01*
X201717440Y-90091000D01*
X201717440Y-88476750D01*
X204315000Y-88476750D01*
X204315000Y-90217310D01*
X204411673Y-90450699D01*
X204590302Y-90629327D01*
X204823691Y-90726000D01*
X205264250Y-90726000D01*
X205423000Y-90567250D01*
X205423000Y-88318000D01*
X205677000Y-88318000D01*
X205677000Y-90567250D01*
X205835750Y-90726000D01*
X206276309Y-90726000D01*
X206509698Y-90629327D01*
X206688327Y-90450699D01*
X206785000Y-90217310D01*
X206785000Y-88476750D01*
X206626250Y-88318000D01*
X205677000Y-88318000D01*
X205423000Y-88318000D01*
X204473750Y-88318000D01*
X204315000Y-88476750D01*
X201717440Y-88476750D01*
X201717440Y-86291000D01*
X201692316Y-86164690D01*
X204315000Y-86164690D01*
X204315000Y-87905250D01*
X204473750Y-88064000D01*
X205423000Y-88064000D01*
X205423000Y-85814750D01*
X205677000Y-85814750D01*
X205677000Y-88064000D01*
X206626250Y-88064000D01*
X206785000Y-87905250D01*
X206785000Y-86164690D01*
X206688327Y-85931301D01*
X206509698Y-85752673D01*
X206276309Y-85656000D01*
X205835750Y-85656000D01*
X205677000Y-85814750D01*
X205423000Y-85814750D01*
X205264250Y-85656000D01*
X204823691Y-85656000D01*
X204590302Y-85752673D01*
X204411673Y-85931301D01*
X204315000Y-86164690D01*
X201692316Y-86164690D01*
X201668157Y-86043235D01*
X201527809Y-85833191D01*
X201317765Y-85692843D01*
X201070000Y-85643560D01*
X199870000Y-85643560D01*
X199622235Y-85692843D01*
X199412191Y-85833191D01*
X199271843Y-86043235D01*
X199222560Y-86291000D01*
X199222560Y-90091000D01*
X199271843Y-90338765D01*
X199352309Y-90459189D01*
X193481699Y-96329800D01*
X184949702Y-96329800D01*
X186448003Y-94831500D01*
X193445410Y-94831500D01*
X193478065Y-94864155D01*
X193821717Y-95006500D01*
X194193683Y-95006500D01*
X194537335Y-94864155D01*
X194800355Y-94601135D01*
X194942700Y-94257483D01*
X194942700Y-93885517D01*
X194800355Y-93541865D01*
X194537335Y-93278845D01*
X194193683Y-93136500D01*
X193821717Y-93136500D01*
X193478065Y-93278845D01*
X193445410Y-93311500D01*
X187155602Y-93311500D01*
X189460473Y-91006629D01*
X189523929Y-90964229D01*
X189689940Y-90715776D01*
X189823765Y-90689157D01*
X190033809Y-90548809D01*
X190174157Y-90338765D01*
X190223440Y-90091000D01*
X190223440Y-88476750D01*
X192821000Y-88476750D01*
X192821000Y-90217310D01*
X192917673Y-90450699D01*
X193096302Y-90629327D01*
X193329691Y-90726000D01*
X193770250Y-90726000D01*
X193929000Y-90567250D01*
X193929000Y-88318000D01*
X194183000Y-88318000D01*
X194183000Y-90567250D01*
X194341750Y-90726000D01*
X194782309Y-90726000D01*
X195015698Y-90629327D01*
X195194327Y-90450699D01*
X195291000Y-90217310D01*
X195291000Y-88476750D01*
X195132250Y-88318000D01*
X194183000Y-88318000D01*
X193929000Y-88318000D01*
X192979750Y-88318000D01*
X192821000Y-88476750D01*
X190223440Y-88476750D01*
X190223440Y-86291000D01*
X190198316Y-86164690D01*
X192821000Y-86164690D01*
X192821000Y-87905250D01*
X192979750Y-88064000D01*
X193929000Y-88064000D01*
X193929000Y-85814750D01*
X194183000Y-85814750D01*
X194183000Y-88064000D01*
X195132250Y-88064000D01*
X195291000Y-87905250D01*
X195291000Y-86164690D01*
X195194327Y-85931301D01*
X195015698Y-85752673D01*
X194782309Y-85656000D01*
X194341750Y-85656000D01*
X194183000Y-85814750D01*
X193929000Y-85814750D01*
X193770250Y-85656000D01*
X193329691Y-85656000D01*
X193096302Y-85752673D01*
X192917673Y-85931301D01*
X192821000Y-86164690D01*
X190198316Y-86164690D01*
X190174157Y-86043235D01*
X190033809Y-85833191D01*
X189823765Y-85692843D01*
X189576000Y-85643560D01*
X188376000Y-85643560D01*
X188128235Y-85692843D01*
X187918191Y-85833191D01*
X187777843Y-86043235D01*
X187728560Y-86291000D01*
X187728560Y-90091000D01*
X187777843Y-90338765D01*
X187858309Y-90459189D01*
X181449801Y-96867698D01*
X181387855Y-96880020D01*
X181382655Y-96867465D01*
X181119635Y-96604445D01*
X180775983Y-96462100D01*
X180404017Y-96462100D01*
X180060365Y-96604445D01*
X179857456Y-96807354D01*
X172664431Y-89614330D01*
X172622029Y-89550871D01*
X172370637Y-89382896D01*
X172148952Y-89338800D01*
X172148947Y-89338800D01*
X172125440Y-89334124D01*
X172125440Y-88159250D01*
X174723000Y-88159250D01*
X174723000Y-89899810D01*
X174819673Y-90133199D01*
X174998302Y-90311827D01*
X175231691Y-90408500D01*
X175672250Y-90408500D01*
X175831000Y-90249750D01*
X175831000Y-88000500D01*
X176085000Y-88000500D01*
X176085000Y-90249750D01*
X176243750Y-90408500D01*
X176684309Y-90408500D01*
X176917698Y-90311827D01*
X177096327Y-90133199D01*
X177193000Y-89899810D01*
X177193000Y-88159250D01*
X177034250Y-88000500D01*
X176085000Y-88000500D01*
X175831000Y-88000500D01*
X174881750Y-88000500D01*
X174723000Y-88159250D01*
X172125440Y-88159250D01*
X172125440Y-85973500D01*
X172100316Y-85847190D01*
X174723000Y-85847190D01*
X174723000Y-87587750D01*
X174881750Y-87746500D01*
X175831000Y-87746500D01*
X175831000Y-85497250D01*
X176085000Y-85497250D01*
X176085000Y-87746500D01*
X177034250Y-87746500D01*
X177193000Y-87587750D01*
X177193000Y-85847190D01*
X177096327Y-85613801D01*
X176917698Y-85435173D01*
X176684309Y-85338500D01*
X176243750Y-85338500D01*
X176085000Y-85497250D01*
X175831000Y-85497250D01*
X175672250Y-85338500D01*
X175231691Y-85338500D01*
X174998302Y-85435173D01*
X174819673Y-85613801D01*
X174723000Y-85847190D01*
X172100316Y-85847190D01*
X172076157Y-85725735D01*
X171935809Y-85515691D01*
X171725765Y-85375343D01*
X171478000Y-85326060D01*
X170278000Y-85326060D01*
X170030235Y-85375343D01*
X169820191Y-85515691D01*
X169679843Y-85725735D01*
X169630560Y-85973500D01*
X169630560Y-89563639D01*
X169622029Y-89550871D01*
X169370637Y-89382896D01*
X169148952Y-89338800D01*
X169148947Y-89338800D01*
X169074100Y-89323912D01*
X168999253Y-89338800D01*
X165573000Y-89338800D01*
X165573000Y-88159250D01*
X165414250Y-88000500D01*
X164465000Y-88000500D01*
X164465000Y-88020500D01*
X164211000Y-88020500D01*
X164211000Y-88000500D01*
X163261750Y-88000500D01*
X163103000Y-88159250D01*
X163103000Y-89338800D01*
X160505440Y-89338800D01*
X160505440Y-85973500D01*
X160480316Y-85847190D01*
X163103000Y-85847190D01*
X163103000Y-87587750D01*
X163261750Y-87746500D01*
X164211000Y-87746500D01*
X164211000Y-85497250D01*
X164465000Y-85497250D01*
X164465000Y-87746500D01*
X165414250Y-87746500D01*
X165573000Y-87587750D01*
X165573000Y-85847190D01*
X165476327Y-85613801D01*
X165297698Y-85435173D01*
X165064309Y-85338500D01*
X164623750Y-85338500D01*
X164465000Y-85497250D01*
X164211000Y-85497250D01*
X164052250Y-85338500D01*
X163611691Y-85338500D01*
X163378302Y-85435173D01*
X163199673Y-85613801D01*
X163103000Y-85847190D01*
X160480316Y-85847190D01*
X160456157Y-85725735D01*
X160315809Y-85515691D01*
X160105765Y-85375343D01*
X159858000Y-85326060D01*
X158658000Y-85326060D01*
X158410235Y-85375343D01*
X158200191Y-85515691D01*
X158059843Y-85725735D01*
X158010560Y-85973500D01*
X158010560Y-89773500D01*
X158059843Y-90021265D01*
X158200191Y-90231309D01*
X158410235Y-90371657D01*
X158544060Y-90398276D01*
X158710071Y-90646729D01*
X158961463Y-90814704D01*
X159183148Y-90858800D01*
X159258000Y-90873689D01*
X159332852Y-90858800D01*
X168759299Y-90858800D01*
X175821366Y-97920868D01*
X175817560Y-97940000D01*
X175817560Y-98940000D01*
X175866843Y-99187765D01*
X176007191Y-99397809D01*
X176217235Y-99538157D01*
X176465000Y-99587440D01*
X176715000Y-99587440D01*
X176830001Y-99564565D01*
X176830000Y-103134198D01*
X175812399Y-104151800D01*
X175766217Y-104151800D01*
X175765022Y-104152295D01*
X175762576Y-104140000D01*
X175787440Y-104015000D01*
X175787440Y-103765000D01*
X175762576Y-103640000D01*
X175787440Y-103515000D01*
X175787440Y-103265000D01*
X175762576Y-103140000D01*
X175787440Y-103015000D01*
X175787440Y-102765000D01*
X175762576Y-102640000D01*
X175787440Y-102515000D01*
X175787440Y-102265000D01*
X175762576Y-102140000D01*
X175787440Y-102015000D01*
X175787440Y-101765000D01*
X175762576Y-101640000D01*
X175787440Y-101515000D01*
X175787440Y-101265000D01*
X175762576Y-101140000D01*
X175787440Y-101015000D01*
X175787440Y-100765000D01*
X175762576Y-100640000D01*
X175787440Y-100515000D01*
X175787440Y-100265000D01*
X175738157Y-100017235D01*
X175597809Y-99807191D01*
X175387765Y-99666843D01*
X175140000Y-99617560D01*
X174140000Y-99617560D01*
X174077459Y-99630000D01*
X173889552Y-99630000D01*
X173814700Y-99615111D01*
X173739848Y-99630000D01*
X173518163Y-99674096D01*
X173266771Y-99842071D01*
X173098796Y-100093463D01*
X173070976Y-100233322D01*
X172211799Y-101092500D01*
X172165617Y-101092500D01*
X171821965Y-101234845D01*
X171558945Y-101497865D01*
X171416600Y-101841517D01*
X171416600Y-101892800D01*
X164360902Y-101892800D01*
X159804300Y-97336199D01*
X159804300Y-97290017D01*
X159661955Y-96946365D01*
X159398935Y-96683345D01*
X159055283Y-96541000D01*
X158683317Y-96541000D01*
X158339665Y-96683345D01*
X158076645Y-96946365D01*
X157934300Y-97290017D01*
X157934300Y-97661983D01*
X158076645Y-98005635D01*
X158339665Y-98268655D01*
X158683317Y-98411000D01*
X158729499Y-98411000D01*
X162948498Y-102630000D01*
X162107146Y-102630000D01*
X162032299Y-102615112D01*
X161957452Y-102630000D01*
X161957448Y-102630000D01*
X161735763Y-102674096D01*
X161484371Y-102842071D01*
X161441971Y-102905527D01*
X158975190Y-105372309D01*
X158854765Y-105291843D01*
X158607000Y-105242560D01*
X154807000Y-105242560D01*
X154559235Y-105291843D01*
X154349191Y-105432191D01*
X154208843Y-105642235D01*
X154159560Y-105890000D01*
X154159560Y-107090000D01*
X154208843Y-107337765D01*
X154349191Y-107547809D01*
X154559235Y-107688157D01*
X154807000Y-107737440D01*
X158601170Y-107737440D01*
X158433945Y-107904665D01*
X158291600Y-108248317D01*
X158291600Y-108620283D01*
X158433945Y-108963935D01*
X158696965Y-109226955D01*
X159040617Y-109369300D01*
X159412583Y-109369300D01*
X159756235Y-109226955D01*
X160019255Y-108963935D01*
X160161600Y-108620283D01*
X160161600Y-108574101D01*
X163585702Y-105150000D01*
X171071498Y-105150000D01*
X158975190Y-117246309D01*
X158854765Y-117165843D01*
X158607000Y-117116560D01*
X154807000Y-117116560D01*
X154559235Y-117165843D01*
X154349191Y-117306191D01*
X154208843Y-117516235D01*
X154159560Y-117764000D01*
X154159560Y-118964000D01*
X154208843Y-119211765D01*
X154349191Y-119421809D01*
X154559235Y-119562157D01*
X154807000Y-119611440D01*
X158607000Y-119611440D01*
X158854765Y-119562157D01*
X159064809Y-119421809D01*
X159205157Y-119211765D01*
X159231776Y-119077940D01*
X159480229Y-118911929D01*
X159522631Y-118848470D01*
X170504000Y-107867102D01*
X170504000Y-107916309D01*
X170600673Y-108149698D01*
X170601873Y-108150898D01*
X170540843Y-108242235D01*
X170526893Y-108312366D01*
X170444854Y-108435146D01*
X170356765Y-108878000D01*
X170444854Y-109320854D01*
X170520096Y-109433461D01*
X170540843Y-109537765D01*
X170681191Y-109747809D01*
X170891235Y-109888157D01*
X170925926Y-109895057D01*
X173027668Y-111996800D01*
X171273383Y-111996800D01*
X171161600Y-111974565D01*
X171002047Y-112006302D01*
X170718745Y-112062654D01*
X170343311Y-112313511D01*
X170279989Y-112408279D01*
X156119080Y-126569189D01*
X156024312Y-126632511D01*
X155867086Y-126867817D01*
X155773454Y-127007946D01*
X155685365Y-127450800D01*
X155707601Y-127562588D01*
X155707600Y-132030517D01*
X155685365Y-132142300D01*
X155738326Y-132408554D01*
X155773454Y-132585154D01*
X156024311Y-132960589D01*
X156119082Y-133023913D01*
X156977111Y-133881943D01*
X156944843Y-133930235D01*
X156895560Y-134178000D01*
X156895560Y-137778000D01*
X156944843Y-138025765D01*
X157085191Y-138235809D01*
X157295235Y-138376157D01*
X157543000Y-138425440D01*
X158813000Y-138425440D01*
X159060765Y-138376157D01*
X159270809Y-138235809D01*
X159411157Y-138025765D01*
X159448000Y-137840541D01*
X159448000Y-137904310D01*
X159544673Y-138137699D01*
X159723302Y-138316327D01*
X159956691Y-138413000D01*
X160432250Y-138413000D01*
X160591000Y-138254250D01*
X160591000Y-136105000D01*
X160845000Y-136105000D01*
X160845000Y-138254250D01*
X161003750Y-138413000D01*
X161479309Y-138413000D01*
X161712698Y-138316327D01*
X161891327Y-138137699D01*
X161988000Y-137904310D01*
X162084673Y-138137699D01*
X162263302Y-138316327D01*
X162496691Y-138413000D01*
X162972250Y-138413000D01*
X163131000Y-138254250D01*
X163131000Y-136105000D01*
X162146750Y-136105000D01*
X161988000Y-136263750D01*
X161829250Y-136105000D01*
X160845000Y-136105000D01*
X160591000Y-136105000D01*
X160571000Y-136105000D01*
X160571000Y-135851000D01*
X160591000Y-135851000D01*
X160591000Y-133701750D01*
X160845000Y-133701750D01*
X160845000Y-135851000D01*
X161829250Y-135851000D01*
X161988000Y-135692250D01*
X162146750Y-135851000D01*
X163131000Y-135851000D01*
X163131000Y-133701750D01*
X163385000Y-133701750D01*
X163385000Y-135851000D01*
X163405000Y-135851000D01*
X163405000Y-136105000D01*
X163385000Y-136105000D01*
X163385000Y-138254250D01*
X163543750Y-138413000D01*
X164019309Y-138413000D01*
X164252698Y-138316327D01*
X164431327Y-138137699D01*
X164528000Y-137904310D01*
X164528000Y-137840541D01*
X164564843Y-138025765D01*
X164705191Y-138235809D01*
X164915235Y-138376157D01*
X165163000Y-138425440D01*
X166433000Y-138425440D01*
X166680765Y-138376157D01*
X166890809Y-138235809D01*
X167031157Y-138025765D01*
X167068000Y-137840541D01*
X167068000Y-137904310D01*
X167164673Y-138137699D01*
X167343302Y-138316327D01*
X167576691Y-138413000D01*
X168052250Y-138413000D01*
X168211000Y-138254250D01*
X168211000Y-136105000D01*
X168465000Y-136105000D01*
X168465000Y-138254250D01*
X168623750Y-138413000D01*
X169099309Y-138413000D01*
X169332698Y-138316327D01*
X169511327Y-138137699D01*
X169608000Y-137904310D01*
X169608000Y-136263750D01*
X169449250Y-136105000D01*
X168465000Y-136105000D01*
X168211000Y-136105000D01*
X168191000Y-136105000D01*
X168191000Y-135851000D01*
X168211000Y-135851000D01*
X168211000Y-133701750D01*
X168465000Y-133701750D01*
X168465000Y-135851000D01*
X169449250Y-135851000D01*
X169608000Y-135692250D01*
X169608000Y-134051690D01*
X169511327Y-133818301D01*
X169332698Y-133639673D01*
X169099309Y-133543000D01*
X168623750Y-133543000D01*
X168465000Y-133701750D01*
X168211000Y-133701750D01*
X168052250Y-133543000D01*
X167576691Y-133543000D01*
X167343302Y-133639673D01*
X167164673Y-133818301D01*
X167068000Y-134051690D01*
X167068000Y-134115459D01*
X167031157Y-133930235D01*
X166890809Y-133720191D01*
X166680765Y-133579843D01*
X166433000Y-133530560D01*
X165163000Y-133530560D01*
X164915235Y-133579843D01*
X164705191Y-133720191D01*
X164564843Y-133930235D01*
X164528000Y-134115459D01*
X164528000Y-134051690D01*
X164431327Y-133818301D01*
X164252698Y-133639673D01*
X164019309Y-133543000D01*
X163543750Y-133543000D01*
X163385000Y-133701750D01*
X163131000Y-133701750D01*
X162972250Y-133543000D01*
X162496691Y-133543000D01*
X162263302Y-133639673D01*
X162084673Y-133818301D01*
X161988000Y-134051690D01*
X161891327Y-133818301D01*
X161712698Y-133639673D01*
X161479309Y-133543000D01*
X161003750Y-133543000D01*
X160845000Y-133701750D01*
X160591000Y-133701750D01*
X160432250Y-133543000D01*
X159956691Y-133543000D01*
X159723302Y-133639673D01*
X159544673Y-133818301D01*
X159448000Y-134051690D01*
X159448000Y-134115459D01*
X159411157Y-133930235D01*
X159313000Y-133783334D01*
X159313000Y-133589483D01*
X159335235Y-133477700D01*
X159247146Y-133034845D01*
X158996289Y-132659411D01*
X158901521Y-132596089D01*
X158330872Y-132025440D01*
X158813000Y-132025440D01*
X159060765Y-131976157D01*
X159270809Y-131835809D01*
X159411157Y-131625765D01*
X159448000Y-131440541D01*
X159484843Y-131625765D01*
X159625191Y-131835809D01*
X159835235Y-131976157D01*
X160083000Y-132025440D01*
X161353000Y-132025440D01*
X161600765Y-131976157D01*
X161810809Y-131835809D01*
X161951157Y-131625765D01*
X161988000Y-131440541D01*
X162024843Y-131625765D01*
X162165191Y-131835809D01*
X162375235Y-131976157D01*
X162623000Y-132025440D01*
X163893000Y-132025440D01*
X164140765Y-131976157D01*
X164350809Y-131835809D01*
X164491157Y-131625765D01*
X164528000Y-131440541D01*
X164564843Y-131625765D01*
X164705191Y-131835809D01*
X164915235Y-131976157D01*
X165163000Y-132025440D01*
X166433000Y-132025440D01*
X166680765Y-131976157D01*
X166890809Y-131835809D01*
X167031157Y-131625765D01*
X167068000Y-131440541D01*
X167104843Y-131625765D01*
X167245191Y-131835809D01*
X167455235Y-131976157D01*
X167703000Y-132025440D01*
X168973000Y-132025440D01*
X169220765Y-131976157D01*
X169430809Y-131835809D01*
X169571157Y-131625765D01*
X169620440Y-131378000D01*
X169620440Y-127778000D01*
X169571157Y-127530235D01*
X169430809Y-127320191D01*
X169328755Y-127252000D01*
X170389427Y-127252000D01*
X170488191Y-127399809D01*
X170698235Y-127540157D01*
X170946000Y-127589440D01*
X171446000Y-127589440D01*
X171693765Y-127540157D01*
X171903809Y-127399809D01*
X171937107Y-127349976D01*
X171969240Y-127371446D01*
X171988191Y-127399809D01*
X172198235Y-127540157D01*
X172231693Y-127546812D01*
X172253145Y-127561146D01*
X172696000Y-127649235D01*
X173138854Y-127561146D01*
X173160306Y-127546812D01*
X173193765Y-127540157D01*
X173403809Y-127399809D01*
X173422761Y-127371446D01*
X173514289Y-127310289D01*
X173765146Y-126934855D01*
X173801500Y-126752088D01*
X173801500Y-128965253D01*
X173714365Y-129001345D01*
X173451345Y-129264365D01*
X173309000Y-129608017D01*
X173309000Y-129979983D01*
X173451345Y-130323635D01*
X173714365Y-130586655D01*
X174058017Y-130729000D01*
X174429983Y-130729000D01*
X174616481Y-130651750D01*
X177767000Y-130651750D01*
X177767000Y-131742310D01*
X177863673Y-131975699D01*
X178042302Y-132154327D01*
X178275691Y-132251000D01*
X180116250Y-132251000D01*
X180275000Y-132092250D01*
X180275000Y-130493000D01*
X180529000Y-130493000D01*
X180529000Y-132092250D01*
X180687750Y-132251000D01*
X182528309Y-132251000D01*
X182761698Y-132154327D01*
X182940327Y-131975699D01*
X183037000Y-131742310D01*
X183037000Y-130651750D01*
X182878250Y-130493000D01*
X180529000Y-130493000D01*
X180275000Y-130493000D01*
X177925750Y-130493000D01*
X177767000Y-130651750D01*
X174616481Y-130651750D01*
X174773635Y-130586655D01*
X175036655Y-130323635D01*
X175179000Y-129979983D01*
X175179000Y-129920309D01*
X175214766Y-129866782D01*
X175277404Y-129773038D01*
X175301310Y-129652852D01*
X175321500Y-129551352D01*
X175321500Y-129551348D01*
X175336388Y-129476500D01*
X175321500Y-129401652D01*
X175321500Y-128989690D01*
X177767000Y-128989690D01*
X177767000Y-130080250D01*
X177925750Y-130239000D01*
X180275000Y-130239000D01*
X180275000Y-128639750D01*
X180529000Y-128639750D01*
X180529000Y-130239000D01*
X182878250Y-130239000D01*
X183037000Y-130080250D01*
X183037000Y-128989690D01*
X182940327Y-128756301D01*
X182761698Y-128577673D01*
X182528309Y-128481000D01*
X180687750Y-128481000D01*
X180529000Y-128639750D01*
X180275000Y-128639750D01*
X180116250Y-128481000D01*
X178275691Y-128481000D01*
X178042302Y-128577673D01*
X177863673Y-128756301D01*
X177767000Y-128989690D01*
X175321500Y-128989690D01*
X175321500Y-124133290D01*
X175354155Y-124100635D01*
X175496500Y-123756983D01*
X175496500Y-123385017D01*
X175354155Y-123041365D01*
X175091135Y-122778345D01*
X174747483Y-122636000D01*
X174375517Y-122636000D01*
X174031865Y-122778345D01*
X173831000Y-122979210D01*
X173831000Y-121541231D01*
X177909932Y-117462300D01*
X183032869Y-117462300D01*
X183218723Y-117648154D01*
X183395212Y-117912288D01*
X183412054Y-117923541D01*
X183423311Y-117940389D01*
X183518081Y-118003712D01*
X183839888Y-118325519D01*
X183903211Y-118420289D01*
X184167350Y-118596781D01*
X193322400Y-127751832D01*
X193322400Y-128968560D01*
X190257000Y-128968560D01*
X190009235Y-129017843D01*
X189799191Y-129158191D01*
X189687592Y-129325209D01*
X189645155Y-129296854D01*
X189314083Y-129231000D01*
X189202300Y-129208765D01*
X189149440Y-129219279D01*
X189149440Y-129116000D01*
X189100157Y-128868235D01*
X188959809Y-128658191D01*
X188749765Y-128517843D01*
X188502000Y-128468560D01*
X184502000Y-128468560D01*
X184254235Y-128517843D01*
X184044191Y-128658191D01*
X183903843Y-128868235D01*
X183854560Y-129116000D01*
X183854560Y-131616000D01*
X183903843Y-131863765D01*
X184044191Y-132073809D01*
X184254235Y-132214157D01*
X184502000Y-132263440D01*
X185367001Y-132263440D01*
X185367000Y-136770168D01*
X184072869Y-138064300D01*
X178597182Y-138064300D01*
X178485399Y-138042065D01*
X178042545Y-138130154D01*
X177667111Y-138381011D01*
X177603789Y-138475779D01*
X170965869Y-145113700D01*
X153706081Y-145113700D01*
X153594299Y-145091465D01*
X153482517Y-145113700D01*
X153151445Y-145179554D01*
X152776011Y-145430411D01*
X152712691Y-145525176D01*
X150392482Y-147845387D01*
X150297711Y-147908711D01*
X150104182Y-148198349D01*
X150046854Y-148284146D01*
X150015654Y-148441000D01*
X149968998Y-148441000D01*
X149968998Y-148599748D01*
X149810250Y-148441000D01*
X149669691Y-148441000D01*
X149436302Y-148537673D01*
X149257673Y-148716301D01*
X149161000Y-148949690D01*
X149161000Y-149840250D01*
X149319748Y-149998998D01*
X149199574Y-149998998D01*
X148979698Y-149468170D01*
X148533830Y-149022302D01*
X147951276Y-148781000D01*
X147320724Y-148781000D01*
X146738170Y-149022302D01*
X146292302Y-149468170D01*
X146051000Y-150050724D01*
X146051000Y-150681276D01*
X146292302Y-151263830D01*
X146738170Y-151709698D01*
X146769112Y-151722515D01*
X146725472Y-151731195D01*
X146490619Y-151888119D01*
X146333695Y-152122972D01*
X146278591Y-152400000D01*
X146292501Y-152469931D01*
X146292501Y-154714475D01*
X146145698Y-154567673D01*
X145912309Y-154471000D01*
X145321750Y-154471000D01*
X145163000Y-154629750D01*
X145163000Y-156008234D01*
X144909000Y-156027520D01*
X144909000Y-154629750D01*
X144750250Y-154471000D01*
X144159691Y-154471000D01*
X143926302Y-154567673D01*
X143747673Y-154746301D01*
X143651000Y-154979690D01*
X143651000Y-156820250D01*
X143809750Y-156979000D01*
X143938234Y-156979000D01*
X143957520Y-157233000D01*
X143809750Y-157233000D01*
X143651000Y-157391750D01*
X143651000Y-159232310D01*
X143747673Y-159465699D01*
X143926302Y-159644327D01*
X144159691Y-159741000D01*
X144750250Y-159741000D01*
X144909000Y-159582250D01*
X144909000Y-158203766D01*
X145163000Y-158184480D01*
X145163000Y-159582250D01*
X145321750Y-159741000D01*
X145912309Y-159741000D01*
X146145698Y-159644327D01*
X146292500Y-159497526D01*
X146292500Y-159818000D01*
X130504000Y-159818000D01*
X130504000Y-142244517D01*
X158005500Y-142244517D01*
X158005500Y-142616483D01*
X158147845Y-142960135D01*
X158410865Y-143223155D01*
X158754517Y-143365500D01*
X158800698Y-143365500D01*
X159112171Y-143676973D01*
X159154571Y-143740429D01*
X159218027Y-143782829D01*
X159405962Y-143908404D01*
X159454105Y-143917980D01*
X159627648Y-143952500D01*
X159627652Y-143952500D01*
X159702500Y-143967388D01*
X159777348Y-143952500D01*
X164982210Y-143952500D01*
X165014865Y-143985155D01*
X165358517Y-144127500D01*
X165730483Y-144127500D01*
X166074135Y-143985155D01*
X166337155Y-143722135D01*
X166479500Y-143378483D01*
X166479500Y-143006517D01*
X166337155Y-142662865D01*
X166074135Y-142399845D01*
X165730483Y-142257500D01*
X165358517Y-142257500D01*
X165014865Y-142399845D01*
X164982210Y-142432500D01*
X160017302Y-142432500D01*
X159875500Y-142290698D01*
X159875500Y-142244517D01*
X159733155Y-141900865D01*
X159470135Y-141637845D01*
X159126483Y-141495500D01*
X158754517Y-141495500D01*
X158410865Y-141637845D01*
X158147845Y-141900865D01*
X158005500Y-142244517D01*
X130504000Y-142244517D01*
X130504000Y-140720517D01*
X171023000Y-140720517D01*
X171023000Y-141092483D01*
X171165345Y-141436135D01*
X171428365Y-141699155D01*
X171772017Y-141841500D01*
X172143983Y-141841500D01*
X172487635Y-141699155D01*
X172750655Y-141436135D01*
X172893000Y-141092483D01*
X172893000Y-141046301D01*
X174410976Y-139528327D01*
X174474429Y-139485929D01*
X174516827Y-139422476D01*
X174516829Y-139422474D01*
X174642403Y-139234538D01*
X174642404Y-139234537D01*
X174686500Y-139012852D01*
X174686500Y-139012848D01*
X174701388Y-138938001D01*
X174686500Y-138863154D01*
X174686500Y-136515790D01*
X174719155Y-136483135D01*
X174861500Y-136139483D01*
X174861500Y-135767517D01*
X174719155Y-135423865D01*
X174456135Y-135160845D01*
X174112483Y-135018500D01*
X173740517Y-135018500D01*
X173396865Y-135160845D01*
X173133845Y-135423865D01*
X172991500Y-135767517D01*
X172991500Y-136139483D01*
X173133845Y-136483135D01*
X173166501Y-136515791D01*
X173166500Y-138623197D01*
X171818199Y-139971500D01*
X171772017Y-139971500D01*
X171428365Y-140113845D01*
X171165345Y-140376865D01*
X171023000Y-140720517D01*
X130504000Y-140720517D01*
X130504000Y-114300000D01*
X133673174Y-114300000D01*
X133838874Y-115133035D01*
X134191638Y-115660983D01*
X135715638Y-117184983D01*
X135834751Y-117363249D01*
X136540964Y-117835126D01*
X137163721Y-117959000D01*
X137163726Y-117959000D01*
X137373999Y-118000826D01*
X137584273Y-117959000D01*
X141656560Y-117959000D01*
X141656560Y-121069000D01*
X141705843Y-121316765D01*
X141846191Y-121526809D01*
X142056235Y-121667157D01*
X142304000Y-121716440D01*
X150684000Y-121716440D01*
X150931765Y-121667157D01*
X151141809Y-121526809D01*
X151282157Y-121316765D01*
X151331440Y-121069000D01*
X151331440Y-113569750D01*
X154172000Y-113569750D01*
X154172000Y-114010309D01*
X154268673Y-114243698D01*
X154447301Y-114422327D01*
X154680690Y-114519000D01*
X156421250Y-114519000D01*
X156580000Y-114360250D01*
X156580000Y-113411000D01*
X156834000Y-113411000D01*
X156834000Y-114360250D01*
X156992750Y-114519000D01*
X158733310Y-114519000D01*
X158966699Y-114422327D01*
X159145327Y-114243698D01*
X159242000Y-114010309D01*
X159242000Y-113569750D01*
X159083250Y-113411000D01*
X156834000Y-113411000D01*
X156580000Y-113411000D01*
X154330750Y-113411000D01*
X154172000Y-113569750D01*
X151331440Y-113569750D01*
X151331440Y-112557691D01*
X154172000Y-112557691D01*
X154172000Y-112998250D01*
X154330750Y-113157000D01*
X156580000Y-113157000D01*
X156580000Y-112207750D01*
X156834000Y-112207750D01*
X156834000Y-113157000D01*
X159083250Y-113157000D01*
X159242000Y-112998250D01*
X159242000Y-112557691D01*
X159145327Y-112324302D01*
X158966699Y-112145673D01*
X158733310Y-112049000D01*
X156992750Y-112049000D01*
X156834000Y-112207750D01*
X156580000Y-112207750D01*
X156421250Y-112049000D01*
X154680690Y-112049000D01*
X154447301Y-112145673D01*
X154268673Y-112324302D01*
X154172000Y-112557691D01*
X151331440Y-112557691D01*
X151331440Y-110579000D01*
X151282157Y-110331235D01*
X151141809Y-110121191D01*
X150931765Y-109980843D01*
X150684000Y-109931560D01*
X142304000Y-109931560D01*
X142056235Y-109980843D01*
X141846191Y-110121191D01*
X141705843Y-110331235D01*
X141656560Y-110579000D01*
X141656560Y-113689000D01*
X138258346Y-113689000D01*
X137210983Y-112641638D01*
X136683035Y-112288874D01*
X135850000Y-112123174D01*
X135016965Y-112288874D01*
X134310751Y-112760751D01*
X133838874Y-113466965D01*
X133673174Y-114300000D01*
X130504000Y-114300000D01*
X130504000Y-108845050D01*
X133965000Y-108845050D01*
X133965000Y-109594950D01*
X134251974Y-110287767D01*
X134782233Y-110818026D01*
X135475050Y-111105000D01*
X136224950Y-111105000D01*
X136917767Y-110818026D01*
X137448026Y-110287767D01*
X137735000Y-109594950D01*
X137735000Y-108845050D01*
X137448026Y-108152233D01*
X136917767Y-107621974D01*
X136224950Y-107335000D01*
X135475050Y-107335000D01*
X134782233Y-107621974D01*
X134251974Y-108152233D01*
X133965000Y-108845050D01*
X130504000Y-108845050D01*
X130504000Y-104140000D01*
X133673174Y-104140000D01*
X133838874Y-104973035D01*
X134310751Y-105679249D01*
X135016965Y-106151126D01*
X135850000Y-106316826D01*
X136683035Y-106151126D01*
X136781999Y-106085000D01*
X141656560Y-106085000D01*
X141656560Y-109195000D01*
X141705843Y-109442765D01*
X141846191Y-109652809D01*
X142056235Y-109793157D01*
X142304000Y-109842440D01*
X150684000Y-109842440D01*
X150931765Y-109793157D01*
X151141809Y-109652809D01*
X151282157Y-109442765D01*
X151331440Y-109195000D01*
X151331440Y-101695750D01*
X154172000Y-101695750D01*
X154172000Y-102136309D01*
X154268673Y-102369698D01*
X154447301Y-102548327D01*
X154680690Y-102645000D01*
X156421250Y-102645000D01*
X156580000Y-102486250D01*
X156580000Y-101537000D01*
X156834000Y-101537000D01*
X156834000Y-102486250D01*
X156992750Y-102645000D01*
X158733310Y-102645000D01*
X158966699Y-102548327D01*
X159145327Y-102369698D01*
X159242000Y-102136309D01*
X159242000Y-101695750D01*
X159083250Y-101537000D01*
X156834000Y-101537000D01*
X156580000Y-101537000D01*
X154330750Y-101537000D01*
X154172000Y-101695750D01*
X151331440Y-101695750D01*
X151331440Y-100683691D01*
X154172000Y-100683691D01*
X154172000Y-101124250D01*
X154330750Y-101283000D01*
X156580000Y-101283000D01*
X156580000Y-100333750D01*
X156834000Y-100333750D01*
X156834000Y-101283000D01*
X159083250Y-101283000D01*
X159242000Y-101124250D01*
X159242000Y-100683691D01*
X159145327Y-100450302D01*
X158966699Y-100271673D01*
X158733310Y-100175000D01*
X156992750Y-100175000D01*
X156834000Y-100333750D01*
X156580000Y-100333750D01*
X156421250Y-100175000D01*
X154680690Y-100175000D01*
X154447301Y-100271673D01*
X154268673Y-100450302D01*
X154172000Y-100683691D01*
X151331440Y-100683691D01*
X151331440Y-98705000D01*
X151282157Y-98457235D01*
X151141809Y-98247191D01*
X150931765Y-98106843D01*
X150684000Y-98057560D01*
X142304000Y-98057560D01*
X142056235Y-98106843D01*
X141846191Y-98247191D01*
X141705843Y-98457235D01*
X141656560Y-98705000D01*
X141656560Y-101815000D01*
X136250278Y-101815000D01*
X136040000Y-101773173D01*
X135829722Y-101815000D01*
X135829721Y-101815000D01*
X135206964Y-101938874D01*
X134500751Y-102410751D01*
X134381635Y-102589020D01*
X134191638Y-102779017D01*
X133838874Y-103306965D01*
X133673174Y-104140000D01*
X130504000Y-104140000D01*
X130504000Y-98685050D01*
X133965000Y-98685050D01*
X133965000Y-99434950D01*
X134251974Y-100127767D01*
X134782233Y-100658026D01*
X135475050Y-100945000D01*
X136224950Y-100945000D01*
X136917767Y-100658026D01*
X137448026Y-100127767D01*
X137735000Y-99434950D01*
X137735000Y-98685050D01*
X137448026Y-97992233D01*
X136917767Y-97461974D01*
X136224950Y-97175000D01*
X135475050Y-97175000D01*
X134782233Y-97461974D01*
X134251974Y-97992233D01*
X133965000Y-98685050D01*
X130504000Y-98685050D01*
X130504000Y-93980000D01*
X133713173Y-93980000D01*
X133878874Y-94813036D01*
X134350751Y-95519249D01*
X135056964Y-95991126D01*
X135679721Y-96115000D01*
X137521777Y-96115000D01*
X137732103Y-96156826D01*
X138129339Y-96077791D01*
X138565036Y-95991126D01*
X138565081Y-95991096D01*
X138565130Y-95991086D01*
X138910940Y-95760000D01*
X139271249Y-95519249D01*
X139390393Y-95340938D01*
X144363027Y-90367834D01*
X144541249Y-90248749D01*
X144660390Y-90070442D01*
X144660427Y-90070405D01*
X144782715Y-89887370D01*
X145013126Y-89542536D01*
X145013136Y-89542484D01*
X145013165Y-89542441D01*
X145093103Y-89140465D01*
X145137000Y-88919779D01*
X145137000Y-88919724D01*
X145178826Y-88709397D01*
X145137000Y-88499175D01*
X145137000Y-86633756D01*
X145178826Y-86423464D01*
X145098889Y-86021626D01*
X145013126Y-85590464D01*
X145013115Y-85590448D01*
X145013112Y-85590431D01*
X144776763Y-85236722D01*
X144541249Y-84884251D01*
X144362970Y-84765129D01*
X142930070Y-83332276D01*
X155461481Y-70800865D01*
X155971249Y-70460249D01*
X156443126Y-69754036D01*
X156567000Y-69131279D01*
X156567000Y-68511845D01*
X157856346Y-67222500D01*
X162021087Y-67222500D01*
X161782751Y-67381751D01*
X161310874Y-68087965D01*
X161187000Y-68710722D01*
X161187001Y-72823060D01*
X156553000Y-72823060D01*
X156305235Y-72872343D01*
X156095191Y-73012691D01*
X155954843Y-73222735D01*
X155905560Y-73470500D01*
X155905560Y-81850500D01*
X155954843Y-82098265D01*
X156095191Y-82308309D01*
X156305235Y-82448657D01*
X156553000Y-82497940D01*
X167043000Y-82497940D01*
X167290765Y-82448657D01*
X167500809Y-82308309D01*
X167608000Y-82147888D01*
X167715191Y-82308309D01*
X167925235Y-82448657D01*
X168173000Y-82497940D01*
X178663000Y-82497940D01*
X178910765Y-82448657D01*
X179120809Y-82308309D01*
X179261157Y-82098265D01*
X179310440Y-81850500D01*
X179310440Y-73470500D01*
X179261157Y-73222735D01*
X179120809Y-73012691D01*
X178910765Y-72872343D01*
X178663000Y-72823060D01*
X175617000Y-72823060D01*
X175617000Y-68710721D01*
X175493126Y-68087964D01*
X175021249Y-67381751D01*
X174782913Y-67222500D01*
X177736799Y-67222500D01*
X177494233Y-67322974D01*
X176963974Y-67853233D01*
X176677000Y-68546050D01*
X176677000Y-69295950D01*
X176963974Y-69988767D01*
X177494233Y-70519026D01*
X178187050Y-70806000D01*
X178936950Y-70806000D01*
X179629767Y-70519026D01*
X180160026Y-69988767D01*
X180447000Y-69295950D01*
X180447000Y-68546050D01*
X180160026Y-67853233D01*
X179629767Y-67322974D01*
X179387201Y-67222500D01*
X181106655Y-67222500D01*
X181507000Y-67622845D01*
X181507000Y-69171278D01*
X181630874Y-69794035D01*
X182102751Y-70500249D01*
X182808964Y-70972126D01*
X183642000Y-71137827D01*
X184475035Y-70972126D01*
X185181249Y-70500249D01*
X185653126Y-69794036D01*
X185777000Y-69171279D01*
X185777000Y-67222500D01*
X189199087Y-67222500D01*
X188960751Y-67381751D01*
X188488874Y-68087965D01*
X188365000Y-68710722D01*
X188365001Y-73140560D01*
X186271000Y-73140560D01*
X186023235Y-73189843D01*
X185813191Y-73330191D01*
X185672843Y-73540235D01*
X185623560Y-73788000D01*
X185623560Y-82168000D01*
X185672843Y-82415765D01*
X185813191Y-82625809D01*
X186023235Y-82766157D01*
X186271000Y-82815440D01*
X196761000Y-82815440D01*
X197008765Y-82766157D01*
X197218809Y-82625809D01*
X197263000Y-82559673D01*
X197307191Y-82625809D01*
X197517235Y-82766157D01*
X197765000Y-82815440D01*
X208255000Y-82815440D01*
X208502765Y-82766157D01*
X208712809Y-82625809D01*
X208853157Y-82415765D01*
X208902440Y-82168000D01*
X208902440Y-73788000D01*
X208853157Y-73540235D01*
X208712809Y-73330191D01*
X208502765Y-73189843D01*
X208255000Y-73140560D01*
X202795000Y-73140560D01*
X202795000Y-68710721D01*
X202671126Y-68087964D01*
X202199249Y-67381751D01*
X201960913Y-67222500D01*
X204914799Y-67222500D01*
X204672233Y-67322974D01*
X204141974Y-67853233D01*
X203855000Y-68546050D01*
X203855000Y-69295950D01*
X204141974Y-69988767D01*
X204672233Y-70519026D01*
X205365050Y-70806000D01*
X206114950Y-70806000D01*
X206807767Y-70519026D01*
X207338026Y-69988767D01*
X207625000Y-69295950D01*
X207625000Y-68785563D01*
X208805087Y-69965498D01*
X208808874Y-69984536D01*
X209280751Y-70690749D01*
X209459018Y-70809863D01*
X223544000Y-84894846D01*
X223544000Y-92250154D01*
X223123035Y-91968874D01*
X222290000Y-91803174D01*
X221456964Y-91968874D01*
X220929016Y-92321638D01*
X218197440Y-95053215D01*
X218197440Y-93815000D01*
X218148157Y-93567235D01*
X218007809Y-93357191D01*
X217797765Y-93216843D01*
X217550000Y-93167560D01*
X209170000Y-93167560D01*
X208922235Y-93216843D01*
X208712191Y-93357191D01*
X208571843Y-93567235D01*
X208522560Y-93815000D01*
X208522560Y-104305000D01*
X208571843Y-104552765D01*
X208674135Y-104705855D01*
X208648191Y-104723191D01*
X208507843Y-104933235D01*
X208458560Y-105181000D01*
X208458560Y-115671000D01*
X208507843Y-115918765D01*
X208648191Y-116128809D01*
X208858235Y-116269157D01*
X209106000Y-116318440D01*
X217486000Y-116318440D01*
X217733765Y-116269157D01*
X217943809Y-116128809D01*
X218084157Y-115918765D01*
X218133440Y-115671000D01*
X218133440Y-110703905D01*
X222577757Y-106259589D01*
X223123036Y-106151126D01*
X223544001Y-105869846D01*
X223544001Y-107808208D01*
X223357767Y-107621974D01*
X222664950Y-107335000D01*
X221915050Y-107335000D01*
X221222233Y-107621974D01*
X220691974Y-108152233D01*
X220405000Y-108845050D01*
X220405000Y-109594950D01*
X220691974Y-110287767D01*
X221222233Y-110818026D01*
X221915050Y-111105000D01*
X222425655Y-111105000D01*
X220591638Y-112939017D01*
X220238874Y-113466965D01*
X220073174Y-114300000D01*
X220238874Y-115133035D01*
X220710751Y-115839249D01*
X221416965Y-116311126D01*
X222250000Y-116476826D01*
X223083035Y-116311126D01*
X223610983Y-115958362D01*
X227039984Y-112529362D01*
X227218249Y-112410249D01*
X227690126Y-111704036D01*
X227814000Y-111081279D01*
X227814000Y-111081276D01*
X227855826Y-110871001D01*
X227814000Y-110660726D01*
X227814000Y-84220774D01*
X227855826Y-84010499D01*
X227814000Y-83800222D01*
X227814000Y-83800221D01*
X227690126Y-83177464D01*
X227218249Y-82471251D01*
X227039984Y-82352138D01*
X212834929Y-68147084D01*
X212831126Y-68127964D01*
X212831086Y-68127904D01*
X212831072Y-68127834D01*
X212596251Y-67776449D01*
X212359249Y-67421751D01*
X212180926Y-67302599D01*
X208604325Y-63726460D01*
X208485249Y-63548251D01*
X208306924Y-63429098D01*
X208306876Y-63429050D01*
X208140917Y-63318175D01*
X207779036Y-63076374D01*
X207778962Y-63076359D01*
X207778905Y-63076321D01*
X207377113Y-62996427D01*
X207156279Y-62952500D01*
X207156205Y-62952500D01*
X206945860Y-62910674D01*
X206735656Y-62952500D01*
X182201275Y-62952500D01*
X181991000Y-62910674D01*
X181780725Y-62952500D01*
X157182273Y-62952500D01*
X156971999Y-62910674D01*
X156761726Y-62952500D01*
X156761721Y-62952500D01*
X156138964Y-63076374D01*
X155432751Y-63548251D01*
X155313638Y-63726516D01*
X153071017Y-65969138D01*
X152892752Y-66088251D01*
X152773639Y-66266516D01*
X152773638Y-66266517D01*
X152420874Y-66794465D01*
X152372830Y-67036000D01*
X152297000Y-67417221D01*
X152297000Y-67417225D01*
X152255174Y-67627500D01*
X152297000Y-67837775D01*
X152297000Y-67926654D01*
X151239379Y-68984275D01*
X151226250Y-68495565D01*
X150978123Y-67896533D01*
X150685320Y-67767285D01*
X149531605Y-68921000D01*
X149545748Y-68935143D01*
X149366143Y-69114748D01*
X149352000Y-69100605D01*
X148198285Y-70254320D01*
X148327533Y-70547123D01*
X149027806Y-70815388D01*
X149418769Y-70804885D01*
X139309155Y-80914500D01*
X138181080Y-80914500D01*
X137933315Y-80963783D01*
X137723271Y-81104131D01*
X137582923Y-81314175D01*
X137533640Y-81561940D01*
X137533640Y-85062060D01*
X137582923Y-85309825D01*
X137723271Y-85519869D01*
X137882016Y-85625940D01*
X137217150Y-85625940D01*
X137058400Y-85784690D01*
X137058400Y-87884000D01*
X139157710Y-87884000D01*
X139316460Y-87725250D01*
X139316460Y-86134630D01*
X139219787Y-85901241D01*
X139041158Y-85722613D01*
X139009500Y-85709500D01*
X139268582Y-85709500D01*
X140867000Y-87307866D01*
X140867000Y-87825214D01*
X139316460Y-89375901D01*
X139316460Y-88296750D01*
X139157710Y-88138000D01*
X137058400Y-88138000D01*
X137058400Y-90237310D01*
X137217150Y-90396060D01*
X138296398Y-90396060D01*
X136847595Y-91845000D01*
X135679721Y-91845000D01*
X135056964Y-91968874D01*
X134350751Y-92440751D01*
X133878874Y-93146964D01*
X133713173Y-93980000D01*
X130504000Y-93980000D01*
X130504000Y-88296750D01*
X134546340Y-88296750D01*
X134546340Y-89887370D01*
X134643013Y-90120759D01*
X134821642Y-90299387D01*
X135055031Y-90396060D01*
X136645650Y-90396060D01*
X136804400Y-90237310D01*
X136804400Y-88138000D01*
X134705090Y-88138000D01*
X134546340Y-88296750D01*
X130504000Y-88296750D01*
X130504000Y-83597750D01*
X131546600Y-83597750D01*
X131546600Y-85188370D01*
X131643273Y-85421759D01*
X131821902Y-85600387D01*
X132055291Y-85697060D01*
X133645910Y-85697060D01*
X133804660Y-85538310D01*
X133804660Y-83439000D01*
X134058660Y-83439000D01*
X134058660Y-85538310D01*
X134217410Y-85697060D01*
X134883332Y-85697060D01*
X134821642Y-85722613D01*
X134643013Y-85901241D01*
X134546340Y-86134630D01*
X134546340Y-87725250D01*
X134705090Y-87884000D01*
X136804400Y-87884000D01*
X136804400Y-85784690D01*
X136645650Y-85625940D01*
X135979728Y-85625940D01*
X136041418Y-85600387D01*
X136220047Y-85421759D01*
X136316720Y-85188370D01*
X136316720Y-83597750D01*
X136157970Y-83439000D01*
X134058660Y-83439000D01*
X133804660Y-83439000D01*
X131705350Y-83439000D01*
X131546600Y-83597750D01*
X130504000Y-83597750D01*
X130504000Y-81435630D01*
X131546600Y-81435630D01*
X131546600Y-83026250D01*
X131705350Y-83185000D01*
X133804660Y-83185000D01*
X133804660Y-81085690D01*
X134058660Y-81085690D01*
X134058660Y-83185000D01*
X136157970Y-83185000D01*
X136316720Y-83026250D01*
X136316720Y-81435630D01*
X136220047Y-81202241D01*
X136041418Y-81023613D01*
X135808029Y-80926940D01*
X134217410Y-80926940D01*
X134058660Y-81085690D01*
X133804660Y-81085690D01*
X133645910Y-80926940D01*
X132055291Y-80926940D01*
X131821902Y-81023613D01*
X131643273Y-81202241D01*
X131546600Y-81435630D01*
X130504000Y-81435630D01*
X130504000Y-68596806D01*
X147457612Y-68596806D01*
X147477750Y-69346435D01*
X147725877Y-69945467D01*
X148018680Y-70074715D01*
X149172395Y-68921000D01*
X148018680Y-67767285D01*
X147725877Y-67896533D01*
X147457612Y-68596806D01*
X130504000Y-68596806D01*
X130504000Y-67587680D01*
X148198285Y-67587680D01*
X149352000Y-68741395D01*
X150505715Y-67587680D01*
X150376467Y-67294877D01*
X149676194Y-67026612D01*
X148926565Y-67046750D01*
X148327533Y-67294877D01*
X148198285Y-67587680D01*
X130504000Y-67587680D01*
X130504000Y-61416000D01*
X228906000Y-61416000D01*
X228906001Y-159818000D01*
G36*
X166371000Y-150050724D02*
X166371000Y-150681276D01*
X166612302Y-151263830D01*
X167058170Y-151709698D01*
X167089112Y-151722515D01*
X167045472Y-151731195D01*
X166810619Y-151888119D01*
X166653695Y-152122972D01*
X166598591Y-152400000D01*
X166612501Y-152469931D01*
X166612501Y-154714475D01*
X166465698Y-154567673D01*
X166232309Y-154471000D01*
X165641750Y-154471000D01*
X165483000Y-154629750D01*
X165483000Y-156008234D01*
X165229000Y-156027520D01*
X165229000Y-154629750D01*
X165070250Y-154471000D01*
X164479691Y-154471000D01*
X164246302Y-154567673D01*
X164067673Y-154746301D01*
X163971000Y-154979690D01*
X163971000Y-156820250D01*
X164129750Y-156979000D01*
X164258234Y-156979000D01*
X164277520Y-157233000D01*
X164129750Y-157233000D01*
X163971000Y-157391750D01*
X163971000Y-159232310D01*
X164067673Y-159465699D01*
X164246302Y-159644327D01*
X164479691Y-159741000D01*
X165070250Y-159741000D01*
X165229000Y-159582250D01*
X165229000Y-158203766D01*
X165483000Y-158184480D01*
X165483000Y-159582250D01*
X165641750Y-159741000D01*
X166232309Y-159741000D01*
X166465698Y-159644327D01*
X166612500Y-159497526D01*
X166612500Y-159818000D01*
X161111000Y-159818000D01*
X161111000Y-159679410D01*
X161259691Y-159741000D01*
X161850250Y-159741000D01*
X162009000Y-159582250D01*
X162009000Y-158203766D01*
X162263000Y-158184480D01*
X162263000Y-159582250D01*
X162421750Y-159741000D01*
X163012309Y-159741000D01*
X163245698Y-159644327D01*
X163424327Y-159465699D01*
X163521000Y-159232310D01*
X163521000Y-157391750D01*
X163362250Y-157233000D01*
X163233766Y-157233000D01*
X163214480Y-156979000D01*
X163362250Y-156979000D01*
X163521000Y-156820250D01*
X163521000Y-154979690D01*
X163424327Y-154746301D01*
X163245698Y-154567673D01*
X163012309Y-154471000D01*
X162421750Y-154471000D01*
X162263000Y-154629750D01*
X162263000Y-156008234D01*
X162009000Y-156027520D01*
X162009000Y-154629750D01*
X161850250Y-154471000D01*
X161259691Y-154471000D01*
X161111000Y-154532590D01*
X161111000Y-152469926D01*
X161124909Y-152400000D01*
X161069805Y-152122972D01*
X160912881Y-151888119D01*
X160678028Y-151731195D01*
X160531483Y-151702045D01*
X160969698Y-151263830D01*
X161211000Y-150681276D01*
X161211000Y-150050724D01*
X160987273Y-149510600D01*
X166594727Y-149510600D01*
X166371000Y-150050724D01*
X166371000Y-150050724D01*
G37*
X166371000Y-150050724D02*
X166371000Y-150681276D01*
X166612302Y-151263830D01*
X167058170Y-151709698D01*
X167089112Y-151722515D01*
X167045472Y-151731195D01*
X166810619Y-151888119D01*
X166653695Y-152122972D01*
X166598591Y-152400000D01*
X166612501Y-152469931D01*
X166612501Y-154714475D01*
X166465698Y-154567673D01*
X166232309Y-154471000D01*
X165641750Y-154471000D01*
X165483000Y-154629750D01*
X165483000Y-156008234D01*
X165229000Y-156027520D01*
X165229000Y-154629750D01*
X165070250Y-154471000D01*
X164479691Y-154471000D01*
X164246302Y-154567673D01*
X164067673Y-154746301D01*
X163971000Y-154979690D01*
X163971000Y-156820250D01*
X164129750Y-156979000D01*
X164258234Y-156979000D01*
X164277520Y-157233000D01*
X164129750Y-157233000D01*
X163971000Y-157391750D01*
X163971000Y-159232310D01*
X164067673Y-159465699D01*
X164246302Y-159644327D01*
X164479691Y-159741000D01*
X165070250Y-159741000D01*
X165229000Y-159582250D01*
X165229000Y-158203766D01*
X165483000Y-158184480D01*
X165483000Y-159582250D01*
X165641750Y-159741000D01*
X166232309Y-159741000D01*
X166465698Y-159644327D01*
X166612500Y-159497526D01*
X166612500Y-159818000D01*
X161111000Y-159818000D01*
X161111000Y-159679410D01*
X161259691Y-159741000D01*
X161850250Y-159741000D01*
X162009000Y-159582250D01*
X162009000Y-158203766D01*
X162263000Y-158184480D01*
X162263000Y-159582250D01*
X162421750Y-159741000D01*
X163012309Y-159741000D01*
X163245698Y-159644327D01*
X163424327Y-159465699D01*
X163521000Y-159232310D01*
X163521000Y-157391750D01*
X163362250Y-157233000D01*
X163233766Y-157233000D01*
X163214480Y-156979000D01*
X163362250Y-156979000D01*
X163521000Y-156820250D01*
X163521000Y-154979690D01*
X163424327Y-154746301D01*
X163245698Y-154567673D01*
X163012309Y-154471000D01*
X162421750Y-154471000D01*
X162263000Y-154629750D01*
X162263000Y-156008234D01*
X162009000Y-156027520D01*
X162009000Y-154629750D01*
X161850250Y-154471000D01*
X161259691Y-154471000D01*
X161111000Y-154532590D01*
X161111000Y-152469926D01*
X161124909Y-152400000D01*
X161069805Y-152122972D01*
X160912881Y-151888119D01*
X160678028Y-151731195D01*
X160531483Y-151702045D01*
X160969698Y-151263830D01*
X161211000Y-150681276D01*
X161211000Y-150050724D01*
X160987273Y-149510600D01*
X166594727Y-149510600D01*
X166371000Y-150050724D01*
G36*
X145183000Y-157045110D02*
X145183000Y-157166890D01*
X145050143Y-157299748D01*
X145036000Y-157285605D01*
X145021858Y-157299748D01*
X144842253Y-157120143D01*
X144856395Y-157106000D01*
X144842253Y-157091858D01*
X145021858Y-156912253D01*
X145036000Y-156926395D01*
X145050143Y-156912253D01*
X145183000Y-157045110D01*
X145183000Y-157045110D01*
G37*
X145183000Y-157045110D02*
X145183000Y-157166890D01*
X145050143Y-157299748D01*
X145036000Y-157285605D01*
X145021858Y-157299748D01*
X144842253Y-157120143D01*
X144856395Y-157106000D01*
X144842253Y-157091858D01*
X145021858Y-156912253D01*
X145036000Y-156926395D01*
X145050143Y-156912253D01*
X145183000Y-157045110D01*
G36*
X162329748Y-157091858D02*
X162315605Y-157106000D01*
X162329748Y-157120143D01*
X162150143Y-157299748D01*
X162136000Y-157285605D01*
X162121858Y-157299748D01*
X161989000Y-157166890D01*
X161989000Y-157045110D01*
X162121858Y-156912253D01*
X162136000Y-156926395D01*
X162150143Y-156912253D01*
X162329748Y-157091858D01*
X162329748Y-157091858D01*
G37*
X162329748Y-157091858D02*
X162315605Y-157106000D01*
X162329748Y-157120143D01*
X162150143Y-157299748D01*
X162136000Y-157285605D01*
X162121858Y-157299748D01*
X161989000Y-157166890D01*
X161989000Y-157045110D01*
X162121858Y-156912253D01*
X162136000Y-156926395D01*
X162150143Y-156912253D01*
X162329748Y-157091858D01*
G36*
X165503000Y-157045110D02*
X165503000Y-157166890D01*
X165370143Y-157299748D01*
X165356000Y-157285605D01*
X165341858Y-157299748D01*
X165162253Y-157120143D01*
X165176395Y-157106000D01*
X165162253Y-157091858D01*
X165341858Y-156912253D01*
X165356000Y-156926395D01*
X165370143Y-156912253D01*
X165503000Y-157045110D01*
X165503000Y-157045110D01*
G37*
X165503000Y-157045110D02*
X165503000Y-157166890D01*
X165370143Y-157299748D01*
X165356000Y-157285605D01*
X165341858Y-157299748D01*
X165162253Y-157120143D01*
X165176395Y-157106000D01*
X165162253Y-157091858D01*
X165341858Y-156912253D01*
X165356000Y-156926395D01*
X165370143Y-156912253D01*
X165503000Y-157045110D01*
G36*
X182649748Y-157091858D02*
X182635605Y-157106000D01*
X182649748Y-157120143D01*
X182470143Y-157299748D01*
X182456000Y-157285605D01*
X182441858Y-157299748D01*
X182309000Y-157166890D01*
X182309000Y-157045110D01*
X182441858Y-156912253D01*
X182456000Y-156926395D01*
X182470143Y-156912253D01*
X182649748Y-157091858D01*
X182649748Y-157091858D01*
G37*
X182649748Y-157091858D02*
X182635605Y-157106000D01*
X182649748Y-157120143D01*
X182470143Y-157299748D01*
X182456000Y-157285605D01*
X182441858Y-157299748D01*
X182309000Y-157166890D01*
X182309000Y-157045110D01*
X182441858Y-156912253D01*
X182456000Y-156926395D01*
X182470143Y-156912253D01*
X182649748Y-157091858D01*
G36*
X170288998Y-151690000D02*
X170251250Y-151690000D01*
X170288998Y-151652252D01*
X170288998Y-151690000D01*
X170288998Y-151690000D01*
G37*
X170288998Y-151690000D02*
X170251250Y-151690000D01*
X170288998Y-151652252D01*
X170288998Y-151690000D01*
G36*
X172328998Y-151690000D02*
X172291250Y-151690000D01*
X172328998Y-151652252D01*
X172328998Y-151690000D01*
X172328998Y-151690000D01*
G37*
X172328998Y-151690000D02*
X172291250Y-151690000D01*
X172328998Y-151652252D01*
X172328998Y-151690000D01*
G36*
X172620750Y-151690000D02*
X172583002Y-151690000D01*
X172583002Y-151652252D01*
X172620750Y-151690000D01*
X172620750Y-151690000D01*
G37*
X172620750Y-151690000D02*
X172583002Y-151690000D01*
X172583002Y-151652252D01*
X172620750Y-151690000D01*
G36*
X170580750Y-151690000D02*
X170543002Y-151690000D01*
X170543002Y-151652252D01*
X170580750Y-151690000D01*
X170580750Y-151690000D01*
G37*
X170580750Y-151690000D02*
X170543002Y-151690000D01*
X170543002Y-151652252D01*
X170580750Y-151690000D01*
G36*
X174568560Y-150273000D02*
X174423440Y-150273000D01*
X174423440Y-149979000D01*
X174568560Y-149979000D01*
X174568560Y-150273000D01*
X174568560Y-150273000D01*
G37*
X174568560Y-150273000D02*
X174423440Y-150273000D01*
X174423440Y-149979000D01*
X174568560Y-149979000D01*
X174568560Y-150273000D01*
G36*
X150168560Y-150273000D02*
X149969000Y-150273000D01*
X149969000Y-150253000D01*
X149949000Y-150253000D01*
X149949000Y-149999000D01*
X149969000Y-149999000D01*
X149969000Y-149979000D01*
X150168560Y-149979000D01*
X150168560Y-150273000D01*
X150168560Y-150273000D01*
G37*
X150168560Y-150273000D02*
X149969000Y-150273000D01*
X149969000Y-150253000D01*
X149949000Y-150253000D01*
X149949000Y-149999000D01*
X149969000Y-149999000D01*
X149969000Y-149979000D01*
X150168560Y-149979000D01*
X150168560Y-150273000D01*
G36*
X152208560Y-150273000D02*
X152063440Y-150273000D01*
X152063440Y-149979000D01*
X152208560Y-149979000D01*
X152208560Y-150273000D01*
X152208560Y-150273000D01*
G37*
X152208560Y-150273000D02*
X152063440Y-150273000D01*
X152063440Y-149979000D01*
X152208560Y-149979000D01*
X152208560Y-150273000D01*
G36*
X154248560Y-150273000D02*
X154103440Y-150273000D01*
X154103440Y-149979000D01*
X154248560Y-149979000D01*
X154248560Y-150273000D01*
X154248560Y-150273000D01*
G37*
X154248560Y-150273000D02*
X154103440Y-150273000D01*
X154103440Y-149979000D01*
X154248560Y-149979000D01*
X154248560Y-150273000D01*
G36*
X157363000Y-149999000D02*
X157383000Y-149999000D01*
X157383000Y-150253000D01*
X157363000Y-150253000D01*
X157363000Y-150273000D01*
X157242036Y-150273000D01*
X157251000Y-150227935D01*
X157251000Y-149979000D01*
X157363000Y-149979000D01*
X157363000Y-149999000D01*
X157363000Y-149999000D01*
G37*
X157363000Y-149999000D02*
X157383000Y-149999000D01*
X157383000Y-150253000D01*
X157363000Y-150253000D01*
X157363000Y-150273000D01*
X157242036Y-150273000D01*
X157251000Y-150227935D01*
X157251000Y-149979000D01*
X157363000Y-149979000D01*
X157363000Y-149999000D01*
G36*
X170488560Y-150273000D02*
X170289000Y-150273000D01*
X170289000Y-150253000D01*
X170269000Y-150253000D01*
X170269000Y-149999000D01*
X170289000Y-149999000D01*
X170289000Y-149979000D01*
X170488560Y-149979000D01*
X170488560Y-150273000D01*
X170488560Y-150273000D01*
G37*
X170488560Y-150273000D02*
X170289000Y-150273000D01*
X170289000Y-150253000D01*
X170269000Y-150253000D01*
X170269000Y-149999000D01*
X170289000Y-149999000D01*
X170289000Y-149979000D01*
X170488560Y-149979000D01*
X170488560Y-150273000D01*
G36*
X172528560Y-150273000D02*
X172383440Y-150273000D01*
X172383440Y-149979000D01*
X172528560Y-149979000D01*
X172528560Y-150273000D01*
X172528560Y-150273000D01*
G37*
X172528560Y-150273000D02*
X172383440Y-150273000D01*
X172383440Y-149979000D01*
X172528560Y-149979000D01*
X172528560Y-150273000D01*
G36*
X177683000Y-149999000D02*
X177703000Y-149999000D01*
X177703000Y-150253000D01*
X177683000Y-150253000D01*
X177683000Y-150273000D01*
X177562036Y-150273000D01*
X177571000Y-150227935D01*
X177571000Y-149979000D01*
X177683000Y-149979000D01*
X177683000Y-149999000D01*
X177683000Y-149999000D01*
G37*
X177683000Y-149999000D02*
X177703000Y-149999000D01*
X177703000Y-150253000D01*
X177683000Y-150253000D01*
X177683000Y-150273000D01*
X177562036Y-150273000D01*
X177571000Y-150227935D01*
X177571000Y-149979000D01*
X177683000Y-149979000D01*
X177683000Y-149999000D01*
G36*
X202332165Y-95227855D02*
X202440093Y-95272560D01*
X201247000Y-95272560D01*
X200999235Y-95321843D01*
X200789191Y-95462191D01*
X200648843Y-95672235D01*
X200622224Y-95806060D01*
X200373771Y-95972071D01*
X200331371Y-96035527D01*
X195110099Y-101256800D01*
X191129000Y-101256800D01*
X191129000Y-101199500D01*
X191438183Y-101199500D01*
X191769255Y-101133646D01*
X192144689Y-100882789D01*
X192395546Y-100507355D01*
X192483635Y-100064500D01*
X192395546Y-99621645D01*
X192144689Y-99246211D01*
X191769255Y-98995354D01*
X191438183Y-98929500D01*
X190963375Y-98929500D01*
X190951809Y-98912191D01*
X190741765Y-98771843D01*
X190636871Y-98750978D01*
X190561854Y-98700854D01*
X190119000Y-98612765D01*
X189676145Y-98700854D01*
X189601128Y-98750979D01*
X189496235Y-98771843D01*
X189286191Y-98912191D01*
X189145843Y-99122235D01*
X189128495Y-99209452D01*
X189049854Y-99327146D01*
X188989613Y-99630000D01*
X186602541Y-99630000D01*
X186540000Y-99617560D01*
X185540000Y-99617560D01*
X185292235Y-99666843D01*
X185082191Y-99807191D01*
X184941843Y-100017235D01*
X184892560Y-100265000D01*
X184892560Y-100515000D01*
X184913217Y-100618852D01*
X184905000Y-100638690D01*
X184905000Y-100668750D01*
X184927647Y-100691397D01*
X184941843Y-100762765D01*
X185026859Y-100890000D01*
X184941843Y-101017235D01*
X184927647Y-101088603D01*
X184905000Y-101111250D01*
X184905000Y-101141310D01*
X184913217Y-101161148D01*
X184892560Y-101265000D01*
X184892560Y-101515000D01*
X184917424Y-101640000D01*
X184892560Y-101765000D01*
X184892560Y-102015000D01*
X184917424Y-102140000D01*
X184892560Y-102265000D01*
X184892560Y-102515000D01*
X184917424Y-102640000D01*
X184892560Y-102765000D01*
X184892560Y-103015000D01*
X184917424Y-103140000D01*
X184892560Y-103265000D01*
X184892560Y-103515000D01*
X184917424Y-103640000D01*
X184892560Y-103765000D01*
X184892560Y-104015000D01*
X184917424Y-104140000D01*
X184892560Y-104265000D01*
X184892560Y-104515000D01*
X184917424Y-104640000D01*
X184892560Y-104765000D01*
X184892560Y-105015000D01*
X184917424Y-105140000D01*
X184892560Y-105265000D01*
X184892560Y-105515000D01*
X184917424Y-105640000D01*
X184892560Y-105765000D01*
X184892560Y-106015000D01*
X184917424Y-106140000D01*
X184892560Y-106265000D01*
X184892560Y-106515000D01*
X184917424Y-106640000D01*
X184892560Y-106765000D01*
X184892560Y-107015000D01*
X184917424Y-107140000D01*
X184892560Y-107265000D01*
X184892560Y-107515000D01*
X184917424Y-107640000D01*
X184892560Y-107765000D01*
X184892560Y-108015000D01*
X184941843Y-108262765D01*
X185082191Y-108472809D01*
X185292235Y-108613157D01*
X185540000Y-108662440D01*
X186540000Y-108662440D01*
X186602541Y-108650000D01*
X186790699Y-108650000D01*
X211281606Y-133140908D01*
X211081642Y-133234817D01*
X210691355Y-133663076D01*
X210521524Y-134073110D01*
X210642845Y-134303000D01*
X211836000Y-134303000D01*
X211836000Y-134283000D01*
X212090000Y-134283000D01*
X212090000Y-134303000D01*
X212110000Y-134303000D01*
X212110000Y-134557000D01*
X212090000Y-134557000D01*
X212090000Y-134577000D01*
X211836000Y-134577000D01*
X211836000Y-134557000D01*
X210642845Y-134557000D01*
X210521524Y-134786890D01*
X210691355Y-135196924D01*
X211081642Y-135625183D01*
X211209853Y-135685394D01*
X211209429Y-135687526D01*
X210892375Y-135899375D01*
X210564161Y-136390582D01*
X210448908Y-136970000D01*
X210564161Y-137549418D01*
X210892375Y-138040625D01*
X211190761Y-138240000D01*
X210892375Y-138439375D01*
X210684822Y-138750000D01*
X198852102Y-138750000D01*
X197153101Y-137051000D01*
X199121250Y-137051000D01*
X199280000Y-136892250D01*
X199280000Y-133043000D01*
X199534000Y-133043000D01*
X199534000Y-136892250D01*
X199692750Y-137051000D01*
X203033310Y-137051000D01*
X203266699Y-136954327D01*
X203445327Y-136775698D01*
X203542000Y-136542309D01*
X203542000Y-133201750D01*
X203383250Y-133043000D01*
X199534000Y-133043000D01*
X199280000Y-133043000D01*
X199260000Y-133043000D01*
X199260000Y-132789000D01*
X199280000Y-132789000D01*
X199280000Y-128939750D01*
X199534000Y-128939750D01*
X199534000Y-132789000D01*
X203383250Y-132789000D01*
X203542000Y-132630250D01*
X203542000Y-129289691D01*
X203445327Y-129056302D01*
X203266699Y-128877673D01*
X203033310Y-128781000D01*
X199692750Y-128781000D01*
X199534000Y-128939750D01*
X199280000Y-128939750D01*
X199121250Y-128781000D01*
X196060400Y-128781000D01*
X196060400Y-121950548D01*
X196075288Y-121875700D01*
X196060400Y-121800852D01*
X196060400Y-121800848D01*
X196016304Y-121579163D01*
X196016304Y-121579162D01*
X195890729Y-121391227D01*
X195848329Y-121327771D01*
X195784873Y-121285371D01*
X184858634Y-110359133D01*
X184862440Y-110340000D01*
X184862440Y-109340000D01*
X184813157Y-109092235D01*
X184672809Y-108882191D01*
X184462765Y-108741843D01*
X184215000Y-108692560D01*
X183965000Y-108692560D01*
X183840000Y-108717424D01*
X183715000Y-108692560D01*
X183465000Y-108692560D01*
X183340000Y-108717424D01*
X183215000Y-108692560D01*
X182965000Y-108692560D01*
X182840000Y-108717424D01*
X182715000Y-108692560D01*
X182465000Y-108692560D01*
X182361148Y-108713217D01*
X182341310Y-108705000D01*
X182311250Y-108705000D01*
X182288603Y-108727647D01*
X182217235Y-108741843D01*
X182090000Y-108826859D01*
X181962765Y-108741843D01*
X181891397Y-108727647D01*
X181868750Y-108705000D01*
X181838690Y-108705000D01*
X181818852Y-108713217D01*
X181715000Y-108692560D01*
X181465000Y-108692560D01*
X181340000Y-108717424D01*
X181215000Y-108692560D01*
X180965000Y-108692560D01*
X180840000Y-108717424D01*
X180715000Y-108692560D01*
X180465000Y-108692560D01*
X180340000Y-108717424D01*
X180215000Y-108692560D01*
X179965000Y-108692560D01*
X179840000Y-108717424D01*
X179715000Y-108692560D01*
X179465000Y-108692560D01*
X179340000Y-108717424D01*
X179215000Y-108692560D01*
X178965000Y-108692560D01*
X178840000Y-108717424D01*
X178715000Y-108692560D01*
X178465000Y-108692560D01*
X178340000Y-108717424D01*
X178215000Y-108692560D01*
X177965000Y-108692560D01*
X177840000Y-108717424D01*
X177715000Y-108692560D01*
X177465000Y-108692560D01*
X177340000Y-108717424D01*
X177215000Y-108692560D01*
X176965000Y-108692560D01*
X176840000Y-108717424D01*
X176715000Y-108692560D01*
X176465000Y-108692560D01*
X176217235Y-108741843D01*
X176007191Y-108882191D01*
X175866843Y-109092235D01*
X175832916Y-109262800D01*
X175566583Y-109262800D01*
X175454800Y-109240565D01*
X175343017Y-109262800D01*
X175011945Y-109328654D01*
X174636511Y-109579511D01*
X174573191Y-109674277D01*
X174244300Y-110003168D01*
X172891131Y-108650000D01*
X174077459Y-108650000D01*
X174140000Y-108662440D01*
X175140000Y-108662440D01*
X175387765Y-108613157D01*
X175597809Y-108472809D01*
X175738157Y-108262765D01*
X175787440Y-108015000D01*
X175787440Y-107765000D01*
X175766783Y-107661148D01*
X175775000Y-107641310D01*
X175775000Y-107611250D01*
X175752353Y-107588603D01*
X175738157Y-107517235D01*
X175653141Y-107390000D01*
X175738157Y-107262765D01*
X175752353Y-107191397D01*
X175775000Y-107168750D01*
X175775000Y-107138690D01*
X175766783Y-107118852D01*
X175787440Y-107015000D01*
X175787440Y-106765000D01*
X175762576Y-106640000D01*
X175787440Y-106515000D01*
X175787440Y-106265000D01*
X175766783Y-106161148D01*
X175775000Y-106141310D01*
X175775000Y-106111250D01*
X175752353Y-106088603D01*
X175738157Y-106017235D01*
X175738001Y-106017002D01*
X175754634Y-106017002D01*
X175766217Y-106021800D01*
X176138183Y-106021800D01*
X176481835Y-105879455D01*
X176744855Y-105616435D01*
X176887200Y-105272783D01*
X176887200Y-105226601D01*
X178074473Y-104039329D01*
X178137929Y-103996929D01*
X178305904Y-103745537D01*
X178350000Y-103523852D01*
X178350000Y-103523847D01*
X178364888Y-103449000D01*
X178350000Y-103374153D01*
X178350000Y-99564565D01*
X178465000Y-99587440D01*
X178715000Y-99587440D01*
X178840000Y-99562576D01*
X178965000Y-99587440D01*
X179215000Y-99587440D01*
X179340000Y-99562576D01*
X179465000Y-99587440D01*
X179715000Y-99587440D01*
X179840000Y-99562576D01*
X179965000Y-99587440D01*
X180215000Y-99587440D01*
X180340000Y-99562576D01*
X180465000Y-99587440D01*
X180715000Y-99587440D01*
X180840000Y-99562576D01*
X180965000Y-99587440D01*
X181215000Y-99587440D01*
X181340000Y-99562576D01*
X181465000Y-99587440D01*
X181715000Y-99587440D01*
X181840000Y-99562576D01*
X181965000Y-99587440D01*
X182215000Y-99587440D01*
X182340000Y-99562576D01*
X182465000Y-99587440D01*
X182715000Y-99587440D01*
X182840000Y-99562576D01*
X182965000Y-99587440D01*
X183215000Y-99587440D01*
X183340000Y-99562576D01*
X183465000Y-99587440D01*
X183715000Y-99587440D01*
X183840000Y-99562576D01*
X183965000Y-99587440D01*
X184215000Y-99587440D01*
X184462765Y-99538157D01*
X184672809Y-99397809D01*
X184813157Y-99187765D01*
X184862440Y-98940000D01*
X184862440Y-98374700D01*
X196184453Y-98374700D01*
X196259300Y-98389588D01*
X196334147Y-98374700D01*
X196334152Y-98374700D01*
X196555837Y-98330604D01*
X196807229Y-98162629D01*
X196849631Y-98099170D01*
X199753602Y-95195200D01*
X202299510Y-95195200D01*
X202332165Y-95227855D01*
X202332165Y-95227855D01*
G37*
X202332165Y-95227855D02*
X202440093Y-95272560D01*
X201247000Y-95272560D01*
X200999235Y-95321843D01*
X200789191Y-95462191D01*
X200648843Y-95672235D01*
X200622224Y-95806060D01*
X200373771Y-95972071D01*
X200331371Y-96035527D01*
X195110099Y-101256800D01*
X191129000Y-101256800D01*
X191129000Y-101199500D01*
X191438183Y-101199500D01*
X191769255Y-101133646D01*
X192144689Y-100882789D01*
X192395546Y-100507355D01*
X192483635Y-100064500D01*
X192395546Y-99621645D01*
X192144689Y-99246211D01*
X191769255Y-98995354D01*
X191438183Y-98929500D01*
X190963375Y-98929500D01*
X190951809Y-98912191D01*
X190741765Y-98771843D01*
X190636871Y-98750978D01*
X190561854Y-98700854D01*
X190119000Y-98612765D01*
X189676145Y-98700854D01*
X189601128Y-98750979D01*
X189496235Y-98771843D01*
X189286191Y-98912191D01*
X189145843Y-99122235D01*
X189128495Y-99209452D01*
X189049854Y-99327146D01*
X188989613Y-99630000D01*
X186602541Y-99630000D01*
X186540000Y-99617560D01*
X185540000Y-99617560D01*
X185292235Y-99666843D01*
X185082191Y-99807191D01*
X184941843Y-100017235D01*
X184892560Y-100265000D01*
X184892560Y-100515000D01*
X184913217Y-100618852D01*
X184905000Y-100638690D01*
X184905000Y-100668750D01*
X184927647Y-100691397D01*
X184941843Y-100762765D01*
X185026859Y-100890000D01*
X184941843Y-101017235D01*
X184927647Y-101088603D01*
X184905000Y-101111250D01*
X184905000Y-101141310D01*
X184913217Y-101161148D01*
X184892560Y-101265000D01*
X184892560Y-101515000D01*
X184917424Y-101640000D01*
X184892560Y-101765000D01*
X184892560Y-102015000D01*
X184917424Y-102140000D01*
X184892560Y-102265000D01*
X184892560Y-102515000D01*
X184917424Y-102640000D01*
X184892560Y-102765000D01*
X184892560Y-103015000D01*
X184917424Y-103140000D01*
X184892560Y-103265000D01*
X184892560Y-103515000D01*
X184917424Y-103640000D01*
X184892560Y-103765000D01*
X184892560Y-104015000D01*
X184917424Y-104140000D01*
X184892560Y-104265000D01*
X184892560Y-104515000D01*
X184917424Y-104640000D01*
X184892560Y-104765000D01*
X184892560Y-105015000D01*
X184917424Y-105140000D01*
X184892560Y-105265000D01*
X184892560Y-105515000D01*
X184917424Y-105640000D01*
X184892560Y-105765000D01*
X184892560Y-106015000D01*
X184917424Y-106140000D01*
X184892560Y-106265000D01*
X184892560Y-106515000D01*
X184917424Y-106640000D01*
X184892560Y-106765000D01*
X184892560Y-107015000D01*
X184917424Y-107140000D01*
X184892560Y-107265000D01*
X184892560Y-107515000D01*
X184917424Y-107640000D01*
X184892560Y-107765000D01*
X184892560Y-108015000D01*
X184941843Y-108262765D01*
X185082191Y-108472809D01*
X185292235Y-108613157D01*
X185540000Y-108662440D01*
X186540000Y-108662440D01*
X186602541Y-108650000D01*
X186790699Y-108650000D01*
X211281606Y-133140908D01*
X211081642Y-133234817D01*
X210691355Y-133663076D01*
X210521524Y-134073110D01*
X210642845Y-134303000D01*
X211836000Y-134303000D01*
X211836000Y-134283000D01*
X212090000Y-134283000D01*
X212090000Y-134303000D01*
X212110000Y-134303000D01*
X212110000Y-134557000D01*
X212090000Y-134557000D01*
X212090000Y-134577000D01*
X211836000Y-134577000D01*
X211836000Y-134557000D01*
X210642845Y-134557000D01*
X210521524Y-134786890D01*
X210691355Y-135196924D01*
X211081642Y-135625183D01*
X211209853Y-135685394D01*
X211209429Y-135687526D01*
X210892375Y-135899375D01*
X210564161Y-136390582D01*
X210448908Y-136970000D01*
X210564161Y-137549418D01*
X210892375Y-138040625D01*
X211190761Y-138240000D01*
X210892375Y-138439375D01*
X210684822Y-138750000D01*
X198852102Y-138750000D01*
X197153101Y-137051000D01*
X199121250Y-137051000D01*
X199280000Y-136892250D01*
X199280000Y-133043000D01*
X199534000Y-133043000D01*
X199534000Y-136892250D01*
X199692750Y-137051000D01*
X203033310Y-137051000D01*
X203266699Y-136954327D01*
X203445327Y-136775698D01*
X203542000Y-136542309D01*
X203542000Y-133201750D01*
X203383250Y-133043000D01*
X199534000Y-133043000D01*
X199280000Y-133043000D01*
X199260000Y-133043000D01*
X199260000Y-132789000D01*
X199280000Y-132789000D01*
X199280000Y-128939750D01*
X199534000Y-128939750D01*
X199534000Y-132789000D01*
X203383250Y-132789000D01*
X203542000Y-132630250D01*
X203542000Y-129289691D01*
X203445327Y-129056302D01*
X203266699Y-128877673D01*
X203033310Y-128781000D01*
X199692750Y-128781000D01*
X199534000Y-128939750D01*
X199280000Y-128939750D01*
X199121250Y-128781000D01*
X196060400Y-128781000D01*
X196060400Y-121950548D01*
X196075288Y-121875700D01*
X196060400Y-121800852D01*
X196060400Y-121800848D01*
X196016304Y-121579163D01*
X196016304Y-121579162D01*
X195890729Y-121391227D01*
X195848329Y-121327771D01*
X195784873Y-121285371D01*
X184858634Y-110359133D01*
X184862440Y-110340000D01*
X184862440Y-109340000D01*
X184813157Y-109092235D01*
X184672809Y-108882191D01*
X184462765Y-108741843D01*
X184215000Y-108692560D01*
X183965000Y-108692560D01*
X183840000Y-108717424D01*
X183715000Y-108692560D01*
X183465000Y-108692560D01*
X183340000Y-108717424D01*
X183215000Y-108692560D01*
X182965000Y-108692560D01*
X182840000Y-108717424D01*
X182715000Y-108692560D01*
X182465000Y-108692560D01*
X182361148Y-108713217D01*
X182341310Y-108705000D01*
X182311250Y-108705000D01*
X182288603Y-108727647D01*
X182217235Y-108741843D01*
X182090000Y-108826859D01*
X181962765Y-108741843D01*
X181891397Y-108727647D01*
X181868750Y-108705000D01*
X181838690Y-108705000D01*
X181818852Y-108713217D01*
X181715000Y-108692560D01*
X181465000Y-108692560D01*
X181340000Y-108717424D01*
X181215000Y-108692560D01*
X180965000Y-108692560D01*
X180840000Y-108717424D01*
X180715000Y-108692560D01*
X180465000Y-108692560D01*
X180340000Y-108717424D01*
X180215000Y-108692560D01*
X179965000Y-108692560D01*
X179840000Y-108717424D01*
X179715000Y-108692560D01*
X179465000Y-108692560D01*
X179340000Y-108717424D01*
X179215000Y-108692560D01*
X178965000Y-108692560D01*
X178840000Y-108717424D01*
X178715000Y-108692560D01*
X178465000Y-108692560D01*
X178340000Y-108717424D01*
X178215000Y-108692560D01*
X177965000Y-108692560D01*
X177840000Y-108717424D01*
X177715000Y-108692560D01*
X177465000Y-108692560D01*
X177340000Y-108717424D01*
X177215000Y-108692560D01*
X176965000Y-108692560D01*
X176840000Y-108717424D01*
X176715000Y-108692560D01*
X176465000Y-108692560D01*
X176217235Y-108741843D01*
X176007191Y-108882191D01*
X175866843Y-109092235D01*
X175832916Y-109262800D01*
X175566583Y-109262800D01*
X175454800Y-109240565D01*
X175343017Y-109262800D01*
X175011945Y-109328654D01*
X174636511Y-109579511D01*
X174573191Y-109674277D01*
X174244300Y-110003168D01*
X172891131Y-108650000D01*
X174077459Y-108650000D01*
X174140000Y-108662440D01*
X175140000Y-108662440D01*
X175387765Y-108613157D01*
X175597809Y-108472809D01*
X175738157Y-108262765D01*
X175787440Y-108015000D01*
X175787440Y-107765000D01*
X175766783Y-107661148D01*
X175775000Y-107641310D01*
X175775000Y-107611250D01*
X175752353Y-107588603D01*
X175738157Y-107517235D01*
X175653141Y-107390000D01*
X175738157Y-107262765D01*
X175752353Y-107191397D01*
X175775000Y-107168750D01*
X175775000Y-107138690D01*
X175766783Y-107118852D01*
X175787440Y-107015000D01*
X175787440Y-106765000D01*
X175762576Y-106640000D01*
X175787440Y-106515000D01*
X175787440Y-106265000D01*
X175766783Y-106161148D01*
X175775000Y-106141310D01*
X175775000Y-106111250D01*
X175752353Y-106088603D01*
X175738157Y-106017235D01*
X175738001Y-106017002D01*
X175754634Y-106017002D01*
X175766217Y-106021800D01*
X176138183Y-106021800D01*
X176481835Y-105879455D01*
X176744855Y-105616435D01*
X176887200Y-105272783D01*
X176887200Y-105226601D01*
X178074473Y-104039329D01*
X178137929Y-103996929D01*
X178305904Y-103745537D01*
X178350000Y-103523852D01*
X178350000Y-103523847D01*
X178364888Y-103449000D01*
X178350000Y-103374153D01*
X178350000Y-99564565D01*
X178465000Y-99587440D01*
X178715000Y-99587440D01*
X178840000Y-99562576D01*
X178965000Y-99587440D01*
X179215000Y-99587440D01*
X179340000Y-99562576D01*
X179465000Y-99587440D01*
X179715000Y-99587440D01*
X179840000Y-99562576D01*
X179965000Y-99587440D01*
X180215000Y-99587440D01*
X180340000Y-99562576D01*
X180465000Y-99587440D01*
X180715000Y-99587440D01*
X180840000Y-99562576D01*
X180965000Y-99587440D01*
X181215000Y-99587440D01*
X181340000Y-99562576D01*
X181465000Y-99587440D01*
X181715000Y-99587440D01*
X181840000Y-99562576D01*
X181965000Y-99587440D01*
X182215000Y-99587440D01*
X182340000Y-99562576D01*
X182465000Y-99587440D01*
X182715000Y-99587440D01*
X182840000Y-99562576D01*
X182965000Y-99587440D01*
X183215000Y-99587440D01*
X183340000Y-99562576D01*
X183465000Y-99587440D01*
X183715000Y-99587440D01*
X183840000Y-99562576D01*
X183965000Y-99587440D01*
X184215000Y-99587440D01*
X184462765Y-99538157D01*
X184672809Y-99397809D01*
X184813157Y-99187765D01*
X184862440Y-98940000D01*
X184862440Y-98374700D01*
X196184453Y-98374700D01*
X196259300Y-98389588D01*
X196334147Y-98374700D01*
X196334152Y-98374700D01*
X196555837Y-98330604D01*
X196807229Y-98162629D01*
X196849631Y-98099170D01*
X199753602Y-95195200D01*
X202299510Y-95195200D01*
X202332165Y-95227855D01*
G36*
X177465000Y-110987440D02*
X177465800Y-110987440D01*
X177465800Y-111091283D01*
X177608145Y-111434935D01*
X177619210Y-111446000D01*
X177334117Y-111446000D01*
X176990465Y-111588345D01*
X176727445Y-111851365D01*
X176585100Y-112195017D01*
X176585100Y-112566983D01*
X176727445Y-112910635D01*
X176990465Y-113173655D01*
X177334117Y-113316000D01*
X177706083Y-113316000D01*
X177921696Y-113226690D01*
X180968000Y-113226690D01*
X180968000Y-113442250D01*
X181126750Y-113601000D01*
X181876000Y-113601000D01*
X181876000Y-112876750D01*
X181717250Y-112718000D01*
X181476691Y-112718000D01*
X181243302Y-112814673D01*
X181064673Y-112993301D01*
X180968000Y-113226690D01*
X177921696Y-113226690D01*
X178049735Y-113173655D01*
X178115473Y-113107917D01*
X178170837Y-113096904D01*
X178422229Y-112928929D01*
X178464631Y-112865470D01*
X179515955Y-111814146D01*
X179405000Y-112082017D01*
X179405000Y-112453983D01*
X179547345Y-112797635D01*
X179810365Y-113060655D01*
X180154017Y-113203000D01*
X180525983Y-113203000D01*
X180869635Y-113060655D01*
X181132655Y-112797635D01*
X181275000Y-112453983D01*
X181275000Y-112407802D01*
X181574473Y-112108329D01*
X181637929Y-112065929D01*
X181805904Y-111814537D01*
X181830000Y-111693397D01*
X181830000Y-112114942D01*
X181815112Y-112189576D01*
X181830000Y-112264638D01*
X181830000Y-112264851D01*
X181844686Y-112338685D01*
X181873934Y-112486145D01*
X181874054Y-112486325D01*
X181874096Y-112486536D01*
X181958121Y-112612288D01*
X181999406Y-112674149D01*
X181999553Y-112674296D01*
X182042071Y-112737929D01*
X182105354Y-112780214D01*
X182165912Y-112840838D01*
X182130000Y-112876750D01*
X182130000Y-113601000D01*
X182150000Y-113601000D01*
X182150000Y-113855000D01*
X182130000Y-113855000D01*
X182130000Y-115125000D01*
X182150000Y-115125000D01*
X182150000Y-115192300D01*
X181856000Y-115192300D01*
X181856000Y-115125000D01*
X181876000Y-115125000D01*
X181876000Y-113855000D01*
X181126750Y-113855000D01*
X180968000Y-114013750D01*
X180968000Y-114229310D01*
X181064673Y-114462699D01*
X181091974Y-114490000D01*
X181064673Y-114517301D01*
X180968000Y-114750690D01*
X180968000Y-114966250D01*
X181126748Y-115124998D01*
X180968000Y-115124998D01*
X180968000Y-115192300D01*
X177909932Y-115192300D01*
X175379300Y-112661669D01*
X175379300Y-112078432D01*
X175924932Y-111532800D01*
X176143983Y-111532800D01*
X176475055Y-111466946D01*
X176532515Y-111428552D01*
X176590000Y-111439987D01*
X176664842Y-111425100D01*
X176886498Y-111381010D01*
X177137857Y-111213057D01*
X177299893Y-110970554D01*
X177340000Y-110962576D01*
X177465000Y-110987440D01*
X177465000Y-110987440D01*
G37*
X177465000Y-110987440D02*
X177465800Y-110987440D01*
X177465800Y-111091283D01*
X177608145Y-111434935D01*
X177619210Y-111446000D01*
X177334117Y-111446000D01*
X176990465Y-111588345D01*
X176727445Y-111851365D01*
X176585100Y-112195017D01*
X176585100Y-112566983D01*
X176727445Y-112910635D01*
X176990465Y-113173655D01*
X177334117Y-113316000D01*
X177706083Y-113316000D01*
X177921696Y-113226690D01*
X180968000Y-113226690D01*
X180968000Y-113442250D01*
X181126750Y-113601000D01*
X181876000Y-113601000D01*
X181876000Y-112876750D01*
X181717250Y-112718000D01*
X181476691Y-112718000D01*
X181243302Y-112814673D01*
X181064673Y-112993301D01*
X180968000Y-113226690D01*
X177921696Y-113226690D01*
X178049735Y-113173655D01*
X178115473Y-113107917D01*
X178170837Y-113096904D01*
X178422229Y-112928929D01*
X178464631Y-112865470D01*
X179515955Y-111814146D01*
X179405000Y-112082017D01*
X179405000Y-112453983D01*
X179547345Y-112797635D01*
X179810365Y-113060655D01*
X180154017Y-113203000D01*
X180525983Y-113203000D01*
X180869635Y-113060655D01*
X181132655Y-112797635D01*
X181275000Y-112453983D01*
X181275000Y-112407802D01*
X181574473Y-112108329D01*
X181637929Y-112065929D01*
X181805904Y-111814537D01*
X181830000Y-111693397D01*
X181830000Y-112114942D01*
X181815112Y-112189576D01*
X181830000Y-112264638D01*
X181830000Y-112264851D01*
X181844686Y-112338685D01*
X181873934Y-112486145D01*
X181874054Y-112486325D01*
X181874096Y-112486536D01*
X181958121Y-112612288D01*
X181999406Y-112674149D01*
X181999553Y-112674296D01*
X182042071Y-112737929D01*
X182105354Y-112780214D01*
X182165912Y-112840838D01*
X182130000Y-112876750D01*
X182130000Y-113601000D01*
X182150000Y-113601000D01*
X182150000Y-113855000D01*
X182130000Y-113855000D01*
X182130000Y-115125000D01*
X182150000Y-115125000D01*
X182150000Y-115192300D01*
X181856000Y-115192300D01*
X181856000Y-115125000D01*
X181876000Y-115125000D01*
X181876000Y-113855000D01*
X181126750Y-113855000D01*
X180968000Y-114013750D01*
X180968000Y-114229310D01*
X181064673Y-114462699D01*
X181091974Y-114490000D01*
X181064673Y-114517301D01*
X180968000Y-114750690D01*
X180968000Y-114966250D01*
X181126748Y-115124998D01*
X180968000Y-115124998D01*
X180968000Y-115192300D01*
X177909932Y-115192300D01*
X175379300Y-112661669D01*
X175379300Y-112078432D01*
X175924932Y-111532800D01*
X176143983Y-111532800D01*
X176475055Y-111466946D01*
X176532515Y-111428552D01*
X176590000Y-111439987D01*
X176664842Y-111425100D01*
X176886498Y-111381010D01*
X177137857Y-111213057D01*
X177299893Y-110970554D01*
X177340000Y-110962576D01*
X177465000Y-110987440D01*
G36*
X171641000Y-107263000D02*
X171661000Y-107263000D01*
X171661000Y-107517000D01*
X171641000Y-107517000D01*
X171641000Y-107537000D01*
X171387000Y-107537000D01*
X171387000Y-107517000D01*
X171367000Y-107517000D01*
X171367000Y-107263000D01*
X171387000Y-107263000D01*
X171387000Y-107243000D01*
X171641000Y-107243000D01*
X171641000Y-107263000D01*
X171641000Y-107263000D01*
G37*
X171641000Y-107263000D02*
X171661000Y-107263000D01*
X171661000Y-107517000D01*
X171641000Y-107517000D01*
X171641000Y-107537000D01*
X171387000Y-107537000D01*
X171387000Y-107517000D01*
X171367000Y-107517000D01*
X171367000Y-107263000D01*
X171387000Y-107263000D01*
X171387000Y-107243000D01*
X171641000Y-107243000D01*
X171641000Y-107263000D01*
G36*
X190266000Y-101192495D02*
X190266000Y-101256800D01*
X189972000Y-101256800D01*
X189972000Y-101143000D01*
X189992000Y-101143000D01*
X189992000Y-101137993D01*
X190266000Y-101192495D01*
X190266000Y-101192495D01*
G37*
X190266000Y-101192495D02*
X190266000Y-101256800D01*
X189972000Y-101256800D01*
X189972000Y-101143000D01*
X189992000Y-101143000D01*
X189992000Y-101137993D01*
X190266000Y-101192495D01*
%TD*%
M02*
