%TF.GenerationSoftware,KiCad,Pcbnew,(5.0.1)-3*%
%TF.CreationDate,2018-12-23T11:37:47+11:00*%
%TF.ProjectId,1Wire-LEDController,31576972652D4C4544436F6E74726F6C,1.2*%
%TF.SameCoordinates,Original*%
%TF.FileFunction,Soldermask,Top*%
%TF.FilePolarity,Negative*%
%FSLAX46Y46*%
G04 Gerber Fmt 4.6, Leading zero omitted, Abs format (unit mm)*
G04 Created by KiCad (PCBNEW (5.0.1)-3) date 23/12/2018 11:37:47 AM*
%MOMM*%
%LPD*%
G01*
G04 APERTURE LIST*
%ADD10C,0.100000*%
G04 APERTURE END LIST*
D10*
G36*
X197290000Y-159840000D02*
X195390000Y-159840000D01*
X195390000Y-157940000D01*
X197290000Y-157940000D01*
X197290000Y-159840000D01*
X197290000Y-159840000D01*
G37*
G36*
X190690000Y-159840000D02*
X188790000Y-159840000D01*
X188790000Y-157940000D01*
X190690000Y-157940000D01*
X190690000Y-159840000D01*
X190690000Y-159840000D01*
G37*
G36*
X163086000Y-159306000D02*
X161186000Y-159306000D01*
X161186000Y-154906000D01*
X163086000Y-154906000D01*
X163086000Y-159306000D01*
X163086000Y-159306000D01*
G37*
G36*
X166306000Y-159306000D02*
X164406000Y-159306000D01*
X164406000Y-154906000D01*
X166306000Y-154906000D01*
X166306000Y-159306000D01*
X166306000Y-159306000D01*
G37*
G36*
X183406000Y-159306000D02*
X181506000Y-159306000D01*
X181506000Y-154906000D01*
X183406000Y-154906000D01*
X183406000Y-159306000D01*
X183406000Y-159306000D01*
G37*
G36*
X145986000Y-159306000D02*
X144086000Y-159306000D01*
X144086000Y-154906000D01*
X145986000Y-154906000D01*
X145986000Y-159306000D01*
X145986000Y-159306000D01*
G37*
G36*
X193179451Y-157249127D02*
X193317105Y-157276508D01*
X193489994Y-157348121D01*
X193645590Y-157452087D01*
X193777913Y-157584410D01*
X193881879Y-157740006D01*
X193953492Y-157912895D01*
X193990000Y-158096433D01*
X193990000Y-158283567D01*
X193953492Y-158467105D01*
X193881879Y-158639994D01*
X193777913Y-158795590D01*
X193645590Y-158927913D01*
X193489994Y-159031879D01*
X193317105Y-159103492D01*
X193179451Y-159130873D01*
X193133568Y-159140000D01*
X192946432Y-159140000D01*
X192900549Y-159130873D01*
X192762895Y-159103492D01*
X192590006Y-159031879D01*
X192434410Y-158927913D01*
X192302087Y-158795590D01*
X192198121Y-158639994D01*
X192126508Y-158467105D01*
X192090000Y-158283567D01*
X192090000Y-158096433D01*
X192126508Y-157912895D01*
X192198121Y-157740006D01*
X192302087Y-157584410D01*
X192434410Y-157452087D01*
X192590006Y-157348121D01*
X192762895Y-157276508D01*
X192900549Y-157249127D01*
X192946432Y-157240000D01*
X193133568Y-157240000D01*
X193179451Y-157249127D01*
X193179451Y-157249127D01*
G37*
G36*
X197290000Y-156640000D02*
X195390000Y-156640000D01*
X195390000Y-154740000D01*
X197290000Y-154740000D01*
X197290000Y-156640000D01*
X197290000Y-156640000D01*
G37*
G36*
X190690000Y-156640000D02*
X188790000Y-156640000D01*
X188790000Y-154740000D01*
X190690000Y-154740000D01*
X190690000Y-156640000D01*
X190690000Y-156640000D01*
G37*
G36*
X193179452Y-151249127D02*
X193317105Y-151276508D01*
X193489994Y-151348121D01*
X193645590Y-151452087D01*
X193777913Y-151584410D01*
X193881879Y-151740006D01*
X193953492Y-151912895D01*
X193990000Y-152096433D01*
X193990000Y-152283567D01*
X193953492Y-152467105D01*
X193881879Y-152639994D01*
X193777913Y-152795590D01*
X193645590Y-152927913D01*
X193489994Y-153031879D01*
X193317105Y-153103492D01*
X193179452Y-153130873D01*
X193133568Y-153140000D01*
X192946432Y-153140000D01*
X192900548Y-153130873D01*
X192762895Y-153103492D01*
X192590006Y-153031879D01*
X192434410Y-152927913D01*
X192302087Y-152795590D01*
X192198121Y-152639994D01*
X192126508Y-152467105D01*
X192090000Y-152283567D01*
X192090000Y-152096433D01*
X192126508Y-151912895D01*
X192198121Y-151740006D01*
X192302087Y-151584410D01*
X192434410Y-151452087D01*
X192590006Y-151348121D01*
X192762895Y-151276508D01*
X192900548Y-151249127D01*
X192946432Y-151240000D01*
X193133568Y-151240000D01*
X193179452Y-151249127D01*
X193179452Y-151249127D01*
G37*
G36*
X190690000Y-153140000D02*
X188790000Y-153140000D01*
X188790000Y-151240000D01*
X190690000Y-151240000D01*
X190690000Y-153140000D01*
X190690000Y-153140000D01*
G37*
G36*
X197290000Y-153140000D02*
X195390000Y-153140000D01*
X195390000Y-151240000D01*
X197290000Y-151240000D01*
X197290000Y-153140000D01*
X197290000Y-153140000D01*
G37*
G36*
X147971443Y-149260194D02*
X148180728Y-149346883D01*
X148369085Y-149472739D01*
X148529261Y-149632915D01*
X148655117Y-149821272D01*
X148741806Y-150030557D01*
X148786000Y-150252734D01*
X148786000Y-150479266D01*
X148741806Y-150701443D01*
X148655117Y-150910728D01*
X148529261Y-151099085D01*
X148369085Y-151259261D01*
X148180728Y-151385117D01*
X147971443Y-151471806D01*
X147749266Y-151516000D01*
X147522734Y-151516000D01*
X147300557Y-151471806D01*
X147091272Y-151385117D01*
X146902915Y-151259261D01*
X146742739Y-151099085D01*
X146616883Y-150910728D01*
X146530194Y-150701443D01*
X146486000Y-150479266D01*
X146486000Y-150252734D01*
X146530194Y-150030557D01*
X146616883Y-149821272D01*
X146742739Y-149632915D01*
X146902915Y-149472739D01*
X147091272Y-149346883D01*
X147300557Y-149260194D01*
X147522734Y-149216000D01*
X147749266Y-149216000D01*
X147971443Y-149260194D01*
X147971443Y-149260194D01*
G37*
G36*
X168291443Y-149260194D02*
X168500728Y-149346883D01*
X168689085Y-149472739D01*
X168849261Y-149632915D01*
X168975117Y-149821272D01*
X169061806Y-150030557D01*
X169106000Y-150252734D01*
X169106000Y-150479266D01*
X169061806Y-150701443D01*
X168975117Y-150910728D01*
X168849261Y-151099085D01*
X168689085Y-151259261D01*
X168500728Y-151385117D01*
X168291443Y-151471806D01*
X168069266Y-151516000D01*
X167842734Y-151516000D01*
X167620557Y-151471806D01*
X167411272Y-151385117D01*
X167222915Y-151259261D01*
X167062739Y-151099085D01*
X166936883Y-150910728D01*
X166850194Y-150701443D01*
X166806000Y-150479266D01*
X166806000Y-150252734D01*
X166850194Y-150030557D01*
X166936883Y-149821272D01*
X167062739Y-149632915D01*
X167222915Y-149472739D01*
X167411272Y-149346883D01*
X167620557Y-149260194D01*
X167842734Y-149216000D01*
X168069266Y-149216000D01*
X168291443Y-149260194D01*
X168291443Y-149260194D01*
G37*
G36*
X159961443Y-149260194D02*
X160170728Y-149346883D01*
X160359085Y-149472739D01*
X160519261Y-149632915D01*
X160645117Y-149821272D01*
X160731806Y-150030557D01*
X160776000Y-150252734D01*
X160776000Y-150479266D01*
X160731806Y-150701443D01*
X160645117Y-150910728D01*
X160519261Y-151099085D01*
X160359085Y-151259261D01*
X160170728Y-151385117D01*
X159961443Y-151471806D01*
X159739266Y-151516000D01*
X159512734Y-151516000D01*
X159290557Y-151471806D01*
X159081272Y-151385117D01*
X158892915Y-151259261D01*
X158732739Y-151099085D01*
X158606883Y-150910728D01*
X158520194Y-150701443D01*
X158476000Y-150479266D01*
X158476000Y-150252734D01*
X158520194Y-150030557D01*
X158606883Y-149821272D01*
X158732739Y-149632915D01*
X158892915Y-149472739D01*
X159081272Y-149346883D01*
X159290557Y-149260194D01*
X159512734Y-149216000D01*
X159739266Y-149216000D01*
X159961443Y-149260194D01*
X159961443Y-149260194D01*
G37*
G36*
X180281443Y-149260194D02*
X180490728Y-149346883D01*
X180679085Y-149472739D01*
X180839261Y-149632915D01*
X180965117Y-149821272D01*
X181051806Y-150030557D01*
X181096000Y-150252734D01*
X181096000Y-150479266D01*
X181051806Y-150701443D01*
X180965117Y-150910728D01*
X180839261Y-151099085D01*
X180679085Y-151259261D01*
X180490728Y-151385117D01*
X180281443Y-151471806D01*
X180059266Y-151516000D01*
X179832734Y-151516000D01*
X179610557Y-151471806D01*
X179401272Y-151385117D01*
X179212915Y-151259261D01*
X179052739Y-151099085D01*
X178926883Y-150910728D01*
X178840194Y-150701443D01*
X178796000Y-150479266D01*
X178796000Y-150252734D01*
X178840194Y-150030557D01*
X178926883Y-149821272D01*
X179052739Y-149632915D01*
X179212915Y-149472739D01*
X179401272Y-149346883D01*
X179610557Y-149260194D01*
X179832734Y-149216000D01*
X180059266Y-149216000D01*
X180281443Y-149260194D01*
X180281443Y-149260194D01*
G37*
G36*
X178056000Y-151376000D02*
X169916000Y-151376000D01*
X169916000Y-148876000D01*
X178056000Y-148876000D01*
X178056000Y-151376000D01*
X178056000Y-151376000D01*
G37*
G36*
X157736000Y-151376000D02*
X149596000Y-151376000D01*
X149596000Y-148876000D01*
X157736000Y-148876000D01*
X157736000Y-151376000D01*
X157736000Y-151376000D01*
G37*
G36*
X213013000Y-145640000D02*
X210913000Y-145640000D01*
X210913000Y-143540000D01*
X213013000Y-143540000D01*
X213013000Y-145640000D01*
X213013000Y-145640000D01*
G37*
G36*
X212091707Y-141007597D02*
X212168836Y-141015193D01*
X212300787Y-141055220D01*
X212366763Y-141075233D01*
X212549172Y-141172733D01*
X212709054Y-141303946D01*
X212840267Y-141463828D01*
X212937767Y-141646237D01*
X212937767Y-141646238D01*
X212997807Y-141844164D01*
X213018080Y-142050000D01*
X212997807Y-142255836D01*
X212957780Y-142387787D01*
X212937767Y-142453763D01*
X212840267Y-142636172D01*
X212709054Y-142796054D01*
X212549172Y-142927267D01*
X212366763Y-143024767D01*
X212300787Y-143044780D01*
X212168836Y-143084807D01*
X212091707Y-143092403D01*
X212014580Y-143100000D01*
X211911420Y-143100000D01*
X211834293Y-143092403D01*
X211757164Y-143084807D01*
X211625213Y-143044780D01*
X211559237Y-143024767D01*
X211376828Y-142927267D01*
X211216946Y-142796054D01*
X211085733Y-142636172D01*
X210988233Y-142453763D01*
X210968220Y-142387787D01*
X210928193Y-142255836D01*
X210907920Y-142050000D01*
X210928193Y-141844164D01*
X210988233Y-141646238D01*
X210988233Y-141646237D01*
X211085733Y-141463828D01*
X211216946Y-141303946D01*
X211376828Y-141172733D01*
X211559237Y-141075233D01*
X211625213Y-141055220D01*
X211757164Y-141015193D01*
X211834293Y-141007597D01*
X211911420Y-141000000D01*
X212014580Y-141000000D01*
X212091707Y-141007597D01*
X212091707Y-141007597D01*
G37*
G36*
X212091707Y-138467597D02*
X212168836Y-138475193D01*
X212300787Y-138515220D01*
X212366763Y-138535233D01*
X212549172Y-138632733D01*
X212709054Y-138763946D01*
X212840267Y-138923828D01*
X212937767Y-139106237D01*
X212937767Y-139106238D01*
X212997807Y-139304164D01*
X213018080Y-139510000D01*
X212997807Y-139715836D01*
X212957780Y-139847787D01*
X212937767Y-139913763D01*
X212840267Y-140096172D01*
X212709054Y-140256054D01*
X212549172Y-140387267D01*
X212366763Y-140484767D01*
X212300787Y-140504780D01*
X212168836Y-140544807D01*
X212091707Y-140552403D01*
X212014580Y-140560000D01*
X211911420Y-140560000D01*
X211834293Y-140552403D01*
X211757164Y-140544807D01*
X211625213Y-140504780D01*
X211559237Y-140484767D01*
X211376828Y-140387267D01*
X211216946Y-140256054D01*
X211085733Y-140096172D01*
X210988233Y-139913763D01*
X210968220Y-139847787D01*
X210928193Y-139715836D01*
X210907920Y-139510000D01*
X210928193Y-139304164D01*
X210988233Y-139106238D01*
X210988233Y-139106237D01*
X211085733Y-138923828D01*
X211216946Y-138763946D01*
X211376828Y-138632733D01*
X211559237Y-138535233D01*
X211625213Y-138515220D01*
X211757164Y-138475193D01*
X211834293Y-138467597D01*
X211911420Y-138460000D01*
X212014580Y-138460000D01*
X212091707Y-138467597D01*
X212091707Y-138467597D01*
G37*
G36*
X212091707Y-135927597D02*
X212168836Y-135935193D01*
X212300787Y-135975220D01*
X212366763Y-135995233D01*
X212549172Y-136092733D01*
X212709054Y-136223946D01*
X212840267Y-136383828D01*
X212937767Y-136566237D01*
X212937767Y-136566238D01*
X212997807Y-136764164D01*
X213018080Y-136970000D01*
X212997807Y-137175836D01*
X212957780Y-137307787D01*
X212937767Y-137373763D01*
X212840267Y-137556172D01*
X212709054Y-137716054D01*
X212549172Y-137847267D01*
X212366763Y-137944767D01*
X212300787Y-137964780D01*
X212168836Y-138004807D01*
X212091707Y-138012403D01*
X212014580Y-138020000D01*
X211911420Y-138020000D01*
X211834293Y-138012403D01*
X211757164Y-138004807D01*
X211625213Y-137964780D01*
X211559237Y-137944767D01*
X211376828Y-137847267D01*
X211216946Y-137716054D01*
X211085733Y-137556172D01*
X210988233Y-137373763D01*
X210968220Y-137307787D01*
X210928193Y-137175836D01*
X210907920Y-136970000D01*
X210928193Y-136764164D01*
X210988233Y-136566238D01*
X210988233Y-136566237D01*
X211085733Y-136383828D01*
X211216946Y-136223946D01*
X211376828Y-136092733D01*
X211559237Y-135995233D01*
X211625213Y-135975220D01*
X211757164Y-135935193D01*
X211834293Y-135927597D01*
X211911420Y-135920000D01*
X212014580Y-135920000D01*
X212091707Y-135927597D01*
X212091707Y-135927597D01*
G37*
G36*
X161553000Y-137978000D02*
X159883000Y-137978000D01*
X159883000Y-133978000D01*
X161553000Y-133978000D01*
X161553000Y-137978000D01*
X161553000Y-137978000D01*
G37*
G36*
X164093000Y-137978000D02*
X162423000Y-137978000D01*
X162423000Y-133978000D01*
X164093000Y-133978000D01*
X164093000Y-137978000D01*
X164093000Y-137978000D01*
G37*
G36*
X159013000Y-137978000D02*
X157343000Y-137978000D01*
X157343000Y-133978000D01*
X159013000Y-133978000D01*
X159013000Y-137978000D01*
X159013000Y-137978000D01*
G37*
G36*
X169173000Y-137978000D02*
X167503000Y-137978000D01*
X167503000Y-133978000D01*
X169173000Y-133978000D01*
X169173000Y-137978000D01*
X169173000Y-137978000D01*
G37*
G36*
X166633000Y-137978000D02*
X164963000Y-137978000D01*
X164963000Y-133978000D01*
X166633000Y-133978000D01*
X166633000Y-137978000D01*
X166633000Y-137978000D01*
G37*
G36*
X203107000Y-136616000D02*
X195707000Y-136616000D01*
X195707000Y-129216000D01*
X203107000Y-129216000D01*
X203107000Y-136616000D01*
X203107000Y-136616000D01*
G37*
G36*
X193957000Y-136396000D02*
X190057000Y-136396000D01*
X190057000Y-133996000D01*
X193957000Y-133996000D01*
X193957000Y-136396000D01*
X193957000Y-136396000D01*
G37*
G36*
X212091707Y-133387596D02*
X212168836Y-133395193D01*
X212300787Y-133435220D01*
X212366763Y-133455233D01*
X212549172Y-133552733D01*
X212709054Y-133683946D01*
X212840267Y-133843828D01*
X212937767Y-134026237D01*
X212937767Y-134026238D01*
X212997807Y-134224164D01*
X213018080Y-134430000D01*
X212997807Y-134635836D01*
X212957780Y-134767787D01*
X212937767Y-134833763D01*
X212840267Y-135016172D01*
X212709054Y-135176054D01*
X212549172Y-135307267D01*
X212366763Y-135404767D01*
X212300787Y-135424780D01*
X212168836Y-135464807D01*
X212091707Y-135472404D01*
X212014580Y-135480000D01*
X211911420Y-135480000D01*
X211834293Y-135472404D01*
X211757164Y-135464807D01*
X211625213Y-135424780D01*
X211559237Y-135404767D01*
X211376828Y-135307267D01*
X211216946Y-135176054D01*
X211085733Y-135016172D01*
X210988233Y-134833763D01*
X210968220Y-134767787D01*
X210928193Y-134635836D01*
X210907920Y-134430000D01*
X210928193Y-134224164D01*
X210988233Y-134026238D01*
X210988233Y-134026237D01*
X211085733Y-133843828D01*
X211216946Y-133683946D01*
X211376828Y-133552733D01*
X211559237Y-133455233D01*
X211625213Y-133435220D01*
X211757164Y-133395193D01*
X211834293Y-133387596D01*
X211911420Y-133380000D01*
X212014580Y-133380000D01*
X212091707Y-133387596D01*
X212091707Y-133387596D01*
G37*
G36*
X193957000Y-131816000D02*
X190057000Y-131816000D01*
X190057000Y-129416000D01*
X193957000Y-129416000D01*
X193957000Y-131816000D01*
X193957000Y-131816000D01*
G37*
G36*
X188702000Y-131816000D02*
X184302000Y-131816000D01*
X184302000Y-128916000D01*
X188702000Y-128916000D01*
X188702000Y-131816000D01*
X188702000Y-131816000D01*
G37*
G36*
X182602000Y-131816000D02*
X178202000Y-131816000D01*
X178202000Y-128916000D01*
X182602000Y-128916000D01*
X182602000Y-131816000D01*
X182602000Y-131816000D01*
G37*
G36*
X161553000Y-131578000D02*
X159883000Y-131578000D01*
X159883000Y-127578000D01*
X161553000Y-127578000D01*
X161553000Y-131578000D01*
X161553000Y-131578000D01*
G37*
G36*
X164093000Y-131578000D02*
X162423000Y-131578000D01*
X162423000Y-127578000D01*
X164093000Y-127578000D01*
X164093000Y-131578000D01*
X164093000Y-131578000D01*
G37*
G36*
X166633000Y-131578000D02*
X164963000Y-131578000D01*
X164963000Y-127578000D01*
X166633000Y-127578000D01*
X166633000Y-131578000D01*
X166633000Y-131578000D01*
G37*
G36*
X159013000Y-131578000D02*
X157343000Y-131578000D01*
X157343000Y-127578000D01*
X159013000Y-127578000D01*
X159013000Y-131578000D01*
X159013000Y-131578000D01*
G37*
G36*
X169173000Y-131578000D02*
X167503000Y-131578000D01*
X167503000Y-127578000D01*
X169173000Y-127578000D01*
X169173000Y-131578000D01*
X169173000Y-131578000D01*
G37*
G36*
X171646000Y-127142000D02*
X170746000Y-127142000D01*
X170746000Y-125842000D01*
X171646000Y-125842000D01*
X171646000Y-127142000D01*
X171646000Y-127142000D01*
G37*
G36*
X173146000Y-127142000D02*
X172246000Y-127142000D01*
X172246000Y-125842000D01*
X173146000Y-125842000D01*
X173146000Y-127142000D01*
X173146000Y-127142000D01*
G37*
G36*
X150884000Y-121269000D02*
X142104000Y-121269000D01*
X142104000Y-110379000D01*
X150884000Y-110379000D01*
X150884000Y-121269000D01*
X150884000Y-121269000D01*
G37*
G36*
X158807000Y-119164000D02*
X154607000Y-119164000D01*
X154607000Y-117564000D01*
X158807000Y-117564000D01*
X158807000Y-119164000D01*
X158807000Y-119164000D01*
G37*
G36*
X217686000Y-115871000D02*
X208906000Y-115871000D01*
X208906000Y-104981000D01*
X217686000Y-104981000D01*
X217686000Y-115871000D01*
X217686000Y-115871000D01*
G37*
G36*
X182603000Y-115827000D02*
X181403000Y-115827000D01*
X181403000Y-114677000D01*
X182603000Y-114677000D01*
X182603000Y-115827000D01*
X182603000Y-115827000D01*
G37*
G36*
X184103000Y-115827000D02*
X182903000Y-115827000D01*
X182903000Y-114677000D01*
X184103000Y-114677000D01*
X184103000Y-115827000D01*
X184103000Y-115827000D01*
G37*
G36*
X222672947Y-112905722D02*
X222936833Y-113015027D01*
X223174324Y-113173713D01*
X223376287Y-113375676D01*
X223534973Y-113613167D01*
X223644278Y-113877053D01*
X223700000Y-114157186D01*
X223700000Y-114442814D01*
X223644278Y-114722947D01*
X223534973Y-114986833D01*
X223376287Y-115224324D01*
X223174324Y-115426287D01*
X222936833Y-115584973D01*
X222672947Y-115694278D01*
X222392814Y-115750000D01*
X222107186Y-115750000D01*
X221827053Y-115694278D01*
X221563167Y-115584973D01*
X221325676Y-115426287D01*
X221123713Y-115224324D01*
X220965027Y-114986833D01*
X220855722Y-114722947D01*
X220800000Y-114442814D01*
X220800000Y-114157186D01*
X220855722Y-113877053D01*
X220965027Y-113613167D01*
X221123713Y-113375676D01*
X221325676Y-113173713D01*
X221563167Y-113015027D01*
X221827053Y-112905722D01*
X222107186Y-112850000D01*
X222392814Y-112850000D01*
X222672947Y-112905722D01*
X222672947Y-112905722D01*
G37*
G36*
X136272947Y-112905722D02*
X136536833Y-113015027D01*
X136774324Y-113173713D01*
X136976287Y-113375676D01*
X137134973Y-113613167D01*
X137244278Y-113877053D01*
X137300000Y-114157186D01*
X137300000Y-114442814D01*
X137244278Y-114722947D01*
X137134973Y-114986833D01*
X136976287Y-115224324D01*
X136774324Y-115426287D01*
X136536833Y-115584973D01*
X136272947Y-115694278D01*
X135992814Y-115750000D01*
X135707186Y-115750000D01*
X135427053Y-115694278D01*
X135163167Y-115584973D01*
X134925676Y-115426287D01*
X134723713Y-115224324D01*
X134565027Y-114986833D01*
X134455722Y-114722947D01*
X134400000Y-114442814D01*
X134400000Y-114157186D01*
X134455722Y-113877053D01*
X134565027Y-113613167D01*
X134723713Y-113375676D01*
X134925676Y-113173713D01*
X135163167Y-113015027D01*
X135427053Y-112905722D01*
X135707186Y-112850000D01*
X135992814Y-112850000D01*
X136272947Y-112905722D01*
X136272947Y-112905722D01*
G37*
G36*
X184103000Y-114303000D02*
X182903000Y-114303000D01*
X182903000Y-113153000D01*
X184103000Y-113153000D01*
X184103000Y-114303000D01*
X184103000Y-114303000D01*
G37*
G36*
X182603000Y-114303000D02*
X181403000Y-114303000D01*
X181403000Y-113153000D01*
X182603000Y-113153000D01*
X182603000Y-114303000D01*
X182603000Y-114303000D01*
G37*
G36*
X158807000Y-114084000D02*
X154607000Y-114084000D01*
X154607000Y-112484000D01*
X158807000Y-112484000D01*
X158807000Y-114084000D01*
X158807000Y-114084000D01*
G37*
G36*
X205183000Y-113766000D02*
X200983000Y-113766000D01*
X200983000Y-112166000D01*
X205183000Y-112166000D01*
X205183000Y-113766000D01*
X205183000Y-113766000D01*
G37*
G36*
X136272947Y-107825722D02*
X136536833Y-107935027D01*
X136774324Y-108093713D01*
X136976287Y-108295676D01*
X137134973Y-108533167D01*
X137244278Y-108797053D01*
X137300000Y-109077186D01*
X137300000Y-109362814D01*
X137244278Y-109642947D01*
X137134973Y-109906833D01*
X136976287Y-110144324D01*
X136774324Y-110346287D01*
X136536833Y-110504973D01*
X136272947Y-110614278D01*
X135992814Y-110670000D01*
X135707186Y-110670000D01*
X135427053Y-110614278D01*
X135163167Y-110504973D01*
X134925676Y-110346287D01*
X134723713Y-110144324D01*
X134565027Y-109906833D01*
X134455722Y-109642947D01*
X134400000Y-109362814D01*
X134400000Y-109077186D01*
X134455722Y-108797053D01*
X134565027Y-108533167D01*
X134723713Y-108295676D01*
X134925676Y-108093713D01*
X135163167Y-107935027D01*
X135427053Y-107825722D01*
X135707186Y-107770000D01*
X135992814Y-107770000D01*
X136272947Y-107825722D01*
X136272947Y-107825722D01*
G37*
G36*
X222712947Y-107825722D02*
X222976833Y-107935027D01*
X223214324Y-108093713D01*
X223416287Y-108295676D01*
X223574973Y-108533167D01*
X223684278Y-108797053D01*
X223740000Y-109077186D01*
X223740000Y-109362814D01*
X223684278Y-109642947D01*
X223574973Y-109906833D01*
X223416287Y-110144324D01*
X223214324Y-110346287D01*
X222976833Y-110504973D01*
X222712947Y-110614278D01*
X222432814Y-110670000D01*
X222147186Y-110670000D01*
X221867053Y-110614278D01*
X221603167Y-110504973D01*
X221365676Y-110346287D01*
X221163713Y-110144324D01*
X221005027Y-109906833D01*
X220895722Y-109642947D01*
X220840000Y-109362814D01*
X220840000Y-109077186D01*
X220895722Y-108797053D01*
X221005027Y-108533167D01*
X221163713Y-108295676D01*
X221365676Y-108093713D01*
X221603167Y-107935027D01*
X221867053Y-107825722D01*
X222147186Y-107770000D01*
X222432814Y-107770000D01*
X222712947Y-107825722D01*
X222712947Y-107825722D01*
G37*
G36*
X184415000Y-110540000D02*
X176265000Y-110540000D01*
X176265000Y-109140000D01*
X184415000Y-109140000D01*
X184415000Y-110540000D01*
X184415000Y-110540000D01*
G37*
G36*
X172089000Y-109490000D02*
X170939000Y-109490000D01*
X170939000Y-108290000D01*
X172089000Y-108290000D01*
X172089000Y-109490000D01*
X172089000Y-109490000D01*
G37*
G36*
X150884000Y-109395000D02*
X142104000Y-109395000D01*
X142104000Y-98505000D01*
X150884000Y-98505000D01*
X150884000Y-109395000D01*
X150884000Y-109395000D01*
G37*
G36*
X205183000Y-108686000D02*
X200983000Y-108686000D01*
X200983000Y-107086000D01*
X205183000Y-107086000D01*
X205183000Y-108686000D01*
X205183000Y-108686000D01*
G37*
G36*
X175340000Y-108215000D02*
X173940000Y-108215000D01*
X173940000Y-100065000D01*
X175340000Y-100065000D01*
X175340000Y-108215000D01*
X175340000Y-108215000D01*
G37*
G36*
X186740000Y-108215000D02*
X185340000Y-108215000D01*
X185340000Y-100065000D01*
X186740000Y-100065000D01*
X186740000Y-108215000D01*
X186740000Y-108215000D01*
G37*
G36*
X172089000Y-107990000D02*
X170939000Y-107990000D01*
X170939000Y-106790000D01*
X172089000Y-106790000D01*
X172089000Y-107990000D01*
X172089000Y-107990000D01*
G37*
G36*
X158807000Y-107290000D02*
X154607000Y-107290000D01*
X154607000Y-105690000D01*
X158807000Y-105690000D01*
X158807000Y-107290000D01*
X158807000Y-107290000D01*
G37*
G36*
X222712947Y-102745722D02*
X222976833Y-102855027D01*
X223214324Y-103013713D01*
X223416287Y-103215676D01*
X223574973Y-103453167D01*
X223684278Y-103717053D01*
X223740000Y-103997186D01*
X223740000Y-104282814D01*
X223684278Y-104562947D01*
X223574973Y-104826833D01*
X223416287Y-105064324D01*
X223214324Y-105266287D01*
X222976833Y-105424973D01*
X222712947Y-105534278D01*
X222432814Y-105590000D01*
X222147186Y-105590000D01*
X221867053Y-105534278D01*
X221603167Y-105424973D01*
X221365676Y-105266287D01*
X221163713Y-105064324D01*
X221005027Y-104826833D01*
X220895722Y-104562947D01*
X220840000Y-104282814D01*
X220840000Y-103997186D01*
X220895722Y-103717053D01*
X221005027Y-103453167D01*
X221163713Y-103215676D01*
X221365676Y-103013713D01*
X221603167Y-102855027D01*
X221867053Y-102745722D01*
X222147186Y-102690000D01*
X222432814Y-102690000D01*
X222712947Y-102745722D01*
X222712947Y-102745722D01*
G37*
G36*
X136272947Y-102745722D02*
X136536833Y-102855027D01*
X136774324Y-103013713D01*
X136976287Y-103215676D01*
X137134973Y-103453167D01*
X137244278Y-103717053D01*
X137300000Y-103997186D01*
X137300000Y-104282814D01*
X137244278Y-104562947D01*
X137134973Y-104826833D01*
X136976287Y-105064324D01*
X136774324Y-105266287D01*
X136536833Y-105424973D01*
X136272947Y-105534278D01*
X135992814Y-105590000D01*
X135707186Y-105590000D01*
X135427053Y-105534278D01*
X135163167Y-105424973D01*
X134925676Y-105266287D01*
X134723713Y-105064324D01*
X134565027Y-104826833D01*
X134455722Y-104562947D01*
X134400000Y-104282814D01*
X134400000Y-103997186D01*
X134455722Y-103717053D01*
X134565027Y-103453167D01*
X134723713Y-103215676D01*
X134925676Y-103013713D01*
X135163167Y-102855027D01*
X135427053Y-102745722D01*
X135707186Y-102690000D01*
X135992814Y-102690000D01*
X136272947Y-102745722D01*
X136272947Y-102745722D01*
G37*
G36*
X217750000Y-104505000D02*
X208970000Y-104505000D01*
X208970000Y-93615000D01*
X217750000Y-93615000D01*
X217750000Y-104505000D01*
X217750000Y-104505000D01*
G37*
G36*
X205247000Y-102400000D02*
X201047000Y-102400000D01*
X201047000Y-100800000D01*
X205247000Y-100800000D01*
X205247000Y-102400000D01*
X205247000Y-102400000D01*
G37*
G36*
X158807000Y-102210000D02*
X154607000Y-102210000D01*
X154607000Y-100610000D01*
X158807000Y-100610000D01*
X158807000Y-102210000D01*
X158807000Y-102210000D01*
G37*
G36*
X190694000Y-101870000D02*
X189544000Y-101870000D01*
X189544000Y-100670000D01*
X190694000Y-100670000D01*
X190694000Y-101870000D01*
X190694000Y-101870000D01*
G37*
G36*
X136272947Y-97665722D02*
X136536833Y-97775027D01*
X136774324Y-97933713D01*
X136976287Y-98135676D01*
X137134973Y-98373167D01*
X137244278Y-98637053D01*
X137300000Y-98917186D01*
X137300000Y-99202814D01*
X137244278Y-99482947D01*
X137134973Y-99746833D01*
X136976287Y-99984324D01*
X136774324Y-100186287D01*
X136536833Y-100344973D01*
X136272947Y-100454278D01*
X135992814Y-100510000D01*
X135707186Y-100510000D01*
X135427053Y-100454278D01*
X135163167Y-100344973D01*
X134925676Y-100186287D01*
X134723713Y-99984324D01*
X134565027Y-99746833D01*
X134455722Y-99482947D01*
X134400000Y-99202814D01*
X134400000Y-98917186D01*
X134455722Y-98637053D01*
X134565027Y-98373167D01*
X134723713Y-98135676D01*
X134925676Y-97933713D01*
X135163167Y-97775027D01*
X135427053Y-97665722D01*
X135707186Y-97610000D01*
X135992814Y-97610000D01*
X136272947Y-97665722D01*
X136272947Y-97665722D01*
G37*
G36*
X222712947Y-97665722D02*
X222976833Y-97775027D01*
X223214324Y-97933713D01*
X223416287Y-98135676D01*
X223574973Y-98373167D01*
X223684278Y-98637053D01*
X223740000Y-98917186D01*
X223740000Y-99202814D01*
X223684278Y-99482947D01*
X223574973Y-99746833D01*
X223416287Y-99984324D01*
X223214324Y-100186287D01*
X222976833Y-100344973D01*
X222712947Y-100454278D01*
X222432814Y-100510000D01*
X222147186Y-100510000D01*
X221867053Y-100454278D01*
X221603167Y-100344973D01*
X221365676Y-100186287D01*
X221163713Y-99984324D01*
X221005027Y-99746833D01*
X220895722Y-99482947D01*
X220840000Y-99202814D01*
X220840000Y-98917186D01*
X220895722Y-98637053D01*
X221005027Y-98373167D01*
X221163713Y-98135676D01*
X221365676Y-97933713D01*
X221603167Y-97775027D01*
X221867053Y-97665722D01*
X222147186Y-97610000D01*
X222432814Y-97610000D01*
X222712947Y-97665722D01*
X222712947Y-97665722D01*
G37*
G36*
X190694000Y-100370000D02*
X189544000Y-100370000D01*
X189544000Y-99170000D01*
X190694000Y-99170000D01*
X190694000Y-100370000D01*
X190694000Y-100370000D01*
G37*
G36*
X184415000Y-99140000D02*
X176265000Y-99140000D01*
X176265000Y-97740000D01*
X184415000Y-97740000D01*
X184415000Y-99140000D01*
X184415000Y-99140000D01*
G37*
G36*
X205247000Y-97320000D02*
X201047000Y-97320000D01*
X201047000Y-95720000D01*
X205247000Y-95720000D01*
X205247000Y-97320000D01*
X205247000Y-97320000D01*
G37*
G36*
X222712947Y-92585722D02*
X222976833Y-92695027D01*
X223214324Y-92853713D01*
X223416287Y-93055676D01*
X223574973Y-93293167D01*
X223684278Y-93557053D01*
X223740000Y-93837186D01*
X223740000Y-94122814D01*
X223684278Y-94402947D01*
X223574973Y-94666833D01*
X223416287Y-94904324D01*
X223214324Y-95106287D01*
X222976833Y-95264973D01*
X222712947Y-95374278D01*
X222432814Y-95430000D01*
X222147186Y-95430000D01*
X221867053Y-95374278D01*
X221603167Y-95264973D01*
X221365676Y-95106287D01*
X221163713Y-94904324D01*
X221005027Y-94666833D01*
X220895722Y-94402947D01*
X220840000Y-94122814D01*
X220840000Y-93837186D01*
X220895722Y-93557053D01*
X221005027Y-93293167D01*
X221163713Y-93055676D01*
X221365676Y-92853713D01*
X221603167Y-92695027D01*
X221867053Y-92585722D01*
X222147186Y-92530000D01*
X222432814Y-92530000D01*
X222712947Y-92585722D01*
X222712947Y-92585722D01*
G37*
G36*
X136312947Y-92585722D02*
X136576833Y-92695027D01*
X136814324Y-92853713D01*
X137016287Y-93055676D01*
X137174973Y-93293167D01*
X137284278Y-93557053D01*
X137340000Y-93837186D01*
X137340000Y-94122814D01*
X137284278Y-94402947D01*
X137174973Y-94666833D01*
X137016287Y-94904324D01*
X136814324Y-95106287D01*
X136576833Y-95264973D01*
X136312947Y-95374278D01*
X136032814Y-95430000D01*
X135747186Y-95430000D01*
X135467053Y-95374278D01*
X135203167Y-95264973D01*
X134965676Y-95106287D01*
X134763713Y-94904324D01*
X134605027Y-94666833D01*
X134495722Y-94402947D01*
X134440000Y-94122814D01*
X134440000Y-93837186D01*
X134495722Y-93557053D01*
X134605027Y-93293167D01*
X134763713Y-93055676D01*
X134965676Y-92853713D01*
X135203167Y-92695027D01*
X135467053Y-92585722D01*
X135747186Y-92530000D01*
X136032814Y-92530000D01*
X136312947Y-92585722D01*
X136312947Y-92585722D01*
G37*
G36*
X189776000Y-90291000D02*
X188176000Y-90291000D01*
X188176000Y-86091000D01*
X189776000Y-86091000D01*
X189776000Y-90291000D01*
X189776000Y-90291000D01*
G37*
G36*
X194856000Y-90291000D02*
X193256000Y-90291000D01*
X193256000Y-86091000D01*
X194856000Y-86091000D01*
X194856000Y-90291000D01*
X194856000Y-90291000D01*
G37*
G36*
X201270000Y-90291000D02*
X199670000Y-90291000D01*
X199670000Y-86091000D01*
X201270000Y-86091000D01*
X201270000Y-90291000D01*
X201270000Y-90291000D01*
G37*
G36*
X206350000Y-90291000D02*
X204750000Y-90291000D01*
X204750000Y-86091000D01*
X206350000Y-86091000D01*
X206350000Y-90291000D01*
X206350000Y-90291000D01*
G37*
G36*
X176758000Y-89973500D02*
X175158000Y-89973500D01*
X175158000Y-85773500D01*
X176758000Y-85773500D01*
X176758000Y-89973500D01*
X176758000Y-89973500D01*
G37*
G36*
X160058000Y-89973500D02*
X158458000Y-89973500D01*
X158458000Y-85773500D01*
X160058000Y-85773500D01*
X160058000Y-89973500D01*
X160058000Y-89973500D01*
G37*
G36*
X165138000Y-89973500D02*
X163538000Y-89973500D01*
X163538000Y-85773500D01*
X165138000Y-85773500D01*
X165138000Y-89973500D01*
X165138000Y-89973500D01*
G37*
G36*
X171678000Y-89973500D02*
X170078000Y-89973500D01*
X170078000Y-85773500D01*
X171678000Y-85773500D01*
X171678000Y-89973500D01*
X171678000Y-89973500D01*
G37*
G36*
X138881460Y-89961060D02*
X134981340Y-89961060D01*
X134981340Y-86060940D01*
X138881460Y-86060940D01*
X138881460Y-89961060D01*
X138881460Y-89961060D01*
G37*
G36*
X141881200Y-85262060D02*
X137981080Y-85262060D01*
X137981080Y-81361940D01*
X141881200Y-81361940D01*
X141881200Y-85262060D01*
X141881200Y-85262060D01*
G37*
G36*
X135881720Y-85262060D02*
X131981600Y-85262060D01*
X131981600Y-81361940D01*
X135881720Y-81361940D01*
X135881720Y-85262060D01*
X135881720Y-85262060D01*
G37*
G36*
X208455000Y-82368000D02*
X197565000Y-82368000D01*
X197565000Y-73588000D01*
X208455000Y-73588000D01*
X208455000Y-82368000D01*
X208455000Y-82368000D01*
G37*
G36*
X196961000Y-82368000D02*
X186071000Y-82368000D01*
X186071000Y-73588000D01*
X196961000Y-73588000D01*
X196961000Y-82368000D01*
X196961000Y-82368000D01*
G37*
G36*
X167243000Y-82050500D02*
X156353000Y-82050500D01*
X156353000Y-73270500D01*
X167243000Y-73270500D01*
X167243000Y-82050500D01*
X167243000Y-82050500D01*
G37*
G36*
X178863000Y-82050500D02*
X167973000Y-82050500D01*
X167973000Y-73270500D01*
X178863000Y-73270500D01*
X178863000Y-82050500D01*
X178863000Y-82050500D01*
G37*
G36*
X211242947Y-67566722D02*
X211506833Y-67676027D01*
X211744324Y-67834713D01*
X211946287Y-68036676D01*
X212104973Y-68274167D01*
X212214278Y-68538053D01*
X212270000Y-68818186D01*
X212270000Y-69103814D01*
X212214278Y-69383947D01*
X212104973Y-69647833D01*
X211946287Y-69885324D01*
X211744324Y-70087287D01*
X211506833Y-70245973D01*
X211242947Y-70355278D01*
X210962814Y-70411000D01*
X210677186Y-70411000D01*
X210397053Y-70355278D01*
X210133167Y-70245973D01*
X209895676Y-70087287D01*
X209693713Y-69885324D01*
X209535027Y-69647833D01*
X209425722Y-69383947D01*
X209370000Y-69103814D01*
X209370000Y-68818186D01*
X209425722Y-68538053D01*
X209535027Y-68274167D01*
X209693713Y-68036676D01*
X209895676Y-67834713D01*
X210133167Y-67676027D01*
X210397053Y-67566722D01*
X210677186Y-67511000D01*
X210962814Y-67511000D01*
X211242947Y-67566722D01*
X211242947Y-67566722D01*
G37*
G36*
X184064947Y-67566722D02*
X184328833Y-67676027D01*
X184566324Y-67834713D01*
X184768287Y-68036676D01*
X184926973Y-68274167D01*
X185036278Y-68538053D01*
X185092000Y-68818186D01*
X185092000Y-69103814D01*
X185036278Y-69383947D01*
X184926973Y-69647833D01*
X184768287Y-69885324D01*
X184566324Y-70087287D01*
X184328833Y-70245973D01*
X184064947Y-70355278D01*
X183784814Y-70411000D01*
X183499186Y-70411000D01*
X183219053Y-70355278D01*
X182955167Y-70245973D01*
X182717676Y-70087287D01*
X182515713Y-69885324D01*
X182357027Y-69647833D01*
X182247722Y-69383947D01*
X182192000Y-69103814D01*
X182192000Y-68818186D01*
X182247722Y-68538053D01*
X182357027Y-68274167D01*
X182515713Y-68036676D01*
X182717676Y-67834713D01*
X182955167Y-67676027D01*
X183219053Y-67566722D01*
X183499186Y-67511000D01*
X183784814Y-67511000D01*
X184064947Y-67566722D01*
X184064947Y-67566722D01*
G37*
G36*
X163744947Y-67526722D02*
X164008833Y-67636027D01*
X164246324Y-67794713D01*
X164448287Y-67996676D01*
X164606973Y-68234167D01*
X164716278Y-68498053D01*
X164772000Y-68778186D01*
X164772000Y-69063814D01*
X164716278Y-69343947D01*
X164606973Y-69607833D01*
X164448287Y-69845324D01*
X164246324Y-70047287D01*
X164008833Y-70205973D01*
X163744947Y-70315278D01*
X163464814Y-70371000D01*
X163179186Y-70371000D01*
X162899053Y-70315278D01*
X162635167Y-70205973D01*
X162397676Y-70047287D01*
X162195713Y-69845324D01*
X162037027Y-69607833D01*
X161927722Y-69343947D01*
X161872000Y-69063814D01*
X161872000Y-68778186D01*
X161927722Y-68498053D01*
X162037027Y-68234167D01*
X162195713Y-67996676D01*
X162397676Y-67794713D01*
X162635167Y-67636027D01*
X162899053Y-67526722D01*
X163179186Y-67471000D01*
X163464814Y-67471000D01*
X163744947Y-67526722D01*
X163744947Y-67526722D01*
G37*
G36*
X168824947Y-67526722D02*
X169088833Y-67636027D01*
X169326324Y-67794713D01*
X169528287Y-67996676D01*
X169686973Y-68234167D01*
X169796278Y-68498053D01*
X169852000Y-68778186D01*
X169852000Y-69063814D01*
X169796278Y-69343947D01*
X169686973Y-69607833D01*
X169528287Y-69845324D01*
X169326324Y-70047287D01*
X169088833Y-70205973D01*
X168824947Y-70315278D01*
X168544814Y-70371000D01*
X168259186Y-70371000D01*
X167979053Y-70315278D01*
X167715167Y-70205973D01*
X167477676Y-70047287D01*
X167275713Y-69845324D01*
X167117027Y-69607833D01*
X167007722Y-69343947D01*
X166952000Y-69063814D01*
X166952000Y-68778186D01*
X167007722Y-68498053D01*
X167117027Y-68234167D01*
X167275713Y-67996676D01*
X167477676Y-67794713D01*
X167715167Y-67636027D01*
X167979053Y-67526722D01*
X168259186Y-67471000D01*
X168544814Y-67471000D01*
X168824947Y-67526722D01*
X168824947Y-67526722D01*
G37*
G36*
X190922947Y-67526722D02*
X191186833Y-67636027D01*
X191424324Y-67794713D01*
X191626287Y-67996676D01*
X191784973Y-68234167D01*
X191894278Y-68498053D01*
X191950000Y-68778186D01*
X191950000Y-69063814D01*
X191894278Y-69343947D01*
X191784973Y-69607833D01*
X191626287Y-69845324D01*
X191424324Y-70047287D01*
X191186833Y-70205973D01*
X190922947Y-70315278D01*
X190642814Y-70371000D01*
X190357186Y-70371000D01*
X190077053Y-70315278D01*
X189813167Y-70205973D01*
X189575676Y-70047287D01*
X189373713Y-69845324D01*
X189215027Y-69607833D01*
X189105722Y-69343947D01*
X189050000Y-69063814D01*
X189050000Y-68778186D01*
X189105722Y-68498053D01*
X189215027Y-68234167D01*
X189373713Y-67996676D01*
X189575676Y-67794713D01*
X189813167Y-67636027D01*
X190077053Y-67526722D01*
X190357186Y-67471000D01*
X190642814Y-67471000D01*
X190922947Y-67526722D01*
X190922947Y-67526722D01*
G37*
G36*
X173904947Y-67526722D02*
X174168833Y-67636027D01*
X174406324Y-67794713D01*
X174608287Y-67996676D01*
X174766973Y-68234167D01*
X174876278Y-68498053D01*
X174932000Y-68778186D01*
X174932000Y-69063814D01*
X174876278Y-69343947D01*
X174766973Y-69607833D01*
X174608287Y-69845324D01*
X174406324Y-70047287D01*
X174168833Y-70205973D01*
X173904947Y-70315278D01*
X173624814Y-70371000D01*
X173339186Y-70371000D01*
X173059053Y-70315278D01*
X172795167Y-70205973D01*
X172557676Y-70047287D01*
X172355713Y-69845324D01*
X172197027Y-69607833D01*
X172087722Y-69343947D01*
X172032000Y-69063814D01*
X172032000Y-68778186D01*
X172087722Y-68498053D01*
X172197027Y-68234167D01*
X172355713Y-67996676D01*
X172557676Y-67794713D01*
X172795167Y-67636027D01*
X173059053Y-67526722D01*
X173339186Y-67471000D01*
X173624814Y-67471000D01*
X173904947Y-67526722D01*
X173904947Y-67526722D01*
G37*
G36*
X178984947Y-67526722D02*
X179248833Y-67636027D01*
X179486324Y-67794713D01*
X179688287Y-67996676D01*
X179846973Y-68234167D01*
X179956278Y-68498053D01*
X180012000Y-68778186D01*
X180012000Y-69063814D01*
X179956278Y-69343947D01*
X179846973Y-69607833D01*
X179688287Y-69845324D01*
X179486324Y-70047287D01*
X179248833Y-70205973D01*
X178984947Y-70315278D01*
X178704814Y-70371000D01*
X178419186Y-70371000D01*
X178139053Y-70315278D01*
X177875167Y-70205973D01*
X177637676Y-70047287D01*
X177435713Y-69845324D01*
X177277027Y-69607833D01*
X177167722Y-69343947D01*
X177112000Y-69063814D01*
X177112000Y-68778186D01*
X177167722Y-68498053D01*
X177277027Y-68234167D01*
X177435713Y-67996676D01*
X177637676Y-67794713D01*
X177875167Y-67636027D01*
X178139053Y-67526722D01*
X178419186Y-67471000D01*
X178704814Y-67471000D01*
X178984947Y-67526722D01*
X178984947Y-67526722D01*
G37*
G36*
X154854947Y-67526722D02*
X155118833Y-67636027D01*
X155356324Y-67794713D01*
X155558287Y-67996676D01*
X155716973Y-68234167D01*
X155826278Y-68498053D01*
X155882000Y-68778186D01*
X155882000Y-69063814D01*
X155826278Y-69343947D01*
X155716973Y-69607833D01*
X155558287Y-69845324D01*
X155356324Y-70047287D01*
X155118833Y-70205973D01*
X154854947Y-70315278D01*
X154574814Y-70371000D01*
X154289186Y-70371000D01*
X154009053Y-70315278D01*
X153745167Y-70205973D01*
X153507676Y-70047287D01*
X153305713Y-69845324D01*
X153147027Y-69607833D01*
X153037722Y-69343947D01*
X152982000Y-69063814D01*
X152982000Y-68778186D01*
X153037722Y-68498053D01*
X153147027Y-68234167D01*
X153305713Y-67996676D01*
X153507676Y-67794713D01*
X153745167Y-67636027D01*
X154009053Y-67526722D01*
X154289186Y-67471000D01*
X154574814Y-67471000D01*
X154854947Y-67526722D01*
X154854947Y-67526722D01*
G37*
G36*
X149774947Y-67526722D02*
X150038833Y-67636027D01*
X150276324Y-67794713D01*
X150478287Y-67996676D01*
X150636973Y-68234167D01*
X150746278Y-68498053D01*
X150802000Y-68778186D01*
X150802000Y-69063814D01*
X150746278Y-69343947D01*
X150636973Y-69607833D01*
X150478287Y-69845324D01*
X150276324Y-70047287D01*
X150038833Y-70205973D01*
X149774947Y-70315278D01*
X149494814Y-70371000D01*
X149209186Y-70371000D01*
X148929053Y-70315278D01*
X148665167Y-70205973D01*
X148427676Y-70047287D01*
X148225713Y-69845324D01*
X148067027Y-69607833D01*
X147957722Y-69343947D01*
X147902000Y-69063814D01*
X147902000Y-68778186D01*
X147957722Y-68498053D01*
X148067027Y-68234167D01*
X148225713Y-67996676D01*
X148427676Y-67794713D01*
X148665167Y-67636027D01*
X148929053Y-67526722D01*
X149209186Y-67471000D01*
X149494814Y-67471000D01*
X149774947Y-67526722D01*
X149774947Y-67526722D01*
G37*
G36*
X196002947Y-67526722D02*
X196266833Y-67636027D01*
X196504324Y-67794713D01*
X196706287Y-67996676D01*
X196864973Y-68234167D01*
X196974278Y-68498053D01*
X197030000Y-68778186D01*
X197030000Y-69063814D01*
X196974278Y-69343947D01*
X196864973Y-69607833D01*
X196706287Y-69845324D01*
X196504324Y-70047287D01*
X196266833Y-70205973D01*
X196002947Y-70315278D01*
X195722814Y-70371000D01*
X195437186Y-70371000D01*
X195157053Y-70315278D01*
X194893167Y-70205973D01*
X194655676Y-70047287D01*
X194453713Y-69845324D01*
X194295027Y-69607833D01*
X194185722Y-69343947D01*
X194130000Y-69063814D01*
X194130000Y-68778186D01*
X194185722Y-68498053D01*
X194295027Y-68234167D01*
X194453713Y-67996676D01*
X194655676Y-67794713D01*
X194893167Y-67636027D01*
X195157053Y-67526722D01*
X195437186Y-67471000D01*
X195722814Y-67471000D01*
X196002947Y-67526722D01*
X196002947Y-67526722D01*
G37*
G36*
X201082947Y-67526722D02*
X201346833Y-67636027D01*
X201584324Y-67794713D01*
X201786287Y-67996676D01*
X201944973Y-68234167D01*
X202054278Y-68498053D01*
X202110000Y-68778186D01*
X202110000Y-69063814D01*
X202054278Y-69343947D01*
X201944973Y-69607833D01*
X201786287Y-69845324D01*
X201584324Y-70047287D01*
X201346833Y-70205973D01*
X201082947Y-70315278D01*
X200802814Y-70371000D01*
X200517186Y-70371000D01*
X200237053Y-70315278D01*
X199973167Y-70205973D01*
X199735676Y-70047287D01*
X199533713Y-69845324D01*
X199375027Y-69607833D01*
X199265722Y-69343947D01*
X199210000Y-69063814D01*
X199210000Y-68778186D01*
X199265722Y-68498053D01*
X199375027Y-68234167D01*
X199533713Y-67996676D01*
X199735676Y-67794713D01*
X199973167Y-67636027D01*
X200237053Y-67526722D01*
X200517186Y-67471000D01*
X200802814Y-67471000D01*
X201082947Y-67526722D01*
X201082947Y-67526722D01*
G37*
G36*
X206162947Y-67526722D02*
X206426833Y-67636027D01*
X206664324Y-67794713D01*
X206866287Y-67996676D01*
X207024973Y-68234167D01*
X207134278Y-68498053D01*
X207190000Y-68778186D01*
X207190000Y-69063814D01*
X207134278Y-69343947D01*
X207024973Y-69607833D01*
X206866287Y-69845324D01*
X206664324Y-70047287D01*
X206426833Y-70205973D01*
X206162947Y-70315278D01*
X205882814Y-70371000D01*
X205597186Y-70371000D01*
X205317053Y-70315278D01*
X205053167Y-70205973D01*
X204815676Y-70047287D01*
X204613713Y-69845324D01*
X204455027Y-69607833D01*
X204345722Y-69343947D01*
X204290000Y-69063814D01*
X204290000Y-68778186D01*
X204345722Y-68498053D01*
X204455027Y-68234167D01*
X204613713Y-67996676D01*
X204815676Y-67794713D01*
X205053167Y-67636027D01*
X205317053Y-67526722D01*
X205597186Y-67471000D01*
X205882814Y-67471000D01*
X206162947Y-67526722D01*
X206162947Y-67526722D01*
G37*
M02*
