G04 #@! TF.FileFunction,Copper,L2,Bot,Signal*
%FSLAX46Y46*%
G04 Gerber Fmt 4.6, Leading zero omitted, Abs format (unit mm)*
G04 Created by KiCad (PCBNEW 4.0.4-stable) date 03/10/17 08:23:14*
%MOMM*%
%LPD*%
G01*
G04 APERTURE LIST*
%ADD10C,0.100000*%
%ADD11C,0.900000*%
%ADD12R,1.200000X3.800000*%
%ADD13R,10.490000X8.380000*%
%ADD14R,3.500120X3.500120*%
%ADD15C,2.500000*%
%ADD16R,1.700000X1.700000*%
%ADD17O,1.700000X1.700000*%
%ADD18R,3.800000X1.200000*%
%ADD19R,8.380000X10.490000*%
%ADD20C,0.600000*%
%ADD21C,0.250000*%
%ADD22C,3.000000*%
%ADD23C,1.000000*%
%ADD24C,0.254000*%
G04 APERTURE END LIST*
D10*
D11*
X145036000Y-157106000D03*
X162136000Y-157106000D03*
D12*
X177736000Y-87937000D03*
X182816000Y-87937000D03*
D13*
X180276000Y-77724000D03*
D14*
X139931140Y-83312000D03*
X133931660Y-83312000D03*
X136931400Y-88011000D03*
D11*
X165356000Y-157106000D03*
X182456000Y-157106000D03*
D15*
X190500000Y-68921000D03*
X195580000Y-68921000D03*
X200660000Y-68921000D03*
X205740000Y-68921000D03*
X210820000Y-68961000D03*
X149352000Y-68921000D03*
X154432000Y-68921000D03*
X163322000Y-68921000D03*
X168402000Y-68921000D03*
X173482000Y-68921000D03*
X178562000Y-68921000D03*
X183642000Y-68961000D03*
D12*
X192342000Y-88191000D03*
X197422000Y-88191000D03*
D13*
X194882000Y-77978000D03*
D12*
X165862000Y-87873500D03*
X170942000Y-87873500D03*
D13*
X168402000Y-77660500D03*
D12*
X204026000Y-88191000D03*
X209106000Y-88191000D03*
D13*
X206566000Y-77978000D03*
D15*
X222290000Y-93980000D03*
X222290000Y-99060000D03*
X222290000Y-104140000D03*
X222290000Y-109220000D03*
X222250000Y-114300000D03*
D16*
X211963000Y-144590000D03*
D17*
X211963000Y-142050000D03*
X211963000Y-139510000D03*
X211963000Y-136970000D03*
X211963000Y-134430000D03*
D15*
X135850000Y-114300000D03*
X135850000Y-109220000D03*
X135850000Y-104140000D03*
X135850000Y-99060000D03*
X135890000Y-93980000D03*
D18*
X203147000Y-101600000D03*
X203147000Y-106680000D03*
D19*
X213360000Y-104140000D03*
D18*
X156707000Y-113220000D03*
X156707000Y-108140000D03*
D19*
X146494000Y-110680000D03*
D18*
X203083000Y-113157000D03*
X203083000Y-118237000D03*
D19*
X213296000Y-115697000D03*
D18*
X156644000Y-100584000D03*
X156644000Y-95504000D03*
D19*
X146431000Y-98044000D03*
D20*
X174561500Y-123571000D03*
X174244000Y-129794000D03*
X173926500Y-135953500D03*
X171958000Y-140906500D03*
X165544500Y-143192500D03*
X158940500Y-142430500D03*
X212153500Y-154178000D03*
X207073500Y-157099000D03*
X202311000Y-154051000D03*
X199072500Y-147447000D03*
X207010000Y-150114000D03*
X216725500Y-148653500D03*
X224790000Y-147383500D03*
X223901000Y-140525500D03*
X224663000Y-131572000D03*
X225298000Y-124079000D03*
X216979500Y-124396500D03*
X209740500Y-124841000D03*
X215074500Y-129476500D03*
X216090500Y-134366000D03*
X213487000Y-90932000D03*
X219646500Y-89154000D03*
X216471500Y-83820000D03*
X208788000Y-84455000D03*
X199263000Y-83883500D03*
X186245500Y-83693000D03*
X171386500Y-83883500D03*
X156781500Y-84074000D03*
X169100500Y-97345500D03*
X162242500Y-94615000D03*
X156591000Y-91567000D03*
X154432000Y-86868000D03*
X152082500Y-78613000D03*
X146812000Y-82486500D03*
X147891500Y-88582500D03*
X152336500Y-92011500D03*
X132016500Y-87185500D03*
X132461000Y-94805500D03*
X132016500Y-103060500D03*
X132461000Y-112268000D03*
X133858000Y-119507000D03*
X134048500Y-126428500D03*
X133477000Y-134620000D03*
X133413500Y-141795500D03*
X132651500Y-148590000D03*
X140398500Y-148780500D03*
X141033500Y-145288000D03*
X140970000Y-141224000D03*
X141732000Y-135699500D03*
X142684500Y-129921000D03*
X142748000Y-123571000D03*
X148272500Y-124650000D03*
X148336000Y-128587500D03*
X148653500Y-135255000D03*
X148399500Y-139446000D03*
X153162000Y-138811000D03*
X152908000Y-132461000D03*
X152527000Y-126365000D03*
X153098500Y-121094500D03*
X152844000Y-116649500D03*
X152908000Y-112776000D03*
X154559000Y-111696000D03*
X153670000Y-100838000D03*
X165100000Y-85090000D03*
X177546000Y-84899500D03*
X193294000Y-85407500D03*
X205994000Y-88392000D03*
X204534000Y-111760000D03*
X204152000Y-102997000D03*
X184213500Y-117094000D03*
X191326400Y-100064500D03*
X170041100Y-148375600D03*
X176530000Y-147320000D03*
X172449300Y-146848800D03*
X155038900Y-148273200D03*
X154193700Y-148546700D03*
X173623300Y-147933700D03*
X178400800Y-110905300D03*
X167820900Y-126551600D03*
X177520100Y-112381000D03*
X180340000Y-112268000D03*
X181356000Y-146812000D03*
X161116900Y-127053800D03*
X172351600Y-102027500D03*
X161648400Y-126039800D03*
X175952200Y-105086800D03*
X194007700Y-94071500D03*
X178333400Y-97399700D03*
X202861800Y-94435200D03*
X180590000Y-97397100D03*
X201770600Y-105405900D03*
X159226600Y-108434300D03*
X199013200Y-117785900D03*
X158869300Y-97476000D03*
D21*
X160591500Y-136080500D02*
X160591500Y-140779500D01*
X174244000Y-135636000D02*
X174244000Y-129794000D01*
X173926500Y-135953500D02*
X174244000Y-135636000D01*
X167830500Y-140906500D02*
X171958000Y-140906500D01*
X165544500Y-143192500D02*
X167830500Y-140906500D01*
X160591500Y-140779500D02*
X158940500Y-142430500D01*
X211963000Y-134430000D02*
X216026500Y-134430000D01*
X212598000Y-154622500D02*
X213677500Y-154622500D01*
X212153500Y-154178000D02*
X212598000Y-154622500D01*
X205359000Y-157099000D02*
X207073500Y-157099000D01*
X202311000Y-154051000D02*
X205359000Y-157099000D01*
X204343000Y-147447000D02*
X199072500Y-147447000D01*
X207010000Y-150114000D02*
X204343000Y-147447000D01*
X223520000Y-148653500D02*
X216725500Y-148653500D01*
X224790000Y-147383500D02*
X223520000Y-148653500D01*
X223901000Y-132334000D02*
X223901000Y-140525500D01*
X224663000Y-131572000D02*
X223901000Y-132334000D01*
X217297000Y-124079000D02*
X225298000Y-124079000D01*
X216979500Y-124396500D02*
X217297000Y-124079000D01*
X210439000Y-124841000D02*
X209740500Y-124841000D01*
X215074500Y-129476500D02*
X210439000Y-124841000D01*
X216026500Y-134430000D02*
X216090500Y-134366000D01*
X154432000Y-86868000D02*
X154432000Y-86423500D01*
X219646500Y-86995000D02*
X219646500Y-89154000D01*
X216471500Y-83820000D02*
X219646500Y-86995000D01*
X199834500Y-84455000D02*
X208788000Y-84455000D01*
X199263000Y-83883500D02*
X199834500Y-84455000D01*
X171577000Y-83693000D02*
X186245500Y-83693000D01*
X171386500Y-83883500D02*
X171577000Y-83693000D01*
X154432000Y-86423500D02*
X156781500Y-84074000D01*
X153670000Y-100838000D02*
X153670000Y-93345000D01*
X169164000Y-97409000D02*
X171132500Y-97409000D01*
X169100500Y-97345500D02*
X169164000Y-97409000D01*
X159639000Y-94615000D02*
X162242500Y-94615000D01*
X156591000Y-91567000D02*
X159639000Y-94615000D01*
X154432000Y-80962500D02*
X154432000Y-86868000D01*
X152082500Y-78613000D02*
X154432000Y-80962500D01*
X146812000Y-87503000D02*
X146812000Y-82486500D01*
X147891500Y-88582500D02*
X146812000Y-87503000D01*
X153670000Y-93345000D02*
X152336500Y-92011500D01*
X132397500Y-88709500D02*
X132461000Y-88709500D01*
X132461000Y-88646000D02*
X132397500Y-88709500D01*
X132461000Y-87630000D02*
X132461000Y-88646000D01*
X132016500Y-87185500D02*
X132461000Y-87630000D01*
X132461000Y-102616000D02*
X132461000Y-94805500D01*
X132016500Y-103060500D02*
X132461000Y-102616000D01*
X132461000Y-118110000D02*
X132461000Y-112268000D01*
X133858000Y-119507000D02*
X132461000Y-118110000D01*
X134048500Y-134048500D02*
X134048500Y-126428500D01*
X133477000Y-134620000D02*
X134048500Y-134048500D01*
X133413500Y-147828000D02*
X133413500Y-141795500D01*
X132651500Y-148590000D02*
X133413500Y-147828000D01*
X140398500Y-145923000D02*
X140398500Y-148780500D01*
X141033500Y-145288000D02*
X140398500Y-145923000D01*
X140970000Y-136461500D02*
X140970000Y-141224000D01*
X141732000Y-135699500D02*
X140970000Y-136461500D01*
X142684500Y-123634500D02*
X142684500Y-129921000D01*
X142748000Y-123571000D02*
X142684500Y-123634500D01*
X148272500Y-128524000D02*
X148272500Y-124650000D01*
X148336000Y-128587500D02*
X148272500Y-128524000D01*
X148653500Y-139192000D02*
X148653500Y-135255000D01*
X148399500Y-139446000D02*
X148653500Y-139192000D01*
X153162000Y-132715000D02*
X153162000Y-138811000D01*
X152908000Y-132461000D02*
X153162000Y-132715000D01*
X152527000Y-121666000D02*
X152527000Y-126365000D01*
X153098500Y-121094500D02*
X152527000Y-121666000D01*
X152844000Y-112840000D02*
X152844000Y-116649500D01*
X152908000Y-112776000D02*
X152844000Y-112840000D01*
D22*
X156390000Y-100838000D02*
X153670000Y-100838000D01*
X156644000Y-100584000D02*
X156390000Y-100838000D01*
X165100000Y-87111500D02*
X165100000Y-85090000D01*
X165862000Y-87873500D02*
X165100000Y-87111500D01*
X177546000Y-87746500D02*
X177546000Y-84899500D01*
X177736000Y-87937000D02*
X177546000Y-87746500D01*
X193294000Y-87238500D02*
X193294000Y-85407500D01*
X192342000Y-88191000D02*
X193294000Y-87238500D01*
X204226000Y-88392000D02*
X205994000Y-88392000D01*
X204026000Y-88191000D02*
X204226000Y-88392000D01*
X204152000Y-102606000D02*
X204152000Y-102997000D01*
X203147000Y-101600000D02*
X204152000Y-102606000D01*
D23*
X133931700Y-83312000D02*
X133931800Y-83312100D01*
D22*
X133932000Y-83312000D02*
X133931800Y-83312100D01*
X138059000Y-79184500D02*
X133932000Y-83312000D01*
X139088000Y-79184500D02*
X138059000Y-79184500D01*
X149352000Y-68921000D02*
X139088000Y-79184500D01*
D23*
X156707000Y-113220000D02*
X156707500Y-113219500D01*
D22*
X156708000Y-113220000D02*
X156707500Y-113219500D01*
X155184000Y-111696000D02*
X154559000Y-111696000D01*
X156707500Y-113219500D02*
X155184000Y-111696000D01*
X140208000Y-124650000D02*
X143397000Y-124650000D01*
X132461000Y-88709500D02*
X132461000Y-117094000D01*
X132461000Y-117094000D02*
X132652000Y-117094000D01*
X132652000Y-117094000D02*
X140208000Y-124650000D01*
X132461000Y-84782700D02*
X132461000Y-88709500D01*
X133931800Y-83312100D02*
X132461000Y-84782700D01*
X152844000Y-101664000D02*
X153670000Y-100838000D01*
X152844000Y-122492000D02*
X152844000Y-101664000D01*
X150686000Y-124650000D02*
X152844000Y-122492000D01*
X143397000Y-124650000D02*
X150686000Y-124650000D01*
D23*
X143397000Y-155467000D02*
X145036000Y-157106000D01*
X143397000Y-124650000D02*
X143397000Y-155467000D01*
X205683300Y-112251300D02*
X205683300Y-113157000D01*
X205192000Y-111760000D02*
X205683300Y-112251300D01*
X204534000Y-111760000D02*
X205192000Y-111760000D01*
X203083000Y-113157000D02*
X205683300Y-113157000D01*
X205683300Y-126600000D02*
X205683300Y-113157000D01*
X211963000Y-132879700D02*
X205683300Y-126600000D01*
X211963000Y-134430000D02*
X211963000Y-132879700D01*
X191326400Y-112903000D02*
X188404500Y-112903000D01*
X188404500Y-112903000D02*
X184213500Y-117094000D01*
X191326400Y-112903000D02*
X191326400Y-100064500D01*
D22*
X210820000Y-68961000D02*
X210820000Y-69215000D01*
X210820000Y-69215000D02*
X226060000Y-84455000D01*
X226060000Y-110490000D02*
X222250000Y-114300000D01*
X226060000Y-84455000D02*
X226060000Y-110490000D01*
X137668000Y-93980000D02*
X135890000Y-93980000D01*
X142938000Y-88709500D02*
X137668000Y-93980000D01*
X142938000Y-86360000D02*
X142938000Y-88709500D01*
X141922000Y-85344000D02*
X142938000Y-86360000D01*
X141922000Y-85303400D02*
X141922000Y-85344000D01*
X139931000Y-83312000D02*
X141922000Y-85303400D01*
X154322000Y-68921000D02*
X139931000Y-83312000D01*
X154432000Y-68921000D02*
X154322000Y-68921000D01*
X183642000Y-66929000D02*
X181800000Y-65087500D01*
X183642000Y-68961000D02*
X183642000Y-66929000D01*
X157036000Y-65087500D02*
X181800000Y-65087500D01*
X154432000Y-67691000D02*
X157036000Y-65087500D01*
X154432000Y-68921000D02*
X154432000Y-67691000D01*
X206946000Y-65087500D02*
X210820000Y-68961000D01*
X181800000Y-65087500D02*
X206946000Y-65087500D01*
D23*
X170699400Y-149033900D02*
X170041100Y-148375600D01*
X174816100Y-149033900D02*
X170699400Y-149033900D01*
X176530000Y-147320000D02*
X174816100Y-149033900D01*
D21*
X156463300Y-146848800D02*
X155038900Y-148273200D01*
X172449300Y-146848800D02*
X156463300Y-146848800D01*
X173356400Y-147519500D02*
X173623300Y-147786400D01*
X158993800Y-147519500D02*
X173356400Y-147519500D01*
X157614800Y-148898500D02*
X158993800Y-147519500D01*
X154545500Y-148898500D02*
X157614800Y-148898500D01*
X154193700Y-148546700D02*
X154545500Y-148898500D01*
X173623300Y-147786400D02*
X173623300Y-147933700D01*
X174951800Y-146457900D02*
X178400800Y-146457900D01*
X173623300Y-147786400D02*
X174951800Y-146457900D01*
X197448600Y-144590000D02*
X211963000Y-144590000D01*
X190475200Y-151563400D02*
X197448600Y-144590000D01*
X183506300Y-151563400D02*
X190475200Y-151563400D01*
X178400800Y-146457900D02*
X183506300Y-151563400D01*
X178400800Y-146457900D02*
X178400800Y-110905300D01*
X177520100Y-116852400D02*
X177520100Y-112381000D01*
X167820900Y-126551600D02*
X177520100Y-116852400D01*
D22*
X195580000Y-77279500D02*
X194882000Y-77978000D01*
X195580000Y-68921000D02*
X195580000Y-77279500D01*
X205740000Y-77152500D02*
X206566000Y-77978000D01*
X205740000Y-68921000D02*
X205740000Y-77152500D01*
X168402000Y-68921000D02*
X168402000Y-77660500D01*
X178562000Y-76009500D02*
X180276000Y-77724000D01*
X178562000Y-68921000D02*
X178562000Y-76009500D01*
X218440000Y-99060000D02*
X213360000Y-104140000D01*
X222290000Y-99060000D02*
X218440000Y-99060000D01*
X215773000Y-115697000D02*
X213296000Y-115697000D01*
X222250000Y-109220000D02*
X215773000Y-115697000D01*
X222290000Y-109220000D02*
X222250000Y-109220000D01*
X137310000Y-110680000D02*
X135850000Y-109220000D01*
X146494000Y-110680000D02*
X137310000Y-110680000D01*
X136866000Y-98044000D02*
X135850000Y-99060000D01*
X146431000Y-98044000D02*
X136866000Y-98044000D01*
D21*
X180340000Y-145796000D02*
X180340000Y-112268000D01*
X181356000Y-146812000D02*
X180340000Y-145796000D01*
X161023100Y-126960000D02*
X161116900Y-127053800D01*
X161023100Y-113356000D02*
X161023100Y-126960000D01*
X172351600Y-102027500D02*
X161023100Y-113356000D01*
X175952200Y-111736000D02*
X175952200Y-105086800D01*
X161648400Y-126039800D02*
X175952200Y-111736000D01*
X197422000Y-88191000D02*
X197422000Y-90416300D01*
X197422000Y-90657200D02*
X194007700Y-94071500D01*
X197422000Y-90416300D02*
X197422000Y-90657200D01*
X171032500Y-90098800D02*
X178333400Y-97399700D01*
X170942000Y-90098800D02*
X171032500Y-90098800D01*
X170942000Y-87873500D02*
X170942000Y-90098800D01*
X209106000Y-88191000D02*
X209106000Y-90416300D01*
X206880700Y-90416300D02*
X202861800Y-94435200D01*
X209106000Y-90416300D02*
X206880700Y-90416300D01*
X180590000Y-92388300D02*
X180590000Y-97397100D01*
X182816000Y-90162300D02*
X180590000Y-92388300D01*
X182816000Y-87937000D02*
X182816000Y-90162300D01*
X201770600Y-105406000D02*
X201770600Y-105405900D01*
X201386000Y-105406000D02*
X201770600Y-105406000D01*
X200921700Y-105870300D02*
X201386000Y-105406000D01*
X200921700Y-106680000D02*
X200921700Y-105870300D01*
X203147000Y-106680000D02*
X200921700Y-106680000D01*
X156707000Y-108140000D02*
X158932300Y-108140000D01*
X158932300Y-108140000D02*
X159226600Y-108434300D01*
X199464300Y-118237000D02*
X199013200Y-117785900D01*
X203083000Y-118237000D02*
X199464300Y-118237000D01*
X156644000Y-95504000D02*
X158869300Y-95504000D01*
X158869300Y-95504000D02*
X158869300Y-97476000D01*
D24*
G36*
X228906000Y-159818000D02*
X181431000Y-159818000D01*
X181431000Y-158464285D01*
X191654760Y-158464285D01*
X191865169Y-158973515D01*
X192254436Y-159363461D01*
X192763298Y-159574759D01*
X193314285Y-159575240D01*
X193823515Y-159364831D01*
X194213461Y-158975564D01*
X194424759Y-158466702D01*
X194425240Y-157915715D01*
X194214831Y-157406485D01*
X193825564Y-157016539D01*
X193316702Y-156805241D01*
X192765715Y-156804760D01*
X192256485Y-157015169D01*
X191866539Y-157404436D01*
X191655241Y-157913298D01*
X191654760Y-158464285D01*
X181431000Y-158464285D01*
X181431000Y-157859745D01*
X181881860Y-157859745D01*
X181912803Y-158069712D01*
X182322948Y-158204226D01*
X182753349Y-158171546D01*
X182999197Y-158069712D01*
X183030140Y-157859745D01*
X182456000Y-157285605D01*
X181881860Y-157859745D01*
X181431000Y-157859745D01*
X181431000Y-157501235D01*
X181492288Y-157649197D01*
X181702255Y-157680140D01*
X182276395Y-157106000D01*
X182635605Y-157106000D01*
X183209745Y-157680140D01*
X183419712Y-157649197D01*
X183554226Y-157239052D01*
X183521546Y-156808651D01*
X183419712Y-156562803D01*
X183209745Y-156531860D01*
X182635605Y-157106000D01*
X182276395Y-157106000D01*
X181702255Y-156531860D01*
X181492288Y-156562803D01*
X181431000Y-156749675D01*
X181431000Y-156352255D01*
X181881860Y-156352255D01*
X182456000Y-156926395D01*
X183030140Y-156352255D01*
X182999197Y-156142288D01*
X182589052Y-156007774D01*
X182158651Y-156040454D01*
X181912803Y-156142288D01*
X181881860Y-156352255D01*
X181431000Y-156352255D01*
X181431000Y-155442619D01*
X219764613Y-155442619D01*
X220104155Y-156264372D01*
X220732321Y-156893636D01*
X221553481Y-157234611D01*
X222442619Y-157235387D01*
X223264372Y-156895845D01*
X223893636Y-156267679D01*
X224234611Y-155446519D01*
X224235387Y-154557381D01*
X223895845Y-153735628D01*
X223267679Y-153106364D01*
X222446519Y-152765389D01*
X221557381Y-152764613D01*
X220735628Y-153104155D01*
X220106364Y-153732321D01*
X219765389Y-154553481D01*
X219764613Y-155442619D01*
X181431000Y-155442619D01*
X181431000Y-152464285D01*
X191654760Y-152464285D01*
X191865169Y-152973515D01*
X192254436Y-153363461D01*
X192763298Y-153574759D01*
X193314285Y-153575240D01*
X193823515Y-153364831D01*
X194213461Y-152975564D01*
X194424759Y-152466702D01*
X194425240Y-151915715D01*
X194214831Y-151406485D01*
X193825564Y-151016539D01*
X193316702Y-150805241D01*
X192765715Y-150804760D01*
X192256485Y-151015169D01*
X191866539Y-151404436D01*
X191655241Y-151913298D01*
X191654760Y-152464285D01*
X181431000Y-152464285D01*
X181431000Y-152400000D01*
X181376954Y-152128295D01*
X181223046Y-151897954D01*
X180992705Y-151744046D01*
X180836582Y-151712991D01*
X180842657Y-151710481D01*
X181288914Y-151265003D01*
X181530724Y-150682659D01*
X181530741Y-150662643D01*
X182968899Y-152100801D01*
X183215460Y-152265548D01*
X183506300Y-152323400D01*
X190475200Y-152323400D01*
X190766039Y-152265548D01*
X191012601Y-152100801D01*
X197763402Y-145350000D01*
X210465560Y-145350000D01*
X210465560Y-145440000D01*
X210509838Y-145675317D01*
X210648910Y-145891441D01*
X210861110Y-146036431D01*
X211113000Y-146087440D01*
X212813000Y-146087440D01*
X213048317Y-146043162D01*
X213264441Y-145904090D01*
X213409431Y-145691890D01*
X213460440Y-145440000D01*
X213460440Y-143740000D01*
X213416162Y-143504683D01*
X213277090Y-143288559D01*
X213064890Y-143143569D01*
X212997459Y-143129914D01*
X213042147Y-143100054D01*
X213364054Y-142618285D01*
X213477093Y-142050000D01*
X213364054Y-141481715D01*
X213042147Y-140999946D01*
X212712974Y-140780000D01*
X213042147Y-140560054D01*
X213364054Y-140078285D01*
X213477093Y-139510000D01*
X213364054Y-138941715D01*
X213042147Y-138459946D01*
X212712974Y-138240000D01*
X213042147Y-138020054D01*
X213364054Y-137538285D01*
X213477093Y-136970000D01*
X213364054Y-136401715D01*
X213042147Y-135919946D01*
X212701447Y-135692298D01*
X212844358Y-135625183D01*
X213234645Y-135196924D01*
X213404476Y-134786890D01*
X213283155Y-134557000D01*
X212090000Y-134557000D01*
X212090000Y-134577000D01*
X211836000Y-134577000D01*
X211836000Y-134557000D01*
X210642845Y-134557000D01*
X210521524Y-134786890D01*
X210691355Y-135196924D01*
X211081642Y-135625183D01*
X211224553Y-135692298D01*
X210883853Y-135919946D01*
X210561946Y-136401715D01*
X210448907Y-136970000D01*
X210561946Y-137538285D01*
X210883853Y-138020054D01*
X211213026Y-138240000D01*
X210883853Y-138459946D01*
X210561946Y-138941715D01*
X210448907Y-139510000D01*
X210561946Y-140078285D01*
X210883853Y-140560054D01*
X211213026Y-140780000D01*
X210883853Y-140999946D01*
X210561946Y-141481715D01*
X210448907Y-142050000D01*
X210561946Y-142618285D01*
X210883853Y-143100054D01*
X210925452Y-143127850D01*
X210877683Y-143136838D01*
X210661559Y-143275910D01*
X210516569Y-143488110D01*
X210465560Y-143740000D01*
X210465560Y-143830000D01*
X197448600Y-143830000D01*
X197157761Y-143887852D01*
X196911199Y-144052599D01*
X190160398Y-150803400D01*
X183821102Y-150803400D01*
X179160800Y-146143098D01*
X179160800Y-112453167D01*
X179404838Y-112453167D01*
X179546883Y-112796943D01*
X179580000Y-112830118D01*
X179580000Y-145796000D01*
X179637852Y-146086839D01*
X179802599Y-146333401D01*
X180420878Y-146951680D01*
X180420838Y-146997167D01*
X180562883Y-147340943D01*
X180825673Y-147604192D01*
X181169201Y-147746838D01*
X181541167Y-147747162D01*
X181884943Y-147605117D01*
X182148192Y-147342327D01*
X182290838Y-146998799D01*
X182291162Y-146626833D01*
X182149117Y-146283057D01*
X181886327Y-146019808D01*
X181542799Y-145877162D01*
X181495923Y-145877121D01*
X181100000Y-145481198D01*
X181100000Y-134073110D01*
X210521524Y-134073110D01*
X210642845Y-134303000D01*
X211836000Y-134303000D01*
X211836000Y-133109181D01*
X212090000Y-133109181D01*
X212090000Y-134303000D01*
X213283155Y-134303000D01*
X213404476Y-134073110D01*
X213234645Y-133663076D01*
X212844358Y-133234817D01*
X212319892Y-132988514D01*
X212090000Y-133109181D01*
X211836000Y-133109181D01*
X211606108Y-132988514D01*
X211081642Y-133234817D01*
X210691355Y-133663076D01*
X210521524Y-134073110D01*
X181100000Y-134073110D01*
X181100000Y-117094000D01*
X183078500Y-117094000D01*
X183164897Y-117528345D01*
X183410934Y-117896566D01*
X183779155Y-118142603D01*
X184213500Y-118229000D01*
X184647845Y-118142603D01*
X184904567Y-117971067D01*
X198078038Y-117971067D01*
X198220083Y-118314843D01*
X198482873Y-118578092D01*
X198826401Y-118720738D01*
X198873277Y-118720779D01*
X198926899Y-118774401D01*
X199173461Y-118939148D01*
X199464300Y-118997000D01*
X200565666Y-118997000D01*
X200579838Y-119072317D01*
X200718910Y-119288441D01*
X200931110Y-119433431D01*
X201183000Y-119484440D01*
X204983000Y-119484440D01*
X205218317Y-119440162D01*
X205434441Y-119301090D01*
X205579431Y-119088890D01*
X205630440Y-118837000D01*
X205630440Y-117637000D01*
X205586162Y-117401683D01*
X205447090Y-117185559D01*
X205234890Y-117040569D01*
X204983000Y-116989560D01*
X201183000Y-116989560D01*
X200947683Y-117033838D01*
X200731559Y-117172910D01*
X200586569Y-117385110D01*
X200567961Y-117477000D01*
X199897237Y-117477000D01*
X199806317Y-117256957D01*
X199543527Y-116993708D01*
X199199999Y-116851062D01*
X198828033Y-116850738D01*
X198484257Y-116992783D01*
X198221008Y-117255573D01*
X198078362Y-117599101D01*
X198078038Y-117971067D01*
X184904567Y-117971067D01*
X185016066Y-117896566D01*
X188874632Y-114038000D01*
X191326400Y-114038000D01*
X191760746Y-113951603D01*
X192128966Y-113705566D01*
X192304574Y-113442750D01*
X200548000Y-113442750D01*
X200548000Y-113883309D01*
X200644673Y-114116698D01*
X200823301Y-114295327D01*
X201056690Y-114392000D01*
X202797250Y-114392000D01*
X202956000Y-114233250D01*
X202956000Y-113284000D01*
X203210000Y-113284000D01*
X203210000Y-114233250D01*
X203368750Y-114392000D01*
X205109310Y-114392000D01*
X205342699Y-114295327D01*
X205521327Y-114116698D01*
X205618000Y-113883309D01*
X205618000Y-113442750D01*
X205459250Y-113284000D01*
X203210000Y-113284000D01*
X202956000Y-113284000D01*
X200706750Y-113284000D01*
X200548000Y-113442750D01*
X192304574Y-113442750D01*
X192375003Y-113337346D01*
X192461400Y-112903000D01*
X192461400Y-112430691D01*
X200548000Y-112430691D01*
X200548000Y-112871250D01*
X200706750Y-113030000D01*
X202956000Y-113030000D01*
X202956000Y-112080750D01*
X203210000Y-112080750D01*
X203210000Y-113030000D01*
X205459250Y-113030000D01*
X205618000Y-112871250D01*
X205618000Y-112430691D01*
X205521327Y-112197302D01*
X205342699Y-112018673D01*
X205109310Y-111922000D01*
X203368750Y-111922000D01*
X203210000Y-112080750D01*
X202956000Y-112080750D01*
X202797250Y-111922000D01*
X201056690Y-111922000D01*
X200823301Y-112018673D01*
X200644673Y-112197302D01*
X200548000Y-112430691D01*
X192461400Y-112430691D01*
X192461400Y-105870300D01*
X200161700Y-105870300D01*
X200161700Y-106680000D01*
X200219552Y-106970839D01*
X200384299Y-107217401D01*
X200617043Y-107372915D01*
X200643838Y-107515317D01*
X200782910Y-107731441D01*
X200995110Y-107876431D01*
X201247000Y-107927440D01*
X205047000Y-107927440D01*
X205282317Y-107883162D01*
X205498441Y-107744090D01*
X205643431Y-107531890D01*
X205694440Y-107280000D01*
X205694440Y-106080000D01*
X205650162Y-105844683D01*
X205511090Y-105628559D01*
X205298890Y-105483569D01*
X205047000Y-105432560D01*
X202705577Y-105432560D01*
X202705762Y-105220733D01*
X202563717Y-104876957D01*
X202300927Y-104613708D01*
X201957399Y-104471062D01*
X201585433Y-104470738D01*
X201241657Y-104612783D01*
X201164182Y-104690123D01*
X201095160Y-104703852D01*
X200848599Y-104868599D01*
X200384299Y-105332899D01*
X200219552Y-105579461D01*
X200161700Y-105870300D01*
X192461400Y-105870300D01*
X192461400Y-101885750D01*
X200612000Y-101885750D01*
X200612000Y-102326309D01*
X200708673Y-102559698D01*
X200887301Y-102738327D01*
X201120690Y-102835000D01*
X202861250Y-102835000D01*
X203020000Y-102676250D01*
X203020000Y-101727000D01*
X203274000Y-101727000D01*
X203274000Y-102676250D01*
X203432750Y-102835000D01*
X205173310Y-102835000D01*
X205406699Y-102738327D01*
X205585327Y-102559698D01*
X205682000Y-102326309D01*
X205682000Y-101885750D01*
X205523250Y-101727000D01*
X203274000Y-101727000D01*
X203020000Y-101727000D01*
X200770750Y-101727000D01*
X200612000Y-101885750D01*
X192461400Y-101885750D01*
X192461400Y-100873691D01*
X200612000Y-100873691D01*
X200612000Y-101314250D01*
X200770750Y-101473000D01*
X203020000Y-101473000D01*
X203020000Y-100523750D01*
X203274000Y-100523750D01*
X203274000Y-101473000D01*
X205523250Y-101473000D01*
X205682000Y-101314250D01*
X205682000Y-100873691D01*
X205585327Y-100640302D01*
X205406699Y-100461673D01*
X205173310Y-100365000D01*
X203432750Y-100365000D01*
X203274000Y-100523750D01*
X203020000Y-100523750D01*
X202861250Y-100365000D01*
X201120690Y-100365000D01*
X200887301Y-100461673D01*
X200708673Y-100640302D01*
X200612000Y-100873691D01*
X192461400Y-100873691D01*
X192461400Y-100064500D01*
X192375003Y-99630154D01*
X192128966Y-99261934D01*
X191760746Y-99015897D01*
X191326400Y-98929500D01*
X190892054Y-99015897D01*
X190523834Y-99261934D01*
X190277797Y-99630154D01*
X190191400Y-100064500D01*
X190191400Y-111768000D01*
X188404500Y-111768000D01*
X187970154Y-111854397D01*
X187724298Y-112018673D01*
X187601934Y-112100434D01*
X183410934Y-116291434D01*
X183164897Y-116659655D01*
X183078500Y-117094000D01*
X181100000Y-117094000D01*
X181100000Y-112830463D01*
X181132192Y-112798327D01*
X181274838Y-112454799D01*
X181275162Y-112082833D01*
X181133117Y-111739057D01*
X180870327Y-111475808D01*
X180526799Y-111333162D01*
X180154833Y-111332838D01*
X179811057Y-111474883D01*
X179547808Y-111737673D01*
X179405162Y-112081201D01*
X179404838Y-112453167D01*
X179160800Y-112453167D01*
X179160800Y-111467763D01*
X179192992Y-111435627D01*
X179335638Y-111092099D01*
X179335962Y-110720133D01*
X179193917Y-110376357D01*
X178931127Y-110113108D01*
X178587599Y-109970462D01*
X178215633Y-109970138D01*
X177871857Y-110112183D01*
X177608608Y-110374973D01*
X177465962Y-110718501D01*
X177465638Y-111090467D01*
X177607683Y-111434243D01*
X177619505Y-111446086D01*
X177334933Y-111445838D01*
X176991157Y-111587883D01*
X176727908Y-111850673D01*
X176585262Y-112194201D01*
X176584938Y-112566167D01*
X176726983Y-112909943D01*
X176760100Y-112943118D01*
X176760100Y-116537598D01*
X167681220Y-125616478D01*
X167635733Y-125616438D01*
X167291957Y-125758483D01*
X167028708Y-126021273D01*
X166886062Y-126364801D01*
X166885738Y-126736767D01*
X167027783Y-127080543D01*
X167290573Y-127343792D01*
X167634101Y-127486438D01*
X168006067Y-127486762D01*
X168349843Y-127344717D01*
X168613092Y-127081927D01*
X168755738Y-126738399D01*
X168755779Y-126691523D01*
X171691135Y-123756167D01*
X173626338Y-123756167D01*
X173768383Y-124099943D01*
X174031173Y-124363192D01*
X174374701Y-124505838D01*
X174746667Y-124506162D01*
X175090443Y-124364117D01*
X175353692Y-124101327D01*
X175496338Y-123757799D01*
X175496662Y-123385833D01*
X175354617Y-123042057D01*
X175091827Y-122778808D01*
X174748299Y-122636162D01*
X174376333Y-122635838D01*
X174032557Y-122777883D01*
X173769308Y-123040673D01*
X173626662Y-123384201D01*
X173626338Y-123756167D01*
X171691135Y-123756167D01*
X177640800Y-117806502D01*
X177640800Y-145697900D01*
X174951800Y-145697900D01*
X174660961Y-145755752D01*
X174414399Y-145920499D01*
X173539064Y-146795834D01*
X173384374Y-146765064D01*
X173384462Y-146663633D01*
X173242417Y-146319857D01*
X172979627Y-146056608D01*
X172636099Y-145913962D01*
X172264133Y-145913638D01*
X171920357Y-146055683D01*
X171887182Y-146088800D01*
X156463300Y-146088800D01*
X156172461Y-146146652D01*
X155925899Y-146311399D01*
X154899220Y-147338078D01*
X154853733Y-147338038D01*
X154509957Y-147480083D01*
X154377950Y-147611860D01*
X154008533Y-147611538D01*
X153664757Y-147753583D01*
X153401508Y-148016373D01*
X153258862Y-148359901D01*
X153258538Y-148731867D01*
X153400583Y-149075643D01*
X153663373Y-149338892D01*
X154006901Y-149481538D01*
X154076490Y-149481599D01*
X154254660Y-149600648D01*
X154545500Y-149658500D01*
X157614800Y-149658500D01*
X157905639Y-149600648D01*
X158152201Y-149435901D01*
X159308603Y-148279500D01*
X168925216Y-148279500D01*
X168906100Y-148375600D01*
X168992497Y-148809945D01*
X169238534Y-149178166D01*
X169896834Y-149836466D01*
X170265054Y-150082503D01*
X170699400Y-150168900D01*
X174816100Y-150168900D01*
X175250446Y-150082503D01*
X175618666Y-149836466D01*
X177332566Y-148122566D01*
X177578604Y-147754345D01*
X177665000Y-147320000D01*
X177644691Y-147217900D01*
X178085998Y-147217900D01*
X179648838Y-148780740D01*
X179632107Y-148780725D01*
X179049343Y-149021519D01*
X178603086Y-149466997D01*
X178361276Y-150049341D01*
X178360725Y-150679893D01*
X178601519Y-151262657D01*
X179028116Y-151690000D01*
X168873174Y-151690000D01*
X169298914Y-151265003D01*
X169540724Y-150682659D01*
X169541275Y-150052107D01*
X169300481Y-149469343D01*
X168855003Y-149023086D01*
X168272659Y-148781276D01*
X167642107Y-148780725D01*
X167059343Y-149021519D01*
X166613086Y-149466997D01*
X166371276Y-150049341D01*
X166370725Y-150679893D01*
X166611519Y-151262657D01*
X167056997Y-151708914D01*
X167112193Y-151731833D01*
X167050795Y-151744046D01*
X166820454Y-151897954D01*
X166666546Y-152128295D01*
X166612500Y-152400000D01*
X166612500Y-159818000D01*
X161111000Y-159818000D01*
X161111000Y-157859745D01*
X161561860Y-157859745D01*
X161592803Y-158069712D01*
X162002948Y-158204226D01*
X162433349Y-158171546D01*
X162679197Y-158069712D01*
X162710140Y-157859745D01*
X164781860Y-157859745D01*
X164812803Y-158069712D01*
X165222948Y-158204226D01*
X165653349Y-158171546D01*
X165899197Y-158069712D01*
X165930140Y-157859745D01*
X165356000Y-157285605D01*
X164781860Y-157859745D01*
X162710140Y-157859745D01*
X162136000Y-157285605D01*
X161561860Y-157859745D01*
X161111000Y-157859745D01*
X161111000Y-157501235D01*
X161172288Y-157649197D01*
X161382255Y-157680140D01*
X161956395Y-157106000D01*
X162315605Y-157106000D01*
X162889745Y-157680140D01*
X163099712Y-157649197D01*
X163234226Y-157239052D01*
X163214021Y-156972948D01*
X164257774Y-156972948D01*
X164290454Y-157403349D01*
X164392288Y-157649197D01*
X164602255Y-157680140D01*
X165176395Y-157106000D01*
X165535605Y-157106000D01*
X166109745Y-157680140D01*
X166319712Y-157649197D01*
X166454226Y-157239052D01*
X166421546Y-156808651D01*
X166319712Y-156562803D01*
X166109745Y-156531860D01*
X165535605Y-157106000D01*
X165176395Y-157106000D01*
X164602255Y-156531860D01*
X164392288Y-156562803D01*
X164257774Y-156972948D01*
X163214021Y-156972948D01*
X163201546Y-156808651D01*
X163099712Y-156562803D01*
X162889745Y-156531860D01*
X162315605Y-157106000D01*
X161956395Y-157106000D01*
X161382255Y-156531860D01*
X161172288Y-156562803D01*
X161111000Y-156749675D01*
X161111000Y-156352255D01*
X161561860Y-156352255D01*
X162136000Y-156926395D01*
X162710140Y-156352255D01*
X164781860Y-156352255D01*
X165356000Y-156926395D01*
X165930140Y-156352255D01*
X165899197Y-156142288D01*
X165489052Y-156007774D01*
X165058651Y-156040454D01*
X164812803Y-156142288D01*
X164781860Y-156352255D01*
X162710140Y-156352255D01*
X162679197Y-156142288D01*
X162269052Y-156007774D01*
X161838651Y-156040454D01*
X161592803Y-156142288D01*
X161561860Y-156352255D01*
X161111000Y-156352255D01*
X161111000Y-152400000D01*
X161056954Y-152128295D01*
X160903046Y-151897954D01*
X160672705Y-151744046D01*
X160516582Y-151712991D01*
X160522657Y-151710481D01*
X160968914Y-151265003D01*
X161210724Y-150682659D01*
X161211275Y-150052107D01*
X160970481Y-149469343D01*
X160525003Y-149023086D01*
X159942659Y-148781276D01*
X159312107Y-148780725D01*
X158729343Y-149021519D01*
X158283086Y-149466997D01*
X158041276Y-150049341D01*
X158040725Y-150679893D01*
X158281519Y-151262657D01*
X158708116Y-151690000D01*
X148553174Y-151690000D01*
X148978914Y-151265003D01*
X149220724Y-150682659D01*
X149221275Y-150052107D01*
X148980481Y-149469343D01*
X148535003Y-149023086D01*
X147952659Y-148781276D01*
X147322107Y-148780725D01*
X146739343Y-149021519D01*
X146293086Y-149466997D01*
X146051276Y-150049341D01*
X146050725Y-150679893D01*
X146291519Y-151262657D01*
X146736997Y-151708914D01*
X146792193Y-151731833D01*
X146730795Y-151744046D01*
X146500454Y-151897954D01*
X146346546Y-152128295D01*
X146292500Y-152400000D01*
X146292500Y-159818000D01*
X130504000Y-159818000D01*
X130504000Y-157859745D01*
X144461860Y-157859745D01*
X144492803Y-158069712D01*
X144902948Y-158204226D01*
X145333349Y-158171546D01*
X145579197Y-158069712D01*
X145610140Y-157859745D01*
X145036000Y-157285605D01*
X144461860Y-157859745D01*
X130504000Y-157859745D01*
X130504000Y-155442619D01*
X135764613Y-155442619D01*
X136104155Y-156264372D01*
X136732321Y-156893636D01*
X137553481Y-157234611D01*
X138442619Y-157235387D01*
X139077768Y-156972948D01*
X143937774Y-156972948D01*
X143970454Y-157403349D01*
X144072288Y-157649197D01*
X144282255Y-157680140D01*
X144856395Y-157106000D01*
X145215605Y-157106000D01*
X145789745Y-157680140D01*
X145999712Y-157649197D01*
X146134226Y-157239052D01*
X146101546Y-156808651D01*
X145999712Y-156562803D01*
X145789745Y-156531860D01*
X145215605Y-157106000D01*
X144856395Y-157106000D01*
X144282255Y-156531860D01*
X144072288Y-156562803D01*
X143937774Y-156972948D01*
X139077768Y-156972948D01*
X139264372Y-156895845D01*
X139808912Y-156352255D01*
X144461860Y-156352255D01*
X145036000Y-156926395D01*
X145610140Y-156352255D01*
X145579197Y-156142288D01*
X145169052Y-156007774D01*
X144738651Y-156040454D01*
X144492803Y-156142288D01*
X144461860Y-156352255D01*
X139808912Y-156352255D01*
X139893636Y-156267679D01*
X140234611Y-155446519D01*
X140235387Y-154557381D01*
X139895845Y-153735628D01*
X139267679Y-153106364D01*
X138446519Y-152765389D01*
X137557381Y-152764613D01*
X136735628Y-153104155D01*
X136106364Y-153732321D01*
X135765389Y-154553481D01*
X135764613Y-155442619D01*
X130504000Y-155442619D01*
X130504000Y-143377667D01*
X164609338Y-143377667D01*
X164751383Y-143721443D01*
X165014173Y-143984692D01*
X165357701Y-144127338D01*
X165729667Y-144127662D01*
X166073443Y-143985617D01*
X166336692Y-143722827D01*
X166479338Y-143379299D01*
X166479379Y-143332423D01*
X168145302Y-141666500D01*
X171395537Y-141666500D01*
X171427673Y-141698692D01*
X171771201Y-141841338D01*
X172143167Y-141841662D01*
X172486943Y-141699617D01*
X172750192Y-141436827D01*
X172892838Y-141093299D01*
X172893162Y-140721333D01*
X172751117Y-140377557D01*
X172488327Y-140114308D01*
X172144799Y-139971662D01*
X171772833Y-139971338D01*
X171429057Y-140113383D01*
X171395882Y-140146500D01*
X167830500Y-140146500D01*
X167539660Y-140204352D01*
X167293099Y-140369099D01*
X165404820Y-142257378D01*
X165359333Y-142257338D01*
X165015557Y-142399383D01*
X164752308Y-142662173D01*
X164609662Y-143005701D01*
X164609338Y-143377667D01*
X130504000Y-143377667D01*
X130504000Y-142615667D01*
X158005338Y-142615667D01*
X158147383Y-142959443D01*
X158410173Y-143222692D01*
X158753701Y-143365338D01*
X159125667Y-143365662D01*
X159469443Y-143223617D01*
X159732692Y-142960827D01*
X159875338Y-142617299D01*
X159875379Y-142570423D01*
X161128901Y-141316901D01*
X161293648Y-141070339D01*
X161351500Y-140779500D01*
X161351500Y-136138667D01*
X172991338Y-136138667D01*
X173133383Y-136482443D01*
X173396173Y-136745692D01*
X173739701Y-136888338D01*
X174111667Y-136888662D01*
X174455443Y-136746617D01*
X174718692Y-136483827D01*
X174861338Y-136140299D01*
X174861413Y-136053654D01*
X174946148Y-135926839D01*
X175004000Y-135636000D01*
X175004000Y-130356463D01*
X175036192Y-130324327D01*
X175178838Y-129980799D01*
X175179162Y-129608833D01*
X175037117Y-129265057D01*
X174774327Y-129001808D01*
X174430799Y-128859162D01*
X174058833Y-128858838D01*
X173715057Y-129000883D01*
X173451808Y-129263673D01*
X173309162Y-129607201D01*
X173308838Y-129979167D01*
X173450883Y-130322943D01*
X173484000Y-130356118D01*
X173484000Y-135124666D01*
X173397557Y-135160383D01*
X173134308Y-135423173D01*
X172991662Y-135766701D01*
X172991338Y-136138667D01*
X161351500Y-136138667D01*
X161351500Y-136080500D01*
X161293648Y-135789661D01*
X161128901Y-135543099D01*
X160882339Y-135378352D01*
X160591500Y-135320500D01*
X160300661Y-135378352D01*
X160054099Y-135543099D01*
X159889352Y-135789661D01*
X159831500Y-136080500D01*
X159831500Y-140464698D01*
X158800820Y-141495378D01*
X158755333Y-141495338D01*
X158411557Y-141637383D01*
X158148308Y-141900173D01*
X158005662Y-142243701D01*
X158005338Y-142615667D01*
X130504000Y-142615667D01*
X130504000Y-127238967D01*
X160181738Y-127238967D01*
X160323783Y-127582743D01*
X160586573Y-127845992D01*
X160930101Y-127988638D01*
X161302067Y-127988962D01*
X161645843Y-127846917D01*
X161909092Y-127584127D01*
X162051738Y-127240599D01*
X162052048Y-126884688D01*
X162177343Y-126832917D01*
X162440592Y-126570127D01*
X162583238Y-126226599D01*
X162583279Y-126179723D01*
X176489601Y-112273401D01*
X176654348Y-112026839D01*
X176712200Y-111736000D01*
X176712200Y-105649263D01*
X176744392Y-105617127D01*
X176887038Y-105273599D01*
X176887362Y-104901633D01*
X176745317Y-104557857D01*
X176482527Y-104294608D01*
X176138999Y-104151962D01*
X175767033Y-104151638D01*
X175423257Y-104293683D01*
X175160008Y-104556473D01*
X175017362Y-104900001D01*
X175017038Y-105271967D01*
X175159083Y-105615743D01*
X175192200Y-105648918D01*
X175192200Y-111421198D01*
X161783100Y-124830298D01*
X161783100Y-113670802D01*
X172491280Y-102962622D01*
X172536767Y-102962662D01*
X172880543Y-102820617D01*
X173143792Y-102557827D01*
X173286438Y-102214299D01*
X173286762Y-101842333D01*
X173144717Y-101498557D01*
X172881927Y-101235308D01*
X172538399Y-101092662D01*
X172166433Y-101092338D01*
X171822657Y-101234383D01*
X171559408Y-101497173D01*
X171416762Y-101840701D01*
X171416721Y-101887577D01*
X160485699Y-112818599D01*
X160320952Y-113065161D01*
X160263100Y-113356000D01*
X160263100Y-126671841D01*
X160182062Y-126867001D01*
X160181738Y-127238967D01*
X130504000Y-127238967D01*
X130504000Y-109220000D01*
X133715000Y-109220000D01*
X133877517Y-110037029D01*
X134340327Y-110729673D01*
X135800327Y-112189673D01*
X136137928Y-112415251D01*
X135476695Y-112414674D01*
X134783628Y-112701043D01*
X134252907Y-113230839D01*
X133965328Y-113923405D01*
X133964674Y-114673305D01*
X134251043Y-115366372D01*
X134780839Y-115897093D01*
X135473405Y-116184672D01*
X136223305Y-116185326D01*
X136916372Y-115898957D01*
X137447093Y-115369161D01*
X137734672Y-114676595D01*
X137735326Y-113926695D01*
X137448957Y-113233628D01*
X136961947Y-112745768D01*
X137310000Y-112815000D01*
X141656560Y-112815000D01*
X141656560Y-115925000D01*
X141700838Y-116160317D01*
X141839910Y-116376441D01*
X142052110Y-116521431D01*
X142304000Y-116572440D01*
X150684000Y-116572440D01*
X150919317Y-116528162D01*
X151135441Y-116389090D01*
X151280431Y-116176890D01*
X151331440Y-115925000D01*
X151331440Y-113505750D01*
X154172000Y-113505750D01*
X154172000Y-113946309D01*
X154268673Y-114179698D01*
X154447301Y-114358327D01*
X154680690Y-114455000D01*
X156421250Y-114455000D01*
X156580000Y-114296250D01*
X156580000Y-113347000D01*
X156834000Y-113347000D01*
X156834000Y-114296250D01*
X156992750Y-114455000D01*
X158733310Y-114455000D01*
X158966699Y-114358327D01*
X159145327Y-114179698D01*
X159242000Y-113946309D01*
X159242000Y-113505750D01*
X159083250Y-113347000D01*
X156834000Y-113347000D01*
X156580000Y-113347000D01*
X154330750Y-113347000D01*
X154172000Y-113505750D01*
X151331440Y-113505750D01*
X151331440Y-112493691D01*
X154172000Y-112493691D01*
X154172000Y-112934250D01*
X154330750Y-113093000D01*
X156580000Y-113093000D01*
X156580000Y-112143750D01*
X156834000Y-112143750D01*
X156834000Y-113093000D01*
X159083250Y-113093000D01*
X159242000Y-112934250D01*
X159242000Y-112493691D01*
X159145327Y-112260302D01*
X158966699Y-112081673D01*
X158733310Y-111985000D01*
X156992750Y-111985000D01*
X156834000Y-112143750D01*
X156580000Y-112143750D01*
X156421250Y-111985000D01*
X154680690Y-111985000D01*
X154447301Y-112081673D01*
X154268673Y-112260302D01*
X154172000Y-112493691D01*
X151331440Y-112493691D01*
X151331440Y-107540000D01*
X154159560Y-107540000D01*
X154159560Y-108740000D01*
X154203838Y-108975317D01*
X154342910Y-109191441D01*
X154555110Y-109336431D01*
X154807000Y-109387440D01*
X158607000Y-109387440D01*
X158842317Y-109343162D01*
X158895236Y-109309109D01*
X159039801Y-109369138D01*
X159411767Y-109369462D01*
X159755543Y-109227417D01*
X160018792Y-108964627D01*
X160161438Y-108621099D01*
X160161762Y-108249133D01*
X160019717Y-107905357D01*
X159756927Y-107642108D01*
X159413399Y-107499462D01*
X159315217Y-107499376D01*
X159236957Y-107447085D01*
X159210162Y-107304683D01*
X159071090Y-107088559D01*
X158858890Y-106943569D01*
X158607000Y-106892560D01*
X154807000Y-106892560D01*
X154571683Y-106936838D01*
X154355559Y-107075910D01*
X154210569Y-107288110D01*
X154159560Y-107540000D01*
X151331440Y-107540000D01*
X151331440Y-105435000D01*
X151287162Y-105199683D01*
X151148090Y-104983559D01*
X150935890Y-104838569D01*
X150684000Y-104787560D01*
X142304000Y-104787560D01*
X142068683Y-104831838D01*
X141852559Y-104970910D01*
X141707569Y-105183110D01*
X141656560Y-105435000D01*
X141656560Y-108545000D01*
X138194346Y-108545000D01*
X137359673Y-107710327D01*
X136667029Y-107247517D01*
X135850000Y-107085000D01*
X135032971Y-107247517D01*
X134340327Y-107710327D01*
X133877517Y-108402971D01*
X133715000Y-109220000D01*
X130504000Y-109220000D01*
X130504000Y-104513305D01*
X133964674Y-104513305D01*
X134251043Y-105206372D01*
X134780839Y-105737093D01*
X135473405Y-106024672D01*
X136223305Y-106025326D01*
X136916372Y-105738957D01*
X137447093Y-105209161D01*
X137734672Y-104516595D01*
X137735326Y-103766695D01*
X137448957Y-103073628D01*
X136919161Y-102542907D01*
X136226595Y-102255328D01*
X135476695Y-102254674D01*
X134783628Y-102541043D01*
X134252907Y-103070839D01*
X133965328Y-103763405D01*
X133964674Y-104513305D01*
X130504000Y-104513305D01*
X130504000Y-99060000D01*
X133715000Y-99060000D01*
X133877517Y-99877029D01*
X134340327Y-100569673D01*
X135032971Y-101032483D01*
X135850000Y-101195000D01*
X136667029Y-101032483D01*
X137359673Y-100569673D01*
X137750346Y-100179000D01*
X141593560Y-100179000D01*
X141593560Y-103289000D01*
X141637838Y-103524317D01*
X141776910Y-103740441D01*
X141989110Y-103885431D01*
X142241000Y-103936440D01*
X150621000Y-103936440D01*
X150856317Y-103892162D01*
X151072441Y-103753090D01*
X151217431Y-103540890D01*
X151268440Y-103289000D01*
X151268440Y-100869750D01*
X154109000Y-100869750D01*
X154109000Y-101310309D01*
X154205673Y-101543698D01*
X154384301Y-101722327D01*
X154617690Y-101819000D01*
X156358250Y-101819000D01*
X156517000Y-101660250D01*
X156517000Y-100711000D01*
X156771000Y-100711000D01*
X156771000Y-101660250D01*
X156929750Y-101819000D01*
X158670310Y-101819000D01*
X158903699Y-101722327D01*
X159082327Y-101543698D01*
X159179000Y-101310309D01*
X159179000Y-100869750D01*
X159020250Y-100711000D01*
X156771000Y-100711000D01*
X156517000Y-100711000D01*
X154267750Y-100711000D01*
X154109000Y-100869750D01*
X151268440Y-100869750D01*
X151268440Y-99857691D01*
X154109000Y-99857691D01*
X154109000Y-100298250D01*
X154267750Y-100457000D01*
X156517000Y-100457000D01*
X156517000Y-99507750D01*
X156771000Y-99507750D01*
X156771000Y-100457000D01*
X159020250Y-100457000D01*
X159179000Y-100298250D01*
X159179000Y-99857691D01*
X159082327Y-99624302D01*
X158903699Y-99445673D01*
X158670310Y-99349000D01*
X156929750Y-99349000D01*
X156771000Y-99507750D01*
X156517000Y-99507750D01*
X156358250Y-99349000D01*
X154617690Y-99349000D01*
X154384301Y-99445673D01*
X154205673Y-99624302D01*
X154109000Y-99857691D01*
X151268440Y-99857691D01*
X151268440Y-94904000D01*
X154096560Y-94904000D01*
X154096560Y-96104000D01*
X154140838Y-96339317D01*
X154279910Y-96555441D01*
X154492110Y-96700431D01*
X154744000Y-96751440D01*
X158109300Y-96751440D01*
X158109300Y-96913537D01*
X158077108Y-96945673D01*
X157934462Y-97289201D01*
X157934138Y-97661167D01*
X158076183Y-98004943D01*
X158338973Y-98268192D01*
X158682501Y-98410838D01*
X159054467Y-98411162D01*
X159398243Y-98269117D01*
X159661492Y-98006327D01*
X159804138Y-97662799D01*
X159804462Y-97290833D01*
X159662417Y-96947057D01*
X159629300Y-96913882D01*
X159629300Y-95504000D01*
X159571448Y-95213161D01*
X159406701Y-94966599D01*
X159173957Y-94811085D01*
X159147162Y-94668683D01*
X159008090Y-94452559D01*
X158795890Y-94307569D01*
X158544000Y-94256560D01*
X154744000Y-94256560D01*
X154508683Y-94300838D01*
X154292559Y-94439910D01*
X154147569Y-94652110D01*
X154096560Y-94904000D01*
X151268440Y-94904000D01*
X151268440Y-92799000D01*
X151224162Y-92563683D01*
X151085090Y-92347559D01*
X150872890Y-92202569D01*
X150621000Y-92151560D01*
X142515469Y-92151560D01*
X144447745Y-90219101D01*
X144682826Y-89867242D01*
X144910483Y-89526529D01*
X144910493Y-89526480D01*
X144910522Y-89526436D01*
X144992584Y-89113781D01*
X145073000Y-88709500D01*
X145073000Y-88159250D01*
X164627000Y-88159250D01*
X164627000Y-89899810D01*
X164723673Y-90133199D01*
X164902302Y-90311827D01*
X165135691Y-90408500D01*
X165576250Y-90408500D01*
X165735000Y-90249750D01*
X165735000Y-88000500D01*
X165989000Y-88000500D01*
X165989000Y-90249750D01*
X166147750Y-90408500D01*
X166588309Y-90408500D01*
X166821698Y-90311827D01*
X167000327Y-90133199D01*
X167097000Y-89899810D01*
X167097000Y-88159250D01*
X166938250Y-88000500D01*
X165989000Y-88000500D01*
X165735000Y-88000500D01*
X164785750Y-88000500D01*
X164627000Y-88159250D01*
X145073000Y-88159250D01*
X145073000Y-86360000D01*
X144970996Y-85847190D01*
X164627000Y-85847190D01*
X164627000Y-87587750D01*
X164785750Y-87746500D01*
X165735000Y-87746500D01*
X165735000Y-85497250D01*
X165989000Y-85497250D01*
X165989000Y-87746500D01*
X166938250Y-87746500D01*
X167097000Y-87587750D01*
X167097000Y-85973500D01*
X169694560Y-85973500D01*
X169694560Y-89773500D01*
X169738838Y-90008817D01*
X169877910Y-90224941D01*
X170090110Y-90369931D01*
X170248055Y-90401916D01*
X170404599Y-90636201D01*
X170651161Y-90800948D01*
X170662003Y-90803105D01*
X177398278Y-97539380D01*
X177398238Y-97584867D01*
X177540283Y-97928643D01*
X177803073Y-98191892D01*
X178146601Y-98334538D01*
X178518567Y-98334862D01*
X178862343Y-98192817D01*
X179125592Y-97930027D01*
X179268238Y-97586499D01*
X179268241Y-97582267D01*
X179654838Y-97582267D01*
X179796883Y-97926043D01*
X180059673Y-98189292D01*
X180403201Y-98331938D01*
X180775167Y-98332262D01*
X181118943Y-98190217D01*
X181382192Y-97927427D01*
X181524838Y-97583899D01*
X181525162Y-97211933D01*
X181383117Y-96868157D01*
X181350000Y-96834982D01*
X181350000Y-94256667D01*
X193072538Y-94256667D01*
X193214583Y-94600443D01*
X193477373Y-94863692D01*
X193820901Y-95006338D01*
X194192867Y-95006662D01*
X194536643Y-94864617D01*
X194781319Y-94620367D01*
X201926638Y-94620367D01*
X202068683Y-94964143D01*
X202331473Y-95227392D01*
X202675001Y-95370038D01*
X203046967Y-95370362D01*
X203390743Y-95228317D01*
X203653992Y-94965527D01*
X203796638Y-94621999D01*
X203796679Y-94575123D01*
X207195502Y-91176300D01*
X209106000Y-91176300D01*
X209396839Y-91118448D01*
X209643401Y-90953701D01*
X209798915Y-90720957D01*
X209941317Y-90694162D01*
X210157441Y-90555090D01*
X210302431Y-90342890D01*
X210353440Y-90091000D01*
X210353440Y-86291000D01*
X210309162Y-86055683D01*
X210170090Y-85839559D01*
X209957890Y-85694569D01*
X209706000Y-85643560D01*
X208506000Y-85643560D01*
X208270683Y-85687838D01*
X208054559Y-85826910D01*
X207909569Y-86039110D01*
X207858560Y-86291000D01*
X207858560Y-89656300D01*
X206880700Y-89656300D01*
X206589861Y-89714152D01*
X206343299Y-89878899D01*
X202722120Y-93500078D01*
X202676633Y-93500038D01*
X202332857Y-93642083D01*
X202069608Y-93904873D01*
X201926962Y-94248401D01*
X201926638Y-94620367D01*
X194781319Y-94620367D01*
X194799892Y-94601827D01*
X194942538Y-94258299D01*
X194942579Y-94211423D01*
X197959401Y-91194601D01*
X198124148Y-90948040D01*
X198171433Y-90710322D01*
X198257317Y-90694162D01*
X198473441Y-90555090D01*
X198618431Y-90342890D01*
X198669440Y-90091000D01*
X198669440Y-88476750D01*
X202791000Y-88476750D01*
X202791000Y-90217310D01*
X202887673Y-90450699D01*
X203066302Y-90629327D01*
X203299691Y-90726000D01*
X203740250Y-90726000D01*
X203899000Y-90567250D01*
X203899000Y-88318000D01*
X204153000Y-88318000D01*
X204153000Y-90567250D01*
X204311750Y-90726000D01*
X204752309Y-90726000D01*
X204985698Y-90629327D01*
X205164327Y-90450699D01*
X205261000Y-90217310D01*
X205261000Y-88476750D01*
X205102250Y-88318000D01*
X204153000Y-88318000D01*
X203899000Y-88318000D01*
X202949750Y-88318000D01*
X202791000Y-88476750D01*
X198669440Y-88476750D01*
X198669440Y-86291000D01*
X198645674Y-86164690D01*
X202791000Y-86164690D01*
X202791000Y-87905250D01*
X202949750Y-88064000D01*
X203899000Y-88064000D01*
X203899000Y-85814750D01*
X204153000Y-85814750D01*
X204153000Y-88064000D01*
X205102250Y-88064000D01*
X205261000Y-87905250D01*
X205261000Y-86164690D01*
X205164327Y-85931301D01*
X204985698Y-85752673D01*
X204752309Y-85656000D01*
X204311750Y-85656000D01*
X204153000Y-85814750D01*
X203899000Y-85814750D01*
X203740250Y-85656000D01*
X203299691Y-85656000D01*
X203066302Y-85752673D01*
X202887673Y-85931301D01*
X202791000Y-86164690D01*
X198645674Y-86164690D01*
X198625162Y-86055683D01*
X198486090Y-85839559D01*
X198273890Y-85694569D01*
X198022000Y-85643560D01*
X196822000Y-85643560D01*
X196586683Y-85687838D01*
X196370559Y-85826910D01*
X196225569Y-86039110D01*
X196174560Y-86291000D01*
X196174560Y-90091000D01*
X196218838Y-90326317D01*
X196357910Y-90542441D01*
X196419722Y-90584676D01*
X193868020Y-93136378D01*
X193822533Y-93136338D01*
X193478757Y-93278383D01*
X193215508Y-93541173D01*
X193072862Y-93884701D01*
X193072538Y-94256667D01*
X181350000Y-94256667D01*
X181350000Y-92703102D01*
X183353401Y-90699701D01*
X183508916Y-90466957D01*
X183651317Y-90440162D01*
X183867441Y-90301090D01*
X184012431Y-90088890D01*
X184063440Y-89837000D01*
X184063440Y-88476750D01*
X191107000Y-88476750D01*
X191107000Y-90217310D01*
X191203673Y-90450699D01*
X191382302Y-90629327D01*
X191615691Y-90726000D01*
X192056250Y-90726000D01*
X192215000Y-90567250D01*
X192215000Y-88318000D01*
X192469000Y-88318000D01*
X192469000Y-90567250D01*
X192627750Y-90726000D01*
X193068309Y-90726000D01*
X193301698Y-90629327D01*
X193480327Y-90450699D01*
X193577000Y-90217310D01*
X193577000Y-88476750D01*
X193418250Y-88318000D01*
X192469000Y-88318000D01*
X192215000Y-88318000D01*
X191265750Y-88318000D01*
X191107000Y-88476750D01*
X184063440Y-88476750D01*
X184063440Y-86164690D01*
X191107000Y-86164690D01*
X191107000Y-87905250D01*
X191265750Y-88064000D01*
X192215000Y-88064000D01*
X192215000Y-85814750D01*
X192469000Y-85814750D01*
X192469000Y-88064000D01*
X193418250Y-88064000D01*
X193577000Y-87905250D01*
X193577000Y-86164690D01*
X193480327Y-85931301D01*
X193301698Y-85752673D01*
X193068309Y-85656000D01*
X192627750Y-85656000D01*
X192469000Y-85814750D01*
X192215000Y-85814750D01*
X192056250Y-85656000D01*
X191615691Y-85656000D01*
X191382302Y-85752673D01*
X191203673Y-85931301D01*
X191107000Y-86164690D01*
X184063440Y-86164690D01*
X184063440Y-86037000D01*
X184019162Y-85801683D01*
X183880090Y-85585559D01*
X183667890Y-85440569D01*
X183416000Y-85389560D01*
X182216000Y-85389560D01*
X181980683Y-85433838D01*
X181764559Y-85572910D01*
X181619569Y-85785110D01*
X181568560Y-86037000D01*
X181568560Y-89837000D01*
X181612838Y-90072317D01*
X181698327Y-90205171D01*
X180052599Y-91850899D01*
X179887852Y-92097461D01*
X179830000Y-92388300D01*
X179830000Y-96834637D01*
X179797808Y-96866773D01*
X179655162Y-97210301D01*
X179654838Y-97582267D01*
X179268241Y-97582267D01*
X179268562Y-97214533D01*
X179126517Y-96870757D01*
X178863727Y-96607508D01*
X178520199Y-96464862D01*
X178473323Y-96464821D01*
X172095997Y-90087495D01*
X172138431Y-90025390D01*
X172189440Y-89773500D01*
X172189440Y-88222750D01*
X176501000Y-88222750D01*
X176501000Y-89963310D01*
X176597673Y-90196699D01*
X176776302Y-90375327D01*
X177009691Y-90472000D01*
X177450250Y-90472000D01*
X177609000Y-90313250D01*
X177609000Y-88064000D01*
X177863000Y-88064000D01*
X177863000Y-90313250D01*
X178021750Y-90472000D01*
X178462309Y-90472000D01*
X178695698Y-90375327D01*
X178874327Y-90196699D01*
X178971000Y-89963310D01*
X178971000Y-88222750D01*
X178812250Y-88064000D01*
X177863000Y-88064000D01*
X177609000Y-88064000D01*
X176659750Y-88064000D01*
X176501000Y-88222750D01*
X172189440Y-88222750D01*
X172189440Y-85973500D01*
X172177622Y-85910690D01*
X176501000Y-85910690D01*
X176501000Y-87651250D01*
X176659750Y-87810000D01*
X177609000Y-87810000D01*
X177609000Y-85560750D01*
X177863000Y-85560750D01*
X177863000Y-87810000D01*
X178812250Y-87810000D01*
X178971000Y-87651250D01*
X178971000Y-85910690D01*
X178874327Y-85677301D01*
X178695698Y-85498673D01*
X178462309Y-85402000D01*
X178021750Y-85402000D01*
X177863000Y-85560750D01*
X177609000Y-85560750D01*
X177450250Y-85402000D01*
X177009691Y-85402000D01*
X176776302Y-85498673D01*
X176597673Y-85677301D01*
X176501000Y-85910690D01*
X172177622Y-85910690D01*
X172145162Y-85738183D01*
X172006090Y-85522059D01*
X171793890Y-85377069D01*
X171542000Y-85326060D01*
X170342000Y-85326060D01*
X170106683Y-85370338D01*
X169890559Y-85509410D01*
X169745569Y-85721610D01*
X169694560Y-85973500D01*
X167097000Y-85973500D01*
X167097000Y-85847190D01*
X167000327Y-85613801D01*
X166821698Y-85435173D01*
X166588309Y-85338500D01*
X166147750Y-85338500D01*
X165989000Y-85497250D01*
X165735000Y-85497250D01*
X165576250Y-85338500D01*
X165135691Y-85338500D01*
X164902302Y-85435173D01*
X164723673Y-85613801D01*
X164627000Y-85847190D01*
X144970996Y-85847190D01*
X144910483Y-85542971D01*
X144447673Y-84850327D01*
X143513526Y-83916180D01*
X143431825Y-83793879D01*
X142950194Y-83312152D01*
X155610169Y-70652177D01*
X155941673Y-70430673D01*
X156404483Y-69738029D01*
X156567000Y-68921000D01*
X156567000Y-68575466D01*
X157920226Y-67222500D01*
X162496541Y-67222500D01*
X162255628Y-67322043D01*
X161724907Y-67851839D01*
X161437328Y-68544405D01*
X161436674Y-69294305D01*
X161723043Y-69987372D01*
X162252839Y-70518093D01*
X162945405Y-70805672D01*
X163695305Y-70806326D01*
X164388372Y-70519957D01*
X164919093Y-69990161D01*
X165206672Y-69297595D01*
X165207326Y-68547695D01*
X164920957Y-67854628D01*
X164391161Y-67323907D01*
X164146946Y-67222500D01*
X167174927Y-67222500D01*
X166892327Y-67411327D01*
X166429517Y-68103971D01*
X166267000Y-68921000D01*
X166267000Y-72823060D01*
X163157000Y-72823060D01*
X162921683Y-72867338D01*
X162705559Y-73006410D01*
X162560569Y-73218610D01*
X162509560Y-73470500D01*
X162509560Y-81850500D01*
X162553838Y-82085817D01*
X162692910Y-82301941D01*
X162905110Y-82446931D01*
X163157000Y-82497940D01*
X173647000Y-82497940D01*
X173882317Y-82453662D01*
X174098441Y-82314590D01*
X174243431Y-82102390D01*
X174294440Y-81850500D01*
X174294440Y-73470500D01*
X174250162Y-73235183D01*
X174111090Y-73019059D01*
X173898890Y-72874069D01*
X173647000Y-72823060D01*
X170537000Y-72823060D01*
X170537000Y-68921000D01*
X170374483Y-68103971D01*
X169911673Y-67411327D01*
X169629073Y-67222500D01*
X172656541Y-67222500D01*
X172415628Y-67322043D01*
X171884907Y-67851839D01*
X171597328Y-68544405D01*
X171596674Y-69294305D01*
X171883043Y-69987372D01*
X172412839Y-70518093D01*
X173105405Y-70805672D01*
X173855305Y-70806326D01*
X174548372Y-70519957D01*
X175079093Y-69990161D01*
X175366672Y-69297595D01*
X175367326Y-68547695D01*
X175080957Y-67854628D01*
X174551161Y-67323907D01*
X174306946Y-67222500D01*
X177334927Y-67222500D01*
X177052327Y-67411327D01*
X176589517Y-68103971D01*
X176427000Y-68921000D01*
X176427000Y-72886560D01*
X175031000Y-72886560D01*
X174795683Y-72930838D01*
X174579559Y-73069910D01*
X174434569Y-73282110D01*
X174383560Y-73534000D01*
X174383560Y-81914000D01*
X174427838Y-82149317D01*
X174566910Y-82365441D01*
X174779110Y-82510431D01*
X175031000Y-82561440D01*
X185521000Y-82561440D01*
X185756317Y-82517162D01*
X185972441Y-82378090D01*
X186117431Y-82165890D01*
X186168440Y-81914000D01*
X186168440Y-73534000D01*
X186124162Y-73298683D01*
X185985090Y-73082559D01*
X185772890Y-72937569D01*
X185521000Y-72886560D01*
X180697000Y-72886560D01*
X180697000Y-68921000D01*
X180534483Y-68103971D01*
X180071673Y-67411327D01*
X179789073Y-67222500D01*
X180915824Y-67222500D01*
X181507000Y-67813516D01*
X181507000Y-68961000D01*
X181669517Y-69778029D01*
X182132327Y-70470673D01*
X182824971Y-70933483D01*
X183642000Y-71096000D01*
X184459029Y-70933483D01*
X185151673Y-70470673D01*
X185614483Y-69778029D01*
X185777000Y-68961000D01*
X185777000Y-67222500D01*
X189674541Y-67222500D01*
X189433628Y-67322043D01*
X188902907Y-67851839D01*
X188615328Y-68544405D01*
X188614674Y-69294305D01*
X188901043Y-69987372D01*
X189430839Y-70518093D01*
X190123405Y-70805672D01*
X190873305Y-70806326D01*
X191566372Y-70519957D01*
X192097093Y-69990161D01*
X192384672Y-69297595D01*
X192385326Y-68547695D01*
X192098957Y-67854628D01*
X191569161Y-67323907D01*
X191324946Y-67222500D01*
X194352927Y-67222500D01*
X194070327Y-67411327D01*
X193607517Y-68103971D01*
X193445000Y-68921000D01*
X193445000Y-73140560D01*
X189637000Y-73140560D01*
X189401683Y-73184838D01*
X189185559Y-73323910D01*
X189040569Y-73536110D01*
X188989560Y-73788000D01*
X188989560Y-82168000D01*
X189033838Y-82403317D01*
X189172910Y-82619441D01*
X189385110Y-82764431D01*
X189637000Y-82815440D01*
X200127000Y-82815440D01*
X200362317Y-82771162D01*
X200578441Y-82632090D01*
X200723431Y-82419890D01*
X200724645Y-82413895D01*
X200856910Y-82619441D01*
X201069110Y-82764431D01*
X201321000Y-82815440D01*
X211811000Y-82815440D01*
X212046317Y-82771162D01*
X212262441Y-82632090D01*
X212407431Y-82419890D01*
X212458440Y-82168000D01*
X212458440Y-73872786D01*
X223925000Y-85339346D01*
X223925000Y-93000859D01*
X223888957Y-92913628D01*
X223359161Y-92382907D01*
X222666595Y-92095328D01*
X221916695Y-92094674D01*
X221223628Y-92381043D01*
X220692907Y-92910839D01*
X220405328Y-93603405D01*
X220404674Y-94353305D01*
X220691043Y-95046372D01*
X221220839Y-95577093D01*
X221913405Y-95864672D01*
X222663305Y-95865326D01*
X223356372Y-95578957D01*
X223887093Y-95049161D01*
X223925000Y-94957871D01*
X223925000Y-97737892D01*
X223799673Y-97550327D01*
X223107029Y-97087517D01*
X222290000Y-96925000D01*
X218440000Y-96925000D01*
X217622971Y-97087517D01*
X216930327Y-97550327D01*
X216233094Y-98247560D01*
X209170000Y-98247560D01*
X208934683Y-98291838D01*
X208718559Y-98430910D01*
X208573569Y-98643110D01*
X208522560Y-98895000D01*
X208522560Y-109385000D01*
X208566838Y-109620317D01*
X208705910Y-109836441D01*
X208795170Y-109897430D01*
X208654559Y-109987910D01*
X208509569Y-110200110D01*
X208458560Y-110452000D01*
X208458560Y-120942000D01*
X208502838Y-121177317D01*
X208641910Y-121393441D01*
X208854110Y-121538431D01*
X209106000Y-121589440D01*
X217486000Y-121589440D01*
X217721317Y-121545162D01*
X217937441Y-121406090D01*
X218082431Y-121193890D01*
X218133440Y-120942000D01*
X218133440Y-116355906D01*
X220127335Y-114362011D01*
X220277517Y-115117029D01*
X220740327Y-115809673D01*
X221432971Y-116272483D01*
X222250000Y-116435000D01*
X223067029Y-116272483D01*
X223759673Y-115809673D01*
X227569673Y-111999673D01*
X228032483Y-111307029D01*
X228195000Y-110490000D01*
X228195000Y-84455000D01*
X228032483Y-83637971D01*
X227569673Y-82945327D01*
X214566965Y-69942619D01*
X219764613Y-69942619D01*
X220104155Y-70764372D01*
X220732321Y-71393636D01*
X221553481Y-71734611D01*
X222442619Y-71735387D01*
X223264372Y-71395845D01*
X223893636Y-70767679D01*
X224234611Y-69946519D01*
X224235387Y-69057381D01*
X223895845Y-68235628D01*
X223267679Y-67606364D01*
X222446519Y-67265389D01*
X221557381Y-67264613D01*
X220735628Y-67604155D01*
X220106364Y-68232321D01*
X219765389Y-69053481D01*
X219764613Y-69942619D01*
X214566965Y-69942619D01*
X212798483Y-68174137D01*
X212792483Y-68143971D01*
X212792444Y-68143912D01*
X212792430Y-68143843D01*
X212559786Y-67795716D01*
X212329673Y-67451327D01*
X212329615Y-67451288D01*
X212329576Y-67451230D01*
X208455576Y-63577730D01*
X208107465Y-63345162D01*
X207763029Y-63115017D01*
X207762961Y-63115003D01*
X207762902Y-63114964D01*
X207352248Y-63033308D01*
X206946000Y-62952500D01*
X157036000Y-62952500D01*
X156630807Y-63033098D01*
X156219160Y-63114938D01*
X156219072Y-63114997D01*
X156218971Y-63115017D01*
X155875823Y-63344301D01*
X155526472Y-63577682D01*
X152922472Y-66181182D01*
X152922414Y-66181269D01*
X152922327Y-66181327D01*
X152690648Y-66528059D01*
X152459596Y-66873781D01*
X152459576Y-66873883D01*
X152459517Y-66873971D01*
X152377872Y-67284429D01*
X152297000Y-67690795D01*
X152297020Y-67690898D01*
X152297000Y-67691000D01*
X152297000Y-67926654D01*
X151239379Y-68984275D01*
X151226250Y-68495565D01*
X150978123Y-67896533D01*
X150685320Y-67767285D01*
X149531605Y-68921000D01*
X149545748Y-68935143D01*
X149366143Y-69114748D01*
X149352000Y-69100605D01*
X148198285Y-70254320D01*
X148327533Y-70547123D01*
X149027806Y-70815388D01*
X149418769Y-70804885D01*
X139309154Y-80914500D01*
X138181080Y-80914500D01*
X137945763Y-80958778D01*
X137729639Y-81097850D01*
X137584649Y-81310050D01*
X137533640Y-81561940D01*
X137533640Y-85062060D01*
X137577918Y-85297377D01*
X137716990Y-85513501D01*
X137881550Y-85625940D01*
X137217150Y-85625940D01*
X137058400Y-85784690D01*
X137058400Y-87884000D01*
X139157710Y-87884000D01*
X139316460Y-87725250D01*
X139316460Y-86134630D01*
X139219787Y-85901241D01*
X139041158Y-85722613D01*
X139009500Y-85709500D01*
X139308976Y-85709500D01*
X140330539Y-86731269D01*
X140412327Y-86853673D01*
X140803000Y-87244346D01*
X140803000Y-87825213D01*
X139316460Y-89311894D01*
X139316460Y-88296750D01*
X139157710Y-88138000D01*
X137058400Y-88138000D01*
X137058400Y-90237310D01*
X137217150Y-90396060D01*
X138232397Y-90396060D01*
X136783595Y-91845000D01*
X135890000Y-91845000D01*
X135072971Y-92007517D01*
X134380327Y-92470327D01*
X133917517Y-93162971D01*
X133755000Y-93980000D01*
X133917517Y-94797029D01*
X134380327Y-95489673D01*
X135072971Y-95952483D01*
X135890000Y-96115000D01*
X135983894Y-96115000D01*
X135356327Y-96534327D01*
X134340327Y-97550327D01*
X133877517Y-98242971D01*
X133715000Y-99060000D01*
X130504000Y-99060000D01*
X130504000Y-88296750D01*
X134546340Y-88296750D01*
X134546340Y-89887370D01*
X134643013Y-90120759D01*
X134821642Y-90299387D01*
X135055031Y-90396060D01*
X136645650Y-90396060D01*
X136804400Y-90237310D01*
X136804400Y-88138000D01*
X134705090Y-88138000D01*
X134546340Y-88296750D01*
X130504000Y-88296750D01*
X130504000Y-83597750D01*
X131546600Y-83597750D01*
X131546600Y-85188370D01*
X131643273Y-85421759D01*
X131821902Y-85600387D01*
X132055291Y-85697060D01*
X133645910Y-85697060D01*
X133804660Y-85538310D01*
X133804660Y-83439000D01*
X134058660Y-83439000D01*
X134058660Y-85538310D01*
X134217410Y-85697060D01*
X134883332Y-85697060D01*
X134821642Y-85722613D01*
X134643013Y-85901241D01*
X134546340Y-86134630D01*
X134546340Y-87725250D01*
X134705090Y-87884000D01*
X136804400Y-87884000D01*
X136804400Y-85784690D01*
X136645650Y-85625940D01*
X135979728Y-85625940D01*
X136041418Y-85600387D01*
X136220047Y-85421759D01*
X136316720Y-85188370D01*
X136316720Y-83597750D01*
X136157970Y-83439000D01*
X134058660Y-83439000D01*
X133804660Y-83439000D01*
X131705350Y-83439000D01*
X131546600Y-83597750D01*
X130504000Y-83597750D01*
X130504000Y-81435630D01*
X131546600Y-81435630D01*
X131546600Y-83026250D01*
X131705350Y-83185000D01*
X133804660Y-83185000D01*
X133804660Y-81085690D01*
X134058660Y-81085690D01*
X134058660Y-83185000D01*
X136157970Y-83185000D01*
X136316720Y-83026250D01*
X136316720Y-81435630D01*
X136220047Y-81202241D01*
X136041418Y-81023613D01*
X135808029Y-80926940D01*
X134217410Y-80926940D01*
X134058660Y-81085690D01*
X133804660Y-81085690D01*
X133645910Y-80926940D01*
X132055291Y-80926940D01*
X131821902Y-81023613D01*
X131643273Y-81202241D01*
X131546600Y-81435630D01*
X130504000Y-81435630D01*
X130504000Y-69942619D01*
X135764613Y-69942619D01*
X136104155Y-70764372D01*
X136732321Y-71393636D01*
X137553481Y-71734611D01*
X138442619Y-71735387D01*
X139264372Y-71395845D01*
X139893636Y-70767679D01*
X140234611Y-69946519D01*
X140235387Y-69057381D01*
X140045081Y-68596806D01*
X147457612Y-68596806D01*
X147477750Y-69346435D01*
X147725877Y-69945467D01*
X148018680Y-70074715D01*
X149172395Y-68921000D01*
X148018680Y-67767285D01*
X147725877Y-67896533D01*
X147457612Y-68596806D01*
X140045081Y-68596806D01*
X139895845Y-68235628D01*
X139267679Y-67606364D01*
X139222683Y-67587680D01*
X148198285Y-67587680D01*
X149352000Y-68741395D01*
X150505715Y-67587680D01*
X150376467Y-67294877D01*
X149676194Y-67026612D01*
X148926565Y-67046750D01*
X148327533Y-67294877D01*
X148198285Y-67587680D01*
X139222683Y-67587680D01*
X138446519Y-67265389D01*
X137557381Y-67264613D01*
X136735628Y-67604155D01*
X136106364Y-68232321D01*
X135765389Y-69053481D01*
X135764613Y-69942619D01*
X130504000Y-69942619D01*
X130504000Y-61416000D01*
X228906000Y-61416000D01*
X228906000Y-159818000D01*
X228906000Y-159818000D01*
G37*
X228906000Y-159818000D02*
X181431000Y-159818000D01*
X181431000Y-158464285D01*
X191654760Y-158464285D01*
X191865169Y-158973515D01*
X192254436Y-159363461D01*
X192763298Y-159574759D01*
X193314285Y-159575240D01*
X193823515Y-159364831D01*
X194213461Y-158975564D01*
X194424759Y-158466702D01*
X194425240Y-157915715D01*
X194214831Y-157406485D01*
X193825564Y-157016539D01*
X193316702Y-156805241D01*
X192765715Y-156804760D01*
X192256485Y-157015169D01*
X191866539Y-157404436D01*
X191655241Y-157913298D01*
X191654760Y-158464285D01*
X181431000Y-158464285D01*
X181431000Y-157859745D01*
X181881860Y-157859745D01*
X181912803Y-158069712D01*
X182322948Y-158204226D01*
X182753349Y-158171546D01*
X182999197Y-158069712D01*
X183030140Y-157859745D01*
X182456000Y-157285605D01*
X181881860Y-157859745D01*
X181431000Y-157859745D01*
X181431000Y-157501235D01*
X181492288Y-157649197D01*
X181702255Y-157680140D01*
X182276395Y-157106000D01*
X182635605Y-157106000D01*
X183209745Y-157680140D01*
X183419712Y-157649197D01*
X183554226Y-157239052D01*
X183521546Y-156808651D01*
X183419712Y-156562803D01*
X183209745Y-156531860D01*
X182635605Y-157106000D01*
X182276395Y-157106000D01*
X181702255Y-156531860D01*
X181492288Y-156562803D01*
X181431000Y-156749675D01*
X181431000Y-156352255D01*
X181881860Y-156352255D01*
X182456000Y-156926395D01*
X183030140Y-156352255D01*
X182999197Y-156142288D01*
X182589052Y-156007774D01*
X182158651Y-156040454D01*
X181912803Y-156142288D01*
X181881860Y-156352255D01*
X181431000Y-156352255D01*
X181431000Y-155442619D01*
X219764613Y-155442619D01*
X220104155Y-156264372D01*
X220732321Y-156893636D01*
X221553481Y-157234611D01*
X222442619Y-157235387D01*
X223264372Y-156895845D01*
X223893636Y-156267679D01*
X224234611Y-155446519D01*
X224235387Y-154557381D01*
X223895845Y-153735628D01*
X223267679Y-153106364D01*
X222446519Y-152765389D01*
X221557381Y-152764613D01*
X220735628Y-153104155D01*
X220106364Y-153732321D01*
X219765389Y-154553481D01*
X219764613Y-155442619D01*
X181431000Y-155442619D01*
X181431000Y-152464285D01*
X191654760Y-152464285D01*
X191865169Y-152973515D01*
X192254436Y-153363461D01*
X192763298Y-153574759D01*
X193314285Y-153575240D01*
X193823515Y-153364831D01*
X194213461Y-152975564D01*
X194424759Y-152466702D01*
X194425240Y-151915715D01*
X194214831Y-151406485D01*
X193825564Y-151016539D01*
X193316702Y-150805241D01*
X192765715Y-150804760D01*
X192256485Y-151015169D01*
X191866539Y-151404436D01*
X191655241Y-151913298D01*
X191654760Y-152464285D01*
X181431000Y-152464285D01*
X181431000Y-152400000D01*
X181376954Y-152128295D01*
X181223046Y-151897954D01*
X180992705Y-151744046D01*
X180836582Y-151712991D01*
X180842657Y-151710481D01*
X181288914Y-151265003D01*
X181530724Y-150682659D01*
X181530741Y-150662643D01*
X182968899Y-152100801D01*
X183215460Y-152265548D01*
X183506300Y-152323400D01*
X190475200Y-152323400D01*
X190766039Y-152265548D01*
X191012601Y-152100801D01*
X197763402Y-145350000D01*
X210465560Y-145350000D01*
X210465560Y-145440000D01*
X210509838Y-145675317D01*
X210648910Y-145891441D01*
X210861110Y-146036431D01*
X211113000Y-146087440D01*
X212813000Y-146087440D01*
X213048317Y-146043162D01*
X213264441Y-145904090D01*
X213409431Y-145691890D01*
X213460440Y-145440000D01*
X213460440Y-143740000D01*
X213416162Y-143504683D01*
X213277090Y-143288559D01*
X213064890Y-143143569D01*
X212997459Y-143129914D01*
X213042147Y-143100054D01*
X213364054Y-142618285D01*
X213477093Y-142050000D01*
X213364054Y-141481715D01*
X213042147Y-140999946D01*
X212712974Y-140780000D01*
X213042147Y-140560054D01*
X213364054Y-140078285D01*
X213477093Y-139510000D01*
X213364054Y-138941715D01*
X213042147Y-138459946D01*
X212712974Y-138240000D01*
X213042147Y-138020054D01*
X213364054Y-137538285D01*
X213477093Y-136970000D01*
X213364054Y-136401715D01*
X213042147Y-135919946D01*
X212701447Y-135692298D01*
X212844358Y-135625183D01*
X213234645Y-135196924D01*
X213404476Y-134786890D01*
X213283155Y-134557000D01*
X212090000Y-134557000D01*
X212090000Y-134577000D01*
X211836000Y-134577000D01*
X211836000Y-134557000D01*
X210642845Y-134557000D01*
X210521524Y-134786890D01*
X210691355Y-135196924D01*
X211081642Y-135625183D01*
X211224553Y-135692298D01*
X210883853Y-135919946D01*
X210561946Y-136401715D01*
X210448907Y-136970000D01*
X210561946Y-137538285D01*
X210883853Y-138020054D01*
X211213026Y-138240000D01*
X210883853Y-138459946D01*
X210561946Y-138941715D01*
X210448907Y-139510000D01*
X210561946Y-140078285D01*
X210883853Y-140560054D01*
X211213026Y-140780000D01*
X210883853Y-140999946D01*
X210561946Y-141481715D01*
X210448907Y-142050000D01*
X210561946Y-142618285D01*
X210883853Y-143100054D01*
X210925452Y-143127850D01*
X210877683Y-143136838D01*
X210661559Y-143275910D01*
X210516569Y-143488110D01*
X210465560Y-143740000D01*
X210465560Y-143830000D01*
X197448600Y-143830000D01*
X197157761Y-143887852D01*
X196911199Y-144052599D01*
X190160398Y-150803400D01*
X183821102Y-150803400D01*
X179160800Y-146143098D01*
X179160800Y-112453167D01*
X179404838Y-112453167D01*
X179546883Y-112796943D01*
X179580000Y-112830118D01*
X179580000Y-145796000D01*
X179637852Y-146086839D01*
X179802599Y-146333401D01*
X180420878Y-146951680D01*
X180420838Y-146997167D01*
X180562883Y-147340943D01*
X180825673Y-147604192D01*
X181169201Y-147746838D01*
X181541167Y-147747162D01*
X181884943Y-147605117D01*
X182148192Y-147342327D01*
X182290838Y-146998799D01*
X182291162Y-146626833D01*
X182149117Y-146283057D01*
X181886327Y-146019808D01*
X181542799Y-145877162D01*
X181495923Y-145877121D01*
X181100000Y-145481198D01*
X181100000Y-134073110D01*
X210521524Y-134073110D01*
X210642845Y-134303000D01*
X211836000Y-134303000D01*
X211836000Y-133109181D01*
X212090000Y-133109181D01*
X212090000Y-134303000D01*
X213283155Y-134303000D01*
X213404476Y-134073110D01*
X213234645Y-133663076D01*
X212844358Y-133234817D01*
X212319892Y-132988514D01*
X212090000Y-133109181D01*
X211836000Y-133109181D01*
X211606108Y-132988514D01*
X211081642Y-133234817D01*
X210691355Y-133663076D01*
X210521524Y-134073110D01*
X181100000Y-134073110D01*
X181100000Y-117094000D01*
X183078500Y-117094000D01*
X183164897Y-117528345D01*
X183410934Y-117896566D01*
X183779155Y-118142603D01*
X184213500Y-118229000D01*
X184647845Y-118142603D01*
X184904567Y-117971067D01*
X198078038Y-117971067D01*
X198220083Y-118314843D01*
X198482873Y-118578092D01*
X198826401Y-118720738D01*
X198873277Y-118720779D01*
X198926899Y-118774401D01*
X199173461Y-118939148D01*
X199464300Y-118997000D01*
X200565666Y-118997000D01*
X200579838Y-119072317D01*
X200718910Y-119288441D01*
X200931110Y-119433431D01*
X201183000Y-119484440D01*
X204983000Y-119484440D01*
X205218317Y-119440162D01*
X205434441Y-119301090D01*
X205579431Y-119088890D01*
X205630440Y-118837000D01*
X205630440Y-117637000D01*
X205586162Y-117401683D01*
X205447090Y-117185559D01*
X205234890Y-117040569D01*
X204983000Y-116989560D01*
X201183000Y-116989560D01*
X200947683Y-117033838D01*
X200731559Y-117172910D01*
X200586569Y-117385110D01*
X200567961Y-117477000D01*
X199897237Y-117477000D01*
X199806317Y-117256957D01*
X199543527Y-116993708D01*
X199199999Y-116851062D01*
X198828033Y-116850738D01*
X198484257Y-116992783D01*
X198221008Y-117255573D01*
X198078362Y-117599101D01*
X198078038Y-117971067D01*
X184904567Y-117971067D01*
X185016066Y-117896566D01*
X188874632Y-114038000D01*
X191326400Y-114038000D01*
X191760746Y-113951603D01*
X192128966Y-113705566D01*
X192304574Y-113442750D01*
X200548000Y-113442750D01*
X200548000Y-113883309D01*
X200644673Y-114116698D01*
X200823301Y-114295327D01*
X201056690Y-114392000D01*
X202797250Y-114392000D01*
X202956000Y-114233250D01*
X202956000Y-113284000D01*
X203210000Y-113284000D01*
X203210000Y-114233250D01*
X203368750Y-114392000D01*
X205109310Y-114392000D01*
X205342699Y-114295327D01*
X205521327Y-114116698D01*
X205618000Y-113883309D01*
X205618000Y-113442750D01*
X205459250Y-113284000D01*
X203210000Y-113284000D01*
X202956000Y-113284000D01*
X200706750Y-113284000D01*
X200548000Y-113442750D01*
X192304574Y-113442750D01*
X192375003Y-113337346D01*
X192461400Y-112903000D01*
X192461400Y-112430691D01*
X200548000Y-112430691D01*
X200548000Y-112871250D01*
X200706750Y-113030000D01*
X202956000Y-113030000D01*
X202956000Y-112080750D01*
X203210000Y-112080750D01*
X203210000Y-113030000D01*
X205459250Y-113030000D01*
X205618000Y-112871250D01*
X205618000Y-112430691D01*
X205521327Y-112197302D01*
X205342699Y-112018673D01*
X205109310Y-111922000D01*
X203368750Y-111922000D01*
X203210000Y-112080750D01*
X202956000Y-112080750D01*
X202797250Y-111922000D01*
X201056690Y-111922000D01*
X200823301Y-112018673D01*
X200644673Y-112197302D01*
X200548000Y-112430691D01*
X192461400Y-112430691D01*
X192461400Y-105870300D01*
X200161700Y-105870300D01*
X200161700Y-106680000D01*
X200219552Y-106970839D01*
X200384299Y-107217401D01*
X200617043Y-107372915D01*
X200643838Y-107515317D01*
X200782910Y-107731441D01*
X200995110Y-107876431D01*
X201247000Y-107927440D01*
X205047000Y-107927440D01*
X205282317Y-107883162D01*
X205498441Y-107744090D01*
X205643431Y-107531890D01*
X205694440Y-107280000D01*
X205694440Y-106080000D01*
X205650162Y-105844683D01*
X205511090Y-105628559D01*
X205298890Y-105483569D01*
X205047000Y-105432560D01*
X202705577Y-105432560D01*
X202705762Y-105220733D01*
X202563717Y-104876957D01*
X202300927Y-104613708D01*
X201957399Y-104471062D01*
X201585433Y-104470738D01*
X201241657Y-104612783D01*
X201164182Y-104690123D01*
X201095160Y-104703852D01*
X200848599Y-104868599D01*
X200384299Y-105332899D01*
X200219552Y-105579461D01*
X200161700Y-105870300D01*
X192461400Y-105870300D01*
X192461400Y-101885750D01*
X200612000Y-101885750D01*
X200612000Y-102326309D01*
X200708673Y-102559698D01*
X200887301Y-102738327D01*
X201120690Y-102835000D01*
X202861250Y-102835000D01*
X203020000Y-102676250D01*
X203020000Y-101727000D01*
X203274000Y-101727000D01*
X203274000Y-102676250D01*
X203432750Y-102835000D01*
X205173310Y-102835000D01*
X205406699Y-102738327D01*
X205585327Y-102559698D01*
X205682000Y-102326309D01*
X205682000Y-101885750D01*
X205523250Y-101727000D01*
X203274000Y-101727000D01*
X203020000Y-101727000D01*
X200770750Y-101727000D01*
X200612000Y-101885750D01*
X192461400Y-101885750D01*
X192461400Y-100873691D01*
X200612000Y-100873691D01*
X200612000Y-101314250D01*
X200770750Y-101473000D01*
X203020000Y-101473000D01*
X203020000Y-100523750D01*
X203274000Y-100523750D01*
X203274000Y-101473000D01*
X205523250Y-101473000D01*
X205682000Y-101314250D01*
X205682000Y-100873691D01*
X205585327Y-100640302D01*
X205406699Y-100461673D01*
X205173310Y-100365000D01*
X203432750Y-100365000D01*
X203274000Y-100523750D01*
X203020000Y-100523750D01*
X202861250Y-100365000D01*
X201120690Y-100365000D01*
X200887301Y-100461673D01*
X200708673Y-100640302D01*
X200612000Y-100873691D01*
X192461400Y-100873691D01*
X192461400Y-100064500D01*
X192375003Y-99630154D01*
X192128966Y-99261934D01*
X191760746Y-99015897D01*
X191326400Y-98929500D01*
X190892054Y-99015897D01*
X190523834Y-99261934D01*
X190277797Y-99630154D01*
X190191400Y-100064500D01*
X190191400Y-111768000D01*
X188404500Y-111768000D01*
X187970154Y-111854397D01*
X187724298Y-112018673D01*
X187601934Y-112100434D01*
X183410934Y-116291434D01*
X183164897Y-116659655D01*
X183078500Y-117094000D01*
X181100000Y-117094000D01*
X181100000Y-112830463D01*
X181132192Y-112798327D01*
X181274838Y-112454799D01*
X181275162Y-112082833D01*
X181133117Y-111739057D01*
X180870327Y-111475808D01*
X180526799Y-111333162D01*
X180154833Y-111332838D01*
X179811057Y-111474883D01*
X179547808Y-111737673D01*
X179405162Y-112081201D01*
X179404838Y-112453167D01*
X179160800Y-112453167D01*
X179160800Y-111467763D01*
X179192992Y-111435627D01*
X179335638Y-111092099D01*
X179335962Y-110720133D01*
X179193917Y-110376357D01*
X178931127Y-110113108D01*
X178587599Y-109970462D01*
X178215633Y-109970138D01*
X177871857Y-110112183D01*
X177608608Y-110374973D01*
X177465962Y-110718501D01*
X177465638Y-111090467D01*
X177607683Y-111434243D01*
X177619505Y-111446086D01*
X177334933Y-111445838D01*
X176991157Y-111587883D01*
X176727908Y-111850673D01*
X176585262Y-112194201D01*
X176584938Y-112566167D01*
X176726983Y-112909943D01*
X176760100Y-112943118D01*
X176760100Y-116537598D01*
X167681220Y-125616478D01*
X167635733Y-125616438D01*
X167291957Y-125758483D01*
X167028708Y-126021273D01*
X166886062Y-126364801D01*
X166885738Y-126736767D01*
X167027783Y-127080543D01*
X167290573Y-127343792D01*
X167634101Y-127486438D01*
X168006067Y-127486762D01*
X168349843Y-127344717D01*
X168613092Y-127081927D01*
X168755738Y-126738399D01*
X168755779Y-126691523D01*
X171691135Y-123756167D01*
X173626338Y-123756167D01*
X173768383Y-124099943D01*
X174031173Y-124363192D01*
X174374701Y-124505838D01*
X174746667Y-124506162D01*
X175090443Y-124364117D01*
X175353692Y-124101327D01*
X175496338Y-123757799D01*
X175496662Y-123385833D01*
X175354617Y-123042057D01*
X175091827Y-122778808D01*
X174748299Y-122636162D01*
X174376333Y-122635838D01*
X174032557Y-122777883D01*
X173769308Y-123040673D01*
X173626662Y-123384201D01*
X173626338Y-123756167D01*
X171691135Y-123756167D01*
X177640800Y-117806502D01*
X177640800Y-145697900D01*
X174951800Y-145697900D01*
X174660961Y-145755752D01*
X174414399Y-145920499D01*
X173539064Y-146795834D01*
X173384374Y-146765064D01*
X173384462Y-146663633D01*
X173242417Y-146319857D01*
X172979627Y-146056608D01*
X172636099Y-145913962D01*
X172264133Y-145913638D01*
X171920357Y-146055683D01*
X171887182Y-146088800D01*
X156463300Y-146088800D01*
X156172461Y-146146652D01*
X155925899Y-146311399D01*
X154899220Y-147338078D01*
X154853733Y-147338038D01*
X154509957Y-147480083D01*
X154377950Y-147611860D01*
X154008533Y-147611538D01*
X153664757Y-147753583D01*
X153401508Y-148016373D01*
X153258862Y-148359901D01*
X153258538Y-148731867D01*
X153400583Y-149075643D01*
X153663373Y-149338892D01*
X154006901Y-149481538D01*
X154076490Y-149481599D01*
X154254660Y-149600648D01*
X154545500Y-149658500D01*
X157614800Y-149658500D01*
X157905639Y-149600648D01*
X158152201Y-149435901D01*
X159308603Y-148279500D01*
X168925216Y-148279500D01*
X168906100Y-148375600D01*
X168992497Y-148809945D01*
X169238534Y-149178166D01*
X169896834Y-149836466D01*
X170265054Y-150082503D01*
X170699400Y-150168900D01*
X174816100Y-150168900D01*
X175250446Y-150082503D01*
X175618666Y-149836466D01*
X177332566Y-148122566D01*
X177578604Y-147754345D01*
X177665000Y-147320000D01*
X177644691Y-147217900D01*
X178085998Y-147217900D01*
X179648838Y-148780740D01*
X179632107Y-148780725D01*
X179049343Y-149021519D01*
X178603086Y-149466997D01*
X178361276Y-150049341D01*
X178360725Y-150679893D01*
X178601519Y-151262657D01*
X179028116Y-151690000D01*
X168873174Y-151690000D01*
X169298914Y-151265003D01*
X169540724Y-150682659D01*
X169541275Y-150052107D01*
X169300481Y-149469343D01*
X168855003Y-149023086D01*
X168272659Y-148781276D01*
X167642107Y-148780725D01*
X167059343Y-149021519D01*
X166613086Y-149466997D01*
X166371276Y-150049341D01*
X166370725Y-150679893D01*
X166611519Y-151262657D01*
X167056997Y-151708914D01*
X167112193Y-151731833D01*
X167050795Y-151744046D01*
X166820454Y-151897954D01*
X166666546Y-152128295D01*
X166612500Y-152400000D01*
X166612500Y-159818000D01*
X161111000Y-159818000D01*
X161111000Y-157859745D01*
X161561860Y-157859745D01*
X161592803Y-158069712D01*
X162002948Y-158204226D01*
X162433349Y-158171546D01*
X162679197Y-158069712D01*
X162710140Y-157859745D01*
X164781860Y-157859745D01*
X164812803Y-158069712D01*
X165222948Y-158204226D01*
X165653349Y-158171546D01*
X165899197Y-158069712D01*
X165930140Y-157859745D01*
X165356000Y-157285605D01*
X164781860Y-157859745D01*
X162710140Y-157859745D01*
X162136000Y-157285605D01*
X161561860Y-157859745D01*
X161111000Y-157859745D01*
X161111000Y-157501235D01*
X161172288Y-157649197D01*
X161382255Y-157680140D01*
X161956395Y-157106000D01*
X162315605Y-157106000D01*
X162889745Y-157680140D01*
X163099712Y-157649197D01*
X163234226Y-157239052D01*
X163214021Y-156972948D01*
X164257774Y-156972948D01*
X164290454Y-157403349D01*
X164392288Y-157649197D01*
X164602255Y-157680140D01*
X165176395Y-157106000D01*
X165535605Y-157106000D01*
X166109745Y-157680140D01*
X166319712Y-157649197D01*
X166454226Y-157239052D01*
X166421546Y-156808651D01*
X166319712Y-156562803D01*
X166109745Y-156531860D01*
X165535605Y-157106000D01*
X165176395Y-157106000D01*
X164602255Y-156531860D01*
X164392288Y-156562803D01*
X164257774Y-156972948D01*
X163214021Y-156972948D01*
X163201546Y-156808651D01*
X163099712Y-156562803D01*
X162889745Y-156531860D01*
X162315605Y-157106000D01*
X161956395Y-157106000D01*
X161382255Y-156531860D01*
X161172288Y-156562803D01*
X161111000Y-156749675D01*
X161111000Y-156352255D01*
X161561860Y-156352255D01*
X162136000Y-156926395D01*
X162710140Y-156352255D01*
X164781860Y-156352255D01*
X165356000Y-156926395D01*
X165930140Y-156352255D01*
X165899197Y-156142288D01*
X165489052Y-156007774D01*
X165058651Y-156040454D01*
X164812803Y-156142288D01*
X164781860Y-156352255D01*
X162710140Y-156352255D01*
X162679197Y-156142288D01*
X162269052Y-156007774D01*
X161838651Y-156040454D01*
X161592803Y-156142288D01*
X161561860Y-156352255D01*
X161111000Y-156352255D01*
X161111000Y-152400000D01*
X161056954Y-152128295D01*
X160903046Y-151897954D01*
X160672705Y-151744046D01*
X160516582Y-151712991D01*
X160522657Y-151710481D01*
X160968914Y-151265003D01*
X161210724Y-150682659D01*
X161211275Y-150052107D01*
X160970481Y-149469343D01*
X160525003Y-149023086D01*
X159942659Y-148781276D01*
X159312107Y-148780725D01*
X158729343Y-149021519D01*
X158283086Y-149466997D01*
X158041276Y-150049341D01*
X158040725Y-150679893D01*
X158281519Y-151262657D01*
X158708116Y-151690000D01*
X148553174Y-151690000D01*
X148978914Y-151265003D01*
X149220724Y-150682659D01*
X149221275Y-150052107D01*
X148980481Y-149469343D01*
X148535003Y-149023086D01*
X147952659Y-148781276D01*
X147322107Y-148780725D01*
X146739343Y-149021519D01*
X146293086Y-149466997D01*
X146051276Y-150049341D01*
X146050725Y-150679893D01*
X146291519Y-151262657D01*
X146736997Y-151708914D01*
X146792193Y-151731833D01*
X146730795Y-151744046D01*
X146500454Y-151897954D01*
X146346546Y-152128295D01*
X146292500Y-152400000D01*
X146292500Y-159818000D01*
X130504000Y-159818000D01*
X130504000Y-157859745D01*
X144461860Y-157859745D01*
X144492803Y-158069712D01*
X144902948Y-158204226D01*
X145333349Y-158171546D01*
X145579197Y-158069712D01*
X145610140Y-157859745D01*
X145036000Y-157285605D01*
X144461860Y-157859745D01*
X130504000Y-157859745D01*
X130504000Y-155442619D01*
X135764613Y-155442619D01*
X136104155Y-156264372D01*
X136732321Y-156893636D01*
X137553481Y-157234611D01*
X138442619Y-157235387D01*
X139077768Y-156972948D01*
X143937774Y-156972948D01*
X143970454Y-157403349D01*
X144072288Y-157649197D01*
X144282255Y-157680140D01*
X144856395Y-157106000D01*
X145215605Y-157106000D01*
X145789745Y-157680140D01*
X145999712Y-157649197D01*
X146134226Y-157239052D01*
X146101546Y-156808651D01*
X145999712Y-156562803D01*
X145789745Y-156531860D01*
X145215605Y-157106000D01*
X144856395Y-157106000D01*
X144282255Y-156531860D01*
X144072288Y-156562803D01*
X143937774Y-156972948D01*
X139077768Y-156972948D01*
X139264372Y-156895845D01*
X139808912Y-156352255D01*
X144461860Y-156352255D01*
X145036000Y-156926395D01*
X145610140Y-156352255D01*
X145579197Y-156142288D01*
X145169052Y-156007774D01*
X144738651Y-156040454D01*
X144492803Y-156142288D01*
X144461860Y-156352255D01*
X139808912Y-156352255D01*
X139893636Y-156267679D01*
X140234611Y-155446519D01*
X140235387Y-154557381D01*
X139895845Y-153735628D01*
X139267679Y-153106364D01*
X138446519Y-152765389D01*
X137557381Y-152764613D01*
X136735628Y-153104155D01*
X136106364Y-153732321D01*
X135765389Y-154553481D01*
X135764613Y-155442619D01*
X130504000Y-155442619D01*
X130504000Y-143377667D01*
X164609338Y-143377667D01*
X164751383Y-143721443D01*
X165014173Y-143984692D01*
X165357701Y-144127338D01*
X165729667Y-144127662D01*
X166073443Y-143985617D01*
X166336692Y-143722827D01*
X166479338Y-143379299D01*
X166479379Y-143332423D01*
X168145302Y-141666500D01*
X171395537Y-141666500D01*
X171427673Y-141698692D01*
X171771201Y-141841338D01*
X172143167Y-141841662D01*
X172486943Y-141699617D01*
X172750192Y-141436827D01*
X172892838Y-141093299D01*
X172893162Y-140721333D01*
X172751117Y-140377557D01*
X172488327Y-140114308D01*
X172144799Y-139971662D01*
X171772833Y-139971338D01*
X171429057Y-140113383D01*
X171395882Y-140146500D01*
X167830500Y-140146500D01*
X167539660Y-140204352D01*
X167293099Y-140369099D01*
X165404820Y-142257378D01*
X165359333Y-142257338D01*
X165015557Y-142399383D01*
X164752308Y-142662173D01*
X164609662Y-143005701D01*
X164609338Y-143377667D01*
X130504000Y-143377667D01*
X130504000Y-142615667D01*
X158005338Y-142615667D01*
X158147383Y-142959443D01*
X158410173Y-143222692D01*
X158753701Y-143365338D01*
X159125667Y-143365662D01*
X159469443Y-143223617D01*
X159732692Y-142960827D01*
X159875338Y-142617299D01*
X159875379Y-142570423D01*
X161128901Y-141316901D01*
X161293648Y-141070339D01*
X161351500Y-140779500D01*
X161351500Y-136138667D01*
X172991338Y-136138667D01*
X173133383Y-136482443D01*
X173396173Y-136745692D01*
X173739701Y-136888338D01*
X174111667Y-136888662D01*
X174455443Y-136746617D01*
X174718692Y-136483827D01*
X174861338Y-136140299D01*
X174861413Y-136053654D01*
X174946148Y-135926839D01*
X175004000Y-135636000D01*
X175004000Y-130356463D01*
X175036192Y-130324327D01*
X175178838Y-129980799D01*
X175179162Y-129608833D01*
X175037117Y-129265057D01*
X174774327Y-129001808D01*
X174430799Y-128859162D01*
X174058833Y-128858838D01*
X173715057Y-129000883D01*
X173451808Y-129263673D01*
X173309162Y-129607201D01*
X173308838Y-129979167D01*
X173450883Y-130322943D01*
X173484000Y-130356118D01*
X173484000Y-135124666D01*
X173397557Y-135160383D01*
X173134308Y-135423173D01*
X172991662Y-135766701D01*
X172991338Y-136138667D01*
X161351500Y-136138667D01*
X161351500Y-136080500D01*
X161293648Y-135789661D01*
X161128901Y-135543099D01*
X160882339Y-135378352D01*
X160591500Y-135320500D01*
X160300661Y-135378352D01*
X160054099Y-135543099D01*
X159889352Y-135789661D01*
X159831500Y-136080500D01*
X159831500Y-140464698D01*
X158800820Y-141495378D01*
X158755333Y-141495338D01*
X158411557Y-141637383D01*
X158148308Y-141900173D01*
X158005662Y-142243701D01*
X158005338Y-142615667D01*
X130504000Y-142615667D01*
X130504000Y-127238967D01*
X160181738Y-127238967D01*
X160323783Y-127582743D01*
X160586573Y-127845992D01*
X160930101Y-127988638D01*
X161302067Y-127988962D01*
X161645843Y-127846917D01*
X161909092Y-127584127D01*
X162051738Y-127240599D01*
X162052048Y-126884688D01*
X162177343Y-126832917D01*
X162440592Y-126570127D01*
X162583238Y-126226599D01*
X162583279Y-126179723D01*
X176489601Y-112273401D01*
X176654348Y-112026839D01*
X176712200Y-111736000D01*
X176712200Y-105649263D01*
X176744392Y-105617127D01*
X176887038Y-105273599D01*
X176887362Y-104901633D01*
X176745317Y-104557857D01*
X176482527Y-104294608D01*
X176138999Y-104151962D01*
X175767033Y-104151638D01*
X175423257Y-104293683D01*
X175160008Y-104556473D01*
X175017362Y-104900001D01*
X175017038Y-105271967D01*
X175159083Y-105615743D01*
X175192200Y-105648918D01*
X175192200Y-111421198D01*
X161783100Y-124830298D01*
X161783100Y-113670802D01*
X172491280Y-102962622D01*
X172536767Y-102962662D01*
X172880543Y-102820617D01*
X173143792Y-102557827D01*
X173286438Y-102214299D01*
X173286762Y-101842333D01*
X173144717Y-101498557D01*
X172881927Y-101235308D01*
X172538399Y-101092662D01*
X172166433Y-101092338D01*
X171822657Y-101234383D01*
X171559408Y-101497173D01*
X171416762Y-101840701D01*
X171416721Y-101887577D01*
X160485699Y-112818599D01*
X160320952Y-113065161D01*
X160263100Y-113356000D01*
X160263100Y-126671841D01*
X160182062Y-126867001D01*
X160181738Y-127238967D01*
X130504000Y-127238967D01*
X130504000Y-109220000D01*
X133715000Y-109220000D01*
X133877517Y-110037029D01*
X134340327Y-110729673D01*
X135800327Y-112189673D01*
X136137928Y-112415251D01*
X135476695Y-112414674D01*
X134783628Y-112701043D01*
X134252907Y-113230839D01*
X133965328Y-113923405D01*
X133964674Y-114673305D01*
X134251043Y-115366372D01*
X134780839Y-115897093D01*
X135473405Y-116184672D01*
X136223305Y-116185326D01*
X136916372Y-115898957D01*
X137447093Y-115369161D01*
X137734672Y-114676595D01*
X137735326Y-113926695D01*
X137448957Y-113233628D01*
X136961947Y-112745768D01*
X137310000Y-112815000D01*
X141656560Y-112815000D01*
X141656560Y-115925000D01*
X141700838Y-116160317D01*
X141839910Y-116376441D01*
X142052110Y-116521431D01*
X142304000Y-116572440D01*
X150684000Y-116572440D01*
X150919317Y-116528162D01*
X151135441Y-116389090D01*
X151280431Y-116176890D01*
X151331440Y-115925000D01*
X151331440Y-113505750D01*
X154172000Y-113505750D01*
X154172000Y-113946309D01*
X154268673Y-114179698D01*
X154447301Y-114358327D01*
X154680690Y-114455000D01*
X156421250Y-114455000D01*
X156580000Y-114296250D01*
X156580000Y-113347000D01*
X156834000Y-113347000D01*
X156834000Y-114296250D01*
X156992750Y-114455000D01*
X158733310Y-114455000D01*
X158966699Y-114358327D01*
X159145327Y-114179698D01*
X159242000Y-113946309D01*
X159242000Y-113505750D01*
X159083250Y-113347000D01*
X156834000Y-113347000D01*
X156580000Y-113347000D01*
X154330750Y-113347000D01*
X154172000Y-113505750D01*
X151331440Y-113505750D01*
X151331440Y-112493691D01*
X154172000Y-112493691D01*
X154172000Y-112934250D01*
X154330750Y-113093000D01*
X156580000Y-113093000D01*
X156580000Y-112143750D01*
X156834000Y-112143750D01*
X156834000Y-113093000D01*
X159083250Y-113093000D01*
X159242000Y-112934250D01*
X159242000Y-112493691D01*
X159145327Y-112260302D01*
X158966699Y-112081673D01*
X158733310Y-111985000D01*
X156992750Y-111985000D01*
X156834000Y-112143750D01*
X156580000Y-112143750D01*
X156421250Y-111985000D01*
X154680690Y-111985000D01*
X154447301Y-112081673D01*
X154268673Y-112260302D01*
X154172000Y-112493691D01*
X151331440Y-112493691D01*
X151331440Y-107540000D01*
X154159560Y-107540000D01*
X154159560Y-108740000D01*
X154203838Y-108975317D01*
X154342910Y-109191441D01*
X154555110Y-109336431D01*
X154807000Y-109387440D01*
X158607000Y-109387440D01*
X158842317Y-109343162D01*
X158895236Y-109309109D01*
X159039801Y-109369138D01*
X159411767Y-109369462D01*
X159755543Y-109227417D01*
X160018792Y-108964627D01*
X160161438Y-108621099D01*
X160161762Y-108249133D01*
X160019717Y-107905357D01*
X159756927Y-107642108D01*
X159413399Y-107499462D01*
X159315217Y-107499376D01*
X159236957Y-107447085D01*
X159210162Y-107304683D01*
X159071090Y-107088559D01*
X158858890Y-106943569D01*
X158607000Y-106892560D01*
X154807000Y-106892560D01*
X154571683Y-106936838D01*
X154355559Y-107075910D01*
X154210569Y-107288110D01*
X154159560Y-107540000D01*
X151331440Y-107540000D01*
X151331440Y-105435000D01*
X151287162Y-105199683D01*
X151148090Y-104983559D01*
X150935890Y-104838569D01*
X150684000Y-104787560D01*
X142304000Y-104787560D01*
X142068683Y-104831838D01*
X141852559Y-104970910D01*
X141707569Y-105183110D01*
X141656560Y-105435000D01*
X141656560Y-108545000D01*
X138194346Y-108545000D01*
X137359673Y-107710327D01*
X136667029Y-107247517D01*
X135850000Y-107085000D01*
X135032971Y-107247517D01*
X134340327Y-107710327D01*
X133877517Y-108402971D01*
X133715000Y-109220000D01*
X130504000Y-109220000D01*
X130504000Y-104513305D01*
X133964674Y-104513305D01*
X134251043Y-105206372D01*
X134780839Y-105737093D01*
X135473405Y-106024672D01*
X136223305Y-106025326D01*
X136916372Y-105738957D01*
X137447093Y-105209161D01*
X137734672Y-104516595D01*
X137735326Y-103766695D01*
X137448957Y-103073628D01*
X136919161Y-102542907D01*
X136226595Y-102255328D01*
X135476695Y-102254674D01*
X134783628Y-102541043D01*
X134252907Y-103070839D01*
X133965328Y-103763405D01*
X133964674Y-104513305D01*
X130504000Y-104513305D01*
X130504000Y-99060000D01*
X133715000Y-99060000D01*
X133877517Y-99877029D01*
X134340327Y-100569673D01*
X135032971Y-101032483D01*
X135850000Y-101195000D01*
X136667029Y-101032483D01*
X137359673Y-100569673D01*
X137750346Y-100179000D01*
X141593560Y-100179000D01*
X141593560Y-103289000D01*
X141637838Y-103524317D01*
X141776910Y-103740441D01*
X141989110Y-103885431D01*
X142241000Y-103936440D01*
X150621000Y-103936440D01*
X150856317Y-103892162D01*
X151072441Y-103753090D01*
X151217431Y-103540890D01*
X151268440Y-103289000D01*
X151268440Y-100869750D01*
X154109000Y-100869750D01*
X154109000Y-101310309D01*
X154205673Y-101543698D01*
X154384301Y-101722327D01*
X154617690Y-101819000D01*
X156358250Y-101819000D01*
X156517000Y-101660250D01*
X156517000Y-100711000D01*
X156771000Y-100711000D01*
X156771000Y-101660250D01*
X156929750Y-101819000D01*
X158670310Y-101819000D01*
X158903699Y-101722327D01*
X159082327Y-101543698D01*
X159179000Y-101310309D01*
X159179000Y-100869750D01*
X159020250Y-100711000D01*
X156771000Y-100711000D01*
X156517000Y-100711000D01*
X154267750Y-100711000D01*
X154109000Y-100869750D01*
X151268440Y-100869750D01*
X151268440Y-99857691D01*
X154109000Y-99857691D01*
X154109000Y-100298250D01*
X154267750Y-100457000D01*
X156517000Y-100457000D01*
X156517000Y-99507750D01*
X156771000Y-99507750D01*
X156771000Y-100457000D01*
X159020250Y-100457000D01*
X159179000Y-100298250D01*
X159179000Y-99857691D01*
X159082327Y-99624302D01*
X158903699Y-99445673D01*
X158670310Y-99349000D01*
X156929750Y-99349000D01*
X156771000Y-99507750D01*
X156517000Y-99507750D01*
X156358250Y-99349000D01*
X154617690Y-99349000D01*
X154384301Y-99445673D01*
X154205673Y-99624302D01*
X154109000Y-99857691D01*
X151268440Y-99857691D01*
X151268440Y-94904000D01*
X154096560Y-94904000D01*
X154096560Y-96104000D01*
X154140838Y-96339317D01*
X154279910Y-96555441D01*
X154492110Y-96700431D01*
X154744000Y-96751440D01*
X158109300Y-96751440D01*
X158109300Y-96913537D01*
X158077108Y-96945673D01*
X157934462Y-97289201D01*
X157934138Y-97661167D01*
X158076183Y-98004943D01*
X158338973Y-98268192D01*
X158682501Y-98410838D01*
X159054467Y-98411162D01*
X159398243Y-98269117D01*
X159661492Y-98006327D01*
X159804138Y-97662799D01*
X159804462Y-97290833D01*
X159662417Y-96947057D01*
X159629300Y-96913882D01*
X159629300Y-95504000D01*
X159571448Y-95213161D01*
X159406701Y-94966599D01*
X159173957Y-94811085D01*
X159147162Y-94668683D01*
X159008090Y-94452559D01*
X158795890Y-94307569D01*
X158544000Y-94256560D01*
X154744000Y-94256560D01*
X154508683Y-94300838D01*
X154292559Y-94439910D01*
X154147569Y-94652110D01*
X154096560Y-94904000D01*
X151268440Y-94904000D01*
X151268440Y-92799000D01*
X151224162Y-92563683D01*
X151085090Y-92347559D01*
X150872890Y-92202569D01*
X150621000Y-92151560D01*
X142515469Y-92151560D01*
X144447745Y-90219101D01*
X144682826Y-89867242D01*
X144910483Y-89526529D01*
X144910493Y-89526480D01*
X144910522Y-89526436D01*
X144992584Y-89113781D01*
X145073000Y-88709500D01*
X145073000Y-88159250D01*
X164627000Y-88159250D01*
X164627000Y-89899810D01*
X164723673Y-90133199D01*
X164902302Y-90311827D01*
X165135691Y-90408500D01*
X165576250Y-90408500D01*
X165735000Y-90249750D01*
X165735000Y-88000500D01*
X165989000Y-88000500D01*
X165989000Y-90249750D01*
X166147750Y-90408500D01*
X166588309Y-90408500D01*
X166821698Y-90311827D01*
X167000327Y-90133199D01*
X167097000Y-89899810D01*
X167097000Y-88159250D01*
X166938250Y-88000500D01*
X165989000Y-88000500D01*
X165735000Y-88000500D01*
X164785750Y-88000500D01*
X164627000Y-88159250D01*
X145073000Y-88159250D01*
X145073000Y-86360000D01*
X144970996Y-85847190D01*
X164627000Y-85847190D01*
X164627000Y-87587750D01*
X164785750Y-87746500D01*
X165735000Y-87746500D01*
X165735000Y-85497250D01*
X165989000Y-85497250D01*
X165989000Y-87746500D01*
X166938250Y-87746500D01*
X167097000Y-87587750D01*
X167097000Y-85973500D01*
X169694560Y-85973500D01*
X169694560Y-89773500D01*
X169738838Y-90008817D01*
X169877910Y-90224941D01*
X170090110Y-90369931D01*
X170248055Y-90401916D01*
X170404599Y-90636201D01*
X170651161Y-90800948D01*
X170662003Y-90803105D01*
X177398278Y-97539380D01*
X177398238Y-97584867D01*
X177540283Y-97928643D01*
X177803073Y-98191892D01*
X178146601Y-98334538D01*
X178518567Y-98334862D01*
X178862343Y-98192817D01*
X179125592Y-97930027D01*
X179268238Y-97586499D01*
X179268241Y-97582267D01*
X179654838Y-97582267D01*
X179796883Y-97926043D01*
X180059673Y-98189292D01*
X180403201Y-98331938D01*
X180775167Y-98332262D01*
X181118943Y-98190217D01*
X181382192Y-97927427D01*
X181524838Y-97583899D01*
X181525162Y-97211933D01*
X181383117Y-96868157D01*
X181350000Y-96834982D01*
X181350000Y-94256667D01*
X193072538Y-94256667D01*
X193214583Y-94600443D01*
X193477373Y-94863692D01*
X193820901Y-95006338D01*
X194192867Y-95006662D01*
X194536643Y-94864617D01*
X194781319Y-94620367D01*
X201926638Y-94620367D01*
X202068683Y-94964143D01*
X202331473Y-95227392D01*
X202675001Y-95370038D01*
X203046967Y-95370362D01*
X203390743Y-95228317D01*
X203653992Y-94965527D01*
X203796638Y-94621999D01*
X203796679Y-94575123D01*
X207195502Y-91176300D01*
X209106000Y-91176300D01*
X209396839Y-91118448D01*
X209643401Y-90953701D01*
X209798915Y-90720957D01*
X209941317Y-90694162D01*
X210157441Y-90555090D01*
X210302431Y-90342890D01*
X210353440Y-90091000D01*
X210353440Y-86291000D01*
X210309162Y-86055683D01*
X210170090Y-85839559D01*
X209957890Y-85694569D01*
X209706000Y-85643560D01*
X208506000Y-85643560D01*
X208270683Y-85687838D01*
X208054559Y-85826910D01*
X207909569Y-86039110D01*
X207858560Y-86291000D01*
X207858560Y-89656300D01*
X206880700Y-89656300D01*
X206589861Y-89714152D01*
X206343299Y-89878899D01*
X202722120Y-93500078D01*
X202676633Y-93500038D01*
X202332857Y-93642083D01*
X202069608Y-93904873D01*
X201926962Y-94248401D01*
X201926638Y-94620367D01*
X194781319Y-94620367D01*
X194799892Y-94601827D01*
X194942538Y-94258299D01*
X194942579Y-94211423D01*
X197959401Y-91194601D01*
X198124148Y-90948040D01*
X198171433Y-90710322D01*
X198257317Y-90694162D01*
X198473441Y-90555090D01*
X198618431Y-90342890D01*
X198669440Y-90091000D01*
X198669440Y-88476750D01*
X202791000Y-88476750D01*
X202791000Y-90217310D01*
X202887673Y-90450699D01*
X203066302Y-90629327D01*
X203299691Y-90726000D01*
X203740250Y-90726000D01*
X203899000Y-90567250D01*
X203899000Y-88318000D01*
X204153000Y-88318000D01*
X204153000Y-90567250D01*
X204311750Y-90726000D01*
X204752309Y-90726000D01*
X204985698Y-90629327D01*
X205164327Y-90450699D01*
X205261000Y-90217310D01*
X205261000Y-88476750D01*
X205102250Y-88318000D01*
X204153000Y-88318000D01*
X203899000Y-88318000D01*
X202949750Y-88318000D01*
X202791000Y-88476750D01*
X198669440Y-88476750D01*
X198669440Y-86291000D01*
X198645674Y-86164690D01*
X202791000Y-86164690D01*
X202791000Y-87905250D01*
X202949750Y-88064000D01*
X203899000Y-88064000D01*
X203899000Y-85814750D01*
X204153000Y-85814750D01*
X204153000Y-88064000D01*
X205102250Y-88064000D01*
X205261000Y-87905250D01*
X205261000Y-86164690D01*
X205164327Y-85931301D01*
X204985698Y-85752673D01*
X204752309Y-85656000D01*
X204311750Y-85656000D01*
X204153000Y-85814750D01*
X203899000Y-85814750D01*
X203740250Y-85656000D01*
X203299691Y-85656000D01*
X203066302Y-85752673D01*
X202887673Y-85931301D01*
X202791000Y-86164690D01*
X198645674Y-86164690D01*
X198625162Y-86055683D01*
X198486090Y-85839559D01*
X198273890Y-85694569D01*
X198022000Y-85643560D01*
X196822000Y-85643560D01*
X196586683Y-85687838D01*
X196370559Y-85826910D01*
X196225569Y-86039110D01*
X196174560Y-86291000D01*
X196174560Y-90091000D01*
X196218838Y-90326317D01*
X196357910Y-90542441D01*
X196419722Y-90584676D01*
X193868020Y-93136378D01*
X193822533Y-93136338D01*
X193478757Y-93278383D01*
X193215508Y-93541173D01*
X193072862Y-93884701D01*
X193072538Y-94256667D01*
X181350000Y-94256667D01*
X181350000Y-92703102D01*
X183353401Y-90699701D01*
X183508916Y-90466957D01*
X183651317Y-90440162D01*
X183867441Y-90301090D01*
X184012431Y-90088890D01*
X184063440Y-89837000D01*
X184063440Y-88476750D01*
X191107000Y-88476750D01*
X191107000Y-90217310D01*
X191203673Y-90450699D01*
X191382302Y-90629327D01*
X191615691Y-90726000D01*
X192056250Y-90726000D01*
X192215000Y-90567250D01*
X192215000Y-88318000D01*
X192469000Y-88318000D01*
X192469000Y-90567250D01*
X192627750Y-90726000D01*
X193068309Y-90726000D01*
X193301698Y-90629327D01*
X193480327Y-90450699D01*
X193577000Y-90217310D01*
X193577000Y-88476750D01*
X193418250Y-88318000D01*
X192469000Y-88318000D01*
X192215000Y-88318000D01*
X191265750Y-88318000D01*
X191107000Y-88476750D01*
X184063440Y-88476750D01*
X184063440Y-86164690D01*
X191107000Y-86164690D01*
X191107000Y-87905250D01*
X191265750Y-88064000D01*
X192215000Y-88064000D01*
X192215000Y-85814750D01*
X192469000Y-85814750D01*
X192469000Y-88064000D01*
X193418250Y-88064000D01*
X193577000Y-87905250D01*
X193577000Y-86164690D01*
X193480327Y-85931301D01*
X193301698Y-85752673D01*
X193068309Y-85656000D01*
X192627750Y-85656000D01*
X192469000Y-85814750D01*
X192215000Y-85814750D01*
X192056250Y-85656000D01*
X191615691Y-85656000D01*
X191382302Y-85752673D01*
X191203673Y-85931301D01*
X191107000Y-86164690D01*
X184063440Y-86164690D01*
X184063440Y-86037000D01*
X184019162Y-85801683D01*
X183880090Y-85585559D01*
X183667890Y-85440569D01*
X183416000Y-85389560D01*
X182216000Y-85389560D01*
X181980683Y-85433838D01*
X181764559Y-85572910D01*
X181619569Y-85785110D01*
X181568560Y-86037000D01*
X181568560Y-89837000D01*
X181612838Y-90072317D01*
X181698327Y-90205171D01*
X180052599Y-91850899D01*
X179887852Y-92097461D01*
X179830000Y-92388300D01*
X179830000Y-96834637D01*
X179797808Y-96866773D01*
X179655162Y-97210301D01*
X179654838Y-97582267D01*
X179268241Y-97582267D01*
X179268562Y-97214533D01*
X179126517Y-96870757D01*
X178863727Y-96607508D01*
X178520199Y-96464862D01*
X178473323Y-96464821D01*
X172095997Y-90087495D01*
X172138431Y-90025390D01*
X172189440Y-89773500D01*
X172189440Y-88222750D01*
X176501000Y-88222750D01*
X176501000Y-89963310D01*
X176597673Y-90196699D01*
X176776302Y-90375327D01*
X177009691Y-90472000D01*
X177450250Y-90472000D01*
X177609000Y-90313250D01*
X177609000Y-88064000D01*
X177863000Y-88064000D01*
X177863000Y-90313250D01*
X178021750Y-90472000D01*
X178462309Y-90472000D01*
X178695698Y-90375327D01*
X178874327Y-90196699D01*
X178971000Y-89963310D01*
X178971000Y-88222750D01*
X178812250Y-88064000D01*
X177863000Y-88064000D01*
X177609000Y-88064000D01*
X176659750Y-88064000D01*
X176501000Y-88222750D01*
X172189440Y-88222750D01*
X172189440Y-85973500D01*
X172177622Y-85910690D01*
X176501000Y-85910690D01*
X176501000Y-87651250D01*
X176659750Y-87810000D01*
X177609000Y-87810000D01*
X177609000Y-85560750D01*
X177863000Y-85560750D01*
X177863000Y-87810000D01*
X178812250Y-87810000D01*
X178971000Y-87651250D01*
X178971000Y-85910690D01*
X178874327Y-85677301D01*
X178695698Y-85498673D01*
X178462309Y-85402000D01*
X178021750Y-85402000D01*
X177863000Y-85560750D01*
X177609000Y-85560750D01*
X177450250Y-85402000D01*
X177009691Y-85402000D01*
X176776302Y-85498673D01*
X176597673Y-85677301D01*
X176501000Y-85910690D01*
X172177622Y-85910690D01*
X172145162Y-85738183D01*
X172006090Y-85522059D01*
X171793890Y-85377069D01*
X171542000Y-85326060D01*
X170342000Y-85326060D01*
X170106683Y-85370338D01*
X169890559Y-85509410D01*
X169745569Y-85721610D01*
X169694560Y-85973500D01*
X167097000Y-85973500D01*
X167097000Y-85847190D01*
X167000327Y-85613801D01*
X166821698Y-85435173D01*
X166588309Y-85338500D01*
X166147750Y-85338500D01*
X165989000Y-85497250D01*
X165735000Y-85497250D01*
X165576250Y-85338500D01*
X165135691Y-85338500D01*
X164902302Y-85435173D01*
X164723673Y-85613801D01*
X164627000Y-85847190D01*
X144970996Y-85847190D01*
X144910483Y-85542971D01*
X144447673Y-84850327D01*
X143513526Y-83916180D01*
X143431825Y-83793879D01*
X142950194Y-83312152D01*
X155610169Y-70652177D01*
X155941673Y-70430673D01*
X156404483Y-69738029D01*
X156567000Y-68921000D01*
X156567000Y-68575466D01*
X157920226Y-67222500D01*
X162496541Y-67222500D01*
X162255628Y-67322043D01*
X161724907Y-67851839D01*
X161437328Y-68544405D01*
X161436674Y-69294305D01*
X161723043Y-69987372D01*
X162252839Y-70518093D01*
X162945405Y-70805672D01*
X163695305Y-70806326D01*
X164388372Y-70519957D01*
X164919093Y-69990161D01*
X165206672Y-69297595D01*
X165207326Y-68547695D01*
X164920957Y-67854628D01*
X164391161Y-67323907D01*
X164146946Y-67222500D01*
X167174927Y-67222500D01*
X166892327Y-67411327D01*
X166429517Y-68103971D01*
X166267000Y-68921000D01*
X166267000Y-72823060D01*
X163157000Y-72823060D01*
X162921683Y-72867338D01*
X162705559Y-73006410D01*
X162560569Y-73218610D01*
X162509560Y-73470500D01*
X162509560Y-81850500D01*
X162553838Y-82085817D01*
X162692910Y-82301941D01*
X162905110Y-82446931D01*
X163157000Y-82497940D01*
X173647000Y-82497940D01*
X173882317Y-82453662D01*
X174098441Y-82314590D01*
X174243431Y-82102390D01*
X174294440Y-81850500D01*
X174294440Y-73470500D01*
X174250162Y-73235183D01*
X174111090Y-73019059D01*
X173898890Y-72874069D01*
X173647000Y-72823060D01*
X170537000Y-72823060D01*
X170537000Y-68921000D01*
X170374483Y-68103971D01*
X169911673Y-67411327D01*
X169629073Y-67222500D01*
X172656541Y-67222500D01*
X172415628Y-67322043D01*
X171884907Y-67851839D01*
X171597328Y-68544405D01*
X171596674Y-69294305D01*
X171883043Y-69987372D01*
X172412839Y-70518093D01*
X173105405Y-70805672D01*
X173855305Y-70806326D01*
X174548372Y-70519957D01*
X175079093Y-69990161D01*
X175366672Y-69297595D01*
X175367326Y-68547695D01*
X175080957Y-67854628D01*
X174551161Y-67323907D01*
X174306946Y-67222500D01*
X177334927Y-67222500D01*
X177052327Y-67411327D01*
X176589517Y-68103971D01*
X176427000Y-68921000D01*
X176427000Y-72886560D01*
X175031000Y-72886560D01*
X174795683Y-72930838D01*
X174579559Y-73069910D01*
X174434569Y-73282110D01*
X174383560Y-73534000D01*
X174383560Y-81914000D01*
X174427838Y-82149317D01*
X174566910Y-82365441D01*
X174779110Y-82510431D01*
X175031000Y-82561440D01*
X185521000Y-82561440D01*
X185756317Y-82517162D01*
X185972441Y-82378090D01*
X186117431Y-82165890D01*
X186168440Y-81914000D01*
X186168440Y-73534000D01*
X186124162Y-73298683D01*
X185985090Y-73082559D01*
X185772890Y-72937569D01*
X185521000Y-72886560D01*
X180697000Y-72886560D01*
X180697000Y-68921000D01*
X180534483Y-68103971D01*
X180071673Y-67411327D01*
X179789073Y-67222500D01*
X180915824Y-67222500D01*
X181507000Y-67813516D01*
X181507000Y-68961000D01*
X181669517Y-69778029D01*
X182132327Y-70470673D01*
X182824971Y-70933483D01*
X183642000Y-71096000D01*
X184459029Y-70933483D01*
X185151673Y-70470673D01*
X185614483Y-69778029D01*
X185777000Y-68961000D01*
X185777000Y-67222500D01*
X189674541Y-67222500D01*
X189433628Y-67322043D01*
X188902907Y-67851839D01*
X188615328Y-68544405D01*
X188614674Y-69294305D01*
X188901043Y-69987372D01*
X189430839Y-70518093D01*
X190123405Y-70805672D01*
X190873305Y-70806326D01*
X191566372Y-70519957D01*
X192097093Y-69990161D01*
X192384672Y-69297595D01*
X192385326Y-68547695D01*
X192098957Y-67854628D01*
X191569161Y-67323907D01*
X191324946Y-67222500D01*
X194352927Y-67222500D01*
X194070327Y-67411327D01*
X193607517Y-68103971D01*
X193445000Y-68921000D01*
X193445000Y-73140560D01*
X189637000Y-73140560D01*
X189401683Y-73184838D01*
X189185559Y-73323910D01*
X189040569Y-73536110D01*
X188989560Y-73788000D01*
X188989560Y-82168000D01*
X189033838Y-82403317D01*
X189172910Y-82619441D01*
X189385110Y-82764431D01*
X189637000Y-82815440D01*
X200127000Y-82815440D01*
X200362317Y-82771162D01*
X200578441Y-82632090D01*
X200723431Y-82419890D01*
X200724645Y-82413895D01*
X200856910Y-82619441D01*
X201069110Y-82764431D01*
X201321000Y-82815440D01*
X211811000Y-82815440D01*
X212046317Y-82771162D01*
X212262441Y-82632090D01*
X212407431Y-82419890D01*
X212458440Y-82168000D01*
X212458440Y-73872786D01*
X223925000Y-85339346D01*
X223925000Y-93000859D01*
X223888957Y-92913628D01*
X223359161Y-92382907D01*
X222666595Y-92095328D01*
X221916695Y-92094674D01*
X221223628Y-92381043D01*
X220692907Y-92910839D01*
X220405328Y-93603405D01*
X220404674Y-94353305D01*
X220691043Y-95046372D01*
X221220839Y-95577093D01*
X221913405Y-95864672D01*
X222663305Y-95865326D01*
X223356372Y-95578957D01*
X223887093Y-95049161D01*
X223925000Y-94957871D01*
X223925000Y-97737892D01*
X223799673Y-97550327D01*
X223107029Y-97087517D01*
X222290000Y-96925000D01*
X218440000Y-96925000D01*
X217622971Y-97087517D01*
X216930327Y-97550327D01*
X216233094Y-98247560D01*
X209170000Y-98247560D01*
X208934683Y-98291838D01*
X208718559Y-98430910D01*
X208573569Y-98643110D01*
X208522560Y-98895000D01*
X208522560Y-109385000D01*
X208566838Y-109620317D01*
X208705910Y-109836441D01*
X208795170Y-109897430D01*
X208654559Y-109987910D01*
X208509569Y-110200110D01*
X208458560Y-110452000D01*
X208458560Y-120942000D01*
X208502838Y-121177317D01*
X208641910Y-121393441D01*
X208854110Y-121538431D01*
X209106000Y-121589440D01*
X217486000Y-121589440D01*
X217721317Y-121545162D01*
X217937441Y-121406090D01*
X218082431Y-121193890D01*
X218133440Y-120942000D01*
X218133440Y-116355906D01*
X220127335Y-114362011D01*
X220277517Y-115117029D01*
X220740327Y-115809673D01*
X221432971Y-116272483D01*
X222250000Y-116435000D01*
X223067029Y-116272483D01*
X223759673Y-115809673D01*
X227569673Y-111999673D01*
X228032483Y-111307029D01*
X228195000Y-110490000D01*
X228195000Y-84455000D01*
X228032483Y-83637971D01*
X227569673Y-82945327D01*
X214566965Y-69942619D01*
X219764613Y-69942619D01*
X220104155Y-70764372D01*
X220732321Y-71393636D01*
X221553481Y-71734611D01*
X222442619Y-71735387D01*
X223264372Y-71395845D01*
X223893636Y-70767679D01*
X224234611Y-69946519D01*
X224235387Y-69057381D01*
X223895845Y-68235628D01*
X223267679Y-67606364D01*
X222446519Y-67265389D01*
X221557381Y-67264613D01*
X220735628Y-67604155D01*
X220106364Y-68232321D01*
X219765389Y-69053481D01*
X219764613Y-69942619D01*
X214566965Y-69942619D01*
X212798483Y-68174137D01*
X212792483Y-68143971D01*
X212792444Y-68143912D01*
X212792430Y-68143843D01*
X212559786Y-67795716D01*
X212329673Y-67451327D01*
X212329615Y-67451288D01*
X212329576Y-67451230D01*
X208455576Y-63577730D01*
X208107465Y-63345162D01*
X207763029Y-63115017D01*
X207762961Y-63115003D01*
X207762902Y-63114964D01*
X207352248Y-63033308D01*
X206946000Y-62952500D01*
X157036000Y-62952500D01*
X156630807Y-63033098D01*
X156219160Y-63114938D01*
X156219072Y-63114997D01*
X156218971Y-63115017D01*
X155875823Y-63344301D01*
X155526472Y-63577682D01*
X152922472Y-66181182D01*
X152922414Y-66181269D01*
X152922327Y-66181327D01*
X152690648Y-66528059D01*
X152459596Y-66873781D01*
X152459576Y-66873883D01*
X152459517Y-66873971D01*
X152377872Y-67284429D01*
X152297000Y-67690795D01*
X152297020Y-67690898D01*
X152297000Y-67691000D01*
X152297000Y-67926654D01*
X151239379Y-68984275D01*
X151226250Y-68495565D01*
X150978123Y-67896533D01*
X150685320Y-67767285D01*
X149531605Y-68921000D01*
X149545748Y-68935143D01*
X149366143Y-69114748D01*
X149352000Y-69100605D01*
X148198285Y-70254320D01*
X148327533Y-70547123D01*
X149027806Y-70815388D01*
X149418769Y-70804885D01*
X139309154Y-80914500D01*
X138181080Y-80914500D01*
X137945763Y-80958778D01*
X137729639Y-81097850D01*
X137584649Y-81310050D01*
X137533640Y-81561940D01*
X137533640Y-85062060D01*
X137577918Y-85297377D01*
X137716990Y-85513501D01*
X137881550Y-85625940D01*
X137217150Y-85625940D01*
X137058400Y-85784690D01*
X137058400Y-87884000D01*
X139157710Y-87884000D01*
X139316460Y-87725250D01*
X139316460Y-86134630D01*
X139219787Y-85901241D01*
X139041158Y-85722613D01*
X139009500Y-85709500D01*
X139308976Y-85709500D01*
X140330539Y-86731269D01*
X140412327Y-86853673D01*
X140803000Y-87244346D01*
X140803000Y-87825213D01*
X139316460Y-89311894D01*
X139316460Y-88296750D01*
X139157710Y-88138000D01*
X137058400Y-88138000D01*
X137058400Y-90237310D01*
X137217150Y-90396060D01*
X138232397Y-90396060D01*
X136783595Y-91845000D01*
X135890000Y-91845000D01*
X135072971Y-92007517D01*
X134380327Y-92470327D01*
X133917517Y-93162971D01*
X133755000Y-93980000D01*
X133917517Y-94797029D01*
X134380327Y-95489673D01*
X135072971Y-95952483D01*
X135890000Y-96115000D01*
X135983894Y-96115000D01*
X135356327Y-96534327D01*
X134340327Y-97550327D01*
X133877517Y-98242971D01*
X133715000Y-99060000D01*
X130504000Y-99060000D01*
X130504000Y-88296750D01*
X134546340Y-88296750D01*
X134546340Y-89887370D01*
X134643013Y-90120759D01*
X134821642Y-90299387D01*
X135055031Y-90396060D01*
X136645650Y-90396060D01*
X136804400Y-90237310D01*
X136804400Y-88138000D01*
X134705090Y-88138000D01*
X134546340Y-88296750D01*
X130504000Y-88296750D01*
X130504000Y-83597750D01*
X131546600Y-83597750D01*
X131546600Y-85188370D01*
X131643273Y-85421759D01*
X131821902Y-85600387D01*
X132055291Y-85697060D01*
X133645910Y-85697060D01*
X133804660Y-85538310D01*
X133804660Y-83439000D01*
X134058660Y-83439000D01*
X134058660Y-85538310D01*
X134217410Y-85697060D01*
X134883332Y-85697060D01*
X134821642Y-85722613D01*
X134643013Y-85901241D01*
X134546340Y-86134630D01*
X134546340Y-87725250D01*
X134705090Y-87884000D01*
X136804400Y-87884000D01*
X136804400Y-85784690D01*
X136645650Y-85625940D01*
X135979728Y-85625940D01*
X136041418Y-85600387D01*
X136220047Y-85421759D01*
X136316720Y-85188370D01*
X136316720Y-83597750D01*
X136157970Y-83439000D01*
X134058660Y-83439000D01*
X133804660Y-83439000D01*
X131705350Y-83439000D01*
X131546600Y-83597750D01*
X130504000Y-83597750D01*
X130504000Y-81435630D01*
X131546600Y-81435630D01*
X131546600Y-83026250D01*
X131705350Y-83185000D01*
X133804660Y-83185000D01*
X133804660Y-81085690D01*
X134058660Y-81085690D01*
X134058660Y-83185000D01*
X136157970Y-83185000D01*
X136316720Y-83026250D01*
X136316720Y-81435630D01*
X136220047Y-81202241D01*
X136041418Y-81023613D01*
X135808029Y-80926940D01*
X134217410Y-80926940D01*
X134058660Y-81085690D01*
X133804660Y-81085690D01*
X133645910Y-80926940D01*
X132055291Y-80926940D01*
X131821902Y-81023613D01*
X131643273Y-81202241D01*
X131546600Y-81435630D01*
X130504000Y-81435630D01*
X130504000Y-69942619D01*
X135764613Y-69942619D01*
X136104155Y-70764372D01*
X136732321Y-71393636D01*
X137553481Y-71734611D01*
X138442619Y-71735387D01*
X139264372Y-71395845D01*
X139893636Y-70767679D01*
X140234611Y-69946519D01*
X140235387Y-69057381D01*
X140045081Y-68596806D01*
X147457612Y-68596806D01*
X147477750Y-69346435D01*
X147725877Y-69945467D01*
X148018680Y-70074715D01*
X149172395Y-68921000D01*
X148018680Y-67767285D01*
X147725877Y-67896533D01*
X147457612Y-68596806D01*
X140045081Y-68596806D01*
X139895845Y-68235628D01*
X139267679Y-67606364D01*
X139222683Y-67587680D01*
X148198285Y-67587680D01*
X149352000Y-68741395D01*
X150505715Y-67587680D01*
X150376467Y-67294877D01*
X149676194Y-67026612D01*
X148926565Y-67046750D01*
X148327533Y-67294877D01*
X148198285Y-67587680D01*
X139222683Y-67587680D01*
X138446519Y-67265389D01*
X137557381Y-67264613D01*
X136735628Y-67604155D01*
X136106364Y-68232321D01*
X135765389Y-69053481D01*
X135764613Y-69942619D01*
X130504000Y-69942619D01*
X130504000Y-61416000D01*
X228906000Y-61416000D01*
X228906000Y-159818000D01*
M02*
