G04 #@! TF.FileFunction,Copper,L2,Bot,Signal*
%FSLAX46Y46*%
G04 Gerber Fmt 4.6, Leading zero omitted, Abs format (unit mm)*
G04 Created by KiCad (PCBNEW 4.0.4-stable) date 03/09/17 09:34:18*
%MOMM*%
%LPD*%
G01*
G04 APERTURE LIST*
%ADD10C,0.100000*%
%ADD11C,0.900000*%
%ADD12R,1.700000X1.700000*%
%ADD13O,1.700000X1.700000*%
%ADD14C,0.600000*%
%ADD15C,1.000000*%
%ADD16C,0.250000*%
%ADD17C,0.254000*%
G04 APERTURE END LIST*
D10*
D11*
X69340000Y-62985000D03*
X52240000Y-62985000D03*
X77726000Y-97416000D03*
X94826000Y-97416000D03*
X98046000Y-97416000D03*
X115146000Y-97416000D03*
X89660000Y-62985000D03*
X72560000Y-62985000D03*
X109980000Y-62985000D03*
X92880000Y-62985000D03*
X130300000Y-62985000D03*
X113200000Y-62985000D03*
X150620000Y-62985000D03*
X133520000Y-62985000D03*
X170940000Y-62985000D03*
X153840000Y-62985000D03*
X191260000Y-62985000D03*
X174160000Y-62985000D03*
X211580000Y-62985000D03*
X194480000Y-62985000D03*
D12*
X121793000Y-98933000D03*
D13*
X124333000Y-98933000D03*
X126873000Y-98933000D03*
X129413000Y-98933000D03*
X131953000Y-98933000D03*
D14*
X121920000Y-92075000D03*
X177419000Y-71755000D03*
X104140004Y-84455000D03*
X77470000Y-72517000D03*
X97028000Y-72517000D03*
X117729000Y-72517000D03*
X136398000Y-72517000D03*
X156718000Y-72517000D03*
X197485000Y-72517000D03*
X57531000Y-72517000D03*
X104140000Y-87249000D03*
X144399000Y-88519000D03*
X151765000Y-92075000D03*
X117348000Y-89408000D03*
X119634000Y-83566000D03*
X125730000Y-76315000D03*
X121285000Y-93980000D03*
X62865000Y-86995000D03*
X137795000Y-86487000D03*
X170053000Y-97409000D03*
X133858000Y-84455000D03*
X131191000Y-84455000D03*
X107950000Y-87630000D03*
X107950000Y-86359986D03*
X106045000Y-87630000D03*
X106151768Y-85929977D03*
X127381000Y-81025999D03*
X106045000Y-81788000D03*
X107569000Y-81026000D03*
X129539998Y-77978000D03*
X108712000Y-80645000D03*
X129413000Y-80137000D03*
X127508000Y-85471000D03*
X126746000Y-86995000D03*
D15*
X118534998Y-92075000D02*
X121495736Y-92075000D01*
X110914998Y-84455000D02*
X118534998Y-92075000D01*
X104140004Y-84455000D02*
X110914998Y-84455000D01*
X121495736Y-92075000D02*
X121920000Y-92075000D01*
X177419000Y-71755000D02*
X177419000Y-72390000D01*
X177419000Y-72390000D02*
X177292000Y-72517000D01*
X104140004Y-84030736D02*
X104140004Y-84455000D01*
X104140004Y-72517004D02*
X104140004Y-84030736D01*
X104140000Y-72517000D02*
X104140004Y-72517004D01*
X104140000Y-84455004D02*
X104140004Y-84455000D01*
X104140000Y-87249000D02*
X104140000Y-84455004D01*
X97028000Y-72517000D02*
X104140000Y-72517000D01*
X104140000Y-72517000D02*
X117729000Y-72517000D01*
X76962000Y-72517000D02*
X97028000Y-72517000D01*
X57531000Y-72517000D02*
X76962000Y-72517000D01*
X76962000Y-72517000D02*
X77470000Y-72517000D01*
X117729000Y-72517000D02*
X136398000Y-72517000D01*
X136398000Y-72517000D02*
X156718000Y-72517000D01*
X156718000Y-72517000D02*
X177292000Y-72517000D01*
X177292000Y-72517000D02*
X197485000Y-72517000D01*
X131953000Y-98933000D02*
X133985000Y-98933000D01*
X133985000Y-98933000D02*
X144399000Y-88519000D01*
X147655001Y-91775001D02*
X144399000Y-88519000D01*
X151765000Y-92075000D02*
X151465001Y-91775001D01*
X151465001Y-91775001D02*
X147655001Y-91775001D01*
D16*
X117348000Y-88983736D02*
X117348000Y-89408000D01*
X117348000Y-85852000D02*
X117348000Y-88983736D01*
X119634000Y-83566000D02*
X117348000Y-85852000D01*
X135890000Y-85725000D02*
X136652000Y-86487000D01*
X136652000Y-86487000D02*
X137795000Y-86487000D01*
X135890000Y-84582000D02*
X135890000Y-85725000D01*
X135255000Y-82768000D02*
X135255000Y-83947000D01*
X135255000Y-83947000D02*
X135890000Y-84582000D01*
X127115000Y-76315000D02*
X128152999Y-77352999D01*
X128152999Y-77352999D02*
X129839999Y-77352999D01*
X129839999Y-77352999D02*
X135255000Y-82768000D01*
X125730000Y-76315000D02*
X127115000Y-76315000D01*
D15*
X121285000Y-93980000D02*
X118742928Y-93980000D01*
X118742928Y-93980000D02*
X113027928Y-88265000D01*
X113027928Y-88265000D02*
X108795002Y-88265000D01*
X108795002Y-88265000D02*
X108160002Y-88900000D01*
X108160002Y-88900000D02*
X64770000Y-88900000D01*
X64770000Y-88900000D02*
X62865000Y-86995000D01*
X62865000Y-86995000D02*
X64771036Y-88901036D01*
X170053000Y-97409000D02*
X159131000Y-86487000D01*
X159131000Y-86487000D02*
X137795000Y-86487000D01*
D16*
X133858000Y-84455000D02*
X131191000Y-84455000D01*
X131191000Y-84455000D02*
X124333000Y-91313000D01*
X124333000Y-91313000D02*
X124333000Y-98933000D01*
X107950000Y-86359986D02*
X107950000Y-87630000D01*
X106151768Y-87523232D02*
X106045000Y-87630000D01*
X106151768Y-85929977D02*
X106151768Y-87523232D01*
X126618999Y-81788000D02*
X127081001Y-81325998D01*
X106045000Y-81788000D02*
X126618999Y-81788000D01*
X127081001Y-81325998D02*
X127381000Y-81025999D01*
X107569000Y-80601736D02*
X107569000Y-81026000D01*
X107569000Y-80474736D02*
X107569000Y-80601736D01*
X110065736Y-77978000D02*
X107569000Y-80474736D01*
X129539998Y-77978000D02*
X110065736Y-77978000D01*
X109220000Y-80137000D02*
X109011999Y-80345001D01*
X109011999Y-80345001D02*
X108712000Y-80645000D01*
X129413000Y-80137000D02*
X109220000Y-80137000D01*
X127508000Y-85471000D02*
X129149001Y-83829999D01*
X129149001Y-83829999D02*
X134158001Y-83829999D01*
X134158001Y-83829999D02*
X134483001Y-84154999D01*
X134483001Y-84154999D02*
X134483001Y-91322999D01*
X134483001Y-91322999D02*
X127722999Y-98083001D01*
X127722999Y-98083001D02*
X126873000Y-98933000D01*
X126746000Y-86995000D02*
X126746000Y-87419264D01*
X123157999Y-99497001D02*
X123768999Y-100108001D01*
X126746000Y-87419264D02*
X123157999Y-91007265D01*
X123157999Y-91007265D02*
X123157999Y-99497001D01*
X123768999Y-100108001D02*
X128237999Y-100108001D01*
X128237999Y-100108001D02*
X128563001Y-99782999D01*
X128563001Y-99782999D02*
X129413000Y-98933000D01*
D17*
G36*
X195505000Y-62589765D02*
X195443712Y-62441803D01*
X195233745Y-62410860D01*
X194659605Y-62985000D01*
X195233745Y-63559140D01*
X195443712Y-63528197D01*
X195505000Y-63341325D01*
X195505000Y-67691000D01*
X195559046Y-67962705D01*
X195712954Y-68193046D01*
X195943295Y-68346954D01*
X196099418Y-68378009D01*
X196093343Y-68380519D01*
X195647086Y-68825997D01*
X195405276Y-69408341D01*
X195404725Y-70038893D01*
X195645519Y-70621657D01*
X196090997Y-71067914D01*
X196673341Y-71309724D01*
X197303893Y-71310275D01*
X197886657Y-71069481D01*
X198332914Y-70624003D01*
X198574724Y-70041659D01*
X198575275Y-69411107D01*
X198334481Y-68828343D01*
X197907884Y-68401000D01*
X208062826Y-68401000D01*
X207637086Y-68825997D01*
X207395276Y-69408341D01*
X207394725Y-70038893D01*
X207635519Y-70621657D01*
X208080997Y-71067914D01*
X208663341Y-71309724D01*
X209293893Y-71310275D01*
X209876657Y-71069481D01*
X210322914Y-70624003D01*
X210564724Y-70041659D01*
X210565275Y-69411107D01*
X210324481Y-68828343D01*
X209879003Y-68382086D01*
X209844374Y-68367707D01*
X209948705Y-68346954D01*
X210179046Y-68193046D01*
X210332954Y-67962705D01*
X210374743Y-67752619D01*
X219633613Y-67752619D01*
X219973155Y-68574372D01*
X220601321Y-69203636D01*
X221422481Y-69544611D01*
X222311619Y-69545387D01*
X223133372Y-69205845D01*
X223762636Y-68577679D01*
X224103611Y-67756519D01*
X224104387Y-66867381D01*
X223764845Y-66045628D01*
X223136679Y-65416364D01*
X222315519Y-65075389D01*
X221426381Y-65074613D01*
X220604628Y-65414155D01*
X219975364Y-66042321D01*
X219634389Y-66863481D01*
X219633613Y-67752619D01*
X210374743Y-67752619D01*
X210387000Y-67691000D01*
X210387000Y-63738745D01*
X211005860Y-63738745D01*
X211036803Y-63948712D01*
X211446948Y-64083226D01*
X211877349Y-64050546D01*
X212123197Y-63948712D01*
X212154140Y-63738745D01*
X211580000Y-63164605D01*
X211005860Y-63738745D01*
X210387000Y-63738745D01*
X210387000Y-62851948D01*
X210481774Y-62851948D01*
X210514454Y-63282349D01*
X210616288Y-63528197D01*
X210826255Y-63559140D01*
X211400395Y-62985000D01*
X211759605Y-62985000D01*
X212333745Y-63559140D01*
X212543712Y-63528197D01*
X212678226Y-63118052D01*
X212645546Y-62687651D01*
X212543712Y-62441803D01*
X212333745Y-62410860D01*
X211759605Y-62985000D01*
X211400395Y-62985000D01*
X210826255Y-62410860D01*
X210616288Y-62441803D01*
X210481774Y-62851948D01*
X210387000Y-62851948D01*
X210387000Y-62231255D01*
X211005860Y-62231255D01*
X211580000Y-62805395D01*
X212154140Y-62231255D01*
X212123197Y-62021288D01*
X211713052Y-61886774D01*
X211282651Y-61919454D01*
X211036803Y-62021288D01*
X211005860Y-62231255D01*
X210387000Y-62231255D01*
X210387000Y-60273000D01*
X228906000Y-60273000D01*
X228906000Y-100128000D01*
X132804026Y-100128000D01*
X133148183Y-99814358D01*
X133394486Y-99289892D01*
X133273819Y-99060000D01*
X132080000Y-99060000D01*
X132080000Y-99080000D01*
X131826000Y-99080000D01*
X131826000Y-99060000D01*
X131806000Y-99060000D01*
X131806000Y-98806000D01*
X131826000Y-98806000D01*
X131826000Y-97612845D01*
X132080000Y-97612845D01*
X132080000Y-98806000D01*
X133273819Y-98806000D01*
X133394486Y-98576108D01*
X133148183Y-98051642D01*
X132719924Y-97661355D01*
X132309890Y-97491524D01*
X132080000Y-97612845D01*
X131826000Y-97612845D01*
X131596110Y-97491524D01*
X131186076Y-97661355D01*
X130757817Y-98051642D01*
X130690702Y-98194553D01*
X130463054Y-97853853D01*
X129981285Y-97531946D01*
X129453783Y-97427019D01*
X135020403Y-91860400D01*
X135185149Y-91613838D01*
X135243001Y-91322999D01*
X135243001Y-86098376D01*
X135352599Y-86262401D01*
X136114599Y-87024401D01*
X136361161Y-87189148D01*
X136652000Y-87247000D01*
X136963992Y-87247000D01*
X136992434Y-87289566D01*
X137360654Y-87535603D01*
X137795000Y-87622000D01*
X158660868Y-87622000D01*
X169250434Y-98211567D01*
X169618655Y-98457604D01*
X170053000Y-98544000D01*
X170487346Y-98457604D01*
X170855567Y-98211567D01*
X171101604Y-97843346D01*
X171188000Y-97409000D01*
X171101604Y-96974655D01*
X170855567Y-96606434D01*
X167782752Y-93533619D01*
X219633613Y-93533619D01*
X219973155Y-94355372D01*
X220601321Y-94984636D01*
X221422481Y-95325611D01*
X222311619Y-95326387D01*
X223133372Y-94986845D01*
X223762636Y-94358679D01*
X224103611Y-93537519D01*
X224104387Y-92648381D01*
X223764845Y-91826628D01*
X223136679Y-91197364D01*
X222315519Y-90856389D01*
X221426381Y-90855613D01*
X220604628Y-91195155D01*
X219975364Y-91823321D01*
X219634389Y-92644481D01*
X219633613Y-93533619D01*
X167782752Y-93533619D01*
X159933566Y-85684434D01*
X159865776Y-85639138D01*
X159565346Y-85438397D01*
X159131000Y-85352000D01*
X137795000Y-85352000D01*
X137360654Y-85438397D01*
X136992434Y-85684434D01*
X136965118Y-85725316D01*
X136650000Y-85410198D01*
X136650000Y-84582000D01*
X136592148Y-84291161D01*
X136427401Y-84044599D01*
X136015000Y-83632198D01*
X136015000Y-82768000D01*
X135957148Y-82477161D01*
X135792401Y-82230599D01*
X130377400Y-76815598D01*
X130130838Y-76650851D01*
X129839999Y-76592999D01*
X128467801Y-76592999D01*
X127652401Y-75777599D01*
X127405839Y-75612852D01*
X127115000Y-75555000D01*
X126292463Y-75555000D01*
X126260327Y-75522808D01*
X125916799Y-75380162D01*
X125544833Y-75379838D01*
X125201057Y-75521883D01*
X124937808Y-75784673D01*
X124795162Y-76128201D01*
X124794838Y-76500167D01*
X124936883Y-76843943D01*
X125199673Y-77107192D01*
X125466527Y-77218000D01*
X110065736Y-77218000D01*
X109774897Y-77275852D01*
X109528335Y-77440599D01*
X107031599Y-79937335D01*
X106866852Y-80183897D01*
X106811780Y-80460762D01*
X106776808Y-80495673D01*
X106634162Y-80839201D01*
X106633998Y-81028000D01*
X106607463Y-81028000D01*
X106575327Y-80995808D01*
X106231799Y-80853162D01*
X105859833Y-80852838D01*
X105516057Y-80994883D01*
X105275004Y-81235516D01*
X105275004Y-73652000D01*
X197485000Y-73652000D01*
X197919346Y-73565603D01*
X198287566Y-73319566D01*
X198533603Y-72951346D01*
X198620000Y-72517000D01*
X198533603Y-72082654D01*
X198287566Y-71714434D01*
X197919346Y-71468397D01*
X197485000Y-71382000D01*
X178479806Y-71382000D01*
X178467603Y-71320654D01*
X178221566Y-70952434D01*
X177899490Y-70737229D01*
X178012914Y-70624003D01*
X178254724Y-70041659D01*
X178255275Y-69411107D01*
X178014481Y-68828343D01*
X177587884Y-68401000D01*
X187742826Y-68401000D01*
X187317086Y-68825997D01*
X187075276Y-69408341D01*
X187074725Y-70038893D01*
X187315519Y-70621657D01*
X187760997Y-71067914D01*
X188343341Y-71309724D01*
X188973893Y-71310275D01*
X189556657Y-71069481D01*
X190002914Y-70624003D01*
X190244724Y-70041659D01*
X190245275Y-69411107D01*
X190004481Y-68828343D01*
X189559003Y-68382086D01*
X189524374Y-68367707D01*
X189628705Y-68346954D01*
X189859046Y-68193046D01*
X190012954Y-67962705D01*
X190067000Y-67691000D01*
X190067000Y-63738745D01*
X190685860Y-63738745D01*
X190716803Y-63948712D01*
X191126948Y-64083226D01*
X191557349Y-64050546D01*
X191803197Y-63948712D01*
X191834140Y-63738745D01*
X193905860Y-63738745D01*
X193936803Y-63948712D01*
X194346948Y-64083226D01*
X194777349Y-64050546D01*
X195023197Y-63948712D01*
X195054140Y-63738745D01*
X194480000Y-63164605D01*
X193905860Y-63738745D01*
X191834140Y-63738745D01*
X191260000Y-63164605D01*
X190685860Y-63738745D01*
X190067000Y-63738745D01*
X190067000Y-62851948D01*
X190161774Y-62851948D01*
X190194454Y-63282349D01*
X190296288Y-63528197D01*
X190506255Y-63559140D01*
X191080395Y-62985000D01*
X191439605Y-62985000D01*
X192013745Y-63559140D01*
X192223712Y-63528197D01*
X192358226Y-63118052D01*
X192338021Y-62851948D01*
X193381774Y-62851948D01*
X193414454Y-63282349D01*
X193516288Y-63528197D01*
X193726255Y-63559140D01*
X194300395Y-62985000D01*
X193726255Y-62410860D01*
X193516288Y-62441803D01*
X193381774Y-62851948D01*
X192338021Y-62851948D01*
X192325546Y-62687651D01*
X192223712Y-62441803D01*
X192013745Y-62410860D01*
X191439605Y-62985000D01*
X191080395Y-62985000D01*
X190506255Y-62410860D01*
X190296288Y-62441803D01*
X190161774Y-62851948D01*
X190067000Y-62851948D01*
X190067000Y-62231255D01*
X190685860Y-62231255D01*
X191260000Y-62805395D01*
X191834140Y-62231255D01*
X193905860Y-62231255D01*
X194480000Y-62805395D01*
X195054140Y-62231255D01*
X195023197Y-62021288D01*
X194613052Y-61886774D01*
X194182651Y-61919454D01*
X193936803Y-62021288D01*
X193905860Y-62231255D01*
X191834140Y-62231255D01*
X191803197Y-62021288D01*
X191393052Y-61886774D01*
X190962651Y-61919454D01*
X190716803Y-62021288D01*
X190685860Y-62231255D01*
X190067000Y-62231255D01*
X190067000Y-60273000D01*
X195505000Y-60273000D01*
X195505000Y-62589765D01*
X195505000Y-62589765D01*
G37*
X195505000Y-62589765D02*
X195443712Y-62441803D01*
X195233745Y-62410860D01*
X194659605Y-62985000D01*
X195233745Y-63559140D01*
X195443712Y-63528197D01*
X195505000Y-63341325D01*
X195505000Y-67691000D01*
X195559046Y-67962705D01*
X195712954Y-68193046D01*
X195943295Y-68346954D01*
X196099418Y-68378009D01*
X196093343Y-68380519D01*
X195647086Y-68825997D01*
X195405276Y-69408341D01*
X195404725Y-70038893D01*
X195645519Y-70621657D01*
X196090997Y-71067914D01*
X196673341Y-71309724D01*
X197303893Y-71310275D01*
X197886657Y-71069481D01*
X198332914Y-70624003D01*
X198574724Y-70041659D01*
X198575275Y-69411107D01*
X198334481Y-68828343D01*
X197907884Y-68401000D01*
X208062826Y-68401000D01*
X207637086Y-68825997D01*
X207395276Y-69408341D01*
X207394725Y-70038893D01*
X207635519Y-70621657D01*
X208080997Y-71067914D01*
X208663341Y-71309724D01*
X209293893Y-71310275D01*
X209876657Y-71069481D01*
X210322914Y-70624003D01*
X210564724Y-70041659D01*
X210565275Y-69411107D01*
X210324481Y-68828343D01*
X209879003Y-68382086D01*
X209844374Y-68367707D01*
X209948705Y-68346954D01*
X210179046Y-68193046D01*
X210332954Y-67962705D01*
X210374743Y-67752619D01*
X219633613Y-67752619D01*
X219973155Y-68574372D01*
X220601321Y-69203636D01*
X221422481Y-69544611D01*
X222311619Y-69545387D01*
X223133372Y-69205845D01*
X223762636Y-68577679D01*
X224103611Y-67756519D01*
X224104387Y-66867381D01*
X223764845Y-66045628D01*
X223136679Y-65416364D01*
X222315519Y-65075389D01*
X221426381Y-65074613D01*
X220604628Y-65414155D01*
X219975364Y-66042321D01*
X219634389Y-66863481D01*
X219633613Y-67752619D01*
X210374743Y-67752619D01*
X210387000Y-67691000D01*
X210387000Y-63738745D01*
X211005860Y-63738745D01*
X211036803Y-63948712D01*
X211446948Y-64083226D01*
X211877349Y-64050546D01*
X212123197Y-63948712D01*
X212154140Y-63738745D01*
X211580000Y-63164605D01*
X211005860Y-63738745D01*
X210387000Y-63738745D01*
X210387000Y-62851948D01*
X210481774Y-62851948D01*
X210514454Y-63282349D01*
X210616288Y-63528197D01*
X210826255Y-63559140D01*
X211400395Y-62985000D01*
X211759605Y-62985000D01*
X212333745Y-63559140D01*
X212543712Y-63528197D01*
X212678226Y-63118052D01*
X212645546Y-62687651D01*
X212543712Y-62441803D01*
X212333745Y-62410860D01*
X211759605Y-62985000D01*
X211400395Y-62985000D01*
X210826255Y-62410860D01*
X210616288Y-62441803D01*
X210481774Y-62851948D01*
X210387000Y-62851948D01*
X210387000Y-62231255D01*
X211005860Y-62231255D01*
X211580000Y-62805395D01*
X212154140Y-62231255D01*
X212123197Y-62021288D01*
X211713052Y-61886774D01*
X211282651Y-61919454D01*
X211036803Y-62021288D01*
X211005860Y-62231255D01*
X210387000Y-62231255D01*
X210387000Y-60273000D01*
X228906000Y-60273000D01*
X228906000Y-100128000D01*
X132804026Y-100128000D01*
X133148183Y-99814358D01*
X133394486Y-99289892D01*
X133273819Y-99060000D01*
X132080000Y-99060000D01*
X132080000Y-99080000D01*
X131826000Y-99080000D01*
X131826000Y-99060000D01*
X131806000Y-99060000D01*
X131806000Y-98806000D01*
X131826000Y-98806000D01*
X131826000Y-97612845D01*
X132080000Y-97612845D01*
X132080000Y-98806000D01*
X133273819Y-98806000D01*
X133394486Y-98576108D01*
X133148183Y-98051642D01*
X132719924Y-97661355D01*
X132309890Y-97491524D01*
X132080000Y-97612845D01*
X131826000Y-97612845D01*
X131596110Y-97491524D01*
X131186076Y-97661355D01*
X130757817Y-98051642D01*
X130690702Y-98194553D01*
X130463054Y-97853853D01*
X129981285Y-97531946D01*
X129453783Y-97427019D01*
X135020403Y-91860400D01*
X135185149Y-91613838D01*
X135243001Y-91322999D01*
X135243001Y-86098376D01*
X135352599Y-86262401D01*
X136114599Y-87024401D01*
X136361161Y-87189148D01*
X136652000Y-87247000D01*
X136963992Y-87247000D01*
X136992434Y-87289566D01*
X137360654Y-87535603D01*
X137795000Y-87622000D01*
X158660868Y-87622000D01*
X169250434Y-98211567D01*
X169618655Y-98457604D01*
X170053000Y-98544000D01*
X170487346Y-98457604D01*
X170855567Y-98211567D01*
X171101604Y-97843346D01*
X171188000Y-97409000D01*
X171101604Y-96974655D01*
X170855567Y-96606434D01*
X167782752Y-93533619D01*
X219633613Y-93533619D01*
X219973155Y-94355372D01*
X220601321Y-94984636D01*
X221422481Y-95325611D01*
X222311619Y-95326387D01*
X223133372Y-94986845D01*
X223762636Y-94358679D01*
X224103611Y-93537519D01*
X224104387Y-92648381D01*
X223764845Y-91826628D01*
X223136679Y-91197364D01*
X222315519Y-90856389D01*
X221426381Y-90855613D01*
X220604628Y-91195155D01*
X219975364Y-91823321D01*
X219634389Y-92644481D01*
X219633613Y-93533619D01*
X167782752Y-93533619D01*
X159933566Y-85684434D01*
X159865776Y-85639138D01*
X159565346Y-85438397D01*
X159131000Y-85352000D01*
X137795000Y-85352000D01*
X137360654Y-85438397D01*
X136992434Y-85684434D01*
X136965118Y-85725316D01*
X136650000Y-85410198D01*
X136650000Y-84582000D01*
X136592148Y-84291161D01*
X136427401Y-84044599D01*
X136015000Y-83632198D01*
X136015000Y-82768000D01*
X135957148Y-82477161D01*
X135792401Y-82230599D01*
X130377400Y-76815598D01*
X130130838Y-76650851D01*
X129839999Y-76592999D01*
X128467801Y-76592999D01*
X127652401Y-75777599D01*
X127405839Y-75612852D01*
X127115000Y-75555000D01*
X126292463Y-75555000D01*
X126260327Y-75522808D01*
X125916799Y-75380162D01*
X125544833Y-75379838D01*
X125201057Y-75521883D01*
X124937808Y-75784673D01*
X124795162Y-76128201D01*
X124794838Y-76500167D01*
X124936883Y-76843943D01*
X125199673Y-77107192D01*
X125466527Y-77218000D01*
X110065736Y-77218000D01*
X109774897Y-77275852D01*
X109528335Y-77440599D01*
X107031599Y-79937335D01*
X106866852Y-80183897D01*
X106811780Y-80460762D01*
X106776808Y-80495673D01*
X106634162Y-80839201D01*
X106633998Y-81028000D01*
X106607463Y-81028000D01*
X106575327Y-80995808D01*
X106231799Y-80853162D01*
X105859833Y-80852838D01*
X105516057Y-80994883D01*
X105275004Y-81235516D01*
X105275004Y-73652000D01*
X197485000Y-73652000D01*
X197919346Y-73565603D01*
X198287566Y-73319566D01*
X198533603Y-72951346D01*
X198620000Y-72517000D01*
X198533603Y-72082654D01*
X198287566Y-71714434D01*
X197919346Y-71468397D01*
X197485000Y-71382000D01*
X178479806Y-71382000D01*
X178467603Y-71320654D01*
X178221566Y-70952434D01*
X177899490Y-70737229D01*
X178012914Y-70624003D01*
X178254724Y-70041659D01*
X178255275Y-69411107D01*
X178014481Y-68828343D01*
X177587884Y-68401000D01*
X187742826Y-68401000D01*
X187317086Y-68825997D01*
X187075276Y-69408341D01*
X187074725Y-70038893D01*
X187315519Y-70621657D01*
X187760997Y-71067914D01*
X188343341Y-71309724D01*
X188973893Y-71310275D01*
X189556657Y-71069481D01*
X190002914Y-70624003D01*
X190244724Y-70041659D01*
X190245275Y-69411107D01*
X190004481Y-68828343D01*
X189559003Y-68382086D01*
X189524374Y-68367707D01*
X189628705Y-68346954D01*
X189859046Y-68193046D01*
X190012954Y-67962705D01*
X190067000Y-67691000D01*
X190067000Y-63738745D01*
X190685860Y-63738745D01*
X190716803Y-63948712D01*
X191126948Y-64083226D01*
X191557349Y-64050546D01*
X191803197Y-63948712D01*
X191834140Y-63738745D01*
X193905860Y-63738745D01*
X193936803Y-63948712D01*
X194346948Y-64083226D01*
X194777349Y-64050546D01*
X195023197Y-63948712D01*
X195054140Y-63738745D01*
X194480000Y-63164605D01*
X193905860Y-63738745D01*
X191834140Y-63738745D01*
X191260000Y-63164605D01*
X190685860Y-63738745D01*
X190067000Y-63738745D01*
X190067000Y-62851948D01*
X190161774Y-62851948D01*
X190194454Y-63282349D01*
X190296288Y-63528197D01*
X190506255Y-63559140D01*
X191080395Y-62985000D01*
X191439605Y-62985000D01*
X192013745Y-63559140D01*
X192223712Y-63528197D01*
X192358226Y-63118052D01*
X192338021Y-62851948D01*
X193381774Y-62851948D01*
X193414454Y-63282349D01*
X193516288Y-63528197D01*
X193726255Y-63559140D01*
X194300395Y-62985000D01*
X193726255Y-62410860D01*
X193516288Y-62441803D01*
X193381774Y-62851948D01*
X192338021Y-62851948D01*
X192325546Y-62687651D01*
X192223712Y-62441803D01*
X192013745Y-62410860D01*
X191439605Y-62985000D01*
X191080395Y-62985000D01*
X190506255Y-62410860D01*
X190296288Y-62441803D01*
X190161774Y-62851948D01*
X190067000Y-62851948D01*
X190067000Y-62231255D01*
X190685860Y-62231255D01*
X191260000Y-62805395D01*
X191834140Y-62231255D01*
X193905860Y-62231255D01*
X194480000Y-62805395D01*
X195054140Y-62231255D01*
X195023197Y-62021288D01*
X194613052Y-61886774D01*
X194182651Y-61919454D01*
X193936803Y-62021288D01*
X193905860Y-62231255D01*
X191834140Y-62231255D01*
X191803197Y-62021288D01*
X191393052Y-61886774D01*
X190962651Y-61919454D01*
X190716803Y-62021288D01*
X190685860Y-62231255D01*
X190067000Y-62231255D01*
X190067000Y-60273000D01*
X195505000Y-60273000D01*
X195505000Y-62589765D01*
G36*
X117940362Y-94782567D02*
X118308583Y-95028604D01*
X118742928Y-95115000D01*
X121285000Y-95115000D01*
X121719346Y-95028603D01*
X122087566Y-94782566D01*
X122333603Y-94414346D01*
X122397999Y-94090606D01*
X122397999Y-97435560D01*
X120943000Y-97435560D01*
X120707683Y-97479838D01*
X120491559Y-97618910D01*
X120346569Y-97831110D01*
X120295560Y-98083000D01*
X120295560Y-99783000D01*
X120339838Y-100018317D01*
X120410417Y-100128000D01*
X114121000Y-100128000D01*
X114121000Y-98169745D01*
X114571860Y-98169745D01*
X114602803Y-98379712D01*
X115012948Y-98514226D01*
X115443349Y-98481546D01*
X115689197Y-98379712D01*
X115720140Y-98169745D01*
X115146000Y-97595605D01*
X114571860Y-98169745D01*
X114121000Y-98169745D01*
X114121000Y-97811235D01*
X114182288Y-97959197D01*
X114392255Y-97990140D01*
X114966395Y-97416000D01*
X115325605Y-97416000D01*
X115899745Y-97990140D01*
X116109712Y-97959197D01*
X116244226Y-97549052D01*
X116211546Y-97118651D01*
X116109712Y-96872803D01*
X115899745Y-96841860D01*
X115325605Y-97416000D01*
X114966395Y-97416000D01*
X114392255Y-96841860D01*
X114182288Y-96872803D01*
X114121000Y-97059675D01*
X114121000Y-96662255D01*
X114571860Y-96662255D01*
X115146000Y-97236395D01*
X115720140Y-96662255D01*
X115689197Y-96452288D01*
X115279052Y-96317774D01*
X114848651Y-96350454D01*
X114602803Y-96452288D01*
X114571860Y-96662255D01*
X114121000Y-96662255D01*
X114121000Y-92710000D01*
X114066954Y-92438295D01*
X113913046Y-92207954D01*
X113682705Y-92054046D01*
X113526582Y-92022991D01*
X113532657Y-92020481D01*
X113978914Y-91575003D01*
X114200107Y-91042311D01*
X117940362Y-94782567D01*
X117940362Y-94782567D01*
G37*
X117940362Y-94782567D02*
X118308583Y-95028604D01*
X118742928Y-95115000D01*
X121285000Y-95115000D01*
X121719346Y-95028603D01*
X122087566Y-94782566D01*
X122333603Y-94414346D01*
X122397999Y-94090606D01*
X122397999Y-97435560D01*
X120943000Y-97435560D01*
X120707683Y-97479838D01*
X120491559Y-97618910D01*
X120346569Y-97831110D01*
X120295560Y-98083000D01*
X120295560Y-99783000D01*
X120339838Y-100018317D01*
X120410417Y-100128000D01*
X114121000Y-100128000D01*
X114121000Y-98169745D01*
X114571860Y-98169745D01*
X114602803Y-98379712D01*
X115012948Y-98514226D01*
X115443349Y-98481546D01*
X115689197Y-98379712D01*
X115720140Y-98169745D01*
X115146000Y-97595605D01*
X114571860Y-98169745D01*
X114121000Y-98169745D01*
X114121000Y-97811235D01*
X114182288Y-97959197D01*
X114392255Y-97990140D01*
X114966395Y-97416000D01*
X115325605Y-97416000D01*
X115899745Y-97990140D01*
X116109712Y-97959197D01*
X116244226Y-97549052D01*
X116211546Y-97118651D01*
X116109712Y-96872803D01*
X115899745Y-96841860D01*
X115325605Y-97416000D01*
X114966395Y-97416000D01*
X114392255Y-96841860D01*
X114182288Y-96872803D01*
X114121000Y-97059675D01*
X114121000Y-96662255D01*
X114571860Y-96662255D01*
X115146000Y-97236395D01*
X115720140Y-96662255D01*
X115689197Y-96452288D01*
X115279052Y-96317774D01*
X114848651Y-96350454D01*
X114602803Y-96452288D01*
X114571860Y-96662255D01*
X114121000Y-96662255D01*
X114121000Y-92710000D01*
X114066954Y-92438295D01*
X113913046Y-92207954D01*
X113682705Y-92054046D01*
X113526582Y-92022991D01*
X113532657Y-92020481D01*
X113978914Y-91575003D01*
X114200107Y-91042311D01*
X117940362Y-94782567D01*
G36*
X53265000Y-62589765D02*
X53203712Y-62441803D01*
X52993745Y-62410860D01*
X52419605Y-62985000D01*
X52993745Y-63559140D01*
X53203712Y-63528197D01*
X53265000Y-63341325D01*
X53265000Y-67691000D01*
X53319046Y-67962705D01*
X53472954Y-68193046D01*
X53703295Y-68346954D01*
X53859418Y-68378009D01*
X53853343Y-68380519D01*
X53407086Y-68825997D01*
X53165276Y-69408341D01*
X53164725Y-70038893D01*
X53405519Y-70621657D01*
X53850997Y-71067914D01*
X54433341Y-71309724D01*
X55063893Y-71310275D01*
X55646657Y-71069481D01*
X56092914Y-70624003D01*
X56334724Y-70041659D01*
X56335275Y-69411107D01*
X56094481Y-68828343D01*
X55667884Y-68401000D01*
X65822826Y-68401000D01*
X65397086Y-68825997D01*
X65155276Y-69408341D01*
X65154725Y-70038893D01*
X65395519Y-70621657D01*
X65840997Y-71067914D01*
X66423341Y-71309724D01*
X67053893Y-71310275D01*
X67636657Y-71069481D01*
X68082914Y-70624003D01*
X68324724Y-70041659D01*
X68325275Y-69411107D01*
X68084481Y-68828343D01*
X67639003Y-68382086D01*
X67604374Y-68367707D01*
X67708705Y-68346954D01*
X67939046Y-68193046D01*
X68092954Y-67962705D01*
X68147000Y-67691000D01*
X68147000Y-63738745D01*
X68765860Y-63738745D01*
X68796803Y-63948712D01*
X69206948Y-64083226D01*
X69637349Y-64050546D01*
X69883197Y-63948712D01*
X69914140Y-63738745D01*
X71985860Y-63738745D01*
X72016803Y-63948712D01*
X72426948Y-64083226D01*
X72857349Y-64050546D01*
X73103197Y-63948712D01*
X73134140Y-63738745D01*
X72560000Y-63164605D01*
X71985860Y-63738745D01*
X69914140Y-63738745D01*
X69340000Y-63164605D01*
X68765860Y-63738745D01*
X68147000Y-63738745D01*
X68147000Y-62851948D01*
X68241774Y-62851948D01*
X68274454Y-63282349D01*
X68376288Y-63528197D01*
X68586255Y-63559140D01*
X69160395Y-62985000D01*
X69519605Y-62985000D01*
X70093745Y-63559140D01*
X70303712Y-63528197D01*
X70438226Y-63118052D01*
X70418021Y-62851948D01*
X71461774Y-62851948D01*
X71494454Y-63282349D01*
X71596288Y-63528197D01*
X71806255Y-63559140D01*
X72380395Y-62985000D01*
X71806255Y-62410860D01*
X71596288Y-62441803D01*
X71461774Y-62851948D01*
X70418021Y-62851948D01*
X70405546Y-62687651D01*
X70303712Y-62441803D01*
X70093745Y-62410860D01*
X69519605Y-62985000D01*
X69160395Y-62985000D01*
X68586255Y-62410860D01*
X68376288Y-62441803D01*
X68241774Y-62851948D01*
X68147000Y-62851948D01*
X68147000Y-62231255D01*
X68765860Y-62231255D01*
X69340000Y-62805395D01*
X69914140Y-62231255D01*
X71985860Y-62231255D01*
X72560000Y-62805395D01*
X73134140Y-62231255D01*
X73103197Y-62021288D01*
X72693052Y-61886774D01*
X72262651Y-61919454D01*
X72016803Y-62021288D01*
X71985860Y-62231255D01*
X69914140Y-62231255D01*
X69883197Y-62021288D01*
X69473052Y-61886774D01*
X69042651Y-61919454D01*
X68796803Y-62021288D01*
X68765860Y-62231255D01*
X68147000Y-62231255D01*
X68147000Y-60273000D01*
X73585000Y-60273000D01*
X73585000Y-62589765D01*
X73523712Y-62441803D01*
X73313745Y-62410860D01*
X72739605Y-62985000D01*
X73313745Y-63559140D01*
X73523712Y-63528197D01*
X73585000Y-63341325D01*
X73585000Y-67691000D01*
X73639046Y-67962705D01*
X73792954Y-68193046D01*
X74023295Y-68346954D01*
X74179418Y-68378009D01*
X74173343Y-68380519D01*
X73727086Y-68825997D01*
X73485276Y-69408341D01*
X73484725Y-70038893D01*
X73725519Y-70621657D01*
X74170997Y-71067914D01*
X74753341Y-71309724D01*
X75383893Y-71310275D01*
X75966657Y-71069481D01*
X76412914Y-70624003D01*
X76654724Y-70041659D01*
X76655275Y-69411107D01*
X76414481Y-68828343D01*
X75987884Y-68401000D01*
X86142826Y-68401000D01*
X85717086Y-68825997D01*
X85475276Y-69408341D01*
X85474725Y-70038893D01*
X85715519Y-70621657D01*
X86160997Y-71067914D01*
X86743341Y-71309724D01*
X87373893Y-71310275D01*
X87956657Y-71069481D01*
X88402914Y-70624003D01*
X88644724Y-70041659D01*
X88645275Y-69411107D01*
X88404481Y-68828343D01*
X87959003Y-68382086D01*
X87924374Y-68367707D01*
X88028705Y-68346954D01*
X88259046Y-68193046D01*
X88412954Y-67962705D01*
X88467000Y-67691000D01*
X88467000Y-63738745D01*
X89085860Y-63738745D01*
X89116803Y-63948712D01*
X89526948Y-64083226D01*
X89957349Y-64050546D01*
X90203197Y-63948712D01*
X90234140Y-63738745D01*
X92305860Y-63738745D01*
X92336803Y-63948712D01*
X92746948Y-64083226D01*
X93177349Y-64050546D01*
X93423197Y-63948712D01*
X93454140Y-63738745D01*
X92880000Y-63164605D01*
X92305860Y-63738745D01*
X90234140Y-63738745D01*
X89660000Y-63164605D01*
X89085860Y-63738745D01*
X88467000Y-63738745D01*
X88467000Y-62851948D01*
X88561774Y-62851948D01*
X88594454Y-63282349D01*
X88696288Y-63528197D01*
X88906255Y-63559140D01*
X89480395Y-62985000D01*
X89839605Y-62985000D01*
X90413745Y-63559140D01*
X90623712Y-63528197D01*
X90758226Y-63118052D01*
X90738021Y-62851948D01*
X91781774Y-62851948D01*
X91814454Y-63282349D01*
X91916288Y-63528197D01*
X92126255Y-63559140D01*
X92700395Y-62985000D01*
X92126255Y-62410860D01*
X91916288Y-62441803D01*
X91781774Y-62851948D01*
X90738021Y-62851948D01*
X90725546Y-62687651D01*
X90623712Y-62441803D01*
X90413745Y-62410860D01*
X89839605Y-62985000D01*
X89480395Y-62985000D01*
X88906255Y-62410860D01*
X88696288Y-62441803D01*
X88561774Y-62851948D01*
X88467000Y-62851948D01*
X88467000Y-62231255D01*
X89085860Y-62231255D01*
X89660000Y-62805395D01*
X90234140Y-62231255D01*
X92305860Y-62231255D01*
X92880000Y-62805395D01*
X93454140Y-62231255D01*
X93423197Y-62021288D01*
X93013052Y-61886774D01*
X92582651Y-61919454D01*
X92336803Y-62021288D01*
X92305860Y-62231255D01*
X90234140Y-62231255D01*
X90203197Y-62021288D01*
X89793052Y-61886774D01*
X89362651Y-61919454D01*
X89116803Y-62021288D01*
X89085860Y-62231255D01*
X88467000Y-62231255D01*
X88467000Y-60273000D01*
X93905000Y-60273000D01*
X93905000Y-62589765D01*
X93843712Y-62441803D01*
X93633745Y-62410860D01*
X93059605Y-62985000D01*
X93633745Y-63559140D01*
X93843712Y-63528197D01*
X93905000Y-63341325D01*
X93905000Y-67691000D01*
X93959046Y-67962705D01*
X94112954Y-68193046D01*
X94343295Y-68346954D01*
X94499418Y-68378009D01*
X94493343Y-68380519D01*
X94047086Y-68825997D01*
X93805276Y-69408341D01*
X93804725Y-70038893D01*
X94045519Y-70621657D01*
X94490997Y-71067914D01*
X95073341Y-71309724D01*
X95703893Y-71310275D01*
X96286657Y-71069481D01*
X96732914Y-70624003D01*
X96974724Y-70041659D01*
X96975275Y-69411107D01*
X96734481Y-68828343D01*
X96307884Y-68401000D01*
X106462826Y-68401000D01*
X106037086Y-68825997D01*
X105795276Y-69408341D01*
X105794725Y-70038893D01*
X106035519Y-70621657D01*
X106480997Y-71067914D01*
X107063341Y-71309724D01*
X107693893Y-71310275D01*
X108276657Y-71069481D01*
X108722914Y-70624003D01*
X108964724Y-70041659D01*
X108965275Y-69411107D01*
X108724481Y-68828343D01*
X108279003Y-68382086D01*
X108244374Y-68367707D01*
X108348705Y-68346954D01*
X108579046Y-68193046D01*
X108732954Y-67962705D01*
X108787000Y-67691000D01*
X108787000Y-63738745D01*
X109405860Y-63738745D01*
X109436803Y-63948712D01*
X109846948Y-64083226D01*
X110277349Y-64050546D01*
X110523197Y-63948712D01*
X110554140Y-63738745D01*
X112625860Y-63738745D01*
X112656803Y-63948712D01*
X113066948Y-64083226D01*
X113497349Y-64050546D01*
X113743197Y-63948712D01*
X113774140Y-63738745D01*
X113200000Y-63164605D01*
X112625860Y-63738745D01*
X110554140Y-63738745D01*
X109980000Y-63164605D01*
X109405860Y-63738745D01*
X108787000Y-63738745D01*
X108787000Y-62851948D01*
X108881774Y-62851948D01*
X108914454Y-63282349D01*
X109016288Y-63528197D01*
X109226255Y-63559140D01*
X109800395Y-62985000D01*
X110159605Y-62985000D01*
X110733745Y-63559140D01*
X110943712Y-63528197D01*
X111078226Y-63118052D01*
X111058021Y-62851948D01*
X112101774Y-62851948D01*
X112134454Y-63282349D01*
X112236288Y-63528197D01*
X112446255Y-63559140D01*
X113020395Y-62985000D01*
X112446255Y-62410860D01*
X112236288Y-62441803D01*
X112101774Y-62851948D01*
X111058021Y-62851948D01*
X111045546Y-62687651D01*
X110943712Y-62441803D01*
X110733745Y-62410860D01*
X110159605Y-62985000D01*
X109800395Y-62985000D01*
X109226255Y-62410860D01*
X109016288Y-62441803D01*
X108881774Y-62851948D01*
X108787000Y-62851948D01*
X108787000Y-62231255D01*
X109405860Y-62231255D01*
X109980000Y-62805395D01*
X110554140Y-62231255D01*
X112625860Y-62231255D01*
X113200000Y-62805395D01*
X113774140Y-62231255D01*
X113743197Y-62021288D01*
X113333052Y-61886774D01*
X112902651Y-61919454D01*
X112656803Y-62021288D01*
X112625860Y-62231255D01*
X110554140Y-62231255D01*
X110523197Y-62021288D01*
X110113052Y-61886774D01*
X109682651Y-61919454D01*
X109436803Y-62021288D01*
X109405860Y-62231255D01*
X108787000Y-62231255D01*
X108787000Y-60273000D01*
X114225000Y-60273000D01*
X114225000Y-62589765D01*
X114163712Y-62441803D01*
X113953745Y-62410860D01*
X113379605Y-62985000D01*
X113953745Y-63559140D01*
X114163712Y-63528197D01*
X114225000Y-63341325D01*
X114225000Y-67691000D01*
X114279046Y-67962705D01*
X114432954Y-68193046D01*
X114663295Y-68346954D01*
X114819418Y-68378009D01*
X114813343Y-68380519D01*
X114367086Y-68825997D01*
X114125276Y-69408341D01*
X114124725Y-70038893D01*
X114365519Y-70621657D01*
X114810997Y-71067914D01*
X115393341Y-71309724D01*
X116023893Y-71310275D01*
X116606657Y-71069481D01*
X117052914Y-70624003D01*
X117294724Y-70041659D01*
X117295275Y-69411107D01*
X117054481Y-68828343D01*
X116627884Y-68401000D01*
X126782826Y-68401000D01*
X126357086Y-68825997D01*
X126115276Y-69408341D01*
X126114725Y-70038893D01*
X126355519Y-70621657D01*
X126800997Y-71067914D01*
X127383341Y-71309724D01*
X128013893Y-71310275D01*
X128596657Y-71069481D01*
X129042914Y-70624003D01*
X129284724Y-70041659D01*
X129285275Y-69411107D01*
X129044481Y-68828343D01*
X128599003Y-68382086D01*
X128564374Y-68367707D01*
X128668705Y-68346954D01*
X128899046Y-68193046D01*
X129052954Y-67962705D01*
X129107000Y-67691000D01*
X129107000Y-63738745D01*
X129725860Y-63738745D01*
X129756803Y-63948712D01*
X130166948Y-64083226D01*
X130597349Y-64050546D01*
X130843197Y-63948712D01*
X130874140Y-63738745D01*
X132945860Y-63738745D01*
X132976803Y-63948712D01*
X133386948Y-64083226D01*
X133817349Y-64050546D01*
X134063197Y-63948712D01*
X134094140Y-63738745D01*
X133520000Y-63164605D01*
X132945860Y-63738745D01*
X130874140Y-63738745D01*
X130300000Y-63164605D01*
X129725860Y-63738745D01*
X129107000Y-63738745D01*
X129107000Y-62851948D01*
X129201774Y-62851948D01*
X129234454Y-63282349D01*
X129336288Y-63528197D01*
X129546255Y-63559140D01*
X130120395Y-62985000D01*
X130479605Y-62985000D01*
X131053745Y-63559140D01*
X131263712Y-63528197D01*
X131398226Y-63118052D01*
X131378021Y-62851948D01*
X132421774Y-62851948D01*
X132454454Y-63282349D01*
X132556288Y-63528197D01*
X132766255Y-63559140D01*
X133340395Y-62985000D01*
X132766255Y-62410860D01*
X132556288Y-62441803D01*
X132421774Y-62851948D01*
X131378021Y-62851948D01*
X131365546Y-62687651D01*
X131263712Y-62441803D01*
X131053745Y-62410860D01*
X130479605Y-62985000D01*
X130120395Y-62985000D01*
X129546255Y-62410860D01*
X129336288Y-62441803D01*
X129201774Y-62851948D01*
X129107000Y-62851948D01*
X129107000Y-62231255D01*
X129725860Y-62231255D01*
X130300000Y-62805395D01*
X130874140Y-62231255D01*
X132945860Y-62231255D01*
X133520000Y-62805395D01*
X134094140Y-62231255D01*
X134063197Y-62021288D01*
X133653052Y-61886774D01*
X133222651Y-61919454D01*
X132976803Y-62021288D01*
X132945860Y-62231255D01*
X130874140Y-62231255D01*
X130843197Y-62021288D01*
X130433052Y-61886774D01*
X130002651Y-61919454D01*
X129756803Y-62021288D01*
X129725860Y-62231255D01*
X129107000Y-62231255D01*
X129107000Y-60273000D01*
X134545000Y-60273000D01*
X134545000Y-62589765D01*
X134483712Y-62441803D01*
X134273745Y-62410860D01*
X133699605Y-62985000D01*
X134273745Y-63559140D01*
X134483712Y-63528197D01*
X134545000Y-63341325D01*
X134545000Y-67691000D01*
X134599046Y-67962705D01*
X134752954Y-68193046D01*
X134983295Y-68346954D01*
X135139418Y-68378009D01*
X135133343Y-68380519D01*
X134687086Y-68825997D01*
X134445276Y-69408341D01*
X134444725Y-70038893D01*
X134685519Y-70621657D01*
X135130997Y-71067914D01*
X135713341Y-71309724D01*
X136343893Y-71310275D01*
X136926657Y-71069481D01*
X137372914Y-70624003D01*
X137614724Y-70041659D01*
X137615275Y-69411107D01*
X137374481Y-68828343D01*
X136947884Y-68401000D01*
X147102826Y-68401000D01*
X146677086Y-68825997D01*
X146435276Y-69408341D01*
X146434725Y-70038893D01*
X146675519Y-70621657D01*
X147120997Y-71067914D01*
X147703341Y-71309724D01*
X148333893Y-71310275D01*
X148916657Y-71069481D01*
X149362914Y-70624003D01*
X149604724Y-70041659D01*
X149605275Y-69411107D01*
X149364481Y-68828343D01*
X148919003Y-68382086D01*
X148884374Y-68367707D01*
X148988705Y-68346954D01*
X149219046Y-68193046D01*
X149372954Y-67962705D01*
X149427000Y-67691000D01*
X149427000Y-63738745D01*
X150045860Y-63738745D01*
X150076803Y-63948712D01*
X150486948Y-64083226D01*
X150917349Y-64050546D01*
X151163197Y-63948712D01*
X151194140Y-63738745D01*
X153265860Y-63738745D01*
X153296803Y-63948712D01*
X153706948Y-64083226D01*
X154137349Y-64050546D01*
X154383197Y-63948712D01*
X154414140Y-63738745D01*
X153840000Y-63164605D01*
X153265860Y-63738745D01*
X151194140Y-63738745D01*
X150620000Y-63164605D01*
X150045860Y-63738745D01*
X149427000Y-63738745D01*
X149427000Y-62851948D01*
X149521774Y-62851948D01*
X149554454Y-63282349D01*
X149656288Y-63528197D01*
X149866255Y-63559140D01*
X150440395Y-62985000D01*
X150799605Y-62985000D01*
X151373745Y-63559140D01*
X151583712Y-63528197D01*
X151718226Y-63118052D01*
X151698021Y-62851948D01*
X152741774Y-62851948D01*
X152774454Y-63282349D01*
X152876288Y-63528197D01*
X153086255Y-63559140D01*
X153660395Y-62985000D01*
X153086255Y-62410860D01*
X152876288Y-62441803D01*
X152741774Y-62851948D01*
X151698021Y-62851948D01*
X151685546Y-62687651D01*
X151583712Y-62441803D01*
X151373745Y-62410860D01*
X150799605Y-62985000D01*
X150440395Y-62985000D01*
X149866255Y-62410860D01*
X149656288Y-62441803D01*
X149521774Y-62851948D01*
X149427000Y-62851948D01*
X149427000Y-62231255D01*
X150045860Y-62231255D01*
X150620000Y-62805395D01*
X151194140Y-62231255D01*
X153265860Y-62231255D01*
X153840000Y-62805395D01*
X154414140Y-62231255D01*
X154383197Y-62021288D01*
X153973052Y-61886774D01*
X153542651Y-61919454D01*
X153296803Y-62021288D01*
X153265860Y-62231255D01*
X151194140Y-62231255D01*
X151163197Y-62021288D01*
X150753052Y-61886774D01*
X150322651Y-61919454D01*
X150076803Y-62021288D01*
X150045860Y-62231255D01*
X149427000Y-62231255D01*
X149427000Y-60273000D01*
X154865000Y-60273000D01*
X154865000Y-62589765D01*
X154803712Y-62441803D01*
X154593745Y-62410860D01*
X154019605Y-62985000D01*
X154593745Y-63559140D01*
X154803712Y-63528197D01*
X154865000Y-63341325D01*
X154865000Y-67691000D01*
X154919046Y-67962705D01*
X155072954Y-68193046D01*
X155303295Y-68346954D01*
X155459418Y-68378009D01*
X155453343Y-68380519D01*
X155007086Y-68825997D01*
X154765276Y-69408341D01*
X154764725Y-70038893D01*
X155005519Y-70621657D01*
X155450997Y-71067914D01*
X156033341Y-71309724D01*
X156663893Y-71310275D01*
X157246657Y-71069481D01*
X157692914Y-70624003D01*
X157934724Y-70041659D01*
X157935275Y-69411107D01*
X157694481Y-68828343D01*
X157267884Y-68401000D01*
X167422826Y-68401000D01*
X166997086Y-68825997D01*
X166755276Y-69408341D01*
X166754725Y-70038893D01*
X166995519Y-70621657D01*
X167440997Y-71067914D01*
X168023341Y-71309724D01*
X168653893Y-71310275D01*
X169236657Y-71069481D01*
X169682914Y-70624003D01*
X169924724Y-70041659D01*
X169925275Y-69411107D01*
X169684481Y-68828343D01*
X169239003Y-68382086D01*
X169204374Y-68367707D01*
X169308705Y-68346954D01*
X169539046Y-68193046D01*
X169692954Y-67962705D01*
X169747000Y-67691000D01*
X169747000Y-63738745D01*
X170365860Y-63738745D01*
X170396803Y-63948712D01*
X170806948Y-64083226D01*
X171237349Y-64050546D01*
X171483197Y-63948712D01*
X171514140Y-63738745D01*
X173585860Y-63738745D01*
X173616803Y-63948712D01*
X174026948Y-64083226D01*
X174457349Y-64050546D01*
X174703197Y-63948712D01*
X174734140Y-63738745D01*
X174160000Y-63164605D01*
X173585860Y-63738745D01*
X171514140Y-63738745D01*
X170940000Y-63164605D01*
X170365860Y-63738745D01*
X169747000Y-63738745D01*
X169747000Y-62851948D01*
X169841774Y-62851948D01*
X169874454Y-63282349D01*
X169976288Y-63528197D01*
X170186255Y-63559140D01*
X170760395Y-62985000D01*
X171119605Y-62985000D01*
X171693745Y-63559140D01*
X171903712Y-63528197D01*
X172038226Y-63118052D01*
X172018021Y-62851948D01*
X173061774Y-62851948D01*
X173094454Y-63282349D01*
X173196288Y-63528197D01*
X173406255Y-63559140D01*
X173980395Y-62985000D01*
X173406255Y-62410860D01*
X173196288Y-62441803D01*
X173061774Y-62851948D01*
X172018021Y-62851948D01*
X172005546Y-62687651D01*
X171903712Y-62441803D01*
X171693745Y-62410860D01*
X171119605Y-62985000D01*
X170760395Y-62985000D01*
X170186255Y-62410860D01*
X169976288Y-62441803D01*
X169841774Y-62851948D01*
X169747000Y-62851948D01*
X169747000Y-62231255D01*
X170365860Y-62231255D01*
X170940000Y-62805395D01*
X171514140Y-62231255D01*
X173585860Y-62231255D01*
X174160000Y-62805395D01*
X174734140Y-62231255D01*
X174703197Y-62021288D01*
X174293052Y-61886774D01*
X173862651Y-61919454D01*
X173616803Y-62021288D01*
X173585860Y-62231255D01*
X171514140Y-62231255D01*
X171483197Y-62021288D01*
X171073052Y-61886774D01*
X170642651Y-61919454D01*
X170396803Y-62021288D01*
X170365860Y-62231255D01*
X169747000Y-62231255D01*
X169747000Y-60273000D01*
X175185000Y-60273000D01*
X175185000Y-62589765D01*
X175123712Y-62441803D01*
X174913745Y-62410860D01*
X174339605Y-62985000D01*
X174913745Y-63559140D01*
X175123712Y-63528197D01*
X175185000Y-63341325D01*
X175185000Y-67691000D01*
X175239046Y-67962705D01*
X175392954Y-68193046D01*
X175623295Y-68346954D01*
X175779418Y-68378009D01*
X175773343Y-68380519D01*
X175327086Y-68825997D01*
X175085276Y-69408341D01*
X175084725Y-70038893D01*
X175325519Y-70621657D01*
X175770997Y-71067914D01*
X176353341Y-71309724D01*
X176377686Y-71309745D01*
X176370397Y-71320654D01*
X176358194Y-71382000D01*
X57531000Y-71382000D01*
X57096654Y-71468397D01*
X56728434Y-71714434D01*
X56482397Y-72082654D01*
X56396000Y-72517000D01*
X56482397Y-72951346D01*
X56728434Y-73319566D01*
X57096654Y-73565603D01*
X57531000Y-73652000D01*
X103005004Y-73652000D01*
X103005004Y-84454984D01*
X103005000Y-84455004D01*
X103005000Y-87249000D01*
X103091397Y-87683346D01*
X103145957Y-87765000D01*
X65240132Y-87765000D01*
X63667566Y-86192434D01*
X63299345Y-85946397D01*
X62865000Y-85860000D01*
X62430655Y-85946397D01*
X62062434Y-86192434D01*
X61816397Y-86560655D01*
X61730000Y-86995000D01*
X61816397Y-87429345D01*
X62062434Y-87797566D01*
X63968470Y-89703602D01*
X64336691Y-89949639D01*
X64771036Y-90036036D01*
X64776244Y-90035000D01*
X78875954Y-90035000D01*
X78741276Y-90359341D01*
X78740725Y-90989893D01*
X78981519Y-91572657D01*
X79426997Y-92018914D01*
X79461626Y-92033293D01*
X79357295Y-92054046D01*
X79126954Y-92207954D01*
X78973046Y-92438295D01*
X78919000Y-92710000D01*
X78919000Y-100128000D01*
X37413000Y-100128000D01*
X37413000Y-98169745D01*
X77151860Y-98169745D01*
X77182803Y-98379712D01*
X77592948Y-98514226D01*
X78023349Y-98481546D01*
X78269197Y-98379712D01*
X78300140Y-98169745D01*
X77726000Y-97595605D01*
X77151860Y-98169745D01*
X37413000Y-98169745D01*
X37413000Y-97282948D01*
X76627774Y-97282948D01*
X76660454Y-97713349D01*
X76762288Y-97959197D01*
X76972255Y-97990140D01*
X77546395Y-97416000D01*
X77905605Y-97416000D01*
X78479745Y-97990140D01*
X78689712Y-97959197D01*
X78824226Y-97549052D01*
X78791546Y-97118651D01*
X78689712Y-96872803D01*
X78479745Y-96841860D01*
X77905605Y-97416000D01*
X77546395Y-97416000D01*
X76972255Y-96841860D01*
X76762288Y-96872803D01*
X76627774Y-97282948D01*
X37413000Y-97282948D01*
X37413000Y-96662255D01*
X77151860Y-96662255D01*
X77726000Y-97236395D01*
X78300140Y-96662255D01*
X78269197Y-96452288D01*
X77859052Y-96317774D01*
X77428651Y-96350454D01*
X77182803Y-96452288D01*
X77151860Y-96662255D01*
X37413000Y-96662255D01*
X37413000Y-93533619D01*
X42214613Y-93533619D01*
X42554155Y-94355372D01*
X43182321Y-94984636D01*
X44003481Y-95325611D01*
X44892619Y-95326387D01*
X45714372Y-94986845D01*
X46343636Y-94358679D01*
X46684611Y-93537519D01*
X46685387Y-92648381D01*
X46345845Y-91826628D01*
X45717679Y-91197364D01*
X44896519Y-90856389D01*
X44007381Y-90855613D01*
X43185628Y-91195155D01*
X42556364Y-91823321D01*
X42215389Y-92644481D01*
X42214613Y-93533619D01*
X37413000Y-93533619D01*
X37413000Y-67752619D01*
X42214613Y-67752619D01*
X42554155Y-68574372D01*
X43182321Y-69203636D01*
X44003481Y-69544611D01*
X44892619Y-69545387D01*
X45714372Y-69205845D01*
X46343636Y-68577679D01*
X46684611Y-67756519D01*
X46685387Y-66867381D01*
X46345845Y-66045628D01*
X45717679Y-65416364D01*
X44896519Y-65075389D01*
X44007381Y-65074613D01*
X43185628Y-65414155D01*
X42556364Y-66042321D01*
X42215389Y-66863481D01*
X42214613Y-67752619D01*
X37413000Y-67752619D01*
X37413000Y-63738745D01*
X51665860Y-63738745D01*
X51696803Y-63948712D01*
X52106948Y-64083226D01*
X52537349Y-64050546D01*
X52783197Y-63948712D01*
X52814140Y-63738745D01*
X52240000Y-63164605D01*
X51665860Y-63738745D01*
X37413000Y-63738745D01*
X37413000Y-62851948D01*
X51141774Y-62851948D01*
X51174454Y-63282349D01*
X51276288Y-63528197D01*
X51486255Y-63559140D01*
X52060395Y-62985000D01*
X51486255Y-62410860D01*
X51276288Y-62441803D01*
X51141774Y-62851948D01*
X37413000Y-62851948D01*
X37413000Y-62231255D01*
X51665860Y-62231255D01*
X52240000Y-62805395D01*
X52814140Y-62231255D01*
X52783197Y-62021288D01*
X52373052Y-61886774D01*
X51942651Y-61919454D01*
X51696803Y-62021288D01*
X51665860Y-62231255D01*
X37413000Y-62231255D01*
X37413000Y-60273000D01*
X53265000Y-60273000D01*
X53265000Y-62589765D01*
X53265000Y-62589765D01*
G37*
X53265000Y-62589765D02*
X53203712Y-62441803D01*
X52993745Y-62410860D01*
X52419605Y-62985000D01*
X52993745Y-63559140D01*
X53203712Y-63528197D01*
X53265000Y-63341325D01*
X53265000Y-67691000D01*
X53319046Y-67962705D01*
X53472954Y-68193046D01*
X53703295Y-68346954D01*
X53859418Y-68378009D01*
X53853343Y-68380519D01*
X53407086Y-68825997D01*
X53165276Y-69408341D01*
X53164725Y-70038893D01*
X53405519Y-70621657D01*
X53850997Y-71067914D01*
X54433341Y-71309724D01*
X55063893Y-71310275D01*
X55646657Y-71069481D01*
X56092914Y-70624003D01*
X56334724Y-70041659D01*
X56335275Y-69411107D01*
X56094481Y-68828343D01*
X55667884Y-68401000D01*
X65822826Y-68401000D01*
X65397086Y-68825997D01*
X65155276Y-69408341D01*
X65154725Y-70038893D01*
X65395519Y-70621657D01*
X65840997Y-71067914D01*
X66423341Y-71309724D01*
X67053893Y-71310275D01*
X67636657Y-71069481D01*
X68082914Y-70624003D01*
X68324724Y-70041659D01*
X68325275Y-69411107D01*
X68084481Y-68828343D01*
X67639003Y-68382086D01*
X67604374Y-68367707D01*
X67708705Y-68346954D01*
X67939046Y-68193046D01*
X68092954Y-67962705D01*
X68147000Y-67691000D01*
X68147000Y-63738745D01*
X68765860Y-63738745D01*
X68796803Y-63948712D01*
X69206948Y-64083226D01*
X69637349Y-64050546D01*
X69883197Y-63948712D01*
X69914140Y-63738745D01*
X71985860Y-63738745D01*
X72016803Y-63948712D01*
X72426948Y-64083226D01*
X72857349Y-64050546D01*
X73103197Y-63948712D01*
X73134140Y-63738745D01*
X72560000Y-63164605D01*
X71985860Y-63738745D01*
X69914140Y-63738745D01*
X69340000Y-63164605D01*
X68765860Y-63738745D01*
X68147000Y-63738745D01*
X68147000Y-62851948D01*
X68241774Y-62851948D01*
X68274454Y-63282349D01*
X68376288Y-63528197D01*
X68586255Y-63559140D01*
X69160395Y-62985000D01*
X69519605Y-62985000D01*
X70093745Y-63559140D01*
X70303712Y-63528197D01*
X70438226Y-63118052D01*
X70418021Y-62851948D01*
X71461774Y-62851948D01*
X71494454Y-63282349D01*
X71596288Y-63528197D01*
X71806255Y-63559140D01*
X72380395Y-62985000D01*
X71806255Y-62410860D01*
X71596288Y-62441803D01*
X71461774Y-62851948D01*
X70418021Y-62851948D01*
X70405546Y-62687651D01*
X70303712Y-62441803D01*
X70093745Y-62410860D01*
X69519605Y-62985000D01*
X69160395Y-62985000D01*
X68586255Y-62410860D01*
X68376288Y-62441803D01*
X68241774Y-62851948D01*
X68147000Y-62851948D01*
X68147000Y-62231255D01*
X68765860Y-62231255D01*
X69340000Y-62805395D01*
X69914140Y-62231255D01*
X71985860Y-62231255D01*
X72560000Y-62805395D01*
X73134140Y-62231255D01*
X73103197Y-62021288D01*
X72693052Y-61886774D01*
X72262651Y-61919454D01*
X72016803Y-62021288D01*
X71985860Y-62231255D01*
X69914140Y-62231255D01*
X69883197Y-62021288D01*
X69473052Y-61886774D01*
X69042651Y-61919454D01*
X68796803Y-62021288D01*
X68765860Y-62231255D01*
X68147000Y-62231255D01*
X68147000Y-60273000D01*
X73585000Y-60273000D01*
X73585000Y-62589765D01*
X73523712Y-62441803D01*
X73313745Y-62410860D01*
X72739605Y-62985000D01*
X73313745Y-63559140D01*
X73523712Y-63528197D01*
X73585000Y-63341325D01*
X73585000Y-67691000D01*
X73639046Y-67962705D01*
X73792954Y-68193046D01*
X74023295Y-68346954D01*
X74179418Y-68378009D01*
X74173343Y-68380519D01*
X73727086Y-68825997D01*
X73485276Y-69408341D01*
X73484725Y-70038893D01*
X73725519Y-70621657D01*
X74170997Y-71067914D01*
X74753341Y-71309724D01*
X75383893Y-71310275D01*
X75966657Y-71069481D01*
X76412914Y-70624003D01*
X76654724Y-70041659D01*
X76655275Y-69411107D01*
X76414481Y-68828343D01*
X75987884Y-68401000D01*
X86142826Y-68401000D01*
X85717086Y-68825997D01*
X85475276Y-69408341D01*
X85474725Y-70038893D01*
X85715519Y-70621657D01*
X86160997Y-71067914D01*
X86743341Y-71309724D01*
X87373893Y-71310275D01*
X87956657Y-71069481D01*
X88402914Y-70624003D01*
X88644724Y-70041659D01*
X88645275Y-69411107D01*
X88404481Y-68828343D01*
X87959003Y-68382086D01*
X87924374Y-68367707D01*
X88028705Y-68346954D01*
X88259046Y-68193046D01*
X88412954Y-67962705D01*
X88467000Y-67691000D01*
X88467000Y-63738745D01*
X89085860Y-63738745D01*
X89116803Y-63948712D01*
X89526948Y-64083226D01*
X89957349Y-64050546D01*
X90203197Y-63948712D01*
X90234140Y-63738745D01*
X92305860Y-63738745D01*
X92336803Y-63948712D01*
X92746948Y-64083226D01*
X93177349Y-64050546D01*
X93423197Y-63948712D01*
X93454140Y-63738745D01*
X92880000Y-63164605D01*
X92305860Y-63738745D01*
X90234140Y-63738745D01*
X89660000Y-63164605D01*
X89085860Y-63738745D01*
X88467000Y-63738745D01*
X88467000Y-62851948D01*
X88561774Y-62851948D01*
X88594454Y-63282349D01*
X88696288Y-63528197D01*
X88906255Y-63559140D01*
X89480395Y-62985000D01*
X89839605Y-62985000D01*
X90413745Y-63559140D01*
X90623712Y-63528197D01*
X90758226Y-63118052D01*
X90738021Y-62851948D01*
X91781774Y-62851948D01*
X91814454Y-63282349D01*
X91916288Y-63528197D01*
X92126255Y-63559140D01*
X92700395Y-62985000D01*
X92126255Y-62410860D01*
X91916288Y-62441803D01*
X91781774Y-62851948D01*
X90738021Y-62851948D01*
X90725546Y-62687651D01*
X90623712Y-62441803D01*
X90413745Y-62410860D01*
X89839605Y-62985000D01*
X89480395Y-62985000D01*
X88906255Y-62410860D01*
X88696288Y-62441803D01*
X88561774Y-62851948D01*
X88467000Y-62851948D01*
X88467000Y-62231255D01*
X89085860Y-62231255D01*
X89660000Y-62805395D01*
X90234140Y-62231255D01*
X92305860Y-62231255D01*
X92880000Y-62805395D01*
X93454140Y-62231255D01*
X93423197Y-62021288D01*
X93013052Y-61886774D01*
X92582651Y-61919454D01*
X92336803Y-62021288D01*
X92305860Y-62231255D01*
X90234140Y-62231255D01*
X90203197Y-62021288D01*
X89793052Y-61886774D01*
X89362651Y-61919454D01*
X89116803Y-62021288D01*
X89085860Y-62231255D01*
X88467000Y-62231255D01*
X88467000Y-60273000D01*
X93905000Y-60273000D01*
X93905000Y-62589765D01*
X93843712Y-62441803D01*
X93633745Y-62410860D01*
X93059605Y-62985000D01*
X93633745Y-63559140D01*
X93843712Y-63528197D01*
X93905000Y-63341325D01*
X93905000Y-67691000D01*
X93959046Y-67962705D01*
X94112954Y-68193046D01*
X94343295Y-68346954D01*
X94499418Y-68378009D01*
X94493343Y-68380519D01*
X94047086Y-68825997D01*
X93805276Y-69408341D01*
X93804725Y-70038893D01*
X94045519Y-70621657D01*
X94490997Y-71067914D01*
X95073341Y-71309724D01*
X95703893Y-71310275D01*
X96286657Y-71069481D01*
X96732914Y-70624003D01*
X96974724Y-70041659D01*
X96975275Y-69411107D01*
X96734481Y-68828343D01*
X96307884Y-68401000D01*
X106462826Y-68401000D01*
X106037086Y-68825997D01*
X105795276Y-69408341D01*
X105794725Y-70038893D01*
X106035519Y-70621657D01*
X106480997Y-71067914D01*
X107063341Y-71309724D01*
X107693893Y-71310275D01*
X108276657Y-71069481D01*
X108722914Y-70624003D01*
X108964724Y-70041659D01*
X108965275Y-69411107D01*
X108724481Y-68828343D01*
X108279003Y-68382086D01*
X108244374Y-68367707D01*
X108348705Y-68346954D01*
X108579046Y-68193046D01*
X108732954Y-67962705D01*
X108787000Y-67691000D01*
X108787000Y-63738745D01*
X109405860Y-63738745D01*
X109436803Y-63948712D01*
X109846948Y-64083226D01*
X110277349Y-64050546D01*
X110523197Y-63948712D01*
X110554140Y-63738745D01*
X112625860Y-63738745D01*
X112656803Y-63948712D01*
X113066948Y-64083226D01*
X113497349Y-64050546D01*
X113743197Y-63948712D01*
X113774140Y-63738745D01*
X113200000Y-63164605D01*
X112625860Y-63738745D01*
X110554140Y-63738745D01*
X109980000Y-63164605D01*
X109405860Y-63738745D01*
X108787000Y-63738745D01*
X108787000Y-62851948D01*
X108881774Y-62851948D01*
X108914454Y-63282349D01*
X109016288Y-63528197D01*
X109226255Y-63559140D01*
X109800395Y-62985000D01*
X110159605Y-62985000D01*
X110733745Y-63559140D01*
X110943712Y-63528197D01*
X111078226Y-63118052D01*
X111058021Y-62851948D01*
X112101774Y-62851948D01*
X112134454Y-63282349D01*
X112236288Y-63528197D01*
X112446255Y-63559140D01*
X113020395Y-62985000D01*
X112446255Y-62410860D01*
X112236288Y-62441803D01*
X112101774Y-62851948D01*
X111058021Y-62851948D01*
X111045546Y-62687651D01*
X110943712Y-62441803D01*
X110733745Y-62410860D01*
X110159605Y-62985000D01*
X109800395Y-62985000D01*
X109226255Y-62410860D01*
X109016288Y-62441803D01*
X108881774Y-62851948D01*
X108787000Y-62851948D01*
X108787000Y-62231255D01*
X109405860Y-62231255D01*
X109980000Y-62805395D01*
X110554140Y-62231255D01*
X112625860Y-62231255D01*
X113200000Y-62805395D01*
X113774140Y-62231255D01*
X113743197Y-62021288D01*
X113333052Y-61886774D01*
X112902651Y-61919454D01*
X112656803Y-62021288D01*
X112625860Y-62231255D01*
X110554140Y-62231255D01*
X110523197Y-62021288D01*
X110113052Y-61886774D01*
X109682651Y-61919454D01*
X109436803Y-62021288D01*
X109405860Y-62231255D01*
X108787000Y-62231255D01*
X108787000Y-60273000D01*
X114225000Y-60273000D01*
X114225000Y-62589765D01*
X114163712Y-62441803D01*
X113953745Y-62410860D01*
X113379605Y-62985000D01*
X113953745Y-63559140D01*
X114163712Y-63528197D01*
X114225000Y-63341325D01*
X114225000Y-67691000D01*
X114279046Y-67962705D01*
X114432954Y-68193046D01*
X114663295Y-68346954D01*
X114819418Y-68378009D01*
X114813343Y-68380519D01*
X114367086Y-68825997D01*
X114125276Y-69408341D01*
X114124725Y-70038893D01*
X114365519Y-70621657D01*
X114810997Y-71067914D01*
X115393341Y-71309724D01*
X116023893Y-71310275D01*
X116606657Y-71069481D01*
X117052914Y-70624003D01*
X117294724Y-70041659D01*
X117295275Y-69411107D01*
X117054481Y-68828343D01*
X116627884Y-68401000D01*
X126782826Y-68401000D01*
X126357086Y-68825997D01*
X126115276Y-69408341D01*
X126114725Y-70038893D01*
X126355519Y-70621657D01*
X126800997Y-71067914D01*
X127383341Y-71309724D01*
X128013893Y-71310275D01*
X128596657Y-71069481D01*
X129042914Y-70624003D01*
X129284724Y-70041659D01*
X129285275Y-69411107D01*
X129044481Y-68828343D01*
X128599003Y-68382086D01*
X128564374Y-68367707D01*
X128668705Y-68346954D01*
X128899046Y-68193046D01*
X129052954Y-67962705D01*
X129107000Y-67691000D01*
X129107000Y-63738745D01*
X129725860Y-63738745D01*
X129756803Y-63948712D01*
X130166948Y-64083226D01*
X130597349Y-64050546D01*
X130843197Y-63948712D01*
X130874140Y-63738745D01*
X132945860Y-63738745D01*
X132976803Y-63948712D01*
X133386948Y-64083226D01*
X133817349Y-64050546D01*
X134063197Y-63948712D01*
X134094140Y-63738745D01*
X133520000Y-63164605D01*
X132945860Y-63738745D01*
X130874140Y-63738745D01*
X130300000Y-63164605D01*
X129725860Y-63738745D01*
X129107000Y-63738745D01*
X129107000Y-62851948D01*
X129201774Y-62851948D01*
X129234454Y-63282349D01*
X129336288Y-63528197D01*
X129546255Y-63559140D01*
X130120395Y-62985000D01*
X130479605Y-62985000D01*
X131053745Y-63559140D01*
X131263712Y-63528197D01*
X131398226Y-63118052D01*
X131378021Y-62851948D01*
X132421774Y-62851948D01*
X132454454Y-63282349D01*
X132556288Y-63528197D01*
X132766255Y-63559140D01*
X133340395Y-62985000D01*
X132766255Y-62410860D01*
X132556288Y-62441803D01*
X132421774Y-62851948D01*
X131378021Y-62851948D01*
X131365546Y-62687651D01*
X131263712Y-62441803D01*
X131053745Y-62410860D01*
X130479605Y-62985000D01*
X130120395Y-62985000D01*
X129546255Y-62410860D01*
X129336288Y-62441803D01*
X129201774Y-62851948D01*
X129107000Y-62851948D01*
X129107000Y-62231255D01*
X129725860Y-62231255D01*
X130300000Y-62805395D01*
X130874140Y-62231255D01*
X132945860Y-62231255D01*
X133520000Y-62805395D01*
X134094140Y-62231255D01*
X134063197Y-62021288D01*
X133653052Y-61886774D01*
X133222651Y-61919454D01*
X132976803Y-62021288D01*
X132945860Y-62231255D01*
X130874140Y-62231255D01*
X130843197Y-62021288D01*
X130433052Y-61886774D01*
X130002651Y-61919454D01*
X129756803Y-62021288D01*
X129725860Y-62231255D01*
X129107000Y-62231255D01*
X129107000Y-60273000D01*
X134545000Y-60273000D01*
X134545000Y-62589765D01*
X134483712Y-62441803D01*
X134273745Y-62410860D01*
X133699605Y-62985000D01*
X134273745Y-63559140D01*
X134483712Y-63528197D01*
X134545000Y-63341325D01*
X134545000Y-67691000D01*
X134599046Y-67962705D01*
X134752954Y-68193046D01*
X134983295Y-68346954D01*
X135139418Y-68378009D01*
X135133343Y-68380519D01*
X134687086Y-68825997D01*
X134445276Y-69408341D01*
X134444725Y-70038893D01*
X134685519Y-70621657D01*
X135130997Y-71067914D01*
X135713341Y-71309724D01*
X136343893Y-71310275D01*
X136926657Y-71069481D01*
X137372914Y-70624003D01*
X137614724Y-70041659D01*
X137615275Y-69411107D01*
X137374481Y-68828343D01*
X136947884Y-68401000D01*
X147102826Y-68401000D01*
X146677086Y-68825997D01*
X146435276Y-69408341D01*
X146434725Y-70038893D01*
X146675519Y-70621657D01*
X147120997Y-71067914D01*
X147703341Y-71309724D01*
X148333893Y-71310275D01*
X148916657Y-71069481D01*
X149362914Y-70624003D01*
X149604724Y-70041659D01*
X149605275Y-69411107D01*
X149364481Y-68828343D01*
X148919003Y-68382086D01*
X148884374Y-68367707D01*
X148988705Y-68346954D01*
X149219046Y-68193046D01*
X149372954Y-67962705D01*
X149427000Y-67691000D01*
X149427000Y-63738745D01*
X150045860Y-63738745D01*
X150076803Y-63948712D01*
X150486948Y-64083226D01*
X150917349Y-64050546D01*
X151163197Y-63948712D01*
X151194140Y-63738745D01*
X153265860Y-63738745D01*
X153296803Y-63948712D01*
X153706948Y-64083226D01*
X154137349Y-64050546D01*
X154383197Y-63948712D01*
X154414140Y-63738745D01*
X153840000Y-63164605D01*
X153265860Y-63738745D01*
X151194140Y-63738745D01*
X150620000Y-63164605D01*
X150045860Y-63738745D01*
X149427000Y-63738745D01*
X149427000Y-62851948D01*
X149521774Y-62851948D01*
X149554454Y-63282349D01*
X149656288Y-63528197D01*
X149866255Y-63559140D01*
X150440395Y-62985000D01*
X150799605Y-62985000D01*
X151373745Y-63559140D01*
X151583712Y-63528197D01*
X151718226Y-63118052D01*
X151698021Y-62851948D01*
X152741774Y-62851948D01*
X152774454Y-63282349D01*
X152876288Y-63528197D01*
X153086255Y-63559140D01*
X153660395Y-62985000D01*
X153086255Y-62410860D01*
X152876288Y-62441803D01*
X152741774Y-62851948D01*
X151698021Y-62851948D01*
X151685546Y-62687651D01*
X151583712Y-62441803D01*
X151373745Y-62410860D01*
X150799605Y-62985000D01*
X150440395Y-62985000D01*
X149866255Y-62410860D01*
X149656288Y-62441803D01*
X149521774Y-62851948D01*
X149427000Y-62851948D01*
X149427000Y-62231255D01*
X150045860Y-62231255D01*
X150620000Y-62805395D01*
X151194140Y-62231255D01*
X153265860Y-62231255D01*
X153840000Y-62805395D01*
X154414140Y-62231255D01*
X154383197Y-62021288D01*
X153973052Y-61886774D01*
X153542651Y-61919454D01*
X153296803Y-62021288D01*
X153265860Y-62231255D01*
X151194140Y-62231255D01*
X151163197Y-62021288D01*
X150753052Y-61886774D01*
X150322651Y-61919454D01*
X150076803Y-62021288D01*
X150045860Y-62231255D01*
X149427000Y-62231255D01*
X149427000Y-60273000D01*
X154865000Y-60273000D01*
X154865000Y-62589765D01*
X154803712Y-62441803D01*
X154593745Y-62410860D01*
X154019605Y-62985000D01*
X154593745Y-63559140D01*
X154803712Y-63528197D01*
X154865000Y-63341325D01*
X154865000Y-67691000D01*
X154919046Y-67962705D01*
X155072954Y-68193046D01*
X155303295Y-68346954D01*
X155459418Y-68378009D01*
X155453343Y-68380519D01*
X155007086Y-68825997D01*
X154765276Y-69408341D01*
X154764725Y-70038893D01*
X155005519Y-70621657D01*
X155450997Y-71067914D01*
X156033341Y-71309724D01*
X156663893Y-71310275D01*
X157246657Y-71069481D01*
X157692914Y-70624003D01*
X157934724Y-70041659D01*
X157935275Y-69411107D01*
X157694481Y-68828343D01*
X157267884Y-68401000D01*
X167422826Y-68401000D01*
X166997086Y-68825997D01*
X166755276Y-69408341D01*
X166754725Y-70038893D01*
X166995519Y-70621657D01*
X167440997Y-71067914D01*
X168023341Y-71309724D01*
X168653893Y-71310275D01*
X169236657Y-71069481D01*
X169682914Y-70624003D01*
X169924724Y-70041659D01*
X169925275Y-69411107D01*
X169684481Y-68828343D01*
X169239003Y-68382086D01*
X169204374Y-68367707D01*
X169308705Y-68346954D01*
X169539046Y-68193046D01*
X169692954Y-67962705D01*
X169747000Y-67691000D01*
X169747000Y-63738745D01*
X170365860Y-63738745D01*
X170396803Y-63948712D01*
X170806948Y-64083226D01*
X171237349Y-64050546D01*
X171483197Y-63948712D01*
X171514140Y-63738745D01*
X173585860Y-63738745D01*
X173616803Y-63948712D01*
X174026948Y-64083226D01*
X174457349Y-64050546D01*
X174703197Y-63948712D01*
X174734140Y-63738745D01*
X174160000Y-63164605D01*
X173585860Y-63738745D01*
X171514140Y-63738745D01*
X170940000Y-63164605D01*
X170365860Y-63738745D01*
X169747000Y-63738745D01*
X169747000Y-62851948D01*
X169841774Y-62851948D01*
X169874454Y-63282349D01*
X169976288Y-63528197D01*
X170186255Y-63559140D01*
X170760395Y-62985000D01*
X171119605Y-62985000D01*
X171693745Y-63559140D01*
X171903712Y-63528197D01*
X172038226Y-63118052D01*
X172018021Y-62851948D01*
X173061774Y-62851948D01*
X173094454Y-63282349D01*
X173196288Y-63528197D01*
X173406255Y-63559140D01*
X173980395Y-62985000D01*
X173406255Y-62410860D01*
X173196288Y-62441803D01*
X173061774Y-62851948D01*
X172018021Y-62851948D01*
X172005546Y-62687651D01*
X171903712Y-62441803D01*
X171693745Y-62410860D01*
X171119605Y-62985000D01*
X170760395Y-62985000D01*
X170186255Y-62410860D01*
X169976288Y-62441803D01*
X169841774Y-62851948D01*
X169747000Y-62851948D01*
X169747000Y-62231255D01*
X170365860Y-62231255D01*
X170940000Y-62805395D01*
X171514140Y-62231255D01*
X173585860Y-62231255D01*
X174160000Y-62805395D01*
X174734140Y-62231255D01*
X174703197Y-62021288D01*
X174293052Y-61886774D01*
X173862651Y-61919454D01*
X173616803Y-62021288D01*
X173585860Y-62231255D01*
X171514140Y-62231255D01*
X171483197Y-62021288D01*
X171073052Y-61886774D01*
X170642651Y-61919454D01*
X170396803Y-62021288D01*
X170365860Y-62231255D01*
X169747000Y-62231255D01*
X169747000Y-60273000D01*
X175185000Y-60273000D01*
X175185000Y-62589765D01*
X175123712Y-62441803D01*
X174913745Y-62410860D01*
X174339605Y-62985000D01*
X174913745Y-63559140D01*
X175123712Y-63528197D01*
X175185000Y-63341325D01*
X175185000Y-67691000D01*
X175239046Y-67962705D01*
X175392954Y-68193046D01*
X175623295Y-68346954D01*
X175779418Y-68378009D01*
X175773343Y-68380519D01*
X175327086Y-68825997D01*
X175085276Y-69408341D01*
X175084725Y-70038893D01*
X175325519Y-70621657D01*
X175770997Y-71067914D01*
X176353341Y-71309724D01*
X176377686Y-71309745D01*
X176370397Y-71320654D01*
X176358194Y-71382000D01*
X57531000Y-71382000D01*
X57096654Y-71468397D01*
X56728434Y-71714434D01*
X56482397Y-72082654D01*
X56396000Y-72517000D01*
X56482397Y-72951346D01*
X56728434Y-73319566D01*
X57096654Y-73565603D01*
X57531000Y-73652000D01*
X103005004Y-73652000D01*
X103005004Y-84454984D01*
X103005000Y-84455004D01*
X103005000Y-87249000D01*
X103091397Y-87683346D01*
X103145957Y-87765000D01*
X65240132Y-87765000D01*
X63667566Y-86192434D01*
X63299345Y-85946397D01*
X62865000Y-85860000D01*
X62430655Y-85946397D01*
X62062434Y-86192434D01*
X61816397Y-86560655D01*
X61730000Y-86995000D01*
X61816397Y-87429345D01*
X62062434Y-87797566D01*
X63968470Y-89703602D01*
X64336691Y-89949639D01*
X64771036Y-90036036D01*
X64776244Y-90035000D01*
X78875954Y-90035000D01*
X78741276Y-90359341D01*
X78740725Y-90989893D01*
X78981519Y-91572657D01*
X79426997Y-92018914D01*
X79461626Y-92033293D01*
X79357295Y-92054046D01*
X79126954Y-92207954D01*
X78973046Y-92438295D01*
X78919000Y-92710000D01*
X78919000Y-100128000D01*
X37413000Y-100128000D01*
X37413000Y-98169745D01*
X77151860Y-98169745D01*
X77182803Y-98379712D01*
X77592948Y-98514226D01*
X78023349Y-98481546D01*
X78269197Y-98379712D01*
X78300140Y-98169745D01*
X77726000Y-97595605D01*
X77151860Y-98169745D01*
X37413000Y-98169745D01*
X37413000Y-97282948D01*
X76627774Y-97282948D01*
X76660454Y-97713349D01*
X76762288Y-97959197D01*
X76972255Y-97990140D01*
X77546395Y-97416000D01*
X77905605Y-97416000D01*
X78479745Y-97990140D01*
X78689712Y-97959197D01*
X78824226Y-97549052D01*
X78791546Y-97118651D01*
X78689712Y-96872803D01*
X78479745Y-96841860D01*
X77905605Y-97416000D01*
X77546395Y-97416000D01*
X76972255Y-96841860D01*
X76762288Y-96872803D01*
X76627774Y-97282948D01*
X37413000Y-97282948D01*
X37413000Y-96662255D01*
X77151860Y-96662255D01*
X77726000Y-97236395D01*
X78300140Y-96662255D01*
X78269197Y-96452288D01*
X77859052Y-96317774D01*
X77428651Y-96350454D01*
X77182803Y-96452288D01*
X77151860Y-96662255D01*
X37413000Y-96662255D01*
X37413000Y-93533619D01*
X42214613Y-93533619D01*
X42554155Y-94355372D01*
X43182321Y-94984636D01*
X44003481Y-95325611D01*
X44892619Y-95326387D01*
X45714372Y-94986845D01*
X46343636Y-94358679D01*
X46684611Y-93537519D01*
X46685387Y-92648381D01*
X46345845Y-91826628D01*
X45717679Y-91197364D01*
X44896519Y-90856389D01*
X44007381Y-90855613D01*
X43185628Y-91195155D01*
X42556364Y-91823321D01*
X42215389Y-92644481D01*
X42214613Y-93533619D01*
X37413000Y-93533619D01*
X37413000Y-67752619D01*
X42214613Y-67752619D01*
X42554155Y-68574372D01*
X43182321Y-69203636D01*
X44003481Y-69544611D01*
X44892619Y-69545387D01*
X45714372Y-69205845D01*
X46343636Y-68577679D01*
X46684611Y-67756519D01*
X46685387Y-66867381D01*
X46345845Y-66045628D01*
X45717679Y-65416364D01*
X44896519Y-65075389D01*
X44007381Y-65074613D01*
X43185628Y-65414155D01*
X42556364Y-66042321D01*
X42215389Y-66863481D01*
X42214613Y-67752619D01*
X37413000Y-67752619D01*
X37413000Y-63738745D01*
X51665860Y-63738745D01*
X51696803Y-63948712D01*
X52106948Y-64083226D01*
X52537349Y-64050546D01*
X52783197Y-63948712D01*
X52814140Y-63738745D01*
X52240000Y-63164605D01*
X51665860Y-63738745D01*
X37413000Y-63738745D01*
X37413000Y-62851948D01*
X51141774Y-62851948D01*
X51174454Y-63282349D01*
X51276288Y-63528197D01*
X51486255Y-63559140D01*
X52060395Y-62985000D01*
X51486255Y-62410860D01*
X51276288Y-62441803D01*
X51141774Y-62851948D01*
X37413000Y-62851948D01*
X37413000Y-62231255D01*
X51665860Y-62231255D01*
X52240000Y-62805395D01*
X52814140Y-62231255D01*
X52783197Y-62021288D01*
X52373052Y-61886774D01*
X51942651Y-61919454D01*
X51696803Y-62021288D01*
X51665860Y-62231255D01*
X37413000Y-62231255D01*
X37413000Y-60273000D01*
X53265000Y-60273000D01*
X53265000Y-62589765D01*
G36*
X99061276Y-90359341D02*
X99060725Y-90989893D01*
X99301519Y-91572657D01*
X99746997Y-92018914D01*
X99781626Y-92033293D01*
X99677295Y-92054046D01*
X99446954Y-92207954D01*
X99293046Y-92438295D01*
X99239000Y-92710000D01*
X99239000Y-100128000D01*
X93801000Y-100128000D01*
X93801000Y-98169745D01*
X94251860Y-98169745D01*
X94282803Y-98379712D01*
X94692948Y-98514226D01*
X95123349Y-98481546D01*
X95369197Y-98379712D01*
X95400140Y-98169745D01*
X97471860Y-98169745D01*
X97502803Y-98379712D01*
X97912948Y-98514226D01*
X98343349Y-98481546D01*
X98589197Y-98379712D01*
X98620140Y-98169745D01*
X98046000Y-97595605D01*
X97471860Y-98169745D01*
X95400140Y-98169745D01*
X94826000Y-97595605D01*
X94251860Y-98169745D01*
X93801000Y-98169745D01*
X93801000Y-97811235D01*
X93862288Y-97959197D01*
X94072255Y-97990140D01*
X94646395Y-97416000D01*
X95005605Y-97416000D01*
X95579745Y-97990140D01*
X95789712Y-97959197D01*
X95924226Y-97549052D01*
X95904021Y-97282948D01*
X96947774Y-97282948D01*
X96980454Y-97713349D01*
X97082288Y-97959197D01*
X97292255Y-97990140D01*
X97866395Y-97416000D01*
X98225605Y-97416000D01*
X98799745Y-97990140D01*
X99009712Y-97959197D01*
X99144226Y-97549052D01*
X99111546Y-97118651D01*
X99009712Y-96872803D01*
X98799745Y-96841860D01*
X98225605Y-97416000D01*
X97866395Y-97416000D01*
X97292255Y-96841860D01*
X97082288Y-96872803D01*
X96947774Y-97282948D01*
X95904021Y-97282948D01*
X95891546Y-97118651D01*
X95789712Y-96872803D01*
X95579745Y-96841860D01*
X95005605Y-97416000D01*
X94646395Y-97416000D01*
X94072255Y-96841860D01*
X93862288Y-96872803D01*
X93801000Y-97059675D01*
X93801000Y-96662255D01*
X94251860Y-96662255D01*
X94826000Y-97236395D01*
X95400140Y-96662255D01*
X97471860Y-96662255D01*
X98046000Y-97236395D01*
X98620140Y-96662255D01*
X98589197Y-96452288D01*
X98179052Y-96317774D01*
X97748651Y-96350454D01*
X97502803Y-96452288D01*
X97471860Y-96662255D01*
X95400140Y-96662255D01*
X95369197Y-96452288D01*
X94959052Y-96317774D01*
X94528651Y-96350454D01*
X94282803Y-96452288D01*
X94251860Y-96662255D01*
X93801000Y-96662255D01*
X93801000Y-92710000D01*
X93746954Y-92438295D01*
X93593046Y-92207954D01*
X93362705Y-92054046D01*
X93206582Y-92022991D01*
X93212657Y-92020481D01*
X93658914Y-91575003D01*
X93900724Y-90992659D01*
X93901275Y-90362107D01*
X93766117Y-90035000D01*
X99195954Y-90035000D01*
X99061276Y-90359341D01*
X99061276Y-90359341D01*
G37*
X99061276Y-90359341D02*
X99060725Y-90989893D01*
X99301519Y-91572657D01*
X99746997Y-92018914D01*
X99781626Y-92033293D01*
X99677295Y-92054046D01*
X99446954Y-92207954D01*
X99293046Y-92438295D01*
X99239000Y-92710000D01*
X99239000Y-100128000D01*
X93801000Y-100128000D01*
X93801000Y-98169745D01*
X94251860Y-98169745D01*
X94282803Y-98379712D01*
X94692948Y-98514226D01*
X95123349Y-98481546D01*
X95369197Y-98379712D01*
X95400140Y-98169745D01*
X97471860Y-98169745D01*
X97502803Y-98379712D01*
X97912948Y-98514226D01*
X98343349Y-98481546D01*
X98589197Y-98379712D01*
X98620140Y-98169745D01*
X98046000Y-97595605D01*
X97471860Y-98169745D01*
X95400140Y-98169745D01*
X94826000Y-97595605D01*
X94251860Y-98169745D01*
X93801000Y-98169745D01*
X93801000Y-97811235D01*
X93862288Y-97959197D01*
X94072255Y-97990140D01*
X94646395Y-97416000D01*
X95005605Y-97416000D01*
X95579745Y-97990140D01*
X95789712Y-97959197D01*
X95924226Y-97549052D01*
X95904021Y-97282948D01*
X96947774Y-97282948D01*
X96980454Y-97713349D01*
X97082288Y-97959197D01*
X97292255Y-97990140D01*
X97866395Y-97416000D01*
X98225605Y-97416000D01*
X98799745Y-97990140D01*
X99009712Y-97959197D01*
X99144226Y-97549052D01*
X99111546Y-97118651D01*
X99009712Y-96872803D01*
X98799745Y-96841860D01*
X98225605Y-97416000D01*
X97866395Y-97416000D01*
X97292255Y-96841860D01*
X97082288Y-96872803D01*
X96947774Y-97282948D01*
X95904021Y-97282948D01*
X95891546Y-97118651D01*
X95789712Y-96872803D01*
X95579745Y-96841860D01*
X95005605Y-97416000D01*
X94646395Y-97416000D01*
X94072255Y-96841860D01*
X93862288Y-96872803D01*
X93801000Y-97059675D01*
X93801000Y-96662255D01*
X94251860Y-96662255D01*
X94826000Y-97236395D01*
X95400140Y-96662255D01*
X97471860Y-96662255D01*
X98046000Y-97236395D01*
X98620140Y-96662255D01*
X98589197Y-96452288D01*
X98179052Y-96317774D01*
X97748651Y-96350454D01*
X97502803Y-96452288D01*
X97471860Y-96662255D01*
X95400140Y-96662255D01*
X95369197Y-96452288D01*
X94959052Y-96317774D01*
X94528651Y-96350454D01*
X94282803Y-96452288D01*
X94251860Y-96662255D01*
X93801000Y-96662255D01*
X93801000Y-92710000D01*
X93746954Y-92438295D01*
X93593046Y-92207954D01*
X93362705Y-92054046D01*
X93206582Y-92022991D01*
X93212657Y-92020481D01*
X93658914Y-91575003D01*
X93900724Y-90992659D01*
X93901275Y-90362107D01*
X93766117Y-90035000D01*
X99195954Y-90035000D01*
X99061276Y-90359341D01*
G36*
X134495000Y-83082802D02*
X134495000Y-83158694D01*
X134448840Y-83127851D01*
X134158001Y-83069999D01*
X129149001Y-83069999D01*
X128858162Y-83127851D01*
X128611600Y-83292598D01*
X127368320Y-84535878D01*
X127322833Y-84535838D01*
X126979057Y-84677883D01*
X126715808Y-84940673D01*
X126573162Y-85284201D01*
X126572838Y-85656167D01*
X126714883Y-85999943D01*
X126774860Y-86060024D01*
X126560833Y-86059838D01*
X126217057Y-86201883D01*
X125953808Y-86464673D01*
X125811162Y-86808201D01*
X125810838Y-87180167D01*
X125839917Y-87250545D01*
X122620598Y-90469864D01*
X122455851Y-90716426D01*
X122397999Y-91007265D01*
X122397999Y-91055565D01*
X122354346Y-91026397D01*
X121920000Y-90940000D01*
X119005130Y-90940000D01*
X111717564Y-83652434D01*
X111633688Y-83596390D01*
X111349344Y-83406397D01*
X110914998Y-83320000D01*
X105275004Y-83320000D01*
X105275004Y-82340104D01*
X105514673Y-82580192D01*
X105858201Y-82722838D01*
X106230167Y-82723162D01*
X106573943Y-82581117D01*
X106607118Y-82548000D01*
X126618999Y-82548000D01*
X126909838Y-82490148D01*
X127156400Y-82325401D01*
X127520680Y-81961121D01*
X127566167Y-81961161D01*
X127909943Y-81819116D01*
X128173192Y-81556326D01*
X128315838Y-81212798D01*
X128316113Y-80897000D01*
X128850537Y-80897000D01*
X128882673Y-80929192D01*
X129226201Y-81071838D01*
X129598167Y-81072162D01*
X129941943Y-80930117D01*
X130205192Y-80667327D01*
X130347838Y-80323799D01*
X130348162Y-79951833D01*
X130206117Y-79608057D01*
X129943327Y-79344808D01*
X129599799Y-79202162D01*
X129227833Y-79201838D01*
X128884057Y-79343883D01*
X128850882Y-79377000D01*
X109741538Y-79377000D01*
X110380538Y-78738000D01*
X128977535Y-78738000D01*
X129009671Y-78770192D01*
X129353199Y-78912838D01*
X129725165Y-78913162D01*
X130068941Y-78771117D01*
X130126178Y-78713980D01*
X134495000Y-83082802D01*
X134495000Y-83082802D01*
G37*
X134495000Y-83082802D02*
X134495000Y-83158694D01*
X134448840Y-83127851D01*
X134158001Y-83069999D01*
X129149001Y-83069999D01*
X128858162Y-83127851D01*
X128611600Y-83292598D01*
X127368320Y-84535878D01*
X127322833Y-84535838D01*
X126979057Y-84677883D01*
X126715808Y-84940673D01*
X126573162Y-85284201D01*
X126572838Y-85656167D01*
X126714883Y-85999943D01*
X126774860Y-86060024D01*
X126560833Y-86059838D01*
X126217057Y-86201883D01*
X125953808Y-86464673D01*
X125811162Y-86808201D01*
X125810838Y-87180167D01*
X125839917Y-87250545D01*
X122620598Y-90469864D01*
X122455851Y-90716426D01*
X122397999Y-91007265D01*
X122397999Y-91055565D01*
X122354346Y-91026397D01*
X121920000Y-90940000D01*
X119005130Y-90940000D01*
X111717564Y-83652434D01*
X111633688Y-83596390D01*
X111349344Y-83406397D01*
X110914998Y-83320000D01*
X105275004Y-83320000D01*
X105275004Y-82340104D01*
X105514673Y-82580192D01*
X105858201Y-82722838D01*
X106230167Y-82723162D01*
X106573943Y-82581117D01*
X106607118Y-82548000D01*
X126618999Y-82548000D01*
X126909838Y-82490148D01*
X127156400Y-82325401D01*
X127520680Y-81961121D01*
X127566167Y-81961161D01*
X127909943Y-81819116D01*
X128173192Y-81556326D01*
X128315838Y-81212798D01*
X128316113Y-80897000D01*
X128850537Y-80897000D01*
X128882673Y-80929192D01*
X129226201Y-81071838D01*
X129598167Y-81072162D01*
X129941943Y-80930117D01*
X130205192Y-80667327D01*
X130347838Y-80323799D01*
X130348162Y-79951833D01*
X130206117Y-79608057D01*
X129943327Y-79344808D01*
X129599799Y-79202162D01*
X129227833Y-79201838D01*
X128884057Y-79343883D01*
X128850882Y-79377000D01*
X109741538Y-79377000D01*
X110380538Y-78738000D01*
X128977535Y-78738000D01*
X129009671Y-78770192D01*
X129353199Y-78912838D01*
X129725165Y-78913162D01*
X130068941Y-78771117D01*
X130126178Y-78713980D01*
X134495000Y-83082802D01*
M02*
