M48
;DRILL file {KiCad 4.0.4-stable} date 03/09/17 09:34:24
;FORMAT={-:-/ absolute / inch / decimal}
FMAT,2
INCH,TZ
T1C0.016
T2C0.031
T3C0.039
%
G90
G05
M72
T1
X2.265Y-2.855
X2.475Y-3.425
X3.05Y-2.855
X3.82Y-2.855
X4.1Y-3.435
X4.1Y-3.325
X4.175Y-3.22
X4.175Y-3.45
X4.1792Y-3.3831
X4.235Y-3.19
X4.25Y-3.4
X4.25Y-3.45
X4.28Y-3.175
X4.62Y-3.52
X4.635Y-2.855
X4.71Y-3.29
X4.775Y-3.7
X4.8Y-3.625
X4.95Y-3.0045
X4.99Y-3.425
X5.015Y-3.19
X5.02Y-3.365
X5.095Y-3.155
X5.1Y-3.07
X5.165Y-3.325
X5.27Y-3.325
X5.37Y-2.855
X5.425Y-3.405
X5.685Y-3.485
X5.975Y-3.625
X6.17Y-2.855
X6.695Y-3.835
X6.985Y-2.825
X7.775Y-2.855
T2
X2.0567Y-2.4797
X2.7299Y-2.4797
X2.8567Y-2.4797
X3.0601Y-3.8353
X3.5299Y-2.4797
X3.6567Y-2.4797
X3.7333Y-3.8353
X3.8601Y-3.8353
X4.3299Y-2.4797
X4.4567Y-2.4797
X4.5333Y-3.8353
X5.1299Y-2.4797
X5.2567Y-2.4797
X5.9299Y-2.4797
X6.0567Y-2.4797
X6.7299Y-2.4797
X6.8567Y-2.4797
X7.5299Y-2.4797
X7.6567Y-2.4797
X8.3299Y-2.4797
T3
X4.795Y-3.895
X4.895Y-3.895
X4.995Y-3.895
X5.095Y-3.895
X5.195Y-3.895
T0
M30
