G04 #@! TF.FileFunction,Copper,L1,Top,Signal*
%FSLAX46Y46*%
G04 Gerber Fmt 4.6, Leading zero omitted, Abs format (unit mm)*
G04 Created by KiCad (PCBNEW 4.0.4-stable) date 03/09/17 09:34:18*
%MOMM*%
%LPD*%
G01*
G04 APERTURE LIST*
%ADD10C,0.100000*%
%ADD11R,1.500000X4.000000*%
%ADD12C,0.900000*%
%ADD13R,0.600000X2.100000*%
%ADD14R,3.600000X1.270000*%
%ADD15R,1.000000X0.250000*%
%ADD16R,0.250000X1.000000*%
%ADD17R,2.500000X4.000000*%
%ADD18R,0.750000X0.800000*%
%ADD19R,0.500000X0.900000*%
%ADD20R,1.700000X1.700000*%
%ADD21O,1.700000X1.700000*%
%ADD22R,2.000000X3.500000*%
%ADD23R,7.000000X7.000000*%
%ADD24C,0.600000*%
%ADD25C,0.250000*%
%ADD26C,1.000000*%
%ADD27C,0.254000*%
G04 APERTURE END LIST*
D10*
D11*
X69340000Y-62985000D03*
D12*
X69340000Y-62985000D03*
D13*
X57140000Y-69965000D03*
X58160000Y-69965000D03*
X59180000Y-69965000D03*
X60200000Y-69965000D03*
X61220000Y-69965000D03*
X62240000Y-69965000D03*
X63260000Y-69965000D03*
X64280000Y-69965000D03*
D12*
X52240000Y-62985000D03*
D11*
X52240000Y-62985000D03*
D14*
X59665000Y-86741000D03*
X59665000Y-89281000D03*
X59665000Y-91821000D03*
X59665000Y-94361000D03*
X66065000Y-94361000D03*
X66065000Y-91821000D03*
X66065000Y-89281000D03*
X66065000Y-86741000D03*
X59665000Y-96901000D03*
X66065000Y-96901000D03*
D15*
X125745000Y-77530000D03*
X125745000Y-78030000D03*
X125745000Y-78530000D03*
X125745000Y-79030000D03*
X125745000Y-79530000D03*
X125745000Y-80030000D03*
X125745000Y-80530000D03*
X125745000Y-81030000D03*
X125745000Y-81530000D03*
X125745000Y-82030000D03*
X125745000Y-82530000D03*
X125745000Y-83030000D03*
X125745000Y-83530000D03*
X125745000Y-84030000D03*
X125745000Y-84530000D03*
X125745000Y-85030000D03*
D16*
X127695000Y-86980000D03*
X128195000Y-86980000D03*
X128695000Y-86980000D03*
X129195000Y-86980000D03*
X129695000Y-86980000D03*
X130195000Y-86980000D03*
X130695000Y-86980000D03*
X131195000Y-86980000D03*
X131695000Y-86980000D03*
X132195000Y-86980000D03*
X132695000Y-86980000D03*
X133195000Y-86980000D03*
X133695000Y-86980000D03*
X134195000Y-86980000D03*
X134695000Y-86980000D03*
X135195000Y-86980000D03*
D15*
X137145000Y-85030000D03*
X137145000Y-84530000D03*
X137145000Y-84030000D03*
X137145000Y-83530000D03*
X137145000Y-83030000D03*
X137145000Y-82530000D03*
X137145000Y-82030000D03*
X137145000Y-81530000D03*
X137145000Y-81030000D03*
X137145000Y-80530000D03*
X137145000Y-80030000D03*
X137145000Y-79530000D03*
X137145000Y-79030000D03*
X137145000Y-78530000D03*
X137145000Y-78030000D03*
X137145000Y-77530000D03*
D16*
X135195000Y-75580000D03*
X134695000Y-75580000D03*
X134195000Y-75580000D03*
X133695000Y-75580000D03*
X133195000Y-75580000D03*
X132695000Y-75580000D03*
X132195000Y-75580000D03*
X131695000Y-75580000D03*
X131195000Y-75580000D03*
X130695000Y-75580000D03*
X130195000Y-75580000D03*
X129695000Y-75580000D03*
X129195000Y-75580000D03*
X128695000Y-75580000D03*
X128195000Y-75580000D03*
X127695000Y-75580000D03*
D11*
X77726000Y-97416000D03*
D12*
X77726000Y-97416000D03*
D13*
X89926000Y-90436000D03*
X88906000Y-90436000D03*
X87886000Y-90436000D03*
X86866000Y-90436000D03*
X85846000Y-90436000D03*
X84826000Y-90436000D03*
X83806000Y-90436000D03*
X82786000Y-90436000D03*
D12*
X94826000Y-97416000D03*
D11*
X94826000Y-97416000D03*
D17*
X157099000Y-96903000D03*
X157099000Y-90803000D03*
D18*
X141478000Y-86372000D03*
X141478000Y-87872000D03*
X123190000Y-76315000D03*
X123190000Y-74815000D03*
X139319000Y-86372000D03*
X139319000Y-87872000D03*
X121158000Y-84951000D03*
X121158000Y-83451000D03*
D11*
X98046000Y-97416000D03*
D12*
X98046000Y-97416000D03*
D13*
X110246000Y-90436000D03*
X109226000Y-90436000D03*
X108206000Y-90436000D03*
X107186000Y-90436000D03*
X106166000Y-90436000D03*
X105146000Y-90436000D03*
X104126000Y-90436000D03*
X103106000Y-90436000D03*
D12*
X115146000Y-97416000D03*
D11*
X115146000Y-97416000D03*
X89660000Y-62985000D03*
D12*
X89660000Y-62985000D03*
D13*
X77460000Y-69965000D03*
X78480000Y-69965000D03*
X79500000Y-69965000D03*
X80520000Y-69965000D03*
X81540000Y-69965000D03*
X82560000Y-69965000D03*
X83580000Y-69965000D03*
X84600000Y-69965000D03*
D12*
X72560000Y-62985000D03*
D11*
X72560000Y-62985000D03*
X109980000Y-62985000D03*
D12*
X109980000Y-62985000D03*
D13*
X97780000Y-69965000D03*
X98800000Y-69965000D03*
X99820000Y-69965000D03*
X100840000Y-69965000D03*
X101860000Y-69965000D03*
X102880000Y-69965000D03*
X103900000Y-69965000D03*
X104920000Y-69965000D03*
D12*
X92880000Y-62985000D03*
D11*
X92880000Y-62985000D03*
X130300000Y-62985000D03*
D12*
X130300000Y-62985000D03*
D13*
X118100000Y-69965000D03*
X119120000Y-69965000D03*
X120140000Y-69965000D03*
X121160000Y-69965000D03*
X122180000Y-69965000D03*
X123200000Y-69965000D03*
X124220000Y-69965000D03*
X125240000Y-69965000D03*
D12*
X113200000Y-62985000D03*
D11*
X113200000Y-62985000D03*
X150620000Y-62985000D03*
D12*
X150620000Y-62985000D03*
D13*
X138420000Y-69965000D03*
X139440000Y-69965000D03*
X140460000Y-69965000D03*
X141480000Y-69965000D03*
X142500000Y-69965000D03*
X143520000Y-69965000D03*
X144540000Y-69965000D03*
X145560000Y-69965000D03*
D12*
X133520000Y-62985000D03*
D11*
X133520000Y-62985000D03*
X170940000Y-62985000D03*
D12*
X170940000Y-62985000D03*
D13*
X158740000Y-69965000D03*
X159760000Y-69965000D03*
X160780000Y-69965000D03*
X161800000Y-69965000D03*
X162820000Y-69965000D03*
X163840000Y-69965000D03*
X164860000Y-69965000D03*
X165880000Y-69965000D03*
D12*
X153840000Y-62985000D03*
D11*
X153840000Y-62985000D03*
X191260000Y-62985000D03*
D12*
X191260000Y-62985000D03*
D13*
X179060000Y-69965000D03*
X180080000Y-69965000D03*
X181100000Y-69965000D03*
X182120000Y-69965000D03*
X183140000Y-69965000D03*
X184160000Y-69965000D03*
X185180000Y-69965000D03*
X186200000Y-69965000D03*
D12*
X174160000Y-62985000D03*
D11*
X174160000Y-62985000D03*
X211580000Y-62985000D03*
D12*
X211580000Y-62985000D03*
D13*
X199380000Y-69965000D03*
X200400000Y-69965000D03*
X201420000Y-69965000D03*
X202440000Y-69965000D03*
X203460000Y-69965000D03*
X204480000Y-69965000D03*
X205500000Y-69965000D03*
X206520000Y-69965000D03*
D12*
X194480000Y-62985000D03*
D11*
X194480000Y-62985000D03*
D19*
X147840000Y-97155000D03*
X149340000Y-97155000D03*
D20*
X121793000Y-98933000D03*
D21*
X124333000Y-98933000D03*
X126873000Y-98933000D03*
X129413000Y-98933000D03*
X131953000Y-98933000D03*
D22*
X167636000Y-97299000D03*
X172216000Y-97299000D03*
D23*
X169936000Y-89899000D03*
D24*
X121920000Y-92075000D03*
X177419000Y-71755000D03*
X104140004Y-84455000D03*
X77470000Y-72517000D03*
X97028000Y-72517000D03*
X117729000Y-72517000D03*
X136398000Y-72517000D03*
X156718000Y-72517000D03*
X197485000Y-72517000D03*
X57531000Y-72517000D03*
X104140000Y-87249000D03*
X144399000Y-88519000D03*
X151765000Y-92075000D03*
X117348000Y-89408000D03*
X119634000Y-83566000D03*
X125730000Y-76315000D03*
X121285000Y-93980000D03*
X62865000Y-86995000D03*
X137795000Y-86487000D03*
X170053000Y-97409000D03*
X133858000Y-84455000D03*
X131191000Y-84455000D03*
X107950000Y-87630000D03*
X107950000Y-86359986D03*
X106045000Y-87630000D03*
X106151768Y-85929977D03*
X127381000Y-81025999D03*
X106045000Y-81788000D03*
X107569000Y-81026000D03*
X129539998Y-77978000D03*
X108712000Y-80645000D03*
X129413000Y-80137000D03*
X127508000Y-85471000D03*
X126746000Y-86995000D03*
D25*
X148590000Y-99060000D02*
X148590000Y-98425000D01*
D26*
X147840000Y-97155000D02*
X144665000Y-93980000D01*
X144665000Y-93980000D02*
X123825000Y-93980000D01*
X123825000Y-93980000D02*
X122219999Y-92374999D01*
X122219999Y-92374999D02*
X121920000Y-92075000D01*
X179060000Y-69965000D02*
X179060000Y-70114000D01*
X179060000Y-70114000D02*
X177419000Y-71755000D01*
X102951005Y-83266001D02*
X103840005Y-84155001D01*
X88925999Y-83266001D02*
X102951005Y-83266001D01*
X83806000Y-88386000D02*
X88925999Y-83266001D01*
X83806000Y-90436000D02*
X83806000Y-88386000D01*
X103840005Y-84155001D02*
X104140004Y-84455000D01*
X77460000Y-69965000D02*
X77460000Y-72507000D01*
X77460000Y-72507000D02*
X77470000Y-72517000D01*
X97780000Y-69965000D02*
X97780000Y-71765000D01*
X97780000Y-71765000D02*
X97028000Y-72517000D01*
X118100000Y-69965000D02*
X118100000Y-72146000D01*
X118100000Y-72146000D02*
X117729000Y-72517000D01*
X138420000Y-69965000D02*
X138420000Y-70495000D01*
X138420000Y-70495000D02*
X136398000Y-72517000D01*
X158740000Y-69965000D02*
X158740000Y-70495000D01*
X158740000Y-70495000D02*
X156718000Y-72517000D01*
X197485000Y-72517000D02*
X199380000Y-70622000D01*
X199380000Y-70622000D02*
X199380000Y-69965000D01*
X57140000Y-69965000D02*
X57140000Y-72126000D01*
X57140000Y-72126000D02*
X57531000Y-72517000D01*
X104140000Y-87249000D02*
X104140000Y-90422000D01*
X104140000Y-90422000D02*
X104126000Y-90436000D01*
D25*
X94826000Y-97416000D02*
X98046000Y-97416000D01*
D26*
X144399000Y-88519000D02*
X142125000Y-88519000D01*
X142125000Y-88519000D02*
X141478000Y-87872000D01*
X157099000Y-90803000D02*
X153037000Y-90803000D01*
X153037000Y-90803000D02*
X151765000Y-92075000D01*
X157099000Y-90803000D02*
X169032000Y-90803000D01*
X169032000Y-90803000D02*
X169936000Y-89899000D01*
D25*
X114303001Y-91951001D02*
X114804999Y-91951001D01*
X117048001Y-89707999D02*
X117348000Y-89408000D01*
X114804999Y-91951001D02*
X117048001Y-89707999D01*
X155599000Y-90803000D02*
X157099000Y-90803000D01*
X59665000Y-91821000D02*
X59665000Y-90936000D01*
X59665000Y-90936000D02*
X59665000Y-89281000D01*
X59665000Y-96901000D02*
X58500000Y-96901000D01*
X57539999Y-92781001D02*
X58500000Y-91821000D01*
X58500000Y-96901000D02*
X57539999Y-95940999D01*
X57539999Y-95940999D02*
X57539999Y-92781001D01*
X58500000Y-91821000D02*
X59665000Y-91821000D01*
X59665000Y-96901000D02*
X59665000Y-97786000D01*
X59665000Y-97786000D02*
X59740001Y-97861001D01*
X76726000Y-97416000D02*
X77726000Y-97416000D01*
X59740001Y-97861001D02*
X76280999Y-97861001D01*
X76280999Y-97861001D02*
X76726000Y-97416000D01*
X119634000Y-83566000D02*
X121043000Y-83566000D01*
X121043000Y-83566000D02*
X121158000Y-83451000D01*
X118249000Y-74815000D02*
X113788999Y-70354999D01*
X113788999Y-70354999D02*
X113788999Y-68449999D01*
X123190000Y-74815000D02*
X118249000Y-74815000D01*
X129695000Y-76330000D02*
X128799001Y-77225999D01*
X128799001Y-77225999D02*
X128312001Y-77225999D01*
X128312001Y-77225999D02*
X128195000Y-77343000D01*
X129695000Y-75580000D02*
X129695000Y-76330000D01*
X78359000Y-92329000D02*
X81643000Y-92329000D01*
X81643000Y-92329000D02*
X82786000Y-91186000D01*
X82786000Y-91186000D02*
X82786000Y-90436000D01*
X78359000Y-94533000D02*
X78359000Y-92329000D01*
X77726000Y-97416000D02*
X77726000Y-95166000D01*
X77726000Y-95166000D02*
X78359000Y-94533000D01*
X93472000Y-92202000D02*
X90942000Y-92202000D01*
X90942000Y-92202000D02*
X89926000Y-91186000D01*
X89926000Y-91186000D02*
X89926000Y-90436000D01*
X94826000Y-93556000D02*
X93472000Y-92202000D01*
X94826000Y-97416000D02*
X94826000Y-93556000D01*
X98425000Y-92202000D02*
X102090000Y-92202000D01*
X102090000Y-92202000D02*
X103106000Y-91186000D01*
X103106000Y-91186000D02*
X103106000Y-90436000D01*
X98425000Y-94787000D02*
X98425000Y-92202000D01*
X98046000Y-97416000D02*
X98046000Y-95166000D01*
X98046000Y-95166000D02*
X98425000Y-94787000D01*
X115146000Y-97416000D02*
X115146000Y-92794000D01*
X115146000Y-92794000D02*
X114303001Y-91951001D01*
X114303001Y-91951001D02*
X111011001Y-91951001D01*
X111011001Y-91951001D02*
X110246000Y-91186000D01*
X110246000Y-91186000D02*
X110246000Y-90436000D01*
X134695000Y-86980000D02*
X134695000Y-86230000D01*
X134695000Y-86230000D02*
X130201000Y-81736000D01*
X130201000Y-81736000D02*
X128195000Y-81736000D01*
X128195000Y-81736000D02*
X128195000Y-77343000D01*
X128195000Y-77343000D02*
X128195000Y-75580000D01*
X126950999Y-82980001D02*
X128195000Y-81736000D01*
X125745000Y-83030000D02*
X126139000Y-83030000D01*
X126139000Y-83030000D02*
X126188999Y-82980001D01*
X126188999Y-82980001D02*
X126950999Y-82980001D01*
X73152000Y-68199000D02*
X73152000Y-63577000D01*
X73152000Y-63577000D02*
X72560000Y-62985000D01*
X84134000Y-68199000D02*
X73152000Y-68199000D01*
X84600000Y-69965000D02*
X84600000Y-68665000D01*
X84600000Y-68665000D02*
X84134000Y-68199000D01*
X88646000Y-68326000D02*
X85489000Y-68326000D01*
X85489000Y-68326000D02*
X84600000Y-69215000D01*
X84600000Y-69215000D02*
X84600000Y-69965000D01*
X89154000Y-67818000D02*
X88646000Y-68326000D01*
X89154000Y-65741000D02*
X89154000Y-67818000D01*
X89660000Y-62985000D02*
X89660000Y-65235000D01*
X89660000Y-65235000D02*
X89154000Y-65741000D01*
X92583000Y-66929000D02*
X92880000Y-66632000D01*
X92880000Y-66632000D02*
X92880000Y-62985000D01*
X93853000Y-68199000D02*
X92583000Y-66929000D01*
X104902000Y-68199000D02*
X93853000Y-68199000D01*
X104902000Y-68199000D02*
X104920000Y-68217000D01*
X104920000Y-68217000D02*
X104920000Y-69965000D01*
X108585000Y-68199000D02*
X104902000Y-68199000D01*
X108585000Y-67310000D02*
X108585000Y-68199000D01*
X108712000Y-67056000D02*
X108712000Y-67183000D01*
X108712000Y-67183000D02*
X108585000Y-67310000D01*
X108839000Y-66376000D02*
X108839000Y-66929000D01*
X108839000Y-66929000D02*
X108712000Y-67056000D01*
X109980000Y-62985000D02*
X109980000Y-65235000D01*
X109980000Y-65235000D02*
X108839000Y-66376000D01*
X113788999Y-68449999D02*
X113788999Y-63573999D01*
X113788999Y-63573999D02*
X113200000Y-62985000D01*
X124968000Y-68393000D02*
X124911001Y-68449999D01*
X124911001Y-68449999D02*
X113788999Y-68449999D01*
X125240000Y-69965000D02*
X125240000Y-68665000D01*
X125240000Y-68665000D02*
X124968000Y-68393000D01*
X125857000Y-68199000D02*
X125857000Y-68598000D01*
X125857000Y-68598000D02*
X125240000Y-69215000D01*
X125240000Y-69215000D02*
X125240000Y-69965000D01*
X128778000Y-68199000D02*
X125857000Y-68199000D01*
X129667000Y-67310000D02*
X128778000Y-68199000D01*
X129667000Y-65868000D02*
X129667000Y-67310000D01*
X130300000Y-62985000D02*
X130300000Y-65235000D01*
X130300000Y-65235000D02*
X129667000Y-65868000D01*
X145560000Y-68435000D02*
X145560000Y-68707000D01*
X145560000Y-68707000D02*
X145560000Y-69965000D01*
X134112000Y-68199000D02*
X145052000Y-68199000D01*
X145052000Y-68199000D02*
X145560000Y-68707000D01*
X133520000Y-67607000D02*
X134112000Y-68199000D01*
X133520000Y-62985000D02*
X133520000Y-67607000D01*
X145669000Y-68326000D02*
X145560000Y-68435000D01*
X149479000Y-68326000D02*
X145669000Y-68326000D01*
X149479000Y-66376000D02*
X149479000Y-68326000D01*
X150620000Y-62985000D02*
X150620000Y-65235000D01*
X150620000Y-65235000D02*
X149479000Y-66376000D01*
X154559000Y-68199000D02*
X154559000Y-63704000D01*
X154559000Y-63704000D02*
X153840000Y-62985000D01*
X165414000Y-68199000D02*
X154559000Y-68199000D01*
X165880000Y-69965000D02*
X165880000Y-68665000D01*
X165880000Y-68665000D02*
X165414000Y-68199000D01*
X170940000Y-62985000D02*
X170940000Y-67439000D01*
X170940000Y-67439000D02*
X170053000Y-68326000D01*
X170053000Y-68326000D02*
X166769000Y-68326000D01*
X165880000Y-69215000D02*
X165880000Y-69965000D01*
X166769000Y-68326000D02*
X165880000Y-69215000D01*
X186200000Y-69965000D02*
X186200000Y-68217000D01*
X186200000Y-68217000D02*
X186055000Y-68072000D01*
X186055000Y-68072000D02*
X174371000Y-68072000D01*
X174371000Y-68072000D02*
X174160000Y-67861000D01*
X174160000Y-67861000D02*
X174160000Y-62985000D01*
X189611000Y-68199000D02*
X187216000Y-68199000D01*
X187216000Y-68199000D02*
X186200000Y-69215000D01*
X186200000Y-69215000D02*
X186200000Y-69965000D01*
X189865000Y-67945000D02*
X189611000Y-68199000D01*
X189865000Y-66630000D02*
X189865000Y-67945000D01*
X191260000Y-62985000D02*
X191260000Y-65235000D01*
X191260000Y-65235000D02*
X189865000Y-66630000D01*
X194480000Y-62985000D02*
X191260000Y-62985000D01*
X195647000Y-68266000D02*
X195647000Y-64152000D01*
X195647000Y-64152000D02*
X194480000Y-62985000D01*
X206121000Y-68266000D02*
X195647000Y-68266000D01*
X206520000Y-69965000D02*
X206520000Y-68665000D01*
X206520000Y-68665000D02*
X206121000Y-68266000D01*
X210185000Y-68072000D02*
X207663000Y-68072000D01*
X207663000Y-68072000D02*
X206520000Y-69215000D01*
X206520000Y-69215000D02*
X206520000Y-69965000D01*
X210185000Y-65630000D02*
X210185000Y-68072000D01*
X211580000Y-62985000D02*
X211580000Y-64235000D01*
X211580000Y-64235000D02*
X210185000Y-65630000D01*
X174160000Y-62985000D02*
X170940000Y-62985000D01*
X153840000Y-62985000D02*
X150620000Y-62985000D01*
X133520000Y-62985000D02*
X130300000Y-62985000D01*
X113200000Y-62985000D02*
X109980000Y-62985000D01*
X89660000Y-62985000D02*
X92880000Y-62985000D01*
X72560000Y-62985000D02*
X69340000Y-62985000D01*
X69850000Y-68199000D02*
X69340000Y-67689000D01*
X69340000Y-67689000D02*
X69340000Y-62985000D01*
X65630000Y-68199000D02*
X69850000Y-68199000D01*
X64873000Y-68072000D02*
X65503000Y-68072000D01*
X65503000Y-68072000D02*
X65630000Y-68199000D01*
X64280000Y-68665000D02*
X64873000Y-68072000D01*
X64280000Y-69965000D02*
X64280000Y-68665000D01*
X64280000Y-68665000D02*
X64204999Y-68589999D01*
X64204999Y-68589999D02*
X55502001Y-68589999D01*
X55502001Y-68589999D02*
X54984002Y-68072000D01*
X54984002Y-68072000D02*
X52451000Y-68072000D01*
X52451000Y-68072000D02*
X52240000Y-67861000D01*
X52240000Y-67861000D02*
X52240000Y-62985000D01*
X69340000Y-62985000D02*
X69340000Y-64235000D01*
X64280000Y-69295000D02*
X64280000Y-69965000D01*
X89466001Y-91811001D02*
X86868000Y-91811001D01*
X86868000Y-91811001D02*
X84750999Y-91811001D01*
X86866000Y-90436000D02*
X86866000Y-91736000D01*
X86866000Y-91736000D02*
X86868000Y-91738000D01*
X86868000Y-91738000D02*
X86868000Y-91811001D01*
X89926000Y-90436000D02*
X89926000Y-91351002D01*
X89926000Y-91351002D02*
X89466001Y-91811001D01*
X82786000Y-90436000D02*
X82786000Y-91351002D01*
X84750999Y-91811001D02*
X84826000Y-91736000D01*
X82786000Y-91351002D02*
X83245999Y-91811001D01*
X83245999Y-91811001D02*
X84750999Y-91811001D01*
X84826000Y-91736000D02*
X84826000Y-90436000D01*
X110170999Y-91811001D02*
X107188000Y-91811001D01*
X107188000Y-91811001D02*
X105156000Y-91811001D01*
X107186000Y-90436000D02*
X107186000Y-91809001D01*
X107186000Y-91809001D02*
X107188000Y-91811001D01*
X105156000Y-91811001D02*
X103181001Y-91811001D01*
X105146000Y-91736000D02*
X105156000Y-91746000D01*
X105146000Y-90436000D02*
X105146000Y-91736000D01*
X105156000Y-91746000D02*
X105156000Y-91811001D01*
X110246000Y-90436000D02*
X110246000Y-91736000D01*
X110246000Y-91736000D02*
X110170999Y-91811001D01*
X103181001Y-91811001D02*
X103106000Y-91736000D01*
X103106000Y-91736000D02*
X103106000Y-90436000D01*
X128195000Y-75580000D02*
X128195000Y-74830000D01*
X123190000Y-74790000D02*
X123190000Y-74815000D01*
X128195000Y-74830000D02*
X127530000Y-74165000D01*
X127530000Y-74165000D02*
X123815000Y-74165000D01*
X123815000Y-74165000D02*
X123190000Y-74790000D01*
X139319000Y-87872000D02*
X134876998Y-87872000D01*
X134876998Y-87872000D02*
X134744999Y-87740001D01*
X134744999Y-87740001D02*
X134744999Y-87029999D01*
X134744999Y-87029999D02*
X134695000Y-86980000D01*
X141478000Y-87872000D02*
X139319000Y-87872000D01*
X125745000Y-83030000D02*
X121579000Y-83030000D01*
X121579000Y-83030000D02*
X121158000Y-83451000D01*
X125730000Y-76315000D02*
X124905000Y-76315000D01*
X126585000Y-76315000D02*
X125730000Y-76315000D01*
D26*
X121285000Y-93980000D02*
X124333000Y-97028000D01*
X124333000Y-97028000D02*
X124333000Y-98933000D01*
X59665000Y-86741000D02*
X62611000Y-86741000D01*
X62611000Y-86741000D02*
X62865000Y-86995000D01*
X137795000Y-86487000D02*
X139204000Y-86487000D01*
X139204000Y-86487000D02*
X139319000Y-86372000D01*
X172216000Y-97299000D02*
X170163000Y-97299000D01*
X170163000Y-97299000D02*
X170053000Y-97409000D01*
D25*
X135195000Y-86980000D02*
X135195000Y-85792000D01*
X135195000Y-85792000D02*
X133858000Y-84455000D01*
X125745000Y-83530000D02*
X130266000Y-83530000D01*
X130266000Y-83530000D02*
X131191000Y-84455000D01*
X127695000Y-75580000D02*
X127320000Y-75580000D01*
X127320000Y-75580000D02*
X126585000Y-76315000D01*
X123190000Y-76315000D02*
X124905000Y-76315000D01*
X124905000Y-76315000D02*
X125745000Y-77155000D01*
X125745000Y-77155000D02*
X125745000Y-77530000D01*
D26*
X139319000Y-86372000D02*
X141478000Y-86372000D01*
D25*
X135195000Y-86980000D02*
X138711000Y-86980000D01*
X138711000Y-86980000D02*
X139319000Y-86372000D01*
X125745000Y-83530000D02*
X122554000Y-83530000D01*
X122554000Y-83530000D02*
X121158000Y-84926000D01*
X121158000Y-84926000D02*
X121158000Y-84951000D01*
X101806530Y-87323033D02*
X102791162Y-86338401D01*
X88906000Y-90436000D02*
X88906000Y-89136000D01*
X104715988Y-86338401D02*
X105382586Y-87004999D01*
X105382586Y-87004999D02*
X108250001Y-87004999D01*
X109226000Y-87980998D02*
X109226000Y-89136000D01*
X90718967Y-87323033D02*
X101806530Y-87323033D01*
X102791162Y-86338401D02*
X104715988Y-86338401D01*
X108250001Y-87004999D02*
X109226000Y-87980998D01*
X109226000Y-89136000D02*
X109226000Y-90436000D01*
X88906000Y-89136000D02*
X90718967Y-87323033D01*
X108206000Y-87886000D02*
X107950000Y-87630000D01*
X108206000Y-90436000D02*
X108206000Y-87886000D01*
X107330735Y-86554987D02*
X107525736Y-86359986D01*
X105568985Y-86554987D02*
X107330735Y-86554987D01*
X104871020Y-85857022D02*
X105568985Y-86554987D01*
X91164978Y-85857022D02*
X104871020Y-85857022D01*
X87886000Y-89136000D02*
X91164978Y-85857022D01*
X87886000Y-90436000D02*
X87886000Y-89136000D01*
X107525736Y-86359986D02*
X107950000Y-86359986D01*
X120032428Y-90955066D02*
X115007339Y-85929977D01*
X108444979Y-85929977D02*
X108144980Y-85629978D01*
X108144980Y-85629978D02*
X106451767Y-85629978D01*
X115007339Y-85929977D02*
X108444979Y-85929977D01*
X106451767Y-85629978D02*
X106151768Y-85929977D01*
X89683999Y-85298001D02*
X105519792Y-85298001D01*
X106166000Y-90436000D02*
X106166000Y-87751000D01*
X106166000Y-87751000D02*
X106045000Y-87630000D01*
X105519792Y-85298001D02*
X105851769Y-85629978D01*
X105851769Y-85629978D02*
X106151768Y-85929977D01*
X85846000Y-89136000D02*
X89683999Y-85298001D01*
X85846000Y-90436000D02*
X85846000Y-89136000D01*
X121793000Y-98933000D02*
X121793000Y-97833000D01*
X121793000Y-97833000D02*
X120032428Y-96072428D01*
X120032428Y-96072428D02*
X120032428Y-90955066D01*
X132195000Y-88144870D02*
X129413000Y-90926870D01*
X129384804Y-90955066D02*
X129413000Y-90926870D01*
X120032428Y-90955066D02*
X129384804Y-90955066D01*
X132195000Y-86980000D02*
X132195000Y-88144870D01*
X121793000Y-98546870D02*
X121793000Y-98933000D01*
X127081001Y-80726000D02*
X127381000Y-81025999D01*
X126885001Y-80530000D02*
X127081001Y-80726000D01*
X125745000Y-80530000D02*
X126885001Y-80530000D01*
X105620736Y-81788000D02*
X106045000Y-81788000D01*
X82343000Y-81788000D02*
X105620736Y-81788000D01*
X66065000Y-96901000D02*
X67230000Y-96901000D01*
X67230000Y-96901000D02*
X82343000Y-81788000D01*
D26*
X149592000Y-96903000D02*
X157099000Y-96903000D01*
D25*
X163195000Y-97299000D02*
X162687000Y-97299000D01*
D26*
X163195000Y-97299000D02*
X167636000Y-97299000D01*
X162687000Y-97299000D02*
X162291000Y-96903000D01*
X162291000Y-96903000D02*
X157099000Y-96903000D01*
D25*
X149592000Y-96903000D02*
X149340000Y-97155000D01*
X109284780Y-79571010D02*
X66466009Y-79571009D01*
X66466009Y-79571009D02*
X58160000Y-71265000D01*
X58160000Y-71265000D02*
X58160000Y-69965000D01*
X131695000Y-86980000D02*
X131695000Y-88008460D01*
X131695000Y-88008460D02*
X129198400Y-90505058D01*
X129198400Y-90505058D02*
X120218827Y-90505057D01*
X120218827Y-90505057D02*
X109284780Y-79571010D01*
X130695000Y-86980000D02*
X130695000Y-88372050D01*
X130695000Y-88372050D02*
X129012001Y-90055049D01*
X129012001Y-90055049D02*
X120405228Y-90055048D01*
X120405228Y-90055048D02*
X109471180Y-79121000D01*
X109471180Y-79121000D02*
X67036000Y-79121000D01*
X67036000Y-79121000D02*
X59180000Y-71265000D01*
X59180000Y-71265000D02*
X59180000Y-69965000D01*
X130195000Y-86980000D02*
X130195000Y-88235639D01*
X130195000Y-88235639D02*
X128825600Y-89605040D01*
X128825600Y-89605040D02*
X120591629Y-89605039D01*
X120591629Y-89605039D02*
X109472590Y-78486000D01*
X109472590Y-78486000D02*
X67421000Y-78486000D01*
X67421000Y-78486000D02*
X60200000Y-71265000D01*
X60200000Y-71265000D02*
X60200000Y-69965000D01*
X129695000Y-86980000D02*
X129695000Y-88099229D01*
X120778030Y-89155030D02*
X109601000Y-77978000D01*
X129695000Y-88099229D02*
X128639200Y-89155030D01*
X128639200Y-89155030D02*
X120778030Y-89155030D01*
X109601000Y-77978000D02*
X67933000Y-77978000D01*
X67933000Y-77978000D02*
X61220000Y-71265000D01*
X61220000Y-71265000D02*
X61220000Y-69965000D01*
X129195000Y-86980000D02*
X129195000Y-87962822D01*
X129195000Y-87962822D02*
X128452800Y-88705020D01*
X128452800Y-88705020D02*
X120979189Y-88705020D01*
X120979189Y-88705020D02*
X109744169Y-77470000D01*
X109744169Y-77470000D02*
X68445000Y-77470000D01*
X68445000Y-77470000D02*
X62240000Y-71265000D01*
X62240000Y-71265000D02*
X62240000Y-69965000D01*
X128695000Y-86980000D02*
X128695000Y-87730000D01*
X128266401Y-88255010D02*
X121165589Y-88255010D01*
X128695000Y-87730000D02*
X128741421Y-87776421D01*
X128741421Y-87776421D02*
X128744990Y-87776421D01*
X128744990Y-87776421D02*
X128266401Y-88255010D01*
X121165589Y-88255010D02*
X119963797Y-87053218D01*
X119963797Y-87053218D02*
X119963797Y-87026030D01*
X119963797Y-87026030D02*
X109899767Y-76962000D01*
X109899767Y-76962000D02*
X68957000Y-76962000D01*
X68957000Y-76962000D02*
X63260000Y-71265000D01*
X63260000Y-71265000D02*
X63260000Y-69965000D01*
X128195000Y-86980000D02*
X128195000Y-87578000D01*
X128195000Y-87578000D02*
X127967999Y-87805001D01*
X127967999Y-87805001D02*
X121379178Y-87805001D01*
X121379178Y-87805001D02*
X110028177Y-76454000D01*
X110028177Y-76454000D02*
X83669000Y-76454000D01*
X83669000Y-76454000D02*
X78480000Y-71265000D01*
X78480000Y-71265000D02*
X78480000Y-69965000D01*
X123575413Y-84530000D02*
X121979401Y-86126012D01*
X79500000Y-71265000D02*
X79500000Y-69965000D01*
X125745000Y-84530000D02*
X123575413Y-84530000D01*
X121979401Y-86126012D02*
X120336599Y-86126012D01*
X120336599Y-86126012D02*
X110156587Y-75946000D01*
X110156587Y-75946000D02*
X84181000Y-75946000D01*
X84181000Y-75946000D02*
X79500000Y-71265000D01*
X84729579Y-75495989D02*
X80520000Y-71286410D01*
X120522999Y-85676001D02*
X110342987Y-75495989D01*
X121793001Y-85676001D02*
X120522999Y-85676001D01*
X125745000Y-84030000D02*
X123439002Y-84030000D01*
X80520000Y-71265000D02*
X80520000Y-69965000D01*
X80520000Y-71286410D02*
X80520000Y-71265000D01*
X123439002Y-84030000D02*
X121793001Y-85676001D01*
X110342987Y-75495989D02*
X84729579Y-75495989D01*
X118013409Y-82530000D02*
X110529387Y-75045978D01*
X81540000Y-71265000D02*
X81540000Y-69965000D01*
X125745000Y-82530000D02*
X118013409Y-82530000D01*
X85320978Y-75045978D02*
X81540000Y-71265000D01*
X110529387Y-75045978D02*
X85320978Y-75045978D01*
X85890967Y-74595967D02*
X82560000Y-71265000D01*
X118149820Y-82030000D02*
X110715787Y-74595967D01*
X125745000Y-82030000D02*
X118149820Y-82030000D01*
X82560000Y-71265000D02*
X82560000Y-69965000D01*
X110715787Y-74595967D02*
X85890967Y-74595967D01*
X86460956Y-74145956D02*
X83580000Y-71265000D01*
X83580000Y-71265000D02*
X83580000Y-69965000D01*
X110902187Y-74145956D02*
X86460956Y-74145956D01*
X118286231Y-81530000D02*
X110902187Y-74145956D01*
X125745000Y-81530000D02*
X118286231Y-81530000D01*
X118422642Y-81030000D02*
X111088587Y-73695945D01*
X111088587Y-73695945D02*
X101230945Y-73695945D01*
X125745000Y-81030000D02*
X118422642Y-81030000D01*
X101230945Y-73695945D02*
X98800000Y-71265000D01*
X98800000Y-71265000D02*
X98800000Y-69965000D01*
X111274987Y-73245934D02*
X101800934Y-73245934D01*
X125745000Y-80030000D02*
X118059053Y-80030000D01*
X99820000Y-71265000D02*
X99820000Y-69965000D01*
X118059053Y-80030000D02*
X111274987Y-73245934D01*
X101800934Y-73245934D02*
X99820000Y-71265000D01*
X111461387Y-72795923D02*
X102370923Y-72795923D01*
X100840000Y-71265000D02*
X100840000Y-69965000D01*
X118195464Y-79530000D02*
X111461387Y-72795923D01*
X102370923Y-72795923D02*
X100840000Y-71265000D01*
X125745000Y-79530000D02*
X118195464Y-79530000D01*
X111647787Y-72345912D02*
X102940912Y-72345912D01*
X118331875Y-79030000D02*
X111647787Y-72345912D01*
X125745000Y-79030000D02*
X118331875Y-79030000D01*
X101860000Y-71265000D02*
X101860000Y-69965000D01*
X102940912Y-72345912D02*
X101860000Y-71265000D01*
X118468286Y-78530000D02*
X111834187Y-71895901D01*
X125745000Y-78530000D02*
X118468286Y-78530000D01*
X111834187Y-71895901D02*
X103510901Y-71895901D01*
X103510901Y-71895901D02*
X102880000Y-71265000D01*
X102880000Y-71265000D02*
X102880000Y-69965000D01*
X104080890Y-71445890D02*
X103900000Y-71265000D01*
X103900000Y-71265000D02*
X103900000Y-69965000D01*
X112020587Y-71445890D02*
X104080890Y-71445890D01*
X125745000Y-78030000D02*
X118604697Y-78030000D01*
X118604697Y-78030000D02*
X112020587Y-71445890D01*
X130195000Y-75580000D02*
X130195000Y-74830000D01*
X119120000Y-71265000D02*
X119120000Y-69965000D01*
X130195000Y-74830000D02*
X128978028Y-73613028D01*
X128978028Y-73613028D02*
X121468028Y-73613028D01*
X121468028Y-73613028D02*
X119120000Y-71265000D01*
X130683000Y-74818000D02*
X130683000Y-73279000D01*
X130683000Y-73279000D02*
X130567019Y-73163019D01*
X130567019Y-73163019D02*
X122038019Y-73163019D01*
X120140000Y-71265000D02*
X120140000Y-69965000D01*
X122038019Y-73163019D02*
X120140000Y-71265000D01*
X130695000Y-75580000D02*
X130695000Y-74830000D01*
X130695000Y-74830000D02*
X130683000Y-74818000D01*
X131195000Y-72903410D02*
X131004600Y-72713010D01*
X131004600Y-72713010D02*
X122608010Y-72713010D01*
X121160000Y-71265000D02*
X121160000Y-69965000D01*
X122608010Y-72713010D02*
X121160000Y-71265000D01*
X131195000Y-75580000D02*
X131195000Y-72903410D01*
X131695000Y-75580000D02*
X131695000Y-72767000D01*
X131695000Y-72767000D02*
X131191000Y-72263000D01*
X123317000Y-72263000D02*
X122180000Y-71126000D01*
X131191000Y-72263000D02*
X123317000Y-72263000D01*
X122180000Y-71126000D02*
X122180000Y-69965000D01*
X123200000Y-71265000D02*
X123200000Y-69965000D01*
X123747991Y-71812991D02*
X123200000Y-71265000D01*
X132195000Y-72630589D02*
X131377402Y-71812991D01*
X131377402Y-71812991D02*
X123747991Y-71812991D01*
X132195000Y-75580000D02*
X132195000Y-72630589D01*
X133195000Y-75580000D02*
X133195000Y-72994179D01*
X124220000Y-71265000D02*
X124220000Y-69965000D01*
X133195000Y-72994179D02*
X131563801Y-71362980D01*
X124317980Y-71362980D02*
X124220000Y-71265000D01*
X131563801Y-71362980D02*
X124317980Y-71362980D01*
X133695000Y-75580000D02*
X133695000Y-73569000D01*
X133695000Y-73569000D02*
X133858000Y-73406000D01*
X133858000Y-73406000D02*
X137299000Y-73406000D01*
X137299000Y-73406000D02*
X139440000Y-71265000D01*
X139440000Y-71265000D02*
X139440000Y-69965000D01*
X137868989Y-73856011D02*
X140460000Y-71265000D01*
X134195000Y-73898433D02*
X134237422Y-73856011D01*
X134195000Y-75580000D02*
X134195000Y-73898433D01*
X140460000Y-71265000D02*
X140460000Y-69965000D01*
X134237422Y-73856011D02*
X137868989Y-73856011D01*
X141480000Y-71265000D02*
X141480000Y-69965000D01*
X138438978Y-74306022D02*
X141480000Y-71265000D01*
X134695000Y-74830000D02*
X135218978Y-74306022D01*
X135218978Y-74306022D02*
X138438978Y-74306022D01*
X134695000Y-75580000D02*
X134695000Y-74830000D01*
X75485000Y-81026000D02*
X107144736Y-81026000D01*
X107144736Y-81026000D02*
X107569000Y-81026000D01*
X67230000Y-89281000D02*
X75485000Y-81026000D01*
X66065000Y-89281000D02*
X67230000Y-89281000D01*
X133547000Y-77978000D02*
X129964262Y-77978000D01*
X135195000Y-75580000D02*
X135195000Y-76330000D01*
X135195000Y-76330000D02*
X133547000Y-77978000D01*
X129964262Y-77978000D02*
X129539998Y-77978000D01*
X135195000Y-75580000D02*
X138185000Y-75580000D01*
X142500000Y-71265000D02*
X142500000Y-69965000D01*
X138185000Y-75580000D02*
X142500000Y-71265000D01*
X137145000Y-77530000D02*
X137895000Y-77530000D01*
X137895000Y-77530000D02*
X143520000Y-71905000D01*
X143520000Y-71905000D02*
X143520000Y-71265000D01*
X143520000Y-71265000D02*
X143520000Y-69965000D01*
X137145000Y-78030000D02*
X138124000Y-78030000D01*
X138124000Y-78030000D02*
X144540000Y-71614000D01*
X144540000Y-71614000D02*
X144540000Y-71265000D01*
X144540000Y-71265000D02*
X144540000Y-69965000D01*
X74510999Y-80345001D02*
X108412001Y-80345001D01*
X68115000Y-86741000D02*
X74510999Y-80345001D01*
X66065000Y-86741000D02*
X68115000Y-86741000D01*
X108412001Y-80345001D02*
X108712000Y-80645000D01*
X137145000Y-78530000D02*
X136100000Y-78530000D01*
X136100000Y-78530000D02*
X134620000Y-80010000D01*
X134620000Y-80010000D02*
X129540000Y-80010000D01*
X129540000Y-80010000D02*
X129413000Y-80137000D01*
X137145000Y-78530000D02*
X152495000Y-78530000D01*
X152495000Y-78530000D02*
X159760000Y-71265000D01*
X159760000Y-71265000D02*
X159760000Y-69965000D01*
X160780000Y-70976657D02*
X160780000Y-69965000D01*
X152726657Y-79030000D02*
X160780000Y-70976657D01*
X137145000Y-79030000D02*
X152726657Y-79030000D01*
X161800000Y-71265000D02*
X161800000Y-69965000D01*
X137145000Y-79530000D02*
X152863067Y-79530000D01*
X161038231Y-71354835D02*
X161710165Y-71354835D01*
X152863067Y-79530000D02*
X161038231Y-71354835D01*
X161710165Y-71354835D02*
X161800000Y-71265000D01*
X162820000Y-71265000D02*
X162820000Y-69965000D01*
X162280154Y-71804846D02*
X162820000Y-71265000D01*
X137145000Y-80030000D02*
X152999478Y-80030000D01*
X161224631Y-71804846D02*
X162280154Y-71804846D01*
X152999478Y-80030000D02*
X161224631Y-71804846D01*
X137145000Y-80530000D02*
X153135889Y-80530000D01*
X162850143Y-72254857D02*
X163840000Y-71265000D01*
X161411031Y-72254857D02*
X162850143Y-72254857D01*
X163840000Y-71265000D02*
X163840000Y-69965000D01*
X153135889Y-80530000D02*
X161411031Y-72254857D01*
X164860000Y-71265000D02*
X164860000Y-69965000D01*
X161597431Y-72704868D02*
X163420132Y-72704868D01*
X153272300Y-81030000D02*
X161597431Y-72704868D01*
X137145000Y-81030000D02*
X153272300Y-81030000D01*
X163420132Y-72704868D02*
X164860000Y-71265000D01*
X137145000Y-81530000D02*
X153408711Y-81530000D01*
X178190121Y-73154879D02*
X180080000Y-71265000D01*
X180080000Y-71265000D02*
X180080000Y-69965000D01*
X153408711Y-81530000D02*
X161783831Y-73154879D01*
X161783831Y-73154879D02*
X178190121Y-73154879D01*
X181100000Y-71265000D02*
X181100000Y-69965000D01*
X153545121Y-82030000D02*
X161970231Y-73604890D01*
X161970231Y-73604890D02*
X178760110Y-73604890D01*
X178760110Y-73604890D02*
X181100000Y-71265000D01*
X137145000Y-82030000D02*
X153545121Y-82030000D01*
X137145000Y-82530000D02*
X153681532Y-82530000D01*
X153681532Y-82530000D02*
X162156631Y-74054901D01*
X162156631Y-74054901D02*
X179330099Y-74054901D01*
X182120000Y-71265000D02*
X182120000Y-69965000D01*
X179330099Y-74054901D02*
X182120000Y-71265000D01*
X162343031Y-74504912D02*
X179900088Y-74504912D01*
X179900088Y-74504912D02*
X183140000Y-71265000D01*
X137145000Y-83030000D02*
X153817944Y-83030000D01*
X183140000Y-71265000D02*
X183140000Y-69965000D01*
X153817944Y-83030000D02*
X162343031Y-74504912D01*
X180470077Y-74954923D02*
X184160000Y-71265000D01*
X184160000Y-71265000D02*
X184160000Y-69965000D01*
X137145000Y-83530000D02*
X153954355Y-83530000D01*
X162529431Y-74954923D02*
X180470077Y-74954923D01*
X153954355Y-83530000D02*
X162529431Y-74954923D01*
X185180000Y-71265000D02*
X185180000Y-69965000D01*
X181040066Y-75404934D02*
X185180000Y-71265000D01*
X154090766Y-84030000D02*
X162715831Y-75404934D01*
X137145000Y-84030000D02*
X154090766Y-84030000D01*
X162715831Y-75404934D02*
X181040066Y-75404934D01*
X162902231Y-75854945D02*
X195810055Y-75854945D01*
X137145000Y-84530000D02*
X154227177Y-84530000D01*
X200400000Y-71265000D02*
X200400000Y-69965000D01*
X154227177Y-84530000D02*
X162902231Y-75854945D01*
X195810055Y-75854945D02*
X200400000Y-71265000D01*
X154363588Y-85030000D02*
X163088631Y-76304956D01*
X163088631Y-76304956D02*
X196380044Y-76304956D01*
X201420000Y-71265000D02*
X201420000Y-69965000D01*
X137145000Y-85030000D02*
X154363588Y-85030000D01*
X196380044Y-76304956D02*
X201420000Y-71265000D01*
X137540998Y-91312998D02*
X148717001Y-91312998D01*
X202440000Y-72007000D02*
X202440000Y-71265000D01*
X134195000Y-87967000D02*
X137540998Y-91312998D01*
X197692033Y-76754967D02*
X202440000Y-72007000D01*
X134195000Y-86980000D02*
X134195000Y-87967000D01*
X163275031Y-76754967D02*
X197692033Y-76754967D01*
X148717001Y-91312998D02*
X163275031Y-76754967D01*
X202440000Y-71265000D02*
X202440000Y-69965000D01*
X203460000Y-71623410D02*
X203460000Y-71265000D01*
X203460000Y-71265000D02*
X203460000Y-69965000D01*
X148903401Y-91763009D02*
X163461431Y-77204978D01*
X133695000Y-88103411D02*
X137354598Y-91763009D01*
X137354598Y-91763009D02*
X148903401Y-91763009D01*
X197878433Y-77204978D02*
X203460000Y-71623410D01*
X163461431Y-77204978D02*
X197878433Y-77204978D01*
X133695000Y-86980000D02*
X133695000Y-88103411D01*
X198090011Y-77654989D02*
X204480000Y-71265000D01*
X149089801Y-92213020D02*
X163647831Y-77654989D01*
X163647831Y-77654989D02*
X198090011Y-77654989D01*
X137168198Y-92213020D02*
X149089801Y-92213020D01*
X133195000Y-88239822D02*
X137168198Y-92213020D01*
X133195000Y-86980000D02*
X133195000Y-88239822D01*
X204480000Y-71265000D02*
X204480000Y-69965000D01*
X205500000Y-71265000D02*
X205500000Y-69965000D01*
X198660000Y-78105000D02*
X205500000Y-71265000D01*
X163834231Y-78105000D02*
X198660000Y-78105000D01*
X149276201Y-92663031D02*
X163834231Y-78105000D01*
X132695000Y-86980000D02*
X132695000Y-88376233D01*
X132695000Y-88376233D02*
X136981798Y-92663031D01*
X136981798Y-92663031D02*
X149276201Y-92663031D01*
X125745000Y-85030000D02*
X127067000Y-85030000D01*
X127067000Y-85030000D02*
X127508000Y-85471000D01*
X127695000Y-86980000D02*
X126761000Y-86980000D01*
X126761000Y-86980000D02*
X126746000Y-86995000D01*
D27*
G36*
X103005000Y-87249000D02*
X103005000Y-88751000D01*
X102978998Y-88751000D01*
X102978998Y-88909748D01*
X102820250Y-88751000D01*
X102679691Y-88751000D01*
X102446302Y-88847673D01*
X102267673Y-89026301D01*
X102171000Y-89259690D01*
X102171000Y-90150250D01*
X102329748Y-90308998D01*
X102209331Y-90308998D01*
X101990481Y-89779343D01*
X101545003Y-89333086D01*
X100962659Y-89091276D01*
X100332107Y-89090725D01*
X99749343Y-89331519D01*
X99303086Y-89776997D01*
X99061276Y-90359341D01*
X99060725Y-90989893D01*
X99301519Y-91572657D01*
X99746997Y-92018914D01*
X99781626Y-92033293D01*
X99677295Y-92054046D01*
X99446954Y-92207954D01*
X99293046Y-92438295D01*
X99239000Y-92710000D01*
X99239000Y-94960975D01*
X99155698Y-94877673D01*
X98922309Y-94781000D01*
X98331750Y-94781000D01*
X98173000Y-94939750D01*
X98173000Y-96318234D01*
X97919000Y-96337520D01*
X97919000Y-94939750D01*
X97760250Y-94781000D01*
X97169691Y-94781000D01*
X96936302Y-94877673D01*
X96757673Y-95056301D01*
X96661000Y-95289690D01*
X96661000Y-97130250D01*
X96819750Y-97289000D01*
X96948234Y-97289000D01*
X96967520Y-97543000D01*
X96819750Y-97543000D01*
X96661000Y-97701750D01*
X96661000Y-99542310D01*
X96757673Y-99775699D01*
X96936302Y-99954327D01*
X97169691Y-100051000D01*
X97760250Y-100051000D01*
X97919000Y-99892250D01*
X97919000Y-98513766D01*
X98173000Y-98494480D01*
X98173000Y-99892250D01*
X98331750Y-100051000D01*
X98922309Y-100051000D01*
X99155698Y-99954327D01*
X99239000Y-99871025D01*
X99239000Y-100128000D01*
X93801000Y-100128000D01*
X93801000Y-99989410D01*
X93949691Y-100051000D01*
X94540250Y-100051000D01*
X94699000Y-99892250D01*
X94699000Y-98513766D01*
X94953000Y-98494480D01*
X94953000Y-99892250D01*
X95111750Y-100051000D01*
X95702309Y-100051000D01*
X95935698Y-99954327D01*
X96114327Y-99775699D01*
X96211000Y-99542310D01*
X96211000Y-97701750D01*
X96052250Y-97543000D01*
X95923766Y-97543000D01*
X95904480Y-97289000D01*
X96052250Y-97289000D01*
X96211000Y-97130250D01*
X96211000Y-95289690D01*
X96114327Y-95056301D01*
X95935698Y-94877673D01*
X95702309Y-94781000D01*
X95111750Y-94781000D01*
X94953000Y-94939750D01*
X94953000Y-96318234D01*
X94699000Y-96337520D01*
X94699000Y-94939750D01*
X94540250Y-94781000D01*
X93949691Y-94781000D01*
X93801000Y-94842590D01*
X93801000Y-92710000D01*
X93746954Y-92438295D01*
X93593046Y-92207954D01*
X93362705Y-92054046D01*
X93206582Y-92022991D01*
X93212657Y-92020481D01*
X93658914Y-91575003D01*
X93900724Y-90992659D01*
X93901275Y-90362107D01*
X93660481Y-89779343D01*
X93215003Y-89333086D01*
X92632659Y-89091276D01*
X92002107Y-89090725D01*
X91419343Y-89331519D01*
X90973086Y-89776997D01*
X90861000Y-90046930D01*
X90861000Y-89259690D01*
X90764327Y-89026301D01*
X90585698Y-88847673D01*
X90361850Y-88754952D01*
X91033769Y-88083033D01*
X101806530Y-88083033D01*
X102097369Y-88025181D01*
X102343931Y-87860434D01*
X103017325Y-87187040D01*
X103005000Y-87249000D01*
X103005000Y-87249000D01*
G37*
X103005000Y-87249000D02*
X103005000Y-88751000D01*
X102978998Y-88751000D01*
X102978998Y-88909748D01*
X102820250Y-88751000D01*
X102679691Y-88751000D01*
X102446302Y-88847673D01*
X102267673Y-89026301D01*
X102171000Y-89259690D01*
X102171000Y-90150250D01*
X102329748Y-90308998D01*
X102209331Y-90308998D01*
X101990481Y-89779343D01*
X101545003Y-89333086D01*
X100962659Y-89091276D01*
X100332107Y-89090725D01*
X99749343Y-89331519D01*
X99303086Y-89776997D01*
X99061276Y-90359341D01*
X99060725Y-90989893D01*
X99301519Y-91572657D01*
X99746997Y-92018914D01*
X99781626Y-92033293D01*
X99677295Y-92054046D01*
X99446954Y-92207954D01*
X99293046Y-92438295D01*
X99239000Y-92710000D01*
X99239000Y-94960975D01*
X99155698Y-94877673D01*
X98922309Y-94781000D01*
X98331750Y-94781000D01*
X98173000Y-94939750D01*
X98173000Y-96318234D01*
X97919000Y-96337520D01*
X97919000Y-94939750D01*
X97760250Y-94781000D01*
X97169691Y-94781000D01*
X96936302Y-94877673D01*
X96757673Y-95056301D01*
X96661000Y-95289690D01*
X96661000Y-97130250D01*
X96819750Y-97289000D01*
X96948234Y-97289000D01*
X96967520Y-97543000D01*
X96819750Y-97543000D01*
X96661000Y-97701750D01*
X96661000Y-99542310D01*
X96757673Y-99775699D01*
X96936302Y-99954327D01*
X97169691Y-100051000D01*
X97760250Y-100051000D01*
X97919000Y-99892250D01*
X97919000Y-98513766D01*
X98173000Y-98494480D01*
X98173000Y-99892250D01*
X98331750Y-100051000D01*
X98922309Y-100051000D01*
X99155698Y-99954327D01*
X99239000Y-99871025D01*
X99239000Y-100128000D01*
X93801000Y-100128000D01*
X93801000Y-99989410D01*
X93949691Y-100051000D01*
X94540250Y-100051000D01*
X94699000Y-99892250D01*
X94699000Y-98513766D01*
X94953000Y-98494480D01*
X94953000Y-99892250D01*
X95111750Y-100051000D01*
X95702309Y-100051000D01*
X95935698Y-99954327D01*
X96114327Y-99775699D01*
X96211000Y-99542310D01*
X96211000Y-97701750D01*
X96052250Y-97543000D01*
X95923766Y-97543000D01*
X95904480Y-97289000D01*
X96052250Y-97289000D01*
X96211000Y-97130250D01*
X96211000Y-95289690D01*
X96114327Y-95056301D01*
X95935698Y-94877673D01*
X95702309Y-94781000D01*
X95111750Y-94781000D01*
X94953000Y-94939750D01*
X94953000Y-96318234D01*
X94699000Y-96337520D01*
X94699000Y-94939750D01*
X94540250Y-94781000D01*
X93949691Y-94781000D01*
X93801000Y-94842590D01*
X93801000Y-92710000D01*
X93746954Y-92438295D01*
X93593046Y-92207954D01*
X93362705Y-92054046D01*
X93206582Y-92022991D01*
X93212657Y-92020481D01*
X93658914Y-91575003D01*
X93900724Y-90992659D01*
X93901275Y-90362107D01*
X93660481Y-89779343D01*
X93215003Y-89333086D01*
X92632659Y-89091276D01*
X92002107Y-89090725D01*
X91419343Y-89331519D01*
X90973086Y-89776997D01*
X90861000Y-90046930D01*
X90861000Y-89259690D01*
X90764327Y-89026301D01*
X90585698Y-88847673D01*
X90361850Y-88754952D01*
X91033769Y-88083033D01*
X101806530Y-88083033D01*
X102097369Y-88025181D01*
X102343931Y-87860434D01*
X103017325Y-87187040D01*
X103005000Y-87249000D01*
G36*
X53265000Y-60411590D02*
X53116309Y-60350000D01*
X52525750Y-60350000D01*
X52367000Y-60508750D01*
X52367000Y-61887234D01*
X52113000Y-61906520D01*
X52113000Y-60508750D01*
X51954250Y-60350000D01*
X51363691Y-60350000D01*
X51130302Y-60446673D01*
X50951673Y-60625301D01*
X50855000Y-60858690D01*
X50855000Y-62699250D01*
X51013750Y-62858000D01*
X51142234Y-62858000D01*
X51161520Y-63112000D01*
X51013750Y-63112000D01*
X50855000Y-63270750D01*
X50855000Y-65111310D01*
X50951673Y-65344699D01*
X51130302Y-65523327D01*
X51363691Y-65620000D01*
X51954250Y-65620000D01*
X52113000Y-65461250D01*
X52113000Y-64082766D01*
X52367000Y-64063480D01*
X52367000Y-65461250D01*
X52525750Y-65620000D01*
X53116309Y-65620000D01*
X53265000Y-65558410D01*
X53265000Y-67691000D01*
X53319046Y-67962705D01*
X53472954Y-68193046D01*
X53703295Y-68346954D01*
X53859418Y-68378009D01*
X53853343Y-68380519D01*
X53407086Y-68825997D01*
X53165276Y-69408341D01*
X53164725Y-70038893D01*
X53405519Y-70621657D01*
X53850997Y-71067914D01*
X54433341Y-71309724D01*
X55063893Y-71310275D01*
X55646657Y-71069481D01*
X56005000Y-70711764D01*
X56005000Y-72126000D01*
X56091397Y-72560346D01*
X56286961Y-72853028D01*
X56337434Y-72928566D01*
X56728434Y-73319567D01*
X57096655Y-73565604D01*
X57531000Y-73652000D01*
X57965346Y-73565604D01*
X58333567Y-73319567D01*
X58579604Y-72951346D01*
X58611449Y-72791251D01*
X65928608Y-80108410D01*
X66175170Y-80273157D01*
X66466009Y-80331009D01*
X73450189Y-80331009D01*
X68208818Y-85572380D01*
X68116890Y-85509569D01*
X67865000Y-85458560D01*
X64265000Y-85458560D01*
X64029683Y-85502838D01*
X63813559Y-85641910D01*
X63668569Y-85854110D01*
X63617560Y-86106000D01*
X63617560Y-86142428D01*
X63413566Y-85938434D01*
X63321381Y-85876838D01*
X63045346Y-85692397D01*
X62611000Y-85606000D01*
X61858022Y-85606000D01*
X61716890Y-85509569D01*
X61465000Y-85458560D01*
X57865000Y-85458560D01*
X57629683Y-85502838D01*
X57413559Y-85641910D01*
X57268569Y-85854110D01*
X57217560Y-86106000D01*
X57217560Y-87376000D01*
X57261838Y-87611317D01*
X57400910Y-87827441D01*
X57613110Y-87972431D01*
X57803569Y-88011000D01*
X57738690Y-88011000D01*
X57505301Y-88107673D01*
X57326673Y-88286302D01*
X57230000Y-88519691D01*
X57230000Y-88995250D01*
X57388750Y-89154000D01*
X59538000Y-89154000D01*
X59538000Y-89134000D01*
X59792000Y-89134000D01*
X59792000Y-89154000D01*
X61941250Y-89154000D01*
X62100000Y-88995250D01*
X62100000Y-88519691D01*
X62003327Y-88286302D01*
X61824699Y-88107673D01*
X61591310Y-88011000D01*
X61531113Y-88011000D01*
X61700317Y-87979162D01*
X61860635Y-87876000D01*
X62179819Y-87876000D01*
X62430655Y-88043603D01*
X62865000Y-88130000D01*
X63299345Y-88043603D01*
X63667566Y-87797566D01*
X63725700Y-87710562D01*
X63800910Y-87827441D01*
X64013110Y-87972431D01*
X64201314Y-88010543D01*
X64029683Y-88042838D01*
X63813559Y-88181910D01*
X63668569Y-88394110D01*
X63617560Y-88646000D01*
X63617560Y-89916000D01*
X63661838Y-90151317D01*
X63800910Y-90367441D01*
X64013110Y-90512431D01*
X64201314Y-90550543D01*
X64029683Y-90582838D01*
X63813559Y-90721910D01*
X63668569Y-90934110D01*
X63617560Y-91186000D01*
X63617560Y-92456000D01*
X63661838Y-92691317D01*
X63800910Y-92907441D01*
X64013110Y-93052431D01*
X64201314Y-93090543D01*
X64029683Y-93122838D01*
X63813559Y-93261910D01*
X63668569Y-93474110D01*
X63617560Y-93726000D01*
X63617560Y-94996000D01*
X63661838Y-95231317D01*
X63800910Y-95447441D01*
X64013110Y-95592431D01*
X64201314Y-95630543D01*
X64029683Y-95662838D01*
X63813559Y-95801910D01*
X63668569Y-96014110D01*
X63617560Y-96266000D01*
X63617560Y-97536000D01*
X63661838Y-97771317D01*
X63800910Y-97987441D01*
X64013110Y-98132431D01*
X64265000Y-98183440D01*
X67865000Y-98183440D01*
X68100317Y-98139162D01*
X68316441Y-98000090D01*
X68461431Y-97787890D01*
X68512440Y-97536000D01*
X68512440Y-96693362D01*
X82657802Y-82548000D01*
X88038868Y-82548000D01*
X83003434Y-87583434D01*
X82757397Y-87951654D01*
X82671000Y-88386000D01*
X82671000Y-88751000D01*
X82658998Y-88751000D01*
X82658998Y-88909748D01*
X82500250Y-88751000D01*
X82359691Y-88751000D01*
X82126302Y-88847673D01*
X81947673Y-89026301D01*
X81851000Y-89259690D01*
X81851000Y-90150250D01*
X82009748Y-90308998D01*
X81889331Y-90308998D01*
X81670481Y-89779343D01*
X81225003Y-89333086D01*
X80642659Y-89091276D01*
X80012107Y-89090725D01*
X79429343Y-89331519D01*
X78983086Y-89776997D01*
X78741276Y-90359341D01*
X78740725Y-90989893D01*
X78981519Y-91572657D01*
X79426997Y-92018914D01*
X79461626Y-92033293D01*
X79357295Y-92054046D01*
X79126954Y-92207954D01*
X78973046Y-92438295D01*
X78919000Y-92710000D01*
X78919000Y-94960975D01*
X78835698Y-94877673D01*
X78602309Y-94781000D01*
X78011750Y-94781000D01*
X77853000Y-94939750D01*
X77853000Y-96318234D01*
X77599000Y-96337520D01*
X77599000Y-94939750D01*
X77440250Y-94781000D01*
X76849691Y-94781000D01*
X76616302Y-94877673D01*
X76437673Y-95056301D01*
X76341000Y-95289690D01*
X76341000Y-97130250D01*
X76499750Y-97289000D01*
X76628234Y-97289000D01*
X76647520Y-97543000D01*
X76499750Y-97543000D01*
X76341000Y-97701750D01*
X76341000Y-99542310D01*
X76437673Y-99775699D01*
X76616302Y-99954327D01*
X76849691Y-100051000D01*
X77440250Y-100051000D01*
X77599000Y-99892250D01*
X77599000Y-98513766D01*
X77853000Y-98494480D01*
X77853000Y-99892250D01*
X78011750Y-100051000D01*
X78602309Y-100051000D01*
X78835698Y-99954327D01*
X78919000Y-99871025D01*
X78919000Y-100128000D01*
X37413000Y-100128000D01*
X37413000Y-97186750D01*
X57230000Y-97186750D01*
X57230000Y-97662309D01*
X57326673Y-97895698D01*
X57505301Y-98074327D01*
X57738690Y-98171000D01*
X59379250Y-98171000D01*
X59538000Y-98012250D01*
X59538000Y-97028000D01*
X59792000Y-97028000D01*
X59792000Y-98012250D01*
X59950750Y-98171000D01*
X61591310Y-98171000D01*
X61824699Y-98074327D01*
X62003327Y-97895698D01*
X62100000Y-97662309D01*
X62100000Y-97186750D01*
X61941250Y-97028000D01*
X59792000Y-97028000D01*
X59538000Y-97028000D01*
X57388750Y-97028000D01*
X57230000Y-97186750D01*
X37413000Y-97186750D01*
X37413000Y-93533619D01*
X42214613Y-93533619D01*
X42554155Y-94355372D01*
X43182321Y-94984636D01*
X44003481Y-95325611D01*
X44892619Y-95326387D01*
X45714372Y-94986845D01*
X46343636Y-94358679D01*
X46606346Y-93726000D01*
X57217560Y-93726000D01*
X57217560Y-94996000D01*
X57261838Y-95231317D01*
X57400910Y-95447441D01*
X57613110Y-95592431D01*
X57803569Y-95631000D01*
X57738690Y-95631000D01*
X57505301Y-95727673D01*
X57326673Y-95906302D01*
X57230000Y-96139691D01*
X57230000Y-96615250D01*
X57388750Y-96774000D01*
X59538000Y-96774000D01*
X59538000Y-96754000D01*
X59792000Y-96754000D01*
X59792000Y-96774000D01*
X61941250Y-96774000D01*
X62100000Y-96615250D01*
X62100000Y-96139691D01*
X62003327Y-95906302D01*
X61824699Y-95727673D01*
X61591310Y-95631000D01*
X61531113Y-95631000D01*
X61700317Y-95599162D01*
X61916441Y-95460090D01*
X62061431Y-95247890D01*
X62112440Y-94996000D01*
X62112440Y-93726000D01*
X62068162Y-93490683D01*
X61929090Y-93274559D01*
X61716890Y-93129569D01*
X61526431Y-93091000D01*
X61591310Y-93091000D01*
X61824699Y-92994327D01*
X62003327Y-92815698D01*
X62100000Y-92582309D01*
X62100000Y-92106750D01*
X61941250Y-91948000D01*
X59792000Y-91948000D01*
X59792000Y-91968000D01*
X59538000Y-91968000D01*
X59538000Y-91948000D01*
X57388750Y-91948000D01*
X57230000Y-92106750D01*
X57230000Y-92582309D01*
X57326673Y-92815698D01*
X57505301Y-92994327D01*
X57738690Y-93091000D01*
X57798887Y-93091000D01*
X57629683Y-93122838D01*
X57413559Y-93261910D01*
X57268569Y-93474110D01*
X57217560Y-93726000D01*
X46606346Y-93726000D01*
X46684611Y-93537519D01*
X46685387Y-92648381D01*
X46345845Y-91826628D01*
X45717679Y-91197364D01*
X44896519Y-90856389D01*
X44007381Y-90855613D01*
X43185628Y-91195155D01*
X42556364Y-91823321D01*
X42215389Y-92644481D01*
X42214613Y-93533619D01*
X37413000Y-93533619D01*
X37413000Y-89566750D01*
X57230000Y-89566750D01*
X57230000Y-90042309D01*
X57326673Y-90275698D01*
X57505301Y-90454327D01*
X57738690Y-90551000D01*
X57505301Y-90647673D01*
X57326673Y-90826302D01*
X57230000Y-91059691D01*
X57230000Y-91535250D01*
X57388750Y-91694000D01*
X59538000Y-91694000D01*
X59538000Y-90709750D01*
X59379250Y-90551000D01*
X59538000Y-90392250D01*
X59538000Y-89408000D01*
X59792000Y-89408000D01*
X59792000Y-90392250D01*
X59950750Y-90551000D01*
X59792000Y-90709750D01*
X59792000Y-91694000D01*
X61941250Y-91694000D01*
X62100000Y-91535250D01*
X62100000Y-91059691D01*
X62003327Y-90826302D01*
X61824699Y-90647673D01*
X61591310Y-90551000D01*
X61824699Y-90454327D01*
X62003327Y-90275698D01*
X62100000Y-90042309D01*
X62100000Y-89566750D01*
X61941250Y-89408000D01*
X59792000Y-89408000D01*
X59538000Y-89408000D01*
X57388750Y-89408000D01*
X57230000Y-89566750D01*
X37413000Y-89566750D01*
X37413000Y-67752619D01*
X42214613Y-67752619D01*
X42554155Y-68574372D01*
X43182321Y-69203636D01*
X44003481Y-69544611D01*
X44892619Y-69545387D01*
X45714372Y-69205845D01*
X46343636Y-68577679D01*
X46684611Y-67756519D01*
X46685387Y-66867381D01*
X46345845Y-66045628D01*
X45717679Y-65416364D01*
X44896519Y-65075389D01*
X44007381Y-65074613D01*
X43185628Y-65414155D01*
X42556364Y-66042321D01*
X42215389Y-66863481D01*
X42214613Y-67752619D01*
X37413000Y-67752619D01*
X37413000Y-60273000D01*
X53265000Y-60273000D01*
X53265000Y-60411590D01*
X53265000Y-60411590D01*
G37*
X53265000Y-60411590D02*
X53116309Y-60350000D01*
X52525750Y-60350000D01*
X52367000Y-60508750D01*
X52367000Y-61887234D01*
X52113000Y-61906520D01*
X52113000Y-60508750D01*
X51954250Y-60350000D01*
X51363691Y-60350000D01*
X51130302Y-60446673D01*
X50951673Y-60625301D01*
X50855000Y-60858690D01*
X50855000Y-62699250D01*
X51013750Y-62858000D01*
X51142234Y-62858000D01*
X51161520Y-63112000D01*
X51013750Y-63112000D01*
X50855000Y-63270750D01*
X50855000Y-65111310D01*
X50951673Y-65344699D01*
X51130302Y-65523327D01*
X51363691Y-65620000D01*
X51954250Y-65620000D01*
X52113000Y-65461250D01*
X52113000Y-64082766D01*
X52367000Y-64063480D01*
X52367000Y-65461250D01*
X52525750Y-65620000D01*
X53116309Y-65620000D01*
X53265000Y-65558410D01*
X53265000Y-67691000D01*
X53319046Y-67962705D01*
X53472954Y-68193046D01*
X53703295Y-68346954D01*
X53859418Y-68378009D01*
X53853343Y-68380519D01*
X53407086Y-68825997D01*
X53165276Y-69408341D01*
X53164725Y-70038893D01*
X53405519Y-70621657D01*
X53850997Y-71067914D01*
X54433341Y-71309724D01*
X55063893Y-71310275D01*
X55646657Y-71069481D01*
X56005000Y-70711764D01*
X56005000Y-72126000D01*
X56091397Y-72560346D01*
X56286961Y-72853028D01*
X56337434Y-72928566D01*
X56728434Y-73319567D01*
X57096655Y-73565604D01*
X57531000Y-73652000D01*
X57965346Y-73565604D01*
X58333567Y-73319567D01*
X58579604Y-72951346D01*
X58611449Y-72791251D01*
X65928608Y-80108410D01*
X66175170Y-80273157D01*
X66466009Y-80331009D01*
X73450189Y-80331009D01*
X68208818Y-85572380D01*
X68116890Y-85509569D01*
X67865000Y-85458560D01*
X64265000Y-85458560D01*
X64029683Y-85502838D01*
X63813559Y-85641910D01*
X63668569Y-85854110D01*
X63617560Y-86106000D01*
X63617560Y-86142428D01*
X63413566Y-85938434D01*
X63321381Y-85876838D01*
X63045346Y-85692397D01*
X62611000Y-85606000D01*
X61858022Y-85606000D01*
X61716890Y-85509569D01*
X61465000Y-85458560D01*
X57865000Y-85458560D01*
X57629683Y-85502838D01*
X57413559Y-85641910D01*
X57268569Y-85854110D01*
X57217560Y-86106000D01*
X57217560Y-87376000D01*
X57261838Y-87611317D01*
X57400910Y-87827441D01*
X57613110Y-87972431D01*
X57803569Y-88011000D01*
X57738690Y-88011000D01*
X57505301Y-88107673D01*
X57326673Y-88286302D01*
X57230000Y-88519691D01*
X57230000Y-88995250D01*
X57388750Y-89154000D01*
X59538000Y-89154000D01*
X59538000Y-89134000D01*
X59792000Y-89134000D01*
X59792000Y-89154000D01*
X61941250Y-89154000D01*
X62100000Y-88995250D01*
X62100000Y-88519691D01*
X62003327Y-88286302D01*
X61824699Y-88107673D01*
X61591310Y-88011000D01*
X61531113Y-88011000D01*
X61700317Y-87979162D01*
X61860635Y-87876000D01*
X62179819Y-87876000D01*
X62430655Y-88043603D01*
X62865000Y-88130000D01*
X63299345Y-88043603D01*
X63667566Y-87797566D01*
X63725700Y-87710562D01*
X63800910Y-87827441D01*
X64013110Y-87972431D01*
X64201314Y-88010543D01*
X64029683Y-88042838D01*
X63813559Y-88181910D01*
X63668569Y-88394110D01*
X63617560Y-88646000D01*
X63617560Y-89916000D01*
X63661838Y-90151317D01*
X63800910Y-90367441D01*
X64013110Y-90512431D01*
X64201314Y-90550543D01*
X64029683Y-90582838D01*
X63813559Y-90721910D01*
X63668569Y-90934110D01*
X63617560Y-91186000D01*
X63617560Y-92456000D01*
X63661838Y-92691317D01*
X63800910Y-92907441D01*
X64013110Y-93052431D01*
X64201314Y-93090543D01*
X64029683Y-93122838D01*
X63813559Y-93261910D01*
X63668569Y-93474110D01*
X63617560Y-93726000D01*
X63617560Y-94996000D01*
X63661838Y-95231317D01*
X63800910Y-95447441D01*
X64013110Y-95592431D01*
X64201314Y-95630543D01*
X64029683Y-95662838D01*
X63813559Y-95801910D01*
X63668569Y-96014110D01*
X63617560Y-96266000D01*
X63617560Y-97536000D01*
X63661838Y-97771317D01*
X63800910Y-97987441D01*
X64013110Y-98132431D01*
X64265000Y-98183440D01*
X67865000Y-98183440D01*
X68100317Y-98139162D01*
X68316441Y-98000090D01*
X68461431Y-97787890D01*
X68512440Y-97536000D01*
X68512440Y-96693362D01*
X82657802Y-82548000D01*
X88038868Y-82548000D01*
X83003434Y-87583434D01*
X82757397Y-87951654D01*
X82671000Y-88386000D01*
X82671000Y-88751000D01*
X82658998Y-88751000D01*
X82658998Y-88909748D01*
X82500250Y-88751000D01*
X82359691Y-88751000D01*
X82126302Y-88847673D01*
X81947673Y-89026301D01*
X81851000Y-89259690D01*
X81851000Y-90150250D01*
X82009748Y-90308998D01*
X81889331Y-90308998D01*
X81670481Y-89779343D01*
X81225003Y-89333086D01*
X80642659Y-89091276D01*
X80012107Y-89090725D01*
X79429343Y-89331519D01*
X78983086Y-89776997D01*
X78741276Y-90359341D01*
X78740725Y-90989893D01*
X78981519Y-91572657D01*
X79426997Y-92018914D01*
X79461626Y-92033293D01*
X79357295Y-92054046D01*
X79126954Y-92207954D01*
X78973046Y-92438295D01*
X78919000Y-92710000D01*
X78919000Y-94960975D01*
X78835698Y-94877673D01*
X78602309Y-94781000D01*
X78011750Y-94781000D01*
X77853000Y-94939750D01*
X77853000Y-96318234D01*
X77599000Y-96337520D01*
X77599000Y-94939750D01*
X77440250Y-94781000D01*
X76849691Y-94781000D01*
X76616302Y-94877673D01*
X76437673Y-95056301D01*
X76341000Y-95289690D01*
X76341000Y-97130250D01*
X76499750Y-97289000D01*
X76628234Y-97289000D01*
X76647520Y-97543000D01*
X76499750Y-97543000D01*
X76341000Y-97701750D01*
X76341000Y-99542310D01*
X76437673Y-99775699D01*
X76616302Y-99954327D01*
X76849691Y-100051000D01*
X77440250Y-100051000D01*
X77599000Y-99892250D01*
X77599000Y-98513766D01*
X77853000Y-98494480D01*
X77853000Y-99892250D01*
X78011750Y-100051000D01*
X78602309Y-100051000D01*
X78835698Y-99954327D01*
X78919000Y-99871025D01*
X78919000Y-100128000D01*
X37413000Y-100128000D01*
X37413000Y-97186750D01*
X57230000Y-97186750D01*
X57230000Y-97662309D01*
X57326673Y-97895698D01*
X57505301Y-98074327D01*
X57738690Y-98171000D01*
X59379250Y-98171000D01*
X59538000Y-98012250D01*
X59538000Y-97028000D01*
X59792000Y-97028000D01*
X59792000Y-98012250D01*
X59950750Y-98171000D01*
X61591310Y-98171000D01*
X61824699Y-98074327D01*
X62003327Y-97895698D01*
X62100000Y-97662309D01*
X62100000Y-97186750D01*
X61941250Y-97028000D01*
X59792000Y-97028000D01*
X59538000Y-97028000D01*
X57388750Y-97028000D01*
X57230000Y-97186750D01*
X37413000Y-97186750D01*
X37413000Y-93533619D01*
X42214613Y-93533619D01*
X42554155Y-94355372D01*
X43182321Y-94984636D01*
X44003481Y-95325611D01*
X44892619Y-95326387D01*
X45714372Y-94986845D01*
X46343636Y-94358679D01*
X46606346Y-93726000D01*
X57217560Y-93726000D01*
X57217560Y-94996000D01*
X57261838Y-95231317D01*
X57400910Y-95447441D01*
X57613110Y-95592431D01*
X57803569Y-95631000D01*
X57738690Y-95631000D01*
X57505301Y-95727673D01*
X57326673Y-95906302D01*
X57230000Y-96139691D01*
X57230000Y-96615250D01*
X57388750Y-96774000D01*
X59538000Y-96774000D01*
X59538000Y-96754000D01*
X59792000Y-96754000D01*
X59792000Y-96774000D01*
X61941250Y-96774000D01*
X62100000Y-96615250D01*
X62100000Y-96139691D01*
X62003327Y-95906302D01*
X61824699Y-95727673D01*
X61591310Y-95631000D01*
X61531113Y-95631000D01*
X61700317Y-95599162D01*
X61916441Y-95460090D01*
X62061431Y-95247890D01*
X62112440Y-94996000D01*
X62112440Y-93726000D01*
X62068162Y-93490683D01*
X61929090Y-93274559D01*
X61716890Y-93129569D01*
X61526431Y-93091000D01*
X61591310Y-93091000D01*
X61824699Y-92994327D01*
X62003327Y-92815698D01*
X62100000Y-92582309D01*
X62100000Y-92106750D01*
X61941250Y-91948000D01*
X59792000Y-91948000D01*
X59792000Y-91968000D01*
X59538000Y-91968000D01*
X59538000Y-91948000D01*
X57388750Y-91948000D01*
X57230000Y-92106750D01*
X57230000Y-92582309D01*
X57326673Y-92815698D01*
X57505301Y-92994327D01*
X57738690Y-93091000D01*
X57798887Y-93091000D01*
X57629683Y-93122838D01*
X57413559Y-93261910D01*
X57268569Y-93474110D01*
X57217560Y-93726000D01*
X46606346Y-93726000D01*
X46684611Y-93537519D01*
X46685387Y-92648381D01*
X46345845Y-91826628D01*
X45717679Y-91197364D01*
X44896519Y-90856389D01*
X44007381Y-90855613D01*
X43185628Y-91195155D01*
X42556364Y-91823321D01*
X42215389Y-92644481D01*
X42214613Y-93533619D01*
X37413000Y-93533619D01*
X37413000Y-89566750D01*
X57230000Y-89566750D01*
X57230000Y-90042309D01*
X57326673Y-90275698D01*
X57505301Y-90454327D01*
X57738690Y-90551000D01*
X57505301Y-90647673D01*
X57326673Y-90826302D01*
X57230000Y-91059691D01*
X57230000Y-91535250D01*
X57388750Y-91694000D01*
X59538000Y-91694000D01*
X59538000Y-90709750D01*
X59379250Y-90551000D01*
X59538000Y-90392250D01*
X59538000Y-89408000D01*
X59792000Y-89408000D01*
X59792000Y-90392250D01*
X59950750Y-90551000D01*
X59792000Y-90709750D01*
X59792000Y-91694000D01*
X61941250Y-91694000D01*
X62100000Y-91535250D01*
X62100000Y-91059691D01*
X62003327Y-90826302D01*
X61824699Y-90647673D01*
X61591310Y-90551000D01*
X61824699Y-90454327D01*
X62003327Y-90275698D01*
X62100000Y-90042309D01*
X62100000Y-89566750D01*
X61941250Y-89408000D01*
X59792000Y-89408000D01*
X59538000Y-89408000D01*
X57388750Y-89408000D01*
X57230000Y-89566750D01*
X37413000Y-89566750D01*
X37413000Y-67752619D01*
X42214613Y-67752619D01*
X42554155Y-68574372D01*
X43182321Y-69203636D01*
X44003481Y-69544611D01*
X44892619Y-69545387D01*
X45714372Y-69205845D01*
X46343636Y-68577679D01*
X46684611Y-67756519D01*
X46685387Y-66867381D01*
X46345845Y-66045628D01*
X45717679Y-65416364D01*
X44896519Y-65075389D01*
X44007381Y-65074613D01*
X43185628Y-65414155D01*
X42556364Y-66042321D01*
X42215389Y-66863481D01*
X42214613Y-67752619D01*
X37413000Y-67752619D01*
X37413000Y-60273000D01*
X53265000Y-60273000D01*
X53265000Y-60411590D01*
G36*
X228906000Y-100128000D02*
X132804026Y-100128000D01*
X133148183Y-99814358D01*
X133394486Y-99289892D01*
X133273819Y-99060000D01*
X132080000Y-99060000D01*
X132080000Y-99080000D01*
X131826000Y-99080000D01*
X131826000Y-99060000D01*
X131806000Y-99060000D01*
X131806000Y-98806000D01*
X131826000Y-98806000D01*
X131826000Y-97612845D01*
X132080000Y-97612845D01*
X132080000Y-98806000D01*
X133273819Y-98806000D01*
X133394486Y-98576108D01*
X133148183Y-98051642D01*
X132719924Y-97661355D01*
X132309890Y-97491524D01*
X132080000Y-97612845D01*
X131826000Y-97612845D01*
X131596110Y-97491524D01*
X131186076Y-97661355D01*
X130757817Y-98051642D01*
X130690702Y-98194553D01*
X130463054Y-97853853D01*
X129981285Y-97531946D01*
X129413000Y-97418907D01*
X128844715Y-97531946D01*
X128362946Y-97853853D01*
X128143000Y-98183026D01*
X127923054Y-97853853D01*
X127441285Y-97531946D01*
X126873000Y-97418907D01*
X126304715Y-97531946D01*
X125822946Y-97853853D01*
X125603000Y-98183026D01*
X125468000Y-97980984D01*
X125468000Y-97028000D01*
X125381603Y-96593654D01*
X125135566Y-96225434D01*
X124025132Y-95115000D01*
X144194868Y-95115000D01*
X147037434Y-97957566D01*
X147081030Y-97986696D01*
X147125910Y-98056441D01*
X147338110Y-98201431D01*
X147590000Y-98252440D01*
X147651174Y-98252440D01*
X147840000Y-98290000D01*
X148028826Y-98252440D01*
X148090000Y-98252440D01*
X148325317Y-98208162D01*
X148541441Y-98069090D01*
X148589134Y-97999289D01*
X148625910Y-98056441D01*
X148838110Y-98201431D01*
X149090000Y-98252440D01*
X149590000Y-98252440D01*
X149825317Y-98208162D01*
X150041441Y-98069090D01*
X150062684Y-98038000D01*
X155201560Y-98038000D01*
X155201560Y-98903000D01*
X155245838Y-99138317D01*
X155384910Y-99354441D01*
X155597110Y-99499431D01*
X155849000Y-99550440D01*
X158349000Y-99550440D01*
X158584317Y-99506162D01*
X158800441Y-99367090D01*
X158945431Y-99154890D01*
X158996440Y-98903000D01*
X158996440Y-98038000D01*
X161820867Y-98038000D01*
X161884434Y-98101567D01*
X162252655Y-98347604D01*
X162687000Y-98434000D01*
X162941001Y-98383476D01*
X163195000Y-98434000D01*
X165988560Y-98434000D01*
X165988560Y-99049000D01*
X166032838Y-99284317D01*
X166171910Y-99500441D01*
X166384110Y-99645431D01*
X166636000Y-99696440D01*
X168636000Y-99696440D01*
X168871317Y-99652162D01*
X169087441Y-99513090D01*
X169232431Y-99300890D01*
X169283440Y-99049000D01*
X169283440Y-98233620D01*
X169618655Y-98457603D01*
X170053000Y-98544000D01*
X170487345Y-98457603D01*
X170522669Y-98434000D01*
X170568560Y-98434000D01*
X170568560Y-99049000D01*
X170612838Y-99284317D01*
X170751910Y-99500441D01*
X170964110Y-99645431D01*
X171216000Y-99696440D01*
X173216000Y-99696440D01*
X173451317Y-99652162D01*
X173667441Y-99513090D01*
X173812431Y-99300890D01*
X173863440Y-99049000D01*
X173863440Y-95549000D01*
X173819162Y-95313683D01*
X173680090Y-95097559D01*
X173467890Y-94952569D01*
X173216000Y-94901560D01*
X171216000Y-94901560D01*
X170980683Y-94945838D01*
X170764559Y-95084910D01*
X170619569Y-95297110D01*
X170568560Y-95549000D01*
X170568560Y-96164000D01*
X170163000Y-96164000D01*
X169728654Y-96250397D01*
X169360433Y-96496434D01*
X169283440Y-96573428D01*
X169283440Y-95549000D01*
X169239162Y-95313683D01*
X169100090Y-95097559D01*
X168887890Y-94952569D01*
X168636000Y-94901560D01*
X166636000Y-94901560D01*
X166400683Y-94945838D01*
X166184559Y-95084910D01*
X166039569Y-95297110D01*
X165988560Y-95549000D01*
X165988560Y-96164000D01*
X163195000Y-96164000D01*
X163163415Y-96170283D01*
X163093566Y-96100434D01*
X163051652Y-96072428D01*
X162725346Y-95854397D01*
X162291000Y-95768000D01*
X158996440Y-95768000D01*
X158996440Y-94903000D01*
X158952162Y-94667683D01*
X158813090Y-94451559D01*
X158600890Y-94306569D01*
X158349000Y-94255560D01*
X155849000Y-94255560D01*
X155613683Y-94299838D01*
X155397559Y-94438910D01*
X155252569Y-94651110D01*
X155201560Y-94903000D01*
X155201560Y-95768000D01*
X149592000Y-95768000D01*
X149157654Y-95854397D01*
X148789434Y-96100434D01*
X148738573Y-96176553D01*
X148638559Y-96240910D01*
X148594916Y-96304784D01*
X148572859Y-96282727D01*
X148554090Y-96253559D01*
X148521258Y-96231126D01*
X145713163Y-93423031D01*
X149276201Y-93423031D01*
X149567040Y-93365179D01*
X149813602Y-93200432D01*
X151925283Y-91088750D01*
X155214000Y-91088750D01*
X155214000Y-92929309D01*
X155310673Y-93162698D01*
X155489301Y-93341327D01*
X155722690Y-93438000D01*
X156813250Y-93438000D01*
X156972000Y-93279250D01*
X156972000Y-90930000D01*
X157226000Y-90930000D01*
X157226000Y-93279250D01*
X157384750Y-93438000D01*
X158475310Y-93438000D01*
X158708699Y-93341327D01*
X158887327Y-93162698D01*
X158984000Y-92929309D01*
X158984000Y-91088750D01*
X158825250Y-90930000D01*
X157226000Y-90930000D01*
X156972000Y-90930000D01*
X155372750Y-90930000D01*
X155214000Y-91088750D01*
X151925283Y-91088750D01*
X154337342Y-88676691D01*
X155214000Y-88676691D01*
X155214000Y-90517250D01*
X155372750Y-90676000D01*
X156972000Y-90676000D01*
X156972000Y-88326750D01*
X157226000Y-88326750D01*
X157226000Y-90676000D01*
X158825250Y-90676000D01*
X158984000Y-90517250D01*
X158984000Y-90184750D01*
X165801000Y-90184750D01*
X165801000Y-93525310D01*
X165897673Y-93758699D01*
X166076302Y-93937327D01*
X166309691Y-94034000D01*
X169650250Y-94034000D01*
X169809000Y-93875250D01*
X169809000Y-90026000D01*
X170063000Y-90026000D01*
X170063000Y-93875250D01*
X170221750Y-94034000D01*
X173562309Y-94034000D01*
X173795698Y-93937327D01*
X173974327Y-93758699D01*
X174067558Y-93533619D01*
X219633613Y-93533619D01*
X219973155Y-94355372D01*
X220601321Y-94984636D01*
X221422481Y-95325611D01*
X222311619Y-95326387D01*
X223133372Y-94986845D01*
X223762636Y-94358679D01*
X224103611Y-93537519D01*
X224104387Y-92648381D01*
X223764845Y-91826628D01*
X223136679Y-91197364D01*
X222315519Y-90856389D01*
X221426381Y-90855613D01*
X220604628Y-91195155D01*
X219975364Y-91823321D01*
X219634389Y-92644481D01*
X219633613Y-93533619D01*
X174067558Y-93533619D01*
X174071000Y-93525310D01*
X174071000Y-90184750D01*
X173912250Y-90026000D01*
X170063000Y-90026000D01*
X169809000Y-90026000D01*
X165959750Y-90026000D01*
X165801000Y-90184750D01*
X158984000Y-90184750D01*
X158984000Y-88676691D01*
X158887327Y-88443302D01*
X158708699Y-88264673D01*
X158475310Y-88168000D01*
X157384750Y-88168000D01*
X157226000Y-88326750D01*
X156972000Y-88326750D01*
X156813250Y-88168000D01*
X155722690Y-88168000D01*
X155489301Y-88264673D01*
X155310673Y-88443302D01*
X155214000Y-88676691D01*
X154337342Y-88676691D01*
X156741343Y-86272690D01*
X165801000Y-86272690D01*
X165801000Y-89613250D01*
X165959750Y-89772000D01*
X169809000Y-89772000D01*
X169809000Y-85922750D01*
X170063000Y-85922750D01*
X170063000Y-89772000D01*
X173912250Y-89772000D01*
X174071000Y-89613250D01*
X174071000Y-86272690D01*
X173974327Y-86039301D01*
X173795698Y-85860673D01*
X173562309Y-85764000D01*
X170221750Y-85764000D01*
X170063000Y-85922750D01*
X169809000Y-85922750D01*
X169650250Y-85764000D01*
X166309691Y-85764000D01*
X166076302Y-85860673D01*
X165897673Y-86039301D01*
X165801000Y-86272690D01*
X156741343Y-86272690D01*
X164149033Y-78865000D01*
X198660000Y-78865000D01*
X198950839Y-78807148D01*
X199197401Y-78642401D01*
X206037401Y-71802401D01*
X206139232Y-71650000D01*
X206234250Y-71650000D01*
X206393000Y-71491250D01*
X206393000Y-71271911D01*
X206396431Y-71266890D01*
X206447440Y-71015000D01*
X206447440Y-69818000D01*
X206647000Y-69818000D01*
X206647000Y-69838000D01*
X206667000Y-69838000D01*
X206667000Y-70092000D01*
X206647000Y-70092000D01*
X206647000Y-71491250D01*
X206805750Y-71650000D01*
X206946309Y-71650000D01*
X207179698Y-71553327D01*
X207358327Y-71374699D01*
X207455000Y-71141310D01*
X207455000Y-70250750D01*
X207296252Y-70092002D01*
X207416669Y-70092002D01*
X207635519Y-70621657D01*
X208080997Y-71067914D01*
X208663341Y-71309724D01*
X209293893Y-71310275D01*
X209876657Y-71069481D01*
X210322914Y-70624003D01*
X210564724Y-70041659D01*
X210565275Y-69411107D01*
X210324481Y-68828343D01*
X209879003Y-68382086D01*
X209844374Y-68367707D01*
X209948705Y-68346954D01*
X210179046Y-68193046D01*
X210332954Y-67962705D01*
X210374743Y-67752619D01*
X219633613Y-67752619D01*
X219973155Y-68574372D01*
X220601321Y-69203636D01*
X221422481Y-69544611D01*
X222311619Y-69545387D01*
X223133372Y-69205845D01*
X223762636Y-68577679D01*
X224103611Y-67756519D01*
X224104387Y-66867381D01*
X223764845Y-66045628D01*
X223136679Y-65416364D01*
X222315519Y-65075389D01*
X221426381Y-65074613D01*
X220604628Y-65414155D01*
X219975364Y-66042321D01*
X219634389Y-66863481D01*
X219633613Y-67752619D01*
X210374743Y-67752619D01*
X210387000Y-67691000D01*
X210387000Y-65440025D01*
X210470302Y-65523327D01*
X210703691Y-65620000D01*
X211294250Y-65620000D01*
X211453000Y-65461250D01*
X211453000Y-64082766D01*
X211707000Y-64063480D01*
X211707000Y-65461250D01*
X211865750Y-65620000D01*
X212456309Y-65620000D01*
X212689698Y-65523327D01*
X212868327Y-65344699D01*
X212965000Y-65111310D01*
X212965000Y-63270750D01*
X212806250Y-63112000D01*
X212677766Y-63112000D01*
X212658480Y-62858000D01*
X212806250Y-62858000D01*
X212965000Y-62699250D01*
X212965000Y-60858690D01*
X212868327Y-60625301D01*
X212689698Y-60446673D01*
X212456309Y-60350000D01*
X211865750Y-60350000D01*
X211707000Y-60508750D01*
X211707000Y-61887234D01*
X211453000Y-61906520D01*
X211453000Y-60508750D01*
X211294250Y-60350000D01*
X210703691Y-60350000D01*
X210470302Y-60446673D01*
X210387000Y-60529975D01*
X210387000Y-60273000D01*
X228906000Y-60273000D01*
X228906000Y-100128000D01*
X228906000Y-100128000D01*
G37*
X228906000Y-100128000D02*
X132804026Y-100128000D01*
X133148183Y-99814358D01*
X133394486Y-99289892D01*
X133273819Y-99060000D01*
X132080000Y-99060000D01*
X132080000Y-99080000D01*
X131826000Y-99080000D01*
X131826000Y-99060000D01*
X131806000Y-99060000D01*
X131806000Y-98806000D01*
X131826000Y-98806000D01*
X131826000Y-97612845D01*
X132080000Y-97612845D01*
X132080000Y-98806000D01*
X133273819Y-98806000D01*
X133394486Y-98576108D01*
X133148183Y-98051642D01*
X132719924Y-97661355D01*
X132309890Y-97491524D01*
X132080000Y-97612845D01*
X131826000Y-97612845D01*
X131596110Y-97491524D01*
X131186076Y-97661355D01*
X130757817Y-98051642D01*
X130690702Y-98194553D01*
X130463054Y-97853853D01*
X129981285Y-97531946D01*
X129413000Y-97418907D01*
X128844715Y-97531946D01*
X128362946Y-97853853D01*
X128143000Y-98183026D01*
X127923054Y-97853853D01*
X127441285Y-97531946D01*
X126873000Y-97418907D01*
X126304715Y-97531946D01*
X125822946Y-97853853D01*
X125603000Y-98183026D01*
X125468000Y-97980984D01*
X125468000Y-97028000D01*
X125381603Y-96593654D01*
X125135566Y-96225434D01*
X124025132Y-95115000D01*
X144194868Y-95115000D01*
X147037434Y-97957566D01*
X147081030Y-97986696D01*
X147125910Y-98056441D01*
X147338110Y-98201431D01*
X147590000Y-98252440D01*
X147651174Y-98252440D01*
X147840000Y-98290000D01*
X148028826Y-98252440D01*
X148090000Y-98252440D01*
X148325317Y-98208162D01*
X148541441Y-98069090D01*
X148589134Y-97999289D01*
X148625910Y-98056441D01*
X148838110Y-98201431D01*
X149090000Y-98252440D01*
X149590000Y-98252440D01*
X149825317Y-98208162D01*
X150041441Y-98069090D01*
X150062684Y-98038000D01*
X155201560Y-98038000D01*
X155201560Y-98903000D01*
X155245838Y-99138317D01*
X155384910Y-99354441D01*
X155597110Y-99499431D01*
X155849000Y-99550440D01*
X158349000Y-99550440D01*
X158584317Y-99506162D01*
X158800441Y-99367090D01*
X158945431Y-99154890D01*
X158996440Y-98903000D01*
X158996440Y-98038000D01*
X161820867Y-98038000D01*
X161884434Y-98101567D01*
X162252655Y-98347604D01*
X162687000Y-98434000D01*
X162941001Y-98383476D01*
X163195000Y-98434000D01*
X165988560Y-98434000D01*
X165988560Y-99049000D01*
X166032838Y-99284317D01*
X166171910Y-99500441D01*
X166384110Y-99645431D01*
X166636000Y-99696440D01*
X168636000Y-99696440D01*
X168871317Y-99652162D01*
X169087441Y-99513090D01*
X169232431Y-99300890D01*
X169283440Y-99049000D01*
X169283440Y-98233620D01*
X169618655Y-98457603D01*
X170053000Y-98544000D01*
X170487345Y-98457603D01*
X170522669Y-98434000D01*
X170568560Y-98434000D01*
X170568560Y-99049000D01*
X170612838Y-99284317D01*
X170751910Y-99500441D01*
X170964110Y-99645431D01*
X171216000Y-99696440D01*
X173216000Y-99696440D01*
X173451317Y-99652162D01*
X173667441Y-99513090D01*
X173812431Y-99300890D01*
X173863440Y-99049000D01*
X173863440Y-95549000D01*
X173819162Y-95313683D01*
X173680090Y-95097559D01*
X173467890Y-94952569D01*
X173216000Y-94901560D01*
X171216000Y-94901560D01*
X170980683Y-94945838D01*
X170764559Y-95084910D01*
X170619569Y-95297110D01*
X170568560Y-95549000D01*
X170568560Y-96164000D01*
X170163000Y-96164000D01*
X169728654Y-96250397D01*
X169360433Y-96496434D01*
X169283440Y-96573428D01*
X169283440Y-95549000D01*
X169239162Y-95313683D01*
X169100090Y-95097559D01*
X168887890Y-94952569D01*
X168636000Y-94901560D01*
X166636000Y-94901560D01*
X166400683Y-94945838D01*
X166184559Y-95084910D01*
X166039569Y-95297110D01*
X165988560Y-95549000D01*
X165988560Y-96164000D01*
X163195000Y-96164000D01*
X163163415Y-96170283D01*
X163093566Y-96100434D01*
X163051652Y-96072428D01*
X162725346Y-95854397D01*
X162291000Y-95768000D01*
X158996440Y-95768000D01*
X158996440Y-94903000D01*
X158952162Y-94667683D01*
X158813090Y-94451559D01*
X158600890Y-94306569D01*
X158349000Y-94255560D01*
X155849000Y-94255560D01*
X155613683Y-94299838D01*
X155397559Y-94438910D01*
X155252569Y-94651110D01*
X155201560Y-94903000D01*
X155201560Y-95768000D01*
X149592000Y-95768000D01*
X149157654Y-95854397D01*
X148789434Y-96100434D01*
X148738573Y-96176553D01*
X148638559Y-96240910D01*
X148594916Y-96304784D01*
X148572859Y-96282727D01*
X148554090Y-96253559D01*
X148521258Y-96231126D01*
X145713163Y-93423031D01*
X149276201Y-93423031D01*
X149567040Y-93365179D01*
X149813602Y-93200432D01*
X151925283Y-91088750D01*
X155214000Y-91088750D01*
X155214000Y-92929309D01*
X155310673Y-93162698D01*
X155489301Y-93341327D01*
X155722690Y-93438000D01*
X156813250Y-93438000D01*
X156972000Y-93279250D01*
X156972000Y-90930000D01*
X157226000Y-90930000D01*
X157226000Y-93279250D01*
X157384750Y-93438000D01*
X158475310Y-93438000D01*
X158708699Y-93341327D01*
X158887327Y-93162698D01*
X158984000Y-92929309D01*
X158984000Y-91088750D01*
X158825250Y-90930000D01*
X157226000Y-90930000D01*
X156972000Y-90930000D01*
X155372750Y-90930000D01*
X155214000Y-91088750D01*
X151925283Y-91088750D01*
X154337342Y-88676691D01*
X155214000Y-88676691D01*
X155214000Y-90517250D01*
X155372750Y-90676000D01*
X156972000Y-90676000D01*
X156972000Y-88326750D01*
X157226000Y-88326750D01*
X157226000Y-90676000D01*
X158825250Y-90676000D01*
X158984000Y-90517250D01*
X158984000Y-90184750D01*
X165801000Y-90184750D01*
X165801000Y-93525310D01*
X165897673Y-93758699D01*
X166076302Y-93937327D01*
X166309691Y-94034000D01*
X169650250Y-94034000D01*
X169809000Y-93875250D01*
X169809000Y-90026000D01*
X170063000Y-90026000D01*
X170063000Y-93875250D01*
X170221750Y-94034000D01*
X173562309Y-94034000D01*
X173795698Y-93937327D01*
X173974327Y-93758699D01*
X174067558Y-93533619D01*
X219633613Y-93533619D01*
X219973155Y-94355372D01*
X220601321Y-94984636D01*
X221422481Y-95325611D01*
X222311619Y-95326387D01*
X223133372Y-94986845D01*
X223762636Y-94358679D01*
X224103611Y-93537519D01*
X224104387Y-92648381D01*
X223764845Y-91826628D01*
X223136679Y-91197364D01*
X222315519Y-90856389D01*
X221426381Y-90855613D01*
X220604628Y-91195155D01*
X219975364Y-91823321D01*
X219634389Y-92644481D01*
X219633613Y-93533619D01*
X174067558Y-93533619D01*
X174071000Y-93525310D01*
X174071000Y-90184750D01*
X173912250Y-90026000D01*
X170063000Y-90026000D01*
X169809000Y-90026000D01*
X165959750Y-90026000D01*
X165801000Y-90184750D01*
X158984000Y-90184750D01*
X158984000Y-88676691D01*
X158887327Y-88443302D01*
X158708699Y-88264673D01*
X158475310Y-88168000D01*
X157384750Y-88168000D01*
X157226000Y-88326750D01*
X156972000Y-88326750D01*
X156813250Y-88168000D01*
X155722690Y-88168000D01*
X155489301Y-88264673D01*
X155310673Y-88443302D01*
X155214000Y-88676691D01*
X154337342Y-88676691D01*
X156741343Y-86272690D01*
X165801000Y-86272690D01*
X165801000Y-89613250D01*
X165959750Y-89772000D01*
X169809000Y-89772000D01*
X169809000Y-85922750D01*
X170063000Y-85922750D01*
X170063000Y-89772000D01*
X173912250Y-89772000D01*
X174071000Y-89613250D01*
X174071000Y-86272690D01*
X173974327Y-86039301D01*
X173795698Y-85860673D01*
X173562309Y-85764000D01*
X170221750Y-85764000D01*
X170063000Y-85922750D01*
X169809000Y-85922750D01*
X169650250Y-85764000D01*
X166309691Y-85764000D01*
X166076302Y-85860673D01*
X165897673Y-86039301D01*
X165801000Y-86272690D01*
X156741343Y-86272690D01*
X164149033Y-78865000D01*
X198660000Y-78865000D01*
X198950839Y-78807148D01*
X199197401Y-78642401D01*
X206037401Y-71802401D01*
X206139232Y-71650000D01*
X206234250Y-71650000D01*
X206393000Y-71491250D01*
X206393000Y-71271911D01*
X206396431Y-71266890D01*
X206447440Y-71015000D01*
X206447440Y-69818000D01*
X206647000Y-69818000D01*
X206647000Y-69838000D01*
X206667000Y-69838000D01*
X206667000Y-70092000D01*
X206647000Y-70092000D01*
X206647000Y-71491250D01*
X206805750Y-71650000D01*
X206946309Y-71650000D01*
X207179698Y-71553327D01*
X207358327Y-71374699D01*
X207455000Y-71141310D01*
X207455000Y-70250750D01*
X207296252Y-70092002D01*
X207416669Y-70092002D01*
X207635519Y-70621657D01*
X208080997Y-71067914D01*
X208663341Y-71309724D01*
X209293893Y-71310275D01*
X209876657Y-71069481D01*
X210322914Y-70624003D01*
X210564724Y-70041659D01*
X210565275Y-69411107D01*
X210324481Y-68828343D01*
X209879003Y-68382086D01*
X209844374Y-68367707D01*
X209948705Y-68346954D01*
X210179046Y-68193046D01*
X210332954Y-67962705D01*
X210374743Y-67752619D01*
X219633613Y-67752619D01*
X219973155Y-68574372D01*
X220601321Y-69203636D01*
X221422481Y-69544611D01*
X222311619Y-69545387D01*
X223133372Y-69205845D01*
X223762636Y-68577679D01*
X224103611Y-67756519D01*
X224104387Y-66867381D01*
X223764845Y-66045628D01*
X223136679Y-65416364D01*
X222315519Y-65075389D01*
X221426381Y-65074613D01*
X220604628Y-65414155D01*
X219975364Y-66042321D01*
X219634389Y-66863481D01*
X219633613Y-67752619D01*
X210374743Y-67752619D01*
X210387000Y-67691000D01*
X210387000Y-65440025D01*
X210470302Y-65523327D01*
X210703691Y-65620000D01*
X211294250Y-65620000D01*
X211453000Y-65461250D01*
X211453000Y-64082766D01*
X211707000Y-64063480D01*
X211707000Y-65461250D01*
X211865750Y-65620000D01*
X212456309Y-65620000D01*
X212689698Y-65523327D01*
X212868327Y-65344699D01*
X212965000Y-65111310D01*
X212965000Y-63270750D01*
X212806250Y-63112000D01*
X212677766Y-63112000D01*
X212658480Y-62858000D01*
X212806250Y-62858000D01*
X212965000Y-62699250D01*
X212965000Y-60858690D01*
X212868327Y-60625301D01*
X212689698Y-60446673D01*
X212456309Y-60350000D01*
X211865750Y-60350000D01*
X211707000Y-60508750D01*
X211707000Y-61887234D01*
X211453000Y-61906520D01*
X211453000Y-60508750D01*
X211294250Y-60350000D01*
X210703691Y-60350000D01*
X210470302Y-60446673D01*
X210387000Y-60529975D01*
X210387000Y-60273000D01*
X228906000Y-60273000D01*
X228906000Y-100128000D01*
G36*
X119272428Y-91269868D02*
X119272428Y-96072428D01*
X119330280Y-96363267D01*
X119495027Y-96609829D01*
X120499195Y-97613997D01*
X120491559Y-97618910D01*
X120346569Y-97831110D01*
X120295560Y-98083000D01*
X120295560Y-99783000D01*
X120339838Y-100018317D01*
X120410417Y-100128000D01*
X114121000Y-100128000D01*
X114121000Y-99989410D01*
X114269691Y-100051000D01*
X114860250Y-100051000D01*
X115019000Y-99892250D01*
X115019000Y-98513766D01*
X115273000Y-98494480D01*
X115273000Y-99892250D01*
X115431750Y-100051000D01*
X116022309Y-100051000D01*
X116255698Y-99954327D01*
X116434327Y-99775699D01*
X116531000Y-99542310D01*
X116531000Y-97701750D01*
X116372250Y-97543000D01*
X116243766Y-97543000D01*
X116224480Y-97289000D01*
X116372250Y-97289000D01*
X116531000Y-97130250D01*
X116531000Y-95289690D01*
X116434327Y-95056301D01*
X116255698Y-94877673D01*
X116022309Y-94781000D01*
X115431750Y-94781000D01*
X115273000Y-94939750D01*
X115273000Y-96318234D01*
X115019000Y-96337520D01*
X115019000Y-94939750D01*
X114860250Y-94781000D01*
X114269691Y-94781000D01*
X114121000Y-94842590D01*
X114121000Y-92710000D01*
X114066954Y-92438295D01*
X113913046Y-92207954D01*
X113682705Y-92054046D01*
X113526582Y-92022991D01*
X113532657Y-92020481D01*
X113978914Y-91575003D01*
X114220724Y-90992659D01*
X114221275Y-90362107D01*
X113980481Y-89779343D01*
X113535003Y-89333086D01*
X112952659Y-89091276D01*
X112322107Y-89090725D01*
X111739343Y-89331519D01*
X111293086Y-89776997D01*
X111181000Y-90046930D01*
X111181000Y-89259690D01*
X111084327Y-89026301D01*
X110905698Y-88847673D01*
X110672309Y-88751000D01*
X110531750Y-88751000D01*
X110373000Y-88909750D01*
X110373000Y-90309000D01*
X110393000Y-90309000D01*
X110393000Y-90563000D01*
X110373000Y-90563000D01*
X110373000Y-90583000D01*
X110173440Y-90583000D01*
X110173440Y-89386000D01*
X110129162Y-89150683D01*
X110119000Y-89134891D01*
X110119000Y-88909750D01*
X109986000Y-88776750D01*
X109986000Y-87980998D01*
X109928148Y-87690159D01*
X109763401Y-87443597D01*
X109009781Y-86689977D01*
X114692537Y-86689977D01*
X119272428Y-91269868D01*
X119272428Y-91269868D01*
G37*
X119272428Y-91269868D02*
X119272428Y-96072428D01*
X119330280Y-96363267D01*
X119495027Y-96609829D01*
X120499195Y-97613997D01*
X120491559Y-97618910D01*
X120346569Y-97831110D01*
X120295560Y-98083000D01*
X120295560Y-99783000D01*
X120339838Y-100018317D01*
X120410417Y-100128000D01*
X114121000Y-100128000D01*
X114121000Y-99989410D01*
X114269691Y-100051000D01*
X114860250Y-100051000D01*
X115019000Y-99892250D01*
X115019000Y-98513766D01*
X115273000Y-98494480D01*
X115273000Y-99892250D01*
X115431750Y-100051000D01*
X116022309Y-100051000D01*
X116255698Y-99954327D01*
X116434327Y-99775699D01*
X116531000Y-99542310D01*
X116531000Y-97701750D01*
X116372250Y-97543000D01*
X116243766Y-97543000D01*
X116224480Y-97289000D01*
X116372250Y-97289000D01*
X116531000Y-97130250D01*
X116531000Y-95289690D01*
X116434327Y-95056301D01*
X116255698Y-94877673D01*
X116022309Y-94781000D01*
X115431750Y-94781000D01*
X115273000Y-94939750D01*
X115273000Y-96318234D01*
X115019000Y-96337520D01*
X115019000Y-94939750D01*
X114860250Y-94781000D01*
X114269691Y-94781000D01*
X114121000Y-94842590D01*
X114121000Y-92710000D01*
X114066954Y-92438295D01*
X113913046Y-92207954D01*
X113682705Y-92054046D01*
X113526582Y-92022991D01*
X113532657Y-92020481D01*
X113978914Y-91575003D01*
X114220724Y-90992659D01*
X114221275Y-90362107D01*
X113980481Y-89779343D01*
X113535003Y-89333086D01*
X112952659Y-89091276D01*
X112322107Y-89090725D01*
X111739343Y-89331519D01*
X111293086Y-89776997D01*
X111181000Y-90046930D01*
X111181000Y-89259690D01*
X111084327Y-89026301D01*
X110905698Y-88847673D01*
X110672309Y-88751000D01*
X110531750Y-88751000D01*
X110373000Y-88909750D01*
X110373000Y-90309000D01*
X110393000Y-90309000D01*
X110393000Y-90563000D01*
X110373000Y-90563000D01*
X110373000Y-90583000D01*
X110173440Y-90583000D01*
X110173440Y-89386000D01*
X110129162Y-89150683D01*
X110119000Y-89134891D01*
X110119000Y-88909750D01*
X109986000Y-88776750D01*
X109986000Y-87980998D01*
X109928148Y-87690159D01*
X109763401Y-87443597D01*
X109009781Y-86689977D01*
X114692537Y-86689977D01*
X119272428Y-91269868D01*
G36*
X115339748Y-97401858D02*
X115325605Y-97416000D01*
X115339748Y-97430143D01*
X115160143Y-97609748D01*
X115146000Y-97595605D01*
X115131858Y-97609748D01*
X114999000Y-97476890D01*
X114999000Y-97355110D01*
X115131858Y-97222253D01*
X115146000Y-97236395D01*
X115160143Y-97222253D01*
X115339748Y-97401858D01*
X115339748Y-97401858D01*
G37*
X115339748Y-97401858D02*
X115325605Y-97416000D01*
X115339748Y-97430143D01*
X115160143Y-97609748D01*
X115146000Y-97595605D01*
X115131858Y-97609748D01*
X114999000Y-97476890D01*
X114999000Y-97355110D01*
X115131858Y-97222253D01*
X115146000Y-97236395D01*
X115160143Y-97222253D01*
X115339748Y-97401858D01*
G36*
X77873000Y-97355110D02*
X77873000Y-97476890D01*
X77740143Y-97609748D01*
X77726000Y-97595605D01*
X77711858Y-97609748D01*
X77532253Y-97430143D01*
X77546395Y-97416000D01*
X77532253Y-97401858D01*
X77711858Y-97222253D01*
X77726000Y-97236395D01*
X77740143Y-97222253D01*
X77873000Y-97355110D01*
X77873000Y-97355110D01*
G37*
X77873000Y-97355110D02*
X77873000Y-97476890D01*
X77740143Y-97609748D01*
X77726000Y-97595605D01*
X77711858Y-97609748D01*
X77532253Y-97430143D01*
X77546395Y-97416000D01*
X77532253Y-97401858D01*
X77711858Y-97222253D01*
X77726000Y-97236395D01*
X77740143Y-97222253D01*
X77873000Y-97355110D01*
G36*
X95019748Y-97401858D02*
X95005605Y-97416000D01*
X95019748Y-97430143D01*
X94840143Y-97609748D01*
X94826000Y-97595605D01*
X94811858Y-97609748D01*
X94679000Y-97476890D01*
X94679000Y-97355110D01*
X94811858Y-97222253D01*
X94826000Y-97236395D01*
X94840143Y-97222253D01*
X95019748Y-97401858D01*
X95019748Y-97401858D01*
G37*
X95019748Y-97401858D02*
X95005605Y-97416000D01*
X95019748Y-97430143D01*
X94840143Y-97609748D01*
X94826000Y-97595605D01*
X94811858Y-97609748D01*
X94679000Y-97476890D01*
X94679000Y-97355110D01*
X94811858Y-97222253D01*
X94826000Y-97236395D01*
X94840143Y-97222253D01*
X95019748Y-97401858D01*
G36*
X98193000Y-97355110D02*
X98193000Y-97476890D01*
X98060143Y-97609748D01*
X98046000Y-97595605D01*
X98031858Y-97609748D01*
X97852253Y-97430143D01*
X97866395Y-97416000D01*
X97852253Y-97401858D01*
X98031858Y-97222253D01*
X98046000Y-97236395D01*
X98060143Y-97222253D01*
X98193000Y-97355110D01*
X98193000Y-97355110D01*
G37*
X98193000Y-97355110D02*
X98193000Y-97476890D01*
X98060143Y-97609748D01*
X98046000Y-97595605D01*
X98031858Y-97609748D01*
X97852253Y-97430143D01*
X97866395Y-97416000D01*
X97852253Y-97401858D01*
X98031858Y-97222253D01*
X98046000Y-97236395D01*
X98060143Y-97222253D01*
X98193000Y-97355110D01*
G36*
X111291519Y-91572657D02*
X111718116Y-92000000D01*
X110930025Y-92000000D01*
X111084327Y-91845699D01*
X111181000Y-91612310D01*
X111181000Y-91305182D01*
X111291519Y-91572657D01*
X111291519Y-91572657D01*
G37*
X111291519Y-91572657D02*
X111718116Y-92000000D01*
X110930025Y-92000000D01*
X111084327Y-91845699D01*
X111181000Y-91612310D01*
X111181000Y-91305182D01*
X111291519Y-91572657D01*
G36*
X107014838Y-87815167D02*
X107156883Y-88158943D01*
X107419673Y-88422192D01*
X107446000Y-88433124D01*
X107446000Y-88776750D01*
X107313000Y-88909750D01*
X107313000Y-89129089D01*
X107309569Y-89134110D01*
X107258560Y-89386000D01*
X107258560Y-90583000D01*
X107113440Y-90583000D01*
X107113440Y-89386000D01*
X107069162Y-89150683D01*
X107059000Y-89134891D01*
X107059000Y-88909750D01*
X106926000Y-88776750D01*
X106926000Y-87946455D01*
X106979838Y-87816799D01*
X106979883Y-87764999D01*
X107014882Y-87764999D01*
X107014838Y-87815167D01*
X107014838Y-87815167D01*
G37*
X107014838Y-87815167D02*
X107156883Y-88158943D01*
X107419673Y-88422192D01*
X107446000Y-88433124D01*
X107446000Y-88776750D01*
X107313000Y-88909750D01*
X107313000Y-89129089D01*
X107309569Y-89134110D01*
X107258560Y-89386000D01*
X107258560Y-90583000D01*
X107113440Y-90583000D01*
X107113440Y-89386000D01*
X107069162Y-89150683D01*
X107059000Y-89134891D01*
X107059000Y-88909750D01*
X106926000Y-88776750D01*
X106926000Y-87946455D01*
X106979838Y-87816799D01*
X106979883Y-87764999D01*
X107014882Y-87764999D01*
X107014838Y-87815167D01*
G36*
X90053000Y-90309000D02*
X90073000Y-90309000D01*
X90073000Y-90563000D01*
X90053000Y-90563000D01*
X90053000Y-90583000D01*
X89853440Y-90583000D01*
X89853440Y-90289000D01*
X90053000Y-90289000D01*
X90053000Y-90309000D01*
X90053000Y-90309000D01*
G37*
X90053000Y-90309000D02*
X90073000Y-90309000D01*
X90073000Y-90563000D01*
X90053000Y-90563000D01*
X90053000Y-90583000D01*
X89853440Y-90583000D01*
X89853440Y-90289000D01*
X90053000Y-90289000D01*
X90053000Y-90309000D01*
G36*
X86938560Y-90583000D02*
X86793440Y-90583000D01*
X86793440Y-90289000D01*
X86938560Y-90289000D01*
X86938560Y-90583000D01*
X86938560Y-90583000D01*
G37*
X86938560Y-90583000D02*
X86793440Y-90583000D01*
X86793440Y-90289000D01*
X86938560Y-90289000D01*
X86938560Y-90583000D01*
G36*
X148402199Y-90552998D02*
X137855800Y-90552998D01*
X135460552Y-88157750D01*
X138309000Y-88157750D01*
X138309000Y-88398309D01*
X138405673Y-88631698D01*
X138584301Y-88810327D01*
X138817690Y-88907000D01*
X139033250Y-88907000D01*
X139192000Y-88748250D01*
X139192000Y-87999000D01*
X139446000Y-87999000D01*
X139446000Y-88748250D01*
X139604750Y-88907000D01*
X139820310Y-88907000D01*
X140053699Y-88810327D01*
X140232327Y-88631698D01*
X140329000Y-88398309D01*
X140329000Y-88157750D01*
X140468000Y-88157750D01*
X140468000Y-88398309D01*
X140564673Y-88631698D01*
X140743301Y-88810327D01*
X140976690Y-88907000D01*
X141192250Y-88907000D01*
X141351000Y-88748250D01*
X141351000Y-87999000D01*
X141605000Y-87999000D01*
X141605000Y-88748250D01*
X141763750Y-88907000D01*
X141979310Y-88907000D01*
X142212699Y-88810327D01*
X142391327Y-88631698D01*
X142488000Y-88398309D01*
X142488000Y-88157750D01*
X142329250Y-87999000D01*
X141605000Y-87999000D01*
X141351000Y-87999000D01*
X140626750Y-87999000D01*
X140468000Y-88157750D01*
X140329000Y-88157750D01*
X140170250Y-87999000D01*
X139446000Y-87999000D01*
X139192000Y-87999000D01*
X138467750Y-87999000D01*
X138309000Y-88157750D01*
X135460552Y-88157750D01*
X135412784Y-88109982D01*
X135555317Y-88083162D01*
X135771441Y-87944090D01*
X135910890Y-87740000D01*
X138462750Y-87740000D01*
X138467750Y-87745000D01*
X139192000Y-87745000D01*
X139192000Y-87725000D01*
X139446000Y-87725000D01*
X139446000Y-87745000D01*
X140170250Y-87745000D01*
X140329000Y-87586250D01*
X140329000Y-87507000D01*
X140468000Y-87507000D01*
X140468000Y-87586250D01*
X140626750Y-87745000D01*
X141351000Y-87745000D01*
X141351000Y-87725000D01*
X141605000Y-87725000D01*
X141605000Y-87745000D01*
X142329250Y-87745000D01*
X142488000Y-87586250D01*
X142488000Y-87345691D01*
X142391327Y-87112302D01*
X142389957Y-87110932D01*
X142449431Y-87023890D01*
X142479083Y-86877465D01*
X142526603Y-86806346D01*
X142613000Y-86372000D01*
X142526603Y-85937654D01*
X142481188Y-85869686D01*
X142466194Y-85790000D01*
X153165197Y-85790000D01*
X148402199Y-90552998D01*
X148402199Y-90552998D01*
G37*
X148402199Y-90552998D02*
X137855800Y-90552998D01*
X135460552Y-88157750D01*
X138309000Y-88157750D01*
X138309000Y-88398309D01*
X138405673Y-88631698D01*
X138584301Y-88810327D01*
X138817690Y-88907000D01*
X139033250Y-88907000D01*
X139192000Y-88748250D01*
X139192000Y-87999000D01*
X139446000Y-87999000D01*
X139446000Y-88748250D01*
X139604750Y-88907000D01*
X139820310Y-88907000D01*
X140053699Y-88810327D01*
X140232327Y-88631698D01*
X140329000Y-88398309D01*
X140329000Y-88157750D01*
X140468000Y-88157750D01*
X140468000Y-88398309D01*
X140564673Y-88631698D01*
X140743301Y-88810327D01*
X140976690Y-88907000D01*
X141192250Y-88907000D01*
X141351000Y-88748250D01*
X141351000Y-87999000D01*
X141605000Y-87999000D01*
X141605000Y-88748250D01*
X141763750Y-88907000D01*
X141979310Y-88907000D01*
X142212699Y-88810327D01*
X142391327Y-88631698D01*
X142488000Y-88398309D01*
X142488000Y-88157750D01*
X142329250Y-87999000D01*
X141605000Y-87999000D01*
X141351000Y-87999000D01*
X140626750Y-87999000D01*
X140468000Y-88157750D01*
X140329000Y-88157750D01*
X140170250Y-87999000D01*
X139446000Y-87999000D01*
X139192000Y-87999000D01*
X138467750Y-87999000D01*
X138309000Y-88157750D01*
X135460552Y-88157750D01*
X135412784Y-88109982D01*
X135555317Y-88083162D01*
X135771441Y-87944090D01*
X135910890Y-87740000D01*
X138462750Y-87740000D01*
X138467750Y-87745000D01*
X139192000Y-87745000D01*
X139192000Y-87725000D01*
X139446000Y-87725000D01*
X139446000Y-87745000D01*
X140170250Y-87745000D01*
X140329000Y-87586250D01*
X140329000Y-87507000D01*
X140468000Y-87507000D01*
X140468000Y-87586250D01*
X140626750Y-87745000D01*
X141351000Y-87745000D01*
X141351000Y-87725000D01*
X141605000Y-87725000D01*
X141605000Y-87745000D01*
X142329250Y-87745000D01*
X142488000Y-87586250D01*
X142488000Y-87345691D01*
X142391327Y-87112302D01*
X142389957Y-87110932D01*
X142449431Y-87023890D01*
X142479083Y-86877465D01*
X142526603Y-86806346D01*
X142613000Y-86372000D01*
X142526603Y-85937654D01*
X142481188Y-85869686D01*
X142466194Y-85790000D01*
X153165197Y-85790000D01*
X148402199Y-90552998D01*
G36*
X137592638Y-76757560D02*
X136645000Y-76757560D01*
X136409683Y-76801838D01*
X136193559Y-76940910D01*
X136048569Y-77153110D01*
X135997560Y-77405000D01*
X135997560Y-77655000D01*
X136021944Y-77784589D01*
X136021746Y-77785566D01*
X135809161Y-77827852D01*
X135562599Y-77992599D01*
X134305198Y-79250000D01*
X129715005Y-79250000D01*
X129599799Y-79202162D01*
X129227833Y-79201838D01*
X128884057Y-79343883D01*
X128620808Y-79606673D01*
X128478162Y-79950201D01*
X128477838Y-80322167D01*
X128619883Y-80665943D01*
X128882673Y-80929192D01*
X129226201Y-81071838D01*
X129598167Y-81072162D01*
X129941943Y-80930117D01*
X130102340Y-80770000D01*
X134620000Y-80770000D01*
X134910839Y-80712148D01*
X135157401Y-80547401D01*
X136005833Y-79698969D01*
X136021944Y-79784589D01*
X135997560Y-79905000D01*
X135997560Y-80155000D01*
X136021944Y-80284589D01*
X135997560Y-80405000D01*
X135997560Y-80655000D01*
X136021944Y-80784589D01*
X135997560Y-80905000D01*
X135997560Y-81155000D01*
X136021944Y-81284589D01*
X135997560Y-81405000D01*
X135997560Y-81655000D01*
X136021944Y-81784589D01*
X135997560Y-81905000D01*
X135997560Y-82155000D01*
X136021944Y-82284589D01*
X135997560Y-82405000D01*
X135997560Y-82655000D01*
X136021944Y-82784589D01*
X135997560Y-82905000D01*
X135997560Y-83155000D01*
X136021944Y-83284589D01*
X135997560Y-83405000D01*
X135997560Y-83655000D01*
X136021944Y-83784589D01*
X135997560Y-83905000D01*
X135997560Y-84155000D01*
X136021944Y-84284589D01*
X135997560Y-84405000D01*
X135997560Y-84655000D01*
X136021944Y-84784589D01*
X135997560Y-84905000D01*
X135997560Y-85155000D01*
X136041838Y-85390317D01*
X136180910Y-85606441D01*
X136393110Y-85751431D01*
X136645000Y-85802440D01*
X136913585Y-85802440D01*
X136746397Y-86052654D01*
X136713110Y-86220000D01*
X135955000Y-86220000D01*
X135955000Y-85792000D01*
X135897148Y-85501161D01*
X135732401Y-85254599D01*
X134793122Y-84315320D01*
X134793162Y-84269833D01*
X134651117Y-83926057D01*
X134388327Y-83662808D01*
X134044799Y-83520162D01*
X133672833Y-83519838D01*
X133329057Y-83661883D01*
X133065808Y-83924673D01*
X132923162Y-84268201D01*
X132922838Y-84640167D01*
X133064883Y-84983943D01*
X133327673Y-85247192D01*
X133671201Y-85389838D01*
X133718077Y-85389879D01*
X134160758Y-85832560D01*
X134070000Y-85832560D01*
X133940411Y-85856944D01*
X133820000Y-85832560D01*
X133570000Y-85832560D01*
X133440411Y-85856944D01*
X133320000Y-85832560D01*
X133070000Y-85832560D01*
X132940411Y-85856944D01*
X132820000Y-85832560D01*
X132570000Y-85832560D01*
X132440411Y-85856944D01*
X132320000Y-85832560D01*
X132070000Y-85832560D01*
X131940411Y-85856944D01*
X131820000Y-85832560D01*
X131570000Y-85832560D01*
X131440411Y-85856944D01*
X131320000Y-85832560D01*
X131070000Y-85832560D01*
X130940411Y-85856944D01*
X130820000Y-85832560D01*
X130570000Y-85832560D01*
X130440411Y-85856944D01*
X130320000Y-85832560D01*
X130070000Y-85832560D01*
X129940411Y-85856944D01*
X129820000Y-85832560D01*
X129570000Y-85832560D01*
X129440411Y-85856944D01*
X129320000Y-85832560D01*
X129070000Y-85832560D01*
X128940411Y-85856944D01*
X128820000Y-85832560D01*
X128570000Y-85832560D01*
X128440411Y-85856944D01*
X128366371Y-85841950D01*
X128442838Y-85657799D01*
X128443162Y-85285833D01*
X128301117Y-84942057D01*
X128038327Y-84678808D01*
X127694799Y-84536162D01*
X127647923Y-84536121D01*
X127604401Y-84492599D01*
X127357839Y-84327852D01*
X127167546Y-84290000D01*
X129951198Y-84290000D01*
X130255878Y-84594680D01*
X130255838Y-84640167D01*
X130397883Y-84983943D01*
X130660673Y-85247192D01*
X131004201Y-85389838D01*
X131376167Y-85390162D01*
X131719943Y-85248117D01*
X131983192Y-84985327D01*
X132125838Y-84641799D01*
X132126162Y-84269833D01*
X131984117Y-83926057D01*
X131721327Y-83662808D01*
X131377799Y-83520162D01*
X131330923Y-83520121D01*
X130803401Y-82992599D01*
X130556839Y-82827852D01*
X130266000Y-82770000D01*
X126876400Y-82770000D01*
X126871532Y-82758247D01*
X126892440Y-82655000D01*
X126892440Y-82405000D01*
X126868056Y-82275411D01*
X126892440Y-82155000D01*
X126892440Y-81905000D01*
X126878261Y-81829647D01*
X127194201Y-81960837D01*
X127566167Y-81961161D01*
X127909943Y-81819116D01*
X128173192Y-81556326D01*
X128315838Y-81212798D01*
X128316162Y-80840832D01*
X128174117Y-80497056D01*
X127911327Y-80233807D01*
X127567799Y-80091161D01*
X127520923Y-80091120D01*
X127422402Y-79992599D01*
X127175840Y-79827852D01*
X126885001Y-79770000D01*
X126869152Y-79770000D01*
X126892440Y-79655000D01*
X126892440Y-79405000D01*
X126868056Y-79275411D01*
X126892440Y-79155000D01*
X126892440Y-78905000D01*
X126868056Y-78775411D01*
X126892440Y-78655000D01*
X126892440Y-78405000D01*
X126868056Y-78275411D01*
X126892440Y-78155000D01*
X126892440Y-77905000D01*
X126868056Y-77775411D01*
X126892440Y-77655000D01*
X126892440Y-77405000D01*
X126848162Y-77169683D01*
X126764287Y-77039337D01*
X126875839Y-77017148D01*
X127122401Y-76852401D01*
X127306383Y-76668419D01*
X127318110Y-76676431D01*
X127570000Y-76727440D01*
X127820000Y-76727440D01*
X127925705Y-76707550D01*
X127943690Y-76715000D01*
X127973750Y-76715000D01*
X127994062Y-76694688D01*
X128055317Y-76683162D01*
X128195727Y-76592810D01*
X128318110Y-76676431D01*
X128392808Y-76691558D01*
X128416250Y-76715000D01*
X128446310Y-76715000D01*
X128466753Y-76706532D01*
X128570000Y-76727440D01*
X128820000Y-76727440D01*
X128949589Y-76703056D01*
X129070000Y-76727440D01*
X129320000Y-76727440D01*
X129425705Y-76707550D01*
X129443690Y-76715000D01*
X129473750Y-76715000D01*
X129494062Y-76694688D01*
X129555317Y-76683162D01*
X129695727Y-76592810D01*
X129818110Y-76676431D01*
X129892808Y-76691558D01*
X129916250Y-76715000D01*
X129946310Y-76715000D01*
X129966753Y-76706532D01*
X130070000Y-76727440D01*
X130320000Y-76727440D01*
X130449589Y-76703056D01*
X130570000Y-76727440D01*
X130820000Y-76727440D01*
X130949589Y-76703056D01*
X131070000Y-76727440D01*
X131320000Y-76727440D01*
X131449589Y-76703056D01*
X131570000Y-76727440D01*
X131820000Y-76727440D01*
X131949589Y-76703056D01*
X132070000Y-76727440D01*
X132320000Y-76727440D01*
X132449589Y-76703056D01*
X132570000Y-76727440D01*
X132820000Y-76727440D01*
X132949589Y-76703056D01*
X133070000Y-76727440D01*
X133320000Y-76727440D01*
X133449589Y-76703056D01*
X133570000Y-76727440D01*
X133722758Y-76727440D01*
X133232198Y-77218000D01*
X130102461Y-77218000D01*
X130070325Y-77185808D01*
X129726797Y-77043162D01*
X129354831Y-77042838D01*
X129011055Y-77184883D01*
X128747806Y-77447673D01*
X128605160Y-77791201D01*
X128604836Y-78163167D01*
X128746881Y-78506943D01*
X129009671Y-78770192D01*
X129353199Y-78912838D01*
X129725165Y-78913162D01*
X130068941Y-78771117D01*
X130102116Y-78738000D01*
X133547000Y-78738000D01*
X133837839Y-78680148D01*
X134084401Y-78515401D01*
X135732401Y-76867401D01*
X135897148Y-76620839D01*
X135953011Y-76340000D01*
X138010198Y-76340000D01*
X137592638Y-76757560D01*
X137592638Y-76757560D01*
G37*
X137592638Y-76757560D02*
X136645000Y-76757560D01*
X136409683Y-76801838D01*
X136193559Y-76940910D01*
X136048569Y-77153110D01*
X135997560Y-77405000D01*
X135997560Y-77655000D01*
X136021944Y-77784589D01*
X136021746Y-77785566D01*
X135809161Y-77827852D01*
X135562599Y-77992599D01*
X134305198Y-79250000D01*
X129715005Y-79250000D01*
X129599799Y-79202162D01*
X129227833Y-79201838D01*
X128884057Y-79343883D01*
X128620808Y-79606673D01*
X128478162Y-79950201D01*
X128477838Y-80322167D01*
X128619883Y-80665943D01*
X128882673Y-80929192D01*
X129226201Y-81071838D01*
X129598167Y-81072162D01*
X129941943Y-80930117D01*
X130102340Y-80770000D01*
X134620000Y-80770000D01*
X134910839Y-80712148D01*
X135157401Y-80547401D01*
X136005833Y-79698969D01*
X136021944Y-79784589D01*
X135997560Y-79905000D01*
X135997560Y-80155000D01*
X136021944Y-80284589D01*
X135997560Y-80405000D01*
X135997560Y-80655000D01*
X136021944Y-80784589D01*
X135997560Y-80905000D01*
X135997560Y-81155000D01*
X136021944Y-81284589D01*
X135997560Y-81405000D01*
X135997560Y-81655000D01*
X136021944Y-81784589D01*
X135997560Y-81905000D01*
X135997560Y-82155000D01*
X136021944Y-82284589D01*
X135997560Y-82405000D01*
X135997560Y-82655000D01*
X136021944Y-82784589D01*
X135997560Y-82905000D01*
X135997560Y-83155000D01*
X136021944Y-83284589D01*
X135997560Y-83405000D01*
X135997560Y-83655000D01*
X136021944Y-83784589D01*
X135997560Y-83905000D01*
X135997560Y-84155000D01*
X136021944Y-84284589D01*
X135997560Y-84405000D01*
X135997560Y-84655000D01*
X136021944Y-84784589D01*
X135997560Y-84905000D01*
X135997560Y-85155000D01*
X136041838Y-85390317D01*
X136180910Y-85606441D01*
X136393110Y-85751431D01*
X136645000Y-85802440D01*
X136913585Y-85802440D01*
X136746397Y-86052654D01*
X136713110Y-86220000D01*
X135955000Y-86220000D01*
X135955000Y-85792000D01*
X135897148Y-85501161D01*
X135732401Y-85254599D01*
X134793122Y-84315320D01*
X134793162Y-84269833D01*
X134651117Y-83926057D01*
X134388327Y-83662808D01*
X134044799Y-83520162D01*
X133672833Y-83519838D01*
X133329057Y-83661883D01*
X133065808Y-83924673D01*
X132923162Y-84268201D01*
X132922838Y-84640167D01*
X133064883Y-84983943D01*
X133327673Y-85247192D01*
X133671201Y-85389838D01*
X133718077Y-85389879D01*
X134160758Y-85832560D01*
X134070000Y-85832560D01*
X133940411Y-85856944D01*
X133820000Y-85832560D01*
X133570000Y-85832560D01*
X133440411Y-85856944D01*
X133320000Y-85832560D01*
X133070000Y-85832560D01*
X132940411Y-85856944D01*
X132820000Y-85832560D01*
X132570000Y-85832560D01*
X132440411Y-85856944D01*
X132320000Y-85832560D01*
X132070000Y-85832560D01*
X131940411Y-85856944D01*
X131820000Y-85832560D01*
X131570000Y-85832560D01*
X131440411Y-85856944D01*
X131320000Y-85832560D01*
X131070000Y-85832560D01*
X130940411Y-85856944D01*
X130820000Y-85832560D01*
X130570000Y-85832560D01*
X130440411Y-85856944D01*
X130320000Y-85832560D01*
X130070000Y-85832560D01*
X129940411Y-85856944D01*
X129820000Y-85832560D01*
X129570000Y-85832560D01*
X129440411Y-85856944D01*
X129320000Y-85832560D01*
X129070000Y-85832560D01*
X128940411Y-85856944D01*
X128820000Y-85832560D01*
X128570000Y-85832560D01*
X128440411Y-85856944D01*
X128366371Y-85841950D01*
X128442838Y-85657799D01*
X128443162Y-85285833D01*
X128301117Y-84942057D01*
X128038327Y-84678808D01*
X127694799Y-84536162D01*
X127647923Y-84536121D01*
X127604401Y-84492599D01*
X127357839Y-84327852D01*
X127167546Y-84290000D01*
X129951198Y-84290000D01*
X130255878Y-84594680D01*
X130255838Y-84640167D01*
X130397883Y-84983943D01*
X130660673Y-85247192D01*
X131004201Y-85389838D01*
X131376167Y-85390162D01*
X131719943Y-85248117D01*
X131983192Y-84985327D01*
X132125838Y-84641799D01*
X132126162Y-84269833D01*
X131984117Y-83926057D01*
X131721327Y-83662808D01*
X131377799Y-83520162D01*
X131330923Y-83520121D01*
X130803401Y-82992599D01*
X130556839Y-82827852D01*
X130266000Y-82770000D01*
X126876400Y-82770000D01*
X126871532Y-82758247D01*
X126892440Y-82655000D01*
X126892440Y-82405000D01*
X126868056Y-82275411D01*
X126892440Y-82155000D01*
X126892440Y-81905000D01*
X126878261Y-81829647D01*
X127194201Y-81960837D01*
X127566167Y-81961161D01*
X127909943Y-81819116D01*
X128173192Y-81556326D01*
X128315838Y-81212798D01*
X128316162Y-80840832D01*
X128174117Y-80497056D01*
X127911327Y-80233807D01*
X127567799Y-80091161D01*
X127520923Y-80091120D01*
X127422402Y-79992599D01*
X127175840Y-79827852D01*
X126885001Y-79770000D01*
X126869152Y-79770000D01*
X126892440Y-79655000D01*
X126892440Y-79405000D01*
X126868056Y-79275411D01*
X126892440Y-79155000D01*
X126892440Y-78905000D01*
X126868056Y-78775411D01*
X126892440Y-78655000D01*
X126892440Y-78405000D01*
X126868056Y-78275411D01*
X126892440Y-78155000D01*
X126892440Y-77905000D01*
X126868056Y-77775411D01*
X126892440Y-77655000D01*
X126892440Y-77405000D01*
X126848162Y-77169683D01*
X126764287Y-77039337D01*
X126875839Y-77017148D01*
X127122401Y-76852401D01*
X127306383Y-76668419D01*
X127318110Y-76676431D01*
X127570000Y-76727440D01*
X127820000Y-76727440D01*
X127925705Y-76707550D01*
X127943690Y-76715000D01*
X127973750Y-76715000D01*
X127994062Y-76694688D01*
X128055317Y-76683162D01*
X128195727Y-76592810D01*
X128318110Y-76676431D01*
X128392808Y-76691558D01*
X128416250Y-76715000D01*
X128446310Y-76715000D01*
X128466753Y-76706532D01*
X128570000Y-76727440D01*
X128820000Y-76727440D01*
X128949589Y-76703056D01*
X129070000Y-76727440D01*
X129320000Y-76727440D01*
X129425705Y-76707550D01*
X129443690Y-76715000D01*
X129473750Y-76715000D01*
X129494062Y-76694688D01*
X129555317Y-76683162D01*
X129695727Y-76592810D01*
X129818110Y-76676431D01*
X129892808Y-76691558D01*
X129916250Y-76715000D01*
X129946310Y-76715000D01*
X129966753Y-76706532D01*
X130070000Y-76727440D01*
X130320000Y-76727440D01*
X130449589Y-76703056D01*
X130570000Y-76727440D01*
X130820000Y-76727440D01*
X130949589Y-76703056D01*
X131070000Y-76727440D01*
X131320000Y-76727440D01*
X131449589Y-76703056D01*
X131570000Y-76727440D01*
X131820000Y-76727440D01*
X131949589Y-76703056D01*
X132070000Y-76727440D01*
X132320000Y-76727440D01*
X132449589Y-76703056D01*
X132570000Y-76727440D01*
X132820000Y-76727440D01*
X132949589Y-76703056D01*
X133070000Y-76727440D01*
X133320000Y-76727440D01*
X133449589Y-76703056D01*
X133570000Y-76727440D01*
X133722758Y-76727440D01*
X133232198Y-77218000D01*
X130102461Y-77218000D01*
X130070325Y-77185808D01*
X129726797Y-77043162D01*
X129354831Y-77042838D01*
X129011055Y-77184883D01*
X128747806Y-77447673D01*
X128605160Y-77791201D01*
X128604836Y-78163167D01*
X128746881Y-78506943D01*
X129009671Y-78770192D01*
X129353199Y-78912838D01*
X129725165Y-78913162D01*
X130068941Y-78771117D01*
X130102116Y-78738000D01*
X133547000Y-78738000D01*
X133837839Y-78680148D01*
X134084401Y-78515401D01*
X135732401Y-76867401D01*
X135897148Y-76620839D01*
X135953011Y-76340000D01*
X138010198Y-76340000D01*
X137592638Y-76757560D01*
G36*
X120306750Y-83324000D02*
X121031000Y-83324000D01*
X121031000Y-83304000D01*
X121285000Y-83304000D01*
X121285000Y-83324000D01*
X121305000Y-83324000D01*
X121305000Y-83578000D01*
X121285000Y-83578000D01*
X121285000Y-83598000D01*
X121031000Y-83598000D01*
X121031000Y-83578000D01*
X120306750Y-83578000D01*
X120148000Y-83736750D01*
X120148000Y-83977309D01*
X120244673Y-84210698D01*
X120246043Y-84212068D01*
X120200509Y-84278709D01*
X119211800Y-83290000D01*
X120272750Y-83290000D01*
X120306750Y-83324000D01*
X120306750Y-83324000D01*
G37*
X120306750Y-83324000D02*
X121031000Y-83324000D01*
X121031000Y-83304000D01*
X121285000Y-83304000D01*
X121285000Y-83324000D01*
X121305000Y-83324000D01*
X121305000Y-83578000D01*
X121285000Y-83578000D01*
X121285000Y-83598000D01*
X121031000Y-83598000D01*
X121031000Y-83578000D01*
X120306750Y-83578000D01*
X120148000Y-83736750D01*
X120148000Y-83977309D01*
X120244673Y-84210698D01*
X120246043Y-84212068D01*
X120200509Y-84278709D01*
X119211800Y-83290000D01*
X120272750Y-83290000D01*
X120306750Y-83324000D01*
G36*
X154865000Y-60411590D02*
X154716309Y-60350000D01*
X154125750Y-60350000D01*
X153967000Y-60508750D01*
X153967000Y-61887234D01*
X153713000Y-61906520D01*
X153713000Y-60508750D01*
X153554250Y-60350000D01*
X152963691Y-60350000D01*
X152730302Y-60446673D01*
X152551673Y-60625301D01*
X152455000Y-60858690D01*
X152455000Y-62699250D01*
X152613750Y-62858000D01*
X152742234Y-62858000D01*
X152761520Y-63112000D01*
X152613750Y-63112000D01*
X152455000Y-63270750D01*
X152455000Y-65111310D01*
X152551673Y-65344699D01*
X152730302Y-65523327D01*
X152963691Y-65620000D01*
X153554250Y-65620000D01*
X153713000Y-65461250D01*
X153713000Y-64082766D01*
X153967000Y-64063480D01*
X153967000Y-65461250D01*
X154125750Y-65620000D01*
X154716309Y-65620000D01*
X154865000Y-65558410D01*
X154865000Y-67691000D01*
X154919046Y-67962705D01*
X155072954Y-68193046D01*
X155303295Y-68346954D01*
X155459418Y-68378009D01*
X155453343Y-68380519D01*
X155007086Y-68825997D01*
X154765276Y-69408341D01*
X154764725Y-70038893D01*
X155005519Y-70621657D01*
X155450997Y-71067914D01*
X156033341Y-71309724D01*
X156319894Y-71309974D01*
X155915434Y-71714434D01*
X155669397Y-72082655D01*
X155583000Y-72517000D01*
X155669397Y-72951345D01*
X155915434Y-73319566D01*
X156283655Y-73565603D01*
X156367848Y-73582350D01*
X152180198Y-77770000D01*
X139458802Y-77770000D01*
X145077401Y-72151401D01*
X145242148Y-71904840D01*
X145297455Y-71626795D01*
X145433000Y-71491250D01*
X145433000Y-71271911D01*
X145436431Y-71266890D01*
X145487440Y-71015000D01*
X145487440Y-69818000D01*
X145687000Y-69818000D01*
X145687000Y-69838000D01*
X145707000Y-69838000D01*
X145707000Y-70092000D01*
X145687000Y-70092000D01*
X145687000Y-71491250D01*
X145845750Y-71650000D01*
X145986309Y-71650000D01*
X146219698Y-71553327D01*
X146398327Y-71374699D01*
X146495000Y-71141310D01*
X146495000Y-70250750D01*
X146336252Y-70092002D01*
X146456669Y-70092002D01*
X146675519Y-70621657D01*
X147120997Y-71067914D01*
X147703341Y-71309724D01*
X148333893Y-71310275D01*
X148916657Y-71069481D01*
X149362914Y-70624003D01*
X149604724Y-70041659D01*
X149605275Y-69411107D01*
X149364481Y-68828343D01*
X148919003Y-68382086D01*
X148884374Y-68367707D01*
X148988705Y-68346954D01*
X149219046Y-68193046D01*
X149372954Y-67962705D01*
X149427000Y-67691000D01*
X149427000Y-65440025D01*
X149510302Y-65523327D01*
X149743691Y-65620000D01*
X150334250Y-65620000D01*
X150493000Y-65461250D01*
X150493000Y-64082766D01*
X150747000Y-64063480D01*
X150747000Y-65461250D01*
X150905750Y-65620000D01*
X151496309Y-65620000D01*
X151729698Y-65523327D01*
X151908327Y-65344699D01*
X152005000Y-65111310D01*
X152005000Y-63270750D01*
X151846250Y-63112000D01*
X151717766Y-63112000D01*
X151698480Y-62858000D01*
X151846250Y-62858000D01*
X152005000Y-62699250D01*
X152005000Y-60858690D01*
X151908327Y-60625301D01*
X151729698Y-60446673D01*
X151496309Y-60350000D01*
X150905750Y-60350000D01*
X150747000Y-60508750D01*
X150747000Y-61887234D01*
X150493000Y-61906520D01*
X150493000Y-60508750D01*
X150334250Y-60350000D01*
X149743691Y-60350000D01*
X149510302Y-60446673D01*
X149427000Y-60529975D01*
X149427000Y-60273000D01*
X154865000Y-60273000D01*
X154865000Y-60411590D01*
X154865000Y-60411590D01*
G37*
X154865000Y-60411590D02*
X154716309Y-60350000D01*
X154125750Y-60350000D01*
X153967000Y-60508750D01*
X153967000Y-61887234D01*
X153713000Y-61906520D01*
X153713000Y-60508750D01*
X153554250Y-60350000D01*
X152963691Y-60350000D01*
X152730302Y-60446673D01*
X152551673Y-60625301D01*
X152455000Y-60858690D01*
X152455000Y-62699250D01*
X152613750Y-62858000D01*
X152742234Y-62858000D01*
X152761520Y-63112000D01*
X152613750Y-63112000D01*
X152455000Y-63270750D01*
X152455000Y-65111310D01*
X152551673Y-65344699D01*
X152730302Y-65523327D01*
X152963691Y-65620000D01*
X153554250Y-65620000D01*
X153713000Y-65461250D01*
X153713000Y-64082766D01*
X153967000Y-64063480D01*
X153967000Y-65461250D01*
X154125750Y-65620000D01*
X154716309Y-65620000D01*
X154865000Y-65558410D01*
X154865000Y-67691000D01*
X154919046Y-67962705D01*
X155072954Y-68193046D01*
X155303295Y-68346954D01*
X155459418Y-68378009D01*
X155453343Y-68380519D01*
X155007086Y-68825997D01*
X154765276Y-69408341D01*
X154764725Y-70038893D01*
X155005519Y-70621657D01*
X155450997Y-71067914D01*
X156033341Y-71309724D01*
X156319894Y-71309974D01*
X155915434Y-71714434D01*
X155669397Y-72082655D01*
X155583000Y-72517000D01*
X155669397Y-72951345D01*
X155915434Y-73319566D01*
X156283655Y-73565603D01*
X156367848Y-73582350D01*
X152180198Y-77770000D01*
X139458802Y-77770000D01*
X145077401Y-72151401D01*
X145242148Y-71904840D01*
X145297455Y-71626795D01*
X145433000Y-71491250D01*
X145433000Y-71271911D01*
X145436431Y-71266890D01*
X145487440Y-71015000D01*
X145487440Y-69818000D01*
X145687000Y-69818000D01*
X145687000Y-69838000D01*
X145707000Y-69838000D01*
X145707000Y-70092000D01*
X145687000Y-70092000D01*
X145687000Y-71491250D01*
X145845750Y-71650000D01*
X145986309Y-71650000D01*
X146219698Y-71553327D01*
X146398327Y-71374699D01*
X146495000Y-71141310D01*
X146495000Y-70250750D01*
X146336252Y-70092002D01*
X146456669Y-70092002D01*
X146675519Y-70621657D01*
X147120997Y-71067914D01*
X147703341Y-71309724D01*
X148333893Y-71310275D01*
X148916657Y-71069481D01*
X149362914Y-70624003D01*
X149604724Y-70041659D01*
X149605275Y-69411107D01*
X149364481Y-68828343D01*
X148919003Y-68382086D01*
X148884374Y-68367707D01*
X148988705Y-68346954D01*
X149219046Y-68193046D01*
X149372954Y-67962705D01*
X149427000Y-67691000D01*
X149427000Y-65440025D01*
X149510302Y-65523327D01*
X149743691Y-65620000D01*
X150334250Y-65620000D01*
X150493000Y-65461250D01*
X150493000Y-64082766D01*
X150747000Y-64063480D01*
X150747000Y-65461250D01*
X150905750Y-65620000D01*
X151496309Y-65620000D01*
X151729698Y-65523327D01*
X151908327Y-65344699D01*
X152005000Y-65111310D01*
X152005000Y-63270750D01*
X151846250Y-63112000D01*
X151717766Y-63112000D01*
X151698480Y-62858000D01*
X151846250Y-62858000D01*
X152005000Y-62699250D01*
X152005000Y-60858690D01*
X151908327Y-60625301D01*
X151729698Y-60446673D01*
X151496309Y-60350000D01*
X150905750Y-60350000D01*
X150747000Y-60508750D01*
X150747000Y-61887234D01*
X150493000Y-61906520D01*
X150493000Y-60508750D01*
X150334250Y-60350000D01*
X149743691Y-60350000D01*
X149510302Y-60446673D01*
X149427000Y-60529975D01*
X149427000Y-60273000D01*
X154865000Y-60273000D01*
X154865000Y-60411590D01*
G36*
X114225000Y-60411590D02*
X114076309Y-60350000D01*
X113485750Y-60350000D01*
X113327000Y-60508750D01*
X113327000Y-61887234D01*
X113073000Y-61906520D01*
X113073000Y-60508750D01*
X112914250Y-60350000D01*
X112323691Y-60350000D01*
X112090302Y-60446673D01*
X111911673Y-60625301D01*
X111815000Y-60858690D01*
X111815000Y-62699250D01*
X111973750Y-62858000D01*
X112102234Y-62858000D01*
X112121520Y-63112000D01*
X111973750Y-63112000D01*
X111815000Y-63270750D01*
X111815000Y-65111310D01*
X111911673Y-65344699D01*
X112090302Y-65523327D01*
X112323691Y-65620000D01*
X112914250Y-65620000D01*
X113073000Y-65461250D01*
X113073000Y-64082766D01*
X113327000Y-64063480D01*
X113327000Y-65461250D01*
X113485750Y-65620000D01*
X114076309Y-65620000D01*
X114225000Y-65558410D01*
X114225000Y-67691000D01*
X114279046Y-67962705D01*
X114432954Y-68193046D01*
X114663295Y-68346954D01*
X114819418Y-68378009D01*
X114813343Y-68380519D01*
X114367086Y-68825997D01*
X114125276Y-69408341D01*
X114124725Y-70038893D01*
X114365519Y-70621657D01*
X114810997Y-71067914D01*
X115393341Y-71309724D01*
X116023893Y-71310275D01*
X116606657Y-71069481D01*
X116965000Y-70711764D01*
X116965000Y-71675868D01*
X116926434Y-71714434D01*
X116680397Y-72082655D01*
X116594000Y-72517000D01*
X116680397Y-72951345D01*
X116926434Y-73319566D01*
X117294655Y-73565603D01*
X117729000Y-73652000D01*
X118163345Y-73565603D01*
X118531566Y-73319566D01*
X118902566Y-72948566D01*
X118935017Y-72900000D01*
X119148603Y-72580346D01*
X119183766Y-72403568D01*
X120930627Y-74150429D01*
X121177189Y-74315176D01*
X121468028Y-74373028D01*
X122180000Y-74373028D01*
X122180000Y-74529250D01*
X122338750Y-74688000D01*
X123063000Y-74688000D01*
X123063000Y-74668000D01*
X123317000Y-74668000D01*
X123317000Y-74688000D01*
X124041250Y-74688000D01*
X124200000Y-74529250D01*
X124200000Y-74373028D01*
X128663226Y-74373028D01*
X128722758Y-74432560D01*
X128570000Y-74432560D01*
X128464295Y-74452450D01*
X128446310Y-74445000D01*
X128416250Y-74445000D01*
X128395938Y-74465312D01*
X128334683Y-74476838D01*
X128194273Y-74567190D01*
X128071890Y-74483569D01*
X127997192Y-74468442D01*
X127973750Y-74445000D01*
X127943690Y-74445000D01*
X127923247Y-74453468D01*
X127820000Y-74432560D01*
X127570000Y-74432560D01*
X127334683Y-74476838D01*
X127118559Y-74615910D01*
X126973569Y-74828110D01*
X126953221Y-74928594D01*
X126782599Y-75042599D01*
X126281340Y-75543858D01*
X126260327Y-75522808D01*
X125916799Y-75380162D01*
X125544833Y-75379838D01*
X125201057Y-75521883D01*
X125167882Y-75555000D01*
X124111486Y-75555000D01*
X124200000Y-75341309D01*
X124200000Y-75100750D01*
X124041250Y-74942000D01*
X123317000Y-74942000D01*
X123317000Y-74962000D01*
X123063000Y-74962000D01*
X123063000Y-74942000D01*
X122338750Y-74942000D01*
X122180000Y-75100750D01*
X122180000Y-75341309D01*
X122276673Y-75574698D01*
X122278043Y-75576068D01*
X122218569Y-75663110D01*
X122167560Y-75915000D01*
X122167560Y-76715000D01*
X122211838Y-76950317D01*
X122350910Y-77166441D01*
X122502474Y-77270000D01*
X118919499Y-77270000D01*
X112557988Y-70908489D01*
X112311426Y-70743742D01*
X112020587Y-70685890D01*
X108660919Y-70685890D01*
X108722914Y-70624003D01*
X108964724Y-70041659D01*
X108965275Y-69411107D01*
X108724481Y-68828343D01*
X108279003Y-68382086D01*
X108244374Y-68367707D01*
X108348705Y-68346954D01*
X108579046Y-68193046D01*
X108732954Y-67962705D01*
X108787000Y-67691000D01*
X108787000Y-65440025D01*
X108870302Y-65523327D01*
X109103691Y-65620000D01*
X109694250Y-65620000D01*
X109853000Y-65461250D01*
X109853000Y-64082766D01*
X110107000Y-64063480D01*
X110107000Y-65461250D01*
X110265750Y-65620000D01*
X110856309Y-65620000D01*
X111089698Y-65523327D01*
X111268327Y-65344699D01*
X111365000Y-65111310D01*
X111365000Y-63270750D01*
X111206250Y-63112000D01*
X111077766Y-63112000D01*
X111058480Y-62858000D01*
X111206250Y-62858000D01*
X111365000Y-62699250D01*
X111365000Y-60858690D01*
X111268327Y-60625301D01*
X111089698Y-60446673D01*
X110856309Y-60350000D01*
X110265750Y-60350000D01*
X110107000Y-60508750D01*
X110107000Y-61887234D01*
X109853000Y-61906520D01*
X109853000Y-60508750D01*
X109694250Y-60350000D01*
X109103691Y-60350000D01*
X108870302Y-60446673D01*
X108787000Y-60529975D01*
X108787000Y-60273000D01*
X114225000Y-60273000D01*
X114225000Y-60411590D01*
X114225000Y-60411590D01*
G37*
X114225000Y-60411590D02*
X114076309Y-60350000D01*
X113485750Y-60350000D01*
X113327000Y-60508750D01*
X113327000Y-61887234D01*
X113073000Y-61906520D01*
X113073000Y-60508750D01*
X112914250Y-60350000D01*
X112323691Y-60350000D01*
X112090302Y-60446673D01*
X111911673Y-60625301D01*
X111815000Y-60858690D01*
X111815000Y-62699250D01*
X111973750Y-62858000D01*
X112102234Y-62858000D01*
X112121520Y-63112000D01*
X111973750Y-63112000D01*
X111815000Y-63270750D01*
X111815000Y-65111310D01*
X111911673Y-65344699D01*
X112090302Y-65523327D01*
X112323691Y-65620000D01*
X112914250Y-65620000D01*
X113073000Y-65461250D01*
X113073000Y-64082766D01*
X113327000Y-64063480D01*
X113327000Y-65461250D01*
X113485750Y-65620000D01*
X114076309Y-65620000D01*
X114225000Y-65558410D01*
X114225000Y-67691000D01*
X114279046Y-67962705D01*
X114432954Y-68193046D01*
X114663295Y-68346954D01*
X114819418Y-68378009D01*
X114813343Y-68380519D01*
X114367086Y-68825997D01*
X114125276Y-69408341D01*
X114124725Y-70038893D01*
X114365519Y-70621657D01*
X114810997Y-71067914D01*
X115393341Y-71309724D01*
X116023893Y-71310275D01*
X116606657Y-71069481D01*
X116965000Y-70711764D01*
X116965000Y-71675868D01*
X116926434Y-71714434D01*
X116680397Y-72082655D01*
X116594000Y-72517000D01*
X116680397Y-72951345D01*
X116926434Y-73319566D01*
X117294655Y-73565603D01*
X117729000Y-73652000D01*
X118163345Y-73565603D01*
X118531566Y-73319566D01*
X118902566Y-72948566D01*
X118935017Y-72900000D01*
X119148603Y-72580346D01*
X119183766Y-72403568D01*
X120930627Y-74150429D01*
X121177189Y-74315176D01*
X121468028Y-74373028D01*
X122180000Y-74373028D01*
X122180000Y-74529250D01*
X122338750Y-74688000D01*
X123063000Y-74688000D01*
X123063000Y-74668000D01*
X123317000Y-74668000D01*
X123317000Y-74688000D01*
X124041250Y-74688000D01*
X124200000Y-74529250D01*
X124200000Y-74373028D01*
X128663226Y-74373028D01*
X128722758Y-74432560D01*
X128570000Y-74432560D01*
X128464295Y-74452450D01*
X128446310Y-74445000D01*
X128416250Y-74445000D01*
X128395938Y-74465312D01*
X128334683Y-74476838D01*
X128194273Y-74567190D01*
X128071890Y-74483569D01*
X127997192Y-74468442D01*
X127973750Y-74445000D01*
X127943690Y-74445000D01*
X127923247Y-74453468D01*
X127820000Y-74432560D01*
X127570000Y-74432560D01*
X127334683Y-74476838D01*
X127118559Y-74615910D01*
X126973569Y-74828110D01*
X126953221Y-74928594D01*
X126782599Y-75042599D01*
X126281340Y-75543858D01*
X126260327Y-75522808D01*
X125916799Y-75380162D01*
X125544833Y-75379838D01*
X125201057Y-75521883D01*
X125167882Y-75555000D01*
X124111486Y-75555000D01*
X124200000Y-75341309D01*
X124200000Y-75100750D01*
X124041250Y-74942000D01*
X123317000Y-74942000D01*
X123317000Y-74962000D01*
X123063000Y-74962000D01*
X123063000Y-74942000D01*
X122338750Y-74942000D01*
X122180000Y-75100750D01*
X122180000Y-75341309D01*
X122276673Y-75574698D01*
X122278043Y-75576068D01*
X122218569Y-75663110D01*
X122167560Y-75915000D01*
X122167560Y-76715000D01*
X122211838Y-76950317D01*
X122350910Y-77166441D01*
X122502474Y-77270000D01*
X118919499Y-77270000D01*
X112557988Y-70908489D01*
X112311426Y-70743742D01*
X112020587Y-70685890D01*
X108660919Y-70685890D01*
X108722914Y-70624003D01*
X108964724Y-70041659D01*
X108965275Y-69411107D01*
X108724481Y-68828343D01*
X108279003Y-68382086D01*
X108244374Y-68367707D01*
X108348705Y-68346954D01*
X108579046Y-68193046D01*
X108732954Y-67962705D01*
X108787000Y-67691000D01*
X108787000Y-65440025D01*
X108870302Y-65523327D01*
X109103691Y-65620000D01*
X109694250Y-65620000D01*
X109853000Y-65461250D01*
X109853000Y-64082766D01*
X110107000Y-64063480D01*
X110107000Y-65461250D01*
X110265750Y-65620000D01*
X110856309Y-65620000D01*
X111089698Y-65523327D01*
X111268327Y-65344699D01*
X111365000Y-65111310D01*
X111365000Y-63270750D01*
X111206250Y-63112000D01*
X111077766Y-63112000D01*
X111058480Y-62858000D01*
X111206250Y-62858000D01*
X111365000Y-62699250D01*
X111365000Y-60858690D01*
X111268327Y-60625301D01*
X111089698Y-60446673D01*
X110856309Y-60350000D01*
X110265750Y-60350000D01*
X110107000Y-60508750D01*
X110107000Y-61887234D01*
X109853000Y-61906520D01*
X109853000Y-60508750D01*
X109694250Y-60350000D01*
X109103691Y-60350000D01*
X108870302Y-60446673D01*
X108787000Y-60529975D01*
X108787000Y-60273000D01*
X114225000Y-60273000D01*
X114225000Y-60411590D01*
G36*
X73585000Y-60411590D02*
X73436309Y-60350000D01*
X72845750Y-60350000D01*
X72687000Y-60508750D01*
X72687000Y-61887234D01*
X72433000Y-61906520D01*
X72433000Y-60508750D01*
X72274250Y-60350000D01*
X71683691Y-60350000D01*
X71450302Y-60446673D01*
X71271673Y-60625301D01*
X71175000Y-60858690D01*
X71175000Y-62699250D01*
X71333750Y-62858000D01*
X71462234Y-62858000D01*
X71481520Y-63112000D01*
X71333750Y-63112000D01*
X71175000Y-63270750D01*
X71175000Y-65111310D01*
X71271673Y-65344699D01*
X71450302Y-65523327D01*
X71683691Y-65620000D01*
X72274250Y-65620000D01*
X72433000Y-65461250D01*
X72433000Y-64082766D01*
X72687000Y-64063480D01*
X72687000Y-65461250D01*
X72845750Y-65620000D01*
X73436309Y-65620000D01*
X73585000Y-65558410D01*
X73585000Y-67691000D01*
X73639046Y-67962705D01*
X73792954Y-68193046D01*
X74023295Y-68346954D01*
X74179418Y-68378009D01*
X74173343Y-68380519D01*
X73727086Y-68825997D01*
X73485276Y-69408341D01*
X73484725Y-70038893D01*
X73725519Y-70621657D01*
X74170997Y-71067914D01*
X74753341Y-71309724D01*
X75383893Y-71310275D01*
X75966657Y-71069481D01*
X76325000Y-70711764D01*
X76325000Y-72507000D01*
X76411397Y-72941346D01*
X76617908Y-73250411D01*
X76657434Y-73309566D01*
X76667434Y-73319566D01*
X77035655Y-73565603D01*
X77470000Y-73652000D01*
X77904345Y-73565603D01*
X78272566Y-73319566D01*
X78518603Y-72951345D01*
X78605000Y-72517000D01*
X78595000Y-72466727D01*
X78595000Y-72454802D01*
X82342198Y-76202000D01*
X69271802Y-76202000D01*
X64715850Y-71646048D01*
X64939698Y-71553327D01*
X65118327Y-71374699D01*
X65215000Y-71141310D01*
X65215000Y-70250750D01*
X65056252Y-70092002D01*
X65176669Y-70092002D01*
X65395519Y-70621657D01*
X65840997Y-71067914D01*
X66423341Y-71309724D01*
X67053893Y-71310275D01*
X67636657Y-71069481D01*
X68082914Y-70624003D01*
X68324724Y-70041659D01*
X68325275Y-69411107D01*
X68084481Y-68828343D01*
X67639003Y-68382086D01*
X67604374Y-68367707D01*
X67708705Y-68346954D01*
X67939046Y-68193046D01*
X68092954Y-67962705D01*
X68147000Y-67691000D01*
X68147000Y-65440025D01*
X68230302Y-65523327D01*
X68463691Y-65620000D01*
X69054250Y-65620000D01*
X69213000Y-65461250D01*
X69213000Y-64082766D01*
X69467000Y-64063480D01*
X69467000Y-65461250D01*
X69625750Y-65620000D01*
X70216309Y-65620000D01*
X70449698Y-65523327D01*
X70628327Y-65344699D01*
X70725000Y-65111310D01*
X70725000Y-63270750D01*
X70566250Y-63112000D01*
X70437766Y-63112000D01*
X70418480Y-62858000D01*
X70566250Y-62858000D01*
X70725000Y-62699250D01*
X70725000Y-60858690D01*
X70628327Y-60625301D01*
X70449698Y-60446673D01*
X70216309Y-60350000D01*
X69625750Y-60350000D01*
X69467000Y-60508750D01*
X69467000Y-61887234D01*
X69213000Y-61906520D01*
X69213000Y-60508750D01*
X69054250Y-60350000D01*
X68463691Y-60350000D01*
X68230302Y-60446673D01*
X68147000Y-60529975D01*
X68147000Y-60273000D01*
X73585000Y-60273000D01*
X73585000Y-60411590D01*
X73585000Y-60411590D01*
G37*
X73585000Y-60411590D02*
X73436309Y-60350000D01*
X72845750Y-60350000D01*
X72687000Y-60508750D01*
X72687000Y-61887234D01*
X72433000Y-61906520D01*
X72433000Y-60508750D01*
X72274250Y-60350000D01*
X71683691Y-60350000D01*
X71450302Y-60446673D01*
X71271673Y-60625301D01*
X71175000Y-60858690D01*
X71175000Y-62699250D01*
X71333750Y-62858000D01*
X71462234Y-62858000D01*
X71481520Y-63112000D01*
X71333750Y-63112000D01*
X71175000Y-63270750D01*
X71175000Y-65111310D01*
X71271673Y-65344699D01*
X71450302Y-65523327D01*
X71683691Y-65620000D01*
X72274250Y-65620000D01*
X72433000Y-65461250D01*
X72433000Y-64082766D01*
X72687000Y-64063480D01*
X72687000Y-65461250D01*
X72845750Y-65620000D01*
X73436309Y-65620000D01*
X73585000Y-65558410D01*
X73585000Y-67691000D01*
X73639046Y-67962705D01*
X73792954Y-68193046D01*
X74023295Y-68346954D01*
X74179418Y-68378009D01*
X74173343Y-68380519D01*
X73727086Y-68825997D01*
X73485276Y-69408341D01*
X73484725Y-70038893D01*
X73725519Y-70621657D01*
X74170997Y-71067914D01*
X74753341Y-71309724D01*
X75383893Y-71310275D01*
X75966657Y-71069481D01*
X76325000Y-70711764D01*
X76325000Y-72507000D01*
X76411397Y-72941346D01*
X76617908Y-73250411D01*
X76657434Y-73309566D01*
X76667434Y-73319566D01*
X77035655Y-73565603D01*
X77470000Y-73652000D01*
X77904345Y-73565603D01*
X78272566Y-73319566D01*
X78518603Y-72951345D01*
X78605000Y-72517000D01*
X78595000Y-72466727D01*
X78595000Y-72454802D01*
X82342198Y-76202000D01*
X69271802Y-76202000D01*
X64715850Y-71646048D01*
X64939698Y-71553327D01*
X65118327Y-71374699D01*
X65215000Y-71141310D01*
X65215000Y-70250750D01*
X65056252Y-70092002D01*
X65176669Y-70092002D01*
X65395519Y-70621657D01*
X65840997Y-71067914D01*
X66423341Y-71309724D01*
X67053893Y-71310275D01*
X67636657Y-71069481D01*
X68082914Y-70624003D01*
X68324724Y-70041659D01*
X68325275Y-69411107D01*
X68084481Y-68828343D01*
X67639003Y-68382086D01*
X67604374Y-68367707D01*
X67708705Y-68346954D01*
X67939046Y-68193046D01*
X68092954Y-67962705D01*
X68147000Y-67691000D01*
X68147000Y-65440025D01*
X68230302Y-65523327D01*
X68463691Y-65620000D01*
X69054250Y-65620000D01*
X69213000Y-65461250D01*
X69213000Y-64082766D01*
X69467000Y-64063480D01*
X69467000Y-65461250D01*
X69625750Y-65620000D01*
X70216309Y-65620000D01*
X70449698Y-65523327D01*
X70628327Y-65344699D01*
X70725000Y-65111310D01*
X70725000Y-63270750D01*
X70566250Y-63112000D01*
X70437766Y-63112000D01*
X70418480Y-62858000D01*
X70566250Y-62858000D01*
X70725000Y-62699250D01*
X70725000Y-60858690D01*
X70628327Y-60625301D01*
X70449698Y-60446673D01*
X70216309Y-60350000D01*
X69625750Y-60350000D01*
X69467000Y-60508750D01*
X69467000Y-61887234D01*
X69213000Y-61906520D01*
X69213000Y-60508750D01*
X69054250Y-60350000D01*
X68463691Y-60350000D01*
X68230302Y-60446673D01*
X68147000Y-60529975D01*
X68147000Y-60273000D01*
X73585000Y-60273000D01*
X73585000Y-60411590D01*
G36*
X195505000Y-60411590D02*
X195356309Y-60350000D01*
X194765750Y-60350000D01*
X194607000Y-60508750D01*
X194607000Y-61887234D01*
X194353000Y-61906520D01*
X194353000Y-60508750D01*
X194194250Y-60350000D01*
X193603691Y-60350000D01*
X193370302Y-60446673D01*
X193191673Y-60625301D01*
X193095000Y-60858690D01*
X193095000Y-62699250D01*
X193253750Y-62858000D01*
X193382234Y-62858000D01*
X193401520Y-63112000D01*
X193253750Y-63112000D01*
X193095000Y-63270750D01*
X193095000Y-65111310D01*
X193191673Y-65344699D01*
X193370302Y-65523327D01*
X193603691Y-65620000D01*
X194194250Y-65620000D01*
X194353000Y-65461250D01*
X194353000Y-64082766D01*
X194607000Y-64063480D01*
X194607000Y-65461250D01*
X194765750Y-65620000D01*
X195356309Y-65620000D01*
X195505000Y-65558410D01*
X195505000Y-67691000D01*
X195559046Y-67962705D01*
X195712954Y-68193046D01*
X195943295Y-68346954D01*
X196099418Y-68378009D01*
X196093343Y-68380519D01*
X195647086Y-68825997D01*
X195405276Y-69408341D01*
X195404725Y-70038893D01*
X195645519Y-70621657D01*
X196090997Y-71067914D01*
X196673341Y-71309724D01*
X197086783Y-71310085D01*
X196682434Y-71714434D01*
X196436397Y-72082655D01*
X196350000Y-72517000D01*
X196436397Y-72951345D01*
X196682434Y-73319566D01*
X197035033Y-73555165D01*
X195495253Y-75094945D01*
X182424857Y-75094945D01*
X185717401Y-71802401D01*
X185819232Y-71650000D01*
X185914250Y-71650000D01*
X186073000Y-71491250D01*
X186073000Y-71271911D01*
X186076431Y-71266890D01*
X186127440Y-71015000D01*
X186127440Y-69818000D01*
X186327000Y-69818000D01*
X186327000Y-69838000D01*
X186347000Y-69838000D01*
X186347000Y-70092000D01*
X186327000Y-70092000D01*
X186327000Y-71491250D01*
X186485750Y-71650000D01*
X186626309Y-71650000D01*
X186859698Y-71553327D01*
X187038327Y-71374699D01*
X187135000Y-71141310D01*
X187135000Y-70250750D01*
X186976252Y-70092002D01*
X187096669Y-70092002D01*
X187315519Y-70621657D01*
X187760997Y-71067914D01*
X188343341Y-71309724D01*
X188973893Y-71310275D01*
X189556657Y-71069481D01*
X190002914Y-70624003D01*
X190244724Y-70041659D01*
X190245275Y-69411107D01*
X190004481Y-68828343D01*
X189559003Y-68382086D01*
X189524374Y-68367707D01*
X189628705Y-68346954D01*
X189859046Y-68193046D01*
X190012954Y-67962705D01*
X190067000Y-67691000D01*
X190067000Y-65440025D01*
X190150302Y-65523327D01*
X190383691Y-65620000D01*
X190974250Y-65620000D01*
X191133000Y-65461250D01*
X191133000Y-64082766D01*
X191387000Y-64063480D01*
X191387000Y-65461250D01*
X191545750Y-65620000D01*
X192136309Y-65620000D01*
X192369698Y-65523327D01*
X192548327Y-65344699D01*
X192645000Y-65111310D01*
X192645000Y-63270750D01*
X192486250Y-63112000D01*
X192357766Y-63112000D01*
X192338480Y-62858000D01*
X192486250Y-62858000D01*
X192645000Y-62699250D01*
X192645000Y-60858690D01*
X192548327Y-60625301D01*
X192369698Y-60446673D01*
X192136309Y-60350000D01*
X191545750Y-60350000D01*
X191387000Y-60508750D01*
X191387000Y-61887234D01*
X191133000Y-61906520D01*
X191133000Y-60508750D01*
X190974250Y-60350000D01*
X190383691Y-60350000D01*
X190150302Y-60446673D01*
X190067000Y-60529975D01*
X190067000Y-60273000D01*
X195505000Y-60273000D01*
X195505000Y-60411590D01*
X195505000Y-60411590D01*
G37*
X195505000Y-60411590D02*
X195356309Y-60350000D01*
X194765750Y-60350000D01*
X194607000Y-60508750D01*
X194607000Y-61887234D01*
X194353000Y-61906520D01*
X194353000Y-60508750D01*
X194194250Y-60350000D01*
X193603691Y-60350000D01*
X193370302Y-60446673D01*
X193191673Y-60625301D01*
X193095000Y-60858690D01*
X193095000Y-62699250D01*
X193253750Y-62858000D01*
X193382234Y-62858000D01*
X193401520Y-63112000D01*
X193253750Y-63112000D01*
X193095000Y-63270750D01*
X193095000Y-65111310D01*
X193191673Y-65344699D01*
X193370302Y-65523327D01*
X193603691Y-65620000D01*
X194194250Y-65620000D01*
X194353000Y-65461250D01*
X194353000Y-64082766D01*
X194607000Y-64063480D01*
X194607000Y-65461250D01*
X194765750Y-65620000D01*
X195356309Y-65620000D01*
X195505000Y-65558410D01*
X195505000Y-67691000D01*
X195559046Y-67962705D01*
X195712954Y-68193046D01*
X195943295Y-68346954D01*
X196099418Y-68378009D01*
X196093343Y-68380519D01*
X195647086Y-68825997D01*
X195405276Y-69408341D01*
X195404725Y-70038893D01*
X195645519Y-70621657D01*
X196090997Y-71067914D01*
X196673341Y-71309724D01*
X197086783Y-71310085D01*
X196682434Y-71714434D01*
X196436397Y-72082655D01*
X196350000Y-72517000D01*
X196436397Y-72951345D01*
X196682434Y-73319566D01*
X197035033Y-73555165D01*
X195495253Y-75094945D01*
X182424857Y-75094945D01*
X185717401Y-71802401D01*
X185819232Y-71650000D01*
X185914250Y-71650000D01*
X186073000Y-71491250D01*
X186073000Y-71271911D01*
X186076431Y-71266890D01*
X186127440Y-71015000D01*
X186127440Y-69818000D01*
X186327000Y-69818000D01*
X186327000Y-69838000D01*
X186347000Y-69838000D01*
X186347000Y-70092000D01*
X186327000Y-70092000D01*
X186327000Y-71491250D01*
X186485750Y-71650000D01*
X186626309Y-71650000D01*
X186859698Y-71553327D01*
X187038327Y-71374699D01*
X187135000Y-71141310D01*
X187135000Y-70250750D01*
X186976252Y-70092002D01*
X187096669Y-70092002D01*
X187315519Y-70621657D01*
X187760997Y-71067914D01*
X188343341Y-71309724D01*
X188973893Y-71310275D01*
X189556657Y-71069481D01*
X190002914Y-70624003D01*
X190244724Y-70041659D01*
X190245275Y-69411107D01*
X190004481Y-68828343D01*
X189559003Y-68382086D01*
X189524374Y-68367707D01*
X189628705Y-68346954D01*
X189859046Y-68193046D01*
X190012954Y-67962705D01*
X190067000Y-67691000D01*
X190067000Y-65440025D01*
X190150302Y-65523327D01*
X190383691Y-65620000D01*
X190974250Y-65620000D01*
X191133000Y-65461250D01*
X191133000Y-64082766D01*
X191387000Y-64063480D01*
X191387000Y-65461250D01*
X191545750Y-65620000D01*
X192136309Y-65620000D01*
X192369698Y-65523327D01*
X192548327Y-65344699D01*
X192645000Y-65111310D01*
X192645000Y-63270750D01*
X192486250Y-63112000D01*
X192357766Y-63112000D01*
X192338480Y-62858000D01*
X192486250Y-62858000D01*
X192645000Y-62699250D01*
X192645000Y-60858690D01*
X192548327Y-60625301D01*
X192369698Y-60446673D01*
X192136309Y-60350000D01*
X191545750Y-60350000D01*
X191387000Y-60508750D01*
X191387000Y-61887234D01*
X191133000Y-61906520D01*
X191133000Y-60508750D01*
X190974250Y-60350000D01*
X190383691Y-60350000D01*
X190150302Y-60446673D01*
X190067000Y-60529975D01*
X190067000Y-60273000D01*
X195505000Y-60273000D01*
X195505000Y-60411590D01*
G36*
X93905000Y-60411590D02*
X93756309Y-60350000D01*
X93165750Y-60350000D01*
X93007000Y-60508750D01*
X93007000Y-61887234D01*
X92753000Y-61906520D01*
X92753000Y-60508750D01*
X92594250Y-60350000D01*
X92003691Y-60350000D01*
X91770302Y-60446673D01*
X91591673Y-60625301D01*
X91495000Y-60858690D01*
X91495000Y-62699250D01*
X91653750Y-62858000D01*
X91782234Y-62858000D01*
X91801520Y-63112000D01*
X91653750Y-63112000D01*
X91495000Y-63270750D01*
X91495000Y-65111310D01*
X91591673Y-65344699D01*
X91770302Y-65523327D01*
X92003691Y-65620000D01*
X92594250Y-65620000D01*
X92753000Y-65461250D01*
X92753000Y-64082766D01*
X93007000Y-64063480D01*
X93007000Y-65461250D01*
X93165750Y-65620000D01*
X93756309Y-65620000D01*
X93905000Y-65558410D01*
X93905000Y-67691000D01*
X93959046Y-67962705D01*
X94112954Y-68193046D01*
X94343295Y-68346954D01*
X94499418Y-68378009D01*
X94493343Y-68380519D01*
X94047086Y-68825997D01*
X93805276Y-69408341D01*
X93804725Y-70038893D01*
X94045519Y-70621657D01*
X94490997Y-71067914D01*
X95073341Y-71309724D01*
X95703893Y-71310275D01*
X96286657Y-71069481D01*
X96645000Y-70711764D01*
X96645000Y-71294868D01*
X96225434Y-71714434D01*
X95979397Y-72082655D01*
X95893000Y-72517000D01*
X95979397Y-72951345D01*
X96225434Y-73319566D01*
X96324794Y-73385956D01*
X86775758Y-73385956D01*
X85035850Y-71646048D01*
X85259698Y-71553327D01*
X85438327Y-71374699D01*
X85535000Y-71141310D01*
X85535000Y-70250750D01*
X85376252Y-70092002D01*
X85496669Y-70092002D01*
X85715519Y-70621657D01*
X86160997Y-71067914D01*
X86743341Y-71309724D01*
X87373893Y-71310275D01*
X87956657Y-71069481D01*
X88402914Y-70624003D01*
X88644724Y-70041659D01*
X88645275Y-69411107D01*
X88404481Y-68828343D01*
X87959003Y-68382086D01*
X87924374Y-68367707D01*
X88028705Y-68346954D01*
X88259046Y-68193046D01*
X88412954Y-67962705D01*
X88467000Y-67691000D01*
X88467000Y-65440025D01*
X88550302Y-65523327D01*
X88783691Y-65620000D01*
X89374250Y-65620000D01*
X89533000Y-65461250D01*
X89533000Y-64082766D01*
X89787000Y-64063480D01*
X89787000Y-65461250D01*
X89945750Y-65620000D01*
X90536309Y-65620000D01*
X90769698Y-65523327D01*
X90948327Y-65344699D01*
X91045000Y-65111310D01*
X91045000Y-63270750D01*
X90886250Y-63112000D01*
X90757766Y-63112000D01*
X90738480Y-62858000D01*
X90886250Y-62858000D01*
X91045000Y-62699250D01*
X91045000Y-60858690D01*
X90948327Y-60625301D01*
X90769698Y-60446673D01*
X90536309Y-60350000D01*
X89945750Y-60350000D01*
X89787000Y-60508750D01*
X89787000Y-61887234D01*
X89533000Y-61906520D01*
X89533000Y-60508750D01*
X89374250Y-60350000D01*
X88783691Y-60350000D01*
X88550302Y-60446673D01*
X88467000Y-60529975D01*
X88467000Y-60273000D01*
X93905000Y-60273000D01*
X93905000Y-60411590D01*
X93905000Y-60411590D01*
G37*
X93905000Y-60411590D02*
X93756309Y-60350000D01*
X93165750Y-60350000D01*
X93007000Y-60508750D01*
X93007000Y-61887234D01*
X92753000Y-61906520D01*
X92753000Y-60508750D01*
X92594250Y-60350000D01*
X92003691Y-60350000D01*
X91770302Y-60446673D01*
X91591673Y-60625301D01*
X91495000Y-60858690D01*
X91495000Y-62699250D01*
X91653750Y-62858000D01*
X91782234Y-62858000D01*
X91801520Y-63112000D01*
X91653750Y-63112000D01*
X91495000Y-63270750D01*
X91495000Y-65111310D01*
X91591673Y-65344699D01*
X91770302Y-65523327D01*
X92003691Y-65620000D01*
X92594250Y-65620000D01*
X92753000Y-65461250D01*
X92753000Y-64082766D01*
X93007000Y-64063480D01*
X93007000Y-65461250D01*
X93165750Y-65620000D01*
X93756309Y-65620000D01*
X93905000Y-65558410D01*
X93905000Y-67691000D01*
X93959046Y-67962705D01*
X94112954Y-68193046D01*
X94343295Y-68346954D01*
X94499418Y-68378009D01*
X94493343Y-68380519D01*
X94047086Y-68825997D01*
X93805276Y-69408341D01*
X93804725Y-70038893D01*
X94045519Y-70621657D01*
X94490997Y-71067914D01*
X95073341Y-71309724D01*
X95703893Y-71310275D01*
X96286657Y-71069481D01*
X96645000Y-70711764D01*
X96645000Y-71294868D01*
X96225434Y-71714434D01*
X95979397Y-72082655D01*
X95893000Y-72517000D01*
X95979397Y-72951345D01*
X96225434Y-73319566D01*
X96324794Y-73385956D01*
X86775758Y-73385956D01*
X85035850Y-71646048D01*
X85259698Y-71553327D01*
X85438327Y-71374699D01*
X85535000Y-71141310D01*
X85535000Y-70250750D01*
X85376252Y-70092002D01*
X85496669Y-70092002D01*
X85715519Y-70621657D01*
X86160997Y-71067914D01*
X86743341Y-71309724D01*
X87373893Y-71310275D01*
X87956657Y-71069481D01*
X88402914Y-70624003D01*
X88644724Y-70041659D01*
X88645275Y-69411107D01*
X88404481Y-68828343D01*
X87959003Y-68382086D01*
X87924374Y-68367707D01*
X88028705Y-68346954D01*
X88259046Y-68193046D01*
X88412954Y-67962705D01*
X88467000Y-67691000D01*
X88467000Y-65440025D01*
X88550302Y-65523327D01*
X88783691Y-65620000D01*
X89374250Y-65620000D01*
X89533000Y-65461250D01*
X89533000Y-64082766D01*
X89787000Y-64063480D01*
X89787000Y-65461250D01*
X89945750Y-65620000D01*
X90536309Y-65620000D01*
X90769698Y-65523327D01*
X90948327Y-65344699D01*
X91045000Y-65111310D01*
X91045000Y-63270750D01*
X90886250Y-63112000D01*
X90757766Y-63112000D01*
X90738480Y-62858000D01*
X90886250Y-62858000D01*
X91045000Y-62699250D01*
X91045000Y-60858690D01*
X90948327Y-60625301D01*
X90769698Y-60446673D01*
X90536309Y-60350000D01*
X89945750Y-60350000D01*
X89787000Y-60508750D01*
X89787000Y-61887234D01*
X89533000Y-61906520D01*
X89533000Y-60508750D01*
X89374250Y-60350000D01*
X88783691Y-60350000D01*
X88550302Y-60446673D01*
X88467000Y-60529975D01*
X88467000Y-60273000D01*
X93905000Y-60273000D01*
X93905000Y-60411590D01*
G36*
X134545000Y-60411590D02*
X134396309Y-60350000D01*
X133805750Y-60350000D01*
X133647000Y-60508750D01*
X133647000Y-61887234D01*
X133393000Y-61906520D01*
X133393000Y-60508750D01*
X133234250Y-60350000D01*
X132643691Y-60350000D01*
X132410302Y-60446673D01*
X132231673Y-60625301D01*
X132135000Y-60858690D01*
X132135000Y-62699250D01*
X132293750Y-62858000D01*
X132422234Y-62858000D01*
X132441520Y-63112000D01*
X132293750Y-63112000D01*
X132135000Y-63270750D01*
X132135000Y-65111310D01*
X132231673Y-65344699D01*
X132410302Y-65523327D01*
X132643691Y-65620000D01*
X133234250Y-65620000D01*
X133393000Y-65461250D01*
X133393000Y-64082766D01*
X133647000Y-64063480D01*
X133647000Y-65461250D01*
X133805750Y-65620000D01*
X134396309Y-65620000D01*
X134545000Y-65558410D01*
X134545000Y-67691000D01*
X134599046Y-67962705D01*
X134752954Y-68193046D01*
X134983295Y-68346954D01*
X135139418Y-68378009D01*
X135133343Y-68380519D01*
X134687086Y-68825997D01*
X134445276Y-69408341D01*
X134444725Y-70038893D01*
X134685519Y-70621657D01*
X135130997Y-71067914D01*
X135713341Y-71309724D01*
X135999894Y-71309974D01*
X135595434Y-71714434D01*
X135349397Y-72082655D01*
X135263000Y-72517000D01*
X135288660Y-72646000D01*
X133858835Y-72646000D01*
X133732401Y-72456778D01*
X132101202Y-70825579D01*
X131854640Y-70660832D01*
X131563801Y-70602980D01*
X129051643Y-70602980D01*
X129284724Y-70041659D01*
X129285275Y-69411107D01*
X129044481Y-68828343D01*
X128599003Y-68382086D01*
X128564374Y-68367707D01*
X128668705Y-68346954D01*
X128899046Y-68193046D01*
X129052954Y-67962705D01*
X129107000Y-67691000D01*
X129107000Y-65440025D01*
X129190302Y-65523327D01*
X129423691Y-65620000D01*
X130014250Y-65620000D01*
X130173000Y-65461250D01*
X130173000Y-64082766D01*
X130427000Y-64063480D01*
X130427000Y-65461250D01*
X130585750Y-65620000D01*
X131176309Y-65620000D01*
X131409698Y-65523327D01*
X131588327Y-65344699D01*
X131685000Y-65111310D01*
X131685000Y-63270750D01*
X131526250Y-63112000D01*
X131397766Y-63112000D01*
X131378480Y-62858000D01*
X131526250Y-62858000D01*
X131685000Y-62699250D01*
X131685000Y-60858690D01*
X131588327Y-60625301D01*
X131409698Y-60446673D01*
X131176309Y-60350000D01*
X130585750Y-60350000D01*
X130427000Y-60508750D01*
X130427000Y-61887234D01*
X130173000Y-61906520D01*
X130173000Y-60508750D01*
X130014250Y-60350000D01*
X129423691Y-60350000D01*
X129190302Y-60446673D01*
X129107000Y-60529975D01*
X129107000Y-60273000D01*
X134545000Y-60273000D01*
X134545000Y-60411590D01*
X134545000Y-60411590D01*
G37*
X134545000Y-60411590D02*
X134396309Y-60350000D01*
X133805750Y-60350000D01*
X133647000Y-60508750D01*
X133647000Y-61887234D01*
X133393000Y-61906520D01*
X133393000Y-60508750D01*
X133234250Y-60350000D01*
X132643691Y-60350000D01*
X132410302Y-60446673D01*
X132231673Y-60625301D01*
X132135000Y-60858690D01*
X132135000Y-62699250D01*
X132293750Y-62858000D01*
X132422234Y-62858000D01*
X132441520Y-63112000D01*
X132293750Y-63112000D01*
X132135000Y-63270750D01*
X132135000Y-65111310D01*
X132231673Y-65344699D01*
X132410302Y-65523327D01*
X132643691Y-65620000D01*
X133234250Y-65620000D01*
X133393000Y-65461250D01*
X133393000Y-64082766D01*
X133647000Y-64063480D01*
X133647000Y-65461250D01*
X133805750Y-65620000D01*
X134396309Y-65620000D01*
X134545000Y-65558410D01*
X134545000Y-67691000D01*
X134599046Y-67962705D01*
X134752954Y-68193046D01*
X134983295Y-68346954D01*
X135139418Y-68378009D01*
X135133343Y-68380519D01*
X134687086Y-68825997D01*
X134445276Y-69408341D01*
X134444725Y-70038893D01*
X134685519Y-70621657D01*
X135130997Y-71067914D01*
X135713341Y-71309724D01*
X135999894Y-71309974D01*
X135595434Y-71714434D01*
X135349397Y-72082655D01*
X135263000Y-72517000D01*
X135288660Y-72646000D01*
X133858835Y-72646000D01*
X133732401Y-72456778D01*
X132101202Y-70825579D01*
X131854640Y-70660832D01*
X131563801Y-70602980D01*
X129051643Y-70602980D01*
X129284724Y-70041659D01*
X129285275Y-69411107D01*
X129044481Y-68828343D01*
X128599003Y-68382086D01*
X128564374Y-68367707D01*
X128668705Y-68346954D01*
X128899046Y-68193046D01*
X129052954Y-67962705D01*
X129107000Y-67691000D01*
X129107000Y-65440025D01*
X129190302Y-65523327D01*
X129423691Y-65620000D01*
X130014250Y-65620000D01*
X130173000Y-65461250D01*
X130173000Y-64082766D01*
X130427000Y-64063480D01*
X130427000Y-65461250D01*
X130585750Y-65620000D01*
X131176309Y-65620000D01*
X131409698Y-65523327D01*
X131588327Y-65344699D01*
X131685000Y-65111310D01*
X131685000Y-63270750D01*
X131526250Y-63112000D01*
X131397766Y-63112000D01*
X131378480Y-62858000D01*
X131526250Y-62858000D01*
X131685000Y-62699250D01*
X131685000Y-60858690D01*
X131588327Y-60625301D01*
X131409698Y-60446673D01*
X131176309Y-60350000D01*
X130585750Y-60350000D01*
X130427000Y-60508750D01*
X130427000Y-61887234D01*
X130173000Y-61906520D01*
X130173000Y-60508750D01*
X130014250Y-60350000D01*
X129423691Y-60350000D01*
X129190302Y-60446673D01*
X129107000Y-60529975D01*
X129107000Y-60273000D01*
X134545000Y-60273000D01*
X134545000Y-60411590D01*
G36*
X175185000Y-60411590D02*
X175036309Y-60350000D01*
X174445750Y-60350000D01*
X174287000Y-60508750D01*
X174287000Y-61887234D01*
X174033000Y-61906520D01*
X174033000Y-60508750D01*
X173874250Y-60350000D01*
X173283691Y-60350000D01*
X173050302Y-60446673D01*
X172871673Y-60625301D01*
X172775000Y-60858690D01*
X172775000Y-62699250D01*
X172933750Y-62858000D01*
X173062234Y-62858000D01*
X173081520Y-63112000D01*
X172933750Y-63112000D01*
X172775000Y-63270750D01*
X172775000Y-65111310D01*
X172871673Y-65344699D01*
X173050302Y-65523327D01*
X173283691Y-65620000D01*
X173874250Y-65620000D01*
X174033000Y-65461250D01*
X174033000Y-64082766D01*
X174287000Y-64063480D01*
X174287000Y-65461250D01*
X174445750Y-65620000D01*
X175036309Y-65620000D01*
X175185000Y-65558410D01*
X175185000Y-67691000D01*
X175239046Y-67962705D01*
X175392954Y-68193046D01*
X175623295Y-68346954D01*
X175779418Y-68378009D01*
X175773343Y-68380519D01*
X175327086Y-68825997D01*
X175085276Y-69408341D01*
X175084725Y-70038893D01*
X175325519Y-70621657D01*
X175770997Y-71067914D01*
X176353341Y-71309724D01*
X176377687Y-71309745D01*
X176370397Y-71320655D01*
X176284000Y-71755000D01*
X176370397Y-72189345D01*
X176507730Y-72394879D01*
X164804923Y-72394879D01*
X165397401Y-71802401D01*
X165499232Y-71650000D01*
X165594250Y-71650000D01*
X165753000Y-71491250D01*
X165753000Y-71271911D01*
X165756431Y-71266890D01*
X165807440Y-71015000D01*
X165807440Y-69818000D01*
X166007000Y-69818000D01*
X166007000Y-69838000D01*
X166027000Y-69838000D01*
X166027000Y-70092000D01*
X166007000Y-70092000D01*
X166007000Y-71491250D01*
X166165750Y-71650000D01*
X166306309Y-71650000D01*
X166539698Y-71553327D01*
X166718327Y-71374699D01*
X166815000Y-71141310D01*
X166815000Y-70250750D01*
X166656252Y-70092002D01*
X166776669Y-70092002D01*
X166995519Y-70621657D01*
X167440997Y-71067914D01*
X168023341Y-71309724D01*
X168653893Y-71310275D01*
X169236657Y-71069481D01*
X169682914Y-70624003D01*
X169924724Y-70041659D01*
X169925275Y-69411107D01*
X169684481Y-68828343D01*
X169239003Y-68382086D01*
X169204374Y-68367707D01*
X169308705Y-68346954D01*
X169539046Y-68193046D01*
X169692954Y-67962705D01*
X169747000Y-67691000D01*
X169747000Y-65440025D01*
X169830302Y-65523327D01*
X170063691Y-65620000D01*
X170654250Y-65620000D01*
X170813000Y-65461250D01*
X170813000Y-64082766D01*
X171067000Y-64063480D01*
X171067000Y-65461250D01*
X171225750Y-65620000D01*
X171816309Y-65620000D01*
X172049698Y-65523327D01*
X172228327Y-65344699D01*
X172325000Y-65111310D01*
X172325000Y-63270750D01*
X172166250Y-63112000D01*
X172037766Y-63112000D01*
X172018480Y-62858000D01*
X172166250Y-62858000D01*
X172325000Y-62699250D01*
X172325000Y-60858690D01*
X172228327Y-60625301D01*
X172049698Y-60446673D01*
X171816309Y-60350000D01*
X171225750Y-60350000D01*
X171067000Y-60508750D01*
X171067000Y-61887234D01*
X170813000Y-61906520D01*
X170813000Y-60508750D01*
X170654250Y-60350000D01*
X170063691Y-60350000D01*
X169830302Y-60446673D01*
X169747000Y-60529975D01*
X169747000Y-60273000D01*
X175185000Y-60273000D01*
X175185000Y-60411590D01*
X175185000Y-60411590D01*
G37*
X175185000Y-60411590D02*
X175036309Y-60350000D01*
X174445750Y-60350000D01*
X174287000Y-60508750D01*
X174287000Y-61887234D01*
X174033000Y-61906520D01*
X174033000Y-60508750D01*
X173874250Y-60350000D01*
X173283691Y-60350000D01*
X173050302Y-60446673D01*
X172871673Y-60625301D01*
X172775000Y-60858690D01*
X172775000Y-62699250D01*
X172933750Y-62858000D01*
X173062234Y-62858000D01*
X173081520Y-63112000D01*
X172933750Y-63112000D01*
X172775000Y-63270750D01*
X172775000Y-65111310D01*
X172871673Y-65344699D01*
X173050302Y-65523327D01*
X173283691Y-65620000D01*
X173874250Y-65620000D01*
X174033000Y-65461250D01*
X174033000Y-64082766D01*
X174287000Y-64063480D01*
X174287000Y-65461250D01*
X174445750Y-65620000D01*
X175036309Y-65620000D01*
X175185000Y-65558410D01*
X175185000Y-67691000D01*
X175239046Y-67962705D01*
X175392954Y-68193046D01*
X175623295Y-68346954D01*
X175779418Y-68378009D01*
X175773343Y-68380519D01*
X175327086Y-68825997D01*
X175085276Y-69408341D01*
X175084725Y-70038893D01*
X175325519Y-70621657D01*
X175770997Y-71067914D01*
X176353341Y-71309724D01*
X176377687Y-71309745D01*
X176370397Y-71320655D01*
X176284000Y-71755000D01*
X176370397Y-72189345D01*
X176507730Y-72394879D01*
X164804923Y-72394879D01*
X165397401Y-71802401D01*
X165499232Y-71650000D01*
X165594250Y-71650000D01*
X165753000Y-71491250D01*
X165753000Y-71271911D01*
X165756431Y-71266890D01*
X165807440Y-71015000D01*
X165807440Y-69818000D01*
X166007000Y-69818000D01*
X166007000Y-69838000D01*
X166027000Y-69838000D01*
X166027000Y-70092000D01*
X166007000Y-70092000D01*
X166007000Y-71491250D01*
X166165750Y-71650000D01*
X166306309Y-71650000D01*
X166539698Y-71553327D01*
X166718327Y-71374699D01*
X166815000Y-71141310D01*
X166815000Y-70250750D01*
X166656252Y-70092002D01*
X166776669Y-70092002D01*
X166995519Y-70621657D01*
X167440997Y-71067914D01*
X168023341Y-71309724D01*
X168653893Y-71310275D01*
X169236657Y-71069481D01*
X169682914Y-70624003D01*
X169924724Y-70041659D01*
X169925275Y-69411107D01*
X169684481Y-68828343D01*
X169239003Y-68382086D01*
X169204374Y-68367707D01*
X169308705Y-68346954D01*
X169539046Y-68193046D01*
X169692954Y-67962705D01*
X169747000Y-67691000D01*
X169747000Y-65440025D01*
X169830302Y-65523327D01*
X170063691Y-65620000D01*
X170654250Y-65620000D01*
X170813000Y-65461250D01*
X170813000Y-64082766D01*
X171067000Y-64063480D01*
X171067000Y-65461250D01*
X171225750Y-65620000D01*
X171816309Y-65620000D01*
X172049698Y-65523327D01*
X172228327Y-65344699D01*
X172325000Y-65111310D01*
X172325000Y-63270750D01*
X172166250Y-63112000D01*
X172037766Y-63112000D01*
X172018480Y-62858000D01*
X172166250Y-62858000D01*
X172325000Y-62699250D01*
X172325000Y-60858690D01*
X172228327Y-60625301D01*
X172049698Y-60446673D01*
X171816309Y-60350000D01*
X171225750Y-60350000D01*
X171067000Y-60508750D01*
X171067000Y-61887234D01*
X170813000Y-61906520D01*
X170813000Y-60508750D01*
X170654250Y-60350000D01*
X170063691Y-60350000D01*
X169830302Y-60446673D01*
X169747000Y-60529975D01*
X169747000Y-60273000D01*
X175185000Y-60273000D01*
X175185000Y-60411590D01*
G36*
X105047000Y-69838000D02*
X105067000Y-69838000D01*
X105067000Y-70092000D01*
X105047000Y-70092000D01*
X105047000Y-70112000D01*
X104847440Y-70112000D01*
X104847440Y-69818000D01*
X105047000Y-69818000D01*
X105047000Y-69838000D01*
X105047000Y-69838000D01*
G37*
X105047000Y-69838000D02*
X105067000Y-69838000D01*
X105067000Y-70092000D01*
X105047000Y-70092000D01*
X105047000Y-70112000D01*
X104847440Y-70112000D01*
X104847440Y-69818000D01*
X105047000Y-69818000D01*
X105047000Y-69838000D01*
G36*
X64407000Y-69838000D02*
X64427000Y-69838000D01*
X64427000Y-70092000D01*
X64407000Y-70092000D01*
X64407000Y-70112000D01*
X64207440Y-70112000D01*
X64207440Y-69818000D01*
X64407000Y-69818000D01*
X64407000Y-69838000D01*
X64407000Y-69838000D01*
G37*
X64407000Y-69838000D02*
X64427000Y-69838000D01*
X64427000Y-70092000D01*
X64407000Y-70092000D01*
X64407000Y-70112000D01*
X64207440Y-70112000D01*
X64207440Y-69818000D01*
X64407000Y-69818000D01*
X64407000Y-69838000D01*
G36*
X84727000Y-69838000D02*
X84747000Y-69838000D01*
X84747000Y-70092000D01*
X84727000Y-70092000D01*
X84727000Y-70112000D01*
X84527440Y-70112000D01*
X84527440Y-69818000D01*
X84727000Y-69818000D01*
X84727000Y-69838000D01*
X84727000Y-69838000D01*
G37*
X84727000Y-69838000D02*
X84747000Y-69838000D01*
X84747000Y-70092000D01*
X84727000Y-70092000D01*
X84727000Y-70112000D01*
X84527440Y-70112000D01*
X84527440Y-69818000D01*
X84727000Y-69818000D01*
X84727000Y-69838000D01*
G36*
X125367000Y-69838000D02*
X125387000Y-69838000D01*
X125387000Y-70092000D01*
X125367000Y-70092000D01*
X125367000Y-70112000D01*
X125167440Y-70112000D01*
X125167440Y-69818000D01*
X125367000Y-69818000D01*
X125367000Y-69838000D01*
X125367000Y-69838000D01*
G37*
X125367000Y-69838000D02*
X125387000Y-69838000D01*
X125387000Y-70092000D01*
X125367000Y-70092000D01*
X125367000Y-70112000D01*
X125167440Y-70112000D01*
X125167440Y-69818000D01*
X125367000Y-69818000D01*
X125367000Y-69838000D01*
G36*
X93027000Y-62924110D02*
X93027000Y-63045890D01*
X92894143Y-63178748D01*
X92880000Y-63164605D01*
X92865858Y-63178748D01*
X92686253Y-62999143D01*
X92700395Y-62985000D01*
X92686253Y-62970858D01*
X92865858Y-62791253D01*
X92880000Y-62805395D01*
X92894143Y-62791253D01*
X93027000Y-62924110D01*
X93027000Y-62924110D01*
G37*
X93027000Y-62924110D02*
X93027000Y-63045890D01*
X92894143Y-63178748D01*
X92880000Y-63164605D01*
X92865858Y-63178748D01*
X92686253Y-62999143D01*
X92700395Y-62985000D01*
X92686253Y-62970858D01*
X92865858Y-62791253D01*
X92880000Y-62805395D01*
X92894143Y-62791253D01*
X93027000Y-62924110D01*
G36*
X72707000Y-62924110D02*
X72707000Y-63045890D01*
X72574143Y-63178748D01*
X72560000Y-63164605D01*
X72545858Y-63178748D01*
X72366253Y-62999143D01*
X72380395Y-62985000D01*
X72366253Y-62970858D01*
X72545858Y-62791253D01*
X72560000Y-62805395D01*
X72574143Y-62791253D01*
X72707000Y-62924110D01*
X72707000Y-62924110D01*
G37*
X72707000Y-62924110D02*
X72707000Y-63045890D01*
X72574143Y-63178748D01*
X72560000Y-63164605D01*
X72545858Y-63178748D01*
X72366253Y-62999143D01*
X72380395Y-62985000D01*
X72366253Y-62970858D01*
X72545858Y-62791253D01*
X72560000Y-62805395D01*
X72574143Y-62791253D01*
X72707000Y-62924110D01*
G36*
X69533748Y-62970858D02*
X69519605Y-62985000D01*
X69533748Y-62999143D01*
X69354143Y-63178748D01*
X69340000Y-63164605D01*
X69325858Y-63178748D01*
X69193000Y-63045890D01*
X69193000Y-62924110D01*
X69325858Y-62791253D01*
X69340000Y-62805395D01*
X69354143Y-62791253D01*
X69533748Y-62970858D01*
X69533748Y-62970858D01*
G37*
X69533748Y-62970858D02*
X69519605Y-62985000D01*
X69533748Y-62999143D01*
X69354143Y-63178748D01*
X69340000Y-63164605D01*
X69325858Y-63178748D01*
X69193000Y-63045890D01*
X69193000Y-62924110D01*
X69325858Y-62791253D01*
X69340000Y-62805395D01*
X69354143Y-62791253D01*
X69533748Y-62970858D01*
G36*
X110173748Y-62970858D02*
X110159605Y-62985000D01*
X110173748Y-62999143D01*
X109994143Y-63178748D01*
X109980000Y-63164605D01*
X109965858Y-63178748D01*
X109833000Y-63045890D01*
X109833000Y-62924110D01*
X109965858Y-62791253D01*
X109980000Y-62805395D01*
X109994143Y-62791253D01*
X110173748Y-62970858D01*
X110173748Y-62970858D01*
G37*
X110173748Y-62970858D02*
X110159605Y-62985000D01*
X110173748Y-62999143D01*
X109994143Y-63178748D01*
X109980000Y-63164605D01*
X109965858Y-63178748D01*
X109833000Y-63045890D01*
X109833000Y-62924110D01*
X109965858Y-62791253D01*
X109980000Y-62805395D01*
X109994143Y-62791253D01*
X110173748Y-62970858D01*
G36*
X89853748Y-62970858D02*
X89839605Y-62985000D01*
X89853748Y-62999143D01*
X89674143Y-63178748D01*
X89660000Y-63164605D01*
X89645858Y-63178748D01*
X89513000Y-63045890D01*
X89513000Y-62924110D01*
X89645858Y-62791253D01*
X89660000Y-62805395D01*
X89674143Y-62791253D01*
X89853748Y-62970858D01*
X89853748Y-62970858D01*
G37*
X89853748Y-62970858D02*
X89839605Y-62985000D01*
X89853748Y-62999143D01*
X89674143Y-63178748D01*
X89660000Y-63164605D01*
X89645858Y-63178748D01*
X89513000Y-63045890D01*
X89513000Y-62924110D01*
X89645858Y-62791253D01*
X89660000Y-62805395D01*
X89674143Y-62791253D01*
X89853748Y-62970858D01*
G36*
X171133748Y-62970858D02*
X171119605Y-62985000D01*
X171133748Y-62999143D01*
X170954143Y-63178748D01*
X170940000Y-63164605D01*
X170925858Y-63178748D01*
X170793000Y-63045890D01*
X170793000Y-62924110D01*
X170925858Y-62791253D01*
X170940000Y-62805395D01*
X170954143Y-62791253D01*
X171133748Y-62970858D01*
X171133748Y-62970858D01*
G37*
X171133748Y-62970858D02*
X171119605Y-62985000D01*
X171133748Y-62999143D01*
X170954143Y-63178748D01*
X170940000Y-63164605D01*
X170925858Y-63178748D01*
X170793000Y-63045890D01*
X170793000Y-62924110D01*
X170925858Y-62791253D01*
X170940000Y-62805395D01*
X170954143Y-62791253D01*
X171133748Y-62970858D01*
G36*
X191453748Y-62970858D02*
X191439605Y-62985000D01*
X191453748Y-62999143D01*
X191274143Y-63178748D01*
X191260000Y-63164605D01*
X191245858Y-63178748D01*
X191113000Y-63045890D01*
X191113000Y-62924110D01*
X191245858Y-62791253D01*
X191260000Y-62805395D01*
X191274143Y-62791253D01*
X191453748Y-62970858D01*
X191453748Y-62970858D01*
G37*
X191453748Y-62970858D02*
X191439605Y-62985000D01*
X191453748Y-62999143D01*
X191274143Y-63178748D01*
X191260000Y-63164605D01*
X191245858Y-63178748D01*
X191113000Y-63045890D01*
X191113000Y-62924110D01*
X191245858Y-62791253D01*
X191260000Y-62805395D01*
X191274143Y-62791253D01*
X191453748Y-62970858D01*
G36*
X194627000Y-62924110D02*
X194627000Y-63045890D01*
X194494143Y-63178748D01*
X194480000Y-63164605D01*
X194465858Y-63178748D01*
X194286253Y-62999143D01*
X194300395Y-62985000D01*
X194286253Y-62970858D01*
X194465858Y-62791253D01*
X194480000Y-62805395D01*
X194494143Y-62791253D01*
X194627000Y-62924110D01*
X194627000Y-62924110D01*
G37*
X194627000Y-62924110D02*
X194627000Y-63045890D01*
X194494143Y-63178748D01*
X194480000Y-63164605D01*
X194465858Y-63178748D01*
X194286253Y-62999143D01*
X194300395Y-62985000D01*
X194286253Y-62970858D01*
X194465858Y-62791253D01*
X194480000Y-62805395D01*
X194494143Y-62791253D01*
X194627000Y-62924110D01*
G36*
X211773748Y-62970858D02*
X211759605Y-62985000D01*
X211773748Y-62999143D01*
X211594143Y-63178748D01*
X211580000Y-63164605D01*
X211565858Y-63178748D01*
X211433000Y-63045890D01*
X211433000Y-62924110D01*
X211565858Y-62791253D01*
X211580000Y-62805395D01*
X211594143Y-62791253D01*
X211773748Y-62970858D01*
X211773748Y-62970858D01*
G37*
X211773748Y-62970858D02*
X211759605Y-62985000D01*
X211773748Y-62999143D01*
X211594143Y-63178748D01*
X211580000Y-63164605D01*
X211565858Y-63178748D01*
X211433000Y-63045890D01*
X211433000Y-62924110D01*
X211565858Y-62791253D01*
X211580000Y-62805395D01*
X211594143Y-62791253D01*
X211773748Y-62970858D01*
G36*
X174307000Y-62924110D02*
X174307000Y-63045890D01*
X174174143Y-63178748D01*
X174160000Y-63164605D01*
X174145858Y-63178748D01*
X173966253Y-62999143D01*
X173980395Y-62985000D01*
X173966253Y-62970858D01*
X174145858Y-62791253D01*
X174160000Y-62805395D01*
X174174143Y-62791253D01*
X174307000Y-62924110D01*
X174307000Y-62924110D01*
G37*
X174307000Y-62924110D02*
X174307000Y-63045890D01*
X174174143Y-63178748D01*
X174160000Y-63164605D01*
X174145858Y-63178748D01*
X173966253Y-62999143D01*
X173980395Y-62985000D01*
X173966253Y-62970858D01*
X174145858Y-62791253D01*
X174160000Y-62805395D01*
X174174143Y-62791253D01*
X174307000Y-62924110D01*
G36*
X133667000Y-62924110D02*
X133667000Y-63045890D01*
X133534143Y-63178748D01*
X133520000Y-63164605D01*
X133505858Y-63178748D01*
X133326253Y-62999143D01*
X133340395Y-62985000D01*
X133326253Y-62970858D01*
X133505858Y-62791253D01*
X133520000Y-62805395D01*
X133534143Y-62791253D01*
X133667000Y-62924110D01*
X133667000Y-62924110D01*
G37*
X133667000Y-62924110D02*
X133667000Y-63045890D01*
X133534143Y-63178748D01*
X133520000Y-63164605D01*
X133505858Y-63178748D01*
X133326253Y-62999143D01*
X133340395Y-62985000D01*
X133326253Y-62970858D01*
X133505858Y-62791253D01*
X133520000Y-62805395D01*
X133534143Y-62791253D01*
X133667000Y-62924110D01*
G36*
X113347000Y-62924110D02*
X113347000Y-63045890D01*
X113214143Y-63178748D01*
X113200000Y-63164605D01*
X113185858Y-63178748D01*
X113006253Y-62999143D01*
X113020395Y-62985000D01*
X113006253Y-62970858D01*
X113185858Y-62791253D01*
X113200000Y-62805395D01*
X113214143Y-62791253D01*
X113347000Y-62924110D01*
X113347000Y-62924110D01*
G37*
X113347000Y-62924110D02*
X113347000Y-63045890D01*
X113214143Y-63178748D01*
X113200000Y-63164605D01*
X113185858Y-63178748D01*
X113006253Y-62999143D01*
X113020395Y-62985000D01*
X113006253Y-62970858D01*
X113185858Y-62791253D01*
X113200000Y-62805395D01*
X113214143Y-62791253D01*
X113347000Y-62924110D01*
G36*
X153987000Y-62924110D02*
X153987000Y-63045890D01*
X153854143Y-63178748D01*
X153840000Y-63164605D01*
X153825858Y-63178748D01*
X153646253Y-62999143D01*
X153660395Y-62985000D01*
X153646253Y-62970858D01*
X153825858Y-62791253D01*
X153840000Y-62805395D01*
X153854143Y-62791253D01*
X153987000Y-62924110D01*
X153987000Y-62924110D01*
G37*
X153987000Y-62924110D02*
X153987000Y-63045890D01*
X153854143Y-63178748D01*
X153840000Y-63164605D01*
X153825858Y-63178748D01*
X153646253Y-62999143D01*
X153660395Y-62985000D01*
X153646253Y-62970858D01*
X153825858Y-62791253D01*
X153840000Y-62805395D01*
X153854143Y-62791253D01*
X153987000Y-62924110D01*
G36*
X150813748Y-62970858D02*
X150799605Y-62985000D01*
X150813748Y-62999143D01*
X150634143Y-63178748D01*
X150620000Y-63164605D01*
X150605858Y-63178748D01*
X150473000Y-63045890D01*
X150473000Y-62924110D01*
X150605858Y-62791253D01*
X150620000Y-62805395D01*
X150634143Y-62791253D01*
X150813748Y-62970858D01*
X150813748Y-62970858D01*
G37*
X150813748Y-62970858D02*
X150799605Y-62985000D01*
X150813748Y-62999143D01*
X150634143Y-63178748D01*
X150620000Y-63164605D01*
X150605858Y-63178748D01*
X150473000Y-63045890D01*
X150473000Y-62924110D01*
X150605858Y-62791253D01*
X150620000Y-62805395D01*
X150634143Y-62791253D01*
X150813748Y-62970858D01*
G36*
X52387000Y-62924110D02*
X52387000Y-63045890D01*
X52254143Y-63178748D01*
X52240000Y-63164605D01*
X52225858Y-63178748D01*
X52046253Y-62999143D01*
X52060395Y-62985000D01*
X52046253Y-62970858D01*
X52225858Y-62791253D01*
X52240000Y-62805395D01*
X52254143Y-62791253D01*
X52387000Y-62924110D01*
X52387000Y-62924110D01*
G37*
X52387000Y-62924110D02*
X52387000Y-63045890D01*
X52254143Y-63178748D01*
X52240000Y-63164605D01*
X52225858Y-63178748D01*
X52046253Y-62999143D01*
X52060395Y-62985000D01*
X52046253Y-62970858D01*
X52225858Y-62791253D01*
X52240000Y-62805395D01*
X52254143Y-62791253D01*
X52387000Y-62924110D01*
G36*
X130493748Y-62970858D02*
X130479605Y-62985000D01*
X130493748Y-62999143D01*
X130314143Y-63178748D01*
X130300000Y-63164605D01*
X130285858Y-63178748D01*
X130153000Y-63045890D01*
X130153000Y-62924110D01*
X130285858Y-62791253D01*
X130300000Y-62805395D01*
X130314143Y-62791253D01*
X130493748Y-62970858D01*
X130493748Y-62970858D01*
G37*
X130493748Y-62970858D02*
X130479605Y-62985000D01*
X130493748Y-62999143D01*
X130314143Y-63178748D01*
X130300000Y-63164605D01*
X130285858Y-63178748D01*
X130153000Y-63045890D01*
X130153000Y-62924110D01*
X130285858Y-62791253D01*
X130300000Y-62805395D01*
X130314143Y-62791253D01*
X130493748Y-62970858D01*
M02*
