G04 #@! TF.FileFunction,Soldermask,Top*
%FSLAX46Y46*%
G04 Gerber Fmt 4.6, Leading zero omitted, Abs format (unit mm)*
G04 Created by KiCad (PCBNEW 4.0.4-stable) date 03/16/17 08:36:36*
%MOMM*%
%LPD*%
G01*
G04 APERTURE LIST*
%ADD10C,0.100000*%
%ADD11C,1.900000*%
%ADD12R,1.900000X1.900000*%
%ADD13R,1.900000X4.400000*%
%ADD14C,1.300000*%
%ADD15C,2.300000*%
%ADD16R,1.000000X2.500000*%
%ADD17C,3.600000*%
%ADD18R,0.650000X1.400000*%
%ADD19R,1.400000X0.650000*%
%ADD20R,4.000000X1.670000*%
%ADD21R,4.400000X1.900000*%
%ADD22R,2.500000X1.000000*%
%ADD23R,3.900120X3.900120*%
%ADD24R,4.400000X2.900000*%
%ADD25R,1.200000X1.150000*%
%ADD26R,1.150000X1.200000*%
%ADD27R,2.100000X2.100000*%
%ADD28O,2.100000X2.100000*%
%ADD29R,0.900000X1.300000*%
%ADD30R,2.400000X3.900000*%
%ADD31R,7.400000X7.400000*%
%ADD32C,2.900000*%
%ADD33C,2.400000*%
G04 APERTURE END LIST*
D10*
D11*
X112142000Y-112268000D03*
X118142000Y-112268000D03*
D12*
X111442000Y-108968000D03*
X118142000Y-108968000D03*
X114642000Y-108968000D03*
X111442000Y-115568000D03*
X114642000Y-115568000D03*
X118142000Y-115568000D03*
D13*
X183517000Y-143187000D03*
D14*
X183517000Y-143187000D03*
D15*
X186117000Y-136447000D03*
X198107000Y-136447000D03*
D16*
X195717000Y-136207000D03*
X194697000Y-136207000D03*
X193677000Y-136207000D03*
X192657000Y-136207000D03*
X191637000Y-136207000D03*
X190617000Y-136207000D03*
X189597000Y-136207000D03*
X188577000Y-136207000D03*
D14*
X200617000Y-143187000D03*
D13*
X200617000Y-143187000D03*
X163197000Y-143187000D03*
D14*
X163197000Y-143187000D03*
D15*
X165797000Y-136447000D03*
X177787000Y-136447000D03*
D16*
X175397000Y-136207000D03*
X174377000Y-136207000D03*
X173357000Y-136207000D03*
X172337000Y-136207000D03*
X171317000Y-136207000D03*
X170297000Y-136207000D03*
X169277000Y-136207000D03*
X168257000Y-136207000D03*
D14*
X180297000Y-143187000D03*
D13*
X180297000Y-143187000D03*
D17*
X205283000Y-139700000D03*
X117932000Y-139700000D03*
X205334000Y-58420000D03*
D18*
X156270000Y-104760000D03*
X156770000Y-104760000D03*
X157270000Y-104760000D03*
X157770000Y-104760000D03*
X158270000Y-104760000D03*
X158770000Y-104760000D03*
X159270000Y-104760000D03*
X159770000Y-104760000D03*
X160270000Y-104760000D03*
X160770000Y-104760000D03*
X161270000Y-104760000D03*
X161770000Y-104760000D03*
X162270000Y-104760000D03*
X162770000Y-104760000D03*
X163270000Y-104760000D03*
X163770000Y-104760000D03*
D19*
X165720000Y-102810000D03*
X165720000Y-102310000D03*
X165720000Y-101810000D03*
X165720000Y-101310000D03*
X165720000Y-100810000D03*
X165720000Y-100310000D03*
X165720000Y-99810000D03*
X165720000Y-99310000D03*
X165720000Y-98810000D03*
X165720000Y-98310000D03*
X165720000Y-97810000D03*
X165720000Y-97310000D03*
X165720000Y-96810000D03*
X165720000Y-96310000D03*
X165720000Y-95810000D03*
X165720000Y-95310000D03*
D18*
X163770000Y-93360000D03*
X163270000Y-93360000D03*
X162770000Y-93360000D03*
X162270000Y-93360000D03*
X161770000Y-93360000D03*
X161270000Y-93360000D03*
X160770000Y-93360000D03*
X160270000Y-93360000D03*
X159770000Y-93360000D03*
X159270000Y-93360000D03*
X158770000Y-93360000D03*
X158270000Y-93360000D03*
X157770000Y-93360000D03*
X157270000Y-93360000D03*
X156770000Y-93360000D03*
X156270000Y-93360000D03*
D19*
X154320000Y-95310000D03*
X154320000Y-95810000D03*
X154320000Y-96310000D03*
X154320000Y-96810000D03*
X154320000Y-97310000D03*
X154320000Y-97810000D03*
X154320000Y-98310000D03*
X154320000Y-98810000D03*
X154320000Y-99310000D03*
X154320000Y-99810000D03*
X154320000Y-100310000D03*
X154320000Y-100810000D03*
X154320000Y-101310000D03*
X154320000Y-101810000D03*
X154320000Y-102310000D03*
X154320000Y-102810000D03*
D20*
X179172000Y-94488000D03*
X179172000Y-97028000D03*
X179172000Y-99568000D03*
X179172000Y-102108000D03*
X185572000Y-102108000D03*
X185572000Y-99568000D03*
X185572000Y-97028000D03*
X185572000Y-94488000D03*
X179172000Y-104648000D03*
X185572000Y-104648000D03*
D21*
X112972000Y-63375000D03*
D14*
X112972000Y-63375000D03*
D15*
X119712000Y-65975000D03*
X119712000Y-77965000D03*
D22*
X119952000Y-75575000D03*
X119952000Y-74555000D03*
X119952000Y-73535000D03*
X119952000Y-72515000D03*
X119952000Y-71495000D03*
X119952000Y-70475000D03*
X119952000Y-69455000D03*
X119952000Y-68435000D03*
D14*
X112972000Y-80475000D03*
D21*
X112972000Y-80475000D03*
D23*
X199768860Y-90170000D03*
X205768340Y-90170000D03*
X202768600Y-85471000D03*
D24*
X132590000Y-96520000D03*
X126490000Y-96520000D03*
D25*
X163183000Y-110172000D03*
X161683000Y-110172000D03*
X163183000Y-108648000D03*
X161683000Y-108648000D03*
D26*
X169799000Y-94690000D03*
X169799000Y-96190000D03*
X151194000Y-103810000D03*
X151194000Y-102310000D03*
D21*
X112972000Y-82933000D03*
D14*
X112972000Y-82933000D03*
D15*
X119712000Y-85533000D03*
X119712000Y-97523000D03*
D22*
X119952000Y-95133000D03*
X119952000Y-94113000D03*
X119952000Y-93093000D03*
X119952000Y-92073000D03*
X119952000Y-91053000D03*
X119952000Y-90033000D03*
X119952000Y-89013000D03*
X119952000Y-87993000D03*
D14*
X112972000Y-100033000D03*
D21*
X112972000Y-100033000D03*
D27*
X195072000Y-104648000D03*
D28*
X195072000Y-102108000D03*
X195072000Y-99568000D03*
X195072000Y-97028000D03*
X195072000Y-94488000D03*
D29*
X133870000Y-104140000D03*
X135370000Y-104140000D03*
D30*
X139950000Y-105300000D03*
X144530000Y-105300000D03*
D31*
X142250000Y-97900000D03*
D32*
X202427000Y-74422000D03*
X202427000Y-79502000D03*
D11*
X196091000Y-88392000D03*
X196091000Y-85852000D03*
D33*
X196091000Y-75692000D03*
X196091000Y-68072000D03*
D11*
X155451000Y-88392000D03*
X155451000Y-85852000D03*
D33*
X155451000Y-75692000D03*
X155451000Y-68072000D03*
D11*
X126870000Y-110490000D03*
X126870000Y-113030000D03*
D33*
X126870000Y-123190000D03*
X126870000Y-130810000D03*
D11*
X167510000Y-110490000D03*
X167510000Y-113030000D03*
D33*
X167510000Y-123190000D03*
X167510000Y-130810000D03*
D11*
X188471000Y-88392000D03*
X188471000Y-85852000D03*
D33*
X188471000Y-75692000D03*
X188471000Y-68072000D03*
D11*
X147831000Y-88392000D03*
X147831000Y-85852000D03*
D33*
X147831000Y-75692000D03*
X147831000Y-68072000D03*
D11*
X134490000Y-110490000D03*
X134490000Y-113030000D03*
D33*
X134490000Y-123190000D03*
X134490000Y-130810000D03*
D11*
X175130000Y-110490000D03*
X175130000Y-113030000D03*
D33*
X175130000Y-123190000D03*
X175130000Y-130810000D03*
D11*
X175771000Y-88392000D03*
X175771000Y-85852000D03*
D33*
X175771000Y-75692000D03*
X175771000Y-68072000D03*
D11*
X135131000Y-88392000D03*
X135131000Y-85852000D03*
D33*
X135131000Y-75692000D03*
X135131000Y-68072000D03*
D11*
X147190000Y-110490000D03*
X147190000Y-113030000D03*
D33*
X147190000Y-123190000D03*
X147190000Y-130810000D03*
D11*
X187830000Y-110490000D03*
X187830000Y-113030000D03*
D33*
X187830000Y-123190000D03*
X187830000Y-130810000D03*
D11*
X168151000Y-88392000D03*
X168151000Y-85852000D03*
D33*
X168151000Y-75692000D03*
X168151000Y-68072000D03*
D11*
X127511000Y-88392000D03*
X127511000Y-85852000D03*
D33*
X127511000Y-75692000D03*
X127511000Y-68072000D03*
D11*
X154810000Y-110490000D03*
X154810000Y-113030000D03*
D33*
X154810000Y-123190000D03*
X154810000Y-130810000D03*
D11*
X195450000Y-110490000D03*
X195450000Y-113030000D03*
D33*
X195450000Y-123190000D03*
X195450000Y-130810000D03*
D13*
X200531000Y-55492000D03*
D14*
X200531000Y-55492000D03*
D15*
X197931000Y-62232000D03*
X185941000Y-62232000D03*
D16*
X188331000Y-62472000D03*
X189351000Y-62472000D03*
X190371000Y-62472000D03*
X191391000Y-62472000D03*
X192411000Y-62472000D03*
X193431000Y-62472000D03*
X194451000Y-62472000D03*
X195471000Y-62472000D03*
D14*
X183431000Y-55492000D03*
D13*
X183431000Y-55492000D03*
X180211000Y-55492000D03*
D14*
X180211000Y-55492000D03*
D15*
X177611000Y-62232000D03*
X165621000Y-62232000D03*
D16*
X168011000Y-62472000D03*
X169031000Y-62472000D03*
X170051000Y-62472000D03*
X171071000Y-62472000D03*
X172091000Y-62472000D03*
X173111000Y-62472000D03*
X174131000Y-62472000D03*
X175151000Y-62472000D03*
D14*
X163111000Y-55492000D03*
D13*
X163111000Y-55492000D03*
X159891000Y-55492000D03*
D14*
X159891000Y-55492000D03*
D15*
X157291000Y-62232000D03*
X145301000Y-62232000D03*
D16*
X147691000Y-62472000D03*
X148711000Y-62472000D03*
X149731000Y-62472000D03*
X150751000Y-62472000D03*
X151771000Y-62472000D03*
X152791000Y-62472000D03*
X153811000Y-62472000D03*
X154831000Y-62472000D03*
D14*
X142791000Y-55492000D03*
D13*
X142791000Y-55492000D03*
X139571000Y-55492000D03*
D14*
X139571000Y-55492000D03*
D15*
X136971000Y-62232000D03*
X124981000Y-62232000D03*
D16*
X127371000Y-62472000D03*
X128391000Y-62472000D03*
X129411000Y-62472000D03*
X130431000Y-62472000D03*
X131451000Y-62472000D03*
X132471000Y-62472000D03*
X133491000Y-62472000D03*
X134511000Y-62472000D03*
D14*
X122471000Y-55492000D03*
D13*
X122471000Y-55492000D03*
X122557000Y-143187000D03*
D14*
X122557000Y-143187000D03*
D15*
X125157000Y-136447000D03*
X137147000Y-136447000D03*
D16*
X134757000Y-136207000D03*
X133737000Y-136207000D03*
X132717000Y-136207000D03*
X131697000Y-136207000D03*
X130677000Y-136207000D03*
X129657000Y-136207000D03*
X128637000Y-136207000D03*
X127617000Y-136207000D03*
D14*
X139657000Y-143187000D03*
D13*
X139657000Y-143187000D03*
X142877000Y-143187000D03*
D14*
X142877000Y-143187000D03*
D15*
X145477000Y-136447000D03*
X157467000Y-136447000D03*
D16*
X155077000Y-136207000D03*
X154057000Y-136207000D03*
X153037000Y-136207000D03*
X152017000Y-136207000D03*
X150997000Y-136207000D03*
X149977000Y-136207000D03*
X148957000Y-136207000D03*
X147937000Y-136207000D03*
D14*
X159977000Y-143187000D03*
D13*
X159977000Y-143187000D03*
D17*
X117932000Y-58420000D03*
M02*
