G04 #@! TF.FileFunction,Soldermask,Bot*
%FSLAX46Y46*%
G04 Gerber Fmt 4.6, Leading zero omitted, Abs format (unit mm)*
G04 Created by KiCad (PCBNEW 4.0.4-stable) date 03/16/17 08:36:36*
%MOMM*%
%LPD*%
G01*
G04 APERTURE LIST*
%ADD10C,0.100000*%
%ADD11C,1.900000*%
%ADD12C,1.300000*%
%ADD13C,2.300000*%
%ADD14C,3.600000*%
%ADD15R,3.900120X3.900120*%
%ADD16R,2.100000X2.100000*%
%ADD17O,2.100000X2.100000*%
%ADD18C,2.900000*%
%ADD19C,2.400000*%
G04 APERTURE END LIST*
D10*
D11*
X112142000Y-112268000D03*
X118142000Y-112268000D03*
D12*
X183517000Y-143187000D03*
D13*
X186117000Y-136447000D03*
X198107000Y-136447000D03*
D12*
X200617000Y-143187000D03*
X163197000Y-143187000D03*
D13*
X165797000Y-136447000D03*
X177787000Y-136447000D03*
D12*
X180297000Y-143187000D03*
D14*
X205283000Y-139700000D03*
X117932000Y-139700000D03*
X205334000Y-58420000D03*
D12*
X112972000Y-63375000D03*
D13*
X119712000Y-65975000D03*
X119712000Y-77965000D03*
D12*
X112972000Y-80475000D03*
D15*
X199768860Y-90170000D03*
X205768340Y-90170000D03*
X202768600Y-85471000D03*
D12*
X112972000Y-82933000D03*
D13*
X119712000Y-85533000D03*
X119712000Y-97523000D03*
D12*
X112972000Y-100033000D03*
D16*
X195072000Y-104648000D03*
D17*
X195072000Y-102108000D03*
X195072000Y-99568000D03*
X195072000Y-97028000D03*
X195072000Y-94488000D03*
D18*
X202427000Y-74422000D03*
X202427000Y-79502000D03*
D11*
X196091000Y-88392000D03*
X196091000Y-85852000D03*
D19*
X196091000Y-75692000D03*
X196091000Y-68072000D03*
D11*
X155451000Y-88392000D03*
X155451000Y-85852000D03*
D19*
X155451000Y-75692000D03*
X155451000Y-68072000D03*
D11*
X126870000Y-110490000D03*
X126870000Y-113030000D03*
D19*
X126870000Y-123190000D03*
X126870000Y-130810000D03*
D11*
X167510000Y-110490000D03*
X167510000Y-113030000D03*
D19*
X167510000Y-123190000D03*
X167510000Y-130810000D03*
D11*
X188471000Y-88392000D03*
X188471000Y-85852000D03*
D19*
X188471000Y-75692000D03*
X188471000Y-68072000D03*
D11*
X147831000Y-88392000D03*
X147831000Y-85852000D03*
D19*
X147831000Y-75692000D03*
X147831000Y-68072000D03*
D11*
X134490000Y-110490000D03*
X134490000Y-113030000D03*
D19*
X134490000Y-123190000D03*
X134490000Y-130810000D03*
D11*
X175130000Y-110490000D03*
X175130000Y-113030000D03*
D19*
X175130000Y-123190000D03*
X175130000Y-130810000D03*
D11*
X175771000Y-88392000D03*
X175771000Y-85852000D03*
D19*
X175771000Y-75692000D03*
X175771000Y-68072000D03*
D11*
X135131000Y-88392000D03*
X135131000Y-85852000D03*
D19*
X135131000Y-75692000D03*
X135131000Y-68072000D03*
D11*
X147190000Y-110490000D03*
X147190000Y-113030000D03*
D19*
X147190000Y-123190000D03*
X147190000Y-130810000D03*
D11*
X187830000Y-110490000D03*
X187830000Y-113030000D03*
D19*
X187830000Y-123190000D03*
X187830000Y-130810000D03*
D11*
X168151000Y-88392000D03*
X168151000Y-85852000D03*
D19*
X168151000Y-75692000D03*
X168151000Y-68072000D03*
D11*
X127511000Y-88392000D03*
X127511000Y-85852000D03*
D19*
X127511000Y-75692000D03*
X127511000Y-68072000D03*
D11*
X154810000Y-110490000D03*
X154810000Y-113030000D03*
D19*
X154810000Y-123190000D03*
X154810000Y-130810000D03*
D11*
X195450000Y-110490000D03*
X195450000Y-113030000D03*
D19*
X195450000Y-123190000D03*
X195450000Y-130810000D03*
D12*
X200531000Y-55492000D03*
D13*
X197931000Y-62232000D03*
X185941000Y-62232000D03*
D12*
X183431000Y-55492000D03*
X180211000Y-55492000D03*
D13*
X177611000Y-62232000D03*
X165621000Y-62232000D03*
D12*
X163111000Y-55492000D03*
X159891000Y-55492000D03*
D13*
X157291000Y-62232000D03*
X145301000Y-62232000D03*
D12*
X142791000Y-55492000D03*
X139571000Y-55492000D03*
D13*
X136971000Y-62232000D03*
X124981000Y-62232000D03*
D12*
X122471000Y-55492000D03*
X122557000Y-143187000D03*
D13*
X125157000Y-136447000D03*
X137147000Y-136447000D03*
D12*
X139657000Y-143187000D03*
X142877000Y-143187000D03*
D13*
X145477000Y-136447000D03*
X157467000Y-136447000D03*
D12*
X159977000Y-143187000D03*
D14*
X117932000Y-58420000D03*
M02*
