G04 #@! TF.FileFunction,Soldermask,Bot*
%FSLAX46Y46*%
G04 Gerber Fmt 4.6, Leading zero omitted, Abs format (unit mm)*
G04 Created by KiCad (PCBNEW 4.0.4-stable) date 06/11/17 19:28:35*
%MOMM*%
%LPD*%
G01*
G04 APERTURE LIST*
%ADD10C,0.100000*%
%ADD11C,1.300000*%
%ADD12C,2.300000*%
%ADD13O,5.401260X3.399740*%
%ADD14C,2.900000*%
%ADD15R,2.100000X2.100000*%
%ADD16O,2.100000X2.100000*%
%ADD17C,1.900000*%
%ADD18C,2.400000*%
G04 APERTURE END LIST*
D10*
D11*
X23370000Y5835000D03*
D12*
X25970000Y12575000D03*
X37960000Y12575000D03*
D11*
X40470000Y5835000D03*
X3685000Y5835000D03*
D12*
X6285000Y12575000D03*
X18275000Y12575000D03*
D11*
X20785000Y5835000D03*
D13*
X5715000Y36045140D03*
X5715000Y40005000D03*
X5715000Y43964860D03*
X5715000Y47924720D03*
X5715000Y32085280D03*
X39370000Y43964860D03*
X39370000Y40005000D03*
X39370000Y36045140D03*
X39370000Y32085280D03*
X39370000Y47924720D03*
D14*
X11430000Y80050000D03*
X16510000Y80050000D03*
X21590000Y80050000D03*
X26670000Y80050000D03*
X31750000Y80010000D03*
D15*
X10160000Y27305000D03*
D16*
X12700000Y27305000D03*
X15240000Y27305000D03*
X17780000Y27305000D03*
X20320000Y27305000D03*
D17*
X13465000Y52705000D03*
X13465000Y55245000D03*
D18*
X13465000Y65405000D03*
X13465000Y73025000D03*
D17*
X19815000Y52705000D03*
X19815000Y55245000D03*
D18*
X19815000Y65405000D03*
X19815000Y73025000D03*
D17*
X26165000Y52705000D03*
X26165000Y55245000D03*
D18*
X26165000Y65405000D03*
X26165000Y73025000D03*
D17*
X32515000Y52705000D03*
X32515000Y55245000D03*
D18*
X32515000Y65405000D03*
X32515000Y73025000D03*
M02*
