%TF.GenerationSoftware,KiCad,Pcbnew,(5.0.1)-3*%
%TF.CreationDate,2018-12-23T11:38:55+11:00*%
%TF.ProjectId,4Channel-SSR-Switch,344368616E6E656C2D5353522D537769,1.2*%
%TF.SameCoordinates,PX7c25018PY96ca4b8*%
%TF.FileFunction,Paste,Top*%
%TF.FilePolarity,Positive*%
%FSLAX46Y46*%
G04 Gerber Fmt 4.6, Leading zero omitted, Abs format (unit mm)*
G04 Created by KiCad (PCBNEW (5.0.1)-3) date 23/12/2018 11:38:55 AM*
%MOMM*%
%LPD*%
G01*
G04 APERTURE LIST*
%ADD10C,0.100000*%
%ADD11R,1.219200X0.406400*%
%ADD12R,0.350000X0.800000*%
%ADD13R,0.800000X0.750000*%
%ADD14R,0.750000X0.800000*%
%ADD15R,1.500000X4.000000*%
%ADD16R,0.600000X2.100000*%
%ADD17R,0.500000X0.900000*%
%ADD18R,0.650000X0.400000*%
%ADD19R,0.450000X0.400000*%
%ADD20R,1.000000X0.250000*%
%ADD21R,0.250000X1.000000*%
%ADD22R,2.200000X1.200000*%
%ADD23R,3.050000X2.750000*%
%ADD24R,1.600000X1.000000*%
%ADD25R,1.000000X3.000000*%
G04 APERTURE END LIST*
D10*
%TO.C,D1*%
G36*
X14058445Y18729000D02*
X14359000Y18729000D01*
X14359000Y17978080D01*
X14058445Y17978080D01*
X14058445Y18729000D01*
G37*
G36*
X14708858Y18729000D02*
X15009000Y18729000D01*
X15009000Y17977750D01*
X14708858Y17977750D01*
X14708858Y18729000D01*
G37*
G36*
X15359413Y18729000D02*
X15659000Y18729000D01*
X15659000Y17977910D01*
X15359413Y17977910D01*
X15359413Y18729000D01*
G37*
G36*
X15659000Y19879043D02*
X15359037Y19879043D01*
X15359037Y20629000D01*
X15659000Y20629000D01*
X15659000Y19879043D01*
G37*
G36*
X15009000Y19879076D02*
X14708980Y19879076D01*
X14708980Y20629000D01*
X15009000Y20629000D01*
X15009000Y19879076D01*
G37*
G36*
X14359000Y19880111D02*
X14057454Y19880111D01*
X14057454Y20629000D01*
X14359000Y20629000D01*
X14359000Y19880111D01*
G37*
%TD*%
D11*
%TO.C,ZD1*%
X18846800Y21209000D03*
X18846800Y19939000D03*
X18846800Y18669000D03*
X22047200Y18669000D03*
X22047200Y19939000D03*
X22047200Y21209000D03*
%TD*%
D12*
%TO.C,D1*%
X14209000Y18354000D03*
X14859000Y18354000D03*
X15509000Y18354000D03*
X15509000Y20254000D03*
X14859000Y20254000D03*
X14209000Y20254000D03*
%TD*%
D13*
%TO.C,C2*%
X26785000Y29210000D03*
X25285000Y29210000D03*
%TD*%
%TO.C,C3*%
X16879000Y48641000D03*
X15379000Y48641000D03*
%TD*%
%TO.C,C4*%
X26785000Y32385000D03*
X25285000Y32385000D03*
%TD*%
D14*
%TO.C,C5*%
X15240000Y38620000D03*
X15240000Y40120000D03*
%TD*%
D15*
%TO.C,J1*%
X23370000Y5835000D03*
D16*
X35570000Y12815000D03*
X34550000Y12815000D03*
X33530000Y12815000D03*
X32510000Y12815000D03*
X31490000Y12815000D03*
X30470000Y12815000D03*
X29450000Y12815000D03*
X28430000Y12815000D03*
D15*
X40470000Y5835000D03*
%TD*%
%TO.C,J2*%
X3685000Y5835000D03*
D16*
X15885000Y12815000D03*
X14865000Y12815000D03*
X13845000Y12815000D03*
X12825000Y12815000D03*
X11805000Y12815000D03*
X10785000Y12815000D03*
X9765000Y12815000D03*
X8745000Y12815000D03*
D15*
X20785000Y5835000D03*
%TD*%
D17*
%TO.C,R1*%
X42315000Y15621000D03*
X43815000Y15621000D03*
%TD*%
D18*
%TO.C,RP1*%
X11500000Y36160000D03*
X11500000Y34960000D03*
X13900000Y36160000D03*
X13900000Y34960000D03*
D19*
X12300000Y36160000D03*
X13100000Y36160000D03*
X13100000Y34960000D03*
X12300000Y34960000D03*
%TD*%
D18*
%TO.C,RP2*%
X32950000Y44485000D03*
X32950000Y45685000D03*
X30550000Y44485000D03*
X30550000Y45685000D03*
D19*
X32150000Y44485000D03*
X31350000Y44485000D03*
X31350000Y45685000D03*
X32150000Y45685000D03*
%TD*%
D18*
%TO.C,RP3*%
X13900000Y43850000D03*
X13900000Y45050000D03*
X11500000Y43850000D03*
X11500000Y45050000D03*
D19*
X13100000Y43850000D03*
X12300000Y43850000D03*
X12300000Y45050000D03*
X13100000Y45050000D03*
%TD*%
D18*
%TO.C,RP4*%
X32950000Y34960000D03*
X32950000Y36160000D03*
X30550000Y34960000D03*
X30550000Y36160000D03*
D19*
X32150000Y34960000D03*
X31350000Y34960000D03*
X31350000Y36160000D03*
X32150000Y36160000D03*
%TD*%
D20*
%TO.C,U2*%
X17160000Y45025000D03*
X17160000Y44525000D03*
X17160000Y44025000D03*
X17160000Y43525000D03*
X17160000Y43025000D03*
X17160000Y42525000D03*
X17160000Y42025000D03*
X17160000Y41525000D03*
X17160000Y41025000D03*
X17160000Y40525000D03*
X17160000Y40025000D03*
X17160000Y39525000D03*
X17160000Y39025000D03*
X17160000Y38525000D03*
X17160000Y38025000D03*
X17160000Y37525000D03*
D21*
X19110000Y35575000D03*
X19610000Y35575000D03*
X20110000Y35575000D03*
X20610000Y35575000D03*
X21110000Y35575000D03*
X21610000Y35575000D03*
X22110000Y35575000D03*
X22610000Y35575000D03*
X23110000Y35575000D03*
X23610000Y35575000D03*
X24110000Y35575000D03*
X24610000Y35575000D03*
X25110000Y35575000D03*
X25610000Y35575000D03*
X26110000Y35575000D03*
X26610000Y35575000D03*
D20*
X28560000Y37525000D03*
X28560000Y38025000D03*
X28560000Y38525000D03*
X28560000Y39025000D03*
X28560000Y39525000D03*
X28560000Y40025000D03*
X28560000Y40525000D03*
X28560000Y41025000D03*
X28560000Y41525000D03*
X28560000Y42025000D03*
X28560000Y42525000D03*
X28560000Y43025000D03*
X28560000Y43525000D03*
X28560000Y44025000D03*
X28560000Y44525000D03*
X28560000Y45025000D03*
D21*
X26610000Y46975000D03*
X26110000Y46975000D03*
X25610000Y46975000D03*
X25110000Y46975000D03*
X24610000Y46975000D03*
X24110000Y46975000D03*
X23610000Y46975000D03*
X23110000Y46975000D03*
X22610000Y46975000D03*
X22110000Y46975000D03*
X21610000Y46975000D03*
X21110000Y46975000D03*
X20610000Y46975000D03*
X20110000Y46975000D03*
X19610000Y46975000D03*
X19110000Y46975000D03*
%TD*%
D22*
%TO.C,U1*%
X11185000Y18040000D03*
X11185000Y22600000D03*
D23*
X3210000Y21845000D03*
X6560000Y18795000D03*
X3210000Y18795000D03*
X6560000Y21845000D03*
%TD*%
D24*
%TO.C,C1*%
X26035000Y21995000D03*
X26035000Y24995000D03*
%TD*%
D25*
%TO.C,P1*%
X31750000Y19455000D03*
X31750000Y24995000D03*
X34290000Y19455000D03*
X34290000Y24995000D03*
X36830000Y19455000D03*
X36830000Y24995000D03*
X39370000Y19455000D03*
X39370000Y24995000D03*
X41910000Y19455000D03*
X41910000Y24995000D03*
%TD*%
M02*
