M48
;DRILL file {KiCad (5.0.1)-3} date 23/12/2018 11:22:38 AM
;FORMAT={-:-/ absolute / inch / decimal}
FMAT,2
INCH,TZ
T1C0.0157
T2C0.0315
T3C0.0394
T4C0.0472
T5C0.0709
T6C0.0748
%
G90
G05
M72
T1
X0.4188Y1.726
X0.4227Y1.686
X0.4904Y0.7616
X0.5157Y1.5695
X0.5407Y0.5693
X0.5422Y1.4714
X0.585Y0.59
X0.6061Y1.4353
X0.6482Y1.3782
X0.714Y1.3989
X0.7312Y1.7938
X0.7395Y1.6167
X0.8481Y1.33
X0.8481Y0.9532
X0.8794Y1.4406
X0.9436Y0.7607
X1.0953Y0.6642
X1.1475Y1.3603
X1.1814Y1.3214
X1.1911Y1.4759
X1.2065Y0.6588
X1.2447Y1.4714
X1.2693Y1.5695
X1.2965Y1.6855
X1.36Y0.59
X1.6148Y1.1125
T2
X0.1451Y0.2297
X0.8183Y0.2297
X0.5301Y2.875
X0.5301Y2.575
X0.5301Y2.175
X0.5301Y2.075
X0.9201Y0.2297
X1.5933Y0.2297
X1.0301Y2.875
X1.0301Y2.575
X1.0301Y2.175
X1.0301Y2.075
X1.2801Y2.875
X1.2801Y2.575
X1.2801Y2.175
X1.2801Y2.075
X0.7801Y2.875
X0.7801Y2.575
X0.7801Y2.175
X0.7801Y2.075
T3
X0.4Y1.075
X0.5Y1.075
X0.6Y1.075
X0.7Y1.075
X0.8Y1.075
T4
X0.45Y3.1516
X0.65Y3.1516
X0.85Y3.1516
X1.05Y3.1516
X1.25Y3.15
T5
X1.55Y1.8868
X1.55Y1.7309
X1.55Y1.575
X1.55Y1.4191
X1.55Y1.2632
X0.225Y1.8868
X0.225Y1.7309
X0.225Y1.575
X0.225Y1.4191
X0.225Y1.2632
T6
X0.2474Y0.4951
X0.7195Y0.4951
X1.0224Y0.4951
X1.4945Y0.4951
T0
M30
